<?xml version="1.0" encoding="utf-8"?>
<!-- Generator: Adobe Illustrator 16.0.0, SVG Export Plug-In . SVG Version: 6.00 Build 0)  -->
<!DOCTYPE svg PUBLIC "-//W3C//DTD SVG 1.1//EN" "http://www.w3.org/Graphics/SVG/1.1/DTD/svg11.dtd">
<svg version="1.1" id="Layer_1" xmlns="http://www.w3.org/2000/svg" xmlns:xlink="http://www.w3.org/1999/xlink" x="0px" y="0px"
	 width="226.77px" height="226.77px" viewBox="0 0 226.77 226.77" enable-background="new 0 0 226.77 226.77" xml:space="preserve">
<path fill-rule="evenodd" clip-rule="evenodd" d="M165.002,98.797c-1.061-0.843-2.115-1.691-3.171-2.533l-3.688-3.289
	c-2.523-0.993-5.053-1.979-7.57-2.97c-2.72-1.404-5.437-2.806-8.158-4.201c-0.986-0.415-2.182-0.302-3.26-0.659
	c-0.809-0.375-1.616-0.748-2.423-1.122l-2.459-0.837c-0.707-0.401-0.943-1.483-1.522-2.068c-0.711-0.713-1.763-0.454-2.399-1.183
	c-0.219,0.03-0.43,0.062-0.647,0.092c-0.045-2.072,0.097-4.389,0.338-5.672c5.611-0.711,10.461-1.099,14.611-3.211
	c1.01-0.484,2.018-0.969,3.03-1.455c1.027-1.372,0.394-3.876-0.062-5.395c-0.939-3.104-2.48-5.493-4.248-7.758
	c-0.924-0.99-1.854-1.98-2.783-2.971c-0.101-0.648-0.205-1.292-0.306-1.938c-0.438-1.657-1.535-4.381-2.67-5.275
	c-3.722-2.942-9.271-3.752-12.238-7.454c-0.266-0.264-0.522-0.525-0.789-0.79c-0.965-2.235,0.95-6.157,1.213-8.241
	c0.386,0.169,0.866,0.426,1.333,0.304c0.774-0.394,1.562-4.535,0.787-5.576c-0.164-0.152-0.189-0.088-0.482-0.061
	c0.343-0.941,0.062-2.143,0.242-3.334c0.886-5.877-3.769-9.952-8.971-9.939c-1.295,0.262-2.587,0.526-3.883,0.786
	c-2.272,0.746-4.364,2.875-4.905,5.333c-0.219,0.977-0.289,2.341-0.123,3.272c0.078,0.627,0.159,1.259,0.242,1.881
	c-0.116,0.486-0.598,0.495-0.787,0.849c-0.729,1.346-0.484,4.275,0.057,5.576c0.835,0.23,1.025,0.172,1.887,0
	c0.576,2.355,2.928,9.633,1.688,11.577c-1.404,2.223-4.205,3.614-7.212,4.24c-2.509,0.526-4.86,0.247-6.845,1.092
	c-3.862,1.643-6.467,4.86-9.639,7.214c-1.98,1.029-3.958,2.06-5.938,3.093c-3.006,1.528-5.906,3.006-8.729,4.664
	c-1.283,0.755-2.715,1.262-3.699,2.304c-0.749,0.799-1.638,3.028-0.906,4.485c0.729,1.266,6.804,4.777,8.488,5.396
	c1.027,0.203,2.059,0.401,3.089,0.604c2.347,0.665,4.185,2.398,6.307,3.334c0.7,0.312,2.005,0.868,2.908,0.726
	c0.686-0.059,1.369-0.119,2.06-0.181c1.988,0.343,5.856,0.649,5.999,0.122c0.204-1.254-1.096-0.941,1.577-0.604
	c1.296,0.226,1.765-0.993,0.966-1.396c-0.845-0.341-2.114-0.59-3.341-0.754c-0.125-0.003-4.598-0.099-5.201-0.577
	c-0.612-0.485,0.305-0.127,0.305-0.127s4.961,0.513,4.989,0.52c0.918,0.181,1.828,0.458,2.463,0.516
	c1.115,0.247,1.1-0.815,0.606-1.274c-1.137-1.27-6.68-1.837-8.971-2.059c-0.018-0.042-0.038-0.081-0.056-0.125
	c1.229-1.202,5.243-0.055,7.023-0.665c0.092-0.18,0.127-0.343,0.124-0.665c-0.754-1.034-3.549-1.377-5.271-1.336v-0.059
	c5.237-2.773,3.577-3.455,3.577-3.455c-1.091,0.048-1.462,0.92-2.368,1.213c-2.125,0.681-4.872,0.619-7.452,1.09
	c-1.011,0.14-2.021,0.284-3.033,0.424c-2.139-0.279-3.676-1.858-5.331-2.544V65.69c1.533-0.79,3.07-1.577,4.606-2.367
	c3.24-1.649,6.516-3.368,10.001-4.728c1.749-0.681,3.322-1.442,5.513-0.724c-1.687,5.649,0.676,8.026,2.488,12.241
	c0.585,1.534,1.17,3.07,1.759,4.608c0.463,1.48,0.567,2.884,0.882,4.441c-0.018,0.009-0.031,0.021-0.053,0.025
	c-0.437,0.145-0.877,0.243-1.309,0.345c-0.424,0.437-0.995,0.769-1.764,0.873L91.075,81.82c-0.343,0.216-0.787,0.417-1.436,0.6
	l-6.313-0.313c-3.469-0.071-7.395,0.463-10.332,1.61l-1.521,0.967c-1.785,0.668-4.42,0.617-5.319,1.961
	c0.14,0.606,0.249,0.73,0.332,1.4l-1.008,0.206l-0.162,0.366c-0.152,0.438,0.318,0.579,0.48,0.973
	c0.104,0.927,0.21,1.854,0.31,2.783c0.822,0.652,2.504,0.474,3.776-0.1c0.391,0.619,0.621,1.625,0.914,2.15
	c0.521,0.218,1.427,0.069,1.968,0.284c0.271,0.109,0.367,0.266,0.492,0.554c-0.374,0.794-0.195,1.69,0.157,2.574
	c-2.884,0.536-5.695,1.331-8.372,2.575c0.039,0.252,0.074,0.522,0.087,0.858c-0.3,0.159-0.606,0.317-0.911,0.484
	c-0.917,0.714-2.878,3.661-2.422,5.632c0.462,0.932,0.929,1.861,1.392,2.793c1.156,1.291,2.304,2.585,3.455,3.879
	c1.211,0.807,2.429,1.616,3.635,2.423c2.068,1.809,3.535,4.345,5.703,6.063c3.131,2.582,6.261,5.17,9.393,7.755
	c0.848,0.929,1.695,1.858,2.547,2.79c3.339,4.672,5.878,9.829,10.486,13.211c2.953,2.171,5.629,4.534,8.605,6.729
	c1.905,1.406,2.609,3.023,5.452,1.879c-0.72,5.202-2.696,9.247-3.817,14.186c-0.242,2.098-0.482,4.202-0.725,6.3
	c-0.779,3.821-1.736,7.93-3.155,11.335c-0.933,2.249-2.796,4.054-3.751,6.183c-1.551,3.442-1.929,7.391-2.911,11.336
	c-0.342,1.365-1.123,4.094-0.915,5.697c0.3,2.199,0.95,4.267,1.275,6.181c1.473,0.478,3.436,1.219,5.094,0.548
	c0.646-1.556,1.292-3.112,1.937-4.669c0.062-0.927,0.122-1.858,0.18-2.785c0.285-0.83,0.569-1.658,0.854-2.485
	c1.333-2.71,2.666-5.414,3.999-8.124c0.23-1.213-0.806-2.482-1.03-3.395c-0.534-2.188,0.672-4.846,1.335-6.423
	c1.409-3.372,3.586-6.521,5.454-9.517c1.271-2.043,2.277-4.188,3.512-6.304c0.668-1.194,1.335-2.387,2.003-3.578
	c2.469-6.579,1.479-16.745,3.088-24.061c0.162-0.949,0.328-1.898,0.489-2.85c0.709-1.655,1.412-3.315,2.123-4.97
	c1.834-5.838,2.969-11.894,4.784-17.939c1.213-4.032,2.587-7.745,3.09-12.365c0.121-0.058,0.238-0.125,0.358-0.192
	c-0.249-0.795-0.478-1.593-0.704-2.393c0.534-0.107,1.066-0.195,1.579-0.183l1.315,0.033l1.047-0.421
	c0.334,0.118,0.672,0.231,1.006,0.347l1.161-0.089c0.55,0.209,2.063,2.578,2.434,3.185c1.375,0.633,3.465-1.676,5.134-1.317
	c2.825,0.614,4.535,4.133,7.714,4.537c0.257-0.892,0.992-1.234,1.056-2.352c0.47-0.108,0.938-0.218,1.404-0.327
	c0.138-0.663,0.279-1.323,0.422-1.987c1.261,0.479,2.378,0.048,3.434,0.433c0.288-0.648,0.4-1.351,0.227-2.376l1.266-0.864
	c0.357-1.07-0.179-1.754-0.673-2.386C163.89,99.97,164.545,99.551,165.002,98.797z M133.798,59.324
	c1.37,1.165,2.084,3.07,3.519,4.185c0.021,0.057,0.041,0.117,0.062,0.179c-1.699,0.649-3.397,1.296-5.094,1.941
	C132.284,62.846,132.738,60.952,133.798,59.324z M112.769,145.092c0.287,1.78,0.152,3.854,0,5.571
	c-2.141-2.826-4.281-5.653-6.425-8.483c-1.481-4.139,0.691-8.577-3.637-10.303c-0.433-0.173-0.942-0.572-1.575-0.485
	c-1.51,0.206-2.991,0.36-4.729,0.363c-1.212-2.081-2.421-4.162-3.634-6.239c-1.923-3.56-3.842-7.116-5.762-10.672
	c-0.889-1.008-1.774-2.021-2.668-3.028c2.125,0.36,4.247,0.729,6.37,1.089c2.12,0.164,4.24,0.32,6.363,0.487
	c3.047-0.262,6.097-0.524,9.151-0.79c2.32-0.203,4.646-0.401,6.968-0.606c-0.136,2.163-0.283,4.323-0.423,6.487
	c0.322,3.453,0.646,6.909,0.968,10.364c-0.279,2.323-0.566,4.646-0.851,6.97c-0.117,1.453-0.236,2.91-0.358,4.363
	C112.275,141.799,112.559,143.787,112.769,145.092z"/>
</svg>
