<?xml version="1.0" encoding="utf-8"?>
<!-- Generator: Adobe Illustrator 16.0.0, SVG Export Plug-In . SVG Version: 6.00 Build 0)  -->
<!DOCTYPE svg PUBLIC "-//W3C//DTD SVG 1.1//EN" "http://www.w3.org/Graphics/SVG/1.1/DTD/svg11.dtd">
<svg version="1.1" id="Layer_1" xmlns="http://www.w3.org/2000/svg" xmlns:xlink="http://www.w3.org/1999/xlink" x="0px" y="0px"
	 width="226.77px" height="226.77px" viewBox="0 0 226.77 226.77" enable-background="new 0 0 226.77 226.77" xml:space="preserve">
<path d="M18.74,7.184c-0.568-0.074-0.428,0.098-0.178,0.46c0.124,0.095,0.241,0.187,0.363,0.275
	c1.659,0.892,4.444-1.244,5.801-0.457c0.681,0.398,1.352,0.797,2.024,1.199v0.455c-1.56-0.049-2.517-0.21-4.048,0.493
	c-0.389,0.251-0.559,0.613,0.369,0.705s2.239-0.108,3.501,0.183c0.797,0.281,1.593,0.558,2.39,0.833
	c0.647-0.063,1.292-0.121,1.94-0.183c1.073,0.22,1.975,1.225,2.783,2.307c-0.001,0.021-0.001,0.047-0.008,0.072
	c0.019,0,0.036,0,0.059,0.005c0.62,1.32,1.243,2.646,1.865,3.968c0.685,2.74,1.374,5.488,2.064,8.232
	c1.456,4.738,3.188,9.087,4.907,13.501c1.618,4.756,3.244,9.514,4.865,14.27c0.499,0.958,1,1.919,1.499,2.877l1.866,3.813
	c1.021,2.005,2.142,4.107,2.998,6.242c0.708,1.761-0.227,4.515-0.53,6.042c-0.034,0.754-0.077,1.512-0.117,2.27
	c-0.302,1.876-0.104,3.64,0.242,5.269c0.084,0.543,0.164,1.084,0.242,1.625l1.261,2.877c0.941,1.025,1.893,2.053,2.838,3.082
	c1.5,2.028,2.999,4.055,4.499,6.08c1.636,1.689,3.271,3.381,4.909,5.07c1.175,1.458,2.709,2.914,4.172,4.097
	c1.021,0.998,2.045,1.999,3.065,3.001l-1.067,1.478c-0.459,0.806-0.922,1.608-1.386,2.416c-0.703,0.958-1.782,1.583-2.373,2.53
	c-1.47,2.834-2.938,5.666-4.403,8.501c-1.55,2.367-3.101,4.731-4.65,7.096l-1.153,5.027c-0.386,1.357-0.772,2.713-1.16,4.069
	c0.842,0.361,1.65,0.329,2.47,0.877c-0.036,0.838-0.08,1.741,0.871,2.439l1.595-0.029c0.477,0.975,0.989,1.506,1.627,1.883
	c0.674-0.965,1.886-1.272,2.667-2.443c0.519,0.479,1.036,0.961,1.557,1.438c0.467-0.187,0.928-0.373,1.393-0.566
	c0.73,0.907,1.562,0.76,2.318,1.359c2.462-2.266,1.793-6.292,3.829-8.518c1.199-1.314,4.366-0.607,5.156-1.977
	c-0.049-0.744-0.194-3.671,0.146-4.182l1.044-0.625c0.21-0.299,0.431-0.601,0.649-0.903l1.142-0.276l1.104-0.819
	c0.267-0.206,0.574-0.377,0.886-0.542c0.125,3.829,0.248,7.654,0.364,11.48c0.945,3.379,1.894,6.758,2.844,10.139
	c0.075-0.018,0.157-0.029,0.241-0.043c0.2,1.242,0.408,2.486,0.606,3.73c0.365,2.338,0.727,4.676,1.094,7.014
	c0.595,2.241,1.191,4.482,1.783,6.729l-1.213,11.148c-0.125,1.447-0.245,2.892-0.369,4.337c-0.623,3.671-0.692,7.298-1.378,10.787
	c-0.165,1.246-0.323,2.486-0.483,3.726c-0.935,3.474-1.866,6.95-2.802,10.425c-0.293,1.402-0.122,2.846-0.122,4.373l0.046,2.316
	c0.731,3.488,1.785,7.268,3.361,9.973c0.299,0.588,0.595,1.189,0.895,1.783c0,0,1.119,1.174,1.867,1.254
	c0.748,0.082,1.438-0.201,1.697-0.361c0.259-0.162,0.303-0.486,0.448-0.73c1.578-2.391,0.319-6.496-0.121-9.408
	c0.067-0.414,0.134-0.834,0.198-1.252c0.307-1.473,0.434-2.465,1.142-3.449c0.563-0.472,1.134-0.947,1.695-1.418
	c0.531-0.43,2.347-3.203,2.069-4.297c-0.133-0.191-0.265-0.383-0.401-0.568c-0.985-1.568-3.813-2.736-3.164-5.8
	c0.569-1.743,1.134-3.486,1.701-5.23c2.162-6.124,4.723-11.936,6.086-18.685c-0.024-1.844-0.056-3.678-0.087-5.517v-3.368
	c-0.129-1.971-0.264-3.941-0.398-5.92c-0.343-1.514-0.683-3.025-1.019-4.536c0.452-6.337,0.896-12.676,1.34-19.017
	c0.052-4.107,0.108-8.215,0.164-12.324c0.4-2.273,0.681-4.525,1.052-6.894l0.034-1.025c3.789-2.267,7.657-4.38,11.804-6.033
	c-0.04-0.231-0.088-0.464-0.127-0.698c0.729-0.597,1.463-1.197,2.193-1.792l0.988-0.116c0.677-0.231,1.06-1.057,1.473-1.496
	c0.881,0.156,1.77,0.31,2.654,0.464l0.585-1.031c0.343-0.256,0.869,0.008,1.523-0.471c-0.158-1.612,0.939-3.097,1.122-4.616
	c0.133-1.084-0.186-2.346-0.353-3.56c1.077-0.523,2.159-1.042,3.239-1.561c1.245-0.701,2.485-1.406,3.729-2.107
	c3.705-1.351,7.408-2.699,11.112-4.055c1.92-1.093,3.838-2.188,5.754-3.284c2.125-0.846,4.505-1.5,6.888-2.105
	c1.705-0.433,3.388-0.667,4.908-1.295c1.207-0.626,2.405-1.247,3.609-1.869c3.349-1.708,6.599-3.361,9.732-5.309
	c1.824-1.148,3.65-2.299,5.473-3.446c3.745-1.617,8.707-1.998,12.446-3.649c1.399-0.619,2.412-1.672,3.531-2.553
	c1.428-1.177,2.86-2.352,4.294-3.532c0.786-0.523,1.566-1.053,2.35-1.58c0.329-0.486,0.648-0.972,0.975-1.458
	c1.059-1.503,2.601-3.112,2.8-5.393c-0.819-1.373-1.493-2.307-2.964-3.04c-3.867,0.612-8.819,4.396-10.86,6.934l-1.906,1.902
	c-1.606,1.987-3.313,3.925-5.923,4.905c-3.715,1.401-7.938,2.618-12.041,3.452c-2.658,0.322-5.324,0.647-7.987,0.973
	c-1.584,0.201-3.159,0.402-4.741,0.605c-3.119,0.674-6.246,1.351-9.366,2.026c-2.352,0.892-4.701,1.785-7.055,2.678
	c-1.258,0.266-2.517,0.538-3.766,0.811c-1.828,0.464-3.647,0.908-5.428,1.389c0.948-0.417,1.758-1.038,1.967-1.766
	c-0.472-0.853-0.944-1.704-1.416-2.555c-0.099-0.429,0.214-0.833-0.18-1.114l-0.355-0.213l-0.982,0.432
	c-0.336-0.62-0.317-0.793-0.568-1.393c-1.574-0.605-3.785,1.032-5.709,1.541c-0.625,0.035-1.251,0.068-1.88,0.099
	c-3.19,0.802-6.847,2.714-9.755,4.868l-5.185,4.082c-0.667,0.236-1.164,0.334-1.587,0.356l-9.721,5.087
	c-0.719,0.38-1.407,0.444-2.022,0.322c-0.051,0.02-0.102,0.035-0.151,0.057c-0.648-0.03-1.301-0.057-1.952-0.084
	c-1.161-0.183-3.176-0.259-4.297-0.081c-2.623,0.013-5.243,0.028-7.867,0.039c-0.703-0.567-1.402-1.132-2.105-1.703
	c-0.031-1.809-0.342-4.902,0.038-6.57c0.474-1.715,0.947-3.428,1.42-5.147c0.403-1.578,0.77-2.972,1.297-4.338
	c0.139-0.418,0.265-0.834,0.403-1.252c1.313-1.232,2.625-2.464,3.934-3.689c0.552-0.542,1.109-1.082,1.661-1.622
	c2.68-2.355,5.353-4.706,8.029-7.059c1.027-1.037,2.058-2.078,3.084-3.117c1.919-1.881,3.833-3.759,5.757-5.639
	c0.943-0.932,1.892-1.863,2.834-2.796c2.081-1.313,4.164-2.623,6.248-3.934c1.066-0.986,2.132-1.975,3.198-2.958
	c1.963-1.583,3.816-3.375,5.598-5.152c0.822-0.821,1.623-1.615,2.481-2.378c1.565-1.171,3.126-2.358,4.716-3.54
	c2.3,0.363,4.601,0.725,6.908,1.097c1.292,0.397,2.6,1.791,3.791,1.787c0.205-0.018,0.049,0.015,0.24-0.056
	c0.262-0.177,0.329-0.371,0.295-0.63c0.066-1.562-2.718-2.157-3.957-2.821c0.907-0.73,2.015-1.399,2.813-2.016
	c1.636,0.847,6.717,1.808,7.752,0.675c0.202-0.221,0.324-0.313,0.022-0.466c-1.315-0.379-2.696-0.077-4.128-0.777
	c0,0,1.734-0.572,2.577-0.826c1.993-0.682,1.384-1.635,0.54-1.506c-4.16,0.332-8.297,0.742-12.408,1.271
	c-1.93,0.253-4.051,0.026-5.876,0.693c-1.799,0.651-3.434,1.716-5.092,2.75c-0.002-0.002-0.005-0.002-0.011-0.002
	c-0.034,0.021-0.061,0.044-0.089,0.063c-0.259,0.159-0.507,0.32-0.768,0.478c0.012,0.017,0.022,0.038,0.035,0.054
	c-1.583,1.143-3.17,2.289-4.749,3.436c-3.122,1.877-6.244,3.756-9.363,5.636c-1.261,0.714-2.516,1.431-3.771,2.146
	c-1.261,1.447-2.519,2.892-3.771,4.338c-3.175,2.602-6.262,5.39-9.609,7.786l-3.568,2.635c-0.908,0.417-1.808,0.837-2.716,1.254
	c-1.964,0.868-4.017,1.902-5.839,2.962c-1.188,0.622-2.382,1.243-3.566,1.864c-0.743,0.662-1.486,1.325-2.229,1.987
	c-0.488,0.418-0.978,0.835-1.461,1.259c-0.084-0.084-0.164-0.165-0.242-0.249c-0.788-0.372-1.623-1.393-2.067-2.144
	c0.255-0.408,0.515-0.814,0.769-1.216c0.501-0.153,0.996-0.298,1.499-0.45c0.895-0.442,1.783-0.893,2.678-1.336
	c0.82-0.507,1.579-1.262,2.553-1.624c0.651-0.244,2.656,0.13,3.082-0.244c1.214-1.038,2.763-3.981,3.239-5.757
	c-0.011-0.644-0.022-1.295-0.037-1.942c-0.472-0.447-0.945-0.891-1.419-1.339c-0.394-0.558-0.33-1.227-0.566-1.986
	c-0.301-0.825-0.595-1.65-0.892-2.473c-0.271-0.378-0.541-0.757-0.812-1.138c-1.523-2.157-3.149-3.702-5.599-4.942
	c-0.444-0.23-0.889-0.46-1.333-0.691c-0.173-0.015-0.341-0.035-0.513-0.051c-2.809-1.29-5.513-1.111-6.973-0.846
	c-1.182,0.181-2.484,0.583-3.052,1.482c-0.178,0.15-0.34,0.312-0.459,0.493c-0.315,0.461-0.547,0.947-0.673,1.433
	c-0.084,0.3-0.128,0.658-0.121,0.966c0.005,0.139,0.077,0.32,0.05,0.457c-0.03,0.146-0.269,0.289-0.39,0.433
	c-0.167,0.213-0.488,0.733-0.673,0.861c-0.018-0.005-0.035-0.007-0.057-0.013c-0.146-0.075-0.446-0.273-0.532-0.462
	c-0.041-0.101-0.034-0.311-0.15-0.362c-0.14,0.106-0.101,0.632-0.021,0.79c0.08,0.151,0.21,0.278,0.336,0.391
	c0,0.015-0.003,0.034-0.003,0.048c-0.251,0.091-0.543,0.084-0.799,0.117c-0.226,0.023-0.428,0.102-0.645,0.117
	c-0.347,0.025-0.7,0.04-1.041,0.074c-0.193,0.015-0.813-0.036-0.955,0.222c-0.108,0.194-0.154,0.44-0.133,0.644
	c0.048,0.442,0.433,0.521,0.119,0.983c-0.212,0.311-0.558,0.027-0.788,0.103c-0.128,0.045-0.257,0.219-0.3,0.308
	c-0.216,0.43,0.055,0.845,0.383,1.312l-0.023,0.02c-0.006,0.005-0.015,0.005-0.019,0.005c-0.124-0.081-0.261-0.13-0.381-0.154
	c-0.117-0.028-0.208-0.043-0.313-0.043c-0.173-0.007-0.355,0.241-0.396,0.373c-0.128,0.45,0.372,0.729,0.064,1.25
	c-0.158,0.285-0.568,0.366-0.799,0.494c-0.107,0.067-0.354,0.359-0.472,0.541c-0.004,0.013-0.008,0.016-0.017,0.026
	c-0.024,0.041-0.048,0.084-0.056,0.102c0,0.002,0.002,0.004,0.002,0.012c-0.06,0.146-0.084,0.372,0,0.65
	c0.079,0.377,0.365,0.794,0.781,1.131c0.465,0.369,0.911,0.764,1.372,1.125c0.01,0.029,0.022,0.056,0.053,0.077
	c0.201,0.149,0.735,0.597,1.171,0.961c0.034,0.004,0.062,0.026,0.093,0.035c0.607,0.621,2.689,2.917,2.729,4.737
	c-0.09,0.571-0.185,1.135-0.271,1.701c-0.431,2.219-0.554,4.566-1.503,6.325c-0.066,0.025-0.132,0.057-0.197,0.084
	c-0.9-0.299-2.555-3.047-3.564-4.735c0.001-0.001,0.026-0.005,0.026-0.005c-1.121-1.64-4.353-7.312-4.686-7.895
	c-0.596-1.678-1.199-3.361-1.797-5.043l-1.377-6.039c-0.579-1.652-1.162-3.299-1.745-4.95l-2.229-3.159
	c-0.565-1.245-1.136-2.491-1.7-3.731l-3.532-7.056c-0.389-0.767-0.719-1.644-1.08-2.506c-0.362-0.732-2.22-2.123-2.22-2.123
	c-1.079-0.836-2.157-1.673-3.224-2.546c-1.511-0.673-3.009-1.355-4.513-2.029c-0.871-0.435-1.653-1.217-2.486-1.652
	c-1.885,0.732-4.105-0.251-5.067-1.203c-0.568-0.595-0.712-0.082-0.278,0.468s0.434,0.549,0.644,0.826v0.095
	c-0.916-0.219-1.879-0.464-2.758-0.646s-1.013,0.227,0,0.646s1.641,0.583,2.575,1.009c-0.06,0.024-0.124,0.063-0.183,0.095
	C20.852,7.095,19.9,7.209,18.74,7.184z"/>
</svg>
