  0
SECTION
  2
HEADER
  9
$ACADVER
  1
AC1021
  9
$ACADMAINTVER
 70
    25
  9
$DWGCODEPAGE
  3
ANSI_1252
  9
$INSBASE
 10
0.0
 20
0.0
 30
0.0
  9
$EXTMIN
 10
1.000000000000000E+20
 20
1.000000000000000E+20
 30
1.000000000000000E+20
  9
$EXTMAX
 10
-1.000000000000000E+20
 20
-1.000000000000000E+20
 30
-1.000000000000000E+20
  9
$LIMMIN
 10
0.0
 20
0.0
  9
$LIMMAX
 10
12.0
 20
9.0
  9
$ORTHOMODE
 70
     0
  9
$REGENMODE
 70
     1
  9
$FILLMODE
 70
     1
  9
$QTEXTMODE
 70
     0
  9
$MIRRTEXT
 70
     1
  9
$LTSCALE
 40
1.0
  9
$ATTMODE
 70
     1
  9
$TEXTSIZE
 40
0.2
  9
$TRACEWID
 40
0.05
  9
$TEXTSTYLE
  7
Standard
  9
$CLAYER
  8
0
  9
$CELTYPE
  6
ByLayer
  9
$CECOLOR
 62
   256
  9
$CELTSCALE
 40
1.0
  9
$DISPSILH
 70
     0
  9
$DIMSCALE
 40
1.0
  9
$DIMASZ
 40
0.18
  9
$DIMEXO
 40
0.0625
  9
$DIMDLI
 40
0.38
  9
$DIMRND
 40
0.0
  9
$DIMDLE
 40
0.0
  9
$DIMEXE
 40
0.18
  9
$DIMTP
 40
0.0
  9
$DIMTM
 40
0.0
  9
$DIMTXT
 40
0.18
  9
$DIMCEN
 40
0.09
  9
$DIMTSZ
 40
0.0
  9
$DIMTOL
 70
     0
  9
$DIMLIM
 70
     0
  9
$DIMTIH
 70
     1
  9
$DIMTOH
 70
     1
  9
$DIMSE1
 70
     0
  9
$DIMSE2
 70
     0
  9
$DIMTAD
 70
     0
  9
$DIMZIN
 70
     0
  9
$DIMBLK
  1

  9
$DIMASO
 70
     1
  9
$DIMSHO
 70
     1
  9
$DIMPOST
  1

  9
$DIMAPOST
  1

  9
$DIMALT
 70
     0
  9
$DIMALTD
 70
     2
  9
$DIMALTF
 40
25.4
  9
$DIMLFAC
 40
1.0
  9
$DIMTOFL
 70
     0
  9
$DIMTVP
 40
0.0
  9
$DIMTIX
 70
     0
  9
$DIMSOXD
 70
     0
  9
$DIMSAH
 70
     0
  9
$DIMBLK1
  1

  9
$DIMBLK2
  1

  9
$DIMSTYLE
  2
Standard
  9
$DIMCLRD
 70
     0
  9
$DIMCLRE
 70
     0
  9
$DIMCLRT
 70
     0
  9
$DIMTFAC
 40
1.0
  9
$DIMGAP
 40
0.09
  9
$DIMJUST
 70
     0
  9
$DIMSD1
 70
     0
  9
$DIMSD2
 70
     0
  9
$DIMTOLJ
 70
     1
  9
$DIMTZIN
 70
     0
  9
$DIMALTZ
 70
     0
  9
$DIMALTTZ
 70
     0
  9
$DIMUPT
 70
     0
  9
$DIMDEC
 70
     4
  9
$DIMTDEC
 70
     4
  9
$DIMALTU
 70
     2
  9
$DIMALTTD
 70
     2
  9
$DIMTXSTY
  7
Standard
  9
$DIMAUNIT
 70
     0
  9
$DIMADEC
 70
     0
  9
$DIMALTRND
 40
0.0
  9
$DIMAZIN
 70
     0
  9
$DIMDSEP
 70
    46
  9
$DIMATFIT
 70
     3
  9
$DIMFRAC
 70
     0
  9
$DIMLDRBLK
  1

  9
$DIMLUNIT
 70
     2
  9
$DIMLWD
 70
    -2
  9
$DIMLWE
 70
    -2
  9
$DIMTMOVE
 70
     0
  9
$DIMFXL
 40
1.0
  9
$DIMFXLON
 70
     0
  9
$DIMJOGANG
 40
0.7853981633974483
  9
$DIMTFILL
 70
     0
  9
$DIMTFILLCLR
 70
     0
  9
$DIMARCSYM
 70
     0
  9
$DIMLTYPE
  6

  9
$DIMLTEX1
  6

  9
$DIMLTEX2
  6

  9
$LUNITS
 70
     2
  9
$LUPREC
 70
     4
  9
$SKETCHINC
 40
0.1
  9
$FILLETRAD
 40
0.5
  9
$AUNITS
 70
     0
  9
$AUPREC
 70
     0
  9
$MENU
  1
.
  9
$ELEVATION
 40
0.0
  9
$PELEVATION
 40
0.0
  9
$THICKNESS
 40
0.0
  9
$LIMCHECK
 70
     0
  9
$CHAMFERA
 40
0.5
  9
$CHAMFERB
 40
0.5
  9
$CHAMFERC
 40
1.0
  9
$CHAMFERD
 40
0.0
  9
$SKPOLY
 70
     0
  9
$TDCREATE
 40
2458551.62652059
  9
$TDUCREATE
 40
2458551.334853923
  9
$TDUPDATE
 40
2458551.62652059
  9
$TDUUPDATE
 40
2458551.334853923
  9
$TDINDWG
 40
0.0000000116
  9
$TDUSRTIMER
 40
0.0000000116
  9
$USRTIMER
 70
     1
  9
$ANGBASE
 50
0.0
  9
$ANGDIR
 70
     0
  9
$PDMODE
 70
     0
  9
$PDSIZE
 40
0.0
  9
$PLINEWID
 40
0.0
  9
$SPLFRAME
 70
     0
  9
$SPLINETYPE
 70
     6
  9
$SPLINESEGS
 70
     8
  9
$HANDSEED
  5
65
  9
$SURFTAB1
 70
     6
  9
$SURFTAB2
 70
     6
  9
$SURFTYPE
 70
     6
  9
$SURFU
 70
     6
  9
$SURFV
 70
     6
  9
$UCSBASE
  2

  9
$UCSNAME
  2

  9
$UCSORG
 10
0.0
 20
0.0
 30
0.0
  9
$UCSXDIR
 10
1.0
 20
0.0
 30
0.0
  9
$UCSYDIR
 10
0.0
 20
1.0
 30
0.0
  9
$UCSORTHOREF
  2

  9
$UCSORTHOVIEW
 70
     0
  9
$UCSORGTOP
 10
0.0
 20
0.0
 30
0.0
  9
$UCSORGBOTTOM
 10
0.0
 20
0.0
 30
0.0
  9
$UCSORGLEFT
 10
0.0
 20
0.0
 30
0.0
  9
$UCSORGRIGHT
 10
0.0
 20
0.0
 30
0.0
  9
$UCSORGFRONT
 10
0.0
 20
0.0
 30
0.0
  9
$UCSORGBACK
 10
0.0
 20
0.0
 30
0.0
  9
$PUCSBASE
  2

  9
$PUCSNAME
  2

  9
$PUCSORG
 10
0.0
 20
0.0
 30
0.0
  9
$PUCSXDIR
 10
1.0
 20
0.0
 30
0.0
  9
$PUCSYDIR
 10
0.0
 20
1.0
 30
0.0
  9
$PUCSORTHOREF
  2

  9
$PUCSORTHOVIEW
 70
     0
  9
$PUCSORGTOP
 10
0.0
 20
0.0
 30
0.0
  9
$PUCSORGBOTTOM
 10
0.0
 20
0.0
 30
0.0
  9
$PUCSORGLEFT
 10
0.0
 20
0.0
 30
0.0
  9
$PUCSORGRIGHT
 10
0.0
 20
0.0
 30
0.0
  9
$PUCSORGFRONT
 10
0.0
 20
0.0
 30
0.0
  9
$PUCSORGBACK
 10
0.0
 20
0.0
 30
0.0
  9
$USERI1
 70
     0
  9
$USERI2
 70
     0
  9
$USERI3
 70
     0
  9
$USERI4
 70
     0
  9
$USERI5
 70
     0
  9
$USERR1
 40
0.0
  9
$USERR2
 40
0.0
  9
$USERR3
 40
0.0
  9
$USERR4
 40
0.0
  9
$USERR5
 40
0.0
  9
$WORLDVIEW
 70
     1
  9
$SHADEDGE
 70
     3
  9
$SHADEDIF
 70
    70
  9
$TILEMODE
 70
     1
  9
$MAXACTVP
 70
    64
  9
$PINSBASE
 10
0.0
 20
0.0
 30
0.0
  9
$PLIMCHECK
 70
     0
  9
$PEXTMIN
 10
1.000000000000000E+20
 20
1.000000000000000E+20
 30
1.000000000000000E+20
  9
$PEXTMAX
 10
-1.000000000000000E+20
 20
-1.000000000000000E+20
 30
-1.000000000000000E+20
  9
$PLIMMIN
 10
0.0
 20
0.0
  9
$PLIMMAX
 10
12.0
 20
9.0
  9
$UNITMODE
 70
     0
  9
$VISRETAIN
 70
     1
  9
$PLINEGEN
 70
     0
  9
$PSLTSCALE
 70
     1
  9
$TREEDEPTH
 70
  3020
  9
$CMLSTYLE
  2
Standard
  9
$CMLJUST
 70
     0
  9
$CMLSCALE
 40
1.0
  9
$PROXYGRAPHICS
 70
     1
  9
$MEASUREMENT
 70
     0
  9
$CELWEIGHT
370
    -1
  9
$ENDCAPS
280
     0
  9
$JOINSTYLE
280
     0
  9
$LWDISPLAY
290
     1
  9
$INSUNITS
 70
     1
  9
$HYPERLINKBASE
  1

  9
$STYLESHEET
  1

  9
$XEDIT
290
     1
  9
$CEPSNTYPE
380
     0
  9
$PSTYLEMODE
290
     1
  9
$FINGERPRINTGUID
  2
{4A63B658-D212-4617-9A46-7C3A98C28BB5}
  9
$VERSIONGUID
  2
{FAEB1C32-E019-11D5-929B-00C0DF256EC4}
  9
$EXTNAMES
290
     1
  9
$PSVPSCALE
 40
0.0
  9
$OLESTARTUP
290
     0
  9
$SORTENTS
280
   127
  9
$INDEXCTL
280
     0
  9
$HIDETEXT
280
     1
  9
$XCLIPFRAME
290
     0
  9
$HALOGAP
280
     0
  9
$OBSCOLOR
 70
   257
  9
$OBSLTYPE
280
     0
  9
$INTERSECTIONDISPLAY
280
     0
  9
$INTERSECTIONCOLOR
 70
   257
  9
$DIMASSOC
280
     2
  9
$PROJECTNAME
  1

  9
$CAMERADISPLAY
290
     0
  9
$LENSLENGTH
 40
50.0
  9
$CAMERAHEIGHT
 40
0.0
  9
$STEPSPERSEC
 40
2.0
  9
$STEPSIZE
 40
6.0
  9
$3DDWFPREC
 40
2.0
  9
$PSOLWIDTH
 40
0.25
  9
$PSOLHEIGHT
 40
4.0
  9
$LOFTANG1
 40
1.570796326794897
  9
$LOFTANG2
 40
1.570796326794897
  9
$LOFTMAG1
 40
0.0
  9
$LOFTMAG2
 40
0.0
  9
$LOFTPARAM
 70
     7
  9
$LOFTNORMALS
280
     1
  9
$LATITUDE
 40
37.795
  9
$LONGITUDE
 40
-122.394
  9
$NORTHDIRECTION
 40
0.0
  9
$TIMEZONE
 70
 -8000
  9
$LIGHTGLYPHDISPLAY
280
     1
  9
$TILEMODELIGHTSYNCH
280
     1
  9
$CMATERIAL
347
3C
  9
$SOLIDHIST
280
     1
  9
$SHOWHIST
280
     1
  9
$DWFFRAME
280
     2
  9
$DGNFRAME
280
     2
  9
$REALWORLDSCALE
290
     1
  9
$INTERFERECOLOR
 62
   256
  9
$CSHADOW
280
     0
  9
$SHADOWPLANELOCATION
 40
0.0
  0
ENDSEC
  0
SECTION
  2
CLASSES
  0
CLASS
  1
ACDBDICTIONARYWDFLT
  2
AcDbDictionaryWithDefault
  3
ObjectDBX Classes
 90
        0
 91
        4
280
     0
281
     0
  0
CLASS
  1
VISUALSTYLE
  2
AcDbVisualStyle
  3
ObjectDBX Classes
 90
     4095
 91
        4
280
     0
281
     0
  0
CLASS
  1
MATERIAL
  2
AcDbMaterial
  3
ObjectDBX Classes
 90
     1153
 91
        4
280
     0
281
     0
  0
CLASS
  1
SUN
  2
AcDbSun
  3
SCENEOE
 90
     1024
 91
        4
280
     0
281
     0
  0
ENDSEC
  0
SECTION
  2
TABLES
  0
TABLE
  2
VPORT
  5
8
330
0
100
AcDbSymbolTable
 70
     1
  0
VPORT
  5
29
330
8
100
AcDbSymbolTableRecord
100
AcDbViewportTableRecord
  2
*Active
 70
     0
 10
0.0
 20
0.0
 11
1.0
 21
1.0
 12
0.0
 22
0.0
 13
0.0
 23
0.0
 14
0.5
 24
0.5
 15
0.5
 25
0.5
 16
0.0
 26
0.0
 36
1.0
 17
39.99961911841359
 27
-39.99962012888904
 37
0.0
 40
79.99924025777808
 41
0.9999999747378738
 42
50.0
 43
0.0
 44
0.0
 50
0.0
 51
0.0
 71
     0
 72
   100
 73
     1
 74
     3
 75
     0
 76
     0
 77
     0
 78
     0
281
     0
 65
     1
110
0.0
120
0.0
130
0.0
111
1.0
121
0.0
131
0.0
112
0.0
122
1.0
132
0.0
 79
     0
146
0.0
 60
     3
 61
     5
292
     1
282
     1
141
0.0
142
0.0
 63
   250
361
3F
  0
ENDTAB
  0
TABLE
  2
LTYPE
  5
5
330
0
100
AcDbSymbolTable
 70
     1
  0
LTYPE
  5
14
330
5
100
AcDbSymbolTableRecord
100
AcDbLinetypeTableRecord
  2
ByBlock
 70
     0
  3

 72
    65
 73
     0
 40
0.0
  0
LTYPE
  5
15
330
5
100
AcDbSymbolTableRecord
100
AcDbLinetypeTableRecord
  2
ByLayer
 70
     0
  3

 72
    65
 73
     0
 40
0.0
  0
LTYPE
  5
16
330
5
100
AcDbSymbolTableRecord
100
AcDbLinetypeTableRecord
  2
Continuous
 70
     0
  3
Solid line
 72
    65
 73
     0
 40
0.0
  0
ENDTAB
  0
TABLE
  2
LAYER
  5
2
330
0
100
AcDbSymbolTable
 70
     2
  0
LAYER
  5
10
330
2
100
AcDbSymbolTableRecord
100
AcDbLayerTableRecord
  2
0
 70
     0
 62
     7
  6
Continuous
370
    -3
390
F
347
3E
  0
LAYER
  5
40
330
2
100
AcDbSymbolTableRecord
100
AcDbLayerTableRecord
  2
Layer 1
 70
     0
 62
     7
  6
Continuous
370
    -3
390
F
347
3E
  0
ENDTAB
  0
TABLE
  2
STYLE
  5
3
330
0
100
AcDbSymbolTable
 70
     1
  0
STYLE
  5
11
330
3
100
AcDbSymbolTableRecord
100
AcDbTextStyleTableRecord
  2
Standard
 70
     0
 40
0.0
 41
1.0
 50
0.0
 71
     0
 42
0.2
  3
txt
  4

  0
ENDTAB
  0
TABLE
  2
VIEW
  5
6
330
0
100
AcDbSymbolTable
 70
     0
  0
ENDTAB
  0
TABLE
  2
UCS
  5
7
330
0
100
AcDbSymbolTable
 70
     0
  0
ENDTAB
  0
TABLE
  2
APPID
  5
9
330
0
100
AcDbSymbolTable
 70
     1
  0
APPID
  5
12
330
9
100
AcDbSymbolTableRecord
100
AcDbRegAppTableRecord
  2
ACAD
 70
     0
  0
ENDTAB
  0
TABLE
  2
DIMSTYLE
  5
A
330
0
100
AcDbSymbolTable
 70
     1
100
AcDbDimStyleTable
  0
DIMSTYLE
105
27
330
A
100
AcDbSymbolTableRecord
100
AcDbDimStyleTableRecord
  2
Standard
 70
     0
178
     0
340
11
  0
ENDTAB
  0
TABLE
  2
BLOCK_RECORD
  5
1
330
0
100
AcDbSymbolTable
 70
     1
  0
BLOCK_RECORD
  5
1F
330
1
100
AcDbSymbolTableRecord
100
AcDbBlockTableRecord
  2
*Model_Space
340
22
 70
     0
280
     1
281
     0
  0
BLOCK_RECORD
  5
1B
330
1
100
AcDbSymbolTableRecord
100
AcDbBlockTableRecord
  2
*Paper_Space
340
1E
 70
     0
280
     1
281
     0
  0
BLOCK_RECORD
  5
23
330
1
100
AcDbSymbolTableRecord
100
AcDbBlockTableRecord
  2
*Paper_Space0
340
26
 70
     0
280
     1
281
     0
  0
ENDTAB
  0
ENDSEC
  0
SECTION
  2
BLOCKS
  0
BLOCK
  5
20
330
1F
100
AcDbEntity
  8
0
100
AcDbBlockBegin
  2
*Model_Space
 70
     0
 10
0.0
 20
0.0
 30
0.0
  3
*Model_Space
  1

  0
ENDBLK
  5
21
330
1F
100
AcDbEntity
  8
0
100
AcDbBlockEnd
  0
BLOCK
  5
1C
330
1B
100
AcDbEntity
 67
     1
  8
0
100
AcDbBlockBegin
  2
*Paper_Space
 70
     0
 10
0.0
 20
0.0
 30
0.0
  3
*Paper_Space
  1

  0
ENDBLK
  5
1D
330
1B
100
AcDbEntity
 67
     1
  8
0
100
AcDbBlockEnd
  0
BLOCK
  5
24
330
23
100
AcDbEntity
  8
0
100
AcDbBlockBegin
  2
*Paper_Space0
 70
     0
 10
0.0
 20
0.0
 30
0.0
  3
*Paper_Space0
  1

  0
ENDBLK
  5
25
330
23
100
AcDbEntity
  8
0
100
AcDbBlockEnd
  0
ENDSEC
  0
SECTION
  2
ENTITIES
  0
SPLINE
  5
41
330
1F
100
AcDbEntity
  8
Layer 1
370
     0
100
AcDbSpline
210
0.0
220
0.0
230
1.0
 70
    11
 71
     3
 72
   302
 73
   298
 74
     0
 42
0.0000000001
 43
0.0000000001
 12
1.0
 22
0.0
 32
0.0
 13
1.0
 23
0.0
 33
0.0
 40
0.0
 40
0.0
 40
0.0
 40
0.0
 40
1.0
 40
1.0
 40
1.0
 40
2.0
 40
2.0
 40
2.0
 40
3.0
 40
3.0
 40
3.0
 40
4.0
 40
4.0
 40
4.0
 40
5.0
 40
5.0
 40
5.0
 40
6.0
 40
6.0
 40
6.0
 40
7.0
 40
7.0
 40
7.0
 40
8.0
 40
8.0
 40
8.0
 40
9.0
 40
9.0
 40
9.0
 40
10.0
 40
10.0
 40
10.0
 40
11.0
 40
11.0
 40
11.0
 40
12.0
 40
12.0
 40
12.0
 40
13.0
 40
13.0
 40
13.0
 40
14.0
 40
14.0
 40
14.0
 40
15.0
 40
15.0
 40
15.0
 40
16.0
 40
16.0
 40
16.0
 40
17.0
 40
17.0
 40
17.0
 40
18.0
 40
18.0
 40
18.0
 40
19.0
 40
19.0
 40
19.0
 40
20.0
 40
20.0
 40
20.0
 40
21.0
 40
21.0
 40
21.0
 40
22.0
 40
22.0
 40
22.0
 40
23.0
 40
23.0
 40
23.0
 40
24.0
 40
24.0
 40
24.0
 40
25.0
 40
25.0
 40
25.0
 40
26.0
 40
26.0
 40
26.0
 40
27.0
 40
27.0
 40
27.0
 40
28.0
 40
28.0
 40
28.0
 40
29.0
 40
29.0
 40
29.0
 40
30.0
 40
30.0
 40
30.0
 40
31.0
 40
31.0
 40
31.0
 40
32.0
 40
32.0
 40
32.0
 40
33.0
 40
33.0
 40
33.0
 40
34.0
 40
34.0
 40
34.0
 40
35.0
 40
35.0
 40
35.0
 40
36.0
 40
36.0
 40
36.0
 40
37.0
 40
37.0
 40
37.0
 40
38.0
 40
38.0
 40
38.0
 40
39.0
 40
39.0
 40
39.0
 40
40.0
 40
40.0
 40
40.0
 40
41.0
 40
41.0
 40
41.0
 40
42.0
 40
42.0
 40
42.0
 40
43.0
 40
43.0
 40
43.0
 40
44.0
 40
44.0
 40
44.0
 40
45.0
 40
45.0
 40
45.0
 40
46.0
 40
46.0
 40
46.0
 40
47.0
 40
47.0
 40
47.0
 40
48.0
 40
48.0
 40
48.0
 40
49.0
 40
49.0
 40
49.0
 40
50.0
 40
50.0
 40
50.0
 40
51.0
 40
51.0
 40
51.0
 40
52.0
 40
52.0
 40
52.0
 40
53.0
 40
53.0
 40
53.0
 40
54.0
 40
54.0
 40
54.0
 40
55.0
 40
55.0
 40
55.0
 40
56.0
 40
56.0
 40
56.0
 40
57.0
 40
57.0
 40
57.0
 40
58.0
 40
58.0
 40
58.0
 40
59.0
 40
59.0
 40
59.0
 40
60.0
 40
60.0
 40
60.0
 40
61.0
 40
61.0
 40
61.0
 40
62.0
 40
62.0
 40
62.0
 40
63.0
 40
63.0
 40
63.0
 40
64.0
 40
64.0
 40
64.0
 40
65.0
 40
65.0
 40
65.0
 40
66.0
 40
66.0
 40
66.0
 40
67.0
 40
67.0
 40
67.0
 40
68.0
 40
68.0
 40
68.0
 40
69.0
 40
69.0
 40
69.0
 40
70.0
 40
70.0
 40
70.0
 40
71.0
 40
71.0
 40
71.0
 40
72.0
 40
72.0
 40
72.0
 40
73.0
 40
73.0
 40
73.0
 40
74.0
 40
74.0
 40
74.0
 40
75.0
 40
75.0
 40
75.0
 40
76.0
 40
76.0
 40
76.0
 40
77.0
 40
77.0
 40
77.0
 40
78.0
 40
78.0
 40
78.0
 40
79.0
 40
79.0
 40
79.0
 40
80.0
 40
80.0
 40
80.0
 40
81.0
 40
81.0
 40
81.0
 40
82.0
 40
82.0
 40
82.0
 40
83.0
 40
83.0
 40
83.0
 40
84.0
 40
84.0
 40
84.0
 40
85.0
 40
85.0
 40
85.0
 40
86.0
 40
86.0
 40
86.0
 40
87.0
 40
87.0
 40
87.0
 40
88.0
 40
88.0
 40
88.0
 40
89.0
 40
89.0
 40
89.0
 40
90.0
 40
90.0
 40
90.0
 40
91.0
 40
91.0
 40
91.0
 40
92.0
 40
92.0
 40
92.0
 40
93.0
 40
93.0
 40
93.0
 40
94.0
 40
94.0
 40
94.0
 40
95.0
 40
95.0
 40
95.0
 40
96.0
 40
96.0
 40
96.0
 40
97.0
 40
97.0
 40
97.0
 40
98.0
 40
98.0
 40
98.0
 40
99.0
 40
99.0
 40
99.0
 40
99.0
 10
64.87872445591695
 20
-43.23217582252514
 30
0.0
 10
64.00782197813552
 20
-43.00720943369274
 30
0.0
 10
63.59440171090498
 20
-43.18564443364777
 30
0.0
 10
62.982543948737
 20
-42.83082054484795
 30
0.0
 10
62.24047591211317
 20
-42.40258360051033
 30
0.0
 10
61.65549981592604
 20
-41.59472248960152
 30
0.0
 10
60.97266316667999
 20
-41.10757165638994
 30
0.0
 10
60.40768956998256
 20
-40.70586360093434
 30
0.0
 10
59.67733375528216
 20
-40.6087086009591
 30
0.0
 10
59.13366942966088
 20
-40.24629998993869
 30
0.0
 10
57.88864463424875
 20
-39.26928193462727
 30
0.0
 10
56.64496188819996
 20
-38.29222860153801
 30
0.0
 10
55.39990330885294
 20
-37.31623360178204
 30
0.0
 10
54.06527445401327
 20
-36.47563471310318
 30
0.0
 10
52.1332517255255
 20
-36.27617415759767
 30
0.0
 10
50.86268731349585
 20
-35.42005304670052
 30
0.0
 10
50.09790038856275
 20
-34.90640860238445
 30
0.0
 10
49.7065287318808
 20
-34.0061902692761
 30
0.0
 10
49.13809791304935
 20
-33.29410832500995
 30
0.0
 10
48.48764626297709
 20
-32.48243721410176
 30
0.0
 10
47.25225379449457
 20
-32.23990249194018
 30
0.0
 10
46.6107638772362
 20
-31.45853499213522
 30
0.0
 10
45.64270522444647
 20
-30.27171999243193
 30
0.0
 10
45.00879998874807
 20
-28.85923304834071
 30
0.0
 10
44.1406138778536
 20
-27.55007471533458
 30
0.0
 10
44.35146803516645
 20
-26.8620874932846
 30
0.0
 10
44.56232330756486
 20
-26.17272443790141
 30
0.0
 10
44.7731444332509
 20
-25.48371416029566
 30
0.0
 10
44.86892246640954
 20
-25.08031277150758
 30
0.0
 10
45.77637272103632
 20
-25.32799804922358
 30
0.0
 10
46.6107638772362
 20
-25.36726221588028
 30
0.0
 10
47.01867963378688
 20
-25.36694471588036
 30
0.0
 10
46.84158519386049
 20
-24.69444443827084
 30
0.0
 10
47.06965602137525
 20
-24.2765438828199
 30
0.0
 10
47.43414721036395
 20
-23.7790919384998
 30
0.0
 10
47.7993062805381
 20
-23.28022888306897
 30
0.0
 10
48.16175016018028
 20
-22.78309443874879
 30
0.0
 10
48.35330848862655
 20
-22.13024388335621
 30
0.0
 10
48.14382904952637
 20
-21.72271499456947
 30
0.0
 10
48.046674052005
 20
-21.34651277244108
 30
0.0
 10
47.94126405469424
 20
-20.93376277254425
 30
0.0
 10
48.36914821044467
 20
-20.61820305040112
 30
0.0
 10
48.39186709875395
 20
-20.19892666161698
 30
0.0
 10
48.42012459803304
 20
-19.66736110619427
 30
0.0
 10
47.28943657132374
 20
-17.21925971791726
 30
0.0
 10
46.95595574649821
 20
-16.9822636068657
 30
0.0
 10
46.18975771049
 20
-16.43552860700214
 30
0.0
 10
45.08044801656862
 20
-16.25497694038085
 30
0.0
 10
43.96768110051323
 20
-16.06310110709529
 30
0.0
 10
42.14798281360427
 20
-15.74616555161895
 30
0.0
 10
40.53638813249725
 20
-16.97467888464511
 30
0.0
 10
40.00581036825564
 20
-18.01509110660723
 30
0.0
 10
39.66269871034248
 20
-18.6865330508838
 30
0.0
 10
39.70817176473792
 20
-19.32283832850264
 30
0.0
 10
39.3726095510766
 20
-20.08388582831232
 30
0.0
 10
39.14249261250293
 20
-20.27473860604245
 30
0.0
 10
38.91304595168994
 20
-20.46661443932769
 30
0.0
 10
38.68359929087694
 20
-20.6571497170579
 30
0.0
 10
37.68933042735397
 20
-22.23156166110889
 30
0.0
 10
38.58990151548959
 20
-23.49521166079278
 30
0.0
 10
39.89076953785724
 20
-24.16182054951517
 30
0.0
 10
39.89076953785724
 20
-24.16182054951517
 30
0.0
 10
39.89076953785724
 20
-24.33478749391618
 30
0.0
 10
39.89076953785724
 20
-24.33478749391618
 30
0.0
 10
36.96363127920142
 20
-24.09602749397613
 30
0.0
 10
36.19401129883607
 20
-22.83615221651314
 30
0.0
 10
34.20307554700473
 20
-21.9207997167421
 30
0.0
 10
32.9997152695277
 20
-21.36785582799148
 30
0.0
 10
31.29505776995399
 20
-21.25934138357413
 30
0.0
 10
30.18126777023256
 20
-20.60028193929449
 30
0.0
 10
28.33331193736123
 20
-19.50338999512424
 30
0.0
 10
27.15475193765588
 20
-17.81425471776852
 30
0.0
 10
25.3559027714388
 20
-16.75246416247847
 30
0.0
 10
23.57187027188482
 20
-15.6982583294087
 30
0.0
 10
21.46603388352247
 20
-15.19837221842275
 30
0.0
 10
19.72747443951257
 20
-14.16692055201377
 30
0.0
 10
18.45969693982939
 20
-13.41314027442443
 30
0.0
 10
16.96398971798131
 20
-12.48261833021254
 30
0.0
 10
15.70619582940673
 20
-11.75430860817257
 30
0.0
 10
15.36149666282621
 20
-11.69782888596445
 30
0.0
 10
15.01700916291242
 20
-11.63958527486784
 30
0.0
 10
14.67146332966534
 20
-11.58137694154907
 30
0.0
 10
13.92075221874201
 20
-11.09803610833654
 30
0.0
 10
13.24020860780093
 20
-10.27465277520911
 30
0.0
 10
12.48882721909992
 20
-10.31635110853198
 30
0.0
 10
12.43696888577958
 20
-10.31910277519807
 30
0.0
 10
12.20942721916996
 20
-10.35184055296747
 30
0.0
 10
12.37410388579551
 20
-10.48928277515548
 30
0.0
 10
12.66122971905678
 20
-10.68256971955146
 30
0.0
 10
12.94909638565173
 20
-10.87342249728158
 30
0.0
 10
13.23622221891332
 20
-11.06356971945618
 30
0.0
 10
13.5984897188227
 20
-11.3495313860516
 30
0.0
 10
12.50844166353967
 20
-11.10286916389104
 30
0.0
 10
12.14550388585262
 20
-11.12213083055271
 30
0.0
 10
12.14550388585262
 20
-11.12213083055271
 30
0.0
 10
12.02958110810356
 20
-11.12213083055271
 30
0.0
 10
12.02958110810356
 20
-11.12213083055271
 30
0.0
 10
12.20046666361649
 20
-11.66473833041729
 30
0.0
 10
13.48718832996142
 20
-11.95655610812202
 30
0.0
 10
14.09819944091977
 20
-12.03956471921248
 30
0.0
 10
14.33710055197118
 20
-12.79369777457926
 30
0.0
 10
15.25763888507448
 20
-13.30081583000803
 30
0.0
 10
14.90193305182992
 20
-13.47653444107546
 30
0.0
 10
14.30901944086708
 20
-13.62396027437175
 30
0.0
 10
13.57418332993981
 20
-13.66082555214044
 30
0.0
 10
12.94909638565173
 20
-13.59263360771308
 30
0.0
 10
12.27557305248676
 20
-13.51579860773216
 30
0.0
 10
12.47418694132603
 20
-14.02429249649382
 30
0.0
 10
12.60372694129354
 20
-14.11008805202789
 30
0.0
 10
13.5543924966115
 20
-14.73951416298166
 30
0.0
 10
16.81377694024109
 20
-14.04944555204327
 30
0.0
 10
18.06074055104052
 20
-14.85628360739696
 30
0.0
 10
19.34421666183055
 20
-15.96732194045262
 30
0.0
 10
20.62649332817659
 20
-17.07804277350836
 30
0.0
 10
21.90975777230022
 20
-18.18802277323073
 30
0.0
 10
22.82807360540407
 20
-18.89601249527607
 30
0.0
 10
23.74928221628505
 20
-19.60294388398812
 30
0.0
 10
24.66756277161074
 20
-20.31400277269915
 30
0.0
 10
25.27271777145947
 20
-20.67746971705285
 30
0.0
 10
25.90281416019092
 20
-20.84006499478999
 30
0.0
 10
26.44715027116615
 20
-21.23143666135891
 30
0.0
 10
28.50006999287486
 20
-22.70491888321251
 30
0.0
 10
30.49650999237577
 20
-24.61623360495703
 30
0.0
 10
32.93840249176539
 20
-25.65495249358635
 30
0.0
 10
33.91023471374456
 20
-27.34959110427362
 30
0.0
 10
31.40050304770533
 20
-31.47370443657607
 30
0.0
 10
30.81344554785211
 20
-32.83588526956871
 30
0.0
 10
30.35250610352294
 20
-33.77261610266798
 30
0.0
 10
29.89463582585978
 20
-34.71209860243303
 30
0.0
 10
29.43542499264125
 20
-35.65087554664287
 30
0.0
 10
29.01441999274646
 20
-36.78981860191375
 30
0.0
 10
28.81114943724158
 20
-37.91465054607674
 30
0.0
 10
28.22927777072061
 20
-38.92440637915787
 30
0.0
 10
27.17955221542725
 20
-40.74756193425753
 30
0.0
 10
25.92002971574234
 20
-42.33333332275
 30
0.0
 10
25.2423788825784
 20
-44.55403415552843
 30
0.0
 10
24.8175991604624
 20
-45.94517804406958
 30
0.0
 10
25.29166193812153
 20
-47.27462109929218
 30
0.0
 10
25.47080249363242
 20
-48.45974276566298
 30
0.0
 10
25.27959693812453
 20
-49.47500193207566
 30
0.0
 10
25.08959082706097
 20
-50.48994359848873
 30
0.0
 10
24.89771499377572
 20
-51.50484998712365
 30
0.0
 10
25.56552332694179
 20
-51.49486637601505
 30
0.0
 10
27.50685943756779
 20
-51.40152137603823
 30
0.0
 10
27.71182332640548
 20
-51.90758109813437
 30
0.0
 10
28.12901832630121
 20
-51.86694109814447
 30
0.0
 10
28.07941777075784
 20
-51.69915998707538
 30
0.0
 10
28.2875213818169
 20
-51.61992609820582
 30
0.0
 10
29.0460994371829
 20
-51.32951943161214
 30
0.0
 10
30.02798582582633
 20
-52.36855582024106
 30
0.0
 10
30.58470443679817
 20
-52.53873582019879
 30
0.0
 10
31.26683554773885
 20
-55.30860581950631
 30
0.0
 10
32.6986194362699
 20
-57.36392443010367
 30
0.0
 10
32.65177054739261
 20
-60.63883109595156
 30
0.0
 10
31.54104971433687
 20
-60.61851109595661
 30
0.0
 10
30.42965860350377
 20
-60.59819109596165
 30
0.0
 10
29.32034888155876
 20
-60.58062276263247
 30
0.0
 10
27.01212388213593
 20
-60.97164165142395
 30
0.0
 10
24.61330554940238
 20
-62.01311220671904
 30
0.0
 10
22.42654193883767
 20
-61.21177748469689
 30
0.0
 10
22.33178582775045
 20
-60.81042220701969
 30
0.0
 10
22.23586554999675
 20
-60.41008998489762
 30
0.0
 10
22.13990999446489
 20
-60.00598304055401
 30
0.0
 10
20.36758971713046
 20
-58.98105776303234
 30
0.0
 10
18.96078249525966
 20
-61.09430248472671
 30
0.0
 10
18.00457832883232
 20
-61.67271692902606
 30
0.0
 10
17.35141027343982
 20
-61.84564859564956
 30
0.0
 10
16.70131138471365
 20
-62.01586387338481
 30
0.0
 10
16.0508597182094
 20
-62.18914831778607
 30
0.0
 10
15.12361860733024
 20
-62.42649720661572
 30
0.0
 10
13.76676471878058
 20
-62.29491109553765
 30
0.0
 10
13.17819027448311
 20
-62.87815859539182
 30
0.0
 10
12.6779513857194
 20
-63.40079887303889
 30
0.0
 10
12.88930055233336
 20
-63.59888359521152
 30
0.0
 10
13.63740110770164
 20
-63.91236192846656
 30
0.0
 10
15.48278166279609
 20
-64.32267776169724
 30
0.0
 10
17.18860332903628
 20
-64.53557915053263
 30
0.0
 10
18.92285888415833
 20
-64.83254748379177
 30
0.0
 10
18.92285888415833
 20
-64.83254748379177
 30
0.0
 10
25.47080249363242
 20
-64.83254748379177
 30
0.0
 10
25.47080249363242
 20
-64.83254748379177
 30
0.0
 10
27.22364943763845
 20
-65.17569442815052
 30
0.0
 10
30.1402749924649
 20
-65.73378887245556
 30
0.0
 10
31.90518693646826
 20
-65.40686970587063
 30
0.0
 10
33.87442776930915
 20
-65.03719387262987
 30
0.0
 10
35.69585381154512
 20
-66.45691276116327
 30
0.0
 10
37.41994932311534
 20
-65.00413859485991
 30
0.0
 10
38.40659818683272
 20
-64.17250026173485
 30
0.0
 10
37.90844165718968
 20
-59.46580970735592
 30
0.0
 10
38.33907652188867
 20
-57.8245463744326
 30
0.0
 10
38.33907652188867
 20
-57.8245463744326
 30
0.0
 10
38.33907652188867
 20
-56.10027443041946
 30
0.0
 10
38.33907652188867
 20
-56.10027443041946
 30
0.0
 10
40.0843749899789
 20
-56.31973748592033
 30
0.0
 10
41.94266615217566
 20
-59.31178692961632
 30
0.0
 10
43.27934111807424
 20
-60.29399081825968
 30
0.0
 10
44.96953468606493
 20
-61.53354609572804
 30
0.0
 10
47.1371776863193
 20
-62.06511165115042
 30
0.0
 10
49.19595346712889
 20
-62.99323470647399
 30
0.0
 10
50.18055621978736
 20
-63.43625303969621
 30
0.0
 10
51.86178923245108
 20
-63.62297831742736
 30
0.0
 10
52.52737504880391
 20
-64.31371720614376
 30
0.0
 10
52.92354448314123
 20
-64.7264672060406
 30
0.0
 10
53.53194502317519
 20
-64.98759331708649
 30
0.0
 10
53.90610112474079
 20
-65.40686970587063
 30
0.0
 10
55.70583218993693
 20
-67.42052526092296
 30
0.0
 10
56.9198816034084
 20
-69.19923081603365
 30
0.0
 10
60.16720096500682
 20
-69.8293272047648
 30
0.0
 10
61.5376720411543
 20
-70.1145833158047
 30
0.0
 10
62.95636942870561
 20
-69.45312498263672
 30
0.0
 10
61.71889398097539
 20
-67.58968220532493
 30
0.0
 10
60.87138066926392
 20
-67.24896942763235
 30
0.0
 10
60.74254622810632
 20
-66.38286470562629
 30
0.0
 10
60.05216013460843
 20
-65.92326581685248
 30
0.0
 10
58.68377044729673
 20
-65.00928915041433
 30
0.0
 10
57.50207220784656
 20
-63.78592637294226
 30
0.0
 10
56.14680440090902
 20
-62.93636692871026
 30
0.0
 10
55.00782609663344
 20
-62.22047498444474
 30
0.0
 10
53.35351002772745
 20
-61.9917338733908
 30
0.0
 10
52.18285227981564
 20
-61.26998581801598
 30
0.0
 10
50.7469409275599
 20
-60.02630304054896
 30
0.0
 10
49.31173513084172
 20
-58.78262026308195
 30
0.0
 10
47.87511943247593
 20
-57.53689137450469
 30
0.0
 10
46.99384407886493
 20
-57.05834831906881
 30
0.0
 10
46.11260521245832
 20
-56.57846470807758
 30
0.0
 10
45.23203662381238
 20
-56.10027443041946
 30
0.0
 10
44.26327359297203
 20
-55.47395276390922
 30
0.0
 10
43.72031332904633
 20
-54.36912331974126
 30
0.0
 10
42.81977751868757
 20
-53.68907359768899
 30
0.0
 10
41.19784644895537
 20
-52.46327665355076
 30
0.0
 10
39.28991943462182
 20
-51.43284804269755
 30
0.0
 10
38.05177430699614
 20
-49.83984470976225
 30
0.0
 10
38.87515761932321
 20
-47.55197498811189
 30
0.0
 10
37.64248153966029
 20
-45.114562766499
 30
0.0
 10
37.59288098537015
 20
-42.71574443376577
 30
0.0
 10
37.57428959695557
 20
-42.33333332275
 30
0.0
 10
37.5536168197052
 20
-41.95092221173423
 30
0.0
 10
37.53499015351373
 20
-41.56819360071886
 30
0.0
 10
37.9160254215705
 20
-40.5277461009789
 30
0.0
 10
40.74720812711878
 20
-37.49297526840459
 30
0.0
 10
41.67116943402651
 20
-36.85804582411895
 30
0.0
 10
42.32299586469487
 20
-36.40603165756509
 30
0.0
 10
42.7750111004175
 20
-36.3126866575886
 30
0.0
 10
43.04992973503813
 20
-35.47829665779713
 30
0.0
 10
43.84710276681574
 20
-35.4682777689107
 30
0.0
 10
44.51131164219962
 20
-35.1523652689898
 30
0.0
 10
45.28922190013125
 20
-35.36322054671464
 30
0.0
 10
46.44262881514983
 20
-35.67535832441464
 30
0.0
 10
47.26188462758221
 20
-36.73954776859301
 30
0.0
 10
48.21893543649914
 20
-37.31623360178204
 30
0.0
 10
49.13809791304935
 20
-37.73790887945451
 30
0.0
 10
50.05793066736024
 20
-38.15856110157153
 30
0.0
 10
50.97709443170032
 20
-38.58129471257696
 30
0.0
 10
51.39739257763216
 20
-38.90581499027357
 30
0.0
 10
51.82044367795034
 20
-39.23033526797017
 30
0.0
 10
52.24074443138452
 20
-39.55591387900006
 30
0.0
 10
53.1068478117981
 20
-40.09368832330982
 30
0.0
 10
54.25337556032552
 20
-40.51638665653741
 30
0.0
 10
55.11327137172108
 20
-40.93463998976643
 30
0.0
 10
56.60566387473759
 20
-41.45209443408157
 30
0.0
 10
58.10084046216851
 20
-41.9698663783963
 30
0.0
 10
59.59326681298243
 20
-42.48594498937855
 30
0.0
 10
60.13552152137058
 20
-42.90282248927404
 30
0.0
 10
60.04595276276655
 20
-44.1688713778469
 30
0.0
 10
60.34083818279919
 20
-44.84031332212346
 30
0.0
 10
60.49655428993765
 20
-45.19894721092234
 30
0.0
 10
61.68375731520513
 20
-46.87294832161538
 30
0.0
 10
62.00690175140548
 20
-47.08136943267436
 30
0.0
 10
62.62426284676639
 20
-46.28864248842793
 30
0.0
 10
61.51491942906557
 20
-45.6168477663736
 30
0.0
 10
61.4308862105453
 20
-44.78348082213726
 30
0.0
 10
61.36128315676547
 20
-44.41694471111818
 30
0.0
 10
61.62036315015579
 20
-44.30670165559019
 30
0.0
 10
61.89115536546952
 20
-44.32426998891873
 30
0.0
 10
63.81693392744993
 20
-44.50856109998371
 30
0.0
 10
64.53077974257154
 20
-45.53038193306185
 30
0.0
 10
65.48299749605621
 20
-46.51325609948257
 30
0.0
 10
65.60565832626021
 20
-46.64004443278463
 30
0.0
 10
66.41041665006406
 20
-46.73204887720608
 30
0.0
 10
65.83852693143035
 20
-45.90312693296863
 30
0.0
 10
66.42145691655857
 20
-46.01545137738503
 30
0.0
 10
65.94464248427867
 20
-45.24064554424553
 30
0.0
 10
65.94464248427867
 20
-45.24064554424553
 30
0.0
 10
65.62975304786772
 20
-44.77349721102866
 30
0.0
 10
65.25563222407901
 20
-44.38971026668064
 30
0.0
 10
64.87872445591695
 20
-43.98077026678286
 30
0.0
 10
64.84013056801268
 20
-43.96045026678791
 30
0.0
 10
64.80157195788527
 20
-43.94150610012584
 30
0.0
 10
64.7636499838092
 20
-43.92393776679666
 30
0.0
 10
64.7636499838092
 20
-43.92393776679666
 30
0.0
 10
64.7636499838092
 20
-43.86431832236716
 30
0.0
 10
64.7636499838092
 20
-43.86431832236716
 30
0.0
 10
65.32107250018727
 20
-43.87708887791969
 30
0.0
 10
65.86297443080664
 20
-44.17783193339972
 30
0.0
 10
66.1713374784952
 20
-44.33044360002827
 30
0.0
 10
66.73564079743196
 20
-44.60984359995887
 30
0.0
 10
67.45774161234297
 20
-44.45550332221968
 30
0.0
 10
64.87872445591695
 20
-43.23217582252514
 30
0.0
  0
HATCH
  5
42
330
1F
100
AcDbEntity
  8
Layer 1
 62
   250
100
AcDbHatch
 10
0.0
 20
0.0
 30
0.0
210
0.0
220
0.0
230
1.0
  2
SOLID
 70
     1
 71
     0
 91
        1
 92
        1
 93
        1
 72
     4
 94
        3
 73
     0
 74
     1
 95
      302
 96
      298
 40
0.0
 40
0.0
 40
0.0
 40
0.0
 40
1.0
 40
1.0
 40
1.0
 40
2.0
 40
2.0
 40
2.0
 40
3.0
 40
3.0
 40
3.0
 40
4.0
 40
4.0
 40
4.0
 40
5.0
 40
5.0
 40
5.0
 40
6.0
 40
6.0
 40
6.0
 40
7.0
 40
7.0
 40
7.0
 40
8.0
 40
8.0
 40
8.0
 40
9.0
 40
9.0
 40
9.0
 40
10.0
 40
10.0
 40
10.0
 40
11.0
 40
11.0
 40
11.0
 40
12.0
 40
12.0
 40
12.0
 40
13.0
 40
13.0
 40
13.0
 40
14.0
 40
14.0
 40
14.0
 40
15.0
 40
15.0
 40
15.0
 40
16.0
 40
16.0
 40
16.0
 40
17.0
 40
17.0
 40
17.0
 40
18.0
 40
18.0
 40
18.0
 40
19.0
 40
19.0
 40
19.0
 40
20.0
 40
20.0
 40
20.0
 40
21.0
 40
21.0
 40
21.0
 40
22.0
 40
22.0
 40
22.0
 40
23.0
 40
23.0
 40
23.0
 40
24.0
 40
24.0
 40
24.0
 40
25.0
 40
25.0
 40
25.0
 40
26.0
 40
26.0
 40
26.0
 40
27.0
 40
27.0
 40
27.0
 40
28.0
 40
28.0
 40
28.0
 40
29.0
 40
29.0
 40
29.0
 40
30.0
 40
30.0
 40
30.0
 40
31.0
 40
31.0
 40
31.0
 40
32.0
 40
32.0
 40
32.0
 40
33.0
 40
33.0
 40
33.0
 40
34.0
 40
34.0
 40
34.0
 40
35.0
 40
35.0
 40
35.0
 40
36.0
 40
36.0
 40
36.0
 40
37.0
 40
37.0
 40
37.0
 40
38.0
 40
38.0
 40
38.0
 40
39.0
 40
39.0
 40
39.0
 40
40.0
 40
40.0
 40
40.0
 40
41.0
 40
41.0
 40
41.0
 40
42.0
 40
42.0
 40
42.0
 40
43.0
 40
43.0
 40
43.0
 40
44.0
 40
44.0
 40
44.0
 40
45.0
 40
45.0
 40
45.0
 40
46.0
 40
46.0
 40
46.0
 40
47.0
 40
47.0
 40
47.0
 40
48.0
 40
48.0
 40
48.0
 40
49.0
 40
49.0
 40
49.0
 40
50.0
 40
50.0
 40
50.0
 40
51.0
 40
51.0
 40
51.0
 40
52.0
 40
52.0
 40
52.0
 40
53.0
 40
53.0
 40
53.0
 40
54.0
 40
54.0
 40
54.0
 40
55.0
 40
55.0
 40
55.0
 40
56.0
 40
56.0
 40
56.0
 40
57.0
 40
57.0
 40
57.0
 40
58.0
 40
58.0
 40
58.0
 40
59.0
 40
59.0
 40
59.0
 40
60.0
 40
60.0
 40
60.0
 40
61.0
 40
61.0
 40
61.0
 40
62.0
 40
62.0
 40
62.0
 40
63.0
 40
63.0
 40
63.0
 40
64.0
 40
64.0
 40
64.0
 40
65.0
 40
65.0
 40
65.0
 40
66.0
 40
66.0
 40
66.0
 40
67.0
 40
67.0
 40
67.0
 40
68.0
 40
68.0
 40
68.0
 40
69.0
 40
69.0
 40
69.0
 40
70.0
 40
70.0
 40
70.0
 40
71.0
 40
71.0
 40
71.0
 40
72.0
 40
72.0
 40
72.0
 40
73.0
 40
73.0
 40
73.0
 40
74.0
 40
74.0
 40
74.0
 40
75.0
 40
75.0
 40
75.0
 40
76.0
 40
76.0
 40
76.0
 40
77.0
 40
77.0
 40
77.0
 40
78.0
 40
78.0
 40
78.0
 40
79.0
 40
79.0
 40
79.0
 40
80.0
 40
80.0
 40
80.0
 40
81.0
 40
81.0
 40
81.0
 40
82.0
 40
82.0
 40
82.0
 40
83.0
 40
83.0
 40
83.0
 40
84.0
 40
84.0
 40
84.0
 40
85.0
 40
85.0
 40
85.0
 40
86.0
 40
86.0
 40
86.0
 40
87.0
 40
87.0
 40
87.0
 40
88.0
 40
88.0
 40
88.0
 40
89.0
 40
89.0
 40
89.0
 40
90.0
 40
90.0
 40
90.0
 40
91.0
 40
91.0
 40
91.0
 40
92.0
 40
92.0
 40
92.0
 40
93.0
 40
93.0
 40
93.0
 40
94.0
 40
94.0
 40
94.0
 40
95.0
 40
95.0
 40
95.0
 40
96.0
 40
96.0
 40
96.0
 40
97.0
 40
97.0
 40
97.0
 40
98.0
 40
98.0
 40
98.0
 40
99.0
 40
99.0
 40
99.0
 40
99.0
 10
64.87872445591695
 20
-43.23217582252514
 10
64.00782197813552
 20
-43.00720943369274
 10
63.59440171090498
 20
-43.18564443364777
 10
62.982543948737
 20
-42.83082054484795
 10
62.24047591211317
 20
-42.40258360051033
 10
61.65549981592604
 20
-41.59472248960152
 10
60.97266316667999
 20
-41.10757165638994
 10
60.40768956998256
 20
-40.70586360093434
 10
59.67733375528216
 20
-40.6087086009591
 10
59.13366942966088
 20
-40.24629998993869
 10
57.88864463424875
 20
-39.26928193462727
 10
56.64496188819996
 20
-38.29222860153801
 10
55.39990330885294
 20
-37.31623360178204
 10
54.06527445401327
 20
-36.47563471310318
 10
52.1332517255255
 20
-36.27617415759767
 10
50.86268731349585
 20
-35.42005304670052
 10
50.09790038856275
 20
-34.90640860238445
 10
49.7065287318808
 20
-34.0061902692761
 10
49.13809791304935
 20
-33.29410832500995
 10
48.48764626297709
 20
-32.48243721410176
 10
47.25225379449457
 20
-32.23990249194018
 10
46.6107638772362
 20
-31.45853499213522
 10
45.64270522444647
 20
-30.27171999243193
 10
45.00879998874807
 20
-28.85923304834071
 10
44.1406138778536
 20
-27.55007471533458
 10
44.35146803516645
 20
-26.8620874932846
 10
44.56232330756486
 20
-26.17272443790141
 10
44.7731444332509
 20
-25.48371416029566
 10
44.86892246640954
 20
-25.08031277150758
 10
45.77637272103632
 20
-25.32799804922358
 10
46.6107638772362
 20
-25.36726221588028
 10
47.01867963378688
 20
-25.36694471588036
 10
46.84158519386049
 20
-24.69444443827084
 10
47.06965602137525
 20
-24.2765438828199
 10
47.43414721036395
 20
-23.7790919384998
 10
47.7993062805381
 20
-23.28022888306897
 10
48.16175016018028
 20
-22.78309443874879
 10
48.35330848862655
 20
-22.13024388335621
 10
48.14382904952637
 20
-21.72271499456947
 10
48.046674052005
 20
-21.34651277244108
 10
47.94126405469424
 20
-20.93376277254425
 10
48.36914821044467
 20
-20.61820305040112
 10
48.39186709875395
 20
-20.19892666161698
 10
48.42012459803304
 20
-19.66736110619427
 10
47.28943657132374
 20
-17.21925971791726
 10
46.95595574649821
 20
-16.9822636068657
 10
46.18975771049
 20
-16.43552860700214
 10
45.08044801656862
 20
-16.25497694038085
 10
43.96768110051323
 20
-16.06310110709529
 10
42.14798281360427
 20
-15.74616555161895
 10
40.53638813249725
 20
-16.97467888464511
 10
40.00581036825564
 20
-18.01509110660723
 10
39.66269871034248
 20
-18.6865330508838
 10
39.70817176473792
 20
-19.32283832850264
 10
39.3726095510766
 20
-20.08388582831232
 10
39.14249261250293
 20
-20.27473860604245
 10
38.91304595168994
 20
-20.46661443932769
 10
38.68359929087694
 20
-20.6571497170579
 10
37.68933042735397
 20
-22.23156166110889
 10
38.58990151548959
 20
-23.49521166079278
 10
39.89076953785724
 20
-24.16182054951517
 10
39.89076953785724
 20
-24.16182054951517
 10
39.89076953785724
 20
-24.33478749391618
 10
39.89076953785724
 20
-24.33478749391618
 10
36.96363127920142
 20
-24.09602749397613
 10
36.19401129883607
 20
-22.83615221651314
 10
34.20307554700473
 20
-21.9207997167421
 10
32.9997152695277
 20
-21.36785582799148
 10
31.29505776995399
 20
-21.25934138357413
 10
30.18126777023256
 20
-20.60028193929449
 10
28.33331193736123
 20
-19.50338999512424
 10
27.15475193765588
 20
-17.81425471776852
 10
25.3559027714388
 20
-16.75246416247847
 10
23.57187027188482
 20
-15.6982583294087
 10
21.46603388352247
 20
-15.19837221842275
 10
19.72747443951257
 20
-14.16692055201377
 10
18.45969693982939
 20
-13.41314027442443
 10
16.96398971798131
 20
-12.48261833021254
 10
15.70619582940673
 20
-11.75430860817257
 10
15.36149666282621
 20
-11.69782888596445
 10
15.01700916291242
 20
-11.63958527486784
 10
14.67146332966534
 20
-11.58137694154907
 10
13.92075221874201
 20
-11.09803610833654
 10
13.24020860780093
 20
-10.27465277520911
 10
12.48882721909992
 20
-10.31635110853198
 10
12.43696888577958
 20
-10.31910277519807
 10
12.20942721916996
 20
-10.35184055296747
 10
12.37410388579551
 20
-10.48928277515548
 10
12.66122971905678
 20
-10.68256971955146
 10
12.94909638565173
 20
-10.87342249728158
 10
13.23622221891332
 20
-11.06356971945618
 10
13.5984897188227
 20
-11.3495313860516
 10
12.50844166353967
 20
-11.10286916389104
 10
12.14550388585262
 20
-11.12213083055271
 10
12.14550388585262
 20
-11.12213083055271
 10
12.02958110810356
 20
-11.12213083055271
 10
12.02958110810356
 20
-11.12213083055271
 10
12.20046666361649
 20
-11.66473833041729
 10
13.48718832996142
 20
-11.95655610812202
 10
14.09819944091977
 20
-12.03956471921248
 10
14.33710055197118
 20
-12.79369777457926
 10
15.25763888507448
 20
-13.30081583000803
 10
14.90193305182992
 20
-13.47653444107546
 10
14.30901944086708
 20
-13.62396027437175
 10
13.57418332993981
 20
-13.66082555214044
 10
12.94909638565173
 20
-13.59263360771308
 10
12.27557305248676
 20
-13.51579860773216
 10
12.47418694132603
 20
-14.02429249649382
 10
12.60372694129354
 20
-14.11008805202789
 10
13.5543924966115
 20
-14.73951416298166
 10
16.81377694024109
 20
-14.04944555204327
 10
18.06074055104052
 20
-14.85628360739696
 10
19.34421666183055
 20
-15.96732194045262
 10
20.62649332817659
 20
-17.07804277350836
 10
21.90975777230022
 20
-18.18802277323073
 10
22.82807360540407
 20
-18.89601249527607
 10
23.74928221628505
 20
-19.60294388398812
 10
24.66756277161074
 20
-20.31400277269915
 10
25.27271777145947
 20
-20.67746971705285
 10
25.90281416019092
 20
-20.84006499478999
 10
26.44715027116615
 20
-21.23143666135891
 10
28.50006999287486
 20
-22.70491888321251
 10
30.49650999237577
 20
-24.61623360495703
 10
32.93840249176539
 20
-25.65495249358635
 10
33.91023471374456
 20
-27.34959110427362
 10
31.40050304770533
 20
-31.47370443657607
 10
30.81344554785211
 20
-32.83588526956871
 10
30.35250610352294
 20
-33.77261610266798
 10
29.89463582585978
 20
-34.71209860243303
 10
29.43542499264125
 20
-35.65087554664287
 10
29.01441999274646
 20
-36.78981860191375
 10
28.81114943724158
 20
-37.91465054607674
 10
28.22927777072061
 20
-38.92440637915787
 10
27.17955221542725
 20
-40.74756193425753
 10
25.92002971574234
 20
-42.33333332275
 10
25.2423788825784
 20
-44.55403415552843
 10
24.8175991604624
 20
-45.94517804406958
 10
25.29166193812153
 20
-47.27462109929218
 10
25.47080249363242
 20
-48.45974276566298
 10
25.27959693812453
 20
-49.47500193207566
 10
25.08959082706097
 20
-50.48994359848873
 10
24.89771499377572
 20
-51.50484998712365
 10
25.56552332694179
 20
-51.49486637601505
 10
27.50685943756779
 20
-51.40152137603823
 10
27.71182332640548
 20
-51.90758109813437
 10
28.12901832630121
 20
-51.86694109814447
 10
28.07941777075784
 20
-51.69915998707538
 10
28.2875213818169
 20
-51.61992609820582
 10
29.0460994371829
 20
-51.32951943161214
 10
30.02798582582633
 20
-52.36855582024106
 10
30.58470443679817
 20
-52.53873582019879
 10
31.26683554773885
 20
-55.30860581950631
 10
32.6986194362699
 20
-57.36392443010367
 10
32.65177054739261
 20
-60.63883109595156
 10
31.54104971433687
 20
-60.61851109595661
 10
30.42965860350377
 20
-60.59819109596165
 10
29.32034888155876
 20
-60.58062276263247
 10
27.01212388213593
 20
-60.97164165142395
 10
24.61330554940238
 20
-62.01311220671904
 10
22.42654193883767
 20
-61.21177748469689
 10
22.33178582775045
 20
-60.81042220701969
 10
22.23586554999675
 20
-60.41008998489762
 10
22.13990999446489
 20
-60.00598304055401
 10
20.36758971713046
 20
-58.98105776303234
 10
18.96078249525966
 20
-61.09430248472671
 10
18.00457832883232
 20
-61.67271692902606
 10
17.35141027343982
 20
-61.84564859564956
 10
16.70131138471365
 20
-62.01586387338481
 10
16.0508597182094
 20
-62.18914831778607
 10
15.12361860733024
 20
-62.42649720661572
 10
13.76676471878058
 20
-62.29491109553765
 10
13.17819027448311
 20
-62.87815859539182
 10
12.6779513857194
 20
-63.40079887303889
 10
12.88930055233336
 20
-63.59888359521152
 10
13.63740110770164
 20
-63.91236192846656
 10
15.48278166279609
 20
-64.32267776169724
 10
17.18860332903628
 20
-64.53557915053263
 10
18.92285888415833
 20
-64.83254748379177
 10
18.92285888415833
 20
-64.83254748379177
 10
25.47080249363242
 20
-64.83254748379177
 10
25.47080249363242
 20
-64.83254748379177
 10
27.22364943763845
 20
-65.17569442815052
 10
30.1402749924649
 20
-65.73378887245556
 10
31.90518693646826
 20
-65.40686970587063
 10
33.87442776930915
 20
-65.03719387262987
 10
35.69585381154512
 20
-66.45691276116327
 10
37.41994932311534
 20
-65.00413859485991
 10
38.40659818683272
 20
-64.17250026173485
 10
37.90844165718968
 20
-59.46580970735592
 10
38.33907652188867
 20
-57.8245463744326
 10
38.33907652188867
 20
-57.8245463744326
 10
38.33907652188867
 20
-56.10027443041946
 10
38.33907652188867
 20
-56.10027443041946
 10
40.0843749899789
 20
-56.31973748592033
 10
41.94266615217566
 20
-59.31178692961632
 10
43.27934111807424
 20
-60.29399081825968
 10
44.96953468606493
 20
-61.53354609572804
 10
47.1371776863193
 20
-62.06511165115042
 10
49.19595346712889
 20
-62.99323470647399
 10
50.18055621978736
 20
-63.43625303969621
 10
51.86178923245108
 20
-63.62297831742736
 10
52.52737504880391
 20
-64.31371720614376
 10
52.92354448314123
 20
-64.7264672060406
 10
53.53194502317519
 20
-64.98759331708649
 10
53.90610112474079
 20
-65.40686970587063
 10
55.70583218993693
 20
-67.42052526092296
 10
56.9198816034084
 20
-69.19923081603365
 10
60.16720096500682
 20
-69.8293272047648
 10
61.5376720411543
 20
-70.1145833158047
 10
62.95636942870561
 20
-69.45312498263672
 10
61.71889398097539
 20
-67.58968220532493
 10
60.87138066926392
 20
-67.24896942763235
 10
60.74254622810632
 20
-66.38286470562629
 10
60.05216013460843
 20
-65.92326581685248
 10
58.68377044729673
 20
-65.00928915041433
 10
57.50207220784656
 20
-63.78592637294226
 10
56.14680440090902
 20
-62.93636692871026
 10
55.00782609663344
 20
-62.22047498444474
 10
53.35351002772745
 20
-61.9917338733908
 10
52.18285227981564
 20
-61.26998581801598
 10
50.7469409275599
 20
-60.02630304054896
 10
49.31173513084172
 20
-58.78262026308195
 10
47.87511943247593
 20
-57.53689137450469
 10
46.99384407886493
 20
-57.05834831906881
 10
46.11260521245832
 20
-56.57846470807758
 10
45.23203662381238
 20
-56.10027443041946
 10
44.26327359297203
 20
-55.47395276390922
 10
43.72031332904633
 20
-54.36912331974126
 10
42.81977751868757
 20
-53.68907359768899
 10
41.19784644895537
 20
-52.46327665355076
 10
39.28991943462182
 20
-51.43284804269755
 10
38.05177430699614
 20
-49.83984470976225
 10
38.87515761932321
 20
-47.55197498811189
 10
37.64248153966029
 20
-45.114562766499
 10
37.59288098537015
 20
-42.71574443376577
 10
37.57428959695557
 20
-42.33333332275
 10
37.5536168197052
 20
-41.95092221173423
 10
37.53499015351373
 20
-41.56819360071886
 10
37.9160254215705
 20
-40.5277461009789
 10
40.74720812711878
 20
-37.49297526840459
 10
41.67116943402651
 20
-36.85804582411895
 10
42.32299586469487
 20
-36.40603165756509
 10
42.7750111004175
 20
-36.3126866575886
 10
43.04992973503813
 20
-35.47829665779713
 10
43.84710276681574
 20
-35.4682777689107
 10
44.51131164219962
 20
-35.1523652689898
 10
45.28922190013125
 20
-35.36322054671464
 10
46.44262881514983
 20
-35.67535832441464
 10
47.26188462758221
 20
-36.73954776859301
 10
48.21893543649914
 20
-37.31623360178204
 10
49.13809791304935
 20
-37.73790887945451
 10
50.05793066736024
 20
-38.15856110157153
 10
50.97709443170032
 20
-38.58129471257696
 10
51.39739257763216
 20
-38.90581499027357
 10
51.82044367795034
 20
-39.23033526797017
 10
52.24074443138452
 20
-39.55591387900006
 10
53.1068478117981
 20
-40.09368832330982
 10
54.25337556032552
 20
-40.51638665653741
 10
55.11327137172108
 20
-40.93463998976643
 10
56.60566387473759
 20
-41.45209443408157
 10
58.10084046216851
 20
-41.9698663783963
 10
59.59326681298243
 20
-42.48594498937855
 10
60.13552152137058
 20
-42.90282248927404
 10
60.04595276276655
 20
-44.1688713778469
 10
60.34083818279919
 20
-44.84031332212346
 10
60.49655428993765
 20
-45.19894721092234
 10
61.68375731520513
 20
-46.87294832161538
 10
62.00690175140548
 20
-47.08136943267436
 10
62.62426284676639
 20
-46.28864248842793
 10
61.51491942906557
 20
-45.6168477663736
 10
61.4308862105453
 20
-44.78348082213726
 10
61.36128315676547
 20
-44.41694471111818
 10
61.62036315015579
 20
-44.30670165559019
 10
61.89115536546952
 20
-44.32426998891873
 10
63.81693392744993
 20
-44.50856109998371
 10
64.53077974257154
 20
-45.53038193306185
 10
65.48299749605621
 20
-46.51325609948257
 10
65.60565832626021
 20
-46.64004443278463
 10
66.41041665006406
 20
-46.73204887720608
 10
65.83852693143035
 20
-45.90312693296863
 10
66.42145691655857
 20
-46.01545137738503
 10
65.94464248427867
 20
-45.24064554424553
 10
65.94464248427867
 20
-45.24064554424553
 10
65.62975304786772
 20
-44.77349721102866
 10
65.25563222407901
 20
-44.38971026668064
 10
64.87872445591695
 20
-43.98077026678286
 10
64.84013056801268
 20
-43.96045026678791
 10
64.80157195788527
 20
-43.94150610012584
 10
64.7636499838092
 20
-43.92393776679666
 10
64.7636499838092
 20
-43.92393776679666
 10
64.7636499838092
 20
-43.86431832236716
 10
64.7636499838092
 20
-43.86431832236716
 10
65.32107250018727
 20
-43.87708887791969
 10
65.86297443080664
 20
-44.17783193339972
 10
66.1713374784952
 20
-44.33044360002827
 10
66.73564079743196
 20
-44.60984359995887
 10
67.45774161234297
 20
-44.45550332221968
 10
64.87872445591695
 20
-43.23217582252514
 97
        0
 75
     0
 76
     1
 98
        0
  0
ENDSEC
  0
SECTION
  2
OBJECTS
  0
DICTIONARY
  5
C
330
0
100
AcDbDictionary
281
     1
  3
ACAD_GROUP
350
D
  3
ACAD_LAYOUT
350
1A
  3
ACAD_MATERIAL
350
3B
  3
ACAD_MLEADERSTYLE
350
64
  3
ACAD_MLINESTYLE
350
17
  3
ACAD_PLOTSETTINGS
350
19
  3
ACAD_PLOTSTYLENAME
350
E
  3
ACAD_TABLESTYLE
350
63
  3
ACAD_VISUALSTYLE
350
2A
  0
SUN
  5
3F
330
29
100
AcDbSun
 90
        1
290
     0
 63
     7
421
 16777215
 40
1.0
291
     1
 91
  2455826
 92
 54000000
292
     0
 70
     2
 71
   256
280
     1
  0
DICTIONARY
  5
D
102
{ACAD_REACTORS
330
C
102
}
330
C
100
AcDbDictionary
281
     1
  0
DICTIONARY
  5
1A
102
{ACAD_REACTORS
330
C
102
}
330
C
100
AcDbDictionary
281
     1
  3
Layout1
350
1E
  3
Layout2
350
26
  3
Model
350
22
  0
DICTIONARY
  5
3B
102
{ACAD_REACTORS
330
C
102
}
330
C
100
AcDbDictionary
281
     1
  3
ByBlock
350
3D
  3
ByLayer
350
3C
  3
Global
350
3E
  0
DICTIONARY
  5
64
102
{ACAD_REACTORS
330
C
102
}
330
C
100
AcDbDictionary
281
     1
  0
DICTIONARY
  5
17
102
{ACAD_REACTORS
330
C
102
}
330
C
100
AcDbDictionary
281
     1
  3
Standard
350
18
  0
DICTIONARY
  5
19
102
{ACAD_REACTORS
330
C
102
}
330
C
100
AcDbDictionary
281
     1
  0
ACDBDICTIONARYWDFLT
  5
E
102
{ACAD_REACTORS
330
C
102
}
330
C
100
AcDbDictionary
281
     1
  3
Normal
350
F
100
AcDbDictionaryWithDefault
340
F
  0
DICTIONARY
  5
63
102
{ACAD_REACTORS
330
C
102
}
330
C
100
AcDbDictionary
281
     1
  0
DICTIONARY
  5
2A
102
{ACAD_REACTORS
330
C
102
}
330
C
100
AcDbDictionary
281
     1
  3
2dWireframe
350
2F
  3
3D Hidden
350
31
  3
3dWireframe
350
30
  3
Basic
350
32
  3
Brighten
350
36
  3
ColorChange
350
3A
  3
Conceptual
350
34
  3
Dim
350
35
  3
Facepattern
350
39
  3
Flat
350
2B
  3
FlatWithEdges
350
2C
  3
Gouraud
350
2D
  3
GouraudWithEdges
350
2E
  3
Linepattern
350
38
  3
Realistic
350
33
  3
Thicken
350
37
  0
LAYOUT
  5
1E
102
{ACAD_REACTORS
330
1A
102
}
330
1A
100
AcDbPlotSettings
  1

  2
none_device
  4

  6

 40
0.0
 41
0.0
 42
0.0
 43
0.0
 44
0.0
 45
0.0
 46
0.0
 47
0.0
 48
0.0
 49
0.0
140
0.0
141
0.0
142
1.0
143
1.0
 70
   688
 72
     0
 73
     0
 74
     5
  7

 75
    16
 76
     0
 77
     2
 78
   300
147
1.0
148
0.0
149
0.0
100
AcDbLayout
  1
Layout1
 70
     1
 71
     1
 10
0.0
 20
0.0
 11
12.0
 21
9.0
 12
0.0
 22
0.0
 32
0.0
 14
1.000000000000000E+20
 24
1.000000000000000E+20
 34
1.000000000000000E+20
 15
-1.000000000000000E+20
 25
-1.000000000000000E+20
 35
-1.000000000000000E+20
146
0.0
 13
0.0
 23
0.0
 33
0.0
 16
1.0
 26
0.0
 36
0.0
 17
0.0
 27
1.0
 37
0.0
 76
     0
330
1B
  0
LAYOUT
  5
26
102
{ACAD_REACTORS
330
1A
102
}
330
1A
100
AcDbPlotSettings
  1

  2
none_device
  4

  6

 40
0.0
 41
0.0
 42
0.0
 43
0.0
 44
0.0
 45
0.0
 46
0.0
 47
0.0
 48
0.0
 49
0.0
140
0.0
141
0.0
142
1.0
143
1.0
 70
   688
 72
     0
 73
     0
 74
     5
  7

 75
    16
 76
     0
 77
     2
 78
   300
147
1.0
148
0.0
149
0.0
100
AcDbLayout
  1
Layout2
 70
     1
 71
     2
 10
0.0
 20
0.0
 11
0.0
 21
0.0
 12
0.0
 22
0.0
 32
0.0
 14
0.0
 24
0.0
 34
0.0
 15
0.0
 25
0.0
 35
0.0
146
0.0
 13
0.0
 23
0.0
 33
0.0
 16
1.0
 26
0.0
 36
0.0
 17
0.0
 27
1.0
 37
0.0
 76
     0
330
23
  0
LAYOUT
  5
22
102
{ACAD_REACTORS
330
1A
102
}
330
1A
100
AcDbPlotSettings
  1

  2
none_device
  4

  6

 40
0.0
 41
0.0
 42
0.0
 43
0.0
 44
0.0
 45
0.0
 46
0.0
 47
0.0
 48
0.0
 49
0.0
140
0.0
141
0.0
142
1.0
143
1.0
 70
  1712
 72
     0
 73
     0
 74
     0
  7

 75
     0
 76
     0
 77
     2
 78
   300
147
1.0
148
0.0
149
0.0
100
AcDbLayout
  1
Model
 70
     1
 71
     0
 10
0.0
 20
0.0
 11
12.0
 21
9.0
 12
0.0
 22
0.0
 32
0.0
 14
1.000000000000000E+20
 24
1.000000000000000E+20
 34
1.000000000000000E+20
 15
-1.000000000000000E+20
 25
-1.000000000000000E+20
 35
-1.000000000000000E+20
146
0.0
 13
0.0
 23
0.0
 33
0.0
 16
1.0
 26
0.0
 36
0.0
 17
0.0
 27
1.0
 37
0.0
 76
     0
330
1F
331
29
  0
MATERIAL
  5
3D
102
{ACAD_REACTORS
330
3B
102
}
330
3B
100
AcDbMaterial
  1
ByBlock
 72
     1
 94
      127
  0
MATERIAL
  5
3C
102
{ACAD_REACTORS
330
3B
102
}
330
3B
100
AcDbMaterial
  1
ByLayer
 72
     1
 94
      127
  0
MATERIAL
  5
3E
102
{ACAD_REACTORS
330
3B
102
}
330
3B
100
AcDbMaterial
  1
Global
 72
     1
 94
      127
  0
MLINESTYLE
  5
18
102
{ACAD_REACTORS
330
17
102
}
330
17
100
AcDbMlineStyle
  2
Standard
 70
     0
  3

 62
   256
 51
90.0
 52
90.0
 71
     2
 49
0.5
 62
   256
  6
BYLAYER
 49
-0.5
 62
   256
  6
BYLAYER
  0
ACDBPLACEHOLDER
  5
F
102
{ACAD_REACTORS
330
E
102
}
330
E
  0
VISUALSTYLE
  5
2F
102
{ACAD_REACTORS
330
2A
102
}
102
{ACAD_XDICTIONARY
360
4B
102
}
330
2A
100
AcDbVisualStyle
  2
2dWireframe
 70
     4
 71
     0
 72
     2
 73
     0
 90
        0
 40
-0.6
 41
-30.0
 62
     5
 63
     7
421
 16777215
 74
     1
 91
        4
 64
     7
 65
   257
 75
     1
175
     1
 42
1.0
 92
        0
 66
   257
 43
1.0
 76
     1
 77
     6
 78
     2
 67
     7
 79
     5
170
     0
171
     0
290
     0
174
     0
 93
        1
 44
0.0
173
     0
291
     0
 45
0.0
  0
VISUALSTYLE
  5
31
102
{ACAD_REACTORS
330
2A
102
}
102
{ACAD_XDICTIONARY
360
4F
102
}
330
2A
100
AcDbVisualStyle
  2
3D Hidden
 70
     6
 71
     1
 72
     2
 73
     2
 90
        0
 40
-0.6
 41
-30.0
 62
     5
 63
     7
421
 16777215
 74
     2
 91
        2
 64
     7
 65
   257
 75
     2
175
     1
 42
40.0
 92
        0
 66
   257
 43
1.0
 76
     1
 77
     6
 78
     2
 67
     7
 79
     3
170
     0
171
     0
290
     0
174
     0
 93
        1
 44
0.0
173
     0
291
     0
 45
0.0
  0
VISUALSTYLE
  5
30
102
{ACAD_REACTORS
330
2A
102
}
102
{ACAD_XDICTIONARY
360
4D
102
}
330
2A
100
AcDbVisualStyle
  2
3dWireframe
 70
     5
 71
     0
 72
     2
 73
     0
 90
        0
 40
-0.6
 41
-30.0
 62
     5
 63
     7
421
 16777215
 74
     1
 91
        4
 64
     7
 65
   257
 75
     1
175
     1
 42
1.0
 92
        0
 66
   257
 43
1.0
 76
     1
 77
     6
 78
     2
 67
     7
 79
     5
170
     0
171
     0
290
     0
174
     0
 93
        1
 44
0.0
173
     0
291
     0
 45
0.0
  0
VISUALSTYLE
  5
32
102
{ACAD_REACTORS
330
2A
102
}
102
{ACAD_XDICTIONARY
360
51
102
}
330
2A
100
AcDbVisualStyle
  2
Basic
 70
     7
 71
     1
 72
     0
 73
     1
 90
        0
 40
-0.6
 41
-30.0
 62
     5
 63
     7
421
 16777215
 74
     0
 91
        4
 64
     7
 65
   257
 75
     1
175
     1
 42
1.0
 92
        8
 66
     7
 43
1.0
 76
     1
 77
     6
 78
     2
 67
     7
 79
     5
170
     0
171
     0
290
     0
174
     0
 93
        1
 44
0.0
173
     0
291
     1
 45
0.0
  0
VISUALSTYLE
  5
36
102
{ACAD_REACTORS
330
2A
102
}
102
{ACAD_XDICTIONARY
360
59
102
}
330
2A
100
AcDbVisualStyle
  2
Brighten
 70
    12
 71
     2
 72
     2
 73
     0
 90
        0
 40
-0.6
 41
-30.0
 62
     5
 63
     7
421
 16777215
 74
     1
 91
        4
 64
     7
 65
   257
 75
     1
175
     1
 42
1.0
 92
        8
 66
     7
 43
1.0
 76
     1
 77
     6
 78
     2
 67
     7
 79
     5
170
     0
171
     0
290
     0
174
     0
 93
        1
 44
50.0
173
     0
291
     1
 45
0.0
  0
VISUALSTYLE
  5
3A
102
{ACAD_REACTORS
330
2A
102
}
102
{ACAD_XDICTIONARY
360
61
102
}
330
2A
100
AcDbVisualStyle
  2
ColorChange
 70
    16
 71
     2
 72
     2
 73
     3
 90
        0
 40
-0.6
 41
-30.0
 62
     5
 63
     8
421
  8421504
 74
     1
 91
        4
 64
     7
 65
   257
 75
     1
175
     1
 42
1.0
 92
        8
 66
     8
424
  8421504
 43
1.0
 76
     1
 77
     6
 78
     2
 67
     7
 79
     5
170
     0
171
     0
290
     0
174
     0
 93
        1
 44
0.0
173
     0
291
     1
 45
0.0
  0
VISUALSTYLE
  5
34
102
{ACAD_REACTORS
330
2A
102
}
102
{ACAD_XDICTIONARY
360
55
102
}
330
2A
100
AcDbVisualStyle
  2
Conceptual
 70
     9
 71
     3
 72
     2
 73
     0
 90
        0
 40
-0.6
 41
-30.0
 62
     5
 63
     7
421
 16777215
 74
     2
 91
        2
 64
     7
 65
   257
 75
     1
175
     1
 42
40.0
 92
        8
 66
     7
 43
1.0
 76
     1
 77
     6
 78
     2
 67
     7
 79
     3
170
     0
171
     0
290
     0
174
     0
 93
        1
 44
0.0
173
     0
291
     0
 45
0.0
  0
VISUALSTYLE
  5
35
102
{ACAD_REACTORS
330
2A
102
}
102
{ACAD_XDICTIONARY
360
57
102
}
330
2A
100
AcDbVisualStyle
  2
Dim
 70
    11
 71
     2
 72
     2
 73
     0
 90
        0
 40
-0.6
 41
-30.0
 62
     5
 63
     7
421
 16777215
 74
     1
 91
        4
 64
     7
 65
   257
 75
     1
175
     1
 42
1.0
 92
        8
 66
     7
 43
1.0
 76
     1
 77
     6
 78
     2
 67
     7
 79
     5
170
     0
171
     0
290
     0
174
     0
 93
        1
 44
-50.0
173
     0
291
     1
 45
0.0
  0
VISUALSTYLE
  5
39
102
{ACAD_REACTORS
330
2A
102
}
102
{ACAD_XDICTIONARY
360
5F
102
}
330
2A
100
AcDbVisualStyle
  2
Facepattern
 70
    15
 71
     2
 72
     2
 73
     0
 90
        0
 40
-0.6
 41
-30.0
 62
     5
 63
     7
421
 16777215
 74
     1
 91
        4
 64
     7
 65
   257
 75
     1
175
     1
 42
1.0
 92
        8
 66
     7
 43
1.0
 76
     1
 77
     6
 78
     2
 67
     7
 79
     5
170
     0
171
     0
290
     0
174
     0
 93
        1
 44
0.0
173
     0
291
     1
 45
0.0
  0
VISUALSTYLE
  5
2B
102
{ACAD_REACTORS
330
2A
102
}
102
{ACAD_XDICTIONARY
360
43
102
}
330
2A
100
AcDbVisualStyle
  2
Flat
 70
     0
 71
     2
 72
     1
 73
     1
 90
        2
 40
-0.6
 41
30.0
 62
     5
 63
     7
421
 16777215
 74
     0
 91
        4
 64
     7
 65
   257
 75
     1
175
     1
 42
1.0
 92
        8
 66
     7
 43
1.0
 76
     1
 77
     6
 78
     2
 67
     7
 79
     5
170
     0
171
     0
290
     0
174
     0
 93
       13
 44
0.0
173
     0
291
     1
 45
0.0
  0
VISUALSTYLE
  5
2C
102
{ACAD_REACTORS
330
2A
102
}
102
{ACAD_XDICTIONARY
360
45
102
}
330
2A
100
AcDbVisualStyle
  2
FlatWithEdges
 70
     1
 71
     2
 72
     1
 73
     1
 90
        2
 40
-0.6
 41
30.0
 62
     5
 63
     7
421
 16777215
 74
     1
 91
        4
 64
     7
 65
   257
 75
     1
175
     1
 42
1.0
 92
        0
 66
   257
 43
1.0
 76
     1
 77
     6
 78
     2
 67
     7
 79
     5
170
     0
171
     0
290
     0
174
     0
 93
       13
 44
0.0
173
     0
291
     1
 45
0.0
  0
VISUALSTYLE
  5
2D
102
{ACAD_REACTORS
330
2A
102
}
102
{ACAD_XDICTIONARY
360
47
102
}
330
2A
100
AcDbVisualStyle
  2
Gouraud
 70
     2
 71
     2
 72
     2
 73
     1
 90
        2
 40
-0.6
 41
30.0
 62
     5
 63
     7
421
 16777215
 74
     0
 91
        4
 64
     7
 65
   257
 75
     1
175
     1
 42
1.0
 92
        0
 66
     7
 43
1.0
 76
     1
 77
     6
 78
     2
 67
     7
 79
     5
170
     0
171
     0
290
     0
174
     0
 93
       13
 44
0.0
173
     0
291
     1
 45
0.0
  0
VISUALSTYLE
  5
2E
102
{ACAD_REACTORS
330
2A
102
}
102
{ACAD_XDICTIONARY
360
49
102
}
330
2A
100
AcDbVisualStyle
  2
GouraudWithEdges
 70
     3
 71
     2
 72
     2
 73
     1
 90
        2
 40
-0.6
 41
30.0
 62
     5
 63
     7
421
 16777215
 74
     1
 91
        4
 64
     7
 65
   257
 75
     1
175
     1
 42
1.0
 92
        0
 66
   257
 43
1.0
 76
     1
 77
     6
 78
     2
 67
     7
 79
     5
170
     0
171
     0
290
     0
174
     0
 93
       13
 44
0.0
173
     0
291
     1
 45
0.0
  0
VISUALSTYLE
  5
38
102
{ACAD_REACTORS
330
2A
102
}
102
{ACAD_XDICTIONARY
360
5D
102
}
330
2A
100
AcDbVisualStyle
  2
Linepattern
 70
    14
 71
     2
 72
     2
 73
     0
 90
        0
 40
-0.6
 41
-30.0
 62
     5
 63
     7
421
 16777215
 74
     1
 91
        4
 64
     7
 65
   257
 75
     7
175
     7
 42
1.0
 92
        8
 66
     7
 43
1.0
 76
     1
 77
     6
 78
     2
 67
     7
 79
     5
170
     0
171
     0
290
     0
174
     0
 93
        1
 44
0.0
173
     0
291
     1
 45
0.0
  0
VISUALSTYLE
  5
33
102
{ACAD_REACTORS
330
2A
102
}
102
{ACAD_XDICTIONARY
360
53
102
}
330
2A
100
AcDbVisualStyle
  2
Realistic
 70
     8
 71
     2
 72
     2
 73
     0
 90
        0
 40
-0.6
 41
-30.0
 62
     5
 63
     7
421
 16777215
 74
     1
 91
        0
 64
     7
 65
   257
 75
     1
175
     1
 42
1.0
 92
        8
 66
     8
424
  7895160
 43
1.0
 76
     1
 77
     6
 78
     2
 67
     7
 79
     5
170
     0
171
     0
290
     0
174
     0
 93
       13
 44
0.0
173
     0
291
     0
 45
0.0
  0
VISUALSTYLE
  5
37
102
{ACAD_REACTORS
330
2A
102
}
102
{ACAD_XDICTIONARY
360
5B
102
}
330
2A
100
AcDbVisualStyle
  2
Thicken
 70
    13
 71
     2
 72
     2
 73
     0
 90
        0
 40
-0.6
 41
-30.0
 62
     5
 63
     7
421
 16777215
 74
     1
 91
        4
 64
     7
 65
   257
 75
     1
175
     1
 42
1.0
 92
       12
 66
     7
 43
1.0
 76
     1
 77
     6
 78
     2
 67
     7
 79
     5
170
     0
171
     0
290
     0
174
     0
 93
        1
 44
0.0
173
     0
291
     1
 45
0.0
  0
DICTIONARY
  5
4B
330
2F
100
AcDbDictionary
280
     1
281
     1
  3
ACAD_XREC_ROUNDTRIP
360
4C
  0
DICTIONARY
  5
4F
330
31
100
AcDbDictionary
280
     1
281
     1
  3
ACAD_XREC_ROUNDTRIP
360
50
  0
DICTIONARY
  5
4D
330
30
100
AcDbDictionary
280
     1
281
     1
  3
ACAD_XREC_ROUNDTRIP
360
4E
  0
DICTIONARY
  5
51
330
32
100
AcDbDictionary
280
     1
281
     1
  3
ACAD_XREC_ROUNDTRIP
360
52
  0
DICTIONARY
  5
59
330
36
100
AcDbDictionary
280
     1
281
     1
  3
ACAD_XREC_ROUNDTRIP
360
5A
  0
DICTIONARY
  5
61
330
3A
100
AcDbDictionary
280
     1
281
     1
  3
ACAD_XREC_ROUNDTRIP
360
62
  0
DICTIONARY
  5
55
330
34
100
AcDbDictionary
280
     1
281
     1
  3
ACAD_XREC_ROUNDTRIP
360
56
  0
DICTIONARY
  5
57
330
35
100
AcDbDictionary
280
     1
281
     1
  3
ACAD_XREC_ROUNDTRIP
360
58
  0
DICTIONARY
  5
5F
330
39
100
AcDbDictionary
280
     1
281
     1
  3
ACAD_XREC_ROUNDTRIP
360
60
  0
DICTIONARY
  5
43
330
2B
100
AcDbDictionary
280
     1
281
     1
  3
ACAD_XREC_ROUNDTRIP
360
44
  0
DICTIONARY
  5
45
330
2C
100
AcDbDictionary
280
     1
281
     1
  3
ACAD_XREC_ROUNDTRIP
360
46
  0
DICTIONARY
  5
47
330
2D
100
AcDbDictionary
280
     1
281
     1
  3
ACAD_XREC_ROUNDTRIP
360
48
  0
DICTIONARY
  5
49
330
2E
100
AcDbDictionary
280
     1
281
     1
  3
ACAD_XREC_ROUNDTRIP
360
4A
  0
DICTIONARY
  5
5D
330
38
100
AcDbDictionary
280
     1
281
     1
  3
ACAD_XREC_ROUNDTRIP
360
5E
  0
DICTIONARY
  5
53
330
33
100
AcDbDictionary
280
     1
281
     1
  3
ACAD_XREC_ROUNDTRIP
360
54
  0
DICTIONARY
  5
5B
330
37
100
AcDbDictionary
280
     1
281
     1
  3
ACAD_XREC_ROUNDTRIP
360
5C
  0
XRECORD
  5
4C
102
{ACAD_REACTORS
330
4B
102
}
330
4B
100
AcDbXrecord
280
     1
102
RTVSPropertyOp0
 70
     1
102
RTVSPropertyOp1
 70
     1
102
RTVSPropertyOp2
 70
     1
102
RTVSPropertyOp3
 70
     1
102
RTVSPropertyOp4
 70
     1
102
RTVSPropertyOp5
 70
     1
102
RTVSPropertyOp6
 70
     1
102
RTVSPropertyOp7
 70
     1
102
RTVSPropertyOp8
 70
     1
102
RTVSPropertyOp9
 70
     1
102
RTVSPropertyOp10
 70
     1
102
RTVSPropertyOp11
 70
     1
102
RTVSPropertyOp12
 70
     1
102
RTVSPropertyOp13
 70
     1
102
RTVSPropertyOp14
 70
     1
102
RTVSPropertyOp15
 70
     1
102
RTVSPropertyOp16
 70
     1
102
RTVSPropertyOp17
 70
     1
102
RTVSPropertyOp18
 70
     1
102
RTVSPropertyOp19
 70
     1
102
RTVSPropertyOp20
 70
     1
102
RTVSPropertyOp21
 70
     1
102
RTVSPropertyOp22
 70
     1
102
RTVSPropertyOp23
 70
     1
102
RTVSPropertyOp24
 70
     1
102
RTVSPropertyOp25
 70
     1
102
RTVSPropertyOp26
 70
     1
102
RTVSPropertyOp27
 70
     1
102
RTVSPropertyOp28
 70
     1
102
RTVSPropertyOp29
 70
     1
102
RTVSPropertyOp30
 70
     1
102
RTVSPropertyOp31
 70
     1
102
RTVSPropertyOp32
 70
     1
  0
XRECORD
  5
50
102
{ACAD_REACTORS
330
4F
102
}
330
4F
100
AcDbXrecord
280
     1
102
RTVSPropertyOp0
 70
     1
102
RTVSPropertyOp1
 70
     1
102
RTVSPropertyOp2
 70
     1
102
RTVSPropertyOp3
 70
     1
102
RTVSPropertyOp4
 70
     1
102
RTVSPropertyOp5
 70
     1
102
RTVSPropertyOp6
 70
     1
102
RTVSPropertyOp7
 70
     1
102
RTVSPropertyOp8
 70
     1
102
RTVSPropertyOp9
 70
     1
102
RTVSPropertyOp10
 70
     1
102
RTVSPropertyOp11
 70
     1
102
RTVSPropertyOp12
 70
     1
102
RTVSPropertyOp13
 70
     1
102
RTVSPropertyOp14
 70
     1
102
RTVSPropertyOp15
 70
     1
102
RTVSPropertyOp16
 70
     1
102
RTVSPropertyOp17
 70
     1
102
RTVSPropertyOp18
 70
     1
102
RTVSPropertyOp19
 70
     1
102
RTVSPropertyOp20
 70
     1
102
RTVSPropertyOp21
 70
     1
102
RTVSPropertyOp22
 70
     1
102
RTVSPropertyOp23
 70
     1
102
RTVSPropertyOp24
 70
     1
102
RTVSPropertyOp25
 70
     1
102
RTVSPropertyOp26
 70
     1
102
RTVSPropertyOp27
 70
     1
102
RTVSPropertyOp28
 70
     1
102
RTVSPropertyOp29
 70
     1
102
RTVSPropertyOp30
 70
     1
102
RTVSPropertyOp31
 70
     1
102
RTVSPropertyOp32
 70
     1
  0
XRECORD
  5
4E
102
{ACAD_REACTORS
330
4D
102
}
330
4D
100
AcDbXrecord
280
     1
102
RTVSPropertyOp0
 70
     1
102
RTVSPropertyOp1
 70
     1
102
RTVSPropertyOp2
 70
     1
102
RTVSPropertyOp3
 70
     1
102
RTVSPropertyOp4
 70
     1
102
RTVSPropertyOp5
 70
     1
102
RTVSPropertyOp6
 70
     1
102
RTVSPropertyOp7
 70
     1
102
RTVSPropertyOp8
 70
     1
102
RTVSPropertyOp9
 70
     1
102
RTVSPropertyOp10
 70
     1
102
RTVSPropertyOp11
 70
     1
102
RTVSPropertyOp12
 70
     1
102
RTVSPropertyOp13
 70
     1
102
RTVSPropertyOp14
 70
     1
102
RTVSPropertyOp15
 70
     1
102
RTVSPropertyOp16
 70
     1
102
RTVSPropertyOp17
 70
     1
102
RTVSPropertyOp18
 70
     1
102
RTVSPropertyOp19
 70
     1
102
RTVSPropertyOp20
 70
     1
102
RTVSPropertyOp21
 70
     1
102
RTVSPropertyOp22
 70
     1
102
RTVSPropertyOp23
 70
     1
102
RTVSPropertyOp24
 70
     1
102
RTVSPropertyOp25
 70
     1
102
RTVSPropertyOp26
 70
     1
102
RTVSPropertyOp27
 70
     1
102
RTVSPropertyOp28
 70
     1
102
RTVSPropertyOp29
 70
     1
102
RTVSPropertyOp30
 70
     1
102
RTVSPropertyOp31
 70
     1
102
RTVSPropertyOp32
 70
     1
  0
XRECORD
  5
52
102
{ACAD_REACTORS
330
51
102
}
330
51
100
AcDbXrecord
280
     1
102
RTVSPropertyOp0
 70
     1
102
RTVSPropertyOp1
 70
     1
102
RTVSPropertyOp2
 70
     1
102
RTVSPropertyOp3
 70
     1
102
RTVSPropertyOp4
 70
     1
102
RTVSPropertyOp5
 70
     1
102
RTVSPropertyOp6
 70
     1
102
RTVSPropertyOp7
 70
     1
102
RTVSPropertyOp8
 70
     1
102
RTVSPropertyOp9
 70
     1
102
RTVSPropertyOp10
 70
     1
102
RTVSPropertyOp11
 70
     1
102
RTVSPropertyOp12
 70
     1
102
RTVSPropertyOp13
 70
     1
102
RTVSPropertyOp14
 70
     1
102
RTVSPropertyOp15
 70
     1
102
RTVSPropertyOp16
 70
     1
102
RTVSPropertyOp17
 70
     1
102
RTVSPropertyOp18
 70
     1
102
RTVSPropertyOp19
 70
     1
102
RTVSPropertyOp20
 70
     1
102
RTVSPropertyOp21
 70
     1
102
RTVSPropertyOp22
 70
     1
102
RTVSPropertyOp23
 70
     1
102
RTVSPropertyOp24
 70
     1
102
RTVSPropertyOp25
 70
     1
102
RTVSPropertyOp26
 70
     1
102
RTVSPropertyOp27
 70
     1
102
RTVSPropertyOp28
 70
     1
102
RTVSPropertyOp29
 70
     1
102
RTVSPropertyOp30
 70
     1
102
RTVSPropertyOp31
 70
     1
102
RTVSPropertyOp32
 70
     1
  0
XRECORD
  5
5A
102
{ACAD_REACTORS
330
59
102
}
330
59
100
AcDbXrecord
280
     1
102
RTVSPropertyOp0
 70
     1
102
RTVSPropertyOp1
 70
     1
102
RTVSPropertyOp2
 70
     1
102
RTVSPropertyOp3
 70
     1
102
RTVSPropertyOp4
 70
     1
102
RTVSPropertyOp5
 70
     1
102
RTVSPropertyOp6
 70
     1
102
RTVSPropertyOp7
 70
     1
102
RTVSPropertyOp8
 70
     1
102
RTVSPropertyOp9
 70
     1
102
RTVSPropertyOp10
 70
     1
102
RTVSPropertyOp11
 70
     1
102
RTVSPropertyOp12
 70
     1
102
RTVSPropertyOp13
 70
     1
102
RTVSPropertyOp14
 70
     1
102
RTVSPropertyOp15
 70
     1
102
RTVSPropertyOp16
 70
     1
102
RTVSPropertyOp17
 70
     1
102
RTVSPropertyOp18
 70
     1
102
RTVSPropertyOp19
 70
     1
102
RTVSPropertyOp20
 70
     1
102
RTVSPropertyOp21
 70
     1
102
RTVSPropertyOp22
 70
     1
102
RTVSPropertyOp23
 70
     1
102
RTVSPropertyOp24
 70
     1
102
RTVSPropertyOp25
 70
     1
102
RTVSPropertyOp26
 70
     1
102
RTVSPropertyOp27
 70
     1
102
RTVSPropertyOp28
 70
     1
102
RTVSPropertyOp29
 70
     1
102
RTVSPropertyOp30
 70
     1
102
RTVSPropertyOp31
 70
     1
102
RTVSPropertyOp32
 70
     1
  0
XRECORD
  5
62
102
{ACAD_REACTORS
330
61
102
}
330
61
100
AcDbXrecord
280
     1
102
RTVSPropertyOp0
 70
     1
102
RTVSPropertyOp1
 70
     1
102
RTVSPropertyOp2
 70
     1
102
RTVSPropertyOp3
 70
     1
102
RTVSPropertyOp4
 70
     1
102
RTVSPropertyOp5
 70
     1
102
RTVSPropertyOp6
 70
     1
102
RTVSPropertyOp7
 70
     1
102
RTVSPropertyOp8
 70
     1
102
RTVSPropertyOp9
 70
     1
102
RTVSPropertyOp10
 70
     1
102
RTVSPropertyOp11
 70
     1
102
RTVSPropertyOp12
 70
     1
102
RTVSPropertyOp13
 70
     1
102
RTVSPropertyOp14
 70
     1
102
RTVSPropertyOp15
 70
     1
102
RTVSPropertyOp16
 70
     1
102
RTVSPropertyOp17
 70
     1
102
RTVSPropertyOp18
 70
     1
102
RTVSPropertyOp19
 70
     1
102
RTVSPropertyOp20
 70
     1
102
RTVSPropertyOp21
 70
     1
102
RTVSPropertyOp22
 70
     1
102
RTVSPropertyOp23
 70
     1
102
RTVSPropertyOp24
 70
     1
102
RTVSPropertyOp25
 70
     1
102
RTVSPropertyOp26
 70
     1
102
RTVSPropertyOp27
 70
     1
102
RTVSPropertyOp28
 70
     1
102
RTVSPropertyOp29
 70
     1
102
RTVSPropertyOp30
 70
     1
102
RTVSPropertyOp31
 70
     1
102
RTVSPropertyOp32
 70
     1
  0
XRECORD
  5
56
102
{ACAD_REACTORS
330
55
102
}
330
55
100
AcDbXrecord
280
     1
102
RTVSPropertyOp0
 70
     1
102
RTVSPropertyOp1
 70
     1
102
RTVSPropertyOp2
 70
     1
102
RTVSPropertyOp3
 70
     1
102
RTVSPropertyOp4
 70
     1
102
RTVSPropertyOp5
 70
     1
102
RTVSPropertyOp6
 70
     1
102
RTVSPropertyOp7
 70
     1
102
RTVSPropertyOp8
 70
     1
102
RTVSPropertyOp9
 70
     1
102
RTVSPropertyOp10
 70
     1
102
RTVSPropertyOp11
 70
     1
102
RTVSPropertyOp12
 70
     1
102
RTVSPropertyOp13
 70
     1
102
RTVSPropertyOp14
 70
     1
102
RTVSPropertyOp15
 70
     1
102
RTVSPropertyOp16
 70
     1
102
RTVSPropertyOp17
 70
     1
102
RTVSPropertyOp18
 70
     1
102
RTVSPropertyOp19
 70
     1
102
RTVSPropertyOp20
 70
     1
102
RTVSPropertyOp21
 70
     1
102
RTVSPropertyOp22
 70
     1
102
RTVSPropertyOp23
 70
     1
102
RTVSPropertyOp24
 70
     1
102
RTVSPropertyOp25
 70
     1
102
RTVSPropertyOp26
 70
     1
102
RTVSPropertyOp27
 70
     1
102
RTVSPropertyOp28
 70
     1
102
RTVSPropertyOp29
 70
     1
102
RTVSPropertyOp30
 70
     1
102
RTVSPropertyOp31
 70
     1
102
RTVSPropertyOp32
 70
     1
  0
XRECORD
  5
58
102
{ACAD_REACTORS
330
57
102
}
330
57
100
AcDbXrecord
280
     1
102
RTVSPropertyOp0
 70
     1
102
RTVSPropertyOp1
 70
     1
102
RTVSPropertyOp2
 70
     1
102
RTVSPropertyOp3
 70
     1
102
RTVSPropertyOp4
 70
     1
102
RTVSPropertyOp5
 70
     1
102
RTVSPropertyOp6
 70
     1
102
RTVSPropertyOp7
 70
     1
102
RTVSPropertyOp8
 70
     1
102
RTVSPropertyOp9
 70
     1
102
RTVSPropertyOp10
 70
     1
102
RTVSPropertyOp11
 70
     1
102
RTVSPropertyOp12
 70
     1
102
RTVSPropertyOp13
 70
     1
102
RTVSPropertyOp14
 70
     1
102
RTVSPropertyOp15
 70
     1
102
RTVSPropertyOp16
 70
     1
102
RTVSPropertyOp17
 70
     1
102
RTVSPropertyOp18
 70
     1
102
RTVSPropertyOp19
 70
     1
102
RTVSPropertyOp20
 70
     1
102
RTVSPropertyOp21
 70
     1
102
RTVSPropertyOp22
 70
     1
102
RTVSPropertyOp23
 70
     1
102
RTVSPropertyOp24
 70
     1
102
RTVSPropertyOp25
 70
     1
102
RTVSPropertyOp26
 70
     1
102
RTVSPropertyOp27
 70
     1
102
RTVSPropertyOp28
 70
     1
102
RTVSPropertyOp29
 70
     1
102
RTVSPropertyOp30
 70
     1
102
RTVSPropertyOp31
 70
     1
102
RTVSPropertyOp32
 70
     1
  0
XRECORD
  5
60
102
{ACAD_REACTORS
330
5F
102
}
330
5F
100
AcDbXrecord
280
     1
102
RTVSPropertyOp0
 70
     1
102
RTVSPropertyOp1
 70
     1
102
RTVSPropertyOp2
 70
     1
102
RTVSPropertyOp3
 70
     1
102
RTVSPropertyOp4
 70
     1
102
RTVSPropertyOp5
 70
     1
102
RTVSPropertyOp6
 70
     1
102
RTVSPropertyOp7
 70
     1
102
RTVSPropertyOp8
 70
     1
102
RTVSPropertyOp9
 70
     1
102
RTVSPropertyOp10
 70
     1
102
RTVSPropertyOp11
 70
     1
102
RTVSPropertyOp12
 70
     1
102
RTVSPropertyOp13
 70
     1
102
RTVSPropertyOp14
 70
     1
102
RTVSPropertyOp15
 70
     1
102
RTVSPropertyOp16
 70
     1
102
RTVSPropertyOp17
 70
     1
102
RTVSPropertyOp18
 70
     1
102
RTVSPropertyOp19
 70
     1
102
RTVSPropertyOp20
 70
     1
102
RTVSPropertyOp21
 70
     1
102
RTVSPropertyOp22
 70
     1
102
RTVSPropertyOp23
 70
     1
102
RTVSPropertyOp24
 70
     1
102
RTVSPropertyOp25
 70
     1
102
RTVSPropertyOp26
 70
     1
102
RTVSPropertyOp27
 70
     1
102
RTVSPropertyOp28
 70
     1
102
RTVSPropertyOp29
 70
     1
102
RTVSPropertyOp30
 70
     1
102
RTVSPropertyOp31
 70
     1
102
RTVSPropertyOp32
 70
     1
  0
XRECORD
  5
44
102
{ACAD_REACTORS
330
43
102
}
330
43
100
AcDbXrecord
280
     1
102
RTVSPropertyOp0
 70
     1
102
RTVSPropertyOp1
 70
     1
102
RTVSPropertyOp2
 70
     1
102
RTVSPropertyOp3
 70
     1
102
RTVSPropertyOp4
 70
     1
102
RTVSPropertyOp5
 70
     1
102
RTVSPropertyOp6
 70
     1
102
RTVSPropertyOp7
 70
     1
102
RTVSPropertyOp8
 70
     1
102
RTVSPropertyOp9
 70
     1
102
RTVSPropertyOp10
 70
     1
102
RTVSPropertyOp11
 70
     1
102
RTVSPropertyOp12
 70
     1
102
RTVSPropertyOp13
 70
     1
102
RTVSPropertyOp14
 70
     1
102
RTVSPropertyOp15
 70
     1
102
RTVSPropertyOp16
 70
     1
102
RTVSPropertyOp17
 70
     1
102
RTVSPropertyOp18
 70
     1
102
RTVSPropertyOp19
 70
     1
102
RTVSPropertyOp20
 70
     1
102
RTVSPropertyOp21
 70
     1
102
RTVSPropertyOp22
 70
     1
102
RTVSPropertyOp23
 70
     1
102
RTVSPropertyOp24
 70
     1
102
RTVSPropertyOp25
 70
     1
102
RTVSPropertyOp26
 70
     1
102
RTVSPropertyOp27
 70
     1
102
RTVSPropertyOp28
 70
     1
102
RTVSPropertyOp29
 70
     1
102
RTVSPropertyOp30
 70
     1
102
RTVSPropertyOp31
 70
     1
102
RTVSPropertyOp32
 70
     1
  0
XRECORD
  5
46
102
{ACAD_REACTORS
330
45
102
}
330
45
100
AcDbXrecord
280
     1
102
RTVSPropertyOp0
 70
     1
102
RTVSPropertyOp1
 70
     1
102
RTVSPropertyOp2
 70
     1
102
RTVSPropertyOp3
 70
     1
102
RTVSPropertyOp4
 70
     1
102
RTVSPropertyOp5
 70
     1
102
RTVSPropertyOp6
 70
     1
102
RTVSPropertyOp7
 70
     1
102
RTVSPropertyOp8
 70
     1
102
RTVSPropertyOp9
 70
     1
102
RTVSPropertyOp10
 70
     1
102
RTVSPropertyOp11
 70
     1
102
RTVSPropertyOp12
 70
     1
102
RTVSPropertyOp13
 70
     1
102
RTVSPropertyOp14
 70
     1
102
RTVSPropertyOp15
 70
     1
102
RTVSPropertyOp16
 70
     1
102
RTVSPropertyOp17
 70
     1
102
RTVSPropertyOp18
 70
     1
102
RTVSPropertyOp19
 70
     1
102
RTVSPropertyOp20
 70
     1
102
RTVSPropertyOp21
 70
     1
102
RTVSPropertyOp22
 70
     1
102
RTVSPropertyOp23
 70
     1
102
RTVSPropertyOp24
 70
     1
102
RTVSPropertyOp25
 70
     1
102
RTVSPropertyOp26
 70
     1
102
RTVSPropertyOp27
 70
     1
102
RTVSPropertyOp28
 70
     1
102
RTVSPropertyOp29
 70
     1
102
RTVSPropertyOp30
 70
     1
102
RTVSPropertyOp31
 70
     1
102
RTVSPropertyOp32
 70
     1
  0
XRECORD
  5
48
102
{ACAD_REACTORS
330
47
102
}
330
47
100
AcDbXrecord
280
     1
102
RTVSPropertyOp0
 70
     1
102
RTVSPropertyOp1
 70
     1
102
RTVSPropertyOp2
 70
     1
102
RTVSPropertyOp3
 70
     1
102
RTVSPropertyOp4
 70
     1
102
RTVSPropertyOp5
 70
     1
102
RTVSPropertyOp6
 70
     1
102
RTVSPropertyOp7
 70
     1
102
RTVSPropertyOp8
 70
     1
102
RTVSPropertyOp9
 70
     1
102
RTVSPropertyOp10
 70
     1
102
RTVSPropertyOp11
 70
     1
102
RTVSPropertyOp12
 70
     1
102
RTVSPropertyOp13
 70
     1
102
RTVSPropertyOp14
 70
     1
102
RTVSPropertyOp15
 70
     1
102
RTVSPropertyOp16
 70
     1
102
RTVSPropertyOp17
 70
     1
102
RTVSPropertyOp18
 70
     1
102
RTVSPropertyOp19
 70
     1
102
RTVSPropertyOp20
 70
     1
102
RTVSPropertyOp21
 70
     1
102
RTVSPropertyOp22
 70
     1
102
RTVSPropertyOp23
 70
     1
102
RTVSPropertyOp24
 70
     1
102
RTVSPropertyOp25
 70
     1
102
RTVSPropertyOp26
 70
     1
102
RTVSPropertyOp27
 70
     1
102
RTVSPropertyOp28
 70
     1
102
RTVSPropertyOp29
 70
     1
102
RTVSPropertyOp30
 70
     1
102
RTVSPropertyOp31
 70
     1
102
RTVSPropertyOp32
 70
     1
  0
XRECORD
  5
4A
102
{ACAD_REACTORS
330
49
102
}
330
49
100
AcDbXrecord
280
     1
102
RTVSPropertyOp0
 70
     1
102
RTVSPropertyOp1
 70
     1
102
RTVSPropertyOp2
 70
     1
102
RTVSPropertyOp3
 70
     1
102
RTVSPropertyOp4
 70
     1
102
RTVSPropertyOp5
 70
     1
102
RTVSPropertyOp6
 70
     1
102
RTVSPropertyOp7
 70
     1
102
RTVSPropertyOp8
 70
     1
102
RTVSPropertyOp9
 70
     1
102
RTVSPropertyOp10
 70
     1
102
RTVSPropertyOp11
 70
     1
102
RTVSPropertyOp12
 70
     1
102
RTVSPropertyOp13
 70
     1
102
RTVSPropertyOp14
 70
     1
102
RTVSPropertyOp15
 70
     1
102
RTVSPropertyOp16
 70
     1
102
RTVSPropertyOp17
 70
     1
102
RTVSPropertyOp18
 70
     1
102
RTVSPropertyOp19
 70
     1
102
RTVSPropertyOp20
 70
     1
102
RTVSPropertyOp21
 70
     1
102
RTVSPropertyOp22
 70
     1
102
RTVSPropertyOp23
 70
     1
102
RTVSPropertyOp24
 70
     1
102
RTVSPropertyOp25
 70
     1
102
RTVSPropertyOp26
 70
     1
102
RTVSPropertyOp27
 70
     1
102
RTVSPropertyOp28
 70
     1
102
RTVSPropertyOp29
 70
     1
102
RTVSPropertyOp30
 70
     1
102
RTVSPropertyOp31
 70
     1
102
RTVSPropertyOp32
 70
     1
  0
XRECORD
  5
5E
102
{ACAD_REACTORS
330
5D
102
}
330
5D
100
AcDbXrecord
280
     1
102
RTVSPropertyOp0
 70
     1
102
RTVSPropertyOp1
 70
     1
102
RTVSPropertyOp2
 70
     1
102
RTVSPropertyOp3
 70
     1
102
RTVSPropertyOp4
 70
     1
102
RTVSPropertyOp5
 70
     1
102
RTVSPropertyOp6
 70
     1
102
RTVSPropertyOp7
 70
     1
102
RTVSPropertyOp8
 70
     1
102
RTVSPropertyOp9
 70
     1
102
RTVSPropertyOp10
 70
     1
102
RTVSPropertyOp11
 70
     1
102
RTVSPropertyOp12
 70
     1
102
RTVSPropertyOp13
 70
     1
102
RTVSPropertyOp14
 70
     1
102
RTVSPropertyOp15
 70
     1
102
RTVSPropertyOp16
 70
     1
102
RTVSPropertyOp17
 70
     1
102
RTVSPropertyOp18
 70
     1
102
RTVSPropertyOp19
 70
     1
102
RTVSPropertyOp20
 70
     1
102
RTVSPropertyOp21
 70
     1
102
RTVSPropertyOp22
 70
     1
102
RTVSPropertyOp23
 70
     1
102
RTVSPropertyOp24
 70
     1
102
RTVSPropertyOp25
 70
     1
102
RTVSPropertyOp26
 70
     1
102
RTVSPropertyOp27
 70
     1
102
RTVSPropertyOp28
 70
     1
102
RTVSPropertyOp29
 70
     1
102
RTVSPropertyOp30
 70
     1
102
RTVSPropertyOp31
 70
     1
102
RTVSPropertyOp32
 70
     1
  0
XRECORD
  5
54
102
{ACAD_REACTORS
330
53
102
}
330
53
100
AcDbXrecord
280
     1
102
RTVSPropertyOp0
 70
     1
102
RTVSPropertyOp1
 70
     1
102
RTVSPropertyOp2
 70
     1
102
RTVSPropertyOp3
 70
     1
102
RTVSPropertyOp4
 70
     1
102
RTVSPropertyOp5
 70
     1
102
RTVSPropertyOp6
 70
     1
102
RTVSPropertyOp7
 70
     1
102
RTVSPropertyOp8
 70
     1
102
RTVSPropertyOp9
 70
     1
102
RTVSPropertyOp10
 70
     1
102
RTVSPropertyOp11
 70
     1
102
RTVSPropertyOp12
 70
     1
102
RTVSPropertyOp13
 70
     1
102
RTVSPropertyOp14
 70
     1
102
RTVSPropertyOp15
 70
     1
102
RTVSPropertyOp16
 70
     1
102
RTVSPropertyOp17
 70
     1
102
RTVSPropertyOp18
 70
     1
102
RTVSPropertyOp19
 70
     1
102
RTVSPropertyOp20
 70
     1
102
RTVSPropertyOp21
 70
     1
102
RTVSPropertyOp22
 70
     1
102
RTVSPropertyOp23
 70
     1
102
RTVSPropertyOp24
 70
     1
102
RTVSPropertyOp25
 70
     1
102
RTVSPropertyOp26
 70
     1
102
RTVSPropertyOp27
 70
     1
102
RTVSPropertyOp28
 70
     1
102
RTVSPropertyOp29
 70
     1
102
RTVSPropertyOp30
 70
     1
102
RTVSPropertyOp31
 70
     1
102
RTVSPropertyOp32
 70
     1
  0
XRECORD
  5
5C
102
{ACAD_REACTORS
330
5B
102
}
330
5B
100
AcDbXrecord
280
     1
102
RTVSPropertyOp0
 70
     1
102
RTVSPropertyOp1
 70
     1
102
RTVSPropertyOp2
 70
     1
102
RTVSPropertyOp3
 70
     1
102
RTVSPropertyOp4
 70
     1
102
RTVSPropertyOp5
 70
     1
102
RTVSPropertyOp6
 70
     1
102
RTVSPropertyOp7
 70
     1
102
RTVSPropertyOp8
 70
     1
102
RTVSPropertyOp9
 70
     1
102
RTVSPropertyOp10
 70
     1
102
RTVSPropertyOp11
 70
     1
102
RTVSPropertyOp12
 70
     1
102
RTVSPropertyOp13
 70
     1
102
RTVSPropertyOp14
 70
     1
102
RTVSPropertyOp15
 70
     1
102
RTVSPropertyOp16
 70
     1
102
RTVSPropertyOp17
 70
     1
102
RTVSPropertyOp18
 70
     1
102
RTVSPropertyOp19
 70
     1
102
RTVSPropertyOp20
 70
     1
102
RTVSPropertyOp21
 70
     1
102
RTVSPropertyOp22
 70
     1
102
RTVSPropertyOp23
 70
     1
102
RTVSPropertyOp24
 70
     1
102
RTVSPropertyOp25
 70
     1
102
RTVSPropertyOp26
 70
     1
102
RTVSPropertyOp27
 70
     1
102
RTVSPropertyOp28
 70
     1
102
RTVSPropertyOp29
 70
     1
102
RTVSPropertyOp30
 70
     1
102
RTVSPropertyOp31
 70
     1
102
RTVSPropertyOp32
 70
     1
  0
ENDSEC
  0
EOF
