  0
SECTION
  2
HEADER
  9
$ACADVER
  1
AC1021
  9
$ACADMAINTVER
 70
    25
  9
$DWGCODEPAGE
  3
ANSI_1252
  9
$INSBASE
 10
0.0
 20
0.0
 30
0.0
  9
$EXTMIN
 10
1.000000000000000E+20
 20
1.000000000000000E+20
 30
1.000000000000000E+20
  9
$EXTMAX
 10
-1.000000000000000E+20
 20
-1.000000000000000E+20
 30
-1.000000000000000E+20
  9
$LIMMIN
 10
0.0
 20
0.0
  9
$LIMMAX
 10
12.0
 20
9.0
  9
$ORTHOMODE
 70
     0
  9
$REGENMODE
 70
     1
  9
$FILLMODE
 70
     1
  9
$QTEXTMODE
 70
     0
  9
$MIRRTEXT
 70
     1
  9
$LTSCALE
 40
1.0
  9
$ATTMODE
 70
     1
  9
$TEXTSIZE
 40
0.2
  9
$TRACEWID
 40
0.05
  9
$TEXTSTYLE
  7
Standard
  9
$CLAYER
  8
0
  9
$CELTYPE
  6
ByLayer
  9
$CECOLOR
 62
   256
  9
$CELTSCALE
 40
1.0
  9
$DISPSILH
 70
     0
  9
$DIMSCALE
 40
1.0
  9
$DIMASZ
 40
0.18
  9
$DIMEXO
 40
0.0625
  9
$DIMDLI
 40
0.38
  9
$DIMRND
 40
0.0
  9
$DIMDLE
 40
0.0
  9
$DIMEXE
 40
0.18
  9
$DIMTP
 40
0.0
  9
$DIMTM
 40
0.0
  9
$DIMTXT
 40
0.18
  9
$DIMCEN
 40
0.09
  9
$DIMTSZ
 40
0.0
  9
$DIMTOL
 70
     0
  9
$DIMLIM
 70
     0
  9
$DIMTIH
 70
     1
  9
$DIMTOH
 70
     1
  9
$DIMSE1
 70
     0
  9
$DIMSE2
 70
     0
  9
$DIMTAD
 70
     0
  9
$DIMZIN
 70
     0
  9
$DIMBLK
  1

  9
$DIMASO
 70
     1
  9
$DIMSHO
 70
     1
  9
$DIMPOST
  1

  9
$DIMAPOST
  1

  9
$DIMALT
 70
     0
  9
$DIMALTD
 70
     2
  9
$DIMALTF
 40
25.4
  9
$DIMLFAC
 40
1.0
  9
$DIMTOFL
 70
     0
  9
$DIMTVP
 40
0.0
  9
$DIMTIX
 70
     0
  9
$DIMSOXD
 70
     0
  9
$DIMSAH
 70
     0
  9
$DIMBLK1
  1

  9
$DIMBLK2
  1

  9
$DIMSTYLE
  2
Standard
  9
$DIMCLRD
 70
     0
  9
$DIMCLRE
 70
     0
  9
$DIMCLRT
 70
     0
  9
$DIMTFAC
 40
1.0
  9
$DIMGAP
 40
0.09
  9
$DIMJUST
 70
     0
  9
$DIMSD1
 70
     0
  9
$DIMSD2
 70
     0
  9
$DIMTOLJ
 70
     1
  9
$DIMTZIN
 70
     0
  9
$DIMALTZ
 70
     0
  9
$DIMALTTZ
 70
     0
  9
$DIMUPT
 70
     0
  9
$DIMDEC
 70
     4
  9
$DIMTDEC
 70
     4
  9
$DIMALTU
 70
     2
  9
$DIMALTTD
 70
     2
  9
$DIMTXSTY
  7
Standard
  9
$DIMAUNIT
 70
     0
  9
$DIMADEC
 70
     0
  9
$DIMALTRND
 40
0.0
  9
$DIMAZIN
 70
     0
  9
$DIMDSEP
 70
    46
  9
$DIMATFIT
 70
     3
  9
$DIMFRAC
 70
     0
  9
$DIMLDRBLK
  1

  9
$DIMLUNIT
 70
     2
  9
$DIMLWD
 70
    -2
  9
$DIMLWE
 70
    -2
  9
$DIMTMOVE
 70
     0
  9
$DIMFXL
 40
1.0
  9
$DIMFXLON
 70
     0
  9
$DIMJOGANG
 40
0.7853981633974483
  9
$DIMTFILL
 70
     0
  9
$DIMTFILLCLR
 70
     0
  9
$DIMARCSYM
 70
     0
  9
$DIMLTYPE
  6

  9
$DIMLTEX1
  6

  9
$DIMLTEX2
  6

  9
$LUNITS
 70
     2
  9
$LUPREC
 70
     4
  9
$SKETCHINC
 40
0.1
  9
$FILLETRAD
 40
0.5
  9
$AUNITS
 70
     0
  9
$AUPREC
 70
     0
  9
$MENU
  1
.
  9
$ELEVATION
 40
0.0
  9
$PELEVATION
 40
0.0
  9
$THICKNESS
 40
0.0
  9
$LIMCHECK
 70
     0
  9
$CHAMFERA
 40
0.5
  9
$CHAMFERB
 40
0.5
  9
$CHAMFERC
 40
1.0
  9
$CHAMFERD
 40
0.0
  9
$SKPOLY
 70
     0
  9
$TDCREATE
 40
2458551.626474896
  9
$TDUCREATE
 40
2458551.334808229
  9
$TDUPDATE
 40
2458551.626474896
  9
$TDUUPDATE
 40
2458551.334808229
  9
$TDINDWG
 40
0.0000000116
  9
$TDUSRTIMER
 40
0.0000000116
  9
$USRTIMER
 70
     1
  9
$ANGBASE
 50
0.0
  9
$ANGDIR
 70
     0
  9
$PDMODE
 70
     0
  9
$PDSIZE
 40
0.0
  9
$PLINEWID
 40
0.0
  9
$SPLFRAME
 70
     0
  9
$SPLINETYPE
 70
     6
  9
$SPLINESEGS
 70
     8
  9
$HANDSEED
  5
65
  9
$SURFTAB1
 70
     6
  9
$SURFTAB2
 70
     6
  9
$SURFTYPE
 70
     6
  9
$SURFU
 70
     6
  9
$SURFV
 70
     6
  9
$UCSBASE
  2

  9
$UCSNAME
  2

  9
$UCSORG
 10
0.0
 20
0.0
 30
0.0
  9
$UCSXDIR
 10
1.0
 20
0.0
 30
0.0
  9
$UCSYDIR
 10
0.0
 20
1.0
 30
0.0
  9
$UCSORTHOREF
  2

  9
$UCSORTHOVIEW
 70
     0
  9
$UCSORGTOP
 10
0.0
 20
0.0
 30
0.0
  9
$UCSORGBOTTOM
 10
0.0
 20
0.0
 30
0.0
  9
$UCSORGLEFT
 10
0.0
 20
0.0
 30
0.0
  9
$UCSORGRIGHT
 10
0.0
 20
0.0
 30
0.0
  9
$UCSORGFRONT
 10
0.0
 20
0.0
 30
0.0
  9
$UCSORGBACK
 10
0.0
 20
0.0
 30
0.0
  9
$PUCSBASE
  2

  9
$PUCSNAME
  2

  9
$PUCSORG
 10
0.0
 20
0.0
 30
0.0
  9
$PUCSXDIR
 10
1.0
 20
0.0
 30
0.0
  9
$PUCSYDIR
 10
0.0
 20
1.0
 30
0.0
  9
$PUCSORTHOREF
  2

  9
$PUCSORTHOVIEW
 70
     0
  9
$PUCSORGTOP
 10
0.0
 20
0.0
 30
0.0
  9
$PUCSORGBOTTOM
 10
0.0
 20
0.0
 30
0.0
  9
$PUCSORGLEFT
 10
0.0
 20
0.0
 30
0.0
  9
$PUCSORGRIGHT
 10
0.0
 20
0.0
 30
0.0
  9
$PUCSORGFRONT
 10
0.0
 20
0.0
 30
0.0
  9
$PUCSORGBACK
 10
0.0
 20
0.0
 30
0.0
  9
$USERI1
 70
     0
  9
$USERI2
 70
     0
  9
$USERI3
 70
     0
  9
$USERI4
 70
     0
  9
$USERI5
 70
     0
  9
$USERR1
 40
0.0
  9
$USERR2
 40
0.0
  9
$USERR3
 40
0.0
  9
$USERR4
 40
0.0
  9
$USERR5
 40
0.0
  9
$WORLDVIEW
 70
     1
  9
$SHADEDGE
 70
     3
  9
$SHADEDIF
 70
    70
  9
$TILEMODE
 70
     1
  9
$MAXACTVP
 70
    64
  9
$PINSBASE
 10
0.0
 20
0.0
 30
0.0
  9
$PLIMCHECK
 70
     0
  9
$PEXTMIN
 10
1.000000000000000E+20
 20
1.000000000000000E+20
 30
1.000000000000000E+20
  9
$PEXTMAX
 10
-1.000000000000000E+20
 20
-1.000000000000000E+20
 30
-1.000000000000000E+20
  9
$PLIMMIN
 10
0.0
 20
0.0
  9
$PLIMMAX
 10
12.0
 20
9.0
  9
$UNITMODE
 70
     0
  9
$VISRETAIN
 70
     1
  9
$PLINEGEN
 70
     0
  9
$PSLTSCALE
 70
     1
  9
$TREEDEPTH
 70
  3020
  9
$CMLSTYLE
  2
Standard
  9
$CMLJUST
 70
     0
  9
$CMLSCALE
 40
1.0
  9
$PROXYGRAPHICS
 70
     1
  9
$MEASUREMENT
 70
     0
  9
$CELWEIGHT
370
    -1
  9
$ENDCAPS
280
     0
  9
$JOINSTYLE
280
     0
  9
$LWDISPLAY
290
     1
  9
$INSUNITS
 70
     1
  9
$HYPERLINKBASE
  1

  9
$STYLESHEET
  1

  9
$XEDIT
290
     1
  9
$CEPSNTYPE
380
     0
  9
$PSTYLEMODE
290
     1
  9
$FINGERPRINTGUID
  2
{11CF11D7-1F49-4074-90CA-36496C87E2D7}
  9
$VERSIONGUID
  2
{FAEB1C32-E019-11D5-929B-00C0DF256EC4}
  9
$EXTNAMES
290
     1
  9
$PSVPSCALE
 40
0.0
  9
$OLESTARTUP
290
     0
  9
$SORTENTS
280
   127
  9
$INDEXCTL
280
     0
  9
$HIDETEXT
280
     1
  9
$XCLIPFRAME
290
     0
  9
$HALOGAP
280
     0
  9
$OBSCOLOR
 70
   257
  9
$OBSLTYPE
280
     0
  9
$INTERSECTIONDISPLAY
280
     0
  9
$INTERSECTIONCOLOR
 70
   257
  9
$DIMASSOC
280
     2
  9
$PROJECTNAME
  1

  9
$CAMERADISPLAY
290
     0
  9
$LENSLENGTH
 40
50.0
  9
$CAMERAHEIGHT
 40
0.0
  9
$STEPSPERSEC
 40
2.0
  9
$STEPSIZE
 40
6.0
  9
$3DDWFPREC
 40
2.0
  9
$PSOLWIDTH
 40
0.25
  9
$PSOLHEIGHT
 40
4.0
  9
$LOFTANG1
 40
1.570796326794897
  9
$LOFTANG2
 40
1.570796326794897
  9
$LOFTMAG1
 40
0.0
  9
$LOFTMAG2
 40
0.0
  9
$LOFTPARAM
 70
     7
  9
$LOFTNORMALS
280
     1
  9
$LATITUDE
 40
37.795
  9
$LONGITUDE
 40
-122.394
  9
$NORTHDIRECTION
 40
0.0
  9
$TIMEZONE
 70
 -8000
  9
$LIGHTGLYPHDISPLAY
280
     1
  9
$TILEMODELIGHTSYNCH
280
     1
  9
$CMATERIAL
347
3C
  9
$SOLIDHIST
280
     1
  9
$SHOWHIST
280
     1
  9
$DWFFRAME
280
     2
  9
$DGNFRAME
280
     2
  9
$REALWORLDSCALE
290
     1
  9
$INTERFERECOLOR
 62
   256
  9
$CSHADOW
280
     0
  9
$SHADOWPLANELOCATION
 40
0.0
  0
ENDSEC
  0
SECTION
  2
CLASSES
  0
CLASS
  1
ACDBDICTIONARYWDFLT
  2
AcDbDictionaryWithDefault
  3
ObjectDBX Classes
 90
        0
 91
        4
280
     0
281
     0
  0
CLASS
  1
VISUALSTYLE
  2
AcDbVisualStyle
  3
ObjectDBX Classes
 90
     4095
 91
        4
280
     0
281
     0
  0
CLASS
  1
MATERIAL
  2
AcDbMaterial
  3
ObjectDBX Classes
 90
     1153
 91
        4
280
     0
281
     0
  0
CLASS
  1
SUN
  2
AcDbSun
  3
SCENEOE
 90
     1024
 91
        4
280
     0
281
     0
  0
ENDSEC
  0
SECTION
  2
TABLES
  0
TABLE
  2
VPORT
  5
8
330
0
100
AcDbSymbolTable
 70
     1
  0
VPORT
  5
29
330
8
100
AcDbSymbolTableRecord
100
AcDbViewportTableRecord
  2
*Active
 70
     0
 10
0.0
 20
0.0
 11
1.0
 21
1.0
 12
0.0
 22
0.0
 13
0.0
 23
0.0
 14
0.5
 24
0.5
 15
0.5
 25
0.5
 16
0.0
 26
0.0
 36
1.0
 17
39.99961911841359
 27
-39.99962012888904
 37
0.0
 40
79.99924025777808
 41
0.9999999747378738
 42
50.0
 43
0.0
 44
0.0
 50
0.0
 51
0.0
 71
     0
 72
   100
 73
     1
 74
     3
 75
     0
 76
     0
 77
     0
 78
     0
281
     0
 65
     1
110
0.0
120
0.0
130
0.0
111
1.0
121
0.0
131
0.0
112
0.0
122
1.0
132
0.0
 79
     0
146
0.0
 60
     3
 61
     5
292
     1
282
     1
141
0.0
142
0.0
 63
   250
361
3F
  0
ENDTAB
  0
TABLE
  2
LTYPE
  5
5
330
0
100
AcDbSymbolTable
 70
     1
  0
LTYPE
  5
14
330
5
100
AcDbSymbolTableRecord
100
AcDbLinetypeTableRecord
  2
ByBlock
 70
     0
  3

 72
    65
 73
     0
 40
0.0
  0
LTYPE
  5
15
330
5
100
AcDbSymbolTableRecord
100
AcDbLinetypeTableRecord
  2
ByLayer
 70
     0
  3

 72
    65
 73
     0
 40
0.0
  0
LTYPE
  5
16
330
5
100
AcDbSymbolTableRecord
100
AcDbLinetypeTableRecord
  2
Continuous
 70
     0
  3
Solid line
 72
    65
 73
     0
 40
0.0
  0
ENDTAB
  0
TABLE
  2
LAYER
  5
2
330
0
100
AcDbSymbolTable
 70
     2
  0
LAYER
  5
10
330
2
100
AcDbSymbolTableRecord
100
AcDbLayerTableRecord
  2
0
 70
     0
 62
     7
  6
Continuous
370
    -3
390
F
347
3E
  0
LAYER
  5
40
330
2
100
AcDbSymbolTableRecord
100
AcDbLayerTableRecord
  2
Layer 1
 70
     0
 62
     7
  6
Continuous
370
    -3
390
F
347
3E
  0
ENDTAB
  0
TABLE
  2
STYLE
  5
3
330
0
100
AcDbSymbolTable
 70
     1
  0
STYLE
  5
11
330
3
100
AcDbSymbolTableRecord
100
AcDbTextStyleTableRecord
  2
Standard
 70
     0
 40
0.0
 41
1.0
 50
0.0
 71
     0
 42
0.2
  3
txt
  4

  0
ENDTAB
  0
TABLE
  2
VIEW
  5
6
330
0
100
AcDbSymbolTable
 70
     0
  0
ENDTAB
  0
TABLE
  2
UCS
  5
7
330
0
100
AcDbSymbolTable
 70
     0
  0
ENDTAB
  0
TABLE
  2
APPID
  5
9
330
0
100
AcDbSymbolTable
 70
     1
  0
APPID
  5
12
330
9
100
AcDbSymbolTableRecord
100
AcDbRegAppTableRecord
  2
ACAD
 70
     0
  0
ENDTAB
  0
TABLE
  2
DIMSTYLE
  5
A
330
0
100
AcDbSymbolTable
 70
     1
100
AcDbDimStyleTable
  0
DIMSTYLE
105
27
330
A
100
AcDbSymbolTableRecord
100
AcDbDimStyleTableRecord
  2
Standard
 70
     0
178
     0
340
11
  0
ENDTAB
  0
TABLE
  2
BLOCK_RECORD
  5
1
330
0
100
AcDbSymbolTable
 70
     1
  0
BLOCK_RECORD
  5
1F
330
1
100
AcDbSymbolTableRecord
100
AcDbBlockTableRecord
  2
*Model_Space
340
22
 70
     0
280
     1
281
     0
  0
BLOCK_RECORD
  5
1B
330
1
100
AcDbSymbolTableRecord
100
AcDbBlockTableRecord
  2
*Paper_Space
340
1E
 70
     0
280
     1
281
     0
  0
BLOCK_RECORD
  5
23
330
1
100
AcDbSymbolTableRecord
100
AcDbBlockTableRecord
  2
*Paper_Space0
340
26
 70
     0
280
     1
281
     0
  0
ENDTAB
  0
ENDSEC
  0
SECTION
  2
BLOCKS
  0
BLOCK
  5
20
330
1F
100
AcDbEntity
  8
0
100
AcDbBlockBegin
  2
*Model_Space
 70
     0
 10
0.0
 20
0.0
 30
0.0
  3
*Model_Space
  1

  0
ENDBLK
  5
21
330
1F
100
AcDbEntity
  8
0
100
AcDbBlockEnd
  0
BLOCK
  5
1C
330
1B
100
AcDbEntity
 67
     1
  8
0
100
AcDbBlockBegin
  2
*Paper_Space
 70
     0
 10
0.0
 20
0.0
 30
0.0
  3
*Paper_Space
  1

  0
ENDBLK
  5
1D
330
1B
100
AcDbEntity
 67
     1
  8
0
100
AcDbBlockEnd
  0
BLOCK
  5
24
330
23
100
AcDbEntity
  8
0
100
AcDbBlockBegin
  2
*Paper_Space0
 70
     0
 10
0.0
 20
0.0
 30
0.0
  3
*Paper_Space0
  1

  0
ENDBLK
  5
25
330
23
100
AcDbEntity
  8
0
100
AcDbBlockEnd
  0
ENDSEC
  0
SECTION
  2
ENTITIES
  0
SPLINE
  5
41
330
1F
100
AcDbEntity
  8
Layer 1
370
     0
100
AcDbSpline
210
0.0
220
0.0
230
1.0
 70
    11
 71
     3
 72
   662
 73
   658
 74
     0
 42
0.0000000001
 43
0.0000000001
 12
1.0
 22
0.0
 32
0.0
 13
1.0
 23
0.0
 33
0.0
 40
0.0
 40
0.0
 40
0.0
 40
0.0
 40
1.0
 40
1.0
 40
1.0
 40
2.0
 40
2.0
 40
2.0
 40
3.0
 40
3.0
 40
3.0
 40
4.0
 40
4.0
 40
4.0
 40
5.0
 40
5.0
 40
5.0
 40
6.0
 40
6.0
 40
6.0
 40
7.0
 40
7.0
 40
7.0
 40
8.0
 40
8.0
 40
8.0
 40
9.0
 40
9.0
 40
9.0
 40
10.0
 40
10.0
 40
10.0
 40
11.0
 40
11.0
 40
11.0
 40
12.0
 40
12.0
 40
12.0
 40
13.0
 40
13.0
 40
13.0
 40
14.0
 40
14.0
 40
14.0
 40
15.0
 40
15.0
 40
15.0
 40
16.0
 40
16.0
 40
16.0
 40
17.0
 40
17.0
 40
17.0
 40
18.0
 40
18.0
 40
18.0
 40
19.0
 40
19.0
 40
19.0
 40
20.0
 40
20.0
 40
20.0
 40
21.0
 40
21.0
 40
21.0
 40
22.0
 40
22.0
 40
22.0
 40
23.0
 40
23.0
 40
23.0
 40
24.0
 40
24.0
 40
24.0
 40
25.0
 40
25.0
 40
25.0
 40
26.0
 40
26.0
 40
26.0
 40
27.0
 40
27.0
 40
27.0
 40
28.0
 40
28.0
 40
28.0
 40
29.0
 40
29.0
 40
29.0
 40
30.0
 40
30.0
 40
30.0
 40
31.0
 40
31.0
 40
31.0
 40
32.0
 40
32.0
 40
32.0
 40
33.0
 40
33.0
 40
33.0
 40
34.0
 40
34.0
 40
34.0
 40
35.0
 40
35.0
 40
35.0
 40
36.0
 40
36.0
 40
36.0
 40
37.0
 40
37.0
 40
37.0
 40
38.0
 40
38.0
 40
38.0
 40
39.0
 40
39.0
 40
39.0
 40
40.0
 40
40.0
 40
40.0
 40
41.0
 40
41.0
 40
41.0
 40
42.0
 40
42.0
 40
42.0
 40
43.0
 40
43.0
 40
43.0
 40
44.0
 40
44.0
 40
44.0
 40
45.0
 40
45.0
 40
45.0
 40
46.0
 40
46.0
 40
46.0
 40
47.0
 40
47.0
 40
47.0
 40
48.0
 40
48.0
 40
48.0
 40
49.0
 40
49.0
 40
49.0
 40
50.0
 40
50.0
 40
50.0
 40
51.0
 40
51.0
 40
51.0
 40
52.0
 40
52.0
 40
52.0
 40
53.0
 40
53.0
 40
53.0
 40
54.0
 40
54.0
 40
54.0
 40
55.0
 40
55.0
 40
55.0
 40
56.0
 40
56.0
 40
56.0
 40
57.0
 40
57.0
 40
57.0
 40
58.0
 40
58.0
 40
58.0
 40
59.0
 40
59.0
 40
59.0
 40
60.0
 40
60.0
 40
60.0
 40
61.0
 40
61.0
 40
61.0
 40
62.0
 40
62.0
 40
62.0
 40
63.0
 40
63.0
 40
63.0
 40
64.0
 40
64.0
 40
64.0
 40
65.0
 40
65.0
 40
65.0
 40
66.0
 40
66.0
 40
66.0
 40
67.0
 40
67.0
 40
67.0
 40
68.0
 40
68.0
 40
68.0
 40
69.0
 40
69.0
 40
69.0
 40
70.0
 40
70.0
 40
70.0
 40
71.0
 40
71.0
 40
71.0
 40
72.0
 40
72.0
 40
72.0
 40
73.0
 40
73.0
 40
73.0
 40
74.0
 40
74.0
 40
74.0
 40
75.0
 40
75.0
 40
75.0
 40
76.0
 40
76.0
 40
76.0
 40
77.0
 40
77.0
 40
77.0
 40
78.0
 40
78.0
 40
78.0
 40
79.0
 40
79.0
 40
79.0
 40
80.0
 40
80.0
 40
80.0
 40
81.0
 40
81.0
 40
81.0
 40
82.0
 40
82.0
 40
82.0
 40
83.0
 40
83.0
 40
83.0
 40
84.0
 40
84.0
 40
84.0
 40
85.0
 40
85.0
 40
85.0
 40
86.0
 40
86.0
 40
86.0
 40
87.0
 40
87.0
 40
87.0
 40
88.0
 40
88.0
 40
88.0
 40
89.0
 40
89.0
 40
89.0
 40
90.0
 40
90.0
 40
90.0
 40
91.0
 40
91.0
 40
91.0
 40
92.0
 40
92.0
 40
92.0
 40
93.0
 40
93.0
 40
93.0
 40
94.0
 40
94.0
 40
94.0
 40
95.0
 40
95.0
 40
95.0
 40
96.0
 40
96.0
 40
96.0
 40
97.0
 40
97.0
 40
97.0
 40
98.0
 40
98.0
 40
98.0
 40
99.0
 40
99.0
 40
99.0
 40
100.0
 40
100.0
 40
100.0
 40
101.0
 40
101.0
 40
101.0
 40
102.0
 40
102.0
 40
102.0
 40
103.0
 40
103.0
 40
103.0
 40
104.0
 40
104.0
 40
104.0
 40
105.0
 40
105.0
 40
105.0
 40
106.0
 40
106.0
 40
106.0
 40
107.0
 40
107.0
 40
107.0
 40
108.0
 40
108.0
 40
108.0
 40
109.0
 40
109.0
 40
109.0
 40
110.0
 40
110.0
 40
110.0
 40
111.0
 40
111.0
 40
111.0
 40
112.0
 40
112.0
 40
112.0
 40
113.0
 40
113.0
 40
113.0
 40
114.0
 40
114.0
 40
114.0
 40
115.0
 40
115.0
 40
115.0
 40
116.0
 40
116.0
 40
116.0
 40
117.0
 40
117.0
 40
117.0
 40
118.0
 40
118.0
 40
118.0
 40
119.0
 40
119.0
 40
119.0
 40
120.0
 40
120.0
 40
120.0
 40
121.0
 40
121.0
 40
121.0
 40
122.0
 40
122.0
 40
122.0
 40
123.0
 40
123.0
 40
123.0
 40
124.0
 40
124.0
 40
124.0
 40
125.0
 40
125.0
 40
125.0
 40
126.0
 40
126.0
 40
126.0
 40
127.0
 40
127.0
 40
127.0
 40
128.0
 40
128.0
 40
128.0
 40
129.0
 40
129.0
 40
129.0
 40
130.0
 40
130.0
 40
130.0
 40
131.0
 40
131.0
 40
131.0
 40
132.0
 40
132.0
 40
132.0
 40
133.0
 40
133.0
 40
133.0
 40
134.0
 40
134.0
 40
134.0
 40
135.0
 40
135.0
 40
135.0
 40
136.0
 40
136.0
 40
136.0
 40
137.0
 40
137.0
 40
137.0
 40
138.0
 40
138.0
 40
138.0
 40
139.0
 40
139.0
 40
139.0
 40
140.0
 40
140.0
 40
140.0
 40
141.0
 40
141.0
 40
141.0
 40
142.0
 40
142.0
 40
142.0
 40
143.0
 40
143.0
 40
143.0
 40
144.0
 40
144.0
 40
144.0
 40
145.0
 40
145.0
 40
145.0
 40
146.0
 40
146.0
 40
146.0
 40
147.0
 40
147.0
 40
147.0
 40
148.0
 40
148.0
 40
148.0
 40
149.0
 40
149.0
 40
149.0
 40
150.0
 40
150.0
 40
150.0
 40
151.0
 40
151.0
 40
151.0
 40
152.0
 40
152.0
 40
152.0
 40
153.0
 40
153.0
 40
153.0
 40
154.0
 40
154.0
 40
154.0
 40
155.0
 40
155.0
 40
155.0
 40
156.0
 40
156.0
 40
156.0
 40
157.0
 40
157.0
 40
157.0
 40
158.0
 40
158.0
 40
158.0
 40
159.0
 40
159.0
 40
159.0
 40
160.0
 40
160.0
 40
160.0
 40
161.0
 40
161.0
 40
161.0
 40
162.0
 40
162.0
 40
162.0
 40
163.0
 40
163.0
 40
163.0
 40
164.0
 40
164.0
 40
164.0
 40
165.0
 40
165.0
 40
165.0
 40
166.0
 40
166.0
 40
166.0
 40
167.0
 40
167.0
 40
167.0
 40
168.0
 40
168.0
 40
168.0
 40
169.0
 40
169.0
 40
169.0
 40
170.0
 40
170.0
 40
170.0
 40
171.0
 40
171.0
 40
171.0
 40
172.0
 40
172.0
 40
172.0
 40
173.0
 40
173.0
 40
173.0
 40
174.0
 40
174.0
 40
174.0
 40
175.0
 40
175.0
 40
175.0
 40
176.0
 40
176.0
 40
176.0
 40
177.0
 40
177.0
 40
177.0
 40
178.0
 40
178.0
 40
178.0
 40
179.0
 40
179.0
 40
179.0
 40
180.0
 40
180.0
 40
180.0
 40
181.0
 40
181.0
 40
181.0
 40
182.0
 40
182.0
 40
182.0
 40
183.0
 40
183.0
 40
183.0
 40
184.0
 40
184.0
 40
184.0
 40
185.0
 40
185.0
 40
185.0
 40
186.0
 40
186.0
 40
186.0
 40
187.0
 40
187.0
 40
187.0
 40
188.0
 40
188.0
 40
188.0
 40
189.0
 40
189.0
 40
189.0
 40
190.0
 40
190.0
 40
190.0
 40
191.0
 40
191.0
 40
191.0
 40
192.0
 40
192.0
 40
192.0
 40
193.0
 40
193.0
 40
193.0
 40
194.0
 40
194.0
 40
194.0
 40
195.0
 40
195.0
 40
195.0
 40
196.0
 40
196.0
 40
196.0
 40
197.0
 40
197.0
 40
197.0
 40
198.0
 40
198.0
 40
198.0
 40
199.0
 40
199.0
 40
199.0
 40
200.0
 40
200.0
 40
200.0
 40
201.0
 40
201.0
 40
201.0
 40
202.0
 40
202.0
 40
202.0
 40
203.0
 40
203.0
 40
203.0
 40
204.0
 40
204.0
 40
204.0
 40
205.0
 40
205.0
 40
205.0
 40
206.0
 40
206.0
 40
206.0
 40
207.0
 40
207.0
 40
207.0
 40
208.0
 40
208.0
 40
208.0
 40
209.0
 40
209.0
 40
209.0
 40
210.0
 40
210.0
 40
210.0
 40
211.0
 40
211.0
 40
211.0
 40
212.0
 40
212.0
 40
212.0
 40
213.0
 40
213.0
 40
213.0
 40
214.0
 40
214.0
 40
214.0
 40
215.0
 40
215.0
 40
215.0
 40
216.0
 40
216.0
 40
216.0
 40
217.0
 40
217.0
 40
217.0
 40
218.0
 40
218.0
 40
218.0
 40
219.0
 40
219.0
 40
219.0
 40
219.0
 10
66.50548858108141
 20
-35.83657776881858
 30
0.0
 10
65.94979303970283
 20
-35.63401276886921
 30
0.0
 10
65.66421943587731
 20
-35.11070221344445
 30
0.0
 10
65.23287805799285
 20
-34.80960638018634
 30
0.0
 10
64.94797473192801
 20
-34.61392054690204
 30
0.0
 10
64.6162225181695
 20
-34.65145610244809
 30
0.0
 10
64.24069058330566
 20
-34.52674915803509
 30
0.0
 10
63.72323615206258
 20
-34.279381380319
 30
0.0
 10
63.20338283199182
 20
-34.03134332482555
 30
0.0
 10
62.68419978968172
 20
-33.78432832488723
 30
0.0
 10
60.62609428663281
 20
-33.19522471392344
 30
0.0
 10
58.23246184769946
 20
-34.03134332482555
 30
0.0
 10
55.96177246118513
 20
-33.57209721382919
 30
0.0
 10
54.85419137833077
 20
-33.3009874916747
 30
0.0
 10
53.74625751770763
 20
-33.02881943618724
 30
0.0
 10
52.6376194312853
 20
-32.75767443625491
 30
0.0
 10
52.2820886661728
 20
-32.6777702696083
 30
0.0
 10
51.93241665368325
 20
-32.62333665851075
 30
0.0
 10
51.58341229510862
 20
-32.57613499185602
 30
0.0
 10
51.77945090121838
 20
-32.37494582523954
 30
0.0
 10
51.95961450773313
 20
-32.16066860307093
 30
0.0
 10
52.09984367082225
 20
-31.91845138090926
 30
0.0
 10
51.77634645685313
 20
-31.78167943649893
 30
0.0
 10
51.76601006822795
 20
-31.46576693657804
 30
0.0
 10
51.31745313522714
 20
-31.4034311032603
 30
0.0
 10
51.35534146759387
 20
-31.20464082553215
 30
0.0
 10
51.39566396656515
 20
-31.00655610335952
 30
0.0
 10
51.43595118775956
 20
-30.80706027007616
 30
0.0
 10
51.18653730523375
 20
-30.72920221453981
 30
0.0
 10
50.93574758940971
 20
-30.6492980478932
 30
0.0
 10
50.68562815134634
 20
-30.57143999235716
 30
0.0
 10
51.11453536262623
 20
-30.05948888137389
 30
0.0
 10
51.14035869530075
 20
-29.57889971482745
 30
0.0
 10
51.49246618631774
 20
-29.15034527049023
 30
0.0
 10
51.27681313626395
 20
-29.00838749274796
 30
0.0
 10
51.00393953211443
 20
-28.94157138165349
 30
0.0
 10
50.54712759932423
 20
-28.98150582608787
 30
0.0
 10
50.54712759932423
 20
-28.98150582608787
 30
0.0
 10
50.41931621369608
 20
-28.42753888178212
 30
0.0
 10
50.41931621369608
 20
-28.42753888178212
 30
0.0
 10
50.0386337234081
 20
-28.24356527071674
 30
0.0
 10
49.65724567758257
 20
-28.44891721511004
 30
0.0
 10
49.30344485327544
 20
-28.63320832617502
 30
0.0
 10
48.99649291666199
 20
-28.4664855484389
 30
0.0
 10
48.94103625141015
 20
-28.18225249295444
 30
0.0
 10
48.71331943226581
 20
-27.96726971523032
 30
0.0
 10
48.16933609906866
 20
-28.38206582623772
 30
0.0
 10
47.62499998809376
 20
-28.79583888169
 30
0.0
 10
47.08066387711884
 20
-29.21338665936318
 30
0.0
 10
46.51293742446722
 20
-29.61163749259716
 30
0.0
 10
45.94655271669468
 20
-30.01024110360859
 30
0.0
 10
45.37949773116145
 20
-30.40986777017546
 30
0.0
 10
45.40017050841182
 20
-29.98819249250299
 30
0.0
 10
45.41015411926823
 20
-29.57477221482847
 30
0.0
 10
45.45597995143245
 20
-29.22026582602824
 30
0.0
 10
45.53726109972692
 20
-28.5767286039669
 30
0.0
 10
45.80907522020202
 20
-27.67615749308111
 30
0.0
 10
45.66817577935222
 20
-26.7794316599719
 30
0.0
 10
45.61032022527268
 20
-26.28434332676229
 30
0.0
 10
45.54897217128224
 20
-25.78861999355283
 30
0.0
 10
45.49178689496338
 20
-25.29183832701041
 30
0.0
 10
45.57860550385956
 20
-23.48864999412796
 30
0.0
 10
45.91762493965491
 20
-21.90598305007901
 30
0.0
 10
46.19804798805627
 20
-20.30606527270112
 30
0.0
 10
46.24489687574994
 20
-19.39762721737267
 30
0.0
 10
46.29245131898117
 20
-18.48880110648893
 30
0.0
 10
46.34067603997308
 20
-17.57997499560487
 30
0.0
 10
46.36547631711815
 20
-16.90888582910607
 30
0.0
 10
46.38752492766675
 20
-16.23500971816334
 30
0.0
 10
46.41024381597604
 20
-15.56494360721998
 30
0.0
 10
46.45779825920727
 20
-15.21043721841975
 30
0.0
 10
46.50327131360271
 20
-14.85698916295249
 30
0.0
 10
46.55220276613999
 20
-14.50248277415226
 30
0.0
 10
46.38752492766675
 20
-13.57058499660748
 30
0.0
 10
46.22214270966379
 20
-12.63900471906262
 30
0.0
 10
46.05609021390014
 20
-11.70745971929529
 30
0.0
 10
45.63236883582128
 20
-10.11858388635928
 30
0.0
 10
45.09801634945375
 20
-8.51972444231467
 30
0.0
 10
44.64120554439506
 20
-7.037634442685043
 30
0.0
 10
44.54923525234321
 20
-6.63765499834073
 30
0.0
 10
44.45412636588075
 20
-6.234923887330008
 30
0.0
 10
44.36109998890959
 20
-5.835649998541219
 30
0.0
 10
44.13994248500736
 20
-5.308882220894851
 30
0.0
 10
43.57218194393658
 20
-5.326133054224114
 30
0.0
 10
43.29832056203448
 20
-4.914088609882477
 30
0.0
 10
43.20148306450501
 20
-4.514814721093368
 30
0.0
 10
43.10711501135699
 20
-4.113106665638409
 30
0.0
 10
43.01408751373032
 20
-3.713797499071459
 30
0.0
 10
42.80048057473544
 20
-3.683846665745672
 30
0.0
 10
42.77017696439744
 20
-3.691078610188499
 30
0.0
 10
42.62479724588416
 20
-3.782024721276664
 30
0.0
 10
42.6702703002796
 20
-3.581858610215627
 30
0.0
 10
42.71884779904028
 20
-3.381360888043597
 30
0.0
 10
42.76569668673396
 20
-3.182235471426764
 30
0.0
 10
42.82390501858227
 20
-2.899392360386263
 30
0.0
 10
42.63100613461464
 20
-2.811197915963867
 30
0.0
 10
42.44840836149532
 20
-3.076469165897497
 30
0.0
 10
42.36607003026262
 20
-3.182235471426764
 30
0.0
 10
42.28098003243345
 20
-3.28903188806653
 30
0.0
 10
42.20174721167193
 20
-3.392039471374332
 30
0.0
 10
42.0384453163988
 20
-3.35414408249482
 30
0.0
 10
41.85722337657771
 20
-3.403063776927131
 30
0.0
 10
41.70496449157327
 20
-3.464732860244879
 30
0.0
 10
41.61228977171537
 20
-3.749992499062469
 30
0.0
 10
41.46034838670283
 20
-3.893996387915305
 30
0.0
 10
41.42383588763435
 20
-4.243316943383596
 30
0.0
 10
41.34043922309531
 20
-4.194739443395662
 30
0.0
 10
41.25707783633315
 20
-4.148243332296135
 30
0.0
 10
41.17473950510043
 20
-4.100688887863645
 30
0.0
 10
41.34043922309531
 20
-3.95118166567895
 30
0.0
 10
41.43346672072198
 20
-3.881931387918301
 30
0.0
 10
41.3866178330283
 20
-3.605988610209633
 30
0.0
 10
41.36248887854813
 20
-3.594629165768153
 30
0.0
 10
41.34043922309531
 20
-3.581858610215627
 30
0.0
 10
41.31839165633693
 20
-3.571169443551509
 30
0.0
 10
40.7086142392145
 20
-3.701767776852297
 30
0.0
 10
40.57907424251935
 20
-3.947406943457737
 30
0.0
 10
40.35827063704141
 20
-4.454172221108752
 30
0.0
 10
40.69415035069462
 20
-6.433361387280399
 30
0.0
 10
42.69196613305942
 20
-5.995493609612271
 30
0.0
 10
43.08538390080028
 20
-7.356298609272024
 30
0.0
 10
43.29832056203448
 20
-8.369511664574132
 30
0.0
 10
43.50878887801181
 20
-9.384453330987206
 30
0.0
 10
43.72341777341157
 20
-10.39900694184468
 30
0.0
 10
43.78028554973853
 20
-11.35295333049506
 30
0.0
 10
43.84022249265386
 20
-12.3093338858116
 30
0.0
 10
43.89670221343516
 20
-13.26500888557262
 30
0.0
 10
43.99248137765829
 20
-13.79897332988366
 30
0.0
 10
44.46343969897648
 20
-15.17702916287235
 30
0.0
 10
44.32321053588736
 20
-15.67035360719348
 30
0.0
 10
44.15303054022901
 20
-16.26016277371279
 30
0.0
 10
43.80988360453897
 20
-16.81652860690686
 30
0.0
 10
43.65141583080405
 20
-17.61613471781805
 30
0.0
 10
43.5797666659653
 20
-18.21698582877924
 30
0.0
 10
43.50878887801181
 20
-18.81815443974003
 30
0.0
 10
43.43816166957795
 20
-19.42034610625595
 30
0.0
 10
43.43816166957795
 20
-19.42034610625595
 30
0.0
 10
43.43816166957795
 20
-20.62370638373298
 30
0.0
 10
43.43816166957795
 20
-20.62370638373298
 30
0.0
 10
43.20148306450501
 20
-20.96547749475852
 30
0.0
 10
42.96688584826786
 20
-21.30791888356207
 30
0.0
 10
42.73020832265078
 20
-21.64863166125465
 30
0.0
 10
42.40431114039811
 20
-22.28151499442971
 30
0.0
 10
42.21483420078764
 20
-23.22477221641597
 30
0.0
 10
42.02327587234136
 20
-23.94824888290176
 30
0.0
 10
42.02327587234136
 20
-23.94824888290176
 30
0.0
 10
41.88272920926034
 20
-23.94824888290176
 30
0.0
 10
41.88272920926034
 20
-23.94824888290176
 30
0.0
 10
41.38972227739355
 20
-23.77665777183363
 30
0.0
 10
41.0748328409826
 20
-23.64644749408844
 30
0.0
 10
40.85536979102601
 20
-23.20582804975422
 30
0.0
 10
41.12651478410853
 20
-23.33603832749941
 30
0.0
 10
41.33151394554523
 20
-23.41975249414507
 30
0.0
 10
41.70496449157327
 20
-23.52378666078568
 30
0.0
 10
41.71251393582511
 20
-23.23786027196842
 30
0.0
 10
41.62915254906295
 20
-22.83304777206961
 30
0.0
 10
41.77555532310568
 20
-22.71109249432237
 30
0.0
 10
41.70496449157327
 20
-22.56952277213539
 30
0.0
 10
41.63465588225588
 20
-22.42721221661536
 30
0.0
 10
41.56300671741714
 20
-22.28631277220605
 30
0.0
 10
41.72905921318078
 20
-22.39690860551181
 30
0.0
 10
42.13143753624859
 20
-22.55572916102773
 30
0.0
 10
42.30715614287675
 20
-22.56952277213539
 30
0.0
 10
42.28098003243345
 20
-22.53368054992213
 30
0.0
 10
42.25787308857851
 20
-22.49889666104185
 30
0.0
 10
42.23617725579868
 20
-22.46340721660636
 30
0.0
 10
41.9240394859842
 20
-22.39278110551283
 30
0.0
 10
41.78899721177509
 20
-21.94697582784667
 30
0.0
 10
41.59884998960017
 20
-21.68412110569014
 30
0.0
 10
41.59884998960017
 20
-21.68412110569014
 30
0.0
 10
42.0949250371801
 20
-20.69330943927107
 30
0.0
 10
42.0949250371801
 20
-20.69330943927107
 30
0.0
 10
42.15831920222945
 20
-20.83523193923549
 30
0.0
 10
42.14731253584359
 20
-20.80767999479804
 30
0.0
 10
42.23617725579868
 20
-20.83523193923549
 30
0.0
 10
42.22446503387526
 20
-20.51004138376153
 30
0.0
 10
42.3161166982037
 20
-20.50245666154094
 30
0.0
 10
42.34056419757999
 20
-20.05665138387479
 30
0.0
 10
42.53660280368975
 20
-20.10903888386177
 30
0.0
 10
42.52005752633407
 20
-20.17518471717857
 30
0.0
 10
42.59170669117282
 20
-20.16347249495901
 30
0.0
 10
42.63650946780758
 20
-20.15172499496193
 30
0.0
 10
42.68335835550126
 20
-20.13898971718756
 30
0.0
 10
42.73020832265078
 20
-20.12798305052352
 30
0.0
 10
42.73020832265078
 20
-20.12798305052352
 30
0.0
 10
42.73020832265078
 20
-19.63324749509167
 30
0.0
 10
42.73020832265078
 20
-19.63324749509167
 30
0.0
 10
42.89005085022809
 20
-19.58985582843599
 30
0.0
 10
42.84665918466843
 20
-19.63084860620334
 30
0.0
 10
42.90761918311321
 20
-19.491677772905
 30
0.0
 10
42.54281169242023
 20
-18.89050916194389
 30
0.0
 10
42.17691059064403
 20
-18.28761193987245
 30
0.0
 10
41.80966893334648
 20
-17.68676082891158
 30
0.0
 10
41.90509531980084
 20
-17.76909916222435
 30
0.0
 10
42.0002042062633
 20
-17.85316610664777
 30
0.0
 10
42.0949250371801
 20
-17.93310555107222
 30
0.0
 10
42.0949250371801
 20
-17.93310555107222
 30
0.0
 10
42.0949250371801
 20
-17.90001499552506
 30
0.0
 10
42.0949250371801
 20
-17.90001499552506
 30
0.0
 10
41.88272920926034
 20
-17.61613471781805
 30
0.0
 10
41.6684167147279
 20
-17.333983051222
 30
0.0
 10
41.45794949787515
 20
-17.05013805129314
 30
0.0
 10
41.45794949787515
 20
-17.05013805129314
 30
0.0
 10
41.49202783033907
 20
-17.05013805129314
 30
0.0
 10
41.49202783033907
 20
-17.05013805129314
 30
0.0
 10
41.64499227088107
 20
-17.15173805126758
 30
0.0
 10
41.72905921318078
 20
-17.21894221791734
 30
0.0
 10
41.98743365103355
 20
-17.22582138458241
 30
0.0
 10
41.9419605966381
 20
-17.06114471795686
 30
0.0
 10
41.89613476447389
 20
-16.89579777355395
 30
0.0
 10
41.84688698795252
 20
-16.7311211069284
 30
0.0
 10
41.77111032321908
 20
-16.69630194027027
 30
0.0
 10
41.69737976954455
 20
-16.66116527361255
 30
0.0
 10
41.62121504926545
 20
-16.62810999584291
 30
0.0
 10
41.53887776739292
 20
-16.4744399958814
 30
0.0
 10
41.08760339621235
 20
-16.22294471816634
 30
0.0
 10
39.93828870331159
 20
-15.8154158293796
 30
0.0
 10
37.27284099353505
 20
-14.86626721850556
 30
0.0
 10
35.45451943558088
 20
-16.12959971818984
 30
0.0
 10
34.67145860244312
 20
-16.87579527355891
 30
0.0
 10
34.5525724913619
 20
-16.96194360687074
 30
0.0
 10
34.44800915805465
 20
-17.07010527351033
 30
0.0
 10
34.3615433247429
 20
-17.19583527347878
 30
0.0
 10
34.27751165809731
 20
-17.29231999567697
 30
0.0
 10
34.23150943588659
 20
-17.35465582899471
 30
0.0
 10
34.23150943588659
 20
-17.35465582899471
 30
0.0
 10
34.23150943588659
 20
-17.35465582899471
 30
0.0
 10
34.26562304698919
 20
-17.35123388455094
 30
0.0
 10
34.26562304698919
 20
-17.35123388455094
 30
0.0
 10
34.23838860255165
 20
-17.40118721787208
 30
0.0
 10
34.22117304700023
 20
-17.46077138452373
 30
0.0
 10
34.19810138033951
 20
-17.51658082895417
 30
0.0
 10
33.95641332484416
 20
-17.91895916218681
 30
0.0
 10
33.81449082487973
 20
-18.30105277320266
 30
0.0
 10
33.74058388045379
 20
-18.57078666202395
 30
0.0
 10
33.62018082492832
 20
-18.97006055081306
 30
0.0
 10
33.5528355471672
 20
-19.44137166180642
 30
0.0
 10
33.7503911026735
 20
-19.75382693950602
 30
0.0
 10
33.7698644360019
 20
-19.83203777281982
 30
0.0
 10
33.79776915821711
 20
-19.90714416168977
 30
0.0
 10
33.83653943598534
 20
-19.97328999500657
 30
0.0
 10
33.93418832484969
 20
-20.14071832829821
 30
0.0
 10
34.05374471370891
 20
-20.28574527270649
 30
0.0
 10
34.18705943589763
 20
-20.39909277267801
 30
0.0
 10
34.26975054698816
 20
-20.47144749488219
 30
0.0
 10
34.37431388029542
 20
-20.53829888375419
 30
0.0
 10
34.47316221360377
 20
-20.58169055041019
 30
0.0
 10
34.51694193581537
 20
-20.60063471707193
 30
0.0
 10
34.58428721357617
 20
-20.60649082818156
 30
0.0
 10
34.62319860245543
 20
-20.63577138372998
 30
0.0
 10
34.66507332466718
 20
-20.66713332816649
 30
0.0
 10
34.67470415799801
 20
-20.7639355503646
 30
0.0
 10
34.70140943576923
 20
-20.82457805034954
 30
0.0
 10
34.74293138020322
 20
-20.90656360588455
 30
0.0
 10
34.86040638017372
 20
-21.08570416139511
 30
0.0
 10
34.87194221350408
 20
-21.16218638359826
 30
0.0
 10
34.8666152690611
 20
-21.16941832804109
 30
0.0
 10
34.86333443572869
 20
-21.17460416137303
 30
0.0
 10
34.86040638017372
 20
-21.17975471692713
 30
0.0
 10
34.81338110240787
 20
-21.21453860580741
 30
0.0
 10
34.70797110243405
 20
-21.27930860579132
 30
0.0
 10
34.63424054689699
 20
-21.27761527245852
 30
0.0
 10
34.59772804690606
 20
-21.27451082801467
 30
0.0
 10
34.53189971358918
 20
-21.24106749468975
 30
0.0
 10
34.49866804693099
 20
-21.26967777246049
 30
0.0
 10
34.50985110248359
 20
-21.33169610577831
 30
0.0
 10
34.68281804688493
 20
-21.39678360576183
 30
0.0
 10
34.74293138020322
 20
-21.39509027242902
 30
0.0
 10
34.80286832463263
 20
-21.39509027242902
 30
0.0
 10
34.86248776906213
 20
-21.37131305021277
 30
0.0
 10
34.91741526904848
 20
-21.34891166132941
 30
0.0
 10
34.92224832460266
 20
-21.35064027244006
 30
0.0
 10
34.9267286023794
 20
-21.35374471688391
 30
0.0
 10
34.93085610237837
 20
-21.35716666132736
 30
0.0
 10
34.92291860238034
 20
-21.4505469390817
 30
0.0
 10
34.87695165794746
 20
-21.5401172168373
 30
0.0
 10
34.84851776906559
 20
-21.62520721681584
 30
0.0
 10
34.82216526907214
 20
-21.69929055013067
 30
0.0
 10
34.81666193574029
 20
-21.77577277233382
 30
0.0
 10
34.78893360241394
 20
-21.84706916120504
 30
0.0
 10
34.74465999131387
 20
-21.95833527228816
 30
0.0
 10
34.69692915799249
 20
-22.07203555003744
 30
0.0
 10
34.65473693578083
 20
-22.18503027223153
 30
0.0
 10
34.63180638023082
 20
-22.2480716611048
 30
0.0
 10
34.52311554692491
 20
-22.43550249439114
 30
0.0
 10
34.58358165802065
 20
-22.5192166610368
 30
0.0
 10
34.62718499134336
 20
-22.58225804991007
 30
0.0
 10
34.6976347135477
 20
-22.63358721656378
 30
0.0
 10
34.76600304686394
 20
-22.65563582766937
 30
0.0
 10
34.91102999127222
 20
-22.70834082765628
 30
0.0
 10
34.993368324585
 20
-22.60053193879446
 30
0.0
 10
35.09189915789375
 20
-22.7682777720857
 30
0.0
 10
35.15910332454351
 20
-22.87922638316921
 30
0.0
 10
35.01802749124565
 20
-22.94777110537402
 30
0.0
 10
35.00680915791489
 20
-23.02979193868687
 30
0.0
 10
35.00112943569415
 20
-23.07766388311961
 30
0.0
 10
35.03714804679628
 20
-23.14447999421376
 30
0.0
 10
35.05919665790187
 20
-23.16963304976321
 30
0.0
 10
35.16150221343184
 20
-23.30263027195201
 30
0.0
 10
35.33305715413417
 20
-23.27885304973577
 30
0.0
 10
35.52980131578148
 20
-23.24717360529933
 30
0.0
 10
35.52980131578148
 20
-23.24717360529933
 30
0.0
 10
35.53135353796409
 20
-23.25818027196337
 30
0.0
 10
35.53135353796409
 20
-23.25818027196337
 30
0.0
 10
35.53220020460916
 20
-23.25990888307402
 30
0.0
 10
35.53135353796409
 20
-23.26336610529531
 30
0.0
 10
35.53135353796409
 20
-23.26541221640588
 30
0.0
 10
35.48637437244494
 20
-23.29127082751053
 30
0.0
 10
35.45123770667469
 20
-23.32640749416825
 30
0.0
 10
35.42453332447726
 20
-23.3615441608263
 30
0.0
 10
35.39906187467247
 20
-23.3935763830405
 30
0.0
 10
35.38163465289485
 20
-23.41975249414507
 30
0.0
 10
35.36494826443167
 20
-23.45351332746991
 30
0.0
 10
35.33721993180575
 20
-23.50554804967914
 30
0.0
 10
35.38699687498028
 20
-23.60097443854436
 30
0.0
 10
35.42262742962682
 20
-23.63438249409144
 30
0.0
 10
35.5454646487152
 20
-23.74049804962046
 30
0.0
 10
35.70738964458415
 20
-23.62612749409349
 30
0.0
 10
35.82641686376974
 20
-23.79905916071699
 30
0.0
 10
35.89220991764677
 20
-23.89413277180413
 30
0.0
 10
35.85569741857828
 20
-24.03369166065839
 30
0.0
 10
35.86222380730067
 20
-24.12463777174655
 30
0.0
 10
35.86621110214444
 20
-24.17011082729096
 30
0.0
 10
35.92064380581025
 20
-24.29069027170499
 30
0.0
 10
35.96043713812837
 20
-24.3554602716889
 30
0.0
 10
35.96505852689936
 20
-24.35856471613243
 30
0.0
 10
35.96505852689936
 20
-24.36163388279844
 30
0.0
 10
35.9659404713213
 20
-24.36509110501973
 30
0.0
 10
35.97539491552455
 20
-24.37955499390507
 30
0.0
 10
35.98661324857168
 20
-24.39232554945759
 30
0.0
 10
35.98954130405253
 20
-24.39747610501169
 30
0.0
 10
35.99038887989145
 20
-24.39849916056713
 30
0.0
 10
35.99282213730216
 20
-24.39747610501169
 30
0.0
 10
35.99437435948479
 20
-24.39920471612234
 30
0.0
 10
36.03275658072779
 20
-24.43917443833456
 30
0.0
 10
36.09823213461293
 20
-24.47910888276926
 30
0.0
 10
36.19916185426022
 20
-24.49671249387597
 30
0.0
 10
36.32972490648483
 20
-24.52701610497952
 30
0.0
 10
36.50251545763214
 20
-24.50013443831942
 30
0.0
 10
36.67149600887664
 20
-24.42023027167281
 30
0.0
 10
36.67957461978165
 20
-24.41574999389607
 30
0.0
 10
36.68888887971667
 20
-24.41264554945255
 30
0.0
 10
36.69594443527061
 20
-24.40781249389805
 30
0.0
 10
36.80152989444809
 20
-24.40435527167676
 30
0.0
 10
36.90471739181555
 20
-24.40989388278646
 30
0.0
 10
37.00084933380747
 20
-24.44570082722186
 30
0.0
 10
36.97622544554679
 20
-24.47910888276926
 30
0.0
 10
36.95276665742833
 20
-24.5163269383154
 30
0.0
 10
36.92902378008434
 20
-24.54906471608511
 30
0.0
 10
36.68511323075145
 20
-24.63655360495199
 30
0.0
 10
36.38433490509162
 20
-24.80055999379985
 30
0.0
 10
36.09047102369982
 20
-24.99278860486286
 30
0.0
 10
36.03811880281322
 20
-25.03342860485277
 30
0.0
 10
35.98417908196711
 20
-25.0706466603989
 30
0.0
 10
35.92614713900318
 20
-25.10236138261318
 30
0.0
 10
35.60437853610107
 20
-25.32764527144582
 30
0.0
 10
35.30448215486318
 20
-25.57878777138312
 30
0.0
 10
35.12583638010747
 20
-25.78861999355283
 30
0.0
 10
34.89967054683074
 20
-25.7179938824593
 30
0.0
 10
34.6755861024421
 20
-25.6463094380328
 30
0.0
 10
34.45266582472026
 20
-25.57501304916191
 30
0.0
 10
33.50612776940127
 20
-25.37967999365505
 30
0.0
 10
31.87075582536573
 20
-26.30296999342411
 30
0.0
 10
31.37397415882332
 20
-26.67261054888736
 30
0.0
 10
30.86255221450669
 20
-27.05537443768057
 30
0.0
 10
30.49065388126615
 20
-27.57007721532961
 30
0.0
 10
29.85311388142547
 20
-27.84051665970642
 30
0.0
 10
28.96859415942462
 20
-28.14676304851896
 30
0.0
 10
28.08562665964522
 20
-28.45304471510902
 30
0.0
 10
27.19849638208932
 20
-28.76101971503188
 30
0.0
 10
26.82903221551496
 20
-28.93328110387769
 30
0.0
 10
26.48486221560109
 20
-29.17824999270545
 30
0.0
 10
26.03115471571442
 20
-29.29053915934401
 30
0.0
 10
25.38327832698738
 20
-29.31502193711578
 30
0.0
 10
24.73561360492706
 20
-29.3380936037765
 30
0.0
 10
24.08724332731154
 20
-29.36289388154819
 30
0.0
 10
22.89644193872032
 20
-29.56168415927635
 30
0.0
 10
21.70271249457444
 20
-29.76460193700315
 30
0.0
 10
20.51469805042683
 20
-29.96303943695354
 30
0.0
 10
20.51469805042683
 20
-29.96303943695354
 30
0.0
 10
19.13318499521684
 20
-29.96303943695354
 30
0.0
 10
19.13318499521684
 20
-29.96303943695354
 30
0.0
 10
18.44226971761156
 20
-30.07395277025922
 30
0.0
 10
17.43388971786363
 20
-30.22624693688784
 30
0.0
 10
16.69079860693841
 20
-30.03433582582476
 30
0.0
 10
16.34405332924733
 20
-29.94374249251403
 30
0.0
 10
15.07108999623221
 20
-29.36426971488108
 30
0.0
 10
14.74604055186897
 20
-29.46798638152177
 30
0.0
 10
14.27028444087702
 20
-29.61784638148455
 30
0.0
 10
13.4200194410895
 20
-30.0970597146981
 30
0.0
 10
13.2250391633604
 20
-30.56385527013689
 30
0.0
 10
13.26052860779589
 20
-30.83154304784761
 30
0.0
 10
13.09412333005969
 20
-31.32144554772529
 30
0.0
 10
13.2250391633604
 20
-31.66251110319563
 30
0.0
 10
13.35595499666111
 20
-32.00357665866565
 30
0.0
 10
13.40192194109399
 20
-31.66251110319563
 30
0.0
 10
13.40192194109399
 20
-31.66251110319563
 30
0.0
 10
13.51287055217719
 20
-31.49437721434879
 30
0.0
 10
13.55248749661197
 20
-31.12607721444059
 30
0.0
 10
13.68477916324557
 20
-30.95385110337261
 30
0.0
 10
13.70855638546181
 20
-30.96485777003665
 30
0.0
 10
13.73162805212253
 20
-30.97692277003365
 30
0.0
 10
13.75350027433925
 20
-30.9893405478081
 30
0.0
 10
13.87616110764201
 20
-31.39101332548553
 30
0.0
 10
13.71956305212553
 20
-31.92226138090832
 30
0.0
 10
13.93352277429454
 20
-32.3704655474628
 30
0.0
 10
13.93352277429454
 20
-32.3704655474628
 30
0.0
 10
14.16625027423609
 20
-32.74218749181446
 30
0.0
 10
14.21549805200171
 20
-31.94395721423616
 30
0.0
 10
14.22840971866527
 20
-31.73451304762204
 30
0.0
 10
15.09260944067117
 20
-31.30938054772828
 30
0.0
 10
15.31447138506036
 20
-31.27113943662671
 30
0.0
 10
15.89757777380349
 20
-31.17500749220628
 30
0.0
 10
16.33354055147209
 20
-31.67902110319121
 30
0.0
 10
17.01172055130268
 20
-31.66251110319563
 30
0.0
 10
17.18842694014739
 20
-31.61358082542993
 30
0.0
 10
17.36534499565851
 20
-31.56673193655265
 30
0.0
 10
17.54035805117041
 20
-31.51988304767568
 30
0.0
 10
18.29413832875975
 20
-31.33968415883183
 30
0.0
 10
19.15784416187717
 20
-31.65524388097496
 30
0.0
 10
19.770019439502
 20
-31.76756832539136
 30
0.0
 10
20.64215666150624
 20
-31.82648221426566
 30
0.0
 10
21.51549332795449
 20
-31.88641915869507
 30
0.0
 10
22.38692499440321
 20
-31.94395721423616
 30
0.0
 10
24.97091638264614
 20
-32.37494582523954
 30
0.0
 10
27.63156638198111
 20
-31.23804888107923
 30
0.0
 10
29.46488193707824
 20
-30.70577777010132
 30
0.0
 10
30.39402804795693
 20
-30.43741971461292
 30
0.0
 10
31.18206304775991
 20
-30.15353943690591
 30
0.0
 10
31.97598943645035
 20
-29.75045554811806
 30
0.0
 10
32.35254443635618
 20
-29.55064221483446
 30
0.0
 10
32.73118082515042
 20
-29.35047610377343
 30
0.0
 10
33.10840610283392
 20
-29.14963971493471
 30
0.0
 10
33.4012469360941
 20
-29.07248721495419
 30
0.0
 10
33.71765332490379
 20
-29.17616860381704
 30
0.0
 10
33.88663388041719
 20
-29.3260286037795
 30
0.0
 10
34.73898026909313
 20
-30.08672332581175
 30
0.0
 10
35.88564825114751
 20
-34.17019665812397
 30
0.0
 10
35.656060479227
 20
-35.26984026896031
 30
0.0
 10
35.6241693689295
 20
-35.41800693558996
 30
0.0
 10
35.72700408852819
 20
-35.65087554664287
 30
0.0
 10
35.81657436402084
 20
-35.92614804657418
 30
0.0
 10
35.74785325466295
 20
-35.98573221322583
 30
0.0
 10
35.67017158997811
 20
-36.04189443543403
 30
0.0
 10
35.57439242575497
 20
-36.08736749097812
 30
0.0
 10
35.57439242575497
 20
-36.08736749097812
 30
0.0
 10
32.22042915861147
 20
-37.70622943501775
 30
0.0
 10
32.22042915861147
 20
-37.70622943501775
 30
0.0
 10
32.12930665863442
 20
-37.81820110165671
 30
0.0
 10
31.99976665866659
 20
-37.93394749051657
 30
0.0
 10
31.80150554760509
 20
-38.06623915715016
 30
0.0
 10
31.08233277000715
 20
-38.26259526821215
 30
0.0
 10
30.36129027018753
 20
-38.45828110149645
 30
0.0
 10
29.64056527036751
 20
-38.65396693478107
 30
0.0
 10
28.46595638177226
 20
-39.01055471246971
 30
0.0
 10
27.20488165986558
 20
-39.62033110120588
 30
0.0
 10
26.33930610452617
 20
-40.3289911010289
 30
0.0
 10
26.20390999344904
 20
-40.49229193432157
 30
0.0
 10
26.06904304903824
 20
-40.6562630453916
 30
0.0
 10
25.93262388240567
 20
-40.81991665646138
 30
0.0
 10
25.40465666031562
 20
-41.24159193413417
 30
0.0
 10
24.51202304942754
 20
-41.51203137851066
 30
0.0
 10
24.35768277168835
 20
-42.06391693392864
 30
0.0
 10
24.47032471610467
 20
-42.25374665610332
 30
0.0
 10
24.52218304942502
 20
-42.28373276720662
 30
0.0
 10
24.62297166051106
 20
-42.50076165604132
 30
0.0
 10
24.62297166051106
 20
-42.50076165604132
 30
0.0
 10
24.3053305494792
 20
-42.68096054488517
 30
0.0
 10
24.3053305494792
 20
-42.68096054488517
 30
0.0
 10
24.3053305494792
 20
-42.68096054488517
 30
0.0
 10
24.292559993927
 20
-42.82013137818382
 30
0.0
 10
24.292559993927
 20
-42.82013137818382
 30
0.0
 10
24.28807971615026
 20
-42.98445526703161
 30
0.0
 10
24.46309277166185
 20
-42.9820563781436
 30
0.0
 10
24.55887193830483
 20
-43.09469832255961
 30
0.0
 10
24.69582027160372
 20
-43.39579415581741
 30
0.0
 10
24.83241582712517
 20
-43.69688998907584
 30
0.0
 10
24.96781193820262
 20
-43.99869137788917
 30
0.0
 10
25.3166386047821
 20
-44.12925443341211
 30
0.0
 10
25.86541971575591
 20
-43.88432082236252
 30
0.0
 10
26.22923943788705
 20
-43.55048721133436
 30
0.0
 10
26.42958193783697
 20
-43.7165397112928
 30
0.0
 10
26.61750666001244
 20
-44.030053322326
 30
0.0
 10
26.77269360441788
 20
-44.17405721117883
 30
0.0
 10
26.97201304881267
 20
-44.19197832228514
 30
0.0
 10
27.26122027096235
 20
-44.04314137787812
 30
0.0
 10
27.46741888202189
 20
-44.05587665565249
 30
0.0
 10
27.56884249310777
 20
-44.06173276676243
 30
0.0
 10
27.61794915976202
 20
-44.10480693341851
 30
0.0
 10
27.69185610418829
 20
-44.18781554450833
 30
0.0
 10
27.61555027087402
 20
-44.82172193323915
 30
0.0
 10
28.36139304846533
 20
-45.3536402664393
 30
0.0
 10
28.75209443725657
 20
-45.77154082189055
 30
0.0
 10
29.11863054827596
 20
-45.85352637742525
 30
0.0
 10
29.20354415936562
 20
-45.97858609961666
 30
0.0
 10
29.54273999261428
 20
-45.6323699885919
 30
0.0
 10
29.98318304805962
 20
-45.83147776631965
 30
0.0
 10
31.32557304772426
 20
-46.01717998849568
 30
0.0
 10
31.93552582534933
 20
-45.6323699885919
 30
0.0
 10
32.12930665863442
 20
-45.45735693307999
 30
0.0
 10
32.32255832525255
 20
-45.28301415534609
 30
0.0
 10
32.51686832520397
 20
-45.11008248872258
 30
0.0
 10
33.13595804727171
 20
-45.2654458220169
 30
0.0
 10
33.57005110271862
 20
-46.07746971070317
 30
0.0
 10
34.13244943591119
 20
-46.39853276617816
 30
0.0
 10
34.58358165802065
 20
-46.65556665500292
 30
0.0
 10
35.20955054675313
 20
-46.65761276611317
 30
0.0
 10
35.61644443554034
 20
-47.02520721046616
 30
0.0
 10
35.8794746401939
 20
-46.94495026604147
 30
0.0
 10
35.91528158372483
 20
-46.74788859942397
 30
0.0
 10
36.05395852463133
 20
-46.70583748832366
 30
0.0
 10
36.05395852463133
 20
-46.70583748832366
 30
0.0
 10
36.45273851445761
 20
-46.75441498831128
 30
0.0
 10
36.45273851445761
 20
-46.75441498831128
 30
0.0
 10
36.59070989982655
 20
-46.48330526615678
 30
0.0
 10
36.72783461855043
 20
-46.21113721066965
 30
0.0
 10
36.8635482261992
 20
-45.93794609962675
 30
0.0
 10
37.06748905432957
 20
-45.91483915518787
 30
0.0
 10
37.36964321328764
 20
-45.97858609961666
 30
0.0
 10
37.5696329304077
 20
-45.84146137742825
 30
0.0
 10
37.5696329304077
 20
-45.84146137742825
 30
0.0
 10
37.80112570227961
 20
-45.59444637749024
 30
0.0
 10
37.80112570227961
 20
-45.59444637749024
 30
0.0
 10
37.88900264448213
 20
-45.57137471082952
 30
0.0
 10
37.97857291997477
 20
-45.54932609972392
 30
0.0
 10
38.06676736216919
 20
-45.52692471084056
 30
0.0
 10
38.16081791532532
 20
-45.95138693295664
 30
0.0
 10
38.4147120755146
 20
-46.20976137733677
 30
0.0
 10
38.66137429144395
 20
-46.48468109948967
 30
0.0
 10
38.37922263197557
 20
-47.61741526587316
 30
0.0
 10
38.09534236144018
 20
-48.74912637670154
 30
0.0
 10
37.81301431308741
 20
-49.88051998752967
 30
0.0
 10
37.37532293536496
 20
-51.94927943145692
 30
0.0
 10
37.66004987254541
 20
-54.34707470863567
 30
0.0
 10
37.17706182931191
 20
-56.35624998591094
 30
0.0
 10
36.91935766921983
 20
-56.94535359687505
 30
0.0
 10
36.65734962034865
 20
-57.5355155411718
 30
0.0
 10
36.39795212696644
 20
-58.12564220769104
 30
0.0
 10
36.13629685586404
 20
-59.1984394296448
 30
0.0
 10
35.8794746401939
 20
-60.27194220715408
 30
0.0
 10
35.62021825791919
 20
-61.34406915133048
 30
0.0
 10
35.50358992756129
 20
-61.99656692894562
 30
0.0
 10
35.30448215486318
 20
-63.11483720644346
 30
0.0
 10
35.51223298289634
 20
-63.71427720629393
 30
0.0
 10
35.66689165774997
 20
-63.99815748400031
 30
0.0
 10
35.81936130839419
 20
-64.28030915059668
 30
0.0
 10
35.97384269334192
 20
-64.56418942830369
 30
0.0
 10
36.15009046662325
 20
-65.33486776144389
 30
0.0
 10
36.10959157876757
 20
-68.69863914949218
 30
0.0
 10
35.86776241827048
 20
-69.62401053814934
 30
0.0
 10
35.66551492343024
 20
-70.38879748240271
 30
0.0
 10
34.76049971353208
 20
-70.40742414906454
 30
0.0
 10
34.66369749133398
 20
-71.14465914888078
 30
0.0
 10
34.8157799912962
 20
-71.52121414878661
 30
0.0
 10
34.78410054685945
 20
-71.96320942645372
 30
0.0
 10
34.98391388014304
 20
-72.27464164859786
 30
0.0
 10
35.28948909969013
 20
-72.64054275961773
 30
0.0
 10
35.59488881412096
 20
-73.0070788706368
 30
0.0
 10
35.90409852845458
 20
-73.37294470387916
 30
0.0
 10
36.09823213461293
 20
-73.8235830370995
 30
0.0
 10
35.96505852689936
 20
-74.3089699814229
 30
0.0
 10
36.18469796574033
 20
-74.71826275909845
 30
0.0
 10
36.16092074412472
 20
-74.7620072035319
 30
0.0
 10
36.13629685586404
 20
-74.81093748129727
 30
0.0
 10
36.11580046749805
 20
-74.85916220350713
 30
0.0
 10
36.00418158145681
 20
-75.21437414786287
 30
0.0
 10
35.4307413183087
 20
-77.34137720288673
 30
0.0
 10
35.54874548196484
 20
-77.58250081393791
 30
0.0
 10
35.61316270254364
 20
-77.71549803612639
 30
0.0
 10
35.63108381319754
 20
-77.77268331389035
 30
0.0
 10
35.76214165772599
 20
-77.7943791472182
 30
0.0
 10
35.87188991816518
 20
-77.81265303610226
 30
0.0
 10
36.00142991486034
 20
-77.76890859166882
 30
0.0
 10
36.07946435731396
 20
-77.6896747027999
 30
0.0
 10
36.59208573312478
 20
-77.16943331404083
 30
0.0
 10
36.97068683457698
 20
-76.70503664749037
 30
0.0
 10
37.28074321555567
 20
-76.13350136985545
 30
0.0
 10
37.7529009812877
 20
-75.26326914785074
 30
0.0
 10
38.06193430673694
 20
-74.31623720364325
 30
0.0
 10
38.45277776816459
 20
-73.4087869260924
 30
0.0
 10
38.64087790307796
 20
-72.67292775960969
 30
0.0
 10
38.73700984506988
 20
-70.47769748238063
 30
0.0
 10
38.62641401455808
 20
-69.8355360936525
 30
0.0
 10
38.60418901512509
 20
-69.4700230381879
 30
0.0
 10
38.57885957132685
 20
-69.10309887161291
 30
0.0
 10
38.5575165163158
 20
-68.73688026059344
 30
0.0
 10
38.92010150706549
 20
-66.52891470559001
 30
0.0
 10
39.20726261085051
 20
-64.66892915049951
 30
0.0
 10
39.58293565682185
 20
-62.58154303991044
 30
0.0
 10
39.75502065243159
 20
-61.62999554014775
 30
0.0
 10
39.46253260433803
 20
-60.38737109601401
 30
0.0
 10
39.7226356532578
 20
-59.53950498511514
 30
0.0
 10
40.15859841991325
 20
-58.52597442981311
 30
0.0
 10
40.5959722976438
 20
-57.51240859673292
 30
0.0
 10
41.03175867541485
 20
-56.49714943032024
 30
0.0
 10
41.31839165633693
 20
-55.51875554167594
 30
0.0
 10
41.59884998960017
 20
-54.53930331969836
 30
0.0
 10
41.88272920926034
 20
-53.56122693105429
 30
0.0
 10
42.1190550365645
 20
-53.20707332003182
 30
0.0
 10
42.35400503057042
 20
-52.85189665345359
 30
0.0
 10
42.59170669117282
 20
-52.49982443131953
 30
0.0
 10
43.05197584609704
 20
-51.78149832038784
 30
0.0
 10
43.42817805872154
 20
-50.87475359839251
 30
0.0
 10
43.68623610018925
 20
-49.98660026528085
 30
0.0
 10
44.2319116493277
 20
-48.12418054352482
 30
0.0
 10
44.22951387783151
 20
-46.29622721064787
 30
0.0
 10
44.57195414065249
 20
-44.22157637783381
 30
0.0
 10
44.7387121919537
 20
-43.19735665586702
 30
0.0
 10
44.65326941635575
 20
-42.2651061005448
 30
0.0
 10
44.6966610819154
 20
-41.22402360080499
 30
0.0
 10
44.77039163558993
 20
-41.25192832302053
 30
0.0
 10
44.83689024500452
 20
-41.27570554523678
 30
0.0
 10
44.87650832211447
 20
-41.29083971189979
 30
0.0
 10
45.39808911957603
 20
-41.17198887859608
 30
0.0
 10
45.48801217283746
 20
-40.07301554553743
 30
0.0
 10
46.03301854782208
 20
-39.81566415671274
 30
0.0
 10
46.96008324639291
 20
-39.37811387904422
 30
0.0
 10
48.19896943239485
 20
-39.99826193444492
 30
0.0
 10
49.18011374531077
 20
-39.4284199901428
 30
0.0
 10
49.06228597053903
 20
-39.12182082355282
 30
0.0
 10
49.19253152277174
 20
-38.86792665694975
 30
0.0
 10
48.97342125058393
 20
-38.54061943480922
 30
0.0
 10
49.07985554328553
 20
-38.40868054595339
 30
0.0
 10
49.18769846733949
 20
-38.27603610154203
 30
0.0
 10
49.29554263125482
 20
-38.14480276824172
 30
0.0
 10
49.19182596723419
 20
-37.92876165718463
 30
0.0
 10
49.08916763651989
 20
-37.71275582390506
 30
0.0
 10
48.98650930580558
 20
-37.4967499906258
 30
0.0
 10
49.44261568305823
 20
-37.35895499066035
 30
0.0
 10
49.66451289961938
 20
-36.99721665741729
 30
0.0
 10
50.04413705660103
 20
-36.87631971300302
 30
0.0
 10
50.01729066839705
 20
-36.76501832414206
 30
0.0
 10
49.97594511389631
 20
-36.65685665750247
 30
0.0
 10
49.91427955991397
 20
-36.54971804641801
 30
0.0
 10
50.34248121565631
 20
-36.70370554637976
 30
0.0
 10
50.79449537079113
 20
-36.83666749079072
 30
0.0
 10
51.29540452467854
 20
-36.93177637965602
 30
0.0
 10
52.47191838355206
 20
-37.16016471293219
 30
0.0
 10
53.71387251853383
 20
-36.88284610189032
 30
0.0
 10
54.65335499456564
 20
-36.68578443527313
 30
0.0
 10
55.85738551940382
 20
-36.49701304643142
 30
0.0
 10
57.06109998573459
 20
-36.30750082425634
 30
0.0
 10
58.26205990249991
 20
-36.11872943541463
 30
0.0
 10
58.73404127934755
 20
-36.14215387985343
 30
0.0
 10
59.20464682289695
 20
-36.16628387984743
 30
0.0
 10
59.67595792198392
 20
-36.18935554650816
 30
0.0
 10
60.38288929283749
 20
-36.58968776863023
 30
0.0
 10
60.37805623740523
 20
-37.8602169349795
 30
0.0
 10
61.55284148521174
 20
-37.4289108239762
 30
0.0
 10
61.98968619628913
 20
-37.26871443512739
 30
0.0
 10
62.24252202317208
 20
-37.14605360182463
 30
0.0
 10
62.47232146175386
 20
-36.79119443524664
 30
0.0
 10
63.43730977046828
 20
-37.0654438796225
 30
0.0
 10
66.47035191531116
 20
-36.70162415749135
 30
0.0
 10
66.61093385616905
 20
-36.15316054651715
 30
0.0
 10
66.602290800834
 20
-35.95680443545517
 30
0.0
 10
66.57646746815948
 20
-35.94749110212425
 30
0.0
 10
66.50548858108141
 20
-35.83657776881858
 30
0.0
  0
HATCH
  5
42
330
1F
100
AcDbEntity
  8
Layer 1
 62
   250
100
AcDbHatch
 10
0.0
 20
0.0
 30
0.0
210
0.0
220
0.0
230
1.0
  2
SOLID
 70
     1
 71
     0
 91
        1
 92
        1
 93
        1
 72
     4
 94
        3
 73
     0
 74
     1
 95
      662
 96
      658
 40
0.0
 40
0.0
 40
0.0
 40
0.0
 40
1.0
 40
1.0
 40
1.0
 40
2.0
 40
2.0
 40
2.0
 40
3.0
 40
3.0
 40
3.0
 40
4.0
 40
4.0
 40
4.0
 40
5.0
 40
5.0
 40
5.0
 40
6.0
 40
6.0
 40
6.0
 40
7.0
 40
7.0
 40
7.0
 40
8.0
 40
8.0
 40
8.0
 40
9.0
 40
9.0
 40
9.0
 40
10.0
 40
10.0
 40
10.0
 40
11.0
 40
11.0
 40
11.0
 40
12.0
 40
12.0
 40
12.0
 40
13.0
 40
13.0
 40
13.0
 40
14.0
 40
14.0
 40
14.0
 40
15.0
 40
15.0
 40
15.0
 40
16.0
 40
16.0
 40
16.0
 40
17.0
 40
17.0
 40
17.0
 40
18.0
 40
18.0
 40
18.0
 40
19.0
 40
19.0
 40
19.0
 40
20.0
 40
20.0
 40
20.0
 40
21.0
 40
21.0
 40
21.0
 40
22.0
 40
22.0
 40
22.0
 40
23.0
 40
23.0
 40
23.0
 40
24.0
 40
24.0
 40
24.0
 40
25.0
 40
25.0
 40
25.0
 40
26.0
 40
26.0
 40
26.0
 40
27.0
 40
27.0
 40
27.0
 40
28.0
 40
28.0
 40
28.0
 40
29.0
 40
29.0
 40
29.0
 40
30.0
 40
30.0
 40
30.0
 40
31.0
 40
31.0
 40
31.0
 40
32.0
 40
32.0
 40
32.0
 40
33.0
 40
33.0
 40
33.0
 40
34.0
 40
34.0
 40
34.0
 40
35.0
 40
35.0
 40
35.0
 40
36.0
 40
36.0
 40
36.0
 40
37.0
 40
37.0
 40
37.0
 40
38.0
 40
38.0
 40
38.0
 40
39.0
 40
39.0
 40
39.0
 40
40.0
 40
40.0
 40
40.0
 40
41.0
 40
41.0
 40
41.0
 40
42.0
 40
42.0
 40
42.0
 40
43.0
 40
43.0
 40
43.0
 40
44.0
 40
44.0
 40
44.0
 40
45.0
 40
45.0
 40
45.0
 40
46.0
 40
46.0
 40
46.0
 40
47.0
 40
47.0
 40
47.0
 40
48.0
 40
48.0
 40
48.0
 40
49.0
 40
49.0
 40
49.0
 40
50.0
 40
50.0
 40
50.0
 40
51.0
 40
51.0
 40
51.0
 40
52.0
 40
52.0
 40
52.0
 40
53.0
 40
53.0
 40
53.0
 40
54.0
 40
54.0
 40
54.0
 40
55.0
 40
55.0
 40
55.0
 40
56.0
 40
56.0
 40
56.0
 40
57.0
 40
57.0
 40
57.0
 40
58.0
 40
58.0
 40
58.0
 40
59.0
 40
59.0
 40
59.0
 40
60.0
 40
60.0
 40
60.0
 40
61.0
 40
61.0
 40
61.0
 40
62.0
 40
62.0
 40
62.0
 40
63.0
 40
63.0
 40
63.0
 40
64.0
 40
64.0
 40
64.0
 40
65.0
 40
65.0
 40
65.0
 40
66.0
 40
66.0
 40
66.0
 40
67.0
 40
67.0
 40
67.0
 40
68.0
 40
68.0
 40
68.0
 40
69.0
 40
69.0
 40
69.0
 40
70.0
 40
70.0
 40
70.0
 40
71.0
 40
71.0
 40
71.0
 40
72.0
 40
72.0
 40
72.0
 40
73.0
 40
73.0
 40
73.0
 40
74.0
 40
74.0
 40
74.0
 40
75.0
 40
75.0
 40
75.0
 40
76.0
 40
76.0
 40
76.0
 40
77.0
 40
77.0
 40
77.0
 40
78.0
 40
78.0
 40
78.0
 40
79.0
 40
79.0
 40
79.0
 40
80.0
 40
80.0
 40
80.0
 40
81.0
 40
81.0
 40
81.0
 40
82.0
 40
82.0
 40
82.0
 40
83.0
 40
83.0
 40
83.0
 40
84.0
 40
84.0
 40
84.0
 40
85.0
 40
85.0
 40
85.0
 40
86.0
 40
86.0
 40
86.0
 40
87.0
 40
87.0
 40
87.0
 40
88.0
 40
88.0
 40
88.0
 40
89.0
 40
89.0
 40
89.0
 40
90.0
 40
90.0
 40
90.0
 40
91.0
 40
91.0
 40
91.0
 40
92.0
 40
92.0
 40
92.0
 40
93.0
 40
93.0
 40
93.0
 40
94.0
 40
94.0
 40
94.0
 40
95.0
 40
95.0
 40
95.0
 40
96.0
 40
96.0
 40
96.0
 40
97.0
 40
97.0
 40
97.0
 40
98.0
 40
98.0
 40
98.0
 40
99.0
 40
99.0
 40
99.0
 40
100.0
 40
100.0
 40
100.0
 40
101.0
 40
101.0
 40
101.0
 40
102.0
 40
102.0
 40
102.0
 40
103.0
 40
103.0
 40
103.0
 40
104.0
 40
104.0
 40
104.0
 40
105.0
 40
105.0
 40
105.0
 40
106.0
 40
106.0
 40
106.0
 40
107.0
 40
107.0
 40
107.0
 40
108.0
 40
108.0
 40
108.0
 40
109.0
 40
109.0
 40
109.0
 40
110.0
 40
110.0
 40
110.0
 40
111.0
 40
111.0
 40
111.0
 40
112.0
 40
112.0
 40
112.0
 40
113.0
 40
113.0
 40
113.0
 40
114.0
 40
114.0
 40
114.0
 40
115.0
 40
115.0
 40
115.0
 40
116.0
 40
116.0
 40
116.0
 40
117.0
 40
117.0
 40
117.0
 40
118.0
 40
118.0
 40
118.0
 40
119.0
 40
119.0
 40
119.0
 40
120.0
 40
120.0
 40
120.0
 40
121.0
 40
121.0
 40
121.0
 40
122.0
 40
122.0
 40
122.0
 40
123.0
 40
123.0
 40
123.0
 40
124.0
 40
124.0
 40
124.0
 40
125.0
 40
125.0
 40
125.0
 40
126.0
 40
126.0
 40
126.0
 40
127.0
 40
127.0
 40
127.0
 40
128.0
 40
128.0
 40
128.0
 40
129.0
 40
129.0
 40
129.0
 40
130.0
 40
130.0
 40
130.0
 40
131.0
 40
131.0
 40
131.0
 40
132.0
 40
132.0
 40
132.0
 40
133.0
 40
133.0
 40
133.0
 40
134.0
 40
134.0
 40
134.0
 40
135.0
 40
135.0
 40
135.0
 40
136.0
 40
136.0
 40
136.0
 40
137.0
 40
137.0
 40
137.0
 40
138.0
 40
138.0
 40
138.0
 40
139.0
 40
139.0
 40
139.0
 40
140.0
 40
140.0
 40
140.0
 40
141.0
 40
141.0
 40
141.0
 40
142.0
 40
142.0
 40
142.0
 40
143.0
 40
143.0
 40
143.0
 40
144.0
 40
144.0
 40
144.0
 40
145.0
 40
145.0
 40
145.0
 40
146.0
 40
146.0
 40
146.0
 40
147.0
 40
147.0
 40
147.0
 40
148.0
 40
148.0
 40
148.0
 40
149.0
 40
149.0
 40
149.0
 40
150.0
 40
150.0
 40
150.0
 40
151.0
 40
151.0
 40
151.0
 40
152.0
 40
152.0
 40
152.0
 40
153.0
 40
153.0
 40
153.0
 40
154.0
 40
154.0
 40
154.0
 40
155.0
 40
155.0
 40
155.0
 40
156.0
 40
156.0
 40
156.0
 40
157.0
 40
157.0
 40
157.0
 40
158.0
 40
158.0
 40
158.0
 40
159.0
 40
159.0
 40
159.0
 40
160.0
 40
160.0
 40
160.0
 40
161.0
 40
161.0
 40
161.0
 40
162.0
 40
162.0
 40
162.0
 40
163.0
 40
163.0
 40
163.0
 40
164.0
 40
164.0
 40
164.0
 40
165.0
 40
165.0
 40
165.0
 40
166.0
 40
166.0
 40
166.0
 40
167.0
 40
167.0
 40
167.0
 40
168.0
 40
168.0
 40
168.0
 40
169.0
 40
169.0
 40
169.0
 40
170.0
 40
170.0
 40
170.0
 40
171.0
 40
171.0
 40
171.0
 40
172.0
 40
172.0
 40
172.0
 40
173.0
 40
173.0
 40
173.0
 40
174.0
 40
174.0
 40
174.0
 40
175.0
 40
175.0
 40
175.0
 40
176.0
 40
176.0
 40
176.0
 40
177.0
 40
177.0
 40
177.0
 40
178.0
 40
178.0
 40
178.0
 40
179.0
 40
179.0
 40
179.0
 40
180.0
 40
180.0
 40
180.0
 40
181.0
 40
181.0
 40
181.0
 40
182.0
 40
182.0
 40
182.0
 40
183.0
 40
183.0
 40
183.0
 40
184.0
 40
184.0
 40
184.0
 40
185.0
 40
185.0
 40
185.0
 40
186.0
 40
186.0
 40
186.0
 40
187.0
 40
187.0
 40
187.0
 40
188.0
 40
188.0
 40
188.0
 40
189.0
 40
189.0
 40
189.0
 40
190.0
 40
190.0
 40
190.0
 40
191.0
 40
191.0
 40
191.0
 40
192.0
 40
192.0
 40
192.0
 40
193.0
 40
193.0
 40
193.0
 40
194.0
 40
194.0
 40
194.0
 40
195.0
 40
195.0
 40
195.0
 40
196.0
 40
196.0
 40
196.0
 40
197.0
 40
197.0
 40
197.0
 40
198.0
 40
198.0
 40
198.0
 40
199.0
 40
199.0
 40
199.0
 40
200.0
 40
200.0
 40
200.0
 40
201.0
 40
201.0
 40
201.0
 40
202.0
 40
202.0
 40
202.0
 40
203.0
 40
203.0
 40
203.0
 40
204.0
 40
204.0
 40
204.0
 40
205.0
 40
205.0
 40
205.0
 40
206.0
 40
206.0
 40
206.0
 40
207.0
 40
207.0
 40
207.0
 40
208.0
 40
208.0
 40
208.0
 40
209.0
 40
209.0
 40
209.0
 40
210.0
 40
210.0
 40
210.0
 40
211.0
 40
211.0
 40
211.0
 40
212.0
 40
212.0
 40
212.0
 40
213.0
 40
213.0
 40
213.0
 40
214.0
 40
214.0
 40
214.0
 40
215.0
 40
215.0
 40
215.0
 40
216.0
 40
216.0
 40
216.0
 40
217.0
 40
217.0
 40
217.0
 40
218.0
 40
218.0
 40
218.0
 40
219.0
 40
219.0
 40
219.0
 40
219.0
 10
66.50548858108141
 20
-35.83657776881858
 10
65.94979303970283
 20
-35.63401276886921
 10
65.66421943587731
 20
-35.11070221344445
 10
65.23287805799285
 20
-34.80960638018634
 10
64.94797473192801
 20
-34.61392054690204
 10
64.6162225181695
 20
-34.65145610244809
 10
64.24069058330566
 20
-34.52674915803509
 10
63.72323615206258
 20
-34.279381380319
 10
63.20338283199182
 20
-34.03134332482555
 10
62.68419978968172
 20
-33.78432832488723
 10
60.62609428663281
 20
-33.19522471392344
 10
58.23246184769946
 20
-34.03134332482555
 10
55.96177246118513
 20
-33.57209721382919
 10
54.85419137833077
 20
-33.3009874916747
 10
53.74625751770763
 20
-33.02881943618724
 10
52.6376194312853
 20
-32.75767443625491
 10
52.2820886661728
 20
-32.6777702696083
 10
51.93241665368325
 20
-32.62333665851075
 10
51.58341229510862
 20
-32.57613499185602
 10
51.77945090121838
 20
-32.37494582523954
 10
51.95961450773313
 20
-32.16066860307093
 10
52.09984367082225
 20
-31.91845138090926
 10
51.77634645685313
 20
-31.78167943649893
 10
51.76601006822795
 20
-31.46576693657804
 10
51.31745313522714
 20
-31.4034311032603
 10
51.35534146759387
 20
-31.20464082553215
 10
51.39566396656515
 20
-31.00655610335952
 10
51.43595118775956
 20
-30.80706027007616
 10
51.18653730523375
 20
-30.72920221453981
 10
50.93574758940971
 20
-30.6492980478932
 10
50.68562815134634
 20
-30.57143999235716
 10
51.11453536262623
 20
-30.05948888137389
 10
51.14035869530075
 20
-29.57889971482745
 10
51.49246618631774
 20
-29.15034527049023
 10
51.27681313626395
 20
-29.00838749274796
 10
51.00393953211443
 20
-28.94157138165349
 10
50.54712759932423
 20
-28.98150582608787
 10
50.54712759932423
 20
-28.98150582608787
 10
50.41931621369608
 20
-28.42753888178212
 10
50.41931621369608
 20
-28.42753888178212
 10
50.0386337234081
 20
-28.24356527071674
 10
49.65724567758257
 20
-28.44891721511004
 10
49.30344485327544
 20
-28.63320832617502
 10
48.99649291666199
 20
-28.4664855484389
 10
48.94103625141015
 20
-28.18225249295444
 10
48.71331943226581
 20
-27.96726971523032
 10
48.16933609906866
 20
-28.38206582623772
 10
47.62499998809376
 20
-28.79583888169
 10
47.08066387711884
 20
-29.21338665936318
 10
46.51293742446722
 20
-29.61163749259716
 10
45.94655271669468
 20
-30.01024110360859
 10
45.37949773116145
 20
-30.40986777017546
 10
45.40017050841182
 20
-29.98819249250299
 10
45.41015411926823
 20
-29.57477221482847
 10
45.45597995143245
 20
-29.22026582602824
 10
45.53726109972692
 20
-28.5767286039669
 10
45.80907522020202
 20
-27.67615749308111
 10
45.66817577935222
 20
-26.7794316599719
 10
45.61032022527268
 20
-26.28434332676229
 10
45.54897217128224
 20
-25.78861999355283
 10
45.49178689496338
 20
-25.29183832701041
 10
45.57860550385956
 20
-23.48864999412796
 10
45.91762493965491
 20
-21.90598305007901
 10
46.19804798805627
 20
-20.30606527270112
 10
46.24489687574994
 20
-19.39762721737267
 10
46.29245131898117
 20
-18.48880110648893
 10
46.34067603997308
 20
-17.57997499560487
 10
46.36547631711815
 20
-16.90888582910607
 10
46.38752492766675
 20
-16.23500971816334
 10
46.41024381597604
 20
-15.56494360721998
 10
46.45779825920727
 20
-15.21043721841975
 10
46.50327131360271
 20
-14.85698916295249
 10
46.55220276613999
 20
-14.50248277415226
 10
46.38752492766675
 20
-13.57058499660748
 10
46.22214270966379
 20
-12.63900471906262
 10
46.05609021390014
 20
-11.70745971929529
 10
45.63236883582128
 20
-10.11858388635928
 10
45.09801634945375
 20
-8.51972444231467
 10
44.64120554439506
 20
-7.037634442685043
 10
44.54923525234321
 20
-6.63765499834073
 10
44.45412636588075
 20
-6.234923887330008
 10
44.36109998890959
 20
-5.835649998541219
 10
44.13994248500736
 20
-5.308882220894851
 10
43.57218194393658
 20
-5.326133054224114
 10
43.29832056203448
 20
-4.914088609882477
 10
43.20148306450501
 20
-4.514814721093368
 10
43.10711501135699
 20
-4.113106665638409
 10
43.01408751373032
 20
-3.713797499071459
 10
42.80048057473544
 20
-3.683846665745672
 10
42.77017696439744
 20
-3.691078610188499
 10
42.62479724588416
 20
-3.782024721276664
 10
42.6702703002796
 20
-3.581858610215627
 10
42.71884779904028
 20
-3.381360888043597
 10
42.76569668673396
 20
-3.182235471426764
 10
42.82390501858227
 20
-2.899392360386263
 10
42.63100613461464
 20
-2.811197915963867
 10
42.44840836149532
 20
-3.076469165897497
 10
42.36607003026262
 20
-3.182235471426764
 10
42.28098003243345
 20
-3.28903188806653
 10
42.20174721167193
 20
-3.392039471374332
 10
42.0384453163988
 20
-3.35414408249482
 10
41.85722337657771
 20
-3.403063776927131
 10
41.70496449157327
 20
-3.464732860244879
 10
41.61228977171537
 20
-3.749992499062469
 10
41.46034838670283
 20
-3.893996387915305
 10
41.42383588763435
 20
-4.243316943383596
 10
41.34043922309531
 20
-4.194739443395662
 10
41.25707783633315
 20
-4.148243332296135
 10
41.17473950510043
 20
-4.100688887863645
 10
41.34043922309531
 20
-3.95118166567895
 10
41.43346672072198
 20
-3.881931387918301
 10
41.3866178330283
 20
-3.605988610209633
 10
41.36248887854813
 20
-3.594629165768153
 10
41.34043922309531
 20
-3.581858610215627
 10
41.31839165633693
 20
-3.571169443551509
 10
40.7086142392145
 20
-3.701767776852297
 10
40.57907424251935
 20
-3.947406943457737
 10
40.35827063704141
 20
-4.454172221108752
 10
40.69415035069462
 20
-6.433361387280399
 10
42.69196613305942
 20
-5.995493609612271
 10
43.08538390080028
 20
-7.356298609272024
 10
43.29832056203448
 20
-8.369511664574132
 10
43.50878887801181
 20
-9.384453330987206
 10
43.72341777341157
 20
-10.39900694184468
 10
43.78028554973853
 20
-11.35295333049506
 10
43.84022249265386
 20
-12.3093338858116
 10
43.89670221343516
 20
-13.26500888557262
 10
43.99248137765829
 20
-13.79897332988366
 10
44.46343969897648
 20
-15.17702916287235
 10
44.32321053588736
 20
-15.67035360719348
 10
44.15303054022901
 20
-16.26016277371279
 10
43.80988360453897
 20
-16.81652860690686
 10
43.65141583080405
 20
-17.61613471781805
 10
43.5797666659653
 20
-18.21698582877924
 10
43.50878887801181
 20
-18.81815443974003
 10
43.43816166957795
 20
-19.42034610625595
 10
43.43816166957795
 20
-19.42034610625595
 10
43.43816166957795
 20
-20.62370638373298
 10
43.43816166957795
 20
-20.62370638373298
 10
43.20148306450501
 20
-20.96547749475852
 10
42.96688584826786
 20
-21.30791888356207
 10
42.73020832265078
 20
-21.64863166125465
 10
42.40431114039811
 20
-22.28151499442971
 10
42.21483420078764
 20
-23.22477221641597
 10
42.02327587234136
 20
-23.94824888290176
 10
42.02327587234136
 20
-23.94824888290176
 10
41.88272920926034
 20
-23.94824888290176
 10
41.88272920926034
 20
-23.94824888290176
 10
41.38972227739355
 20
-23.77665777183363
 10
41.0748328409826
 20
-23.64644749408844
 10
40.85536979102601
 20
-23.20582804975422
 10
41.12651478410853
 20
-23.33603832749941
 10
41.33151394554523
 20
-23.41975249414507
 10
41.70496449157327
 20
-23.52378666078568
 10
41.71251393582511
 20
-23.23786027196842
 10
41.62915254906295
 20
-22.83304777206961
 10
41.77555532310568
 20
-22.71109249432237
 10
41.70496449157327
 20
-22.56952277213539
 10
41.63465588225588
 20
-22.42721221661536
 10
41.56300671741714
 20
-22.28631277220605
 10
41.72905921318078
 20
-22.39690860551181
 10
42.13143753624859
 20
-22.55572916102773
 10
42.30715614287675
 20
-22.56952277213539
 10
42.28098003243345
 20
-22.53368054992213
 10
42.25787308857851
 20
-22.49889666104185
 10
42.23617725579868
 20
-22.46340721660636
 10
41.9240394859842
 20
-22.39278110551283
 10
41.78899721177509
 20
-21.94697582784667
 10
41.59884998960017
 20
-21.68412110569014
 10
41.59884998960017
 20
-21.68412110569014
 10
42.0949250371801
 20
-20.69330943927107
 10
42.0949250371801
 20
-20.69330943927107
 10
42.15831920222945
 20
-20.83523193923549
 10
42.14731253584359
 20
-20.80767999479804
 10
42.23617725579868
 20
-20.83523193923549
 10
42.22446503387526
 20
-20.51004138376153
 10
42.3161166982037
 20
-20.50245666154094
 10
42.34056419757999
 20
-20.05665138387479
 10
42.53660280368975
 20
-20.10903888386177
 10
42.52005752633407
 20
-20.17518471717857
 10
42.59170669117282
 20
-20.16347249495901
 10
42.63650946780758
 20
-20.15172499496193
 10
42.68335835550126
 20
-20.13898971718756
 10
42.73020832265078
 20
-20.12798305052352
 10
42.73020832265078
 20
-20.12798305052352
 10
42.73020832265078
 20
-19.63324749509167
 10
42.73020832265078
 20
-19.63324749509167
 10
42.89005085022809
 20
-19.58985582843599
 10
42.84665918466843
 20
-19.63084860620334
 10
42.90761918311321
 20
-19.491677772905
 10
42.54281169242023
 20
-18.89050916194389
 10
42.17691059064403
 20
-18.28761193987245
 10
41.80966893334648
 20
-17.68676082891158
 10
41.90509531980084
 20
-17.76909916222435
 10
42.0002042062633
 20
-17.85316610664777
 10
42.0949250371801
 20
-17.93310555107222
 10
42.0949250371801
 20
-17.93310555107222
 10
42.0949250371801
 20
-17.90001499552506
 10
42.0949250371801
 20
-17.90001499552506
 10
41.88272920926034
 20
-17.61613471781805
 10
41.6684167147279
 20
-17.333983051222
 10
41.45794949787515
 20
-17.05013805129314
 10
41.45794949787515
 20
-17.05013805129314
 10
41.49202783033907
 20
-17.05013805129314
 10
41.49202783033907
 20
-17.05013805129314
 10
41.64499227088107
 20
-17.15173805126758
 10
41.72905921318078
 20
-17.21894221791734
 10
41.98743365103355
 20
-17.22582138458241
 10
41.9419605966381
 20
-17.06114471795686
 10
41.89613476447389
 20
-16.89579777355395
 10
41.84688698795252
 20
-16.7311211069284
 10
41.77111032321908
 20
-16.69630194027027
 10
41.69737976954455
 20
-16.66116527361255
 10
41.62121504926545
 20
-16.62810999584291
 10
41.53887776739292
 20
-16.4744399958814
 10
41.08760339621235
 20
-16.22294471816634
 10
39.93828870331159
 20
-15.8154158293796
 10
37.27284099353505
 20
-14.86626721850556
 10
35.45451943558088
 20
-16.12959971818984
 10
34.67145860244312
 20
-16.87579527355891
 10
34.5525724913619
 20
-16.96194360687074
 10
34.44800915805465
 20
-17.07010527351033
 10
34.3615433247429
 20
-17.19583527347878
 10
34.27751165809731
 20
-17.29231999567697
 10
34.23150943588659
 20
-17.35465582899471
 10
34.23150943588659
 20
-17.35465582899471
 10
34.23150943588659
 20
-17.35465582899471
 10
34.26562304698919
 20
-17.35123388455094
 10
34.26562304698919
 20
-17.35123388455094
 10
34.23838860255165
 20
-17.40118721787208
 10
34.22117304700023
 20
-17.46077138452373
 10
34.19810138033951
 20
-17.51658082895417
 10
33.95641332484416
 20
-17.91895916218681
 10
33.81449082487973
 20
-18.30105277320266
 10
33.74058388045379
 20
-18.57078666202395
 10
33.62018082492832
 20
-18.97006055081306
 10
33.5528355471672
 20
-19.44137166180642
 10
33.7503911026735
 20
-19.75382693950602
 10
33.7698644360019
 20
-19.83203777281982
 10
33.79776915821711
 20
-19.90714416168977
 10
33.83653943598534
 20
-19.97328999500657
 10
33.93418832484969
 20
-20.14071832829821
 10
34.05374471370891
 20
-20.28574527270649
 10
34.18705943589763
 20
-20.39909277267801
 10
34.26975054698816
 20
-20.47144749488219
 10
34.37431388029542
 20
-20.53829888375419
 10
34.47316221360377
 20
-20.58169055041019
 10
34.51694193581537
 20
-20.60063471707193
 10
34.58428721357617
 20
-20.60649082818156
 10
34.62319860245543
 20
-20.63577138372998
 10
34.66507332466718
 20
-20.66713332816649
 10
34.67470415799801
 20
-20.7639355503646
 10
34.70140943576923
 20
-20.82457805034954
 10
34.74293138020322
 20
-20.90656360588455
 10
34.86040638017372
 20
-21.08570416139511
 10
34.87194221350408
 20
-21.16218638359826
 10
34.8666152690611
 20
-21.16941832804109
 10
34.86333443572869
 20
-21.17460416137303
 10
34.86040638017372
 20
-21.17975471692713
 10
34.81338110240787
 20
-21.21453860580741
 10
34.70797110243405
 20
-21.27930860579132
 10
34.63424054689699
 20
-21.27761527245852
 10
34.59772804690606
 20
-21.27451082801467
 10
34.53189971358918
 20
-21.24106749468975
 10
34.49866804693099
 20
-21.26967777246049
 10
34.50985110248359
 20
-21.33169610577831
 10
34.68281804688493
 20
-21.39678360576183
 10
34.74293138020322
 20
-21.39509027242902
 10
34.80286832463263
 20
-21.39509027242902
 10
34.86248776906213
 20
-21.37131305021277
 10
34.91741526904848
 20
-21.34891166132941
 10
34.92224832460266
 20
-21.35064027244006
 10
34.9267286023794
 20
-21.35374471688391
 10
34.93085610237837
 20
-21.35716666132736
 10
34.92291860238034
 20
-21.4505469390817
 10
34.87695165794746
 20
-21.5401172168373
 10
34.84851776906559
 20
-21.62520721681584
 10
34.82216526907214
 20
-21.69929055013067
 10
34.81666193574029
 20
-21.77577277233382
 10
34.78893360241394
 20
-21.84706916120504
 10
34.74465999131387
 20
-21.95833527228816
 10
34.69692915799249
 20
-22.07203555003744
 10
34.65473693578083
 20
-22.18503027223153
 10
34.63180638023082
 20
-22.2480716611048
 10
34.52311554692491
 20
-22.43550249439114
 10
34.58358165802065
 20
-22.5192166610368
 10
34.62718499134336
 20
-22.58225804991007
 10
34.6976347135477
 20
-22.63358721656378
 10
34.76600304686394
 20
-22.65563582766937
 10
34.91102999127222
 20
-22.70834082765628
 10
34.993368324585
 20
-22.60053193879446
 10
35.09189915789375
 20
-22.7682777720857
 10
35.15910332454351
 20
-22.87922638316921
 10
35.01802749124565
 20
-22.94777110537402
 10
35.00680915791489
 20
-23.02979193868687
 10
35.00112943569415
 20
-23.07766388311961
 10
35.03714804679628
 20
-23.14447999421376
 10
35.05919665790187
 20
-23.16963304976321
 10
35.16150221343184
 20
-23.30263027195201
 10
35.33305715413417
 20
-23.27885304973577
 10
35.52980131578148
 20
-23.24717360529933
 10
35.52980131578148
 20
-23.24717360529933
 10
35.53135353796409
 20
-23.25818027196337
 10
35.53135353796409
 20
-23.25818027196337
 10
35.53220020460916
 20
-23.25990888307402
 10
35.53135353796409
 20
-23.26336610529531
 10
35.53135353796409
 20
-23.26541221640588
 10
35.48637437244494
 20
-23.29127082751053
 10
35.45123770667469
 20
-23.32640749416825
 10
35.42453332447726
 20
-23.3615441608263
 10
35.39906187467247
 20
-23.3935763830405
 10
35.38163465289485
 20
-23.41975249414507
 10
35.36494826443167
 20
-23.45351332746991
 10
35.33721993180575
 20
-23.50554804967914
 10
35.38699687498028
 20
-23.60097443854436
 10
35.42262742962682
 20
-23.63438249409144
 10
35.5454646487152
 20
-23.74049804962046
 10
35.70738964458415
 20
-23.62612749409349
 10
35.82641686376974
 20
-23.79905916071699
 10
35.89220991764677
 20
-23.89413277180413
 10
35.85569741857828
 20
-24.03369166065839
 10
35.86222380730067
 20
-24.12463777174655
 10
35.86621110214444
 20
-24.17011082729096
 10
35.92064380581025
 20
-24.29069027170499
 10
35.96043713812837
 20
-24.3554602716889
 10
35.96505852689936
 20
-24.35856471613243
 10
35.96505852689936
 20
-24.36163388279844
 10
35.9659404713213
 20
-24.36509110501973
 10
35.97539491552455
 20
-24.37955499390507
 10
35.98661324857168
 20
-24.39232554945759
 10
35.98954130405253
 20
-24.39747610501169
 10
35.99038887989145
 20
-24.39849916056713
 10
35.99282213730216
 20
-24.39747610501169
 10
35.99437435948479
 20
-24.39920471612234
 10
36.03275658072779
 20
-24.43917443833456
 10
36.09823213461293
 20
-24.47910888276926
 10
36.19916185426022
 20
-24.49671249387597
 10
36.32972490648483
 20
-24.52701610497952
 10
36.50251545763214
 20
-24.50013443831942
 10
36.67149600887664
 20
-24.42023027167281
 10
36.67957461978165
 20
-24.41574999389607
 10
36.68888887971667
 20
-24.41264554945255
 10
36.69594443527061
 20
-24.40781249389805
 10
36.80152989444809
 20
-24.40435527167676
 10
36.90471739181555
 20
-24.40989388278646
 10
37.00084933380747
 20
-24.44570082722186
 10
36.97622544554679
 20
-24.47910888276926
 10
36.95276665742833
 20
-24.5163269383154
 10
36.92902378008434
 20
-24.54906471608511
 10
36.68511323075145
 20
-24.63655360495199
 10
36.38433490509162
 20
-24.80055999379985
 10
36.09047102369982
 20
-24.99278860486286
 10
36.03811880281322
 20
-25.03342860485277
 10
35.98417908196711
 20
-25.0706466603989
 10
35.92614713900318
 20
-25.10236138261318
 10
35.60437853610107
 20
-25.32764527144582
 10
35.30448215486318
 20
-25.57878777138312
 10
35.12583638010747
 20
-25.78861999355283
 10
34.89967054683074
 20
-25.7179938824593
 10
34.6755861024421
 20
-25.6463094380328
 10
34.45266582472026
 20
-25.57501304916191
 10
33.50612776940127
 20
-25.37967999365505
 10
31.87075582536573
 20
-26.30296999342411
 10
31.37397415882332
 20
-26.67261054888736
 10
30.86255221450669
 20
-27.05537443768057
 10
30.49065388126615
 20
-27.57007721532961
 10
29.85311388142547
 20
-27.84051665970642
 10
28.96859415942462
 20
-28.14676304851896
 10
28.08562665964522
 20
-28.45304471510902
 10
27.19849638208932
 20
-28.76101971503188
 10
26.82903221551496
 20
-28.93328110387769
 10
26.48486221560109
 20
-29.17824999270545
 10
26.03115471571442
 20
-29.29053915934401
 10
25.38327832698738
 20
-29.31502193711578
 10
24.73561360492706
 20
-29.3380936037765
 10
24.08724332731154
 20
-29.36289388154819
 10
22.89644193872032
 20
-29.56168415927635
 10
21.70271249457444
 20
-29.76460193700315
 10
20.51469805042683
 20
-29.96303943695354
 10
20.51469805042683
 20
-29.96303943695354
 10
19.13318499521684
 20
-29.96303943695354
 10
19.13318499521684
 20
-29.96303943695354
 10
18.44226971761156
 20
-30.07395277025922
 10
17.43388971786363
 20
-30.22624693688784
 10
16.69079860693841
 20
-30.03433582582476
 10
16.34405332924733
 20
-29.94374249251403
 10
15.07108999623221
 20
-29.36426971488108
 10
14.74604055186897
 20
-29.46798638152177
 10
14.27028444087702
 20
-29.61784638148455
 10
13.4200194410895
 20
-30.0970597146981
 10
13.2250391633604
 20
-30.56385527013689
 10
13.26052860779589
 20
-30.83154304784761
 10
13.09412333005969
 20
-31.32144554772529
 10
13.2250391633604
 20
-31.66251110319563
 10
13.35595499666111
 20
-32.00357665866565
 10
13.40192194109399
 20
-31.66251110319563
 10
13.40192194109399
 20
-31.66251110319563
 10
13.51287055217719
 20
-31.49437721434879
 10
13.55248749661197
 20
-31.12607721444059
 10
13.68477916324557
 20
-30.95385110337261
 10
13.70855638546181
 20
-30.96485777003665
 10
13.73162805212253
 20
-30.97692277003365
 10
13.75350027433925
 20
-30.9893405478081
 10
13.87616110764201
 20
-31.39101332548553
 10
13.71956305212553
 20
-31.92226138090832
 10
13.93352277429454
 20
-32.3704655474628
 10
13.93352277429454
 20
-32.3704655474628
 10
14.16625027423609
 20
-32.74218749181446
 10
14.21549805200171
 20
-31.94395721423616
 10
14.22840971866527
 20
-31.73451304762204
 10
15.09260944067117
 20
-31.30938054772828
 10
15.31447138506036
 20
-31.27113943662671
 10
15.89757777380349
 20
-31.17500749220628
 10
16.33354055147209
 20
-31.67902110319121
 10
17.01172055130268
 20
-31.66251110319563
 10
17.18842694014739
 20
-31.61358082542993
 10
17.36534499565851
 20
-31.56673193655265
 10
17.54035805117041
 20
-31.51988304767568
 10
18.29413832875975
 20
-31.33968415883183
 10
19.15784416187717
 20
-31.65524388097496
 10
19.770019439502
 20
-31.76756832539136
 10
20.64215666150624
 20
-31.82648221426566
 10
21.51549332795449
 20
-31.88641915869507
 10
22.38692499440321
 20
-31.94395721423616
 10
24.97091638264614
 20
-32.37494582523954
 10
27.63156638198111
 20
-31.23804888107923
 10
29.46488193707824
 20
-30.70577777010132
 10
30.39402804795693
 20
-30.43741971461292
 10
31.18206304775991
 20
-30.15353943690591
 10
31.97598943645035
 20
-29.75045554811806
 10
32.35254443635618
 20
-29.55064221483446
 10
32.73118082515042
 20
-29.35047610377343
 10
33.10840610283392
 20
-29.14963971493471
 10
33.4012469360941
 20
-29.07248721495419
 10
33.71765332490379
 20
-29.17616860381704
 10
33.88663388041719
 20
-29.3260286037795
 10
34.73898026909313
 20
-30.08672332581175
 10
35.88564825114751
 20
-34.17019665812397
 10
35.656060479227
 20
-35.26984026896031
 10
35.6241693689295
 20
-35.41800693558996
 10
35.72700408852819
 20
-35.65087554664287
 10
35.81657436402084
 20
-35.92614804657418
 10
35.74785325466295
 20
-35.98573221322583
 10
35.67017158997811
 20
-36.04189443543403
 10
35.57439242575497
 20
-36.08736749097812
 10
35.57439242575497
 20
-36.08736749097812
 10
32.22042915861147
 20
-37.70622943501775
 10
32.22042915861147
 20
-37.70622943501775
 10
32.12930665863442
 20
-37.81820110165671
 10
31.99976665866659
 20
-37.93394749051657
 10
31.80150554760509
 20
-38.06623915715016
 10
31.08233277000715
 20
-38.26259526821215
 10
30.36129027018753
 20
-38.45828110149645
 10
29.64056527036751
 20
-38.65396693478107
 10
28.46595638177226
 20
-39.01055471246971
 10
27.20488165986558
 20
-39.62033110120588
 10
26.33930610452617
 20
-40.3289911010289
 10
26.20390999344904
 20
-40.49229193432157
 10
26.06904304903824
 20
-40.6562630453916
 10
25.93262388240567
 20
-40.81991665646138
 10
25.40465666031562
 20
-41.24159193413417
 10
24.51202304942754
 20
-41.51203137851066
 10
24.35768277168835
 20
-42.06391693392864
 10
24.47032471610467
 20
-42.25374665610332
 10
24.52218304942502
 20
-42.28373276720662
 10
24.62297166051106
 20
-42.50076165604132
 10
24.62297166051106
 20
-42.50076165604132
 10
24.3053305494792
 20
-42.68096054488517
 10
24.3053305494792
 20
-42.68096054488517
 10
24.3053305494792
 20
-42.68096054488517
 10
24.292559993927
 20
-42.82013137818382
 10
24.292559993927
 20
-42.82013137818382
 10
24.28807971615026
 20
-42.98445526703161
 10
24.46309277166185
 20
-42.9820563781436
 10
24.55887193830483
 20
-43.09469832255961
 10
24.69582027160372
 20
-43.39579415581741
 10
24.83241582712517
 20
-43.69688998907584
 10
24.96781193820262
 20
-43.99869137788917
 10
25.3166386047821
 20
-44.12925443341211
 10
25.86541971575591
 20
-43.88432082236252
 10
26.22923943788705
 20
-43.55048721133436
 10
26.42958193783697
 20
-43.7165397112928
 10
26.61750666001244
 20
-44.030053322326
 10
26.77269360441788
 20
-44.17405721117883
 10
26.97201304881267
 20
-44.19197832228514
 10
27.26122027096235
 20
-44.04314137787812
 10
27.46741888202189
 20
-44.05587665565249
 10
27.56884249310777
 20
-44.06173276676243
 10
27.61794915976202
 20
-44.10480693341851
 10
27.69185610418829
 20
-44.18781554450833
 10
27.61555027087402
 20
-44.82172193323915
 10
28.36139304846533
 20
-45.3536402664393
 10
28.75209443725657
 20
-45.77154082189055
 10
29.11863054827596
 20
-45.85352637742525
 10
29.20354415936562
 20
-45.97858609961666
 10
29.54273999261428
 20
-45.6323699885919
 10
29.98318304805962
 20
-45.83147776631965
 10
31.32557304772426
 20
-46.01717998849568
 10
31.93552582534933
 20
-45.6323699885919
 10
32.12930665863442
 20
-45.45735693307999
 10
32.32255832525255
 20
-45.28301415534609
 10
32.51686832520397
 20
-45.11008248872258
 10
33.13595804727171
 20
-45.2654458220169
 10
33.57005110271862
 20
-46.07746971070317
 10
34.13244943591119
 20
-46.39853276617816
 10
34.58358165802065
 20
-46.65556665500292
 10
35.20955054675313
 20
-46.65761276611317
 10
35.61644443554034
 20
-47.02520721046616
 10
35.8794746401939
 20
-46.94495026604147
 10
35.91528158372483
 20
-46.74788859942397
 10
36.05395852463133
 20
-46.70583748832366
 10
36.05395852463133
 20
-46.70583748832366
 10
36.45273851445761
 20
-46.75441498831128
 10
36.45273851445761
 20
-46.75441498831128
 10
36.59070989982655
 20
-46.48330526615678
 10
36.72783461855043
 20
-46.21113721066965
 10
36.8635482261992
 20
-45.93794609962675
 10
37.06748905432957
 20
-45.91483915518787
 10
37.36964321328764
 20
-45.97858609961666
 10
37.5696329304077
 20
-45.84146137742825
 10
37.5696329304077
 20
-45.84146137742825
 10
37.80112570227961
 20
-45.59444637749024
 10
37.80112570227961
 20
-45.59444637749024
 10
37.88900264448213
 20
-45.57137471082952
 10
37.97857291997477
 20
-45.54932609972392
 10
38.06676736216919
 20
-45.52692471084056
 10
38.16081791532532
 20
-45.95138693295664
 10
38.4147120755146
 20
-46.20976137733677
 10
38.66137429144395
 20
-46.48468109948967
 10
38.37922263197557
 20
-47.61741526587316
 10
38.09534236144018
 20
-48.74912637670154
 10
37.81301431308741
 20
-49.88051998752967
 10
37.37532293536496
 20
-51.94927943145692
 10
37.66004987254541
 20
-54.34707470863567
 10
37.17706182931191
 20
-56.35624998591094
 10
36.91935766921983
 20
-56.94535359687505
 10
36.65734962034865
 20
-57.5355155411718
 10
36.39795212696644
 20
-58.12564220769104
 10
36.13629685586404
 20
-59.1984394296448
 10
35.8794746401939
 20
-60.27194220715408
 10
35.62021825791919
 20
-61.34406915133048
 10
35.50358992756129
 20
-61.99656692894562
 10
35.30448215486318
 20
-63.11483720644346
 10
35.51223298289634
 20
-63.71427720629393
 10
35.66689165774997
 20
-63.99815748400031
 10
35.81936130839419
 20
-64.28030915059668
 10
35.97384269334192
 20
-64.56418942830369
 10
36.15009046662325
 20
-65.33486776144389
 10
36.10959157876757
 20
-68.69863914949218
 10
35.86776241827048
 20
-69.62401053814934
 10
35.66551492343024
 20
-70.38879748240271
 10
34.76049971353208
 20
-70.40742414906454
 10
34.66369749133398
 20
-71.14465914888078
 10
34.8157799912962
 20
-71.52121414878661
 10
34.78410054685945
 20
-71.96320942645372
 10
34.98391388014304
 20
-72.27464164859786
 10
35.28948909969013
 20
-72.64054275961773
 10
35.59488881412096
 20
-73.0070788706368
 10
35.90409852845458
 20
-73.37294470387916
 10
36.09823213461293
 20
-73.8235830370995
 10
35.96505852689936
 20
-74.3089699814229
 10
36.18469796574033
 20
-74.71826275909845
 10
36.16092074412472
 20
-74.7620072035319
 10
36.13629685586404
 20
-74.81093748129727
 10
36.11580046749805
 20
-74.85916220350713
 10
36.00418158145681
 20
-75.21437414786287
 10
35.4307413183087
 20
-77.34137720288673
 10
35.54874548196484
 20
-77.58250081393791
 10
35.61316270254364
 20
-77.71549803612639
 10
35.63108381319754
 20
-77.77268331389035
 10
35.76214165772599
 20
-77.7943791472182
 10
35.87188991816518
 20
-77.81265303610226
 10
36.00142991486034
 20
-77.76890859166882
 10
36.07946435731396
 20
-77.6896747027999
 10
36.59208573312478
 20
-77.16943331404083
 10
36.97068683457698
 20
-76.70503664749037
 10
37.28074321555567
 20
-76.13350136985545
 10
37.7529009812877
 20
-75.26326914785074
 10
38.06193430673694
 20
-74.31623720364325
 10
38.45277776816459
 20
-73.4087869260924
 10
38.64087790307796
 20
-72.67292775960969
 10
38.73700984506988
 20
-70.47769748238063
 10
38.62641401455808
 20
-69.8355360936525
 10
38.60418901512509
 20
-69.4700230381879
 10
38.57885957132685
 20
-69.10309887161291
 10
38.5575165163158
 20
-68.73688026059344
 10
38.92010150706549
 20
-66.52891470559001
 10
39.20726261085051
 20
-64.66892915049951
 10
39.58293565682185
 20
-62.58154303991044
 10
39.75502065243159
 20
-61.62999554014775
 10
39.46253260433803
 20
-60.38737109601401
 10
39.7226356532578
 20
-59.53950498511514
 10
40.15859841991325
 20
-58.52597442981311
 10
40.5959722976438
 20
-57.51240859673292
 10
41.03175867541485
 20
-56.49714943032024
 10
41.31839165633693
 20
-55.51875554167594
 10
41.59884998960017
 20
-54.53930331969836
 10
41.88272920926034
 20
-53.56122693105429
 10
42.1190550365645
 20
-53.20707332003182
 10
42.35400503057042
 20
-52.85189665345359
 10
42.59170669117282
 20
-52.49982443131953
 10
43.05197584609704
 20
-51.78149832038784
 10
43.42817805872154
 20
-50.87475359839251
 10
43.68623610018925
 20
-49.98660026528085
 10
44.2319116493277
 20
-48.12418054352482
 10
44.22951387783151
 20
-46.29622721064787
 10
44.57195414065249
 20
-44.22157637783381
 10
44.7387121919537
 20
-43.19735665586702
 10
44.65326941635575
 20
-42.2651061005448
 10
44.6966610819154
 20
-41.22402360080499
 10
44.77039163558993
 20
-41.25192832302053
 10
44.83689024500452
 20
-41.27570554523678
 10
44.87650832211447
 20
-41.29083971189979
 10
45.39808911957603
 20
-41.17198887859608
 10
45.48801217283746
 20
-40.07301554553743
 10
46.03301854782208
 20
-39.81566415671274
 10
46.96008324639291
 20
-39.37811387904422
 10
48.19896943239485
 20
-39.99826193444492
 10
49.18011374531077
 20
-39.4284199901428
 10
49.06228597053903
 20
-39.12182082355282
 10
49.19253152277174
 20
-38.86792665694975
 10
48.97342125058393
 20
-38.54061943480922
 10
49.07985554328553
 20
-38.40868054595339
 10
49.18769846733949
 20
-38.27603610154203
 10
49.29554263125482
 20
-38.14480276824172
 10
49.19182596723419
 20
-37.92876165718463
 10
49.08916763651989
 20
-37.71275582390506
 10
48.98650930580558
 20
-37.4967499906258
 10
49.44261568305823
 20
-37.35895499066035
 10
49.66451289961938
 20
-36.99721665741729
 10
50.04413705660103
 20
-36.87631971300302
 10
50.01729066839705
 20
-36.76501832414206
 10
49.97594511389631
 20
-36.65685665750247
 10
49.91427955991397
 20
-36.54971804641801
 10
50.34248121565631
 20
-36.70370554637976
 10
50.79449537079113
 20
-36.83666749079072
 10
51.29540452467854
 20
-36.93177637965602
 10
52.47191838355206
 20
-37.16016471293219
 10
53.71387251853383
 20
-36.88284610189032
 10
54.65335499456564
 20
-36.68578443527313
 10
55.85738551940382
 20
-36.49701304643142
 10
57.06109998573459
 20
-36.30750082425634
 10
58.26205990249991
 20
-36.11872943541463
 10
58.73404127934755
 20
-36.14215387985343
 10
59.20464682289695
 20
-36.16628387984743
 10
59.67595792198392
 20
-36.18935554650816
 10
60.38288929283749
 20
-36.58968776863023
 10
60.37805623740523
 20
-37.8602169349795
 10
61.55284148521174
 20
-37.4289108239762
 10
61.98968619628913
 20
-37.26871443512739
 10
62.24252202317208
 20
-37.14605360182463
 10
62.47232146175386
 20
-36.79119443524664
 10
63.43730977046828
 20
-37.0654438796225
 10
66.47035191531116
 20
-36.70162415749135
 10
66.61093385616905
 20
-36.15316054651715
 10
66.602290800834
 20
-35.95680443545517
 10
66.57646746815948
 20
-35.94749110212425
 10
66.50548858108141
 20
-35.83657776881858
 97
        0
 75
     2
 76
     1
 98
        0
  0
ENDSEC
  0
SECTION
  2
OBJECTS
  0
DICTIONARY
  5
C
330
0
100
AcDbDictionary
281
     1
  3
ACAD_GROUP
350
D
  3
ACAD_LAYOUT
350
1A
  3
ACAD_MATERIAL
350
3B
  3
ACAD_MLEADERSTYLE
350
64
  3
ACAD_MLINESTYLE
350
17
  3
ACAD_PLOTSETTINGS
350
19
  3
ACAD_PLOTSTYLENAME
350
E
  3
ACAD_TABLESTYLE
350
63
  3
ACAD_VISUALSTYLE
350
2A
  0
SUN
  5
3F
330
29
100
AcDbSun
 90
        1
290
     0
 63
     7
421
 16777215
 40
1.0
291
     1
 91
  2455826
 92
 54000000
292
     0
 70
     2
 71
   256
280
     1
  0
DICTIONARY
  5
D
102
{ACAD_REACTORS
330
C
102
}
330
C
100
AcDbDictionary
281
     1
  0
DICTIONARY
  5
1A
102
{ACAD_REACTORS
330
C
102
}
330
C
100
AcDbDictionary
281
     1
  3
Layout1
350
1E
  3
Layout2
350
26
  3
Model
350
22
  0
DICTIONARY
  5
3B
102
{ACAD_REACTORS
330
C
102
}
330
C
100
AcDbDictionary
281
     1
  3
ByBlock
350
3D
  3
ByLayer
350
3C
  3
Global
350
3E
  0
DICTIONARY
  5
64
102
{ACAD_REACTORS
330
C
102
}
330
C
100
AcDbDictionary
281
     1
  0
DICTIONARY
  5
17
102
{ACAD_REACTORS
330
C
102
}
330
C
100
AcDbDictionary
281
     1
  3
Standard
350
18
  0
DICTIONARY
  5
19
102
{ACAD_REACTORS
330
C
102
}
330
C
100
AcDbDictionary
281
     1
  0
ACDBDICTIONARYWDFLT
  5
E
102
{ACAD_REACTORS
330
C
102
}
330
C
100
AcDbDictionary
281
     1
  3
Normal
350
F
100
AcDbDictionaryWithDefault
340
F
  0
DICTIONARY
  5
63
102
{ACAD_REACTORS
330
C
102
}
330
C
100
AcDbDictionary
281
     1
  0
DICTIONARY
  5
2A
102
{ACAD_REACTORS
330
C
102
}
330
C
100
AcDbDictionary
281
     1
  3
2dWireframe
350
2F
  3
3D Hidden
350
31
  3
3dWireframe
350
30
  3
Basic
350
32
  3
Brighten
350
36
  3
ColorChange
350
3A
  3
Conceptual
350
34
  3
Dim
350
35
  3
Facepattern
350
39
  3
Flat
350
2B
  3
FlatWithEdges
350
2C
  3
Gouraud
350
2D
  3
GouraudWithEdges
350
2E
  3
Linepattern
350
38
  3
Realistic
350
33
  3
Thicken
350
37
  0
LAYOUT
  5
1E
102
{ACAD_REACTORS
330
1A
102
}
330
1A
100
AcDbPlotSettings
  1

  2
none_device
  4

  6

 40
0.0
 41
0.0
 42
0.0
 43
0.0
 44
0.0
 45
0.0
 46
0.0
 47
0.0
 48
0.0
 49
0.0
140
0.0
141
0.0
142
1.0
143
1.0
 70
   688
 72
     0
 73
     0
 74
     5
  7

 75
    16
 76
     0
 77
     2
 78
   300
147
1.0
148
0.0
149
0.0
100
AcDbLayout
  1
Layout1
 70
     1
 71
     1
 10
0.0
 20
0.0
 11
12.0
 21
9.0
 12
0.0
 22
0.0
 32
0.0
 14
1.000000000000000E+20
 24
1.000000000000000E+20
 34
1.000000000000000E+20
 15
-1.000000000000000E+20
 25
-1.000000000000000E+20
 35
-1.000000000000000E+20
146
0.0
 13
0.0
 23
0.0
 33
0.0
 16
1.0
 26
0.0
 36
0.0
 17
0.0
 27
1.0
 37
0.0
 76
     0
330
1B
  0
LAYOUT
  5
26
102
{ACAD_REACTORS
330
1A
102
}
330
1A
100
AcDbPlotSettings
  1

  2
none_device
  4

  6

 40
0.0
 41
0.0
 42
0.0
 43
0.0
 44
0.0
 45
0.0
 46
0.0
 47
0.0
 48
0.0
 49
0.0
140
0.0
141
0.0
142
1.0
143
1.0
 70
   688
 72
     0
 73
     0
 74
     5
  7

 75
    16
 76
     0
 77
     2
 78
   300
147
1.0
148
0.0
149
0.0
100
AcDbLayout
  1
Layout2
 70
     1
 71
     2
 10
0.0
 20
0.0
 11
0.0
 21
0.0
 12
0.0
 22
0.0
 32
0.0
 14
0.0
 24
0.0
 34
0.0
 15
0.0
 25
0.0
 35
0.0
146
0.0
 13
0.0
 23
0.0
 33
0.0
 16
1.0
 26
0.0
 36
0.0
 17
0.0
 27
1.0
 37
0.0
 76
     0
330
23
  0
LAYOUT
  5
22
102
{ACAD_REACTORS
330
1A
102
}
330
1A
100
AcDbPlotSettings
  1

  2
none_device
  4

  6

 40
0.0
 41
0.0
 42
0.0
 43
0.0
 44
0.0
 45
0.0
 46
0.0
 47
0.0
 48
0.0
 49
0.0
140
0.0
141
0.0
142
1.0
143
1.0
 70
  1712
 72
     0
 73
     0
 74
     0
  7

 75
     0
 76
     0
 77
     2
 78
   300
147
1.0
148
0.0
149
0.0
100
AcDbLayout
  1
Model
 70
     1
 71
     0
 10
0.0
 20
0.0
 11
12.0
 21
9.0
 12
0.0
 22
0.0
 32
0.0
 14
1.000000000000000E+20
 24
1.000000000000000E+20
 34
1.000000000000000E+20
 15
-1.000000000000000E+20
 25
-1.000000000000000E+20
 35
-1.000000000000000E+20
146
0.0
 13
0.0
 23
0.0
 33
0.0
 16
1.0
 26
0.0
 36
0.0
 17
0.0
 27
1.0
 37
0.0
 76
     0
330
1F
331
29
  0
MATERIAL
  5
3D
102
{ACAD_REACTORS
330
3B
102
}
330
3B
100
AcDbMaterial
  1
ByBlock
 72
     1
 94
      127
  0
MATERIAL
  5
3C
102
{ACAD_REACTORS
330
3B
102
}
330
3B
100
AcDbMaterial
  1
ByLayer
 72
     1
 94
      127
  0
MATERIAL
  5
3E
102
{ACAD_REACTORS
330
3B
102
}
330
3B
100
AcDbMaterial
  1
Global
 72
     1
 94
      127
  0
MLINESTYLE
  5
18
102
{ACAD_REACTORS
330
17
102
}
330
17
100
AcDbMlineStyle
  2
Standard
 70
     0
  3

 62
   256
 51
90.0
 52
90.0
 71
     2
 49
0.5
 62
   256
  6
BYLAYER
 49
-0.5
 62
   256
  6
BYLAYER
  0
ACDBPLACEHOLDER
  5
F
102
{ACAD_REACTORS
330
E
102
}
330
E
  0
VISUALSTYLE
  5
2F
102
{ACAD_REACTORS
330
2A
102
}
102
{ACAD_XDICTIONARY
360
4B
102
}
330
2A
100
AcDbVisualStyle
  2
2dWireframe
 70
     4
 71
     0
 72
     2
 73
     0
 90
        0
 40
-0.6
 41
-30.0
 62
     5
 63
     7
421
 16777215
 74
     1
 91
        4
 64
     7
 65
   257
 75
     1
175
     1
 42
1.0
 92
        0
 66
   257
 43
1.0
 76
     1
 77
     6
 78
     2
 67
     7
 79
     5
170
     0
171
     0
290
     0
174
     0
 93
        1
 44
0.0
173
     0
291
     0
 45
0.0
  0
VISUALSTYLE
  5
31
102
{ACAD_REACTORS
330
2A
102
}
102
{ACAD_XDICTIONARY
360
4F
102
}
330
2A
100
AcDbVisualStyle
  2
3D Hidden
 70
     6
 71
     1
 72
     2
 73
     2
 90
        0
 40
-0.6
 41
-30.0
 62
     5
 63
     7
421
 16777215
 74
     2
 91
        2
 64
     7
 65
   257
 75
     2
175
     1
 42
40.0
 92
        0
 66
   257
 43
1.0
 76
     1
 77
     6
 78
     2
 67
     7
 79
     3
170
     0
171
     0
290
     0
174
     0
 93
        1
 44
0.0
173
     0
291
     0
 45
0.0
  0
VISUALSTYLE
  5
30
102
{ACAD_REACTORS
330
2A
102
}
102
{ACAD_XDICTIONARY
360
4D
102
}
330
2A
100
AcDbVisualStyle
  2
3dWireframe
 70
     5
 71
     0
 72
     2
 73
     0
 90
        0
 40
-0.6
 41
-30.0
 62
     5
 63
     7
421
 16777215
 74
     1
 91
        4
 64
     7
 65
   257
 75
     1
175
     1
 42
1.0
 92
        0
 66
   257
 43
1.0
 76
     1
 77
     6
 78
     2
 67
     7
 79
     5
170
     0
171
     0
290
     0
174
     0
 93
        1
 44
0.0
173
     0
291
     0
 45
0.0
  0
VISUALSTYLE
  5
32
102
{ACAD_REACTORS
330
2A
102
}
102
{ACAD_XDICTIONARY
360
51
102
}
330
2A
100
AcDbVisualStyle
  2
Basic
 70
     7
 71
     1
 72
     0
 73
     1
 90
        0
 40
-0.6
 41
-30.0
 62
     5
 63
     7
421
 16777215
 74
     0
 91
        4
 64
     7
 65
   257
 75
     1
175
     1
 42
1.0
 92
        8
 66
     7
 43
1.0
 76
     1
 77
     6
 78
     2
 67
     7
 79
     5
170
     0
171
     0
290
     0
174
     0
 93
        1
 44
0.0
173
     0
291
     1
 45
0.0
  0
VISUALSTYLE
  5
36
102
{ACAD_REACTORS
330
2A
102
}
102
{ACAD_XDICTIONARY
360
59
102
}
330
2A
100
AcDbVisualStyle
  2
Brighten
 70
    12
 71
     2
 72
     2
 73
     0
 90
        0
 40
-0.6
 41
-30.0
 62
     5
 63
     7
421
 16777215
 74
     1
 91
        4
 64
     7
 65
   257
 75
     1
175
     1
 42
1.0
 92
        8
 66
     7
 43
1.0
 76
     1
 77
     6
 78
     2
 67
     7
 79
     5
170
     0
171
     0
290
     0
174
     0
 93
        1
 44
50.0
173
     0
291
     1
 45
0.0
  0
VISUALSTYLE
  5
3A
102
{ACAD_REACTORS
330
2A
102
}
102
{ACAD_XDICTIONARY
360
61
102
}
330
2A
100
AcDbVisualStyle
  2
ColorChange
 70
    16
 71
     2
 72
     2
 73
     3
 90
        0
 40
-0.6
 41
-30.0
 62
     5
 63
     8
421
  8421504
 74
     1
 91
        4
 64
     7
 65
   257
 75
     1
175
     1
 42
1.0
 92
        8
 66
     8
424
  8421504
 43
1.0
 76
     1
 77
     6
 78
     2
 67
     7
 79
     5
170
     0
171
     0
290
     0
174
     0
 93
        1
 44
0.0
173
     0
291
     1
 45
0.0
  0
VISUALSTYLE
  5
34
102
{ACAD_REACTORS
330
2A
102
}
102
{ACAD_XDICTIONARY
360
55
102
}
330
2A
100
AcDbVisualStyle
  2
Conceptual
 70
     9
 71
     3
 72
     2
 73
     0
 90
        0
 40
-0.6
 41
-30.0
 62
     5
 63
     7
421
 16777215
 74
     2
 91
        2
 64
     7
 65
   257
 75
     1
175
     1
 42
40.0
 92
        8
 66
     7
 43
1.0
 76
     1
 77
     6
 78
     2
 67
     7
 79
     3
170
     0
171
     0
290
     0
174
     0
 93
        1
 44
0.0
173
     0
291
     0
 45
0.0
  0
VISUALSTYLE
  5
35
102
{ACAD_REACTORS
330
2A
102
}
102
{ACAD_XDICTIONARY
360
57
102
}
330
2A
100
AcDbVisualStyle
  2
Dim
 70
    11
 71
     2
 72
     2
 73
     0
 90
        0
 40
-0.6
 41
-30.0
 62
     5
 63
     7
421
 16777215
 74
     1
 91
        4
 64
     7
 65
   257
 75
     1
175
     1
 42
1.0
 92
        8
 66
     7
 43
1.0
 76
     1
 77
     6
 78
     2
 67
     7
 79
     5
170
     0
171
     0
290
     0
174
     0
 93
        1
 44
-50.0
173
     0
291
     1
 45
0.0
  0
VISUALSTYLE
  5
39
102
{ACAD_REACTORS
330
2A
102
}
102
{ACAD_XDICTIONARY
360
5F
102
}
330
2A
100
AcDbVisualStyle
  2
Facepattern
 70
    15
 71
     2
 72
     2
 73
     0
 90
        0
 40
-0.6
 41
-30.0
 62
     5
 63
     7
421
 16777215
 74
     1
 91
        4
 64
     7
 65
   257
 75
     1
175
     1
 42
1.0
 92
        8
 66
     7
 43
1.0
 76
     1
 77
     6
 78
     2
 67
     7
 79
     5
170
     0
171
     0
290
     0
174
     0
 93
        1
 44
0.0
173
     0
291
     1
 45
0.0
  0
VISUALSTYLE
  5
2B
102
{ACAD_REACTORS
330
2A
102
}
102
{ACAD_XDICTIONARY
360
43
102
}
330
2A
100
AcDbVisualStyle
  2
Flat
 70
     0
 71
     2
 72
     1
 73
     1
 90
        2
 40
-0.6
 41
30.0
 62
     5
 63
     7
421
 16777215
 74
     0
 91
        4
 64
     7
 65
   257
 75
     1
175
     1
 42
1.0
 92
        8
 66
     7
 43
1.0
 76
     1
 77
     6
 78
     2
 67
     7
 79
     5
170
     0
171
     0
290
     0
174
     0
 93
       13
 44
0.0
173
     0
291
     1
 45
0.0
  0
VISUALSTYLE
  5
2C
102
{ACAD_REACTORS
330
2A
102
}
102
{ACAD_XDICTIONARY
360
45
102
}
330
2A
100
AcDbVisualStyle
  2
FlatWithEdges
 70
     1
 71
     2
 72
     1
 73
     1
 90
        2
 40
-0.6
 41
30.0
 62
     5
 63
     7
421
 16777215
 74
     1
 91
        4
 64
     7
 65
   257
 75
     1
175
     1
 42
1.0
 92
        0
 66
   257
 43
1.0
 76
     1
 77
     6
 78
     2
 67
     7
 79
     5
170
     0
171
     0
290
     0
174
     0
 93
       13
 44
0.0
173
     0
291
     1
 45
0.0
  0
VISUALSTYLE
  5
2D
102
{ACAD_REACTORS
330
2A
102
}
102
{ACAD_XDICTIONARY
360
47
102
}
330
2A
100
AcDbVisualStyle
  2
Gouraud
 70
     2
 71
     2
 72
     2
 73
     1
 90
        2
 40
-0.6
 41
30.0
 62
     5
 63
     7
421
 16777215
 74
     0
 91
        4
 64
     7
 65
   257
 75
     1
175
     1
 42
1.0
 92
        0
 66
     7
 43
1.0
 76
     1
 77
     6
 78
     2
 67
     7
 79
     5
170
     0
171
     0
290
     0
174
     0
 93
       13
 44
0.0
173
     0
291
     1
 45
0.0
  0
VISUALSTYLE
  5
2E
102
{ACAD_REACTORS
330
2A
102
}
102
{ACAD_XDICTIONARY
360
49
102
}
330
2A
100
AcDbVisualStyle
  2
GouraudWithEdges
 70
     3
 71
     2
 72
     2
 73
     1
 90
        2
 40
-0.6
 41
30.0
 62
     5
 63
     7
421
 16777215
 74
     1
 91
        4
 64
     7
 65
   257
 75
     1
175
     1
 42
1.0
 92
        0
 66
   257
 43
1.0
 76
     1
 77
     6
 78
     2
 67
     7
 79
     5
170
     0
171
     0
290
     0
174
     0
 93
       13
 44
0.0
173
     0
291
     1
 45
0.0
  0
VISUALSTYLE
  5
38
102
{ACAD_REACTORS
330
2A
102
}
102
{ACAD_XDICTIONARY
360
5D
102
}
330
2A
100
AcDbVisualStyle
  2
Linepattern
 70
    14
 71
     2
 72
     2
 73
     0
 90
        0
 40
-0.6
 41
-30.0
 62
     5
 63
     7
421
 16777215
 74
     1
 91
        4
 64
     7
 65
   257
 75
     7
175
     7
 42
1.0
 92
        8
 66
     7
 43
1.0
 76
     1
 77
     6
 78
     2
 67
     7
 79
     5
170
     0
171
     0
290
     0
174
     0
 93
        1
 44
0.0
173
     0
291
     1
 45
0.0
  0
VISUALSTYLE
  5
33
102
{ACAD_REACTORS
330
2A
102
}
102
{ACAD_XDICTIONARY
360
53
102
}
330
2A
100
AcDbVisualStyle
  2
Realistic
 70
     8
 71
     2
 72
     2
 73
     0
 90
        0
 40
-0.6
 41
-30.0
 62
     5
 63
     7
421
 16777215
 74
     1
 91
        0
 64
     7
 65
   257
 75
     1
175
     1
 42
1.0
 92
        8
 66
     8
424
  7895160
 43
1.0
 76
     1
 77
     6
 78
     2
 67
     7
 79
     5
170
     0
171
     0
290
     0
174
     0
 93
       13
 44
0.0
173
     0
291
     0
 45
0.0
  0
VISUALSTYLE
  5
37
102
{ACAD_REACTORS
330
2A
102
}
102
{ACAD_XDICTIONARY
360
5B
102
}
330
2A
100
AcDbVisualStyle
  2
Thicken
 70
    13
 71
     2
 72
     2
 73
     0
 90
        0
 40
-0.6
 41
-30.0
 62
     5
 63
     7
421
 16777215
 74
     1
 91
        4
 64
     7
 65
   257
 75
     1
175
     1
 42
1.0
 92
       12
 66
     7
 43
1.0
 76
     1
 77
     6
 78
     2
 67
     7
 79
     5
170
     0
171
     0
290
     0
174
     0
 93
        1
 44
0.0
173
     0
291
     1
 45
0.0
  0
DICTIONARY
  5
4B
330
2F
100
AcDbDictionary
280
     1
281
     1
  3
ACAD_XREC_ROUNDTRIP
360
4C
  0
DICTIONARY
  5
4F
330
31
100
AcDbDictionary
280
     1
281
     1
  3
ACAD_XREC_ROUNDTRIP
360
50
  0
DICTIONARY
  5
4D
330
30
100
AcDbDictionary
280
     1
281
     1
  3
ACAD_XREC_ROUNDTRIP
360
4E
  0
DICTIONARY
  5
51
330
32
100
AcDbDictionary
280
     1
281
     1
  3
ACAD_XREC_ROUNDTRIP
360
52
  0
DICTIONARY
  5
59
330
36
100
AcDbDictionary
280
     1
281
     1
  3
ACAD_XREC_ROUNDTRIP
360
5A
  0
DICTIONARY
  5
61
330
3A
100
AcDbDictionary
280
     1
281
     1
  3
ACAD_XREC_ROUNDTRIP
360
62
  0
DICTIONARY
  5
55
330
34
100
AcDbDictionary
280
     1
281
     1
  3
ACAD_XREC_ROUNDTRIP
360
56
  0
DICTIONARY
  5
57
330
35
100
AcDbDictionary
280
     1
281
     1
  3
ACAD_XREC_ROUNDTRIP
360
58
  0
DICTIONARY
  5
5F
330
39
100
AcDbDictionary
280
     1
281
     1
  3
ACAD_XREC_ROUNDTRIP
360
60
  0
DICTIONARY
  5
43
330
2B
100
AcDbDictionary
280
     1
281
     1
  3
ACAD_XREC_ROUNDTRIP
360
44
  0
DICTIONARY
  5
45
330
2C
100
AcDbDictionary
280
     1
281
     1
  3
ACAD_XREC_ROUNDTRIP
360
46
  0
DICTIONARY
  5
47
330
2D
100
AcDbDictionary
280
     1
281
     1
  3
ACAD_XREC_ROUNDTRIP
360
48
  0
DICTIONARY
  5
49
330
2E
100
AcDbDictionary
280
     1
281
     1
  3
ACAD_XREC_ROUNDTRIP
360
4A
  0
DICTIONARY
  5
5D
330
38
100
AcDbDictionary
280
     1
281
     1
  3
ACAD_XREC_ROUNDTRIP
360
5E
  0
DICTIONARY
  5
53
330
33
100
AcDbDictionary
280
     1
281
     1
  3
ACAD_XREC_ROUNDTRIP
360
54
  0
DICTIONARY
  5
5B
330
37
100
AcDbDictionary
280
     1
281
     1
  3
ACAD_XREC_ROUNDTRIP
360
5C
  0
XRECORD
  5
4C
102
{ACAD_REACTORS
330
4B
102
}
330
4B
100
AcDbXrecord
280
     1
102
RTVSPropertyOp0
 70
     1
102
RTVSPropertyOp1
 70
     1
102
RTVSPropertyOp2
 70
     1
102
RTVSPropertyOp3
 70
     1
102
RTVSPropertyOp4
 70
     1
102
RTVSPropertyOp5
 70
     1
102
RTVSPropertyOp6
 70
     1
102
RTVSPropertyOp7
 70
     1
102
RTVSPropertyOp8
 70
     1
102
RTVSPropertyOp9
 70
     1
102
RTVSPropertyOp10
 70
     1
102
RTVSPropertyOp11
 70
     1
102
RTVSPropertyOp12
 70
     1
102
RTVSPropertyOp13
 70
     1
102
RTVSPropertyOp14
 70
     1
102
RTVSPropertyOp15
 70
     1
102
RTVSPropertyOp16
 70
     1
102
RTVSPropertyOp17
 70
     1
102
RTVSPropertyOp18
 70
     1
102
RTVSPropertyOp19
 70
     1
102
RTVSPropertyOp20
 70
     1
102
RTVSPropertyOp21
 70
     1
102
RTVSPropertyOp22
 70
     1
102
RTVSPropertyOp23
 70
     1
102
RTVSPropertyOp24
 70
     1
102
RTVSPropertyOp25
 70
     1
102
RTVSPropertyOp26
 70
     1
102
RTVSPropertyOp27
 70
     1
102
RTVSPropertyOp28
 70
     1
102
RTVSPropertyOp29
 70
     1
102
RTVSPropertyOp30
 70
     1
102
RTVSPropertyOp31
 70
     1
102
RTVSPropertyOp32
 70
     1
  0
XRECORD
  5
50
102
{ACAD_REACTORS
330
4F
102
}
330
4F
100
AcDbXrecord
280
     1
102
RTVSPropertyOp0
 70
     1
102
RTVSPropertyOp1
 70
     1
102
RTVSPropertyOp2
 70
     1
102
RTVSPropertyOp3
 70
     1
102
RTVSPropertyOp4
 70
     1
102
RTVSPropertyOp5
 70
     1
102
RTVSPropertyOp6
 70
     1
102
RTVSPropertyOp7
 70
     1
102
RTVSPropertyOp8
 70
     1
102
RTVSPropertyOp9
 70
     1
102
RTVSPropertyOp10
 70
     1
102
RTVSPropertyOp11
 70
     1
102
RTVSPropertyOp12
 70
     1
102
RTVSPropertyOp13
 70
     1
102
RTVSPropertyOp14
 70
     1
102
RTVSPropertyOp15
 70
     1
102
RTVSPropertyOp16
 70
     1
102
RTVSPropertyOp17
 70
     1
102
RTVSPropertyOp18
 70
     1
102
RTVSPropertyOp19
 70
     1
102
RTVSPropertyOp20
 70
     1
102
RTVSPropertyOp21
 70
     1
102
RTVSPropertyOp22
 70
     1
102
RTVSPropertyOp23
 70
     1
102
RTVSPropertyOp24
 70
     1
102
RTVSPropertyOp25
 70
     1
102
RTVSPropertyOp26
 70
     1
102
RTVSPropertyOp27
 70
     1
102
RTVSPropertyOp28
 70
     1
102
RTVSPropertyOp29
 70
     1
102
RTVSPropertyOp30
 70
     1
102
RTVSPropertyOp31
 70
     1
102
RTVSPropertyOp32
 70
     1
  0
XRECORD
  5
4E
102
{ACAD_REACTORS
330
4D
102
}
330
4D
100
AcDbXrecord
280
     1
102
RTVSPropertyOp0
 70
     1
102
RTVSPropertyOp1
 70
     1
102
RTVSPropertyOp2
 70
     1
102
RTVSPropertyOp3
 70
     1
102
RTVSPropertyOp4
 70
     1
102
RTVSPropertyOp5
 70
     1
102
RTVSPropertyOp6
 70
     1
102
RTVSPropertyOp7
 70
     1
102
RTVSPropertyOp8
 70
     1
102
RTVSPropertyOp9
 70
     1
102
RTVSPropertyOp10
 70
     1
102
RTVSPropertyOp11
 70
     1
102
RTVSPropertyOp12
 70
     1
102
RTVSPropertyOp13
 70
     1
102
RTVSPropertyOp14
 70
     1
102
RTVSPropertyOp15
 70
     1
102
RTVSPropertyOp16
 70
     1
102
RTVSPropertyOp17
 70
     1
102
RTVSPropertyOp18
 70
     1
102
RTVSPropertyOp19
 70
     1
102
RTVSPropertyOp20
 70
     1
102
RTVSPropertyOp21
 70
     1
102
RTVSPropertyOp22
 70
     1
102
RTVSPropertyOp23
 70
     1
102
RTVSPropertyOp24
 70
     1
102
RTVSPropertyOp25
 70
     1
102
RTVSPropertyOp26
 70
     1
102
RTVSPropertyOp27
 70
     1
102
RTVSPropertyOp28
 70
     1
102
RTVSPropertyOp29
 70
     1
102
RTVSPropertyOp30
 70
     1
102
RTVSPropertyOp31
 70
     1
102
RTVSPropertyOp32
 70
     1
  0
XRECORD
  5
52
102
{ACAD_REACTORS
330
51
102
}
330
51
100
AcDbXrecord
280
     1
102
RTVSPropertyOp0
 70
     1
102
RTVSPropertyOp1
 70
     1
102
RTVSPropertyOp2
 70
     1
102
RTVSPropertyOp3
 70
     1
102
RTVSPropertyOp4
 70
     1
102
RTVSPropertyOp5
 70
     1
102
RTVSPropertyOp6
 70
     1
102
RTVSPropertyOp7
 70
     1
102
RTVSPropertyOp8
 70
     1
102
RTVSPropertyOp9
 70
     1
102
RTVSPropertyOp10
 70
     1
102
RTVSPropertyOp11
 70
     1
102
RTVSPropertyOp12
 70
     1
102
RTVSPropertyOp13
 70
     1
102
RTVSPropertyOp14
 70
     1
102
RTVSPropertyOp15
 70
     1
102
RTVSPropertyOp16
 70
     1
102
RTVSPropertyOp17
 70
     1
102
RTVSPropertyOp18
 70
     1
102
RTVSPropertyOp19
 70
     1
102
RTVSPropertyOp20
 70
     1
102
RTVSPropertyOp21
 70
     1
102
RTVSPropertyOp22
 70
     1
102
RTVSPropertyOp23
 70
     1
102
RTVSPropertyOp24
 70
     1
102
RTVSPropertyOp25
 70
     1
102
RTVSPropertyOp26
 70
     1
102
RTVSPropertyOp27
 70
     1
102
RTVSPropertyOp28
 70
     1
102
RTVSPropertyOp29
 70
     1
102
RTVSPropertyOp30
 70
     1
102
RTVSPropertyOp31
 70
     1
102
RTVSPropertyOp32
 70
     1
  0
XRECORD
  5
5A
102
{ACAD_REACTORS
330
59
102
}
330
59
100
AcDbXrecord
280
     1
102
RTVSPropertyOp0
 70
     1
102
RTVSPropertyOp1
 70
     1
102
RTVSPropertyOp2
 70
     1
102
RTVSPropertyOp3
 70
     1
102
RTVSPropertyOp4
 70
     1
102
RTVSPropertyOp5
 70
     1
102
RTVSPropertyOp6
 70
     1
102
RTVSPropertyOp7
 70
     1
102
RTVSPropertyOp8
 70
     1
102
RTVSPropertyOp9
 70
     1
102
RTVSPropertyOp10
 70
     1
102
RTVSPropertyOp11
 70
     1
102
RTVSPropertyOp12
 70
     1
102
RTVSPropertyOp13
 70
     1
102
RTVSPropertyOp14
 70
     1
102
RTVSPropertyOp15
 70
     1
102
RTVSPropertyOp16
 70
     1
102
RTVSPropertyOp17
 70
     1
102
RTVSPropertyOp18
 70
     1
102
RTVSPropertyOp19
 70
     1
102
RTVSPropertyOp20
 70
     1
102
RTVSPropertyOp21
 70
     1
102
RTVSPropertyOp22
 70
     1
102
RTVSPropertyOp23
 70
     1
102
RTVSPropertyOp24
 70
     1
102
RTVSPropertyOp25
 70
     1
102
RTVSPropertyOp26
 70
     1
102
RTVSPropertyOp27
 70
     1
102
RTVSPropertyOp28
 70
     1
102
RTVSPropertyOp29
 70
     1
102
RTVSPropertyOp30
 70
     1
102
RTVSPropertyOp31
 70
     1
102
RTVSPropertyOp32
 70
     1
  0
XRECORD
  5
62
102
{ACAD_REACTORS
330
61
102
}
330
61
100
AcDbXrecord
280
     1
102
RTVSPropertyOp0
 70
     1
102
RTVSPropertyOp1
 70
     1
102
RTVSPropertyOp2
 70
     1
102
RTVSPropertyOp3
 70
     1
102
RTVSPropertyOp4
 70
     1
102
RTVSPropertyOp5
 70
     1
102
RTVSPropertyOp6
 70
     1
102
RTVSPropertyOp7
 70
     1
102
RTVSPropertyOp8
 70
     1
102
RTVSPropertyOp9
 70
     1
102
RTVSPropertyOp10
 70
     1
102
RTVSPropertyOp11
 70
     1
102
RTVSPropertyOp12
 70
     1
102
RTVSPropertyOp13
 70
     1
102
RTVSPropertyOp14
 70
     1
102
RTVSPropertyOp15
 70
     1
102
RTVSPropertyOp16
 70
     1
102
RTVSPropertyOp17
 70
     1
102
RTVSPropertyOp18
 70
     1
102
RTVSPropertyOp19
 70
     1
102
RTVSPropertyOp20
 70
     1
102
RTVSPropertyOp21
 70
     1
102
RTVSPropertyOp22
 70
     1
102
RTVSPropertyOp23
 70
     1
102
RTVSPropertyOp24
 70
     1
102
RTVSPropertyOp25
 70
     1
102
RTVSPropertyOp26
 70
     1
102
RTVSPropertyOp27
 70
     1
102
RTVSPropertyOp28
 70
     1
102
RTVSPropertyOp29
 70
     1
102
RTVSPropertyOp30
 70
     1
102
RTVSPropertyOp31
 70
     1
102
RTVSPropertyOp32
 70
     1
  0
XRECORD
  5
56
102
{ACAD_REACTORS
330
55
102
}
330
55
100
AcDbXrecord
280
     1
102
RTVSPropertyOp0
 70
     1
102
RTVSPropertyOp1
 70
     1
102
RTVSPropertyOp2
 70
     1
102
RTVSPropertyOp3
 70
     1
102
RTVSPropertyOp4
 70
     1
102
RTVSPropertyOp5
 70
     1
102
RTVSPropertyOp6
 70
     1
102
RTVSPropertyOp7
 70
     1
102
RTVSPropertyOp8
 70
     1
102
RTVSPropertyOp9
 70
     1
102
RTVSPropertyOp10
 70
     1
102
RTVSPropertyOp11
 70
     1
102
RTVSPropertyOp12
 70
     1
102
RTVSPropertyOp13
 70
     1
102
RTVSPropertyOp14
 70
     1
102
RTVSPropertyOp15
 70
     1
102
RTVSPropertyOp16
 70
     1
102
RTVSPropertyOp17
 70
     1
102
RTVSPropertyOp18
 70
     1
102
RTVSPropertyOp19
 70
     1
102
RTVSPropertyOp20
 70
     1
102
RTVSPropertyOp21
 70
     1
102
RTVSPropertyOp22
 70
     1
102
RTVSPropertyOp23
 70
     1
102
RTVSPropertyOp24
 70
     1
102
RTVSPropertyOp25
 70
     1
102
RTVSPropertyOp26
 70
     1
102
RTVSPropertyOp27
 70
     1
102
RTVSPropertyOp28
 70
     1
102
RTVSPropertyOp29
 70
     1
102
RTVSPropertyOp30
 70
     1
102
RTVSPropertyOp31
 70
     1
102
RTVSPropertyOp32
 70
     1
  0
XRECORD
  5
58
102
{ACAD_REACTORS
330
57
102
}
330
57
100
AcDbXrecord
280
     1
102
RTVSPropertyOp0
 70
     1
102
RTVSPropertyOp1
 70
     1
102
RTVSPropertyOp2
 70
     1
102
RTVSPropertyOp3
 70
     1
102
RTVSPropertyOp4
 70
     1
102
RTVSPropertyOp5
 70
     1
102
RTVSPropertyOp6
 70
     1
102
RTVSPropertyOp7
 70
     1
102
RTVSPropertyOp8
 70
     1
102
RTVSPropertyOp9
 70
     1
102
RTVSPropertyOp10
 70
     1
102
RTVSPropertyOp11
 70
     1
102
RTVSPropertyOp12
 70
     1
102
RTVSPropertyOp13
 70
     1
102
RTVSPropertyOp14
 70
     1
102
RTVSPropertyOp15
 70
     1
102
RTVSPropertyOp16
 70
     1
102
RTVSPropertyOp17
 70
     1
102
RTVSPropertyOp18
 70
     1
102
RTVSPropertyOp19
 70
     1
102
RTVSPropertyOp20
 70
     1
102
RTVSPropertyOp21
 70
     1
102
RTVSPropertyOp22
 70
     1
102
RTVSPropertyOp23
 70
     1
102
RTVSPropertyOp24
 70
     1
102
RTVSPropertyOp25
 70
     1
102
RTVSPropertyOp26
 70
     1
102
RTVSPropertyOp27
 70
     1
102
RTVSPropertyOp28
 70
     1
102
RTVSPropertyOp29
 70
     1
102
RTVSPropertyOp30
 70
     1
102
RTVSPropertyOp31
 70
     1
102
RTVSPropertyOp32
 70
     1
  0
XRECORD
  5
60
102
{ACAD_REACTORS
330
5F
102
}
330
5F
100
AcDbXrecord
280
     1
102
RTVSPropertyOp0
 70
     1
102
RTVSPropertyOp1
 70
     1
102
RTVSPropertyOp2
 70
     1
102
RTVSPropertyOp3
 70
     1
102
RTVSPropertyOp4
 70
     1
102
RTVSPropertyOp5
 70
     1
102
RTVSPropertyOp6
 70
     1
102
RTVSPropertyOp7
 70
     1
102
RTVSPropertyOp8
 70
     1
102
RTVSPropertyOp9
 70
     1
102
RTVSPropertyOp10
 70
     1
102
RTVSPropertyOp11
 70
     1
102
RTVSPropertyOp12
 70
     1
102
RTVSPropertyOp13
 70
     1
102
RTVSPropertyOp14
 70
     1
102
RTVSPropertyOp15
 70
     1
102
RTVSPropertyOp16
 70
     1
102
RTVSPropertyOp17
 70
     1
102
RTVSPropertyOp18
 70
     1
102
RTVSPropertyOp19
 70
     1
102
RTVSPropertyOp20
 70
     1
102
RTVSPropertyOp21
 70
     1
102
RTVSPropertyOp22
 70
     1
102
RTVSPropertyOp23
 70
     1
102
RTVSPropertyOp24
 70
     1
102
RTVSPropertyOp25
 70
     1
102
RTVSPropertyOp26
 70
     1
102
RTVSPropertyOp27
 70
     1
102
RTVSPropertyOp28
 70
     1
102
RTVSPropertyOp29
 70
     1
102
RTVSPropertyOp30
 70
     1
102
RTVSPropertyOp31
 70
     1
102
RTVSPropertyOp32
 70
     1
  0
XRECORD
  5
44
102
{ACAD_REACTORS
330
43
102
}
330
43
100
AcDbXrecord
280
     1
102
RTVSPropertyOp0
 70
     1
102
RTVSPropertyOp1
 70
     1
102
RTVSPropertyOp2
 70
     1
102
RTVSPropertyOp3
 70
     1
102
RTVSPropertyOp4
 70
     1
102
RTVSPropertyOp5
 70
     1
102
RTVSPropertyOp6
 70
     1
102
RTVSPropertyOp7
 70
     1
102
RTVSPropertyOp8
 70
     1
102
RTVSPropertyOp9
 70
     1
102
RTVSPropertyOp10
 70
     1
102
RTVSPropertyOp11
 70
     1
102
RTVSPropertyOp12
 70
     1
102
RTVSPropertyOp13
 70
     1
102
RTVSPropertyOp14
 70
     1
102
RTVSPropertyOp15
 70
     1
102
RTVSPropertyOp16
 70
     1
102
RTVSPropertyOp17
 70
     1
102
RTVSPropertyOp18
 70
     1
102
RTVSPropertyOp19
 70
     1
102
RTVSPropertyOp20
 70
     1
102
RTVSPropertyOp21
 70
     1
102
RTVSPropertyOp22
 70
     1
102
RTVSPropertyOp23
 70
     1
102
RTVSPropertyOp24
 70
     1
102
RTVSPropertyOp25
 70
     1
102
RTVSPropertyOp26
 70
     1
102
RTVSPropertyOp27
 70
     1
102
RTVSPropertyOp28
 70
     1
102
RTVSPropertyOp29
 70
     1
102
RTVSPropertyOp30
 70
     1
102
RTVSPropertyOp31
 70
     1
102
RTVSPropertyOp32
 70
     1
  0
XRECORD
  5
46
102
{ACAD_REACTORS
330
45
102
}
330
45
100
AcDbXrecord
280
     1
102
RTVSPropertyOp0
 70
     1
102
RTVSPropertyOp1
 70
     1
102
RTVSPropertyOp2
 70
     1
102
RTVSPropertyOp3
 70
     1
102
RTVSPropertyOp4
 70
     1
102
RTVSPropertyOp5
 70
     1
102
RTVSPropertyOp6
 70
     1
102
RTVSPropertyOp7
 70
     1
102
RTVSPropertyOp8
 70
     1
102
RTVSPropertyOp9
 70
     1
102
RTVSPropertyOp10
 70
     1
102
RTVSPropertyOp11
 70
     1
102
RTVSPropertyOp12
 70
     1
102
RTVSPropertyOp13
 70
     1
102
RTVSPropertyOp14
 70
     1
102
RTVSPropertyOp15
 70
     1
102
RTVSPropertyOp16
 70
     1
102
RTVSPropertyOp17
 70
     1
102
RTVSPropertyOp18
 70
     1
102
RTVSPropertyOp19
 70
     1
102
RTVSPropertyOp20
 70
     1
102
RTVSPropertyOp21
 70
     1
102
RTVSPropertyOp22
 70
     1
102
RTVSPropertyOp23
 70
     1
102
RTVSPropertyOp24
 70
     1
102
RTVSPropertyOp25
 70
     1
102
RTVSPropertyOp26
 70
     1
102
RTVSPropertyOp27
 70
     1
102
RTVSPropertyOp28
 70
     1
102
RTVSPropertyOp29
 70
     1
102
RTVSPropertyOp30
 70
     1
102
RTVSPropertyOp31
 70
     1
102
RTVSPropertyOp32
 70
     1
  0
XRECORD
  5
48
102
{ACAD_REACTORS
330
47
102
}
330
47
100
AcDbXrecord
280
     1
102
RTVSPropertyOp0
 70
     1
102
RTVSPropertyOp1
 70
     1
102
RTVSPropertyOp2
 70
     1
102
RTVSPropertyOp3
 70
     1
102
RTVSPropertyOp4
 70
     1
102
RTVSPropertyOp5
 70
     1
102
RTVSPropertyOp6
 70
     1
102
RTVSPropertyOp7
 70
     1
102
RTVSPropertyOp8
 70
     1
102
RTVSPropertyOp9
 70
     1
102
RTVSPropertyOp10
 70
     1
102
RTVSPropertyOp11
 70
     1
102
RTVSPropertyOp12
 70
     1
102
RTVSPropertyOp13
 70
     1
102
RTVSPropertyOp14
 70
     1
102
RTVSPropertyOp15
 70
     1
102
RTVSPropertyOp16
 70
     1
102
RTVSPropertyOp17
 70
     1
102
RTVSPropertyOp18
 70
     1
102
RTVSPropertyOp19
 70
     1
102
RTVSPropertyOp20
 70
     1
102
RTVSPropertyOp21
 70
     1
102
RTVSPropertyOp22
 70
     1
102
RTVSPropertyOp23
 70
     1
102
RTVSPropertyOp24
 70
     1
102
RTVSPropertyOp25
 70
     1
102
RTVSPropertyOp26
 70
     1
102
RTVSPropertyOp27
 70
     1
102
RTVSPropertyOp28
 70
     1
102
RTVSPropertyOp29
 70
     1
102
RTVSPropertyOp30
 70
     1
102
RTVSPropertyOp31
 70
     1
102
RTVSPropertyOp32
 70
     1
  0
XRECORD
  5
4A
102
{ACAD_REACTORS
330
49
102
}
330
49
100
AcDbXrecord
280
     1
102
RTVSPropertyOp0
 70
     1
102
RTVSPropertyOp1
 70
     1
102
RTVSPropertyOp2
 70
     1
102
RTVSPropertyOp3
 70
     1
102
RTVSPropertyOp4
 70
     1
102
RTVSPropertyOp5
 70
     1
102
RTVSPropertyOp6
 70
     1
102
RTVSPropertyOp7
 70
     1
102
RTVSPropertyOp8
 70
     1
102
RTVSPropertyOp9
 70
     1
102
RTVSPropertyOp10
 70
     1
102
RTVSPropertyOp11
 70
     1
102
RTVSPropertyOp12
 70
     1
102
RTVSPropertyOp13
 70
     1
102
RTVSPropertyOp14
 70
     1
102
RTVSPropertyOp15
 70
     1
102
RTVSPropertyOp16
 70
     1
102
RTVSPropertyOp17
 70
     1
102
RTVSPropertyOp18
 70
     1
102
RTVSPropertyOp19
 70
     1
102
RTVSPropertyOp20
 70
     1
102
RTVSPropertyOp21
 70
     1
102
RTVSPropertyOp22
 70
     1
102
RTVSPropertyOp23
 70
     1
102
RTVSPropertyOp24
 70
     1
102
RTVSPropertyOp25
 70
     1
102
RTVSPropertyOp26
 70
     1
102
RTVSPropertyOp27
 70
     1
102
RTVSPropertyOp28
 70
     1
102
RTVSPropertyOp29
 70
     1
102
RTVSPropertyOp30
 70
     1
102
RTVSPropertyOp31
 70
     1
102
RTVSPropertyOp32
 70
     1
  0
XRECORD
  5
5E
102
{ACAD_REACTORS
330
5D
102
}
330
5D
100
AcDbXrecord
280
     1
102
RTVSPropertyOp0
 70
     1
102
RTVSPropertyOp1
 70
     1
102
RTVSPropertyOp2
 70
     1
102
RTVSPropertyOp3
 70
     1
102
RTVSPropertyOp4
 70
     1
102
RTVSPropertyOp5
 70
     1
102
RTVSPropertyOp6
 70
     1
102
RTVSPropertyOp7
 70
     1
102
RTVSPropertyOp8
 70
     1
102
RTVSPropertyOp9
 70
     1
102
RTVSPropertyOp10
 70
     1
102
RTVSPropertyOp11
 70
     1
102
RTVSPropertyOp12
 70
     1
102
RTVSPropertyOp13
 70
     1
102
RTVSPropertyOp14
 70
     1
102
RTVSPropertyOp15
 70
     1
102
RTVSPropertyOp16
 70
     1
102
RTVSPropertyOp17
 70
     1
102
RTVSPropertyOp18
 70
     1
102
RTVSPropertyOp19
 70
     1
102
RTVSPropertyOp20
 70
     1
102
RTVSPropertyOp21
 70
     1
102
RTVSPropertyOp22
 70
     1
102
RTVSPropertyOp23
 70
     1
102
RTVSPropertyOp24
 70
     1
102
RTVSPropertyOp25
 70
     1
102
RTVSPropertyOp26
 70
     1
102
RTVSPropertyOp27
 70
     1
102
RTVSPropertyOp28
 70
     1
102
RTVSPropertyOp29
 70
     1
102
RTVSPropertyOp30
 70
     1
102
RTVSPropertyOp31
 70
     1
102
RTVSPropertyOp32
 70
     1
  0
XRECORD
  5
54
102
{ACAD_REACTORS
330
53
102
}
330
53
100
AcDbXrecord
280
     1
102
RTVSPropertyOp0
 70
     1
102
RTVSPropertyOp1
 70
     1
102
RTVSPropertyOp2
 70
     1
102
RTVSPropertyOp3
 70
     1
102
RTVSPropertyOp4
 70
     1
102
RTVSPropertyOp5
 70
     1
102
RTVSPropertyOp6
 70
     1
102
RTVSPropertyOp7
 70
     1
102
RTVSPropertyOp8
 70
     1
102
RTVSPropertyOp9
 70
     1
102
RTVSPropertyOp10
 70
     1
102
RTVSPropertyOp11
 70
     1
102
RTVSPropertyOp12
 70
     1
102
RTVSPropertyOp13
 70
     1
102
RTVSPropertyOp14
 70
     1
102
RTVSPropertyOp15
 70
     1
102
RTVSPropertyOp16
 70
     1
102
RTVSPropertyOp17
 70
     1
102
RTVSPropertyOp18
 70
     1
102
RTVSPropertyOp19
 70
     1
102
RTVSPropertyOp20
 70
     1
102
RTVSPropertyOp21
 70
     1
102
RTVSPropertyOp22
 70
     1
102
RTVSPropertyOp23
 70
     1
102
RTVSPropertyOp24
 70
     1
102
RTVSPropertyOp25
 70
     1
102
RTVSPropertyOp26
 70
     1
102
RTVSPropertyOp27
 70
     1
102
RTVSPropertyOp28
 70
     1
102
RTVSPropertyOp29
 70
     1
102
RTVSPropertyOp30
 70
     1
102
RTVSPropertyOp31
 70
     1
102
RTVSPropertyOp32
 70
     1
  0
XRECORD
  5
5C
102
{ACAD_REACTORS
330
5B
102
}
330
5B
100
AcDbXrecord
280
     1
102
RTVSPropertyOp0
 70
     1
102
RTVSPropertyOp1
 70
     1
102
RTVSPropertyOp2
 70
     1
102
RTVSPropertyOp3
 70
     1
102
RTVSPropertyOp4
 70
     1
102
RTVSPropertyOp5
 70
     1
102
RTVSPropertyOp6
 70
     1
102
RTVSPropertyOp7
 70
     1
102
RTVSPropertyOp8
 70
     1
102
RTVSPropertyOp9
 70
     1
102
RTVSPropertyOp10
 70
     1
102
RTVSPropertyOp11
 70
     1
102
RTVSPropertyOp12
 70
     1
102
RTVSPropertyOp13
 70
     1
102
RTVSPropertyOp14
 70
     1
102
RTVSPropertyOp15
 70
     1
102
RTVSPropertyOp16
 70
     1
102
RTVSPropertyOp17
 70
     1
102
RTVSPropertyOp18
 70
     1
102
RTVSPropertyOp19
 70
     1
102
RTVSPropertyOp20
 70
     1
102
RTVSPropertyOp21
 70
     1
102
RTVSPropertyOp22
 70
     1
102
RTVSPropertyOp23
 70
     1
102
RTVSPropertyOp24
 70
     1
102
RTVSPropertyOp25
 70
     1
102
RTVSPropertyOp26
 70
     1
102
RTVSPropertyOp27
 70
     1
102
RTVSPropertyOp28
 70
     1
102
RTVSPropertyOp29
 70
     1
102
RTVSPropertyOp30
 70
     1
102
RTVSPropertyOp31
 70
     1
102
RTVSPropertyOp32
 70
     1
  0
ENDSEC
  0
EOF
