  0
SECTION
  2
HEADER
  9
$ACADVER
  1
AC1021
  9
$ACADMAINTVER
 70
    25
  9
$DWGCODEPAGE
  3
ANSI_1252
  9
$INSBASE
 10
0.0
 20
0.0
 30
0.0
  9
$EXTMIN
 10
1.000000000000000E+20
 20
1.000000000000000E+20
 30
1.000000000000000E+20
  9
$EXTMAX
 10
-1.000000000000000E+20
 20
-1.000000000000000E+20
 30
-1.000000000000000E+20
  9
$LIMMIN
 10
0.0
 20
0.0
  9
$LIMMAX
 10
12.0
 20
9.0
  9
$ORTHOMODE
 70
     0
  9
$REGENMODE
 70
     1
  9
$FILLMODE
 70
     1
  9
$QTEXTMODE
 70
     0
  9
$MIRRTEXT
 70
     1
  9
$LTSCALE
 40
1.0
  9
$ATTMODE
 70
     1
  9
$TEXTSIZE
 40
0.2
  9
$TRACEWID
 40
0.05
  9
$TEXTSTYLE
  7
Standard
  9
$CLAYER
  8
0
  9
$CELTYPE
  6
ByLayer
  9
$CECOLOR
 62
   256
  9
$CELTSCALE
 40
1.0
  9
$DISPSILH
 70
     0
  9
$DIMSCALE
 40
1.0
  9
$DIMASZ
 40
0.18
  9
$DIMEXO
 40
0.0625
  9
$DIMDLI
 40
0.38
  9
$DIMRND
 40
0.0
  9
$DIMDLE
 40
0.0
  9
$DIMEXE
 40
0.18
  9
$DIMTP
 40
0.0
  9
$DIMTM
 40
0.0
  9
$DIMTXT
 40
0.18
  9
$DIMCEN
 40
0.09
  9
$DIMTSZ
 40
0.0
  9
$DIMTOL
 70
     0
  9
$DIMLIM
 70
     0
  9
$DIMTIH
 70
     1
  9
$DIMTOH
 70
     1
  9
$DIMSE1
 70
     0
  9
$DIMSE2
 70
     0
  9
$DIMTAD
 70
     0
  9
$DIMZIN
 70
     0
  9
$DIMBLK
  1

  9
$DIMASO
 70
     1
  9
$DIMSHO
 70
     1
  9
$DIMPOST
  1

  9
$DIMAPOST
  1

  9
$DIMALT
 70
     0
  9
$DIMALTD
 70
     2
  9
$DIMALTF
 40
25.4
  9
$DIMLFAC
 40
1.0
  9
$DIMTOFL
 70
     0
  9
$DIMTVP
 40
0.0
  9
$DIMTIX
 70
     0
  9
$DIMSOXD
 70
     0
  9
$DIMSAH
 70
     0
  9
$DIMBLK1
  1

  9
$DIMBLK2
  1

  9
$DIMSTYLE
  2
Standard
  9
$DIMCLRD
 70
     0
  9
$DIMCLRE
 70
     0
  9
$DIMCLRT
 70
     0
  9
$DIMTFAC
 40
1.0
  9
$DIMGAP
 40
0.09
  9
$DIMJUST
 70
     0
  9
$DIMSD1
 70
     0
  9
$DIMSD2
 70
     0
  9
$DIMTOLJ
 70
     1
  9
$DIMTZIN
 70
     0
  9
$DIMALTZ
 70
     0
  9
$DIMALTTZ
 70
     0
  9
$DIMUPT
 70
     0
  9
$DIMDEC
 70
     4
  9
$DIMTDEC
 70
     4
  9
$DIMALTU
 70
     2
  9
$DIMALTTD
 70
     2
  9
$DIMTXSTY
  7
Standard
  9
$DIMAUNIT
 70
     0
  9
$DIMADEC
 70
     0
  9
$DIMALTRND
 40
0.0
  9
$DIMAZIN
 70
     0
  9
$DIMDSEP
 70
    46
  9
$DIMATFIT
 70
     3
  9
$DIMFRAC
 70
     0
  9
$DIMLDRBLK
  1

  9
$DIMLUNIT
 70
     2
  9
$DIMLWD
 70
    -2
  9
$DIMLWE
 70
    -2
  9
$DIMTMOVE
 70
     0
  9
$DIMFXL
 40
1.0
  9
$DIMFXLON
 70
     0
  9
$DIMJOGANG
 40
0.7853981633974483
  9
$DIMTFILL
 70
     0
  9
$DIMTFILLCLR
 70
     0
  9
$DIMARCSYM
 70
     0
  9
$DIMLTYPE
  6

  9
$DIMLTEX1
  6

  9
$DIMLTEX2
  6

  9
$LUNITS
 70
     2
  9
$LUPREC
 70
     4
  9
$SKETCHINC
 40
0.1
  9
$FILLETRAD
 40
0.5
  9
$AUNITS
 70
     0
  9
$AUPREC
 70
     0
  9
$MENU
  1
.
  9
$ELEVATION
 40
0.0
  9
$PELEVATION
 40
0.0
  9
$THICKNESS
 40
0.0
  9
$LIMCHECK
 70
     0
  9
$CHAMFERA
 40
0.5
  9
$CHAMFERB
 40
0.5
  9
$CHAMFERC
 40
1.0
  9
$CHAMFERD
 40
0.0
  9
$SKPOLY
 70
     0
  9
$TDCREATE
 40
2458551.626362894
  9
$TDUCREATE
 40
2458551.334696227
  9
$TDUPDATE
 40
2458551.626362894
  9
$TDUUPDATE
 40
2458551.334696227
  9
$TDINDWG
 40
0.0000000116
  9
$TDUSRTIMER
 40
0.0000000116
  9
$USRTIMER
 70
     1
  9
$ANGBASE
 50
0.0
  9
$ANGDIR
 70
     0
  9
$PDMODE
 70
     0
  9
$PDSIZE
 40
0.0
  9
$PLINEWID
 40
0.0
  9
$SPLFRAME
 70
     0
  9
$SPLINETYPE
 70
     6
  9
$SPLINESEGS
 70
     8
  9
$HANDSEED
  5
66
  9
$SURFTAB1
 70
     6
  9
$SURFTAB2
 70
     6
  9
$SURFTYPE
 70
     6
  9
$SURFU
 70
     6
  9
$SURFV
 70
     6
  9
$UCSBASE
  2

  9
$UCSNAME
  2

  9
$UCSORG
 10
0.0
 20
0.0
 30
0.0
  9
$UCSXDIR
 10
1.0
 20
0.0
 30
0.0
  9
$UCSYDIR
 10
0.0
 20
1.0
 30
0.0
  9
$UCSORTHOREF
  2

  9
$UCSORTHOVIEW
 70
     0
  9
$UCSORGTOP
 10
0.0
 20
0.0
 30
0.0
  9
$UCSORGBOTTOM
 10
0.0
 20
0.0
 30
0.0
  9
$UCSORGLEFT
 10
0.0
 20
0.0
 30
0.0
  9
$UCSORGRIGHT
 10
0.0
 20
0.0
 30
0.0
  9
$UCSORGFRONT
 10
0.0
 20
0.0
 30
0.0
  9
$UCSORGBACK
 10
0.0
 20
0.0
 30
0.0
  9
$PUCSBASE
  2

  9
$PUCSNAME
  2

  9
$PUCSORG
 10
0.0
 20
0.0
 30
0.0
  9
$PUCSXDIR
 10
1.0
 20
0.0
 30
0.0
  9
$PUCSYDIR
 10
0.0
 20
1.0
 30
0.0
  9
$PUCSORTHOREF
  2

  9
$PUCSORTHOVIEW
 70
     0
  9
$PUCSORGTOP
 10
0.0
 20
0.0
 30
0.0
  9
$PUCSORGBOTTOM
 10
0.0
 20
0.0
 30
0.0
  9
$PUCSORGLEFT
 10
0.0
 20
0.0
 30
0.0
  9
$PUCSORGRIGHT
 10
0.0
 20
0.0
 30
0.0
  9
$PUCSORGFRONT
 10
0.0
 20
0.0
 30
0.0
  9
$PUCSORGBACK
 10
0.0
 20
0.0
 30
0.0
  9
$USERI1
 70
     0
  9
$USERI2
 70
     0
  9
$USERI3
 70
     0
  9
$USERI4
 70
     0
  9
$USERI5
 70
     0
  9
$USERR1
 40
0.0
  9
$USERR2
 40
0.0
  9
$USERR3
 40
0.0
  9
$USERR4
 40
0.0
  9
$USERR5
 40
0.0
  9
$WORLDVIEW
 70
     1
  9
$SHADEDGE
 70
     3
  9
$SHADEDIF
 70
    70
  9
$TILEMODE
 70
     1
  9
$MAXACTVP
 70
    64
  9
$PINSBASE
 10
0.0
 20
0.0
 30
0.0
  9
$PLIMCHECK
 70
     0
  9
$PEXTMIN
 10
1.000000000000000E+20
 20
1.000000000000000E+20
 30
1.000000000000000E+20
  9
$PEXTMAX
 10
-1.000000000000000E+20
 20
-1.000000000000000E+20
 30
-1.000000000000000E+20
  9
$PLIMMIN
 10
0.0
 20
0.0
  9
$PLIMMAX
 10
12.0
 20
9.0
  9
$UNITMODE
 70
     0
  9
$VISRETAIN
 70
     1
  9
$PLINEGEN
 70
     0
  9
$PSLTSCALE
 70
     1
  9
$TREEDEPTH
 70
  3020
  9
$CMLSTYLE
  2
Standard
  9
$CMLJUST
 70
     0
  9
$CMLSCALE
 40
1.0
  9
$PROXYGRAPHICS
 70
     1
  9
$MEASUREMENT
 70
     0
  9
$CELWEIGHT
370
    -1
  9
$ENDCAPS
280
     0
  9
$JOINSTYLE
280
     0
  9
$LWDISPLAY
290
     1
  9
$INSUNITS
 70
     1
  9
$HYPERLINKBASE
  1

  9
$STYLESHEET
  1

  9
$XEDIT
290
     1
  9
$CEPSNTYPE
380
     0
  9
$PSTYLEMODE
290
     1
  9
$FINGERPRINTGUID
  2
{3E4276AF-77C1-41B0-B59C-AF887677DF4D}
  9
$VERSIONGUID
  2
{FAEB1C32-E019-11D5-929B-00C0DF256EC4}
  9
$EXTNAMES
290
     1
  9
$PSVPSCALE
 40
0.0
  9
$OLESTARTUP
290
     0
  9
$SORTENTS
280
   127
  9
$INDEXCTL
280
     0
  9
$HIDETEXT
280
     1
  9
$XCLIPFRAME
290
     0
  9
$HALOGAP
280
     0
  9
$OBSCOLOR
 70
   257
  9
$OBSLTYPE
280
     0
  9
$INTERSECTIONDISPLAY
280
     0
  9
$INTERSECTIONCOLOR
 70
   257
  9
$DIMASSOC
280
     2
  9
$PROJECTNAME
  1

  9
$CAMERADISPLAY
290
     0
  9
$LENSLENGTH
 40
50.0
  9
$CAMERAHEIGHT
 40
0.0
  9
$STEPSPERSEC
 40
2.0
  9
$STEPSIZE
 40
6.0
  9
$3DDWFPREC
 40
2.0
  9
$PSOLWIDTH
 40
0.25
  9
$PSOLHEIGHT
 40
4.0
  9
$LOFTANG1
 40
1.570796326794897
  9
$LOFTANG2
 40
1.570796326794897
  9
$LOFTMAG1
 40
0.0
  9
$LOFTMAG2
 40
0.0
  9
$LOFTPARAM
 70
     7
  9
$LOFTNORMALS
280
     1
  9
$LATITUDE
 40
37.795
  9
$LONGITUDE
 40
-122.394
  9
$NORTHDIRECTION
 40
0.0
  9
$TIMEZONE
 70
 -8000
  9
$LIGHTGLYPHDISPLAY
280
     1
  9
$TILEMODELIGHTSYNCH
280
     1
  9
$CMATERIAL
347
3C
  9
$SOLIDHIST
280
     1
  9
$SHOWHIST
280
     1
  9
$DWFFRAME
280
     2
  9
$DGNFRAME
280
     2
  9
$REALWORLDSCALE
290
     1
  9
$INTERFERECOLOR
 62
   256
  9
$CSHADOW
280
     0
  9
$SHADOWPLANELOCATION
 40
0.0
  0
ENDSEC
  0
SECTION
  2
CLASSES
  0
CLASS
  1
ACDBDICTIONARYWDFLT
  2
AcDbDictionaryWithDefault
  3
ObjectDBX Classes
 90
        0
 91
        4
280
     0
281
     0
  0
CLASS
  1
VISUALSTYLE
  2
AcDbVisualStyle
  3
ObjectDBX Classes
 90
     4095
 91
        4
280
     0
281
     0
  0
CLASS
  1
MATERIAL
  2
AcDbMaterial
  3
ObjectDBX Classes
 90
     1153
 91
        4
280
     0
281
     0
  0
CLASS
  1
SUN
  2
AcDbSun
  3
SCENEOE
 90
     1024
 91
        4
280
     0
281
     0
  0
ENDSEC
  0
SECTION
  2
TABLES
  0
TABLE
  2
VPORT
  5
8
330
0
100
AcDbSymbolTable
 70
     1
  0
VPORT
  5
29
330
8
100
AcDbSymbolTableRecord
100
AcDbViewportTableRecord
  2
*Active
 70
     0
 10
0.0
 20
0.0
 11
1.0
 21
1.0
 12
0.0
 22
0.0
 13
0.0
 23
0.0
 14
0.5
 24
0.5
 15
0.5
 25
0.5
 16
0.0
 26
0.0
 36
1.0
 17
39.99961911841359
 27
-39.99962012888904
 37
0.0
 40
79.99924025777808
 41
0.9999999747378738
 42
50.0
 43
0.0
 44
0.0
 50
0.0
 51
0.0
 71
     0
 72
   100
 73
     1
 74
     3
 75
     0
 76
     0
 77
     0
 78
     0
281
     0
 65
     1
110
0.0
120
0.0
130
0.0
111
1.0
121
0.0
131
0.0
112
0.0
122
1.0
132
0.0
 79
     0
146
0.0
 60
     3
 61
     5
292
     1
282
     1
141
0.0
142
0.0
 63
   250
361
3F
  0
ENDTAB
  0
TABLE
  2
LTYPE
  5
5
330
0
100
AcDbSymbolTable
 70
     1
  0
LTYPE
  5
14
330
5
100
AcDbSymbolTableRecord
100
AcDbLinetypeTableRecord
  2
ByBlock
 70
     0
  3

 72
    65
 73
     0
 40
0.0
  0
LTYPE
  5
15
330
5
100
AcDbSymbolTableRecord
100
AcDbLinetypeTableRecord
  2
ByLayer
 70
     0
  3

 72
    65
 73
     0
 40
0.0
  0
LTYPE
  5
16
330
5
100
AcDbSymbolTableRecord
100
AcDbLinetypeTableRecord
  2
Continuous
 70
     0
  3
Solid line
 72
    65
 73
     0
 40
0.0
  0
ENDTAB
  0
TABLE
  2
LAYER
  5
2
330
0
100
AcDbSymbolTable
 70
     2
  0
LAYER
  5
10
330
2
100
AcDbSymbolTableRecord
100
AcDbLayerTableRecord
  2
0
 70
     0
 62
     7
  6
Continuous
370
    -3
390
F
347
3E
  0
LAYER
  5
40
330
2
100
AcDbSymbolTableRecord
100
AcDbLayerTableRecord
  2
Layer 1
 70
     0
 62
     7
  6
Continuous
370
    -3
390
F
347
3E
  0
ENDTAB
  0
TABLE
  2
STYLE
  5
3
330
0
100
AcDbSymbolTable
 70
     1
  0
STYLE
  5
11
330
3
100
AcDbSymbolTableRecord
100
AcDbTextStyleTableRecord
  2
Standard
 70
     0
 40
0.0
 41
1.0
 50
0.0
 71
     0
 42
0.2
  3
txt
  4

  0
ENDTAB
  0
TABLE
  2
VIEW
  5
6
330
0
100
AcDbSymbolTable
 70
     0
  0
ENDTAB
  0
TABLE
  2
UCS
  5
7
330
0
100
AcDbSymbolTable
 70
     0
  0
ENDTAB
  0
TABLE
  2
APPID
  5
9
330
0
100
AcDbSymbolTable
 70
     1
  0
APPID
  5
12
330
9
100
AcDbSymbolTableRecord
100
AcDbRegAppTableRecord
  2
ACAD
 70
     0
  0
ENDTAB
  0
TABLE
  2
DIMSTYLE
  5
A
330
0
100
AcDbSymbolTable
 70
     1
100
AcDbDimStyleTable
  0
DIMSTYLE
105
27
330
A
100
AcDbSymbolTableRecord
100
AcDbDimStyleTableRecord
  2
Standard
 70
     0
178
     0
340
11
  0
ENDTAB
  0
TABLE
  2
BLOCK_RECORD
  5
1
330
0
100
AcDbSymbolTable
 70
     1
  0
BLOCK_RECORD
  5
1F
330
1
100
AcDbSymbolTableRecord
100
AcDbBlockTableRecord
  2
*Model_Space
340
22
 70
     0
280
     1
281
     0
  0
BLOCK_RECORD
  5
1B
330
1
100
AcDbSymbolTableRecord
100
AcDbBlockTableRecord
  2
*Paper_Space
340
1E
 70
     0
280
     1
281
     0
  0
BLOCK_RECORD
  5
23
330
1
100
AcDbSymbolTableRecord
100
AcDbBlockTableRecord
  2
*Paper_Space0
340
26
 70
     0
280
     1
281
     0
  0
ENDTAB
  0
ENDSEC
  0
SECTION
  2
BLOCKS
  0
BLOCK
  5
20
330
1F
100
AcDbEntity
  8
0
100
AcDbBlockBegin
  2
*Model_Space
 70
     0
 10
0.0
 20
0.0
 30
0.0
  3
*Model_Space
  1

  0
ENDBLK
  5
21
330
1F
100
AcDbEntity
  8
0
100
AcDbBlockEnd
  0
BLOCK
  5
1C
330
1B
100
AcDbEntity
 67
     1
  8
0
100
AcDbBlockBegin
  2
*Paper_Space
 70
     0
 10
0.0
 20
0.0
 30
0.0
  3
*Paper_Space
  1

  0
ENDBLK
  5
1D
330
1B
100
AcDbEntity
 67
     1
  8
0
100
AcDbBlockEnd
  0
BLOCK
  5
24
330
23
100
AcDbEntity
  8
0
100
AcDbBlockBegin
  2
*Paper_Space0
 70
     0
 10
0.0
 20
0.0
 30
0.0
  3
*Paper_Space0
  1

  0
ENDBLK
  5
25
330
23
100
AcDbEntity
  8
0
100
AcDbBlockEnd
  0
ENDSEC
  0
SECTION
  2
ENTITIES
  0
SPLINE
  5
41
330
1F
100
AcDbEntity
  8
Layer 1
370
     0
100
AcDbSpline
210
0.0
220
0.0
230
1.0
 70
    11
 71
     3
 72
   965
 73
   961
 74
     0
 42
0.0000000001
 43
0.0000000001
 12
1.0
 22
0.0
 32
0.0
 13
1.0
 23
0.0
 33
0.0
 40
0.0
 40
0.0
 40
0.0
 40
0.0
 40
1.0
 40
1.0
 40
1.0
 40
2.0
 40
2.0
 40
2.0
 40
3.0
 40
3.0
 40
3.0
 40
4.0
 40
4.0
 40
4.0
 40
5.0
 40
5.0
 40
5.0
 40
6.0
 40
6.0
 40
6.0
 40
7.0
 40
7.0
 40
7.0
 40
8.0
 40
8.0
 40
8.0
 40
9.0
 40
9.0
 40
9.0
 40
10.0
 40
10.0
 40
10.0
 40
11.0
 40
11.0
 40
11.0
 40
12.0
 40
12.0
 40
12.0
 40
13.0
 40
13.0
 40
13.0
 40
14.0
 40
14.0
 40
14.0
 40
15.0
 40
15.0
 40
15.0
 40
16.0
 40
16.0
 40
16.0
 40
17.0
 40
17.0
 40
17.0
 40
18.0
 40
18.0
 40
18.0
 40
19.0
 40
19.0
 40
19.0
 40
20.0
 40
20.0
 40
20.0
 40
21.0
 40
21.0
 40
21.0
 40
22.0
 40
22.0
 40
22.0
 40
23.0
 40
23.0
 40
23.0
 40
24.0
 40
24.0
 40
24.0
 40
25.0
 40
25.0
 40
25.0
 40
26.0
 40
26.0
 40
26.0
 40
27.0
 40
27.0
 40
27.0
 40
28.0
 40
28.0
 40
28.0
 40
29.0
 40
29.0
 40
29.0
 40
30.0
 40
30.0
 40
30.0
 40
31.0
 40
31.0
 40
31.0
 40
32.0
 40
32.0
 40
32.0
 40
33.0
 40
33.0
 40
33.0
 40
34.0
 40
34.0
 40
34.0
 40
35.0
 40
35.0
 40
35.0
 40
36.0
 40
36.0
 40
36.0
 40
37.0
 40
37.0
 40
37.0
 40
38.0
 40
38.0
 40
38.0
 40
39.0
 40
39.0
 40
39.0
 40
40.0
 40
40.0
 40
40.0
 40
41.0
 40
41.0
 40
41.0
 40
42.0
 40
42.0
 40
42.0
 40
43.0
 40
43.0
 40
43.0
 40
44.0
 40
44.0
 40
44.0
 40
45.0
 40
45.0
 40
45.0
 40
46.0
 40
46.0
 40
46.0
 40
47.0
 40
47.0
 40
47.0
 40
48.0
 40
48.0
 40
48.0
 40
49.0
 40
49.0
 40
49.0
 40
50.0
 40
50.0
 40
50.0
 40
51.0
 40
51.0
 40
51.0
 40
52.0
 40
52.0
 40
52.0
 40
53.0
 40
53.0
 40
53.0
 40
54.0
 40
54.0
 40
54.0
 40
55.0
 40
55.0
 40
55.0
 40
56.0
 40
56.0
 40
56.0
 40
57.0
 40
57.0
 40
57.0
 40
58.0
 40
58.0
 40
58.0
 40
59.0
 40
59.0
 40
59.0
 40
60.0
 40
60.0
 40
60.0
 40
61.0
 40
61.0
 40
61.0
 40
62.0
 40
62.0
 40
62.0
 40
63.0
 40
63.0
 40
63.0
 40
64.0
 40
64.0
 40
64.0
 40
65.0
 40
65.0
 40
65.0
 40
66.0
 40
66.0
 40
66.0
 40
67.0
 40
67.0
 40
67.0
 40
68.0
 40
68.0
 40
68.0
 40
69.0
 40
69.0
 40
69.0
 40
70.0
 40
70.0
 40
70.0
 40
71.0
 40
71.0
 40
71.0
 40
72.0
 40
72.0
 40
72.0
 40
73.0
 40
73.0
 40
73.0
 40
74.0
 40
74.0
 40
74.0
 40
75.0
 40
75.0
 40
75.0
 40
76.0
 40
76.0
 40
76.0
 40
77.0
 40
77.0
 40
77.0
 40
78.0
 40
78.0
 40
78.0
 40
79.0
 40
79.0
 40
79.0
 40
80.0
 40
80.0
 40
80.0
 40
81.0
 40
81.0
 40
81.0
 40
82.0
 40
82.0
 40
82.0
 40
83.0
 40
83.0
 40
83.0
 40
84.0
 40
84.0
 40
84.0
 40
85.0
 40
85.0
 40
85.0
 40
86.0
 40
86.0
 40
86.0
 40
87.0
 40
87.0
 40
87.0
 40
88.0
 40
88.0
 40
88.0
 40
89.0
 40
89.0
 40
89.0
 40
90.0
 40
90.0
 40
90.0
 40
91.0
 40
91.0
 40
91.0
 40
92.0
 40
92.0
 40
92.0
 40
93.0
 40
93.0
 40
93.0
 40
94.0
 40
94.0
 40
94.0
 40
95.0
 40
95.0
 40
95.0
 40
96.0
 40
96.0
 40
96.0
 40
97.0
 40
97.0
 40
97.0
 40
98.0
 40
98.0
 40
98.0
 40
99.0
 40
99.0
 40
99.0
 40
100.0
 40
100.0
 40
100.0
 40
101.0
 40
101.0
 40
101.0
 40
102.0
 40
102.0
 40
102.0
 40
103.0
 40
103.0
 40
103.0
 40
104.0
 40
104.0
 40
104.0
 40
105.0
 40
105.0
 40
105.0
 40
106.0
 40
106.0
 40
106.0
 40
107.0
 40
107.0
 40
107.0
 40
108.0
 40
108.0
 40
108.0
 40
109.0
 40
109.0
 40
109.0
 40
110.0
 40
110.0
 40
110.0
 40
111.0
 40
111.0
 40
111.0
 40
112.0
 40
112.0
 40
112.0
 40
113.0
 40
113.0
 40
113.0
 40
114.0
 40
114.0
 40
114.0
 40
115.0
 40
115.0
 40
115.0
 40
116.0
 40
116.0
 40
116.0
 40
117.0
 40
117.0
 40
117.0
 40
118.0
 40
118.0
 40
118.0
 40
119.0
 40
119.0
 40
119.0
 40
120.0
 40
120.0
 40
120.0
 40
121.0
 40
121.0
 40
121.0
 40
122.0
 40
122.0
 40
122.0
 40
123.0
 40
123.0
 40
123.0
 40
124.0
 40
124.0
 40
124.0
 40
125.0
 40
125.0
 40
125.0
 40
126.0
 40
126.0
 40
126.0
 40
127.0
 40
127.0
 40
127.0
 40
128.0
 40
128.0
 40
128.0
 40
129.0
 40
129.0
 40
129.0
 40
130.0
 40
130.0
 40
130.0
 40
131.0
 40
131.0
 40
131.0
 40
132.0
 40
132.0
 40
132.0
 40
133.0
 40
133.0
 40
133.0
 40
134.0
 40
134.0
 40
134.0
 40
135.0
 40
135.0
 40
135.0
 40
136.0
 40
136.0
 40
136.0
 40
137.0
 40
137.0
 40
137.0
 40
138.0
 40
138.0
 40
138.0
 40
139.0
 40
139.0
 40
139.0
 40
140.0
 40
140.0
 40
140.0
 40
141.0
 40
141.0
 40
141.0
 40
142.0
 40
142.0
 40
142.0
 40
143.0
 40
143.0
 40
143.0
 40
144.0
 40
144.0
 40
144.0
 40
145.0
 40
145.0
 40
145.0
 40
146.0
 40
146.0
 40
146.0
 40
147.0
 40
147.0
 40
147.0
 40
148.0
 40
148.0
 40
148.0
 40
149.0
 40
149.0
 40
149.0
 40
150.0
 40
150.0
 40
150.0
 40
151.0
 40
151.0
 40
151.0
 40
152.0
 40
152.0
 40
152.0
 40
153.0
 40
153.0
 40
153.0
 40
154.0
 40
154.0
 40
154.0
 40
155.0
 40
155.0
 40
155.0
 40
156.0
 40
156.0
 40
156.0
 40
157.0
 40
157.0
 40
157.0
 40
158.0
 40
158.0
 40
158.0
 40
159.0
 40
159.0
 40
159.0
 40
160.0
 40
160.0
 40
160.0
 40
161.0
 40
161.0
 40
161.0
 40
162.0
 40
162.0
 40
162.0
 40
163.0
 40
163.0
 40
163.0
 40
164.0
 40
164.0
 40
164.0
 40
165.0
 40
165.0
 40
165.0
 40
166.0
 40
166.0
 40
166.0
 40
167.0
 40
167.0
 40
167.0
 40
168.0
 40
168.0
 40
168.0
 40
169.0
 40
169.0
 40
169.0
 40
170.0
 40
170.0
 40
170.0
 40
171.0
 40
171.0
 40
171.0
 40
172.0
 40
172.0
 40
172.0
 40
173.0
 40
173.0
 40
173.0
 40
174.0
 40
174.0
 40
174.0
 40
175.0
 40
175.0
 40
175.0
 40
176.0
 40
176.0
 40
176.0
 40
177.0
 40
177.0
 40
177.0
 40
178.0
 40
178.0
 40
178.0
 40
179.0
 40
179.0
 40
179.0
 40
180.0
 40
180.0
 40
180.0
 40
181.0
 40
181.0
 40
181.0
 40
182.0
 40
182.0
 40
182.0
 40
183.0
 40
183.0
 40
183.0
 40
184.0
 40
184.0
 40
184.0
 40
185.0
 40
185.0
 40
185.0
 40
186.0
 40
186.0
 40
186.0
 40
187.0
 40
187.0
 40
187.0
 40
188.0
 40
188.0
 40
188.0
 40
189.0
 40
189.0
 40
189.0
 40
190.0
 40
190.0
 40
190.0
 40
191.0
 40
191.0
 40
191.0
 40
192.0
 40
192.0
 40
192.0
 40
193.0
 40
193.0
 40
193.0
 40
194.0
 40
194.0
 40
194.0
 40
195.0
 40
195.0
 40
195.0
 40
196.0
 40
196.0
 40
196.0
 40
197.0
 40
197.0
 40
197.0
 40
198.0
 40
198.0
 40
198.0
 40
199.0
 40
199.0
 40
199.0
 40
200.0
 40
200.0
 40
200.0
 40
201.0
 40
201.0
 40
201.0
 40
202.0
 40
202.0
 40
202.0
 40
203.0
 40
203.0
 40
203.0
 40
204.0
 40
204.0
 40
204.0
 40
205.0
 40
205.0
 40
205.0
 40
206.0
 40
206.0
 40
206.0
 40
207.0
 40
207.0
 40
207.0
 40
208.0
 40
208.0
 40
208.0
 40
209.0
 40
209.0
 40
209.0
 40
210.0
 40
210.0
 40
210.0
 40
211.0
 40
211.0
 40
211.0
 40
212.0
 40
212.0
 40
212.0
 40
213.0
 40
213.0
 40
213.0
 40
214.0
 40
214.0
 40
214.0
 40
215.0
 40
215.0
 40
215.0
 40
216.0
 40
216.0
 40
216.0
 40
217.0
 40
217.0
 40
217.0
 40
218.0
 40
218.0
 40
218.0
 40
219.0
 40
219.0
 40
219.0
 40
220.0
 40
220.0
 40
220.0
 40
221.0
 40
221.0
 40
221.0
 40
222.0
 40
222.0
 40
222.0
 40
223.0
 40
223.0
 40
223.0
 40
224.0
 40
224.0
 40
224.0
 40
225.0
 40
225.0
 40
225.0
 40
226.0
 40
226.0
 40
226.0
 40
227.0
 40
227.0
 40
227.0
 40
228.0
 40
228.0
 40
228.0
 40
229.0
 40
229.0
 40
229.0
 40
230.0
 40
230.0
 40
230.0
 40
231.0
 40
231.0
 40
231.0
 40
232.0
 40
232.0
 40
232.0
 40
233.0
 40
233.0
 40
233.0
 40
234.0
 40
234.0
 40
234.0
 40
235.0
 40
235.0
 40
235.0
 40
236.0
 40
236.0
 40
236.0
 40
237.0
 40
237.0
 40
237.0
 40
238.0
 40
238.0
 40
238.0
 40
239.0
 40
239.0
 40
239.0
 40
240.0
 40
240.0
 40
240.0
 40
241.0
 40
241.0
 40
241.0
 40
242.0
 40
242.0
 40
242.0
 40
243.0
 40
243.0
 40
243.0
 40
244.0
 40
244.0
 40
244.0
 40
245.0
 40
245.0
 40
245.0
 40
246.0
 40
246.0
 40
246.0
 40
247.0
 40
247.0
 40
247.0
 40
248.0
 40
248.0
 40
248.0
 40
249.0
 40
249.0
 40
249.0
 40
250.0
 40
250.0
 40
250.0
 40
251.0
 40
251.0
 40
251.0
 40
252.0
 40
252.0
 40
252.0
 40
253.0
 40
253.0
 40
253.0
 40
254.0
 40
254.0
 40
254.0
 40
255.0
 40
255.0
 40
255.0
 40
256.0
 40
256.0
 40
256.0
 40
257.0
 40
257.0
 40
257.0
 40
258.0
 40
258.0
 40
258.0
 40
259.0
 40
259.0
 40
259.0
 40
260.0
 40
260.0
 40
260.0
 40
261.0
 40
261.0
 40
261.0
 40
262.0
 40
262.0
 40
262.0
 40
263.0
 40
263.0
 40
263.0
 40
264.0
 40
264.0
 40
264.0
 40
265.0
 40
265.0
 40
265.0
 40
266.0
 40
266.0
 40
266.0
 40
267.0
 40
267.0
 40
267.0
 40
268.0
 40
268.0
 40
268.0
 40
269.0
 40
269.0
 40
269.0
 40
270.0
 40
270.0
 40
270.0
 40
271.0
 40
271.0
 40
271.0
 40
272.0
 40
272.0
 40
272.0
 40
273.0
 40
273.0
 40
273.0
 40
274.0
 40
274.0
 40
274.0
 40
275.0
 40
275.0
 40
275.0
 40
276.0
 40
276.0
 40
276.0
 40
277.0
 40
277.0
 40
277.0
 40
278.0
 40
278.0
 40
278.0
 40
279.0
 40
279.0
 40
279.0
 40
280.0
 40
280.0
 40
280.0
 40
281.0
 40
281.0
 40
281.0
 40
282.0
 40
282.0
 40
282.0
 40
283.0
 40
283.0
 40
283.0
 40
284.0
 40
284.0
 40
284.0
 40
285.0
 40
285.0
 40
285.0
 40
286.0
 40
286.0
 40
286.0
 40
287.0
 40
287.0
 40
287.0
 40
288.0
 40
288.0
 40
288.0
 40
289.0
 40
289.0
 40
289.0
 40
290.0
 40
290.0
 40
290.0
 40
291.0
 40
291.0
 40
291.0
 40
292.0
 40
292.0
 40
292.0
 40
293.0
 40
293.0
 40
293.0
 40
294.0
 40
294.0
 40
294.0
 40
295.0
 40
295.0
 40
295.0
 40
296.0
 40
296.0
 40
296.0
 40
297.0
 40
297.0
 40
297.0
 40
298.0
 40
298.0
 40
298.0
 40
299.0
 40
299.0
 40
299.0
 40
300.0
 40
300.0
 40
300.0
 40
301.0
 40
301.0
 40
301.0
 40
302.0
 40
302.0
 40
302.0
 40
303.0
 40
303.0
 40
303.0
 40
304.0
 40
304.0
 40
304.0
 40
305.0
 40
305.0
 40
305.0
 40
306.0
 40
306.0
 40
306.0
 40
307.0
 40
307.0
 40
307.0
 40
308.0
 40
308.0
 40
308.0
 40
309.0
 40
309.0
 40
309.0
 40
310.0
 40
310.0
 40
310.0
 40
311.0
 40
311.0
 40
311.0
 40
312.0
 40
312.0
 40
312.0
 40
313.0
 40
313.0
 40
313.0
 40
314.0
 40
314.0
 40
314.0
 40
315.0
 40
315.0
 40
315.0
 40
316.0
 40
316.0
 40
316.0
 40
317.0
 40
317.0
 40
317.0
 40
318.0
 40
318.0
 40
318.0
 40
319.0
 40
319.0
 40
319.0
 40
320.0
 40
320.0
 40
320.0
 40
320.0
 10
60.48448929024546
 20
-39.64513137897757
 30
0.0
 10
60.53514817784193
 20
-39.43462887903018
 30
0.0
 10
60.58647734319908
 20
-39.2234561013051
 30
0.0
 10
60.63678345302677
 20
-39.01157776802483
 30
0.0
 10
60.59783678735372
 20
-38.92373610138019
 30
0.0
 10
60.55719678839053
 20
-38.83691749029068
 30
0.0
 10
60.51620554042632
 20
-38.75009887920149
 30
0.0
 10
60.38631123719463
 20
-38.68084860144084
 30
0.0
 10
60.13241707700534
 20
-38.59230137924069
 30
0.0
 10
60.00185554055535
 20
-38.55233165702846
 30
0.0
 10
59.97705374763566
 20
-38.40317721262153
 30
0.0
 10
60.12035207731315
 20
-38.36010304596545
 30
0.0
 10
60.1554887430834
 20
-38.25673915710252
 30
0.0
 10
60.11622457741845
 20
-37.99526026827887
 30
0.0
 10
60.07523331831434
 20
-37.73205276834489
 30
0.0
 10
60.03561485725275
 20
-37.47022110174347
 30
0.0
 10
59.71176486551485
 20
-37.4240777684217
 30
0.0
 10
59.38622154048682
 20
-37.37585304621153
 30
0.0
 10
59.06339460427838
 20
-37.3286513795568
 30
0.0
 10
58.46603600840716
 20
-37.25216915735365
 30
0.0
 10
57.86726630146082
 20
-37.17498137959529
 30
0.0
 10
57.26987242781272
 20
-37.09849915739213
 30
0.0
 10
56.90506493711973
 20
-37.08026054628559
 30
0.0
 10
56.53986939088109
 20
-37.06269221295641
 30
0.0
 10
56.17573217794879
 20
-37.04441832407234
 30
0.0
 10
56.17573217794879
 20
-37.04441832407234
 30
0.0
 10
56.16539720818114
 20
-37.04441832407234
 30
0.0
 10
56.16539720818114
 20
-37.04441832407234
 30
0.0
 10
56.1612682894289
 20
-36.93071804632273
 30
0.0
 10
56.15883412282434
 20
-36.81740582412905
 30
0.0
 10
56.15435384516086
 20
-36.70508137971265
 30
0.0
 10
56.11060940183243
 20
-36.63685415750744
 30
0.0
 10
56.066864958504
 20
-36.56622804641391
 30
0.0
 10
56.02414357070502
 20
-36.49768332420879
 30
0.0
 10
55.88426718538468
 20
-36.44120360200066
 30
0.0
 10
54.77735638029099
 20
-36.49595471309814
 30
0.0
 10
54.55859888587196
 20
-36.5304211019785
 30
0.0
 10
53.80757029392118
 20
-36.5524697130841
 30
0.0
 10
53.05721197973109
 20
-36.57416554641194
 30
0.0
 10
52.30653616554909
 20
-36.59448554640689
 30
0.0
 10
52.03369783917644
 20
-36.47253026865965
 30
0.0
 10
51.76015395726624
 20
-36.34884637980177
 30
0.0
 10
51.48590451981848
 20
-36.22449221316621
 30
0.0
 10
51.48590451981848
 20
-36.22449221316621
 30
0.0
 10
51.46353840927797
 20
-36.22449221316621
 30
0.0
 10
51.46353840927797
 20
-36.22449221316621
 30
0.0
 10
51.63611729376401
 20
-36.16557832429191
 30
0.0
 10
51.80700284495991
 20
-36.10804026875083
 30
0.0
 10
51.97961700722282
 20
-36.0494791576543
 30
0.0
 10
51.98960061807923
 20
-36.046021935433
 30
0.0
 10
51.99993700670442
 20
-36.04224721321179
 30
0.0
 10
52.00956783979205
 20
-36.0374141576573
 30
0.0
 10
52.00819200649381
 20
-35.53548193556045
 30
0.0
 10
51.80700284495991
 20
-35.46552610224461
 30
0.0
 10
51.6723122928406
 20
-35.16238415787592
 30
0.0
 10
51.18343286086851
 20
-35.20369443564351
 30
0.0
 10
50.69596453997153
 20
-35.24366415785573
 30
0.0
 10
50.20779066353699
 20
-35.28261082451283
 30
0.0
 10
49.85466011699054
 20
-35.34942693560699
 30
0.0
 10
49.49983623715397
 20
-35.41490249114643
 30
0.0
 10
49.14635291283874
 20
-35.48136582446315
 30
0.0
 10
48.93309998776692
 20
-35.27742499118057
 30
0.0
 10
48.83696680962073
 20
-34.89053360238839
 30
0.0
 10
48.52486431758313
 20
-34.79200276907964
 30
0.0
 10
48.36950098821345
 20
-34.74275499131434
 30
0.0
 10
48.1531423826221
 20
-34.8726477690596
 30
0.0
 10
47.95470488768466
 20
-34.83578249129091
 30
0.0
 10
47.62708017382084
 20
-34.77376415797309
 30
0.0
 10
47.28463879366836
 20
-34.49090693582184
 30
0.0
 10
47.13580185302106
 20
-34.24495026921647
 30
0.0
 10
47.08824740978984
 20
-34.0844011025899
 30
0.0
 10
47.03966991102915
 20
-33.92349915818588
 30
0.0
 10
46.99246943269645
 20
-33.76298526933715
 30
0.0
 10
46.82193547213958
 20
-33.32201304722517
 30
0.0
 10
46.66106880957696
 20
-32.81108499179734
 30
0.0
 10
46.55735214555632
 20
-32.31017582525595
 30
0.0
 10
46.51223186892966
 20
-31.64010971431227
 30
0.0
 10
46.46813464783245
 20
-30.96831499225794
 30
0.0
 10
46.42403742673525
 20
-30.29856638131418
 30
0.0
 10
46.2800335415202
 20
-29.48449638151767
 30
0.0
 10
46.16739159994949
 20
-28.67423638172021
 30
0.0
 10
45.9982346598206
 20
-27.90458110413481
 30
0.0
 10
45.95032743882059
 20
-27.63862193753474
 30
0.0
 10
45.90485554407928
 20
-27.37195721537914
 30
0.0
 10
45.85662966343325
 20
-27.10599804877907
 30
0.0
 10
45.75121966612248
 20
-26.9354652710439
 30
0.0
 10
45.64545689104293
 20
-26.76355665997584
 30
0.0
 10
45.53934133819461
 20
-26.59235360446299
 30
0.0
 10
45.52074994978003
 20
-26.48415666004556
 30
0.0
 10
45.50177050581979
 20
-26.37324332673989
 30
0.0
 10
45.48420217293467
 20
-26.26504638232278
 30
0.0
 10
45.34227967655541
 20
-25.88715082686159
 30
0.0
 10
45.11043412691473
 20
-25.42892777142066
 30
0.0
 10
45.04739273963416
 20
-24.98453360486491
 30
0.0
 10
45.02428579577922
 20
-24.82052721601704
 30
0.0
 10
45.25754245649501
 20
-24.69444443827084
 30
0.0
 10
45.23305967934184
 20
-24.49325527165436
 30
0.0
 10
45.17552162525421
 20
-24.3554602716889
 30
0.0
 10
45.11629023787643
 20
-24.21695971616792
 30
0.0
 10
45.0587521837888
 20
-24.07708332731406
 30
0.0
 10
45.03670357324019
 20
-23.98373832733725
 30
0.0
 10
45.01363190716213
 20
-23.88898221625003
 30
0.0
 10
44.99327776652976
 20
-23.79320304960737
 30
0.0
 10
44.85343552236019
 20
-23.5224108274528
 30
0.0
 10
44.5436966413734
 20
-23.31331943861613
 30
0.0
 10
44.304266369704
 20
-23.13760082754902
 30
0.0
 10
44.18714415046981
 20
-23.04630193868277
 30
0.0
 10
44.07104498676508
 20
-22.95570860537205
 30
0.0
 10
43.9539227675309
 20
-22.86440971650612
 30
0.0
 10
43.73481249534309
 20
-22.53297499436662
 30
0.0
 10
43.75548527259346
 20
-22.0944369389208
 30
0.0
 10
43.67004249699551
 20
-21.61797527237334
 30
0.0
 10
43.63282444238946
 20
-21.41230582798012
 30
0.0
 10
43.60181527651391
 20
-21.00336582808234
 30
0.0
 10
43.68069638561259
 20
-20.78735999480308
 30
0.0
 10
43.81196499337477
 20
-20.4294316615594
 30
0.0
 10
44.31460275832919
 20
-19.99085832833575
 30
0.0
 10
44.59918858440213
 20
-19.75968305061564
 30
0.0
 10
45.4432093962027
 20
-19.00212805080509
 30
0.0
 10
46.29139298567484
 20
-18.24351471766125
 30
0.0
 10
47.13580185302106
 20
-17.48592444007286
 30
0.0
 10
47.6060546188017
 20
-16.96709416242484
 30
0.0
 10
48.07595460681355
 20
-16.45034527366523
 30
0.0
 10
48.54691292813173
 20
-15.93320832935002
 30
0.0
 10
48.99614013889322
 20
-15.36788194060247
 30
0.0
 10
49.47362484893379
 20
-14.81906555185083
 30
0.0
 10
49.92320483746405
 20
-14.26030082976811
 30
0.0
 10
50.26945621751933
 20
-13.83033527432017
 30
0.0
 10
50.8334067586873
 20
-13.62191416326118
 30
0.0
 10
51.16967452788618
 20
-13.17819027448311
 30
0.0
 10
51.32401480172641
 20
-12.92704777454613
 30
0.0
 10
51.47592220935298
 20
-12.67537610794219
 30
0.0
 10
51.62959090504162
 20
-12.42455110800481
 30
0.0
 10
52.29482394362567
 20
-11.36089083049309
 30
0.0
 10
52.85983281809998
 20
-10.20628444189287
 30
0.0
 10
53.50887335709713
 20
-9.122268886608348
 30
0.0
 10
53.91643887541004
 20
-8.442042775667192
 30
0.0
 10
54.29472111482627
 20
-7.75733638694962
 30
0.0
 10
54.66813638307742
 20
-7.034212498241591
 30
0.0
 10
54.78458832455093
 20
-6.809246109408865
 30
0.0
 10
54.9020633215539
 20
-6.582903887243255
 30
0.0
 10
55.01678665196039
 20
-6.356702776188684
 30
0.0
 10
55.14082331546262
 20
-6.233195276219361
 30
0.0
 10
55.26623581226308
 20
-6.108170831806435
 30
0.0
 10
55.3888613646902
 20
-5.984486942948231
 30
0.0
 10
55.66963719086034
 20
-6.042695276267
 30
0.0
 10
55.95006023926171
 20
-6.100762498474728
 30
0.0
 10
56.23189439873819
 20
-6.159499998460138
 30
0.0
 10
56.27701467536485
 20
-6.164650554014236
 30
0.0
 10
56.84096665245636
 20
-6.125739165135298
 30
0.0
 10
56.9078166037162
 20
-6.105066387362583
 30
0.0
 10
57.01495521209398
 20
-6.042695276267
 30
0.0
 10
57.12107220794184
 20
-5.98120610961582
 30
0.0
 10
57.22612798448429
 20
-5.918164720742554
 30
0.0
 10
57.2116640959644
 20
-5.651323609698399
 30
0.0
 10
57.19617715191507
 20
-5.276673609792097
 30
0.0
 10
57.04046104477661
 20
-5.14335888760306
 30
0.0
 10
56.92986665243428
 20
-5.069981109843757
 30
0.0
 10
56.82166827258069
 20
-4.998825832083582
 30
0.0
 10
56.71177799760645
 20
-4.924248609879954
 30
0.0
 10
56.63324966627654
 20
-4.832949721014027
 30
0.0
 10
56.69456387471551
 20
-4.50705360998422
 30
0.0
 10
56.66803355427802
 20
-4.378042776683358
 30
0.0
 10
56.62876938861307
 20
-4.299126387814035
 30
0.0
 10
56.588094111873
 20
-4.217317221167903
 30
0.0
 10
56.54847716843927
 20
-4.137201387854576
 30
0.0
 10
56.41999550505044
 20
-3.829896665709075
 30
0.0
 10
56.42341744940759
 20
-3.477136526908573
 30
0.0
 10
56.02414357070502
 20
-3.437861776918167
 30
0.0
 10
55.97796496077203
 20
-3.503661888012899
 30
0.0
 10
55.92938887490686
 20
-3.569299721329822
 30
0.0
 10
55.88222107432576
 20
-3.635092776868857
 30
0.0
 10
55.83949968652679
 20
-3.779273054610894
 30
0.0
 10
55.86257135260485
 20
-3.92052527679764
 30
0.0
 10
55.80503329851722
 20
-4.038353054545902
 30
0.0
 10
55.78023302137214
 20
-4.06297694342871
 30
0.0
 10
55.71133552312986
 20
-4.087600832311518
 30
0.0
 10
55.67344719076314
 20
-4.093104165643378
 30
0.0
 10
55.56906024898183
 20
-4.075218332314594
 30
0.0
 10
55.46188636282717
 20
-4.056591665652447
 30
0.0
 10
55.35718331949392
 20
-4.038353054545902
 30
0.0
 10
55.18904803645453
 20
-4.052993332320114
 30
0.0
 10
55.02197248516143
 20
-4.068480276760569
 30
0.0
 10
54.85316832280131
 20
-4.083120554534783
 30
0.0
 10
54.75463887519992
 20
-3.929979721239593
 30
0.0
 10
54.65779999445224
 20
-3.775639443500401
 30
0.0
 10
54.55859888587196
 20
-3.622851387983294
 30
0.0
 10
54.00463331983244
 20
-3.610962776875172
 30
0.0
 10
54.15826667386306
 20
-4.120867776747557
 30
0.0
 10
54.27542417087412
 20
-4.48758027665583
 30
0.0
 10
54.27542417087412
 20
-4.48758027665583
 30
0.0
 10
54.27542417087412
 20
-4.541661109975625
 30
0.0
 10
54.27542417087412
 20
-4.541661109975625
 30
0.0
 10
54.22063778338295
 20
-4.555983887749916
 30
0.0
 10
54.1651811181311
 20
-4.570624165524128
 30
0.0
 10
54.11004195287116
 20
-4.58526444329802
 30
0.0
 10
54.06319443092865
 20
-4.476573609992112
 30
0.0
 10
54.01634417748381
 20
-4.366154165575236
 30
0.0
 10
53.96878973425257
 20
-4.257463332269007
 30
0.0
 10
53.82926612670101
 20
-4.064176387872714
 30
0.0
 10
53.63118140953235
 20
-3.907754721245435
 30
0.0
 10
53.48784780207799
 20
-3.722087776847249
 30
0.0
 10
53.48784780207799
 20
-3.722087776847249
 30
0.0
 10
53.28976308490932
 20
-3.722087776847249
 30
0.0
 10
53.28976308490932
 20
-3.722087776847249
 30
0.0
 10
53.02863698046009
 20
-4.123795832302529
 30
0.0
 10
53.38899947126648
 20
-4.29189444337153
 30
0.0
 10
53.49818419070317
 20
-4.6408974988399
 30
0.0
 10
53.50887335709713
 20
-4.909255554328301
 30
0.0
 10
53.52023280125177
 20
-5.178319165372224
 30
0.0
 10
53.53056918987696
 20
-5.448582220860152
 30
0.0
 10
53.47271363579742
 20
-5.566057220830653
 30
0.0
 10
53.41482280394101
 20
-5.681979998579387
 30
0.0
 10
53.35523863879446
 20
-5.798608331883646
 30
0.0
 10
53.09234998672677
 20
-6.217708331778907
 30
0.0
 10
52.68757143360585
 20
-6.524660276146646
 30
0.0
 10
52.38337116358886
 20
-6.90276749827424
 30
0.0
 10
51.3825759113435
 20
-8.141088053520434
 30
0.0
 10
50.0345062235134
 20
-9.064060553289579
 30
0.0
 10
49.03748569339396
 20
-10.30393333075722
 30
0.0
 10
48.8456110988994
 20
-10.56505944180311
 30
0.0
 10
48.65165264768182
 20
-10.82706749729309
 30
0.0
 10
48.45734265263908
 20
-11.09009860833851
 30
0.0
 10
48.31609165458791
 20
-11.36089083049309
 30
0.0
 10
48.17413265986438
 20
-11.62960166375925
 30
0.0
 10
48.03185738571634
 20
-11.90021749702494
 30
0.0
 10
47.51683712107783
 20
-12.61783805240111
 30
0.0
 10
46.85640186014916
 20
-13.19540583003453
 30
0.0
 10
46.23904076478824
 20
-13.81276694099131
 30
0.0
 10
45.94415382786698
 20
-14.1252222186909
 30
0.0
 10
45.64785577987062
 20
-14.43838305194603
 30
0.0
 10
45.35296884294937
 20
-14.75327249631179
 30
0.0
 10
44.53473608604645
 20
-15.36961055171312
 30
0.0
 10
43.32724833907425
 20
-15.6049133294322
 30
0.0
 10
42.49903197131492
 20
-16.20643471817076
 30
0.0
 10
42.31093086500267
 20
-16.3448999959139
 30
0.0
 10
42.12078364763151
 20
-16.48410610699007
 30
0.0
 10
41.93130670802102
 20
-16.62257138473321
 30
0.0
 10
41.80003810025885
 20
-16.78968221802493
 30
0.0
 10
41.66947504803424
 20
-16.95675777353848
 30
0.0
 10
41.53785366250329
 20
-17.12591471794077
 30
0.0
 10
41.37698699994068
 20
-17.23788638457941
 30
0.0
 10
41.21679165636216
 20
-17.35052832899574
 30
0.0
 10
41.05761728586625
 20
-17.46387582896726
 30
0.0
 10
40.79786701471525
 20
-17.69709721779794
 30
0.0
 10
40.53878702132494
 20
-17.93067138440637
 30
0.0
 10
40.27970702793462
 20
-18.16219943990392
 30
0.0
 10
40.02616665666014
 20
-18.40850888428673
 30
0.0
 10
39.77019009648903
 20
-18.6524194397812
 30
0.0
 10
39.51456732523273
 20
-18.89601249527607
 30
0.0
 10
39.35814566255672
 20
-18.99521360636219
 30
0.0
 10
39.12319566855079
 20
-18.97937388414397
 30
0.0
 10
38.91442178498817
 20
-19.01761499524554
 30
0.0
 10
38.6984159571656
 20
-19.03864055079602
 30
0.0
 10
38.48378596264127
 20
-19.06033638412386
 30
0.0
 10
38.26880319034816
 20
-19.08238499522946
 30
0.0
 10
37.77583153625825
 20
-18.94769443970753
 30
0.0
 10
37.19498293996582
 20
-17.94344193995858
 30
0.0
 10
37.06717155433767
 20
-17.42048416231158
 30
0.0
 10
36.8291171159665
 20
-16.44791110699906
 30
0.0
 10
38.41488846439899
 20
-16.60775471807044
 30
0.0
 10
38.79313678808241
 20
-16.19641582928432
 30
0.0
 10
38.91269317392116
 20
-16.06620555153913
 30
0.0
 10
39.14901900122532
 20
-15.56321499610933
 30
0.0
 10
39.12181983525256
 20
-15.30999110728363
 30
0.0
 10
39.11423610133255
 20
-15.14637277399104
 30
0.0
 10
39.10767344672458
 20
-14.98271916292093
 30
0.0
 10
39.10114705800218
 20
-14.81839527407315
 30
0.0
 10
39.16041372315684
 20
-14.60581138523735
 30
0.0
 10
39.33024094104641
 20
-14.44081721861187
 30
0.0
 10
39.36227316245142
 20
-14.17242388534563
 30
0.0
 10
39.33747288530635
 20
-14.1252222186909
 30
0.0
 10
39.31164955263182
 20
-14.07872610759138
 30
0.0
 10
39.28512066441974
 20
-14.03187721871441
 30
0.0
 10
39.28512066441974
 20
-14.03187721871441
 30
0.0
 10
39.01224706027021
 20
-13.97606777428365
 30
0.0
 10
39.01224706027021
 20
-13.97606777428365
 30
0.0
 10
38.88203678581438
 20
-14.00845277427561
 30
0.0
 10
38.74974512252275
 20
-14.04186082982301
 30
0.0
 10
38.61953484806691
 20
-14.07562166314785
 30
0.0
 10
38.58852568219136
 20
-14.04944555204327
 30
0.0
 10
38.56062096068104
 20
-14.0232694409387
 30
0.0
 10
38.5316579058644
 20
-13.99811638538925
 30
0.0
 10
38.3725198543688
 20
-13.89785694096985
 30
0.0
 10
38.19750680327819
 20
-13.86582471875566
 30
0.0
 10
37.92946625456092
 20
-13.8675533298663
 30
0.0
 10
37.49780832395876
 20
-12.54513055241916
 30
0.0
 10
36.77330767294588
 20
-11.50059083045807
 30
0.0
 10
35.51308054667741
 20
-11.01432194169088
 30
0.0
 10
35.51308054667741
 20
-11.01432194169088
 30
0.0
 10
34.68246526910716
 20
-10.90407888616289
 30
0.0
 10
34.68246526910716
 20
-10.90407888616289
 30
0.0
 10
34.49125971359928
 20
-10.86633166395011
 30
0.0
 10
34.22254888033311
 20
-10.9126866639386
 30
0.0
 10
33.99518360261238
 20
-10.87098833061573
 30
0.0
 10
33.70407138046286
 20
-10.81948277507283
 30
0.0
 10
33.38985221387478
 20
-10.88823916394467
 30
0.0
 10
33.16386276948693
 20
-10.93611110837708
 30
0.0
 10
32.02904721421502
 20
-11.18019805276044
 30
0.0
 10
31.48301776990699
 20
-11.43271638603062
 30
0.0
 10
30.72507471454083
 20
-12.03078055254788
 30
0.0
 10
30.5369736034768
 20
-12.17961749695522
 30
0.0
 10
30.27411888132026
 20
-12.37166971912935
 30
0.0
 10
30.11565110358209
 20
-12.58562944129803
 30
0.0
 10
30.101504714697
 20
-12.57733916352224
 30
0.0
 10
30.08809915914463
 20
-12.57010721907974
 30
0.0
 10
30.07532860359242
 20
-12.56305166352579
 30
0.0
 10
29.609203325931
 20
-13.17473305226182
 30
0.0
 10
29.3715016593239
 20
-13.79932610766142
 30
0.0
 10
29.26196415935111
 20
-14.20480888533759
 30
0.0
 10
29.1231108260527
 20
-14.66334944077875
 30
0.0
 10
29.04458249273897
 20
-15.20560416286525
 30
0.0
 10
29.27159499268194
 20
-15.56494360721998
 30
0.0
 10
29.29399638156531
 20
-15.65588971830815
 30
0.0
 10
29.3260286037795
 20
-15.74200277384213
 30
0.0
 10
29.36945554821334
 20
-15.81781471826793
 30
0.0
 10
29.48414360374023
 20
-16.00969055155317
 30
0.0
 10
29.61989249259511
 20
-16.17680138484457
 30
0.0
 10
29.77423277033431
 20
-16.30701166258976
 30
0.0
 10
29.86793054808856
 20
-16.38867971812517
 30
0.0
 10
29.98921554805812
 20
-16.46823110699401
 30
0.0
 10
30.10291582580772
 20
-16.51751416253715
 30
0.0
 10
30.15353943690591
 20
-16.53853971808763
 30
0.0
 10
30.23139749244226
 20
-16.54404305141949
 30
0.0
 10
30.2758474924309
 20
-16.57709832918913
 30
0.0
 10
30.32442499241884
 20
-16.61466916251302
 30
0.0
 10
30.33440860352743
 20
-16.72526499581878
 30
0.0
 10
30.36644082574163
 20
-16.79447999580126
 30
0.0
 10
30.41434804795188
 20
-16.88958888466657
 30
0.0
 10
30.54730999236315
 20
-17.09561110683722
 30
0.0
 10
30.56145638124856
 20
-17.18549888459242
 30
0.0
 10
30.55560027013895
 20
-17.19206055125757
 30
0.0
 10
30.55316610347278
 20
-17.19756388458943
 30
0.0
 10
30.54766277014092
 20
-17.20204416236616
 30
0.0
 10
30.49531054793177
 20
-17.24374249568903
 30
0.0
 10
30.37162665907389
 20
-17.31849610678154
 30
0.0
 10
30.28893554798335
 20
-17.31609721789321
 30
0.0
 10
30.24483832577215
 20
-17.31401582900481
 30
0.0
 10
30.17008471467964
 20
-17.27404610679258
 30
0.0
 10
30.13149082580031
 20
-17.30745416233966
 30
0.0
 10
30.14355582579731
 20
-17.37776277343327
 30
0.0
 10
30.34439221463603
 20
-17.45318666230346
 30
0.0
 10
30.41434804795188
 20
-17.45181082897026
 30
0.0
 10
30.48081138126859
 20
-17.45008221785961
 30
0.0
 10
30.55006165902924
 20
-17.42288305119991
 30
0.0
 10
30.61278554790227
 20
-17.39808277342823
 30
0.0
 10
30.61864165901189
 20
-17.39843555120598
 30
0.0
 10
30.62414499234407
 20
-17.40460916231553
 30
0.0
 10
30.63000110345369
 20
-17.40633777342617
 30
0.0
 10
30.61966471456734
 20
-17.51485221784352
 30
0.0
 10
30.5659366590253
 20
-17.61754582892909
 30
0.0
 10
30.53422193681103
 20
-17.71776999557065
 30
0.0
 10
30.5049413812626
 20
-17.80254249554927
 30
0.0
 10
30.49700388126458
 20
-17.88830277330582
 30
0.0
 10
30.46634749238326
 20
-17.96997082884091
 30
0.0
 10
30.4146655479518
 20
-18.09778221769777
 30
0.0
 10
30.35991443685432
 20
-18.22869805099848
 30
0.0
 10
30.31168971464415
 20
-18.36028416207655
 30
0.0
 10
30.28410249242885
 20
-18.43161582872528
 30
0.0
 10
30.16010110357105
 20
-18.64762166200486
 30
0.0
 10
30.22899860355394
 20
-18.742695273092
 30
0.0
 10
30.28032777020764
 20
-18.81504999529618
 30
0.0
 10
30.36093749240977
 20
-18.87361110639271
 30
0.0
 10
30.43706693683516
 20
-18.8991169397196
 30
0.0
 10
30.60657665901489
 20
-18.96042971748222
 30
0.0
 10
30.70062721454723
 20
-18.83572277306889
 30
0.0
 10
30.81464499229643
 20
-19.02897443968735
 30
0.0
 10
30.8904569367219
 20
-19.15713860632196
 30
0.0
 10
30.72782638120692
 20
-19.23672527296865
 30
0.0
 10
30.7147383256548
 20
-19.33112860627843
 30
0.0
 10
30.71061082565582
 20
-19.3858797173759
 30
0.0
 10
30.7512508256454
 20
-19.46236193957874
 30
0.0
 10
30.77573360341717
 20
-19.491677772905
 30
0.0
 10
30.89493721449864
 20
-19.64531249508867
 30
0.0
 10
31.09164610333806
 20
-19.61670221731793
 30
0.0
 10
31.31625971439303
 20
-19.5798722173274
 30
0.0
 10
31.31625971439303
 20
-19.5798722173274
 30
0.0
 10
31.31798832550399
 20
-19.59296027287953
 30
0.0
 10
31.31798832550399
 20
-19.59296027287953
 30
0.0
 10
31.31901138105912
 20
-19.59500638399009
 30
0.0
 10
31.31798832550399
 20
-19.5970877728785
 30
0.0
 10
31.31798832550399
 20
-19.60086249509971
 30
0.0
 10
31.26665915884997
 20
-19.63084860620334
 30
0.0
 10
31.22668943663775
 20
-19.67286443952613
 30
0.0
 10
31.19740888108964
 20
-19.71248138396091
 30
0.0
 10
31.16742276998601
 20
-19.7486763839516
 30
0.0
 10
31.14643249221338
 20
-19.77830971727779
 30
0.0
 10
31.12851138110675
 20
-19.81757388393449
 30
0.0
 10
31.0961263811148
 20
-19.87853388391935
 30
0.0
 10
31.15295888110068
 20
-19.98708360611421
 30
0.0
 10
31.19465721442355
 20
-20.02528943943827
 30
0.0
 10
31.33590943661062
 20
-20.14759749496295
 30
0.0
 10
31.52228193656401
 20
-20.01601138388488
 30
0.0
 10
31.65803082541889
 20
-20.21649499494584
 30
0.0
 10
31.73416026984428
 20
-20.32469193936327
 30
0.0
 10
31.69143888096597
 20
-20.48315971710143
 30
0.0
 10
31.69902360318624
 20
-20.5902983281859
 30
0.0
 10
31.70487971429586
 20
-20.64198027261736
 30
0.0
 10
31.76689804761368
 20
-20.77977527258281
 30
0.0
 10
31.81304138093577
 20
-20.85523443923053
 30
0.0
 10
31.81716888093474
 20
-20.86038499478494
 30
0.0
 10
31.81716888093474
 20
-20.86109055034015
 30
0.0
 10
31.81889749204539
 20
-20.86486527256168
 30
0.0
 10
31.82958665870919
 20
-20.8814105503351
 30
0.0
 10
31.84232193648387
 20
-20.8969327725534
 30
0.0
 10
31.84715499203837
 20
-20.90310638366326
 30
0.0
 10
31.84715499203837
 20
-20.90310638366326
 30
0.0
 10
31.84955388092638
 20
-20.90310638366326
 30
0.0
 10
31.85265832537023
 20
-20.90416471699622
 30
0.0
 10
31.89470943647086
 20
-20.95101360587351
 30
0.0
 10
31.97083888089625
 20
-20.99888555030592
 30
0.0
 10
32.08693804753387
 20
-21.01645388363478
 30
0.0
 10
32.23609249194112
 20
-21.05159055029251
 30
0.0
 10
32.43696415855736
 20
-21.02093416141152
 30
0.0
 10
32.62919276962037
 20
-20.92896499476791
 30
0.0
 10
32.8441755473445
 20
-20.82351971701625
 30
0.0
 10
33.06293304728985
 20
-20.72915166148431
 30
0.0
 10
33.27308276945948
 20
-20.62578777262138
 30
0.0
 10
33.28652360278937
 20
-20.62578777262138
 30
0.0
 10
33.29890610278629
 20
-20.62649332817659
 30
0.0
 10
33.31167665833881
 20
-20.61993166151176
 30
0.0
 10
33.39122804720766
 20
-20.57685749485569
 30
0.0
 10
33.60931526937532
 20
-20.47695082821405
 30
0.0
 10
33.80189665821609
 20
-20.38671027268109
 30
0.0
 10
33.95073360262342
 20
-20.66815638372194
 30
0.0
 10
34.10232221369652
 20
-21.00336582808234
 30
0.0
 10
34.08094388036861
 20
-21.09395916139306
 30
0.0
 10
34.04270276926703
 20
-21.26174027246246
 30
0.0
 10
33.59382832493486
 20
-21.8973752723033
 30
0.0
 10
33.47049721385474
 20
-22.02243499449439
 30
0.0
 10
33.20418526947659
 20
-22.27357749443168
 30
0.0
 10
32.93685026954363
 20
-22.52644860547963
 30
0.0
 10
32.67191415849868
 20
-22.77759110541661
 30
0.0
 10
32.48173165854625
 20
-22.9774044387002
 30
0.0
 10
32.29190193637156
 20
-23.17792332753901
 30
0.0
 10
32.10313054752984
 20
-23.37911249415516
 30
0.0
 10
31.43475776991897
 20
-23.9013999940248
 30
0.0
 10
30.78642277008129
 20
-24.39161999390207
 30
0.0
 10
30.25517471465851
 20
-25.05134971595939
 30
0.0
 10
30.11600388135985
 20
-25.19672943814511
 30
0.0
 10
29.97852638139432
 20
-25.3438377714418
 30
0.0
 10
29.8403786036511
 20
-25.48784166029463
 30
0.0
 10
29.77423277033431
 20
-25.63770166025709
 30
0.0
 10
29.70843971479527
 20
-25.78724416021995
 30
0.0
 10
29.64296415925584
 20
-25.93639860462688
 30
0.0
 10
29.39767777042848
 20
-26.49279971559912
 30
0.0
 10
29.20061610381097
 20
-27.1921463820909
 30
0.0
 10
29.04250110385057
 20
-27.86083665970137
 30
0.0
 10
28.98771471497525
 20
-28.18189971517668
 30
0.0
 10
28.93328110387769
 20
-28.50197499287439
 30
0.0
 10
28.87817721500278
 20
-28.82166221501681
 30
0.0
 10
28.740382215037
 20
-29.24954638157635
 30
0.0
 10
28.37966693734939
 20
-29.6112847148194
 30
0.0
 10
28.15505332629443
 20
-29.98127804806009
 30
0.0
 10
27.93594304857164
 20
-30.34922527019053
 30
0.0
 10
27.8580849930356
 20
-30.83842221451268
 30
0.0
 10
27.63138999309223
 20
-31.2063694366428
 30
0.0
 10
27.27825943762489
 20
-31.77998610316613
 30
0.0
 10
26.55308943780629
 20
-32.00526999199877
 30
0.0
 10
26.17893332678847
 20
-32.54995888075145
 30
0.0
 10
25.99185527127988
 20
-32.91099165843898
 30
0.0
 10
25.80548277132649
 20
-33.27272999168171
 30
0.0
 10
25.62048610470599
 20
-33.63238693603636
 30
0.0
 10
24.8677288826721
 20
-34.90055249127482
 30
0.0
 10
24.21247943839119
 20
-36.26135749093458
 30
0.0
 10
23.45559471635832
 20
-37.54705610172438
 30
0.0
 10
23.19651471642299
 20
-37.92258804607476
 30
0.0
 10
22.93849304982094
 20
-38.29843749042539
 30
0.0
 10
22.67906027210786
 20
-38.67255832366505
 30
0.0
 10
22.47166221660432
 20
-38.92888665693429
 30
0.0
 10
22.17367082779005
 20
-39.1159647124432
 30
0.0
 10
21.99040277228019
 20
-39.39363610126284
 30
0.0
 10
21.9648969389533
 20
-39.49251971234903
 30
0.0
 10
21.94044943895937
 20
-39.59034499010226
 30
0.0
 10
21.91459082785472
 20
-39.68852304563357
 30
0.0
 10
21.83362832787483
 20
-39.84219304559508
 30
0.0
 10
21.75372416122822
 20
-39.99618054555651
 30
0.0
 10
21.67276166124833
 20
-40.14914498996282
 30
0.0
 10
21.34891166132941
 20
-40.68141610094072
 30
0.0
 10
20.9661477725362
 20
-41.20264526747739
 30
0.0
 10
20.60063471707193
 20
-41.70150832290822
 30
0.0
 10
20.38222999490435
 20
-42.00225137838826
 30
0.0
 10
20.17172749495696
 20
-42.31953971164235
 30
0.0
 10
20.04458638387778
 20
-42.71779054487602
 30
0.0
 10
19.94778416167967
 20
-43.02304915591063
 30
0.0
 10
19.93882360612652
 20
-43.29211276695487
 30
0.0
 10
19.82653443948796
 20
-43.59183276687979
 30
0.0
 10
19.78483610616477
 20
-43.69964165574162
 30
0.0
 10
19.68838666174443
 20
-43.7627183223924
 30
0.0
 10
19.66221055063985
 20
-43.89913748902529
 30
0.0
 10
19.65014555064317
 20
-44.22263471116645
 30
0.0
 10
19.64016193953425
 20
-44.54680221108561
 30
0.0
 10
19.62841443953749
 20
-44.87238082211518
 30
0.0
 10
19.66221055063985
 20
-45.02841443318749
 30
0.0
 10
19.69424277285437
 20
-45.18518887759286
 30
0.0
 10
19.72765082840145
 20
-45.3415752664423
 30
0.0
 10
19.64460693953315
 20
-45.79669387743969
 30
0.0
 10
19.34626277294112
 20
-46.44506415505553
 30
0.0
 10
19.65014555064317
 20
-46.83918748828989
 30
0.0
 10
19.73075527284498
 20
-46.84331498828919
 30
0.0
 10
19.8148222172684
 20
-46.87464165494787
 30
0.0
 10
19.89130443947155
 20
-46.84952387717625
 30
0.0
 10
19.96193055056509
 20
-46.82609943273777
 30
0.0
 10
20.02253777277218
 20
-46.76887887719693
 30
0.0
 10
20.06561193942794
 20
-46.70858915498943
 30
0.0
 10
20.15003166162912
 20
-46.59111415501861
 30
0.0
 10
20.16827027273566
 20
-46.43747943283494
 30
0.0
 10
20.22030499494489
 20
-46.30448221064582
 30
0.0
 10
20.22030499494489
 20
-46.30448221064582
 30
0.0
 10
20.22030499494489
 20
-46.28243359954023
 30
0.0
 10
20.22030499494489
 20
-46.28243359954023
 30
0.0
 10
20.32261055047486
 20
-46.53911471058722
 30
0.0
 10
20.1899661060635
 20
-47.02143248824463
 30
0.0
 10
20.27438582826468
 20
-47.29772804373106
 30
0.0
 10
20.29883332825861
 20
-47.34595276594155
 30
0.0
 10
20.30539499492376
 20
-47.41209859925835
 30
0.0
 10
20.3498449949124
 20
-47.44035609925101
 30
0.0
 10
20.41493249489623
 20
-47.48170165479644
 30
0.0
 10
20.50760721709536
 20
-47.47376415479809
 30
0.0
 10
20.5803147170773
 20
-47.45033971035961
 30
0.0
 10
20.85971471700726
 20
-47.20572359930961
 30
0.0
 10
20.83523193923549
 20
-46.79163304385741
 30
0.0
 10
20.94134749476451
 20
-46.20457554400419
 30
0.0
 10
21.06400832806727
 20
-45.52075109973102
 30
0.0
 10
21.11498471694354
 20
-44.88374026655666
 30
0.0
 10
21.54114027239242
 20
-44.51131276665012
 30
0.0
 10
21.44814805019337
 20
-44.67736526660855
 30
0.0
 10
21.55147666127878
 20
-45.1872349887031
 30
0.0
 10
21.68482666124534
 20
-45.23341359980271
 30
0.0
 10
21.75266582789526
 20
-45.25683804424119
 30
0.0
 10
21.84294166120606
 20
-45.29543193312085
 30
0.0
 10
21.90358416119068
 20
-45.25408637757542
 30
0.0
 10
22.17331805001229
 20
-45.06944248873268
 30
0.0
 10
22.44513332772198
 20
-44.59227526662969
 30
0.0
 10
22.71282110543302
 20
-44.21540276672362
 30
0.0
 10
22.98946943869721
 20
-43.93600276679366
 30
0.0
 10
23.26678804973876
 20
-43.65385110019793
 30
0.0
 10
23.54378916078072
 20
-43.37307526693444
 30
0.0
 10
23.85867860514648
 20
-42.93002165593406
 30
0.0
 10
23.947896105124
 20
-42.25755665610237
 30
0.0
 10
23.93653666068252
 20
-41.49340471184883
 30
0.0
 10
24.25311943838109
 20
-41.40729165631485
 30
0.0
 10
24.51734999387052
 20
-41.66912332291626
 30
0.0
 10
24.66929138272171
 20
-41.85411998953677
 30
0.0
 10
24.75233527158968
 20
-41.82173498954481
 30
0.0
 10
24.83707249379079
 20
-41.78899721177509
 30
0.0
 10
24.92078666043644
 20
-41.75523637845025
 30
0.0
 10
25.10303166039086
 20
-41.9319780450728
 30
0.0
 10
25.32316499366909
 20
-42.24513887832761
 30
0.0
 10
25.77274499355678
 20
-42.13867054502114
 30
0.0
 10
25.85268443798122
 20
-42.10251082280765
 30
0.0
 10
25.93364693796111
 20
-42.06702137837217
 30
0.0
 10
26.01288082683003
 20
-42.02842748949315
 30
0.0
 10
26.10830721569526
 20
-42.03636498949086
 30
0.0
 10
26.20373360456016
 20
-42.04394971171145
 30
0.0
 10
26.29711388231449
 20
-42.05047610059875
 30
0.0
 10
26.54723332669667
 20
-42.0136461006079
 30
0.0
 10
26.76151054886528
 20
-41.98365998950395
 30
0.0
 10
26.94304999326417
 20
-41.89786443397021
 30
0.0
 10
27.06433499323404
 20
-41.97434665617336
 30
0.0
 10
27.64137360420083
 20
-42.18555471167564
 30
0.0
 10
27.88288527080697
 20
-42.10526248947343
 30
0.0
 10
27.88288527080697
 20
-42.10526248947343
 30
0.0
 10
28.18881415961959
 20
-41.95265082284488
 30
0.0
 10
28.18881415961959
 20
-41.95265082284488
 30
0.0
 10
28.28353499292897
 20
-42.0139636006075
 30
0.0
 10
28.37896138179419
 20
-42.07668748948052
 30
0.0
 10
28.47301193732621
 20
-42.13867054502114
 30
0.0
 10
28.47301193732621
 20
-42.13867054502114
 30
0.0
 10
28.58258471507652
 20
-42.29198776720457
 30
0.0
 10
28.58258471507652
 20
-42.29198776720457
 30
0.0
 10
28.85888027056295
 20
-42.45631165605236
 30
0.0
 10
29.49620860373691
 20
-42.50457165604038
 30
0.0
 10
29.71979915923675
 20
-42.27960526720797
 30
0.0
 10
29.92236415918612
 20
-42.32818276719559
 30
0.0
 10
30.13082054802294
 20
-42.45426554494212
 30
0.0
 10
30.3761069368503
 20
-42.47666693382548
 30
0.0
 10
30.52631971459052
 20
-42.49250665604337
 30
0.0
 10
30.57521471457838
 20
-42.31368360053241
 30
0.0
 10
30.76850165897467
 20
-42.35813360052137
 30
0.0
 10
31.00172304780502
 20
-42.40808693384251
 30
0.0
 10
31.37792526993341
 20
-42.85318665595315
 30
0.0
 10
31.78615971427567
 20
-42.73916887820425
 30
0.0
 10
31.98805443644735
 20
-42.68371221155158
 30
0.0
 10
32.17823693639979
 20
-42.49698693382043
 30
0.0
 10
32.35494332524451
 20
-42.39983193384456
 30
0.0
 10
32.51859693631494
 20
-42.60998165601419
 30
0.0
 10
32.89652776955365
 20
-42.74985804486838
 30
0.0
 10
33.15215054726736
 20
-42.85974832261861
 30
0.0
 10
33.35266943610616
 20
-42.72608082265213
 30
0.0
 10
33.55385860272264
 20
-42.59068471157436
 30
0.0
 10
33.75264888045079
 20
-42.45493582271948
 30
0.0
 10
33.78605693599787
 20
-42.47666693382548
 30
0.0
 10
33.81911221376751
 20
-42.50009137826396
 30
0.0
 10
33.85184999153691
 20
-42.52005860048115
 30
0.0
 10
33.90698915818999
 20
-42.63993248933998
 30
0.0
 10
33.82359249154425
 20
-42.79945860041111
 30
0.0
 10
33.86289193597879
 20
-42.93690082259912
 30
0.0
 10
33.90388471374614
 20
-43.01373582258004
 30
0.0
 10
33.94350165818091
 20
-43.08986526700543
 30
0.0
 10
33.98347138039314
 20
-43.16634748920858
 30
0.0
 10
34.06408110259495
 20
-43.17357943365077
 30
0.0
 10
34.14260943590867
 20
-43.18151693364912
 30
0.0
 10
34.22392471366632
 20
-43.18807860031394
 30
0.0
 10
34.01963110260631
 20
-43.92393776679666
 30
0.0
 10
33.81636054710142
 20
-44.66050248883489
 30
0.0
 10
33.61206693604141
 20
-45.39600887753985
 30
0.0
 10
33.44876610274907
 20
-46.11810971069244
 30
0.0
 10
33.28408943612352
 20
-46.83918748828989
 30
0.0
 10
33.11976554727573
 20
-47.56231137699825
 30
0.0
 10
33.06878915839946
 20
-48.00568248799888
 30
0.0
 10
33.01745999174576
 20
-48.45078221010951
 30
0.0
 10
32.96680110286942
 20
-48.89485887666502
 30
0.0
 10
32.92305665843598
 20
-49.46364248763417
 30
0.0
 10
32.87895943622478
 20
-50.03242609860269
 30
0.0
 10
32.83521499179135
 20
-50.60156248734961
 30
0.0
 10
32.83521499179135
 20
-50.60156248734961
 30
0.0
 10
32.83521499179135
 20
-51.157928320544
 30
0.0
 10
32.83521499179135
 20
-51.157928320544
 30
0.0
 10
32.82830054734844
 20
-51.53000304267277
 30
0.0
 10
32.82075110290602
 20
-51.90003165369194
 30
0.0
 10
32.81316638068575
 20
-52.27312943137648
 30
0.0
 10
32.81316638068575
 20
-52.27312943137648
 30
0.0
 10
32.81316638068575
 20
-53.07171248673222
 30
0.0
 10
32.81316638068575
 20
-53.07171248673222
 30
0.0
 10
32.82075110290602
 20
-53.35107720888466
 30
0.0
 10
32.82830054734844
 20
-53.63428720881367
 30
0.0
 10
32.83521499179135
 20
-53.91368720874363
 30
0.0
 10
32.92545554732431
 20
-54.48211804193503
 30
0.0
 10
32.79799693624489
 20
-55.33890943060986
 30
0.0
 10
32.71530582515436
 20
-55.84948470825992
 30
0.0
 10
32.58128554741012
 20
-56.68525054138428
 30
0.0
 10
32.92305665843598
 20
-57.28606637456763
 30
0.0
 10
33.14181415838133
 20
-57.78320081888781
 30
0.0
 10
33.20037526947753
 20
-57.9068847077457
 30
0.0
 10
33.25724304724126
 20
-58.0315916521587
 30
0.0
 10
33.31545138056003
 20
-58.15629859657235
 30
0.0
 10
33.26789693612753
 20
-58.40677081873164
 30
0.0
 10
33.02123471396698
 20
-58.61829637423416
 30
0.0
 10
32.91272026954962
 20
-58.83327915195861
 30
0.0
 10
32.6657052696113
 20
-59.31937165183691
 30
0.0
 10
32.53411915853323
 20
-59.91676554057649
 30
0.0
 10
32.36496221413094
 20
-60.45178831822017
 30
0.0
 10
31.66282860319555
 20
-62.68420137321784
 30
0.0
 10
31.1247013811077
 20
-65.00724303930345
 30
0.0
 10
30.13530082579936
 20
-66.94441637215262
 30
0.0
 10
29.93478193696088
 20
-67.33748137205434
 30
0.0
 10
29.65023138147618
 20
-67.74606859417437
 30
0.0
 10
29.3139636037825
 20
-68.0058541496649
 30
0.0
 10
29.12896693716231
 20
-68.15017553851797
 30
0.0
 10
28.91398415943819
 20
-68.22665776072112
 30
0.0
 10
28.71417082615491
 20
-68.3658638717973
 30
0.0
 10
28.62012027062289
 20
-68.49057081621096
 30
0.0
 10
28.52402360397999
 20
-68.61390192729108
 30
0.0
 10
28.42962027067053
 20
-68.73825609392632
 30
0.0
 10
28.22910138183173
 20
-68.99596026052909
 30
0.0
 10
27.92560665968529
 20
-69.2009594271443
 30
0.0
 10
27.83878804859577
 20
-69.5688713714969
 30
0.0
 10
27.74300888195311
 20
-69.98158609361558
 30
0.0
 10
27.97245554856257
 20
-70.3381738713042
 30
0.0
 10
28.03722554854616
 20
-70.61722109345705
 30
0.0
 10
28.03962443743449
 20
-70.70195831565816
 30
0.0
 10
28.04343443743355
 20
-70.7856724823035
 30
0.0
 10
28.04720915965476
 20
-70.86906914894924
 30
0.0
 10
27.63138999309223
 20
-71.38514775993148
 30
0.0
 10
27.21592360430714
 20
-71.89776914869243
 30
0.0
 10
26.8001044377443
 20
-72.41176637078564
 30
0.0
 10
26.51174388226086
 20
-72.83792192623484
 30
0.0
 10
26.27816971565275
 20
-73.25169498168681
 30
0.0
 10
26.05835388237444
 20
-73.75606137044981
 30
0.0
 10
25.97291110461781
 20
-73.93795359262678
 30
0.0
 10
25.8902199935276
 20
-74.12086887035888
 30
0.0
 10
25.80548277132649
 20
-74.30244359253561
 30
0.0
 10
25.73072916023398
 20
-74.57701053691139
 30
0.0
 10
25.63875999359038
 20
-74.98422192569853
 30
0.0
 10
25.71901693801474
 20
-75.28637609228961
 30
0.0
 10
25.824779715766
 20
-75.69217636996571
 30
0.0
 10
26.33292082675022
 20
-76.24374442538344
 30
0.0
 10
26.68090082666315
 20
-76.422884980894
 30
0.0
 10
26.80317360441031
 20
-76.48592636976727
 30
0.0
 10
27.18180999320454
 20
-76.71470275859937
 30
0.0
 10
27.38060027093269
 20
-76.665102203056
 30
0.0
 10
27.56972443755217
 20
-76.54346442530836
 30
0.0
 10
27.75920138194909
 20
-76.422884980894
 30
0.0
 10
27.94903110412377
 20
-76.30265831425741
 30
0.0
 10
28.51848499287029
 20
-75.94850470323495
 30
0.0
 10
29.23818693713487
 20
-75.25741303674143
 30
0.0
 10
29.65330054814219
 20
-74.73964109242606
 30
0.0
 10
29.85657110364708
 20
-74.48846331471124
 30
0.0
 10
30.14147443690922
 20
-74.33070109252827
 30
0.0
 10
30.26653415909999
 20
-73.99722025927852
 30
0.0
 10
30.5369736034768
 20
-73.27857664834723
 30
0.0
 10
30.71336249232159
 20
-72.53305137075552
 30
0.0
 10
30.92213638115834
 20
-71.77616664872232
 30
0.0
 10
31.00828471447016
 20
-71.46402887102265
 30
0.0
 10
31.08303832556267
 20
-71.16776609331902
 30
0.0
 10
31.1736316588734
 20
-70.88042859339072
 30
0.0
 10
31.20739249219824
 20
-70.759849148977
 30
0.0
 10
31.23942471441243
 20
-70.63997526011754
 30
0.0
 10
31.27286804773735
 20
-70.52041887125894
 30
0.0
 10
31.39549360326227
 20
-70.39296026017952
 30
0.0
 10
31.51953026989792
 20
-70.26444331576747
 30
0.0
 10
31.64353165875572
 20
-70.13698470468805
 30
0.0
 10
31.75172860317315
 20
-70.00261164916606
 30
0.0
 10
31.84955388092638
 20
-69.84241526031691
 30
0.0
 10
31.93880665868206
 20
-69.68945081591124
 30
0.0
 10
32.53101471408938
 20
-68.68004776060788
 30
0.0
 10
32.89755082510909
 20
-67.53214414978385
 30
0.0
 10
33.55696304716617
 20
-66.59474303890657
 30
0.0
 10
33.90388471374614
 20
-66.10759220569562
 30
0.0
 10
34.25045360254865
 20
-65.61804248359539
 30
0.0
 10
34.59635221357318
 20
-65.12951581705092
 30
0.0
 10
34.79994026907767
 20
-64.76227415047633
 30
0.0
 10
35.00388110236023
 20
-64.39436220612373
 30
0.0
 10
35.20750443564256
 20
-64.02606220621584
 30
0.0
 10
35.4007552079626
 20
-63.68672526185615
 30
0.0
 10
35.59368936970711
 20
-63.34841137305158
 30
0.0
 10
35.78799936474985
 20
-63.00872165091477
 30
0.0
 10
35.79452575347224
 20
-63.00561720647059
 30
0.0
 10
35.8010874199715
 20
-63.00148970647194
 30
0.0
 10
35.80969519752968
 20
-62.99873803980617
 30
0.0
 10
36.37745573860045
 20
-64.14734720618507
 30
0.0
 10
37.14569988566758
 20
-65.17742303926117
 30
0.0
 10
37.80888681319271
 20
-66.2347333167748
 30
0.0
 10
38.32119165708652
 20
-67.0491208165709
 30
0.0
 10
38.77867289956252
 20
-67.87458553858707
 30
0.0
 10
39.27513705356333
 20
-68.71483164948783
 30
0.0
 10
39.46630832346661
 20
-69.04005748274028
 30
0.0
 10
39.62135315584173
 20
-69.4017958159827
 30
0.0
 10
39.82151926184618
 20
-69.73287776034444
 30
0.0
 10
40.0929817549206
 20
-70.17864776023308
 30
0.0
 10
40.40374369143684
 20
-70.6937033156602
 30
0.0
 10
40.54362007675719
 20
-71.27455192662572
 30
0.0
 10
40.52845063269975
 20
-71.43510109325263
 30
0.0
 10
40.51292841087353
 20
-71.59494470432335
 30
0.0
 10
40.49984035565188
 20
-71.75514109317248
 30
0.0
 10
40.53222535482567
 20
-71.82749581537634
 30
0.0
 10
40.56531590953702
 20
-71.90122637091373
 30
0.0
 10
40.59664257540447
 20
-71.97354581534007
 30
0.0
 10
40.32345147126305
 20
-72.31979720414235
 30
0.0
 10
39.62237621137119
 20
-72.39800803745615
 30
0.0
 10
39.08943483607877
 20
-72.51064998187215
 30
0.0
 10
38.73870317836001
 20
-72.59436414851812
 30
0.0
 10
38.39040568724582
 20
-72.67737275960859
 30
0.0
 10
38.03935652953516
 20
-72.7600638706988
 30
0.0
 10
37.43783610175151
 20
-72.8444835929003
 30
0.0
 10
36.83666656021834
 20
-72.92886803732365
 30
0.0
 10
36.2358507422131
 20
-73.01328775952452
 30
0.0
 10
35.3404654872785
 20
-73.18449081503736
 30
0.0
 10
34.4530186024977
 20
-73.19793164836726
 30
0.0
 10
34.6721288802208
 20
-74.38961498140289
 30
0.0
 10
34.70278526910212
 20
-74.55221025914003
 30
0.0
 10
34.71449749132136
 20
-74.76306553686453
 30
0.0
 10
34.7703069357518
 20
-74.89362859238749
 30
0.0
 10
34.92499999126875
 20
-74.98249331458788
 30
0.0
 10
35.19819110231165
 20
-74.94598081459664
 30
0.0
 10
35.4045652078654
 20
-74.980447203477
 30
0.0
 10
36.09943157902677
 20
-75.0972166478923
 30
0.0
 10
37.04960322145254
 20
-75.01420803680183
 30
0.0
 10
37.80888681319271
 20
-75.01420803680183
 30
0.0
 10
38.33494999041633
 20
-74.99868581458354
 30
0.0
 10
38.86034095303455
 20
-74.98422192569853
 30
0.0
 10
39.38432177300002
 20
-74.97011081459064
 30
0.0
 10
39.66784926576663
 20
-74.95183692570657
 30
0.0
 10
39.95208332334531
 20
-74.93222248126715
 30
0.0
 10
40.23596258460618
 20
-74.91394859238244
 30
0.0
 10
40.70759118368505
 20
-74.95564692570562
 30
0.0
 10
41.17784394946568
 20
-74.99593414791777
 30
0.0
 10
41.64809671524631
 20
-75.0351983145748
 30
0.0
 10
42.05047503831412
 20
-75.03900831457385
 30
0.0
 10
42.45631058351594
 20
-75.04415887012762
 30
0.0
 10
42.86010001765887
 20
-75.04588748123827
 30
0.0
 10
43.26833445168838
 20
-75.07552081456446
 30
0.0
 10
43.67621610794912
 20
-75.10444859233512
 30
0.0
 10
44.08515609751619
 20
-75.1334116478833
 30
0.0
 10
44.35111525739767
 20
-75.07552081456446
 30
0.0
 10
44.61777997281671
 20
-75.01695970346825
 30
0.0
 10
44.88201052163119
 20
-74.95871609237165
 30
0.0
 10
44.96780607499791
 20
-74.79128775907968
 30
0.0
 10
45.05289721095926
 20
-74.62354192578876
 30
0.0
 10
45.13452884852224
 20
-74.45607831471928
 30
0.0
 10
45.12694412649352
 20
-74.31415581475486
 30
0.0
 10
45.12041773777113
 20
-74.1715277592349
 30
0.0
 10
45.11145832205547
 20
-74.02889970371494
 30
0.0
 10
45.04601690633592
 20
-73.61343331492986
 30
0.0
 10
45.102849404886
 20
-73.25959720390763
 30
0.0
 10
45.00361301852885
 20
-72.89200275955464
 30
0.0
 10
44.86789941088008
 20
-72.66707164849976
 30
0.0
 10
44.73352635875266
 20
-72.4403766485567
 30
0.0
 10
44.59918858440213
 20
-72.21470470416877
 30
0.0
 10
44.28980248118412
 20
-71.64627387097738
 30
0.0
 10
43.9797472112271
 20
-71.07816053778622
 30
0.0
 10
43.67004249699551
 20
-70.50905942681746
 30
0.0
 10
43.48331722398149
 20
-70.15144859357306
 30
0.0
 10
43.29863806202638
 20
-69.79419053810706
 30
0.0
 10
43.11261943366655
 20
-69.43795553819619
 30
0.0
 10
42.88938057246741
 20
-68.83336498279195
 30
0.0
 10
42.66716585591436
 20
-68.22803359405401
 30
0.0
 10
42.44632697265953
 20
-67.62273748309424
 30
0.0
 10
42.15211031349897
 20
-66.88723109438929
 30
0.0
 10
41.85136726561601
 20
-66.11207248347203
 30
0.0
 10
41.62467227139948
 20
-65.31624109478207
 30
0.0
 10
41.56956943405174
 20
-65.03444220596346
 30
0.0
 10
41.5154522741859
 20
-64.75401915047837
 30
0.0
 10
41.46070116447162
 20
-64.47359609499264
 30
0.0
 10
41.30219811295981
 20
-63.89101887291584
 30
0.0
 10
41.11893006207981
 20
-63.30844165083968
 30
0.0
 10
40.92532562257463
 20
-62.75860220653259
 30
0.0
 10
40.85642812433235
 20
-62.53571720658859
 30
0.0
 10
40.78753062609007
 20
-62.31247942886619
 30
0.0
 10
40.71792757231024
 20
-62.09164054003244
 30
0.0
 10
40.20495341873063
 20
-61.02505220696574
 30
0.0
 10
39.59274287879386
 20
-60.06764859609439
 30
0.0
 10
38.94747706192263
 20
-59.14986192965718
 30
0.0
 10
38.70977540132024
 20
-58.81295915196366
 30
0.0
 10
38.47172096294907
 20
-58.47154081871555
 30
0.0
 10
38.23606541340559
 20
-58.13220387435586
 30
0.0
 10
38.31978054597547
 20
-57.79456026332929
 30
0.0
 10
38.40352902024435
 20
-57.45490581896935
 30
0.0
 10
38.48724318477529
 20
-57.11694470794318
 30
0.0
 10
38.84450123121643
 20
-56.12475720819123
 30
0.0
 10
39.33955427414214
 20
-55.13980165288147
 30
0.0
 10
39.85425703878875
 20
-54.29641581975901
 30
0.0
 10
39.99205203527331
 20
-54.05906693092999
 30
0.0
 10
40.13192842059365
 20
-53.82203554209995
 30
0.0
 10
40.26937063930943
 20
-53.58570970882606
 30
0.0
 10
41.1251389508103
 20
-52.42813998689304
 30
0.0
 10
42.26718642167424
 20
-51.51589193156553
 30
0.0
 10
43.15601110032223
 20
-50.3924358207351
 30
0.0
 10
43.73481249534309
 20
-49.64246554314514
 30
0.0
 10
44.31530831386674
 20
-48.89073137666637
 30
0.0
 10
44.89407552132338
 20
-48.13934998796535
 30
0.0
 10
45.22409912401489
 20
-47.60295137698815
 30
0.0
 10
45.55726244884852
 20
-47.06034387712389
 30
0.0
 10
45.88866188483826
 20
-46.52186387725828
 30
0.0
 10
46.08434771317923
 20
-46.13363193291073
 30
0.0
 10
46.28313798588545
 20
-45.74190748856437
 30
0.0
 10
46.47917776615813
 20
-45.35261721088418
 30
0.0
 10
46.85400297132146
 20
-44.71250193326628
 30
0.0
 10
47.31839962614038
 20
-43.90255943346907
 30
0.0
 10
47.52992517629948
 20
-43.14429887810299
 30
0.0
 10
47.69216767216032
 20
-43.19770943364477
 30
0.0
 10
47.84548609914974
 20
-43.26660693362798
 30
0.0
 10
48.02222776577229
 20
-43.33067137805637
 30
0.0
 10
48.02222776577229
 20
-43.33067137805637
 30
0.0
 10
48.03185738571634
 20
-43.33067137805637
 30
0.0
 10
48.03185738571634
 20
-43.33067137805637
 30
0.0
 10
48.00603405304182
 20
-43.22148665586102
 30
0.0
 10
47.98123377589675
 20
-43.11159637811079
 30
0.0
 10
47.95470488768466
 20
-43.00237637813856
 30
0.0
 10
48.25096765790415
 20
-43.09296971144897
 30
0.0
 10
48.21480793660444
 20
-43.21630082252909
 30
0.0
 10
48.40326182068547
 20
-43.35240248916173
 30
0.0
 10
48.72227875699112
 20
-43.5818491557712
 30
0.0
 10
49.16702569008912
 20
-43.66521054463941
 30
0.0
 10
49.56217206889698
 20
-43.81161332238025
 30
0.0
 10
49.56217206889698
 20
-43.81161332238025
 30
0.0
 10
49.57286123529094
 20
-43.81161332238025
 30
0.0
 10
49.57286123529094
 20
-43.81161332238025
 30
0.0
 10
49.52978706972319
 20
-43.70309887796291
 30
0.0
 10
49.48706568192421
 20
-43.59183276687979
 30
0.0
 10
49.44296846082701
 20
-43.48331832246244
 30
0.0
 10
49.95389650334771
 20
-43.72239582240274
 30
0.0
 10
50.56571898773881
 20
-44.20506637783791
 30
0.0
 10
51.21204443164132
 20
-44.05174915565384
 30
0.0
 10
51.16586452798338
 20
-43.95561721123309
 30
0.0
 10
51.1190156402897
 20
-43.86262498903404
 30
0.0
 10
51.07146119705848
 20
-43.76857443350234
 30
0.0
 10
51.07146119705848
 20
-43.76857443350234
 30
0.0
 10
51.07146119705848
 20
-43.7568622112831
 30
0.0
 10
51.07146119705848
 20
-43.7568622112831
 30
0.0
 10
51.2419939704856
 20
-43.76684582239169
 30
0.0
 10
51.46283285374042
 20
-43.80783860015936
 30
0.0
 10
51.58549368394441
 20
-43.88742526680605
 30
0.0
 10
51.62475784960937
 20
-43.94288193345873
 30
0.0
 10
51.6643747930431
 20
-43.99629248900116
 30
0.0
 10
51.70399173647683
 20
-44.05174915565384
 30
0.0
 10
51.78668284547832
 20
-44.1206466556364
 30
0.0
 10
52.30791199884732
 20
-44.30737193336755
 30
0.0
 10
52.48052616111023
 20
-44.2591472111577
 30
0.0
 10
52.5476950482855
 20
-44.21261582228033
 30
0.0
 10
52.6121122688643
 20
-44.1647438778476
 30
0.0
 10
52.67723504498066
 20
-44.11687193341551
 30
0.0
 10
52.68101109794098
 20
-44.11031026675005
 30
0.0
 10
52.68654837807639
 20
-44.10307832230786
 30
0.0
 10
52.68757143360585
 20
-44.09482332230991
 30
0.0
 10
52.60248143577667
 20
-44.00419471122134
 30
0.0
 10
52.51428699358225
 20
-43.9136013779103
 30
0.0
 10
52.42644532915661
 20
-43.82230248904438
 30
0.0
 10
52.43022005128254
 20
-43.73065082240068
 30
0.0
 10
52.43367727341656
 20
-43.64005748909028
 30
0.0
 10
52.43815755108004
 20
-43.54808832244635
 30
0.0
 10
52.49499004963012
 20
-43.59183276687979
 30
0.0
 10
52.55390393701599
 20
-43.63628276686875
 30
0.0
 10
52.6121122688643
 20
-43.68002721130218
 30
0.0
 10
52.69790782223103
 20
-43.7789108223887
 30
0.0
 10
52.9538833712561
 20
-43.68002721130218
 30
0.0
 10
53.02793142492254
 20
-43.62421776687174
 30
0.0
 10
53.37037280507502
 20
-43.35240248916173
 30
0.0
 10
53.71419001852573
 20
-43.07783554478595
 30
0.0
 10
54.05525556537999
 20
-42.80598498929842
 30
0.0
 10
54.35465805774159
 20
-42.94413276704195
 30
0.0
 10
54.65300221679686
 20
-43.08263332256261
 30
0.0
 10
54.95169915362091
 20
-43.22148665586102
 30
0.0
 10
55.11051970512462
 20
-43.26593665584998
 30
0.0
 10
55.25141914597442
 20
-43.14673304476916
 30
0.0
 10
55.40092776392736
 20
-43.18807860031394
 30
0.0
 10
55.51254525042365
 20
-43.26212665585093
 30
0.0
 10
55.62624552530069
 20
-43.3337758224999
 30
0.0
 10
55.73818331939864
 20
-43.40577776692664
 30
0.0
 10
55.93972385063653
 20
-43.47915554468563
 30
0.0
 10
56.13988995664097
 20
-43.55288610022301
 30
0.0
 10
56.3404088404142
 20
-43.62421776687174
 30
0.0
 10
56.51369328043779
 20
-43.71445832240503
 30
0.0
 10
56.66182466554753
 20
-43.8757130445868
 30
0.0
 10
56.85511160506082
 20
-43.97526693345068
 30
0.0
 10
56.93847299182298
 20
-43.94288193345873
 30
0.0
 10
57.02148160081637
 20
-43.90947387791164
 30
0.0
 10
57.10554998572354
 20
-43.8757130445868
 30
0.0
 10
57.12279937600931
 20
-43.83263887793073
 30
0.0
 10
57.14206104218457
 20
-43.79062304460794
 30
0.0
 10
57.16033493060726
 20
-43.74514998906386
 30
0.0
 10
57.10762993195187
 20
-43.64351471131157
 30
0.0
 10
57.07764382160577
 20
-43.55186304466789
 30
0.0
 10
57.04046104477661
 20
-43.41717248914564
 30
0.0
 10
57.06974159958515
 20
-43.31278554472759
 30
0.0
 10
57.41698075739301
 20
-43.16567721143058
 30
0.0
 10
57.53241109672827
 20
-43.14429887810299
 30
0.0
 10
57.62265019659039
 20
-43.25387165585298
 30
0.0
 10
57.71430186091882
 20
-43.36273887804809
 30
0.0
 10
57.80489519194093
 20
-43.47262915579832
 30
0.0
 10
57.92205268895199
 20
-43.51295165578863
 30
0.0
 10
58.23348490322892
 20
-43.30417776695188
 30
0.0
 10
58.38401665207052
 20
-43.25387165585298
 30
0.0
 10
58.68133628069216
 20
-43.15361221143358
 30
0.0
 10
58.9641934956981
 20
-43.09780276700314
 30
0.0
 10
59.20397654513628
 20
-42.94829554481876
 30
0.0
 10
59.20397654513628
 20
-42.94829554481876
 30
0.0
 10
59.36830042983291
 20
-42.78361887819322
 30
0.0
 10
59.36830042983291
 20
-42.78361887819322
 30
0.0
 10
59.4836940380001
 20
-42.7133102670996
 30
0.0
 10
59.66491597782118
 20
-42.70057498932459
 30
0.0
 10
59.72933319839998
 20
-42.58690998935347
 30
0.0
 10
59.81100276282491
 20
-42.44428193383352
 30
0.0
 10
59.76446986417024
 20
-42.26821054498833
 30
0.0
 10
59.7407279203315
 20
-42.1269583228019
 30
0.0
 10
59.92124430461503
 20
-41.89338415619314
 30
0.0
 10
60.16067457628444
 20
-41.71082165623881
 30
0.0
 10
60.3205181833176
 20
-41.4496602674154
 30
0.0
 10
60.35565484908785
 20
-41.28293748967896
 30
0.0
 10
60.39184984816444
 20
-41.11445082305499
 30
0.0
 10
60.42836387378168
 20
-40.9473752675408
 30
0.0
 10
60.4875937346107
 20
-40.85505332311975
 30
0.0
 10
60.5458388737525
 20
-40.76477748980894
 30
0.0
 10
60.60475276262648
 20
-40.6741841564979
 30
0.0
 10
60.63297498484162
 20
-40.41510415656289
 30
0.0
 10
60.66296109594556
 20
-40.15567137885012
 30
0.0
 10
60.69121706274917
 20
-39.89764971224776
 30
0.0
 10
60.62267234227567
 20
-39.81358276782434
 30
0.0
 10
60.55373956625651
 20
-39.72951582340092
 30
0.0
 10
60.48448929024546
 20
-39.64513137897757
 30
0.0
  0
SPLINE
  5
42
330
1F
100
AcDbEntity
  8
Layer 1
370
     0
100
AcDbSpline
210
0.0
220
0.0
230
1.0
 70
    11
 71
     3
 72
    77
 73
    73
 74
     0
 42
0.0000000001
 43
0.0000000001
 12
1.0
 22
0.0
 32
0.0
 13
1.0
 23
0.0
 33
0.0
 40
0.0
 40
0.0
 40
0.0
 40
0.0
 40
1.0
 40
1.0
 40
1.0
 40
2.0
 40
2.0
 40
2.0
 40
3.0
 40
3.0
 40
3.0
 40
4.0
 40
4.0
 40
4.0
 40
5.0
 40
5.0
 40
5.0
 40
6.0
 40
6.0
 40
6.0
 40
7.0
 40
7.0
 40
7.0
 40
8.0
 40
8.0
 40
8.0
 40
9.0
 40
9.0
 40
9.0
 40
10.0
 40
10.0
 40
10.0
 40
11.0
 40
11.0
 40
11.0
 40
12.0
 40
12.0
 40
12.0
 40
13.0
 40
13.0
 40
13.0
 40
14.0
 40
14.0
 40
14.0
 40
15.0
 40
15.0
 40
15.0
 40
16.0
 40
16.0
 40
16.0
 40
17.0
 40
17.0
 40
17.0
 40
18.0
 40
18.0
 40
18.0
 40
19.0
 40
19.0
 40
19.0
 40
20.0
 40
20.0
 40
20.0
 40
21.0
 40
21.0
 40
21.0
 40
22.0
 40
22.0
 40
22.0
 40
23.0
 40
23.0
 40
23.0
 40
24.0
 40
24.0
 40
24.0
 40
24.0
 10
35.89651380642586
 20
-35.53548193556045
 30
0.0
 10
34.88675888016717
 20
-35.77043193550178
 30
0.0
 10
33.4859841582952
 20
-35.54924026889059
 30
0.0
 10
32.31084610303331
 20
-35.54684138000226
 30
0.0
 10
32.179612769733
 20
-35.69945304663081
 30
0.0
 10
32.04869693643229
 20
-35.85139443548167
 30
0.0
 10
31.91675804757646
 20
-36.0053819354431
 30
0.0
 10
31.33107638105612
 20
-36.03399221321384
 30
0.0
 10
30.74437165898066
 20
-36.06359026876187
 30
0.0
 10
30.15699665912752
 20
-36.09220054653261
 30
0.0
 10
30.15699665912752
 20
-36.09220054653261
 30
0.0
 10
30.06915499248256
 20
-36.45393887977535
 30
0.0
 10
30.06915499248256
 20
-36.45393887977535
 30
0.0
 10
29.44868943708226
 20
-36.46392249088395
 30
0.0
 10
28.83132832612549
 20
-36.47563471310318
 30
0.0
 10
28.21050999294743
 20
-36.48597110198954
 30
0.0
 10
28.10541749297353
 20
-36.6713205463878
 30
0.0
 10
27.99933721522235
 20
-36.85804582411895
 30
0.0
 10
27.89357443747109
 20
-37.04441832407234
 30
0.0
 10
27.62482832642709
 20
-37.05821193517999
 30
0.0
 10
27.35438888205028
 20
-37.07302860184276
 30
0.0
 10
27.08465499322899
 20
-37.08816276850578
 30
0.0
 10
27.83878804859577
 20
-36.28132471315177
 30
0.0
 10
28.59327388174064
 20
-35.47723832446417
 30
0.0
 10
29.34772443710766
 20
-34.67145860244312
 30
0.0
 10
29.63918943703462
 20
-34.26699888032208
 30
0.0
 10
29.72946527034543
 20
-33.7250616582355
 30
0.0
 10
29.98163082583785
 20
-33.27272999168171
 30
0.0
 10
30.12048415913659
 20
-33.08565193617312
 30
0.0
 10
30.25930221465748
 20
-32.90030249177486
 30
0.0
 10
30.39780277017846
 20
-32.71463554737699
 30
0.0
 10
30.65688277011347
 20
-32.25196749193686
 30
0.0
 10
30.91525721449327
 20
-31.78894665871928
 30
0.0
 10
31.1736316588734
 20
-31.3259258255017
 30
0.0
 10
31.61770832542891
 20
-30.58417527013185
 30
0.0
 10
32.06524221420603
 20
-29.86002832586837
 30
0.0
 10
32.40870665856438
 20
-29.01907665941176
 30
0.0
 10
32.48173165854625
 20
-28.83750193723503
 30
0.0
 10
32.55581499186107
 20
-28.65525693728062
 30
0.0
 10
32.62816971406524
 20
-28.47301193732621
 30
0.0
 10
32.77697138069474
 20
-28.49922332620862
 30
0.0
 10
32.92580832510176
 20
-28.52367082620255
 30
0.0
 10
33.07602110284197
 20
-28.54847110397392
 30
0.0
 10
33.21900193613968
 20
-28.65077665950388
 30
0.0
 10
33.35919582499346
 20
-28.75311749281169
 30
0.0
 10
33.50355249162406
 20
-28.85507027056389
 30
0.0
 10
33.55004860272359
 20
-28.86988693722699
 30
0.0
 10
33.59725026937831
 20
-28.88438610389016
 30
0.0
 10
33.64409915825561
 20
-28.89916749277509
 30
0.0
 10
33.72611999156846
 20
-28.963937492759
 30
0.0
 10
33.74954443600694
 20
-29.16893665937454
 30
0.0
 10
33.89492415819299
 20
-29.2819313815683
 30
0.0
 10
34.1911869358966
 20
-29.50792082595647
 30
0.0
 10
34.48610915804518
 20
-29.73394554812216
 30
0.0
 10
34.78170165797112
 20
-29.95922943695449
 30
0.0
 10
34.88675888016717
 20
-30.09843554803099
 30
0.0
 10
34.99287443569619
 20
-30.23725360355188
 30
0.0
 10
35.09898999122522
 20
-30.3754013812951
 30
0.0
 10
35.30776388006196
 20
-30.63412860345267
 30
0.0
 10
35.51308054667741
 20
-30.89320860338767
 30
0.0
 10
35.72083047757458
 20
-31.15055999221235
 30
0.0
 10
35.88515436227122
 20
-31.48368804768467
 30
0.0
 10
36.05050130249731
 20
-31.81512276982386
 30
0.0
 10
36.21415490943327
 20
-32.14722776974104
 30
0.0
 10
36.3864162939274
 20
-32.48416582521241
 30
0.0
 10
36.54728295649002
 20
-32.81969276957273
 30
0.0
 10
36.71714545215647
 20
-33.17384638059552
 30
0.0
 10
36.77295489517709
 20
-33.29132138056602
 30
0.0
 10
36.92108628028684
 20
-33.45737388052446
 30
0.0
 10
36.89180572547829
 20
-33.63238693603636
 30
0.0
 10
36.77983406166826
 20
-34.31003776920031
 30
0.0
 10
36.19245907665344
 20
-34.97908082458854
 30
0.0
 10
35.89651380642586
 20
-35.53548193556045
 30
0.0
  0
HATCH
  5
43
330
1F
100
AcDbEntity
  8
Layer 1
 62
     7
100
AcDbHatch
 10
0.0
 20
0.0
 30
0.0
210
0.0
220
0.0
230
1.0
  2
SOLID
 70
     1
 71
     0
 91
        2
 92
        1
 93
        1
 72
     4
 94
        3
 73
     0
 74
     1
 95
      965
 96
      961
 40
0.0
 40
0.0
 40
0.0
 40
0.0
 40
1.0
 40
1.0
 40
1.0
 40
2.0
 40
2.0
 40
2.0
 40
3.0
 40
3.0
 40
3.0
 40
4.0
 40
4.0
 40
4.0
 40
5.0
 40
5.0
 40
5.0
 40
6.0
 40
6.0
 40
6.0
 40
7.0
 40
7.0
 40
7.0
 40
8.0
 40
8.0
 40
8.0
 40
9.0
 40
9.0
 40
9.0
 40
10.0
 40
10.0
 40
10.0
 40
11.0
 40
11.0
 40
11.0
 40
12.0
 40
12.0
 40
12.0
 40
13.0
 40
13.0
 40
13.0
 40
14.0
 40
14.0
 40
14.0
 40
15.0
 40
15.0
 40
15.0
 40
16.0
 40
16.0
 40
16.0
 40
17.0
 40
17.0
 40
17.0
 40
18.0
 40
18.0
 40
18.0
 40
19.0
 40
19.0
 40
19.0
 40
20.0
 40
20.0
 40
20.0
 40
21.0
 40
21.0
 40
21.0
 40
22.0
 40
22.0
 40
22.0
 40
23.0
 40
23.0
 40
23.0
 40
24.0
 40
24.0
 40
24.0
 40
25.0
 40
25.0
 40
25.0
 40
26.0
 40
26.0
 40
26.0
 40
27.0
 40
27.0
 40
27.0
 40
28.0
 40
28.0
 40
28.0
 40
29.0
 40
29.0
 40
29.0
 40
30.0
 40
30.0
 40
30.0
 40
31.0
 40
31.0
 40
31.0
 40
32.0
 40
32.0
 40
32.0
 40
33.0
 40
33.0
 40
33.0
 40
34.0
 40
34.0
 40
34.0
 40
35.0
 40
35.0
 40
35.0
 40
36.0
 40
36.0
 40
36.0
 40
37.0
 40
37.0
 40
37.0
 40
38.0
 40
38.0
 40
38.0
 40
39.0
 40
39.0
 40
39.0
 40
40.0
 40
40.0
 40
40.0
 40
41.0
 40
41.0
 40
41.0
 40
42.0
 40
42.0
 40
42.0
 40
43.0
 40
43.0
 40
43.0
 40
44.0
 40
44.0
 40
44.0
 40
45.0
 40
45.0
 40
45.0
 40
46.0
 40
46.0
 40
46.0
 40
47.0
 40
47.0
 40
47.0
 40
48.0
 40
48.0
 40
48.0
 40
49.0
 40
49.0
 40
49.0
 40
50.0
 40
50.0
 40
50.0
 40
51.0
 40
51.0
 40
51.0
 40
52.0
 40
52.0
 40
52.0
 40
53.0
 40
53.0
 40
53.0
 40
54.0
 40
54.0
 40
54.0
 40
55.0
 40
55.0
 40
55.0
 40
56.0
 40
56.0
 40
56.0
 40
57.0
 40
57.0
 40
57.0
 40
58.0
 40
58.0
 40
58.0
 40
59.0
 40
59.0
 40
59.0
 40
60.0
 40
60.0
 40
60.0
 40
61.0
 40
61.0
 40
61.0
 40
62.0
 40
62.0
 40
62.0
 40
63.0
 40
63.0
 40
63.0
 40
64.0
 40
64.0
 40
64.0
 40
65.0
 40
65.0
 40
65.0
 40
66.0
 40
66.0
 40
66.0
 40
67.0
 40
67.0
 40
67.0
 40
68.0
 40
68.0
 40
68.0
 40
69.0
 40
69.0
 40
69.0
 40
70.0
 40
70.0
 40
70.0
 40
71.0
 40
71.0
 40
71.0
 40
72.0
 40
72.0
 40
72.0
 40
73.0
 40
73.0
 40
73.0
 40
74.0
 40
74.0
 40
74.0
 40
75.0
 40
75.0
 40
75.0
 40
76.0
 40
76.0
 40
76.0
 40
77.0
 40
77.0
 40
77.0
 40
78.0
 40
78.0
 40
78.0
 40
79.0
 40
79.0
 40
79.0
 40
80.0
 40
80.0
 40
80.0
 40
81.0
 40
81.0
 40
81.0
 40
82.0
 40
82.0
 40
82.0
 40
83.0
 40
83.0
 40
83.0
 40
84.0
 40
84.0
 40
84.0
 40
85.0
 40
85.0
 40
85.0
 40
86.0
 40
86.0
 40
86.0
 40
87.0
 40
87.0
 40
87.0
 40
88.0
 40
88.0
 40
88.0
 40
89.0
 40
89.0
 40
89.0
 40
90.0
 40
90.0
 40
90.0
 40
91.0
 40
91.0
 40
91.0
 40
92.0
 40
92.0
 40
92.0
 40
93.0
 40
93.0
 40
93.0
 40
94.0
 40
94.0
 40
94.0
 40
95.0
 40
95.0
 40
95.0
 40
96.0
 40
96.0
 40
96.0
 40
97.0
 40
97.0
 40
97.0
 40
98.0
 40
98.0
 40
98.0
 40
99.0
 40
99.0
 40
99.0
 40
100.0
 40
100.0
 40
100.0
 40
101.0
 40
101.0
 40
101.0
 40
102.0
 40
102.0
 40
102.0
 40
103.0
 40
103.0
 40
103.0
 40
104.0
 40
104.0
 40
104.0
 40
105.0
 40
105.0
 40
105.0
 40
106.0
 40
106.0
 40
106.0
 40
107.0
 40
107.0
 40
107.0
 40
108.0
 40
108.0
 40
108.0
 40
109.0
 40
109.0
 40
109.0
 40
110.0
 40
110.0
 40
110.0
 40
111.0
 40
111.0
 40
111.0
 40
112.0
 40
112.0
 40
112.0
 40
113.0
 40
113.0
 40
113.0
 40
114.0
 40
114.0
 40
114.0
 40
115.0
 40
115.0
 40
115.0
 40
116.0
 40
116.0
 40
116.0
 40
117.0
 40
117.0
 40
117.0
 40
118.0
 40
118.0
 40
118.0
 40
119.0
 40
119.0
 40
119.0
 40
120.0
 40
120.0
 40
120.0
 40
121.0
 40
121.0
 40
121.0
 40
122.0
 40
122.0
 40
122.0
 40
123.0
 40
123.0
 40
123.0
 40
124.0
 40
124.0
 40
124.0
 40
125.0
 40
125.0
 40
125.0
 40
126.0
 40
126.0
 40
126.0
 40
127.0
 40
127.0
 40
127.0
 40
128.0
 40
128.0
 40
128.0
 40
129.0
 40
129.0
 40
129.0
 40
130.0
 40
130.0
 40
130.0
 40
131.0
 40
131.0
 40
131.0
 40
132.0
 40
132.0
 40
132.0
 40
133.0
 40
133.0
 40
133.0
 40
134.0
 40
134.0
 40
134.0
 40
135.0
 40
135.0
 40
135.0
 40
136.0
 40
136.0
 40
136.0
 40
137.0
 40
137.0
 40
137.0
 40
138.0
 40
138.0
 40
138.0
 40
139.0
 40
139.0
 40
139.0
 40
140.0
 40
140.0
 40
140.0
 40
141.0
 40
141.0
 40
141.0
 40
142.0
 40
142.0
 40
142.0
 40
143.0
 40
143.0
 40
143.0
 40
144.0
 40
144.0
 40
144.0
 40
145.0
 40
145.0
 40
145.0
 40
146.0
 40
146.0
 40
146.0
 40
147.0
 40
147.0
 40
147.0
 40
148.0
 40
148.0
 40
148.0
 40
149.0
 40
149.0
 40
149.0
 40
150.0
 40
150.0
 40
150.0
 40
151.0
 40
151.0
 40
151.0
 40
152.0
 40
152.0
 40
152.0
 40
153.0
 40
153.0
 40
153.0
 40
154.0
 40
154.0
 40
154.0
 40
155.0
 40
155.0
 40
155.0
 40
156.0
 40
156.0
 40
156.0
 40
157.0
 40
157.0
 40
157.0
 40
158.0
 40
158.0
 40
158.0
 40
159.0
 40
159.0
 40
159.0
 40
160.0
 40
160.0
 40
160.0
 40
161.0
 40
161.0
 40
161.0
 40
162.0
 40
162.0
 40
162.0
 40
163.0
 40
163.0
 40
163.0
 40
164.0
 40
164.0
 40
164.0
 40
165.0
 40
165.0
 40
165.0
 40
166.0
 40
166.0
 40
166.0
 40
167.0
 40
167.0
 40
167.0
 40
168.0
 40
168.0
 40
168.0
 40
169.0
 40
169.0
 40
169.0
 40
170.0
 40
170.0
 40
170.0
 40
171.0
 40
171.0
 40
171.0
 40
172.0
 40
172.0
 40
172.0
 40
173.0
 40
173.0
 40
173.0
 40
174.0
 40
174.0
 40
174.0
 40
175.0
 40
175.0
 40
175.0
 40
176.0
 40
176.0
 40
176.0
 40
177.0
 40
177.0
 40
177.0
 40
178.0
 40
178.0
 40
178.0
 40
179.0
 40
179.0
 40
179.0
 40
180.0
 40
180.0
 40
180.0
 40
181.0
 40
181.0
 40
181.0
 40
182.0
 40
182.0
 40
182.0
 40
183.0
 40
183.0
 40
183.0
 40
184.0
 40
184.0
 40
184.0
 40
185.0
 40
185.0
 40
185.0
 40
186.0
 40
186.0
 40
186.0
 40
187.0
 40
187.0
 40
187.0
 40
188.0
 40
188.0
 40
188.0
 40
189.0
 40
189.0
 40
189.0
 40
190.0
 40
190.0
 40
190.0
 40
191.0
 40
191.0
 40
191.0
 40
192.0
 40
192.0
 40
192.0
 40
193.0
 40
193.0
 40
193.0
 40
194.0
 40
194.0
 40
194.0
 40
195.0
 40
195.0
 40
195.0
 40
196.0
 40
196.0
 40
196.0
 40
197.0
 40
197.0
 40
197.0
 40
198.0
 40
198.0
 40
198.0
 40
199.0
 40
199.0
 40
199.0
 40
200.0
 40
200.0
 40
200.0
 40
201.0
 40
201.0
 40
201.0
 40
202.0
 40
202.0
 40
202.0
 40
203.0
 40
203.0
 40
203.0
 40
204.0
 40
204.0
 40
204.0
 40
205.0
 40
205.0
 40
205.0
 40
206.0
 40
206.0
 40
206.0
 40
207.0
 40
207.0
 40
207.0
 40
208.0
 40
208.0
 40
208.0
 40
209.0
 40
209.0
 40
209.0
 40
210.0
 40
210.0
 40
210.0
 40
211.0
 40
211.0
 40
211.0
 40
212.0
 40
212.0
 40
212.0
 40
213.0
 40
213.0
 40
213.0
 40
214.0
 40
214.0
 40
214.0
 40
215.0
 40
215.0
 40
215.0
 40
216.0
 40
216.0
 40
216.0
 40
217.0
 40
217.0
 40
217.0
 40
218.0
 40
218.0
 40
218.0
 40
219.0
 40
219.0
 40
219.0
 40
220.0
 40
220.0
 40
220.0
 40
221.0
 40
221.0
 40
221.0
 40
222.0
 40
222.0
 40
222.0
 40
223.0
 40
223.0
 40
223.0
 40
224.0
 40
224.0
 40
224.0
 40
225.0
 40
225.0
 40
225.0
 40
226.0
 40
226.0
 40
226.0
 40
227.0
 40
227.0
 40
227.0
 40
228.0
 40
228.0
 40
228.0
 40
229.0
 40
229.0
 40
229.0
 40
230.0
 40
230.0
 40
230.0
 40
231.0
 40
231.0
 40
231.0
 40
232.0
 40
232.0
 40
232.0
 40
233.0
 40
233.0
 40
233.0
 40
234.0
 40
234.0
 40
234.0
 40
235.0
 40
235.0
 40
235.0
 40
236.0
 40
236.0
 40
236.0
 40
237.0
 40
237.0
 40
237.0
 40
238.0
 40
238.0
 40
238.0
 40
239.0
 40
239.0
 40
239.0
 40
240.0
 40
240.0
 40
240.0
 40
241.0
 40
241.0
 40
241.0
 40
242.0
 40
242.0
 40
242.0
 40
243.0
 40
243.0
 40
243.0
 40
244.0
 40
244.0
 40
244.0
 40
245.0
 40
245.0
 40
245.0
 40
246.0
 40
246.0
 40
246.0
 40
247.0
 40
247.0
 40
247.0
 40
248.0
 40
248.0
 40
248.0
 40
249.0
 40
249.0
 40
249.0
 40
250.0
 40
250.0
 40
250.0
 40
251.0
 40
251.0
 40
251.0
 40
252.0
 40
252.0
 40
252.0
 40
253.0
 40
253.0
 40
253.0
 40
254.0
 40
254.0
 40
254.0
 40
255.0
 40
255.0
 40
255.0
 40
256.0
 40
256.0
 40
256.0
 40
257.0
 40
257.0
 40
257.0
 40
258.0
 40
258.0
 40
258.0
 40
259.0
 40
259.0
 40
259.0
 40
260.0
 40
260.0
 40
260.0
 40
261.0
 40
261.0
 40
261.0
 40
262.0
 40
262.0
 40
262.0
 40
263.0
 40
263.0
 40
263.0
 40
264.0
 40
264.0
 40
264.0
 40
265.0
 40
265.0
 40
265.0
 40
266.0
 40
266.0
 40
266.0
 40
267.0
 40
267.0
 40
267.0
 40
268.0
 40
268.0
 40
268.0
 40
269.0
 40
269.0
 40
269.0
 40
270.0
 40
270.0
 40
270.0
 40
271.0
 40
271.0
 40
271.0
 40
272.0
 40
272.0
 40
272.0
 40
273.0
 40
273.0
 40
273.0
 40
274.0
 40
274.0
 40
274.0
 40
275.0
 40
275.0
 40
275.0
 40
276.0
 40
276.0
 40
276.0
 40
277.0
 40
277.0
 40
277.0
 40
278.0
 40
278.0
 40
278.0
 40
279.0
 40
279.0
 40
279.0
 40
280.0
 40
280.0
 40
280.0
 40
281.0
 40
281.0
 40
281.0
 40
282.0
 40
282.0
 40
282.0
 40
283.0
 40
283.0
 40
283.0
 40
284.0
 40
284.0
 40
284.0
 40
285.0
 40
285.0
 40
285.0
 40
286.0
 40
286.0
 40
286.0
 40
287.0
 40
287.0
 40
287.0
 40
288.0
 40
288.0
 40
288.0
 40
289.0
 40
289.0
 40
289.0
 40
290.0
 40
290.0
 40
290.0
 40
291.0
 40
291.0
 40
291.0
 40
292.0
 40
292.0
 40
292.0
 40
293.0
 40
293.0
 40
293.0
 40
294.0
 40
294.0
 40
294.0
 40
295.0
 40
295.0
 40
295.0
 40
296.0
 40
296.0
 40
296.0
 40
297.0
 40
297.0
 40
297.0
 40
298.0
 40
298.0
 40
298.0
 40
299.0
 40
299.0
 40
299.0
 40
300.0
 40
300.0
 40
300.0
 40
301.0
 40
301.0
 40
301.0
 40
302.0
 40
302.0
 40
302.0
 40
303.0
 40
303.0
 40
303.0
 40
304.0
 40
304.0
 40
304.0
 40
305.0
 40
305.0
 40
305.0
 40
306.0
 40
306.0
 40
306.0
 40
307.0
 40
307.0
 40
307.0
 40
308.0
 40
308.0
 40
308.0
 40
309.0
 40
309.0
 40
309.0
 40
310.0
 40
310.0
 40
310.0
 40
311.0
 40
311.0
 40
311.0
 40
312.0
 40
312.0
 40
312.0
 40
313.0
 40
313.0
 40
313.0
 40
314.0
 40
314.0
 40
314.0
 40
315.0
 40
315.0
 40
315.0
 40
316.0
 40
316.0
 40
316.0
 40
317.0
 40
317.0
 40
317.0
 40
318.0
 40
318.0
 40
318.0
 40
319.0
 40
319.0
 40
319.0
 40
320.0
 40
320.0
 40
320.0
 40
320.0
 10
60.48448929024546
 20
-39.64513137897757
 10
60.53514817784193
 20
-39.43462887903018
 10
60.58647734319908
 20
-39.2234561013051
 10
60.63678345302677
 20
-39.01157776802483
 10
60.59783678735372
 20
-38.92373610138019
 10
60.55719678839053
 20
-38.83691749029068
 10
60.51620554042632
 20
-38.75009887920149
 10
60.38631123719463
 20
-38.68084860144084
 10
60.13241707700534
 20
-38.59230137924069
 10
60.00185554055535
 20
-38.55233165702846
 10
59.97705374763566
 20
-38.40317721262153
 10
60.12035207731315
 20
-38.36010304596545
 10
60.1554887430834
 20
-38.25673915710252
 10
60.11622457741845
 20
-37.99526026827887
 10
60.07523331831434
 20
-37.73205276834489
 10
60.03561485725275
 20
-37.47022110174347
 10
59.71176486551485
 20
-37.4240777684217
 10
59.38622154048682
 20
-37.37585304621153
 10
59.06339460427838
 20
-37.3286513795568
 10
58.46603600840716
 20
-37.25216915735365
 10
57.86726630146082
 20
-37.17498137959529
 10
57.26987242781272
 20
-37.09849915739213
 10
56.90506493711973
 20
-37.08026054628559
 10
56.53986939088109
 20
-37.06269221295641
 10
56.17573217794879
 20
-37.04441832407234
 10
56.17573217794879
 20
-37.04441832407234
 10
56.16539720818114
 20
-37.04441832407234
 10
56.16539720818114
 20
-37.04441832407234
 10
56.1612682894289
 20
-36.93071804632273
 10
56.15883412282434
 20
-36.81740582412905
 10
56.15435384516086
 20
-36.70508137971265
 10
56.11060940183243
 20
-36.63685415750744
 10
56.066864958504
 20
-36.56622804641391
 10
56.02414357070502
 20
-36.49768332420879
 10
55.88426718538468
 20
-36.44120360200066
 10
54.77735638029099
 20
-36.49595471309814
 10
54.55859888587196
 20
-36.5304211019785
 10
53.80757029392118
 20
-36.5524697130841
 10
53.05721197973109
 20
-36.57416554641194
 10
52.30653616554909
 20
-36.59448554640689
 10
52.03369783917644
 20
-36.47253026865965
 10
51.76015395726624
 20
-36.34884637980177
 10
51.48590451981848
 20
-36.22449221316621
 10
51.48590451981848
 20
-36.22449221316621
 10
51.46353840927797
 20
-36.22449221316621
 10
51.46353840927797
 20
-36.22449221316621
 10
51.63611729376401
 20
-36.16557832429191
 10
51.80700284495991
 20
-36.10804026875083
 10
51.97961700722282
 20
-36.0494791576543
 10
51.98960061807923
 20
-36.046021935433
 10
51.99993700670442
 20
-36.04224721321179
 10
52.00956783979205
 20
-36.0374141576573
 10
52.00819200649381
 20
-35.53548193556045
 10
51.80700284495991
 20
-35.46552610224461
 10
51.6723122928406
 20
-35.16238415787592
 10
51.18343286086851
 20
-35.20369443564351
 10
50.69596453997153
 20
-35.24366415785573
 10
50.20779066353699
 20
-35.28261082451283
 10
49.85466011699054
 20
-35.34942693560699
 10
49.49983623715397
 20
-35.41490249114643
 10
49.14635291283874
 20
-35.48136582446315
 10
48.93309998776692
 20
-35.27742499118057
 10
48.83696680962073
 20
-34.89053360238839
 10
48.52486431758313
 20
-34.79200276907964
 10
48.36950098821345
 20
-34.74275499131434
 10
48.1531423826221
 20
-34.8726477690596
 10
47.95470488768466
 20
-34.83578249129091
 10
47.62708017382084
 20
-34.77376415797309
 10
47.28463879366836
 20
-34.49090693582184
 10
47.13580185302106
 20
-34.24495026921647
 10
47.08824740978984
 20
-34.0844011025899
 10
47.03966991102915
 20
-33.92349915818588
 10
46.99246943269645
 20
-33.76298526933715
 10
46.82193547213958
 20
-33.32201304722517
 10
46.66106880957696
 20
-32.81108499179734
 10
46.55735214555632
 20
-32.31017582525595
 10
46.51223186892966
 20
-31.64010971431227
 10
46.46813464783245
 20
-30.96831499225794
 10
46.42403742673525
 20
-30.29856638131418
 10
46.2800335415202
 20
-29.48449638151767
 10
46.16739159994949
 20
-28.67423638172021
 10
45.9982346598206
 20
-27.90458110413481
 10
45.95032743882059
 20
-27.63862193753474
 10
45.90485554407928
 20
-27.37195721537914
 10
45.85662966343325
 20
-27.10599804877907
 10
45.75121966612248
 20
-26.9354652710439
 10
45.64545689104293
 20
-26.76355665997584
 10
45.53934133819461
 20
-26.59235360446299
 10
45.52074994978003
 20
-26.48415666004556
 10
45.50177050581979
 20
-26.37324332673989
 10
45.48420217293467
 20
-26.26504638232278
 10
45.34227967655541
 20
-25.88715082686159
 10
45.11043412691473
 20
-25.42892777142066
 10
45.04739273963416
 20
-24.98453360486491
 10
45.02428579577922
 20
-24.82052721601704
 10
45.25754245649501
 20
-24.69444443827084
 10
45.23305967934184
 20
-24.49325527165436
 10
45.17552162525421
 20
-24.3554602716889
 10
45.11629023787643
 20
-24.21695971616792
 10
45.0587521837888
 20
-24.07708332731406
 10
45.03670357324019
 20
-23.98373832733725
 10
45.01363190716213
 20
-23.88898221625003
 10
44.99327776652976
 20
-23.79320304960737
 10
44.85343552236019
 20
-23.5224108274528
 10
44.5436966413734
 20
-23.31331943861613
 10
44.304266369704
 20
-23.13760082754902
 10
44.18714415046981
 20
-23.04630193868277
 10
44.07104498676508
 20
-22.95570860537205
 10
43.9539227675309
 20
-22.86440971650612
 10
43.73481249534309
 20
-22.53297499436662
 10
43.75548527259346
 20
-22.0944369389208
 10
43.67004249699551
 20
-21.61797527237334
 10
43.63282444238946
 20
-21.41230582798012
 10
43.60181527651391
 20
-21.00336582808234
 10
43.68069638561259
 20
-20.78735999480308
 10
43.81196499337477
 20
-20.4294316615594
 10
44.31460275832919
 20
-19.99085832833575
 10
44.59918858440213
 20
-19.75968305061564
 10
45.4432093962027
 20
-19.00212805080509
 10
46.29139298567484
 20
-18.24351471766125
 10
47.13580185302106
 20
-17.48592444007286
 10
47.6060546188017
 20
-16.96709416242484
 10
48.07595460681355
 20
-16.45034527366523
 10
48.54691292813173
 20
-15.93320832935002
 10
48.99614013889322
 20
-15.36788194060247
 10
49.47362484893379
 20
-14.81906555185083
 10
49.92320483746405
 20
-14.26030082976811
 10
50.26945621751933
 20
-13.83033527432017
 10
50.8334067586873
 20
-13.62191416326118
 10
51.16967452788618
 20
-13.17819027448311
 10
51.32401480172641
 20
-12.92704777454613
 10
51.47592220935298
 20
-12.67537610794219
 10
51.62959090504162
 20
-12.42455110800481
 10
52.29482394362567
 20
-11.36089083049309
 10
52.85983281809998
 20
-10.20628444189287
 10
53.50887335709713
 20
-9.122268886608348
 10
53.91643887541004
 20
-8.442042775667192
 10
54.29472111482627
 20
-7.75733638694962
 10
54.66813638307742
 20
-7.034212498241591
 10
54.78458832455093
 20
-6.809246109408865
 10
54.9020633215539
 20
-6.582903887243255
 10
55.01678665196039
 20
-6.356702776188684
 10
55.14082331546262
 20
-6.233195276219361
 10
55.26623581226308
 20
-6.108170831806435
 10
55.3888613646902
 20
-5.984486942948231
 10
55.66963719086034
 20
-6.042695276267
 10
55.95006023926171
 20
-6.100762498474728
 10
56.23189439873819
 20
-6.159499998460138
 10
56.27701467536485
 20
-6.164650554014236
 10
56.84096665245636
 20
-6.125739165135298
 10
56.9078166037162
 20
-6.105066387362583
 10
57.01495521209398
 20
-6.042695276267
 10
57.12107220794184
 20
-5.98120610961582
 10
57.22612798448429
 20
-5.918164720742554
 10
57.2116640959644
 20
-5.651323609698399
 10
57.19617715191507
 20
-5.276673609792097
 10
57.04046104477661
 20
-5.14335888760306
 10
56.92986665243428
 20
-5.069981109843757
 10
56.82166827258069
 20
-4.998825832083582
 10
56.71177799760645
 20
-4.924248609879954
 10
56.63324966627654
 20
-4.832949721014027
 10
56.69456387471551
 20
-4.50705360998422
 10
56.66803355427802
 20
-4.378042776683358
 10
56.62876938861307
 20
-4.299126387814035
 10
56.588094111873
 20
-4.217317221167903
 10
56.54847716843927
 20
-4.137201387854576
 10
56.41999550505044
 20
-3.829896665709075
 10
56.42341744940759
 20
-3.477136526908573
 10
56.02414357070502
 20
-3.437861776918167
 10
55.97796496077203
 20
-3.503661888012899
 10
55.92938887490686
 20
-3.569299721329822
 10
55.88222107432576
 20
-3.635092776868857
 10
55.83949968652679
 20
-3.779273054610894
 10
55.86257135260485
 20
-3.92052527679764
 10
55.80503329851722
 20
-4.038353054545902
 10
55.78023302137214
 20
-4.06297694342871
 10
55.71133552312986
 20
-4.087600832311518
 10
55.67344719076314
 20
-4.093104165643378
 10
55.56906024898183
 20
-4.075218332314594
 10
55.46188636282717
 20
-4.056591665652447
 10
55.35718331949392
 20
-4.038353054545902
 10
55.18904803645453
 20
-4.052993332320114
 10
55.02197248516143
 20
-4.068480276760569
 10
54.85316832280131
 20
-4.083120554534783
 10
54.75463887519992
 20
-3.929979721239593
 10
54.65779999445224
 20
-3.775639443500401
 10
54.55859888587196
 20
-3.622851387983294
 10
54.00463331983244
 20
-3.610962776875172
 10
54.15826667386306
 20
-4.120867776747557
 10
54.27542417087412
 20
-4.48758027665583
 10
54.27542417087412
 20
-4.48758027665583
 10
54.27542417087412
 20
-4.541661109975625
 10
54.27542417087412
 20
-4.541661109975625
 10
54.22063778338295
 20
-4.555983887749916
 10
54.1651811181311
 20
-4.570624165524128
 10
54.11004195287116
 20
-4.58526444329802
 10
54.06319443092865
 20
-4.476573609992112
 10
54.01634417748381
 20
-4.366154165575236
 10
53.96878973425257
 20
-4.257463332269007
 10
53.82926612670101
 20
-4.064176387872714
 10
53.63118140953235
 20
-3.907754721245435
 10
53.48784780207799
 20
-3.722087776847249
 10
53.48784780207799
 20
-3.722087776847249
 10
53.28976308490932
 20
-3.722087776847249
 10
53.28976308490932
 20
-3.722087776847249
 10
53.02863698046009
 20
-4.123795832302529
 10
53.38899947126648
 20
-4.29189444337153
 10
53.49818419070317
 20
-4.6408974988399
 10
53.50887335709713
 20
-4.909255554328301
 10
53.52023280125177
 20
-5.178319165372224
 10
53.53056918987696
 20
-5.448582220860152
 10
53.47271363579742
 20
-5.566057220830653
 10
53.41482280394101
 20
-5.681979998579387
 10
53.35523863879446
 20
-5.798608331883646
 10
53.09234998672677
 20
-6.217708331778907
 10
52.68757143360585
 20
-6.524660276146646
 10
52.38337116358886
 20
-6.90276749827424
 10
51.3825759113435
 20
-8.141088053520434
 10
50.0345062235134
 20
-9.064060553289579
 10
49.03748569339396
 20
-10.30393333075722
 10
48.8456110988994
 20
-10.56505944180311
 10
48.65165264768182
 20
-10.82706749729309
 10
48.45734265263908
 20
-11.09009860833851
 10
48.31609165458791
 20
-11.36089083049309
 10
48.17413265986438
 20
-11.62960166375925
 10
48.03185738571634
 20
-11.90021749702494
 10
47.51683712107783
 20
-12.61783805240111
 10
46.85640186014916
 20
-13.19540583003453
 10
46.23904076478824
 20
-13.81276694099131
 10
45.94415382786698
 20
-14.1252222186909
 10
45.64785577987062
 20
-14.43838305194603
 10
45.35296884294937
 20
-14.75327249631179
 10
44.53473608604645
 20
-15.36961055171312
 10
43.32724833907425
 20
-15.6049133294322
 10
42.49903197131492
 20
-16.20643471817076
 10
42.31093086500267
 20
-16.3448999959139
 10
42.12078364763151
 20
-16.48410610699007
 10
41.93130670802102
 20
-16.62257138473321
 10
41.80003810025885
 20
-16.78968221802493
 10
41.66947504803424
 20
-16.95675777353848
 10
41.53785366250329
 20
-17.12591471794077
 10
41.37698699994068
 20
-17.23788638457941
 10
41.21679165636216
 20
-17.35052832899574
 10
41.05761728586625
 20
-17.46387582896726
 10
40.79786701471525
 20
-17.69709721779794
 10
40.53878702132494
 20
-17.93067138440637
 10
40.27970702793462
 20
-18.16219943990392
 10
40.02616665666014
 20
-18.40850888428673
 10
39.77019009648903
 20
-18.6524194397812
 10
39.51456732523273
 20
-18.89601249527607
 10
39.35814566255672
 20
-18.99521360636219
 10
39.12319566855079
 20
-18.97937388414397
 10
38.91442178498817
 20
-19.01761499524554
 10
38.6984159571656
 20
-19.03864055079602
 10
38.48378596264127
 20
-19.06033638412386
 10
38.26880319034816
 20
-19.08238499522946
 10
37.77583153625825
 20
-18.94769443970753
 10
37.19498293996582
 20
-17.94344193995858
 10
37.06717155433767
 20
-17.42048416231158
 10
36.8291171159665
 20
-16.44791110699906
 10
38.41488846439899
 20
-16.60775471807044
 10
38.79313678808241
 20
-16.19641582928432
 10
38.91269317392116
 20
-16.06620555153913
 10
39.14901900122532
 20
-15.56321499610933
 10
39.12181983525256
 20
-15.30999110728363
 10
39.11423610133255
 20
-15.14637277399104
 10
39.10767344672458
 20
-14.98271916292093
 10
39.10114705800218
 20
-14.81839527407315
 10
39.16041372315684
 20
-14.60581138523735
 10
39.33024094104641
 20
-14.44081721861187
 10
39.36227316245142
 20
-14.17242388534563
 10
39.33747288530635
 20
-14.1252222186909
 10
39.31164955263182
 20
-14.07872610759138
 10
39.28512066441974
 20
-14.03187721871441
 10
39.28512066441974
 20
-14.03187721871441
 10
39.01224706027021
 20
-13.97606777428365
 10
39.01224706027021
 20
-13.97606777428365
 10
38.88203678581438
 20
-14.00845277427561
 10
38.74974512252275
 20
-14.04186082982301
 10
38.61953484806691
 20
-14.07562166314785
 10
38.58852568219136
 20
-14.04944555204327
 10
38.56062096068104
 20
-14.0232694409387
 10
38.5316579058644
 20
-13.99811638538925
 10
38.3725198543688
 20
-13.89785694096985
 10
38.19750680327819
 20
-13.86582471875566
 10
37.92946625456092
 20
-13.8675533298663
 10
37.49780832395876
 20
-12.54513055241916
 10
36.77330767294588
 20
-11.50059083045807
 10
35.51308054667741
 20
-11.01432194169088
 10
35.51308054667741
 20
-11.01432194169088
 10
34.68246526910716
 20
-10.90407888616289
 10
34.68246526910716
 20
-10.90407888616289
 10
34.49125971359928
 20
-10.86633166395011
 10
34.22254888033311
 20
-10.9126866639386
 10
33.99518360261238
 20
-10.87098833061573
 10
33.70407138046286
 20
-10.81948277507283
 10
33.38985221387478
 20
-10.88823916394467
 10
33.16386276948693
 20
-10.93611110837708
 10
32.02904721421502
 20
-11.18019805276044
 10
31.48301776990699
 20
-11.43271638603062
 10
30.72507471454083
 20
-12.03078055254788
 10
30.5369736034768
 20
-12.17961749695522
 10
30.27411888132026
 20
-12.37166971912935
 10
30.11565110358209
 20
-12.58562944129803
 10
30.101504714697
 20
-12.57733916352224
 10
30.08809915914463
 20
-12.57010721907974
 10
30.07532860359242
 20
-12.56305166352579
 10
29.609203325931
 20
-13.17473305226182
 10
29.3715016593239
 20
-13.79932610766142
 10
29.26196415935111
 20
-14.20480888533759
 10
29.1231108260527
 20
-14.66334944077875
 10
29.04458249273897
 20
-15.20560416286525
 10
29.27159499268194
 20
-15.56494360721998
 10
29.29399638156531
 20
-15.65588971830815
 10
29.3260286037795
 20
-15.74200277384213
 10
29.36945554821334
 20
-15.81781471826793
 10
29.48414360374023
 20
-16.00969055155317
 10
29.61989249259511
 20
-16.17680138484457
 10
29.77423277033431
 20
-16.30701166258976
 10
29.86793054808856
 20
-16.38867971812517
 10
29.98921554805812
 20
-16.46823110699401
 10
30.10291582580772
 20
-16.51751416253715
 10
30.15353943690591
 20
-16.53853971808763
 10
30.23139749244226
 20
-16.54404305141949
 10
30.2758474924309
 20
-16.57709832918913
 10
30.32442499241884
 20
-16.61466916251302
 10
30.33440860352743
 20
-16.72526499581878
 10
30.36644082574163
 20
-16.79447999580126
 10
30.41434804795188
 20
-16.88958888466657
 10
30.54730999236315
 20
-17.09561110683722
 10
30.56145638124856
 20
-17.18549888459242
 10
30.55560027013895
 20
-17.19206055125757
 10
30.55316610347278
 20
-17.19756388458943
 10
30.54766277014092
 20
-17.20204416236616
 10
30.49531054793177
 20
-17.24374249568903
 10
30.37162665907389
 20
-17.31849610678154
 10
30.28893554798335
 20
-17.31609721789321
 10
30.24483832577215
 20
-17.31401582900481
 10
30.17008471467964
 20
-17.27404610679258
 10
30.13149082580031
 20
-17.30745416233966
 10
30.14355582579731
 20
-17.37776277343327
 10
30.34439221463603
 20
-17.45318666230346
 10
30.41434804795188
 20
-17.45181082897026
 10
30.48081138126859
 20
-17.45008221785961
 10
30.55006165902924
 20
-17.42288305119991
 10
30.61278554790227
 20
-17.39808277342823
 10
30.61864165901189
 20
-17.39843555120598
 10
30.62414499234407
 20
-17.40460916231553
 10
30.63000110345369
 20
-17.40633777342617
 10
30.61966471456734
 20
-17.51485221784352
 10
30.5659366590253
 20
-17.61754582892909
 10
30.53422193681103
 20
-17.71776999557065
 10
30.5049413812626
 20
-17.80254249554927
 10
30.49700388126458
 20
-17.88830277330582
 10
30.46634749238326
 20
-17.96997082884091
 10
30.4146655479518
 20
-18.09778221769777
 10
30.35991443685432
 20
-18.22869805099848
 10
30.31168971464415
 20
-18.36028416207655
 10
30.28410249242885
 20
-18.43161582872528
 10
30.16010110357105
 20
-18.64762166200486
 10
30.22899860355394
 20
-18.742695273092
 10
30.28032777020764
 20
-18.81504999529618
 10
30.36093749240977
 20
-18.87361110639271
 10
30.43706693683516
 20
-18.8991169397196
 10
30.60657665901489
 20
-18.96042971748222
 10
30.70062721454723
 20
-18.83572277306889
 10
30.81464499229643
 20
-19.02897443968735
 10
30.8904569367219
 20
-19.15713860632196
 10
30.72782638120692
 20
-19.23672527296865
 10
30.7147383256548
 20
-19.33112860627843
 10
30.71061082565582
 20
-19.3858797173759
 10
30.7512508256454
 20
-19.46236193957874
 10
30.77573360341717
 20
-19.491677772905
 10
30.89493721449864
 20
-19.64531249508867
 10
31.09164610333806
 20
-19.61670221731793
 10
31.31625971439303
 20
-19.5798722173274
 10
31.31625971439303
 20
-19.5798722173274
 10
31.31798832550399
 20
-19.59296027287953
 10
31.31798832550399
 20
-19.59296027287953
 10
31.31901138105912
 20
-19.59500638399009
 10
31.31798832550399
 20
-19.5970877728785
 10
31.31798832550399
 20
-19.60086249509971
 10
31.26665915884997
 20
-19.63084860620334
 10
31.22668943663775
 20
-19.67286443952613
 10
31.19740888108964
 20
-19.71248138396091
 10
31.16742276998601
 20
-19.7486763839516
 10
31.14643249221338
 20
-19.77830971727779
 10
31.12851138110675
 20
-19.81757388393449
 10
31.0961263811148
 20
-19.87853388391935
 10
31.15295888110068
 20
-19.98708360611421
 10
31.19465721442355
 20
-20.02528943943827
 10
31.33590943661062
 20
-20.14759749496295
 10
31.52228193656401
 20
-20.01601138388488
 10
31.65803082541889
 20
-20.21649499494584
 10
31.73416026984428
 20
-20.32469193936327
 10
31.69143888096597
 20
-20.48315971710143
 10
31.69902360318624
 20
-20.5902983281859
 10
31.70487971429586
 20
-20.64198027261736
 10
31.76689804761368
 20
-20.77977527258281
 10
31.81304138093577
 20
-20.85523443923053
 10
31.81716888093474
 20
-20.86038499478494
 10
31.81716888093474
 20
-20.86109055034015
 10
31.81889749204539
 20
-20.86486527256168
 10
31.82958665870919
 20
-20.8814105503351
 10
31.84232193648387
 20
-20.8969327725534
 10
31.84715499203837
 20
-20.90310638366326
 10
31.84715499203837
 20
-20.90310638366326
 10
31.84955388092638
 20
-20.90310638366326
 10
31.85265832537023
 20
-20.90416471699622
 10
31.89470943647086
 20
-20.95101360587351
 10
31.97083888089625
 20
-20.99888555030592
 10
32.08693804753387
 20
-21.01645388363478
 10
32.23609249194112
 20
-21.05159055029251
 10
32.43696415855736
 20
-21.02093416141152
 10
32.62919276962037
 20
-20.92896499476791
 10
32.8441755473445
 20
-20.82351971701625
 10
33.06293304728985
 20
-20.72915166148431
 10
33.27308276945948
 20
-20.62578777262138
 10
33.28652360278937
 20
-20.62578777262138
 10
33.29890610278629
 20
-20.62649332817659
 10
33.31167665833881
 20
-20.61993166151176
 10
33.39122804720766
 20
-20.57685749485569
 10
33.60931526937532
 20
-20.47695082821405
 10
33.80189665821609
 20
-20.38671027268109
 10
33.95073360262342
 20
-20.66815638372194
 10
34.10232221369652
 20
-21.00336582808234
 10
34.08094388036861
 20
-21.09395916139306
 10
34.04270276926703
 20
-21.26174027246246
 10
33.59382832493486
 20
-21.8973752723033
 10
33.47049721385474
 20
-22.02243499449439
 10
33.20418526947659
 20
-22.27357749443168
 10
32.93685026954363
 20
-22.52644860547963
 10
32.67191415849868
 20
-22.77759110541661
 10
32.48173165854625
 20
-22.9774044387002
 10
32.29190193637156
 20
-23.17792332753901
 10
32.10313054752984
 20
-23.37911249415516
 10
31.43475776991897
 20
-23.9013999940248
 10
30.78642277008129
 20
-24.39161999390207
 10
30.25517471465851
 20
-25.05134971595939
 10
30.11600388135985
 20
-25.19672943814511
 10
29.97852638139432
 20
-25.3438377714418
 10
29.8403786036511
 20
-25.48784166029463
 10
29.77423277033431
 20
-25.63770166025709
 10
29.70843971479527
 20
-25.78724416021995
 10
29.64296415925584
 20
-25.93639860462688
 10
29.39767777042848
 20
-26.49279971559912
 10
29.20061610381097
 20
-27.1921463820909
 10
29.04250110385057
 20
-27.86083665970137
 10
28.98771471497525
 20
-28.18189971517668
 10
28.93328110387769
 20
-28.50197499287439
 10
28.87817721500278
 20
-28.82166221501681
 10
28.740382215037
 20
-29.24954638157635
 10
28.37966693734939
 20
-29.6112847148194
 10
28.15505332629443
 20
-29.98127804806009
 10
27.93594304857164
 20
-30.34922527019053
 10
27.8580849930356
 20
-30.83842221451268
 10
27.63138999309223
 20
-31.2063694366428
 10
27.27825943762489
 20
-31.77998610316613
 10
26.55308943780629
 20
-32.00526999199877
 10
26.17893332678847
 20
-32.54995888075145
 10
25.99185527127988
 20
-32.91099165843898
 10
25.80548277132649
 20
-33.27272999168171
 10
25.62048610470599
 20
-33.63238693603636
 10
24.8677288826721
 20
-34.90055249127482
 10
24.21247943839119
 20
-36.26135749093458
 10
23.45559471635832
 20
-37.54705610172438
 10
23.19651471642299
 20
-37.92258804607476
 10
22.93849304982094
 20
-38.29843749042539
 10
22.67906027210786
 20
-38.67255832366505
 10
22.47166221660432
 20
-38.92888665693429
 10
22.17367082779005
 20
-39.1159647124432
 10
21.99040277228019
 20
-39.39363610126284
 10
21.9648969389533
 20
-39.49251971234903
 10
21.94044943895937
 20
-39.59034499010226
 10
21.91459082785472
 20
-39.68852304563357
 10
21.83362832787483
 20
-39.84219304559508
 10
21.75372416122822
 20
-39.99618054555651
 10
21.67276166124833
 20
-40.14914498996282
 10
21.34891166132941
 20
-40.68141610094072
 10
20.9661477725362
 20
-41.20264526747739
 10
20.60063471707193
 20
-41.70150832290822
 10
20.38222999490435
 20
-42.00225137838826
 10
20.17172749495696
 20
-42.31953971164235
 10
20.04458638387778
 20
-42.71779054487602
 10
19.94778416167967
 20
-43.02304915591063
 10
19.93882360612652
 20
-43.29211276695487
 10
19.82653443948796
 20
-43.59183276687979
 10
19.78483610616477
 20
-43.69964165574162
 10
19.68838666174443
 20
-43.7627183223924
 10
19.66221055063985
 20
-43.89913748902529
 10
19.65014555064317
 20
-44.22263471116645
 10
19.64016193953425
 20
-44.54680221108561
 10
19.62841443953749
 20
-44.87238082211518
 10
19.66221055063985
 20
-45.02841443318749
 10
19.69424277285437
 20
-45.18518887759286
 10
19.72765082840145
 20
-45.3415752664423
 10
19.64460693953315
 20
-45.79669387743969
 10
19.34626277294112
 20
-46.44506415505553
 10
19.65014555064317
 20
-46.83918748828989
 10
19.73075527284498
 20
-46.84331498828919
 10
19.8148222172684
 20
-46.87464165494787
 10
19.89130443947155
 20
-46.84952387717625
 10
19.96193055056509
 20
-46.82609943273777
 10
20.02253777277218
 20
-46.76887887719693
 10
20.06561193942794
 20
-46.70858915498943
 10
20.15003166162912
 20
-46.59111415501861
 10
20.16827027273566
 20
-46.43747943283494
 10
20.22030499494489
 20
-46.30448221064582
 10
20.22030499494489
 20
-46.30448221064582
 10
20.22030499494489
 20
-46.28243359954023
 10
20.22030499494489
 20
-46.28243359954023
 10
20.32261055047486
 20
-46.53911471058722
 10
20.1899661060635
 20
-47.02143248824463
 10
20.27438582826468
 20
-47.29772804373106
 10
20.29883332825861
 20
-47.34595276594155
 10
20.30539499492376
 20
-47.41209859925835
 10
20.3498449949124
 20
-47.44035609925101
 10
20.41493249489623
 20
-47.48170165479644
 10
20.50760721709536
 20
-47.47376415479809
 10
20.5803147170773
 20
-47.45033971035961
 10
20.85971471700726
 20
-47.20572359930961
 10
20.83523193923549
 20
-46.79163304385741
 10
20.94134749476451
 20
-46.20457554400419
 10
21.06400832806727
 20
-45.52075109973102
 10
21.11498471694354
 20
-44.88374026655666
 10
21.54114027239242
 20
-44.51131276665012
 10
21.44814805019337
 20
-44.67736526660855
 10
21.55147666127878
 20
-45.1872349887031
 10
21.68482666124534
 20
-45.23341359980271
 10
21.75266582789526
 20
-45.25683804424119
 10
21.84294166120606
 20
-45.29543193312085
 10
21.90358416119068
 20
-45.25408637757542
 10
22.17331805001229
 20
-45.06944248873268
 10
22.44513332772198
 20
-44.59227526662969
 10
22.71282110543302
 20
-44.21540276672362
 10
22.98946943869721
 20
-43.93600276679366
 10
23.26678804973876
 20
-43.65385110019793
 10
23.54378916078072
 20
-43.37307526693444
 10
23.85867860514648
 20
-42.93002165593406
 10
23.947896105124
 20
-42.25755665610237
 10
23.93653666068252
 20
-41.49340471184883
 10
24.25311943838109
 20
-41.40729165631485
 10
24.51734999387052
 20
-41.66912332291626
 10
24.66929138272171
 20
-41.85411998953677
 10
24.75233527158968
 20
-41.82173498954481
 10
24.83707249379079
 20
-41.78899721177509
 10
24.92078666043644
 20
-41.75523637845025
 10
25.10303166039086
 20
-41.9319780450728
 10
25.32316499366909
 20
-42.24513887832761
 10
25.77274499355678
 20
-42.13867054502114
 10
25.85268443798122
 20
-42.10251082280765
 10
25.93364693796111
 20
-42.06702137837217
 10
26.01288082683003
 20
-42.02842748949315
 10
26.10830721569526
 20
-42.03636498949086
 10
26.20373360456016
 20
-42.04394971171145
 10
26.29711388231449
 20
-42.05047610059875
 10
26.54723332669667
 20
-42.0136461006079
 10
26.76151054886528
 20
-41.98365998950395
 10
26.94304999326417
 20
-41.89786443397021
 10
27.06433499323404
 20
-41.97434665617336
 10
27.64137360420083
 20
-42.18555471167564
 10
27.88288527080697
 20
-42.10526248947343
 10
27.88288527080697
 20
-42.10526248947343
 10
28.18881415961959
 20
-41.95265082284488
 10
28.18881415961959
 20
-41.95265082284488
 10
28.28353499292897
 20
-42.0139636006075
 10
28.37896138179419
 20
-42.07668748948052
 10
28.47301193732621
 20
-42.13867054502114
 10
28.47301193732621
 20
-42.13867054502114
 10
28.58258471507652
 20
-42.29198776720457
 10
28.58258471507652
 20
-42.29198776720457
 10
28.85888027056295
 20
-42.45631165605236
 10
29.49620860373691
 20
-42.50457165604038
 10
29.71979915923675
 20
-42.27960526720797
 10
29.92236415918612
 20
-42.32818276719559
 10
30.13082054802294
 20
-42.45426554494212
 10
30.3761069368503
 20
-42.47666693382548
 10
30.52631971459052
 20
-42.49250665604337
 10
30.57521471457838
 20
-42.31368360053241
 10
30.76850165897467
 20
-42.35813360052137
 10
31.00172304780502
 20
-42.40808693384251
 10
31.37792526993341
 20
-42.85318665595315
 10
31.78615971427567
 20
-42.73916887820425
 10
31.98805443644735
 20
-42.68371221155158
 10
32.17823693639979
 20
-42.49698693382043
 10
32.35494332524451
 20
-42.39983193384456
 10
32.51859693631494
 20
-42.60998165601419
 10
32.89652776955365
 20
-42.74985804486838
 10
33.15215054726736
 20
-42.85974832261861
 10
33.35266943610616
 20
-42.72608082265213
 10
33.55385860272264
 20
-42.59068471157436
 10
33.75264888045079
 20
-42.45493582271948
 10
33.78605693599787
 20
-42.47666693382548
 10
33.81911221376751
 20
-42.50009137826396
 10
33.85184999153691
 20
-42.52005860048115
 10
33.90698915818999
 20
-42.63993248933998
 10
33.82359249154425
 20
-42.79945860041111
 10
33.86289193597879
 20
-42.93690082259912
 10
33.90388471374614
 20
-43.01373582258004
 10
33.94350165818091
 20
-43.08986526700543
 10
33.98347138039314
 20
-43.16634748920858
 10
34.06408110259495
 20
-43.17357943365077
 10
34.14260943590867
 20
-43.18151693364912
 10
34.22392471366632
 20
-43.18807860031394
 10
34.01963110260631
 20
-43.92393776679666
 10
33.81636054710142
 20
-44.66050248883489
 10
33.61206693604141
 20
-45.39600887753985
 10
33.44876610274907
 20
-46.11810971069244
 10
33.28408943612352
 20
-46.83918748828989
 10
33.11976554727573
 20
-47.56231137699825
 10
33.06878915839946
 20
-48.00568248799888
 10
33.01745999174576
 20
-48.45078221010951
 10
32.96680110286942
 20
-48.89485887666502
 10
32.92305665843598
 20
-49.46364248763417
 10
32.87895943622478
 20
-50.03242609860269
 10
32.83521499179135
 20
-50.60156248734961
 10
32.83521499179135
 20
-50.60156248734961
 10
32.83521499179135
 20
-51.157928320544
 10
32.83521499179135
 20
-51.157928320544
 10
32.82830054734844
 20
-51.53000304267277
 10
32.82075110290602
 20
-51.90003165369194
 10
32.81316638068575
 20
-52.27312943137648
 10
32.81316638068575
 20
-52.27312943137648
 10
32.81316638068575
 20
-53.07171248673222
 10
32.81316638068575
 20
-53.07171248673222
 10
32.82075110290602
 20
-53.35107720888466
 10
32.82830054734844
 20
-53.63428720881367
 10
32.83521499179135
 20
-53.91368720874363
 10
32.92545554732431
 20
-54.48211804193503
 10
32.79799693624489
 20
-55.33890943060986
 10
32.71530582515436
 20
-55.84948470825992
 10
32.58128554741012
 20
-56.68525054138428
 10
32.92305665843598
 20
-57.28606637456763
 10
33.14181415838133
 20
-57.78320081888781
 10
33.20037526947753
 20
-57.9068847077457
 10
33.25724304724126
 20
-58.0315916521587
 10
33.31545138056003
 20
-58.15629859657235
 10
33.26789693612753
 20
-58.40677081873164
 10
33.02123471396698
 20
-58.61829637423416
 10
32.91272026954962
 20
-58.83327915195861
 10
32.6657052696113
 20
-59.31937165183691
 10
32.53411915853323
 20
-59.91676554057649
 10
32.36496221413094
 20
-60.45178831822017
 10
31.66282860319555
 20
-62.68420137321784
 10
31.1247013811077
 20
-65.00724303930345
 10
30.13530082579936
 20
-66.94441637215262
 10
29.93478193696088
 20
-67.33748137205434
 10
29.65023138147618
 20
-67.74606859417437
 10
29.3139636037825
 20
-68.0058541496649
 10
29.12896693716231
 20
-68.15017553851797
 10
28.91398415943819
 20
-68.22665776072112
 10
28.71417082615491
 20
-68.3658638717973
 10
28.62012027062289
 20
-68.49057081621096
 10
28.52402360397999
 20
-68.61390192729108
 10
28.42962027067053
 20
-68.73825609392632
 10
28.22910138183173
 20
-68.99596026052909
 10
27.92560665968529
 20
-69.2009594271443
 10
27.83878804859577
 20
-69.5688713714969
 10
27.74300888195311
 20
-69.98158609361558
 10
27.97245554856257
 20
-70.3381738713042
 10
28.03722554854616
 20
-70.61722109345705
 10
28.03962443743449
 20
-70.70195831565816
 10
28.04343443743355
 20
-70.7856724823035
 10
28.04720915965476
 20
-70.86906914894924
 10
27.63138999309223
 20
-71.38514775993148
 10
27.21592360430714
 20
-71.89776914869243
 10
26.8001044377443
 20
-72.41176637078564
 10
26.51174388226086
 20
-72.83792192623484
 10
26.27816971565275
 20
-73.25169498168681
 10
26.05835388237444
 20
-73.75606137044981
 10
25.97291110461781
 20
-73.93795359262678
 10
25.8902199935276
 20
-74.12086887035888
 10
25.80548277132649
 20
-74.30244359253561
 10
25.73072916023398
 20
-74.57701053691139
 10
25.63875999359038
 20
-74.98422192569853
 10
25.71901693801474
 20
-75.28637609228961
 10
25.824779715766
 20
-75.69217636996571
 10
26.33292082675022
 20
-76.24374442538344
 10
26.68090082666315
 20
-76.422884980894
 10
26.80317360441031
 20
-76.48592636976727
 10
27.18180999320454
 20
-76.71470275859937
 10
27.38060027093269
 20
-76.665102203056
 10
27.56972443755217
 20
-76.54346442530836
 10
27.75920138194909
 20
-76.422884980894
 10
27.94903110412377
 20
-76.30265831425741
 10
28.51848499287029
 20
-75.94850470323495
 10
29.23818693713487
 20
-75.25741303674143
 10
29.65330054814219
 20
-74.73964109242606
 10
29.85657110364708
 20
-74.48846331471124
 10
30.14147443690922
 20
-74.33070109252827
 10
30.26653415909999
 20
-73.99722025927852
 10
30.5369736034768
 20
-73.27857664834723
 10
30.71336249232159
 20
-72.53305137075552
 10
30.92213638115834
 20
-71.77616664872232
 10
31.00828471447016
 20
-71.46402887102265
 10
31.08303832556267
 20
-71.16776609331902
 10
31.1736316588734
 20
-70.88042859339072
 10
31.20739249219824
 20
-70.759849148977
 10
31.23942471441243
 20
-70.63997526011754
 10
31.27286804773735
 20
-70.52041887125894
 10
31.39549360326227
 20
-70.39296026017952
 10
31.51953026989792
 20
-70.26444331576747
 10
31.64353165875572
 20
-70.13698470468805
 10
31.75172860317315
 20
-70.00261164916606
 10
31.84955388092638
 20
-69.84241526031691
 10
31.93880665868206
 20
-69.68945081591124
 10
32.53101471408938
 20
-68.68004776060788
 10
32.89755082510909
 20
-67.53214414978385
 10
33.55696304716617
 20
-66.59474303890657
 10
33.90388471374614
 20
-66.10759220569562
 10
34.25045360254865
 20
-65.61804248359539
 10
34.59635221357318
 20
-65.12951581705092
 10
34.79994026907767
 20
-64.76227415047633
 10
35.00388110236023
 20
-64.39436220612373
 10
35.20750443564256
 20
-64.02606220621584
 10
35.4007552079626
 20
-63.68672526185615
 10
35.59368936970711
 20
-63.34841137305158
 10
35.78799936474985
 20
-63.00872165091477
 10
35.79452575347224
 20
-63.00561720647059
 10
35.8010874199715
 20
-63.00148970647194
 10
35.80969519752968
 20
-62.99873803980617
 10
36.37745573860045
 20
-64.14734720618507
 10
37.14569988566758
 20
-65.17742303926117
 10
37.80888681319271
 20
-66.2347333167748
 10
38.32119165708652
 20
-67.0491208165709
 10
38.77867289956252
 20
-67.87458553858707
 10
39.27513705356333
 20
-68.71483164948783
 10
39.46630832346661
 20
-69.04005748274028
 10
39.62135315584173
 20
-69.4017958159827
 10
39.82151926184618
 20
-69.73287776034444
 10
40.0929817549206
 20
-70.17864776023308
 10
40.40374369143684
 20
-70.6937033156602
 10
40.54362007675719
 20
-71.27455192662572
 10
40.52845063269975
 20
-71.43510109325263
 10
40.51292841087353
 20
-71.59494470432335
 10
40.49984035565188
 20
-71.75514109317248
 10
40.53222535482567
 20
-71.82749581537634
 10
40.56531590953702
 20
-71.90122637091373
 10
40.59664257540447
 20
-71.97354581534007
 10
40.32345147126305
 20
-72.31979720414235
 10
39.62237621137119
 20
-72.39800803745615
 10
39.08943483607877
 20
-72.51064998187215
 10
38.73870317836001
 20
-72.59436414851812
 10
38.39040568724582
 20
-72.67737275960859
 10
38.03935652953516
 20
-72.7600638706988
 10
37.43783610175151
 20
-72.8444835929003
 10
36.83666656021834
 20
-72.92886803732365
 10
36.2358507422131
 20
-73.01328775952452
 10
35.3404654872785
 20
-73.18449081503736
 10
34.4530186024977
 20
-73.19793164836726
 10
34.6721288802208
 20
-74.38961498140289
 10
34.70278526910212
 20
-74.55221025914003
 10
34.71449749132136
 20
-74.76306553686453
 10
34.7703069357518
 20
-74.89362859238749
 10
34.92499999126875
 20
-74.98249331458788
 10
35.19819110231165
 20
-74.94598081459664
 10
35.4045652078654
 20
-74.980447203477
 10
36.09943157902677
 20
-75.0972166478923
 10
37.04960322145254
 20
-75.01420803680183
 10
37.80888681319271
 20
-75.01420803680183
 10
38.33494999041633
 20
-74.99868581458354
 10
38.86034095303455
 20
-74.98422192569853
 10
39.38432177300002
 20
-74.97011081459064
 10
39.66784926576663
 20
-74.95183692570657
 10
39.95208332334531
 20
-74.93222248126715
 10
40.23596258460618
 20
-74.91394859238244
 10
40.70759118368505
 20
-74.95564692570562
 10
41.17784394946568
 20
-74.99593414791777
 10
41.64809671524631
 20
-75.0351983145748
 10
42.05047503831412
 20
-75.03900831457385
 10
42.45631058351594
 20
-75.04415887012762
 10
42.86010001765887
 20
-75.04588748123827
 10
43.26833445168838
 20
-75.07552081456446
 10
43.67621610794912
 20
-75.10444859233512
 10
44.08515609751619
 20
-75.1334116478833
 10
44.35111525739767
 20
-75.07552081456446
 10
44.61777997281671
 20
-75.01695970346825
 10
44.88201052163119
 20
-74.95871609237165
 10
44.96780607499791
 20
-74.79128775907968
 10
45.05289721095926
 20
-74.62354192578876
 10
45.13452884852224
 20
-74.45607831471928
 10
45.12694412649352
 20
-74.31415581475486
 10
45.12041773777113
 20
-74.1715277592349
 10
45.11145832205547
 20
-74.02889970371494
 10
45.04601690633592
 20
-73.61343331492986
 10
45.102849404886
 20
-73.25959720390763
 10
45.00361301852885
 20
-72.89200275955464
 10
44.86789941088008
 20
-72.66707164849976
 10
44.73352635875266
 20
-72.4403766485567
 10
44.59918858440213
 20
-72.21470470416877
 10
44.28980248118412
 20
-71.64627387097738
 10
43.9797472112271
 20
-71.07816053778622
 10
43.67004249699551
 20
-70.50905942681746
 10
43.48331722398149
 20
-70.15144859357306
 10
43.29863806202638
 20
-69.79419053810706
 10
43.11261943366655
 20
-69.43795553819619
 10
42.88938057246741
 20
-68.83336498279195
 10
42.66716585591436
 20
-68.22803359405401
 10
42.44632697265953
 20
-67.62273748309424
 10
42.15211031349897
 20
-66.88723109438929
 10
41.85136726561601
 20
-66.11207248347203
 10
41.62467227139948
 20
-65.31624109478207
 10
41.56956943405174
 20
-65.03444220596346
 10
41.5154522741859
 20
-64.75401915047837
 10
41.46070116447162
 20
-64.47359609499264
 10
41.30219811295981
 20
-63.89101887291584
 10
41.11893006207981
 20
-63.30844165083968
 10
40.92532562257463
 20
-62.75860220653259
 10
40.85642812433235
 20
-62.53571720658859
 10
40.78753062609007
 20
-62.31247942886619
 10
40.71792757231024
 20
-62.09164054003244
 10
40.20495341873063
 20
-61.02505220696574
 10
39.59274287879386
 20
-60.06764859609439
 10
38.94747706192263
 20
-59.14986192965718
 10
38.70977540132024
 20
-58.81295915196366
 10
38.47172096294907
 20
-58.47154081871555
 10
38.23606541340559
 20
-58.13220387435586
 10
38.31978054597547
 20
-57.79456026332929
 10
38.40352902024435
 20
-57.45490581896935
 10
38.48724318477529
 20
-57.11694470794318
 10
38.84450123121643
 20
-56.12475720819123
 10
39.33955427414214
 20
-55.13980165288147
 10
39.85425703878875
 20
-54.29641581975901
 10
39.99205203527331
 20
-54.05906693092999
 10
40.13192842059365
 20
-53.82203554209995
 10
40.26937063930943
 20
-53.58570970882606
 10
41.1251389508103
 20
-52.42813998689304
 10
42.26718642167424
 20
-51.51589193156553
 10
43.15601110032223
 20
-50.3924358207351
 10
43.73481249534309
 20
-49.64246554314514
 10
44.31530831386674
 20
-48.89073137666637
 10
44.89407552132338
 20
-48.13934998796535
 10
45.22409912401489
 20
-47.60295137698815
 10
45.55726244884852
 20
-47.06034387712389
 10
45.88866188483826
 20
-46.52186387725828
 10
46.08434771317923
 20
-46.13363193291073
 10
46.28313798588545
 20
-45.74190748856437
 10
46.47917776615813
 20
-45.35261721088418
 10
46.85400297132146
 20
-44.71250193326628
 10
47.31839962614038
 20
-43.90255943346907
 10
47.52992517629948
 20
-43.14429887810299
 10
47.69216767216032
 20
-43.19770943364477
 10
47.84548609914974
 20
-43.26660693362798
 10
48.02222776577229
 20
-43.33067137805637
 10
48.02222776577229
 20
-43.33067137805637
 10
48.03185738571634
 20
-43.33067137805637
 10
48.03185738571634
 20
-43.33067137805637
 10
48.00603405304182
 20
-43.22148665586102
 10
47.98123377589675
 20
-43.11159637811079
 10
47.95470488768466
 20
-43.00237637813856
 10
48.25096765790415
 20
-43.09296971144897
 10
48.21480793660444
 20
-43.21630082252909
 10
48.40326182068547
 20
-43.35240248916173
 10
48.72227875699112
 20
-43.5818491557712
 10
49.16702569008912
 20
-43.66521054463941
 10
49.56217206889698
 20
-43.81161332238025
 10
49.56217206889698
 20
-43.81161332238025
 10
49.57286123529094
 20
-43.81161332238025
 10
49.57286123529094
 20
-43.81161332238025
 10
49.52978706972319
 20
-43.70309887796291
 10
49.48706568192421
 20
-43.59183276687979
 10
49.44296846082701
 20
-43.48331832246244
 10
49.95389650334771
 20
-43.72239582240274
 10
50.56571898773881
 20
-44.20506637783791
 10
51.21204443164132
 20
-44.05174915565384
 10
51.16586452798338
 20
-43.95561721123309
 10
51.1190156402897
 20
-43.86262498903404
 10
51.07146119705848
 20
-43.76857443350234
 10
51.07146119705848
 20
-43.76857443350234
 10
51.07146119705848
 20
-43.7568622112831
 10
51.07146119705848
 20
-43.7568622112831
 10
51.2419939704856
 20
-43.76684582239169
 10
51.46283285374042
 20
-43.80783860015936
 10
51.58549368394441
 20
-43.88742526680605
 10
51.62475784960937
 20
-43.94288193345873
 10
51.6643747930431
 20
-43.99629248900116
 10
51.70399173647683
 20
-44.05174915565384
 10
51.78668284547832
 20
-44.1206466556364
 10
52.30791199884732
 20
-44.30737193336755
 10
52.48052616111023
 20
-44.2591472111577
 10
52.5476950482855
 20
-44.21261582228033
 10
52.6121122688643
 20
-44.1647438778476
 10
52.67723504498066
 20
-44.11687193341551
 10
52.68101109794098
 20
-44.11031026675005
 10
52.68654837807639
 20
-44.10307832230786
 10
52.68757143360585
 20
-44.09482332230991
 10
52.60248143577667
 20
-44.00419471122134
 10
52.51428699358225
 20
-43.9136013779103
 10
52.42644532915661
 20
-43.82230248904438
 10
52.43022005128254
 20
-43.73065082240068
 10
52.43367727341656
 20
-43.64005748909028
 10
52.43815755108004
 20
-43.54808832244635
 10
52.49499004963012
 20
-43.59183276687979
 10
52.55390393701599
 20
-43.63628276686875
 10
52.6121122688643
 20
-43.68002721130218
 10
52.69790782223103
 20
-43.7789108223887
 10
52.9538833712561
 20
-43.68002721130218
 10
53.02793142492254
 20
-43.62421776687174
 10
53.37037280507502
 20
-43.35240248916173
 10
53.71419001852573
 20
-43.07783554478595
 10
54.05525556537999
 20
-42.80598498929842
 10
54.35465805774159
 20
-42.94413276704195
 10
54.65300221679686
 20
-43.08263332256261
 10
54.95169915362091
 20
-43.22148665586102
 10
55.11051970512462
 20
-43.26593665584998
 10
55.25141914597442
 20
-43.14673304476916
 10
55.40092776392736
 20
-43.18807860031394
 10
55.51254525042365
 20
-43.26212665585093
 10
55.62624552530069
 20
-43.3337758224999
 10
55.73818331939864
 20
-43.40577776692664
 10
55.93972385063653
 20
-43.47915554468563
 10
56.13988995664097
 20
-43.55288610022301
 10
56.3404088404142
 20
-43.62421776687174
 10
56.51369328043779
 20
-43.71445832240503
 10
56.66182466554753
 20
-43.8757130445868
 10
56.85511160506082
 20
-43.97526693345068
 10
56.93847299182298
 20
-43.94288193345873
 10
57.02148160081637
 20
-43.90947387791164
 10
57.10554998572354
 20
-43.8757130445868
 10
57.12279937600931
 20
-43.83263887793073
 10
57.14206104218457
 20
-43.79062304460794
 10
57.16033493060726
 20
-43.74514998906386
 10
57.10762993195187
 20
-43.64351471131157
 10
57.07764382160577
 20
-43.55186304466789
 10
57.04046104477661
 20
-43.41717248914564
 10
57.06974159958515
 20
-43.31278554472759
 10
57.41698075739301
 20
-43.16567721143058
 10
57.53241109672827
 20
-43.14429887810299
 10
57.62265019659039
 20
-43.25387165585298
 10
57.71430186091882
 20
-43.36273887804809
 10
57.80489519194093
 20
-43.47262915579832
 10
57.92205268895199
 20
-43.51295165578863
 10
58.23348490322892
 20
-43.30417776695188
 10
58.38401665207052
 20
-43.25387165585298
 10
58.68133628069216
 20
-43.15361221143358
 10
58.9641934956981
 20
-43.09780276700314
 10
59.20397654513628
 20
-42.94829554481876
 10
59.20397654513628
 20
-42.94829554481876
 10
59.36830042983291
 20
-42.78361887819322
 10
59.36830042983291
 20
-42.78361887819322
 10
59.4836940380001
 20
-42.7133102670996
 10
59.66491597782118
 20
-42.70057498932459
 10
59.72933319839998
 20
-42.58690998935347
 10
59.81100276282491
 20
-42.44428193383352
 10
59.76446986417024
 20
-42.26821054498833
 10
59.7407279203315
 20
-42.1269583228019
 10
59.92124430461503
 20
-41.89338415619314
 10
60.16067457628444
 20
-41.71082165623881
 10
60.3205181833176
 20
-41.4496602674154
 10
60.35565484908785
 20
-41.28293748967896
 10
60.39184984816444
 20
-41.11445082305499
 10
60.42836387378168
 20
-40.9473752675408
 10
60.4875937346107
 20
-40.85505332311975
 10
60.5458388737525
 20
-40.76477748980894
 10
60.60475276262648
 20
-40.6741841564979
 10
60.63297498484162
 20
-40.41510415656289
 10
60.66296109594556
 20
-40.15567137885012
 10
60.69121706274917
 20
-39.89764971224776
 10
60.62267234227567
 20
-39.81358276782434
 10
60.55373956625651
 20
-39.72951582340092
 10
60.48448929024546
 20
-39.64513137897757
 97
        0
 92
        1
 93
        1
 72
     4
 94
        3
 73
     0
 74
     1
 95
       77
 96
       73
 40
0.0
 40
0.0
 40
0.0
 40
0.0
 40
1.0
 40
1.0
 40
1.0
 40
2.0
 40
2.0
 40
2.0
 40
3.0
 40
3.0
 40
3.0
 40
4.0
 40
4.0
 40
4.0
 40
5.0
 40
5.0
 40
5.0
 40
6.0
 40
6.0
 40
6.0
 40
7.0
 40
7.0
 40
7.0
 40
8.0
 40
8.0
 40
8.0
 40
9.0
 40
9.0
 40
9.0
 40
10.0
 40
10.0
 40
10.0
 40
11.0
 40
11.0
 40
11.0
 40
12.0
 40
12.0
 40
12.0
 40
13.0
 40
13.0
 40
13.0
 40
14.0
 40
14.0
 40
14.0
 40
15.0
 40
15.0
 40
15.0
 40
16.0
 40
16.0
 40
16.0
 40
17.0
 40
17.0
 40
17.0
 40
18.0
 40
18.0
 40
18.0
 40
19.0
 40
19.0
 40
19.0
 40
20.0
 40
20.0
 40
20.0
 40
21.0
 40
21.0
 40
21.0
 40
22.0
 40
22.0
 40
22.0
 40
23.0
 40
23.0
 40
23.0
 40
24.0
 40
24.0
 40
24.0
 40
24.0
 10
35.89651380642586
 20
-35.53548193556045
 10
34.88675888016717
 20
-35.77043193550178
 10
33.4859841582952
 20
-35.54924026889059
 10
32.31084610303331
 20
-35.54684138000226
 10
32.179612769733
 20
-35.69945304663081
 10
32.04869693643229
 20
-35.85139443548167
 10
31.91675804757646
 20
-36.0053819354431
 10
31.33107638105612
 20
-36.03399221321384
 10
30.74437165898066
 20
-36.06359026876187
 10
30.15699665912752
 20
-36.09220054653261
 10
30.15699665912752
 20
-36.09220054653261
 10
30.06915499248256
 20
-36.45393887977535
 10
30.06915499248256
 20
-36.45393887977535
 10
29.44868943708226
 20
-36.46392249088395
 10
28.83132832612549
 20
-36.47563471310318
 10
28.21050999294743
 20
-36.48597110198954
 10
28.10541749297353
 20
-36.6713205463878
 10
27.99933721522235
 20
-36.85804582411895
 10
27.89357443747109
 20
-37.04441832407234
 10
27.62482832642709
 20
-37.05821193517999
 10
27.35438888205028
 20
-37.07302860184276
 10
27.08465499322899
 20
-37.08816276850578
 10
27.83878804859577
 20
-36.28132471315177
 10
28.59327388174064
 20
-35.47723832446417
 10
29.34772443710766
 20
-34.67145860244312
 10
29.63918943703462
 20
-34.26699888032208
 10
29.72946527034543
 20
-33.7250616582355
 10
29.98163082583785
 20
-33.27272999168171
 10
30.12048415913659
 20
-33.08565193617312
 10
30.25930221465748
 20
-32.90030249177486
 10
30.39780277017846
 20
-32.71463554737699
 10
30.65688277011347
 20
-32.25196749193686
 10
30.91525721449327
 20
-31.78894665871928
 10
31.1736316588734
 20
-31.3259258255017
 10
31.61770832542891
 20
-30.58417527013185
 10
32.06524221420603
 20
-29.86002832586837
 10
32.40870665856438
 20
-29.01907665941176
 10
32.48173165854625
 20
-28.83750193723503
 10
32.55581499186107
 20
-28.65525693728062
 10
32.62816971406524
 20
-28.47301193732621
 10
32.77697138069474
 20
-28.49922332620862
 10
32.92580832510176
 20
-28.52367082620255
 10
33.07602110284197
 20
-28.54847110397392
 10
33.21900193613968
 20
-28.65077665950388
 10
33.35919582499346
 20
-28.75311749281169
 10
33.50355249162406
 20
-28.85507027056389
 10
33.55004860272359
 20
-28.86988693722699
 10
33.59725026937831
 20
-28.88438610389016
 10
33.64409915825561
 20
-28.89916749277509
 10
33.72611999156846
 20
-28.963937492759
 10
33.74954443600694
 20
-29.16893665937454
 10
33.89492415819299
 20
-29.2819313815683
 10
34.1911869358966
 20
-29.50792082595647
 10
34.48610915804518
 20
-29.73394554812216
 10
34.78170165797112
 20
-29.95922943695449
 10
34.88675888016717
 20
-30.09843554803099
 10
34.99287443569619
 20
-30.23725360355188
 10
35.09898999122522
 20
-30.3754013812951
 10
35.30776388006196
 20
-30.63412860345267
 10
35.51308054667741
 20
-30.89320860338767
 10
35.72083047757458
 20
-31.15055999221235
 10
35.88515436227122
 20
-31.48368804768467
 10
36.05050130249731
 20
-31.81512276982386
 10
36.21415490943327
 20
-32.14722776974104
 10
36.3864162939274
 20
-32.48416582521241
 10
36.54728295649002
 20
-32.81969276957273
 10
36.71714545215647
 20
-33.17384638059552
 10
36.77295489517709
 20
-33.29132138056602
 10
36.92108628028684
 20
-33.45737388052446
 10
36.89180572547829
 20
-33.63238693603636
 10
36.77983406166826
 20
-34.31003776920031
 10
36.19245907665344
 20
-34.97908082458854
 10
35.89651380642586
 20
-35.53548193556045
 97
        0
 75
     2
 76
     1
 98
        0
  0
ENDSEC
  0
SECTION
  2
OBJECTS
  0
DICTIONARY
  5
C
330
0
100
AcDbDictionary
281
     1
  3
ACAD_GROUP
350
D
  3
ACAD_LAYOUT
350
1A
  3
ACAD_MATERIAL
350
3B
  3
ACAD_MLEADERSTYLE
350
65
  3
ACAD_MLINESTYLE
350
17
  3
ACAD_PLOTSETTINGS
350
19
  3
ACAD_PLOTSTYLENAME
350
E
  3
ACAD_TABLESTYLE
350
64
  3
ACAD_VISUALSTYLE
350
2A
  0
SUN
  5
3F
330
29
100
AcDbSun
 90
        1
290
     0
 63
     7
421
 16777215
 40
1.0
291
     1
 91
  2455826
 92
 54000000
292
     0
 70
     2
 71
   256
280
     1
  0
DICTIONARY
  5
D
102
{ACAD_REACTORS
330
C
102
}
330
C
100
AcDbDictionary
281
     1
  0
DICTIONARY
  5
1A
102
{ACAD_REACTORS
330
C
102
}
330
C
100
AcDbDictionary
281
     1
  3
Layout1
350
1E
  3
Layout2
350
26
  3
Model
350
22
  0
DICTIONARY
  5
3B
102
{ACAD_REACTORS
330
C
102
}
330
C
100
AcDbDictionary
281
     1
  3
ByBlock
350
3D
  3
ByLayer
350
3C
  3
Global
350
3E
  0
DICTIONARY
  5
65
102
{ACAD_REACTORS
330
C
102
}
330
C
100
AcDbDictionary
281
     1
  0
DICTIONARY
  5
17
102
{ACAD_REACTORS
330
C
102
}
330
C
100
AcDbDictionary
281
     1
  3
Standard
350
18
  0
DICTIONARY
  5
19
102
{ACAD_REACTORS
330
C
102
}
330
C
100
AcDbDictionary
281
     1
  0
ACDBDICTIONARYWDFLT
  5
E
102
{ACAD_REACTORS
330
C
102
}
330
C
100
AcDbDictionary
281
     1
  3
Normal
350
F
100
AcDbDictionaryWithDefault
340
F
  0
DICTIONARY
  5
64
102
{ACAD_REACTORS
330
C
102
}
330
C
100
AcDbDictionary
281
     1
  0
DICTIONARY
  5
2A
102
{ACAD_REACTORS
330
C
102
}
330
C
100
AcDbDictionary
281
     1
  3
2dWireframe
350
2F
  3
3D Hidden
350
31
  3
3dWireframe
350
30
  3
Basic
350
32
  3
Brighten
350
36
  3
ColorChange
350
3A
  3
Conceptual
350
34
  3
Dim
350
35
  3
Facepattern
350
39
  3
Flat
350
2B
  3
FlatWithEdges
350
2C
  3
Gouraud
350
2D
  3
GouraudWithEdges
350
2E
  3
Linepattern
350
38
  3
Realistic
350
33
  3
Thicken
350
37
  0
LAYOUT
  5
1E
102
{ACAD_REACTORS
330
1A
102
}
330
1A
100
AcDbPlotSettings
  1

  2
none_device
  4

  6

 40
0.0
 41
0.0
 42
0.0
 43
0.0
 44
0.0
 45
0.0
 46
0.0
 47
0.0
 48
0.0
 49
0.0
140
0.0
141
0.0
142
1.0
143
1.0
 70
   688
 72
     0
 73
     0
 74
     5
  7

 75
    16
 76
     0
 77
     2
 78
   300
147
1.0
148
0.0
149
0.0
100
AcDbLayout
  1
Layout1
 70
     1
 71
     1
 10
0.0
 20
0.0
 11
12.0
 21
9.0
 12
0.0
 22
0.0
 32
0.0
 14
1.000000000000000E+20
 24
1.000000000000000E+20
 34
1.000000000000000E+20
 15
-1.000000000000000E+20
 25
-1.000000000000000E+20
 35
-1.000000000000000E+20
146
0.0
 13
0.0
 23
0.0
 33
0.0
 16
1.0
 26
0.0
 36
0.0
 17
0.0
 27
1.0
 37
0.0
 76
     0
330
1B
  0
LAYOUT
  5
26
102
{ACAD_REACTORS
330
1A
102
}
330
1A
100
AcDbPlotSettings
  1

  2
none_device
  4

  6

 40
0.0
 41
0.0
 42
0.0
 43
0.0
 44
0.0
 45
0.0
 46
0.0
 47
0.0
 48
0.0
 49
0.0
140
0.0
141
0.0
142
1.0
143
1.0
 70
   688
 72
     0
 73
     0
 74
     5
  7

 75
    16
 76
     0
 77
     2
 78
   300
147
1.0
148
0.0
149
0.0
100
AcDbLayout
  1
Layout2
 70
     1
 71
     2
 10
0.0
 20
0.0
 11
0.0
 21
0.0
 12
0.0
 22
0.0
 32
0.0
 14
0.0
 24
0.0
 34
0.0
 15
0.0
 25
0.0
 35
0.0
146
0.0
 13
0.0
 23
0.0
 33
0.0
 16
1.0
 26
0.0
 36
0.0
 17
0.0
 27
1.0
 37
0.0
 76
     0
330
23
  0
LAYOUT
  5
22
102
{ACAD_REACTORS
330
1A
102
}
330
1A
100
AcDbPlotSettings
  1

  2
none_device
  4

  6

 40
0.0
 41
0.0
 42
0.0
 43
0.0
 44
0.0
 45
0.0
 46
0.0
 47
0.0
 48
0.0
 49
0.0
140
0.0
141
0.0
142
1.0
143
1.0
 70
  1712
 72
     0
 73
     0
 74
     0
  7

 75
     0
 76
     0
 77
     2
 78
   300
147
1.0
148
0.0
149
0.0
100
AcDbLayout
  1
Model
 70
     1
 71
     0
 10
0.0
 20
0.0
 11
12.0
 21
9.0
 12
0.0
 22
0.0
 32
0.0
 14
1.000000000000000E+20
 24
1.000000000000000E+20
 34
1.000000000000000E+20
 15
-1.000000000000000E+20
 25
-1.000000000000000E+20
 35
-1.000000000000000E+20
146
0.0
 13
0.0
 23
0.0
 33
0.0
 16
1.0
 26
0.0
 36
0.0
 17
0.0
 27
1.0
 37
0.0
 76
     0
330
1F
331
29
  0
MATERIAL
  5
3D
102
{ACAD_REACTORS
330
3B
102
}
330
3B
100
AcDbMaterial
  1
ByBlock
 72
     1
 94
      127
  0
MATERIAL
  5
3C
102
{ACAD_REACTORS
330
3B
102
}
330
3B
100
AcDbMaterial
  1
ByLayer
 72
     1
 94
      127
  0
MATERIAL
  5
3E
102
{ACAD_REACTORS
330
3B
102
}
330
3B
100
AcDbMaterial
  1
Global
 72
     1
 94
      127
  0
MLINESTYLE
  5
18
102
{ACAD_REACTORS
330
17
102
}
330
17
100
AcDbMlineStyle
  2
Standard
 70
     0
  3

 62
   256
 51
90.0
 52
90.0
 71
     2
 49
0.5
 62
   256
  6
BYLAYER
 49
-0.5
 62
   256
  6
BYLAYER
  0
ACDBPLACEHOLDER
  5
F
102
{ACAD_REACTORS
330
E
102
}
330
E
  0
VISUALSTYLE
  5
2F
102
{ACAD_REACTORS
330
2A
102
}
102
{ACAD_XDICTIONARY
360
4C
102
}
330
2A
100
AcDbVisualStyle
  2
2dWireframe
 70
     4
 71
     0
 72
     2
 73
     0
 90
        0
 40
-0.6
 41
-30.0
 62
     5
 63
     7
421
 16777215
 74
     1
 91
        4
 64
     7
 65
   257
 75
     1
175
     1
 42
1.0
 92
        0
 66
   257
 43
1.0
 76
     1
 77
     6
 78
     2
 67
     7
 79
     5
170
     0
171
     0
290
     0
174
     0
 93
        1
 44
0.0
173
     0
291
     0
 45
0.0
  0
VISUALSTYLE
  5
31
102
{ACAD_REACTORS
330
2A
102
}
102
{ACAD_XDICTIONARY
360
50
102
}
330
2A
100
AcDbVisualStyle
  2
3D Hidden
 70
     6
 71
     1
 72
     2
 73
     2
 90
        0
 40
-0.6
 41
-30.0
 62
     5
 63
     7
421
 16777215
 74
     2
 91
        2
 64
     7
 65
   257
 75
     2
175
     1
 42
40.0
 92
        0
 66
   257
 43
1.0
 76
     1
 77
     6
 78
     2
 67
     7
 79
     3
170
     0
171
     0
290
     0
174
     0
 93
        1
 44
0.0
173
     0
291
     0
 45
0.0
  0
VISUALSTYLE
  5
30
102
{ACAD_REACTORS
330
2A
102
}
102
{ACAD_XDICTIONARY
360
4E
102
}
330
2A
100
AcDbVisualStyle
  2
3dWireframe
 70
     5
 71
     0
 72
     2
 73
     0
 90
        0
 40
-0.6
 41
-30.0
 62
     5
 63
     7
421
 16777215
 74
     1
 91
        4
 64
     7
 65
   257
 75
     1
175
     1
 42
1.0
 92
        0
 66
   257
 43
1.0
 76
     1
 77
     6
 78
     2
 67
     7
 79
     5
170
     0
171
     0
290
     0
174
     0
 93
        1
 44
0.0
173
     0
291
     0
 45
0.0
  0
VISUALSTYLE
  5
32
102
{ACAD_REACTORS
330
2A
102
}
102
{ACAD_XDICTIONARY
360
52
102
}
330
2A
100
AcDbVisualStyle
  2
Basic
 70
     7
 71
     1
 72
     0
 73
     1
 90
        0
 40
-0.6
 41
-30.0
 62
     5
 63
     7
421
 16777215
 74
     0
 91
        4
 64
     7
 65
   257
 75
     1
175
     1
 42
1.0
 92
        8
 66
     7
 43
1.0
 76
     1
 77
     6
 78
     2
 67
     7
 79
     5
170
     0
171
     0
290
     0
174
     0
 93
        1
 44
0.0
173
     0
291
     1
 45
0.0
  0
VISUALSTYLE
  5
36
102
{ACAD_REACTORS
330
2A
102
}
102
{ACAD_XDICTIONARY
360
5A
102
}
330
2A
100
AcDbVisualStyle
  2
Brighten
 70
    12
 71
     2
 72
     2
 73
     0
 90
        0
 40
-0.6
 41
-30.0
 62
     5
 63
     7
421
 16777215
 74
     1
 91
        4
 64
     7
 65
   257
 75
     1
175
     1
 42
1.0
 92
        8
 66
     7
 43
1.0
 76
     1
 77
     6
 78
     2
 67
     7
 79
     5
170
     0
171
     0
290
     0
174
     0
 93
        1
 44
50.0
173
     0
291
     1
 45
0.0
  0
VISUALSTYLE
  5
3A
102
{ACAD_REACTORS
330
2A
102
}
102
{ACAD_XDICTIONARY
360
62
102
}
330
2A
100
AcDbVisualStyle
  2
ColorChange
 70
    16
 71
     2
 72
     2
 73
     3
 90
        0
 40
-0.6
 41
-30.0
 62
     5
 63
     8
421
  8421504
 74
     1
 91
        4
 64
     7
 65
   257
 75
     1
175
     1
 42
1.0
 92
        8
 66
     8
424
  8421504
 43
1.0
 76
     1
 77
     6
 78
     2
 67
     7
 79
     5
170
     0
171
     0
290
     0
174
     0
 93
        1
 44
0.0
173
     0
291
     1
 45
0.0
  0
VISUALSTYLE
  5
34
102
{ACAD_REACTORS
330
2A
102
}
102
{ACAD_XDICTIONARY
360
56
102
}
330
2A
100
AcDbVisualStyle
  2
Conceptual
 70
     9
 71
     3
 72
     2
 73
     0
 90
        0
 40
-0.6
 41
-30.0
 62
     5
 63
     7
421
 16777215
 74
     2
 91
        2
 64
     7
 65
   257
 75
     1
175
     1
 42
40.0
 92
        8
 66
     7
 43
1.0
 76
     1
 77
     6
 78
     2
 67
     7
 79
     3
170
     0
171
     0
290
     0
174
     0
 93
        1
 44
0.0
173
     0
291
     0
 45
0.0
  0
VISUALSTYLE
  5
35
102
{ACAD_REACTORS
330
2A
102
}
102
{ACAD_XDICTIONARY
360
58
102
}
330
2A
100
AcDbVisualStyle
  2
Dim
 70
    11
 71
     2
 72
     2
 73
     0
 90
        0
 40
-0.6
 41
-30.0
 62
     5
 63
     7
421
 16777215
 74
     1
 91
        4
 64
     7
 65
   257
 75
     1
175
     1
 42
1.0
 92
        8
 66
     7
 43
1.0
 76
     1
 77
     6
 78
     2
 67
     7
 79
     5
170
     0
171
     0
290
     0
174
     0
 93
        1
 44
-50.0
173
     0
291
     1
 45
0.0
  0
VISUALSTYLE
  5
39
102
{ACAD_REACTORS
330
2A
102
}
102
{ACAD_XDICTIONARY
360
60
102
}
330
2A
100
AcDbVisualStyle
  2
Facepattern
 70
    15
 71
     2
 72
     2
 73
     0
 90
        0
 40
-0.6
 41
-30.0
 62
     5
 63
     7
421
 16777215
 74
     1
 91
        4
 64
     7
 65
   257
 75
     1
175
     1
 42
1.0
 92
        8
 66
     7
 43
1.0
 76
     1
 77
     6
 78
     2
 67
     7
 79
     5
170
     0
171
     0
290
     0
174
     0
 93
        1
 44
0.0
173
     0
291
     1
 45
0.0
  0
VISUALSTYLE
  5
2B
102
{ACAD_REACTORS
330
2A
102
}
102
{ACAD_XDICTIONARY
360
44
102
}
330
2A
100
AcDbVisualStyle
  2
Flat
 70
     0
 71
     2
 72
     1
 73
     1
 90
        2
 40
-0.6
 41
30.0
 62
     5
 63
     7
421
 16777215
 74
     0
 91
        4
 64
     7
 65
   257
 75
     1
175
     1
 42
1.0
 92
        8
 66
     7
 43
1.0
 76
     1
 77
     6
 78
     2
 67
     7
 79
     5
170
     0
171
     0
290
     0
174
     0
 93
       13
 44
0.0
173
     0
291
     1
 45
0.0
  0
VISUALSTYLE
  5
2C
102
{ACAD_REACTORS
330
2A
102
}
102
{ACAD_XDICTIONARY
360
46
102
}
330
2A
100
AcDbVisualStyle
  2
FlatWithEdges
 70
     1
 71
     2
 72
     1
 73
     1
 90
        2
 40
-0.6
 41
30.0
 62
     5
 63
     7
421
 16777215
 74
     1
 91
        4
 64
     7
 65
   257
 75
     1
175
     1
 42
1.0
 92
        0
 66
   257
 43
1.0
 76
     1
 77
     6
 78
     2
 67
     7
 79
     5
170
     0
171
     0
290
     0
174
     0
 93
       13
 44
0.0
173
     0
291
     1
 45
0.0
  0
VISUALSTYLE
  5
2D
102
{ACAD_REACTORS
330
2A
102
}
102
{ACAD_XDICTIONARY
360
48
102
}
330
2A
100
AcDbVisualStyle
  2
Gouraud
 70
     2
 71
     2
 72
     2
 73
     1
 90
        2
 40
-0.6
 41
30.0
 62
     5
 63
     7
421
 16777215
 74
     0
 91
        4
 64
     7
 65
   257
 75
     1
175
     1
 42
1.0
 92
        0
 66
     7
 43
1.0
 76
     1
 77
     6
 78
     2
 67
     7
 79
     5
170
     0
171
     0
290
     0
174
     0
 93
       13
 44
0.0
173
     0
291
     1
 45
0.0
  0
VISUALSTYLE
  5
2E
102
{ACAD_REACTORS
330
2A
102
}
102
{ACAD_XDICTIONARY
360
4A
102
}
330
2A
100
AcDbVisualStyle
  2
GouraudWithEdges
 70
     3
 71
     2
 72
     2
 73
     1
 90
        2
 40
-0.6
 41
30.0
 62
     5
 63
     7
421
 16777215
 74
     1
 91
        4
 64
     7
 65
   257
 75
     1
175
     1
 42
1.0
 92
        0
 66
   257
 43
1.0
 76
     1
 77
     6
 78
     2
 67
     7
 79
     5
170
     0
171
     0
290
     0
174
     0
 93
       13
 44
0.0
173
     0
291
     1
 45
0.0
  0
VISUALSTYLE
  5
38
102
{ACAD_REACTORS
330
2A
102
}
102
{ACAD_XDICTIONARY
360
5E
102
}
330
2A
100
AcDbVisualStyle
  2
Linepattern
 70
    14
 71
     2
 72
     2
 73
     0
 90
        0
 40
-0.6
 41
-30.0
 62
     5
 63
     7
421
 16777215
 74
     1
 91
        4
 64
     7
 65
   257
 75
     7
175
     7
 42
1.0
 92
        8
 66
     7
 43
1.0
 76
     1
 77
     6
 78
     2
 67
     7
 79
     5
170
     0
171
     0
290
     0
174
     0
 93
        1
 44
0.0
173
     0
291
     1
 45
0.0
  0
VISUALSTYLE
  5
33
102
{ACAD_REACTORS
330
2A
102
}
102
{ACAD_XDICTIONARY
360
54
102
}
330
2A
100
AcDbVisualStyle
  2
Realistic
 70
     8
 71
     2
 72
     2
 73
     0
 90
        0
 40
-0.6
 41
-30.0
 62
     5
 63
     7
421
 16777215
 74
     1
 91
        0
 64
     7
 65
   257
 75
     1
175
     1
 42
1.0
 92
        8
 66
     8
424
  7895160
 43
1.0
 76
     1
 77
     6
 78
     2
 67
     7
 79
     5
170
     0
171
     0
290
     0
174
     0
 93
       13
 44
0.0
173
     0
291
     0
 45
0.0
  0
VISUALSTYLE
  5
37
102
{ACAD_REACTORS
330
2A
102
}
102
{ACAD_XDICTIONARY
360
5C
102
}
330
2A
100
AcDbVisualStyle
  2
Thicken
 70
    13
 71
     2
 72
     2
 73
     0
 90
        0
 40
-0.6
 41
-30.0
 62
     5
 63
     7
421
 16777215
 74
     1
 91
        4
 64
     7
 65
   257
 75
     1
175
     1
 42
1.0
 92
       12
 66
     7
 43
1.0
 76
     1
 77
     6
 78
     2
 67
     7
 79
     5
170
     0
171
     0
290
     0
174
     0
 93
        1
 44
0.0
173
     0
291
     1
 45
0.0
  0
DICTIONARY
  5
4C
330
2F
100
AcDbDictionary
280
     1
281
     1
  3
ACAD_XREC_ROUNDTRIP
360
4D
  0
DICTIONARY
  5
50
330
31
100
AcDbDictionary
280
     1
281
     1
  3
ACAD_XREC_ROUNDTRIP
360
51
  0
DICTIONARY
  5
4E
330
30
100
AcDbDictionary
280
     1
281
     1
  3
ACAD_XREC_ROUNDTRIP
360
4F
  0
DICTIONARY
  5
52
330
32
100
AcDbDictionary
280
     1
281
     1
  3
ACAD_XREC_ROUNDTRIP
360
53
  0
DICTIONARY
  5
5A
330
36
100
AcDbDictionary
280
     1
281
     1
  3
ACAD_XREC_ROUNDTRIP
360
5B
  0
DICTIONARY
  5
62
330
3A
100
AcDbDictionary
280
     1
281
     1
  3
ACAD_XREC_ROUNDTRIP
360
63
  0
DICTIONARY
  5
56
330
34
100
AcDbDictionary
280
     1
281
     1
  3
ACAD_XREC_ROUNDTRIP
360
57
  0
DICTIONARY
  5
58
330
35
100
AcDbDictionary
280
     1
281
     1
  3
ACAD_XREC_ROUNDTRIP
360
59
  0
DICTIONARY
  5
60
330
39
100
AcDbDictionary
280
     1
281
     1
  3
ACAD_XREC_ROUNDTRIP
360
61
  0
DICTIONARY
  5
44
330
2B
100
AcDbDictionary
280
     1
281
     1
  3
ACAD_XREC_ROUNDTRIP
360
45
  0
DICTIONARY
  5
46
330
2C
100
AcDbDictionary
280
     1
281
     1
  3
ACAD_XREC_ROUNDTRIP
360
47
  0
DICTIONARY
  5
48
330
2D
100
AcDbDictionary
280
     1
281
     1
  3
ACAD_XREC_ROUNDTRIP
360
49
  0
DICTIONARY
  5
4A
330
2E
100
AcDbDictionary
280
     1
281
     1
  3
ACAD_XREC_ROUNDTRIP
360
4B
  0
DICTIONARY
  5
5E
330
38
100
AcDbDictionary
280
     1
281
     1
  3
ACAD_XREC_ROUNDTRIP
360
5F
  0
DICTIONARY
  5
54
330
33
100
AcDbDictionary
280
     1
281
     1
  3
ACAD_XREC_ROUNDTRIP
360
55
  0
DICTIONARY
  5
5C
330
37
100
AcDbDictionary
280
     1
281
     1
  3
ACAD_XREC_ROUNDTRIP
360
5D
  0
XRECORD
  5
4D
102
{ACAD_REACTORS
330
4C
102
}
330
4C
100
AcDbXrecord
280
     1
102
RTVSPropertyOp0
 70
     1
102
RTVSPropertyOp1
 70
     1
102
RTVSPropertyOp2
 70
     1
102
RTVSPropertyOp3
 70
     1
102
RTVSPropertyOp4
 70
     1
102
RTVSPropertyOp5
 70
     1
102
RTVSPropertyOp6
 70
     1
102
RTVSPropertyOp7
 70
     1
102
RTVSPropertyOp8
 70
     1
102
RTVSPropertyOp9
 70
     1
102
RTVSPropertyOp10
 70
     1
102
RTVSPropertyOp11
 70
     1
102
RTVSPropertyOp12
 70
     1
102
RTVSPropertyOp13
 70
     1
102
RTVSPropertyOp14
 70
     1
102
RTVSPropertyOp15
 70
     1
102
RTVSPropertyOp16
 70
     1
102
RTVSPropertyOp17
 70
     1
102
RTVSPropertyOp18
 70
     1
102
RTVSPropertyOp19
 70
     1
102
RTVSPropertyOp20
 70
     1
102
RTVSPropertyOp21
 70
     1
102
RTVSPropertyOp22
 70
     1
102
RTVSPropertyOp23
 70
     1
102
RTVSPropertyOp24
 70
     1
102
RTVSPropertyOp25
 70
     1
102
RTVSPropertyOp26
 70
     1
102
RTVSPropertyOp27
 70
     1
102
RTVSPropertyOp28
 70
     1
102
RTVSPropertyOp29
 70
     1
102
RTVSPropertyOp30
 70
     1
102
RTVSPropertyOp31
 70
     1
102
RTVSPropertyOp32
 70
     1
  0
XRECORD
  5
51
102
{ACAD_REACTORS
330
50
102
}
330
50
100
AcDbXrecord
280
     1
102
RTVSPropertyOp0
 70
     1
102
RTVSPropertyOp1
 70
     1
102
RTVSPropertyOp2
 70
     1
102
RTVSPropertyOp3
 70
     1
102
RTVSPropertyOp4
 70
     1
102
RTVSPropertyOp5
 70
     1
102
RTVSPropertyOp6
 70
     1
102
RTVSPropertyOp7
 70
     1
102
RTVSPropertyOp8
 70
     1
102
RTVSPropertyOp9
 70
     1
102
RTVSPropertyOp10
 70
     1
102
RTVSPropertyOp11
 70
     1
102
RTVSPropertyOp12
 70
     1
102
RTVSPropertyOp13
 70
     1
102
RTVSPropertyOp14
 70
     1
102
RTVSPropertyOp15
 70
     1
102
RTVSPropertyOp16
 70
     1
102
RTVSPropertyOp17
 70
     1
102
RTVSPropertyOp18
 70
     1
102
RTVSPropertyOp19
 70
     1
102
RTVSPropertyOp20
 70
     1
102
RTVSPropertyOp21
 70
     1
102
RTVSPropertyOp22
 70
     1
102
RTVSPropertyOp23
 70
     1
102
RTVSPropertyOp24
 70
     1
102
RTVSPropertyOp25
 70
     1
102
RTVSPropertyOp26
 70
     1
102
RTVSPropertyOp27
 70
     1
102
RTVSPropertyOp28
 70
     1
102
RTVSPropertyOp29
 70
     1
102
RTVSPropertyOp30
 70
     1
102
RTVSPropertyOp31
 70
     1
102
RTVSPropertyOp32
 70
     1
  0
XRECORD
  5
4F
102
{ACAD_REACTORS
330
4E
102
}
330
4E
100
AcDbXrecord
280
     1
102
RTVSPropertyOp0
 70
     1
102
RTVSPropertyOp1
 70
     1
102
RTVSPropertyOp2
 70
     1
102
RTVSPropertyOp3
 70
     1
102
RTVSPropertyOp4
 70
     1
102
RTVSPropertyOp5
 70
     1
102
RTVSPropertyOp6
 70
     1
102
RTVSPropertyOp7
 70
     1
102
RTVSPropertyOp8
 70
     1
102
RTVSPropertyOp9
 70
     1
102
RTVSPropertyOp10
 70
     1
102
RTVSPropertyOp11
 70
     1
102
RTVSPropertyOp12
 70
     1
102
RTVSPropertyOp13
 70
     1
102
RTVSPropertyOp14
 70
     1
102
RTVSPropertyOp15
 70
     1
102
RTVSPropertyOp16
 70
     1
102
RTVSPropertyOp17
 70
     1
102
RTVSPropertyOp18
 70
     1
102
RTVSPropertyOp19
 70
     1
102
RTVSPropertyOp20
 70
     1
102
RTVSPropertyOp21
 70
     1
102
RTVSPropertyOp22
 70
     1
102
RTVSPropertyOp23
 70
     1
102
RTVSPropertyOp24
 70
     1
102
RTVSPropertyOp25
 70
     1
102
RTVSPropertyOp26
 70
     1
102
RTVSPropertyOp27
 70
     1
102
RTVSPropertyOp28
 70
     1
102
RTVSPropertyOp29
 70
     1
102
RTVSPropertyOp30
 70
     1
102
RTVSPropertyOp31
 70
     1
102
RTVSPropertyOp32
 70
     1
  0
XRECORD
  5
53
102
{ACAD_REACTORS
330
52
102
}
330
52
100
AcDbXrecord
280
     1
102
RTVSPropertyOp0
 70
     1
102
RTVSPropertyOp1
 70
     1
102
RTVSPropertyOp2
 70
     1
102
RTVSPropertyOp3
 70
     1
102
RTVSPropertyOp4
 70
     1
102
RTVSPropertyOp5
 70
     1
102
RTVSPropertyOp6
 70
     1
102
RTVSPropertyOp7
 70
     1
102
RTVSPropertyOp8
 70
     1
102
RTVSPropertyOp9
 70
     1
102
RTVSPropertyOp10
 70
     1
102
RTVSPropertyOp11
 70
     1
102
RTVSPropertyOp12
 70
     1
102
RTVSPropertyOp13
 70
     1
102
RTVSPropertyOp14
 70
     1
102
RTVSPropertyOp15
 70
     1
102
RTVSPropertyOp16
 70
     1
102
RTVSPropertyOp17
 70
     1
102
RTVSPropertyOp18
 70
     1
102
RTVSPropertyOp19
 70
     1
102
RTVSPropertyOp20
 70
     1
102
RTVSPropertyOp21
 70
     1
102
RTVSPropertyOp22
 70
     1
102
RTVSPropertyOp23
 70
     1
102
RTVSPropertyOp24
 70
     1
102
RTVSPropertyOp25
 70
     1
102
RTVSPropertyOp26
 70
     1
102
RTVSPropertyOp27
 70
     1
102
RTVSPropertyOp28
 70
     1
102
RTVSPropertyOp29
 70
     1
102
RTVSPropertyOp30
 70
     1
102
RTVSPropertyOp31
 70
     1
102
RTVSPropertyOp32
 70
     1
  0
XRECORD
  5
5B
102
{ACAD_REACTORS
330
5A
102
}
330
5A
100
AcDbXrecord
280
     1
102
RTVSPropertyOp0
 70
     1
102
RTVSPropertyOp1
 70
     1
102
RTVSPropertyOp2
 70
     1
102
RTVSPropertyOp3
 70
     1
102
RTVSPropertyOp4
 70
     1
102
RTVSPropertyOp5
 70
     1
102
RTVSPropertyOp6
 70
     1
102
RTVSPropertyOp7
 70
     1
102
RTVSPropertyOp8
 70
     1
102
RTVSPropertyOp9
 70
     1
102
RTVSPropertyOp10
 70
     1
102
RTVSPropertyOp11
 70
     1
102
RTVSPropertyOp12
 70
     1
102
RTVSPropertyOp13
 70
     1
102
RTVSPropertyOp14
 70
     1
102
RTVSPropertyOp15
 70
     1
102
RTVSPropertyOp16
 70
     1
102
RTVSPropertyOp17
 70
     1
102
RTVSPropertyOp18
 70
     1
102
RTVSPropertyOp19
 70
     1
102
RTVSPropertyOp20
 70
     1
102
RTVSPropertyOp21
 70
     1
102
RTVSPropertyOp22
 70
     1
102
RTVSPropertyOp23
 70
     1
102
RTVSPropertyOp24
 70
     1
102
RTVSPropertyOp25
 70
     1
102
RTVSPropertyOp26
 70
     1
102
RTVSPropertyOp27
 70
     1
102
RTVSPropertyOp28
 70
     1
102
RTVSPropertyOp29
 70
     1
102
RTVSPropertyOp30
 70
     1
102
RTVSPropertyOp31
 70
     1
102
RTVSPropertyOp32
 70
     1
  0
XRECORD
  5
63
102
{ACAD_REACTORS
330
62
102
}
330
62
100
AcDbXrecord
280
     1
102
RTVSPropertyOp0
 70
     1
102
RTVSPropertyOp1
 70
     1
102
RTVSPropertyOp2
 70
     1
102
RTVSPropertyOp3
 70
     1
102
RTVSPropertyOp4
 70
     1
102
RTVSPropertyOp5
 70
     1
102
RTVSPropertyOp6
 70
     1
102
RTVSPropertyOp7
 70
     1
102
RTVSPropertyOp8
 70
     1
102
RTVSPropertyOp9
 70
     1
102
RTVSPropertyOp10
 70
     1
102
RTVSPropertyOp11
 70
     1
102
RTVSPropertyOp12
 70
     1
102
RTVSPropertyOp13
 70
     1
102
RTVSPropertyOp14
 70
     1
102
RTVSPropertyOp15
 70
     1
102
RTVSPropertyOp16
 70
     1
102
RTVSPropertyOp17
 70
     1
102
RTVSPropertyOp18
 70
     1
102
RTVSPropertyOp19
 70
     1
102
RTVSPropertyOp20
 70
     1
102
RTVSPropertyOp21
 70
     1
102
RTVSPropertyOp22
 70
     1
102
RTVSPropertyOp23
 70
     1
102
RTVSPropertyOp24
 70
     1
102
RTVSPropertyOp25
 70
     1
102
RTVSPropertyOp26
 70
     1
102
RTVSPropertyOp27
 70
     1
102
RTVSPropertyOp28
 70
     1
102
RTVSPropertyOp29
 70
     1
102
RTVSPropertyOp30
 70
     1
102
RTVSPropertyOp31
 70
     1
102
RTVSPropertyOp32
 70
     1
  0
XRECORD
  5
57
102
{ACAD_REACTORS
330
56
102
}
330
56
100
AcDbXrecord
280
     1
102
RTVSPropertyOp0
 70
     1
102
RTVSPropertyOp1
 70
     1
102
RTVSPropertyOp2
 70
     1
102
RTVSPropertyOp3
 70
     1
102
RTVSPropertyOp4
 70
     1
102
RTVSPropertyOp5
 70
     1
102
RTVSPropertyOp6
 70
     1
102
RTVSPropertyOp7
 70
     1
102
RTVSPropertyOp8
 70
     1
102
RTVSPropertyOp9
 70
     1
102
RTVSPropertyOp10
 70
     1
102
RTVSPropertyOp11
 70
     1
102
RTVSPropertyOp12
 70
     1
102
RTVSPropertyOp13
 70
     1
102
RTVSPropertyOp14
 70
     1
102
RTVSPropertyOp15
 70
     1
102
RTVSPropertyOp16
 70
     1
102
RTVSPropertyOp17
 70
     1
102
RTVSPropertyOp18
 70
     1
102
RTVSPropertyOp19
 70
     1
102
RTVSPropertyOp20
 70
     1
102
RTVSPropertyOp21
 70
     1
102
RTVSPropertyOp22
 70
     1
102
RTVSPropertyOp23
 70
     1
102
RTVSPropertyOp24
 70
     1
102
RTVSPropertyOp25
 70
     1
102
RTVSPropertyOp26
 70
     1
102
RTVSPropertyOp27
 70
     1
102
RTVSPropertyOp28
 70
     1
102
RTVSPropertyOp29
 70
     1
102
RTVSPropertyOp30
 70
     1
102
RTVSPropertyOp31
 70
     1
102
RTVSPropertyOp32
 70
     1
  0
XRECORD
  5
59
102
{ACAD_REACTORS
330
58
102
}
330
58
100
AcDbXrecord
280
     1
102
RTVSPropertyOp0
 70
     1
102
RTVSPropertyOp1
 70
     1
102
RTVSPropertyOp2
 70
     1
102
RTVSPropertyOp3
 70
     1
102
RTVSPropertyOp4
 70
     1
102
RTVSPropertyOp5
 70
     1
102
RTVSPropertyOp6
 70
     1
102
RTVSPropertyOp7
 70
     1
102
RTVSPropertyOp8
 70
     1
102
RTVSPropertyOp9
 70
     1
102
RTVSPropertyOp10
 70
     1
102
RTVSPropertyOp11
 70
     1
102
RTVSPropertyOp12
 70
     1
102
RTVSPropertyOp13
 70
     1
102
RTVSPropertyOp14
 70
     1
102
RTVSPropertyOp15
 70
     1
102
RTVSPropertyOp16
 70
     1
102
RTVSPropertyOp17
 70
     1
102
RTVSPropertyOp18
 70
     1
102
RTVSPropertyOp19
 70
     1
102
RTVSPropertyOp20
 70
     1
102
RTVSPropertyOp21
 70
     1
102
RTVSPropertyOp22
 70
     1
102
RTVSPropertyOp23
 70
     1
102
RTVSPropertyOp24
 70
     1
102
RTVSPropertyOp25
 70
     1
102
RTVSPropertyOp26
 70
     1
102
RTVSPropertyOp27
 70
     1
102
RTVSPropertyOp28
 70
     1
102
RTVSPropertyOp29
 70
     1
102
RTVSPropertyOp30
 70
     1
102
RTVSPropertyOp31
 70
     1
102
RTVSPropertyOp32
 70
     1
  0
XRECORD
  5
61
102
{ACAD_REACTORS
330
60
102
}
330
60
100
AcDbXrecord
280
     1
102
RTVSPropertyOp0
 70
     1
102
RTVSPropertyOp1
 70
     1
102
RTVSPropertyOp2
 70
     1
102
RTVSPropertyOp3
 70
     1
102
RTVSPropertyOp4
 70
     1
102
RTVSPropertyOp5
 70
     1
102
RTVSPropertyOp6
 70
     1
102
RTVSPropertyOp7
 70
     1
102
RTVSPropertyOp8
 70
     1
102
RTVSPropertyOp9
 70
     1
102
RTVSPropertyOp10
 70
     1
102
RTVSPropertyOp11
 70
     1
102
RTVSPropertyOp12
 70
     1
102
RTVSPropertyOp13
 70
     1
102
RTVSPropertyOp14
 70
     1
102
RTVSPropertyOp15
 70
     1
102
RTVSPropertyOp16
 70
     1
102
RTVSPropertyOp17
 70
     1
102
RTVSPropertyOp18
 70
     1
102
RTVSPropertyOp19
 70
     1
102
RTVSPropertyOp20
 70
     1
102
RTVSPropertyOp21
 70
     1
102
RTVSPropertyOp22
 70
     1
102
RTVSPropertyOp23
 70
     1
102
RTVSPropertyOp24
 70
     1
102
RTVSPropertyOp25
 70
     1
102
RTVSPropertyOp26
 70
     1
102
RTVSPropertyOp27
 70
     1
102
RTVSPropertyOp28
 70
     1
102
RTVSPropertyOp29
 70
     1
102
RTVSPropertyOp30
 70
     1
102
RTVSPropertyOp31
 70
     1
102
RTVSPropertyOp32
 70
     1
  0
XRECORD
  5
45
102
{ACAD_REACTORS
330
44
102
}
330
44
100
AcDbXrecord
280
     1
102
RTVSPropertyOp0
 70
     1
102
RTVSPropertyOp1
 70
     1
102
RTVSPropertyOp2
 70
     1
102
RTVSPropertyOp3
 70
     1
102
RTVSPropertyOp4
 70
     1
102
RTVSPropertyOp5
 70
     1
102
RTVSPropertyOp6
 70
     1
102
RTVSPropertyOp7
 70
     1
102
RTVSPropertyOp8
 70
     1
102
RTVSPropertyOp9
 70
     1
102
RTVSPropertyOp10
 70
     1
102
RTVSPropertyOp11
 70
     1
102
RTVSPropertyOp12
 70
     1
102
RTVSPropertyOp13
 70
     1
102
RTVSPropertyOp14
 70
     1
102
RTVSPropertyOp15
 70
     1
102
RTVSPropertyOp16
 70
     1
102
RTVSPropertyOp17
 70
     1
102
RTVSPropertyOp18
 70
     1
102
RTVSPropertyOp19
 70
     1
102
RTVSPropertyOp20
 70
     1
102
RTVSPropertyOp21
 70
     1
102
RTVSPropertyOp22
 70
     1
102
RTVSPropertyOp23
 70
     1
102
RTVSPropertyOp24
 70
     1
102
RTVSPropertyOp25
 70
     1
102
RTVSPropertyOp26
 70
     1
102
RTVSPropertyOp27
 70
     1
102
RTVSPropertyOp28
 70
     1
102
RTVSPropertyOp29
 70
     1
102
RTVSPropertyOp30
 70
     1
102
RTVSPropertyOp31
 70
     1
102
RTVSPropertyOp32
 70
     1
  0
XRECORD
  5
47
102
{ACAD_REACTORS
330
46
102
}
330
46
100
AcDbXrecord
280
     1
102
RTVSPropertyOp0
 70
     1
102
RTVSPropertyOp1
 70
     1
102
RTVSPropertyOp2
 70
     1
102
RTVSPropertyOp3
 70
     1
102
RTVSPropertyOp4
 70
     1
102
RTVSPropertyOp5
 70
     1
102
RTVSPropertyOp6
 70
     1
102
RTVSPropertyOp7
 70
     1
102
RTVSPropertyOp8
 70
     1
102
RTVSPropertyOp9
 70
     1
102
RTVSPropertyOp10
 70
     1
102
RTVSPropertyOp11
 70
     1
102
RTVSPropertyOp12
 70
     1
102
RTVSPropertyOp13
 70
     1
102
RTVSPropertyOp14
 70
     1
102
RTVSPropertyOp15
 70
     1
102
RTVSPropertyOp16
 70
     1
102
RTVSPropertyOp17
 70
     1
102
RTVSPropertyOp18
 70
     1
102
RTVSPropertyOp19
 70
     1
102
RTVSPropertyOp20
 70
     1
102
RTVSPropertyOp21
 70
     1
102
RTVSPropertyOp22
 70
     1
102
RTVSPropertyOp23
 70
     1
102
RTVSPropertyOp24
 70
     1
102
RTVSPropertyOp25
 70
     1
102
RTVSPropertyOp26
 70
     1
102
RTVSPropertyOp27
 70
     1
102
RTVSPropertyOp28
 70
     1
102
RTVSPropertyOp29
 70
     1
102
RTVSPropertyOp30
 70
     1
102
RTVSPropertyOp31
 70
     1
102
RTVSPropertyOp32
 70
     1
  0
XRECORD
  5
49
102
{ACAD_REACTORS
330
48
102
}
330
48
100
AcDbXrecord
280
     1
102
RTVSPropertyOp0
 70
     1
102
RTVSPropertyOp1
 70
     1
102
RTVSPropertyOp2
 70
     1
102
RTVSPropertyOp3
 70
     1
102
RTVSPropertyOp4
 70
     1
102
RTVSPropertyOp5
 70
     1
102
RTVSPropertyOp6
 70
     1
102
RTVSPropertyOp7
 70
     1
102
RTVSPropertyOp8
 70
     1
102
RTVSPropertyOp9
 70
     1
102
RTVSPropertyOp10
 70
     1
102
RTVSPropertyOp11
 70
     1
102
RTVSPropertyOp12
 70
     1
102
RTVSPropertyOp13
 70
     1
102
RTVSPropertyOp14
 70
     1
102
RTVSPropertyOp15
 70
     1
102
RTVSPropertyOp16
 70
     1
102
RTVSPropertyOp17
 70
     1
102
RTVSPropertyOp18
 70
     1
102
RTVSPropertyOp19
 70
     1
102
RTVSPropertyOp20
 70
     1
102
RTVSPropertyOp21
 70
     1
102
RTVSPropertyOp22
 70
     1
102
RTVSPropertyOp23
 70
     1
102
RTVSPropertyOp24
 70
     1
102
RTVSPropertyOp25
 70
     1
102
RTVSPropertyOp26
 70
     1
102
RTVSPropertyOp27
 70
     1
102
RTVSPropertyOp28
 70
     1
102
RTVSPropertyOp29
 70
     1
102
RTVSPropertyOp30
 70
     1
102
RTVSPropertyOp31
 70
     1
102
RTVSPropertyOp32
 70
     1
  0
XRECORD
  5
4B
102
{ACAD_REACTORS
330
4A
102
}
330
4A
100
AcDbXrecord
280
     1
102
RTVSPropertyOp0
 70
     1
102
RTVSPropertyOp1
 70
     1
102
RTVSPropertyOp2
 70
     1
102
RTVSPropertyOp3
 70
     1
102
RTVSPropertyOp4
 70
     1
102
RTVSPropertyOp5
 70
     1
102
RTVSPropertyOp6
 70
     1
102
RTVSPropertyOp7
 70
     1
102
RTVSPropertyOp8
 70
     1
102
RTVSPropertyOp9
 70
     1
102
RTVSPropertyOp10
 70
     1
102
RTVSPropertyOp11
 70
     1
102
RTVSPropertyOp12
 70
     1
102
RTVSPropertyOp13
 70
     1
102
RTVSPropertyOp14
 70
     1
102
RTVSPropertyOp15
 70
     1
102
RTVSPropertyOp16
 70
     1
102
RTVSPropertyOp17
 70
     1
102
RTVSPropertyOp18
 70
     1
102
RTVSPropertyOp19
 70
     1
102
RTVSPropertyOp20
 70
     1
102
RTVSPropertyOp21
 70
     1
102
RTVSPropertyOp22
 70
     1
102
RTVSPropertyOp23
 70
     1
102
RTVSPropertyOp24
 70
     1
102
RTVSPropertyOp25
 70
     1
102
RTVSPropertyOp26
 70
     1
102
RTVSPropertyOp27
 70
     1
102
RTVSPropertyOp28
 70
     1
102
RTVSPropertyOp29
 70
     1
102
RTVSPropertyOp30
 70
     1
102
RTVSPropertyOp31
 70
     1
102
RTVSPropertyOp32
 70
     1
  0
XRECORD
  5
5F
102
{ACAD_REACTORS
330
5E
102
}
330
5E
100
AcDbXrecord
280
     1
102
RTVSPropertyOp0
 70
     1
102
RTVSPropertyOp1
 70
     1
102
RTVSPropertyOp2
 70
     1
102
RTVSPropertyOp3
 70
     1
102
RTVSPropertyOp4
 70
     1
102
RTVSPropertyOp5
 70
     1
102
RTVSPropertyOp6
 70
     1
102
RTVSPropertyOp7
 70
     1
102
RTVSPropertyOp8
 70
     1
102
RTVSPropertyOp9
 70
     1
102
RTVSPropertyOp10
 70
     1
102
RTVSPropertyOp11
 70
     1
102
RTVSPropertyOp12
 70
     1
102
RTVSPropertyOp13
 70
     1
102
RTVSPropertyOp14
 70
     1
102
RTVSPropertyOp15
 70
     1
102
RTVSPropertyOp16
 70
     1
102
RTVSPropertyOp17
 70
     1
102
RTVSPropertyOp18
 70
     1
102
RTVSPropertyOp19
 70
     1
102
RTVSPropertyOp20
 70
     1
102
RTVSPropertyOp21
 70
     1
102
RTVSPropertyOp22
 70
     1
102
RTVSPropertyOp23
 70
     1
102
RTVSPropertyOp24
 70
     1
102
RTVSPropertyOp25
 70
     1
102
RTVSPropertyOp26
 70
     1
102
RTVSPropertyOp27
 70
     1
102
RTVSPropertyOp28
 70
     1
102
RTVSPropertyOp29
 70
     1
102
RTVSPropertyOp30
 70
     1
102
RTVSPropertyOp31
 70
     1
102
RTVSPropertyOp32
 70
     1
  0
XRECORD
  5
55
102
{ACAD_REACTORS
330
54
102
}
330
54
100
AcDbXrecord
280
     1
102
RTVSPropertyOp0
 70
     1
102
RTVSPropertyOp1
 70
     1
102
RTVSPropertyOp2
 70
     1
102
RTVSPropertyOp3
 70
     1
102
RTVSPropertyOp4
 70
     1
102
RTVSPropertyOp5
 70
     1
102
RTVSPropertyOp6
 70
     1
102
RTVSPropertyOp7
 70
     1
102
RTVSPropertyOp8
 70
     1
102
RTVSPropertyOp9
 70
     1
102
RTVSPropertyOp10
 70
     1
102
RTVSPropertyOp11
 70
     1
102
RTVSPropertyOp12
 70
     1
102
RTVSPropertyOp13
 70
     1
102
RTVSPropertyOp14
 70
     1
102
RTVSPropertyOp15
 70
     1
102
RTVSPropertyOp16
 70
     1
102
RTVSPropertyOp17
 70
     1
102
RTVSPropertyOp18
 70
     1
102
RTVSPropertyOp19
 70
     1
102
RTVSPropertyOp20
 70
     1
102
RTVSPropertyOp21
 70
     1
102
RTVSPropertyOp22
 70
     1
102
RTVSPropertyOp23
 70
     1
102
RTVSPropertyOp24
 70
     1
102
RTVSPropertyOp25
 70
     1
102
RTVSPropertyOp26
 70
     1
102
RTVSPropertyOp27
 70
     1
102
RTVSPropertyOp28
 70
     1
102
RTVSPropertyOp29
 70
     1
102
RTVSPropertyOp30
 70
     1
102
RTVSPropertyOp31
 70
     1
102
RTVSPropertyOp32
 70
     1
  0
XRECORD
  5
5D
102
{ACAD_REACTORS
330
5C
102
}
330
5C
100
AcDbXrecord
280
     1
102
RTVSPropertyOp0
 70
     1
102
RTVSPropertyOp1
 70
     1
102
RTVSPropertyOp2
 70
     1
102
RTVSPropertyOp3
 70
     1
102
RTVSPropertyOp4
 70
     1
102
RTVSPropertyOp5
 70
     1
102
RTVSPropertyOp6
 70
     1
102
RTVSPropertyOp7
 70
     1
102
RTVSPropertyOp8
 70
     1
102
RTVSPropertyOp9
 70
     1
102
RTVSPropertyOp10
 70
     1
102
RTVSPropertyOp11
 70
     1
102
RTVSPropertyOp12
 70
     1
102
RTVSPropertyOp13
 70
     1
102
RTVSPropertyOp14
 70
     1
102
RTVSPropertyOp15
 70
     1
102
RTVSPropertyOp16
 70
     1
102
RTVSPropertyOp17
 70
     1
102
RTVSPropertyOp18
 70
     1
102
RTVSPropertyOp19
 70
     1
102
RTVSPropertyOp20
 70
     1
102
RTVSPropertyOp21
 70
     1
102
RTVSPropertyOp22
 70
     1
102
RTVSPropertyOp23
 70
     1
102
RTVSPropertyOp24
 70
     1
102
RTVSPropertyOp25
 70
     1
102
RTVSPropertyOp26
 70
     1
102
RTVSPropertyOp27
 70
     1
102
RTVSPropertyOp28
 70
     1
102
RTVSPropertyOp29
 70
     1
102
RTVSPropertyOp30
 70
     1
102
RTVSPropertyOp31
 70
     1
102
RTVSPropertyOp32
 70
     1
  0
ENDSEC
  0
EOF
