  0
SECTION
  2
HEADER
  9
$ACADVER
  1
AC1021
  9
$ACADMAINTVER
 70
    25
  9
$DWGCODEPAGE
  3
ANSI_1252
  9
$INSBASE
 10
0.0
 20
0.0
 30
0.0
  9
$EXTMIN
 10
1.000000000000000E+20
 20
1.000000000000000E+20
 30
1.000000000000000E+20
  9
$EXTMAX
 10
-1.000000000000000E+20
 20
-1.000000000000000E+20
 30
-1.000000000000000E+20
  9
$LIMMIN
 10
0.0
 20
0.0
  9
$LIMMAX
 10
12.0
 20
9.0
  9
$ORTHOMODE
 70
     0
  9
$REGENMODE
 70
     1
  9
$FILLMODE
 70
     1
  9
$QTEXTMODE
 70
     0
  9
$MIRRTEXT
 70
     1
  9
$LTSCALE
 40
1.0
  9
$ATTMODE
 70
     1
  9
$TEXTSIZE
 40
0.2
  9
$TRACEWID
 40
0.05
  9
$TEXTSTYLE
  7
Standard
  9
$CLAYER
  8
0
  9
$CELTYPE
  6
ByLayer
  9
$CECOLOR
 62
   256
  9
$CELTSCALE
 40
1.0
  9
$DISPSILH
 70
     0
  9
$DIMSCALE
 40
1.0
  9
$DIMASZ
 40
0.18
  9
$DIMEXO
 40
0.0625
  9
$DIMDLI
 40
0.38
  9
$DIMRND
 40
0.0
  9
$DIMDLE
 40
0.0
  9
$DIMEXE
 40
0.18
  9
$DIMTP
 40
0.0
  9
$DIMTM
 40
0.0
  9
$DIMTXT
 40
0.18
  9
$DIMCEN
 40
0.09
  9
$DIMTSZ
 40
0.0
  9
$DIMTOL
 70
     0
  9
$DIMLIM
 70
     0
  9
$DIMTIH
 70
     1
  9
$DIMTOH
 70
     1
  9
$DIMSE1
 70
     0
  9
$DIMSE2
 70
     0
  9
$DIMTAD
 70
     0
  9
$DIMZIN
 70
     0
  9
$DIMBLK
  1

  9
$DIMASO
 70
     1
  9
$DIMSHO
 70
     1
  9
$DIMPOST
  1

  9
$DIMAPOST
  1

  9
$DIMALT
 70
     0
  9
$DIMALTD
 70
     2
  9
$DIMALTF
 40
25.4
  9
$DIMLFAC
 40
1.0
  9
$DIMTOFL
 70
     0
  9
$DIMTVP
 40
0.0
  9
$DIMTIX
 70
     0
  9
$DIMSOXD
 70
     0
  9
$DIMSAH
 70
     0
  9
$DIMBLK1
  1

  9
$DIMBLK2
  1

  9
$DIMSTYLE
  2
Standard
  9
$DIMCLRD
 70
     0
  9
$DIMCLRE
 70
     0
  9
$DIMCLRT
 70
     0
  9
$DIMTFAC
 40
1.0
  9
$DIMGAP
 40
0.09
  9
$DIMJUST
 70
     0
  9
$DIMSD1
 70
     0
  9
$DIMSD2
 70
     0
  9
$DIMTOLJ
 70
     1
  9
$DIMTZIN
 70
     0
  9
$DIMALTZ
 70
     0
  9
$DIMALTTZ
 70
     0
  9
$DIMUPT
 70
     0
  9
$DIMDEC
 70
     4
  9
$DIMTDEC
 70
     4
  9
$DIMALTU
 70
     2
  9
$DIMALTTD
 70
     2
  9
$DIMTXSTY
  7
Standard
  9
$DIMAUNIT
 70
     0
  9
$DIMADEC
 70
     0
  9
$DIMALTRND
 40
0.0
  9
$DIMAZIN
 70
     0
  9
$DIMDSEP
 70
    46
  9
$DIMATFIT
 70
     3
  9
$DIMFRAC
 70
     0
  9
$DIMLDRBLK
  1

  9
$DIMLUNIT
 70
     2
  9
$DIMLWD
 70
    -2
  9
$DIMLWE
 70
    -2
  9
$DIMTMOVE
 70
     0
  9
$DIMFXL
 40
1.0
  9
$DIMFXLON
 70
     0
  9
$DIMJOGANG
 40
0.7853981633974483
  9
$DIMTFILL
 70
     0
  9
$DIMTFILLCLR
 70
     0
  9
$DIMARCSYM
 70
     0
  9
$DIMLTYPE
  6

  9
$DIMLTEX1
  6

  9
$DIMLTEX2
  6

  9
$LUNITS
 70
     2
  9
$LUPREC
 70
     4
  9
$SKETCHINC
 40
0.1
  9
$FILLETRAD
 40
0.5
  9
$AUNITS
 70
     0
  9
$AUPREC
 70
     0
  9
$MENU
  1
.
  9
$ELEVATION
 40
0.0
  9
$PELEVATION
 40
0.0
  9
$THICKNESS
 40
0.0
  9
$LIMCHECK
 70
     0
  9
$CHAMFERA
 40
0.5
  9
$CHAMFERB
 40
0.5
  9
$CHAMFERC
 40
1.0
  9
$CHAMFERD
 40
0.0
  9
$SKPOLY
 70
     0
  9
$TDCREATE
 40
2458551.626611262
  9
$TDUCREATE
 40
2458551.334944595
  9
$TDUPDATE
 40
2458551.626611262
  9
$TDUUPDATE
 40
2458551.334944595
  9
$TDINDWG
 40
0.0000000116
  9
$TDUSRTIMER
 40
0.0000000116
  9
$USRTIMER
 70
     1
  9
$ANGBASE
 50
0.0
  9
$ANGDIR
 70
     0
  9
$PDMODE
 70
     0
  9
$PDSIZE
 40
0.0
  9
$PLINEWID
 40
0.0
  9
$SPLFRAME
 70
     0
  9
$SPLINETYPE
 70
     6
  9
$SPLINESEGS
 70
     8
  9
$HANDSEED
  5
67
  9
$SURFTAB1
 70
     6
  9
$SURFTAB2
 70
     6
  9
$SURFTYPE
 70
     6
  9
$SURFU
 70
     6
  9
$SURFV
 70
     6
  9
$UCSBASE
  2

  9
$UCSNAME
  2

  9
$UCSORG
 10
0.0
 20
0.0
 30
0.0
  9
$UCSXDIR
 10
1.0
 20
0.0
 30
0.0
  9
$UCSYDIR
 10
0.0
 20
1.0
 30
0.0
  9
$UCSORTHOREF
  2

  9
$UCSORTHOVIEW
 70
     0
  9
$UCSORGTOP
 10
0.0
 20
0.0
 30
0.0
  9
$UCSORGBOTTOM
 10
0.0
 20
0.0
 30
0.0
  9
$UCSORGLEFT
 10
0.0
 20
0.0
 30
0.0
  9
$UCSORGRIGHT
 10
0.0
 20
0.0
 30
0.0
  9
$UCSORGFRONT
 10
0.0
 20
0.0
 30
0.0
  9
$UCSORGBACK
 10
0.0
 20
0.0
 30
0.0
  9
$PUCSBASE
  2

  9
$PUCSNAME
  2

  9
$PUCSORG
 10
0.0
 20
0.0
 30
0.0
  9
$PUCSXDIR
 10
1.0
 20
0.0
 30
0.0
  9
$PUCSYDIR
 10
0.0
 20
1.0
 30
0.0
  9
$PUCSORTHOREF
  2

  9
$PUCSORTHOVIEW
 70
     0
  9
$PUCSORGTOP
 10
0.0
 20
0.0
 30
0.0
  9
$PUCSORGBOTTOM
 10
0.0
 20
0.0
 30
0.0
  9
$PUCSORGLEFT
 10
0.0
 20
0.0
 30
0.0
  9
$PUCSORGRIGHT
 10
0.0
 20
0.0
 30
0.0
  9
$PUCSORGFRONT
 10
0.0
 20
0.0
 30
0.0
  9
$PUCSORGBACK
 10
0.0
 20
0.0
 30
0.0
  9
$USERI1
 70
     0
  9
$USERI2
 70
     0
  9
$USERI3
 70
     0
  9
$USERI4
 70
     0
  9
$USERI5
 70
     0
  9
$USERR1
 40
0.0
  9
$USERR2
 40
0.0
  9
$USERR3
 40
0.0
  9
$USERR4
 40
0.0
  9
$USERR5
 40
0.0
  9
$WORLDVIEW
 70
     1
  9
$SHADEDGE
 70
     3
  9
$SHADEDIF
 70
    70
  9
$TILEMODE
 70
     1
  9
$MAXACTVP
 70
    64
  9
$PINSBASE
 10
0.0
 20
0.0
 30
0.0
  9
$PLIMCHECK
 70
     0
  9
$PEXTMIN
 10
1.000000000000000E+20
 20
1.000000000000000E+20
 30
1.000000000000000E+20
  9
$PEXTMAX
 10
-1.000000000000000E+20
 20
-1.000000000000000E+20
 30
-1.000000000000000E+20
  9
$PLIMMIN
 10
0.0
 20
0.0
  9
$PLIMMAX
 10
12.0
 20
9.0
  9
$UNITMODE
 70
     0
  9
$VISRETAIN
 70
     1
  9
$PLINEGEN
 70
     0
  9
$PSLTSCALE
 70
     1
  9
$TREEDEPTH
 70
  3020
  9
$CMLSTYLE
  2
Standard
  9
$CMLJUST
 70
     0
  9
$CMLSCALE
 40
1.0
  9
$PROXYGRAPHICS
 70
     1
  9
$MEASUREMENT
 70
     0
  9
$CELWEIGHT
370
    -1
  9
$ENDCAPS
280
     0
  9
$JOINSTYLE
280
     0
  9
$LWDISPLAY
290
     1
  9
$INSUNITS
 70
     1
  9
$HYPERLINKBASE
  1

  9
$STYLESHEET
  1

  9
$XEDIT
290
     1
  9
$CEPSNTYPE
380
     0
  9
$PSTYLEMODE
290
     1
  9
$FINGERPRINTGUID
  2
{F0FBDA15-0F60-4B38-9DCE-D5C97DA389EC}
  9
$VERSIONGUID
  2
{FAEB1C32-E019-11D5-929B-00C0DF256EC4}
  9
$EXTNAMES
290
     1
  9
$PSVPSCALE
 40
0.0
  9
$OLESTARTUP
290
     0
  9
$SORTENTS
280
   127
  9
$INDEXCTL
280
     0
  9
$HIDETEXT
280
     1
  9
$XCLIPFRAME
290
     0
  9
$HALOGAP
280
     0
  9
$OBSCOLOR
 70
   257
  9
$OBSLTYPE
280
     0
  9
$INTERSECTIONDISPLAY
280
     0
  9
$INTERSECTIONCOLOR
 70
   257
  9
$DIMASSOC
280
     2
  9
$PROJECTNAME
  1

  9
$CAMERADISPLAY
290
     0
  9
$LENSLENGTH
 40
50.0
  9
$CAMERAHEIGHT
 40
0.0
  9
$STEPSPERSEC
 40
2.0
  9
$STEPSIZE
 40
6.0
  9
$3DDWFPREC
 40
2.0
  9
$PSOLWIDTH
 40
0.25
  9
$PSOLHEIGHT
 40
4.0
  9
$LOFTANG1
 40
1.570796326794897
  9
$LOFTANG2
 40
1.570796326794897
  9
$LOFTMAG1
 40
0.0
  9
$LOFTMAG2
 40
0.0
  9
$LOFTPARAM
 70
     7
  9
$LOFTNORMALS
280
     1
  9
$LATITUDE
 40
37.795
  9
$LONGITUDE
 40
-122.394
  9
$NORTHDIRECTION
 40
0.0
  9
$TIMEZONE
 70
 -8000
  9
$LIGHTGLYPHDISPLAY
280
     1
  9
$TILEMODELIGHTSYNCH
280
     1
  9
$CMATERIAL
347
3C
  9
$SOLIDHIST
280
     1
  9
$SHOWHIST
280
     1
  9
$DWFFRAME
280
     2
  9
$DGNFRAME
280
     2
  9
$REALWORLDSCALE
290
     1
  9
$INTERFERECOLOR
 62
   256
  9
$CSHADOW
280
     0
  9
$SHADOWPLANELOCATION
 40
0.0
  0
ENDSEC
  0
SECTION
  2
CLASSES
  0
CLASS
  1
ACDBDICTIONARYWDFLT
  2
AcDbDictionaryWithDefault
  3
ObjectDBX Classes
 90
        0
 91
        4
280
     0
281
     0
  0
CLASS
  1
VISUALSTYLE
  2
AcDbVisualStyle
  3
ObjectDBX Classes
 90
     4095
 91
        4
280
     0
281
     0
  0
CLASS
  1
MATERIAL
  2
AcDbMaterial
  3
ObjectDBX Classes
 90
     1153
 91
        4
280
     0
281
     0
  0
CLASS
  1
SUN
  2
AcDbSun
  3
SCENEOE
 90
     1024
 91
        4
280
     0
281
     0
  0
ENDSEC
  0
SECTION
  2
TABLES
  0
TABLE
  2
VPORT
  5
8
330
0
100
AcDbSymbolTable
 70
     1
  0
VPORT
  5
29
330
8
100
AcDbSymbolTableRecord
100
AcDbViewportTableRecord
  2
*Active
 70
     0
 10
0.0
 20
0.0
 11
1.0
 21
1.0
 12
0.0
 22
0.0
 13
0.0
 23
0.0
 14
0.5
 24
0.5
 15
0.5
 25
0.5
 16
0.0
 26
0.0
 36
1.0
 17
39.99961911841359
 27
-39.99962012888904
 37
0.0
 40
79.99924025777808
 41
0.9999999747378738
 42
50.0
 43
0.0
 44
0.0
 50
0.0
 51
0.0
 71
     0
 72
   100
 73
     1
 74
     3
 75
     0
 76
     0
 77
     0
 78
     0
281
     0
 65
     1
110
0.0
120
0.0
130
0.0
111
1.0
121
0.0
131
0.0
112
0.0
122
1.0
132
0.0
 79
     0
146
0.0
 60
     3
 61
     5
292
     1
282
     1
141
0.0
142
0.0
 63
   250
361
3F
  0
ENDTAB
  0
TABLE
  2
LTYPE
  5
5
330
0
100
AcDbSymbolTable
 70
     1
  0
LTYPE
  5
14
330
5
100
AcDbSymbolTableRecord
100
AcDbLinetypeTableRecord
  2
ByBlock
 70
     0
  3

 72
    65
 73
     0
 40
0.0
  0
LTYPE
  5
15
330
5
100
AcDbSymbolTableRecord
100
AcDbLinetypeTableRecord
  2
ByLayer
 70
     0
  3

 72
    65
 73
     0
 40
0.0
  0
LTYPE
  5
16
330
5
100
AcDbSymbolTableRecord
100
AcDbLinetypeTableRecord
  2
Continuous
 70
     0
  3
Solid line
 72
    65
 73
     0
 40
0.0
  0
ENDTAB
  0
TABLE
  2
LAYER
  5
2
330
0
100
AcDbSymbolTable
 70
     2
  0
LAYER
  5
10
330
2
100
AcDbSymbolTableRecord
100
AcDbLayerTableRecord
  2
0
 70
     0
 62
     7
  6
Continuous
370
    -3
390
F
347
3E
  0
LAYER
  5
40
330
2
100
AcDbSymbolTableRecord
100
AcDbLayerTableRecord
  2
Layer 1
 70
     0
 62
     7
  6
Continuous
370
    -3
390
F
347
3E
  0
ENDTAB
  0
TABLE
  2
STYLE
  5
3
330
0
100
AcDbSymbolTable
 70
     1
  0
STYLE
  5
11
330
3
100
AcDbSymbolTableRecord
100
AcDbTextStyleTableRecord
  2
Standard
 70
     0
 40
0.0
 41
1.0
 50
0.0
 71
     0
 42
0.2
  3
txt
  4

  0
ENDTAB
  0
TABLE
  2
VIEW
  5
6
330
0
100
AcDbSymbolTable
 70
     0
  0
ENDTAB
  0
TABLE
  2
UCS
  5
7
330
0
100
AcDbSymbolTable
 70
     0
  0
ENDTAB
  0
TABLE
  2
APPID
  5
9
330
0
100
AcDbSymbolTable
 70
     1
  0
APPID
  5
12
330
9
100
AcDbSymbolTableRecord
100
AcDbRegAppTableRecord
  2
ACAD
 70
     0
  0
ENDTAB
  0
TABLE
  2
DIMSTYLE
  5
A
330
0
100
AcDbSymbolTable
 70
     1
100
AcDbDimStyleTable
  0
DIMSTYLE
105
27
330
A
100
AcDbSymbolTableRecord
100
AcDbDimStyleTableRecord
  2
Standard
 70
     0
178
     0
340
11
  0
ENDTAB
  0
TABLE
  2
BLOCK_RECORD
  5
1
330
0
100
AcDbSymbolTable
 70
     1
  0
BLOCK_RECORD
  5
1F
330
1
100
AcDbSymbolTableRecord
100
AcDbBlockTableRecord
  2
*Model_Space
340
22
 70
     0
280
     1
281
     0
  0
BLOCK_RECORD
  5
1B
330
1
100
AcDbSymbolTableRecord
100
AcDbBlockTableRecord
  2
*Paper_Space
340
1E
 70
     0
280
     1
281
     0
  0
BLOCK_RECORD
  5
23
330
1
100
AcDbSymbolTableRecord
100
AcDbBlockTableRecord
  2
*Paper_Space0
340
26
 70
     0
280
     1
281
     0
  0
ENDTAB
  0
ENDSEC
  0
SECTION
  2
BLOCKS
  0
BLOCK
  5
20
330
1F
100
AcDbEntity
  8
0
100
AcDbBlockBegin
  2
*Model_Space
 70
     0
 10
0.0
 20
0.0
 30
0.0
  3
*Model_Space
  1

  0
ENDBLK
  5
21
330
1F
100
AcDbEntity
  8
0
100
AcDbBlockEnd
  0
BLOCK
  5
1C
330
1B
100
AcDbEntity
 67
     1
  8
0
100
AcDbBlockBegin
  2
*Paper_Space
 70
     0
 10
0.0
 20
0.0
 30
0.0
  3
*Paper_Space
  1

  0
ENDBLK
  5
1D
330
1B
100
AcDbEntity
 67
     1
  8
0
100
AcDbBlockEnd
  0
BLOCK
  5
24
330
23
100
AcDbEntity
  8
0
100
AcDbBlockBegin
  2
*Paper_Space0
 70
     0
 10
0.0
 20
0.0
 30
0.0
  3
*Paper_Space0
  1

  0
ENDBLK
  5
25
330
23
100
AcDbEntity
  8
0
100
AcDbBlockEnd
  0
ENDSEC
  0
SECTION
  2
ENTITIES
  0
SPLINE
  5
41
330
1F
100
AcDbEntity
  8
Layer 1
370
     0
100
AcDbSpline
210
0.0
220
0.0
230
1.0
 70
    11
 71
     3
 72
   440
 73
   436
 74
     0
 42
0.0000000001
 43
0.0000000001
 12
1.0
 22
0.0
 32
0.0
 13
1.0
 23
0.0
 33
0.0
 40
0.0
 40
0.0
 40
0.0
 40
0.0
 40
1.0
 40
1.0
 40
1.0
 40
2.0
 40
2.0
 40
2.0
 40
3.0
 40
3.0
 40
3.0
 40
4.0
 40
4.0
 40
4.0
 40
5.0
 40
5.0
 40
5.0
 40
6.0
 40
6.0
 40
6.0
 40
7.0
 40
7.0
 40
7.0
 40
8.0
 40
8.0
 40
8.0
 40
9.0
 40
9.0
 40
9.0
 40
10.0
 40
10.0
 40
10.0
 40
11.0
 40
11.0
 40
11.0
 40
12.0
 40
12.0
 40
12.0
 40
13.0
 40
13.0
 40
13.0
 40
14.0
 40
14.0
 40
14.0
 40
15.0
 40
15.0
 40
15.0
 40
16.0
 40
16.0
 40
16.0
 40
17.0
 40
17.0
 40
17.0
 40
18.0
 40
18.0
 40
18.0
 40
19.0
 40
19.0
 40
19.0
 40
20.0
 40
20.0
 40
20.0
 40
21.0
 40
21.0
 40
21.0
 40
22.0
 40
22.0
 40
22.0
 40
23.0
 40
23.0
 40
23.0
 40
24.0
 40
24.0
 40
24.0
 40
25.0
 40
25.0
 40
25.0
 40
26.0
 40
26.0
 40
26.0
 40
27.0
 40
27.0
 40
27.0
 40
28.0
 40
28.0
 40
28.0
 40
29.0
 40
29.0
 40
29.0
 40
30.0
 40
30.0
 40
30.0
 40
31.0
 40
31.0
 40
31.0
 40
32.0
 40
32.0
 40
32.0
 40
33.0
 40
33.0
 40
33.0
 40
34.0
 40
34.0
 40
34.0
 40
35.0
 40
35.0
 40
35.0
 40
36.0
 40
36.0
 40
36.0
 40
37.0
 40
37.0
 40
37.0
 40
38.0
 40
38.0
 40
38.0
 40
39.0
 40
39.0
 40
39.0
 40
40.0
 40
40.0
 40
40.0
 40
41.0
 40
41.0
 40
41.0
 40
42.0
 40
42.0
 40
42.0
 40
43.0
 40
43.0
 40
43.0
 40
44.0
 40
44.0
 40
44.0
 40
45.0
 40
45.0
 40
45.0
 40
46.0
 40
46.0
 40
46.0
 40
47.0
 40
47.0
 40
47.0
 40
48.0
 40
48.0
 40
48.0
 40
49.0
 40
49.0
 40
49.0
 40
50.0
 40
50.0
 40
50.0
 40
51.0
 40
51.0
 40
51.0
 40
52.0
 40
52.0
 40
52.0
 40
53.0
 40
53.0
 40
53.0
 40
54.0
 40
54.0
 40
54.0
 40
55.0
 40
55.0
 40
55.0
 40
56.0
 40
56.0
 40
56.0
 40
57.0
 40
57.0
 40
57.0
 40
58.0
 40
58.0
 40
58.0
 40
59.0
 40
59.0
 40
59.0
 40
60.0
 40
60.0
 40
60.0
 40
61.0
 40
61.0
 40
61.0
 40
62.0
 40
62.0
 40
62.0
 40
63.0
 40
63.0
 40
63.0
 40
64.0
 40
64.0
 40
64.0
 40
65.0
 40
65.0
 40
65.0
 40
66.0
 40
66.0
 40
66.0
 40
67.0
 40
67.0
 40
67.0
 40
68.0
 40
68.0
 40
68.0
 40
69.0
 40
69.0
 40
69.0
 40
70.0
 40
70.0
 40
70.0
 40
71.0
 40
71.0
 40
71.0
 40
72.0
 40
72.0
 40
72.0
 40
73.0
 40
73.0
 40
73.0
 40
74.0
 40
74.0
 40
74.0
 40
75.0
 40
75.0
 40
75.0
 40
76.0
 40
76.0
 40
76.0
 40
77.0
 40
77.0
 40
77.0
 40
78.0
 40
78.0
 40
78.0
 40
79.0
 40
79.0
 40
79.0
 40
80.0
 40
80.0
 40
80.0
 40
81.0
 40
81.0
 40
81.0
 40
82.0
 40
82.0
 40
82.0
 40
83.0
 40
83.0
 40
83.0
 40
84.0
 40
84.0
 40
84.0
 40
85.0
 40
85.0
 40
85.0
 40
86.0
 40
86.0
 40
86.0
 40
87.0
 40
87.0
 40
87.0
 40
88.0
 40
88.0
 40
88.0
 40
89.0
 40
89.0
 40
89.0
 40
90.0
 40
90.0
 40
90.0
 40
91.0
 40
91.0
 40
91.0
 40
92.0
 40
92.0
 40
92.0
 40
93.0
 40
93.0
 40
93.0
 40
94.0
 40
94.0
 40
94.0
 40
95.0
 40
95.0
 40
95.0
 40
96.0
 40
96.0
 40
96.0
 40
97.0
 40
97.0
 40
97.0
 40
98.0
 40
98.0
 40
98.0
 40
99.0
 40
99.0
 40
99.0
 40
100.0
 40
100.0
 40
100.0
 40
101.0
 40
101.0
 40
101.0
 40
102.0
 40
102.0
 40
102.0
 40
103.0
 40
103.0
 40
103.0
 40
104.0
 40
104.0
 40
104.0
 40
105.0
 40
105.0
 40
105.0
 40
106.0
 40
106.0
 40
106.0
 40
107.0
 40
107.0
 40
107.0
 40
108.0
 40
108.0
 40
108.0
 40
109.0
 40
109.0
 40
109.0
 40
110.0
 40
110.0
 40
110.0
 40
111.0
 40
111.0
 40
111.0
 40
112.0
 40
112.0
 40
112.0
 40
113.0
 40
113.0
 40
113.0
 40
114.0
 40
114.0
 40
114.0
 40
115.0
 40
115.0
 40
115.0
 40
116.0
 40
116.0
 40
116.0
 40
117.0
 40
117.0
 40
117.0
 40
118.0
 40
118.0
 40
118.0
 40
119.0
 40
119.0
 40
119.0
 40
120.0
 40
120.0
 40
120.0
 40
121.0
 40
121.0
 40
121.0
 40
122.0
 40
122.0
 40
122.0
 40
123.0
 40
123.0
 40
123.0
 40
124.0
 40
124.0
 40
124.0
 40
125.0
 40
125.0
 40
125.0
 40
126.0
 40
126.0
 40
126.0
 40
127.0
 40
127.0
 40
127.0
 40
128.0
 40
128.0
 40
128.0
 40
129.0
 40
129.0
 40
129.0
 40
130.0
 40
130.0
 40
130.0
 40
131.0
 40
131.0
 40
131.0
 40
132.0
 40
132.0
 40
132.0
 40
133.0
 40
133.0
 40
133.0
 40
134.0
 40
134.0
 40
134.0
 40
135.0
 40
135.0
 40
135.0
 40
136.0
 40
136.0
 40
136.0
 40
137.0
 40
137.0
 40
137.0
 40
138.0
 40
138.0
 40
138.0
 40
139.0
 40
139.0
 40
139.0
 40
140.0
 40
140.0
 40
140.0
 40
141.0
 40
141.0
 40
141.0
 40
142.0
 40
142.0
 40
142.0
 40
143.0
 40
143.0
 40
143.0
 40
144.0
 40
144.0
 40
144.0
 40
145.0
 40
145.0
 40
145.0
 40
145.0
 10
58.20903887433678
 20
-34.85335082462009
 30
0.0
 10
57.83488130228703
 20
-34.55602971358319
 30
0.0
 10
57.46280658955722
 20
-34.25666249143572
 30
0.0
 10
57.09041437683552
 20
-33.95969415817689
 30
0.0
 10
57.09041437683552
 20
-33.95969415817689
 30
0.0
 10
55.78954635446787
 20
-32.79937276957778
 30
0.0
 10
55.78954635446787
 20
-32.79937276957778
 30
0.0
 10
54.89931165495743
 20
-32.44899388077653
 30
0.0
 10
54.00703084438808
 20
-32.10104915864144
 30
0.0
 10
53.11887753371342
 20
-31.75172860317315
 30
0.0
 10
52.1594278359688
 20
-31.25632276996361
 30
0.0
 10
51.20100119375363
 20
-30.76193999230952
 30
0.0
 10
50.24084720966232
 20
-30.26963860354384
 30
0.0
 10
49.89290122712605
 20
-30.12323582580268
 30
0.0
 10
49.4712259601061
 20
-30.1632055480149
 30
0.0
 10
49.0908962475869
 20
-30.03708749249085
 30
0.0
 10
48.80564014375327
 20
-29.90479582585725
 30
0.0
 10
48.52073681768843
 20
-29.77320971477886
 30
0.0
 10
48.23615099161549
 20
-29.64127082592303
 30
0.0
 10
48.23615099161549
 20
-29.64127082592303
 30
0.0
 10
47.3686704581912
 20
-29.34599582599669
 30
0.0
 10
47.3686704581912
 20
-29.34599582599669
 30
0.0
 10
47.1192565756654
 20
-29.20442610381003
 30
0.0
 10
47.03589518890323
 20
-28.82268527057226
 30
0.0
 10
46.83160276606995
 20
-28.61634554840136
 30
0.0
 10
46.5807777661329
 20
-28.36485027068662
 30
0.0
 10
46.20976020997969
 20
-28.45614915955255
 30
0.0
 10
45.98514660459895
 20
-28.19915054850562
 30
0.0
 10
45.9079588287904
 20
-28.2098044373919
 30
0.0
 10
45.83355799735519
 20
-28.22084638183378
 30
0.0
 10
45.75672299931541
 20
-28.23153554849758
 30
0.0
 10
45.74088327749729
 20
-27.50047415979152
 30
0.0
 10
45.79083660955621
 20
-26.68329971555148
 30
0.0
 10
45.87592776630861
 20
-26.23061527122026
 30
0.0
 10
47.85546850132751
 20
-25.97982554906072
 30
0.0
 10
49.56629956879168
 20
-25.84305360465039
 30
0.0
 10
51.03046842032651
 20
-25.09788110483676
 30
0.0
 10
51.3867034112382
 20
-24.92699554932383
 30
0.0
 10
51.74223284661233
 20
-24.7561099938109
 30
0.0
 10
52.09949089305348
 20
-24.5845541605206
 30
0.0
 10
52.46189949491878
 20
-24.10050777175255
 30
0.0
 10
52.23830894506749
 20
-23.21718749419571
 30
0.0
 10
52.07779506027365
 20
-22.68145916099618
 30
0.0
 10
51.74636034650703
 20
-21.5862958279369
 30
0.0
 10
51.20272980482065
 20
-20.74361555036965
 30
0.0
 10
50.57916109846625
 20
-19.94467971723614
 30
0.0
 10
50.25326371793243
 20
-19.59535916176785
 30
0.0
 10
49.92528622629983
 20
-19.24603860629956
 30
0.0
 10
49.59730873466724
 20
-18.89668277305375
 30
0.0
 10
49.5618192911282
 20
-18.66794166199981
 30
0.0
 10
49.52495401429094
 20
-18.44089388427868
 30
0.0
 10
49.48949984852878
 20
-18.21317582878018
 30
0.0
 10
49.33515957468855
 20
-17.62855249559281
 30
0.0
 10
48.94791665442969
 20
-16.66772694027737
 30
0.0
 10
48.54758320589242
 20
-16.3521319403564
 30
0.0
 10
47.23468546160944
 20
-15.31415388506044
 30
0.0
 10
45.27683940044715
 20
-15.02854499624278
 30
0.0
 10
44.23021943338703
 20
-13.7224911076805
 30
0.0
 10
44.13648526287334
 20
-13.62949888548145
 30
0.0
 10
44.04589193185124
 20
-13.53714166328224
 30
0.0
 10
43.95184137869511
 20
-13.44379666330574
 30
0.0
 10
43.61144721131922
 20
-12.65519721905828
 30
0.0
 10
44.28705081458765
 20
-11.27167333051557
 30
0.0
 10
44.37972553444554
 20
-10.53648444181021
 30
0.0
 10
44.51579191986309
 20
-10.59606860846219
 30
0.0
 10
44.68530276660626
 20
-10.68669721955043
 30
0.0
 10
44.84997830022617
 20
-10.64362305289468
 30
0.0
 10
45.12316940436759
 20
-10.50476971959594
 30
0.0
 10
45.4008407861725
 20
-9.043705275516787
 30
0.0
 10
45.12764968203108
 20
-8.676463608941871
 30
0.0
 10
45.06975885017466
 20
-8.622735553399838
 30
0.0
 10
45.06079829484771
 20
-8.645454442283121
 30
0.0
 10
44.95746968637273
 20
-8.655120553391795
 30
0.0
 10
45.07840190550971
 20
-8.323015553474926
 30
0.0
 10
44.97916665542188
 20
-7.899258886914049
 30
0.0
 10
45.04291246197068
 20
-7.478959442574784
 30
0.0
 10
45.35536773177706
 20
-5.405684443092959
 30
0.0
 10
43.71343416255516
 20
-3.96804444345229
 30
0.0
 10
41.87824998953013
 20
-3.972524721229026
 30
0.0
 10
41.42140276742273
 20
-4.064881943428237
 30
0.0
 10
40.96561387864735
 20
-4.158226943404731
 30
0.0
 10
40.50844813321006
 20
-4.249878610048739
 30
0.0
 10
39.70679593143969
 20
-4.513086109982722
 30
0.0
 10
38.96885539471056
 20
-5.264114720906292
 30
0.0
 10
38.77800262180185
 20
-6.131242498467157
 30
0.0
 10
38.70081484599329
 20
-6.475729998380951
 30
0.0
 10
38.67601456884822
 20
-6.957024720482914
 30
0.0
 10
38.73457567846531
 20
-7.285672498178491
 30
0.0
 10
38.7621638791985
 20
-7.506864164790003
 30
0.0
 10
38.79073887919107
 20
-7.729749164734321
 30
0.0
 10
38.8200194347395
 20
-7.949212220234867
 30
0.0
 10
38.7790256773313
 20
-8.120768053525483
 30
0.0
 10
38.60919845944173
 20
-8.123872497969012
 30
0.0
 10
38.54234707225837
 20
-8.24857944238234
 30
0.0
 10
38.28534846770383
 20
-8.72331249781916
 30
0.0
 10
38.37146152106246
 20
-9.75684555311622
 30
0.0
 10
38.56231429397118
 20
-10.21573888633482
 30
0.0
 10
38.85688373090053
 20
-10.29705416409248
 30
0.0
 10
38.9240526180758
 20
-10.27638138631976
 30
0.0
 10
39.22793538810088
 20
-10.21573888633482
 30
0.0
 10
39.4311706606937
 20
-11.04670694168284
 30
0.0
 10
40.2607638788237
 20
-13.61397666326315
 30
0.0
 10
39.82356537290509
 20
-14.29991777420289
 30
0.0
 10
39.32815955221061
 20
-15.08400166289578
 30
0.0
 10
38.340134855195
 20
-15.57492721832858
 30
0.0
 10
37.27936738225743
 20
-15.79576610716233
 30
0.0
 10
36.39431943534586
 20
-15.98146832933803
 30
0.0
 10
35.56476159266734
 20
-15.88293749602928
 30
0.0
 10
34.86471026906158
 20
-16.18092888484355
 30
0.0
 10
33.50217665829118
 20
-16.7604016624765
 30
0.0
 10
32.58336693629852
 20
-17.89553471774833
 30
0.0
 10
31.46439110324516
 20
-18.72583249531866
 30
0.0
 10
30.76574999230858
 20
-19.08894666189428
 30
0.0
 10
30.0680966591496
 20
-19.45237832847014
 30
0.0
 10
29.36945554821334
 20
-19.81686832837897
 30
0.0
 10
28.30904082625618
 20
-20.35601860602226
 30
0.0
 10
27.28584415984515
 20
-20.87728305033612
 30
0.0
 10
26.28988193787199
 20
-21.46225916130126
 30
0.0
 10
25.83719749354077
 20
-21.72857110567909
 30
0.0
 10
25.33212554922256
 20
-21.90735888341189
 30
0.0
 10
24.98485110486483
 20
-22.27495332776457
 30
0.0
 10
24.72062054937541
 20
-22.55675221658318
 30
0.0
 10
24.40710693834253
 20
-23.34327027194191
 30
0.0
 10
24.66516388272273
 20
-23.8573027718136
 30
0.0
 10
24.92216249376933
 20
-24.30377832725744
 30
0.0
 10
27.06535804878916
 20
-25.54262804916995
 30
0.0
 10
27.65964749308521
 20
-25.76103277133753
 30
0.0
 10
28.02205610410563
 20
-25.83271721576403
 30
0.0
 10
28.38587582623677
 20
-25.90263777130204
 30
0.0
 10
28.74930749281264
 20
-25.97428693795102
 30
0.0
 10
29.5771711037168
 20
-26.2089194378921
 30
0.0
 10
30.22554138133264
 20
-26.82042443773925
 30
0.0
 10
30.97417110336756
 20
-27.15044804876803
 30
0.0
 10
31.22118610330589
 20
-27.26033832651826
 30
0.0
 10
31.68145526985738
 20
-27.45672971535809
 30
0.0
 10
32.00011943644436
 20
-27.4064236042595
 30
0.0
 10
32.24194860305074
 20
-27.38575082648679
 30
0.0
 10
32.48310749187912
 20
-27.36440777093672
 30
0.0
 10
32.726700547374
 20
-27.34267665983104
 30
0.0
 10
33.42809332497635
 20
-27.46360888202283
 30
0.0
 10
34.79270832463516
 20
-27.57180582644026
 30
0.0
 10
34.84301443573374
 20
-27.38575082648679
 30
0.0
 10
34.91501638016015
 20
-26.94340277104193
 30
0.0
 10
34.45647582471931
 20
-27.05364582656992
 30
0.0
 10
35.39937937466437
 20
-27.17249665987363
 30
0.0
 10
35.85654408522335
 20
-27.25208332652031
 30
0.0
 10
36.02192630322632
 20
-26.82215304884989
 30
0.0
 10
35.74009214374984
 20
-26.68019527110762
 30
0.0
 10
35.44210076246335
 20
-26.55996860447103
 30
0.0
 10
34.99425026902908
 20
-26.4721269378264
 30
0.0
 10
34.56153304691505
 20
-26.41423610450755
 30
0.0
 10
34.51743582470385
 20
-26.41321304895211
 30
0.0
 10
32.9396019362094
 20
-26.37945221562727
 30
0.0
 10
32.726700547374
 20
-26.21064804900274
 30
0.0
 10
32.51069471409443
 20
-26.03940971571237
 30
0.0
 10
32.83415665845806
 20
-26.16584527123634
 30
0.0
 10
32.83415665845806
 20
-26.16584527123634
 30
0.0
 10
32.83415665845806
 20
-26.16584527123634
 30
0.0
 10
34.58428721357617
 20
-26.34671443785787
 30
0.0
 10
34.59427082468477
 20
-26.3491133267462
 30
0.0
 10
34.91812082460368
 20
-26.41286027117467
 30
0.0
 10
35.239183880079
 20
-26.5106855489279
 30
0.0
 10
35.4631263174825
 20
-26.53104082670069
 30
0.0
 10
35.85654408522335
 20
-26.6181769377898
 30
0.0
 10
35.85104165770391
 20
-26.24335054899462
 30
0.0
 10
35.67705075646927
 20
-26.08142554903516
 30
0.0
 10
35.27604915784769
 20
-25.63357416025812
 30
0.0
 10
33.32060193611445
 20
-25.43340804919708
 30
0.0
 10
32.51238804742755
 20
-25.35519721588328
 30
0.0
 10
32.50621443631801
 20
-25.34041582699835
 30
0.0
 10
32.49894721409734
 20
-25.3266222158907
 30
0.0
 10
32.4927736029878
 20
-25.31109999367208
 30
0.0
 10
32.92651388065728
 20
-24.8870258271116
 30
0.0
 10
34.34242276919227
 20
-25.29183832701041
 30
0.0
 10
34.97047304681283
 20
-25.07650277150852
 30
0.0
 10
35.00285804680479
 20
-25.01310860485782
 30
0.0
 10
35.01527582457955
 20
-24.95557054931673
 30
0.0
 10
35.01421749124659
 20
-24.84190554934496
 30
0.0
 10
34.7482583246462
 20
-24.47706277165837
 30
0.0
 10
33.76227971378163
 20
-24.35613054946658
 30
0.0
 10
33.15454943615569
 20
-24.37059443835192
 30
0.0
 10
33.15454943615569
 20
-24.37059443835192
 30
0.0
 10
33.15454943615569
 20
-24.3499216605792
 30
0.0
 10
33.15454943615569
 20
-24.3499216605792
 30
0.0
 10
35.00218776902711
 20
-23.3715277719349
 30
0.0
 10
34.41650610250709
 20
-23.13107443866172
 30
0.0
 10
34.41650610250709
 20
-23.13107443866172
 30
0.0
 10
34.03169610260331
 20
-23.14793721643538
 30
0.0
 10
33.9007802693026
 20
-23.45559471635832
 30
0.0
 10
33.58105776938266
 20
-23.55895860522125
 30
0.0
 10
32.8314049917923
 20
-23.79905916071699
 30
0.0
 10
31.8623244364789
 20
-23.77736332738915
 30
0.0
 10
30.95212249226196
 20
-23.94341582734759
 30
0.0
 10
30.59553471457333
 20
-23.99266360511288
 30
0.0
 10
30.23933499244029
 20
-24.04367527176698
 30
0.0
 10
29.88207693697397
 20
-24.09292304953228
 30
0.0
 10
29.12759110382911
 20
-23.99439221622353
 30
0.0
 10
28.58533638174261
 20
-23.43732082747393
 30
0.0
 10
28.00138332633292
 20
-23.19549166086787
 30
0.0
 10
28.00138332633292
 20
-23.19549166086787
 30
0.0
 10
28.00138332633292
 20
-23.17411332753995
 30
0.0
 10
28.00138332633292
 20
-23.17411332753995
 30
0.0
 10
28.54226221508653
 20
-22.89541888316519
 30
0.0
 10
29.08451693717335
 20
-22.61774749434556
 30
0.0
 10
29.62645415925994
 20
-22.33901777219296
 30
0.0
 10
30.76952471452979
 20
-21.75714610567168
 30
0.0
 10
31.92501304757441
 20
-21.15082693915678
 30
0.0
 10
33.15454943615569
 20
-20.67126082816547
 30
0.0
 10
33.77159304711254
 20
-20.43112499489221
 30
0.0
 10
34.32658304697405
 20
-20.16241416162605
 30
0.0
 10
35.09930749122513
 20
-20.41599082822919
 30
0.0
 10
34.50434776915173
 20
-22.40897360550881
 30
0.0
 10
35.33771382068203
 20
-23.24749110529925
 30
0.0
 10
35.97712352659155
 20
-24.73441416048306
 30
0.0
 10
36.18349852132649
 20
-25.27564582701444
 30
0.0
 10
36.38983823828455
 20
-25.8175477713235
 30
0.0
 10
36.59758906631772
 20
-26.36015527118776
 30
0.0
 10
36.7608898954849
 20
-26.88240749327955
 30
0.0
 10
36.79775517232216
 20
-27.37749582648884
 30
0.0
 10
36.90866943521713
 20
-27.92698249301817
 30
0.0
 10
36.90249489187225
 20
-27.93008693746202
 30
0.0
 10
36.89766183644
 20
-27.93456721523844
 30
0.0
 10
36.89007711441128
 20
-27.93594304857164
 30
0.0
 10
36.73608961833983
 20
-27.98691943744759
 30
0.0
 10
36.58072628897015
 20
-28.02170332632787
 30
0.0
 10
36.42843212618882
 20
-28.05754554854112
 30
0.0
 10
36.27892490778085
 20
-28.21153304850255
 30
0.0
 10
36.07738296847817
 20
-28.32869054847345
 30
0.0
 10
35.80623887993719
 20
-28.36555582624182
 30
0.0
 10
35.80623887993719
 20
-28.36555582624182
 30
0.0
 10
32.12930665863442
 20
-28.86438360389513
 30
0.0
 10
32.12930665863442
 20
-28.86438360389513
 30
0.0
 10
32.00837443644231
 20
-28.94051304832052
 30
0.0
 10
31.85163526981479
 20
-29.01149193719149
 30
0.0
 10
31.62285888098333
 20
-29.07590915939765
 30
0.0
 10
31.62285888098333
 20
-29.07590915939765
 30
0.0
 10
29.39563165931791
 20
-28.96566610386965
 30
0.0
 10
29.39563165931791
 20
-28.96566610386965
 30
0.0
 10
28.17191610406809
 20
-28.94051304832052
 30
0.0
 10
26.78698110441433
 20
-29.12896693716231
 30
0.0
 10
25.75069638245118
 20
-29.53377943706112
 30
0.0
 10
25.75069638245118
 20
-29.53377943706112
 30
0.0
 10
25.21398027147438
 20
-29.87484499253114
 30
0.0
 10
25.21398027147438
 20
-29.87484499253114
 30
0.0
 10
24.58420138274284
 20
-30.11046527025015
 30
0.0
 10
23.65470249408639
 20
-30.09257943692137
 30
0.0
 10
23.3374141608323
 20
-30.56660693680266
 30
0.0
 10
23.38669721637543
 20
-30.78056665897167
 30
0.0
 10
23.42525582747693
 20
-30.82431110340511
 30
0.0
 10
23.45457166080287
 20
-31.06063693667931
 30
0.0
 10
23.45457166080287
 20
-31.06063693667931
 30
0.0
 10
23.09900693866968
 20
-31.13334443666125
 30
0.0
 10
23.09900693866968
 20
-31.13334443666125
 30
0.0
 10
23.09900693866968
 20
-31.13334443666125
 30
0.0
 10
23.04182166090636
 20
-31.262531658851
 30
0.0
 10
23.04182166090636
 20
-31.262531658851
 30
0.0
 10
22.988093605364
 20
-31.41718943659011
 30
0.0
 10
23.15414610532244
 20
-31.46682526991101
 30
0.0
 10
23.21133138308608
 20
-31.60564332543191
 30
0.0
 10
23.24819666085478
 20
-31.93259776979468
 30
0.0
 10
23.28541471640091
 20
-32.2595169363796
 30
0.0
 10
23.32055138305864
 20
-32.5874944362975
 30
0.0
 10
23.61060527187519
 20
-32.81764665846217
 30
0.0
 10
24.2038716606158
 20
-32.75460526958922
 30
0.0
 10
24.65274610494797
 20
-32.55235776963978
 30
0.0
 10
24.79057638269126
 20
-32.7707977695852
 30
0.0
 10
24.87185638267107
 20
-33.12562165838535
 30
0.0
 10
24.975220271534
 20
-33.31097110278329
 30
0.0
 10
25.15919388259906
 20
-33.38780610276421
 30
0.0
 10
25.47856360474156
 20
-33.33541860277722
 30
0.0
 10
25.66941638247169
 20
-33.41123054720269
 30
0.0
 10
25.76484277133659
 20
-33.44982443608203
 30
0.0
 10
25.79895638243919
 20
-33.50492832495694
 30
0.0
 10
25.84305360465039
 20
-33.60656360270955
 30
0.0
 10
25.71107943801671
 20
-33.88663388041719
 30
0.0
 10
25.77412082688966
 20
-34.20289915811585
 30
0.0
 10
25.89851027130307
 20
-34.51468415803808
 30
0.0
 10
24.88116971600198
 20
-34.70380832465724
 30
0.0
 10
23.88933499402779
 20
-34.98426665792049
 30
0.0
 10
22.94501943870825
 20
-35.42315749114405
 30
0.0
 10
22.9588130498159
 20
-35.51205749112197
 30
0.0
 10
22.97119554981282
 20
-35.60748387998687
 30
0.0
 10
22.97567582758956
 20
-35.72598193551282
 30
0.0
 10
22.86991304983798
 20
-35.78214415772102
 30
0.0
 10
22.76175138319839
 20
-35.83795360215178
 30
0.0
 10
22.65425999433649
 20
-35.89686749102575
 30
0.0
 10
22.33076277219501
 20
-36.14871554651825
 30
0.0
 10
21.63900082792349
 20
-37.18842221292518
 30
0.0
 10
21.79986749454999
 20
-37.88364137941799
 30
0.0
 10
21.96281555006489
 20
-38.21232443489141
 30
0.0
 10
22.12749221669044
 20
-38.54026665703146
 30
0.0
 10
22.29079304998278
 20
-38.86894971250487
 30
0.0
 10
22.69870999432545
 20
-39.32438582350218
 30
0.0
 10
23.10348721644642
 20
-39.78084499005494
 30
0.0
 10
23.50967554967811
 20
-40.23733943438521
 30
0.0
 10
23.93685416068244
 20
-40.52188998986959
 30
0.0
 10
24.36646693835294
 20
-40.80749887868726
 30
0.0
 10
24.79195221602414
 20
-41.09204943417163
 30
0.0
 10
25.52160249361948
 20
-41.73008332290112
 30
0.0
 10
26.03905693793461
 20
-42.62479832267697
 30
0.0
 10
26.80387915996583
 20
-43.2311174891925
 30
0.0
 10
27.90839110413386
 20
-44.14202498896464
 30
0.0
 10
29.01251499274694
 20
-45.05494332206951
 30
0.0
 10
30.11737971469273
 20
-45.96687387739742
 30
0.0
 10
30.41639415906245
 20
-46.29449859953723
 30
0.0
 10
30.71544388121
 20
-46.62247609945544
 30
0.0
 10
31.01583415891259
 20
-46.95112387715102
 30
0.0
 10
32.19372388084057
 20
-48.59926637673876
 30
0.0
 10
33.08946193617218
 20
-50.41861193184
 30
0.0
 10
34.71520304687688
 20
-51.61167109820851
 30
0.0
 10
35.75699019887429
 20
-52.37751637579454
 30
0.0
 10
36.70095295256957
 20
-53.211236097808
 30
0.0
 10
37.7509959813363
 20
-53.98533637539261
 30
0.0
 10
38.42314443483872
 20
-54.4814124863795
 30
0.0
 10
38.67153429118474
 20
-55.05192470845931
 30
0.0
 10
39.67441093226589
 20
-54.64817054189346
 30
0.0
 10
39.42051677207661
 20
-56.48339109699012
 30
0.0
 10
38.72321623431067
 20
-57.91034192996698
 30
0.0
 10
38.32771707773403
 20
-59.65253498508707
 30
0.0
 10
38.24227430213608
 20
-60.39252165156844
 30
0.0
 10
38.15753708207568
 20
-61.13494248471597
 30
0.0
 10
38.07209430647773
 20
-61.8749644289755
 30
0.0
 10
37.7971745912693
 20
-63.22299887308305
 30
0.0
 10
37.45956626654907
 20
-64.67235109494328
 30
0.0
 10
36.95897461265356
 20
-65.8736652613091
 30
0.0
 10
36.62997499084238
 20
-66.66706248333355
 30
0.0
 10
35.97264324892808
 20
-67.30372053872951
 30
0.0
 10
35.63570520196853
 20
-68.05474914965275
 30
0.0
 10
35.08865360233886
 20
-69.26915137157134
 30
0.0
 10
34.9553036023723
 20
-70.66202387122313
 30
0.0
 10
34.6087347135701
 20
-72.05383803754228
 30
0.0
 10
34.48815526915575
 20
-72.53545025964416
 30
0.0
 10
34.21256526922452
 20
-73.49800442606993
 30
0.0
 10
34.28594304698414
 20
-74.06368359259491
 30
0.0
 10
34.3917058247354
 20
-74.83954775906768
 30
0.0
 10
34.62115249134487
 20
-75.56884525888559
 30
0.0
 10
34.73587582464928
 20
-76.2440972031612
 30
0.0
 10
35.25537638007498
 20
-76.41254859200829
 30
0.0
 10
35.94784297178301
 20
-76.67406275860947
 30
0.0
 10
36.53281906797014
 20
-76.43738414755717
 30
0.0
 10
36.7608898954849
 20
-75.88856775880585
 30
0.0
 10
36.98860794523088
 20
-75.33939859227613
 30
0.0
 10
37.21597321720809
 20
-74.79026470352456
 30
0.0
 10
37.2377043277648
 20
-74.4633102591621
 30
0.0
 10
37.25904738277584
 20
-74.13466248146653
 30
0.0
 10
37.27936738225743
 20
-73.80774331488159
 30
0.0
 10
37.3799805462105
 20
-73.5149024816211
 30
0.0
 10
37.48023904379944
 20
-73.22273192613862
 30
0.0
 10
37.58046320790918
 20
-72.93094942621141
 30
0.0
 10
38.05075125146669
 20
-71.97492164867295
 30
0.0
 10
38.52100401724731
 20
-71.02097526002225
 30
0.0
 10
38.99125678302794
 20
-70.06498276026132
 30
0.0
 10
39.07253678095432
 20
-69.6370985937021
 30
0.0
 10
38.70702373472378
 20
-69.18924720492505
 30
0.0
 10
38.62778984785631
 20
-68.86744331611638
 30
0.0
 10
38.43933596377529
 20
-68.09574192742042
 30
0.0
 10
38.8648222125059
 20
-67.15798803876602
 30
0.0
 10
39.0987481691745
 20
-66.60162220557163
 30
0.0
 10
39.59584732315911
 20
-65.41202026142506
 30
0.0
 10
40.36377498990887
 20
-64.30133470614716
 30
0.0
 10
41.02283339786477
 20
-63.24437720641129
 30
0.0
 10
41.4713550530887
 20
-62.52365220659158
 30
0.0
 10
41.82621421070215
 20
-61.76712026233616
 30
0.0
 10
42.26168308848131
 20
-61.02057192918932
 30
0.0
 10
42.49730336024791
 20
-60.59921415151678
 30
0.0
 10
42.73260613202262
 20
-60.17859720717727
 30
0.0
 10
42.9682616815661
 20
-59.758297762838
 30
0.0
 10
43.8391994371244
 20
-57.43733748564081
 30
0.0
 10
43.48984361270388
 20
-53.85096331987061
 30
0.0
 10
44.05760415377465
 20
-51.2702527649604
 30
0.0
 10
44.11478943009352
 20
-50.93539609837713
 30
0.0
 10
44.1733505397106
 20
-50.60053943179449
 30
0.0
 10
44.23021943338703
 20
-50.26497720965568
 30
0.0
 10
44.48030247632406
 20
-49.68102415424664
 30
0.0
 10
44.72837580332851
 20
-49.09537776550382
 30
0.0
 10
44.97916665542188
 20
-48.51177748787189
 30
0.0
 10
45.62616109970484
 20
-46.45229609949835
 30
0.0
 10
46.02649215909969
 20
-44.31597971114326
 30
0.0
 10
46.66692492053867
 20
-42.18312054500947
 30
0.0
 10
47.0948090762891
 20
-40.76064998980965
 30
0.0
 10
47.57952573058962
 20
-39.45082137902616
 30
0.0
 10
47.75693887694958
 20
-37.82095276832248
 30
0.0
 10
47.79965905830688
 20
-37.80063276832753
 30
0.0
 10
47.84100461280762
 20
-37.77685554611129
 30
0.0
 10
47.88337322283782
 20
-37.75307832389504
 30
0.0
 10
47.79553155841218
 20
-37.47265526840963
 30
0.0
 10
47.71492183824648
 20
-37.19117387959095
 30
0.0
 10
47.63498239584146
 20
-36.9090222129949
 30
0.0
 10
47.8234362799225
 20
-36.87113387967108
 30
0.0
 10
48.01118460846597
 20
-36.84012471301233
 30
0.0
 10
48.19205377051828
 20
-36.84460499078875
 30
0.0
 10
48.19205377051828
 20
-36.84460499078875
 30
0.0
 10
48.6561329253453
 20
-36.85631721300799
 30
0.0
 10
48.6561329253453
 20
-36.85631721300799
 30
0.0
 10
48.6561329253453
 20
-36.85631721300799
 30
0.0
 10
49.02542069370176
 20
-36.70783304637874
 30
0.0
 10
49.02542069370176
 20
-36.70783304637874
 30
0.0
 10
49.1432484684735
 20
-36.74953137970161
 30
0.0
 10
49.26245207654348
 20
-36.78950110191383
 30
0.0
 10
49.38027985131522
 20
-36.83014110190373
 30
0.0
 10
49.38027985131522
 20
-36.83014110190373
 30
0.0
 10
49.78989011864297
 20
-36.7987791574669
 30
0.0
 10
49.78989011864297
 20
-36.7987791574669
 30
0.0
 10
49.98384733591693
 20
-36.87250971300396
 30
0.0
 10
50.51784704451568
 20
-37.70827554612864
 30
0.0
 10
50.6484100967403
 20
-37.92223526829733
 30
0.0
 10
51.13347952880959
 20
-38.14547304601908
 30
0.0
 10
51.87074978777804
 20
-37.33105026844513
 30
0.0
 10
52.45950060609108
 20
-37.4574858239691
 30
0.0
 10
53.45616835844175
 20
-37.67419721280356
 30
0.0
 10
54.05941834305156
 20
-38.9154458236044
 30
0.0
 10
55.18079443064913
 20
-39.05807387912435
 30
0.0
 10
55.27138636768724
 20
-38.74353721253635
 30
0.0
 10
55.53081913884633
 20
-38.62260499034424
 30
0.0
 10
55.55318524938684
 20
-38.22851693488738
 30
0.0
 10
55.71892024515859
 20
-38.1902758237858
 30
0.0
 10
55.8839144076159
 20
-38.15168193490646
 30
0.0
 10
56.04859107008132
 20
-38.11308804602713
 30
0.0
 10
56.097168568842
 20
-37.87916110164125
 30
0.0
 10
56.14712190090091
 20
-37.64629249058834
 30
0.0
 10
56.19742801072861
 20
-37.4120127684247
 30
0.0
 10
56.64217494382662
 20
-37.58081693504922
 30
0.0
 10
57.03629826710502
 20
-37.4289108239762
 30
0.0
 10
57.40872575760361
 20
-37.56462443505325
 30
0.0
 10
57.51036103278845
 20
-37.3358833239993
 30
0.0
 10
57.54997797622219
 20
-37.08816276850578
 30
0.0
 10
57.48866665229419
 20
-36.72642443526272
 30
0.0
 10
57.48866665229419
 20
-36.72642443526272
 30
0.0
 10
57.93514074417364
 20
-36.42155387978339
 30
0.0
 10
57.93514074417364
 20
-36.42155387978339
 30
0.0
 10
58.06122498548488
 20
-36.04397582432244
 30
0.0
 10
57.87209935689307
 20
-35.80281693549374
 30
0.0
 10
57.69775658356316
 20
-35.57989665777158
 30
0.0
 10
57.81660741386435
 20
-35.26708860229422
 30
0.0
 10
58.04778268574435
 20
-35.11930999122017
 30
0.0
 10
58.20903887433678
 20
-34.85335082462009
 30
0.0
  0
SPLINE
  5
42
330
1F
100
AcDbEntity
  8
Layer 1
370
     0
100
AcDbSpline
210
0.0
220
0.0
230
1.0
 70
    11
 71
     3
 72
    17
 73
    13
 74
     0
 42
0.0000000001
 43
0.0000000001
 12
1.0
 22
0.0
 32
0.0
 13
1.0
 23
0.0
 33
0.0
 40
0.0
 40
0.0
 40
0.0
 40
0.0
 40
1.0
 40
1.0
 40
1.0
 40
2.0
 40
2.0
 40
2.0
 40
3.0
 40
3.0
 40
3.0
 40
4.0
 40
4.0
 40
4.0
 40
4.0
 10
47.20092462913743
 20
-20.92825943921239
 30
0.0
 10
47.68426665474549
 20
-21.33928082799858
 30
0.0
 10
47.9360782214932
 20
-22.01139305005283
 30
0.0
 10
48.44217320858164
 20
-22.40449332773207
 30
0.0
 10
48.44940515284159
 20
-22.42446054994959
 30
0.0
 10
48.45663709710153
 20
-22.4458388832775
 30
0.0
 10
48.46386904136147
 20
-22.46753471660534
 30
0.0
 10
47.86442905665446
 20
-22.69662860543704
 30
0.0
 10
47.26534184971622
 20
-22.9246994387133
 30
0.0
 10
46.66692492053867
 20
-23.15241749421179
 30
0.0
 10
46.66692492053867
 20
-22.17056638334619
 30
0.0
 10
46.8271213053406
 20
-21.5025463835134
 30
0.0
 10
47.20092462913743
 20
-20.92825943921239
 30
0.0
  0
SPLINE
  5
43
330
1F
100
AcDbEntity
  8
Layer 1
370
     0
100
AcDbSpline
210
0.0
220
0.0
230
1.0
 70
    11
 71
     3
 72
    56
 73
    52
 74
     0
 42
0.0000000001
 43
0.0000000001
 12
1.0
 22
0.0
 32
0.0
 13
1.0
 23
0.0
 33
0.0
 40
0.0
 40
0.0
 40
0.0
 40
0.0
 40
1.0
 40
1.0
 40
1.0
 40
2.0
 40
2.0
 40
2.0
 40
3.0
 40
3.0
 40
3.0
 40
4.0
 40
4.0
 40
4.0
 40
5.0
 40
5.0
 40
5.0
 40
6.0
 40
6.0
 40
6.0
 40
7.0
 40
7.0
 40
7.0
 40
8.0
 40
8.0
 40
8.0
 40
9.0
 40
9.0
 40
9.0
 40
10.0
 40
10.0
 40
10.0
 40
11.0
 40
11.0
 40
11.0
 40
12.0
 40
12.0
 40
12.0
 40
13.0
 40
13.0
 40
13.0
 40
14.0
 40
14.0
 40
14.0
 40
15.0
 40
15.0
 40
15.0
 40
16.0
 40
16.0
 40
16.0
 40
17.0
 40
17.0
 40
17.0
 40
17.0
 10
39.78225509618123
 20
-51.18516276498154
 30
0.0
 10
39.8835375935973
 20
-51.81321304260243
 30
0.0
 10
39.83598315036607
 20
-52.54459193130809
 30
0.0
 10
39.78225509618123
 20
-53.15059359782338
 30
0.0
 10
39.02706372655888
 20
-52.15357304251725
 30
0.0
 10
38.2719076347134
 20
-51.15623498721088
 30
0.0
 10
37.51572848733847
 20
-50.15783859857186
 30
0.0
 10
36.99308822289436
 20
-48.69779721004751
 30
0.0
 10
37.75963903667135
 20
-47.13199304377287
 30
0.0
 10
36.23274721316415
 20
-46.52327498836933
 30
0.0
 10
36.08013463507464
 20
-46.46227971060695
 30
0.0
 10
35.90028852855178
 20
-46.32138026619764
 30
0.0
 10
35.67705075646927
 20
-46.35203665507895
 30
0.0
 10
35.1444630467693
 20
-46.42474415506057
 30
0.0
 10
34.62182276912223
 20
-46.47917776615813
 30
0.0
 10
34.00858915816443
 20
-46.48020082171325
 30
0.0
 10
33.58105776938266
 20
-45.74603498856366
 30
0.0
 10
33.15454943615569
 20
-45.0119044331916
 30
0.0
 10
32.726700547374
 20
-44.27911443337489
 30
0.0
 10
32.04834415865453
 20
-43.02340193368839
 30
0.0
 10
31.3713988810461
 20
-41.76867721178014
 30
0.0
 10
30.69406554788208
 20
-40.51434054542717
 30
0.0
 10
30.38058721462704
 20
-40.15877582329365
 30
0.0
 10
30.0680966591496
 20
-39.80151776782733
 30
0.0
 10
29.75288971478391
 20
-39.44598832347198
 30
0.0
 10
30.50254249237427
 20
-39.57312943455116
 30
0.0
 10
31.25113693663167
 20
-39.70298693451858
 30
0.0
 10
32.00011943644436
 20
-39.83012804559808
 30
0.0
 10
32.74804360292408
 20
-39.88801887891692
 30
0.0
 10
33.49596776940379
 20
-39.94312276779184
 30
0.0
 10
34.24495026921647
 20
-40.00203665666614
 30
0.0
 10
35.31979271002813
 20
-39.90971471224476
 30
0.0
 10
36.39569434924626
 20
-39.81703999004563
 30
0.0
 10
37.4733245995314
 20
-39.72334221229138
 30
0.0
 10
38.29187485642622
 20
-39.65165776786488
 30
0.0
 10
39.11250650215683
 20
-39.58173721232687
 30
0.0
 10
39.93140953682042
 20
-39.50938249012269
 30
0.0
 10
39.8835375935973
 20
-40.27247610104294
 30
0.0
 10
39.83150287270259
 20
-41.03454665640807
 30
0.0
 10
39.78225509618123
 20
-41.79795776732857
 30
0.0
 10
39.89592009328139
 20
-43.01613471146805
 30
0.0
 10
40.00997314592721
 20
-44.23536998894146
 30
0.0
 10
40.12363814302738
 20
-45.45425248863646
 30
0.0
 10
40.02510832332717
 20
-46.27382582176516
 30
0.0
 10
39.92382481479171
 20
-47.09343443267137
 30
0.0
 10
39.82356537290509
 20
-47.91300776579942
 30
0.0
 10
39.78225509618123
 20
-48.42562915456038
 30
0.0
 10
39.74020398614293
 20
-48.93966165443174
 30
0.0
 10
39.69712982057518
 20
-49.45228304319269
 30
0.0
 10
39.60826510062008
 20
-50.02346554304986
 30
0.0
 10
39.70817176473792
 20
-50.72489359842973
 30
0.0
 10
39.78225509618123
 20
-51.18516276498154
 30
0.0
  0
HATCH
  5
44
330
1F
100
AcDbEntity
  8
Layer 1
 62
   250
100
AcDbHatch
 10
0.0
 20
0.0
 30
0.0
210
0.0
220
0.0
230
1.0
  2
SOLID
 70
     1
 71
     0
 91
        3
 92
        1
 93
        1
 72
     4
 94
        3
 73
     0
 74
     1
 95
      440
 96
      436
 40
0.0
 40
0.0
 40
0.0
 40
0.0
 40
1.0
 40
1.0
 40
1.0
 40
2.0
 40
2.0
 40
2.0
 40
3.0
 40
3.0
 40
3.0
 40
4.0
 40
4.0
 40
4.0
 40
5.0
 40
5.0
 40
5.0
 40
6.0
 40
6.0
 40
6.0
 40
7.0
 40
7.0
 40
7.0
 40
8.0
 40
8.0
 40
8.0
 40
9.0
 40
9.0
 40
9.0
 40
10.0
 40
10.0
 40
10.0
 40
11.0
 40
11.0
 40
11.0
 40
12.0
 40
12.0
 40
12.0
 40
13.0
 40
13.0
 40
13.0
 40
14.0
 40
14.0
 40
14.0
 40
15.0
 40
15.0
 40
15.0
 40
16.0
 40
16.0
 40
16.0
 40
17.0
 40
17.0
 40
17.0
 40
18.0
 40
18.0
 40
18.0
 40
19.0
 40
19.0
 40
19.0
 40
20.0
 40
20.0
 40
20.0
 40
21.0
 40
21.0
 40
21.0
 40
22.0
 40
22.0
 40
22.0
 40
23.0
 40
23.0
 40
23.0
 40
24.0
 40
24.0
 40
24.0
 40
25.0
 40
25.0
 40
25.0
 40
26.0
 40
26.0
 40
26.0
 40
27.0
 40
27.0
 40
27.0
 40
28.0
 40
28.0
 40
28.0
 40
29.0
 40
29.0
 40
29.0
 40
30.0
 40
30.0
 40
30.0
 40
31.0
 40
31.0
 40
31.0
 40
32.0
 40
32.0
 40
32.0
 40
33.0
 40
33.0
 40
33.0
 40
34.0
 40
34.0
 40
34.0
 40
35.0
 40
35.0
 40
35.0
 40
36.0
 40
36.0
 40
36.0
 40
37.0
 40
37.0
 40
37.0
 40
38.0
 40
38.0
 40
38.0
 40
39.0
 40
39.0
 40
39.0
 40
40.0
 40
40.0
 40
40.0
 40
41.0
 40
41.0
 40
41.0
 40
42.0
 40
42.0
 40
42.0
 40
43.0
 40
43.0
 40
43.0
 40
44.0
 40
44.0
 40
44.0
 40
45.0
 40
45.0
 40
45.0
 40
46.0
 40
46.0
 40
46.0
 40
47.0
 40
47.0
 40
47.0
 40
48.0
 40
48.0
 40
48.0
 40
49.0
 40
49.0
 40
49.0
 40
50.0
 40
50.0
 40
50.0
 40
51.0
 40
51.0
 40
51.0
 40
52.0
 40
52.0
 40
52.0
 40
53.0
 40
53.0
 40
53.0
 40
54.0
 40
54.0
 40
54.0
 40
55.0
 40
55.0
 40
55.0
 40
56.0
 40
56.0
 40
56.0
 40
57.0
 40
57.0
 40
57.0
 40
58.0
 40
58.0
 40
58.0
 40
59.0
 40
59.0
 40
59.0
 40
60.0
 40
60.0
 40
60.0
 40
61.0
 40
61.0
 40
61.0
 40
62.0
 40
62.0
 40
62.0
 40
63.0
 40
63.0
 40
63.0
 40
64.0
 40
64.0
 40
64.0
 40
65.0
 40
65.0
 40
65.0
 40
66.0
 40
66.0
 40
66.0
 40
67.0
 40
67.0
 40
67.0
 40
68.0
 40
68.0
 40
68.0
 40
69.0
 40
69.0
 40
69.0
 40
70.0
 40
70.0
 40
70.0
 40
71.0
 40
71.0
 40
71.0
 40
72.0
 40
72.0
 40
72.0
 40
73.0
 40
73.0
 40
73.0
 40
74.0
 40
74.0
 40
74.0
 40
75.0
 40
75.0
 40
75.0
 40
76.0
 40
76.0
 40
76.0
 40
77.0
 40
77.0
 40
77.0
 40
78.0
 40
78.0
 40
78.0
 40
79.0
 40
79.0
 40
79.0
 40
80.0
 40
80.0
 40
80.0
 40
81.0
 40
81.0
 40
81.0
 40
82.0
 40
82.0
 40
82.0
 40
83.0
 40
83.0
 40
83.0
 40
84.0
 40
84.0
 40
84.0
 40
85.0
 40
85.0
 40
85.0
 40
86.0
 40
86.0
 40
86.0
 40
87.0
 40
87.0
 40
87.0
 40
88.0
 40
88.0
 40
88.0
 40
89.0
 40
89.0
 40
89.0
 40
90.0
 40
90.0
 40
90.0
 40
91.0
 40
91.0
 40
91.0
 40
92.0
 40
92.0
 40
92.0
 40
93.0
 40
93.0
 40
93.0
 40
94.0
 40
94.0
 40
94.0
 40
95.0
 40
95.0
 40
95.0
 40
96.0
 40
96.0
 40
96.0
 40
97.0
 40
97.0
 40
97.0
 40
98.0
 40
98.0
 40
98.0
 40
99.0
 40
99.0
 40
99.0
 40
100.0
 40
100.0
 40
100.0
 40
101.0
 40
101.0
 40
101.0
 40
102.0
 40
102.0
 40
102.0
 40
103.0
 40
103.0
 40
103.0
 40
104.0
 40
104.0
 40
104.0
 40
105.0
 40
105.0
 40
105.0
 40
106.0
 40
106.0
 40
106.0
 40
107.0
 40
107.0
 40
107.0
 40
108.0
 40
108.0
 40
108.0
 40
109.0
 40
109.0
 40
109.0
 40
110.0
 40
110.0
 40
110.0
 40
111.0
 40
111.0
 40
111.0
 40
112.0
 40
112.0
 40
112.0
 40
113.0
 40
113.0
 40
113.0
 40
114.0
 40
114.0
 40
114.0
 40
115.0
 40
115.0
 40
115.0
 40
116.0
 40
116.0
 40
116.0
 40
117.0
 40
117.0
 40
117.0
 40
118.0
 40
118.0
 40
118.0
 40
119.0
 40
119.0
 40
119.0
 40
120.0
 40
120.0
 40
120.0
 40
121.0
 40
121.0
 40
121.0
 40
122.0
 40
122.0
 40
122.0
 40
123.0
 40
123.0
 40
123.0
 40
124.0
 40
124.0
 40
124.0
 40
125.0
 40
125.0
 40
125.0
 40
126.0
 40
126.0
 40
126.0
 40
127.0
 40
127.0
 40
127.0
 40
128.0
 40
128.0
 40
128.0
 40
129.0
 40
129.0
 40
129.0
 40
130.0
 40
130.0
 40
130.0
 40
131.0
 40
131.0
 40
131.0
 40
132.0
 40
132.0
 40
132.0
 40
133.0
 40
133.0
 40
133.0
 40
134.0
 40
134.0
 40
134.0
 40
135.0
 40
135.0
 40
135.0
 40
136.0
 40
136.0
 40
136.0
 40
137.0
 40
137.0
 40
137.0
 40
138.0
 40
138.0
 40
138.0
 40
139.0
 40
139.0
 40
139.0
 40
140.0
 40
140.0
 40
140.0
 40
141.0
 40
141.0
 40
141.0
 40
142.0
 40
142.0
 40
142.0
 40
143.0
 40
143.0
 40
143.0
 40
144.0
 40
144.0
 40
144.0
 40
145.0
 40
145.0
 40
145.0
 40
145.0
 10
58.20903887433678
 20
-34.85335082462009
 10
57.83488130228703
 20
-34.55602971358319
 10
57.46280658955722
 20
-34.25666249143572
 10
57.09041437683552
 20
-33.95969415817689
 10
57.09041437683552
 20
-33.95969415817689
 10
55.78954635446787
 20
-32.79937276957778
 10
55.78954635446787
 20
-32.79937276957778
 10
54.89931165495743
 20
-32.44899388077653
 10
54.00703084438808
 20
-32.10104915864144
 10
53.11887753371342
 20
-31.75172860317315
 10
52.1594278359688
 20
-31.25632276996361
 10
51.20100119375363
 20
-30.76193999230952
 10
50.24084720966232
 20
-30.26963860354384
 10
49.89290122712605
 20
-30.12323582580268
 10
49.4712259601061
 20
-30.1632055480149
 10
49.0908962475869
 20
-30.03708749249085
 10
48.80564014375327
 20
-29.90479582585725
 10
48.52073681768843
 20
-29.77320971477886
 10
48.23615099161549
 20
-29.64127082592303
 10
48.23615099161549
 20
-29.64127082592303
 10
47.3686704581912
 20
-29.34599582599669
 10
47.3686704581912
 20
-29.34599582599669
 10
47.1192565756654
 20
-29.20442610381003
 10
47.03589518890323
 20
-28.82268527057226
 10
46.83160276606995
 20
-28.61634554840136
 10
46.5807777661329
 20
-28.36485027068662
 10
46.20976020997969
 20
-28.45614915955255
 10
45.98514660459895
 20
-28.19915054850562
 10
45.9079588287904
 20
-28.2098044373919
 10
45.83355799735519
 20
-28.22084638183378
 10
45.75672299931541
 20
-28.23153554849758
 10
45.74088327749729
 20
-27.50047415979152
 10
45.79083660955621
 20
-26.68329971555148
 10
45.87592776630861
 20
-26.23061527122026
 10
47.85546850132751
 20
-25.97982554906072
 10
49.56629956879168
 20
-25.84305360465039
 10
51.03046842032651
 20
-25.09788110483676
 10
51.3867034112382
 20
-24.92699554932383
 10
51.74223284661233
 20
-24.7561099938109
 10
52.09949089305348
 20
-24.5845541605206
 10
52.46189949491878
 20
-24.10050777175255
 10
52.23830894506749
 20
-23.21718749419571
 10
52.07779506027365
 20
-22.68145916099618
 10
51.74636034650703
 20
-21.5862958279369
 10
51.20272980482065
 20
-20.74361555036965
 10
50.57916109846625
 20
-19.94467971723614
 10
50.25326371793243
 20
-19.59535916176785
 10
49.92528622629983
 20
-19.24603860629956
 10
49.59730873466724
 20
-18.89668277305375
 10
49.5618192911282
 20
-18.66794166199981
 10
49.52495401429094
 20
-18.44089388427868
 10
49.48949984852878
 20
-18.21317582878018
 10
49.33515957468855
 20
-17.62855249559281
 10
48.94791665442969
 20
-16.66772694027737
 10
48.54758320589242
 20
-16.3521319403564
 10
47.23468546160944
 20
-15.31415388506044
 10
45.27683940044715
 20
-15.02854499624278
 10
44.23021943338703
 20
-13.7224911076805
 10
44.13648526287334
 20
-13.62949888548145
 10
44.04589193185124
 20
-13.53714166328224
 10
43.95184137869511
 20
-13.44379666330574
 10
43.61144721131922
 20
-12.65519721905828
 10
44.28705081458765
 20
-11.27167333051557
 10
44.37972553444554
 20
-10.53648444181021
 10
44.51579191986309
 20
-10.59606860846219
 10
44.68530276660626
 20
-10.68669721955043
 10
44.84997830022617
 20
-10.64362305289468
 10
45.12316940436759
 20
-10.50476971959594
 10
45.4008407861725
 20
-9.043705275516787
 10
45.12764968203108
 20
-8.676463608941871
 10
45.06975885017466
 20
-8.622735553399838
 10
45.06079829484771
 20
-8.645454442283121
 10
44.95746968637273
 20
-8.655120553391795
 10
45.07840190550971
 20
-8.323015553474926
 10
44.97916665542188
 20
-7.899258886914049
 10
45.04291246197068
 20
-7.478959442574784
 10
45.35536773177706
 20
-5.405684443092959
 10
43.71343416255516
 20
-3.96804444345229
 10
41.87824998953013
 20
-3.972524721229026
 10
41.42140276742273
 20
-4.064881943428237
 10
40.96561387864735
 20
-4.158226943404731
 10
40.50844813321006
 20
-4.249878610048739
 10
39.70679593143969
 20
-4.513086109982722
 10
38.96885539471056
 20
-5.264114720906292
 10
38.77800262180185
 20
-6.131242498467157
 10
38.70081484599329
 20
-6.475729998380951
 10
38.67601456884822
 20
-6.957024720482914
 10
38.73457567846531
 20
-7.285672498178491
 10
38.7621638791985
 20
-7.506864164790003
 10
38.79073887919107
 20
-7.729749164734321
 10
38.8200194347395
 20
-7.949212220234867
 10
38.7790256773313
 20
-8.120768053525483
 10
38.60919845944173
 20
-8.123872497969012
 10
38.54234707225837
 20
-8.24857944238234
 10
38.28534846770383
 20
-8.72331249781916
 10
38.37146152106246
 20
-9.75684555311622
 10
38.56231429397118
 20
-10.21573888633482
 10
38.85688373090053
 20
-10.29705416409248
 10
38.9240526180758
 20
-10.27638138631976
 10
39.22793538810088
 20
-10.21573888633482
 10
39.4311706606937
 20
-11.04670694168284
 10
40.2607638788237
 20
-13.61397666326315
 10
39.82356537290509
 20
-14.29991777420289
 10
39.32815955221061
 20
-15.08400166289578
 10
38.340134855195
 20
-15.57492721832858
 10
37.27936738225743
 20
-15.79576610716233
 10
36.39431943534586
 20
-15.98146832933803
 10
35.56476159266734
 20
-15.88293749602928
 10
34.86471026906158
 20
-16.18092888484355
 10
33.50217665829118
 20
-16.7604016624765
 10
32.58336693629852
 20
-17.89553471774833
 10
31.46439110324516
 20
-18.72583249531866
 10
30.76574999230858
 20
-19.08894666189428
 10
30.0680966591496
 20
-19.45237832847014
 10
29.36945554821334
 20
-19.81686832837897
 10
28.30904082625618
 20
-20.35601860602226
 10
27.28584415984515
 20
-20.87728305033612
 10
26.28988193787199
 20
-21.46225916130126
 10
25.83719749354077
 20
-21.72857110567909
 10
25.33212554922256
 20
-21.90735888341189
 10
24.98485110486483
 20
-22.27495332776457
 10
24.72062054937541
 20
-22.55675221658318
 10
24.40710693834253
 20
-23.34327027194191
 10
24.66516388272273
 20
-23.8573027718136
 10
24.92216249376933
 20
-24.30377832725744
 10
27.06535804878916
 20
-25.54262804916995
 10
27.65964749308521
 20
-25.76103277133753
 10
28.02205610410563
 20
-25.83271721576403
 10
28.38587582623677
 20
-25.90263777130204
 10
28.74930749281264
 20
-25.97428693795102
 10
29.5771711037168
 20
-26.2089194378921
 10
30.22554138133264
 20
-26.82042443773925
 10
30.97417110336756
 20
-27.15044804876803
 10
31.22118610330589
 20
-27.26033832651826
 10
31.68145526985738
 20
-27.45672971535809
 10
32.00011943644436
 20
-27.4064236042595
 10
32.24194860305074
 20
-27.38575082648679
 10
32.48310749187912
 20
-27.36440777093672
 10
32.726700547374
 20
-27.34267665983104
 10
33.42809332497635
 20
-27.46360888202283
 10
34.79270832463516
 20
-27.57180582644026
 10
34.84301443573374
 20
-27.38575082648679
 10
34.91501638016015
 20
-26.94340277104193
 10
34.45647582471931
 20
-27.05364582656992
 10
35.39937937466437
 20
-27.17249665987363
 10
35.85654408522335
 20
-27.25208332652031
 10
36.02192630322632
 20
-26.82215304884989
 10
35.74009214374984
 20
-26.68019527110762
 10
35.44210076246335
 20
-26.55996860447103
 10
34.99425026902908
 20
-26.4721269378264
 10
34.56153304691505
 20
-26.41423610450755
 10
34.51743582470385
 20
-26.41321304895211
 10
32.9396019362094
 20
-26.37945221562727
 10
32.726700547374
 20
-26.21064804900274
 10
32.51069471409443
 20
-26.03940971571237
 10
32.83415665845806
 20
-26.16584527123634
 10
32.83415665845806
 20
-26.16584527123634
 10
32.83415665845806
 20
-26.16584527123634
 10
34.58428721357617
 20
-26.34671443785787
 10
34.59427082468477
 20
-26.3491133267462
 10
34.91812082460368
 20
-26.41286027117467
 10
35.239183880079
 20
-26.5106855489279
 10
35.4631263174825
 20
-26.53104082670069
 10
35.85654408522335
 20
-26.6181769377898
 10
35.85104165770391
 20
-26.24335054899462
 10
35.67705075646927
 20
-26.08142554903516
 10
35.27604915784769
 20
-25.63357416025812
 10
33.32060193611445
 20
-25.43340804919708
 10
32.51238804742755
 20
-25.35519721588328
 10
32.50621443631801
 20
-25.34041582699835
 10
32.49894721409734
 20
-25.3266222158907
 10
32.4927736029878
 20
-25.31109999367208
 10
32.92651388065728
 20
-24.8870258271116
 10
34.34242276919227
 20
-25.29183832701041
 10
34.97047304681283
 20
-25.07650277150852
 10
35.00285804680479
 20
-25.01310860485782
 10
35.01527582457955
 20
-24.95557054931673
 10
35.01421749124659
 20
-24.84190554934496
 10
34.7482583246462
 20
-24.47706277165837
 10
33.76227971378163
 20
-24.35613054946658
 10
33.15454943615569
 20
-24.37059443835192
 10
33.15454943615569
 20
-24.37059443835192
 10
33.15454943615569
 20
-24.3499216605792
 10
33.15454943615569
 20
-24.3499216605792
 10
35.00218776902711
 20
-23.3715277719349
 10
34.41650610250709
 20
-23.13107443866172
 10
34.41650610250709
 20
-23.13107443866172
 10
34.03169610260331
 20
-23.14793721643538
 10
33.9007802693026
 20
-23.45559471635832
 10
33.58105776938266
 20
-23.55895860522125
 10
32.8314049917923
 20
-23.79905916071699
 10
31.8623244364789
 20
-23.77736332738915
 10
30.95212249226196
 20
-23.94341582734759
 10
30.59553471457333
 20
-23.99266360511288
 10
30.23933499244029
 20
-24.04367527176698
 10
29.88207693697397
 20
-24.09292304953228
 10
29.12759110382911
 20
-23.99439221622353
 10
28.58533638174261
 20
-23.43732082747393
 10
28.00138332633292
 20
-23.19549166086787
 10
28.00138332633292
 20
-23.19549166086787
 10
28.00138332633292
 20
-23.17411332753995
 10
28.00138332633292
 20
-23.17411332753995
 10
28.54226221508653
 20
-22.89541888316519
 10
29.08451693717335
 20
-22.61774749434556
 10
29.62645415925994
 20
-22.33901777219296
 10
30.76952471452979
 20
-21.75714610567168
 10
31.92501304757441
 20
-21.15082693915678
 10
33.15454943615569
 20
-20.67126082816547
 10
33.77159304711254
 20
-20.43112499489221
 10
34.32658304697405
 20
-20.16241416162605
 10
35.09930749122513
 20
-20.41599082822919
 10
34.50434776915173
 20
-22.40897360550881
 10
35.33771382068203
 20
-23.24749110529925
 10
35.97712352659155
 20
-24.73441416048306
 10
36.18349852132649
 20
-25.27564582701444
 10
36.38983823828455
 20
-25.8175477713235
 10
36.59758906631772
 20
-26.36015527118776
 10
36.7608898954849
 20
-26.88240749327955
 10
36.79775517232216
 20
-27.37749582648884
 10
36.90866943521713
 20
-27.92698249301817
 10
36.90249489187225
 20
-27.93008693746202
 10
36.89766183644
 20
-27.93456721523844
 10
36.89007711441128
 20
-27.93594304857164
 10
36.73608961833983
 20
-27.98691943744759
 10
36.58072628897015
 20
-28.02170332632787
 10
36.42843212618882
 20
-28.05754554854112
 10
36.27892490778085
 20
-28.21153304850255
 10
36.07738296847817
 20
-28.32869054847345
 10
35.80623887993719
 20
-28.36555582624182
 10
35.80623887993719
 20
-28.36555582624182
 10
32.12930665863442
 20
-28.86438360389513
 10
32.12930665863442
 20
-28.86438360389513
 10
32.00837443644231
 20
-28.94051304832052
 10
31.85163526981479
 20
-29.01149193719149
 10
31.62285888098333
 20
-29.07590915939765
 10
31.62285888098333
 20
-29.07590915939765
 10
29.39563165931791
 20
-28.96566610386965
 10
29.39563165931791
 20
-28.96566610386965
 10
28.17191610406809
 20
-28.94051304832052
 10
26.78698110441433
 20
-29.12896693716231
 10
25.75069638245118
 20
-29.53377943706112
 10
25.75069638245118
 20
-29.53377943706112
 10
25.21398027147438
 20
-29.87484499253114
 10
25.21398027147438
 20
-29.87484499253114
 10
24.58420138274284
 20
-30.11046527025015
 10
23.65470249408639
 20
-30.09257943692137
 10
23.3374141608323
 20
-30.56660693680266
 10
23.38669721637543
 20
-30.78056665897167
 10
23.42525582747693
 20
-30.82431110340511
 10
23.45457166080287
 20
-31.06063693667931
 10
23.45457166080287
 20
-31.06063693667931
 10
23.09900693866968
 20
-31.13334443666125
 10
23.09900693866968
 20
-31.13334443666125
 10
23.09900693866968
 20
-31.13334443666125
 10
23.04182166090636
 20
-31.262531658851
 10
23.04182166090636
 20
-31.262531658851
 10
22.988093605364
 20
-31.41718943659011
 10
23.15414610532244
 20
-31.46682526991101
 10
23.21133138308608
 20
-31.60564332543191
 10
23.24819666085478
 20
-31.93259776979468
 10
23.28541471640091
 20
-32.2595169363796
 10
23.32055138305864
 20
-32.5874944362975
 10
23.61060527187519
 20
-32.81764665846217
 10
24.2038716606158
 20
-32.75460526958922
 10
24.65274610494797
 20
-32.55235776963978
 10
24.79057638269126
 20
-32.7707977695852
 10
24.87185638267107
 20
-33.12562165838535
 10
24.975220271534
 20
-33.31097110278329
 10
25.15919388259906
 20
-33.38780610276421
 10
25.47856360474156
 20
-33.33541860277722
 10
25.66941638247169
 20
-33.41123054720269
 10
25.76484277133659
 20
-33.44982443608203
 10
25.79895638243919
 20
-33.50492832495694
 10
25.84305360465039
 20
-33.60656360270955
 10
25.71107943801671
 20
-33.88663388041719
 10
25.77412082688966
 20
-34.20289915811585
 10
25.89851027130307
 20
-34.51468415803808
 10
24.88116971600198
 20
-34.70380832465724
 10
23.88933499402779
 20
-34.98426665792049
 10
22.94501943870825
 20
-35.42315749114405
 10
22.9588130498159
 20
-35.51205749112197
 10
22.97119554981282
 20
-35.60748387998687
 10
22.97567582758956
 20
-35.72598193551282
 10
22.86991304983798
 20
-35.78214415772102
 10
22.76175138319839
 20
-35.83795360215178
 10
22.65425999433649
 20
-35.89686749102575
 10
22.33076277219501
 20
-36.14871554651825
 10
21.63900082792349
 20
-37.18842221292518
 10
21.79986749454999
 20
-37.88364137941799
 10
21.96281555006489
 20
-38.21232443489141
 10
22.12749221669044
 20
-38.54026665703146
 10
22.29079304998278
 20
-38.86894971250487
 10
22.69870999432545
 20
-39.32438582350218
 10
23.10348721644642
 20
-39.78084499005494
 10
23.50967554967811
 20
-40.23733943438521
 10
23.93685416068244
 20
-40.52188998986959
 10
24.36646693835294
 20
-40.80749887868726
 10
24.79195221602414
 20
-41.09204943417163
 10
25.52160249361948
 20
-41.73008332290112
 10
26.03905693793461
 20
-42.62479832267697
 10
26.80387915996583
 20
-43.2311174891925
 10
27.90839110413386
 20
-44.14202498896464
 10
29.01251499274694
 20
-45.05494332206951
 10
30.11737971469273
 20
-45.96687387739742
 10
30.41639415906245
 20
-46.29449859953723
 10
30.71544388121
 20
-46.62247609945544
 10
31.01583415891259
 20
-46.95112387715102
 10
32.19372388084057
 20
-48.59926637673876
 10
33.08946193617218
 20
-50.41861193184
 10
34.71520304687688
 20
-51.61167109820851
 10
35.75699019887429
 20
-52.37751637579454
 10
36.70095295256957
 20
-53.211236097808
 10
37.7509959813363
 20
-53.98533637539261
 10
38.42314443483872
 20
-54.4814124863795
 10
38.67153429118474
 20
-55.05192470845931
 10
39.67441093226589
 20
-54.64817054189346
 10
39.42051677207661
 20
-56.48339109699012
 10
38.72321623431067
 20
-57.91034192996698
 10
38.32771707773403
 20
-59.65253498508707
 10
38.24227430213608
 20
-60.39252165156844
 10
38.15753708207568
 20
-61.13494248471597
 10
38.07209430647773
 20
-61.8749644289755
 10
37.7971745912693
 20
-63.22299887308305
 10
37.45956626654907
 20
-64.67235109494328
 10
36.95897461265356
 20
-65.8736652613091
 10
36.62997499084238
 20
-66.66706248333355
 10
35.97264324892808
 20
-67.30372053872951
 10
35.63570520196853
 20
-68.05474914965275
 10
35.08865360233886
 20
-69.26915137157134
 10
34.9553036023723
 20
-70.66202387122313
 10
34.6087347135701
 20
-72.05383803754228
 10
34.48815526915575
 20
-72.53545025964416
 10
34.21256526922452
 20
-73.49800442606993
 10
34.28594304698414
 20
-74.06368359259491
 10
34.3917058247354
 20
-74.83954775906768
 10
34.62115249134487
 20
-75.56884525888559
 10
34.73587582464928
 20
-76.2440972031612
 10
35.25537638007498
 20
-76.41254859200829
 10
35.94784297178301
 20
-76.67406275860947
 10
36.53281906797014
 20
-76.43738414755717
 10
36.7608898954849
 20
-75.88856775880585
 10
36.98860794523088
 20
-75.33939859227613
 10
37.21597321720809
 20
-74.79026470352456
 10
37.2377043277648
 20
-74.4633102591621
 10
37.25904738277584
 20
-74.13466248146653
 10
37.27936738225743
 20
-73.80774331488159
 10
37.3799805462105
 20
-73.5149024816211
 10
37.48023904379944
 20
-73.22273192613862
 10
37.58046320790918
 20
-72.93094942621141
 10
38.05075125146669
 20
-71.97492164867295
 10
38.52100401724731
 20
-71.02097526002225
 10
38.99125678302794
 20
-70.06498276026132
 10
39.07253678095432
 20
-69.6370985937021
 10
38.70702373472378
 20
-69.18924720492505
 10
38.62778984785631
 20
-68.86744331611638
 10
38.43933596377529
 20
-68.09574192742042
 10
38.8648222125059
 20
-67.15798803876602
 10
39.0987481691745
 20
-66.60162220557163
 10
39.59584732315911
 20
-65.41202026142506
 10
40.36377498990887
 20
-64.30133470614716
 10
41.02283339786477
 20
-63.24437720641129
 10
41.4713550530887
 20
-62.52365220659158
 10
41.82621421070215
 20
-61.76712026233616
 10
42.26168308848131
 20
-61.02057192918932
 10
42.49730336024791
 20
-60.59921415151678
 10
42.73260613202262
 20
-60.17859720717727
 10
42.9682616815661
 20
-59.758297762838
 10
43.8391994371244
 20
-57.43733748564081
 10
43.48984361270388
 20
-53.85096331987061
 10
44.05760415377465
 20
-51.2702527649604
 10
44.11478943009352
 20
-50.93539609837713
 10
44.1733505397106
 20
-50.60053943179449
 10
44.23021943338703
 20
-50.26497720965568
 10
44.48030247632406
 20
-49.68102415424664
 10
44.72837580332851
 20
-49.09537776550382
 10
44.97916665542188
 20
-48.51177748787189
 10
45.62616109970484
 20
-46.45229609949835
 10
46.02649215909969
 20
-44.31597971114326
 10
46.66692492053867
 20
-42.18312054500947
 10
47.0948090762891
 20
-40.76064998980965
 10
47.57952573058962
 20
-39.45082137902616
 10
47.75693887694958
 20
-37.82095276832248
 10
47.79965905830688
 20
-37.80063276832753
 10
47.84100461280762
 20
-37.77685554611129
 10
47.88337322283782
 20
-37.75307832389504
 10
47.79553155841218
 20
-37.47265526840963
 10
47.71492183824648
 20
-37.19117387959095
 10
47.63498239584146
 20
-36.9090222129949
 10
47.8234362799225
 20
-36.87113387967108
 10
48.01118460846597
 20
-36.84012471301233
 10
48.19205377051828
 20
-36.84460499078875
 10
48.19205377051828
 20
-36.84460499078875
 10
48.6561329253453
 20
-36.85631721300799
 10
48.6561329253453
 20
-36.85631721300799
 10
48.6561329253453
 20
-36.85631721300799
 10
49.02542069370176
 20
-36.70783304637874
 10
49.02542069370176
 20
-36.70783304637874
 10
49.1432484684735
 20
-36.74953137970161
 10
49.26245207654348
 20
-36.78950110191383
 10
49.38027985131522
 20
-36.83014110190373
 10
49.38027985131522
 20
-36.83014110190373
 10
49.78989011864297
 20
-36.7987791574669
 10
49.78989011864297
 20
-36.7987791574669
 10
49.98384733591693
 20
-36.87250971300396
 10
50.51784704451568
 20
-37.70827554612864
 10
50.6484100967403
 20
-37.92223526829733
 10
51.13347952880959
 20
-38.14547304601908
 10
51.87074978777804
 20
-37.33105026844513
 10
52.45950060609108
 20
-37.4574858239691
 10
53.45616835844175
 20
-37.67419721280356
 10
54.05941834305156
 20
-38.9154458236044
 10
55.18079443064913
 20
-39.05807387912435
 10
55.27138636768724
 20
-38.74353721253635
 10
55.53081913884633
 20
-38.62260499034424
 10
55.55318524938684
 20
-38.22851693488738
 10
55.71892024515859
 20
-38.1902758237858
 10
55.8839144076159
 20
-38.15168193490646
 10
56.04859107008132
 20
-38.11308804602713
 10
56.097168568842
 20
-37.87916110164125
 10
56.14712190090091
 20
-37.64629249058834
 10
56.19742801072861
 20
-37.4120127684247
 10
56.64217494382662
 20
-37.58081693504922
 10
57.03629826710502
 20
-37.4289108239762
 10
57.40872575760361
 20
-37.56462443505325
 10
57.51036103278845
 20
-37.3358833239993
 10
57.54997797622219
 20
-37.08816276850578
 10
57.48866665229419
 20
-36.72642443526272
 10
57.48866665229419
 20
-36.72642443526272
 10
57.93514074417364
 20
-36.42155387978339
 10
57.93514074417364
 20
-36.42155387978339
 10
58.06122498548488
 20
-36.04397582432244
 10
57.87209935689307
 20
-35.80281693549374
 10
57.69775658356316
 20
-35.57989665777158
 10
57.81660741386435
 20
-35.26708860229422
 10
58.04778268574435
 20
-35.11930999122017
 10
58.20903887433678
 20
-34.85335082462009
 97
        0
 92
        1
 93
        1
 72
     4
 94
        3
 73
     0
 74
     1
 95
       17
 96
       13
 40
0.0
 40
0.0
 40
0.0
 40
0.0
 40
1.0
 40
1.0
 40
1.0
 40
2.0
 40
2.0
 40
2.0
 40
3.0
 40
3.0
 40
3.0
 40
4.0
 40
4.0
 40
4.0
 40
4.0
 10
47.20092462913743
 20
-20.92825943921239
 10
47.68426665474549
 20
-21.33928082799858
 10
47.9360782214932
 20
-22.01139305005283
 10
48.44217320858164
 20
-22.40449332773207
 10
48.44940515284159
 20
-22.42446054994959
 10
48.45663709710153
 20
-22.4458388832775
 10
48.46386904136147
 20
-22.46753471660534
 10
47.86442905665446
 20
-22.69662860543704
 10
47.26534184971622
 20
-22.9246994387133
 10
46.66692492053867
 20
-23.15241749421179
 10
46.66692492053867
 20
-22.17056638334619
 10
46.8271213053406
 20
-21.5025463835134
 10
47.20092462913743
 20
-20.92825943921239
 97
        0
 92
        1
 93
        1
 72
     4
 94
        3
 73
     0
 74
     1
 95
       56
 96
       52
 40
0.0
 40
0.0
 40
0.0
 40
0.0
 40
1.0
 40
1.0
 40
1.0
 40
2.0
 40
2.0
 40
2.0
 40
3.0
 40
3.0
 40
3.0
 40
4.0
 40
4.0
 40
4.0
 40
5.0
 40
5.0
 40
5.0
 40
6.0
 40
6.0
 40
6.0
 40
7.0
 40
7.0
 40
7.0
 40
8.0
 40
8.0
 40
8.0
 40
9.0
 40
9.0
 40
9.0
 40
10.0
 40
10.0
 40
10.0
 40
11.0
 40
11.0
 40
11.0
 40
12.0
 40
12.0
 40
12.0
 40
13.0
 40
13.0
 40
13.0
 40
14.0
 40
14.0
 40
14.0
 40
15.0
 40
15.0
 40
15.0
 40
16.0
 40
16.0
 40
16.0
 40
17.0
 40
17.0
 40
17.0
 40
17.0
 10
39.78225509618123
 20
-51.18516276498154
 10
39.8835375935973
 20
-51.81321304260243
 10
39.83598315036607
 20
-52.54459193130809
 10
39.78225509618123
 20
-53.15059359782338
 10
39.02706372655888
 20
-52.15357304251725
 10
38.2719076347134
 20
-51.15623498721088
 10
37.51572848733847
 20
-50.15783859857186
 10
36.99308822289436
 20
-48.69779721004751
 10
37.75963903667135
 20
-47.13199304377287
 10
36.23274721316415
 20
-46.52327498836933
 10
36.08013463507464
 20
-46.46227971060695
 10
35.90028852855178
 20
-46.32138026619764
 10
35.67705075646927
 20
-46.35203665507895
 10
35.1444630467693
 20
-46.42474415506057
 10
34.62182276912223
 20
-46.47917776615813
 10
34.00858915816443
 20
-46.48020082171325
 10
33.58105776938266
 20
-45.74603498856366
 10
33.15454943615569
 20
-45.0119044331916
 10
32.726700547374
 20
-44.27911443337489
 10
32.04834415865453
 20
-43.02340193368839
 10
31.3713988810461
 20
-41.76867721178014
 10
30.69406554788208
 20
-40.51434054542717
 10
30.38058721462704
 20
-40.15877582329365
 10
30.0680966591496
 20
-39.80151776782733
 10
29.75288971478391
 20
-39.44598832347198
 10
30.50254249237427
 20
-39.57312943455116
 10
31.25113693663167
 20
-39.70298693451858
 10
32.00011943644436
 20
-39.83012804559808
 10
32.74804360292408
 20
-39.88801887891692
 10
33.49596776940379
 20
-39.94312276779184
 10
34.24495026921647
 20
-40.00203665666614
 10
35.31979271002813
 20
-39.90971471224476
 10
36.39569434924626
 20
-39.81703999004563
 10
37.4733245995314
 20
-39.72334221229138
 10
38.29187485642622
 20
-39.65165776786488
 10
39.11250650215683
 20
-39.58173721232687
 10
39.93140953682042
 20
-39.50938249012269
 10
39.8835375935973
 20
-40.27247610104294
 10
39.83150287270259
 20
-41.03454665640807
 10
39.78225509618123
 20
-41.79795776732857
 10
39.89592009328139
 20
-43.01613471146805
 10
40.00997314592721
 20
-44.23536998894146
 10
40.12363814302738
 20
-45.45425248863646
 10
40.02510832332717
 20
-46.27382582176516
 10
39.92382481479171
 20
-47.09343443267137
 10
39.82356537290509
 20
-47.91300776579942
 10
39.78225509618123
 20
-48.42562915456038
 10
39.74020398614293
 20
-48.93966165443174
 10
39.69712982057518
 20
-49.45228304319269
 10
39.60826510062008
 20
-50.02346554304986
 10
39.70817176473792
 20
-50.72489359842973
 10
39.78225509618123
 20
-51.18516276498154
 97
        0
 75
     0
 76
     1
 98
        0
  0
ENDSEC
  0
SECTION
  2
OBJECTS
  0
DICTIONARY
  5
C
330
0
100
AcDbDictionary
281
     1
  3
ACAD_GROUP
350
D
  3
ACAD_LAYOUT
350
1A
  3
ACAD_MATERIAL
350
3B
  3
ACAD_MLEADERSTYLE
350
66
  3
ACAD_MLINESTYLE
350
17
  3
ACAD_PLOTSETTINGS
350
19
  3
ACAD_PLOTSTYLENAME
350
E
  3
ACAD_TABLESTYLE
350
65
  3
ACAD_VISUALSTYLE
350
2A
  0
SUN
  5
3F
330
29
100
AcDbSun
 90
        1
290
     0
 63
     7
421
 16777215
 40
1.0
291
     1
 91
  2455826
 92
 54000000
292
     0
 70
     2
 71
   256
280
     1
  0
DICTIONARY
  5
D
102
{ACAD_REACTORS
330
C
102
}
330
C
100
AcDbDictionary
281
     1
  0
DICTIONARY
  5
1A
102
{ACAD_REACTORS
330
C
102
}
330
C
100
AcDbDictionary
281
     1
  3
Layout1
350
1E
  3
Layout2
350
26
  3
Model
350
22
  0
DICTIONARY
  5
3B
102
{ACAD_REACTORS
330
C
102
}
330
C
100
AcDbDictionary
281
     1
  3
ByBlock
350
3D
  3
ByLayer
350
3C
  3
Global
350
3E
  0
DICTIONARY
  5
66
102
{ACAD_REACTORS
330
C
102
}
330
C
100
AcDbDictionary
281
     1
  0
DICTIONARY
  5
17
102
{ACAD_REACTORS
330
C
102
}
330
C
100
AcDbDictionary
281
     1
  3
Standard
350
18
  0
DICTIONARY
  5
19
102
{ACAD_REACTORS
330
C
102
}
330
C
100
AcDbDictionary
281
     1
  0
ACDBDICTIONARYWDFLT
  5
E
102
{ACAD_REACTORS
330
C
102
}
330
C
100
AcDbDictionary
281
     1
  3
Normal
350
F
100
AcDbDictionaryWithDefault
340
F
  0
DICTIONARY
  5
65
102
{ACAD_REACTORS
330
C
102
}
330
C
100
AcDbDictionary
281
     1
  0
DICTIONARY
  5
2A
102
{ACAD_REACTORS
330
C
102
}
330
C
100
AcDbDictionary
281
     1
  3
2dWireframe
350
2F
  3
3D Hidden
350
31
  3
3dWireframe
350
30
  3
Basic
350
32
  3
Brighten
350
36
  3
ColorChange
350
3A
  3
Conceptual
350
34
  3
Dim
350
35
  3
Facepattern
350
39
  3
Flat
350
2B
  3
FlatWithEdges
350
2C
  3
Gouraud
350
2D
  3
GouraudWithEdges
350
2E
  3
Linepattern
350
38
  3
Realistic
350
33
  3
Thicken
350
37
  0
LAYOUT
  5
1E
102
{ACAD_REACTORS
330
1A
102
}
330
1A
100
AcDbPlotSettings
  1

  2
none_device
  4

  6

 40
0.0
 41
0.0
 42
0.0
 43
0.0
 44
0.0
 45
0.0
 46
0.0
 47
0.0
 48
0.0
 49
0.0
140
0.0
141
0.0
142
1.0
143
1.0
 70
   688
 72
     0
 73
     0
 74
     5
  7

 75
    16
 76
     0
 77
     2
 78
   300
147
1.0
148
0.0
149
0.0
100
AcDbLayout
  1
Layout1
 70
     1
 71
     1
 10
0.0
 20
0.0
 11
12.0
 21
9.0
 12
0.0
 22
0.0
 32
0.0
 14
1.000000000000000E+20
 24
1.000000000000000E+20
 34
1.000000000000000E+20
 15
-1.000000000000000E+20
 25
-1.000000000000000E+20
 35
-1.000000000000000E+20
146
0.0
 13
0.0
 23
0.0
 33
0.0
 16
1.0
 26
0.0
 36
0.0
 17
0.0
 27
1.0
 37
0.0
 76
     0
330
1B
  0
LAYOUT
  5
26
102
{ACAD_REACTORS
330
1A
102
}
330
1A
100
AcDbPlotSettings
  1

  2
none_device
  4

  6

 40
0.0
 41
0.0
 42
0.0
 43
0.0
 44
0.0
 45
0.0
 46
0.0
 47
0.0
 48
0.0
 49
0.0
140
0.0
141
0.0
142
1.0
143
1.0
 70
   688
 72
     0
 73
     0
 74
     5
  7

 75
    16
 76
     0
 77
     2
 78
   300
147
1.0
148
0.0
149
0.0
100
AcDbLayout
  1
Layout2
 70
     1
 71
     2
 10
0.0
 20
0.0
 11
0.0
 21
0.0
 12
0.0
 22
0.0
 32
0.0
 14
0.0
 24
0.0
 34
0.0
 15
0.0
 25
0.0
 35
0.0
146
0.0
 13
0.0
 23
0.0
 33
0.0
 16
1.0
 26
0.0
 36
0.0
 17
0.0
 27
1.0
 37
0.0
 76
     0
330
23
  0
LAYOUT
  5
22
102
{ACAD_REACTORS
330
1A
102
}
330
1A
100
AcDbPlotSettings
  1

  2
none_device
  4

  6

 40
0.0
 41
0.0
 42
0.0
 43
0.0
 44
0.0
 45
0.0
 46
0.0
 47
0.0
 48
0.0
 49
0.0
140
0.0
141
0.0
142
1.0
143
1.0
 70
  1712
 72
     0
 73
     0
 74
     0
  7

 75
     0
 76
     0
 77
     2
 78
   300
147
1.0
148
0.0
149
0.0
100
AcDbLayout
  1
Model
 70
     1
 71
     0
 10
0.0
 20
0.0
 11
12.0
 21
9.0
 12
0.0
 22
0.0
 32
0.0
 14
1.000000000000000E+20
 24
1.000000000000000E+20
 34
1.000000000000000E+20
 15
-1.000000000000000E+20
 25
-1.000000000000000E+20
 35
-1.000000000000000E+20
146
0.0
 13
0.0
 23
0.0
 33
0.0
 16
1.0
 26
0.0
 36
0.0
 17
0.0
 27
1.0
 37
0.0
 76
     0
330
1F
331
29
  0
MATERIAL
  5
3D
102
{ACAD_REACTORS
330
3B
102
}
330
3B
100
AcDbMaterial
  1
ByBlock
 72
     1
 94
      127
  0
MATERIAL
  5
3C
102
{ACAD_REACTORS
330
3B
102
}
330
3B
100
AcDbMaterial
  1
ByLayer
 72
     1
 94
      127
  0
MATERIAL
  5
3E
102
{ACAD_REACTORS
330
3B
102
}
330
3B
100
AcDbMaterial
  1
Global
 72
     1
 94
      127
  0
MLINESTYLE
  5
18
102
{ACAD_REACTORS
330
17
102
}
330
17
100
AcDbMlineStyle
  2
Standard
 70
     0
  3

 62
   256
 51
90.0
 52
90.0
 71
     2
 49
0.5
 62
   256
  6
BYLAYER
 49
-0.5
 62
   256
  6
BYLAYER
  0
ACDBPLACEHOLDER
  5
F
102
{ACAD_REACTORS
330
E
102
}
330
E
  0
VISUALSTYLE
  5
2F
102
{ACAD_REACTORS
330
2A
102
}
102
{ACAD_XDICTIONARY
360
4D
102
}
330
2A
100
AcDbVisualStyle
  2
2dWireframe
 70
     4
 71
     0
 72
     2
 73
     0
 90
        0
 40
-0.6
 41
-30.0
 62
     5
 63
     7
421
 16777215
 74
     1
 91
        4
 64
     7
 65
   257
 75
     1
175
     1
 42
1.0
 92
        0
 66
   257
 43
1.0
 76
     1
 77
     6
 78
     2
 67
     7
 79
     5
170
     0
171
     0
290
     0
174
     0
 93
        1
 44
0.0
173
     0
291
     0
 45
0.0
  0
VISUALSTYLE
  5
31
102
{ACAD_REACTORS
330
2A
102
}
102
{ACAD_XDICTIONARY
360
51
102
}
330
2A
100
AcDbVisualStyle
  2
3D Hidden
 70
     6
 71
     1
 72
     2
 73
     2
 90
        0
 40
-0.6
 41
-30.0
 62
     5
 63
     7
421
 16777215
 74
     2
 91
        2
 64
     7
 65
   257
 75
     2
175
     1
 42
40.0
 92
        0
 66
   257
 43
1.0
 76
     1
 77
     6
 78
     2
 67
     7
 79
     3
170
     0
171
     0
290
     0
174
     0
 93
        1
 44
0.0
173
     0
291
     0
 45
0.0
  0
VISUALSTYLE
  5
30
102
{ACAD_REACTORS
330
2A
102
}
102
{ACAD_XDICTIONARY
360
4F
102
}
330
2A
100
AcDbVisualStyle
  2
3dWireframe
 70
     5
 71
     0
 72
     2
 73
     0
 90
        0
 40
-0.6
 41
-30.0
 62
     5
 63
     7
421
 16777215
 74
     1
 91
        4
 64
     7
 65
   257
 75
     1
175
     1
 42
1.0
 92
        0
 66
   257
 43
1.0
 76
     1
 77
     6
 78
     2
 67
     7
 79
     5
170
     0
171
     0
290
     0
174
     0
 93
        1
 44
0.0
173
     0
291
     0
 45
0.0
  0
VISUALSTYLE
  5
32
102
{ACAD_REACTORS
330
2A
102
}
102
{ACAD_XDICTIONARY
360
53
102
}
330
2A
100
AcDbVisualStyle
  2
Basic
 70
     7
 71
     1
 72
     0
 73
     1
 90
        0
 40
-0.6
 41
-30.0
 62
     5
 63
     7
421
 16777215
 74
     0
 91
        4
 64
     7
 65
   257
 75
     1
175
     1
 42
1.0
 92
        8
 66
     7
 43
1.0
 76
     1
 77
     6
 78
     2
 67
     7
 79
     5
170
     0
171
     0
290
     0
174
     0
 93
        1
 44
0.0
173
     0
291
     1
 45
0.0
  0
VISUALSTYLE
  5
36
102
{ACAD_REACTORS
330
2A
102
}
102
{ACAD_XDICTIONARY
360
5B
102
}
330
2A
100
AcDbVisualStyle
  2
Brighten
 70
    12
 71
     2
 72
     2
 73
     0
 90
        0
 40
-0.6
 41
-30.0
 62
     5
 63
     7
421
 16777215
 74
     1
 91
        4
 64
     7
 65
   257
 75
     1
175
     1
 42
1.0
 92
        8
 66
     7
 43
1.0
 76
     1
 77
     6
 78
     2
 67
     7
 79
     5
170
     0
171
     0
290
     0
174
     0
 93
        1
 44
50.0
173
     0
291
     1
 45
0.0
  0
VISUALSTYLE
  5
3A
102
{ACAD_REACTORS
330
2A
102
}
102
{ACAD_XDICTIONARY
360
63
102
}
330
2A
100
AcDbVisualStyle
  2
ColorChange
 70
    16
 71
     2
 72
     2
 73
     3
 90
        0
 40
-0.6
 41
-30.0
 62
     5
 63
     8
421
  8421504
 74
     1
 91
        4
 64
     7
 65
   257
 75
     1
175
     1
 42
1.0
 92
        8
 66
     8
424
  8421504
 43
1.0
 76
     1
 77
     6
 78
     2
 67
     7
 79
     5
170
     0
171
     0
290
     0
174
     0
 93
        1
 44
0.0
173
     0
291
     1
 45
0.0
  0
VISUALSTYLE
  5
34
102
{ACAD_REACTORS
330
2A
102
}
102
{ACAD_XDICTIONARY
360
57
102
}
330
2A
100
AcDbVisualStyle
  2
Conceptual
 70
     9
 71
     3
 72
     2
 73
     0
 90
        0
 40
-0.6
 41
-30.0
 62
     5
 63
     7
421
 16777215
 74
     2
 91
        2
 64
     7
 65
   257
 75
     1
175
     1
 42
40.0
 92
        8
 66
     7
 43
1.0
 76
     1
 77
     6
 78
     2
 67
     7
 79
     3
170
     0
171
     0
290
     0
174
     0
 93
        1
 44
0.0
173
     0
291
     0
 45
0.0
  0
VISUALSTYLE
  5
35
102
{ACAD_REACTORS
330
2A
102
}
102
{ACAD_XDICTIONARY
360
59
102
}
330
2A
100
AcDbVisualStyle
  2
Dim
 70
    11
 71
     2
 72
     2
 73
     0
 90
        0
 40
-0.6
 41
-30.0
 62
     5
 63
     7
421
 16777215
 74
     1
 91
        4
 64
     7
 65
   257
 75
     1
175
     1
 42
1.0
 92
        8
 66
     7
 43
1.0
 76
     1
 77
     6
 78
     2
 67
     7
 79
     5
170
     0
171
     0
290
     0
174
     0
 93
        1
 44
-50.0
173
     0
291
     1
 45
0.0
  0
VISUALSTYLE
  5
39
102
{ACAD_REACTORS
330
2A
102
}
102
{ACAD_XDICTIONARY
360
61
102
}
330
2A
100
AcDbVisualStyle
  2
Facepattern
 70
    15
 71
     2
 72
     2
 73
     0
 90
        0
 40
-0.6
 41
-30.0
 62
     5
 63
     7
421
 16777215
 74
     1
 91
        4
 64
     7
 65
   257
 75
     1
175
     1
 42
1.0
 92
        8
 66
     7
 43
1.0
 76
     1
 77
     6
 78
     2
 67
     7
 79
     5
170
     0
171
     0
290
     0
174
     0
 93
        1
 44
0.0
173
     0
291
     1
 45
0.0
  0
VISUALSTYLE
  5
2B
102
{ACAD_REACTORS
330
2A
102
}
102
{ACAD_XDICTIONARY
360
45
102
}
330
2A
100
AcDbVisualStyle
  2
Flat
 70
     0
 71
     2
 72
     1
 73
     1
 90
        2
 40
-0.6
 41
30.0
 62
     5
 63
     7
421
 16777215
 74
     0
 91
        4
 64
     7
 65
   257
 75
     1
175
     1
 42
1.0
 92
        8
 66
     7
 43
1.0
 76
     1
 77
     6
 78
     2
 67
     7
 79
     5
170
     0
171
     0
290
     0
174
     0
 93
       13
 44
0.0
173
     0
291
     1
 45
0.0
  0
VISUALSTYLE
  5
2C
102
{ACAD_REACTORS
330
2A
102
}
102
{ACAD_XDICTIONARY
360
47
102
}
330
2A
100
AcDbVisualStyle
  2
FlatWithEdges
 70
     1
 71
     2
 72
     1
 73
     1
 90
        2
 40
-0.6
 41
30.0
 62
     5
 63
     7
421
 16777215
 74
     1
 91
        4
 64
     7
 65
   257
 75
     1
175
     1
 42
1.0
 92
        0
 66
   257
 43
1.0
 76
     1
 77
     6
 78
     2
 67
     7
 79
     5
170
     0
171
     0
290
     0
174
     0
 93
       13
 44
0.0
173
     0
291
     1
 45
0.0
  0
VISUALSTYLE
  5
2D
102
{ACAD_REACTORS
330
2A
102
}
102
{ACAD_XDICTIONARY
360
49
102
}
330
2A
100
AcDbVisualStyle
  2
Gouraud
 70
     2
 71
     2
 72
     2
 73
     1
 90
        2
 40
-0.6
 41
30.0
 62
     5
 63
     7
421
 16777215
 74
     0
 91
        4
 64
     7
 65
   257
 75
     1
175
     1
 42
1.0
 92
        0
 66
     7
 43
1.0
 76
     1
 77
     6
 78
     2
 67
     7
 79
     5
170
     0
171
     0
290
     0
174
     0
 93
       13
 44
0.0
173
     0
291
     1
 45
0.0
  0
VISUALSTYLE
  5
2E
102
{ACAD_REACTORS
330
2A
102
}
102
{ACAD_XDICTIONARY
360
4B
102
}
330
2A
100
AcDbVisualStyle
  2
GouraudWithEdges
 70
     3
 71
     2
 72
     2
 73
     1
 90
        2
 40
-0.6
 41
30.0
 62
     5
 63
     7
421
 16777215
 74
     1
 91
        4
 64
     7
 65
   257
 75
     1
175
     1
 42
1.0
 92
        0
 66
   257
 43
1.0
 76
     1
 77
     6
 78
     2
 67
     7
 79
     5
170
     0
171
     0
290
     0
174
     0
 93
       13
 44
0.0
173
     0
291
     1
 45
0.0
  0
VISUALSTYLE
  5
38
102
{ACAD_REACTORS
330
2A
102
}
102
{ACAD_XDICTIONARY
360
5F
102
}
330
2A
100
AcDbVisualStyle
  2
Linepattern
 70
    14
 71
     2
 72
     2
 73
     0
 90
        0
 40
-0.6
 41
-30.0
 62
     5
 63
     7
421
 16777215
 74
     1
 91
        4
 64
     7
 65
   257
 75
     7
175
     7
 42
1.0
 92
        8
 66
     7
 43
1.0
 76
     1
 77
     6
 78
     2
 67
     7
 79
     5
170
     0
171
     0
290
     0
174
     0
 93
        1
 44
0.0
173
     0
291
     1
 45
0.0
  0
VISUALSTYLE
  5
33
102
{ACAD_REACTORS
330
2A
102
}
102
{ACAD_XDICTIONARY
360
55
102
}
330
2A
100
AcDbVisualStyle
  2
Realistic
 70
     8
 71
     2
 72
     2
 73
     0
 90
        0
 40
-0.6
 41
-30.0
 62
     5
 63
     7
421
 16777215
 74
     1
 91
        0
 64
     7
 65
   257
 75
     1
175
     1
 42
1.0
 92
        8
 66
     8
424
  7895160
 43
1.0
 76
     1
 77
     6
 78
     2
 67
     7
 79
     5
170
     0
171
     0
290
     0
174
     0
 93
       13
 44
0.0
173
     0
291
     0
 45
0.0
  0
VISUALSTYLE
  5
37
102
{ACAD_REACTORS
330
2A
102
}
102
{ACAD_XDICTIONARY
360
5D
102
}
330
2A
100
AcDbVisualStyle
  2
Thicken
 70
    13
 71
     2
 72
     2
 73
     0
 90
        0
 40
-0.6
 41
-30.0
 62
     5
 63
     7
421
 16777215
 74
     1
 91
        4
 64
     7
 65
   257
 75
     1
175
     1
 42
1.0
 92
       12
 66
     7
 43
1.0
 76
     1
 77
     6
 78
     2
 67
     7
 79
     5
170
     0
171
     0
290
     0
174
     0
 93
        1
 44
0.0
173
     0
291
     1
 45
0.0
  0
DICTIONARY
  5
4D
330
2F
100
AcDbDictionary
280
     1
281
     1
  3
ACAD_XREC_ROUNDTRIP
360
4E
  0
DICTIONARY
  5
51
330
31
100
AcDbDictionary
280
     1
281
     1
  3
ACAD_XREC_ROUNDTRIP
360
52
  0
DICTIONARY
  5
4F
330
30
100
AcDbDictionary
280
     1
281
     1
  3
ACAD_XREC_ROUNDTRIP
360
50
  0
DICTIONARY
  5
53
330
32
100
AcDbDictionary
280
     1
281
     1
  3
ACAD_XREC_ROUNDTRIP
360
54
  0
DICTIONARY
  5
5B
330
36
100
AcDbDictionary
280
     1
281
     1
  3
ACAD_XREC_ROUNDTRIP
360
5C
  0
DICTIONARY
  5
63
330
3A
100
AcDbDictionary
280
     1
281
     1
  3
ACAD_XREC_ROUNDTRIP
360
64
  0
DICTIONARY
  5
57
330
34
100
AcDbDictionary
280
     1
281
     1
  3
ACAD_XREC_ROUNDTRIP
360
58
  0
DICTIONARY
  5
59
330
35
100
AcDbDictionary
280
     1
281
     1
  3
ACAD_XREC_ROUNDTRIP
360
5A
  0
DICTIONARY
  5
61
330
39
100
AcDbDictionary
280
     1
281
     1
  3
ACAD_XREC_ROUNDTRIP
360
62
  0
DICTIONARY
  5
45
330
2B
100
AcDbDictionary
280
     1
281
     1
  3
ACAD_XREC_ROUNDTRIP
360
46
  0
DICTIONARY
  5
47
330
2C
100
AcDbDictionary
280
     1
281
     1
  3
ACAD_XREC_ROUNDTRIP
360
48
  0
DICTIONARY
  5
49
330
2D
100
AcDbDictionary
280
     1
281
     1
  3
ACAD_XREC_ROUNDTRIP
360
4A
  0
DICTIONARY
  5
4B
330
2E
100
AcDbDictionary
280
     1
281
     1
  3
ACAD_XREC_ROUNDTRIP
360
4C
  0
DICTIONARY
  5
5F
330
38
100
AcDbDictionary
280
     1
281
     1
  3
ACAD_XREC_ROUNDTRIP
360
60
  0
DICTIONARY
  5
55
330
33
100
AcDbDictionary
280
     1
281
     1
  3
ACAD_XREC_ROUNDTRIP
360
56
  0
DICTIONARY
  5
5D
330
37
100
AcDbDictionary
280
     1
281
     1
  3
ACAD_XREC_ROUNDTRIP
360
5E
  0
XRECORD
  5
4E
102
{ACAD_REACTORS
330
4D
102
}
330
4D
100
AcDbXrecord
280
     1
102
RTVSPropertyOp0
 70
     1
102
RTVSPropertyOp1
 70
     1
102
RTVSPropertyOp2
 70
     1
102
RTVSPropertyOp3
 70
     1
102
RTVSPropertyOp4
 70
     1
102
RTVSPropertyOp5
 70
     1
102
RTVSPropertyOp6
 70
     1
102
RTVSPropertyOp7
 70
     1
102
RTVSPropertyOp8
 70
     1
102
RTVSPropertyOp9
 70
     1
102
RTVSPropertyOp10
 70
     1
102
RTVSPropertyOp11
 70
     1
102
RTVSPropertyOp12
 70
     1
102
RTVSPropertyOp13
 70
     1
102
RTVSPropertyOp14
 70
     1
102
RTVSPropertyOp15
 70
     1
102
RTVSPropertyOp16
 70
     1
102
RTVSPropertyOp17
 70
     1
102
RTVSPropertyOp18
 70
     1
102
RTVSPropertyOp19
 70
     1
102
RTVSPropertyOp20
 70
     1
102
RTVSPropertyOp21
 70
     1
102
RTVSPropertyOp22
 70
     1
102
RTVSPropertyOp23
 70
     1
102
RTVSPropertyOp24
 70
     1
102
RTVSPropertyOp25
 70
     1
102
RTVSPropertyOp26
 70
     1
102
RTVSPropertyOp27
 70
     1
102
RTVSPropertyOp28
 70
     1
102
RTVSPropertyOp29
 70
     1
102
RTVSPropertyOp30
 70
     1
102
RTVSPropertyOp31
 70
     1
102
RTVSPropertyOp32
 70
     1
  0
XRECORD
  5
52
102
{ACAD_REACTORS
330
51
102
}
330
51
100
AcDbXrecord
280
     1
102
RTVSPropertyOp0
 70
     1
102
RTVSPropertyOp1
 70
     1
102
RTVSPropertyOp2
 70
     1
102
RTVSPropertyOp3
 70
     1
102
RTVSPropertyOp4
 70
     1
102
RTVSPropertyOp5
 70
     1
102
RTVSPropertyOp6
 70
     1
102
RTVSPropertyOp7
 70
     1
102
RTVSPropertyOp8
 70
     1
102
RTVSPropertyOp9
 70
     1
102
RTVSPropertyOp10
 70
     1
102
RTVSPropertyOp11
 70
     1
102
RTVSPropertyOp12
 70
     1
102
RTVSPropertyOp13
 70
     1
102
RTVSPropertyOp14
 70
     1
102
RTVSPropertyOp15
 70
     1
102
RTVSPropertyOp16
 70
     1
102
RTVSPropertyOp17
 70
     1
102
RTVSPropertyOp18
 70
     1
102
RTVSPropertyOp19
 70
     1
102
RTVSPropertyOp20
 70
     1
102
RTVSPropertyOp21
 70
     1
102
RTVSPropertyOp22
 70
     1
102
RTVSPropertyOp23
 70
     1
102
RTVSPropertyOp24
 70
     1
102
RTVSPropertyOp25
 70
     1
102
RTVSPropertyOp26
 70
     1
102
RTVSPropertyOp27
 70
     1
102
RTVSPropertyOp28
 70
     1
102
RTVSPropertyOp29
 70
     1
102
RTVSPropertyOp30
 70
     1
102
RTVSPropertyOp31
 70
     1
102
RTVSPropertyOp32
 70
     1
  0
XRECORD
  5
50
102
{ACAD_REACTORS
330
4F
102
}
330
4F
100
AcDbXrecord
280
     1
102
RTVSPropertyOp0
 70
     1
102
RTVSPropertyOp1
 70
     1
102
RTVSPropertyOp2
 70
     1
102
RTVSPropertyOp3
 70
     1
102
RTVSPropertyOp4
 70
     1
102
RTVSPropertyOp5
 70
     1
102
RTVSPropertyOp6
 70
     1
102
RTVSPropertyOp7
 70
     1
102
RTVSPropertyOp8
 70
     1
102
RTVSPropertyOp9
 70
     1
102
RTVSPropertyOp10
 70
     1
102
RTVSPropertyOp11
 70
     1
102
RTVSPropertyOp12
 70
     1
102
RTVSPropertyOp13
 70
     1
102
RTVSPropertyOp14
 70
     1
102
RTVSPropertyOp15
 70
     1
102
RTVSPropertyOp16
 70
     1
102
RTVSPropertyOp17
 70
     1
102
RTVSPropertyOp18
 70
     1
102
RTVSPropertyOp19
 70
     1
102
RTVSPropertyOp20
 70
     1
102
RTVSPropertyOp21
 70
     1
102
RTVSPropertyOp22
 70
     1
102
RTVSPropertyOp23
 70
     1
102
RTVSPropertyOp24
 70
     1
102
RTVSPropertyOp25
 70
     1
102
RTVSPropertyOp26
 70
     1
102
RTVSPropertyOp27
 70
     1
102
RTVSPropertyOp28
 70
     1
102
RTVSPropertyOp29
 70
     1
102
RTVSPropertyOp30
 70
     1
102
RTVSPropertyOp31
 70
     1
102
RTVSPropertyOp32
 70
     1
  0
XRECORD
  5
54
102
{ACAD_REACTORS
330
53
102
}
330
53
100
AcDbXrecord
280
     1
102
RTVSPropertyOp0
 70
     1
102
RTVSPropertyOp1
 70
     1
102
RTVSPropertyOp2
 70
     1
102
RTVSPropertyOp3
 70
     1
102
RTVSPropertyOp4
 70
     1
102
RTVSPropertyOp5
 70
     1
102
RTVSPropertyOp6
 70
     1
102
RTVSPropertyOp7
 70
     1
102
RTVSPropertyOp8
 70
     1
102
RTVSPropertyOp9
 70
     1
102
RTVSPropertyOp10
 70
     1
102
RTVSPropertyOp11
 70
     1
102
RTVSPropertyOp12
 70
     1
102
RTVSPropertyOp13
 70
     1
102
RTVSPropertyOp14
 70
     1
102
RTVSPropertyOp15
 70
     1
102
RTVSPropertyOp16
 70
     1
102
RTVSPropertyOp17
 70
     1
102
RTVSPropertyOp18
 70
     1
102
RTVSPropertyOp19
 70
     1
102
RTVSPropertyOp20
 70
     1
102
RTVSPropertyOp21
 70
     1
102
RTVSPropertyOp22
 70
     1
102
RTVSPropertyOp23
 70
     1
102
RTVSPropertyOp24
 70
     1
102
RTVSPropertyOp25
 70
     1
102
RTVSPropertyOp26
 70
     1
102
RTVSPropertyOp27
 70
     1
102
RTVSPropertyOp28
 70
     1
102
RTVSPropertyOp29
 70
     1
102
RTVSPropertyOp30
 70
     1
102
RTVSPropertyOp31
 70
     1
102
RTVSPropertyOp32
 70
     1
  0
XRECORD
  5
5C
102
{ACAD_REACTORS
330
5B
102
}
330
5B
100
AcDbXrecord
280
     1
102
RTVSPropertyOp0
 70
     1
102
RTVSPropertyOp1
 70
     1
102
RTVSPropertyOp2
 70
     1
102
RTVSPropertyOp3
 70
     1
102
RTVSPropertyOp4
 70
     1
102
RTVSPropertyOp5
 70
     1
102
RTVSPropertyOp6
 70
     1
102
RTVSPropertyOp7
 70
     1
102
RTVSPropertyOp8
 70
     1
102
RTVSPropertyOp9
 70
     1
102
RTVSPropertyOp10
 70
     1
102
RTVSPropertyOp11
 70
     1
102
RTVSPropertyOp12
 70
     1
102
RTVSPropertyOp13
 70
     1
102
RTVSPropertyOp14
 70
     1
102
RTVSPropertyOp15
 70
     1
102
RTVSPropertyOp16
 70
     1
102
RTVSPropertyOp17
 70
     1
102
RTVSPropertyOp18
 70
     1
102
RTVSPropertyOp19
 70
     1
102
RTVSPropertyOp20
 70
     1
102
RTVSPropertyOp21
 70
     1
102
RTVSPropertyOp22
 70
     1
102
RTVSPropertyOp23
 70
     1
102
RTVSPropertyOp24
 70
     1
102
RTVSPropertyOp25
 70
     1
102
RTVSPropertyOp26
 70
     1
102
RTVSPropertyOp27
 70
     1
102
RTVSPropertyOp28
 70
     1
102
RTVSPropertyOp29
 70
     1
102
RTVSPropertyOp30
 70
     1
102
RTVSPropertyOp31
 70
     1
102
RTVSPropertyOp32
 70
     1
  0
XRECORD
  5
64
102
{ACAD_REACTORS
330
63
102
}
330
63
100
AcDbXrecord
280
     1
102
RTVSPropertyOp0
 70
     1
102
RTVSPropertyOp1
 70
     1
102
RTVSPropertyOp2
 70
     1
102
RTVSPropertyOp3
 70
     1
102
RTVSPropertyOp4
 70
     1
102
RTVSPropertyOp5
 70
     1
102
RTVSPropertyOp6
 70
     1
102
RTVSPropertyOp7
 70
     1
102
RTVSPropertyOp8
 70
     1
102
RTVSPropertyOp9
 70
     1
102
RTVSPropertyOp10
 70
     1
102
RTVSPropertyOp11
 70
     1
102
RTVSPropertyOp12
 70
     1
102
RTVSPropertyOp13
 70
     1
102
RTVSPropertyOp14
 70
     1
102
RTVSPropertyOp15
 70
     1
102
RTVSPropertyOp16
 70
     1
102
RTVSPropertyOp17
 70
     1
102
RTVSPropertyOp18
 70
     1
102
RTVSPropertyOp19
 70
     1
102
RTVSPropertyOp20
 70
     1
102
RTVSPropertyOp21
 70
     1
102
RTVSPropertyOp22
 70
     1
102
RTVSPropertyOp23
 70
     1
102
RTVSPropertyOp24
 70
     1
102
RTVSPropertyOp25
 70
     1
102
RTVSPropertyOp26
 70
     1
102
RTVSPropertyOp27
 70
     1
102
RTVSPropertyOp28
 70
     1
102
RTVSPropertyOp29
 70
     1
102
RTVSPropertyOp30
 70
     1
102
RTVSPropertyOp31
 70
     1
102
RTVSPropertyOp32
 70
     1
  0
XRECORD
  5
58
102
{ACAD_REACTORS
330
57
102
}
330
57
100
AcDbXrecord
280
     1
102
RTVSPropertyOp0
 70
     1
102
RTVSPropertyOp1
 70
     1
102
RTVSPropertyOp2
 70
     1
102
RTVSPropertyOp3
 70
     1
102
RTVSPropertyOp4
 70
     1
102
RTVSPropertyOp5
 70
     1
102
RTVSPropertyOp6
 70
     1
102
RTVSPropertyOp7
 70
     1
102
RTVSPropertyOp8
 70
     1
102
RTVSPropertyOp9
 70
     1
102
RTVSPropertyOp10
 70
     1
102
RTVSPropertyOp11
 70
     1
102
RTVSPropertyOp12
 70
     1
102
RTVSPropertyOp13
 70
     1
102
RTVSPropertyOp14
 70
     1
102
RTVSPropertyOp15
 70
     1
102
RTVSPropertyOp16
 70
     1
102
RTVSPropertyOp17
 70
     1
102
RTVSPropertyOp18
 70
     1
102
RTVSPropertyOp19
 70
     1
102
RTVSPropertyOp20
 70
     1
102
RTVSPropertyOp21
 70
     1
102
RTVSPropertyOp22
 70
     1
102
RTVSPropertyOp23
 70
     1
102
RTVSPropertyOp24
 70
     1
102
RTVSPropertyOp25
 70
     1
102
RTVSPropertyOp26
 70
     1
102
RTVSPropertyOp27
 70
     1
102
RTVSPropertyOp28
 70
     1
102
RTVSPropertyOp29
 70
     1
102
RTVSPropertyOp30
 70
     1
102
RTVSPropertyOp31
 70
     1
102
RTVSPropertyOp32
 70
     1
  0
XRECORD
  5
5A
102
{ACAD_REACTORS
330
59
102
}
330
59
100
AcDbXrecord
280
     1
102
RTVSPropertyOp0
 70
     1
102
RTVSPropertyOp1
 70
     1
102
RTVSPropertyOp2
 70
     1
102
RTVSPropertyOp3
 70
     1
102
RTVSPropertyOp4
 70
     1
102
RTVSPropertyOp5
 70
     1
102
RTVSPropertyOp6
 70
     1
102
RTVSPropertyOp7
 70
     1
102
RTVSPropertyOp8
 70
     1
102
RTVSPropertyOp9
 70
     1
102
RTVSPropertyOp10
 70
     1
102
RTVSPropertyOp11
 70
     1
102
RTVSPropertyOp12
 70
     1
102
RTVSPropertyOp13
 70
     1
102
RTVSPropertyOp14
 70
     1
102
RTVSPropertyOp15
 70
     1
102
RTVSPropertyOp16
 70
     1
102
RTVSPropertyOp17
 70
     1
102
RTVSPropertyOp18
 70
     1
102
RTVSPropertyOp19
 70
     1
102
RTVSPropertyOp20
 70
     1
102
RTVSPropertyOp21
 70
     1
102
RTVSPropertyOp22
 70
     1
102
RTVSPropertyOp23
 70
     1
102
RTVSPropertyOp24
 70
     1
102
RTVSPropertyOp25
 70
     1
102
RTVSPropertyOp26
 70
     1
102
RTVSPropertyOp27
 70
     1
102
RTVSPropertyOp28
 70
     1
102
RTVSPropertyOp29
 70
     1
102
RTVSPropertyOp30
 70
     1
102
RTVSPropertyOp31
 70
     1
102
RTVSPropertyOp32
 70
     1
  0
XRECORD
  5
62
102
{ACAD_REACTORS
330
61
102
}
330
61
100
AcDbXrecord
280
     1
102
RTVSPropertyOp0
 70
     1
102
RTVSPropertyOp1
 70
     1
102
RTVSPropertyOp2
 70
     1
102
RTVSPropertyOp3
 70
     1
102
RTVSPropertyOp4
 70
     1
102
RTVSPropertyOp5
 70
     1
102
RTVSPropertyOp6
 70
     1
102
RTVSPropertyOp7
 70
     1
102
RTVSPropertyOp8
 70
     1
102
RTVSPropertyOp9
 70
     1
102
RTVSPropertyOp10
 70
     1
102
RTVSPropertyOp11
 70
     1
102
RTVSPropertyOp12
 70
     1
102
RTVSPropertyOp13
 70
     1
102
RTVSPropertyOp14
 70
     1
102
RTVSPropertyOp15
 70
     1
102
RTVSPropertyOp16
 70
     1
102
RTVSPropertyOp17
 70
     1
102
RTVSPropertyOp18
 70
     1
102
RTVSPropertyOp19
 70
     1
102
RTVSPropertyOp20
 70
     1
102
RTVSPropertyOp21
 70
     1
102
RTVSPropertyOp22
 70
     1
102
RTVSPropertyOp23
 70
     1
102
RTVSPropertyOp24
 70
     1
102
RTVSPropertyOp25
 70
     1
102
RTVSPropertyOp26
 70
     1
102
RTVSPropertyOp27
 70
     1
102
RTVSPropertyOp28
 70
     1
102
RTVSPropertyOp29
 70
     1
102
RTVSPropertyOp30
 70
     1
102
RTVSPropertyOp31
 70
     1
102
RTVSPropertyOp32
 70
     1
  0
XRECORD
  5
46
102
{ACAD_REACTORS
330
45
102
}
330
45
100
AcDbXrecord
280
     1
102
RTVSPropertyOp0
 70
     1
102
RTVSPropertyOp1
 70
     1
102
RTVSPropertyOp2
 70
     1
102
RTVSPropertyOp3
 70
     1
102
RTVSPropertyOp4
 70
     1
102
RTVSPropertyOp5
 70
     1
102
RTVSPropertyOp6
 70
     1
102
RTVSPropertyOp7
 70
     1
102
RTVSPropertyOp8
 70
     1
102
RTVSPropertyOp9
 70
     1
102
RTVSPropertyOp10
 70
     1
102
RTVSPropertyOp11
 70
     1
102
RTVSPropertyOp12
 70
     1
102
RTVSPropertyOp13
 70
     1
102
RTVSPropertyOp14
 70
     1
102
RTVSPropertyOp15
 70
     1
102
RTVSPropertyOp16
 70
     1
102
RTVSPropertyOp17
 70
     1
102
RTVSPropertyOp18
 70
     1
102
RTVSPropertyOp19
 70
     1
102
RTVSPropertyOp20
 70
     1
102
RTVSPropertyOp21
 70
     1
102
RTVSPropertyOp22
 70
     1
102
RTVSPropertyOp23
 70
     1
102
RTVSPropertyOp24
 70
     1
102
RTVSPropertyOp25
 70
     1
102
RTVSPropertyOp26
 70
     1
102
RTVSPropertyOp27
 70
     1
102
RTVSPropertyOp28
 70
     1
102
RTVSPropertyOp29
 70
     1
102
RTVSPropertyOp30
 70
     1
102
RTVSPropertyOp31
 70
     1
102
RTVSPropertyOp32
 70
     1
  0
XRECORD
  5
48
102
{ACAD_REACTORS
330
47
102
}
330
47
100
AcDbXrecord
280
     1
102
RTVSPropertyOp0
 70
     1
102
RTVSPropertyOp1
 70
     1
102
RTVSPropertyOp2
 70
     1
102
RTVSPropertyOp3
 70
     1
102
RTVSPropertyOp4
 70
     1
102
RTVSPropertyOp5
 70
     1
102
RTVSPropertyOp6
 70
     1
102
RTVSPropertyOp7
 70
     1
102
RTVSPropertyOp8
 70
     1
102
RTVSPropertyOp9
 70
     1
102
RTVSPropertyOp10
 70
     1
102
RTVSPropertyOp11
 70
     1
102
RTVSPropertyOp12
 70
     1
102
RTVSPropertyOp13
 70
     1
102
RTVSPropertyOp14
 70
     1
102
RTVSPropertyOp15
 70
     1
102
RTVSPropertyOp16
 70
     1
102
RTVSPropertyOp17
 70
     1
102
RTVSPropertyOp18
 70
     1
102
RTVSPropertyOp19
 70
     1
102
RTVSPropertyOp20
 70
     1
102
RTVSPropertyOp21
 70
     1
102
RTVSPropertyOp22
 70
     1
102
RTVSPropertyOp23
 70
     1
102
RTVSPropertyOp24
 70
     1
102
RTVSPropertyOp25
 70
     1
102
RTVSPropertyOp26
 70
     1
102
RTVSPropertyOp27
 70
     1
102
RTVSPropertyOp28
 70
     1
102
RTVSPropertyOp29
 70
     1
102
RTVSPropertyOp30
 70
     1
102
RTVSPropertyOp31
 70
     1
102
RTVSPropertyOp32
 70
     1
  0
XRECORD
  5
4A
102
{ACAD_REACTORS
330
49
102
}
330
49
100
AcDbXrecord
280
     1
102
RTVSPropertyOp0
 70
     1
102
RTVSPropertyOp1
 70
     1
102
RTVSPropertyOp2
 70
     1
102
RTVSPropertyOp3
 70
     1
102
RTVSPropertyOp4
 70
     1
102
RTVSPropertyOp5
 70
     1
102
RTVSPropertyOp6
 70
     1
102
RTVSPropertyOp7
 70
     1
102
RTVSPropertyOp8
 70
     1
102
RTVSPropertyOp9
 70
     1
102
RTVSPropertyOp10
 70
     1
102
RTVSPropertyOp11
 70
     1
102
RTVSPropertyOp12
 70
     1
102
RTVSPropertyOp13
 70
     1
102
RTVSPropertyOp14
 70
     1
102
RTVSPropertyOp15
 70
     1
102
RTVSPropertyOp16
 70
     1
102
RTVSPropertyOp17
 70
     1
102
RTVSPropertyOp18
 70
     1
102
RTVSPropertyOp19
 70
     1
102
RTVSPropertyOp20
 70
     1
102
RTVSPropertyOp21
 70
     1
102
RTVSPropertyOp22
 70
     1
102
RTVSPropertyOp23
 70
     1
102
RTVSPropertyOp24
 70
     1
102
RTVSPropertyOp25
 70
     1
102
RTVSPropertyOp26
 70
     1
102
RTVSPropertyOp27
 70
     1
102
RTVSPropertyOp28
 70
     1
102
RTVSPropertyOp29
 70
     1
102
RTVSPropertyOp30
 70
     1
102
RTVSPropertyOp31
 70
     1
102
RTVSPropertyOp32
 70
     1
  0
XRECORD
  5
4C
102
{ACAD_REACTORS
330
4B
102
}
330
4B
100
AcDbXrecord
280
     1
102
RTVSPropertyOp0
 70
     1
102
RTVSPropertyOp1
 70
     1
102
RTVSPropertyOp2
 70
     1
102
RTVSPropertyOp3
 70
     1
102
RTVSPropertyOp4
 70
     1
102
RTVSPropertyOp5
 70
     1
102
RTVSPropertyOp6
 70
     1
102
RTVSPropertyOp7
 70
     1
102
RTVSPropertyOp8
 70
     1
102
RTVSPropertyOp9
 70
     1
102
RTVSPropertyOp10
 70
     1
102
RTVSPropertyOp11
 70
     1
102
RTVSPropertyOp12
 70
     1
102
RTVSPropertyOp13
 70
     1
102
RTVSPropertyOp14
 70
     1
102
RTVSPropertyOp15
 70
     1
102
RTVSPropertyOp16
 70
     1
102
RTVSPropertyOp17
 70
     1
102
RTVSPropertyOp18
 70
     1
102
RTVSPropertyOp19
 70
     1
102
RTVSPropertyOp20
 70
     1
102
RTVSPropertyOp21
 70
     1
102
RTVSPropertyOp22
 70
     1
102
RTVSPropertyOp23
 70
     1
102
RTVSPropertyOp24
 70
     1
102
RTVSPropertyOp25
 70
     1
102
RTVSPropertyOp26
 70
     1
102
RTVSPropertyOp27
 70
     1
102
RTVSPropertyOp28
 70
     1
102
RTVSPropertyOp29
 70
     1
102
RTVSPropertyOp30
 70
     1
102
RTVSPropertyOp31
 70
     1
102
RTVSPropertyOp32
 70
     1
  0
XRECORD
  5
60
102
{ACAD_REACTORS
330
5F
102
}
330
5F
100
AcDbXrecord
280
     1
102
RTVSPropertyOp0
 70
     1
102
RTVSPropertyOp1
 70
     1
102
RTVSPropertyOp2
 70
     1
102
RTVSPropertyOp3
 70
     1
102
RTVSPropertyOp4
 70
     1
102
RTVSPropertyOp5
 70
     1
102
RTVSPropertyOp6
 70
     1
102
RTVSPropertyOp7
 70
     1
102
RTVSPropertyOp8
 70
     1
102
RTVSPropertyOp9
 70
     1
102
RTVSPropertyOp10
 70
     1
102
RTVSPropertyOp11
 70
     1
102
RTVSPropertyOp12
 70
     1
102
RTVSPropertyOp13
 70
     1
102
RTVSPropertyOp14
 70
     1
102
RTVSPropertyOp15
 70
     1
102
RTVSPropertyOp16
 70
     1
102
RTVSPropertyOp17
 70
     1
102
RTVSPropertyOp18
 70
     1
102
RTVSPropertyOp19
 70
     1
102
RTVSPropertyOp20
 70
     1
102
RTVSPropertyOp21
 70
     1
102
RTVSPropertyOp22
 70
     1
102
RTVSPropertyOp23
 70
     1
102
RTVSPropertyOp24
 70
     1
102
RTVSPropertyOp25
 70
     1
102
RTVSPropertyOp26
 70
     1
102
RTVSPropertyOp27
 70
     1
102
RTVSPropertyOp28
 70
     1
102
RTVSPropertyOp29
 70
     1
102
RTVSPropertyOp30
 70
     1
102
RTVSPropertyOp31
 70
     1
102
RTVSPropertyOp32
 70
     1
  0
XRECORD
  5
56
102
{ACAD_REACTORS
330
55
102
}
330
55
100
AcDbXrecord
280
     1
102
RTVSPropertyOp0
 70
     1
102
RTVSPropertyOp1
 70
     1
102
RTVSPropertyOp2
 70
     1
102
RTVSPropertyOp3
 70
     1
102
RTVSPropertyOp4
 70
     1
102
RTVSPropertyOp5
 70
     1
102
RTVSPropertyOp6
 70
     1
102
RTVSPropertyOp7
 70
     1
102
RTVSPropertyOp8
 70
     1
102
RTVSPropertyOp9
 70
     1
102
RTVSPropertyOp10
 70
     1
102
RTVSPropertyOp11
 70
     1
102
RTVSPropertyOp12
 70
     1
102
RTVSPropertyOp13
 70
     1
102
RTVSPropertyOp14
 70
     1
102
RTVSPropertyOp15
 70
     1
102
RTVSPropertyOp16
 70
     1
102
RTVSPropertyOp17
 70
     1
102
RTVSPropertyOp18
 70
     1
102
RTVSPropertyOp19
 70
     1
102
RTVSPropertyOp20
 70
     1
102
RTVSPropertyOp21
 70
     1
102
RTVSPropertyOp22
 70
     1
102
RTVSPropertyOp23
 70
     1
102
RTVSPropertyOp24
 70
     1
102
RTVSPropertyOp25
 70
     1
102
RTVSPropertyOp26
 70
     1
102
RTVSPropertyOp27
 70
     1
102
RTVSPropertyOp28
 70
     1
102
RTVSPropertyOp29
 70
     1
102
RTVSPropertyOp30
 70
     1
102
RTVSPropertyOp31
 70
     1
102
RTVSPropertyOp32
 70
     1
  0
XRECORD
  5
5E
102
{ACAD_REACTORS
330
5D
102
}
330
5D
100
AcDbXrecord
280
     1
102
RTVSPropertyOp0
 70
     1
102
RTVSPropertyOp1
 70
     1
102
RTVSPropertyOp2
 70
     1
102
RTVSPropertyOp3
 70
     1
102
RTVSPropertyOp4
 70
     1
102
RTVSPropertyOp5
 70
     1
102
RTVSPropertyOp6
 70
     1
102
RTVSPropertyOp7
 70
     1
102
RTVSPropertyOp8
 70
     1
102
RTVSPropertyOp9
 70
     1
102
RTVSPropertyOp10
 70
     1
102
RTVSPropertyOp11
 70
     1
102
RTVSPropertyOp12
 70
     1
102
RTVSPropertyOp13
 70
     1
102
RTVSPropertyOp14
 70
     1
102
RTVSPropertyOp15
 70
     1
102
RTVSPropertyOp16
 70
     1
102
RTVSPropertyOp17
 70
     1
102
RTVSPropertyOp18
 70
     1
102
RTVSPropertyOp19
 70
     1
102
RTVSPropertyOp20
 70
     1
102
RTVSPropertyOp21
 70
     1
102
RTVSPropertyOp22
 70
     1
102
RTVSPropertyOp23
 70
     1
102
RTVSPropertyOp24
 70
     1
102
RTVSPropertyOp25
 70
     1
102
RTVSPropertyOp26
 70
     1
102
RTVSPropertyOp27
 70
     1
102
RTVSPropertyOp28
 70
     1
102
RTVSPropertyOp29
 70
     1
102
RTVSPropertyOp30
 70
     1
102
RTVSPropertyOp31
 70
     1
102
RTVSPropertyOp32
 70
     1
  0
ENDSEC
  0
EOF
