<?xml version="1.0" encoding="utf-8"?>
<!-- Generator: Adobe Illustrator 16.0.0, SVG Export Plug-In . SVG Version: 6.00 Build 0)  -->
<!DOCTYPE svg PUBLIC "-//W3C//DTD SVG 1.1//EN" "http://www.w3.org/Graphics/SVG/1.1/DTD/svg11.dtd">
<svg version="1.1" id="Layer_1" xmlns="http://www.w3.org/2000/svg" xmlns:xlink="http://www.w3.org/1999/xlink" x="0px" y="0px"
	 width="226.77px" height="226.77px" viewBox="0 0 226.77 226.77" enable-background="new 0 0 226.77 226.77" xml:space="preserve">
<path fill-rule="evenodd" clip-rule="evenodd" d="M116.336,224.215c-0.898,0-1.798,0-2.696,0c-0.891-0.171-1.406-0.728-1.645-1.582
	c-0.073-0.258-0.194-0.503-0.301-0.751c-0.396-0.933-0.42-0.943-1.396-0.697c-1.563,0.394-2.458-0.171-2.771-1.749
	c-0.032-0.158-0.059-0.318-0.069-0.479c-0.12-1.864-0.391-3.714-0.65-5.563c-0.281-1.998-0.588-3.982-1.809-5.693
	c-0.398-0.56-0.823-0.979-1.529-1.059c-0.525-0.059-0.939-0.325-1.282-0.726c-0.386-0.451-0.772-0.911-1.017-1.452
	c-0.586-1.293-1.022-2.619-0.596-4.063c0.177-0.598,0.521-0.932,1.188-1.079c1.123-0.245,2.138-0.702,2.509-1.988
	c0.191-0.66,0.38-1.31,0.394-1.997c0.066-2.897-0.181-5.782-0.378-8.668c-0.173-2.523-0.212-5.066-0.72-7.558
	c-0.578-2.852-0.34-5.653,0.469-8.419c0.508-1.74,1.114-3.453,1.629-5.193c0.375-1.268,0.906-2.512,0.797-3.883
	c-0.188-2.33-0.551-4.639-0.997-6.931c-0.704-3.618-1.683-7.171-2.659-10.723c-0.979-3.554-1.73-7.16-2.541-10.752
	c-0.174-0.768-0.541-1.198-1.326-1.325c-0.783-0.125-1.516-0.436-2.25-0.732c-2.339-0.943-4.456-2.256-6.402-3.844
	c-1.186-0.966-2.455-1.24-3.926-0.791c-0.647,0.197-1.339,0.275-2.017,0.338c-3.023,0.276-5.99,0.004-8.877-0.986
	c-1.54-0.529-2.978-1.262-4.293-2.215c-1.599-1.158-2.899-2.623-4.123-4.158c0-0.182,0-0.361,0-0.541
	c1.368-0.544,2.649-1.279,3.991-1.873c1.862-0.824,3.657-1.76,5.402-2.802c1.087-0.648,2.244-1.113,3.488-1.394
	c1.837-0.414,3.751-0.506,5.509-1.239c2.79-1.163,5.792-1.524,8.673-2.351c1.623-0.466,3.262-0.871,4.85-1.452
	c0.688-0.252,1.412-0.593,1.668-1.276c0.367-0.976,1.074-1.754,1.448-2.683c1.015-2.525,2.683-4.713,3.644-7.261
	c0.18-0.474,0.23-0.875,0.018-1.335c-1.027-2.232-1.68-4.619-2.878-6.787c-0.796-1.438-1.3-3.039-2.659-4.115
	c-0.363-0.286-0.602-0.709-0.857-1.103c-0.688-1.058-1.271-2.17-1.781-3.322c-0.457-1.033-1.092-1.936-1.948-2.682
	c-0.771-0.672-1.538-1.349-2.289-2.046c-1.957-1.82-3.492-3.9-4.279-6.488c-0.246-0.808-0.485-1.619-0.881-2.372
	c-1.367-2.598-2.448-5.309-3.359-8.103c-1.38-4.235-2.863-8.437-4.311-12.649c-0.301-0.874-0.468-1.763-0.552-2.682
	c-0.189-2.05,0.055-4.095,0.029-6.142c-0.03-2.416,0.257-4.806,0.698-7.176c0.621-3.338,1.5-6.623,2.079-9.97
	c0.198-1.145,0.674-2.129,1.377-3.056c0.936-1.233,2.062-2.316,2.912-3.604c1.039-1.575,2.34-2.903,3.633-4.251
	c1.398-1.455,2.995-2.69,4.434-4.098c0.26-0.254,0.57-0.416,0.921-0.186c0.38,0.252,0.302,0.615,0.169,0.968
	c-0.192,0.514-0.527,0.937-0.89,1.338c-0.385,0.427-0.774,0.85-1.156,1.28c-0.081,0.09-0.181,0.197-0.109,0.333
	c0.06,0.116,0.184,0.103,0.289,0.088c1.661-0.214,3.338-0.11,5.005-0.239c0.361-0.029,0.754-0.069,0.955,0.316
	c0.204,0.395-0.008,0.731-0.26,1.03c-0.311,0.375-0.725,0.583-1.193,0.684c-0.263,0.057-0.533,0.081-0.795,0.14
	c-0.648,0.144-1.295,0.3-1.995,0.464c0.233,0.268,0.445,0.213,0.634,0.222c0.342,0.017,0.685-0.001,1.023,0.028
	c0.313,0.027,0.629,0.103,0.689,0.483c0.059,0.372-0.152,0.614-0.462,0.775c-0.323,0.167-0.676,0.245-1.036,0.272
	c-0.538,0.041-1.076,0.08-1.613,0.097c-2.138,0.065-3.947,1.487-4.507,3.534c-0.393,1.426-1.111,2.638-2.506,3.271
	c-0.826,0.375-1.188,1.003-1.323,1.822c-0.077,0.459-0.126,0.927-0.135,1.393c-0.058,2.859,0.155,5.71,0.367,8.56
	c0.276,3.707,0.684,7.407,0.354,11.133c-0.172,1.945,0.371,3.724,1.292,5.422c2.074,3.823,4.025,7.709,5.769,11.695
	c0.288,0.655,0.657,1.241,1.257,1.65c1.47,1.002,2.951,1.987,4.25,3.218c0.351,0.333,0.758,0.323,1.117,0.001
	c0.539-0.479,1.051-0.983,1.469-1.573c0.416-0.587,0.529-1.247,0.4-1.951c-0.255-1.368-0.748-2.622-1.691-3.673
	c-0.326-0.361-0.633-0.738-0.863-1.169c-0.247-0.459-0.564-0.822-1.113-0.934c-0.252-0.051-0.465-0.221-0.59-0.443
	c-0.565-0.992-1.379-1.793-2.053-2.701c-0.307-0.411-0.523-0.86-0.615-1.363c-0.074-0.407-0.002-0.764,0.416-0.95
	c0.385-0.173,0.403-0.454,0.291-0.804c-0.332-1.042-0.678-2.083-0.98-3.135c-0.725-2.526-0.236-4.778,1.655-6.639
	c0.589-0.578,1.188-1.145,1.764-1.736c3.604-3.693,9.458-3.039,11.97,1.36c1.067,1.871,1.475,3.958,1.742,6.069
	c0.058,0.452,0.149,0.798,0.631,0.942c0.582,0.175,0.797,0.654,0.872,1.19c0.223,1.628-0.217,3.17-0.691,4.699
	c-0.069,0.224-0.229,0.432-0.452,0.517c-0.567,0.214-0.597,0.613-0.499,1.132c0.382,2.047,0.823,4.087,0.941,6.175
	c0.059,1.036,0.626,1.726,1.452,2.26c0.302,0.196,0.613,0.257,0.887-0.019c0.733-0.744,1.454-1.491,1.569-2.62
	c0.177-1.763,0.73-3.401,1.707-4.889c0.267-0.406,0.511-0.825,0.786-1.225c1.24-1.798,1.977-3.77,2.162-5.958
	c0.195-2.254,0.412-4.509,0.814-6.739c0.404-2.241,0.029-4.354-0.987-6.381c-0.476-0.948-0.916-1.917-1.181-2.948
	c-0.556-2.141-1.27-4.236-1.816-6.376c-0.787-3.075-1.998-5.997-3.111-8.955c-0.393-1.043-0.675-1.234-1.563-1.095
	c-0.719,0.112-1.395-0.012-2.07-0.204c-0.553-0.159-1.097-0.351-1.651-0.5c-1.196-0.32-2.393-0.469-3.602-0.008
	c-0.414,0.159-0.862,0.249-1.318,0.25c-0.496,0.003-0.944-0.084-1.129-0.627c-0.151-0.447,0.048-0.898,0.553-1.229
	c0.582-0.381,1.237-0.568,1.915-0.685c0.655-0.114,1.319-0.172,1.954-0.387c0.729-0.246,1.038-0.687,0.925-1.309
	c-0.119-0.655-0.572-0.995-1.345-0.948c-0.994,0.063-1.951,0.29-2.842,0.759c-0.365,0.192-0.724,0.413-1.15,0.435
	c-0.384,0.02-0.717-0.086-0.896-0.463c-0.175-0.365-0.021-0.666,0.214-0.936c0.265-0.304,0.626-0.476,0.966-0.678
	c0.758-0.449,1.519-0.891,2.263-1.363c0.479-0.305,0.477-0.632,0.021-0.974c-0.39-0.295-0.847-0.469-1.297-0.651
	c-0.334-0.134-0.669-0.269-0.95-0.5c-0.451-0.371-0.439-0.76,0.021-1.146c0.48-0.221,0.699-0.098,1.078,0
	c1.674,0.23,3.155,0.792,4.191,2.24c0.324,0.454,0.865,0.626,1.435,0.625c0.448-0.001,0.875,0.103,1.202,0.404
	c1.168,1.077,2.599,1.723,3.952,2.5c1.236,0.71,2.389,1.521,3.164,2.78c1.997,3.246,3.954,6.515,5.603,9.954
	c1.606,3.353,3.207,6.71,4.713,10.112c0.511,1.154,0.879,2.313,0.503,3.596c-0.088,0.301-0.059,0.644-0.056,0.965
	c0.053,3.992-0.069,7.979-0.312,11.96c-0.127,2.043-0.244,4.087-0.599,6.109c-0.522,2.978-1.375,5.878-2.03,8.824
	c-0.506,2.271-0.932,4.54-0.69,6.881c0.104,1.006,0.045,2.013-0.037,3.014c-0.074,0.935,0.028,1.832,0.413,2.687
	c0.852,1.901,0.94,3.912,0.751,5.928c-0.309,3.29-0.77,6.564-1.091,9.854c-0.319,3.272-0.482,6.516,0.385,9.742
	c0.359,1.333,0.465,2.725,0.821,4.065c0.163,0.611,0.502,0.963,1.14,1.048c0.301,0.041,0.593,0.144,0.883,0.234
	c2.315,0.725,4.665,1.318,7.036,1.825c0.857,0.183,1.75,0.151,2.598,0.437c1.736,0.586,3.502,1.083,5.281,1.523
	c1.525,0.378,2.91,1.01,4.144,1.983c2.289,1.806,4.34,3.879,6.537,5.787c1.497,1.299,2.73,2.807,3.34,4.742c0,0.432,0,0.863,0,1.295
	c-0.307,1.689-1.325,2.867-2.723,3.774c-0.823,0.536-1.511,1.205-2.031,2.049c-0.729,1.184-1.791,1.965-3.018,2.601
	c-2.58,1.336-5.32,2.27-8.018,3.307c-3.112,1.197-6.193,2.504-9.599,2.717c-2.373,0.147-4.749,0.541-6.829-1.091
	c-0.354-0.279-0.641-0.133-0.792,0.272c-0.138,0.369-0.284,0.738-0.392,1.117c-0.535,1.939-1.039,3.887-1.593,5.82
	c-0.657,2.303-1.677,4.471-2.579,6.683c-1.076,2.634-1.569,5.456-2.594,8.105c-0.726,1.874-1.263,3.821-2.216,5.606
	c-0.268,0.496-0.368,1.04-0.421,1.604c-0.101,1.041-0.017,2.081-0.021,3.121c-0.003,2.105,0.121,4.202,0.29,6.297
	c0.294,3.68,0.247,7.355,0.009,11.035c-0.188,2.905-0.271,5.813-0.25,8.725c0.005,0.631,0.096,1.246,0.556,1.756
	c0.244,0.271,0.268,0.644,0.15,0.973c-0.261,0.725-0.094,1.414,0.085,2.114c0.43,1.661,0.736,3.341,1.336,4.972
	c0.647,1.752,0.549,3.643,0.281,5.492c-0.162,1.121-0.319,2.232-0.187,3.377c0.296,2.551-0.015,5.051-0.747,7.506
	C117.894,223.338,117.359,224.021,116.336,224.215z"/>
</svg>
