  0
SECTION
  2
HEADER
  9
$ACADVER
  1
AC1021
  9
$ACADMAINTVER
 70
    25
  9
$DWGCODEPAGE
  3
ANSI_1252
  9
$INSBASE
 10
0.0
 20
0.0
 30
0.0
  9
$EXTMIN
 10
1.000000000000000E+20
 20
1.000000000000000E+20
 30
1.000000000000000E+20
  9
$EXTMAX
 10
-1.000000000000000E+20
 20
-1.000000000000000E+20
 30
-1.000000000000000E+20
  9
$LIMMIN
 10
0.0
 20
0.0
  9
$LIMMAX
 10
12.0
 20
9.0
  9
$ORTHOMODE
 70
     0
  9
$REGENMODE
 70
     1
  9
$FILLMODE
 70
     1
  9
$QTEXTMODE
 70
     0
  9
$MIRRTEXT
 70
     1
  9
$LTSCALE
 40
1.0
  9
$ATTMODE
 70
     1
  9
$TEXTSIZE
 40
0.2
  9
$TRACEWID
 40
0.05
  9
$TEXTSTYLE
  7
Standard
  9
$CLAYER
  8
0
  9
$CELTYPE
  6
ByLayer
  9
$CECOLOR
 62
   256
  9
$CELTSCALE
 40
1.0
  9
$DISPSILH
 70
     0
  9
$DIMSCALE
 40
1.0
  9
$DIMASZ
 40
0.18
  9
$DIMEXO
 40
0.0625
  9
$DIMDLI
 40
0.38
  9
$DIMRND
 40
0.0
  9
$DIMDLE
 40
0.0
  9
$DIMEXE
 40
0.18
  9
$DIMTP
 40
0.0
  9
$DIMTM
 40
0.0
  9
$DIMTXT
 40
0.18
  9
$DIMCEN
 40
0.09
  9
$DIMTSZ
 40
0.0
  9
$DIMTOL
 70
     0
  9
$DIMLIM
 70
     0
  9
$DIMTIH
 70
     1
  9
$DIMTOH
 70
     1
  9
$DIMSE1
 70
     0
  9
$DIMSE2
 70
     0
  9
$DIMTAD
 70
     0
  9
$DIMZIN
 70
     0
  9
$DIMBLK
  1

  9
$DIMASO
 70
     1
  9
$DIMSHO
 70
     1
  9
$DIMPOST
  1

  9
$DIMAPOST
  1

  9
$DIMALT
 70
     0
  9
$DIMALTD
 70
     2
  9
$DIMALTF
 40
25.4
  9
$DIMLFAC
 40
1.0
  9
$DIMTOFL
 70
     0
  9
$DIMTVP
 40
0.0
  9
$DIMTIX
 70
     0
  9
$DIMSOXD
 70
     0
  9
$DIMSAH
 70
     0
  9
$DIMBLK1
  1

  9
$DIMBLK2
  1

  9
$DIMSTYLE
  2
Standard
  9
$DIMCLRD
 70
     0
  9
$DIMCLRE
 70
     0
  9
$DIMCLRT
 70
     0
  9
$DIMTFAC
 40
1.0
  9
$DIMGAP
 40
0.09
  9
$DIMJUST
 70
     0
  9
$DIMSD1
 70
     0
  9
$DIMSD2
 70
     0
  9
$DIMTOLJ
 70
     1
  9
$DIMTZIN
 70
     0
  9
$DIMALTZ
 70
     0
  9
$DIMALTTZ
 70
     0
  9
$DIMUPT
 70
     0
  9
$DIMDEC
 70
     4
  9
$DIMTDEC
 70
     4
  9
$DIMALTU
 70
     2
  9
$DIMALTTD
 70
     2
  9
$DIMTXSTY
  7
Standard
  9
$DIMAUNIT
 70
     0
  9
$DIMADEC
 70
     0
  9
$DIMALTRND
 40
0.0
  9
$DIMAZIN
 70
     0
  9
$DIMDSEP
 70
    46
  9
$DIMATFIT
 70
     3
  9
$DIMFRAC
 70
     0
  9
$DIMLDRBLK
  1

  9
$DIMLUNIT
 70
     2
  9
$DIMLWD
 70
    -2
  9
$DIMLWE
 70
    -2
  9
$DIMTMOVE
 70
     0
  9
$DIMFXL
 40
1.0
  9
$DIMFXLON
 70
     0
  9
$DIMJOGANG
 40
0.7853981633974483
  9
$DIMTFILL
 70
     0
  9
$DIMTFILLCLR
 70
     0
  9
$DIMARCSYM
 70
     0
  9
$DIMLTYPE
  6

  9
$DIMLTEX1
  6

  9
$DIMLTEX2
  6

  9
$LUNITS
 70
     2
  9
$LUPREC
 70
     4
  9
$SKETCHINC
 40
0.1
  9
$FILLETRAD
 40
0.5
  9
$AUNITS
 70
     0
  9
$AUPREC
 70
     0
  9
$MENU
  1
.
  9
$ELEVATION
 40
0.0
  9
$PELEVATION
 40
0.0
  9
$THICKNESS
 40
0.0
  9
$LIMCHECK
 70
     0
  9
$CHAMFERA
 40
0.5
  9
$CHAMFERB
 40
0.5
  9
$CHAMFERC
 40
1.0
  9
$CHAMFERD
 40
0.0
  9
$SKPOLY
 70
     0
  9
$TDCREATE
 40
2458551.625748229
  9
$TDUCREATE
 40
2458551.334081563
  9
$TDUPDATE
 40
2458551.625748229
  9
$TDUUPDATE
 40
2458551.334081563
  9
$TDINDWG
 40
0.0000000116
  9
$TDUSRTIMER
 40
0.0000000116
  9
$USRTIMER
 70
     1
  9
$ANGBASE
 50
0.0
  9
$ANGDIR
 70
     0
  9
$PDMODE
 70
     0
  9
$PDSIZE
 40
0.0
  9
$PLINEWID
 40
0.0
  9
$SPLFRAME
 70
     0
  9
$SPLINETYPE
 70
     6
  9
$SPLINESEGS
 70
     8
  9
$HANDSEED
  5
66
  9
$SURFTAB1
 70
     6
  9
$SURFTAB2
 70
     6
  9
$SURFTYPE
 70
     6
  9
$SURFU
 70
     6
  9
$SURFV
 70
     6
  9
$UCSBASE
  2

  9
$UCSNAME
  2

  9
$UCSORG
 10
0.0
 20
0.0
 30
0.0
  9
$UCSXDIR
 10
1.0
 20
0.0
 30
0.0
  9
$UCSYDIR
 10
0.0
 20
1.0
 30
0.0
  9
$UCSORTHOREF
  2

  9
$UCSORTHOVIEW
 70
     0
  9
$UCSORGTOP
 10
0.0
 20
0.0
 30
0.0
  9
$UCSORGBOTTOM
 10
0.0
 20
0.0
 30
0.0
  9
$UCSORGLEFT
 10
0.0
 20
0.0
 30
0.0
  9
$UCSORGRIGHT
 10
0.0
 20
0.0
 30
0.0
  9
$UCSORGFRONT
 10
0.0
 20
0.0
 30
0.0
  9
$UCSORGBACK
 10
0.0
 20
0.0
 30
0.0
  9
$PUCSBASE
  2

  9
$PUCSNAME
  2

  9
$PUCSORG
 10
0.0
 20
0.0
 30
0.0
  9
$PUCSXDIR
 10
1.0
 20
0.0
 30
0.0
  9
$PUCSYDIR
 10
0.0
 20
1.0
 30
0.0
  9
$PUCSORTHOREF
  2

  9
$PUCSORTHOVIEW
 70
     0
  9
$PUCSORGTOP
 10
0.0
 20
0.0
 30
0.0
  9
$PUCSORGBOTTOM
 10
0.0
 20
0.0
 30
0.0
  9
$PUCSORGLEFT
 10
0.0
 20
0.0
 30
0.0
  9
$PUCSORGRIGHT
 10
0.0
 20
0.0
 30
0.0
  9
$PUCSORGFRONT
 10
0.0
 20
0.0
 30
0.0
  9
$PUCSORGBACK
 10
0.0
 20
0.0
 30
0.0
  9
$USERI1
 70
     0
  9
$USERI2
 70
     0
  9
$USERI3
 70
     0
  9
$USERI4
 70
     0
  9
$USERI5
 70
     0
  9
$USERR1
 40
0.0
  9
$USERR2
 40
0.0
  9
$USERR3
 40
0.0
  9
$USERR4
 40
0.0
  9
$USERR5
 40
0.0
  9
$WORLDVIEW
 70
     1
  9
$SHADEDGE
 70
     3
  9
$SHADEDIF
 70
    70
  9
$TILEMODE
 70
     1
  9
$MAXACTVP
 70
    64
  9
$PINSBASE
 10
0.0
 20
0.0
 30
0.0
  9
$PLIMCHECK
 70
     0
  9
$PEXTMIN
 10
1.000000000000000E+20
 20
1.000000000000000E+20
 30
1.000000000000000E+20
  9
$PEXTMAX
 10
-1.000000000000000E+20
 20
-1.000000000000000E+20
 30
-1.000000000000000E+20
  9
$PLIMMIN
 10
0.0
 20
0.0
  9
$PLIMMAX
 10
12.0
 20
9.0
  9
$UNITMODE
 70
     0
  9
$VISRETAIN
 70
     1
  9
$PLINEGEN
 70
     0
  9
$PSLTSCALE
 70
     1
  9
$TREEDEPTH
 70
  3020
  9
$CMLSTYLE
  2
Standard
  9
$CMLJUST
 70
     0
  9
$CMLSCALE
 40
1.0
  9
$PROXYGRAPHICS
 70
     1
  9
$MEASUREMENT
 70
     0
  9
$CELWEIGHT
370
    -1
  9
$ENDCAPS
280
     0
  9
$JOINSTYLE
280
     0
  9
$LWDISPLAY
290
     1
  9
$INSUNITS
 70
     1
  9
$HYPERLINKBASE
  1

  9
$STYLESHEET
  1

  9
$XEDIT
290
     1
  9
$CEPSNTYPE
380
     0
  9
$PSTYLEMODE
290
     1
  9
$FINGERPRINTGUID
  2
{8FB25BDA-1EF4-4688-8415-EEF0C09691BA}
  9
$VERSIONGUID
  2
{FAEB1C32-E019-11D5-929B-00C0DF256EC4}
  9
$EXTNAMES
290
     1
  9
$PSVPSCALE
 40
0.0
  9
$OLESTARTUP
290
     0
  9
$SORTENTS
280
   127
  9
$INDEXCTL
280
     0
  9
$HIDETEXT
280
     1
  9
$XCLIPFRAME
290
     0
  9
$HALOGAP
280
     0
  9
$OBSCOLOR
 70
   257
  9
$OBSLTYPE
280
     0
  9
$INTERSECTIONDISPLAY
280
     0
  9
$INTERSECTIONCOLOR
 70
   257
  9
$DIMASSOC
280
     2
  9
$PROJECTNAME
  1

  9
$CAMERADISPLAY
290
     0
  9
$LENSLENGTH
 40
50.0
  9
$CAMERAHEIGHT
 40
0.0
  9
$STEPSPERSEC
 40
2.0
  9
$STEPSIZE
 40
6.0
  9
$3DDWFPREC
 40
2.0
  9
$PSOLWIDTH
 40
0.25
  9
$PSOLHEIGHT
 40
4.0
  9
$LOFTANG1
 40
1.570796326794897
  9
$LOFTANG2
 40
1.570796326794897
  9
$LOFTMAG1
 40
0.0
  9
$LOFTMAG2
 40
0.0
  9
$LOFTPARAM
 70
     7
  9
$LOFTNORMALS
280
     1
  9
$LATITUDE
 40
37.795
  9
$LONGITUDE
 40
-122.394
  9
$NORTHDIRECTION
 40
0.0
  9
$TIMEZONE
 70
 -8000
  9
$LIGHTGLYPHDISPLAY
280
     1
  9
$TILEMODELIGHTSYNCH
280
     1
  9
$CMATERIAL
347
3C
  9
$SOLIDHIST
280
     1
  9
$SHOWHIST
280
     1
  9
$DWFFRAME
280
     2
  9
$DGNFRAME
280
     2
  9
$REALWORLDSCALE
290
     1
  9
$INTERFERECOLOR
 62
   256
  9
$CSHADOW
280
     0
  9
$SHADOWPLANELOCATION
 40
0.0
  0
ENDSEC
  0
SECTION
  2
CLASSES
  0
CLASS
  1
ACDBDICTIONARYWDFLT
  2
AcDbDictionaryWithDefault
  3
ObjectDBX Classes
 90
        0
 91
        4
280
     0
281
     0
  0
CLASS
  1
VISUALSTYLE
  2
AcDbVisualStyle
  3
ObjectDBX Classes
 90
     4095
 91
        4
280
     0
281
     0
  0
CLASS
  1
MATERIAL
  2
AcDbMaterial
  3
ObjectDBX Classes
 90
     1153
 91
        4
280
     0
281
     0
  0
CLASS
  1
SUN
  2
AcDbSun
  3
SCENEOE
 90
     1024
 91
        4
280
     0
281
     0
  0
ENDSEC
  0
SECTION
  2
TABLES
  0
TABLE
  2
VPORT
  5
8
330
0
100
AcDbSymbolTable
 70
     1
  0
VPORT
  5
29
330
8
100
AcDbSymbolTableRecord
100
AcDbViewportTableRecord
  2
*Active
 70
     0
 10
0.0
 20
0.0
 11
1.0
 21
1.0
 12
0.0
 22
0.0
 13
0.0
 23
0.0
 14
0.5
 24
0.5
 15
0.5
 25
0.5
 16
0.0
 26
0.0
 36
1.0
 17
39.99961911841359
 27
-39.99962012888904
 37
0.0
 40
79.99924025777808
 41
0.9999999747378738
 42
50.0
 43
0.0
 44
0.0
 50
0.0
 51
0.0
 71
     0
 72
   100
 73
     1
 74
     3
 75
     0
 76
     0
 77
     0
 78
     0
281
     0
 65
     1
110
0.0
120
0.0
130
0.0
111
1.0
121
0.0
131
0.0
112
0.0
122
1.0
132
0.0
 79
     0
146
0.0
 60
     3
 61
     5
292
     1
282
     1
141
0.0
142
0.0
 63
   250
361
3F
  0
ENDTAB
  0
TABLE
  2
LTYPE
  5
5
330
0
100
AcDbSymbolTable
 70
     1
  0
LTYPE
  5
14
330
5
100
AcDbSymbolTableRecord
100
AcDbLinetypeTableRecord
  2
ByBlock
 70
     0
  3

 72
    65
 73
     0
 40
0.0
  0
LTYPE
  5
15
330
5
100
AcDbSymbolTableRecord
100
AcDbLinetypeTableRecord
  2
ByLayer
 70
     0
  3

 72
    65
 73
     0
 40
0.0
  0
LTYPE
  5
16
330
5
100
AcDbSymbolTableRecord
100
AcDbLinetypeTableRecord
  2
Continuous
 70
     0
  3
Solid line
 72
    65
 73
     0
 40
0.0
  0
ENDTAB
  0
TABLE
  2
LAYER
  5
2
330
0
100
AcDbSymbolTable
 70
     2
  0
LAYER
  5
10
330
2
100
AcDbSymbolTableRecord
100
AcDbLayerTableRecord
  2
0
 70
     0
 62
     7
  6
Continuous
370
    -3
390
F
347
3E
  0
LAYER
  5
40
330
2
100
AcDbSymbolTableRecord
100
AcDbLayerTableRecord
  2
Layer 1
 70
     0
 62
     7
  6
Continuous
370
    -3
390
F
347
3E
  0
ENDTAB
  0
TABLE
  2
STYLE
  5
3
330
0
100
AcDbSymbolTable
 70
     1
  0
STYLE
  5
11
330
3
100
AcDbSymbolTableRecord
100
AcDbTextStyleTableRecord
  2
Standard
 70
     0
 40
0.0
 41
1.0
 50
0.0
 71
     0
 42
0.2
  3
txt
  4

  0
ENDTAB
  0
TABLE
  2
VIEW
  5
6
330
0
100
AcDbSymbolTable
 70
     0
  0
ENDTAB
  0
TABLE
  2
UCS
  5
7
330
0
100
AcDbSymbolTable
 70
     0
  0
ENDTAB
  0
TABLE
  2
APPID
  5
9
330
0
100
AcDbSymbolTable
 70
     1
  0
APPID
  5
12
330
9
100
AcDbSymbolTableRecord
100
AcDbRegAppTableRecord
  2
ACAD
 70
     0
  0
ENDTAB
  0
TABLE
  2
DIMSTYLE
  5
A
330
0
100
AcDbSymbolTable
 70
     1
100
AcDbDimStyleTable
  0
DIMSTYLE
105
27
330
A
100
AcDbSymbolTableRecord
100
AcDbDimStyleTableRecord
  2
Standard
 70
     0
178
     0
340
11
  0
ENDTAB
  0
TABLE
  2
BLOCK_RECORD
  5
1
330
0
100
AcDbSymbolTable
 70
     1
  0
BLOCK_RECORD
  5
1F
330
1
100
AcDbSymbolTableRecord
100
AcDbBlockTableRecord
  2
*Model_Space
340
22
 70
     0
280
     1
281
     0
  0
BLOCK_RECORD
  5
1B
330
1
100
AcDbSymbolTableRecord
100
AcDbBlockTableRecord
  2
*Paper_Space
340
1E
 70
     0
280
     1
281
     0
  0
BLOCK_RECORD
  5
23
330
1
100
AcDbSymbolTableRecord
100
AcDbBlockTableRecord
  2
*Paper_Space0
340
26
 70
     0
280
     1
281
     0
  0
ENDTAB
  0
ENDSEC
  0
SECTION
  2
BLOCKS
  0
BLOCK
  5
20
330
1F
100
AcDbEntity
  8
0
100
AcDbBlockBegin
  2
*Model_Space
 70
     0
 10
0.0
 20
0.0
 30
0.0
  3
*Model_Space
  1

  0
ENDBLK
  5
21
330
1F
100
AcDbEntity
  8
0
100
AcDbBlockEnd
  0
BLOCK
  5
1C
330
1B
100
AcDbEntity
 67
     1
  8
0
100
AcDbBlockBegin
  2
*Paper_Space
 70
     0
 10
0.0
 20
0.0
 30
0.0
  3
*Paper_Space
  1

  0
ENDBLK
  5
1D
330
1B
100
AcDbEntity
 67
     1
  8
0
100
AcDbBlockEnd
  0
BLOCK
  5
24
330
23
100
AcDbEntity
  8
0
100
AcDbBlockBegin
  2
*Paper_Space0
 70
     0
 10
0.0
 20
0.0
 30
0.0
  3
*Paper_Space0
  1

  0
ENDBLK
  5
25
330
23
100
AcDbEntity
  8
0
100
AcDbBlockEnd
  0
ENDSEC
  0
SECTION
  2
ENTITIES
  0
SPLINE
  5
41
330
1F
100
AcDbEntity
  8
Layer 1
370
     0
100
AcDbSpline
210
0.0
220
0.0
230
1.0
 70
    11
 71
     3
 72
   491
 73
   487
 74
     0
 42
0.0000000001
 43
0.0000000001
 12
1.0
 22
0.0
 32
0.0
 13
1.0
 23
0.0
 33
0.0
 40
0.0
 40
0.0
 40
0.0
 40
0.0
 40
1.0
 40
1.0
 40
1.0
 40
2.0
 40
2.0
 40
2.0
 40
3.0
 40
3.0
 40
3.0
 40
4.0
 40
4.0
 40
4.0
 40
5.0
 40
5.0
 40
5.0
 40
6.0
 40
6.0
 40
6.0
 40
7.0
 40
7.0
 40
7.0
 40
8.0
 40
8.0
 40
8.0
 40
9.0
 40
9.0
 40
9.0
 40
10.0
 40
10.0
 40
10.0
 40
11.0
 40
11.0
 40
11.0
 40
12.0
 40
12.0
 40
12.0
 40
13.0
 40
13.0
 40
13.0
 40
14.0
 40
14.0
 40
14.0
 40
15.0
 40
15.0
 40
15.0
 40
16.0
 40
16.0
 40
16.0
 40
17.0
 40
17.0
 40
17.0
 40
18.0
 40
18.0
 40
18.0
 40
19.0
 40
19.0
 40
19.0
 40
20.0
 40
20.0
 40
20.0
 40
21.0
 40
21.0
 40
21.0
 40
22.0
 40
22.0
 40
22.0
 40
23.0
 40
23.0
 40
23.0
 40
24.0
 40
24.0
 40
24.0
 40
25.0
 40
25.0
 40
25.0
 40
26.0
 40
26.0
 40
26.0
 40
27.0
 40
27.0
 40
27.0
 40
28.0
 40
28.0
 40
28.0
 40
29.0
 40
29.0
 40
29.0
 40
30.0
 40
30.0
 40
30.0
 40
31.0
 40
31.0
 40
31.0
 40
32.0
 40
32.0
 40
32.0
 40
33.0
 40
33.0
 40
33.0
 40
34.0
 40
34.0
 40
34.0
 40
35.0
 40
35.0
 40
35.0
 40
36.0
 40
36.0
 40
36.0
 40
37.0
 40
37.0
 40
37.0
 40
38.0
 40
38.0
 40
38.0
 40
39.0
 40
39.0
 40
39.0
 40
40.0
 40
40.0
 40
40.0
 40
41.0
 40
41.0
 40
41.0
 40
42.0
 40
42.0
 40
42.0
 40
43.0
 40
43.0
 40
43.0
 40
44.0
 40
44.0
 40
44.0
 40
45.0
 40
45.0
 40
45.0
 40
46.0
 40
46.0
 40
46.0
 40
47.0
 40
47.0
 40
47.0
 40
48.0
 40
48.0
 40
48.0
 40
49.0
 40
49.0
 40
49.0
 40
50.0
 40
50.0
 40
50.0
 40
51.0
 40
51.0
 40
51.0
 40
52.0
 40
52.0
 40
52.0
 40
53.0
 40
53.0
 40
53.0
 40
54.0
 40
54.0
 40
54.0
 40
55.0
 40
55.0
 40
55.0
 40
56.0
 40
56.0
 40
56.0
 40
57.0
 40
57.0
 40
57.0
 40
58.0
 40
58.0
 40
58.0
 40
59.0
 40
59.0
 40
59.0
 40
60.0
 40
60.0
 40
60.0
 40
61.0
 40
61.0
 40
61.0
 40
62.0
 40
62.0
 40
62.0
 40
63.0
 40
63.0
 40
63.0
 40
64.0
 40
64.0
 40
64.0
 40
65.0
 40
65.0
 40
65.0
 40
66.0
 40
66.0
 40
66.0
 40
67.0
 40
67.0
 40
67.0
 40
68.0
 40
68.0
 40
68.0
 40
69.0
 40
69.0
 40
69.0
 40
70.0
 40
70.0
 40
70.0
 40
71.0
 40
71.0
 40
71.0
 40
72.0
 40
72.0
 40
72.0
 40
73.0
 40
73.0
 40
73.0
 40
74.0
 40
74.0
 40
74.0
 40
75.0
 40
75.0
 40
75.0
 40
76.0
 40
76.0
 40
76.0
 40
77.0
 40
77.0
 40
77.0
 40
78.0
 40
78.0
 40
78.0
 40
79.0
 40
79.0
 40
79.0
 40
80.0
 40
80.0
 40
80.0
 40
81.0
 40
81.0
 40
81.0
 40
82.0
 40
82.0
 40
82.0
 40
83.0
 40
83.0
 40
83.0
 40
84.0
 40
84.0
 40
84.0
 40
85.0
 40
85.0
 40
85.0
 40
86.0
 40
86.0
 40
86.0
 40
87.0
 40
87.0
 40
87.0
 40
88.0
 40
88.0
 40
88.0
 40
89.0
 40
89.0
 40
89.0
 40
90.0
 40
90.0
 40
90.0
 40
91.0
 40
91.0
 40
91.0
 40
92.0
 40
92.0
 40
92.0
 40
93.0
 40
93.0
 40
93.0
 40
94.0
 40
94.0
 40
94.0
 40
95.0
 40
95.0
 40
95.0
 40
96.0
 40
96.0
 40
96.0
 40
97.0
 40
97.0
 40
97.0
 40
98.0
 40
98.0
 40
98.0
 40
99.0
 40
99.0
 40
99.0
 40
100.0
 40
100.0
 40
100.0
 40
101.0
 40
101.0
 40
101.0
 40
102.0
 40
102.0
 40
102.0
 40
103.0
 40
103.0
 40
103.0
 40
104.0
 40
104.0
 40
104.0
 40
105.0
 40
105.0
 40
105.0
 40
106.0
 40
106.0
 40
106.0
 40
107.0
 40
107.0
 40
107.0
 40
108.0
 40
108.0
 40
108.0
 40
109.0
 40
109.0
 40
109.0
 40
110.0
 40
110.0
 40
110.0
 40
111.0
 40
111.0
 40
111.0
 40
112.0
 40
112.0
 40
112.0
 40
113.0
 40
113.0
 40
113.0
 40
114.0
 40
114.0
 40
114.0
 40
115.0
 40
115.0
 40
115.0
 40
116.0
 40
116.0
 40
116.0
 40
117.0
 40
117.0
 40
117.0
 40
118.0
 40
118.0
 40
118.0
 40
119.0
 40
119.0
 40
119.0
 40
120.0
 40
120.0
 40
120.0
 40
121.0
 40
121.0
 40
121.0
 40
122.0
 40
122.0
 40
122.0
 40
123.0
 40
123.0
 40
123.0
 40
124.0
 40
124.0
 40
124.0
 40
125.0
 40
125.0
 40
125.0
 40
126.0
 40
126.0
 40
126.0
 40
127.0
 40
127.0
 40
127.0
 40
128.0
 40
128.0
 40
128.0
 40
129.0
 40
129.0
 40
129.0
 40
130.0
 40
130.0
 40
130.0
 40
131.0
 40
131.0
 40
131.0
 40
132.0
 40
132.0
 40
132.0
 40
133.0
 40
133.0
 40
133.0
 40
134.0
 40
134.0
 40
134.0
 40
135.0
 40
135.0
 40
135.0
 40
136.0
 40
136.0
 40
136.0
 40
137.0
 40
137.0
 40
137.0
 40
138.0
 40
138.0
 40
138.0
 40
139.0
 40
139.0
 40
139.0
 40
140.0
 40
140.0
 40
140.0
 40
141.0
 40
141.0
 40
141.0
 40
142.0
 40
142.0
 40
142.0
 40
143.0
 40
143.0
 40
143.0
 40
144.0
 40
144.0
 40
144.0
 40
145.0
 40
145.0
 40
145.0
 40
146.0
 40
146.0
 40
146.0
 40
147.0
 40
147.0
 40
147.0
 40
148.0
 40
148.0
 40
148.0
 40
149.0
 40
149.0
 40
149.0
 40
150.0
 40
150.0
 40
150.0
 40
151.0
 40
151.0
 40
151.0
 40
152.0
 40
152.0
 40
152.0
 40
153.0
 40
153.0
 40
153.0
 40
154.0
 40
154.0
 40
154.0
 40
155.0
 40
155.0
 40
155.0
 40
156.0
 40
156.0
 40
156.0
 40
157.0
 40
157.0
 40
157.0
 40
158.0
 40
158.0
 40
158.0
 40
159.0
 40
159.0
 40
159.0
 40
160.0
 40
160.0
 40
160.0
 40
161.0
 40
161.0
 40
161.0
 40
162.0
 40
162.0
 40
162.0
 40
162.0
 10
61.4694448206727
 20
-18.76576693975304
 30
0.0
 10
61.14425427341345
 20
-18.50344138426314
 30
0.0
 10
60.72910539511589
 20
-18.58041749535478
 30
0.0
 10
60.53102220708973
 20
-18.94698888415201
 30
0.0
 10
60.44039206914825
 20
-19.11406443966589
 30
0.0
 10
60.32326984991406
 20
-19.25842110629649
 30
0.0
 10
60.19545846428591
 20
-19.39621610626194
 30
0.0
 10
59.76619998505819
 20
-19.8589194394796
 30
0.0
 10
59.39447654027622
 20
-20.36533193935317
 30
0.0
 10
59.05686821555599
 20
-20.89760305033108
 30
0.0
 10
58.90009377511119
 20
-21.14497082804716
 30
0.0
 10
58.71890711306699
 20
-21.37544055021175
 30
0.0
 10
58.5115090628026
 20
-21.58301499460417
 30
0.0
 10
58.2562037915382
 20
-21.83916693898453
 30
0.0
 10
57.93891546629956
 20
-21.98952082783611
 30
0.0
 10
57.60095436381056
 20
-22.10512610558492
 30
0.0
 10
57.26645048345558
 20
-22.21932027222301
 30
0.0
 10
56.92880831910099
 20
-22.3342199944163
 30
0.0
 10
56.67251383194149
 20
-22.59467582768452
 30
0.0
 10
56.41343383855118
 20
-22.85820082761874
 30
0.0
 10
56.16020995612257
 20
-23.13001610532875
 30
0.0
 10
55.95729218352165
 20
-23.43940221636234
 30
0.0
 10
55.69133302364017
 20
-23.84626082737172
 30
0.0
 10
55.75956024412177
 20
-24.21438443839072
 30
0.0
 10
56.13265801238103
 20
-24.52098360498101
 30
0.0
 10
56.2942302304812
 20
-24.65380443828093
 30
0.0
 10
56.46165855954308
 20
-24.78143943824923
 30
0.0
 10
56.61187133348862
 20
-24.9262899937683
 30
0.0
 10
56.82064521705124
 20
-25.1261033270519
 30
0.0
 10
56.81997493929056
 20
-25.2665088825724
 30
0.0
 10
56.65872022118229
 20
-25.5062919380679
 30
0.0
 10
56.06238609709533
 20
-26.39426888229036
 30
0.0
 10
55.48947498612752
 20
-27.29875582650872
 30
0.0
 10
54.87073665568644
 20
-28.17071665962408
 30
0.0
 10
54.31398278100153
 20
-28.95497693720585
 30
0.0
 10
54.13209056341976
 20
-29.82919554809818
 30
0.0
 10
54.10729165313985
 20
-30.76144610342072
 30
0.0
 10
54.09282776425484
 20
-31.31403721439358
 30
0.0
 10
54.15311611843891
 20
-31.86387665870067
 30
0.0
 10
54.14930611853611
 20
-32.41576221411832
 30
0.0
 10
54.14793028523788
 20
-32.63709499184088
 30
0.0
 10
54.13448945224745
 20
-32.85606415845263
 30
0.0
 10
54.08249000912962
 20
-33.07221110284291
 30
0.0
 10
53.99979890012813
 20
-33.41588721386831
 30
0.0
 10
53.79515251646021
 20
-33.6303408249258
 30
0.0
 10
53.44928919195058
 20
-33.71955832490332
 30
0.0
 10
53.03036559152711
 20
-33.82757888043186
 30
0.0
 10
52.59902421364265
 20
-33.8506505470929
 30
0.0
 10
52.17459728002624
 20
-33.91422110263249
 30
0.0
 10
51.81423609815756
 20
-33.9681255470634
 30
0.0
 10
51.45249646511523
 20
-34.00929471371995
 30
0.0
 10
51.09111091877939
 20
-34.05303915815339
 30
0.0
 10
51.04528508661517
 20
-34.05854249148525
 30
0.0
 10
50.98259647710338
 20
-34.07801582481396
 30
0.0
 10
50.95363342228674
 20
-34.02859165815946
 30
0.0
 10
50.92470564524697
 20
-33.97881471372752
 30
0.0
 10
50.97501175507466
 20
-33.93626971373809
 30
0.0
 10
50.99945925445095
 20
-33.89594721374811
 30
0.0
 10
51.5193478522986
 20
-33.04674054729387
 30
0.0
 10
51.90863812014476
 20
-32.14221832529766
 30
0.0
 10
52.11914061477439
 20
-31.16777554776345
 30
0.0
 10
52.21111109805834
 20
-30.74214915898121
 30
0.0
 10
52.25760588901963
 20
-30.30943193686718
 30
0.0
 10
52.21350866792242
 20
-29.86965915919921
 30
0.0
 10
52.18080616875672
 20
-29.54221082594763
 30
0.0
 10
52.06573006058145
 20
-29.26884332601617
 30
0.0
 10
51.81733923358509
 20
-29.04317138162825
 30
0.0
 10
51.55998785126179
 20
-28.80959721501981
 30
0.0
 10
51.55928229572423
 20
-28.74623832614662
 30
0.0
 10
51.75704951290099
 20
-28.45579638177479
 30
0.0
 10
51.89967756481781
 20
-28.24635221516067
 30
0.0
 10
52.05747506079206
 20
-28.04738554854364
 30
0.0
 10
52.20352505706601
 20
-27.8399874930401
 30
0.0
 10
52.50497498687395
 20
-27.41175054870249
 30
0.0
 10
52.70651559978921
 20
-26.94650721548546
 30
0.0
 10
52.70168254435696
 20
-26.41166082673034
 30
0.0
 10
52.69857809999171
 20
-26.11536277124888
 30
0.0
 10
52.62453004632528
 20
-25.85010916020401
 30
0.0
 10
52.38337116358886
 20
-25.64408693803335
 30
0.0
 10
52.21248561239296
 20
-25.49782527140323
 30
0.0
 10
52.07398506037085
 20
-25.31558027144882
 30
0.0
 10
51.88934117619262
 20
-25.18071332703802
 30
0.0
 10
51.62683923844516
 20
-24.98915499375269
 30
0.0
 10
51.33399841258282
 20
-24.9142249937713
 30
0.0
 10
51.01427592073961
 20
-24.95264249376176
 30
0.0
 10
50.77382259354076
 20
-24.98142916042138
 30
0.0
 10
50.53506387625505
 20
-25.02672582707659
 30
0.0
 10
50.29460927243318
 20
-25.05911082706854
 30
0.0
 10
49.95114483675124
 20
-25.10543054927919
 30
0.0
 10
49.63763123363852
 20
-25.23084304924771
 30
0.0
 10
49.32824513042051
 20
-25.38451304920954
 30
0.0
 10
48.65197014767372
 20
-25.72039277134763
 30
0.0
 10
47.98948877568614
 20
-26.08470638236757
 30
0.0
 10
47.2873916548447
 20
-26.36943332674083
 30
0.0
 10
46.40131853842596
 20
-26.7293019377622
 30
0.0
 10
45.65166577977342
 20
-27.31082082650573
 30
0.0
 10
44.94127718678583
 20
-27.93128638190603
 30
0.0
 10
44.35146803516645
 20
-28.44665943733275
 30
0.0
 10
43.71893749574809
 20
-28.9126083261053
 30
0.0
 10
43.15533973234889
 20
-29.45676804819133
 30
0.0
 10
42.40533419592757
 20
-30.1809149924548
 30
0.0
 10
41.62467227139948
 20
-30.8744408256148
 30
0.0
 10
40.94081256662397
 20
-31.66490999208364
 30
0.0
 10
40.91361340065121
 20
-31.69641304763151
 30
0.0
 10
40.89396367893029
 20
-31.75430388095036
 30
0.0
 10
40.84196423581246
 20
-31.73380749206652
 30
0.0
 10
40.79268118151423
 20
-31.71451054762701
 30
0.0
 10
40.81060229216813
 20
-31.65679610319705
 30
0.0
 10
40.80957923663868
 20
-31.6151330476517
 30
0.0
 10
40.78855368161953
 20
-30.83997443673444
 30
0.0
 10
41.00283089837508
 20
-30.12203638135835
 30
0.0
 10
41.34322616746865
 20
-29.43524860375237
 30
0.0
 10
41.43071505412551
 20
-29.25850693712982
 30
0.0
 10
41.57955199477281
 20
-29.14223138160332
 30
0.0
 10
41.75110782372939
 20
-29.06144527051231
 30
0.0
 10
42.51797613749828
 20
-28.69988332615846
 30
0.0
 10
42.90797196088199
 20
-28.05239499298702
 30
0.0
 10
43.12708332255156
 20
-27.27240332651527
 30
0.0
 10
43.16430028767584
 20
-27.13975888210391
 30
0.0
 10
43.20081387808895
 20
-27.00609138213743
 30
0.0
 10
43.22801195271709
 20
-26.87104804883775
 30
0.0
 10
43.30692833959266
 20
-26.47918249338035
 30
0.0
 10
43.53083638943584
 20
-26.17547610456718
 30
0.0
 10
43.7750997165375
 20
-25.8676774935332
 30
0.0
 10
44.41623803351403
 20
-25.05963999373518
 30
0.0
 10
45.21686717975495
 20
-24.39126721612431
 30
0.0
 10
45.79669272051792
 20
-23.52999554967306
 30
0.0
 10
46.04991660294653
 20
-23.153793327545
 30
0.0
 10
46.29174576344362
 20
-22.77244054986251
 30
0.0
 10
46.48432714741935
 20
-22.36177193885408
 30
0.0
 10
46.74545325186858
 20
-21.80452416121561
 30
0.0
 10
47.07653518786642
 20
-21.28932749467776
 30
0.0
 10
47.43619212313525
 20
-20.79339249480158
 30
0.0
 10
47.91646377754917
 20
-20.13158138385585
 30
0.0
 10
48.26028099099988
 20
-19.39914416181691
 30
0.0
 10
48.58755292709492
 20
-18.65570027311393
 30
0.0
 10
49.01406124954712
 20
-17.68626694002278
 30
0.0
 10
49.42335401688297
 20
-16.70769666248959
 30
0.0
 10
50.03313039021517
 20
-15.83160832937557
 30
0.0
 10
50.1412920541224
 20
-15.67691527385862
 30
0.0
 10
50.22500621865334
 20
-15.50687638501225
 30
0.0
 10
50.27048054298787
 20
-15.32396110728016
 30
0.0
 10
50.35144177098326
 20
-14.99718305180627
 30
0.0
 10
50.48683787864012
 20
-14.68610360743955
 30
0.0
 10
50.54920898816002
 20
-14.35484527418893
 30
0.0
 10
50.62981870832571
 20
-13.92629082985171
 30
0.0
 10
50.50578332070663
 20
-13.51047166328918
 30
0.0
 10
50.46824649022555
 20
-13.0894666633944
 30
0.0
 10
50.39451593655101
 20
-12.27193944137659
 30
0.0
 10
50.06551665415017
 20
-11.53936110822628
 30
0.0
 10
49.7527073418138
 20
-10.7943297195237
 30
0.0
 10
49.47845790436605
 20
-10.14013860857607
 30
0.0
 10
49.10155013620398
 20
-9.542744719836493
 30
0.0
 10
48.7970323661951
 20
-8.906615831106535
 30
0.0
 10
48.75050097849333
 20
-8.809460831130988
 30
0.0
 10
48.67885181365458
 20
-8.728498331151098
 30
0.0
 10
48.57823959399919
 20
-8.688528608938874
 30
0.0
 10
48.23960821374951
 20
-8.554014442305833
 30
0.0
 10
48.0204979415617
 20
-8.260468053490461
 30
0.0
 10
47.73111433783338
 20
-8.060831109095746
 30
0.0
 10
47.64567156223543
 20
-8.001917220221776
 30
0.0
 10
47.70493822739007
 20
-7.959372220232344
 30
0.0
 10
47.75072878177742
 20
-7.919578886909001
 30
0.0
 10
47.97089738727156
 20
-7.727350275845993
 30
0.0
 10
48.19413515935407
 20
-7.538226109226516
 30
0.0
 10
48.41253987600432
 20
-7.344409998163901
 30
0.0
 10
48.52415876204557
 20
-7.245561664855227
 30
0.0
 10
48.6302743148939
 20
-7.140645553770532
 30
0.0
 10
48.73501403444399
 20
-7.035588331574475
 30
0.0
 10
48.79805542172456
 20
-6.97268805381225
 30
0.0
 10
48.84730319824592
 20
-6.898110831608943
 30
0.0
 10
48.87728930859202
 20
-6.813867498296641
 30
0.0
 10
48.89831486361117
 20
-6.75481249831131
 30
0.0
 10
48.91623597426507
 20
-6.694699164993015
 30
0.0
 10
48.91450736319806
 20
-6.637161109451929
 30
0.0
 10
48.91450736319806
 20
-6.637161109451929
 30
0.0
 10
48.91450736319806
 20
-6.637161109451929
 30
0.0
 10
48.91450736319806
 20
-6.637161109451929
 30
0.0
 10
48.95169014002723
 20
-6.460595831718257
 30
0.0
 10
48.73776570104045
 20
-6.256478609547126
 30
0.0
 10
48.73776570104045
 20
-6.256478609547126
 30
0.0
 10
48.44563043071567
 20
-5.991542498502176
 30
0.0
 10
46.66794797606813
 20
-6.17396388734547
 30
0.0
 10
46.66794797606813
 20
-6.17396388734547
 30
0.0
 10
46.17772798857468
 20
-6.279726665096729
 30
0.0
 10
45.68849577883381
 20
-6.386865276181193
 30
0.0
 10
45.20586051336908
 20
-6.528117498367938
 30
0.0
 10
44.27188137053021
 20
-6.801308609410837
 30
0.0
 10
43.54875750008975
 20
-7.364059720381172
 30
0.0
 10
42.96515832259178
 20
-8.120944442414363
 30
0.0
 10
42.79808168590775
 20
-8.337479442359937
 30
0.0
 10
42.602043079798
 20
-8.510940275650078
 30
0.0
 10
42.35608641940621
 20
-8.616879442290218
 30
0.0
 10
41.38559477749885
 20
-9.034427219963714
 30
0.0
 10
40.48745785596778
 20
-9.58924083093602
 30
0.0
 10
39.55157371317751
 20
-10.07346360859263
 30
0.0
 10
38.67774317991523
 20
-10.52579527514641
 30
0.0
 10
37.8434943123098
 20
-11.04067444168434
 30
0.0
 10
37.04441738825151
 20
-11.6153141637628
 30
0.0
 10
36.56520406714392
 20
-11.95997805256547
 30
0.0
 10
36.10027824567184
 20
-12.32189277469741
 30
0.0
 10
35.64018547963201
 20
-12.69086305238297
 30
0.0
 10
35.48499853914671
 20
-12.81525249679605
 30
0.0
 10
35.36184382006643
 20
-12.97096860786845
 30
0.0
 10
35.31721743231605
 20
-13.16129221893193
 30
0.0
 10
35.18767832453641
 20
-13.71166082990534
 30
0.0
 10
34.89487276905408
 20
-14.1901686075637
 30
0.0
 10
34.66835415799959
 20
-14.69799221854768
 30
0.0
 10
34.05529693593068
 20
-16.07223805153764
 30
0.0
 10
33.53646665828266
 20
-17.47714027340859
 30
0.0
 10
33.26602721390585
 20
-18.96402805081455
 30
0.0
 10
33.17437554726184
 20
-19.46994666179933
 30
0.0
 10
33.13683999171579
 20
-19.9817213838934
 30
0.0
 10
33.09704665839244
 20
-20.49247305043234
 30
0.0
 10
33.04585860284978
 20
-21.14617027249117
 30
0.0
 10
32.84879693623228
 20
-21.75541749456103
 30
0.0
 10
32.59991221407226
 20
-22.35453999441125
 30
0.0
 10
32.36908971412992
 20
-22.90952999427276
 30
0.0
 10
32.12154554752527
 20
-23.45816999413553
 30
0.0
 10
31.97842360311652
 20
-24.04625054954387
 30
0.0
 10
31.85008304759302
 20
-24.57301832719024
 30
0.0
 10
31.83269110315304
 20
-25.10715916038983
 30
0.0
 10
31.87488332536471
 20
-25.64151166025615
 30
0.0
 10
31.90656276980114
 20
-26.0425141601559
 30
0.0
 10
31.90141221424672
 20
-26.43903638227924
 30
0.0
 10
31.79462638094034
 20
-26.82384638218302
 30
0.0
 10
31.61961332542844
 20
-27.45415443758088
 30
0.0
 10
31.69316749207662
 20
-28.08717888186698
 30
0.0
 10
31.76636888094736
 20
-28.71399443726603
 30
0.0
 10
31.85696221425809
 20
-29.49123443707169
 30
0.0
 10
32.00061332533316
 20
-30.26205388132325
 30
0.0
 10
32.12189832530272
 20
-31.0353074922413
 30
0.0
 10
32.24007888082873
 20
-31.78739443649751
 30
0.0
 10
32.35169776968993
 20
-32.54117471408686
 30
0.0
 10
32.54597249186351
 20
-33.27805693612501
 30
0.0
 10
32.68087471405216
 20
-33.78933776933061
 30
0.0
 10
32.69773749182549
 20
-34.31314221364384
 30
0.0
 10
32.74564471403575
 20
-34.83440665795803
 30
0.0
 10
32.81489499179639
 20
-35.59231443554634
 30
0.0
 10
32.92305665843598
 20
-36.34560082424688
 30
0.0
 10
33.03139471396445
 20
-37.09849915739213
 30
0.0
 10
33.05690054729134
 20
-37.27457054623701
 30
0.0
 10
33.05725332506911
 20
-37.45043026841515
 30
0.0
 10
33.0558774917359
 20
-37.62699554614883
 30
0.0
 10
33.05379610284781
 20
-37.89933999052516
 30
0.0
 10
32.90686415844
 20
-38.12169582380284
 30
0.0
 10
32.6842966584956
 20
-38.21126610155844
 30
0.0
 10
32.15495360307235
 20
-38.42522582372712
 30
0.0
 10
31.64197943653395
 20
-38.69961637921403
 30
0.0
 10
31.06116610334595
 20
-38.76491554586426
 30
0.0
 10
30.48186971460188
 20
-38.82982665695921
 30
0.0
 10
29.90842943696743
 20
-38.81141165696379
 30
0.0
 10
29.33396610377753
 20
-38.69428943477073
 30
0.0
 10
28.4263394373378
 20
-38.50893999037279
 30
0.0
 10
27.49927471534752
 20
-38.42727193483769
 30
0.0
 10
26.60043221557206
 20
-38.19524999045134
 30
0.0
 10
25.48371416029566
 20
-37.90706582385647
 30
0.0
 10
24.37320499390664
 20
-37.59598637948976
 30
0.0
 10
23.27610138307
 20
-37.24112721291208
 30
0.0
 10
22.72386304987458
 20
-37.06251582406784
 30
0.0
 10
22.3836441610708
 20
-37.28850526845569
 30
0.0
 10
22.35298777218949
 20
-37.87383415719827
 30
0.0
 10
22.34039360552616
 20
-38.11361721269377
 30
0.0
 10
22.45254166105369
 20
-38.29790832375875
 30
0.0
 10
22.59001916101922
 20
-38.47447360149242
 30
0.0
 10
22.79706443874532
 20
-38.74078554587025
 30
0.0
 10
22.92092471649208
 20
-39.04360999023902
 30
0.0
 10
22.99497277202907
 20
-39.37038804571291
 30
0.0
 10
23.03476610535241
 20
-39.54469554566929
 30
0.0
 10
22.99980582758324
 20
-39.71039526785029
 30
0.0
 10
22.95330971648404
 20
-39.87577749003104
 30
0.0
 10
22.93556499426597
 20
-39.93934804557063
 30
0.0
 10
22.91058832760573
 20
-40.00118998999957
 30
0.0
 10
22.8905858276107
 20
-40.06423137887283
 30
0.0
 10
22.74555888320241
 20
-40.52188998986959
 30
0.0
 10
22.85269749428688
 20
-40.76717637869695
 30
0.0
 10
23.2872844386226
 20
-40.97319860086793
 30
0.0
 10
23.34207082749791
 20
-40.99940998975035
 30
0.0
 10
23.3947758274845
 20
-41.03073665640902
 30
0.0
 10
23.45146721635934
 20
-41.05176221195949
 30
0.0
 10
24.0767305495363
 20
-41.28604193412313
 30
0.0
 10
24.07415527175909
 20
-41.89306665619355
 30
0.0
 10
23.80131693849428
 20
-42.31541221164306
 30
0.0
 10
23.47937193857456
 20
-42.813569711519
 30
0.0
 10
23.68796943852243
 20
-43.68965804463302
 30
0.0
 10
24.45413221610869
 20
-43.84435110014997
 30
0.0
 10
24.67617054938645
 20
-43.88880110013893
 30
0.0
 10
24.89803249377564
 20
-43.931875266795
 30
0.0
 10
25.12592693816302
 20
-43.92704221124019
 30
0.0
 10
25.1757391603728
 20
-43.92598387790755
 30
0.0
 10
25.22533971591585
 20
-43.92704221124019
 30
0.0
 10
25.27511666034779
 20
-43.92841804457372
 30
0.0
 10
25.7906661046634
 20
-43.94288193345873
 30
0.0
 10
26.02924971571489
 20
-44.24810526671582
 30
0.0
 10
25.90934054907823
 20
-44.75247165547883
 30
0.0
 10
25.85060304909281
 20
-44.99846359986171
 30
0.0
 10
25.81719499354574
 20
-45.24166859980065
 30
0.0
 10
25.92863749351773
 20
-45.48078137751848
 30
0.0
 10
26.13137888235598
 20
-45.91554471074339
 30
0.0
 10
26.48055832671323
 20
-46.1467199884635
 30
0.0
 10
26.9523633265954
 20
-46.18425554400923
 30
0.0
 10
27.40589443759286
 20
-46.22009776622248
 30
0.0
 10
27.84309193748363
 20
-46.1532463773508
 30
0.0
 10
28.2527022151591
 20
-45.9396747107374
 30
0.0
 10
28.55348054841729
 20
-45.78290026633204
 30
0.0
 10
28.86628860389466
 20
-45.74328332189725
 30
0.0
 10
29.197688048256
 20
-45.84869332187107
 30
0.0
 10
29.46830388152169
 20
-45.9341360996277
 30
0.0
 10
29.67104527035994
 20
-46.07334221070388
 30
0.0
 10
29.80178471477176
 20
-46.34205304397036
 30
0.0
 10
29.93838027029321
 20
-46.62385193278833
 30
0.0
 10
30.12683415913501
 20
-46.8798274882798
 30
0.0
 10
30.28911193687223
 20
-47.14889109932405
 30
0.0
 10
30.57073443680164
 20
-47.61639221031804
 30
0.0
 10
30.9958669366954
 20
-47.80759776582561
 30
0.0
 10
31.52676221434042
 20
-47.80347026582695
 30
0.0
 10
31.81046610315856
 20
-47.80209443249407
 30
0.0
 10
31.81201832538032
 20
-47.8055163769372
 30
0.0
 10
31.72879804762347
 20
-48.07112276576015
 30
0.0
 10
31.56172249210959
 20
-48.60445221007134
 30
0.0
 10
31.45200860324823
 20
-49.15185748771226
 30
0.0
 10
31.37189276993491
 20
-49.70271998757448
 30
0.0
 10
31.24528082552206
 20
-50.57605665402272
 30
0.0
 10
30.99209221447419
 20
-51.41185776492459
 30
0.0
 10
30.70457832565732
 20
-52.24279054249477
 30
0.0
 10
30.50666999237325
 20
-52.81436109790722
 30
0.0
 10
30.30410499242388
 20
-53.38381498665373
 30
0.0
 10
30.16458138134778
 20
-53.97810443094978
 30
0.0
 10
30.00953554805307
 20
-54.63681109745198
 30
0.0
 10
29.84055499253999
 20
-55.29516498617642
 30
0.0
 10
29.66176721480686
 20
-55.9490385971238
 30
0.0
 10
29.46763360374433
 20
-56.66080304139067
 30
0.0
 10
29.08331749272903
 20
-57.28264443012386
 30
0.0
 10
28.68817110393922
 20
-57.89552526330422
 30
0.0
 10
27.97884082633852
 20
-58.99657998525063
 30
0.0
 10
27.38539804870935
 20
-60.16240470718161
 30
0.0
 10
26.75960554886575
 20
-61.31030831800564
 30
0.0
 10
26.07574582681442
 20
-62.56499776213637
 30
0.0
 10
25.42427110475505
 20
-63.83831387292958
 30
0.0
 10
24.63433110495254
 20
-65.03239609485321
 30
0.0
 10
24.47275888277084
 20
-65.27630665034768
 30
0.0
 10
24.29393582725988
 20
-65.50677637251226
 30
0.0
 10
24.09913193841966
 20
-65.72588665023538
 30
0.0
 10
23.77270666072353
 20
-66.0927755390322
 30
0.0
 10
23.5136266607882
 20
-66.513780538927
 30
0.0
 10
23.17757054976124
 20
-66.87414303883716
 30
0.0
 10
22.94434916093057
 20
-67.12355692766381
 30
0.0
 10
22.69920388321393
 20
-67.36161137204836
 30
0.0
 10
22.46238416105092
 20
-67.60725053865347
 30
0.0
 10
22.07394055003697
 20
-68.0099816496642
 30
0.0
 10
21.71220221679424
 20
-68.42788220511545
 30
0.0
 10
21.4117766613138
 20
-68.90120414944123
 30
0.0
 10
20.93549138365489
 20
-69.65156248258711
 30
0.0
 10
20.35570110602234
 20
-70.33129470463915
 30
0.0
 10
19.90181721724679
 20
-71.09576414889293
 30
0.0
 10
19.62224082842763
 20
-71.56703998210845
 30
0.0
 10
19.32576638405729
 20
-72.02318164866097
 30
0.0
 10
18.96095888414854
 20
-72.43314470411387
 30
0.0
 10
18.82813805084863
 20
-72.5826519262989
 30
0.0
 10
18.7254797175409
 20
-72.75216164847862
 30
0.0
 10
18.65090249533727
 20
-72.938534148432
 30
0.0
 10
18.60299527312702
 20
-73.03568914840787
 30
0.0
 10
18.60955693979216
 20
-73.08151498172971
 30
0.0
 10
18.65090249533727
 20
-73.23652553724627
 30
0.0
 10
18.72805499531811
 20
-73.41118581498041
 30
0.0
 10
18.7976580508562
 20
-73.59000887049137
 30
0.0
 10
18.9276919397125
 20
-73.7360588704551
 30
0.0
 10
19.02742221746526
 20
-73.8483833148715
 30
0.0
 10
19.14320388410296
 20
-73.93724803707126
 30
0.0
 10
19.28029332851321
 20
-73.99824331483364
 30
0.0
 10
19.41621860625697
 20
-74.0809344259245
 30
0.0
 10
19.50458943956825
 20
-74.03510859260265
 30
0.0
 10
19.61119888398607
 20
-73.99824331483364
 30
0.0
 10
19.94591443945799
 20
-73.81254109265825
 30
0.0
 10
20.21187360605806
 20
-73.53419942606094
 30
0.0
 10
20.53208999486713
 20
-73.32609581500155
 30
0.0
 10
21.02696666141002
 20
-73.0046799817488
 30
0.0
 10
21.5141174946216
 20
-72.67084637072128
 30
0.0
 10
21.96281555006489
 20
-72.28430775970686
 30
0.0
 10
22.21741527222348
 20
-72.06449192642823
 30
0.0
 10
22.48319804993467
 20
-71.85642359314701
 30
0.0
 10
22.76778388319689
 20
-71.67590720430356
 30
0.0
 10
23.16998582754098
 20
-71.4202844265892
 30
0.0
 10
23.58305332743742
 20
-71.16808359331927
 30
0.0
 10
24.06745249398323
 20
-71.12917220444001
 30
0.0
 10
24.49653610498709
 20
-71.09435303778189
 30
0.0
 10
24.90614638266223
 20
-71.00894553780341
 30
0.0
 10
25.30355054922966
 20
-70.85012498228717
 30
0.0
 10
25.74191221578658
 20
-70.6754294267755
 30
0.0
 10
26.16429304901458
 20
-70.47424026015933
 30
0.0
 10
26.49036554893295
 20
-70.11804053802598
 30
0.0
 10
26.64403554889446
 20
-69.95061220473467
 30
0.0
 10
26.78751027108097
 20
-69.74698887145233
 30
0.0
 10
26.72513915998539
 20
-69.52547970484058
 30
0.0
 10
26.65779388222458
 20
-69.28499109378988
 30
0.0
 10
26.58804971557513
 20
-69.02732220496527
 30
0.0
 10
26.47727749338082
 20
-68.81442081612988
 30
0.0
 10
26.34445666008058
 20
-68.55982109397128
 30
0.0
 10
26.31778666008721
 20
-68.33002164958405
 30
0.0
 10
26.36978610451859
 20
-68.0726702607597
 30
0.0
 10
26.48831943782238
 20
-67.48596553868424
 30
0.0
 10
26.82109471551693
 20
-67.00918637213653
 30
0.0
 10
27.18438527098175
 20
-66.55579637224979
 30
0.0
 10
27.74678360417433
 20
-65.85436831686991
 30
0.0
 10
28.33796860402652
 20
-65.17639998370605
 30
0.0
 10
28.88816082611137
 20
-64.46463553943917
 30
0.0
 10
29.35015860377351
 20
-63.86586581736671
 30
0.0
 10
29.8355455480966
 20
-63.2870985952896
 30
0.0
 10
30.4095149923977
 20
-62.78823553985877
 30
0.0
 10
30.83584693673547
 20
-62.41824220661777
 30
0.0
 10
31.2244669366383
 20
-62.01480554005217
 30
0.0
 10
31.52898471433987
 20
-61.53319331795028
 30
0.0
 10
32.06090304754034
 20
-60.69224165149335
 30
0.0
 10
32.4198897141173
 20
-59.77276165172366
 30
0.0
 10
32.771291658474
 20
-58.8491188741765
 30
0.0
 10
33.00299610286043
 20
-58.24071831877321
 30
0.0
 10
33.22348221391642
 20
-57.62819026337061
 30
0.0
 10
33.41020749164757
 20
-57.00391470797126
 30
0.0
 10
33.61587693604046
 20
-56.31730331925416
 30
0.0
 10
33.96830193595228
 20
-55.70135331940779
 30
0.0
 10
34.30040693586947
 20
-55.07192720845402
 30
0.0
 10
34.85694915795243
 20
-54.01772137538457
 30
0.0
 10
35.42178076298175
 20
-52.96972443120217
 30
0.0
 10
36.08084019061219
 20
-51.97407970922892
 30
0.0
 10
36.92041600252616
 20
-50.70630220954543
 30
0.0
 10
37.62854681779357
 20
-49.36475887654766
 30
0.0
 10
38.26968610154361
 20
-47.98740859911417
 30
0.0
 10
38.80777706548668
 20
-46.83227304384732
 30
0.0
 10
39.34780927393153
 20
-45.67784304413598
 30
0.0
 10
39.88646665669516
 20
-44.52235471109136
 30
0.0
 10
39.92453037032926
 20
-44.44103943333403
 30
0.0
 10
39.96450009153178
 20
-44.36801443335217
 30
0.0
 10
40.05957370021736
 20
-44.33598221113797
 30
0.0
 10
40.77063257096562
 20
-44.09344748897639
 30
0.0
 10
41.43932283168369
 20
-43.74617304461898
 30
0.0
 10
42.13835198051663
 20
-43.47435776690897
 30
0.0
 10
43.45297833586661
 20
-42.96240665592602
 30
0.0
 10
44.58158609996557
 20
-42.18555471167564
 30
0.0
 10
45.52487744967473
 20
-41.14062693415925
 30
0.0
 10
45.75982744368066
 20
-40.88020637866888
 30
0.0
 10
46.02853827015861
 20
-40.70381748982409
 30
0.0
 10
46.3744368724451
 20
-40.63696610095177
 30
0.0
 10
46.51981659095838
 20
-40.60941415651463
 30
0.0
 10
46.65969297627873
 20
-40.55222887875066
 30
0.0
 10
46.79921658383029
 20
-40.49952387876375
 30
0.0
 10
48.56896153868034
 20
-39.82582415671022
 30
0.0
 10
50.3583222096325
 20
-39.21347249019651
 30
0.0
 10
52.18010061321917
 20
-38.69601804588169
 30
0.0
 10
53.99154390033874
 20
-38.18163276823226
 30
0.0
 10
55.7099610971835
 20
-37.46559971285569
 30
0.0
 10
57.25748992812862
 20
-36.37160054646257
 30
0.0
 10
57.53861853206755
 20
-36.17281026873442
 30
0.0
 10
57.74806269339085
 20
-35.93129860212827
 30
0.0
 10
57.87276963465375
 20
-35.61436304665194
 30
0.0
 10
58.06503351863758
 20
-35.12756499121812
 30
0.0
 10
58.05123990787838
 20
-34.61854193578981
 30
0.0
 10
58.01402185327233
 20
-34.11142388036104
 30
0.0
 10
57.96890157664567
 20
-33.5092322138448
 30
0.0
 10
57.95923546578116
 20
-32.91116804732786
 30
0.0
 10
58.09258546237912
 20
-32.31758415858734
 30
0.0
 10
58.3805932328092
 20
-31.0353074922413
 30
0.0
 10
58.56626017251689
 20
-29.73634443701049
 30
0.0
 10
58.7388743347798
 20
-28.43445332622471
 30
0.0
 10
58.82466988814653
 20
-27.7845308263871
 30
0.0
 10
58.92768099662961
 20
-27.14081721543688
 30
0.0
 10
59.17847220742761
 20
-26.52190388225834
 30
0.0
 10
59.55707181390585
 20
-25.58827749360292
 30
0.0
 10
60.0948815224074
 20
-24.73716582714915
 30
0.0
 10
60.52135456708272
 20
-23.82869249404285
 30
0.0
 10
60.67294317432648
 20
-23.50621832745682
 30
0.0
 10
60.81557122624329
 20
-23.18910638309161
 30
0.0
 10
60.88136428012033
 20
-22.83960943873443
 30
0.0
 10
60.93272872325436
 20
-22.56677110546929
 30
0.0
 10
61.01333844342005
 20
-22.30476304997932
 30
0.0
 10
61.14767776249098
 20
-22.05965305004052
 30
0.0
 10
61.2296970490114
 20
-21.90891110563398
 30
0.0
 10
61.28688232533026
 20
-21.74751527234084
 30
0.0
 10
61.31132982470655
 20
-21.57610055016159
 30
0.0
 10
61.40813204445914
 20
-20.89622721699819
 30
0.0
 10
61.61898887348403
 20
-20.24475249493882
 30
0.0
 10
61.80296092327511
 20
-19.58622221732582
 30
0.0
 10
61.80296092327511
 20
-19.48702110623939
 30
0.0
 10
61.80296092327511
 20
-19.38778471737543
 30
0.0
 10
61.80296092327511
 20
-19.28840721740011
 30
0.0
 10
61.73473370279351
 20
-19.08668888411731
 30
0.0
 10
61.63997759409983
 20
-18.90324443971857
 30
0.0
 10
61.4694448206727
 20
-18.76576693975304
 30
0.0
  0
SPLINE
  5
42
330
1F
100
AcDbEntity
  8
Layer 1
370
     0
100
AcDbSpline
210
0.0
220
0.0
230
1.0
 70
    11
 71
     3
 72
   194
 73
   190
 74
     0
 42
0.0000000001
 43
0.0000000001
 12
1.0
 22
0.0
 32
0.0
 13
1.0
 23
0.0
 33
0.0
 40
0.0
 40
0.0
 40
0.0
 40
0.0
 40
1.0
 40
1.0
 40
1.0
 40
2.0
 40
2.0
 40
2.0
 40
3.0
 40
3.0
 40
3.0
 40
4.0
 40
4.0
 40
4.0
 40
5.0
 40
5.0
 40
5.0
 40
6.0
 40
6.0
 40
6.0
 40
7.0
 40
7.0
 40
7.0
 40
8.0
 40
8.0
 40
8.0
 40
9.0
 40
9.0
 40
9.0
 40
10.0
 40
10.0
 40
10.0
 40
11.0
 40
11.0
 40
11.0
 40
12.0
 40
12.0
 40
12.0
 40
13.0
 40
13.0
 40
13.0
 40
14.0
 40
14.0
 40
14.0
 40
15.0
 40
15.0
 40
15.0
 40
16.0
 40
16.0
 40
16.0
 40
17.0
 40
17.0
 40
17.0
 40
18.0
 40
18.0
 40
18.0
 40
19.0
 40
19.0
 40
19.0
 40
20.0
 40
20.0
 40
20.0
 40
21.0
 40
21.0
 40
21.0
 40
22.0
 40
22.0
 40
22.0
 40
23.0
 40
23.0
 40
23.0
 40
24.0
 40
24.0
 40
24.0
 40
25.0
 40
25.0
 40
25.0
 40
26.0
 40
26.0
 40
26.0
 40
27.0
 40
27.0
 40
27.0
 40
28.0
 40
28.0
 40
28.0
 40
29.0
 40
29.0
 40
29.0
 40
30.0
 40
30.0
 40
30.0
 40
31.0
 40
31.0
 40
31.0
 40
32.0
 40
32.0
 40
32.0
 40
33.0
 40
33.0
 40
33.0
 40
34.0
 40
34.0
 40
34.0
 40
35.0
 40
35.0
 40
35.0
 40
36.0
 40
36.0
 40
36.0
 40
37.0
 40
37.0
 40
37.0
 40
38.0
 40
38.0
 40
38.0
 40
39.0
 40
39.0
 40
39.0
 40
40.0
 40
40.0
 40
40.0
 40
41.0
 40
41.0
 40
41.0
 40
42.0
 40
42.0
 40
42.0
 40
43.0
 40
43.0
 40
43.0
 40
44.0
 40
44.0
 40
44.0
 40
45.0
 40
45.0
 40
45.0
 40
46.0
 40
46.0
 40
46.0
 40
47.0
 40
47.0
 40
47.0
 40
48.0
 40
48.0
 40
48.0
 40
49.0
 40
49.0
 40
49.0
 40
50.0
 40
50.0
 40
50.0
 40
51.0
 40
51.0
 40
51.0
 40
52.0
 40
52.0
 40
52.0
 40
53.0
 40
53.0
 40
53.0
 40
54.0
 40
54.0
 40
54.0
 40
55.0
 40
55.0
 40
55.0
 40
56.0
 40
56.0
 40
56.0
 40
57.0
 40
57.0
 40
57.0
 40
58.0
 40
58.0
 40
58.0
 40
59.0
 40
59.0
 40
59.0
 40
60.0
 40
60.0
 40
60.0
 40
61.0
 40
61.0
 40
61.0
 40
62.0
 40
62.0
 40
62.0
 40
63.0
 40
63.0
 40
63.0
 40
63.0
 10
40.28902036103035
 20
-13.26412694112854
 30
0.0
 10
39.87799999003049
 20
-13.32512221889092
 30
0.0
 10
39.52419815832037
 20
-13.49770110773666
 30
0.0
 10
39.21587038840868
 20
-13.77625444100038
 30
0.0
 10
38.96317567263324
 20
-14.00464277427655
 30
0.0
 10
38.67428595778121
 20
-14.19584832978444
 30
0.0
 10
38.50064873998884
 20
-14.5033294408185
 30
0.0
 10
38.47500276815907
 20
-14.54813221858522
 30
0.0
 10
38.42056818647631
 20
-14.57741277413332
 30
0.0
 10
38.37802318756172
 20
-14.61166749634697
 30
0.0
 10
38.33907652188867
 20
-14.64250027411716
 30
0.0
 10
38.28224402333859
 20
-14.66147971855674
 30
0.0
 10
38.26019541278998
 20
-14.70056749632488
 30
0.0
 10
38.08913347270969
 20
-15.00113416291636
 30
0.0
 10
37.76083848108519
 20
-15.13843527399301
 30
0.0
 10
37.54776070874349
 20
-15.39543388503993
 30
0.0
 10
37.46990265517425
 20
-15.48916694057203
 30
0.0
 10
37.41409321215363
 20
-15.5828647183266
 30
0.0
 10
37.41733876762638
 20
-15.70637221829561
 30
0.0
 10
37.41822071204832
 20
-15.73392416273306
 30
0.0
 10
37.42753404514406
 20
-15.77234166272352
 30
0.0
 10
37.41356404550046
 20
-15.78765221827542
 30
0.0
 10
37.19117294006302
 20
-16.02863471821492
 30
0.0
 10
37.39116265718308
 20
-16.33371694036097
 30
0.0
 10
37.2900565486514
 20
-16.59297332918518
 30
0.0
 10
37.27679210454536
 20
-16.6260286069545
 30
0.0
 10
37.27626387956981
 20
-16.67753416249741
 30
0.0
 10
37.29351377078542
 20
-16.70646194026775
 30
0.0
 10
37.41769154539516
 20
-16.91350721799385
 30
0.0
 10
37.43353126721328
 20
-17.16553166237523
 30
0.0
 10
37.56998570817648
 20
-17.36622694010291
 30
0.0
 10
37.59838431856308
 20
-17.40841916231458
 30
0.0
 10
37.62544237342833
 20
-17.44870638452673
 30
0.0
 10
37.62646542895779
 20
-17.50091749562483
 30
0.0
 10
37.62921709555425
 20
-17.61803971781757
 30
0.0
 10
37.67899403872877
 20
-17.71244305112735
 30
0.0
 10
37.76203887944851
 20
-17.79305277332948
 30
0.0
 10
37.8814179224534
 20
-17.90848166218941
 30
0.0
 10
37.92773764349391
 20
-18.05417888437537
 30
0.0
 10
37.91189792167579
 20
-18.21525721766827
 30
0.0
 10
37.83816736800126
 20
-18.96007693970446
 30
0.0
 10
37.70139542704616
 20
-19.69011527285539
 30
0.0
 10
37.37239487988411
 20
-20.37101166157391
 30
0.0
 10
37.25576654952621
 20
-20.61252332818006
 30
0.0
 10
37.11158627542678
 20
-20.83230388368084
 30
0.0
 10
36.86975711492969
 20
-20.97031055031302
 30
0.0
 10
36.79274572800552
 20
-21.01405499474646
 30
0.0
 10
36.73196211844513
 20
-21.03575082807429
 30
0.0
 10
36.74092267377208
 20
-20.90793943921743
 30
0.0
 10
36.77295489517709
 20
-20.45543138377509
 30
0.0
 10
36.69096934171316
 20
-20.01636416166264
 30
0.0
 10
36.57123656699002
 20
-19.58449360621486
 30
0.0
 10
36.38158323849515
 20
-18.89858777305328
 30
0.0
 10
36.46737879186188
 20
-18.23007388433136
 30
0.0
 10
36.66493434237737
 20
-17.56293582894266
 30
0.0
 10
36.83684294910273
 20
-16.98120527353241
 30
0.0
 10
37.10022776850278
 20
-16.42226416256113
 30
0.0
 10
37.18309432915801
 20
-15.81989610715601
 30
0.0
 10
37.26507988262194
 20
-15.2228549961942
 30
0.0
 10
37.57651209689887
 20
-14.84093777406755
 30
0.0
 10
38.09724736139158
 20
-14.57776555191109
 30
0.0
 10
38.52961179480549
 20
-14.35932555196566
 30
0.0
 10
38.85342650876651
 20
-13.99190749650187
 30
0.0
 10
39.22842927697717
 20
-13.69426888546536
 30
0.0
 10
40.22354480714521
 20
-12.90446999677389
 30
0.0
 10
41.0627678412904
 20
-11.93965805257052
 30
0.0
 10
42.08148420418967
 20
-11.17794027498315
 30
0.0
 10
42.30645058733919
 20
-11.00931249724783
 30
0.0
 10
42.5241861004798
 20
-10.8291488861815
 30
0.0
 10
42.76671974226341
 20
-10.68634444177299
 30
0.0
 10
43.23457361921636
 20
-10.41124833073057
 30
0.0
 10
43.65833027507209
 20
-10.07621527525872
 30
0.0
 10
44.07725387549557
 20
-9.733950275344379
 30
0.0
 10
44.22880832227599
 20
-9.609419719819932
 30
0.0
 10
44.40798303372463
 20
-9.555127219833418
 30
0.0
 10
44.60088191769226
 20
-9.56394666427553
 30
0.0
 10
44.87375552184179
 20
-9.576329164272455
 30
0.0
 10
45.13763329288748
 20
-9.510006942067097
 30
0.0
 10
45.40704967490299
 20
-9.489157775405502
 30
0.0
 10
45.5296752273301
 20
-9.479526942074667
 30
0.0
 10
45.59860800334926
 20
-9.493461664293358
 30
0.0
 10
45.59860800334926
 20
-9.6502361086984
 30
0.0
 10
45.59825522558048
 20
-9.864513330867327
 30
0.0
 10
45.73227549993912
 20
-9.95478916417813
 30
0.0
 10
45.94447132785888
 20
-9.906211664190195
 30
0.0
 10
46.04025049208202
 20
-9.884163053084597
 30
0.0
 10
46.13052632311223
 20
-9.839713053095638
 30
0.0
 10
46.22422409849958
 20
-9.80662249754848
 30
0.0
 10
46.27865770822197
 20
-9.78750194199753
 30
0.0
 10
46.32758798475143
 20
-9.738254164232234
 30
0.0
 10
46.40269437172419
 20
-9.777871108666696
 30
0.0
 10
46.35891465061889
 20
-9.868640830866301
 30
0.0
 10
46.27865770822197
 20
-9.915666108632148
 30
0.0
 10
46.20079965465274
 20
-9.965125553064166
 30
0.0
 10
46.03749998849063
 20
-10.06813666414966
 30
0.0
 10
45.87282216302014
 20
-10.16888999745786
 30
0.0
 10
45.71227300044942
 20
-10.27620499743088
 30
0.0
 10
45.60308828101274
 20
-10.3495827751905
 30
0.0
 10
45.54036439372407
 20
-10.45068888627615
 30
0.0
 10
45.58583744811951
 20
-10.58763721957536
 30
0.0
 10
45.63236883582128
 20
-10.72751360842922
 30
0.0
 10
45.7426118885643
 20
-10.77866638619436
 30
0.0
 10
45.88107716280954
 20
-10.7838522195263
 30
0.0
 10
46.03852188101501
 20
-10.78953194174704
 30
0.0
 10
46.16908609956869
 20
-10.7228569417636
 30
0.0
 10
46.29312159674186
 20
-10.63399221956384
 30
0.0
 10
46.39129964979268
 20
-10.56350721958135
 30
0.0
 10
46.48983048061228
 20
-10.49168166404381
 30
0.0
 10
46.59527575569992
 20
-10.43276777516952
 30
0.0
 10
46.66621936500111
 20
-10.39332721962394
 30
0.0
 10
46.75959964039656
 20
-10.38059194184925
 30
0.0
 10
46.77752075105047
 20
-10.49168166404381
 30
0.0
 10
46.805072694792
 20
-10.66256721955642
 30
0.0
 10
46.92840380275668
 20
-10.7437061084252
 30
0.0
 10
47.0568854661455
 20
-10.81793055285106
 30
0.0
 10
47.30047851548648
 20
-10.95868888614933
 30
0.0
 10
47.54505934258004
 20
-11.09838888611431
 30
0.0
 10
47.79726016947919
 20
-11.22256666386099
 30
0.0
 10
48.01153738623475
 20
-11.32815305272337
 30
0.0
 10
48.11144405035258
 20
-11.47907138601911
 30
0.0
 10
48.08974821757275
 20
-11.72192360818062
 30
0.0
 10
48.07630738458233
 20
-11.86973749703251
 30
0.0
 10
48.07733044011178
 20
-12.01906833032864
 30
0.0
 10
48.05528182956318
 20
-12.16670583029165
 30
0.0
 10
47.98398544249321
 20
-12.64401416350568
 30
0.0
 10
47.9560807209829
 20
-13.12340388560812
 30
0.0
 10
48.05288294073549
 20
-13.5989836077115
 30
0.0
 10
48.19618127041298
 20
-14.30524471864587
 30
0.0
 10
47.95262349884888
 20
-14.8888449962778
 30
0.0
 10
47.54505934258004
 20
-15.44951471835973
 30
0.0
 10
46.97387685715211
 20
-16.23500971816334
 30
0.0
 10
46.38131603893627
 20
-17.00462971797122
 30
0.0
 10
45.8190941088353
 20
-17.79598082888445
 30
0.0
 10
45.41943332197833
 20
-18.3580616620771
 30
0.0
 10
45.04739273963416
 20
-18.93940416193174
 30
0.0
 10
44.65154080528873
 20
-19.50406027290161
 30
0.0
 10
44.46171108790947
 20
-19.77502888394506
 30
0.0
 10
44.25639442648087
 20
-20.03477916165807
 30
0.0
 10
44.08067581985271
 20
-20.31590777269867
 30
0.0
 10
43.93875332347346
 20
-20.54260277264205
 30
0.0
 10
43.74204443960303
 20
-20.70759693926752
 30
0.0
 10
43.51224500102126
 20
-20.83438527256925
 30
0.0
 10
42.91485112737315
 20
-21.16289193915379
 30
0.0
 10
42.37570086335025
 20
-21.57578305016166
 30
0.0
 10
41.82829559953795
 20
-21.97625638339478
 30
0.0
 10
41.72147449115207
 20
-22.0542908278197
 30
0.0
 10
41.60985560511081
 20
-22.12526971669099
 30
0.0
 10
41.49925977459901
 20
-22.19811832778365
 30
0.0
 10
41.38146727760415
 20
-22.27565888332009
 30
0.0
 10
41.27429443412573
 20
-22.2553036055473
 30
0.0
 10
41.16577894977348
 20
-22.17056638334619
 30
0.0
 10
40.8230200696291
 20
-21.90323138341324
 30
0.0
 10
40.77959312629257
 20
-21.65293555014218
 30
0.0
 10
41.02075200902898
 20
-21.28587027245647
 30
0.0
 10
41.2660383916601
 20
-20.91277249477193
 30
0.0
 10
41.51340616312699
 20
-20.54105055042028
 30
0.0
 10
41.76077498955996
 20
-20.16879943940231
 30
0.0
 10
41.85859920987595
 20
-20.0206680505505
 30
0.0
 10
42.00397892838922
 20
-19.94210443945894
 30
0.0
 10
42.1755347573458
 20
-19.92626471724072
 30
0.0
 10
42.50315947120962
 20
-19.89645499502597
 30
0.0
 10
42.75363168704176
 20
-19.73558832839948
 30
0.0
 10
42.97344751476713
 20
-19.50183777290248
 30
0.0
 10
43.41096250360519
 20
-19.03726471746281
 30
0.0
 10
43.70207471840052
 20
-18.49465721759855
 30
0.0
 10
43.86227221125691
 20
-17.87987138441899
 30
0.0
 10
43.87913388055004
 20
-17.8163008288794
 30
0.0
 10
43.89670221343516
 20
-17.7482852733406
 30
0.0
 10
43.89052860248155
 20
-17.68453832891213
 30
0.0
 10
43.85916665883722
 20
-17.36467471788115
 30
0.0
 10
43.96976248934902
 20
-17.08940221794984
 30
0.0
 10
44.13581498511266
 20
-16.8265474957933
 30
0.0
 10
44.29911581427984
 20
-16.56746749585829
 30
0.0
 10
44.38385303434024
 20
-16.28633888481736
 30
0.0
 10
44.35009220186821
 20
-15.97628249600577
 30
0.0
 10
44.32183470258913
 20
-15.72083610718094
 30
0.0
 10
44.42174136670696
 20
-15.47346832946485
 30
0.0
 10
44.40039831169592
 20
-15.21975055175066
 30
0.0
 10
44.35217359070401
 20
-14.64750971856022
 30
0.0
 10
44.08963637517967
 20
-14.17330582979004
 30
0.0
 10
43.72722777331437
 20
-13.73956555212056
 30
0.0
 10
43.32068667257499
 20
-13.2531202744645
 30
0.0
 10
42.76947140885988
 20
-13.10685860783438
 30
0.0
 10
42.17726336841281
 20
-13.02384999674392
 30
0.0
 10
41.68908949197827
 20
-12.95509360787239
 30
0.0
 10
41.22264672610044
 20
-13.02589610785449
 30
0.0
 10
40.75856757127342
 20
-13.16940610781884
 30
0.0
 10
40.60666146403776
 20
-13.21643138558469
 30
0.0
 10
40.44678257922772
 20
-13.24052610780086
 30
0.0
 10
40.28902036103035
 20
-13.26412694112854
 30
0.0
  0
HATCH
  5
43
330
1F
100
AcDbEntity
  8
Layer 1
 62
     7
100
AcDbHatch
 10
0.0
 20
0.0
 30
0.0
210
0.0
220
0.0
230
1.0
  2
SOLID
 70
     1
 71
     0
 91
        2
 92
        1
 93
        1
 72
     4
 94
        3
 73
     0
 74
     1
 95
      491
 96
      487
 40
0.0
 40
0.0
 40
0.0
 40
0.0
 40
1.0
 40
1.0
 40
1.0
 40
2.0
 40
2.0
 40
2.0
 40
3.0
 40
3.0
 40
3.0
 40
4.0
 40
4.0
 40
4.0
 40
5.0
 40
5.0
 40
5.0
 40
6.0
 40
6.0
 40
6.0
 40
7.0
 40
7.0
 40
7.0
 40
8.0
 40
8.0
 40
8.0
 40
9.0
 40
9.0
 40
9.0
 40
10.0
 40
10.0
 40
10.0
 40
11.0
 40
11.0
 40
11.0
 40
12.0
 40
12.0
 40
12.0
 40
13.0
 40
13.0
 40
13.0
 40
14.0
 40
14.0
 40
14.0
 40
15.0
 40
15.0
 40
15.0
 40
16.0
 40
16.0
 40
16.0
 40
17.0
 40
17.0
 40
17.0
 40
18.0
 40
18.0
 40
18.0
 40
19.0
 40
19.0
 40
19.0
 40
20.0
 40
20.0
 40
20.0
 40
21.0
 40
21.0
 40
21.0
 40
22.0
 40
22.0
 40
22.0
 40
23.0
 40
23.0
 40
23.0
 40
24.0
 40
24.0
 40
24.0
 40
25.0
 40
25.0
 40
25.0
 40
26.0
 40
26.0
 40
26.0
 40
27.0
 40
27.0
 40
27.0
 40
28.0
 40
28.0
 40
28.0
 40
29.0
 40
29.0
 40
29.0
 40
30.0
 40
30.0
 40
30.0
 40
31.0
 40
31.0
 40
31.0
 40
32.0
 40
32.0
 40
32.0
 40
33.0
 40
33.0
 40
33.0
 40
34.0
 40
34.0
 40
34.0
 40
35.0
 40
35.0
 40
35.0
 40
36.0
 40
36.0
 40
36.0
 40
37.0
 40
37.0
 40
37.0
 40
38.0
 40
38.0
 40
38.0
 40
39.0
 40
39.0
 40
39.0
 40
40.0
 40
40.0
 40
40.0
 40
41.0
 40
41.0
 40
41.0
 40
42.0
 40
42.0
 40
42.0
 40
43.0
 40
43.0
 40
43.0
 40
44.0
 40
44.0
 40
44.0
 40
45.0
 40
45.0
 40
45.0
 40
46.0
 40
46.0
 40
46.0
 40
47.0
 40
47.0
 40
47.0
 40
48.0
 40
48.0
 40
48.0
 40
49.0
 40
49.0
 40
49.0
 40
50.0
 40
50.0
 40
50.0
 40
51.0
 40
51.0
 40
51.0
 40
52.0
 40
52.0
 40
52.0
 40
53.0
 40
53.0
 40
53.0
 40
54.0
 40
54.0
 40
54.0
 40
55.0
 40
55.0
 40
55.0
 40
56.0
 40
56.0
 40
56.0
 40
57.0
 40
57.0
 40
57.0
 40
58.0
 40
58.0
 40
58.0
 40
59.0
 40
59.0
 40
59.0
 40
60.0
 40
60.0
 40
60.0
 40
61.0
 40
61.0
 40
61.0
 40
62.0
 40
62.0
 40
62.0
 40
63.0
 40
63.0
 40
63.0
 40
64.0
 40
64.0
 40
64.0
 40
65.0
 40
65.0
 40
65.0
 40
66.0
 40
66.0
 40
66.0
 40
67.0
 40
67.0
 40
67.0
 40
68.0
 40
68.0
 40
68.0
 40
69.0
 40
69.0
 40
69.0
 40
70.0
 40
70.0
 40
70.0
 40
71.0
 40
71.0
 40
71.0
 40
72.0
 40
72.0
 40
72.0
 40
73.0
 40
73.0
 40
73.0
 40
74.0
 40
74.0
 40
74.0
 40
75.0
 40
75.0
 40
75.0
 40
76.0
 40
76.0
 40
76.0
 40
77.0
 40
77.0
 40
77.0
 40
78.0
 40
78.0
 40
78.0
 40
79.0
 40
79.0
 40
79.0
 40
80.0
 40
80.0
 40
80.0
 40
81.0
 40
81.0
 40
81.0
 40
82.0
 40
82.0
 40
82.0
 40
83.0
 40
83.0
 40
83.0
 40
84.0
 40
84.0
 40
84.0
 40
85.0
 40
85.0
 40
85.0
 40
86.0
 40
86.0
 40
86.0
 40
87.0
 40
87.0
 40
87.0
 40
88.0
 40
88.0
 40
88.0
 40
89.0
 40
89.0
 40
89.0
 40
90.0
 40
90.0
 40
90.0
 40
91.0
 40
91.0
 40
91.0
 40
92.0
 40
92.0
 40
92.0
 40
93.0
 40
93.0
 40
93.0
 40
94.0
 40
94.0
 40
94.0
 40
95.0
 40
95.0
 40
95.0
 40
96.0
 40
96.0
 40
96.0
 40
97.0
 40
97.0
 40
97.0
 40
98.0
 40
98.0
 40
98.0
 40
99.0
 40
99.0
 40
99.0
 40
100.0
 40
100.0
 40
100.0
 40
101.0
 40
101.0
 40
101.0
 40
102.0
 40
102.0
 40
102.0
 40
103.0
 40
103.0
 40
103.0
 40
104.0
 40
104.0
 40
104.0
 40
105.0
 40
105.0
 40
105.0
 40
106.0
 40
106.0
 40
106.0
 40
107.0
 40
107.0
 40
107.0
 40
108.0
 40
108.0
 40
108.0
 40
109.0
 40
109.0
 40
109.0
 40
110.0
 40
110.0
 40
110.0
 40
111.0
 40
111.0
 40
111.0
 40
112.0
 40
112.0
 40
112.0
 40
113.0
 40
113.0
 40
113.0
 40
114.0
 40
114.0
 40
114.0
 40
115.0
 40
115.0
 40
115.0
 40
116.0
 40
116.0
 40
116.0
 40
117.0
 40
117.0
 40
117.0
 40
118.0
 40
118.0
 40
118.0
 40
119.0
 40
119.0
 40
119.0
 40
120.0
 40
120.0
 40
120.0
 40
121.0
 40
121.0
 40
121.0
 40
122.0
 40
122.0
 40
122.0
 40
123.0
 40
123.0
 40
123.0
 40
124.0
 40
124.0
 40
124.0
 40
125.0
 40
125.0
 40
125.0
 40
126.0
 40
126.0
 40
126.0
 40
127.0
 40
127.0
 40
127.0
 40
128.0
 40
128.0
 40
128.0
 40
129.0
 40
129.0
 40
129.0
 40
130.0
 40
130.0
 40
130.0
 40
131.0
 40
131.0
 40
131.0
 40
132.0
 40
132.0
 40
132.0
 40
133.0
 40
133.0
 40
133.0
 40
134.0
 40
134.0
 40
134.0
 40
135.0
 40
135.0
 40
135.0
 40
136.0
 40
136.0
 40
136.0
 40
137.0
 40
137.0
 40
137.0
 40
138.0
 40
138.0
 40
138.0
 40
139.0
 40
139.0
 40
139.0
 40
140.0
 40
140.0
 40
140.0
 40
141.0
 40
141.0
 40
141.0
 40
142.0
 40
142.0
 40
142.0
 40
143.0
 40
143.0
 40
143.0
 40
144.0
 40
144.0
 40
144.0
 40
145.0
 40
145.0
 40
145.0
 40
146.0
 40
146.0
 40
146.0
 40
147.0
 40
147.0
 40
147.0
 40
148.0
 40
148.0
 40
148.0
 40
149.0
 40
149.0
 40
149.0
 40
150.0
 40
150.0
 40
150.0
 40
151.0
 40
151.0
 40
151.0
 40
152.0
 40
152.0
 40
152.0
 40
153.0
 40
153.0
 40
153.0
 40
154.0
 40
154.0
 40
154.0
 40
155.0
 40
155.0
 40
155.0
 40
156.0
 40
156.0
 40
156.0
 40
157.0
 40
157.0
 40
157.0
 40
158.0
 40
158.0
 40
158.0
 40
159.0
 40
159.0
 40
159.0
 40
160.0
 40
160.0
 40
160.0
 40
161.0
 40
161.0
 40
161.0
 40
162.0
 40
162.0
 40
162.0
 40
162.0
 10
61.4694448206727
 20
-18.76576693975304
 10
61.14425427341345
 20
-18.50344138426314
 10
60.72910539511589
 20
-18.58041749535478
 10
60.53102220708973
 20
-18.94698888415201
 10
60.44039206914825
 20
-19.11406443966589
 10
60.32326984991406
 20
-19.25842110629649
 10
60.19545846428591
 20
-19.39621610626194
 10
59.76619998505819
 20
-19.8589194394796
 10
59.39447654027622
 20
-20.36533193935317
 10
59.05686821555599
 20
-20.89760305033108
 10
58.90009377511119
 20
-21.14497082804716
 10
58.71890711306699
 20
-21.37544055021175
 10
58.5115090628026
 20
-21.58301499460417
 10
58.2562037915382
 20
-21.83916693898453
 10
57.93891546629956
 20
-21.98952082783611
 10
57.60095436381056
 20
-22.10512610558492
 10
57.26645048345558
 20
-22.21932027222301
 10
56.92880831910099
 20
-22.3342199944163
 10
56.67251383194149
 20
-22.59467582768452
 10
56.41343383855118
 20
-22.85820082761874
 10
56.16020995612257
 20
-23.13001610532875
 10
55.95729218352165
 20
-23.43940221636234
 10
55.69133302364017
 20
-23.84626082737172
 10
55.75956024412177
 20
-24.21438443839072
 10
56.13265801238103
 20
-24.52098360498101
 10
56.2942302304812
 20
-24.65380443828093
 10
56.46165855954308
 20
-24.78143943824923
 10
56.61187133348862
 20
-24.9262899937683
 10
56.82064521705124
 20
-25.1261033270519
 10
56.81997493929056
 20
-25.2665088825724
 10
56.65872022118229
 20
-25.5062919380679
 10
56.06238609709533
 20
-26.39426888229036
 10
55.48947498612752
 20
-27.29875582650872
 10
54.87073665568644
 20
-28.17071665962408
 10
54.31398278100153
 20
-28.95497693720585
 10
54.13209056341976
 20
-29.82919554809818
 10
54.10729165313985
 20
-30.76144610342072
 10
54.09282776425484
 20
-31.31403721439358
 10
54.15311611843891
 20
-31.86387665870067
 10
54.14930611853611
 20
-32.41576221411832
 10
54.14793028523788
 20
-32.63709499184088
 10
54.13448945224745
 20
-32.85606415845263
 10
54.08249000912962
 20
-33.07221110284291
 10
53.99979890012813
 20
-33.41588721386831
 10
53.79515251646021
 20
-33.6303408249258
 10
53.44928919195058
 20
-33.71955832490332
 10
53.03036559152711
 20
-33.82757888043186
 10
52.59902421364265
 20
-33.8506505470929
 10
52.17459728002624
 20
-33.91422110263249
 10
51.81423609815756
 20
-33.9681255470634
 10
51.45249646511523
 20
-34.00929471371995
 10
51.09111091877939
 20
-34.05303915815339
 10
51.04528508661517
 20
-34.05854249148525
 10
50.98259647710338
 20
-34.07801582481396
 10
50.95363342228674
 20
-34.02859165815946
 10
50.92470564524697
 20
-33.97881471372752
 10
50.97501175507466
 20
-33.93626971373809
 10
50.99945925445095
 20
-33.89594721374811
 10
51.5193478522986
 20
-33.04674054729387
 10
51.90863812014476
 20
-32.14221832529766
 10
52.11914061477439
 20
-31.16777554776345
 10
52.21111109805834
 20
-30.74214915898121
 10
52.25760588901963
 20
-30.30943193686718
 10
52.21350866792242
 20
-29.86965915919921
 10
52.18080616875672
 20
-29.54221082594763
 10
52.06573006058145
 20
-29.26884332601617
 10
51.81733923358509
 20
-29.04317138162825
 10
51.55998785126179
 20
-28.80959721501981
 10
51.55928229572423
 20
-28.74623832614662
 10
51.75704951290099
 20
-28.45579638177479
 10
51.89967756481781
 20
-28.24635221516067
 10
52.05747506079206
 20
-28.04738554854364
 10
52.20352505706601
 20
-27.8399874930401
 10
52.50497498687395
 20
-27.41175054870249
 10
52.70651559978921
 20
-26.94650721548546
 10
52.70168254435696
 20
-26.41166082673034
 10
52.69857809999171
 20
-26.11536277124888
 10
52.62453004632528
 20
-25.85010916020401
 10
52.38337116358886
 20
-25.64408693803335
 10
52.21248561239296
 20
-25.49782527140323
 10
52.07398506037085
 20
-25.31558027144882
 10
51.88934117619262
 20
-25.18071332703802
 10
51.62683923844516
 20
-24.98915499375269
 10
51.33399841258282
 20
-24.9142249937713
 10
51.01427592073961
 20
-24.95264249376176
 10
50.77382259354076
 20
-24.98142916042138
 10
50.53506387625505
 20
-25.02672582707659
 10
50.29460927243318
 20
-25.05911082706854
 10
49.95114483675124
 20
-25.10543054927919
 10
49.63763123363852
 20
-25.23084304924771
 10
49.32824513042051
 20
-25.38451304920954
 10
48.65197014767372
 20
-25.72039277134763
 10
47.98948877568614
 20
-26.08470638236757
 10
47.2873916548447
 20
-26.36943332674083
 10
46.40131853842596
 20
-26.7293019377622
 10
45.65166577977342
 20
-27.31082082650573
 10
44.94127718678583
 20
-27.93128638190603
 10
44.35146803516645
 20
-28.44665943733275
 10
43.71893749574809
 20
-28.9126083261053
 10
43.15533973234889
 20
-29.45676804819133
 10
42.40533419592757
 20
-30.1809149924548
 10
41.62467227139948
 20
-30.8744408256148
 10
40.94081256662397
 20
-31.66490999208364
 10
40.91361340065121
 20
-31.69641304763151
 10
40.89396367893029
 20
-31.75430388095036
 10
40.84196423581246
 20
-31.73380749206652
 10
40.79268118151423
 20
-31.71451054762701
 10
40.81060229216813
 20
-31.65679610319705
 10
40.80957923663868
 20
-31.6151330476517
 10
40.78855368161953
 20
-30.83997443673444
 10
41.00283089837508
 20
-30.12203638135835
 10
41.34322616746865
 20
-29.43524860375237
 10
41.43071505412551
 20
-29.25850693712982
 10
41.57955199477281
 20
-29.14223138160332
 10
41.75110782372939
 20
-29.06144527051231
 10
42.51797613749828
 20
-28.69988332615846
 10
42.90797196088199
 20
-28.05239499298702
 10
43.12708332255156
 20
-27.27240332651527
 10
43.16430028767584
 20
-27.13975888210391
 10
43.20081387808895
 20
-27.00609138213743
 10
43.22801195271709
 20
-26.87104804883775
 10
43.30692833959266
 20
-26.47918249338035
 10
43.53083638943584
 20
-26.17547610456718
 10
43.7750997165375
 20
-25.8676774935332
 10
44.41623803351403
 20
-25.05963999373518
 10
45.21686717975495
 20
-24.39126721612431
 10
45.79669272051792
 20
-23.52999554967306
 10
46.04991660294653
 20
-23.153793327545
 10
46.29174576344362
 20
-22.77244054986251
 10
46.48432714741935
 20
-22.36177193885408
 10
46.74545325186858
 20
-21.80452416121561
 10
47.07653518786642
 20
-21.28932749467776
 10
47.43619212313525
 20
-20.79339249480158
 10
47.91646377754917
 20
-20.13158138385585
 10
48.26028099099988
 20
-19.39914416181691
 10
48.58755292709492
 20
-18.65570027311393
 10
49.01406124954712
 20
-17.68626694002278
 10
49.42335401688297
 20
-16.70769666248959
 10
50.03313039021517
 20
-15.83160832937557
 10
50.1412920541224
 20
-15.67691527385862
 10
50.22500621865334
 20
-15.50687638501225
 10
50.27048054298787
 20
-15.32396110728016
 10
50.35144177098326
 20
-14.99718305180627
 10
50.48683787864012
 20
-14.68610360743955
 10
50.54920898816002
 20
-14.35484527418893
 10
50.62981870832571
 20
-13.92629082985171
 10
50.50578332070663
 20
-13.51047166328918
 10
50.46824649022555
 20
-13.0894666633944
 10
50.39451593655101
 20
-12.27193944137659
 10
50.06551665415017
 20
-11.53936110822628
 10
49.7527073418138
 20
-10.7943297195237
 10
49.47845790436605
 20
-10.14013860857607
 10
49.10155013620398
 20
-9.542744719836493
 10
48.7970323661951
 20
-8.906615831106535
 10
48.75050097849333
 20
-8.809460831130988
 10
48.67885181365458
 20
-8.728498331151098
 10
48.57823959399919
 20
-8.688528608938874
 10
48.23960821374951
 20
-8.554014442305833
 10
48.0204979415617
 20
-8.260468053490461
 10
47.73111433783338
 20
-8.060831109095746
 10
47.64567156223543
 20
-8.001917220221776
 10
47.70493822739007
 20
-7.959372220232344
 10
47.75072878177742
 20
-7.919578886909001
 10
47.97089738727156
 20
-7.727350275845993
 10
48.19413515935407
 20
-7.538226109226516
 10
48.41253987600432
 20
-7.344409998163901
 10
48.52415876204557
 20
-7.245561664855227
 10
48.6302743148939
 20
-7.140645553770532
 10
48.73501403444399
 20
-7.035588331574475
 10
48.79805542172456
 20
-6.97268805381225
 10
48.84730319824592
 20
-6.898110831608943
 10
48.87728930859202
 20
-6.813867498296641
 10
48.89831486361117
 20
-6.75481249831131
 10
48.91623597426507
 20
-6.694699164993015
 10
48.91450736319806
 20
-6.637161109451929
 10
48.91450736319806
 20
-6.637161109451929
 10
48.91450736319806
 20
-6.637161109451929
 10
48.91450736319806
 20
-6.637161109451929
 10
48.95169014002723
 20
-6.460595831718257
 10
48.73776570104045
 20
-6.256478609547126
 10
48.73776570104045
 20
-6.256478609547126
 10
48.44563043071567
 20
-5.991542498502176
 10
46.66794797606813
 20
-6.17396388734547
 10
46.66794797606813
 20
-6.17396388734547
 10
46.17772798857468
 20
-6.279726665096729
 10
45.68849577883381
 20
-6.386865276181193
 10
45.20586051336908
 20
-6.528117498367938
 10
44.27188137053021
 20
-6.801308609410837
 10
43.54875750008975
 20
-7.364059720381172
 10
42.96515832259178
 20
-8.120944442414363
 10
42.79808168590775
 20
-8.337479442359937
 10
42.602043079798
 20
-8.510940275650078
 10
42.35608641940621
 20
-8.616879442290218
 10
41.38559477749885
 20
-9.034427219963714
 10
40.48745785596778
 20
-9.58924083093602
 10
39.55157371317751
 20
-10.07346360859263
 10
38.67774317991523
 20
-10.52579527514641
 10
37.8434943123098
 20
-11.04067444168434
 10
37.04441738825151
 20
-11.6153141637628
 10
36.56520406714392
 20
-11.95997805256547
 10
36.10027824567184
 20
-12.32189277469741
 10
35.64018547963201
 20
-12.69086305238297
 10
35.48499853914671
 20
-12.81525249679605
 10
35.36184382006643
 20
-12.97096860786845
 10
35.31721743231605
 20
-13.16129221893193
 10
35.18767832453641
 20
-13.71166082990534
 10
34.89487276905408
 20
-14.1901686075637
 10
34.66835415799959
 20
-14.69799221854768
 10
34.05529693593068
 20
-16.07223805153764
 10
33.53646665828266
 20
-17.47714027340859
 10
33.26602721390585
 20
-18.96402805081455
 10
33.17437554726184
 20
-19.46994666179933
 10
33.13683999171579
 20
-19.9817213838934
 10
33.09704665839244
 20
-20.49247305043234
 10
33.04585860284978
 20
-21.14617027249117
 10
32.84879693623228
 20
-21.75541749456103
 10
32.59991221407226
 20
-22.35453999441125
 10
32.36908971412992
 20
-22.90952999427276
 10
32.12154554752527
 20
-23.45816999413553
 10
31.97842360311652
 20
-24.04625054954387
 10
31.85008304759302
 20
-24.57301832719024
 10
31.83269110315304
 20
-25.10715916038983
 10
31.87488332536471
 20
-25.64151166025615
 10
31.90656276980114
 20
-26.0425141601559
 10
31.90141221424672
 20
-26.43903638227924
 10
31.79462638094034
 20
-26.82384638218302
 10
31.61961332542844
 20
-27.45415443758088
 10
31.69316749207662
 20
-28.08717888186698
 10
31.76636888094736
 20
-28.71399443726603
 10
31.85696221425809
 20
-29.49123443707169
 10
32.00061332533316
 20
-30.26205388132325
 10
32.12189832530272
 20
-31.0353074922413
 10
32.24007888082873
 20
-31.78739443649751
 10
32.35169776968993
 20
-32.54117471408686
 10
32.54597249186351
 20
-33.27805693612501
 10
32.68087471405216
 20
-33.78933776933061
 10
32.69773749182549
 20
-34.31314221364384
 10
32.74564471403575
 20
-34.83440665795803
 10
32.81489499179639
 20
-35.59231443554634
 10
32.92305665843598
 20
-36.34560082424688
 10
33.03139471396445
 20
-37.09849915739213
 10
33.05690054729134
 20
-37.27457054623701
 10
33.05725332506911
 20
-37.45043026841515
 10
33.0558774917359
 20
-37.62699554614883
 10
33.05379610284781
 20
-37.89933999052516
 10
32.90686415844
 20
-38.12169582380284
 10
32.6842966584956
 20
-38.21126610155844
 10
32.15495360307235
 20
-38.42522582372712
 10
31.64197943653395
 20
-38.69961637921403
 10
31.06116610334595
 20
-38.76491554586426
 10
30.48186971460188
 20
-38.82982665695921
 10
29.90842943696743
 20
-38.81141165696379
 10
29.33396610377753
 20
-38.69428943477073
 10
28.4263394373378
 20
-38.50893999037279
 10
27.49927471534752
 20
-38.42727193483769
 10
26.60043221557206
 20
-38.19524999045134
 10
25.48371416029566
 20
-37.90706582385647
 10
24.37320499390664
 20
-37.59598637948976
 10
23.27610138307
 20
-37.24112721291208
 10
22.72386304987458
 20
-37.06251582406784
 10
22.3836441610708
 20
-37.28850526845569
 10
22.35298777218949
 20
-37.87383415719827
 10
22.34039360552616
 20
-38.11361721269377
 10
22.45254166105369
 20
-38.29790832375875
 10
22.59001916101922
 20
-38.47447360149242
 10
22.79706443874532
 20
-38.74078554587025
 10
22.92092471649208
 20
-39.04360999023902
 10
22.99497277202907
 20
-39.37038804571291
 10
23.03476610535241
 20
-39.54469554566929
 10
22.99980582758324
 20
-39.71039526785029
 10
22.95330971648404
 20
-39.87577749003104
 10
22.93556499426597
 20
-39.93934804557063
 10
22.91058832760573
 20
-40.00118998999957
 10
22.8905858276107
 20
-40.06423137887283
 10
22.74555888320241
 20
-40.52188998986959
 10
22.85269749428688
 20
-40.76717637869695
 10
23.2872844386226
 20
-40.97319860086793
 10
23.34207082749791
 20
-40.99940998975035
 10
23.3947758274845
 20
-41.03073665640902
 10
23.45146721635934
 20
-41.05176221195949
 10
24.0767305495363
 20
-41.28604193412313
 10
24.07415527175909
 20
-41.89306665619355
 10
23.80131693849428
 20
-42.31541221164306
 10
23.47937193857456
 20
-42.813569711519
 10
23.68796943852243
 20
-43.68965804463302
 10
24.45413221610869
 20
-43.84435110014997
 10
24.67617054938645
 20
-43.88880110013893
 10
24.89803249377564
 20
-43.931875266795
 10
25.12592693816302
 20
-43.92704221124019
 10
25.1757391603728
 20
-43.92598387790755
 10
25.22533971591585
 20
-43.92704221124019
 10
25.27511666034779
 20
-43.92841804457372
 10
25.7906661046634
 20
-43.94288193345873
 10
26.02924971571489
 20
-44.24810526671582
 10
25.90934054907823
 20
-44.75247165547883
 10
25.85060304909281
 20
-44.99846359986171
 10
25.81719499354574
 20
-45.24166859980065
 10
25.92863749351773
 20
-45.48078137751848
 10
26.13137888235598
 20
-45.91554471074339
 10
26.48055832671323
 20
-46.1467199884635
 10
26.9523633265954
 20
-46.18425554400923
 10
27.40589443759286
 20
-46.22009776622248
 10
27.84309193748363
 20
-46.1532463773508
 10
28.2527022151591
 20
-45.9396747107374
 10
28.55348054841729
 20
-45.78290026633204
 10
28.86628860389466
 20
-45.74328332189725
 10
29.197688048256
 20
-45.84869332187107
 10
29.46830388152169
 20
-45.9341360996277
 10
29.67104527035994
 20
-46.07334221070388
 10
29.80178471477176
 20
-46.34205304397036
 10
29.93838027029321
 20
-46.62385193278833
 10
30.12683415913501
 20
-46.8798274882798
 10
30.28911193687223
 20
-47.14889109932405
 10
30.57073443680164
 20
-47.61639221031804
 10
30.9958669366954
 20
-47.80759776582561
 10
31.52676221434042
 20
-47.80347026582695
 10
31.81046610315856
 20
-47.80209443249407
 10
31.81201832538032
 20
-47.8055163769372
 10
31.72879804762347
 20
-48.07112276576015
 10
31.56172249210959
 20
-48.60445221007134
 10
31.45200860324823
 20
-49.15185748771226
 10
31.37189276993491
 20
-49.70271998757448
 10
31.24528082552206
 20
-50.57605665402272
 10
30.99209221447419
 20
-51.41185776492459
 10
30.70457832565732
 20
-52.24279054249477
 10
30.50666999237325
 20
-52.81436109790722
 10
30.30410499242388
 20
-53.38381498665373
 10
30.16458138134778
 20
-53.97810443094978
 10
30.00953554805307
 20
-54.63681109745198
 10
29.84055499253999
 20
-55.29516498617642
 10
29.66176721480686
 20
-55.9490385971238
 10
29.46763360374433
 20
-56.66080304139067
 10
29.08331749272903
 20
-57.28264443012386
 10
28.68817110393922
 20
-57.89552526330422
 10
27.97884082633852
 20
-58.99657998525063
 10
27.38539804870935
 20
-60.16240470718161
 10
26.75960554886575
 20
-61.31030831800564
 10
26.07574582681442
 20
-62.56499776213637
 10
25.42427110475505
 20
-63.83831387292958
 10
24.63433110495254
 20
-65.03239609485321
 10
24.47275888277084
 20
-65.27630665034768
 10
24.29393582725988
 20
-65.50677637251226
 10
24.09913193841966
 20
-65.72588665023538
 10
23.77270666072353
 20
-66.0927755390322
 10
23.5136266607882
 20
-66.513780538927
 10
23.17757054976124
 20
-66.87414303883716
 10
22.94434916093057
 20
-67.12355692766381
 10
22.69920388321393
 20
-67.36161137204836
 10
22.46238416105092
 20
-67.60725053865347
 10
22.07394055003697
 20
-68.0099816496642
 10
21.71220221679424
 20
-68.42788220511545
 10
21.4117766613138
 20
-68.90120414944123
 10
20.93549138365489
 20
-69.65156248258711
 10
20.35570110602234
 20
-70.33129470463915
 10
19.90181721724679
 20
-71.09576414889293
 10
19.62224082842763
 20
-71.56703998210845
 10
19.32576638405729
 20
-72.02318164866097
 10
18.96095888414854
 20
-72.43314470411387
 10
18.82813805084863
 20
-72.5826519262989
 10
18.7254797175409
 20
-72.75216164847862
 10
18.65090249533727
 20
-72.938534148432
 10
18.60299527312702
 20
-73.03568914840787
 10
18.60955693979216
 20
-73.08151498172971
 10
18.65090249533727
 20
-73.23652553724627
 10
18.72805499531811
 20
-73.41118581498041
 10
18.7976580508562
 20
-73.59000887049137
 10
18.9276919397125
 20
-73.7360588704551
 10
19.02742221746526
 20
-73.8483833148715
 10
19.14320388410296
 20
-73.93724803707126
 10
19.28029332851321
 20
-73.99824331483364
 10
19.41621860625697
 20
-74.0809344259245
 10
19.50458943956825
 20
-74.03510859260265
 10
19.61119888398607
 20
-73.99824331483364
 10
19.94591443945799
 20
-73.81254109265825
 10
20.21187360605806
 20
-73.53419942606094
 10
20.53208999486713
 20
-73.32609581500155
 10
21.02696666141002
 20
-73.0046799817488
 10
21.5141174946216
 20
-72.67084637072128
 10
21.96281555006489
 20
-72.28430775970686
 10
22.21741527222348
 20
-72.06449192642823
 10
22.48319804993467
 20
-71.85642359314701
 10
22.76778388319689
 20
-71.67590720430356
 10
23.16998582754098
 20
-71.4202844265892
 10
23.58305332743742
 20
-71.16808359331927
 10
24.06745249398323
 20
-71.12917220444001
 10
24.49653610498709
 20
-71.09435303778189
 10
24.90614638266223
 20
-71.00894553780341
 10
25.30355054922966
 20
-70.85012498228717
 10
25.74191221578658
 20
-70.6754294267755
 10
26.16429304901458
 20
-70.47424026015933
 10
26.49036554893295
 20
-70.11804053802598
 10
26.64403554889446
 20
-69.95061220473467
 10
26.78751027108097
 20
-69.74698887145233
 10
26.72513915998539
 20
-69.52547970484058
 10
26.65779388222458
 20
-69.28499109378988
 10
26.58804971557513
 20
-69.02732220496527
 10
26.47727749338082
 20
-68.81442081612988
 10
26.34445666008058
 20
-68.55982109397128
 10
26.31778666008721
 20
-68.33002164958405
 10
26.36978610451859
 20
-68.0726702607597
 10
26.48831943782238
 20
-67.48596553868424
 10
26.82109471551693
 20
-67.00918637213653
 10
27.18438527098175
 20
-66.55579637224979
 10
27.74678360417433
 20
-65.85436831686991
 10
28.33796860402652
 20
-65.17639998370605
 10
28.88816082611137
 20
-64.46463553943917
 10
29.35015860377351
 20
-63.86586581736671
 10
29.8355455480966
 20
-63.2870985952896
 10
30.4095149923977
 20
-62.78823553985877
 10
30.83584693673547
 20
-62.41824220661777
 10
31.2244669366383
 20
-62.01480554005217
 10
31.52898471433987
 20
-61.53319331795028
 10
32.06090304754034
 20
-60.69224165149335
 10
32.4198897141173
 20
-59.77276165172366
 10
32.771291658474
 20
-58.8491188741765
 10
33.00299610286043
 20
-58.24071831877321
 10
33.22348221391642
 20
-57.62819026337061
 10
33.41020749164757
 20
-57.00391470797126
 10
33.61587693604046
 20
-56.31730331925416
 10
33.96830193595228
 20
-55.70135331940779
 10
34.30040693586947
 20
-55.07192720845402
 10
34.85694915795243
 20
-54.01772137538457
 10
35.42178076298175
 20
-52.96972443120217
 10
36.08084019061219
 20
-51.97407970922892
 10
36.92041600252616
 20
-50.70630220954543
 10
37.62854681779357
 20
-49.36475887654766
 10
38.26968610154361
 20
-47.98740859911417
 10
38.80777706548668
 20
-46.83227304384732
 10
39.34780927393153
 20
-45.67784304413598
 10
39.88646665669516
 20
-44.52235471109136
 10
39.92453037032926
 20
-44.44103943333403
 10
39.96450009153178
 20
-44.36801443335217
 10
40.05957370021736
 20
-44.33598221113797
 10
40.77063257096562
 20
-44.09344748897639
 10
41.43932283168369
 20
-43.74617304461898
 10
42.13835198051663
 20
-43.47435776690897
 10
43.45297833586661
 20
-42.96240665592602
 10
44.58158609996557
 20
-42.18555471167564
 10
45.52487744967473
 20
-41.14062693415925
 10
45.75982744368066
 20
-40.88020637866888
 10
46.02853827015861
 20
-40.70381748982409
 10
46.3744368724451
 20
-40.63696610095177
 10
46.51981659095838
 20
-40.60941415651463
 10
46.65969297627873
 20
-40.55222887875066
 10
46.79921658383029
 20
-40.49952387876375
 10
48.56896153868034
 20
-39.82582415671022
 10
50.3583222096325
 20
-39.21347249019651
 10
52.18010061321917
 20
-38.69601804588169
 10
53.99154390033874
 20
-38.18163276823226
 10
55.7099610971835
 20
-37.46559971285569
 10
57.25748992812862
 20
-36.37160054646257
 10
57.53861853206755
 20
-36.17281026873442
 10
57.74806269339085
 20
-35.93129860212827
 10
57.87276963465375
 20
-35.61436304665194
 10
58.06503351863758
 20
-35.12756499121812
 10
58.05123990787838
 20
-34.61854193578981
 10
58.01402185327233
 20
-34.11142388036104
 10
57.96890157664567
 20
-33.5092322138448
 10
57.95923546578116
 20
-32.91116804732786
 10
58.09258546237912
 20
-32.31758415858734
 10
58.3805932328092
 20
-31.0353074922413
 10
58.56626017251689
 20
-29.73634443701049
 10
58.7388743347798
 20
-28.43445332622471
 10
58.82466988814653
 20
-27.7845308263871
 10
58.92768099662961
 20
-27.14081721543688
 10
59.17847220742761
 20
-26.52190388225834
 10
59.55707181390585
 20
-25.58827749360292
 10
60.0948815224074
 20
-24.73716582714915
 10
60.52135456708272
 20
-23.82869249404285
 10
60.67294317432648
 20
-23.50621832745682
 10
60.81557122624329
 20
-23.18910638309161
 10
60.88136428012033
 20
-22.83960943873443
 10
60.93272872325436
 20
-22.56677110546929
 10
61.01333844342005
 20
-22.30476304997932
 10
61.14767776249098
 20
-22.05965305004052
 10
61.2296970490114
 20
-21.90891110563398
 10
61.28688232533026
 20
-21.74751527234084
 10
61.31132982470655
 20
-21.57610055016159
 10
61.40813204445914
 20
-20.89622721699819
 10
61.61898887348403
 20
-20.24475249493882
 10
61.80296092327511
 20
-19.58622221732582
 10
61.80296092327511
 20
-19.48702110623939
 10
61.80296092327511
 20
-19.38778471737543
 10
61.80296092327511
 20
-19.28840721740011
 10
61.73473370279351
 20
-19.08668888411731
 10
61.63997759409983
 20
-18.90324443971857
 10
61.4694448206727
 20
-18.76576693975304
 97
        0
 92
        1
 93
        1
 72
     4
 94
        3
 73
     0
 74
     1
 95
      194
 96
      190
 40
0.0
 40
0.0
 40
0.0
 40
0.0
 40
1.0
 40
1.0
 40
1.0
 40
2.0
 40
2.0
 40
2.0
 40
3.0
 40
3.0
 40
3.0
 40
4.0
 40
4.0
 40
4.0
 40
5.0
 40
5.0
 40
5.0
 40
6.0
 40
6.0
 40
6.0
 40
7.0
 40
7.0
 40
7.0
 40
8.0
 40
8.0
 40
8.0
 40
9.0
 40
9.0
 40
9.0
 40
10.0
 40
10.0
 40
10.0
 40
11.0
 40
11.0
 40
11.0
 40
12.0
 40
12.0
 40
12.0
 40
13.0
 40
13.0
 40
13.0
 40
14.0
 40
14.0
 40
14.0
 40
15.0
 40
15.0
 40
15.0
 40
16.0
 40
16.0
 40
16.0
 40
17.0
 40
17.0
 40
17.0
 40
18.0
 40
18.0
 40
18.0
 40
19.0
 40
19.0
 40
19.0
 40
20.0
 40
20.0
 40
20.0
 40
21.0
 40
21.0
 40
21.0
 40
22.0
 40
22.0
 40
22.0
 40
23.0
 40
23.0
 40
23.0
 40
24.0
 40
24.0
 40
24.0
 40
25.0
 40
25.0
 40
25.0
 40
26.0
 40
26.0
 40
26.0
 40
27.0
 40
27.0
 40
27.0
 40
28.0
 40
28.0
 40
28.0
 40
29.0
 40
29.0
 40
29.0
 40
30.0
 40
30.0
 40
30.0
 40
31.0
 40
31.0
 40
31.0
 40
32.0
 40
32.0
 40
32.0
 40
33.0
 40
33.0
 40
33.0
 40
34.0
 40
34.0
 40
34.0
 40
35.0
 40
35.0
 40
35.0
 40
36.0
 40
36.0
 40
36.0
 40
37.0
 40
37.0
 40
37.0
 40
38.0
 40
38.0
 40
38.0
 40
39.0
 40
39.0
 40
39.0
 40
40.0
 40
40.0
 40
40.0
 40
41.0
 40
41.0
 40
41.0
 40
42.0
 40
42.0
 40
42.0
 40
43.0
 40
43.0
 40
43.0
 40
44.0
 40
44.0
 40
44.0
 40
45.0
 40
45.0
 40
45.0
 40
46.0
 40
46.0
 40
46.0
 40
47.0
 40
47.0
 40
47.0
 40
48.0
 40
48.0
 40
48.0
 40
49.0
 40
49.0
 40
49.0
 40
50.0
 40
50.0
 40
50.0
 40
51.0
 40
51.0
 40
51.0
 40
52.0
 40
52.0
 40
52.0
 40
53.0
 40
53.0
 40
53.0
 40
54.0
 40
54.0
 40
54.0
 40
55.0
 40
55.0
 40
55.0
 40
56.0
 40
56.0
 40
56.0
 40
57.0
 40
57.0
 40
57.0
 40
58.0
 40
58.0
 40
58.0
 40
59.0
 40
59.0
 40
59.0
 40
60.0
 40
60.0
 40
60.0
 40
61.0
 40
61.0
 40
61.0
 40
62.0
 40
62.0
 40
62.0
 40
63.0
 40
63.0
 40
63.0
 40
63.0
 10
40.28902036103035
 20
-13.26412694112854
 10
39.87799999003049
 20
-13.32512221889092
 10
39.52419815832037
 20
-13.49770110773666
 10
39.21587038840868
 20
-13.77625444100038
 10
38.96317567263324
 20
-14.00464277427655
 10
38.67428595778121
 20
-14.19584832978444
 10
38.50064873998884
 20
-14.5033294408185
 10
38.47500276815907
 20
-14.54813221858522
 10
38.42056818647631
 20
-14.57741277413332
 10
38.37802318756172
 20
-14.61166749634697
 10
38.33907652188867
 20
-14.64250027411716
 10
38.28224402333859
 20
-14.66147971855674
 10
38.26019541278998
 20
-14.70056749632488
 10
38.08913347270969
 20
-15.00113416291636
 10
37.76083848108519
 20
-15.13843527399301
 10
37.54776070874349
 20
-15.39543388503993
 10
37.46990265517425
 20
-15.48916694057203
 10
37.41409321215363
 20
-15.5828647183266
 10
37.41733876762638
 20
-15.70637221829561
 10
37.41822071204832
 20
-15.73392416273306
 10
37.42753404514406
 20
-15.77234166272352
 10
37.41356404550046
 20
-15.78765221827542
 10
37.19117294006302
 20
-16.02863471821492
 10
37.39116265718308
 20
-16.33371694036097
 10
37.2900565486514
 20
-16.59297332918518
 10
37.27679210454536
 20
-16.6260286069545
 10
37.27626387956981
 20
-16.67753416249741
 10
37.29351377078542
 20
-16.70646194026775
 10
37.41769154539516
 20
-16.91350721799385
 10
37.43353126721328
 20
-17.16553166237523
 10
37.56998570817648
 20
-17.36622694010291
 10
37.59838431856308
 20
-17.40841916231458
 10
37.62544237342833
 20
-17.44870638452673
 10
37.62646542895779
 20
-17.50091749562483
 10
37.62921709555425
 20
-17.61803971781757
 10
37.67899403872877
 20
-17.71244305112735
 10
37.76203887944851
 20
-17.79305277332948
 10
37.8814179224534
 20
-17.90848166218941
 10
37.92773764349391
 20
-18.05417888437537
 10
37.91189792167579
 20
-18.21525721766827
 10
37.83816736800126
 20
-18.96007693970446
 10
37.70139542704616
 20
-19.69011527285539
 10
37.37239487988411
 20
-20.37101166157391
 10
37.25576654952621
 20
-20.61252332818006
 10
37.11158627542678
 20
-20.83230388368084
 10
36.86975711492969
 20
-20.97031055031302
 10
36.79274572800552
 20
-21.01405499474646
 10
36.73196211844513
 20
-21.03575082807429
 10
36.74092267377208
 20
-20.90793943921743
 10
36.77295489517709
 20
-20.45543138377509
 10
36.69096934171316
 20
-20.01636416166264
 10
36.57123656699002
 20
-19.58449360621486
 10
36.38158323849515
 20
-18.89858777305328
 10
36.46737879186188
 20
-18.23007388433136
 10
36.66493434237737
 20
-17.56293582894266
 10
36.83684294910273
 20
-16.98120527353241
 10
37.10022776850278
 20
-16.42226416256113
 10
37.18309432915801
 20
-15.81989610715601
 10
37.26507988262194
 20
-15.2228549961942
 10
37.57651209689887
 20
-14.84093777406755
 10
38.09724736139158
 20
-14.57776555191109
 10
38.52961179480549
 20
-14.35932555196566
 10
38.85342650876651
 20
-13.99190749650187
 10
39.22842927697717
 20
-13.69426888546536
 10
40.22354480714521
 20
-12.90446999677389
 10
41.0627678412904
 20
-11.93965805257052
 10
42.08148420418967
 20
-11.17794027498315
 10
42.30645058733919
 20
-11.00931249724783
 10
42.5241861004798
 20
-10.8291488861815
 10
42.76671974226341
 20
-10.68634444177299
 10
43.23457361921636
 20
-10.41124833073057
 10
43.65833027507209
 20
-10.07621527525872
 10
44.07725387549557
 20
-9.733950275344379
 10
44.22880832227599
 20
-9.609419719819932
 10
44.40798303372463
 20
-9.555127219833418
 10
44.60088191769226
 20
-9.56394666427553
 10
44.87375552184179
 20
-9.576329164272455
 10
45.13763329288748
 20
-9.510006942067097
 10
45.40704967490299
 20
-9.489157775405502
 10
45.5296752273301
 20
-9.479526942074667
 10
45.59860800334926
 20
-9.493461664293358
 10
45.59860800334926
 20
-9.6502361086984
 10
45.59825522558048
 20
-9.864513330867327
 10
45.73227549993912
 20
-9.95478916417813
 10
45.94447132785888
 20
-9.906211664190195
 10
46.04025049208202
 20
-9.884163053084597
 10
46.13052632311223
 20
-9.839713053095638
 10
46.22422409849958
 20
-9.80662249754848
 10
46.27865770822197
 20
-9.78750194199753
 10
46.32758798475143
 20
-9.738254164232234
 10
46.40269437172419
 20
-9.777871108666696
 10
46.35891465061889
 20
-9.868640830866301
 10
46.27865770822197
 20
-9.915666108632148
 10
46.20079965465274
 20
-9.965125553064166
 10
46.03749998849063
 20
-10.06813666414966
 10
45.87282216302014
 20
-10.16888999745786
 10
45.71227300044942
 20
-10.27620499743088
 10
45.60308828101274
 20
-10.3495827751905
 10
45.54036439372407
 20
-10.45068888627615
 10
45.58583744811951
 20
-10.58763721957536
 10
45.63236883582128
 20
-10.72751360842922
 10
45.7426118885643
 20
-10.77866638619436
 10
45.88107716280954
 20
-10.7838522195263
 10
46.03852188101501
 20
-10.78953194174704
 10
46.16908609956869
 20
-10.7228569417636
 10
46.29312159674186
 20
-10.63399221956384
 10
46.39129964979268
 20
-10.56350721958135
 10
46.48983048061228
 20
-10.49168166404381
 10
46.59527575569992
 20
-10.43276777516952
 10
46.66621936500111
 20
-10.39332721962394
 10
46.75959964039656
 20
-10.38059194184925
 10
46.77752075105047
 20
-10.49168166404381
 10
46.805072694792
 20
-10.66256721955642
 10
46.92840380275668
 20
-10.7437061084252
 10
47.0568854661455
 20
-10.81793055285106
 10
47.30047851548648
 20
-10.95868888614933
 10
47.54505934258004
 20
-11.09838888611431
 10
47.79726016947919
 20
-11.22256666386099
 10
48.01153738623475
 20
-11.32815305272337
 10
48.11144405035258
 20
-11.47907138601911
 10
48.08974821757275
 20
-11.72192360818062
 10
48.07630738458233
 20
-11.86973749703251
 10
48.07733044011178
 20
-12.01906833032864
 10
48.05528182956318
 20
-12.16670583029165
 10
47.98398544249321
 20
-12.64401416350568
 10
47.9560807209829
 20
-13.12340388560812
 10
48.05288294073549
 20
-13.5989836077115
 10
48.19618127041298
 20
-14.30524471864587
 10
47.95262349884888
 20
-14.8888449962778
 10
47.54505934258004
 20
-15.44951471835973
 10
46.97387685715211
 20
-16.23500971816334
 10
46.38131603893627
 20
-17.00462971797122
 10
45.8190941088353
 20
-17.79598082888445
 10
45.41943332197833
 20
-18.3580616620771
 10
45.04739273963416
 20
-18.93940416193174
 10
44.65154080528873
 20
-19.50406027290161
 10
44.46171108790947
 20
-19.77502888394506
 10
44.25639442648087
 20
-20.03477916165807
 10
44.08067581985271
 20
-20.31590777269867
 10
43.93875332347346
 20
-20.54260277264205
 10
43.74204443960303
 20
-20.70759693926752
 10
43.51224500102126
 20
-20.83438527256925
 10
42.91485112737315
 20
-21.16289193915379
 10
42.37570086335025
 20
-21.57578305016166
 10
41.82829559953795
 20
-21.97625638339478
 10
41.72147449115207
 20
-22.0542908278197
 10
41.60985560511081
 20
-22.12526971669099
 10
41.49925977459901
 20
-22.19811832778365
 10
41.38146727760415
 20
-22.27565888332009
 10
41.27429443412573
 20
-22.2553036055473
 10
41.16577894977348
 20
-22.17056638334619
 10
40.8230200696291
 20
-21.90323138341324
 10
40.77959312629257
 20
-21.65293555014218
 10
41.02075200902898
 20
-21.28587027245647
 10
41.2660383916601
 20
-20.91277249477193
 10
41.51340616312699
 20
-20.54105055042028
 10
41.76077498955996
 20
-20.16879943940231
 10
41.85859920987595
 20
-20.0206680505505
 10
42.00397892838922
 20
-19.94210443945894
 10
42.1755347573458
 20
-19.92626471724072
 10
42.50315947120962
 20
-19.89645499502597
 10
42.75363168704176
 20
-19.73558832839948
 10
42.97344751476713
 20
-19.50183777290248
 10
43.41096250360519
 20
-19.03726471746281
 10
43.70207471840052
 20
-18.49465721759855
 10
43.86227221125691
 20
-17.87987138441899
 10
43.87913388055004
 20
-17.8163008288794
 10
43.89670221343516
 20
-17.7482852733406
 10
43.89052860248155
 20
-17.68453832891213
 10
43.85916665883722
 20
-17.36467471788115
 10
43.96976248934902
 20
-17.08940221794984
 10
44.13581498511266
 20
-16.8265474957933
 10
44.29911581427984
 20
-16.56746749585829
 10
44.38385303434024
 20
-16.28633888481736
 10
44.35009220186821
 20
-15.97628249600577
 10
44.32183470258913
 20
-15.72083610718094
 10
44.42174136670696
 20
-15.47346832946485
 10
44.40039831169592
 20
-15.21975055175066
 10
44.35217359070401
 20
-14.64750971856022
 10
44.08963637517967
 20
-14.17330582979004
 10
43.72722777331437
 20
-13.73956555212056
 10
43.32068667257499
 20
-13.2531202744645
 10
42.76947140885988
 20
-13.10685860783438
 10
42.17726336841281
 20
-13.02384999674392
 10
41.68908949197827
 20
-12.95509360787239
 10
41.22264672610044
 20
-13.02589610785449
 10
40.75856757127342
 20
-13.16940610781884
 10
40.60666146403776
 20
-13.21643138558469
 10
40.44678257922772
 20
-13.24052610780086
 10
40.28902036103035
 20
-13.26412694112854
 97
        0
 75
     0
 76
     1
 98
        0
  0
ENDSEC
  0
SECTION
  2
OBJECTS
  0
DICTIONARY
  5
C
330
0
100
AcDbDictionary
281
     1
  3
ACAD_GROUP
350
D
  3
ACAD_LAYOUT
350
1A
  3
ACAD_MATERIAL
350
3B
  3
ACAD_MLEADERSTYLE
350
65
  3
ACAD_MLINESTYLE
350
17
  3
ACAD_PLOTSETTINGS
350
19
  3
ACAD_PLOTSTYLENAME
350
E
  3
ACAD_TABLESTYLE
350
64
  3
ACAD_VISUALSTYLE
350
2A
  0
SUN
  5
3F
330
29
100
AcDbSun
 90
        1
290
     0
 63
     7
421
 16777215
 40
1.0
291
     1
 91
  2455826
 92
 54000000
292
     0
 70
     2
 71
   256
280
     1
  0
DICTIONARY
  5
D
102
{ACAD_REACTORS
330
C
102
}
330
C
100
AcDbDictionary
281
     1
  0
DICTIONARY
  5
1A
102
{ACAD_REACTORS
330
C
102
}
330
C
100
AcDbDictionary
281
     1
  3
Layout1
350
1E
  3
Layout2
350
26
  3
Model
350
22
  0
DICTIONARY
  5
3B
102
{ACAD_REACTORS
330
C
102
}
330
C
100
AcDbDictionary
281
     1
  3
ByBlock
350
3D
  3
ByLayer
350
3C
  3
Global
350
3E
  0
DICTIONARY
  5
65
102
{ACAD_REACTORS
330
C
102
}
330
C
100
AcDbDictionary
281
     1
  0
DICTIONARY
  5
17
102
{ACAD_REACTORS
330
C
102
}
330
C
100
AcDbDictionary
281
     1
  3
Standard
350
18
  0
DICTIONARY
  5
19
102
{ACAD_REACTORS
330
C
102
}
330
C
100
AcDbDictionary
281
     1
  0
ACDBDICTIONARYWDFLT
  5
E
102
{ACAD_REACTORS
330
C
102
}
330
C
100
AcDbDictionary
281
     1
  3
Normal
350
F
100
AcDbDictionaryWithDefault
340
F
  0
DICTIONARY
  5
64
102
{ACAD_REACTORS
330
C
102
}
330
C
100
AcDbDictionary
281
     1
  0
DICTIONARY
  5
2A
102
{ACAD_REACTORS
330
C
102
}
330
C
100
AcDbDictionary
281
     1
  3
2dWireframe
350
2F
  3
3D Hidden
350
31
  3
3dWireframe
350
30
  3
Basic
350
32
  3
Brighten
350
36
  3
ColorChange
350
3A
  3
Conceptual
350
34
  3
Dim
350
35
  3
Facepattern
350
39
  3
Flat
350
2B
  3
FlatWithEdges
350
2C
  3
Gouraud
350
2D
  3
GouraudWithEdges
350
2E
  3
Linepattern
350
38
  3
Realistic
350
33
  3
Thicken
350
37
  0
LAYOUT
  5
1E
102
{ACAD_REACTORS
330
1A
102
}
330
1A
100
AcDbPlotSettings
  1

  2
none_device
  4

  6

 40
0.0
 41
0.0
 42
0.0
 43
0.0
 44
0.0
 45
0.0
 46
0.0
 47
0.0
 48
0.0
 49
0.0
140
0.0
141
0.0
142
1.0
143
1.0
 70
   688
 72
     0
 73
     0
 74
     5
  7

 75
    16
 76
     0
 77
     2
 78
   300
147
1.0
148
0.0
149
0.0
100
AcDbLayout
  1
Layout1
 70
     1
 71
     1
 10
0.0
 20
0.0
 11
12.0
 21
9.0
 12
0.0
 22
0.0
 32
0.0
 14
1.000000000000000E+20
 24
1.000000000000000E+20
 34
1.000000000000000E+20
 15
-1.000000000000000E+20
 25
-1.000000000000000E+20
 35
-1.000000000000000E+20
146
0.0
 13
0.0
 23
0.0
 33
0.0
 16
1.0
 26
0.0
 36
0.0
 17
0.0
 27
1.0
 37
0.0
 76
     0
330
1B
  0
LAYOUT
  5
26
102
{ACAD_REACTORS
330
1A
102
}
330
1A
100
AcDbPlotSettings
  1

  2
none_device
  4

  6

 40
0.0
 41
0.0
 42
0.0
 43
0.0
 44
0.0
 45
0.0
 46
0.0
 47
0.0
 48
0.0
 49
0.0
140
0.0
141
0.0
142
1.0
143
1.0
 70
   688
 72
     0
 73
     0
 74
     5
  7

 75
    16
 76
     0
 77
     2
 78
   300
147
1.0
148
0.0
149
0.0
100
AcDbLayout
  1
Layout2
 70
     1
 71
     2
 10
0.0
 20
0.0
 11
0.0
 21
0.0
 12
0.0
 22
0.0
 32
0.0
 14
0.0
 24
0.0
 34
0.0
 15
0.0
 25
0.0
 35
0.0
146
0.0
 13
0.0
 23
0.0
 33
0.0
 16
1.0
 26
0.0
 36
0.0
 17
0.0
 27
1.0
 37
0.0
 76
     0
330
23
  0
LAYOUT
  5
22
102
{ACAD_REACTORS
330
1A
102
}
330
1A
100
AcDbPlotSettings
  1

  2
none_device
  4

  6

 40
0.0
 41
0.0
 42
0.0
 43
0.0
 44
0.0
 45
0.0
 46
0.0
 47
0.0
 48
0.0
 49
0.0
140
0.0
141
0.0
142
1.0
143
1.0
 70
  1712
 72
     0
 73
     0
 74
     0
  7

 75
     0
 76
     0
 77
     2
 78
   300
147
1.0
148
0.0
149
0.0
100
AcDbLayout
  1
Model
 70
     1
 71
     0
 10
0.0
 20
0.0
 11
12.0
 21
9.0
 12
0.0
 22
0.0
 32
0.0
 14
1.000000000000000E+20
 24
1.000000000000000E+20
 34
1.000000000000000E+20
 15
-1.000000000000000E+20
 25
-1.000000000000000E+20
 35
-1.000000000000000E+20
146
0.0
 13
0.0
 23
0.0
 33
0.0
 16
1.0
 26
0.0
 36
0.0
 17
0.0
 27
1.0
 37
0.0
 76
     0
330
1F
331
29
  0
MATERIAL
  5
3D
102
{ACAD_REACTORS
330
3B
102
}
330
3B
100
AcDbMaterial
  1
ByBlock
 72
     1
 94
      127
  0
MATERIAL
  5
3C
102
{ACAD_REACTORS
330
3B
102
}
330
3B
100
AcDbMaterial
  1
ByLayer
 72
     1
 94
      127
  0
MATERIAL
  5
3E
102
{ACAD_REACTORS
330
3B
102
}
330
3B
100
AcDbMaterial
  1
Global
 72
     1
 94
      127
  0
MLINESTYLE
  5
18
102
{ACAD_REACTORS
330
17
102
}
330
17
100
AcDbMlineStyle
  2
Standard
 70
     0
  3

 62
   256
 51
90.0
 52
90.0
 71
     2
 49
0.5
 62
   256
  6
BYLAYER
 49
-0.5
 62
   256
  6
BYLAYER
  0
ACDBPLACEHOLDER
  5
F
102
{ACAD_REACTORS
330
E
102
}
330
E
  0
VISUALSTYLE
  5
2F
102
{ACAD_REACTORS
330
2A
102
}
102
{ACAD_XDICTIONARY
360
4C
102
}
330
2A
100
AcDbVisualStyle
  2
2dWireframe
 70
     4
 71
     0
 72
     2
 73
     0
 90
        0
 40
-0.6
 41
-30.0
 62
     5
 63
     7
421
 16777215
 74
     1
 91
        4
 64
     7
 65
   257
 75
     1
175
     1
 42
1.0
 92
        0
 66
   257
 43
1.0
 76
     1
 77
     6
 78
     2
 67
     7
 79
     5
170
     0
171
     0
290
     0
174
     0
 93
        1
 44
0.0
173
     0
291
     0
 45
0.0
  0
VISUALSTYLE
  5
31
102
{ACAD_REACTORS
330
2A
102
}
102
{ACAD_XDICTIONARY
360
50
102
}
330
2A
100
AcDbVisualStyle
  2
3D Hidden
 70
     6
 71
     1
 72
     2
 73
     2
 90
        0
 40
-0.6
 41
-30.0
 62
     5
 63
     7
421
 16777215
 74
     2
 91
        2
 64
     7
 65
   257
 75
     2
175
     1
 42
40.0
 92
        0
 66
   257
 43
1.0
 76
     1
 77
     6
 78
     2
 67
     7
 79
     3
170
     0
171
     0
290
     0
174
     0
 93
        1
 44
0.0
173
     0
291
     0
 45
0.0
  0
VISUALSTYLE
  5
30
102
{ACAD_REACTORS
330
2A
102
}
102
{ACAD_XDICTIONARY
360
4E
102
}
330
2A
100
AcDbVisualStyle
  2
3dWireframe
 70
     5
 71
     0
 72
     2
 73
     0
 90
        0
 40
-0.6
 41
-30.0
 62
     5
 63
     7
421
 16777215
 74
     1
 91
        4
 64
     7
 65
   257
 75
     1
175
     1
 42
1.0
 92
        0
 66
   257
 43
1.0
 76
     1
 77
     6
 78
     2
 67
     7
 79
     5
170
     0
171
     0
290
     0
174
     0
 93
        1
 44
0.0
173
     0
291
     0
 45
0.0
  0
VISUALSTYLE
  5
32
102
{ACAD_REACTORS
330
2A
102
}
102
{ACAD_XDICTIONARY
360
52
102
}
330
2A
100
AcDbVisualStyle
  2
Basic
 70
     7
 71
     1
 72
     0
 73
     1
 90
        0
 40
-0.6
 41
-30.0
 62
     5
 63
     7
421
 16777215
 74
     0
 91
        4
 64
     7
 65
   257
 75
     1
175
     1
 42
1.0
 92
        8
 66
     7
 43
1.0
 76
     1
 77
     6
 78
     2
 67
     7
 79
     5
170
     0
171
     0
290
     0
174
     0
 93
        1
 44
0.0
173
     0
291
     1
 45
0.0
  0
VISUALSTYLE
  5
36
102
{ACAD_REACTORS
330
2A
102
}
102
{ACAD_XDICTIONARY
360
5A
102
}
330
2A
100
AcDbVisualStyle
  2
Brighten
 70
    12
 71
     2
 72
     2
 73
     0
 90
        0
 40
-0.6
 41
-30.0
 62
     5
 63
     7
421
 16777215
 74
     1
 91
        4
 64
     7
 65
   257
 75
     1
175
     1
 42
1.0
 92
        8
 66
     7
 43
1.0
 76
     1
 77
     6
 78
     2
 67
     7
 79
     5
170
     0
171
     0
290
     0
174
     0
 93
        1
 44
50.0
173
     0
291
     1
 45
0.0
  0
VISUALSTYLE
  5
3A
102
{ACAD_REACTORS
330
2A
102
}
102
{ACAD_XDICTIONARY
360
62
102
}
330
2A
100
AcDbVisualStyle
  2
ColorChange
 70
    16
 71
     2
 72
     2
 73
     3
 90
        0
 40
-0.6
 41
-30.0
 62
     5
 63
     8
421
  8421504
 74
     1
 91
        4
 64
     7
 65
   257
 75
     1
175
     1
 42
1.0
 92
        8
 66
     8
424
  8421504
 43
1.0
 76
     1
 77
     6
 78
     2
 67
     7
 79
     5
170
     0
171
     0
290
     0
174
     0
 93
        1
 44
0.0
173
     0
291
     1
 45
0.0
  0
VISUALSTYLE
  5
34
102
{ACAD_REACTORS
330
2A
102
}
102
{ACAD_XDICTIONARY
360
56
102
}
330
2A
100
AcDbVisualStyle
  2
Conceptual
 70
     9
 71
     3
 72
     2
 73
     0
 90
        0
 40
-0.6
 41
-30.0
 62
     5
 63
     7
421
 16777215
 74
     2
 91
        2
 64
     7
 65
   257
 75
     1
175
     1
 42
40.0
 92
        8
 66
     7
 43
1.0
 76
     1
 77
     6
 78
     2
 67
     7
 79
     3
170
     0
171
     0
290
     0
174
     0
 93
        1
 44
0.0
173
     0
291
     0
 45
0.0
  0
VISUALSTYLE
  5
35
102
{ACAD_REACTORS
330
2A
102
}
102
{ACAD_XDICTIONARY
360
58
102
}
330
2A
100
AcDbVisualStyle
  2
Dim
 70
    11
 71
     2
 72
     2
 73
     0
 90
        0
 40
-0.6
 41
-30.0
 62
     5
 63
     7
421
 16777215
 74
     1
 91
        4
 64
     7
 65
   257
 75
     1
175
     1
 42
1.0
 92
        8
 66
     7
 43
1.0
 76
     1
 77
     6
 78
     2
 67
     7
 79
     5
170
     0
171
     0
290
     0
174
     0
 93
        1
 44
-50.0
173
     0
291
     1
 45
0.0
  0
VISUALSTYLE
  5
39
102
{ACAD_REACTORS
330
2A
102
}
102
{ACAD_XDICTIONARY
360
60
102
}
330
2A
100
AcDbVisualStyle
  2
Facepattern
 70
    15
 71
     2
 72
     2
 73
     0
 90
        0
 40
-0.6
 41
-30.0
 62
     5
 63
     7
421
 16777215
 74
     1
 91
        4
 64
     7
 65
   257
 75
     1
175
     1
 42
1.0
 92
        8
 66
     7
 43
1.0
 76
     1
 77
     6
 78
     2
 67
     7
 79
     5
170
     0
171
     0
290
     0
174
     0
 93
        1
 44
0.0
173
     0
291
     1
 45
0.0
  0
VISUALSTYLE
  5
2B
102
{ACAD_REACTORS
330
2A
102
}
102
{ACAD_XDICTIONARY
360
44
102
}
330
2A
100
AcDbVisualStyle
  2
Flat
 70
     0
 71
     2
 72
     1
 73
     1
 90
        2
 40
-0.6
 41
30.0
 62
     5
 63
     7
421
 16777215
 74
     0
 91
        4
 64
     7
 65
   257
 75
     1
175
     1
 42
1.0
 92
        8
 66
     7
 43
1.0
 76
     1
 77
     6
 78
     2
 67
     7
 79
     5
170
     0
171
     0
290
     0
174
     0
 93
       13
 44
0.0
173
     0
291
     1
 45
0.0
  0
VISUALSTYLE
  5
2C
102
{ACAD_REACTORS
330
2A
102
}
102
{ACAD_XDICTIONARY
360
46
102
}
330
2A
100
AcDbVisualStyle
  2
FlatWithEdges
 70
     1
 71
     2
 72
     1
 73
     1
 90
        2
 40
-0.6
 41
30.0
 62
     5
 63
     7
421
 16777215
 74
     1
 91
        4
 64
     7
 65
   257
 75
     1
175
     1
 42
1.0
 92
        0
 66
   257
 43
1.0
 76
     1
 77
     6
 78
     2
 67
     7
 79
     5
170
     0
171
     0
290
     0
174
     0
 93
       13
 44
0.0
173
     0
291
     1
 45
0.0
  0
VISUALSTYLE
  5
2D
102
{ACAD_REACTORS
330
2A
102
}
102
{ACAD_XDICTIONARY
360
48
102
}
330
2A
100
AcDbVisualStyle
  2
Gouraud
 70
     2
 71
     2
 72
     2
 73
     1
 90
        2
 40
-0.6
 41
30.0
 62
     5
 63
     7
421
 16777215
 74
     0
 91
        4
 64
     7
 65
   257
 75
     1
175
     1
 42
1.0
 92
        0
 66
     7
 43
1.0
 76
     1
 77
     6
 78
     2
 67
     7
 79
     5
170
     0
171
     0
290
     0
174
     0
 93
       13
 44
0.0
173
     0
291
     1
 45
0.0
  0
VISUALSTYLE
  5
2E
102
{ACAD_REACTORS
330
2A
102
}
102
{ACAD_XDICTIONARY
360
4A
102
}
330
2A
100
AcDbVisualStyle
  2
GouraudWithEdges
 70
     3
 71
     2
 72
     2
 73
     1
 90
        2
 40
-0.6
 41
30.0
 62
     5
 63
     7
421
 16777215
 74
     1
 91
        4
 64
     7
 65
   257
 75
     1
175
     1
 42
1.0
 92
        0
 66
   257
 43
1.0
 76
     1
 77
     6
 78
     2
 67
     7
 79
     5
170
     0
171
     0
290
     0
174
     0
 93
       13
 44
0.0
173
     0
291
     1
 45
0.0
  0
VISUALSTYLE
  5
38
102
{ACAD_REACTORS
330
2A
102
}
102
{ACAD_XDICTIONARY
360
5E
102
}
330
2A
100
AcDbVisualStyle
  2
Linepattern
 70
    14
 71
     2
 72
     2
 73
     0
 90
        0
 40
-0.6
 41
-30.0
 62
     5
 63
     7
421
 16777215
 74
     1
 91
        4
 64
     7
 65
   257
 75
     7
175
     7
 42
1.0
 92
        8
 66
     7
 43
1.0
 76
     1
 77
     6
 78
     2
 67
     7
 79
     5
170
     0
171
     0
290
     0
174
     0
 93
        1
 44
0.0
173
     0
291
     1
 45
0.0
  0
VISUALSTYLE
  5
33
102
{ACAD_REACTORS
330
2A
102
}
102
{ACAD_XDICTIONARY
360
54
102
}
330
2A
100
AcDbVisualStyle
  2
Realistic
 70
     8
 71
     2
 72
     2
 73
     0
 90
        0
 40
-0.6
 41
-30.0
 62
     5
 63
     7
421
 16777215
 74
     1
 91
        0
 64
     7
 65
   257
 75
     1
175
     1
 42
1.0
 92
        8
 66
     8
424
  7895160
 43
1.0
 76
     1
 77
     6
 78
     2
 67
     7
 79
     5
170
     0
171
     0
290
     0
174
     0
 93
       13
 44
0.0
173
     0
291
     0
 45
0.0
  0
VISUALSTYLE
  5
37
102
{ACAD_REACTORS
330
2A
102
}
102
{ACAD_XDICTIONARY
360
5C
102
}
330
2A
100
AcDbVisualStyle
  2
Thicken
 70
    13
 71
     2
 72
     2
 73
     0
 90
        0
 40
-0.6
 41
-30.0
 62
     5
 63
     7
421
 16777215
 74
     1
 91
        4
 64
     7
 65
   257
 75
     1
175
     1
 42
1.0
 92
       12
 66
     7
 43
1.0
 76
     1
 77
     6
 78
     2
 67
     7
 79
     5
170
     0
171
     0
290
     0
174
     0
 93
        1
 44
0.0
173
     0
291
     1
 45
0.0
  0
DICTIONARY
  5
4C
330
2F
100
AcDbDictionary
280
     1
281
     1
  3
ACAD_XREC_ROUNDTRIP
360
4D
  0
DICTIONARY
  5
50
330
31
100
AcDbDictionary
280
     1
281
     1
  3
ACAD_XREC_ROUNDTRIP
360
51
  0
DICTIONARY
  5
4E
330
30
100
AcDbDictionary
280
     1
281
     1
  3
ACAD_XREC_ROUNDTRIP
360
4F
  0
DICTIONARY
  5
52
330
32
100
AcDbDictionary
280
     1
281
     1
  3
ACAD_XREC_ROUNDTRIP
360
53
  0
DICTIONARY
  5
5A
330
36
100
AcDbDictionary
280
     1
281
     1
  3
ACAD_XREC_ROUNDTRIP
360
5B
  0
DICTIONARY
  5
62
330
3A
100
AcDbDictionary
280
     1
281
     1
  3
ACAD_XREC_ROUNDTRIP
360
63
  0
DICTIONARY
  5
56
330
34
100
AcDbDictionary
280
     1
281
     1
  3
ACAD_XREC_ROUNDTRIP
360
57
  0
DICTIONARY
  5
58
330
35
100
AcDbDictionary
280
     1
281
     1
  3
ACAD_XREC_ROUNDTRIP
360
59
  0
DICTIONARY
  5
60
330
39
100
AcDbDictionary
280
     1
281
     1
  3
ACAD_XREC_ROUNDTRIP
360
61
  0
DICTIONARY
  5
44
330
2B
100
AcDbDictionary
280
     1
281
     1
  3
ACAD_XREC_ROUNDTRIP
360
45
  0
DICTIONARY
  5
46
330
2C
100
AcDbDictionary
280
     1
281
     1
  3
ACAD_XREC_ROUNDTRIP
360
47
  0
DICTIONARY
  5
48
330
2D
100
AcDbDictionary
280
     1
281
     1
  3
ACAD_XREC_ROUNDTRIP
360
49
  0
DICTIONARY
  5
4A
330
2E
100
AcDbDictionary
280
     1
281
     1
  3
ACAD_XREC_ROUNDTRIP
360
4B
  0
DICTIONARY
  5
5E
330
38
100
AcDbDictionary
280
     1
281
     1
  3
ACAD_XREC_ROUNDTRIP
360
5F
  0
DICTIONARY
  5
54
330
33
100
AcDbDictionary
280
     1
281
     1
  3
ACAD_XREC_ROUNDTRIP
360
55
  0
DICTIONARY
  5
5C
330
37
100
AcDbDictionary
280
     1
281
     1
  3
ACAD_XREC_ROUNDTRIP
360
5D
  0
XRECORD
  5
4D
102
{ACAD_REACTORS
330
4C
102
}
330
4C
100
AcDbXrecord
280
     1
102
RTVSPropertyOp0
 70
     1
102
RTVSPropertyOp1
 70
     1
102
RTVSPropertyOp2
 70
     1
102
RTVSPropertyOp3
 70
     1
102
RTVSPropertyOp4
 70
     1
102
RTVSPropertyOp5
 70
     1
102
RTVSPropertyOp6
 70
     1
102
RTVSPropertyOp7
 70
     1
102
RTVSPropertyOp8
 70
     1
102
RTVSPropertyOp9
 70
     1
102
RTVSPropertyOp10
 70
     1
102
RTVSPropertyOp11
 70
     1
102
RTVSPropertyOp12
 70
     1
102
RTVSPropertyOp13
 70
     1
102
RTVSPropertyOp14
 70
     1
102
RTVSPropertyOp15
 70
     1
102
RTVSPropertyOp16
 70
     1
102
RTVSPropertyOp17
 70
     1
102
RTVSPropertyOp18
 70
     1
102
RTVSPropertyOp19
 70
     1
102
RTVSPropertyOp20
 70
     1
102
RTVSPropertyOp21
 70
     1
102
RTVSPropertyOp22
 70
     1
102
RTVSPropertyOp23
 70
     1
102
RTVSPropertyOp24
 70
     1
102
RTVSPropertyOp25
 70
     1
102
RTVSPropertyOp26
 70
     1
102
RTVSPropertyOp27
 70
     1
102
RTVSPropertyOp28
 70
     1
102
RTVSPropertyOp29
 70
     1
102
RTVSPropertyOp30
 70
     1
102
RTVSPropertyOp31
 70
     1
102
RTVSPropertyOp32
 70
     1
  0
XRECORD
  5
51
102
{ACAD_REACTORS
330
50
102
}
330
50
100
AcDbXrecord
280
     1
102
RTVSPropertyOp0
 70
     1
102
RTVSPropertyOp1
 70
     1
102
RTVSPropertyOp2
 70
     1
102
RTVSPropertyOp3
 70
     1
102
RTVSPropertyOp4
 70
     1
102
RTVSPropertyOp5
 70
     1
102
RTVSPropertyOp6
 70
     1
102
RTVSPropertyOp7
 70
     1
102
RTVSPropertyOp8
 70
     1
102
RTVSPropertyOp9
 70
     1
102
RTVSPropertyOp10
 70
     1
102
RTVSPropertyOp11
 70
     1
102
RTVSPropertyOp12
 70
     1
102
RTVSPropertyOp13
 70
     1
102
RTVSPropertyOp14
 70
     1
102
RTVSPropertyOp15
 70
     1
102
RTVSPropertyOp16
 70
     1
102
RTVSPropertyOp17
 70
     1
102
RTVSPropertyOp18
 70
     1
102
RTVSPropertyOp19
 70
     1
102
RTVSPropertyOp20
 70
     1
102
RTVSPropertyOp21
 70
     1
102
RTVSPropertyOp22
 70
     1
102
RTVSPropertyOp23
 70
     1
102
RTVSPropertyOp24
 70
     1
102
RTVSPropertyOp25
 70
     1
102
RTVSPropertyOp26
 70
     1
102
RTVSPropertyOp27
 70
     1
102
RTVSPropertyOp28
 70
     1
102
RTVSPropertyOp29
 70
     1
102
RTVSPropertyOp30
 70
     1
102
RTVSPropertyOp31
 70
     1
102
RTVSPropertyOp32
 70
     1
  0
XRECORD
  5
4F
102
{ACAD_REACTORS
330
4E
102
}
330
4E
100
AcDbXrecord
280
     1
102
RTVSPropertyOp0
 70
     1
102
RTVSPropertyOp1
 70
     1
102
RTVSPropertyOp2
 70
     1
102
RTVSPropertyOp3
 70
     1
102
RTVSPropertyOp4
 70
     1
102
RTVSPropertyOp5
 70
     1
102
RTVSPropertyOp6
 70
     1
102
RTVSPropertyOp7
 70
     1
102
RTVSPropertyOp8
 70
     1
102
RTVSPropertyOp9
 70
     1
102
RTVSPropertyOp10
 70
     1
102
RTVSPropertyOp11
 70
     1
102
RTVSPropertyOp12
 70
     1
102
RTVSPropertyOp13
 70
     1
102
RTVSPropertyOp14
 70
     1
102
RTVSPropertyOp15
 70
     1
102
RTVSPropertyOp16
 70
     1
102
RTVSPropertyOp17
 70
     1
102
RTVSPropertyOp18
 70
     1
102
RTVSPropertyOp19
 70
     1
102
RTVSPropertyOp20
 70
     1
102
RTVSPropertyOp21
 70
     1
102
RTVSPropertyOp22
 70
     1
102
RTVSPropertyOp23
 70
     1
102
RTVSPropertyOp24
 70
     1
102
RTVSPropertyOp25
 70
     1
102
RTVSPropertyOp26
 70
     1
102
RTVSPropertyOp27
 70
     1
102
RTVSPropertyOp28
 70
     1
102
RTVSPropertyOp29
 70
     1
102
RTVSPropertyOp30
 70
     1
102
RTVSPropertyOp31
 70
     1
102
RTVSPropertyOp32
 70
     1
  0
XRECORD
  5
53
102
{ACAD_REACTORS
330
52
102
}
330
52
100
AcDbXrecord
280
     1
102
RTVSPropertyOp0
 70
     1
102
RTVSPropertyOp1
 70
     1
102
RTVSPropertyOp2
 70
     1
102
RTVSPropertyOp3
 70
     1
102
RTVSPropertyOp4
 70
     1
102
RTVSPropertyOp5
 70
     1
102
RTVSPropertyOp6
 70
     1
102
RTVSPropertyOp7
 70
     1
102
RTVSPropertyOp8
 70
     1
102
RTVSPropertyOp9
 70
     1
102
RTVSPropertyOp10
 70
     1
102
RTVSPropertyOp11
 70
     1
102
RTVSPropertyOp12
 70
     1
102
RTVSPropertyOp13
 70
     1
102
RTVSPropertyOp14
 70
     1
102
RTVSPropertyOp15
 70
     1
102
RTVSPropertyOp16
 70
     1
102
RTVSPropertyOp17
 70
     1
102
RTVSPropertyOp18
 70
     1
102
RTVSPropertyOp19
 70
     1
102
RTVSPropertyOp20
 70
     1
102
RTVSPropertyOp21
 70
     1
102
RTVSPropertyOp22
 70
     1
102
RTVSPropertyOp23
 70
     1
102
RTVSPropertyOp24
 70
     1
102
RTVSPropertyOp25
 70
     1
102
RTVSPropertyOp26
 70
     1
102
RTVSPropertyOp27
 70
     1
102
RTVSPropertyOp28
 70
     1
102
RTVSPropertyOp29
 70
     1
102
RTVSPropertyOp30
 70
     1
102
RTVSPropertyOp31
 70
     1
102
RTVSPropertyOp32
 70
     1
  0
XRECORD
  5
5B
102
{ACAD_REACTORS
330
5A
102
}
330
5A
100
AcDbXrecord
280
     1
102
RTVSPropertyOp0
 70
     1
102
RTVSPropertyOp1
 70
     1
102
RTVSPropertyOp2
 70
     1
102
RTVSPropertyOp3
 70
     1
102
RTVSPropertyOp4
 70
     1
102
RTVSPropertyOp5
 70
     1
102
RTVSPropertyOp6
 70
     1
102
RTVSPropertyOp7
 70
     1
102
RTVSPropertyOp8
 70
     1
102
RTVSPropertyOp9
 70
     1
102
RTVSPropertyOp10
 70
     1
102
RTVSPropertyOp11
 70
     1
102
RTVSPropertyOp12
 70
     1
102
RTVSPropertyOp13
 70
     1
102
RTVSPropertyOp14
 70
     1
102
RTVSPropertyOp15
 70
     1
102
RTVSPropertyOp16
 70
     1
102
RTVSPropertyOp17
 70
     1
102
RTVSPropertyOp18
 70
     1
102
RTVSPropertyOp19
 70
     1
102
RTVSPropertyOp20
 70
     1
102
RTVSPropertyOp21
 70
     1
102
RTVSPropertyOp22
 70
     1
102
RTVSPropertyOp23
 70
     1
102
RTVSPropertyOp24
 70
     1
102
RTVSPropertyOp25
 70
     1
102
RTVSPropertyOp26
 70
     1
102
RTVSPropertyOp27
 70
     1
102
RTVSPropertyOp28
 70
     1
102
RTVSPropertyOp29
 70
     1
102
RTVSPropertyOp30
 70
     1
102
RTVSPropertyOp31
 70
     1
102
RTVSPropertyOp32
 70
     1
  0
XRECORD
  5
63
102
{ACAD_REACTORS
330
62
102
}
330
62
100
AcDbXrecord
280
     1
102
RTVSPropertyOp0
 70
     1
102
RTVSPropertyOp1
 70
     1
102
RTVSPropertyOp2
 70
     1
102
RTVSPropertyOp3
 70
     1
102
RTVSPropertyOp4
 70
     1
102
RTVSPropertyOp5
 70
     1
102
RTVSPropertyOp6
 70
     1
102
RTVSPropertyOp7
 70
     1
102
RTVSPropertyOp8
 70
     1
102
RTVSPropertyOp9
 70
     1
102
RTVSPropertyOp10
 70
     1
102
RTVSPropertyOp11
 70
     1
102
RTVSPropertyOp12
 70
     1
102
RTVSPropertyOp13
 70
     1
102
RTVSPropertyOp14
 70
     1
102
RTVSPropertyOp15
 70
     1
102
RTVSPropertyOp16
 70
     1
102
RTVSPropertyOp17
 70
     1
102
RTVSPropertyOp18
 70
     1
102
RTVSPropertyOp19
 70
     1
102
RTVSPropertyOp20
 70
     1
102
RTVSPropertyOp21
 70
     1
102
RTVSPropertyOp22
 70
     1
102
RTVSPropertyOp23
 70
     1
102
RTVSPropertyOp24
 70
     1
102
RTVSPropertyOp25
 70
     1
102
RTVSPropertyOp26
 70
     1
102
RTVSPropertyOp27
 70
     1
102
RTVSPropertyOp28
 70
     1
102
RTVSPropertyOp29
 70
     1
102
RTVSPropertyOp30
 70
     1
102
RTVSPropertyOp31
 70
     1
102
RTVSPropertyOp32
 70
     1
  0
XRECORD
  5
57
102
{ACAD_REACTORS
330
56
102
}
330
56
100
AcDbXrecord
280
     1
102
RTVSPropertyOp0
 70
     1
102
RTVSPropertyOp1
 70
     1
102
RTVSPropertyOp2
 70
     1
102
RTVSPropertyOp3
 70
     1
102
RTVSPropertyOp4
 70
     1
102
RTVSPropertyOp5
 70
     1
102
RTVSPropertyOp6
 70
     1
102
RTVSPropertyOp7
 70
     1
102
RTVSPropertyOp8
 70
     1
102
RTVSPropertyOp9
 70
     1
102
RTVSPropertyOp10
 70
     1
102
RTVSPropertyOp11
 70
     1
102
RTVSPropertyOp12
 70
     1
102
RTVSPropertyOp13
 70
     1
102
RTVSPropertyOp14
 70
     1
102
RTVSPropertyOp15
 70
     1
102
RTVSPropertyOp16
 70
     1
102
RTVSPropertyOp17
 70
     1
102
RTVSPropertyOp18
 70
     1
102
RTVSPropertyOp19
 70
     1
102
RTVSPropertyOp20
 70
     1
102
RTVSPropertyOp21
 70
     1
102
RTVSPropertyOp22
 70
     1
102
RTVSPropertyOp23
 70
     1
102
RTVSPropertyOp24
 70
     1
102
RTVSPropertyOp25
 70
     1
102
RTVSPropertyOp26
 70
     1
102
RTVSPropertyOp27
 70
     1
102
RTVSPropertyOp28
 70
     1
102
RTVSPropertyOp29
 70
     1
102
RTVSPropertyOp30
 70
     1
102
RTVSPropertyOp31
 70
     1
102
RTVSPropertyOp32
 70
     1
  0
XRECORD
  5
59
102
{ACAD_REACTORS
330
58
102
}
330
58
100
AcDbXrecord
280
     1
102
RTVSPropertyOp0
 70
     1
102
RTVSPropertyOp1
 70
     1
102
RTVSPropertyOp2
 70
     1
102
RTVSPropertyOp3
 70
     1
102
RTVSPropertyOp4
 70
     1
102
RTVSPropertyOp5
 70
     1
102
RTVSPropertyOp6
 70
     1
102
RTVSPropertyOp7
 70
     1
102
RTVSPropertyOp8
 70
     1
102
RTVSPropertyOp9
 70
     1
102
RTVSPropertyOp10
 70
     1
102
RTVSPropertyOp11
 70
     1
102
RTVSPropertyOp12
 70
     1
102
RTVSPropertyOp13
 70
     1
102
RTVSPropertyOp14
 70
     1
102
RTVSPropertyOp15
 70
     1
102
RTVSPropertyOp16
 70
     1
102
RTVSPropertyOp17
 70
     1
102
RTVSPropertyOp18
 70
     1
102
RTVSPropertyOp19
 70
     1
102
RTVSPropertyOp20
 70
     1
102
RTVSPropertyOp21
 70
     1
102
RTVSPropertyOp22
 70
     1
102
RTVSPropertyOp23
 70
     1
102
RTVSPropertyOp24
 70
     1
102
RTVSPropertyOp25
 70
     1
102
RTVSPropertyOp26
 70
     1
102
RTVSPropertyOp27
 70
     1
102
RTVSPropertyOp28
 70
     1
102
RTVSPropertyOp29
 70
     1
102
RTVSPropertyOp30
 70
     1
102
RTVSPropertyOp31
 70
     1
102
RTVSPropertyOp32
 70
     1
  0
XRECORD
  5
61
102
{ACAD_REACTORS
330
60
102
}
330
60
100
AcDbXrecord
280
     1
102
RTVSPropertyOp0
 70
     1
102
RTVSPropertyOp1
 70
     1
102
RTVSPropertyOp2
 70
     1
102
RTVSPropertyOp3
 70
     1
102
RTVSPropertyOp4
 70
     1
102
RTVSPropertyOp5
 70
     1
102
RTVSPropertyOp6
 70
     1
102
RTVSPropertyOp7
 70
     1
102
RTVSPropertyOp8
 70
     1
102
RTVSPropertyOp9
 70
     1
102
RTVSPropertyOp10
 70
     1
102
RTVSPropertyOp11
 70
     1
102
RTVSPropertyOp12
 70
     1
102
RTVSPropertyOp13
 70
     1
102
RTVSPropertyOp14
 70
     1
102
RTVSPropertyOp15
 70
     1
102
RTVSPropertyOp16
 70
     1
102
RTVSPropertyOp17
 70
     1
102
RTVSPropertyOp18
 70
     1
102
RTVSPropertyOp19
 70
     1
102
RTVSPropertyOp20
 70
     1
102
RTVSPropertyOp21
 70
     1
102
RTVSPropertyOp22
 70
     1
102
RTVSPropertyOp23
 70
     1
102
RTVSPropertyOp24
 70
     1
102
RTVSPropertyOp25
 70
     1
102
RTVSPropertyOp26
 70
     1
102
RTVSPropertyOp27
 70
     1
102
RTVSPropertyOp28
 70
     1
102
RTVSPropertyOp29
 70
     1
102
RTVSPropertyOp30
 70
     1
102
RTVSPropertyOp31
 70
     1
102
RTVSPropertyOp32
 70
     1
  0
XRECORD
  5
45
102
{ACAD_REACTORS
330
44
102
}
330
44
100
AcDbXrecord
280
     1
102
RTVSPropertyOp0
 70
     1
102
RTVSPropertyOp1
 70
     1
102
RTVSPropertyOp2
 70
     1
102
RTVSPropertyOp3
 70
     1
102
RTVSPropertyOp4
 70
     1
102
RTVSPropertyOp5
 70
     1
102
RTVSPropertyOp6
 70
     1
102
RTVSPropertyOp7
 70
     1
102
RTVSPropertyOp8
 70
     1
102
RTVSPropertyOp9
 70
     1
102
RTVSPropertyOp10
 70
     1
102
RTVSPropertyOp11
 70
     1
102
RTVSPropertyOp12
 70
     1
102
RTVSPropertyOp13
 70
     1
102
RTVSPropertyOp14
 70
     1
102
RTVSPropertyOp15
 70
     1
102
RTVSPropertyOp16
 70
     1
102
RTVSPropertyOp17
 70
     1
102
RTVSPropertyOp18
 70
     1
102
RTVSPropertyOp19
 70
     1
102
RTVSPropertyOp20
 70
     1
102
RTVSPropertyOp21
 70
     1
102
RTVSPropertyOp22
 70
     1
102
RTVSPropertyOp23
 70
     1
102
RTVSPropertyOp24
 70
     1
102
RTVSPropertyOp25
 70
     1
102
RTVSPropertyOp26
 70
     1
102
RTVSPropertyOp27
 70
     1
102
RTVSPropertyOp28
 70
     1
102
RTVSPropertyOp29
 70
     1
102
RTVSPropertyOp30
 70
     1
102
RTVSPropertyOp31
 70
     1
102
RTVSPropertyOp32
 70
     1
  0
XRECORD
  5
47
102
{ACAD_REACTORS
330
46
102
}
330
46
100
AcDbXrecord
280
     1
102
RTVSPropertyOp0
 70
     1
102
RTVSPropertyOp1
 70
     1
102
RTVSPropertyOp2
 70
     1
102
RTVSPropertyOp3
 70
     1
102
RTVSPropertyOp4
 70
     1
102
RTVSPropertyOp5
 70
     1
102
RTVSPropertyOp6
 70
     1
102
RTVSPropertyOp7
 70
     1
102
RTVSPropertyOp8
 70
     1
102
RTVSPropertyOp9
 70
     1
102
RTVSPropertyOp10
 70
     1
102
RTVSPropertyOp11
 70
     1
102
RTVSPropertyOp12
 70
     1
102
RTVSPropertyOp13
 70
     1
102
RTVSPropertyOp14
 70
     1
102
RTVSPropertyOp15
 70
     1
102
RTVSPropertyOp16
 70
     1
102
RTVSPropertyOp17
 70
     1
102
RTVSPropertyOp18
 70
     1
102
RTVSPropertyOp19
 70
     1
102
RTVSPropertyOp20
 70
     1
102
RTVSPropertyOp21
 70
     1
102
RTVSPropertyOp22
 70
     1
102
RTVSPropertyOp23
 70
     1
102
RTVSPropertyOp24
 70
     1
102
RTVSPropertyOp25
 70
     1
102
RTVSPropertyOp26
 70
     1
102
RTVSPropertyOp27
 70
     1
102
RTVSPropertyOp28
 70
     1
102
RTVSPropertyOp29
 70
     1
102
RTVSPropertyOp30
 70
     1
102
RTVSPropertyOp31
 70
     1
102
RTVSPropertyOp32
 70
     1
  0
XRECORD
  5
49
102
{ACAD_REACTORS
330
48
102
}
330
48
100
AcDbXrecord
280
     1
102
RTVSPropertyOp0
 70
     1
102
RTVSPropertyOp1
 70
     1
102
RTVSPropertyOp2
 70
     1
102
RTVSPropertyOp3
 70
     1
102
RTVSPropertyOp4
 70
     1
102
RTVSPropertyOp5
 70
     1
102
RTVSPropertyOp6
 70
     1
102
RTVSPropertyOp7
 70
     1
102
RTVSPropertyOp8
 70
     1
102
RTVSPropertyOp9
 70
     1
102
RTVSPropertyOp10
 70
     1
102
RTVSPropertyOp11
 70
     1
102
RTVSPropertyOp12
 70
     1
102
RTVSPropertyOp13
 70
     1
102
RTVSPropertyOp14
 70
     1
102
RTVSPropertyOp15
 70
     1
102
RTVSPropertyOp16
 70
     1
102
RTVSPropertyOp17
 70
     1
102
RTVSPropertyOp18
 70
     1
102
RTVSPropertyOp19
 70
     1
102
RTVSPropertyOp20
 70
     1
102
RTVSPropertyOp21
 70
     1
102
RTVSPropertyOp22
 70
     1
102
RTVSPropertyOp23
 70
     1
102
RTVSPropertyOp24
 70
     1
102
RTVSPropertyOp25
 70
     1
102
RTVSPropertyOp26
 70
     1
102
RTVSPropertyOp27
 70
     1
102
RTVSPropertyOp28
 70
     1
102
RTVSPropertyOp29
 70
     1
102
RTVSPropertyOp30
 70
     1
102
RTVSPropertyOp31
 70
     1
102
RTVSPropertyOp32
 70
     1
  0
XRECORD
  5
4B
102
{ACAD_REACTORS
330
4A
102
}
330
4A
100
AcDbXrecord
280
     1
102
RTVSPropertyOp0
 70
     1
102
RTVSPropertyOp1
 70
     1
102
RTVSPropertyOp2
 70
     1
102
RTVSPropertyOp3
 70
     1
102
RTVSPropertyOp4
 70
     1
102
RTVSPropertyOp5
 70
     1
102
RTVSPropertyOp6
 70
     1
102
RTVSPropertyOp7
 70
     1
102
RTVSPropertyOp8
 70
     1
102
RTVSPropertyOp9
 70
     1
102
RTVSPropertyOp10
 70
     1
102
RTVSPropertyOp11
 70
     1
102
RTVSPropertyOp12
 70
     1
102
RTVSPropertyOp13
 70
     1
102
RTVSPropertyOp14
 70
     1
102
RTVSPropertyOp15
 70
     1
102
RTVSPropertyOp16
 70
     1
102
RTVSPropertyOp17
 70
     1
102
RTVSPropertyOp18
 70
     1
102
RTVSPropertyOp19
 70
     1
102
RTVSPropertyOp20
 70
     1
102
RTVSPropertyOp21
 70
     1
102
RTVSPropertyOp22
 70
     1
102
RTVSPropertyOp23
 70
     1
102
RTVSPropertyOp24
 70
     1
102
RTVSPropertyOp25
 70
     1
102
RTVSPropertyOp26
 70
     1
102
RTVSPropertyOp27
 70
     1
102
RTVSPropertyOp28
 70
     1
102
RTVSPropertyOp29
 70
     1
102
RTVSPropertyOp30
 70
     1
102
RTVSPropertyOp31
 70
     1
102
RTVSPropertyOp32
 70
     1
  0
XRECORD
  5
5F
102
{ACAD_REACTORS
330
5E
102
}
330
5E
100
AcDbXrecord
280
     1
102
RTVSPropertyOp0
 70
     1
102
RTVSPropertyOp1
 70
     1
102
RTVSPropertyOp2
 70
     1
102
RTVSPropertyOp3
 70
     1
102
RTVSPropertyOp4
 70
     1
102
RTVSPropertyOp5
 70
     1
102
RTVSPropertyOp6
 70
     1
102
RTVSPropertyOp7
 70
     1
102
RTVSPropertyOp8
 70
     1
102
RTVSPropertyOp9
 70
     1
102
RTVSPropertyOp10
 70
     1
102
RTVSPropertyOp11
 70
     1
102
RTVSPropertyOp12
 70
     1
102
RTVSPropertyOp13
 70
     1
102
RTVSPropertyOp14
 70
     1
102
RTVSPropertyOp15
 70
     1
102
RTVSPropertyOp16
 70
     1
102
RTVSPropertyOp17
 70
     1
102
RTVSPropertyOp18
 70
     1
102
RTVSPropertyOp19
 70
     1
102
RTVSPropertyOp20
 70
     1
102
RTVSPropertyOp21
 70
     1
102
RTVSPropertyOp22
 70
     1
102
RTVSPropertyOp23
 70
     1
102
RTVSPropertyOp24
 70
     1
102
RTVSPropertyOp25
 70
     1
102
RTVSPropertyOp26
 70
     1
102
RTVSPropertyOp27
 70
     1
102
RTVSPropertyOp28
 70
     1
102
RTVSPropertyOp29
 70
     1
102
RTVSPropertyOp30
 70
     1
102
RTVSPropertyOp31
 70
     1
102
RTVSPropertyOp32
 70
     1
  0
XRECORD
  5
55
102
{ACAD_REACTORS
330
54
102
}
330
54
100
AcDbXrecord
280
     1
102
RTVSPropertyOp0
 70
     1
102
RTVSPropertyOp1
 70
     1
102
RTVSPropertyOp2
 70
     1
102
RTVSPropertyOp3
 70
     1
102
RTVSPropertyOp4
 70
     1
102
RTVSPropertyOp5
 70
     1
102
RTVSPropertyOp6
 70
     1
102
RTVSPropertyOp7
 70
     1
102
RTVSPropertyOp8
 70
     1
102
RTVSPropertyOp9
 70
     1
102
RTVSPropertyOp10
 70
     1
102
RTVSPropertyOp11
 70
     1
102
RTVSPropertyOp12
 70
     1
102
RTVSPropertyOp13
 70
     1
102
RTVSPropertyOp14
 70
     1
102
RTVSPropertyOp15
 70
     1
102
RTVSPropertyOp16
 70
     1
102
RTVSPropertyOp17
 70
     1
102
RTVSPropertyOp18
 70
     1
102
RTVSPropertyOp19
 70
     1
102
RTVSPropertyOp20
 70
     1
102
RTVSPropertyOp21
 70
     1
102
RTVSPropertyOp22
 70
     1
102
RTVSPropertyOp23
 70
     1
102
RTVSPropertyOp24
 70
     1
102
RTVSPropertyOp25
 70
     1
102
RTVSPropertyOp26
 70
     1
102
RTVSPropertyOp27
 70
     1
102
RTVSPropertyOp28
 70
     1
102
RTVSPropertyOp29
 70
     1
102
RTVSPropertyOp30
 70
     1
102
RTVSPropertyOp31
 70
     1
102
RTVSPropertyOp32
 70
     1
  0
XRECORD
  5
5D
102
{ACAD_REACTORS
330
5C
102
}
330
5C
100
AcDbXrecord
280
     1
102
RTVSPropertyOp0
 70
     1
102
RTVSPropertyOp1
 70
     1
102
RTVSPropertyOp2
 70
     1
102
RTVSPropertyOp3
 70
     1
102
RTVSPropertyOp4
 70
     1
102
RTVSPropertyOp5
 70
     1
102
RTVSPropertyOp6
 70
     1
102
RTVSPropertyOp7
 70
     1
102
RTVSPropertyOp8
 70
     1
102
RTVSPropertyOp9
 70
     1
102
RTVSPropertyOp10
 70
     1
102
RTVSPropertyOp11
 70
     1
102
RTVSPropertyOp12
 70
     1
102
RTVSPropertyOp13
 70
     1
102
RTVSPropertyOp14
 70
     1
102
RTVSPropertyOp15
 70
     1
102
RTVSPropertyOp16
 70
     1
102
RTVSPropertyOp17
 70
     1
102
RTVSPropertyOp18
 70
     1
102
RTVSPropertyOp19
 70
     1
102
RTVSPropertyOp20
 70
     1
102
RTVSPropertyOp21
 70
     1
102
RTVSPropertyOp22
 70
     1
102
RTVSPropertyOp23
 70
     1
102
RTVSPropertyOp24
 70
     1
102
RTVSPropertyOp25
 70
     1
102
RTVSPropertyOp26
 70
     1
102
RTVSPropertyOp27
 70
     1
102
RTVSPropertyOp28
 70
     1
102
RTVSPropertyOp29
 70
     1
102
RTVSPropertyOp30
 70
     1
102
RTVSPropertyOp31
 70
     1
102
RTVSPropertyOp32
 70
     1
  0
ENDSEC
  0
EOF
