  0
SECTION
  2
HEADER
  9
$ACADVER
  1
AC1021
  9
$ACADMAINTVER
 70
    25
  9
$DWGCODEPAGE
  3
ANSI_1252
  9
$INSBASE
 10
0.0
 20
0.0
 30
0.0
  9
$EXTMIN
 10
1.000000000000000E+20
 20
1.000000000000000E+20
 30
1.000000000000000E+20
  9
$EXTMAX
 10
-1.000000000000000E+20
 20
-1.000000000000000E+20
 30
-1.000000000000000E+20
  9
$LIMMIN
 10
0.0
 20
0.0
  9
$LIMMAX
 10
12.0
 20
9.0
  9
$ORTHOMODE
 70
     0
  9
$REGENMODE
 70
     1
  9
$FILLMODE
 70
     1
  9
$QTEXTMODE
 70
     0
  9
$MIRRTEXT
 70
     1
  9
$LTSCALE
 40
1.0
  9
$ATTMODE
 70
     1
  9
$TEXTSIZE
 40
0.2
  9
$TRACEWID
 40
0.05
  9
$TEXTSTYLE
  7
Standard
  9
$CLAYER
  8
0
  9
$CELTYPE
  6
ByLayer
  9
$CECOLOR
 62
   256
  9
$CELTSCALE
 40
1.0
  9
$DISPSILH
 70
     0
  9
$DIMSCALE
 40
1.0
  9
$DIMASZ
 40
0.18
  9
$DIMEXO
 40
0.0625
  9
$DIMDLI
 40
0.38
  9
$DIMRND
 40
0.0
  9
$DIMDLE
 40
0.0
  9
$DIMEXE
 40
0.18
  9
$DIMTP
 40
0.0
  9
$DIMTM
 40
0.0
  9
$DIMTXT
 40
0.18
  9
$DIMCEN
 40
0.09
  9
$DIMTSZ
 40
0.0
  9
$DIMTOL
 70
     0
  9
$DIMLIM
 70
     0
  9
$DIMTIH
 70
     1
  9
$DIMTOH
 70
     1
  9
$DIMSE1
 70
     0
  9
$DIMSE2
 70
     0
  9
$DIMTAD
 70
     0
  9
$DIMZIN
 70
     0
  9
$DIMBLK
  1

  9
$DIMASO
 70
     1
  9
$DIMSHO
 70
     1
  9
$DIMPOST
  1

  9
$DIMAPOST
  1

  9
$DIMALT
 70
     0
  9
$DIMALTD
 70
     2
  9
$DIMALTF
 40
25.4
  9
$DIMLFAC
 40
1.0
  9
$DIMTOFL
 70
     0
  9
$DIMTVP
 40
0.0
  9
$DIMTIX
 70
     0
  9
$DIMSOXD
 70
     0
  9
$DIMSAH
 70
     0
  9
$DIMBLK1
  1

  9
$DIMBLK2
  1

  9
$DIMSTYLE
  2
Standard
  9
$DIMCLRD
 70
     0
  9
$DIMCLRE
 70
     0
  9
$DIMCLRT
 70
     0
  9
$DIMTFAC
 40
1.0
  9
$DIMGAP
 40
0.09
  9
$DIMJUST
 70
     0
  9
$DIMSD1
 70
     0
  9
$DIMSD2
 70
     0
  9
$DIMTOLJ
 70
     1
  9
$DIMTZIN
 70
     0
  9
$DIMALTZ
 70
     0
  9
$DIMALTTZ
 70
     0
  9
$DIMUPT
 70
     0
  9
$DIMDEC
 70
     4
  9
$DIMTDEC
 70
     4
  9
$DIMALTU
 70
     2
  9
$DIMALTTD
 70
     2
  9
$DIMTXSTY
  7
Standard
  9
$DIMAUNIT
 70
     0
  9
$DIMADEC
 70
     0
  9
$DIMALTRND
 40
0.0
  9
$DIMAZIN
 70
     0
  9
$DIMDSEP
 70
    46
  9
$DIMATFIT
 70
     3
  9
$DIMFRAC
 70
     0
  9
$DIMLDRBLK
  1

  9
$DIMLUNIT
 70
     2
  9
$DIMLWD
 70
    -2
  9
$DIMLWE
 70
    -2
  9
$DIMTMOVE
 70
     0
  9
$DIMFXL
 40
1.0
  9
$DIMFXLON
 70
     0
  9
$DIMJOGANG
 40
0.7853981633974483
  9
$DIMTFILL
 70
     0
  9
$DIMTFILLCLR
 70
     0
  9
$DIMARCSYM
 70
     0
  9
$DIMLTYPE
  6

  9
$DIMLTEX1
  6

  9
$DIMLTEX2
  6

  9
$LUNITS
 70
     2
  9
$LUPREC
 70
     4
  9
$SKETCHINC
 40
0.1
  9
$FILLETRAD
 40
0.5
  9
$AUNITS
 70
     0
  9
$AUPREC
 70
     0
  9
$MENU
  1
.
  9
$ELEVATION
 40
0.0
  9
$PELEVATION
 40
0.0
  9
$THICKNESS
 40
0.0
  9
$LIMCHECK
 70
     0
  9
$CHAMFERA
 40
0.5
  9
$CHAMFERB
 40
0.5
  9
$CHAMFERC
 40
1.0
  9
$CHAMFERD
 40
0.0
  9
$SKPOLY
 70
     0
  9
$TDCREATE
 40
2458551.626075775
  9
$TDUCREATE
 40
2458551.334409109
  9
$TDUPDATE
 40
2458551.626075961
  9
$TDUUPDATE
 40
2458551.334409294
  9
$TDINDWG
 40
0.0000000116
  9
$TDUSRTIMER
 40
0.0000000116
  9
$USRTIMER
 70
     1
  9
$ANGBASE
 50
0.0
  9
$ANGDIR
 70
     0
  9
$PDMODE
 70
     0
  9
$PDSIZE
 40
0.0
  9
$PLINEWID
 40
0.0
  9
$SPLFRAME
 70
     0
  9
$SPLINETYPE
 70
     6
  9
$SPLINESEGS
 70
     8
  9
$HANDSEED
  5
65
  9
$SURFTAB1
 70
     6
  9
$SURFTAB2
 70
     6
  9
$SURFTYPE
 70
     6
  9
$SURFU
 70
     6
  9
$SURFV
 70
     6
  9
$UCSBASE
  2

  9
$UCSNAME
  2

  9
$UCSORG
 10
0.0
 20
0.0
 30
0.0
  9
$UCSXDIR
 10
1.0
 20
0.0
 30
0.0
  9
$UCSYDIR
 10
0.0
 20
1.0
 30
0.0
  9
$UCSORTHOREF
  2

  9
$UCSORTHOVIEW
 70
     0
  9
$UCSORGTOP
 10
0.0
 20
0.0
 30
0.0
  9
$UCSORGBOTTOM
 10
0.0
 20
0.0
 30
0.0
  9
$UCSORGLEFT
 10
0.0
 20
0.0
 30
0.0
  9
$UCSORGRIGHT
 10
0.0
 20
0.0
 30
0.0
  9
$UCSORGFRONT
 10
0.0
 20
0.0
 30
0.0
  9
$UCSORGBACK
 10
0.0
 20
0.0
 30
0.0
  9
$PUCSBASE
  2

  9
$PUCSNAME
  2

  9
$PUCSORG
 10
0.0
 20
0.0
 30
0.0
  9
$PUCSXDIR
 10
1.0
 20
0.0
 30
0.0
  9
$PUCSYDIR
 10
0.0
 20
1.0
 30
0.0
  9
$PUCSORTHOREF
  2

  9
$PUCSORTHOVIEW
 70
     0
  9
$PUCSORGTOP
 10
0.0
 20
0.0
 30
0.0
  9
$PUCSORGBOTTOM
 10
0.0
 20
0.0
 30
0.0
  9
$PUCSORGLEFT
 10
0.0
 20
0.0
 30
0.0
  9
$PUCSORGRIGHT
 10
0.0
 20
0.0
 30
0.0
  9
$PUCSORGFRONT
 10
0.0
 20
0.0
 30
0.0
  9
$PUCSORGBACK
 10
0.0
 20
0.0
 30
0.0
  9
$USERI1
 70
     0
  9
$USERI2
 70
     0
  9
$USERI3
 70
     0
  9
$USERI4
 70
     0
  9
$USERI5
 70
     0
  9
$USERR1
 40
0.0
  9
$USERR2
 40
0.0
  9
$USERR3
 40
0.0
  9
$USERR4
 40
0.0
  9
$USERR5
 40
0.0
  9
$WORLDVIEW
 70
     1
  9
$SHADEDGE
 70
     3
  9
$SHADEDIF
 70
    70
  9
$TILEMODE
 70
     1
  9
$MAXACTVP
 70
    64
  9
$PINSBASE
 10
0.0
 20
0.0
 30
0.0
  9
$PLIMCHECK
 70
     0
  9
$PEXTMIN
 10
1.000000000000000E+20
 20
1.000000000000000E+20
 30
1.000000000000000E+20
  9
$PEXTMAX
 10
-1.000000000000000E+20
 20
-1.000000000000000E+20
 30
-1.000000000000000E+20
  9
$PLIMMIN
 10
0.0
 20
0.0
  9
$PLIMMAX
 10
12.0
 20
9.0
  9
$UNITMODE
 70
     0
  9
$VISRETAIN
 70
     1
  9
$PLINEGEN
 70
     0
  9
$PSLTSCALE
 70
     1
  9
$TREEDEPTH
 70
  3020
  9
$CMLSTYLE
  2
Standard
  9
$CMLJUST
 70
     0
  9
$CMLSCALE
 40
1.0
  9
$PROXYGRAPHICS
 70
     1
  9
$MEASUREMENT
 70
     0
  9
$CELWEIGHT
370
    -1
  9
$ENDCAPS
280
     0
  9
$JOINSTYLE
280
     0
  9
$LWDISPLAY
290
     1
  9
$INSUNITS
 70
     1
  9
$HYPERLINKBASE
  1

  9
$STYLESHEET
  1

  9
$XEDIT
290
     1
  9
$CEPSNTYPE
380
     0
  9
$PSTYLEMODE
290
     1
  9
$FINGERPRINTGUID
  2
{008B96D2-541D-439B-8706-14CCEB870451}
  9
$VERSIONGUID
  2
{FAEB1C32-E019-11D5-929B-00C0DF256EC4}
  9
$EXTNAMES
290
     1
  9
$PSVPSCALE
 40
0.0
  9
$OLESTARTUP
290
     0
  9
$SORTENTS
280
   127
  9
$INDEXCTL
280
     0
  9
$HIDETEXT
280
     1
  9
$XCLIPFRAME
290
     0
  9
$HALOGAP
280
     0
  9
$OBSCOLOR
 70
   257
  9
$OBSLTYPE
280
     0
  9
$INTERSECTIONDISPLAY
280
     0
  9
$INTERSECTIONCOLOR
 70
   257
  9
$DIMASSOC
280
     2
  9
$PROJECTNAME
  1

  9
$CAMERADISPLAY
290
     0
  9
$LENSLENGTH
 40
50.0
  9
$CAMERAHEIGHT
 40
0.0
  9
$STEPSPERSEC
 40
2.0
  9
$STEPSIZE
 40
6.0
  9
$3DDWFPREC
 40
2.0
  9
$PSOLWIDTH
 40
0.25
  9
$PSOLHEIGHT
 40
4.0
  9
$LOFTANG1
 40
1.570796326794897
  9
$LOFTANG2
 40
1.570796326794897
  9
$LOFTMAG1
 40
0.0
  9
$LOFTMAG2
 40
0.0
  9
$LOFTPARAM
 70
     7
  9
$LOFTNORMALS
280
     1
  9
$LATITUDE
 40
37.795
  9
$LONGITUDE
 40
-122.394
  9
$NORTHDIRECTION
 40
0.0
  9
$TIMEZONE
 70
 -8000
  9
$LIGHTGLYPHDISPLAY
280
     1
  9
$TILEMODELIGHTSYNCH
280
     1
  9
$CMATERIAL
347
3C
  9
$SOLIDHIST
280
     1
  9
$SHOWHIST
280
     1
  9
$DWFFRAME
280
     2
  9
$DGNFRAME
280
     2
  9
$REALWORLDSCALE
290
     1
  9
$INTERFERECOLOR
 62
   256
  9
$CSHADOW
280
     0
  9
$SHADOWPLANELOCATION
 40
0.0
  0
ENDSEC
  0
SECTION
  2
CLASSES
  0
CLASS
  1
ACDBDICTIONARYWDFLT
  2
AcDbDictionaryWithDefault
  3
ObjectDBX Classes
 90
        0
 91
        4
280
     0
281
     0
  0
CLASS
  1
VISUALSTYLE
  2
AcDbVisualStyle
  3
ObjectDBX Classes
 90
     4095
 91
        4
280
     0
281
     0
  0
CLASS
  1
MATERIAL
  2
AcDbMaterial
  3
ObjectDBX Classes
 90
     1153
 91
        4
280
     0
281
     0
  0
CLASS
  1
SUN
  2
AcDbSun
  3
SCENEOE
 90
     1024
 91
        4
280
     0
281
     0
  0
ENDSEC
  0
SECTION
  2
TABLES
  0
TABLE
  2
VPORT
  5
8
330
0
100
AcDbSymbolTable
 70
     1
  0
VPORT
  5
29
330
8
100
AcDbSymbolTableRecord
100
AcDbViewportTableRecord
  2
*Active
 70
     0
 10
0.0
 20
0.0
 11
1.0
 21
1.0
 12
0.0
 22
0.0
 13
0.0
 23
0.0
 14
0.5
 24
0.5
 15
0.5
 25
0.5
 16
0.0
 26
0.0
 36
1.0
 17
39.99961911841359
 27
-39.99962012888904
 37
0.0
 40
79.99924025777808
 41
0.9999999747378738
 42
50.0
 43
0.0
 44
0.0
 50
0.0
 51
0.0
 71
     0
 72
   100
 73
     1
 74
     3
 75
     0
 76
     0
 77
     0
 78
     0
281
     0
 65
     1
110
0.0
120
0.0
130
0.0
111
1.0
121
0.0
131
0.0
112
0.0
122
1.0
132
0.0
 79
     0
146
0.0
 60
     3
 61
     5
292
     1
282
     1
141
0.0
142
0.0
 63
   250
361
3F
  0
ENDTAB
  0
TABLE
  2
LTYPE
  5
5
330
0
100
AcDbSymbolTable
 70
     1
  0
LTYPE
  5
14
330
5
100
AcDbSymbolTableRecord
100
AcDbLinetypeTableRecord
  2
ByBlock
 70
     0
  3

 72
    65
 73
     0
 40
0.0
  0
LTYPE
  5
15
330
5
100
AcDbSymbolTableRecord
100
AcDbLinetypeTableRecord
  2
ByLayer
 70
     0
  3

 72
    65
 73
     0
 40
0.0
  0
LTYPE
  5
16
330
5
100
AcDbSymbolTableRecord
100
AcDbLinetypeTableRecord
  2
Continuous
 70
     0
  3
Solid line
 72
    65
 73
     0
 40
0.0
  0
ENDTAB
  0
TABLE
  2
LAYER
  5
2
330
0
100
AcDbSymbolTable
 70
     2
  0
LAYER
  5
10
330
2
100
AcDbSymbolTableRecord
100
AcDbLayerTableRecord
  2
0
 70
     0
 62
     7
  6
Continuous
370
    -3
390
F
347
3E
  0
LAYER
  5
40
330
2
100
AcDbSymbolTableRecord
100
AcDbLayerTableRecord
  2
Layer 1
 70
     0
 62
     7
  6
Continuous
370
    -3
390
F
347
3E
  0
ENDTAB
  0
TABLE
  2
STYLE
  5
3
330
0
100
AcDbSymbolTable
 70
     1
  0
STYLE
  5
11
330
3
100
AcDbSymbolTableRecord
100
AcDbTextStyleTableRecord
  2
Standard
 70
     0
 40
0.0
 41
1.0
 50
0.0
 71
     0
 42
0.2
  3
txt
  4

  0
ENDTAB
  0
TABLE
  2
VIEW
  5
6
330
0
100
AcDbSymbolTable
 70
     0
  0
ENDTAB
  0
TABLE
  2
UCS
  5
7
330
0
100
AcDbSymbolTable
 70
     0
  0
ENDTAB
  0
TABLE
  2
APPID
  5
9
330
0
100
AcDbSymbolTable
 70
     1
  0
APPID
  5
12
330
9
100
AcDbSymbolTableRecord
100
AcDbRegAppTableRecord
  2
ACAD
 70
     0
  0
ENDTAB
  0
TABLE
  2
DIMSTYLE
  5
A
330
0
100
AcDbSymbolTable
 70
     1
100
AcDbDimStyleTable
  0
DIMSTYLE
105
27
330
A
100
AcDbSymbolTableRecord
100
AcDbDimStyleTableRecord
  2
Standard
 70
     0
178
     0
340
11
  0
ENDTAB
  0
TABLE
  2
BLOCK_RECORD
  5
1
330
0
100
AcDbSymbolTable
 70
     1
  0
BLOCK_RECORD
  5
1F
330
1
100
AcDbSymbolTableRecord
100
AcDbBlockTableRecord
  2
*Model_Space
340
22
 70
     0
280
     1
281
     0
  0
BLOCK_RECORD
  5
1B
330
1
100
AcDbSymbolTableRecord
100
AcDbBlockTableRecord
  2
*Paper_Space
340
1E
 70
     0
280
     1
281
     0
  0
BLOCK_RECORD
  5
23
330
1
100
AcDbSymbolTableRecord
100
AcDbBlockTableRecord
  2
*Paper_Space0
340
26
 70
     0
280
     1
281
     0
  0
ENDTAB
  0
ENDSEC
  0
SECTION
  2
BLOCKS
  0
BLOCK
  5
20
330
1F
100
AcDbEntity
  8
0
100
AcDbBlockBegin
  2
*Model_Space
 70
     0
 10
0.0
 20
0.0
 30
0.0
  3
*Model_Space
  1

  0
ENDBLK
  5
21
330
1F
100
AcDbEntity
  8
0
100
AcDbBlockEnd
  0
BLOCK
  5
1C
330
1B
100
AcDbEntity
 67
     1
  8
0
100
AcDbBlockBegin
  2
*Paper_Space
 70
     0
 10
0.0
 20
0.0
 30
0.0
  3
*Paper_Space
  1

  0
ENDBLK
  5
1D
330
1B
100
AcDbEntity
 67
     1
  8
0
100
AcDbBlockEnd
  0
BLOCK
  5
24
330
23
100
AcDbEntity
  8
0
100
AcDbBlockBegin
  2
*Paper_Space0
 70
     0
 10
0.0
 20
0.0
 30
0.0
  3
*Paper_Space0
  1

  0
ENDBLK
  5
25
330
23
100
AcDbEntity
  8
0
100
AcDbBlockEnd
  0
ENDSEC
  0
SECTION
  2
ENTITIES
  0
SPLINE
  5
41
330
1F
100
AcDbEntity
  8
Layer 1
370
     0
100
AcDbSpline
210
0.0
220
0.0
230
1.0
 70
    11
 71
     3
 72
   566
 73
   562
 74
     0
 42
0.0000000001
 43
0.0000000001
 12
1.0
 22
0.0
 32
0.0
 13
1.0
 23
0.0
 33
0.0
 40
0.0
 40
0.0
 40
0.0
 40
0.0
 40
1.0
 40
1.0
 40
1.0
 40
2.0
 40
2.0
 40
2.0
 40
3.0
 40
3.0
 40
3.0
 40
4.0
 40
4.0
 40
4.0
 40
5.0
 40
5.0
 40
5.0
 40
6.0
 40
6.0
 40
6.0
 40
7.0
 40
7.0
 40
7.0
 40
8.0
 40
8.0
 40
8.0
 40
9.0
 40
9.0
 40
9.0
 40
10.0
 40
10.0
 40
10.0
 40
11.0
 40
11.0
 40
11.0
 40
12.0
 40
12.0
 40
12.0
 40
13.0
 40
13.0
 40
13.0
 40
14.0
 40
14.0
 40
14.0
 40
15.0
 40
15.0
 40
15.0
 40
16.0
 40
16.0
 40
16.0
 40
17.0
 40
17.0
 40
17.0
 40
18.0
 40
18.0
 40
18.0
 40
19.0
 40
19.0
 40
19.0
 40
20.0
 40
20.0
 40
20.0
 40
21.0
 40
21.0
 40
21.0
 40
22.0
 40
22.0
 40
22.0
 40
23.0
 40
23.0
 40
23.0
 40
24.0
 40
24.0
 40
24.0
 40
25.0
 40
25.0
 40
25.0
 40
26.0
 40
26.0
 40
26.0
 40
27.0
 40
27.0
 40
27.0
 40
28.0
 40
28.0
 40
28.0
 40
29.0
 40
29.0
 40
29.0
 40
30.0
 40
30.0
 40
30.0
 40
31.0
 40
31.0
 40
31.0
 40
32.0
 40
32.0
 40
32.0
 40
33.0
 40
33.0
 40
33.0
 40
34.0
 40
34.0
 40
34.0
 40
35.0
 40
35.0
 40
35.0
 40
36.0
 40
36.0
 40
36.0
 40
37.0
 40
37.0
 40
37.0
 40
38.0
 40
38.0
 40
38.0
 40
39.0
 40
39.0
 40
39.0
 40
40.0
 40
40.0
 40
40.0
 40
41.0
 40
41.0
 40
41.0
 40
42.0
 40
42.0
 40
42.0
 40
43.0
 40
43.0
 40
43.0
 40
44.0
 40
44.0
 40
44.0
 40
45.0
 40
45.0
 40
45.0
 40
46.0
 40
46.0
 40
46.0
 40
47.0
 40
47.0
 40
47.0
 40
48.0
 40
48.0
 40
48.0
 40
49.0
 40
49.0
 40
49.0
 40
50.0
 40
50.0
 40
50.0
 40
51.0
 40
51.0
 40
51.0
 40
52.0
 40
52.0
 40
52.0
 40
53.0
 40
53.0
 40
53.0
 40
54.0
 40
54.0
 40
54.0
 40
55.0
 40
55.0
 40
55.0
 40
56.0
 40
56.0
 40
56.0
 40
57.0
 40
57.0
 40
57.0
 40
58.0
 40
58.0
 40
58.0
 40
59.0
 40
59.0
 40
59.0
 40
60.0
 40
60.0
 40
60.0
 40
61.0
 40
61.0
 40
61.0
 40
62.0
 40
62.0
 40
62.0
 40
63.0
 40
63.0
 40
63.0
 40
64.0
 40
64.0
 40
64.0
 40
65.0
 40
65.0
 40
65.0
 40
66.0
 40
66.0
 40
66.0
 40
67.0
 40
67.0
 40
67.0
 40
68.0
 40
68.0
 40
68.0
 40
69.0
 40
69.0
 40
69.0
 40
70.0
 40
70.0
 40
70.0
 40
71.0
 40
71.0
 40
71.0
 40
72.0
 40
72.0
 40
72.0
 40
73.0
 40
73.0
 40
73.0
 40
74.0
 40
74.0
 40
74.0
 40
75.0
 40
75.0
 40
75.0
 40
76.0
 40
76.0
 40
76.0
 40
77.0
 40
77.0
 40
77.0
 40
78.0
 40
78.0
 40
78.0
 40
79.0
 40
79.0
 40
79.0
 40
80.0
 40
80.0
 40
80.0
 40
81.0
 40
81.0
 40
81.0
 40
82.0
 40
82.0
 40
82.0
 40
83.0
 40
83.0
 40
83.0
 40
84.0
 40
84.0
 40
84.0
 40
85.0
 40
85.0
 40
85.0
 40
86.0
 40
86.0
 40
86.0
 40
87.0
 40
87.0
 40
87.0
 40
88.0
 40
88.0
 40
88.0
 40
89.0
 40
89.0
 40
89.0
 40
90.0
 40
90.0
 40
90.0
 40
91.0
 40
91.0
 40
91.0
 40
92.0
 40
92.0
 40
92.0
 40
93.0
 40
93.0
 40
93.0
 40
94.0
 40
94.0
 40
94.0
 40
95.0
 40
95.0
 40
95.0
 40
96.0
 40
96.0
 40
96.0
 40
97.0
 40
97.0
 40
97.0
 40
98.0
 40
98.0
 40
98.0
 40
99.0
 40
99.0
 40
99.0
 40
100.0
 40
100.0
 40
100.0
 40
101.0
 40
101.0
 40
101.0
 40
102.0
 40
102.0
 40
102.0
 40
103.0
 40
103.0
 40
103.0
 40
104.0
 40
104.0
 40
104.0
 40
105.0
 40
105.0
 40
105.0
 40
106.0
 40
106.0
 40
106.0
 40
107.0
 40
107.0
 40
107.0
 40
108.0
 40
108.0
 40
108.0
 40
109.0
 40
109.0
 40
109.0
 40
110.0
 40
110.0
 40
110.0
 40
111.0
 40
111.0
 40
111.0
 40
112.0
 40
112.0
 40
112.0
 40
113.0
 40
113.0
 40
113.0
 40
114.0
 40
114.0
 40
114.0
 40
115.0
 40
115.0
 40
115.0
 40
116.0
 40
116.0
 40
116.0
 40
117.0
 40
117.0
 40
117.0
 40
118.0
 40
118.0
 40
118.0
 40
119.0
 40
119.0
 40
119.0
 40
120.0
 40
120.0
 40
120.0
 40
121.0
 40
121.0
 40
121.0
 40
122.0
 40
122.0
 40
122.0
 40
123.0
 40
123.0
 40
123.0
 40
124.0
 40
124.0
 40
124.0
 40
125.0
 40
125.0
 40
125.0
 40
126.0
 40
126.0
 40
126.0
 40
127.0
 40
127.0
 40
127.0
 40
128.0
 40
128.0
 40
128.0
 40
129.0
 40
129.0
 40
129.0
 40
130.0
 40
130.0
 40
130.0
 40
131.0
 40
131.0
 40
131.0
 40
132.0
 40
132.0
 40
132.0
 40
133.0
 40
133.0
 40
133.0
 40
134.0
 40
134.0
 40
134.0
 40
135.0
 40
135.0
 40
135.0
 40
136.0
 40
136.0
 40
136.0
 40
137.0
 40
137.0
 40
137.0
 40
138.0
 40
138.0
 40
138.0
 40
139.0
 40
139.0
 40
139.0
 40
140.0
 40
140.0
 40
140.0
 40
141.0
 40
141.0
 40
141.0
 40
142.0
 40
142.0
 40
142.0
 40
143.0
 40
143.0
 40
143.0
 40
144.0
 40
144.0
 40
144.0
 40
145.0
 40
145.0
 40
145.0
 40
146.0
 40
146.0
 40
146.0
 40
147.0
 40
147.0
 40
147.0
 40
148.0
 40
148.0
 40
148.0
 40
149.0
 40
149.0
 40
149.0
 40
150.0
 40
150.0
 40
150.0
 40
151.0
 40
151.0
 40
151.0
 40
152.0
 40
152.0
 40
152.0
 40
153.0
 40
153.0
 40
153.0
 40
154.0
 40
154.0
 40
154.0
 40
155.0
 40
155.0
 40
155.0
 40
156.0
 40
156.0
 40
156.0
 40
157.0
 40
157.0
 40
157.0
 40
158.0
 40
158.0
 40
158.0
 40
159.0
 40
159.0
 40
159.0
 40
160.0
 40
160.0
 40
160.0
 40
161.0
 40
161.0
 40
161.0
 40
162.0
 40
162.0
 40
162.0
 40
163.0
 40
163.0
 40
163.0
 40
164.0
 40
164.0
 40
164.0
 40
165.0
 40
165.0
 40
165.0
 40
166.0
 40
166.0
 40
166.0
 40
167.0
 40
167.0
 40
167.0
 40
168.0
 40
168.0
 40
168.0
 40
169.0
 40
169.0
 40
169.0
 40
170.0
 40
170.0
 40
170.0
 40
171.0
 40
171.0
 40
171.0
 40
172.0
 40
172.0
 40
172.0
 40
173.0
 40
173.0
 40
173.0
 40
174.0
 40
174.0
 40
174.0
 40
175.0
 40
175.0
 40
175.0
 40
176.0
 40
176.0
 40
176.0
 40
177.0
 40
177.0
 40
177.0
 40
178.0
 40
178.0
 40
178.0
 40
179.0
 40
179.0
 40
179.0
 40
180.0
 40
180.0
 40
180.0
 40
181.0
 40
181.0
 40
181.0
 40
182.0
 40
182.0
 40
182.0
 40
183.0
 40
183.0
 40
183.0
 40
184.0
 40
184.0
 40
184.0
 40
185.0
 40
185.0
 40
185.0
 40
186.0
 40
186.0
 40
186.0
 40
187.0
 40
187.0
 40
187.0
 40
187.0
 10
54.91931415444712
 20
-44.29290804448254
 30
0.0
 10
54.63370527284472
 20
-43.99248248900211
 30
0.0
 10
54.34774361347355
 20
-43.69311526685431
 30
0.0
 10
54.06248887537313
 20
-43.39237221137427
 30
0.0
 10
53.73383974024665
 20
-43.0099611003585
 30
0.0
 10
53.40723808191229
 20
-42.62617415600985
 30
0.0
 10
53.07926059027969
 20
-42.2430574894392
 30
0.0
 10
52.35511366430978
 20
-41.83930332287336
 30
0.0
 10
51.62888534950407
 20
-41.43382054519686
 30
0.0
 10
50.90473842353415
 20
-41.0297136008539
 30
0.0
 10
50.1371645542277
 20
-40.49296221209893
 30
0.0
 10
49.37096651821949
 20
-39.95621082334429
 30
0.0
 10
48.60409820445059
 20
-39.42051776792261
 30
0.0
 10
48.32092348945276
 20
-39.25446526796418
 30
0.0
 10
47.95502238767656
 20
-39.23929582352364
 30
0.0
 10
47.64154406234073
 20
-39.08424999022893
 30
0.0
 10
47.41209740152774
 20
-38.9388702680432
 30
0.0
 10
47.18229796294596
 20
-38.79246749030204
 30
0.0
 10
46.95253380214107
 20
-38.64571193478312
 30
0.0
 10
46.95253380214107
 20
-38.64571193478312
 30
0.0
 10
46.24076937585524
 20
-38.29018249042744
 30
0.0
 10
46.24076937585524
 20
-38.29018249042744
 30
0.0
 10
46.04197910314903
 20
-38.13961693490946
 30
0.0
 10
46.01647327046641
 20
-37.80236137943817
 30
0.0
 10
45.86386160769319
 20
-37.59976110171129
 30
0.0
 10
45.6440810577447
 20
-37.30797860178409
 30
0.0
 10
45.21619690199427
 20
-37.41786887953432
 30
0.0
 10
45.11110554427771
 20
-36.97241637964592
 30
0.0
 10
45.00191968523871
 20
-36.51077137976123
 30
0.0
 10
45.20377912453329
 20
-35.80623887993719
 30
0.0
 10
45.27888551150606
 20
-35.40403693559342
 30
0.0
 10
45.53796665528244
 20
-34.00516721372098
 30
0.0
 10
45.86523744099142
 20
-32.86241415845105
 30
0.0
 10
46.11433382352533
 20
-31.55604276988885
 30
0.0
 10
46.26419381970209
 20
-30.78331832563744
 30
0.0
 10
45.8793838295194
 20
-29.08762138161689
 30
0.0
 10
45.67611327914971
 20
-28.56519277063654
 30
0.0
 10
45.54279856032863
 20
-28.25150277071477
 30
0.0
 10
45.41082439702891
 20
-27.93798915968221
 30
0.0
 10
45.27888551150606
 20
-27.62500471531597
 30
0.0
 10
45.47457133984703
 20
-26.661074715557
 30
0.0
 10
46.00063354864829
 20
-25.99136138239108
 30
0.0
 10
46.34547498841349
 20
-25.19810527147832
 30
0.0
 10
47.13855351961753
 20
-23.37463221637843
 30
0.0
 10
47.87201377868318
 20
-21.5862958279369
 30
0.0
 10
48.50073431819874
 20
-19.61483249509624
 30
0.0
 10
48.63888332117354
 20
-19.2725674951819
 30
0.0
 10
48.77773542224296
 20
-18.93181943971148
 30
0.0
 10
48.91793054332638
 20
-18.59008360646345
 30
0.0
 10
48.92449097405447
 20
-18.4021588842883
 30
0.0
 10
48.93207569608319
 20
-18.2129994398913
 30
0.0
 10
48.93895486257436
 20
-18.02440443993847
 30
0.0
 10
49.10846458047202
 20
-17.0496088846265
 30
0.0
 10
48.92449097405447
 20
-15.45829888502432
 30
0.0
 10
48.77050347798302
 20
-14.5314105519226
 30
0.0
 10
48.68678931345208
 20
-13.66773999658303
 30
0.0
 10
48.60409820445059
 20
-12.80248194124385
 30
0.0
 10
48.52038403991966
 20
-11.93845860812651
 30
0.0
 10
48.50623887676219
 20
-11.54091333044805
 30
0.0
 10
48.49145626287989
 20
-11.14470860832495
 30
0.0
 10
48.47801665454705
 20
-10.74730444175753
 30
0.0
 10
48.23339932501902
 20
-9.88793777530581
 30
0.0
 10
47.52371628756899
 20
-8.948808053318206
 30
0.0
 10
46.8677613043038
 20
-8.467513331216564
 30
0.0
 10
46.6107638772362
 20
-8.319911109031075
 30
0.0
 10
46.30448104089649
 20
-8.237219997940539
 30
0.0
 10
46.09330826850618
 20
-8.027775831326428
 30
0.0
 10
46.01199299280293
 20
-7.94713083134646
 30
0.0
 10
45.86386160769319
 20
-7.630548053647886
 30
0.0
 10
45.86386160769319
 20
-7.630548053647886
 30
0.0
 10
45.67921772351496
 20
-7.38335666482068
 30
0.0
 10
45.36707995370048
 20
-7.116374442665485
 30
0.0
 10
45.09043162742503
 20
-6.961152220481889
 30
0.0
 10
44.94611024221809
 20
-6.880895276057521
 30
0.0
 10
44.93714968689113
 20
-7.029379442687093
 30
0.0
 10
44.9440288533823
 20
-7.086388331561857
 30
0.0
 10
45.00361301852885
 20
-7.389918331485824
 30
0.0
 10
45.25133356776453
 20
-7.621058331428093
 30
0.0
 10
45.38362523105615
 20
-7.881514164696305
 30
0.0
 10
45.21619690199427
 20
-7.826410275821067
 30
0.0
 10
45.06944135018276
 20
-7.729431664734401
 30
0.0
 10
44.88201052163119
 20
-7.755607775838974
 30
0.0
 10
44.88201052163119
 20
-7.755607775838974
 30
0.0
 10
44.7066446927718
 20
-7.756101664727776
 30
0.0
 10
44.83999468936977
 20
-7.944202775791809
 30
0.0
 10
44.97330940819084
 20
-8.132162775744803
 30
0.0
 10
45.48455495070344
 20
-8.212772497946931
 30
0.0
 10
45.67611327914971
 20
-8.467513331216564
 30
0.0
 10
45.96412221073101
 20
-8.850629997787214
 30
0.0
 10
45.85042077470276
 20
-9.322258608780505
 30
0.0
 10
45.78014744316225
 20
-9.700683330908019
 30
0.0
 10
45.53521383829991
 20
-9.643674442033575
 30
0.0
 10
45.46148328462538
 20
-9.470389997632315
 30
0.0
 10
45.27888551150606
 20
-9.366708608769464
 30
0.0
 10
45.27888551150606
 20
-9.366708608769464
 30
0.0
 10
45.27373609979237
 20
-9.341555553220013
 30
0.0
 10
44.83999468936977
 20
-9.261263331018126
 30
0.0
 10
44.40625554445406
 20
-9.18100638659376
 30
0.0
 10
44.71387776659917
 20
-9.596649164267406
 30
0.0
 10
44.71387776659917
 20
-9.596649164267406
 30
0.0
 10
44.71387776659917
 20
-9.596649164267406
 30
0.0
 10
44.89097221099948
 20
-9.723790275346902
 30
0.0
 10
45.00604718513341
 20
-9.805423053104155
 30
0.0
 10
45.1534730147056
 20
-9.979589441949498
 30
0.0
 10
45.29888801099575
 20
-10.15491999746133
 30
0.0
 10
45.44564356280726
 20
-10.32788694186235
 30
0.0
 10
45.66196689062173
 20
-10.46825721960501
 30
0.0
 10
45.87694966291484
 20
-10.60760444179255
 30
0.0
 10
46.09330826850618
 20
-10.74730444175753
 30
0.0
 10
46.48086992528533
 20
-10.96454499725895
 30
0.0
 10
46.82779158310129
 20
-10.82054110840611
 30
0.0
 10
46.99454963440249
 20
-11.26941555273828
 30
0.0
 10
47.31906990390107
 20
-12.14963138585159
 30
0.0
 10
47.03589518890323
 20
-14.75845832964373
 30
0.0
 10
46.8677613043038
 20
-15.64022638497881
 30
0.0
 10
46.7368454743104
 20
-16.33424610702762
 30
0.0
 10
46.75409630720363
 20
-17.02911249574266
 30
0.0
 10
46.63764436573013
 20
-17.77357944000109
 30
0.0
 10
46.62385075497092
 20
-18.14946416212923
 30
0.0
 10
46.6107638772362
 20
-18.52686582870163
 30
0.0
 10
46.59696908899006
 20
-18.90324443971857
 30
0.0
 10
46.43539687088989
 20
-19.54145471733694
 30
0.0
 10
46.01545021493695
 20
-19.94298638390302
 30
0.0
 10
45.78014744316225
 20
-20.49247305043234
 30
0.0
 10
45.48765939506868
 20
-21.25193305024242
 30
0.0
 10
45.19450106921444
 20
-22.01259249449683
 30
0.0
 10
44.90268329888156
 20
-22.77258166097355
 30
0.0
 10
44.63432525017238
 20
-23.17206721642906
 30
0.0
 10
44.19162442813329
 20
-23.4268080496987
 30
0.0
 10
43.89878360227095
 20
-23.79701304960642
 30
0.0
 10
43.51570222315528
 20
-24.28067138281887
 30
0.0
 10
43.0506000127988
 20
-24.80140666046642
 30
0.0
 10
42.79152001940849
 20
-25.38638277143123
 30
0.0
 10
42.76844835333043
 20
-25.40084666031656
 30
0.0
 10
42.74742279831128
 20
-25.41516943809054
 30
0.0
 10
42.72745557659846
 20
-25.42861027142074
 30
0.0
 10
42.15454448010353
 20
-24.97557304931176
 30
0.0
 10
42.24030475569338
 20
-24.3053305494792
 30
0.0
 10
42.37192614122433
 20
-23.48332304968466
 30
0.0
 10
42.38501419644598
 20
-23.2540527719644
 30
0.0
 10
42.39877252942831
 20
-23.02323027202205
 30
0.0
 10
42.41256614018751
 20
-22.79293693874634
 30
0.0
 10
42.55244252550786
 20
-22.47476666104784
 30
0.0
 10
42.77430554486198
 20
-22.45977360549619
 30
0.0
 10
42.80979390783117
 20
-21.91459082785472
 30
0.0
 10
42.9017630721515
 20
-21.89324777230432
 30
0.0
 10
42.99270918094239
 20
-21.87292777230969
 30
0.0
 10
43.08196195644314
 20
-21.8520786056481
 30
0.0
 10
43.08711251186729
 20
-21.83708555009644
 30
0.0
 10
43.09056973400131
 20
-21.82089305010047
 30
0.0
 10
43.09469723389601
 20
-21.80589999454849
 30
0.0
 10
43.09469723389601
 20
-21.80589999454849
 30
0.0
 10
43.16084306554183
 20
-21.73492110567751
 30
0.0
 10
43.16084306554183
 20
-21.73492110567751
 30
0.0
 10
43.16186612107128
 20
-21.73372166123319
 30
0.0
 10
43.1653233432053
 20
-21.73492110567751
 30
0.0
 10
43.16705195427231
 20
-21.73269860567807
 30
0.0
 10
43.16807500980177
 20
-21.73044082790078
 30
0.0
 10
43.16909806533122
 20
-21.72596055012404
 30
0.0
 10
43.17015639863755
 20
-21.72391443901348
 30
0.0
 10
43.17015639863755
 20
-21.72391443901348
 30
0.0
 10
43.18701917598513
 20
-21.70719277235086
 30
0.0
 10
43.18701917598513
 20
-21.70719277235086
 30
0.0
 10
43.18701917598513
 20
-21.70719277235086
 30
0.0
 10
43.18014000949396
 20
-21.70271249457444
 30
0.0
 10
43.18014000949396
 20
-21.70271249457444
 30
0.0
 10
43.25454084092917
 20
-21.56456471683123
 30
0.0
 10
43.29105333999766
 20
-21.22833221691506
 30
0.0
 10
43.30692833959266
 20
-20.98064693919937
 30
0.0
 10
43.32343833917145
 20
-20.71846249482052
 30
0.0
 10
43.39512278178707
 20
-20.38480527268156
 30
0.0
 10
43.30692833959266
 20
-20.19257666161855
 30
0.0
 10
43.25662222976496
 20
-20.08095777275767
 30
0.0
 10
43.13879445499322
 20
-20.10455860608504
 30
0.0
 10
43.04509667960587
 20
-20.14346999496398
 30
0.0
 10
43.04403834629954
 20
-20.13503860607747
 30
0.0
 10
43.04163945747185
 20
-20.12537249496879
 30
0.0
 10
43.04061640194239
 20
-20.11641193941532
 30
0.0
 10
43.04784834620234
 20
-19.53817388400421
 30
0.0
 10
43.0547275126935
 20
-18.95852471748269
 30
0.0
 10
43.06093640142399
 20
-18.38028666207158
 30
0.0
 10
42.83699307380392
 20
-17.59599110671197
 30
0.0
 10
41.99226670646581
 20
-17.04735110684921
 30
0.0
 10
41.24123811451503
 20
-16.79123444024669
 30
0.0
 10
40.92430256704517
 20
-16.68271999582934
 30
0.0
 10
40.34931110102386
 20
-16.6594366625019
 30
0.0
 10
39.96587592483
 20
-16.77056166247398
 30
0.0
 10
39.78532426276959
 20
-16.87477221800347
 30
0.0
 10
39.60325565630344
 20
-16.9786299957552
 30
0.0
 10
39.42411510531814
 20
-17.08403999572902
 30
0.0
 10
39.26875276796063
 20
-17.11109805127768
 30
0.0
 10
39.11596372429085
 20
-17.13935555127066
 30
0.0
 10
38.96247011709568
 20
-17.16743666237476
 30
0.0
 10
38.29293318973255
 20
-17.53968777339273
 30
0.0
 10
37.90501875518463
 20
-19.14302749521439
 30
0.0
 10
38.20988930296229
 20
-20.09489249497636
 30
0.0
 10
38.20988930296229
 20
-20.09489249497636
 30
0.0
 10
38.20988930296229
 20
-20.15758110607187
 30
0.0
 10
38.20988930296229
 20
-20.15758110607187
 30
0.0
 10
38.20988930296229
 20
-20.15758110607187
 30
0.0
 10
37.97941958661984
 20
-20.17913582828866
 30
0.0
 10
37.97941958661984
 20
-20.17913582828866
 30
0.0
 10
37.71190820455573
 20
-20.87209721700419
 30
0.0
 10
37.96287430926417
 20
-21.99968082783326
 30
0.0
 10
38.7328470673983
 20
-21.70532305012917
 30
0.0
 10
39.2055339997835
 20
-23.39872693859492
 30
0.0
 10
39.72764509757445
 20
-24.23830277171832
 30
0.0
 10
38.08327736174798
 20
-25.19810527147832
 30
0.0
 10
37.57531265248502
 20
-24.57301832719024
 30
0.0
 10
36.83479683804382
 20
-23.89501471624853
 30
0.0
 10
36.53662906787294
 20
-23.08574249422868
 30
0.0
 10
36.41929518197748
 20
-22.1659097166809
 30
0.0
 10
36.29924490726244
 20
-21.24572416135537
 30
0.0
 10
36.18074685473002
 20
-20.32536221714095
 30
0.0
 10
35.98160380425503
 20
-19.37003999515737
 30
0.0
 10
35.64896964607457
 20
-18.60246610646038
 30
0.0
 10
35.46933610224366
 20
-17.58547832893706
 30
0.0
 10
35.32444937657599
 20
-16.75849666247698
 30
0.0
 10
35.54701687089783
 20
-15.8827611071404
 30
0.0
 10
35.65810659028591
 20
-15.24264582952283
 30
0.0
 10
35.69962853367105
 20
-14.74120749631479
 30
0.0
 10
35.74217353258563
 20
-14.23909888532907
 30
0.0
 10
35.78436665772047
 20
-13.73783694100992
 30
0.0
 10
35.92304269463794
 20
-12.4762330524366
 30
0.0
 10
36.06344824661145
 20
-11.21360610830784
 30
0.0
 10
36.20297185416302
 20
-9.952002219734199
 30
0.0
 10
36.35971101683094
 20
-9.506232219845563
 30
0.0
 10
37.01100933354827
 20
-9.55547999761118
 30
0.0
 10
37.4568145999526
 20
-9.387381386542177
 30
0.0
 10
37.82680792384662
 20
-9.247857775465757
 30
0.0
 10
38.07311736200719
 20
-8.917622497770575
 30
0.0
 10
38.45965596325688
 20
-8.780850553360246
 30
0.0
 10
38.89321984108463
 20
-8.62894444228722
 30
0.0
 10
39.91694564830054
 20
-8.444970831222163
 30
0.0
 10
39.52628054567387
 20
-8.236867220163097
 30
0.0
 10
39.13543705712738
 20
-8.028622497992991
 30
0.0
 10
38.70169679041523
 20
-8.06153666465127
 30
0.0
 10
38.35597457701312
 20
-8.236867220163097
 30
0.0
 10
38.42039179759193
 20
-7.754055553616888
 30
0.0
 10
39.06308332356741
 20
-7.360284998159958
 30
0.0
 10
39.4854278815317
 20
-7.254839720408621
 30
0.0
 10
40.06405397788083
 20
-7.108260553778576
 30
0.0
 10
41.3824903331336
 20
-7.691860831410506
 30
0.0
 10
41.22194117056289
 20
-7.12875694266241
 30
0.0
 10
41.1895561713891
 20
-7.015409442690563
 30
0.0
 10
41.09621117377053
 20
-6.9644330538143
 30
0.0
 10
40.94977312195092
 20
-7.002497776026996
 30
0.0
 10
40.94977312195092
 20
-7.002497776026996
 30
0.0
 10
41.14341387860318
 20
-6.792877220524006
 30
0.0
 10
40.94977312195092
 20
-6.731035276095065
 30
0.0
 10
40.75581590467696
 20
-6.669369720555005
 30
0.0
 10
39.58981482331301
 20
-6.681752220551929
 30
0.0
 10
39.00469761601838
 20
-6.731035276095065
 30
0.0
 10
39.2456801098704
 20
-6.417874442839944
 30
0.0
 10
40.07816508863193
 20
-5.917282776298471
 30
0.0
 10
40.11210230998834
 20
-5.518361665287122
 30
0.0
 10
40.11210230998834
 20
-5.518361665287122
 30
0.0
 10
40.0285645343418
 20
-5.434471109752582
 30
0.0
 10
40.0285645343418
 20
-5.434471109752582
 30
0.0
 10
39.87662314932926
 20
-5.295794165342725
 30
0.0
 10
38.59678068198075
 20
-6.36654527618624
 30
0.0
 10
38.39781402039015
 20
-6.521732220591675
 30
0.0
 10
37.87400958930908
 20
-6.911728053827712
 30
0.0
 10
37.35242765817129
 20
-7.303099720396313
 30
0.0
 10
36.83031656038035
 20
-7.693413053632272
 30
0.0
 10
36.34111962841635
 20
-8.035854442435499
 30
0.0
 10
35.72270019974911
 20
-8.294228886815302
 30
0.0
 10
35.4067877078087
 20
-8.802052497799602
 30
0.0
 10
35.02180221346686
 20
-9.423364719866466
 30
0.0
 10
34.97477693570069
 20
-10.33564805297149
 30
0.0
 10
34.71742554687633
 20
-11.08082055278544
 30
0.0
 10
34.20565082478193
 20
-12.56132305241514
 30
0.0
 10
33.87030026931018
 20
-13.93694471873799
 30
0.0
 10
33.56761693605245
 20
-15.70376166274088
 30
0.0
 10
33.4029402694269
 20
-16.65583832916925
 30
0.0
 10
33.53491443606057
 20
-17.75583471778335
 30
0.0
 10
33.67133360269314
 20
-18.59008360646345
 30
0.0
 10
33.69821526935324
 20
-19.03620638412985
 30
0.0
 10
33.72661388045726
 20
-19.48165888401857
 30
0.0
 10
33.75469499156136
 20
-19.92831082835129
 30
0.0
 10
33.9681255470634
 20
-21.07864860584149
 30
0.0
 10
33.98844554705835
 20
-22.35866749441023
 30
0.0
 10
34.21461138033509
 20
-23.46265027191226
 30
0.0
 10
34.38997721362475
 20
-24.31083388281106
 30
0.0
 10
34.30573388031245
 20
-25.87508582686458
 30
0.0
 10
34.63304110245299
 20
-26.55756971558271
 30
0.0
 10
34.82699832462664
 20
-26.95924249326015
 30
0.0
 10
35.2245436023051
 20
-27.26157304874011
 30
0.0
 10
35.4067877078087
 20
-27.645007215311
 30
0.0
 10
35.64399547953481
 20
-28.32816138180681
 30
0.0
 10
35.88134436236842
 20
-29.01149193719149
 30
0.0
 10
36.11802296744136
 20
-29.69397582590994
 30
0.0
 10
36.55797212288398
 20
-30.79520693674556
 30
0.0
 10
37.00134322268376
 20
-31.8182272142677
 30
0.0
 10
37.41493987879869
 20
-32.97868971397754
 30
0.0
 10
37.62748848448724
 20
-33.57315554716215
 30
0.0
 10
38.03918014065078
 20
-35.09331026900448
 30
0.0
 10
37.70795709354542
 20
-35.82260776882205
 30
0.0
 10
37.65006626168901
 20
-35.81950332437852
 30
0.0
 10
37.59976110171129
 20
-35.78972887994161
 30
0.0
 10
37.54878376427294
 20
-35.7542394355058
 30
0.0
 10
37.51897499062028
 20
-35.80179387993829
 30
0.0
 10
37.46884432186792
 20
-35.84017610215091
 30
0.0
 10
37.39373887954032
 20
-35.85481637992512
 30
0.0
 10
37.25559016064182
 20
-35.88014582436345
 30
0.0
 10
37.11899460857111
 20
-35.89221082436013
 30
0.0
 10
36.98084683431777
 20
-35.9039230465797
 30
0.0
 10
36.83701933798712
 20
-36.01935193543963
 30
0.0
 10
36.64944739832804
 20
-36.09685721319791
 30
0.0
 10
36.41139295995686
 20
-36.09685721319791
 30
0.0
 10
36.41139295995686
 20
-36.09685721319791
 30
0.0
 10
33.19092082503558
 20
-36.09685721319791
 30
0.0
 10
33.19092082503558
 20
-36.09685721319791
 30
0.0
 10
33.0784199917303
 20
-36.1488566576293
 30
0.0
 10
32.93579193621035
 20
-36.19073137984137
 30
0.0
 10
32.73047526959521
 20
-36.21965915761171
 30
0.0
 10
32.09621610308694
 20
-36.1021841576412
 30
0.0
 10
31.46163943657907
 20
-35.98262776878198
 30
0.0
 10
30.82706277007087
 20
-35.86412971325603
 30
0.0
 10
29.77733721477784
 20
-35.70047610218593
 30
0.0
 10
28.56692138174718
 20
-35.70100526885257
 30
0.0
 10
27.62793277087094
 20
-35.92770026879595
 30
0.0
 10
27.46085721535706
 20
-36.0041824909991
 30
0.0
 10
27.29254693762134
 20
-36.08066471320193
 30
0.0
 10
27.12635332655186
 20
-36.15714693540508
 30
0.0
 10
26.55601749336094
 20
-36.28651054648403
 30
0.0
 10
25.75845749356032
 20
-36.1622974909595
 30
0.0
 10
25.43167943808643
 20
-36.53419582419971
 30
0.0
 10
25.44773082697137
 20
-36.72367276859696
 30
0.0
 10
25.47630582696427
 20
-36.76572387969758
 30
0.0
 10
25.47390693807595
 20
-36.97241637964592
 30
0.0
 10
25.47390693807595
 20
-36.97241637964592
 30
0.0
 10
25.1602169381545
 20
-36.99411221297376
 30
0.0
 10
25.1602169381545
 20
-36.99411221297376
 30
0.0
 10
25.1602169381545
 20
-36.99411221297376
 30
0.0
 10
25.09770471594788
 20
-37.09782887961445
 30
0.0
 10
25.09770471594788
 20
-37.09782887961445
 30
0.0
 10
25.03222916040876
 20
-37.22461721291619
 30
0.0
 10
25.16917749370765
 20
-37.28765860178913
 30
0.0
 10
25.20120971592185
 20
-37.41236554620246
 30
0.0
 10
25.19362499370158
 20
-37.6979744350198
 30
0.0
 10
25.18776888259196
 20
-37.98460637939259
 30
0.0
 10
25.18071332703802
 20
-38.26915693487729
 30
0.0
 10
25.40328082698241
 20
-38.50237832370765
 30
0.0
 10
25.92091166018643
 20
-38.51652471259305
 30
0.0
 10
26.33052193786189
 20
-38.39488693484574
 30
0.0
 10
26.42319666006103
 20
-38.59851026812807
 30
0.0
 10
26.45145416005369
 20
-38.91406999027151
 30
0.0
 10
26.51897582670369
 20
-39.08424999022893
 30
0.0
 10
26.66795388222174
 20
-39.17350276798429
 30
0.0
 10
26.94925888215155
 20
-39.16521249020882
 30
0.0
 10
27.10430471544626
 20
-39.25273665685353
 30
0.0
 10
27.18061054876054
 20
-39.29648110128696
 30
0.0
 10
27.2042113820879
 20
-39.34816304571843
 30
0.0
 10
27.23038749319248
 20
-39.44083776791756
 30
0.0
 10
26.93239610437789
 20
-39.9042113789129
 30
0.0
 10
27.31254943761637
 20
-40.59907776762827
 30
0.0
 10
27.46085721535706
 20
-41.07208221195445
 30
0.0
 10
27.71425749307133
 20
-41.27291860079284
 30
0.0
 10
27.7336955486222
 20
-41.40214110076042
 30
0.0
 10
28.12954749296754
 20
-41.26053610079624
 30
0.0
 10
28.39497749290129
 20
-41.58057610071611
 30
0.0
 10
29.3715016593239
 20
-42.22965193388683
 30
0.0
 10
29.98956832583588
 20
-42.15902582279362
 30
0.0
 10
30.2064208257817
 20
-42.09630193392059
 30
0.0
 10
30.42330860350535
 20
-42.03396610060285
 30
0.0
 10
30.63860888122908
 20
-41.97057193395182
 30
0.0
 10
31.06303582556764
 20
-42.32574860052942
 30
0.0
 10
31.0954208255596
 20
-43.1208744336645
 30
0.0
 10
31.41239165881345
 20
-43.58149637799343
 30
0.0
 10
31.66695610319453
 20
-43.95148971123444
 30
0.0
 10
32.15375415862835
 20
-44.18852110006384
 30
0.0
 10
32.33342388080555
 20
-44.62709443328782
 30
0.0
 10
32.56872665852463
 20
-44.66462998883355
 30
0.0
 10
32.66880971405515
 20
-44.52408332220201
 30
0.0
 10
32.79334026957959
 20
-44.54405054441984
 30
0.0
 10
32.79334026957959
 20
-44.54405054441984
 30
0.0
 10
33.08653388061721
 20
-44.73179887770611
 30
0.0
 10
33.08653388061721
 20
-44.73179887770611
 30
0.0
 10
33.29495499167619
 20
-44.57128498885738
 30
0.0
 10
33.50425804717958
 20
-44.41175887778625
 30
0.0
 10
33.71334943601625
 20
-44.25053943338199
 30
0.0
 10
33.88010749152989
 20
-44.30807748892308
 30
0.0
 10
34.09163304703273
 20
-44.4720485999931
 30
0.0
 10
34.29850193586995
 20
-44.43966360000115
 30
0.0
 10
34.29850193586995
 20
-44.43966360000115
 30
0.0
 10
34.57137554691261
 20
-44.33527665558309
 30
0.0
 10
34.57137554691261
 20
-44.33527665558309
 30
0.0
 10
34.84195610240077
 20
-44.39006304445777
 30
0.0
 10
35.11518249122119
 20
-44.44622526666597
 30
0.0
 10
35.38664409721149
 20
-44.50132915554153
 30
0.0
 10
35.60935270264084
 20
-45.21930248869545
 30
0.0
 10
35.83244936361584
 20
-45.93829887740451
 30
0.0
 10
36.05551074681395
 20
-46.65623693278028
 30
0.0
 10
36.55349184522051
 20
-48.06942943242702
 30
0.0
 10
37.01633627785681
 20
-49.38440859876525
 30
0.0
 10
37.41493987879869
 20
-50.94262804281995
 30
0.0
 10
37.63094570662126
 20
-51.8421408203731
 30
0.0
 10
37.8473043122126
 20
-52.7416535979256
 30
0.0
 10
38.06366387937295
 20
-53.6415191532565
 30
0.0
 10
37.97941958661984
 20
-55.29964526395283
 30
0.0
 10
37.34120932512416
 20
-56.55881498585998
 30
0.0
 10
36.95519989052764
 20
-57.96992609661832
 30
0.0
 10
36.90679878065134
 20
-58.42331609650506
 30
0.0
 10
36.85702183747681
 20
-58.87667081861429
 30
0.0
 10
36.80809156094735
 20
-59.3304135962788
 30
0.0
 10
36.68666545293408
 20
-60.0755860960921
 30
0.0
 10
37.0907723870689
 20
-60.65675220705786
 30
0.0
 10
37.20616599523607
 20
-61.25379331801968
 30
0.0
 10
37.2334004389857
 20
-61.65860581791881
 30
0.0
 10
37.26268099379426
 20
-62.06338304003978
 30
0.0
 10
37.29023293753579
 20
-62.46646692882762
 30
0.0
 10
37.52296043159841
 20
-63.86381970625646
 30
0.0
 10
37.52034987610946
 20
-65.71174026134996
 30
0.0
 10
37.20616599523607
 20
-66.98438609436516
 30
0.0
 10
37.08181183174194
 20
-67.486318316462
 30
0.0
 10
36.47926740266968
 20
-67.50938998312272
 30
0.0
 10
36.22240990922267
 20
-67.8621677608123
 30
0.0
 10
36.07635991294871
 20
-68.06476803853951
 30
0.0
 10
36.05170074691115
 20
-68.29798942736987
 30
0.0
 10
35.97179658228301
 20
-68.57393220507853
 30
0.0
 10
36.57038990034496
 20
-69.07314803828712
 30
0.0
 10
37.72206820429653
 20
-70.17695442689995
 30
0.0
 10
37.9384277682933
 20
-71.00100803780506
 30
0.0
 10
38.11446387936034
 20
-71.6734730376374
 30
0.0
 10
37.69797348268902
 20
-73.63548192603545
 30
0.0
 10
38.06366387937295
 20
-74.01270720371929
 30
0.0
 10
38.16991958175978
 20
-74.13466248146653
 30
0.0
 10
38.41245429779443
 20
-74.16291998145918
 30
0.0
 10
38.58679707112435
 20
-74.15773414812725
 30
0.0
 10
39.52539760273421
 20
-74.13466248146653
 30
0.0
 10
39.55125621318561
 20
-73.12592970394051
 30
0.0
 10
39.75741954125928
 20
-72.38110998190497
 30
0.0
 10
39.82356537290509
 20
-72.13928081529826
 30
0.0
 10
39.96792203588892
 20
-71.76685331539173
 30
0.0
 10
39.92488314809804
 20
-71.45990137102399
 30
0.0
 10
39.92488314809804
 20
-71.45990137102399
 30
0.0
 10
39.86233564969376
 20
-70.74813692675711
 30
0.0
 10
39.86233564969376
 20
-70.74813692675711
 30
0.0
 10
39.98136387889342
 20
-70.00021276027805
 30
0.0
 10
39.95793842503251
 20
-69.2880955382334
 30
0.0
 10
39.84219203909655
 20
-68.5308580384231
 30
0.0
 10
39.82719999004311
 20
-67.88354609414054
 30
0.0
 10
39.81255870651923
 20
-67.23447026096918
 30
0.0
 10
39.79929426241319
 20
-66.5864527611311
 30
0.0
 10
39.67130648790065
 20
-65.77756859466652
 30
0.0
 10
39.72281204214219
 20
-64.03262387288068
 30
0.0
 10
40.00806814597581
 20
-63.47071942857658
 30
0.0
 10
40.00806814597581
 20
-63.47071942857658
 30
0.0
 10
40.00806814597581
 20
-63.42835081747602
 30
0.0
 10
40.00806814597581
 20
-63.42835081747602
 30
0.0
 10
40.00806814597581
 20
-63.42835081747602
 30
0.0
 10
40.0285645343418
 20
-63.42835081747602
 30
0.0
 10
40.0285645343418
 20
-63.42835081747602
 30
0.0
 10
40.24421758439559
 20
-64.24277359505031
 30
0.0
 10
40.62317146361655
 20
-64.98381859486496
 30
0.0
 10
40.8657061796512
 20
-65.74998137245122
 30
0.0
 10
41.13582811720426
 20
-66.60437387223804
 30
0.0
 10
41.22056533726465
 20
-67.66408303863967
 30
0.0
 10
41.43004477636483
 20
-68.5522363717507
 30
0.0
 10
41.54233394016676
 20
-69.02661664940976
 30
0.0
 10
41.34802498966312
 20
-69.51168609373293
 30
0.0
 10
41.283959502314
 20
-69.91166553807788
 30
0.0
 10
41.14270832304766
 20
-70.78948248230255
 30
0.0
 10
41.28360672454522
 20
-72.08587025975648
 30
0.0
 10
41.4517416563038
 20
-72.90339748177428
 30
0.0
 10
41.62294366033246
 20
-73.73778748156575
 30
0.0
 10
41.63603171555411
 20
-74.53361887025572
 30
0.0
 10
42.66406141154911
 20
-74.55669053691643
 30
0.0
 10
42.83113696284222
 20
-74.56254664802574
 30
0.0
 10
42.99891806967288
 20
-74.5704841480241
 30
0.0
 10
43.1653233432053
 20
-74.57736331468915
 30
0.0
 10
44.18749692823859
 20
-74.19840942589468
 30
0.0
 10
44.00419359958172
 20
-71.32827998216776
 30
0.0
 10
43.79404388272086
 20
-70.07979942692472
 30
0.0
 10
43.78681193846091
 20
-69.74490748256393
 30
0.0
 10
43.77957999420097
 20
-69.41075637153617
 30
0.0
 10
43.773372211279
 20
-69.07692276050865
 30
0.0
 10
43.50399000123186
 20
-67.9341697052384
 30
0.0
 10
42.92656334929658
 20
-66.81522914996255
 30
0.0
 10
42.66406141154911
 20
-65.62492165026045
 30
0.0
 10
42.6502678007899
 20
-65.35310637255044
 30
0.0
 10
42.63717974556825
 20
-65.0802680392853
 30
0.0
 10
42.62204557928769
 20
-64.80880553935305
 30
0.0
 10
42.41979808444746
 20
-63.58646581743675
 30
0.0
 10
42.61721252385544
 20
-62.10853859558426
 30
0.0
 10
42.41256614018751
 20
-60.85624804034153
 30
0.0
 10
42.39877252942831
 20
-60.25645526271395
 30
0.0
 10
42.38501419644598
 20
-59.65697998508596
 30
0.0
 10
42.37192614122433
 20
-59.05859831856878
 30
0.0
 10
42.16315225766171
 20
-58.29067165209371
 30
0.0
 10
41.95300254080085
 20
-57.52412081895216
 30
0.0
 10
41.74422865723822
 20
-56.75689970803325
 30
0.0
 10
41.75043754596871
 20
-56.30456804147916
 30
0.0
 10
41.75798699022055
 20
-55.85086054159281
 30
0.0
 10
41.76384310118226
 20
-55.39747054170606
 30
0.0
 10
41.76384310118226
 20
-55.39747054170606
 30
0.0
 10
41.72182726892084
 20
-54.26819359754386
 30
0.0
 10
41.72182726892084
 20
-54.26819359754386
 30
0.0
 10
41.8554947655107
 20
-53.88440665319585
 30
0.0
 10
41.98778642880232
 20
-53.50164276440232
 30
0.0
 10
42.12043086986273
 20
-53.1175030422759
 30
0.0
 10
42.24443332277208
 20
-52.64725026461614
 30
0.0
 10
42.24721919996142
 20
-52.21971887583405
 30
0.0
 10
42.41256614018751
 20
-51.82146804260038
 30
0.0
 10
42.63717974556825
 20
-51.42424026492183
 30
0.0
 10
42.85904168435253
 20
-51.02736526502105
 30
0.0
 10
43.08196195644314
 20
-50.63017276512004
 30
0.0
 10
43.5315419449734
 20
-49.59078359871335
 30
0.0
 10
43.83090915955813
 20
-48.50108832120777
 30
0.0
 10
44.19127165036451
 20
-47.36729582149163
 30
0.0
 10
44.43070192203391
 20
-46.60801221057043
 30
0.0
 10
44.76351246909876
 20
-45.69953887746382
 30
0.0
 10
44.83999468936977
 20
-44.81551304435145
 30
0.0
 10
45.20515495783152
 20
-44.89890971099719
 30
0.0
 10
45.67230327924691
 20
-44.76831137769672
 30
0.0
 10
46.07263549125581
 20
-44.83618582212416
 30
0.0
 10
46.07263549125581
 20
-44.83618582212416
 30
0.0
 10
46.47088631442892
 20
-44.89855693322007
 30
0.0
 10
46.47088631442892
 20
-44.89855693322007
 30
0.0
 10
46.47088631442892
 20
-44.89855693322007
 30
0.0
 10
46.80574297255268
 20
-44.81551304435145
 30
0.0
 10
46.80574297255268
 20
-44.81551304435145
 30
0.0
 10
46.90289797007405
 20
-44.86377304433946
 30
0.0
 10
47.00075852313297
 20
-44.91266804432732
 30
0.0
 10
47.0989365761838
 20
-44.9622685998707
 30
0.0
 10
47.0989365761838
 20
-44.9622685998707
 30
0.0
 10
47.45376045602038
 20
-44.98262387764317
 30
0.0
 10
47.45376045602038
 20
-44.98262387764317
 30
0.0
 10
47.61120517422585
 20
-45.06873693317716
 30
0.0
 10
47.97156766503224
 20
-45.85010443298211
 30
0.0
 10
48.06082044053299
 20
-46.04921221070987
 30
0.0
 10
48.4511337639086
 20
-46.29862609953652
 30
0.0
 10
49.18011374531077
 20
-45.68264082191263
 30
0.0
 10
49.67068651057299
 20
-45.86075832186808
 30
0.0
 10
50.50267760045824
 20
-46.16291248845916
 30
0.0
 10
50.87718647979261
 20
-47.30114998817483
 30
0.0
 10
51.82527673338259
 20
-47.5547266547783
 30
0.0
 10
51.94031756378099
 20
-47.29564665484265
 30
0.0
 10
52.17734894662271
 20
-47.22156332152815
 30
0.0
 10
52.24278922273096
 20
-46.88603637716751
 30
0.0
 10
52.3888744967818
 20
-46.87224276605986
 30
0.0
 10
52.5356300485933
 20
-46.8584491549522
 30
0.0
 10
52.68309115594237
 20
-46.84433804384432
 30
0.0
 10
52.75198865418465
 20
-46.64865221056034
 30
0.0
 10
52.82159170796448
 20
-46.4543422106086
 30
0.0
 10
52.89013642843798
 20
-46.25869165510214
 30
0.0
 10
53.25427498668655
 20
-46.45540054394188
 30
0.0
 10
53.61121418781953
 20
-46.37062804396262
 30
0.0
 10
53.91608609763228
 20
-46.5301541550344
 30
0.0
 10
54.03116084377247
 20
-46.34618054396901
 30
0.0
 10
54.09282776425484
 20
-46.13638359957714
 30
0.0
 10
54.08249000912962
 20
-45.81941276632264
 30
0.0
 10
54.08249000912962
 20
-45.81941276632264
 30
0.0
 10
54.5014136095531
 20
-45.60961582193077
 30
0.0
 10
54.5014136095531
 20
-45.60961582193077
 30
0.0
 10
54.65367249455754
 20
-45.29818359978662
 30
0.0
 10
54.51933609748116
 20
-45.07011276651004
 30
0.0
 10
54.39600361224233
 20
-44.8575641554524
 30
0.0
 10
54.53517444202512
 20
-44.60261165551605
 30
0.0
 10
54.75015721431824
 20
-44.50132915554153
 30
0.0
 10
54.91931415444712
 20
-44.29290804448254
 30
0.0
  0
HATCH
  5
42
330
1F
100
AcDbEntity
  8
Layer 1
 62
     7
100
AcDbHatch
 10
0.0
 20
0.0
 30
0.0
210
0.0
220
0.0
230
1.0
  2
SOLID
 70
     1
 71
     0
 91
        1
 92
        1
 93
        1
 72
     4
 94
        3
 73
     0
 74
     1
 95
      566
 96
      562
 40
0.0
 40
0.0
 40
0.0
 40
0.0
 40
1.0
 40
1.0
 40
1.0
 40
2.0
 40
2.0
 40
2.0
 40
3.0
 40
3.0
 40
3.0
 40
4.0
 40
4.0
 40
4.0
 40
5.0
 40
5.0
 40
5.0
 40
6.0
 40
6.0
 40
6.0
 40
7.0
 40
7.0
 40
7.0
 40
8.0
 40
8.0
 40
8.0
 40
9.0
 40
9.0
 40
9.0
 40
10.0
 40
10.0
 40
10.0
 40
11.0
 40
11.0
 40
11.0
 40
12.0
 40
12.0
 40
12.0
 40
13.0
 40
13.0
 40
13.0
 40
14.0
 40
14.0
 40
14.0
 40
15.0
 40
15.0
 40
15.0
 40
16.0
 40
16.0
 40
16.0
 40
17.0
 40
17.0
 40
17.0
 40
18.0
 40
18.0
 40
18.0
 40
19.0
 40
19.0
 40
19.0
 40
20.0
 40
20.0
 40
20.0
 40
21.0
 40
21.0
 40
21.0
 40
22.0
 40
22.0
 40
22.0
 40
23.0
 40
23.0
 40
23.0
 40
24.0
 40
24.0
 40
24.0
 40
25.0
 40
25.0
 40
25.0
 40
26.0
 40
26.0
 40
26.0
 40
27.0
 40
27.0
 40
27.0
 40
28.0
 40
28.0
 40
28.0
 40
29.0
 40
29.0
 40
29.0
 40
30.0
 40
30.0
 40
30.0
 40
31.0
 40
31.0
 40
31.0
 40
32.0
 40
32.0
 40
32.0
 40
33.0
 40
33.0
 40
33.0
 40
34.0
 40
34.0
 40
34.0
 40
35.0
 40
35.0
 40
35.0
 40
36.0
 40
36.0
 40
36.0
 40
37.0
 40
37.0
 40
37.0
 40
38.0
 40
38.0
 40
38.0
 40
39.0
 40
39.0
 40
39.0
 40
40.0
 40
40.0
 40
40.0
 40
41.0
 40
41.0
 40
41.0
 40
42.0
 40
42.0
 40
42.0
 40
43.0
 40
43.0
 40
43.0
 40
44.0
 40
44.0
 40
44.0
 40
45.0
 40
45.0
 40
45.0
 40
46.0
 40
46.0
 40
46.0
 40
47.0
 40
47.0
 40
47.0
 40
48.0
 40
48.0
 40
48.0
 40
49.0
 40
49.0
 40
49.0
 40
50.0
 40
50.0
 40
50.0
 40
51.0
 40
51.0
 40
51.0
 40
52.0
 40
52.0
 40
52.0
 40
53.0
 40
53.0
 40
53.0
 40
54.0
 40
54.0
 40
54.0
 40
55.0
 40
55.0
 40
55.0
 40
56.0
 40
56.0
 40
56.0
 40
57.0
 40
57.0
 40
57.0
 40
58.0
 40
58.0
 40
58.0
 40
59.0
 40
59.0
 40
59.0
 40
60.0
 40
60.0
 40
60.0
 40
61.0
 40
61.0
 40
61.0
 40
62.0
 40
62.0
 40
62.0
 40
63.0
 40
63.0
 40
63.0
 40
64.0
 40
64.0
 40
64.0
 40
65.0
 40
65.0
 40
65.0
 40
66.0
 40
66.0
 40
66.0
 40
67.0
 40
67.0
 40
67.0
 40
68.0
 40
68.0
 40
68.0
 40
69.0
 40
69.0
 40
69.0
 40
70.0
 40
70.0
 40
70.0
 40
71.0
 40
71.0
 40
71.0
 40
72.0
 40
72.0
 40
72.0
 40
73.0
 40
73.0
 40
73.0
 40
74.0
 40
74.0
 40
74.0
 40
75.0
 40
75.0
 40
75.0
 40
76.0
 40
76.0
 40
76.0
 40
77.0
 40
77.0
 40
77.0
 40
78.0
 40
78.0
 40
78.0
 40
79.0
 40
79.0
 40
79.0
 40
80.0
 40
80.0
 40
80.0
 40
81.0
 40
81.0
 40
81.0
 40
82.0
 40
82.0
 40
82.0
 40
83.0
 40
83.0
 40
83.0
 40
84.0
 40
84.0
 40
84.0
 40
85.0
 40
85.0
 40
85.0
 40
86.0
 40
86.0
 40
86.0
 40
87.0
 40
87.0
 40
87.0
 40
88.0
 40
88.0
 40
88.0
 40
89.0
 40
89.0
 40
89.0
 40
90.0
 40
90.0
 40
90.0
 40
91.0
 40
91.0
 40
91.0
 40
92.0
 40
92.0
 40
92.0
 40
93.0
 40
93.0
 40
93.0
 40
94.0
 40
94.0
 40
94.0
 40
95.0
 40
95.0
 40
95.0
 40
96.0
 40
96.0
 40
96.0
 40
97.0
 40
97.0
 40
97.0
 40
98.0
 40
98.0
 40
98.0
 40
99.0
 40
99.0
 40
99.0
 40
100.0
 40
100.0
 40
100.0
 40
101.0
 40
101.0
 40
101.0
 40
102.0
 40
102.0
 40
102.0
 40
103.0
 40
103.0
 40
103.0
 40
104.0
 40
104.0
 40
104.0
 40
105.0
 40
105.0
 40
105.0
 40
106.0
 40
106.0
 40
106.0
 40
107.0
 40
107.0
 40
107.0
 40
108.0
 40
108.0
 40
108.0
 40
109.0
 40
109.0
 40
109.0
 40
110.0
 40
110.0
 40
110.0
 40
111.0
 40
111.0
 40
111.0
 40
112.0
 40
112.0
 40
112.0
 40
113.0
 40
113.0
 40
113.0
 40
114.0
 40
114.0
 40
114.0
 40
115.0
 40
115.0
 40
115.0
 40
116.0
 40
116.0
 40
116.0
 40
117.0
 40
117.0
 40
117.0
 40
118.0
 40
118.0
 40
118.0
 40
119.0
 40
119.0
 40
119.0
 40
120.0
 40
120.0
 40
120.0
 40
121.0
 40
121.0
 40
121.0
 40
122.0
 40
122.0
 40
122.0
 40
123.0
 40
123.0
 40
123.0
 40
124.0
 40
124.0
 40
124.0
 40
125.0
 40
125.0
 40
125.0
 40
126.0
 40
126.0
 40
126.0
 40
127.0
 40
127.0
 40
127.0
 40
128.0
 40
128.0
 40
128.0
 40
129.0
 40
129.0
 40
129.0
 40
130.0
 40
130.0
 40
130.0
 40
131.0
 40
131.0
 40
131.0
 40
132.0
 40
132.0
 40
132.0
 40
133.0
 40
133.0
 40
133.0
 40
134.0
 40
134.0
 40
134.0
 40
135.0
 40
135.0
 40
135.0
 40
136.0
 40
136.0
 40
136.0
 40
137.0
 40
137.0
 40
137.0
 40
138.0
 40
138.0
 40
138.0
 40
139.0
 40
139.0
 40
139.0
 40
140.0
 40
140.0
 40
140.0
 40
141.0
 40
141.0
 40
141.0
 40
142.0
 40
142.0
 40
142.0
 40
143.0
 40
143.0
 40
143.0
 40
144.0
 40
144.0
 40
144.0
 40
145.0
 40
145.0
 40
145.0
 40
146.0
 40
146.0
 40
146.0
 40
147.0
 40
147.0
 40
147.0
 40
148.0
 40
148.0
 40
148.0
 40
149.0
 40
149.0
 40
149.0
 40
150.0
 40
150.0
 40
150.0
 40
151.0
 40
151.0
 40
151.0
 40
152.0
 40
152.0
 40
152.0
 40
153.0
 40
153.0
 40
153.0
 40
154.0
 40
154.0
 40
154.0
 40
155.0
 40
155.0
 40
155.0
 40
156.0
 40
156.0
 40
156.0
 40
157.0
 40
157.0
 40
157.0
 40
158.0
 40
158.0
 40
158.0
 40
159.0
 40
159.0
 40
159.0
 40
160.0
 40
160.0
 40
160.0
 40
161.0
 40
161.0
 40
161.0
 40
162.0
 40
162.0
 40
162.0
 40
163.0
 40
163.0
 40
163.0
 40
164.0
 40
164.0
 40
164.0
 40
165.0
 40
165.0
 40
165.0
 40
166.0
 40
166.0
 40
166.0
 40
167.0
 40
167.0
 40
167.0
 40
168.0
 40
168.0
 40
168.0
 40
169.0
 40
169.0
 40
169.0
 40
170.0
 40
170.0
 40
170.0
 40
171.0
 40
171.0
 40
171.0
 40
172.0
 40
172.0
 40
172.0
 40
173.0
 40
173.0
 40
173.0
 40
174.0
 40
174.0
 40
174.0
 40
175.0
 40
175.0
 40
175.0
 40
176.0
 40
176.0
 40
176.0
 40
177.0
 40
177.0
 40
177.0
 40
178.0
 40
178.0
 40
178.0
 40
179.0
 40
179.0
 40
179.0
 40
180.0
 40
180.0
 40
180.0
 40
181.0
 40
181.0
 40
181.0
 40
182.0
 40
182.0
 40
182.0
 40
183.0
 40
183.0
 40
183.0
 40
184.0
 40
184.0
 40
184.0
 40
185.0
 40
185.0
 40
185.0
 40
186.0
 40
186.0
 40
186.0
 40
187.0
 40
187.0
 40
187.0
 40
187.0
 10
54.91931415444712
 20
-44.29290804448254
 10
54.63370527284472
 20
-43.99248248900211
 10
54.34774361347355
 20
-43.69311526685431
 10
54.06248887537313
 20
-43.39237221137427
 10
53.73383974024665
 20
-43.0099611003585
 10
53.40723808191229
 20
-42.62617415600985
 10
53.07926059027969
 20
-42.2430574894392
 10
52.35511366430978
 20
-41.83930332287336
 10
51.62888534950407
 20
-41.43382054519686
 10
50.90473842353415
 20
-41.0297136008539
 10
50.1371645542277
 20
-40.49296221209893
 10
49.37096651821949
 20
-39.95621082334429
 10
48.60409820445059
 20
-39.42051776792261
 10
48.32092348945276
 20
-39.25446526796418
 10
47.95502238767656
 20
-39.23929582352364
 10
47.64154406234073
 20
-39.08424999022893
 10
47.41209740152774
 20
-38.9388702680432
 10
47.18229796294596
 20
-38.79246749030204
 10
46.95253380214107
 20
-38.64571193478312
 10
46.95253380214107
 20
-38.64571193478312
 10
46.24076937585524
 20
-38.29018249042744
 10
46.24076937585524
 20
-38.29018249042744
 10
46.04197910314903
 20
-38.13961693490946
 10
46.01647327046641
 20
-37.80236137943817
 10
45.86386160769319
 20
-37.59976110171129
 10
45.6440810577447
 20
-37.30797860178409
 10
45.21619690199427
 20
-37.41786887953432
 10
45.11110554427771
 20
-36.97241637964592
 10
45.00191968523871
 20
-36.51077137976123
 10
45.20377912453329
 20
-35.80623887993719
 10
45.27888551150606
 20
-35.40403693559342
 10
45.53796665528244
 20
-34.00516721372098
 10
45.86523744099142
 20
-32.86241415845105
 10
46.11433382352533
 20
-31.55604276988885
 10
46.26419381970209
 20
-30.78331832563744
 10
45.8793838295194
 20
-29.08762138161689
 10
45.67611327914971
 20
-28.56519277063654
 10
45.54279856032863
 20
-28.25150277071477
 10
45.41082439702891
 20
-27.93798915968221
 10
45.27888551150606
 20
-27.62500471531597
 10
45.47457133984703
 20
-26.661074715557
 10
46.00063354864829
 20
-25.99136138239108
 10
46.34547498841349
 20
-25.19810527147832
 10
47.13855351961753
 20
-23.37463221637843
 10
47.87201377868318
 20
-21.5862958279369
 10
48.50073431819874
 20
-19.61483249509624
 10
48.63888332117354
 20
-19.2725674951819
 10
48.77773542224296
 20
-18.93181943971148
 10
48.91793054332638
 20
-18.59008360646345
 10
48.92449097405447
 20
-18.4021588842883
 10
48.93207569608319
 20
-18.2129994398913
 10
48.93895486257436
 20
-18.02440443993847
 10
49.10846458047202
 20
-17.0496088846265
 10
48.92449097405447
 20
-15.45829888502432
 10
48.77050347798302
 20
-14.5314105519226
 10
48.68678931345208
 20
-13.66773999658303
 10
48.60409820445059
 20
-12.80248194124385
 10
48.52038403991966
 20
-11.93845860812651
 10
48.50623887676219
 20
-11.54091333044805
 10
48.49145626287989
 20
-11.14470860832495
 10
48.47801665454705
 20
-10.74730444175753
 10
48.23339932501902
 20
-9.88793777530581
 10
47.52371628756899
 20
-8.948808053318206
 10
46.8677613043038
 20
-8.467513331216564
 10
46.6107638772362
 20
-8.319911109031075
 10
46.30448104089649
 20
-8.237219997940539
 10
46.09330826850618
 20
-8.027775831326428
 10
46.01199299280293
 20
-7.94713083134646
 10
45.86386160769319
 20
-7.630548053647886
 10
45.86386160769319
 20
-7.630548053647886
 10
45.67921772351496
 20
-7.38335666482068
 10
45.36707995370048
 20
-7.116374442665485
 10
45.09043162742503
 20
-6.961152220481889
 10
44.94611024221809
 20
-6.880895276057521
 10
44.93714968689113
 20
-7.029379442687093
 10
44.9440288533823
 20
-7.086388331561857
 10
45.00361301852885
 20
-7.389918331485824
 10
45.25133356776453
 20
-7.621058331428093
 10
45.38362523105615
 20
-7.881514164696305
 10
45.21619690199427
 20
-7.826410275821067
 10
45.06944135018276
 20
-7.729431664734401
 10
44.88201052163119
 20
-7.755607775838974
 10
44.88201052163119
 20
-7.755607775838974
 10
44.7066446927718
 20
-7.756101664727776
 10
44.83999468936977
 20
-7.944202775791809
 10
44.97330940819084
 20
-8.132162775744803
 10
45.48455495070344
 20
-8.212772497946931
 10
45.67611327914971
 20
-8.467513331216564
 10
45.96412221073101
 20
-8.850629997787214
 10
45.85042077470276
 20
-9.322258608780505
 10
45.78014744316225
 20
-9.700683330908019
 10
45.53521383829991
 20
-9.643674442033575
 10
45.46148328462538
 20
-9.470389997632315
 10
45.27888551150606
 20
-9.366708608769464
 10
45.27888551150606
 20
-9.366708608769464
 10
45.27373609979237
 20
-9.341555553220013
 10
44.83999468936977
 20
-9.261263331018126
 10
44.40625554445406
 20
-9.18100638659376
 10
44.71387776659917
 20
-9.596649164267406
 10
44.71387776659917
 20
-9.596649164267406
 10
44.71387776659917
 20
-9.596649164267406
 10
44.89097221099948
 20
-9.723790275346902
 10
45.00604718513341
 20
-9.805423053104155
 10
45.1534730147056
 20
-9.979589441949498
 10
45.29888801099575
 20
-10.15491999746133
 10
45.44564356280726
 20
-10.32788694186235
 10
45.66196689062173
 20
-10.46825721960501
 10
45.87694966291484
 20
-10.60760444179255
 10
46.09330826850618
 20
-10.74730444175753
 10
46.48086992528533
 20
-10.96454499725895
 10
46.82779158310129
 20
-10.82054110840611
 10
46.99454963440249
 20
-11.26941555273828
 10
47.31906990390107
 20
-12.14963138585159
 10
47.03589518890323
 20
-14.75845832964373
 10
46.8677613043038
 20
-15.64022638497881
 10
46.7368454743104
 20
-16.33424610702762
 10
46.75409630720363
 20
-17.02911249574266
 10
46.63764436573013
 20
-17.77357944000109
 10
46.62385075497092
 20
-18.14946416212923
 10
46.6107638772362
 20
-18.52686582870163
 10
46.59696908899006
 20
-18.90324443971857
 10
46.43539687088989
 20
-19.54145471733694
 10
46.01545021493695
 20
-19.94298638390302
 10
45.78014744316225
 20
-20.49247305043234
 10
45.48765939506868
 20
-21.25193305024242
 10
45.19450106921444
 20
-22.01259249449683
 10
44.90268329888156
 20
-22.77258166097355
 10
44.63432525017238
 20
-23.17206721642906
 10
44.19162442813329
 20
-23.4268080496987
 10
43.89878360227095
 20
-23.79701304960642
 10
43.51570222315528
 20
-24.28067138281887
 10
43.0506000127988
 20
-24.80140666046642
 10
42.79152001940849
 20
-25.38638277143123
 10
42.76844835333043
 20
-25.40084666031656
 10
42.74742279831128
 20
-25.41516943809054
 10
42.72745557659846
 20
-25.42861027142074
 10
42.15454448010353
 20
-24.97557304931176
 10
42.24030475569338
 20
-24.3053305494792
 10
42.37192614122433
 20
-23.48332304968466
 10
42.38501419644598
 20
-23.2540527719644
 10
42.39877252942831
 20
-23.02323027202205
 10
42.41256614018751
 20
-22.79293693874634
 10
42.55244252550786
 20
-22.47476666104784
 10
42.77430554486198
 20
-22.45977360549619
 10
42.80979390783117
 20
-21.91459082785472
 10
42.9017630721515
 20
-21.89324777230432
 10
42.99270918094239
 20
-21.87292777230969
 10
43.08196195644314
 20
-21.8520786056481
 10
43.08711251186729
 20
-21.83708555009644
 10
43.09056973400131
 20
-21.82089305010047
 10
43.09469723389601
 20
-21.80589999454849
 10
43.09469723389601
 20
-21.80589999454849
 10
43.16084306554183
 20
-21.73492110567751
 10
43.16084306554183
 20
-21.73492110567751
 10
43.16186612107128
 20
-21.73372166123319
 10
43.1653233432053
 20
-21.73492110567751
 10
43.16705195427231
 20
-21.73269860567807
 10
43.16807500980177
 20
-21.73044082790078
 10
43.16909806533122
 20
-21.72596055012404
 10
43.17015639863755
 20
-21.72391443901348
 10
43.17015639863755
 20
-21.72391443901348
 10
43.18701917598513
 20
-21.70719277235086
 10
43.18701917598513
 20
-21.70719277235086
 10
43.18701917598513
 20
-21.70719277235086
 10
43.18014000949396
 20
-21.70271249457444
 10
43.18014000949396
 20
-21.70271249457444
 10
43.25454084092917
 20
-21.56456471683123
 10
43.29105333999766
 20
-21.22833221691506
 10
43.30692833959266
 20
-20.98064693919937
 10
43.32343833917145
 20
-20.71846249482052
 10
43.39512278178707
 20
-20.38480527268156
 10
43.30692833959266
 20
-20.19257666161855
 10
43.25662222976496
 20
-20.08095777275767
 10
43.13879445499322
 20
-20.10455860608504
 10
43.04509667960587
 20
-20.14346999496398
 10
43.04403834629954
 20
-20.13503860607747
 10
43.04163945747185
 20
-20.12537249496879
 10
43.04061640194239
 20
-20.11641193941532
 10
43.04784834620234
 20
-19.53817388400421
 10
43.0547275126935
 20
-18.95852471748269
 10
43.06093640142399
 20
-18.38028666207158
 10
42.83699307380392
 20
-17.59599110671197
 10
41.99226670646581
 20
-17.04735110684921
 10
41.24123811451503
 20
-16.79123444024669
 10
40.92430256704517
 20
-16.68271999582934
 10
40.34931110102386
 20
-16.6594366625019
 10
39.96587592483
 20
-16.77056166247398
 10
39.78532426276959
 20
-16.87477221800347
 10
39.60325565630344
 20
-16.9786299957552
 10
39.42411510531814
 20
-17.08403999572902
 10
39.26875276796063
 20
-17.11109805127768
 10
39.11596372429085
 20
-17.13935555127066
 10
38.96247011709568
 20
-17.16743666237476
 10
38.29293318973255
 20
-17.53968777339273
 10
37.90501875518463
 20
-19.14302749521439
 10
38.20988930296229
 20
-20.09489249497636
 10
38.20988930296229
 20
-20.09489249497636
 10
38.20988930296229
 20
-20.15758110607187
 10
38.20988930296229
 20
-20.15758110607187
 10
38.20988930296229
 20
-20.15758110607187
 10
37.97941958661984
 20
-20.17913582828866
 10
37.97941958661984
 20
-20.17913582828866
 10
37.71190820455573
 20
-20.87209721700419
 10
37.96287430926417
 20
-21.99968082783326
 10
38.7328470673983
 20
-21.70532305012917
 10
39.2055339997835
 20
-23.39872693859492
 10
39.72764509757445
 20
-24.23830277171832
 10
38.08327736174798
 20
-25.19810527147832
 10
37.57531265248502
 20
-24.57301832719024
 10
36.83479683804382
 20
-23.89501471624853
 10
36.53662906787294
 20
-23.08574249422868
 10
36.41929518197748
 20
-22.1659097166809
 10
36.29924490726244
 20
-21.24572416135537
 10
36.18074685473002
 20
-20.32536221714095
 10
35.98160380425503
 20
-19.37003999515737
 10
35.64896964607457
 20
-18.60246610646038
 10
35.46933610224366
 20
-17.58547832893706
 10
35.32444937657599
 20
-16.75849666247698
 10
35.54701687089783
 20
-15.8827611071404
 10
35.65810659028591
 20
-15.24264582952283
 10
35.69962853367105
 20
-14.74120749631479
 10
35.74217353258563
 20
-14.23909888532907
 10
35.78436665772047
 20
-13.73783694100992
 10
35.92304269463794
 20
-12.4762330524366
 10
36.06344824661145
 20
-11.21360610830784
 10
36.20297185416302
 20
-9.952002219734199
 10
36.35971101683094
 20
-9.506232219845563
 10
37.01100933354827
 20
-9.55547999761118
 10
37.4568145999526
 20
-9.387381386542177
 10
37.82680792384662
 20
-9.247857775465757
 10
38.07311736200719
 20
-8.917622497770575
 10
38.45965596325688
 20
-8.780850553360246
 10
38.89321984108463
 20
-8.62894444228722
 10
39.91694564830054
 20
-8.444970831222163
 10
39.52628054567387
 20
-8.236867220163097
 10
39.13543705712738
 20
-8.028622497992991
 10
38.70169679041523
 20
-8.06153666465127
 10
38.35597457701312
 20
-8.236867220163097
 10
38.42039179759193
 20
-7.754055553616888
 10
39.06308332356741
 20
-7.360284998159958
 10
39.4854278815317
 20
-7.254839720408621
 10
40.06405397788083
 20
-7.108260553778576
 10
41.3824903331336
 20
-7.691860831410506
 10
41.22194117056289
 20
-7.12875694266241
 10
41.1895561713891
 20
-7.015409442690563
 10
41.09621117377053
 20
-6.9644330538143
 10
40.94977312195092
 20
-7.002497776026996
 10
40.94977312195092
 20
-7.002497776026996
 10
41.14341387860318
 20
-6.792877220524006
 10
40.94977312195092
 20
-6.731035276095065
 10
40.75581590467696
 20
-6.669369720555005
 10
39.58981482331301
 20
-6.681752220551929
 10
39.00469761601838
 20
-6.731035276095065
 10
39.2456801098704
 20
-6.417874442839944
 10
40.07816508863193
 20
-5.917282776298471
 10
40.11210230998834
 20
-5.518361665287122
 10
40.11210230998834
 20
-5.518361665287122
 10
40.0285645343418
 20
-5.434471109752582
 10
40.0285645343418
 20
-5.434471109752582
 10
39.87662314932926
 20
-5.295794165342725
 10
38.59678068198075
 20
-6.36654527618624
 10
38.39781402039015
 20
-6.521732220591675
 10
37.87400958930908
 20
-6.911728053827712
 10
37.35242765817129
 20
-7.303099720396313
 10
36.83031656038035
 20
-7.693413053632272
 10
36.34111962841635
 20
-8.035854442435499
 10
35.72270019974911
 20
-8.294228886815302
 10
35.4067877078087
 20
-8.802052497799602
 10
35.02180221346686
 20
-9.423364719866466
 10
34.97477693570069
 20
-10.33564805297149
 10
34.71742554687633
 20
-11.08082055278544
 10
34.20565082478193
 20
-12.56132305241514
 10
33.87030026931018
 20
-13.93694471873799
 10
33.56761693605245
 20
-15.70376166274088
 10
33.4029402694269
 20
-16.65583832916925
 10
33.53491443606057
 20
-17.75583471778335
 10
33.67133360269314
 20
-18.59008360646345
 10
33.69821526935324
 20
-19.03620638412985
 10
33.72661388045726
 20
-19.48165888401857
 10
33.75469499156136
 20
-19.92831082835129
 10
33.9681255470634
 20
-21.07864860584149
 10
33.98844554705835
 20
-22.35866749441023
 10
34.21461138033509
 20
-23.46265027191226
 10
34.38997721362475
 20
-24.31083388281106
 10
34.30573388031245
 20
-25.87508582686458
 10
34.63304110245299
 20
-26.55756971558271
 10
34.82699832462664
 20
-26.95924249326015
 10
35.2245436023051
 20
-27.26157304874011
 10
35.4067877078087
 20
-27.645007215311
 10
35.64399547953481
 20
-28.32816138180681
 10
35.88134436236842
 20
-29.01149193719149
 10
36.11802296744136
 20
-29.69397582590994
 10
36.55797212288398
 20
-30.79520693674556
 10
37.00134322268376
 20
-31.8182272142677
 10
37.41493987879869
 20
-32.97868971397754
 10
37.62748848448724
 20
-33.57315554716215
 10
38.03918014065078
 20
-35.09331026900448
 10
37.70795709354542
 20
-35.82260776882205
 10
37.65006626168901
 20
-35.81950332437852
 10
37.59976110171129
 20
-35.78972887994161
 10
37.54878376427294
 20
-35.7542394355058
 10
37.51897499062028
 20
-35.80179387993829
 10
37.46884432186792
 20
-35.84017610215091
 10
37.39373887954032
 20
-35.85481637992512
 10
37.25559016064182
 20
-35.88014582436345
 10
37.11899460857111
 20
-35.89221082436013
 10
36.98084683431777
 20
-35.9039230465797
 10
36.83701933798712
 20
-36.01935193543963
 10
36.64944739832804
 20
-36.09685721319791
 10
36.41139295995686
 20
-36.09685721319791
 10
36.41139295995686
 20
-36.09685721319791
 10
33.19092082503558
 20
-36.09685721319791
 10
33.19092082503558
 20
-36.09685721319791
 10
33.0784199917303
 20
-36.1488566576293
 10
32.93579193621035
 20
-36.19073137984137
 10
32.73047526959521
 20
-36.21965915761171
 10
32.09621610308694
 20
-36.1021841576412
 10
31.46163943657907
 20
-35.98262776878198
 10
30.82706277007087
 20
-35.86412971325603
 10
29.77733721477784
 20
-35.70047610218593
 10
28.56692138174718
 20
-35.70100526885257
 10
27.62793277087094
 20
-35.92770026879595
 10
27.46085721535706
 20
-36.0041824909991
 10
27.29254693762134
 20
-36.08066471320193
 10
27.12635332655186
 20
-36.15714693540508
 10
26.55601749336094
 20
-36.28651054648403
 10
25.75845749356032
 20
-36.1622974909595
 10
25.43167943808643
 20
-36.53419582419971
 10
25.44773082697137
 20
-36.72367276859696
 10
25.47630582696427
 20
-36.76572387969758
 10
25.47390693807595
 20
-36.97241637964592
 10
25.47390693807595
 20
-36.97241637964592
 10
25.1602169381545
 20
-36.99411221297376
 10
25.1602169381545
 20
-36.99411221297376
 10
25.1602169381545
 20
-36.99411221297376
 10
25.09770471594788
 20
-37.09782887961445
 10
25.09770471594788
 20
-37.09782887961445
 10
25.03222916040876
 20
-37.22461721291619
 10
25.16917749370765
 20
-37.28765860178913
 10
25.20120971592185
 20
-37.41236554620246
 10
25.19362499370158
 20
-37.6979744350198
 10
25.18776888259196
 20
-37.98460637939259
 10
25.18071332703802
 20
-38.26915693487729
 10
25.40328082698241
 20
-38.50237832370765
 10
25.92091166018643
 20
-38.51652471259305
 10
26.33052193786189
 20
-38.39488693484574
 10
26.42319666006103
 20
-38.59851026812807
 10
26.45145416005369
 20
-38.91406999027151
 10
26.51897582670369
 20
-39.08424999022893
 10
26.66795388222174
 20
-39.17350276798429
 10
26.94925888215155
 20
-39.16521249020882
 10
27.10430471544626
 20
-39.25273665685353
 10
27.18061054876054
 20
-39.29648110128696
 10
27.2042113820879
 20
-39.34816304571843
 10
27.23038749319248
 20
-39.44083776791756
 10
26.93239610437789
 20
-39.9042113789129
 10
27.31254943761637
 20
-40.59907776762827
 10
27.46085721535706
 20
-41.07208221195445
 10
27.71425749307133
 20
-41.27291860079284
 10
27.7336955486222
 20
-41.40214110076042
 10
28.12954749296754
 20
-41.26053610079624
 10
28.39497749290129
 20
-41.58057610071611
 10
29.3715016593239
 20
-42.22965193388683
 10
29.98956832583588
 20
-42.15902582279362
 10
30.2064208257817
 20
-42.09630193392059
 10
30.42330860350535
 20
-42.03396610060285
 10
30.63860888122908
 20
-41.97057193395182
 10
31.06303582556764
 20
-42.32574860052942
 10
31.0954208255596
 20
-43.1208744336645
 10
31.41239165881345
 20
-43.58149637799343
 10
31.66695610319453
 20
-43.95148971123444
 10
32.15375415862835
 20
-44.18852110006384
 10
32.33342388080555
 20
-44.62709443328782
 10
32.56872665852463
 20
-44.66462998883355
 10
32.66880971405515
 20
-44.52408332220201
 10
32.79334026957959
 20
-44.54405054441984
 10
32.79334026957959
 20
-44.54405054441984
 10
33.08653388061721
 20
-44.73179887770611
 10
33.08653388061721
 20
-44.73179887770611
 10
33.29495499167619
 20
-44.57128498885738
 10
33.50425804717958
 20
-44.41175887778625
 10
33.71334943601625
 20
-44.25053943338199
 10
33.88010749152989
 20
-44.30807748892308
 10
34.09163304703273
 20
-44.4720485999931
 10
34.29850193586995
 20
-44.43966360000115
 10
34.29850193586995
 20
-44.43966360000115
 10
34.57137554691261
 20
-44.33527665558309
 10
34.57137554691261
 20
-44.33527665558309
 10
34.84195610240077
 20
-44.39006304445777
 10
35.11518249122119
 20
-44.44622526666597
 10
35.38664409721149
 20
-44.50132915554153
 10
35.60935270264084
 20
-45.21930248869545
 10
35.83244936361584
 20
-45.93829887740451
 10
36.05551074681395
 20
-46.65623693278028
 10
36.55349184522051
 20
-48.06942943242702
 10
37.01633627785681
 20
-49.38440859876525
 10
37.41493987879869
 20
-50.94262804281995
 10
37.63094570662126
 20
-51.8421408203731
 10
37.8473043122126
 20
-52.7416535979256
 10
38.06366387937295
 20
-53.6415191532565
 10
37.97941958661984
 20
-55.29964526395283
 10
37.34120932512416
 20
-56.55881498585998
 10
36.95519989052764
 20
-57.96992609661832
 10
36.90679878065134
 20
-58.42331609650506
 10
36.85702183747681
 20
-58.87667081861429
 10
36.80809156094735
 20
-59.3304135962788
 10
36.68666545293408
 20
-60.0755860960921
 10
37.0907723870689
 20
-60.65675220705786
 10
37.20616599523607
 20
-61.25379331801968
 10
37.2334004389857
 20
-61.65860581791881
 10
37.26268099379426
 20
-62.06338304003978
 10
37.29023293753579
 20
-62.46646692882762
 10
37.52296043159841
 20
-63.86381970625646
 10
37.52034987610946
 20
-65.71174026134996
 10
37.20616599523607
 20
-66.98438609436516
 10
37.08181183174194
 20
-67.486318316462
 10
36.47926740266968
 20
-67.50938998312272
 10
36.22240990922267
 20
-67.8621677608123
 10
36.07635991294871
 20
-68.06476803853951
 10
36.05170074691115
 20
-68.29798942736987
 10
35.97179658228301
 20
-68.57393220507853
 10
36.57038990034496
 20
-69.07314803828712
 10
37.72206820429653
 20
-70.17695442689995
 10
37.9384277682933
 20
-71.00100803780506
 10
38.11446387936034
 20
-71.6734730376374
 10
37.69797348268902
 20
-73.63548192603545
 10
38.06366387937295
 20
-74.01270720371929
 10
38.16991958175978
 20
-74.13466248146653
 10
38.41245429779443
 20
-74.16291998145918
 10
38.58679707112435
 20
-74.15773414812725
 10
39.52539760273421
 20
-74.13466248146653
 10
39.55125621318561
 20
-73.12592970394051
 10
39.75741954125928
 20
-72.38110998190497
 10
39.82356537290509
 20
-72.13928081529826
 10
39.96792203588892
 20
-71.76685331539173
 10
39.92488314809804
 20
-71.45990137102399
 10
39.92488314809804
 20
-71.45990137102399
 10
39.86233564969376
 20
-70.74813692675711
 10
39.86233564969376
 20
-70.74813692675711
 10
39.98136387889342
 20
-70.00021276027805
 10
39.95793842503251
 20
-69.2880955382334
 10
39.84219203909655
 20
-68.5308580384231
 10
39.82719999004311
 20
-67.88354609414054
 10
39.81255870651923
 20
-67.23447026096918
 10
39.79929426241319
 20
-66.5864527611311
 10
39.67130648790065
 20
-65.77756859466652
 10
39.72281204214219
 20
-64.03262387288068
 10
40.00806814597581
 20
-63.47071942857658
 10
40.00806814597581
 20
-63.47071942857658
 10
40.00806814597581
 20
-63.42835081747602
 10
40.00806814597581
 20
-63.42835081747602
 10
40.00806814597581
 20
-63.42835081747602
 10
40.0285645343418
 20
-63.42835081747602
 10
40.0285645343418
 20
-63.42835081747602
 10
40.24421758439559
 20
-64.24277359505031
 10
40.62317146361655
 20
-64.98381859486496
 10
40.8657061796512
 20
-65.74998137245122
 10
41.13582811720426
 20
-66.60437387223804
 10
41.22056533726465
 20
-67.66408303863967
 10
41.43004477636483
 20
-68.5522363717507
 10
41.54233394016676
 20
-69.02661664940976
 10
41.34802498966312
 20
-69.51168609373293
 10
41.283959502314
 20
-69.91166553807788
 10
41.14270832304766
 20
-70.78948248230255
 10
41.28360672454522
 20
-72.08587025975648
 10
41.4517416563038
 20
-72.90339748177428
 10
41.62294366033246
 20
-73.73778748156575
 10
41.63603171555411
 20
-74.53361887025572
 10
42.66406141154911
 20
-74.55669053691643
 10
42.83113696284222
 20
-74.56254664802574
 10
42.99891806967288
 20
-74.5704841480241
 10
43.1653233432053
 20
-74.57736331468915
 10
44.18749692823859
 20
-74.19840942589468
 10
44.00419359958172
 20
-71.32827998216776
 10
43.79404388272086
 20
-70.07979942692472
 10
43.78681193846091
 20
-69.74490748256393
 10
43.77957999420097
 20
-69.41075637153617
 10
43.773372211279
 20
-69.07692276050865
 10
43.50399000123186
 20
-67.9341697052384
 10
42.92656334929658
 20
-66.81522914996255
 10
42.66406141154911
 20
-65.62492165026045
 10
42.6502678007899
 20
-65.35310637255044
 10
42.63717974556825
 20
-65.0802680392853
 10
42.62204557928769
 20
-64.80880553935305
 10
42.41979808444746
 20
-63.58646581743675
 10
42.61721252385544
 20
-62.10853859558426
 10
42.41256614018751
 20
-60.85624804034153
 10
42.39877252942831
 20
-60.25645526271395
 10
42.38501419644598
 20
-59.65697998508596
 10
42.37192614122433
 20
-59.05859831856878
 10
42.16315225766171
 20
-58.29067165209371
 10
41.95300254080085
 20
-57.52412081895216
 10
41.74422865723822
 20
-56.75689970803325
 10
41.75043754596871
 20
-56.30456804147916
 10
41.75798699022055
 20
-55.85086054159281
 10
41.76384310118226
 20
-55.39747054170606
 10
41.76384310118226
 20
-55.39747054170606
 10
41.72182726892084
 20
-54.26819359754386
 10
41.72182726892084
 20
-54.26819359754386
 10
41.8554947655107
 20
-53.88440665319585
 10
41.98778642880232
 20
-53.50164276440232
 10
42.12043086986273
 20
-53.1175030422759
 10
42.24443332277208
 20
-52.64725026461614
 10
42.24721919996142
 20
-52.21971887583405
 10
42.41256614018751
 20
-51.82146804260038
 10
42.63717974556825
 20
-51.42424026492183
 10
42.85904168435253
 20
-51.02736526502105
 10
43.08196195644314
 20
-50.63017276512004
 10
43.5315419449734
 20
-49.59078359871335
 10
43.83090915955813
 20
-48.50108832120777
 10
44.19127165036451
 20
-47.36729582149163
 10
44.43070192203391
 20
-46.60801221057043
 10
44.76351246909876
 20
-45.69953887746382
 10
44.83999468936977
 20
-44.81551304435145
 10
45.20515495783152
 20
-44.89890971099719
 10
45.67230327924691
 20
-44.76831137769672
 10
46.07263549125581
 20
-44.83618582212416
 10
46.07263549125581
 20
-44.83618582212416
 10
46.47088631442892
 20
-44.89855693322007
 10
46.47088631442892
 20
-44.89855693322007
 10
46.47088631442892
 20
-44.89855693322007
 10
46.80574297255268
 20
-44.81551304435145
 10
46.80574297255268
 20
-44.81551304435145
 10
46.90289797007405
 20
-44.86377304433946
 10
47.00075852313297
 20
-44.91266804432732
 10
47.0989365761838
 20
-44.9622685998707
 10
47.0989365761838
 20
-44.9622685998707
 10
47.45376045602038
 20
-44.98262387764317
 10
47.45376045602038
 20
-44.98262387764317
 10
47.61120517422585
 20
-45.06873693317716
 10
47.97156766503224
 20
-45.85010443298211
 10
48.06082044053299
 20
-46.04921221070987
 10
48.4511337639086
 20
-46.29862609953652
 10
49.18011374531077
 20
-45.68264082191263
 10
49.67068651057299
 20
-45.86075832186808
 10
50.50267760045824
 20
-46.16291248845916
 10
50.87718647979261
 20
-47.30114998817483
 10
51.82527673338259
 20
-47.5547266547783
 10
51.94031756378099
 20
-47.29564665484265
 10
52.17734894662271
 20
-47.22156332152815
 10
52.24278922273096
 20
-46.88603637716751
 10
52.3888744967818
 20
-46.87224276605986
 10
52.5356300485933
 20
-46.8584491549522
 10
52.68309115594237
 20
-46.84433804384432
 10
52.75198865418465
 20
-46.64865221056034
 10
52.82159170796448
 20
-46.4543422106086
 10
52.89013642843798
 20
-46.25869165510214
 10
53.25427498668655
 20
-46.45540054394188
 10
53.61121418781953
 20
-46.37062804396262
 10
53.91608609763228
 20
-46.5301541550344
 10
54.03116084377247
 20
-46.34618054396901
 10
54.09282776425484
 20
-46.13638359957714
 10
54.08249000912962
 20
-45.81941276632264
 10
54.08249000912962
 20
-45.81941276632264
 10
54.5014136095531
 20
-45.60961582193077
 10
54.5014136095531
 20
-45.60961582193077
 10
54.65367249455754
 20
-45.29818359978662
 10
54.51933609748116
 20
-45.07011276651004
 10
54.39600361224233
 20
-44.8575641554524
 10
54.53517444202512
 20
-44.60261165551605
 10
54.75015721431824
 20
-44.50132915554153
 10
54.91931415444712
 20
-44.29290804448254
 97
        0
 75
     0
 76
     1
 98
        0
  0
ENDSEC
  0
SECTION
  2
OBJECTS
  0
DICTIONARY
  5
C
330
0
100
AcDbDictionary
281
     1
  3
ACAD_GROUP
350
D
  3
ACAD_LAYOUT
350
1A
  3
ACAD_MATERIAL
350
3B
  3
ACAD_MLEADERSTYLE
350
64
  3
ACAD_MLINESTYLE
350
17
  3
ACAD_PLOTSETTINGS
350
19
  3
ACAD_PLOTSTYLENAME
350
E
  3
ACAD_TABLESTYLE
350
63
  3
ACAD_VISUALSTYLE
350
2A
  0
SUN
  5
3F
330
29
100
AcDbSun
 90
        1
290
     0
 63
     7
421
 16777215
 40
1.0
291
     1
 91
  2455826
 92
 54000000
292
     0
 70
     2
 71
   256
280
     1
  0
DICTIONARY
  5
D
102
{ACAD_REACTORS
330
C
102
}
330
C
100
AcDbDictionary
281
     1
  0
DICTIONARY
  5
1A
102
{ACAD_REACTORS
330
C
102
}
330
C
100
AcDbDictionary
281
     1
  3
Layout1
350
1E
  3
Layout2
350
26
  3
Model
350
22
  0
DICTIONARY
  5
3B
102
{ACAD_REACTORS
330
C
102
}
330
C
100
AcDbDictionary
281
     1
  3
ByBlock
350
3D
  3
ByLayer
350
3C
  3
Global
350
3E
  0
DICTIONARY
  5
64
102
{ACAD_REACTORS
330
C
102
}
330
C
100
AcDbDictionary
281
     1
  0
DICTIONARY
  5
17
102
{ACAD_REACTORS
330
C
102
}
330
C
100
AcDbDictionary
281
     1
  3
Standard
350
18
  0
DICTIONARY
  5
19
102
{ACAD_REACTORS
330
C
102
}
330
C
100
AcDbDictionary
281
     1
  0
ACDBDICTIONARYWDFLT
  5
E
102
{ACAD_REACTORS
330
C
102
}
330
C
100
AcDbDictionary
281
     1
  3
Normal
350
F
100
AcDbDictionaryWithDefault
340
F
  0
DICTIONARY
  5
63
102
{ACAD_REACTORS
330
C
102
}
330
C
100
AcDbDictionary
281
     1
  0
DICTIONARY
  5
2A
102
{ACAD_REACTORS
330
C
102
}
330
C
100
AcDbDictionary
281
     1
  3
2dWireframe
350
2F
  3
3D Hidden
350
31
  3
3dWireframe
350
30
  3
Basic
350
32
  3
Brighten
350
36
  3
ColorChange
350
3A
  3
Conceptual
350
34
  3
Dim
350
35
  3
Facepattern
350
39
  3
Flat
350
2B
  3
FlatWithEdges
350
2C
  3
Gouraud
350
2D
  3
GouraudWithEdges
350
2E
  3
Linepattern
350
38
  3
Realistic
350
33
  3
Thicken
350
37
  0
LAYOUT
  5
1E
102
{ACAD_REACTORS
330
1A
102
}
330
1A
100
AcDbPlotSettings
  1

  2
none_device
  4

  6

 40
0.0
 41
0.0
 42
0.0
 43
0.0
 44
0.0
 45
0.0
 46
0.0
 47
0.0
 48
0.0
 49
0.0
140
0.0
141
0.0
142
1.0
143
1.0
 70
   688
 72
     0
 73
     0
 74
     5
  7

 75
    16
 76
     0
 77
     2
 78
   300
147
1.0
148
0.0
149
0.0
100
AcDbLayout
  1
Layout1
 70
     1
 71
     1
 10
0.0
 20
0.0
 11
12.0
 21
9.0
 12
0.0
 22
0.0
 32
0.0
 14
1.000000000000000E+20
 24
1.000000000000000E+20
 34
1.000000000000000E+20
 15
-1.000000000000000E+20
 25
-1.000000000000000E+20
 35
-1.000000000000000E+20
146
0.0
 13
0.0
 23
0.0
 33
0.0
 16
1.0
 26
0.0
 36
0.0
 17
0.0
 27
1.0
 37
0.0
 76
     0
330
1B
  0
LAYOUT
  5
26
102
{ACAD_REACTORS
330
1A
102
}
330
1A
100
AcDbPlotSettings
  1

  2
none_device
  4

  6

 40
0.0
 41
0.0
 42
0.0
 43
0.0
 44
0.0
 45
0.0
 46
0.0
 47
0.0
 48
0.0
 49
0.0
140
0.0
141
0.0
142
1.0
143
1.0
 70
   688
 72
     0
 73
     0
 74
     5
  7

 75
    16
 76
     0
 77
     2
 78
   300
147
1.0
148
0.0
149
0.0
100
AcDbLayout
  1
Layout2
 70
     1
 71
     2
 10
0.0
 20
0.0
 11
0.0
 21
0.0
 12
0.0
 22
0.0
 32
0.0
 14
0.0
 24
0.0
 34
0.0
 15
0.0
 25
0.0
 35
0.0
146
0.0
 13
0.0
 23
0.0
 33
0.0
 16
1.0
 26
0.0
 36
0.0
 17
0.0
 27
1.0
 37
0.0
 76
     0
330
23
  0
LAYOUT
  5
22
102
{ACAD_REACTORS
330
1A
102
}
330
1A
100
AcDbPlotSettings
  1

  2
none_device
  4

  6

 40
0.0
 41
0.0
 42
0.0
 43
0.0
 44
0.0
 45
0.0
 46
0.0
 47
0.0
 48
0.0
 49
0.0
140
0.0
141
0.0
142
1.0
143
1.0
 70
  1712
 72
     0
 73
     0
 74
     0
  7

 75
     0
 76
     0
 77
     2
 78
   300
147
1.0
148
0.0
149
0.0
100
AcDbLayout
  1
Model
 70
     1
 71
     0
 10
0.0
 20
0.0
 11
12.0
 21
9.0
 12
0.0
 22
0.0
 32
0.0
 14
1.000000000000000E+20
 24
1.000000000000000E+20
 34
1.000000000000000E+20
 15
-1.000000000000000E+20
 25
-1.000000000000000E+20
 35
-1.000000000000000E+20
146
0.0
 13
0.0
 23
0.0
 33
0.0
 16
1.0
 26
0.0
 36
0.0
 17
0.0
 27
1.0
 37
0.0
 76
     0
330
1F
331
29
  0
MATERIAL
  5
3D
102
{ACAD_REACTORS
330
3B
102
}
330
3B
100
AcDbMaterial
  1
ByBlock
 72
     1
 94
      127
  0
MATERIAL
  5
3C
102
{ACAD_REACTORS
330
3B
102
}
330
3B
100
AcDbMaterial
  1
ByLayer
 72
     1
 94
      127
  0
MATERIAL
  5
3E
102
{ACAD_REACTORS
330
3B
102
}
330
3B
100
AcDbMaterial
  1
Global
 72
     1
 94
      127
  0
MLINESTYLE
  5
18
102
{ACAD_REACTORS
330
17
102
}
330
17
100
AcDbMlineStyle
  2
Standard
 70
     0
  3

 62
   256
 51
90.0
 52
90.0
 71
     2
 49
0.5
 62
   256
  6
BYLAYER
 49
-0.5
 62
   256
  6
BYLAYER
  0
ACDBPLACEHOLDER
  5
F
102
{ACAD_REACTORS
330
E
102
}
330
E
  0
VISUALSTYLE
  5
2F
102
{ACAD_REACTORS
330
2A
102
}
102
{ACAD_XDICTIONARY
360
4B
102
}
330
2A
100
AcDbVisualStyle
  2
2dWireframe
 70
     4
 71
     0
 72
     2
 73
     0
 90
        0
 40
-0.6
 41
-30.0
 62
     5
 63
     7
421
 16777215
 74
     1
 91
        4
 64
     7
 65
   257
 75
     1
175
     1
 42
1.0
 92
        0
 66
   257
 43
1.0
 76
     1
 77
     6
 78
     2
 67
     7
 79
     5
170
     0
171
     0
290
     0
174
     0
 93
        1
 44
0.0
173
     0
291
     0
 45
0.0
  0
VISUALSTYLE
  5
31
102
{ACAD_REACTORS
330
2A
102
}
102
{ACAD_XDICTIONARY
360
4F
102
}
330
2A
100
AcDbVisualStyle
  2
3D Hidden
 70
     6
 71
     1
 72
     2
 73
     2
 90
        0
 40
-0.6
 41
-30.0
 62
     5
 63
     7
421
 16777215
 74
     2
 91
        2
 64
     7
 65
   257
 75
     2
175
     1
 42
40.0
 92
        0
 66
   257
 43
1.0
 76
     1
 77
     6
 78
     2
 67
     7
 79
     3
170
     0
171
     0
290
     0
174
     0
 93
        1
 44
0.0
173
     0
291
     0
 45
0.0
  0
VISUALSTYLE
  5
30
102
{ACAD_REACTORS
330
2A
102
}
102
{ACAD_XDICTIONARY
360
4D
102
}
330
2A
100
AcDbVisualStyle
  2
3dWireframe
 70
     5
 71
     0
 72
     2
 73
     0
 90
        0
 40
-0.6
 41
-30.0
 62
     5
 63
     7
421
 16777215
 74
     1
 91
        4
 64
     7
 65
   257
 75
     1
175
     1
 42
1.0
 92
        0
 66
   257
 43
1.0
 76
     1
 77
     6
 78
     2
 67
     7
 79
     5
170
     0
171
     0
290
     0
174
     0
 93
        1
 44
0.0
173
     0
291
     0
 45
0.0
  0
VISUALSTYLE
  5
32
102
{ACAD_REACTORS
330
2A
102
}
102
{ACAD_XDICTIONARY
360
51
102
}
330
2A
100
AcDbVisualStyle
  2
Basic
 70
     7
 71
     1
 72
     0
 73
     1
 90
        0
 40
-0.6
 41
-30.0
 62
     5
 63
     7
421
 16777215
 74
     0
 91
        4
 64
     7
 65
   257
 75
     1
175
     1
 42
1.0
 92
        8
 66
     7
 43
1.0
 76
     1
 77
     6
 78
     2
 67
     7
 79
     5
170
     0
171
     0
290
     0
174
     0
 93
        1
 44
0.0
173
     0
291
     1
 45
0.0
  0
VISUALSTYLE
  5
36
102
{ACAD_REACTORS
330
2A
102
}
102
{ACAD_XDICTIONARY
360
59
102
}
330
2A
100
AcDbVisualStyle
  2
Brighten
 70
    12
 71
     2
 72
     2
 73
     0
 90
        0
 40
-0.6
 41
-30.0
 62
     5
 63
     7
421
 16777215
 74
     1
 91
        4
 64
     7
 65
   257
 75
     1
175
     1
 42
1.0
 92
        8
 66
     7
 43
1.0
 76
     1
 77
     6
 78
     2
 67
     7
 79
     5
170
     0
171
     0
290
     0
174
     0
 93
        1
 44
50.0
173
     0
291
     1
 45
0.0
  0
VISUALSTYLE
  5
3A
102
{ACAD_REACTORS
330
2A
102
}
102
{ACAD_XDICTIONARY
360
61
102
}
330
2A
100
AcDbVisualStyle
  2
ColorChange
 70
    16
 71
     2
 72
     2
 73
     3
 90
        0
 40
-0.6
 41
-30.0
 62
     5
 63
     8
421
  8421504
 74
     1
 91
        4
 64
     7
 65
   257
 75
     1
175
     1
 42
1.0
 92
        8
 66
     8
424
  8421504
 43
1.0
 76
     1
 77
     6
 78
     2
 67
     7
 79
     5
170
     0
171
     0
290
     0
174
     0
 93
        1
 44
0.0
173
     0
291
     1
 45
0.0
  0
VISUALSTYLE
  5
34
102
{ACAD_REACTORS
330
2A
102
}
102
{ACAD_XDICTIONARY
360
55
102
}
330
2A
100
AcDbVisualStyle
  2
Conceptual
 70
     9
 71
     3
 72
     2
 73
     0
 90
        0
 40
-0.6
 41
-30.0
 62
     5
 63
     7
421
 16777215
 74
     2
 91
        2
 64
     7
 65
   257
 75
     1
175
     1
 42
40.0
 92
        8
 66
     7
 43
1.0
 76
     1
 77
     6
 78
     2
 67
     7
 79
     3
170
     0
171
     0
290
     0
174
     0
 93
        1
 44
0.0
173
     0
291
     0
 45
0.0
  0
VISUALSTYLE
  5
35
102
{ACAD_REACTORS
330
2A
102
}
102
{ACAD_XDICTIONARY
360
57
102
}
330
2A
100
AcDbVisualStyle
  2
Dim
 70
    11
 71
     2
 72
     2
 73
     0
 90
        0
 40
-0.6
 41
-30.0
 62
     5
 63
     7
421
 16777215
 74
     1
 91
        4
 64
     7
 65
   257
 75
     1
175
     1
 42
1.0
 92
        8
 66
     7
 43
1.0
 76
     1
 77
     6
 78
     2
 67
     7
 79
     5
170
     0
171
     0
290
     0
174
     0
 93
        1
 44
-50.0
173
     0
291
     1
 45
0.0
  0
VISUALSTYLE
  5
39
102
{ACAD_REACTORS
330
2A
102
}
102
{ACAD_XDICTIONARY
360
5F
102
}
330
2A
100
AcDbVisualStyle
  2
Facepattern
 70
    15
 71
     2
 72
     2
 73
     0
 90
        0
 40
-0.6
 41
-30.0
 62
     5
 63
     7
421
 16777215
 74
     1
 91
        4
 64
     7
 65
   257
 75
     1
175
     1
 42
1.0
 92
        8
 66
     7
 43
1.0
 76
     1
 77
     6
 78
     2
 67
     7
 79
     5
170
     0
171
     0
290
     0
174
     0
 93
        1
 44
0.0
173
     0
291
     1
 45
0.0
  0
VISUALSTYLE
  5
2B
102
{ACAD_REACTORS
330
2A
102
}
102
{ACAD_XDICTIONARY
360
43
102
}
330
2A
100
AcDbVisualStyle
  2
Flat
 70
     0
 71
     2
 72
     1
 73
     1
 90
        2
 40
-0.6
 41
30.0
 62
     5
 63
     7
421
 16777215
 74
     0
 91
        4
 64
     7
 65
   257
 75
     1
175
     1
 42
1.0
 92
        8
 66
     7
 43
1.0
 76
     1
 77
     6
 78
     2
 67
     7
 79
     5
170
     0
171
     0
290
     0
174
     0
 93
       13
 44
0.0
173
     0
291
     1
 45
0.0
  0
VISUALSTYLE
  5
2C
102
{ACAD_REACTORS
330
2A
102
}
102
{ACAD_XDICTIONARY
360
45
102
}
330
2A
100
AcDbVisualStyle
  2
FlatWithEdges
 70
     1
 71
     2
 72
     1
 73
     1
 90
        2
 40
-0.6
 41
30.0
 62
     5
 63
     7
421
 16777215
 74
     1
 91
        4
 64
     7
 65
   257
 75
     1
175
     1
 42
1.0
 92
        0
 66
   257
 43
1.0
 76
     1
 77
     6
 78
     2
 67
     7
 79
     5
170
     0
171
     0
290
     0
174
     0
 93
       13
 44
0.0
173
     0
291
     1
 45
0.0
  0
VISUALSTYLE
  5
2D
102
{ACAD_REACTORS
330
2A
102
}
102
{ACAD_XDICTIONARY
360
47
102
}
330
2A
100
AcDbVisualStyle
  2
Gouraud
 70
     2
 71
     2
 72
     2
 73
     1
 90
        2
 40
-0.6
 41
30.0
 62
     5
 63
     7
421
 16777215
 74
     0
 91
        4
 64
     7
 65
   257
 75
     1
175
     1
 42
1.0
 92
        0
 66
     7
 43
1.0
 76
     1
 77
     6
 78
     2
 67
     7
 79
     5
170
     0
171
     0
290
     0
174
     0
 93
       13
 44
0.0
173
     0
291
     1
 45
0.0
  0
VISUALSTYLE
  5
2E
102
{ACAD_REACTORS
330
2A
102
}
102
{ACAD_XDICTIONARY
360
49
102
}
330
2A
100
AcDbVisualStyle
  2
GouraudWithEdges
 70
     3
 71
     2
 72
     2
 73
     1
 90
        2
 40
-0.6
 41
30.0
 62
     5
 63
     7
421
 16777215
 74
     1
 91
        4
 64
     7
 65
   257
 75
     1
175
     1
 42
1.0
 92
        0
 66
   257
 43
1.0
 76
     1
 77
     6
 78
     2
 67
     7
 79
     5
170
     0
171
     0
290
     0
174
     0
 93
       13
 44
0.0
173
     0
291
     1
 45
0.0
  0
VISUALSTYLE
  5
38
102
{ACAD_REACTORS
330
2A
102
}
102
{ACAD_XDICTIONARY
360
5D
102
}
330
2A
100
AcDbVisualStyle
  2
Linepattern
 70
    14
 71
     2
 72
     2
 73
     0
 90
        0
 40
-0.6
 41
-30.0
 62
     5
 63
     7
421
 16777215
 74
     1
 91
        4
 64
     7
 65
   257
 75
     7
175
     7
 42
1.0
 92
        8
 66
     7
 43
1.0
 76
     1
 77
     6
 78
     2
 67
     7
 79
     5
170
     0
171
     0
290
     0
174
     0
 93
        1
 44
0.0
173
     0
291
     1
 45
0.0
  0
VISUALSTYLE
  5
33
102
{ACAD_REACTORS
330
2A
102
}
102
{ACAD_XDICTIONARY
360
53
102
}
330
2A
100
AcDbVisualStyle
  2
Realistic
 70
     8
 71
     2
 72
     2
 73
     0
 90
        0
 40
-0.6
 41
-30.0
 62
     5
 63
     7
421
 16777215
 74
     1
 91
        0
 64
     7
 65
   257
 75
     1
175
     1
 42
1.0
 92
        8
 66
     8
424
  7895160
 43
1.0
 76
     1
 77
     6
 78
     2
 67
     7
 79
     5
170
     0
171
     0
290
     0
174
     0
 93
       13
 44
0.0
173
     0
291
     0
 45
0.0
  0
VISUALSTYLE
  5
37
102
{ACAD_REACTORS
330
2A
102
}
102
{ACAD_XDICTIONARY
360
5B
102
}
330
2A
100
AcDbVisualStyle
  2
Thicken
 70
    13
 71
     2
 72
     2
 73
     0
 90
        0
 40
-0.6
 41
-30.0
 62
     5
 63
     7
421
 16777215
 74
     1
 91
        4
 64
     7
 65
   257
 75
     1
175
     1
 42
1.0
 92
       12
 66
     7
 43
1.0
 76
     1
 77
     6
 78
     2
 67
     7
 79
     5
170
     0
171
     0
290
     0
174
     0
 93
        1
 44
0.0
173
     0
291
     1
 45
0.0
  0
DICTIONARY
  5
4B
330
2F
100
AcDbDictionary
280
     1
281
     1
  3
ACAD_XREC_ROUNDTRIP
360
4C
  0
DICTIONARY
  5
4F
330
31
100
AcDbDictionary
280
     1
281
     1
  3
ACAD_XREC_ROUNDTRIP
360
50
  0
DICTIONARY
  5
4D
330
30
100
AcDbDictionary
280
     1
281
     1
  3
ACAD_XREC_ROUNDTRIP
360
4E
  0
DICTIONARY
  5
51
330
32
100
AcDbDictionary
280
     1
281
     1
  3
ACAD_XREC_ROUNDTRIP
360
52
  0
DICTIONARY
  5
59
330
36
100
AcDbDictionary
280
     1
281
     1
  3
ACAD_XREC_ROUNDTRIP
360
5A
  0
DICTIONARY
  5
61
330
3A
100
AcDbDictionary
280
     1
281
     1
  3
ACAD_XREC_ROUNDTRIP
360
62
  0
DICTIONARY
  5
55
330
34
100
AcDbDictionary
280
     1
281
     1
  3
ACAD_XREC_ROUNDTRIP
360
56
  0
DICTIONARY
  5
57
330
35
100
AcDbDictionary
280
     1
281
     1
  3
ACAD_XREC_ROUNDTRIP
360
58
  0
DICTIONARY
  5
5F
330
39
100
AcDbDictionary
280
     1
281
     1
  3
ACAD_XREC_ROUNDTRIP
360
60
  0
DICTIONARY
  5
43
330
2B
100
AcDbDictionary
280
     1
281
     1
  3
ACAD_XREC_ROUNDTRIP
360
44
  0
DICTIONARY
  5
45
330
2C
100
AcDbDictionary
280
     1
281
     1
  3
ACAD_XREC_ROUNDTRIP
360
46
  0
DICTIONARY
  5
47
330
2D
100
AcDbDictionary
280
     1
281
     1
  3
ACAD_XREC_ROUNDTRIP
360
48
  0
DICTIONARY
  5
49
330
2E
100
AcDbDictionary
280
     1
281
     1
  3
ACAD_XREC_ROUNDTRIP
360
4A
  0
DICTIONARY
  5
5D
330
38
100
AcDbDictionary
280
     1
281
     1
  3
ACAD_XREC_ROUNDTRIP
360
5E
  0
DICTIONARY
  5
53
330
33
100
AcDbDictionary
280
     1
281
     1
  3
ACAD_XREC_ROUNDTRIP
360
54
  0
DICTIONARY
  5
5B
330
37
100
AcDbDictionary
280
     1
281
     1
  3
ACAD_XREC_ROUNDTRIP
360
5C
  0
XRECORD
  5
4C
102
{ACAD_REACTORS
330
4B
102
}
330
4B
100
AcDbXrecord
280
     1
102
RTVSPropertyOp0
 70
     1
102
RTVSPropertyOp1
 70
     1
102
RTVSPropertyOp2
 70
     1
102
RTVSPropertyOp3
 70
     1
102
RTVSPropertyOp4
 70
     1
102
RTVSPropertyOp5
 70
     1
102
RTVSPropertyOp6
 70
     1
102
RTVSPropertyOp7
 70
     1
102
RTVSPropertyOp8
 70
     1
102
RTVSPropertyOp9
 70
     1
102
RTVSPropertyOp10
 70
     1
102
RTVSPropertyOp11
 70
     1
102
RTVSPropertyOp12
 70
     1
102
RTVSPropertyOp13
 70
     1
102
RTVSPropertyOp14
 70
     1
102
RTVSPropertyOp15
 70
     1
102
RTVSPropertyOp16
 70
     1
102
RTVSPropertyOp17
 70
     1
102
RTVSPropertyOp18
 70
     1
102
RTVSPropertyOp19
 70
     1
102
RTVSPropertyOp20
 70
     1
102
RTVSPropertyOp21
 70
     1
102
RTVSPropertyOp22
 70
     1
102
RTVSPropertyOp23
 70
     1
102
RTVSPropertyOp24
 70
     1
102
RTVSPropertyOp25
 70
     1
102
RTVSPropertyOp26
 70
     1
102
RTVSPropertyOp27
 70
     1
102
RTVSPropertyOp28
 70
     1
102
RTVSPropertyOp29
 70
     1
102
RTVSPropertyOp30
 70
     1
102
RTVSPropertyOp31
 70
     1
102
RTVSPropertyOp32
 70
     1
  0
XRECORD
  5
50
102
{ACAD_REACTORS
330
4F
102
}
330
4F
100
AcDbXrecord
280
     1
102
RTVSPropertyOp0
 70
     1
102
RTVSPropertyOp1
 70
     1
102
RTVSPropertyOp2
 70
     1
102
RTVSPropertyOp3
 70
     1
102
RTVSPropertyOp4
 70
     1
102
RTVSPropertyOp5
 70
     1
102
RTVSPropertyOp6
 70
     1
102
RTVSPropertyOp7
 70
     1
102
RTVSPropertyOp8
 70
     1
102
RTVSPropertyOp9
 70
     1
102
RTVSPropertyOp10
 70
     1
102
RTVSPropertyOp11
 70
     1
102
RTVSPropertyOp12
 70
     1
102
RTVSPropertyOp13
 70
     1
102
RTVSPropertyOp14
 70
     1
102
RTVSPropertyOp15
 70
     1
102
RTVSPropertyOp16
 70
     1
102
RTVSPropertyOp17
 70
     1
102
RTVSPropertyOp18
 70
     1
102
RTVSPropertyOp19
 70
     1
102
RTVSPropertyOp20
 70
     1
102
RTVSPropertyOp21
 70
     1
102
RTVSPropertyOp22
 70
     1
102
RTVSPropertyOp23
 70
     1
102
RTVSPropertyOp24
 70
     1
102
RTVSPropertyOp25
 70
     1
102
RTVSPropertyOp26
 70
     1
102
RTVSPropertyOp27
 70
     1
102
RTVSPropertyOp28
 70
     1
102
RTVSPropertyOp29
 70
     1
102
RTVSPropertyOp30
 70
     1
102
RTVSPropertyOp31
 70
     1
102
RTVSPropertyOp32
 70
     1
  0
XRECORD
  5
4E
102
{ACAD_REACTORS
330
4D
102
}
330
4D
100
AcDbXrecord
280
     1
102
RTVSPropertyOp0
 70
     1
102
RTVSPropertyOp1
 70
     1
102
RTVSPropertyOp2
 70
     1
102
RTVSPropertyOp3
 70
     1
102
RTVSPropertyOp4
 70
     1
102
RTVSPropertyOp5
 70
     1
102
RTVSPropertyOp6
 70
     1
102
RTVSPropertyOp7
 70
     1
102
RTVSPropertyOp8
 70
     1
102
RTVSPropertyOp9
 70
     1
102
RTVSPropertyOp10
 70
     1
102
RTVSPropertyOp11
 70
     1
102
RTVSPropertyOp12
 70
     1
102
RTVSPropertyOp13
 70
     1
102
RTVSPropertyOp14
 70
     1
102
RTVSPropertyOp15
 70
     1
102
RTVSPropertyOp16
 70
     1
102
RTVSPropertyOp17
 70
     1
102
RTVSPropertyOp18
 70
     1
102
RTVSPropertyOp19
 70
     1
102
RTVSPropertyOp20
 70
     1
102
RTVSPropertyOp21
 70
     1
102
RTVSPropertyOp22
 70
     1
102
RTVSPropertyOp23
 70
     1
102
RTVSPropertyOp24
 70
     1
102
RTVSPropertyOp25
 70
     1
102
RTVSPropertyOp26
 70
     1
102
RTVSPropertyOp27
 70
     1
102
RTVSPropertyOp28
 70
     1
102
RTVSPropertyOp29
 70
     1
102
RTVSPropertyOp30
 70
     1
102
RTVSPropertyOp31
 70
     1
102
RTVSPropertyOp32
 70
     1
  0
XRECORD
  5
52
102
{ACAD_REACTORS
330
51
102
}
330
51
100
AcDbXrecord
280
     1
102
RTVSPropertyOp0
 70
     1
102
RTVSPropertyOp1
 70
     1
102
RTVSPropertyOp2
 70
     1
102
RTVSPropertyOp3
 70
     1
102
RTVSPropertyOp4
 70
     1
102
RTVSPropertyOp5
 70
     1
102
RTVSPropertyOp6
 70
     1
102
RTVSPropertyOp7
 70
     1
102
RTVSPropertyOp8
 70
     1
102
RTVSPropertyOp9
 70
     1
102
RTVSPropertyOp10
 70
     1
102
RTVSPropertyOp11
 70
     1
102
RTVSPropertyOp12
 70
     1
102
RTVSPropertyOp13
 70
     1
102
RTVSPropertyOp14
 70
     1
102
RTVSPropertyOp15
 70
     1
102
RTVSPropertyOp16
 70
     1
102
RTVSPropertyOp17
 70
     1
102
RTVSPropertyOp18
 70
     1
102
RTVSPropertyOp19
 70
     1
102
RTVSPropertyOp20
 70
     1
102
RTVSPropertyOp21
 70
     1
102
RTVSPropertyOp22
 70
     1
102
RTVSPropertyOp23
 70
     1
102
RTVSPropertyOp24
 70
     1
102
RTVSPropertyOp25
 70
     1
102
RTVSPropertyOp26
 70
     1
102
RTVSPropertyOp27
 70
     1
102
RTVSPropertyOp28
 70
     1
102
RTVSPropertyOp29
 70
     1
102
RTVSPropertyOp30
 70
     1
102
RTVSPropertyOp31
 70
     1
102
RTVSPropertyOp32
 70
     1
  0
XRECORD
  5
5A
102
{ACAD_REACTORS
330
59
102
}
330
59
100
AcDbXrecord
280
     1
102
RTVSPropertyOp0
 70
     1
102
RTVSPropertyOp1
 70
     1
102
RTVSPropertyOp2
 70
     1
102
RTVSPropertyOp3
 70
     1
102
RTVSPropertyOp4
 70
     1
102
RTVSPropertyOp5
 70
     1
102
RTVSPropertyOp6
 70
     1
102
RTVSPropertyOp7
 70
     1
102
RTVSPropertyOp8
 70
     1
102
RTVSPropertyOp9
 70
     1
102
RTVSPropertyOp10
 70
     1
102
RTVSPropertyOp11
 70
     1
102
RTVSPropertyOp12
 70
     1
102
RTVSPropertyOp13
 70
     1
102
RTVSPropertyOp14
 70
     1
102
RTVSPropertyOp15
 70
     1
102
RTVSPropertyOp16
 70
     1
102
RTVSPropertyOp17
 70
     1
102
RTVSPropertyOp18
 70
     1
102
RTVSPropertyOp19
 70
     1
102
RTVSPropertyOp20
 70
     1
102
RTVSPropertyOp21
 70
     1
102
RTVSPropertyOp22
 70
     1
102
RTVSPropertyOp23
 70
     1
102
RTVSPropertyOp24
 70
     1
102
RTVSPropertyOp25
 70
     1
102
RTVSPropertyOp26
 70
     1
102
RTVSPropertyOp27
 70
     1
102
RTVSPropertyOp28
 70
     1
102
RTVSPropertyOp29
 70
     1
102
RTVSPropertyOp30
 70
     1
102
RTVSPropertyOp31
 70
     1
102
RTVSPropertyOp32
 70
     1
  0
XRECORD
  5
62
102
{ACAD_REACTORS
330
61
102
}
330
61
100
AcDbXrecord
280
     1
102
RTVSPropertyOp0
 70
     1
102
RTVSPropertyOp1
 70
     1
102
RTVSPropertyOp2
 70
     1
102
RTVSPropertyOp3
 70
     1
102
RTVSPropertyOp4
 70
     1
102
RTVSPropertyOp5
 70
     1
102
RTVSPropertyOp6
 70
     1
102
RTVSPropertyOp7
 70
     1
102
RTVSPropertyOp8
 70
     1
102
RTVSPropertyOp9
 70
     1
102
RTVSPropertyOp10
 70
     1
102
RTVSPropertyOp11
 70
     1
102
RTVSPropertyOp12
 70
     1
102
RTVSPropertyOp13
 70
     1
102
RTVSPropertyOp14
 70
     1
102
RTVSPropertyOp15
 70
     1
102
RTVSPropertyOp16
 70
     1
102
RTVSPropertyOp17
 70
     1
102
RTVSPropertyOp18
 70
     1
102
RTVSPropertyOp19
 70
     1
102
RTVSPropertyOp20
 70
     1
102
RTVSPropertyOp21
 70
     1
102
RTVSPropertyOp22
 70
     1
102
RTVSPropertyOp23
 70
     1
102
RTVSPropertyOp24
 70
     1
102
RTVSPropertyOp25
 70
     1
102
RTVSPropertyOp26
 70
     1
102
RTVSPropertyOp27
 70
     1
102
RTVSPropertyOp28
 70
     1
102
RTVSPropertyOp29
 70
     1
102
RTVSPropertyOp30
 70
     1
102
RTVSPropertyOp31
 70
     1
102
RTVSPropertyOp32
 70
     1
  0
XRECORD
  5
56
102
{ACAD_REACTORS
330
55
102
}
330
55
100
AcDbXrecord
280
     1
102
RTVSPropertyOp0
 70
     1
102
RTVSPropertyOp1
 70
     1
102
RTVSPropertyOp2
 70
     1
102
RTVSPropertyOp3
 70
     1
102
RTVSPropertyOp4
 70
     1
102
RTVSPropertyOp5
 70
     1
102
RTVSPropertyOp6
 70
     1
102
RTVSPropertyOp7
 70
     1
102
RTVSPropertyOp8
 70
     1
102
RTVSPropertyOp9
 70
     1
102
RTVSPropertyOp10
 70
     1
102
RTVSPropertyOp11
 70
     1
102
RTVSPropertyOp12
 70
     1
102
RTVSPropertyOp13
 70
     1
102
RTVSPropertyOp14
 70
     1
102
RTVSPropertyOp15
 70
     1
102
RTVSPropertyOp16
 70
     1
102
RTVSPropertyOp17
 70
     1
102
RTVSPropertyOp18
 70
     1
102
RTVSPropertyOp19
 70
     1
102
RTVSPropertyOp20
 70
     1
102
RTVSPropertyOp21
 70
     1
102
RTVSPropertyOp22
 70
     1
102
RTVSPropertyOp23
 70
     1
102
RTVSPropertyOp24
 70
     1
102
RTVSPropertyOp25
 70
     1
102
RTVSPropertyOp26
 70
     1
102
RTVSPropertyOp27
 70
     1
102
RTVSPropertyOp28
 70
     1
102
RTVSPropertyOp29
 70
     1
102
RTVSPropertyOp30
 70
     1
102
RTVSPropertyOp31
 70
     1
102
RTVSPropertyOp32
 70
     1
  0
XRECORD
  5
58
102
{ACAD_REACTORS
330
57
102
}
330
57
100
AcDbXrecord
280
     1
102
RTVSPropertyOp0
 70
     1
102
RTVSPropertyOp1
 70
     1
102
RTVSPropertyOp2
 70
     1
102
RTVSPropertyOp3
 70
     1
102
RTVSPropertyOp4
 70
     1
102
RTVSPropertyOp5
 70
     1
102
RTVSPropertyOp6
 70
     1
102
RTVSPropertyOp7
 70
     1
102
RTVSPropertyOp8
 70
     1
102
RTVSPropertyOp9
 70
     1
102
RTVSPropertyOp10
 70
     1
102
RTVSPropertyOp11
 70
     1
102
RTVSPropertyOp12
 70
     1
102
RTVSPropertyOp13
 70
     1
102
RTVSPropertyOp14
 70
     1
102
RTVSPropertyOp15
 70
     1
102
RTVSPropertyOp16
 70
     1
102
RTVSPropertyOp17
 70
     1
102
RTVSPropertyOp18
 70
     1
102
RTVSPropertyOp19
 70
     1
102
RTVSPropertyOp20
 70
     1
102
RTVSPropertyOp21
 70
     1
102
RTVSPropertyOp22
 70
     1
102
RTVSPropertyOp23
 70
     1
102
RTVSPropertyOp24
 70
     1
102
RTVSPropertyOp25
 70
     1
102
RTVSPropertyOp26
 70
     1
102
RTVSPropertyOp27
 70
     1
102
RTVSPropertyOp28
 70
     1
102
RTVSPropertyOp29
 70
     1
102
RTVSPropertyOp30
 70
     1
102
RTVSPropertyOp31
 70
     1
102
RTVSPropertyOp32
 70
     1
  0
XRECORD
  5
60
102
{ACAD_REACTORS
330
5F
102
}
330
5F
100
AcDbXrecord
280
     1
102
RTVSPropertyOp0
 70
     1
102
RTVSPropertyOp1
 70
     1
102
RTVSPropertyOp2
 70
     1
102
RTVSPropertyOp3
 70
     1
102
RTVSPropertyOp4
 70
     1
102
RTVSPropertyOp5
 70
     1
102
RTVSPropertyOp6
 70
     1
102
RTVSPropertyOp7
 70
     1
102
RTVSPropertyOp8
 70
     1
102
RTVSPropertyOp9
 70
     1
102
RTVSPropertyOp10
 70
     1
102
RTVSPropertyOp11
 70
     1
102
RTVSPropertyOp12
 70
     1
102
RTVSPropertyOp13
 70
     1
102
RTVSPropertyOp14
 70
     1
102
RTVSPropertyOp15
 70
     1
102
RTVSPropertyOp16
 70
     1
102
RTVSPropertyOp17
 70
     1
102
RTVSPropertyOp18
 70
     1
102
RTVSPropertyOp19
 70
     1
102
RTVSPropertyOp20
 70
     1
102
RTVSPropertyOp21
 70
     1
102
RTVSPropertyOp22
 70
     1
102
RTVSPropertyOp23
 70
     1
102
RTVSPropertyOp24
 70
     1
102
RTVSPropertyOp25
 70
     1
102
RTVSPropertyOp26
 70
     1
102
RTVSPropertyOp27
 70
     1
102
RTVSPropertyOp28
 70
     1
102
RTVSPropertyOp29
 70
     1
102
RTVSPropertyOp30
 70
     1
102
RTVSPropertyOp31
 70
     1
102
RTVSPropertyOp32
 70
     1
  0
XRECORD
  5
44
102
{ACAD_REACTORS
330
43
102
}
330
43
100
AcDbXrecord
280
     1
102
RTVSPropertyOp0
 70
     1
102
RTVSPropertyOp1
 70
     1
102
RTVSPropertyOp2
 70
     1
102
RTVSPropertyOp3
 70
     1
102
RTVSPropertyOp4
 70
     1
102
RTVSPropertyOp5
 70
     1
102
RTVSPropertyOp6
 70
     1
102
RTVSPropertyOp7
 70
     1
102
RTVSPropertyOp8
 70
     1
102
RTVSPropertyOp9
 70
     1
102
RTVSPropertyOp10
 70
     1
102
RTVSPropertyOp11
 70
     1
102
RTVSPropertyOp12
 70
     1
102
RTVSPropertyOp13
 70
     1
102
RTVSPropertyOp14
 70
     1
102
RTVSPropertyOp15
 70
     1
102
RTVSPropertyOp16
 70
     1
102
RTVSPropertyOp17
 70
     1
102
RTVSPropertyOp18
 70
     1
102
RTVSPropertyOp19
 70
     1
102
RTVSPropertyOp20
 70
     1
102
RTVSPropertyOp21
 70
     1
102
RTVSPropertyOp22
 70
     1
102
RTVSPropertyOp23
 70
     1
102
RTVSPropertyOp24
 70
     1
102
RTVSPropertyOp25
 70
     1
102
RTVSPropertyOp26
 70
     1
102
RTVSPropertyOp27
 70
     1
102
RTVSPropertyOp28
 70
     1
102
RTVSPropertyOp29
 70
     1
102
RTVSPropertyOp30
 70
     1
102
RTVSPropertyOp31
 70
     1
102
RTVSPropertyOp32
 70
     1
  0
XRECORD
  5
46
102
{ACAD_REACTORS
330
45
102
}
330
45
100
AcDbXrecord
280
     1
102
RTVSPropertyOp0
 70
     1
102
RTVSPropertyOp1
 70
     1
102
RTVSPropertyOp2
 70
     1
102
RTVSPropertyOp3
 70
     1
102
RTVSPropertyOp4
 70
     1
102
RTVSPropertyOp5
 70
     1
102
RTVSPropertyOp6
 70
     1
102
RTVSPropertyOp7
 70
     1
102
RTVSPropertyOp8
 70
     1
102
RTVSPropertyOp9
 70
     1
102
RTVSPropertyOp10
 70
     1
102
RTVSPropertyOp11
 70
     1
102
RTVSPropertyOp12
 70
     1
102
RTVSPropertyOp13
 70
     1
102
RTVSPropertyOp14
 70
     1
102
RTVSPropertyOp15
 70
     1
102
RTVSPropertyOp16
 70
     1
102
RTVSPropertyOp17
 70
     1
102
RTVSPropertyOp18
 70
     1
102
RTVSPropertyOp19
 70
     1
102
RTVSPropertyOp20
 70
     1
102
RTVSPropertyOp21
 70
     1
102
RTVSPropertyOp22
 70
     1
102
RTVSPropertyOp23
 70
     1
102
RTVSPropertyOp24
 70
     1
102
RTVSPropertyOp25
 70
     1
102
RTVSPropertyOp26
 70
     1
102
RTVSPropertyOp27
 70
     1
102
RTVSPropertyOp28
 70
     1
102
RTVSPropertyOp29
 70
     1
102
RTVSPropertyOp30
 70
     1
102
RTVSPropertyOp31
 70
     1
102
RTVSPropertyOp32
 70
     1
  0
XRECORD
  5
48
102
{ACAD_REACTORS
330
47
102
}
330
47
100
AcDbXrecord
280
     1
102
RTVSPropertyOp0
 70
     1
102
RTVSPropertyOp1
 70
     1
102
RTVSPropertyOp2
 70
     1
102
RTVSPropertyOp3
 70
     1
102
RTVSPropertyOp4
 70
     1
102
RTVSPropertyOp5
 70
     1
102
RTVSPropertyOp6
 70
     1
102
RTVSPropertyOp7
 70
     1
102
RTVSPropertyOp8
 70
     1
102
RTVSPropertyOp9
 70
     1
102
RTVSPropertyOp10
 70
     1
102
RTVSPropertyOp11
 70
     1
102
RTVSPropertyOp12
 70
     1
102
RTVSPropertyOp13
 70
     1
102
RTVSPropertyOp14
 70
     1
102
RTVSPropertyOp15
 70
     1
102
RTVSPropertyOp16
 70
     1
102
RTVSPropertyOp17
 70
     1
102
RTVSPropertyOp18
 70
     1
102
RTVSPropertyOp19
 70
     1
102
RTVSPropertyOp20
 70
     1
102
RTVSPropertyOp21
 70
     1
102
RTVSPropertyOp22
 70
     1
102
RTVSPropertyOp23
 70
     1
102
RTVSPropertyOp24
 70
     1
102
RTVSPropertyOp25
 70
     1
102
RTVSPropertyOp26
 70
     1
102
RTVSPropertyOp27
 70
     1
102
RTVSPropertyOp28
 70
     1
102
RTVSPropertyOp29
 70
     1
102
RTVSPropertyOp30
 70
     1
102
RTVSPropertyOp31
 70
     1
102
RTVSPropertyOp32
 70
     1
  0
XRECORD
  5
4A
102
{ACAD_REACTORS
330
49
102
}
330
49
100
AcDbXrecord
280
     1
102
RTVSPropertyOp0
 70
     1
102
RTVSPropertyOp1
 70
     1
102
RTVSPropertyOp2
 70
     1
102
RTVSPropertyOp3
 70
     1
102
RTVSPropertyOp4
 70
     1
102
RTVSPropertyOp5
 70
     1
102
RTVSPropertyOp6
 70
     1
102
RTVSPropertyOp7
 70
     1
102
RTVSPropertyOp8
 70
     1
102
RTVSPropertyOp9
 70
     1
102
RTVSPropertyOp10
 70
     1
102
RTVSPropertyOp11
 70
     1
102
RTVSPropertyOp12
 70
     1
102
RTVSPropertyOp13
 70
     1
102
RTVSPropertyOp14
 70
     1
102
RTVSPropertyOp15
 70
     1
102
RTVSPropertyOp16
 70
     1
102
RTVSPropertyOp17
 70
     1
102
RTVSPropertyOp18
 70
     1
102
RTVSPropertyOp19
 70
     1
102
RTVSPropertyOp20
 70
     1
102
RTVSPropertyOp21
 70
     1
102
RTVSPropertyOp22
 70
     1
102
RTVSPropertyOp23
 70
     1
102
RTVSPropertyOp24
 70
     1
102
RTVSPropertyOp25
 70
     1
102
RTVSPropertyOp26
 70
     1
102
RTVSPropertyOp27
 70
     1
102
RTVSPropertyOp28
 70
     1
102
RTVSPropertyOp29
 70
     1
102
RTVSPropertyOp30
 70
     1
102
RTVSPropertyOp31
 70
     1
102
RTVSPropertyOp32
 70
     1
  0
XRECORD
  5
5E
102
{ACAD_REACTORS
330
5D
102
}
330
5D
100
AcDbXrecord
280
     1
102
RTVSPropertyOp0
 70
     1
102
RTVSPropertyOp1
 70
     1
102
RTVSPropertyOp2
 70
     1
102
RTVSPropertyOp3
 70
     1
102
RTVSPropertyOp4
 70
     1
102
RTVSPropertyOp5
 70
     1
102
RTVSPropertyOp6
 70
     1
102
RTVSPropertyOp7
 70
     1
102
RTVSPropertyOp8
 70
     1
102
RTVSPropertyOp9
 70
     1
102
RTVSPropertyOp10
 70
     1
102
RTVSPropertyOp11
 70
     1
102
RTVSPropertyOp12
 70
     1
102
RTVSPropertyOp13
 70
     1
102
RTVSPropertyOp14
 70
     1
102
RTVSPropertyOp15
 70
     1
102
RTVSPropertyOp16
 70
     1
102
RTVSPropertyOp17
 70
     1
102
RTVSPropertyOp18
 70
     1
102
RTVSPropertyOp19
 70
     1
102
RTVSPropertyOp20
 70
     1
102
RTVSPropertyOp21
 70
     1
102
RTVSPropertyOp22
 70
     1
102
RTVSPropertyOp23
 70
     1
102
RTVSPropertyOp24
 70
     1
102
RTVSPropertyOp25
 70
     1
102
RTVSPropertyOp26
 70
     1
102
RTVSPropertyOp27
 70
     1
102
RTVSPropertyOp28
 70
     1
102
RTVSPropertyOp29
 70
     1
102
RTVSPropertyOp30
 70
     1
102
RTVSPropertyOp31
 70
     1
102
RTVSPropertyOp32
 70
     1
  0
XRECORD
  5
54
102
{ACAD_REACTORS
330
53
102
}
330
53
100
AcDbXrecord
280
     1
102
RTVSPropertyOp0
 70
     1
102
RTVSPropertyOp1
 70
     1
102
RTVSPropertyOp2
 70
     1
102
RTVSPropertyOp3
 70
     1
102
RTVSPropertyOp4
 70
     1
102
RTVSPropertyOp5
 70
     1
102
RTVSPropertyOp6
 70
     1
102
RTVSPropertyOp7
 70
     1
102
RTVSPropertyOp8
 70
     1
102
RTVSPropertyOp9
 70
     1
102
RTVSPropertyOp10
 70
     1
102
RTVSPropertyOp11
 70
     1
102
RTVSPropertyOp12
 70
     1
102
RTVSPropertyOp13
 70
     1
102
RTVSPropertyOp14
 70
     1
102
RTVSPropertyOp15
 70
     1
102
RTVSPropertyOp16
 70
     1
102
RTVSPropertyOp17
 70
     1
102
RTVSPropertyOp18
 70
     1
102
RTVSPropertyOp19
 70
     1
102
RTVSPropertyOp20
 70
     1
102
RTVSPropertyOp21
 70
     1
102
RTVSPropertyOp22
 70
     1
102
RTVSPropertyOp23
 70
     1
102
RTVSPropertyOp24
 70
     1
102
RTVSPropertyOp25
 70
     1
102
RTVSPropertyOp26
 70
     1
102
RTVSPropertyOp27
 70
     1
102
RTVSPropertyOp28
 70
     1
102
RTVSPropertyOp29
 70
     1
102
RTVSPropertyOp30
 70
     1
102
RTVSPropertyOp31
 70
     1
102
RTVSPropertyOp32
 70
     1
  0
XRECORD
  5
5C
102
{ACAD_REACTORS
330
5B
102
}
330
5B
100
AcDbXrecord
280
     1
102
RTVSPropertyOp0
 70
     1
102
RTVSPropertyOp1
 70
     1
102
RTVSPropertyOp2
 70
     1
102
RTVSPropertyOp3
 70
     1
102
RTVSPropertyOp4
 70
     1
102
RTVSPropertyOp5
 70
     1
102
RTVSPropertyOp6
 70
     1
102
RTVSPropertyOp7
 70
     1
102
RTVSPropertyOp8
 70
     1
102
RTVSPropertyOp9
 70
     1
102
RTVSPropertyOp10
 70
     1
102
RTVSPropertyOp11
 70
     1
102
RTVSPropertyOp12
 70
     1
102
RTVSPropertyOp13
 70
     1
102
RTVSPropertyOp14
 70
     1
102
RTVSPropertyOp15
 70
     1
102
RTVSPropertyOp16
 70
     1
102
RTVSPropertyOp17
 70
     1
102
RTVSPropertyOp18
 70
     1
102
RTVSPropertyOp19
 70
     1
102
RTVSPropertyOp20
 70
     1
102
RTVSPropertyOp21
 70
     1
102
RTVSPropertyOp22
 70
     1
102
RTVSPropertyOp23
 70
     1
102
RTVSPropertyOp24
 70
     1
102
RTVSPropertyOp25
 70
     1
102
RTVSPropertyOp26
 70
     1
102
RTVSPropertyOp27
 70
     1
102
RTVSPropertyOp28
 70
     1
102
RTVSPropertyOp29
 70
     1
102
RTVSPropertyOp30
 70
     1
102
RTVSPropertyOp31
 70
     1
102
RTVSPropertyOp32
 70
     1
  0
ENDSEC
  0
EOF
