<?xml version="1.0" encoding="utf-8"?>
<!-- Generator: Adobe Illustrator 16.0.0, SVG Export Plug-In . SVG Version: 6.00 Build 0)  -->
<!DOCTYPE svg PUBLIC "-//W3C//DTD SVG 1.1//EN" "http://www.w3.org/Graphics/SVG/1.1/DTD/svg11.dtd">
<svg version="1.1" id="Layer_1" xmlns="http://www.w3.org/2000/svg" xmlns:xlink="http://www.w3.org/1999/xlink" x="0px" y="0px"
	 width="226.77px" height="226.77px" viewBox="0 0 226.77 226.77" enable-background="new 0 0 226.77 226.77" xml:space="preserve">
<path fill-rule="evenodd" clip-rule="evenodd" d="M171.003,95.242c-0.909-0.644-3.665-0.275-4.776,0
	c-2.065,0.517-4.636,1.503-6.743,2.154c-1.313,0.249-2.619,0.498-3.932,0.747c-0.622,0.261-1.041,1.112-1.593,1.314
	c-1.367,0.492-3.483,0.034-4.871-0.19c-2.798-0.447-5.88-0.279-8.986-0.279h-4.12c-2.01,0.333-3.935,0.898-5.242,1.965
	c-0.75,0.612-1.467,1.403-2.53,1.686c-1.061,0.031-2.122,0.063-3.184,0.093c-1.125,0.125-2.281,0.192-3.444,0.23
	c-0.228-0.446-0.459-0.892-0.688-1.334c1.017-0.339,1.486-1.16,2.328-1.453c-0.144-0.543-0.429-1.028-1.046-1.574l0.348-1.159
	c-0.314-0.837-0.987-0.99-1.604-1.137c-0.239-0.71-0.048-1.291-0.142-1.983c-1.072,0.008-2.142,0.018-3.213,0.025l-3.909-0.18
	c-2.046,0.652-4.092,1.302-6.135,1.956c-2.375,0.495-4.739,0.993-7.109,1.488c-0.813,0.242-1.488,0.904-2.333,1.224
	c-0.684,0.172-1.368,0.35-2.049,0.523l-1.564,0.576c-1.844-0.917-4.412-0.932-6.896-1.04c-0.024-1.177-0.603-0.973-0.841-1.594
	c-0.206-0.539-0.214-2.634-0.282-2.996c-0.141-0.78,0.29-2.057,0.471-2.714c0.124-1.688,0.248-3.373,0.373-5.057
	c0.571-2.685,1.121-5.958,1.968-8.709c0.865-2.806,1.766-5.681,2.341-8.894c0.156-2.373,0.309-4.745,0.467-7.117
	c0.198-1.146,0.198-3.014-0.188-4.024c-0.6-1.572-3.977-2.512-5.522-3.185c-4.198-1.828-8.91-2.915-13.393-4.59
	c-2.065-0.771-3.701-2.235-6.551-2.152c0.124-2.185,0.248-4.373,0.371-6.556c0.155-1.216,0.315-2.435,0.467-3.652
	c-0.453-3.131-2.316-5.113-2.902-7.864c-0.414-1.955,0.944-5.527,1.03-7.304c0.009-0.178-0.098-0.932-0.656-0.284
	c-0.558,0.648-1.475,3.545-1.683,5.336c-0.062,0.034-0.127,0.063-0.188,0.096c-0.031-0.686-0.056-1.736-0.094-2.062
	c-0.038-0.326-0.272-0.26-0.469,0c-0.197,0.26-0.417,0.893-0.375,1.688h-0.093c-0.858-0.691-1.086-2.557-1.218-3.936
	c-0.014-0.294-0.195-0.33-0.47-0.092c-0.303,0.254-0.346,0.275-0.374,0.843h-0.183c-0.19-0.407-0.376-0.811-0.565-1.217
	c-1.303,0.142-0.789,1.482-0.375,2.247c1.3,2.38,2.904,3.558,2.904,7.021l-0.188,0.093c-0.788-0.354-1.2-0.77-2.248-0.935
	c-0.29-0.045-2.404-0.691-0.56,1.03c1.626,1.743,4.871,2.813,5.15,5.807c-0.372,1.404-0.749,2.807-1.126,4.211
	c-0.481,1.821-0.231,5.437-0.935,6.747c-0.174,0.324-0.607,0.069-0.655,0.654c-0.037,0.46,0.095,0.452,0.285,0.655
	c-0.254,0.127-0.501,0.252-0.749,0.377c-0.394,0.228-0.466,0.396-0.096,0.748c0.248,0.217,0.498,0.438,0.749,0.656v0.094
	c-0.188,0.124-0.375,0.247-0.563,0.373c-0.414,0.943,0.161,4.937-0.371,6.93c-0.701,2.61-1.081,5.912-1.596,9.082v13.579
	c0.375,1.09,0.75,2.184,1.123,3.276c0.763,3.407,0.58,6.447,1.503,9.55c0.647,2.185,1.941,4.187,2.994,5.994
	c0.248,0.687,0.499,1.373,0.749,2.06c1.973,3.848,5.276,6.991,8.555,9.731c-0.116,0.157-0.225,0.321-0.349,0.474
	c-0.034,0.476-0.219,0.964-0.645,1.416l-5.696,6.073c-0.106,0.307-0.275,0.649-0.585,1.087l-4.039,2.961
	c-2.165,1.684-4.306,3.975-5.542,6.143c-0.151,0.452-0.304,0.906-0.453,1.354c-0.765,1.301-2.409,2.586-2.29,3.862
	c0.388,0.304,0.521,0.327,0.903,0.699l-0.516,0.627l0.087,0.302c0.124,0.349,0.484,0.201,0.777,0.358
	c0.523,0.521,1.052,1.039,1.579,1.557c0.833-0.005,1.776-0.954,2.271-1.945c0.549,0.187,1.193,0.69,1.635,0.868
	c0.432-0.128,0.915-0.67,1.351-0.811c0.22-0.066,0.354-0.021,0.578,0.098c0.352,1.381,2.333,1.894,3.486,2.452
	c0.828-0.127,1.106,0.069,1.538-0.926c1.074,0.06,4.026-0.634,4.989-1.926c0.265-0.517,0.529-1.035,0.791-1.553
	c1.427-0.172,2.978,1.175,4.407,1.391c1.148,0.174,2.46-0.328,3.605,0.114c0.484-0.378,0.397-0.818,0.652-1.016l0.873-0.219
	c0.07-0.679,0.134-1.354,0.204-2.037c0.075-0.04,0.168-0.073,0.261-0.108c0.142,2.646,0.295,5.339,0.765,7.924
	c0.403,2.202,1.295,4.023,1.686,5.806c0.386,1.738,0.253,5.084,0,6.554c0.093,1.064,0.191,2.125,0.281,3.185
	c-0.437,2.027-0.645,4.68-1.029,7.118c-0.063,3.117-0.126,6.24-0.19,9.361c-0.155,2.153-0.312,4.308-0.466,6.461v3.555
	c-0.354,1.254-0.178,2.743-0.56,4.311c-0.375,1.063-0.752,2.125-1.123,3.184v3.274c-0.628,3.572-1.86,10.35,3.464,9.929
	c1.882-1.729,0.792-6.036,1.494-8.991c0.673-2.811,6.467-3.906,5.06-7.396c-0.773-1.287-2.118-1.671-2.527-3.464
	c-0.377-1.647,0.687-3.88,1.026-5.246c0.657-2.993,1.316-5.992,1.967-8.985c0.401-1.306,1.433-2.112,1.783-3.561
	c0.922-3.86-1.146-8.076-0.474-11.424c0.529-2.604,0.335-5.906,0.848-8.988c0.464-3.309,0.934-6.616,1.401-9.924l0.189-9.458
	c0.217-1.123,0.437-2.245,0.653-3.368c0.714-1.472,1.834-1.962,1.502-4.123c0.113-0.28,0.251-0.495,0.389-0.723
	c0.58-0.531,1.153-1.064,1.726-1.6c1.411-0.645,3.261-0.603,5.467-1.141c4.245-1.061,8.49-2.123,12.735-3.185l4.213-0.282
	c2.563-0.745,5.117-1.497,7.681-2.245c1.373-0.748,2.744-1.499,4.12-2.248c1.525-0.188,3.056-0.374,4.587-0.56
	c3.087-0.968,6.181-1.936,9.269-2.901c1.071-0.339,4.007-0.896,5.151-0.656c0.572,0.118,1.504,0.455,2.434,0.279
	c2.494-0.47,4.998-1.279,7.116-1.874c1.218-0.25,2.436-0.5,3.652-0.747c1.728-0.738,2.969-2.069,4.4-2.997
	C172.198,97.646,172.043,95.752,171.003,95.242z M70.063,62.565c-0.216,0.466-0.437,0.936-0.656,1.404
	c-0.445,0.299-0.788,0.18-1.126,0.561c-0.484,0.483,0.194,1.189,0,1.686c-0.312,0.375-0.624,0.752-0.937,1.124
	c-0.532,0.993-0.965,2.488-1.401,3.56c0.118,1.91,2.032,2.077,2.623,3.556c0.563,1.423-0.785,3.727-1.125,4.871
	c-0.125,0.031-0.25,0.064-0.373,0.092c-0.067-0.99-0.498-1.303-0.748-2.059c-0.656-1.927-1.252-4.284-1.688-5.993
	c0.155-1.343,0.313-2.686,0.47-4.027c0.377-2.375-0.442-5.28,0-7.491c0.25-1.264,0.825-2.409,0.934-3.932
	c0.509-0.228,0.957,0.07,1.59-0.093c1.092-0.439,2.187-0.873,3.278-1.312c5.071,0.029,8.944,2.427,12.172,4.494
	c1.123,0.721,2.873,1.532,3.186,2.999c0.3,1.419-0.752,3.118-1.033,4.307c-0.406,2.214-0.812,4.432-1.213,6.646
	c-1.406,2.374-2.811,4.744-4.213,7.119c-0.585-0.282-0.782-0.568-1.778-0.563l-0.099-0.187c0.158-0.524,0.853-1.162,1.312-1.405
	c-0.07-0.729-0.32-0.942-0.561-1.497l0.091-0.189c4.173-0.654,6.38-7.303,4.218-11.986c-0.535-1.148-1.78-2.027-2.811-2.715
	c-1.621-1.088-3.639-2.641-6.18-1.499c-0.563,0.501-1.123,1-1.683,1.499C71.563,61.878,70.812,62.221,70.063,62.565z"/>
</svg>
