<?xml version="1.0" encoding="utf-8"?>
<!-- Generator: Adobe Illustrator 16.0.0, SVG Export Plug-In . SVG Version: 6.00 Build 0)  -->
<!DOCTYPE svg PUBLIC "-//W3C//DTD SVG 1.1//EN" "http://www.w3.org/Graphics/SVG/1.1/DTD/svg11.dtd">
<svg version="1.1" id="Layer_1" xmlns="http://www.w3.org/2000/svg" xmlns:xlink="http://www.w3.org/1999/xlink" x="0px" y="0px"
	 width="226.77px" height="226.77px" viewBox="0 0 226.77 226.77" enable-background="new 0 0 226.77 226.77" xml:space="preserve">
<path fill-rule="evenodd" clip-rule="evenodd" d="M59.998,136.993c-0.069,0.52,0.003,0.913,0.052,1.312
	c0.031,0.247,0.15,0.593-0.236,0.651c-0.383,0.057-0.384-0.295-0.414-0.55c-0.05-0.459-0.099-0.918-0.105-1.376
	c-0.005-0.355-0.134-0.405-0.417-0.26c-0.614,0.318-1.242,0.61-1.84,0.959c-1.859,1.08-3.877,1.643-5.993,1.901
	c-0.588,0.074-1.124-0.11-1.581-0.492c-0.373-0.313-0.65-0.702-0.886-1.122c-1.12-2.016-0.971-2.899,0.536-4.639
	c2.42-2.792,5.371-4.707,8.947-5.644c0.703-0.187,1.417-0.327,2.13-0.472c0.526-0.105,0.928-0.347,1.265-0.796
	c0.984-1.304,2.325-1.803,3.935-1.574c0.321,0.047,0.628,0.05,0.948-0.008c0.594-0.104,1.189-0.174,1.798-0.071
	c0.816,0.139,1.574-0.08,2.319-0.418c4.657-2.102,9.374-4.069,14.085-6.04c2.377-0.995,4.806-1.847,7.356-2.282
	c1.364-0.231,2.743-0.332,4.127-0.395c1.756-0.083,3.51-0.085,5.265-0.077c0.672,0.004,1.346,0.023,2.018,0.06
	c0.313,0.018,0.517-0.058,0.57-0.395c0.169-1.05,0.778-1.598,1.842-1.735c0.771-0.099,1.5-0.43,2.278-0.528
	c0.223-0.029,0.36-0.15,0.375-0.378c0.034-0.495,0.342-0.714,0.785-0.796c0.457-0.084,0.682-0.321,0.6-0.815
	c-0.065-0.391,0.18-0.614,0.496-0.793c1.761-1.017,3.64-1.762,5.559-2.409c2.052-0.688,4.119-1.331,6.182-1.986
	c0.354-0.114,0.651-0.222,0.685-0.682c0.024-0.339,0.309-0.483,0.629-0.556c0.829-0.193,1.652-0.413,2.484-0.592
	c1.116-0.244,2.089-0.765,2.993-1.446c2.673-2.014,5.467-3.826,8.538-5.176c2.469-1.086,5.018-1.873,7.744-1.937
	c0.248-0.005,0.493-0.055,0.742-0.078c0.803-0.067,0.783-0.062,0.615-0.827c-0.469-2.15-1.504-3.987-2.931-5.651
	c-2.181-2.546-3.701-5.444-4.462-8.731c-0.288-1.24-1.126-1.917-2.376-2.127c-1.401-0.235-2.801-0.037-4.192,0.048
	c-3.232,0.205-6.448,0.104-9.66-0.297c-1.829-0.23-3.661-0.466-5.51-0.473c-6.248-0.025-12.422-0.703-18.525-2.052
	c-0.758-0.169-1.547-0.19-2.321-0.28c-0.226-0.026-0.423,0.046-0.591,0.19c-1.037,0.883-2.246,1.482-3.46,2.07
	c-1.693,0.822-3.237,1.836-4.422,3.337c-0.391,0.494-0.924,0.632-1.31,0.418c-0.399-0.22-0.585-0.796-0.432-1.371
	c0.161-0.606,0.546-1.06,1.014-1.458c0.592-0.509,1.185-1.018,1.763-1.538c0.432-0.392,0.458-0.801,0.121-1.272
	c-0.304-0.426-0.731-0.667-1.22-0.804c-0.72-0.199-1.396-0.572-2.099-0.739c-1.127-0.264-2.233-0.709-3.427-0.665
	c-1.245,0.045-2.486,0.059-3.649-0.512c-0.328-0.159-0.546-0.388-0.644-0.73c-0.121-0.431,0.032-0.687,0.479-0.738
	c0.197-0.021,0.282-0.096,0.34-0.262c0.047-0.141,0.139-0.279,0.281-0.299c0.332-0.044,0.444-0.259,0.573-0.535
	c0.226-0.487,0.628-0.31,0.952-0.121c0.464,0.274,0.931,0.5,1.475,0.564c0.29,0.033,0.398-0.032,0.342-0.336
	c-0.052-0.276-0.015-0.554,0.271-0.689c0.286-0.134,0.515,0.032,0.712,0.225c0.405,0.391,0.885,0.662,1.429,0.786
	c1.238,0.288,2.457,0.639,3.769,0.485c1.015-0.119,2.051-0.04,3.079-0.081c3.313-0.123,6.631-0.161,9.946-0.255
	c2.042-0.059,4.061-0.336,6.075-0.681c3.086-0.532,6.177-0.642,9.228,0.243c2.034,0.591,4.066,0.447,6.111,0.088
	c1.759-0.309,3.53-0.381,5.298-0.103c1.863,0.292,3.525-0.368,5.208-0.993c2.324-0.862,4.694-1.387,7.183-0.802
	c0.344,0.081,0.693,0.17,1.01,0.322c0.37,0.176,0.551,0.044,0.717-0.274c0.56-1.066,0.313-2.094-0.234-3.044
	c-0.744-1.29-1.918-2.22-2.938-3.279c-0.159-0.163-0.308-0.112-0.478-0.015c-0.463,0.26-0.979,0.27-1.445,0.09
	c-0.743-0.292-1.521-0.483-2.257-0.788c-0.982-0.411-1.213-1.042-0.743-2.006c0.108-0.225,0.145-0.361-0.08-0.537
	c-0.725-0.573-1.426-1.172-1.979-1.922c-0.13-0.176-0.225-0.251-0.46-0.069c-0.356,0.273-0.664,0.112-0.767-0.345
	c-0.058-0.258-0.093-0.521-0.162-0.924c-0.157,0.253-0.262,0.403-0.346,0.562c-0.169,0.307-0.381,0.475-0.725,0.244
	c-0.313-0.212-0.663-0.414-0.399-0.888c0.06-0.106,0.125-0.213,0.189-0.318c0.426-0.706,0.424-0.702-0.268-1.202
	c-0.249-0.182-0.641-0.326-0.502-0.718c0.143-0.402,0.107-0.968,0.726-1.054c0.308-0.042,0.213-0.215,0.122-0.379
	c-0.199-0.357-0.414-0.704-0.605-1.065c-0.362-0.681,0.125-1.545,0.886-1.559c0.285-0.003,0.184-0.205,0.207-0.335
	c0.09-0.489-0.02-1.124,0.619-1.283c0.605-0.153,1.033-0.391,1.311-0.992c0.136-0.293,0.605-0.211,0.887-0.104
	c0.311,0.117,0.498,0.015,0.722-0.143c1.137-0.801,2.4-1.289,3.777-1.486c2.345-0.333,4.384,0.391,6.182,1.853
	c1.328,1.082,2.32,2.438,3.062,3.973c0.157,0.323,0.284,0.453,0.676,0.287c0.665-0.282,1.196-0.043,1.367,0.646
	c0.227,0.927,0.452,1.859,0.507,2.817c0.015,0.25,0.029,0.547-0.158,0.71c-0.411,0.355-0.286,0.731-0.165,1.151
	c0.118,0.407,0.203,0.827,0.199,1.255c0,0.182,0.048,0.352,0.142,0.506c0.755,1.241,1.509,2.482,2.262,3.715
	c0.19-0.003,0.194-0.156,0.239-0.259c0.949-2.141,2.178-4.102,3.74-5.849c0.205-0.229,0.364-0.49,0.405-0.796
	c0.333-2.437,1.164-4.75,1.767-7.12c0.215-0.847,0.382-1.69,0.266-2.573c-0.279-2.122,0.403-4.057,1.13-5.999
	c1.026-2.742,2.103-5.467,2.894-8.291c0.357-1.268,0.496-2.572,0.396-3.898c-0.045-0.591-0.321-1.046-0.711-1.444
	c-1.707-1.736-3.059-3.724-4.218-5.852c-0.051-0.095-0.109-0.183-0.156-0.278c-0.146-0.289-0.33-0.604,0.007-0.862
	c0.344-0.265,0.677-0.112,0.954,0.148c0.535,0.502,0.854,1.176,1.352,1.709c0.119,0.128,0.188,0.304,0.426,0.386
	c-0.215-0.639-0.497-1.201-0.816-1.746c-0.648-1.108-1.124-2.294-1.536-3.503c-0.264-0.77-0.175-1.172,0.22-1.313
	c0.447-0.158,0.902,0.12,1.219,0.79c0.354,0.753,0.677,1.522,1.02,2.281c0.064,0.14,0.165,0.261,0.281,0.442
	c0.021-0.111,0.051-0.164,0.037-0.201c-0.555-1.551-0.365-3.195-0.576-4.79c-0.034-0.259,0.056-0.496,0.309-0.627
	c0.269-0.141,0.519-0.08,0.742,0.1c0.258,0.208,0.426,0.478,0.474,0.808c0.104,0.737,0.216,1.473,0.299,2.213
	c0.051,0.447,0.188,0.849,0.452,1.224c-0.114-0.791-0.082-1.579-0.055-2.366c0.02-0.585,0.063-1.169,0.109-1.751
	c0.026-0.319,0.146-0.604,0.499-0.676c0.346-0.07,0.566,0.143,0.739,0.409c0.157,0.243,0.245,0.511,0.251,0.802
	c0.005,0.267,0.037,0.536,0.012,0.799c-0.216,2.137,1.227,3.995,2.616,5.624c0.039-0.453,0.042-0.85-0.031-1.249
	c-0.101-0.541-0.211-1.082-0.163-1.637c0.039-0.438,0.175-0.83,0.67-0.896c0.484-0.065,0.612,0.334,0.748,0.686
	c0.094,0.247,0.123,0.535,0.264,0.75c0.982,1.514,0.898,3.149,0.662,4.834c-0.151,1.08-0.599,2.04-1.039,3.003
	c-0.745,1.625-0.835,3.359-0.942,5.094c-0.212,3.417-0.416,6.833-0.611,10.25c-0.035,0.603-0.045,1.211,0.004,1.811
	c0.147,1.762-0.011,3.474-0.72,5.108c-0.825,1.9-1.257,3.918-1.757,5.913c-1.089,4.337-2.443,8.598-3.712,12.882
	c-0.109,0.373-0.075,0.68,0.103,1.017c0.295,0.563,0.642,1.125,0.806,1.731c0.386,1.429,1.52,2.273,2.416,3.302
	c1.144,1.315,2.261,2.641,2.982,4.25c0.789,1.761,0.99,3.616,0.845,5.515c-0.093,1.183-0.293,2.361-0.356,3.545
	c-0.07,1.277,0.097,2.559,0.322,3.809c0.541,2.983,0.221,5.896-0.472,8.805c-0.208,0.878-0.306,1.782-0.461,2.673
	c-0.06,0.348-0.007,0.659,0.195,0.96c1.2,1.806,1.947,3.81,2.614,5.86c0.665,2.038,1.447,4.039,2.105,6.081
	c0.769,2.384,1.65,4.72,2.707,6.987c1.119,2.402,2.39,4.715,4.072,6.78c0.614,0.752,0.559,1.032-0.271,1.548
	c-1.054,0.658-1.083,0.357-0.545,1.699c0.851,2.125,1.689,4.253,2.449,6.413c0.243,0.691,0.16,1.278-0.363,1.806
	c-0.382,0.388-0.604,0.855-0.723,1.396c-0.123,0.57-0.318,1.127-0.516,1.677c-0.295,0.82-0.455,0.874-1.191,0.443
	c-0.64-0.373-1.272-0.756-1.949-1.161c-0.023,0.944,0.036,1.86-0.092,2.771c-0.137,0.984-0.292,1.966-0.516,2.933
	c-0.146,0.636-0.477,0.776-1.045,0.444c-1.011-0.591-2.012-1.201-3.091-1.664c-0.122-0.053-0.252-0.188-0.387-0.072
	c-0.109,0.099-0.014,0.236,0.012,0.352c0.646,2.925,0.657,5.876,0.424,8.843c-0.02,0.247-0.031,0.52-0.301,0.639
	c-0.287,0.127-0.462-0.114-0.647-0.264c-0.523-0.421-0.967-0.935-1.53-1.313c-0.162,0.116-0.078,0.271-0.077,0.397
	c0.019,1.845,0.107,3.691-0.289,5.513c-0.055,0.259-0.059,0.561-0.358,0.664c-0.317,0.109-0.482-0.164-0.668-0.342
	c-1.223-1.182-2.456-2.354-3.653-3.563c-0.354-0.358-0.612-0.376-0.977-0.056c-0.252,0.22-0.548,0.394-0.834,0.571
	c-0.29,0.184-0.532,0.114-0.726-0.173c-0.546-0.809-1.068-1.632-1.472-2.523c-0.17-0.378-0.301-0.386-0.498-0.036
	c-0.131,0.232-0.288,0.449-0.413,0.683c-0.213,0.399-0.482,0.392-0.755,0.096c-0.264-0.286-0.486-0.607-0.734-0.908
	c-0.107-0.132-0.145-0.33-0.417-0.376c-0.078,0.991-0.067,1.996-0.328,2.943c-0.403,1.463-0.416,2.977-0.707,4.45
	c-0.162,0.827-0.456,1.607-0.768,2.375c-0.362,0.885-0.569,1.787-0.568,2.739c0.004,2.664,0.116,5.326,0,7.984
	c-0.132,3.047-0.326,6.094-0.484,9.139c-0.095,1.84-0.174,3.684-0.252,5.526c-0.047,1.136-0.07,2.269-0.12,3.404
	c-0.02,0.446,0.074,0.838,0.396,1.168c0.136,0.138,0.242,0.309,0.348,0.47c0.543,0.821,0.536,0.898-0.193,1.583
	c-0.158,0.148-0.186,0.324-0.234,0.517c-0.284,1.122-0.023,2.219,0.146,3.319c0.282,1.841,0.561,3.682,0.843,5.521
	c0.019,0.121,0.063,0.241,0.079,0.364c0.106,0.811,0.403,1.391,1.382,1.33c0.383-0.023,0.761,0.153,1.118,0.324
	c0.199,0.098,0.404,0.21,0.299,0.479c-0.107,0.274-0.332,0.205-0.54,0.123c-0.414-0.166-0.834-0.304-1.282-0.328
	c-0.118-0.008-0.276-0.045-0.313,0.121c-0.039,0.178,0.101,0.243,0.25,0.274c0.558,0.114,1.104,0.267,1.623,0.508
	c0.324,0.149,0.623,0.336,0.859,0.611c0.4,0.468,0.433,0.919,0.097,1.35c-0.363,0.465-0.89,0.586-1.422,0.302
	c-0.203-0.106-0.384-0.253-0.574-0.382c-0.189-0.127-0.295-0.355-0.598-0.445c-0.076,0.781,0.069,1.525,0.144,2.267
	c0.103,1.056,0.089,2.091-0.188,3.116c-0.173,0.65-0.461,0.885-1.133,0.896c-0.55,0.01-1.1-0.012-1.649,0.005
	c-0.847,0.023-1.405-0.374-1.769-1.119c-0.985-2.033-1.871-4.109-2.374-6.313c-0.69-3.025-2.414-5.332-4.8-7.2
	c-1.714-1.342-1.843-2.968-0.299-4.514c0.376-0.377,0.771-0.734,1.175-1.081c0.872-0.751,1.306-1.688,1.267-2.84
	c-0.005-0.123-0.024-0.258,0.012-0.37c0.484-1.5,0.054-2.984-0.093-4.467c-0.374-3.781-1.298-7.475-1.948-11.214
	c-0.694-3.999-0.602-7.981,0.18-11.957c0.239-1.218,0.508-2.429,0.722-3.653c0.162-0.929,0.074-1.877,0.069-2.813
	c-0.007-1.347,0.136-2.688,0.018-4.04c-0.163-1.873-0.421-3.732-0.724-5.588c-0.063-0.381-0.236-0.4-0.551-0.291
	c-0.502,0.175-1.013,0.33-1.526,0.464c-0.653,0.176-0.86,0.053-1.029-0.617c-0.188-0.74-0.375-1.48-0.518-2.23
	c-0.077-0.402-0.211-0.535-0.64-0.42c-0.823,0.219-0.942,0.136-1.15-0.69c-0.243-0.982-0.475-1.967-0.685-2.955
	c-0.073-0.342-0.168-0.386-0.433-0.158c-0.539,0.461-1.121,0.869-1.722,1.249c-0.524,0.331-0.698,0.292-1.021-0.253
	c-0.471-0.792-0.943-1.584-1.388-2.394c-0.173-0.312-0.317-0.341-0.618-0.15c-0.463,0.293-0.972,0.511-1.447,0.785
	c-0.479,0.276-0.779,0.123-1.048-0.321c-0.854-1.419-1.565-2.905-2.03-4.497c-0.133-0.453-0.305-0.557-0.752-0.391
	c-0.646,0.243-1.326,0.394-1.979,0.622c-0.512,0.181-0.794,0.012-1.001-0.463c-0.903-2.065-1.912-4.078-3.056-6.022
	c-1.033-1.759-2.329-3.302-3.748-4.75c-0.28-0.285-0.578-0.273-0.927-0.211c-2.953,0.522-5.917,0.995-8.911,1.164
	c-2.122,0.121-4.258,0.085-6.385,0.018c-3.119-0.099-6.195,0.016-9.199,0.999c-2.447,0.8-5.013,0.907-7.552,1.186
	c-4.735,0.518-9.413,1.338-13.901,3.014c-0.099,0.036-0.212,0.06-0.294,0.121c-1.877,1.415-4.254,1.805-6.227,3.035
	c-0.616,0.385-1.228,0.779-1.86,1.136c-0.229,0.129-0.226,0.225-0.021,0.377c0.385,0.286,0.736,0.618,0.972,1.046
	c0.197,0.356,0.303,0.738,0.049,1.104c-0.24,0.345-0.627,0.394-1.005,0.353C60.846,138.292,60.347,137.798,59.998,136.993z
	 M154.646,208.109c0.433,0.642,0.822,1.129,1.369,1.469c0.247,0.152,0.512,0.194,0.702-0.079c0.181-0.261-0.036-0.434-0.203-0.577
	C156.01,208.486,155.391,208.319,154.646,208.109z M61.761,137.714c0.296-0.008,0.456-0.116,0.286-0.425
	c-0.282-0.515-0.717-0.873-1.237-1.129c-0.117-0.058-0.239-0.105-0.277,0.095C60.428,136.832,61.18,137.729,61.761,137.714z"/>
</svg>
