  0
SECTION
  2
HEADER
  9
$ACADVER
  1
AC1021
  9
$ACADMAINTVER
 70
    25
  9
$DWGCODEPAGE
  3
ANSI_1252
  9
$INSBASE
 10
0.0
 20
0.0
 30
0.0
  9
$EXTMIN
 10
1.000000000000000E+20
 20
1.000000000000000E+20
 30
1.000000000000000E+20
  9
$EXTMAX
 10
-1.000000000000000E+20
 20
-1.000000000000000E+20
 30
-1.000000000000000E+20
  9
$LIMMIN
 10
0.0
 20
0.0
  9
$LIMMAX
 10
12.0
 20
9.0
  9
$ORTHOMODE
 70
     0
  9
$REGENMODE
 70
     1
  9
$FILLMODE
 70
     1
  9
$QTEXTMODE
 70
     0
  9
$MIRRTEXT
 70
     1
  9
$LTSCALE
 40
1.0
  9
$ATTMODE
 70
     1
  9
$TEXTSIZE
 40
0.2
  9
$TRACEWID
 40
0.05
  9
$TEXTSTYLE
  7
Standard
  9
$CLAYER
  8
0
  9
$CELTYPE
  6
ByLayer
  9
$CECOLOR
 62
   256
  9
$CELTSCALE
 40
1.0
  9
$DISPSILH
 70
     0
  9
$DIMSCALE
 40
1.0
  9
$DIMASZ
 40
0.18
  9
$DIMEXO
 40
0.0625
  9
$DIMDLI
 40
0.38
  9
$DIMRND
 40
0.0
  9
$DIMDLE
 40
0.0
  9
$DIMEXE
 40
0.18
  9
$DIMTP
 40
0.0
  9
$DIMTM
 40
0.0
  9
$DIMTXT
 40
0.18
  9
$DIMCEN
 40
0.09
  9
$DIMTSZ
 40
0.0
  9
$DIMTOL
 70
     0
  9
$DIMLIM
 70
     0
  9
$DIMTIH
 70
     1
  9
$DIMTOH
 70
     1
  9
$DIMSE1
 70
     0
  9
$DIMSE2
 70
     0
  9
$DIMTAD
 70
     0
  9
$DIMZIN
 70
     0
  9
$DIMBLK
  1

  9
$DIMASO
 70
     1
  9
$DIMSHO
 70
     1
  9
$DIMPOST
  1

  9
$DIMAPOST
  1

  9
$DIMALT
 70
     0
  9
$DIMALTD
 70
     2
  9
$DIMALTF
 40
25.4
  9
$DIMLFAC
 40
1.0
  9
$DIMTOFL
 70
     0
  9
$DIMTVP
 40
0.0
  9
$DIMTIX
 70
     0
  9
$DIMSOXD
 70
     0
  9
$DIMSAH
 70
     0
  9
$DIMBLK1
  1

  9
$DIMBLK2
  1

  9
$DIMSTYLE
  2
Standard
  9
$DIMCLRD
 70
     0
  9
$DIMCLRE
 70
     0
  9
$DIMCLRT
 70
     0
  9
$DIMTFAC
 40
1.0
  9
$DIMGAP
 40
0.09
  9
$DIMJUST
 70
     0
  9
$DIMSD1
 70
     0
  9
$DIMSD2
 70
     0
  9
$DIMTOLJ
 70
     1
  9
$DIMTZIN
 70
     0
  9
$DIMALTZ
 70
     0
  9
$DIMALTTZ
 70
     0
  9
$DIMUPT
 70
     0
  9
$DIMDEC
 70
     4
  9
$DIMTDEC
 70
     4
  9
$DIMALTU
 70
     2
  9
$DIMALTTD
 70
     2
  9
$DIMTXSTY
  7
Standard
  9
$DIMAUNIT
 70
     0
  9
$DIMADEC
 70
     0
  9
$DIMALTRND
 40
0.0
  9
$DIMAZIN
 70
     0
  9
$DIMDSEP
 70
    46
  9
$DIMATFIT
 70
     3
  9
$DIMFRAC
 70
     0
  9
$DIMLDRBLK
  1

  9
$DIMLUNIT
 70
     2
  9
$DIMLWD
 70
    -2
  9
$DIMLWE
 70
    -2
  9
$DIMTMOVE
 70
     0
  9
$DIMFXL
 40
1.0
  9
$DIMFXLON
 70
     0
  9
$DIMJOGANG
 40
0.7853981633974483
  9
$DIMTFILL
 70
     0
  9
$DIMTFILLCLR
 70
     0
  9
$DIMARCSYM
 70
     0
  9
$DIMLTYPE
  6

  9
$DIMLTEX1
  6

  9
$DIMLTEX2
  6

  9
$LUNITS
 70
     2
  9
$LUPREC
 70
     4
  9
$SKETCHINC
 40
0.1
  9
$FILLETRAD
 40
0.5
  9
$AUNITS
 70
     0
  9
$AUPREC
 70
     0
  9
$MENU
  1
.
  9
$ELEVATION
 40
0.0
  9
$PELEVATION
 40
0.0
  9
$THICKNESS
 40
0.0
  9
$LIMCHECK
 70
     0
  9
$CHAMFERA
 40
0.5
  9
$CHAMFERB
 40
0.5
  9
$CHAMFERC
 40
1.0
  9
$CHAMFERD
 40
0.0
  9
$SKPOLY
 70
     0
  9
$TDCREATE
 40
2458551.626663345
  9
$TDUCREATE
 40
2458551.334996678
  9
$TDUPDATE
 40
2458551.626663345
  9
$TDUUPDATE
 40
2458551.334996678
  9
$TDINDWG
 40
0.0000000116
  9
$TDUSRTIMER
 40
0.0000000116
  9
$USRTIMER
 70
     1
  9
$ANGBASE
 50
0.0
  9
$ANGDIR
 70
     0
  9
$PDMODE
 70
     0
  9
$PDSIZE
 40
0.0
  9
$PLINEWID
 40
0.0
  9
$SPLFRAME
 70
     0
  9
$SPLINETYPE
 70
     6
  9
$SPLINESEGS
 70
     8
  9
$HANDSEED
  5
6A
  9
$SURFTAB1
 70
     6
  9
$SURFTAB2
 70
     6
  9
$SURFTYPE
 70
     6
  9
$SURFU
 70
     6
  9
$SURFV
 70
     6
  9
$UCSBASE
  2

  9
$UCSNAME
  2

  9
$UCSORG
 10
0.0
 20
0.0
 30
0.0
  9
$UCSXDIR
 10
1.0
 20
0.0
 30
0.0
  9
$UCSYDIR
 10
0.0
 20
1.0
 30
0.0
  9
$UCSORTHOREF
  2

  9
$UCSORTHOVIEW
 70
     0
  9
$UCSORGTOP
 10
0.0
 20
0.0
 30
0.0
  9
$UCSORGBOTTOM
 10
0.0
 20
0.0
 30
0.0
  9
$UCSORGLEFT
 10
0.0
 20
0.0
 30
0.0
  9
$UCSORGRIGHT
 10
0.0
 20
0.0
 30
0.0
  9
$UCSORGFRONT
 10
0.0
 20
0.0
 30
0.0
  9
$UCSORGBACK
 10
0.0
 20
0.0
 30
0.0
  9
$PUCSBASE
  2

  9
$PUCSNAME
  2

  9
$PUCSORG
 10
0.0
 20
0.0
 30
0.0
  9
$PUCSXDIR
 10
1.0
 20
0.0
 30
0.0
  9
$PUCSYDIR
 10
0.0
 20
1.0
 30
0.0
  9
$PUCSORTHOREF
  2

  9
$PUCSORTHOVIEW
 70
     0
  9
$PUCSORGTOP
 10
0.0
 20
0.0
 30
0.0
  9
$PUCSORGBOTTOM
 10
0.0
 20
0.0
 30
0.0
  9
$PUCSORGLEFT
 10
0.0
 20
0.0
 30
0.0
  9
$PUCSORGRIGHT
 10
0.0
 20
0.0
 30
0.0
  9
$PUCSORGFRONT
 10
0.0
 20
0.0
 30
0.0
  9
$PUCSORGBACK
 10
0.0
 20
0.0
 30
0.0
  9
$USERI1
 70
     0
  9
$USERI2
 70
     0
  9
$USERI3
 70
     0
  9
$USERI4
 70
     0
  9
$USERI5
 70
     0
  9
$USERR1
 40
0.0
  9
$USERR2
 40
0.0
  9
$USERR3
 40
0.0
  9
$USERR4
 40
0.0
  9
$USERR5
 40
0.0
  9
$WORLDVIEW
 70
     1
  9
$SHADEDGE
 70
     3
  9
$SHADEDIF
 70
    70
  9
$TILEMODE
 70
     1
  9
$MAXACTVP
 70
    64
  9
$PINSBASE
 10
0.0
 20
0.0
 30
0.0
  9
$PLIMCHECK
 70
     0
  9
$PEXTMIN
 10
1.000000000000000E+20
 20
1.000000000000000E+20
 30
1.000000000000000E+20
  9
$PEXTMAX
 10
-1.000000000000000E+20
 20
-1.000000000000000E+20
 30
-1.000000000000000E+20
  9
$PLIMMIN
 10
0.0
 20
0.0
  9
$PLIMMAX
 10
12.0
 20
9.0
  9
$UNITMODE
 70
     0
  9
$VISRETAIN
 70
     1
  9
$PLINEGEN
 70
     0
  9
$PSLTSCALE
 70
     1
  9
$TREEDEPTH
 70
  3020
  9
$CMLSTYLE
  2
Standard
  9
$CMLJUST
 70
     0
  9
$CMLSCALE
 40
1.0
  9
$PROXYGRAPHICS
 70
     1
  9
$MEASUREMENT
 70
     0
  9
$CELWEIGHT
370
    -1
  9
$ENDCAPS
280
     0
  9
$JOINSTYLE
280
     0
  9
$LWDISPLAY
290
     1
  9
$INSUNITS
 70
     1
  9
$HYPERLINKBASE
  1

  9
$STYLESHEET
  1

  9
$XEDIT
290
     1
  9
$CEPSNTYPE
380
     0
  9
$PSTYLEMODE
290
     1
  9
$FINGERPRINTGUID
  2
{32A74EEF-5F41-48A1-B36D-A3C13D6DF25E}
  9
$VERSIONGUID
  2
{FAEB1C32-E019-11D5-929B-00C0DF256EC4}
  9
$EXTNAMES
290
     1
  9
$PSVPSCALE
 40
0.0
  9
$OLESTARTUP
290
     0
  9
$SORTENTS
280
   127
  9
$INDEXCTL
280
     0
  9
$HIDETEXT
280
     1
  9
$XCLIPFRAME
290
     0
  9
$HALOGAP
280
     0
  9
$OBSCOLOR
 70
   257
  9
$OBSLTYPE
280
     0
  9
$INTERSECTIONDISPLAY
280
     0
  9
$INTERSECTIONCOLOR
 70
   257
  9
$DIMASSOC
280
     2
  9
$PROJECTNAME
  1

  9
$CAMERADISPLAY
290
     0
  9
$LENSLENGTH
 40
50.0
  9
$CAMERAHEIGHT
 40
0.0
  9
$STEPSPERSEC
 40
2.0
  9
$STEPSIZE
 40
6.0
  9
$3DDWFPREC
 40
2.0
  9
$PSOLWIDTH
 40
0.25
  9
$PSOLHEIGHT
 40
4.0
  9
$LOFTANG1
 40
1.570796326794897
  9
$LOFTANG2
 40
1.570796326794897
  9
$LOFTMAG1
 40
0.0
  9
$LOFTMAG2
 40
0.0
  9
$LOFTPARAM
 70
     7
  9
$LOFTNORMALS
280
     1
  9
$LATITUDE
 40
37.795
  9
$LONGITUDE
 40
-122.394
  9
$NORTHDIRECTION
 40
0.0
  9
$TIMEZONE
 70
 -8000
  9
$LIGHTGLYPHDISPLAY
280
     1
  9
$TILEMODELIGHTSYNCH
280
     1
  9
$CMATERIAL
347
3C
  9
$SOLIDHIST
280
     1
  9
$SHOWHIST
280
     1
  9
$DWFFRAME
280
     2
  9
$DGNFRAME
280
     2
  9
$REALWORLDSCALE
290
     1
  9
$INTERFERECOLOR
 62
   256
  9
$CSHADOW
280
     0
  9
$SHADOWPLANELOCATION
 40
0.0
  0
ENDSEC
  0
SECTION
  2
CLASSES
  0
CLASS
  1
ACDBDICTIONARYWDFLT
  2
AcDbDictionaryWithDefault
  3
ObjectDBX Classes
 90
        0
 91
        4
280
     0
281
     0
  0
CLASS
  1
VISUALSTYLE
  2
AcDbVisualStyle
  3
ObjectDBX Classes
 90
     4095
 91
        4
280
     0
281
     0
  0
CLASS
  1
MATERIAL
  2
AcDbMaterial
  3
ObjectDBX Classes
 90
     1153
 91
        4
280
     0
281
     0
  0
CLASS
  1
SUN
  2
AcDbSun
  3
SCENEOE
 90
     1024
 91
        4
280
     0
281
     0
  0
ENDSEC
  0
SECTION
  2
TABLES
  0
TABLE
  2
VPORT
  5
8
330
0
100
AcDbSymbolTable
 70
     1
  0
VPORT
  5
29
330
8
100
AcDbSymbolTableRecord
100
AcDbViewportTableRecord
  2
*Active
 70
     0
 10
0.0
 20
0.0
 11
1.0
 21
1.0
 12
0.0
 22
0.0
 13
0.0
 23
0.0
 14
0.5
 24
0.5
 15
0.5
 25
0.5
 16
0.0
 26
0.0
 36
1.0
 17
39.99961911841359
 27
-39.99962012888904
 37
0.0
 40
79.99924025777808
 41
0.9999999747378738
 42
50.0
 43
0.0
 44
0.0
 50
0.0
 51
0.0
 71
     0
 72
   100
 73
     1
 74
     3
 75
     0
 76
     0
 77
     0
 78
     0
281
     0
 65
     1
110
0.0
120
0.0
130
0.0
111
1.0
121
0.0
131
0.0
112
0.0
122
1.0
132
0.0
 79
     0
146
0.0
 60
     3
 61
     5
292
     1
282
     1
141
0.0
142
0.0
 63
   250
361
3F
  0
ENDTAB
  0
TABLE
  2
LTYPE
  5
5
330
0
100
AcDbSymbolTable
 70
     1
  0
LTYPE
  5
14
330
5
100
AcDbSymbolTableRecord
100
AcDbLinetypeTableRecord
  2
ByBlock
 70
     0
  3

 72
    65
 73
     0
 40
0.0
  0
LTYPE
  5
15
330
5
100
AcDbSymbolTableRecord
100
AcDbLinetypeTableRecord
  2
ByLayer
 70
     0
  3

 72
    65
 73
     0
 40
0.0
  0
LTYPE
  5
16
330
5
100
AcDbSymbolTableRecord
100
AcDbLinetypeTableRecord
  2
Continuous
 70
     0
  3
Solid line
 72
    65
 73
     0
 40
0.0
  0
ENDTAB
  0
TABLE
  2
LAYER
  5
2
330
0
100
AcDbSymbolTable
 70
     2
  0
LAYER
  5
10
330
2
100
AcDbSymbolTableRecord
100
AcDbLayerTableRecord
  2
0
 70
     0
 62
     7
  6
Continuous
370
    -3
390
F
347
3E
  0
LAYER
  5
40
330
2
100
AcDbSymbolTableRecord
100
AcDbLayerTableRecord
  2
Layer 1
 70
     0
 62
     7
  6
Continuous
370
    -3
390
F
347
3E
  0
ENDTAB
  0
TABLE
  2
STYLE
  5
3
330
0
100
AcDbSymbolTable
 70
     1
  0
STYLE
  5
11
330
3
100
AcDbSymbolTableRecord
100
AcDbTextStyleTableRecord
  2
Standard
 70
     0
 40
0.0
 41
1.0
 50
0.0
 71
     0
 42
0.2
  3
txt
  4

  0
ENDTAB
  0
TABLE
  2
VIEW
  5
6
330
0
100
AcDbSymbolTable
 70
     0
  0
ENDTAB
  0
TABLE
  2
UCS
  5
7
330
0
100
AcDbSymbolTable
 70
     0
  0
ENDTAB
  0
TABLE
  2
APPID
  5
9
330
0
100
AcDbSymbolTable
 70
     1
  0
APPID
  5
12
330
9
100
AcDbSymbolTableRecord
100
AcDbRegAppTableRecord
  2
ACAD
 70
     0
  0
ENDTAB
  0
TABLE
  2
DIMSTYLE
  5
A
330
0
100
AcDbSymbolTable
 70
     1
100
AcDbDimStyleTable
  0
DIMSTYLE
105
27
330
A
100
AcDbSymbolTableRecord
100
AcDbDimStyleTableRecord
  2
Standard
 70
     0
178
     0
340
11
  0
ENDTAB
  0
TABLE
  2
BLOCK_RECORD
  5
1
330
0
100
AcDbSymbolTable
 70
     2
  0
BLOCK_RECORD
  5
1F
330
1
100
AcDbSymbolTableRecord
100
AcDbBlockTableRecord
  2
*Model_Space
340
22
 70
     0
280
     1
281
     0
  0
BLOCK_RECORD
  5
1B
330
1
100
AcDbSymbolTableRecord
100
AcDbBlockTableRecord
  2
*Paper_Space
340
1E
 70
     0
280
     1
281
     0
  0
BLOCK_RECORD
  5
23
330
1
100
AcDbSymbolTableRecord
100
AcDbBlockTableRecord
  2
*Paper_Space0
340
26
 70
     0
280
     1
281
     0
  0
BLOCK_RECORD
  5
41
330
1
100
AcDbSymbolTableRecord
100
AcDbBlockTableRecord
  2
block 2
340
0
102
{BLKREFS
331
42
102
}
 70
     0
280
     1
281
     0
  0
ENDTAB
  0
ENDSEC
  0
SECTION
  2
BLOCKS
  0
BLOCK
  5
20
330
1F
100
AcDbEntity
  8
0
100
AcDbBlockBegin
  2
*Model_Space
 70
     0
 10
0.0
 20
0.0
 30
0.0
  3
*Model_Space
  1

  0
ENDBLK
  5
21
330
1F
100
AcDbEntity
  8
0
100
AcDbBlockEnd
  0
BLOCK
  5
1C
330
1B
100
AcDbEntity
 67
     1
  8
0
100
AcDbBlockBegin
  2
*Paper_Space
 70
     0
 10
0.0
 20
0.0
 30
0.0
  3
*Paper_Space
  1

  0
ENDBLK
  5
1D
330
1B
100
AcDbEntity
 67
     1
  8
0
100
AcDbBlockEnd
  0
BLOCK
  5
24
330
23
100
AcDbEntity
  8
0
100
AcDbBlockBegin
  2
*Paper_Space0
 70
     0
 10
0.0
 20
0.0
 30
0.0
  3
*Paper_Space0
  1

  0
ENDBLK
  5
25
330
23
100
AcDbEntity
  8
0
100
AcDbBlockEnd
  0
BLOCK
  5
43
330
41
100
AcDbEntity
  8
0
100
AcDbBlockBegin
  2
block 2
 70
     0
 10
0.0
 20
0.0
 30
0.0
  3
block 2
  1

  0
SPLINE
  5
45
330
41
100
AcDbEntity
  8
Layer 1
370
     0
100
AcDbSpline
210
0.0
220
0.0
230
1.0
 70
    11
 71
     3
 72
   566
 73
   562
 74
     0
 42
0.0000000001
 43
0.0000000001
 12
1.0
 22
0.0
 32
0.0
 13
1.0
 23
0.0
 33
0.0
 40
0.0
 40
0.0
 40
0.0
 40
0.0
 40
1.0
 40
1.0
 40
1.0
 40
2.0
 40
2.0
 40
2.0
 40
3.0
 40
3.0
 40
3.0
 40
4.0
 40
4.0
 40
4.0
 40
5.0
 40
5.0
 40
5.0
 40
6.0
 40
6.0
 40
6.0
 40
7.0
 40
7.0
 40
7.0
 40
8.0
 40
8.0
 40
8.0
 40
9.0
 40
9.0
 40
9.0
 40
10.0
 40
10.0
 40
10.0
 40
11.0
 40
11.0
 40
11.0
 40
12.0
 40
12.0
 40
12.0
 40
13.0
 40
13.0
 40
13.0
 40
14.0
 40
14.0
 40
14.0
 40
15.0
 40
15.0
 40
15.0
 40
16.0
 40
16.0
 40
16.0
 40
17.0
 40
17.0
 40
17.0
 40
18.0
 40
18.0
 40
18.0
 40
19.0
 40
19.0
 40
19.0
 40
20.0
 40
20.0
 40
20.0
 40
21.0
 40
21.0
 40
21.0
 40
22.0
 40
22.0
 40
22.0
 40
23.0
 40
23.0
 40
23.0
 40
24.0
 40
24.0
 40
24.0
 40
25.0
 40
25.0
 40
25.0
 40
26.0
 40
26.0
 40
26.0
 40
27.0
 40
27.0
 40
27.0
 40
28.0
 40
28.0
 40
28.0
 40
29.0
 40
29.0
 40
29.0
 40
30.0
 40
30.0
 40
30.0
 40
31.0
 40
31.0
 40
31.0
 40
32.0
 40
32.0
 40
32.0
 40
33.0
 40
33.0
 40
33.0
 40
34.0
 40
34.0
 40
34.0
 40
35.0
 40
35.0
 40
35.0
 40
36.0
 40
36.0
 40
36.0
 40
37.0
 40
37.0
 40
37.0
 40
38.0
 40
38.0
 40
38.0
 40
39.0
 40
39.0
 40
39.0
 40
40.0
 40
40.0
 40
40.0
 40
41.0
 40
41.0
 40
41.0
 40
42.0
 40
42.0
 40
42.0
 40
43.0
 40
43.0
 40
43.0
 40
44.0
 40
44.0
 40
44.0
 40
45.0
 40
45.0
 40
45.0
 40
46.0
 40
46.0
 40
46.0
 40
47.0
 40
47.0
 40
47.0
 40
48.0
 40
48.0
 40
48.0
 40
49.0
 40
49.0
 40
49.0
 40
50.0
 40
50.0
 40
50.0
 40
51.0
 40
51.0
 40
51.0
 40
52.0
 40
52.0
 40
52.0
 40
53.0
 40
53.0
 40
53.0
 40
54.0
 40
54.0
 40
54.0
 40
55.0
 40
55.0
 40
55.0
 40
56.0
 40
56.0
 40
56.0
 40
57.0
 40
57.0
 40
57.0
 40
58.0
 40
58.0
 40
58.0
 40
59.0
 40
59.0
 40
59.0
 40
60.0
 40
60.0
 40
60.0
 40
61.0
 40
61.0
 40
61.0
 40
62.0
 40
62.0
 40
62.0
 40
63.0
 40
63.0
 40
63.0
 40
64.0
 40
64.0
 40
64.0
 40
65.0
 40
65.0
 40
65.0
 40
66.0
 40
66.0
 40
66.0
 40
67.0
 40
67.0
 40
67.0
 40
68.0
 40
68.0
 40
68.0
 40
69.0
 40
69.0
 40
69.0
 40
70.0
 40
70.0
 40
70.0
 40
71.0
 40
71.0
 40
71.0
 40
72.0
 40
72.0
 40
72.0
 40
73.0
 40
73.0
 40
73.0
 40
74.0
 40
74.0
 40
74.0
 40
75.0
 40
75.0
 40
75.0
 40
76.0
 40
76.0
 40
76.0
 40
77.0
 40
77.0
 40
77.0
 40
78.0
 40
78.0
 40
78.0
 40
79.0
 40
79.0
 40
79.0
 40
80.0
 40
80.0
 40
80.0
 40
81.0
 40
81.0
 40
81.0
 40
82.0
 40
82.0
 40
82.0
 40
83.0
 40
83.0
 40
83.0
 40
84.0
 40
84.0
 40
84.0
 40
85.0
 40
85.0
 40
85.0
 40
86.0
 40
86.0
 40
86.0
 40
87.0
 40
87.0
 40
87.0
 40
88.0
 40
88.0
 40
88.0
 40
89.0
 40
89.0
 40
89.0
 40
90.0
 40
90.0
 40
90.0
 40
91.0
 40
91.0
 40
91.0
 40
92.0
 40
92.0
 40
92.0
 40
93.0
 40
93.0
 40
93.0
 40
94.0
 40
94.0
 40
94.0
 40
95.0
 40
95.0
 40
95.0
 40
96.0
 40
96.0
 40
96.0
 40
97.0
 40
97.0
 40
97.0
 40
98.0
 40
98.0
 40
98.0
 40
99.0
 40
99.0
 40
99.0
 40
100.0
 40
100.0
 40
100.0
 40
101.0
 40
101.0
 40
101.0
 40
102.0
 40
102.0
 40
102.0
 40
103.0
 40
103.0
 40
103.0
 40
104.0
 40
104.0
 40
104.0
 40
105.0
 40
105.0
 40
105.0
 40
106.0
 40
106.0
 40
106.0
 40
107.0
 40
107.0
 40
107.0
 40
108.0
 40
108.0
 40
108.0
 40
109.0
 40
109.0
 40
109.0
 40
110.0
 40
110.0
 40
110.0
 40
111.0
 40
111.0
 40
111.0
 40
112.0
 40
112.0
 40
112.0
 40
113.0
 40
113.0
 40
113.0
 40
114.0
 40
114.0
 40
114.0
 40
115.0
 40
115.0
 40
115.0
 40
116.0
 40
116.0
 40
116.0
 40
117.0
 40
117.0
 40
117.0
 40
118.0
 40
118.0
 40
118.0
 40
119.0
 40
119.0
 40
119.0
 40
120.0
 40
120.0
 40
120.0
 40
121.0
 40
121.0
 40
121.0
 40
122.0
 40
122.0
 40
122.0
 40
123.0
 40
123.0
 40
123.0
 40
124.0
 40
124.0
 40
124.0
 40
125.0
 40
125.0
 40
125.0
 40
126.0
 40
126.0
 40
126.0
 40
127.0
 40
127.0
 40
127.0
 40
128.0
 40
128.0
 40
128.0
 40
129.0
 40
129.0
 40
129.0
 40
130.0
 40
130.0
 40
130.0
 40
131.0
 40
131.0
 40
131.0
 40
132.0
 40
132.0
 40
132.0
 40
133.0
 40
133.0
 40
133.0
 40
134.0
 40
134.0
 40
134.0
 40
135.0
 40
135.0
 40
135.0
 40
136.0
 40
136.0
 40
136.0
 40
137.0
 40
137.0
 40
137.0
 40
138.0
 40
138.0
 40
138.0
 40
139.0
 40
139.0
 40
139.0
 40
140.0
 40
140.0
 40
140.0
 40
141.0
 40
141.0
 40
141.0
 40
142.0
 40
142.0
 40
142.0
 40
143.0
 40
143.0
 40
143.0
 40
144.0
 40
144.0
 40
144.0
 40
145.0
 40
145.0
 40
145.0
 40
146.0
 40
146.0
 40
146.0
 40
147.0
 40
147.0
 40
147.0
 40
148.0
 40
148.0
 40
148.0
 40
149.0
 40
149.0
 40
149.0
 40
150.0
 40
150.0
 40
150.0
 40
151.0
 40
151.0
 40
151.0
 40
152.0
 40
152.0
 40
152.0
 40
153.0
 40
153.0
 40
153.0
 40
154.0
 40
154.0
 40
154.0
 40
155.0
 40
155.0
 40
155.0
 40
156.0
 40
156.0
 40
156.0
 40
157.0
 40
157.0
 40
157.0
 40
158.0
 40
158.0
 40
158.0
 40
159.0
 40
159.0
 40
159.0
 40
160.0
 40
160.0
 40
160.0
 40
161.0
 40
161.0
 40
161.0
 40
162.0
 40
162.0
 40
162.0
 40
163.0
 40
163.0
 40
163.0
 40
164.0
 40
164.0
 40
164.0
 40
165.0
 40
165.0
 40
165.0
 40
166.0
 40
166.0
 40
166.0
 40
167.0
 40
167.0
 40
167.0
 40
168.0
 40
168.0
 40
168.0
 40
169.0
 40
169.0
 40
169.0
 40
170.0
 40
170.0
 40
170.0
 40
171.0
 40
171.0
 40
171.0
 40
172.0
 40
172.0
 40
172.0
 40
173.0
 40
173.0
 40
173.0
 40
174.0
 40
174.0
 40
174.0
 40
175.0
 40
175.0
 40
175.0
 40
176.0
 40
176.0
 40
176.0
 40
177.0
 40
177.0
 40
177.0
 40
178.0
 40
178.0
 40
178.0
 40
179.0
 40
179.0
 40
179.0
 40
180.0
 40
180.0
 40
180.0
 40
181.0
 40
181.0
 40
181.0
 40
182.0
 40
182.0
 40
182.0
 40
183.0
 40
183.0
 40
183.0
 40
184.0
 40
184.0
 40
184.0
 40
185.0
 40
185.0
 40
185.0
 40
186.0
 40
186.0
 40
186.0
 40
187.0
 40
187.0
 40
187.0
 40
187.0
 10
57.81110554110271
 20
-33.84084332487319
 30
0.0
 10
57.81456130280544
 20
-34.25475749143619
 30
0.0
 10
57.77494435937171
 20
-34.61374415801316
 30
0.0
 10
57.74806269339085
 20
-34.96496971348098
 30
0.0
 10
57.67951943002464
 20
-34.97202526903492
 30
0.0
 10
57.60956214136873
 20
-34.97872804681079
 30
0.0
 10
57.54066464312645
 20
-34.98564249125369
 30
0.0
 10
57.54514492078993
 20
-35.4081644355924
 30
0.0
 10
57.51208964385547
 20
-35.99486915766786
 30
0.0
 10
57.20718381830093
 20
-36.10941610208371
 30
0.0
 10
57.09591771002845
 20
-36.15231387985091
 30
0.0
 10
57.02804326731563
 20
-36.05724026876344
 30
0.0
 10
56.93639160298719
 20
-36.13008887985643
 30
0.0
 10
56.9078166037162
 20
-36.28979137981644
 30
0.0
 10
56.88093493773534
 20
-36.45012887977629
 30
0.0
 10
56.85303021622503
 20
-36.60965499084774
 30
0.0
 10
56.63152105520953
 20
-36.56763915752463
 30
0.0
 10
56.40930633865648
 20
-36.52611721309064
 30
0.0
 10
56.18811467763288
 20
-36.4842424908789
 30
0.0
 10
56.06824079180223
 20
-37.0654438796225
 30
0.0
 10
55.35683054171616
 20
-36.98913804630822
 30
0.0
 10
54.85591998939778
 20
-37.17155943515152
 30
0.0
 10
54.93825832063048
 20
-37.2543916573531
 30
0.0
 10
55.02161970739265
 20
-37.33810582399875
 30
0.0
 10
55.10498109415481
 20
-37.42114971286705
 30
0.0
 10
55.10498109415481
 20
-37.42820526842068
 30
0.0
 10
55.10498109415481
 20
-37.43508443508574
 30
0.0
 10
55.10498109415481
 20
-37.441469712862
 30
0.0
 10
55.10498109415481
 20
-37.5115666572889
 30
0.0
 10
55.10498109415481
 20
-37.5809933239381
 30
0.0
 10
55.10498109415481
 20
-37.65006721280955
 30
0.0
 10
54.60925777346844
 20
-37.90706582385647
 30
0.0
 10
54.35084805783879
 20
-37.83749804609622
 30
0.0
 10
53.94053223497349
 20
-37.56670582394165
 30
0.0
 10
53.93298279072165
 20
-37.56670582394165
 30
0.0
 10
53.92539806869293
 20
-37.56670582394165
 30
0.0
 10
53.91848362442488
 20
-37.56670582394165
 30
0.0
 10
53.90507806921133
 20
-37.73325221278889
 30
0.0
 10
53.89093168068334
 20
-37.89983387941397
 30
0.0
 10
53.87749084769292
 20
-38.06606276826128
 30
0.0
 10
53.33456586154409
 20
-38.05763137937445
 30
0.0
 10
52.71685198841439
 20
-38.03350137938045
 30
0.0
 10
52.33683977588709
 20
-38.19129887934093
 30
0.0
 10
52.13222866999605
 20
-38.09551971269826
 30
0.0
 10
51.98268617381119
 20
-37.98217221272674
 30
0.0
 10
51.81663367804754
 20
-37.85866471275742
 30
0.0
 10
51.3739694316011
 20
-37.98270137939306
 30
0.0
 10
50.97846897720868
 20
-38.11774471269275
 30
0.0
 10
50.54645732156355
 20
-37.87866721275245
 30
0.0
 10
50.68492259580879
 20
-38.03833443493494
 30
0.0
 10
50.82412870336845
 20
-38.19817804600599
 30
0.0
 10
50.96259397761369
 20
-38.357880545966
 30
0.0
 10
50.92816286738099
 20
-38.41316082373012
 30
0.0
 10
50.89369647937141
 20
-38.46879387927168
 30
0.0
 10
50.85891387617397
 20
-38.5240741570358
 30
0.0
 10
50.29944232786543
 20
-38.51479610148241
 30
0.0
 10
50.16231760914155
 20
-38.15030610157358
 30
0.0
 10
49.79782761844046
 20
-38.00404443494346
 30
0.0
 10
49.55494012463704
 20
-38.01025332383084
 30
0.0
 10
49.31173513084172
 20
-38.01783804605111
 30
0.0
 10
49.06849485926951
 20
-38.02489360160473
 30
0.0
 10
48.71811597931953
 20
-37.94326082384748
 30
0.0
 10
48.43529404209048
 20
-37.675220268359
 30
0.0
 10
48.1531423826221
 20
-37.58773137949181
 30
0.0
 10
47.92267266627965
 20
-37.51604693506531
 30
0.0
 10
47.74074517092101
 20
-37.69762165724236
 30
0.0
 10
47.57021239749388
 20
-37.73325221278889
 30
0.0
 10
47.54230767598357
 20
-37.70534749057366
 30
0.0
 10
47.51440295447326
 20
-37.67744276835845
 30
0.0
 10
47.48755656626928
 20
-37.65006721280955
 30
0.0
 10
47.13269740865582
 20
-37.91380387941049
 30
0.0
 10
46.77991963987816
 20
-38.17750526823328
 30
0.0
 10
46.42541326003348
 20
-38.44177110150054
 30
0.0
 10
46.36995659478163
 20
-38.3852561015149
 30
0.0
 10
46.314147151761
 20
-38.3297994348619
 30
0.0
 10
46.25869165510214
 20
-38.27466026820915
 30
0.0
 10
46.11637993458424
 20
-38.19905999045039
 30
0.0
 10
45.94895276629047
 20
-37.90085693496909
 30
0.0
 10
45.82216327542367
 20
-37.9616758238429
 30
0.0
 10
45.73880188866151
 20
-38.01025332383084
 30
0.0
 10
45.65544165525262
 20
-38.0598538793739
 30
0.0
 10
45.57274939289785
 20
-38.10776110158415
 30
0.0
 10
45.45940189578959
 20
-39.25531193463074
 30
0.0
 10
44.8975327434574
 20
-40.36550360101951
 30
0.0
 10
44.40590276667631
 20
-41.20955971191998
 30
0.0
 10
43.6042141653416
 20
-42.58690998935347
 30
0.0
 10
42.94861195984518
 20
-43.99971443344429
 30
0.0
 10
42.13764642497908
 20
-45.33056859977857
 30
0.0
 10
41.80451943399339
 20
-45.84389554409442
 30
0.0
 10
41.47170783085748
 20
-46.35722248841089
 30
0.0
 10
41.1389325615695
 20
-46.87121971050473
 30
0.0
 10
41.18024283829337
 20
-47.46755526591103
 30
0.0
 10
41.22229394833167
 20
-48.06389082131732
 30
0.0
 10
41.26258116952607
 20
-48.66026165450178
 30
0.0
 10
41.34700088959457
 20
-49.2576202654632
 30
0.0
 10
41.43004477636483
 20
-49.85466137642501
 30
0.0
 10
41.51340616312699
 20
-50.45134970960908
 30
0.0
 10
41.65568143727503
 20
-51.12349720944116
 30
0.0
 10
41.82173393303868
 20
-51.76636415372482
 30
0.0
 10
41.84586393242307
 20
-52.5531997090838
 30
0.0
 10
41.81863054510064
 20
-53.22605276447141
 30
0.0
 10
41.79005554510773
 20
-53.89922331985862
 30
0.0
 10
41.76317282342158
 20
-54.57239387524583
 30
0.0
 10
42.00260309509099
 20
-56.03688026376844
 30
0.0
 10
42.38741308527366
 20
-57.24302748568908
 30
0.0
 10
42.38741308527366
 20
-58.92249665193613
 30
0.0
 10
42.38741308527366
 20
-59.25565998518628
 30
0.0
 10
42.38741308527366
 20
-59.58843526288052
 30
0.0
 10
42.38741308527366
 20
-59.92156331835315
 30
0.0
 10
42.07185337110204
 20
-61.90974831785611
 30
0.0
 10
41.85341337667492
 20
-63.90375415069085
 30
0.0
 10
41.86720698743412
 20
-66.2285244278871
 30
0.0
 10
41.87443893169406
 20
-67.33645831649922
 30
0.0
 10
42.00500198391867
 20
-68.6965930383813
 30
0.0
 10
42.24238614452917
 20
-69.66292192702859
 30
0.0
 10
42.36607003026262
 20
-70.16972248245777
 30
0.0
 10
42.52866530389225
 20
-71.00273664891571
 30
0.0
 10
42.28267336572357
 20
-71.5146877598993
 30
0.0
 10
42.20001753449897
 20
-71.57772914877194
 30
0.0
 10
42.11767920326626
 20
-71.64006498208967
 30
0.0
 10
42.03361226096654
 20
-71.70243609318558
 30
0.0
 10
41.0486567305393
 20
-71.65385859319797
 30
0.0
 10
40.06370120011205
 20
-71.60563387098748
 30
0.0
 10
39.07807539192413
 20
-71.5567035932221
 30
0.0
 10
37.74171792601744
 20
-71.75514109317248
 30
0.0
 10
35.62261714674688
 20
-71.80749331538163
 30
0.0
 10
34.28971776920535
 20
-71.59804914876688
 30
0.0
 10
33.87492165819795
 20
-71.59804914876688
 30
0.0
 10
33.45737388052446
 20
-71.59804914876688
 30
0.0
 10
33.04226026951713
 20
-71.59804914876688
 30
0.0
 10
32.91063888066122
 20
-71.54947164877927
 30
0.0
 10
32.7780297140277
 20
-71.50089414879166
 30
0.0
 10
32.64640832517179
 20
-71.45266942658117
 30
0.0
 10
32.61539915851272
 20
-71.10539498222376
 30
0.0
 10
32.45968304744064
 20
-70.54384331569743
 30
0.0
 10
32.62608832517684
 20
-70.18281053800989
 30
0.0
 10
32.99297721397399
 20
-70.05877387137426
 30
0.0
 10
33.43017471386476
 20
-69.8575847047581
 30
0.0
 10
33.85393138042532
 20
-69.76663859366928
 30
0.0
 10
34.5326052691447
 20
-69.62055331592803
 30
0.0
 10
35.15927971343239
 20
-69.65258553814223
 30
0.0
 10
35.76834964302893
 20
-69.4965166492924
 30
0.0
 10
36.12285602287361
 20
-69.3718097048794
 30
0.0
 10
36.47598656942006
 20
-69.24674998268863
 30
0.0
 10
36.82978739372718
 20
-69.12169026049722
 30
0.0
 10
37.49745554618132
 20
-68.9122460938831
 30
0.0
 10
38.19644846997186
 20
-68.76891248280764
 30
0.0
 10
38.53649096129665
 20
-68.24666026071584
 30
0.0
 10
38.92853289573927
 20
-67.64616192753273
 30
0.0
 10
38.93234289564207
 20
-65.0523633170704
 30
0.0
 10
38.76593762210965
 20
-64.06292748398423
 30
0.0
 10
38.50858623978634
 20
-62.19017137334119
 30
0.0
 10
38.25194041300059
 20
-60.31706248492105
 30
0.0
 10
37.99631764174429
 20
-58.44328331872225
 30
0.0
 10
37.801302091164
 20
-57.2843730412345
 30
0.0
 10
38.06140514008377
 20
-55.8643013749227
 30
0.0
 10
37.89122514442542
 20
-54.82247804184985
 30
0.0
 10
37.88434597793426
 20
-54.82247804184985
 30
0.0
 10
37.87743153366622
 20
-54.82247804184985
 30
0.0
 10
37.87019958940628
 20
-54.82247804184985
 30
0.0
 10
37.64318709519785
 20
-56.35109943035652
 30
0.0
 10
36.8756132258914
 20
-57.71363304112724
 30
0.0
 10
36.20554713187509
 20
-58.86016081861839
 30
0.0
 10
35.89305658429184
 20
-59.56709220733044
 30
0.0
 10
35.58162437001491
 20
-60.27539942937538
 30
0.0
 10
35.26952276896039
 20
-60.98300109586543
 30
0.0
 10
34.64870443578232
 20
-62.04891915115412
 30
0.0
 10
33.98378888039306
 20
-63.18856776198085
 30
0.0
 10
33.49907221384733
 20
-64.35439248391118
 30
0.0
 10
33.33266693611113
 20
-64.88218331711268
 30
0.0
 10
33.16594415837533
 20
-65.40926859475864
 30
0.0
 10
33.00056193619426
 20
-65.93670665018237
 30
0.0
 10
32.8679174917829
 20
-66.2832755389849
 30
0.0
 10
32.7366841584826
 20
-66.63090276112005
 30
0.0
 10
32.60403971407124
 20
-66.97747164992258
 30
0.0
 10
32.59059888074135
 20
-67.26893664984954
 30
0.0
 10
32.57684054741122
 20
-67.56040164977651
 30
0.0
 10
32.56269415852613
 20
-67.85183137192595
 30
0.0
 10
32.42489915856036
 20
-68.59562803840637
 30
0.0
 10
32.36563249190863
 20
-69.5206466492864
 30
0.0
 10
32.0845038808677
 20
-70.16143220468166
 30
0.0
 10
31.78788832538632
 20
-70.83978859340145
 30
0.0
 10
30.69374804788216
 20
-72.50754553742863
 30
0.0
 10
30.04431943693335
 20
-72.74320109292515
 30
0.0
 10
29.81317943699108
 20
-72.82758553734848
 30
0.0
 10
29.04870999273795
 20
-72.56991664852389
 30
0.0
 10
28.92019304832557
 20
-72.49375192632097
 30
0.0
 10
28.44062693733425
 20
-72.20711998194818
 30
0.0
 10
28.34350721513622
 20
-71.80407137093786
 30
0.0
 10
28.23393443738591
 20
-71.11918859333142
 30
0.0
 10
27.97383138189546
 20
-69.49930359373633
 30
0.0
 10
29.14205499271444
 20
-68.43063387178123
 30
0.0
 10
29.48209749262934
 20
-67.28996220540002
 30
0.0
 10
29.6381663814795
 20
-66.76594609441942
 30
0.0
 10
29.2478177704657
 20
-66.24365859455011
 30
0.0
 10
29.5871547148254
 20
-65.66559692802788
 30
0.0
 10
30.09049804803296
 20
-64.80570109490952
 30
0.0
 10
30.96588082559177
 20
-64.14699442840796
 30
0.0
 10
31.35552388105005
 20
-63.18856776198085
 30
0.0
 10
31.44579971436085
 20
-62.83508442873574
 30
0.0
 10
31.53607554767165
 20
-62.48230665104616
 30
0.0
 10
31.62666888098238
 20
-62.12748276224568
 30
0.0
 10
31.88366749202898
 20
-61.28550804023427
 30
0.0
 10
32.11240860308292
 20
-60.35946637379912
 30
0.0
 10
32.31292749192172
 20
-59.46372831846751
 30
0.0
 10
32.44486638077755
 20
-58.71372276309938
 30
0.0
 10
32.57684054741122
 20
-57.96442276328678
 30
0.0
 10
32.70913221404481
 20
-57.21544026347377
 30
0.0
 10
32.88929582511114
 20
-56.57744165252245
 30
0.0
 10
33.07016499173235
 20
-55.93870220823744
 30
0.0
 10
33.25068138057612
 20
-55.30066831950796
 30
0.0
 10
33.50700971384536
 20
-54.62749776412075
 30
0.0
 10
33.76330276933707
 20
-53.9546799865113
 30
0.0
 10
34.01963110260631
 20
-53.28186220890185
 30
0.0
 10
34.2473491581048
 20
-52.48363193132323
 30
0.0
 10
34.22184332477791
 20
-51.66197720930677
 30
0.0
 10
34.41580054695157
 20
-50.76278193175387
 30
0.0
 10
34.64835165800456
 20
-49.6837758209124
 30
0.0
 10
35.20267138008806
 20
-48.93345276554468
 30
0.0
 10
35.58162437001491
 20
-47.95333026578973
 30
0.0
 10
35.66466825678518
 20
-47.73799471028752
 30
0.0
 10
35.74735936578666
 20
-47.5230119325637
 30
0.0
 10
35.8310735303176
 20
-47.30735887706189
 30
0.0
 10
35.76147047653777
 20
-47.08620248822854
 30
0.0
 10
35.69257297829549
 20
-46.86363498828415
 30
0.0
 10
35.62261714674688
 20
-46.64177304389527
 30
0.0
 10
35.45656465098323
 20
-46.01030082183061
 30
0.0
 10
35.29019465522768
 20
-45.37879332198843
 30
0.0
 10
35.12308471344138
 20
-44.74767387770217
 30
0.0
 10
34.60838193579234
 20
-42.71712026709866
 30
0.0
 10
34.22942804699818
 20
-40.39855887878947
 30
0.0
 10
34.22805221366529
 20
-37.9616758238429
 30
0.0
 10
34.12437082480212
 20
-38.02489360160473
 30
0.0
 10
34.01963110260631
 20
-38.08708832381144
 30
0.0
 10
33.91591443596562
 20
-38.1501297126847
 30
0.0
 10
33.67373249158147
 20
-38.23592526821877
 30
0.0
 10
33.44051110275112
 20
-38.14649610157453
 30
0.0
 10
33.25068138057612
 20
-38.23264443488636
 30
0.0
 10
32.95889888064923
 20
-38.45485915705299
 30
0.0
 10
32.66743388072194
 20
-38.67703860144179
 30
0.0
 10
32.3752986030173
 20
-38.89875943471962
 30
0.0
 10
32.29190193637156
 20
-38.89875943471962
 30
0.0
 10
32.20956360305879
 20
-38.89875943471962
 30
0.0
 10
32.12620221419057
 20
-38.89875943471962
 30
0.0
 10
32.01528888088522
 20
-38.8014280458552
 30
0.0
 10
31.90398749202393
 20
-38.70462582365709
 30
0.0
 10
31.79374443649594
 20
-38.6078236014593
 30
0.0
 10
31.09062304778294
 20
-38.85621443473051
 30
0.0
 10
30.99484388114028
 20
-39.17710110131694
 30
0.0
 10
30.29479165909297
 20
-38.62831999034282
 30
0.0
 10
30.11565110358209
 20
-38.6619044347791
 30
0.0
 10
29.84485888142752
 20
-38.78110804586024
 30
0.0
 10
29.62818277037058
 20
-38.69030304588311
 30
0.0
 10
29.49793721484788
 20
-38.62570943478809
 30
0.0
 10
29.42868693708723
 20
-38.4574344348302
 30
0.0
 10
29.35841360377146
 20
-38.33685499041585
 30
0.0
 10
29.33774082599874
 20
-38.357880545966
 30
0.0
 10
29.3160449926709
 20
-38.37855332373872
 30
0.0
 10
29.29466665934299
 20
-38.39919082373359
 30
0.0
 10
29.16995971492966
 20
-38.4586338792742
 30
0.0
 10
29.02218110385561
 20
-38.64433610144991
 30
0.0
 10
28.92019304832557
 20
-38.58626887924218
 30
0.0
 10
28.87196832611539
 20
-38.55871693480472
 30
0.0
 10
28.82374360390522
 20
-38.5308122125895
 30
0.0
 10
28.77551888169505
 20
-38.50326026815205
 30
0.0
 10
28.55810193730507
 20
-38.6057422125709
 30
0.0
 10
28.42962027067053
 20
-38.74371360142523
 30
0.0
 10
28.25425443738086
 20
-38.87791026805835
 30
0.0
 10
27.88634249302827
 20
-38.89374999027656
 30
0.0
 10
27.77401804861218
 20
-38.84379665695575
 30
0.0
 10
27.62930860420382
 20
-38.6078236014593
 30
0.0
 10
27.24485138207781
 20
-38.60919943479219
 30
0.0
 10
27.11322999322158
 20
-38.81381054585212
 30
0.0
 10
26.90068138216362
 20
-38.98247360136561
 30
0.0
 10
26.60473610445992
 20
-38.94148082359794
 30
0.0
 10
25.84718110464936
 20
-38.55854054591585
 30
0.0
 10
25.75690527133856
 20
-38.6078236014593
 30
0.0
 10
25.68077582691317
 20
-38.6631038792231
 30
0.0
 10
25.60394082693225
 20
-38.71873693476466
 30
0.0
 10
25.52714110472917
 20
-38.77369971252885
 30
0.0
 10
25.43824110475158
 20
-38.70462582365709
 30
0.0
 10
25.34729499366309
 20
-38.635022768119
 30
0.0
 10
25.25701916035229
 20
-38.56577249035867
 30
0.0
 10
25.1536905492672
 20
-38.59367721257389
 30
0.0
 10
25.04824527151586
 20
-38.62122915701135
 30
0.0
 10
24.94523416043037
 20
-38.64899276811553
 30
0.0
 10
24.93835499376531
 20
-38.57903693479967
 30
0.0
 10
24.93147582710056
 20
-38.51031582370567
 30
0.0
 10
24.92424388265774
 20
-38.44177110150054
 30
0.0
 10
24.8022886049105
 20
-38.48893749037776
 30
0.0
 10
24.6899641604941
 20
-38.52185165703635
 30
0.0
 10
24.59143332718535
 20
-38.48276387926821
 30
0.0
 10
24.5555911049721
 20
-38.39732110151191
 30
0.0
 10
24.50669610498456
 20
-38.33530276819408
 30
0.0
 10
24.42471054944923
 20
-38.29533304598186
 30
0.0
 10
24.08329221620145
 20
-38.18957026823028
 30
0.0
 10
23.11967971644239
 20
-38.63466999034124
 30
0.0
 10
22.7803427720827
 20
-38.77369971252885
 30
0.0
 10
22.24669582777159
 20
-38.39919082373359
 30
0.0
 10
22.1485177722406
 20
-38.1573616571272
 30
0.0
 10
22.11373388336031
 20
-37.29626637956484
 30
0.0
 10
24.840847216012
 20
-36.51197082420524
 30
0.0
 10
27.56799582644121
 20
-35.72788693551234
 30
0.0
 10
30.29479165909297
 20
-34.94429693570826
 30
0.0
 10
30.32199082575299
 20
-34.57395082468982
 30
0.0
 10
31.74449665873064
 20
-33.93023721373959
 30
0.0
 10
32.06316082531762
 20
-33.67479082491475
 30
0.0
 10
32.06316082531762
 20
-33.66769999158297
 30
0.0
 10
32.06316082531762
 20
-33.66082082491823
 30
0.0
 10
32.06316082531762
 20
-33.65376526936428
 30
0.0
 10
31.61735554765115
 20
-33.73730304712138
 30
0.0
 10
31.28009999217986
 20
-34.03755221371294
 30
0.0
 10
30.94005749226496
 20
-34.23683638032956
 30
0.0
 10
30.57867193679967
 20
-34.44716249138808
 30
0.0
 10
30.16249999245938
 20
-34.53451026914423
 30
0.0
 10
29.81628388143494
 20
-34.7356994357604
 30
0.0
 10
29.62818277037058
 20
-34.83973360240132
 30
0.0
 10
29.44145749263975
 20
-34.94429693570826
 30
0.0
 10
29.2533563815754
 20
-35.04850749123776
 30
0.0
 10
29.05075610384851
 20
-35.08604304678413
 30
0.0
 10
28.37172943735136
 20
-35.01492304680179
 30
0.0
 10
28.87852999278022
 20
-34.56999971357972
 30
0.0
 10
29.26573888157233
 20
-34.44716249138808
 30
0.0
 10
29.90998165918919
 20
-34.08560054703423
 30
0.0
 10
30.17008471467964
 20
-33.79967415821664
 30
0.0
 10
29.39044582598565
 20
-33.82154638043336
 30
0.0
 10
29.01149193719149
 20
-34.29352776920441
 30
0.0
 10
28.35828860402147
 20
-34.40253610251056
 30
0.0
 10
28.23806193738488
 20
-34.30023054698059
 30
0.0
 10
28.15505332629443
 20
-34.25493388032507
 30
0.0
 10
28.15092582629545
 20
-34.02806249149314
 30
0.0
 10
28.15745221518275
 20
-34.0075661026093
 30
0.0
 10
28.16433138184782
 20
-33.98689332483659
 30
0.0
 10
28.17089304851297
 20
-33.96537388039764
 30
0.0
 10
28.27563277070878
 20
-33.89629999152586
 30
0.0
 10
28.37931415957195
 20
-33.82704971376554
 30
0.0
 10
28.48267804843488
 20
-33.75797582489377
 30
0.0
 10
28.86540665945025
 20
-33.37609388054496
 30
0.0
 10
29.2478177704657
 20
-32.99470582508464
 30
0.0
 10
29.62818277037058
 20
-32.61264749184695
 30
0.0
 10
29.86380304808959
 20
-32.41851388078442
 30
0.0
 10
30.10048165914155
 20
-32.22406276972164
 30
0.0
 10
30.33543165908288
 20
-32.0299291586591
 30
0.0
 10
30.33543165908288
 20
-32.0299291586591
 30
0.0
 10
29.94236665918115
 20
-32.1415480475203
 30
0.0
 10
30.14733054801884
 20
-31.82164915871116
 30
0.0
 10
30.20557415911513
 20
-31.62684526987094
 30
0.0
 10
31.71761499207054
 20
-30.06569777026127
 30
0.0
 10
31.89710832535919
 20
-30.01126415916372
 30
0.0
 10
32.18165888084357
 20
-30.01126415916372
 30
0.0
 10
32.46589193632803
 20
-30.01126415916372
 30
0.0
 10
32.75044249181241
 20
-30.01126415916372
 30
0.0
 10
33.45635082496933
 20
-30.01126415916372
 30
0.0
 10
34.14814804701837
 20
-30.01609721471821
 30
0.0
 10
34.70726554687885
 20
-29.92790277029582
 30
0.0
 10
34.69382471354864
 20
-29.08832693717241
 30
0.0
 10
34.67900804688587
 20
-28.24910388182677
 30
0.0
 10
34.66524971355607
 20
-27.4091752709256
 30
0.0
 10
34.56121554691513
 20
-27.208162493198
 30
0.0
 10
34.45647582471931
 20
-27.00644415991519
 30
0.0
 10
34.35275915807862
 20
-26.80610165996528
 30
0.0
 10
34.15915471368241
 20
-26.25767332676891
 30
0.0
 10
33.96449193595323
 20
-25.70938610468391
 30
0.0
 10
33.7698644360019
 20
-25.16123999370962
 30
0.0
 10
33.71440776934922
 20
-24.79368082713479
 30
0.0
 10
33.65859832491878
 20
-24.42520443833803
 30
0.0
 10
33.60381193604346
 20
-24.05778638287455
 30
0.0
 10
33.60381193604346
 20
-23.84315638292819
 30
0.0
 10
33.60381193604346
 20
-23.62803249409302
 30
0.0
 10
33.60381193604346
 20
-23.41234416081369
 30
0.0
 10
33.58380943604843
 20
-23.43354610525272
 30
0.0
 10
33.56176082494283
 20
-23.45471277191423
 30
0.0
 10
33.54144082494788
 20
-23.47556193857551
 30
0.0
 10
32.96404943620333
 20
-23.72931499406754
 30
0.0
 10
32.37219415857377
 20
-24.47999082721335
 30
0.0
 10
31.85576276981376
 20
-24.8701277715601
 30
0.0
 10
30.95314554781741
 20
-25.56347721583123
 30
0.0
 10
30.05155138137586
 20
-26.25767332676891
 30
0.0
 10
29.14999249271247
 20
-26.95134027103996
 30
0.0
 10
28.64837777061555
 20
-27.34923832649618
 30
0.0
 10
28.29076693737179
 20
-27.92991054857314
 30
0.0
 10
27.79641943749522
 20
-28.32523332625216
 30
0.0
 10
27.04539082657197
 20
-28.92693110387927
 30
0.0
 10
26.29986554898058
 20
-29.60698082593155
 30
0.0
 10
25.44480277141672
 20
-30.09427277025417
 30
0.0
 10
25.51818054917602
 20
-30.6205113812339
 30
0.0
 10
26.18962249345259
 20
-31.8013291587162
 30
0.0
 10
26.08936304903319
 20
-32.1341397141886
 30
0.0
 10
26.03870416015685
 20
-32.26798360304428
 30
0.0
 10
25.9536141601783
 20
-32.33307110302779
 30
0.0
 10
25.77793082688871
 20
-32.34203165858126
 30
0.0
 10
25.40656166031514
 20
-32.16821804751336
 30
0.0
 10
25.17676221592792
 20
-31.77049638094633
 30
0.0
 10
25.02894832707603
 20
-31.38480443659815
 30
0.0
 10
25.02104610485585
 20
-31.38480443659815
 30
0.0
 10
25.01416693819078
 20
-31.38480443659815
 30
0.0
 10
25.00689971597043
 20
-31.38480443659815
 30
0.0
 10
24.99141277152998
 20
-32.87239776955964
 30
0.0
 10
26.16238804901505
 20
-33.21346332502998
 30
0.0
 10
27.00506832658199
 20
-33.84084332487319
 30
0.0
 10
27.21038499319744
 20
-34.02513443593817
 30
0.0
 10
27.22040388208388
 20
-34.29282221364889
 30
0.0
 10
27.00506832658199
 20
-34.31988026919787
 30
0.0
 10
26.50380638226283
 20
-34.37413749140654
 30
0.0
 10
26.15790777123831
 20
-34.05201610259827
 30
0.0
 10
25.81892360465638
 20
-33.86151610264558
 30
0.0
 10
25.82650832687665
 20
-33.87527443597571
 30
0.0
 10
25.83271721576403
 20
-33.88973832486104
 30
0.0
 10
25.83994916020654
 20
-33.90370832485726
 30
0.0
 10
26.04353721571135
 20
-33.98587026928147
 30
0.0
 10
26.67744360444186
 20
-34.39756193584503
 30
0.0
 10
26.5896019377969
 20
-34.67297554688737
 30
0.0
 10
26.5227505489249
 20
-35.12170888010849
 30
0.0
 10
26.04939332682097
 20
-34.77997304686047
 30
0.0
 10
25.88161221575189
 20
-34.67297554688737
 30
0.0
 10
25.8809419379742
 20
-34.78822804685842
 30
0.0
 10
25.88746832686151
 20
-34.79341388019068
 30
0.0
 10
25.81892360465638
 20
-34.84026276906765
 30
0.0
 10
25.53850054917098
 20
-34.92499999126875
 30
0.0
 10
24.91803499377036
 20
-34.46180276916229
 30
0.0
 10
24.73716582714915
 20
-34.34072943585914
 30
0.0
 10
24.40573110500964
 20
-34.1178091581373
 30
0.0
 10
23.74945860517361
 20
-33.53886554717099
 30
0.0
 10
23.57098832744073
 20
-33.19540110281232
 30
0.0
 10
23.55754749411052
 20
-33.08462888061768
 30
0.0
 10
23.54343638300295
 20
-32.97403304731193
 30
0.0
 10
23.52932527189538
 20
-32.86276693622881
 30
0.0
 10
23.37015193860201
 20
-32.52272443631391
 30
0.0
 10
23.21062582753056
 20
-32.18236443639877
 30
0.0
 10
23.05042943868175
 20
-31.84267471426163
 30
0.0
 10
22.93126110537844
 20
-31.56860165877465
 30
0.0
 10
22.65390721655873
 20
-31.17620693665028
 30
0.0
 10
22.71800693876496
 20
-30.76021138119888
 30
0.0
 10
22.84994582762079
 20
-29.89964527030283
 30
0.0
 10
23.67124777185981
 20
-28.94414665943069
 30
0.0
 10
24.09119443842163
 20
-28.24187193738394
 30
0.0
 10
24.78401471602611
 20
-27.08603082656188
 30
0.0
 10
25.72522582690213
 20
-26.29090499342743
 30
0.0
 10
26.77664471552797
 20
-25.49440332695978
 30
0.0
 10
27.39506415981803
 20
-24.85584027156397
 30
0.0
 10
28.01207249299704
 20
-24.21815916061225
 30
0.0
 10
28.62872804839828
 20
-23.57945499410508
 30
0.0
 10
28.98323443719851
 20
-23.31571832750446
 30
0.0
 10
29.33774082599874
 20
-23.05184054979247
 30
0.0
 10
29.69051860368833
 20
-22.78877416096953
 30
0.0
 10
30.08256054803493
 20
-22.46531221660589
 30
0.0
 10
30.32682388130716
 20
-21.97869055006095
 30
0.0
 10
30.60587110345968
 20
-21.53941166128178
 30
0.0
 10
31.03202665890857
 20
-20.87107416144874
 30
0.0
 10
31.61393360320769
 20
-20.12607805052399
 30
0.0
 10
32.22991888083126
 20
-19.64566527286643
 30
0.0
 10
32.81694110290696
 20
-19.18832416186959
 30
0.0
 10
33.52697693606255
 20
-18.82157638418348
 30
0.0
 10
34.39481026917893
 20
-18.64624582867166
 30
0.0
 10
34.90778443571765
 20
-18.63986055089571
 30
0.0
 10
35.42178076298175
 20
-18.63280499534177
 30
0.0
 10
35.93475491656136
 20
-18.62624332867662
 30
0.0
 10
36.6747777686091
 20
-18.4562397176081
 30
0.0
 10
37.67730070543865
 20
-17.78807860666394
 30
0.0
 10
37.91225069944457
 20
-17.12711416238477
 30
0.0
 10
37.89880986645414
 20
-15.7885341627195
 30
0.0
 10
37.88434597793426
 20
-14.44871944083238
 30
0.0
 10
37.87019958940628
 20
-13.10961027450047
 30
0.0
 10
37.40890832398117
 20
-13.19593499670118
 30
0.0
 10
37.21427988391796
 20
-13.02557860785457
 30
0.0
 10
36.99583988949082
 20
-12.71428749682145
 30
0.0
 10
36.98137600097094
 20
-12.12380805252446
 30
0.0
 10
37.06406710997243
 20
-11.58913805265822
 30
0.0
 10
37.30833043707408
 20
-11.25685666385247
 30
0.0
 10
37.3927148793657
 20
-11.25064777496509
 30
0.0
 10
37.47505321059841
 20
-11.24341583052258
 30
0.0
 10
37.55876737512935
 20
-11.2367130527464
 30
0.0
 10
37.55291126416764
 20
-9.472965275409525
 30
0.0
 10
38.62846110145385
 20
-8.12595388685742
 30
0.0
 10
40.03544370083296
 20
-7.76026444250427
 30
0.0
 10
40.71584721204357
 20
-7.583522775882038
 30
0.0
 10
41.33631172320061
 20
-7.895978053581637
 30
0.0
 10
41.72112171338329
 20
-8.051694164653714
 30
0.0
 10
43.29246445107277
 20
-8.68990444227208
 30
0.0
 10
44.59435552896988
 20
-10.71460194176565
 30
0.0
 10
43.49090194601021
 20
-12.63110249684211
 30
0.0
 10
43.61490333173556
 20
-12.62679860795426
 30
0.0
 10
43.71068249595869
 20
-12.6373113857295
 30
0.0
 10
43.78233166079744
 20
-12.6719188857209
 30
0.0
 10
43.81404638221056
 20
-13.30046305223059
 30
0.0
 10
43.52910777836883
 20
-14.29180388531598
 30
0.0
 10
42.8452833513702
 20
-14.29681332975904
 30
0.0
 10
42.77568029759037
 20
-14.23426582977489
 30
0.0
 10
42.70678279934809
 20
-14.17140082979051
 30
0.0
 10
42.63753252333704
 20
-14.10920610758381
 30
0.0
 10
42.62373891257783
 20
-14.11594416313783
 30
0.0
 10
42.60895752406604
 20
-14.12264694091369
 30
0.0
 10
42.59551669107562
 20
-14.12938499646772
 30
0.0
 10
42.39122308517646
 20
-14.64098332967323
 30
0.0
 10
42.03534087203356
 20
-15.22902860730374
 30
0.0
 10
41.88787976468449
 20
-15.8159097182684
 30
0.0
 10
41.60950282734203
 20
-16.92454916243541
 30
0.0
 10
42.39845502943641
 20
-17.22772638458193
 30
0.0
 10
43.0750475121751
 20
-17.52296610673043
 30
0.0
 10
44.26087470414435
 20
-18.04024416215669
 30
0.0
 10
45.82943049746049
 20
-18.32860471764012
 30
0.0
 10
46.15497498846145
 20
-19.70800110618418
 30
0.0
 10
46.35962020615644
 20
-20.57721027263345
 30
0.0
 10
45.84283605267404
 20
-21.76095610567073
 30
0.0
 10
45.65544165525262
 20
-22.43462054994674
 30
0.0
 10
45.54897217128224
 20
-22.81720804985139
 30
0.0
 10
45.61892800283086
 20
-23.29832638306415
 30
0.0
 10
45.51006078338607
 20
-23.74653054961896
 30
0.0
 10
45.39152745307677
 20
-24.10618749397361
 30
0.0
 10
45.27440523384259
 20
-24.46774943832746
 30
0.0
 10
45.15590832204443
 20
-24.82846471601507
 30
0.0
 10
44.948156353277
 20
-25.18900360481381
 30
0.0
 10
44.7390296919456
 20
-25.54968360472358
 30
0.0
 10
44.53060858615175
 20
-25.91057527130007
 30
0.0
 10
44.25431303764508
 20
-26.79146138219106
 30
0.0
 10
43.9759713780795
 20
-27.67273554863734
 30
0.0
 10
43.69826471849773
 20
-28.55415082619466
 30
0.0
 10
43.39822722615231
 20
-29.87174054808762
 30
0.0
 10
44.31047525843449
 20
-30.53076471458942
 30
0.0
 10
44.69803691521363
 20
-31.30161943661913
 30
0.0
 10
44.92437913166138
 20
-31.75155221428427
 30
0.0
 10
45.11110554427771
 20
-32.43297776966943
 30
0.0
 10
45.17657995856054
 20
-32.96680110286942
 30
0.0
 10
45.55070078234925
 20
-32.97403304731193
 30
0.0
 10
45.92623271721308
 20
-32.98077110286595
 30
0.0
 10
46.30070631877057
 20
-32.98729749175325
 30
0.0
 10
46.61316158857695
 20
-32.87656054733645
 30
0.0
 10
46.92529935839143
 20
-32.76578832514182
 30
0.0
 10
47.23743712820591
 20
-32.65469860294758
 30
0.0
 10
47.93057488830027
 20
-32.58509554740917
 30
0.0
 10
48.62579403723042
 20
-32.51513971409332
 30
0.0
 10
49.31896707510166
 20
-32.44641860299964
 30
0.0
 10
49.62348609870555
 20
-32.41128193634159
 30
0.0
 10
49.92909622620263
 20
-32.37667443635019
 30
0.0
 10
50.23431955174907
 20
-32.34203165858126
 30
0.0
 10
50.5254317665444
 20
-32.41953693633954
 30
0.0
 10
50.75382009405106
 20
-32.69343360293764
 30
0.0
 10
50.90025814587067
 20
-32.92496165843551
 30
0.0
 10
50.90025814587067
 20
-32.9323699917669
 30
0.0
 10
50.90025814587067
 20
-32.93907276954308
 30
0.0
 10
50.90025814587067
 20
-32.94630471398558
 30
0.0
 10
50.71353287285665
 20
-33.02952499174276
 30
0.0
 10
50.5254317665444
 20
-33.11200443616658
 30
0.0
 10
50.33905927129916
 20
-33.19540110281232
 30
0.0
 10
50.33905927129916
 20
-33.2028094361437
 30
0.0
 10
50.33905927129916
 20
-33.209335825031
 30
0.0
 10
50.33905927129916
 20
-33.21656776947351
 30
0.0
 10
51.33124674598635
 20
-33.21572110280727
 30
0.0
 10
52.26967220915454
 20
-33.2281036028042
 30
0.0
 10
53.23155475306101
 20
-33.23776971391287
 30
0.0
 10
53.25254503030328
 20
-33.28581804723416
 30
0.0
 10
53.27357058532243
 20
-33.33457193611066
 30
0.0
 10
53.2942433625728
 20
-33.38332582498747
 30
0.0
 10
54.25164694925851
 20
-33.40346943609354
 30
0.0
 10
55.20901665286427
 20
-33.42414221386625
 30
0.0
 10
56.16712440039061
 20
-33.44566165830521
 30
0.0
 10
56.16712440039061
 20
-33.49356888051547
 30
0.0
 10
56.16712440039061
 20
-33.5426402693922
 30
0.0
 10
56.16712440039061
 20
-33.59107665826878
 30
0.0
 10
56.71417688643414
 20
-33.67479082491475
 30
0.0
 10
57.26334603909033
 20
-33.75797582489377
 30
0.0
 10
57.81110554110271
 20
-33.84084332487319
 30
0.0
  0
SPLINE
  5
46
330
41
100
AcDbEntity
  8
Layer 1
370
     0
100
AcDbSpline
210
0.0
220
0.0
230
1.0
 70
    11
 71
     3
 72
    17
 73
    13
 74
     0
 42
0.0000000001
 43
0.0000000001
 12
1.0
 22
0.0
 32
0.0
 13
1.0
 23
0.0
 33
0.0
 40
0.0
 40
0.0
 40
0.0
 40
0.0
 40
1.0
 40
1.0
 40
1.0
 40
2.0
 40
2.0
 40
2.0
 40
3.0
 40
3.0
 40
3.0
 40
4.0
 40
4.0
 40
4.0
 40
4.0
 10
34.08231971370149
 20
-33.17490471392848
 30
0.0
 10
33.76330276933707
 20
-33.41070138053637
 30
0.0
 10
33.44396832497241
 20
-33.64688610269953
 30
0.0
 10
33.12459860282991
 20
-33.88303554708486
 30
0.0
 10
32.62711138073196
 20
-34.10556776925142
 30
0.0
 10
31.73035026984523
 20
-34.36309554696466
 30
0.0
 10
31.37690221437796
 20
-34.71537943576576
 30
0.0
 10
32.14722776974104
 20
-34.52759582470133
 30
0.0
 10
32.91649499177084
 20
-34.34072943585914
 30
0.0
 10
33.686503047134
 20
-34.15294582479503
 30
0.0
 10
33.85668304709141
 20
-34.04220888037823
 30
0.0
 10
34.14021054702066
 20
-33.40847888053692
 30
0.0
 10
34.08231971370149
 20
-33.17490471392848
 30
0.0
  0
HATCH
  5
47
330
41
100
AcDbEntity
  8
Layer 1
 62
     7
100
AcDbHatch
 10
0.0
 20
0.0
 30
0.0
210
0.0
220
0.0
230
1.0
  2
SOLID
 70
     1
 71
     0
 91
        2
 92
        1
 93
        1
 72
     4
 94
        3
 73
     0
 74
     1
 95
      566
 96
      562
 40
0.0
 40
0.0
 40
0.0
 40
0.0
 40
1.0
 40
1.0
 40
1.0
 40
2.0
 40
2.0
 40
2.0
 40
3.0
 40
3.0
 40
3.0
 40
4.0
 40
4.0
 40
4.0
 40
5.0
 40
5.0
 40
5.0
 40
6.0
 40
6.0
 40
6.0
 40
7.0
 40
7.0
 40
7.0
 40
8.0
 40
8.0
 40
8.0
 40
9.0
 40
9.0
 40
9.0
 40
10.0
 40
10.0
 40
10.0
 40
11.0
 40
11.0
 40
11.0
 40
12.0
 40
12.0
 40
12.0
 40
13.0
 40
13.0
 40
13.0
 40
14.0
 40
14.0
 40
14.0
 40
15.0
 40
15.0
 40
15.0
 40
16.0
 40
16.0
 40
16.0
 40
17.0
 40
17.0
 40
17.0
 40
18.0
 40
18.0
 40
18.0
 40
19.0
 40
19.0
 40
19.0
 40
20.0
 40
20.0
 40
20.0
 40
21.0
 40
21.0
 40
21.0
 40
22.0
 40
22.0
 40
22.0
 40
23.0
 40
23.0
 40
23.0
 40
24.0
 40
24.0
 40
24.0
 40
25.0
 40
25.0
 40
25.0
 40
26.0
 40
26.0
 40
26.0
 40
27.0
 40
27.0
 40
27.0
 40
28.0
 40
28.0
 40
28.0
 40
29.0
 40
29.0
 40
29.0
 40
30.0
 40
30.0
 40
30.0
 40
31.0
 40
31.0
 40
31.0
 40
32.0
 40
32.0
 40
32.0
 40
33.0
 40
33.0
 40
33.0
 40
34.0
 40
34.0
 40
34.0
 40
35.0
 40
35.0
 40
35.0
 40
36.0
 40
36.0
 40
36.0
 40
37.0
 40
37.0
 40
37.0
 40
38.0
 40
38.0
 40
38.0
 40
39.0
 40
39.0
 40
39.0
 40
40.0
 40
40.0
 40
40.0
 40
41.0
 40
41.0
 40
41.0
 40
42.0
 40
42.0
 40
42.0
 40
43.0
 40
43.0
 40
43.0
 40
44.0
 40
44.0
 40
44.0
 40
45.0
 40
45.0
 40
45.0
 40
46.0
 40
46.0
 40
46.0
 40
47.0
 40
47.0
 40
47.0
 40
48.0
 40
48.0
 40
48.0
 40
49.0
 40
49.0
 40
49.0
 40
50.0
 40
50.0
 40
50.0
 40
51.0
 40
51.0
 40
51.0
 40
52.0
 40
52.0
 40
52.0
 40
53.0
 40
53.0
 40
53.0
 40
54.0
 40
54.0
 40
54.0
 40
55.0
 40
55.0
 40
55.0
 40
56.0
 40
56.0
 40
56.0
 40
57.0
 40
57.0
 40
57.0
 40
58.0
 40
58.0
 40
58.0
 40
59.0
 40
59.0
 40
59.0
 40
60.0
 40
60.0
 40
60.0
 40
61.0
 40
61.0
 40
61.0
 40
62.0
 40
62.0
 40
62.0
 40
63.0
 40
63.0
 40
63.0
 40
64.0
 40
64.0
 40
64.0
 40
65.0
 40
65.0
 40
65.0
 40
66.0
 40
66.0
 40
66.0
 40
67.0
 40
67.0
 40
67.0
 40
68.0
 40
68.0
 40
68.0
 40
69.0
 40
69.0
 40
69.0
 40
70.0
 40
70.0
 40
70.0
 40
71.0
 40
71.0
 40
71.0
 40
72.0
 40
72.0
 40
72.0
 40
73.0
 40
73.0
 40
73.0
 40
74.0
 40
74.0
 40
74.0
 40
75.0
 40
75.0
 40
75.0
 40
76.0
 40
76.0
 40
76.0
 40
77.0
 40
77.0
 40
77.0
 40
78.0
 40
78.0
 40
78.0
 40
79.0
 40
79.0
 40
79.0
 40
80.0
 40
80.0
 40
80.0
 40
81.0
 40
81.0
 40
81.0
 40
82.0
 40
82.0
 40
82.0
 40
83.0
 40
83.0
 40
83.0
 40
84.0
 40
84.0
 40
84.0
 40
85.0
 40
85.0
 40
85.0
 40
86.0
 40
86.0
 40
86.0
 40
87.0
 40
87.0
 40
87.0
 40
88.0
 40
88.0
 40
88.0
 40
89.0
 40
89.0
 40
89.0
 40
90.0
 40
90.0
 40
90.0
 40
91.0
 40
91.0
 40
91.0
 40
92.0
 40
92.0
 40
92.0
 40
93.0
 40
93.0
 40
93.0
 40
94.0
 40
94.0
 40
94.0
 40
95.0
 40
95.0
 40
95.0
 40
96.0
 40
96.0
 40
96.0
 40
97.0
 40
97.0
 40
97.0
 40
98.0
 40
98.0
 40
98.0
 40
99.0
 40
99.0
 40
99.0
 40
100.0
 40
100.0
 40
100.0
 40
101.0
 40
101.0
 40
101.0
 40
102.0
 40
102.0
 40
102.0
 40
103.0
 40
103.0
 40
103.0
 40
104.0
 40
104.0
 40
104.0
 40
105.0
 40
105.0
 40
105.0
 40
106.0
 40
106.0
 40
106.0
 40
107.0
 40
107.0
 40
107.0
 40
108.0
 40
108.0
 40
108.0
 40
109.0
 40
109.0
 40
109.0
 40
110.0
 40
110.0
 40
110.0
 40
111.0
 40
111.0
 40
111.0
 40
112.0
 40
112.0
 40
112.0
 40
113.0
 40
113.0
 40
113.0
 40
114.0
 40
114.0
 40
114.0
 40
115.0
 40
115.0
 40
115.0
 40
116.0
 40
116.0
 40
116.0
 40
117.0
 40
117.0
 40
117.0
 40
118.0
 40
118.0
 40
118.0
 40
119.0
 40
119.0
 40
119.0
 40
120.0
 40
120.0
 40
120.0
 40
121.0
 40
121.0
 40
121.0
 40
122.0
 40
122.0
 40
122.0
 40
123.0
 40
123.0
 40
123.0
 40
124.0
 40
124.0
 40
124.0
 40
125.0
 40
125.0
 40
125.0
 40
126.0
 40
126.0
 40
126.0
 40
127.0
 40
127.0
 40
127.0
 40
128.0
 40
128.0
 40
128.0
 40
129.0
 40
129.0
 40
129.0
 40
130.0
 40
130.0
 40
130.0
 40
131.0
 40
131.0
 40
131.0
 40
132.0
 40
132.0
 40
132.0
 40
133.0
 40
133.0
 40
133.0
 40
134.0
 40
134.0
 40
134.0
 40
135.0
 40
135.0
 40
135.0
 40
136.0
 40
136.0
 40
136.0
 40
137.0
 40
137.0
 40
137.0
 40
138.0
 40
138.0
 40
138.0
 40
139.0
 40
139.0
 40
139.0
 40
140.0
 40
140.0
 40
140.0
 40
141.0
 40
141.0
 40
141.0
 40
142.0
 40
142.0
 40
142.0
 40
143.0
 40
143.0
 40
143.0
 40
144.0
 40
144.0
 40
144.0
 40
145.0
 40
145.0
 40
145.0
 40
146.0
 40
146.0
 40
146.0
 40
147.0
 40
147.0
 40
147.0
 40
148.0
 40
148.0
 40
148.0
 40
149.0
 40
149.0
 40
149.0
 40
150.0
 40
150.0
 40
150.0
 40
151.0
 40
151.0
 40
151.0
 40
152.0
 40
152.0
 40
152.0
 40
153.0
 40
153.0
 40
153.0
 40
154.0
 40
154.0
 40
154.0
 40
155.0
 40
155.0
 40
155.0
 40
156.0
 40
156.0
 40
156.0
 40
157.0
 40
157.0
 40
157.0
 40
158.0
 40
158.0
 40
158.0
 40
159.0
 40
159.0
 40
159.0
 40
160.0
 40
160.0
 40
160.0
 40
161.0
 40
161.0
 40
161.0
 40
162.0
 40
162.0
 40
162.0
 40
163.0
 40
163.0
 40
163.0
 40
164.0
 40
164.0
 40
164.0
 40
165.0
 40
165.0
 40
165.0
 40
166.0
 40
166.0
 40
166.0
 40
167.0
 40
167.0
 40
167.0
 40
168.0
 40
168.0
 40
168.0
 40
169.0
 40
169.0
 40
169.0
 40
170.0
 40
170.0
 40
170.0
 40
171.0
 40
171.0
 40
171.0
 40
172.0
 40
172.0
 40
172.0
 40
173.0
 40
173.0
 40
173.0
 40
174.0
 40
174.0
 40
174.0
 40
175.0
 40
175.0
 40
175.0
 40
176.0
 40
176.0
 40
176.0
 40
177.0
 40
177.0
 40
177.0
 40
178.0
 40
178.0
 40
178.0
 40
179.0
 40
179.0
 40
179.0
 40
180.0
 40
180.0
 40
180.0
 40
181.0
 40
181.0
 40
181.0
 40
182.0
 40
182.0
 40
182.0
 40
183.0
 40
183.0
 40
183.0
 40
184.0
 40
184.0
 40
184.0
 40
185.0
 40
185.0
 40
185.0
 40
186.0
 40
186.0
 40
186.0
 40
187.0
 40
187.0
 40
187.0
 40
187.0
 10
57.81110554110271
 20
-33.84084332487319
 10
57.81456130280544
 20
-34.25475749143619
 10
57.77494435937171
 20
-34.61374415801316
 10
57.74806269339085
 20
-34.96496971348098
 10
57.67951943002464
 20
-34.97202526903492
 10
57.60956214136873
 20
-34.97872804681079
 10
57.54066464312645
 20
-34.98564249125369
 10
57.54514492078993
 20
-35.4081644355924
 10
57.51208964385547
 20
-35.99486915766786
 10
57.20718381830093
 20
-36.10941610208371
 10
57.09591771002845
 20
-36.15231387985091
 10
57.02804326731563
 20
-36.05724026876344
 10
56.93639160298719
 20
-36.13008887985643
 10
56.9078166037162
 20
-36.28979137981644
 10
56.88093493773534
 20
-36.45012887977629
 10
56.85303021622503
 20
-36.60965499084774
 10
56.63152105520953
 20
-36.56763915752463
 10
56.40930633865648
 20
-36.52611721309064
 10
56.18811467763288
 20
-36.4842424908789
 10
56.06824079180223
 20
-37.0654438796225
 10
55.35683054171616
 20
-36.98913804630822
 10
54.85591998939778
 20
-37.17155943515152
 10
54.93825832063048
 20
-37.2543916573531
 10
55.02161970739265
 20
-37.33810582399875
 10
55.10498109415481
 20
-37.42114971286705
 10
55.10498109415481
 20
-37.42820526842068
 10
55.10498109415481
 20
-37.43508443508574
 10
55.10498109415481
 20
-37.441469712862
 10
55.10498109415481
 20
-37.5115666572889
 10
55.10498109415481
 20
-37.5809933239381
 10
55.10498109415481
 20
-37.65006721280955
 10
54.60925777346844
 20
-37.90706582385647
 10
54.35084805783879
 20
-37.83749804609622
 10
53.94053223497349
 20
-37.56670582394165
 10
53.93298279072165
 20
-37.56670582394165
 10
53.92539806869293
 20
-37.56670582394165
 10
53.91848362442488
 20
-37.56670582394165
 10
53.90507806921133
 20
-37.73325221278889
 10
53.89093168068334
 20
-37.89983387941397
 10
53.87749084769292
 20
-38.06606276826128
 10
53.33456586154409
 20
-38.05763137937445
 10
52.71685198841439
 20
-38.03350137938045
 10
52.33683977588709
 20
-38.19129887934093
 10
52.13222866999605
 20
-38.09551971269826
 10
51.98268617381119
 20
-37.98217221272674
 10
51.81663367804754
 20
-37.85866471275742
 10
51.3739694316011
 20
-37.98270137939306
 10
50.97846897720868
 20
-38.11774471269275
 10
50.54645732156355
 20
-37.87866721275245
 10
50.68492259580879
 20
-38.03833443493494
 10
50.82412870336845
 20
-38.19817804600599
 10
50.96259397761369
 20
-38.357880545966
 10
50.92816286738099
 20
-38.41316082373012
 10
50.89369647937141
 20
-38.46879387927168
 10
50.85891387617397
 20
-38.5240741570358
 10
50.29944232786543
 20
-38.51479610148241
 10
50.16231760914155
 20
-38.15030610157358
 10
49.79782761844046
 20
-38.00404443494346
 10
49.55494012463704
 20
-38.01025332383084
 10
49.31173513084172
 20
-38.01783804605111
 10
49.06849485926951
 20
-38.02489360160473
 10
48.71811597931953
 20
-37.94326082384748
 10
48.43529404209048
 20
-37.675220268359
 10
48.1531423826221
 20
-37.58773137949181
 10
47.92267266627965
 20
-37.51604693506531
 10
47.74074517092101
 20
-37.69762165724236
 10
47.57021239749388
 20
-37.73325221278889
 10
47.54230767598357
 20
-37.70534749057366
 10
47.51440295447326
 20
-37.67744276835845
 10
47.48755656626928
 20
-37.65006721280955
 10
47.13269740865582
 20
-37.91380387941049
 10
46.77991963987816
 20
-38.17750526823328
 10
46.42541326003348
 20
-38.44177110150054
 10
46.36995659478163
 20
-38.3852561015149
 10
46.314147151761
 20
-38.3297994348619
 10
46.25869165510214
 20
-38.27466026820915
 10
46.11637993458424
 20
-38.19905999045039
 10
45.94895276629047
 20
-37.90085693496909
 10
45.82216327542367
 20
-37.9616758238429
 10
45.73880188866151
 20
-38.01025332383084
 10
45.65544165525262
 20
-38.0598538793739
 10
45.57274939289785
 20
-38.10776110158415
 10
45.45940189578959
 20
-39.25531193463074
 10
44.8975327434574
 20
-40.36550360101951
 10
44.40590276667631
 20
-41.20955971191998
 10
43.6042141653416
 20
-42.58690998935347
 10
42.94861195984518
 20
-43.99971443344429
 10
42.13764642497908
 20
-45.33056859977857
 10
41.80451943399339
 20
-45.84389554409442
 10
41.47170783085748
 20
-46.35722248841089
 10
41.1389325615695
 20
-46.87121971050473
 10
41.18024283829337
 20
-47.46755526591103
 10
41.22229394833167
 20
-48.06389082131732
 10
41.26258116952607
 20
-48.66026165450178
 10
41.34700088959457
 20
-49.2576202654632
 10
41.43004477636483
 20
-49.85466137642501
 10
41.51340616312699
 20
-50.45134970960908
 10
41.65568143727503
 20
-51.12349720944116
 10
41.82173393303868
 20
-51.76636415372482
 10
41.84586393242307
 20
-52.5531997090838
 10
41.81863054510064
 20
-53.22605276447141
 10
41.79005554510773
 20
-53.89922331985862
 10
41.76317282342158
 20
-54.57239387524583
 10
42.00260309509099
 20
-56.03688026376844
 10
42.38741308527366
 20
-57.24302748568908
 10
42.38741308527366
 20
-58.92249665193613
 10
42.38741308527366
 20
-59.25565998518628
 10
42.38741308527366
 20
-59.58843526288052
 10
42.38741308527366
 20
-59.92156331835315
 10
42.07185337110204
 20
-61.90974831785611
 10
41.85341337667492
 20
-63.90375415069085
 10
41.86720698743412
 20
-66.2285244278871
 10
41.87443893169406
 20
-67.33645831649922
 10
42.00500198391867
 20
-68.6965930383813
 10
42.24238614452917
 20
-69.66292192702859
 10
42.36607003026262
 20
-70.16972248245777
 10
42.52866530389225
 20
-71.00273664891571
 10
42.28267336572357
 20
-71.5146877598993
 10
42.20001753449897
 20
-71.57772914877194
 10
42.11767920326626
 20
-71.64006498208967
 10
42.03361226096654
 20
-71.70243609318558
 10
41.0486567305393
 20
-71.65385859319797
 10
40.06370120011205
 20
-71.60563387098748
 10
39.07807539192413
 20
-71.5567035932221
 10
37.74171792601744
 20
-71.75514109317248
 10
35.62261714674688
 20
-71.80749331538163
 10
34.28971776920535
 20
-71.59804914876688
 10
33.87492165819795
 20
-71.59804914876688
 10
33.45737388052446
 20
-71.59804914876688
 10
33.04226026951713
 20
-71.59804914876688
 10
32.91063888066122
 20
-71.54947164877927
 10
32.7780297140277
 20
-71.50089414879166
 10
32.64640832517179
 20
-71.45266942658117
 10
32.61539915851272
 20
-71.10539498222376
 10
32.45968304744064
 20
-70.54384331569743
 10
32.62608832517684
 20
-70.18281053800989
 10
32.99297721397399
 20
-70.05877387137426
 10
33.43017471386476
 20
-69.8575847047581
 10
33.85393138042532
 20
-69.76663859366928
 10
34.5326052691447
 20
-69.62055331592803
 10
35.15927971343239
 20
-69.65258553814223
 10
35.76834964302893
 20
-69.4965166492924
 10
36.12285602287361
 20
-69.3718097048794
 10
36.47598656942006
 20
-69.24674998268863
 10
36.82978739372718
 20
-69.12169026049722
 10
37.49745554618132
 20
-68.9122460938831
 10
38.19644846997186
 20
-68.76891248280764
 10
38.53649096129665
 20
-68.24666026071584
 10
38.92853289573927
 20
-67.64616192753273
 10
38.93234289564207
 20
-65.0523633170704
 10
38.76593762210965
 20
-64.06292748398423
 10
38.50858623978634
 20
-62.19017137334119
 10
38.25194041300059
 20
-60.31706248492105
 10
37.99631764174429
 20
-58.44328331872225
 10
37.801302091164
 20
-57.2843730412345
 10
38.06140514008377
 20
-55.8643013749227
 10
37.89122514442542
 20
-54.82247804184985
 10
37.88434597793426
 20
-54.82247804184985
 10
37.87743153366622
 20
-54.82247804184985
 10
37.87019958940628
 20
-54.82247804184985
 10
37.64318709519785
 20
-56.35109943035652
 10
36.8756132258914
 20
-57.71363304112724
 10
36.20554713187509
 20
-58.86016081861839
 10
35.89305658429184
 20
-59.56709220733044
 10
35.58162437001491
 20
-60.27539942937538
 10
35.26952276896039
 20
-60.98300109586543
 10
34.64870443578232
 20
-62.04891915115412
 10
33.98378888039306
 20
-63.18856776198085
 10
33.49907221384733
 20
-64.35439248391118
 10
33.33266693611113
 20
-64.88218331711268
 10
33.16594415837533
 20
-65.40926859475864
 10
33.00056193619426
 20
-65.93670665018237
 10
32.8679174917829
 20
-66.2832755389849
 10
32.7366841584826
 20
-66.63090276112005
 10
32.60403971407124
 20
-66.97747164992258
 10
32.59059888074135
 20
-67.26893664984954
 10
32.57684054741122
 20
-67.56040164977651
 10
32.56269415852613
 20
-67.85183137192595
 10
32.42489915856036
 20
-68.59562803840637
 10
32.36563249190863
 20
-69.5206466492864
 10
32.0845038808677
 20
-70.16143220468166
 10
31.78788832538632
 20
-70.83978859340145
 10
30.69374804788216
 20
-72.50754553742863
 10
30.04431943693335
 20
-72.74320109292515
 10
29.81317943699108
 20
-72.82758553734848
 10
29.04870999273795
 20
-72.56991664852389
 10
28.92019304832557
 20
-72.49375192632097
 10
28.44062693733425
 20
-72.20711998194818
 10
28.34350721513622
 20
-71.80407137093786
 10
28.23393443738591
 20
-71.11918859333142
 10
27.97383138189546
 20
-69.49930359373633
 10
29.14205499271444
 20
-68.43063387178123
 10
29.48209749262934
 20
-67.28996220540002
 10
29.6381663814795
 20
-66.76594609441942
 10
29.2478177704657
 20
-66.24365859455011
 10
29.5871547148254
 20
-65.66559692802788
 10
30.09049804803296
 20
-64.80570109490952
 10
30.96588082559177
 20
-64.14699442840796
 10
31.35552388105005
 20
-63.18856776198085
 10
31.44579971436085
 20
-62.83508442873574
 10
31.53607554767165
 20
-62.48230665104616
 10
31.62666888098238
 20
-62.12748276224568
 10
31.88366749202898
 20
-61.28550804023427
 10
32.11240860308292
 20
-60.35946637379912
 10
32.31292749192172
 20
-59.46372831846751
 10
32.44486638077755
 20
-58.71372276309938
 10
32.57684054741122
 20
-57.96442276328678
 10
32.70913221404481
 20
-57.21544026347377
 10
32.88929582511114
 20
-56.57744165252245
 10
33.07016499173235
 20
-55.93870220823744
 10
33.25068138057612
 20
-55.30066831950796
 10
33.50700971384536
 20
-54.62749776412075
 10
33.76330276933707
 20
-53.9546799865113
 10
34.01963110260631
 20
-53.28186220890185
 10
34.2473491581048
 20
-52.48363193132323
 10
34.22184332477791
 20
-51.66197720930677
 10
34.41580054695157
 20
-50.76278193175387
 10
34.64835165800456
 20
-49.6837758209124
 10
35.20267138008806
 20
-48.93345276554468
 10
35.58162437001491
 20
-47.95333026578973
 10
35.66466825678518
 20
-47.73799471028752
 10
35.74735936578666
 20
-47.5230119325637
 10
35.8310735303176
 20
-47.30735887706189
 10
35.76147047653777
 20
-47.08620248822854
 10
35.69257297829549
 20
-46.86363498828415
 10
35.62261714674688
 20
-46.64177304389527
 10
35.45656465098323
 20
-46.01030082183061
 10
35.29019465522768
 20
-45.37879332198843
 10
35.12308471344138
 20
-44.74767387770217
 10
34.60838193579234
 20
-42.71712026709866
 10
34.22942804699818
 20
-40.39855887878947
 10
34.22805221366529
 20
-37.9616758238429
 10
34.12437082480212
 20
-38.02489360160473
 10
34.01963110260631
 20
-38.08708832381144
 10
33.91591443596562
 20
-38.1501297126847
 10
33.67373249158147
 20
-38.23592526821877
 10
33.44051110275112
 20
-38.14649610157453
 10
33.25068138057612
 20
-38.23264443488636
 10
32.95889888064923
 20
-38.45485915705299
 10
32.66743388072194
 20
-38.67703860144179
 10
32.3752986030173
 20
-38.89875943471962
 10
32.29190193637156
 20
-38.89875943471962
 10
32.20956360305879
 20
-38.89875943471962
 10
32.12620221419057
 20
-38.89875943471962
 10
32.01528888088522
 20
-38.8014280458552
 10
31.90398749202393
 20
-38.70462582365709
 10
31.79374443649594
 20
-38.6078236014593
 10
31.09062304778294
 20
-38.85621443473051
 10
30.99484388114028
 20
-39.17710110131694
 10
30.29479165909297
 20
-38.62831999034282
 10
30.11565110358209
 20
-38.6619044347791
 10
29.84485888142752
 20
-38.78110804586024
 10
29.62818277037058
 20
-38.69030304588311
 10
29.49793721484788
 20
-38.62570943478809
 10
29.42868693708723
 20
-38.4574344348302
 10
29.35841360377146
 20
-38.33685499041585
 10
29.33774082599874
 20
-38.357880545966
 10
29.3160449926709
 20
-38.37855332373872
 10
29.29466665934299
 20
-38.39919082373359
 10
29.16995971492966
 20
-38.4586338792742
 10
29.02218110385561
 20
-38.64433610144991
 10
28.92019304832557
 20
-38.58626887924218
 10
28.87196832611539
 20
-38.55871693480472
 10
28.82374360390522
 20
-38.5308122125895
 10
28.77551888169505
 20
-38.50326026815205
 10
28.55810193730507
 20
-38.6057422125709
 10
28.42962027067053
 20
-38.74371360142523
 10
28.25425443738086
 20
-38.87791026805835
 10
27.88634249302827
 20
-38.89374999027656
 10
27.77401804861218
 20
-38.84379665695575
 10
27.62930860420382
 20
-38.6078236014593
 10
27.24485138207781
 20
-38.60919943479219
 10
27.11322999322158
 20
-38.81381054585212
 10
26.90068138216362
 20
-38.98247360136561
 10
26.60473610445992
 20
-38.94148082359794
 10
25.84718110464936
 20
-38.55854054591585
 10
25.75690527133856
 20
-38.6078236014593
 10
25.68077582691317
 20
-38.6631038792231
 10
25.60394082693225
 20
-38.71873693476466
 10
25.52714110472917
 20
-38.77369971252885
 10
25.43824110475158
 20
-38.70462582365709
 10
25.34729499366309
 20
-38.635022768119
 10
25.25701916035229
 20
-38.56577249035867
 10
25.1536905492672
 20
-38.59367721257389
 10
25.04824527151586
 20
-38.62122915701135
 10
24.94523416043037
 20
-38.64899276811553
 10
24.93835499376531
 20
-38.57903693479967
 10
24.93147582710056
 20
-38.51031582370567
 10
24.92424388265774
 20
-38.44177110150054
 10
24.8022886049105
 20
-38.48893749037776
 10
24.6899641604941
 20
-38.52185165703635
 10
24.59143332718535
 20
-38.48276387926821
 10
24.5555911049721
 20
-38.39732110151191
 10
24.50669610498456
 20
-38.33530276819408
 10
24.42471054944923
 20
-38.29533304598186
 10
24.08329221620145
 20
-38.18957026823028
 10
23.11967971644239
 20
-38.63466999034124
 10
22.7803427720827
 20
-38.77369971252885
 10
22.24669582777159
 20
-38.39919082373359
 10
22.1485177722406
 20
-38.1573616571272
 10
22.11373388336031
 20
-37.29626637956484
 10
24.840847216012
 20
-36.51197082420524
 10
27.56799582644121
 20
-35.72788693551234
 10
30.29479165909297
 20
-34.94429693570826
 10
30.32199082575299
 20
-34.57395082468982
 10
31.74449665873064
 20
-33.93023721373959
 10
32.06316082531762
 20
-33.67479082491475
 10
32.06316082531762
 20
-33.66769999158297
 10
32.06316082531762
 20
-33.66082082491823
 10
32.06316082531762
 20
-33.65376526936428
 10
31.61735554765115
 20
-33.73730304712138
 10
31.28009999217986
 20
-34.03755221371294
 10
30.94005749226496
 20
-34.23683638032956
 10
30.57867193679967
 20
-34.44716249138808
 10
30.16249999245938
 20
-34.53451026914423
 10
29.81628388143494
 20
-34.7356994357604
 10
29.62818277037058
 20
-34.83973360240132
 10
29.44145749263975
 20
-34.94429693570826
 10
29.2533563815754
 20
-35.04850749123776
 10
29.05075610384851
 20
-35.08604304678413
 10
28.37172943735136
 20
-35.01492304680179
 10
28.87852999278022
 20
-34.56999971357972
 10
29.26573888157233
 20
-34.44716249138808
 10
29.90998165918919
 20
-34.08560054703423
 10
30.17008471467964
 20
-33.79967415821664
 10
29.39044582598565
 20
-33.82154638043336
 10
29.01149193719149
 20
-34.29352776920441
 10
28.35828860402147
 20
-34.40253610251056
 10
28.23806193738488
 20
-34.30023054698059
 10
28.15505332629443
 20
-34.25493388032507
 10
28.15092582629545
 20
-34.02806249149314
 10
28.15745221518275
 20
-34.0075661026093
 10
28.16433138184782
 20
-33.98689332483659
 10
28.17089304851297
 20
-33.96537388039764
 10
28.27563277070878
 20
-33.89629999152586
 10
28.37931415957195
 20
-33.82704971376554
 10
28.48267804843488
 20
-33.75797582489377
 10
28.86540665945025
 20
-33.37609388054496
 10
29.2478177704657
 20
-32.99470582508464
 10
29.62818277037058
 20
-32.61264749184695
 10
29.86380304808959
 20
-32.41851388078442
 10
30.10048165914155
 20
-32.22406276972164
 10
30.33543165908288
 20
-32.0299291586591
 10
30.33543165908288
 20
-32.0299291586591
 10
29.94236665918115
 20
-32.1415480475203
 10
30.14733054801884
 20
-31.82164915871116
 10
30.20557415911513
 20
-31.62684526987094
 10
31.71761499207054
 20
-30.06569777026127
 10
31.89710832535919
 20
-30.01126415916372
 10
32.18165888084357
 20
-30.01126415916372
 10
32.46589193632803
 20
-30.01126415916372
 10
32.75044249181241
 20
-30.01126415916372
 10
33.45635082496933
 20
-30.01126415916372
 10
34.14814804701837
 20
-30.01609721471821
 10
34.70726554687885
 20
-29.92790277029582
 10
34.69382471354864
 20
-29.08832693717241
 10
34.67900804688587
 20
-28.24910388182677
 10
34.66524971355607
 20
-27.4091752709256
 10
34.56121554691513
 20
-27.208162493198
 10
34.45647582471931
 20
-27.00644415991519
 10
34.35275915807862
 20
-26.80610165996528
 10
34.15915471368241
 20
-26.25767332676891
 10
33.96449193595323
 20
-25.70938610468391
 10
33.7698644360019
 20
-25.16123999370962
 10
33.71440776934922
 20
-24.79368082713479
 10
33.65859832491878
 20
-24.42520443833803
 10
33.60381193604346
 20
-24.05778638287455
 10
33.60381193604346
 20
-23.84315638292819
 10
33.60381193604346
 20
-23.62803249409302
 10
33.60381193604346
 20
-23.41234416081369
 10
33.58380943604843
 20
-23.43354610525272
 10
33.56176082494283
 20
-23.45471277191423
 10
33.54144082494788
 20
-23.47556193857551
 10
32.96404943620333
 20
-23.72931499406754
 10
32.37219415857377
 20
-24.47999082721335
 10
31.85576276981376
 20
-24.8701277715601
 10
30.95314554781741
 20
-25.56347721583123
 10
30.05155138137586
 20
-26.25767332676891
 10
29.14999249271247
 20
-26.95134027103996
 10
28.64837777061555
 20
-27.34923832649618
 10
28.29076693737179
 20
-27.92991054857314
 10
27.79641943749522
 20
-28.32523332625216
 10
27.04539082657197
 20
-28.92693110387927
 10
26.29986554898058
 20
-29.60698082593155
 10
25.44480277141672
 20
-30.09427277025417
 10
25.51818054917602
 20
-30.6205113812339
 10
26.18962249345259
 20
-31.8013291587162
 10
26.08936304903319
 20
-32.1341397141886
 10
26.03870416015685
 20
-32.26798360304428
 10
25.9536141601783
 20
-32.33307110302779
 10
25.77793082688871
 20
-32.34203165858126
 10
25.40656166031514
 20
-32.16821804751336
 10
25.17676221592792
 20
-31.77049638094633
 10
25.02894832707603
 20
-31.38480443659815
 10
25.02104610485585
 20
-31.38480443659815
 10
25.01416693819078
 20
-31.38480443659815
 10
25.00689971597043
 20
-31.38480443659815
 10
24.99141277152998
 20
-32.87239776955964
 10
26.16238804901505
 20
-33.21346332502998
 10
27.00506832658199
 20
-33.84084332487319
 10
27.21038499319744
 20
-34.02513443593817
 10
27.22040388208388
 20
-34.29282221364889
 10
27.00506832658199
 20
-34.31988026919787
 10
26.50380638226283
 20
-34.37413749140654
 10
26.15790777123831
 20
-34.05201610259827
 10
25.81892360465638
 20
-33.86151610264558
 10
25.82650832687665
 20
-33.87527443597571
 10
25.83271721576403
 20
-33.88973832486104
 10
25.83994916020654
 20
-33.90370832485726
 10
26.04353721571135
 20
-33.98587026928147
 10
26.67744360444186
 20
-34.39756193584503
 10
26.5896019377969
 20
-34.67297554688737
 10
26.5227505489249
 20
-35.12170888010849
 10
26.04939332682097
 20
-34.77997304686047
 10
25.88161221575189
 20
-34.67297554688737
 10
25.8809419379742
 20
-34.78822804685842
 10
25.88746832686151
 20
-34.79341388019068
 10
25.81892360465638
 20
-34.84026276906765
 10
25.53850054917098
 20
-34.92499999126875
 10
24.91803499377036
 20
-34.46180276916229
 10
24.73716582714915
 20
-34.34072943585914
 10
24.40573110500964
 20
-34.1178091581373
 10
23.74945860517361
 20
-33.53886554717099
 10
23.57098832744073
 20
-33.19540110281232
 10
23.55754749411052
 20
-33.08462888061768
 10
23.54343638300295
 20
-32.97403304731193
 10
23.52932527189538
 20
-32.86276693622881
 10
23.37015193860201
 20
-32.52272443631391
 10
23.21062582753056
 20
-32.18236443639877
 10
23.05042943868175
 20
-31.84267471426163
 10
22.93126110537844
 20
-31.56860165877465
 10
22.65390721655873
 20
-31.17620693665028
 10
22.71800693876496
 20
-30.76021138119888
 10
22.84994582762079
 20
-29.89964527030283
 10
23.67124777185981
 20
-28.94414665943069
 10
24.09119443842163
 20
-28.24187193738394
 10
24.78401471602611
 20
-27.08603082656188
 10
25.72522582690213
 20
-26.29090499342743
 10
26.77664471552797
 20
-25.49440332695978
 10
27.39506415981803
 20
-24.85584027156397
 10
28.01207249299704
 20
-24.21815916061225
 10
28.62872804839828
 20
-23.57945499410508
 10
28.98323443719851
 20
-23.31571832750446
 10
29.33774082599874
 20
-23.05184054979247
 10
29.69051860368833
 20
-22.78877416096953
 10
30.08256054803493
 20
-22.46531221660589
 10
30.32682388130716
 20
-21.97869055006095
 10
30.60587110345968
 20
-21.53941166128178
 10
31.03202665890857
 20
-20.87107416144874
 10
31.61393360320769
 20
-20.12607805052399
 10
32.22991888083126
 20
-19.64566527286643
 10
32.81694110290696
 20
-19.18832416186959
 10
33.52697693606255
 20
-18.82157638418348
 10
34.39481026917893
 20
-18.64624582867166
 10
34.90778443571765
 20
-18.63986055089571
 10
35.42178076298175
 20
-18.63280499534177
 10
35.93475491656136
 20
-18.62624332867662
 10
36.6747777686091
 20
-18.4562397176081
 10
37.67730070543865
 20
-17.78807860666394
 10
37.91225069944457
 20
-17.12711416238477
 10
37.89880986645414
 20
-15.7885341627195
 10
37.88434597793426
 20
-14.44871944083238
 10
37.87019958940628
 20
-13.10961027450047
 10
37.40890832398117
 20
-13.19593499670118
 10
37.21427988391796
 20
-13.02557860785457
 10
36.99583988949082
 20
-12.71428749682145
 10
36.98137600097094
 20
-12.12380805252446
 10
37.06406710997243
 20
-11.58913805265822
 10
37.30833043707408
 20
-11.25685666385247
 10
37.3927148793657
 20
-11.25064777496509
 10
37.47505321059841
 20
-11.24341583052258
 10
37.55876737512935
 20
-11.2367130527464
 10
37.55291126416764
 20
-9.472965275409525
 10
38.62846110145385
 20
-8.12595388685742
 10
40.03544370083296
 20
-7.76026444250427
 10
40.71584721204357
 20
-7.583522775882038
 10
41.33631172320061
 20
-7.895978053581637
 10
41.72112171338329
 20
-8.051694164653714
 10
43.29246445107277
 20
-8.68990444227208
 10
44.59435552896988
 20
-10.71460194176565
 10
43.49090194601021
 20
-12.63110249684211
 10
43.61490333173556
 20
-12.62679860795426
 10
43.71068249595869
 20
-12.6373113857295
 10
43.78233166079744
 20
-12.6719188857209
 10
43.81404638221056
 20
-13.30046305223059
 10
43.52910777836883
 20
-14.29180388531598
 10
42.8452833513702
 20
-14.29681332975904
 10
42.77568029759037
 20
-14.23426582977489
 10
42.70678279934809
 20
-14.17140082979051
 10
42.63753252333704
 20
-14.10920610758381
 10
42.62373891257783
 20
-14.11594416313783
 10
42.60895752406604
 20
-14.12264694091369
 10
42.59551669107562
 20
-14.12938499646772
 10
42.39122308517646
 20
-14.64098332967323
 10
42.03534087203356
 20
-15.22902860730374
 10
41.88787976468449
 20
-15.8159097182684
 10
41.60950282734203
 20
-16.92454916243541
 10
42.39845502943641
 20
-17.22772638458193
 10
43.0750475121751
 20
-17.52296610673043
 10
44.26087470414435
 20
-18.04024416215669
 10
45.82943049746049
 20
-18.32860471764012
 10
46.15497498846145
 20
-19.70800110618418
 10
46.35962020615644
 20
-20.57721027263345
 10
45.84283605267404
 20
-21.76095610567073
 10
45.65544165525262
 20
-22.43462054994674
 10
45.54897217128224
 20
-22.81720804985139
 10
45.61892800283086
 20
-23.29832638306415
 10
45.51006078338607
 20
-23.74653054961896
 10
45.39152745307677
 20
-24.10618749397361
 10
45.27440523384259
 20
-24.46774943832746
 10
45.15590832204443
 20
-24.82846471601507
 10
44.948156353277
 20
-25.18900360481381
 10
44.7390296919456
 20
-25.54968360472358
 10
44.53060858615175
 20
-25.91057527130007
 10
44.25431303764508
 20
-26.79146138219106
 10
43.9759713780795
 20
-27.67273554863734
 10
43.69826471849773
 20
-28.55415082619466
 10
43.39822722615231
 20
-29.87174054808762
 10
44.31047525843449
 20
-30.53076471458942
 10
44.69803691521363
 20
-31.30161943661913
 10
44.92437913166138
 20
-31.75155221428427
 10
45.11110554427771
 20
-32.43297776966943
 10
45.17657995856054
 20
-32.96680110286942
 10
45.55070078234925
 20
-32.97403304731193
 10
45.92623271721308
 20
-32.98077110286595
 10
46.30070631877057
 20
-32.98729749175325
 10
46.61316158857695
 20
-32.87656054733645
 10
46.92529935839143
 20
-32.76578832514182
 10
47.23743712820591
 20
-32.65469860294758
 10
47.93057488830027
 20
-32.58509554740917
 10
48.62579403723042
 20
-32.51513971409332
 10
49.31896707510166
 20
-32.44641860299964
 10
49.62348609870555
 20
-32.41128193634159
 10
49.92909622620263
 20
-32.37667443635019
 10
50.23431955174907
 20
-32.34203165858126
 10
50.5254317665444
 20
-32.41953693633954
 10
50.75382009405106
 20
-32.69343360293764
 10
50.90025814587067
 20
-32.92496165843551
 10
50.90025814587067
 20
-32.9323699917669
 10
50.90025814587067
 20
-32.93907276954308
 10
50.90025814587067
 20
-32.94630471398558
 10
50.71353287285665
 20
-33.02952499174276
 10
50.5254317665444
 20
-33.11200443616658
 10
50.33905927129916
 20
-33.19540110281232
 10
50.33905927129916
 20
-33.2028094361437
 10
50.33905927129916
 20
-33.209335825031
 10
50.33905927129916
 20
-33.21656776947351
 10
51.33124674598635
 20
-33.21572110280727
 10
52.26967220915454
 20
-33.2281036028042
 10
53.23155475306101
 20
-33.23776971391287
 10
53.25254503030328
 20
-33.28581804723416
 10
53.27357058532243
 20
-33.33457193611066
 10
53.2942433625728
 20
-33.38332582498747
 10
54.25164694925851
 20
-33.40346943609354
 10
55.20901665286427
 20
-33.42414221386625
 10
56.16712440039061
 20
-33.44566165830521
 10
56.16712440039061
 20
-33.49356888051547
 10
56.16712440039061
 20
-33.5426402693922
 10
56.16712440039061
 20
-33.59107665826878
 10
56.71417688643414
 20
-33.67479082491475
 10
57.26334603909033
 20
-33.75797582489377
 10
57.81110554110271
 20
-33.84084332487319
 97
        0
 92
        1
 93
        1
 72
     4
 94
        3
 73
     0
 74
     1
 95
       17
 96
       13
 40
0.0
 40
0.0
 40
0.0
 40
0.0
 40
1.0
 40
1.0
 40
1.0
 40
2.0
 40
2.0
 40
2.0
 40
3.0
 40
3.0
 40
3.0
 40
4.0
 40
4.0
 40
4.0
 40
4.0
 10
34.08231971370149
 20
-33.17490471392848
 10
33.76330276933707
 20
-33.41070138053637
 10
33.44396832497241
 20
-33.64688610269953
 10
33.12459860282991
 20
-33.88303554708486
 10
32.62711138073196
 20
-34.10556776925142
 10
31.73035026984523
 20
-34.36309554696466
 10
31.37690221437796
 20
-34.71537943576576
 10
32.14722776974104
 20
-34.52759582470133
 10
32.91649499177084
 20
-34.34072943585914
 10
33.686503047134
 20
-34.15294582479503
 10
33.85668304709141
 20
-34.04220888037823
 10
34.14021054702066
 20
-33.40847888053692
 10
34.08231971370149
 20
-33.17490471392848
 97
        0
 75
     0
 76
     1
 98
        0
  0
ENDBLK
  5
44
330
41
100
AcDbEntity
  8
0
100
AcDbBlockEnd
  0
ENDSEC
  0
SECTION
  2
ENTITIES
  0
INSERT
  5
42
330
1F
100
AcDbEntity
  8
Layer 1
100
AcDbBlockReference
  2
block 2
 10
0.0
 20
0.0
 30
0.0
  0
ENDSEC
  0
SECTION
  2
OBJECTS
  0
DICTIONARY
  5
C
330
0
100
AcDbDictionary
281
     1
  3
ACAD_GROUP
350
D
  3
ACAD_LAYOUT
350
1A
  3
ACAD_MATERIAL
350
3B
  3
ACAD_MLEADERSTYLE
350
69
  3
ACAD_MLINESTYLE
350
17
  3
ACAD_PLOTSETTINGS
350
19
  3
ACAD_PLOTSTYLENAME
350
E
  3
ACAD_TABLESTYLE
350
68
  3
ACAD_VISUALSTYLE
350
2A
  0
SUN
  5
3F
330
29
100
AcDbSun
 90
        1
290
     0
 63
     7
421
 16777215
 40
1.0
291
     1
 91
  2455826
 92
 54000000
292
     0
 70
     2
 71
   256
280
     1
  0
DICTIONARY
  5
D
102
{ACAD_REACTORS
330
C
102
}
330
C
100
AcDbDictionary
281
     1
  0
DICTIONARY
  5
1A
102
{ACAD_REACTORS
330
C
102
}
330
C
100
AcDbDictionary
281
     1
  3
Layout1
350
1E
  3
Layout2
350
26
  3
Model
350
22
  0
DICTIONARY
  5
3B
102
{ACAD_REACTORS
330
C
102
}
330
C
100
AcDbDictionary
281
     1
  3
ByBlock
350
3D
  3
ByLayer
350
3C
  3
Global
350
3E
  0
DICTIONARY
  5
69
102
{ACAD_REACTORS
330
C
102
}
330
C
100
AcDbDictionary
281
     1
  0
DICTIONARY
  5
17
102
{ACAD_REACTORS
330
C
102
}
330
C
100
AcDbDictionary
281
     1
  3
Standard
350
18
  0
DICTIONARY
  5
19
102
{ACAD_REACTORS
330
C
102
}
330
C
100
AcDbDictionary
281
     1
  0
ACDBDICTIONARYWDFLT
  5
E
102
{ACAD_REACTORS
330
C
102
}
330
C
100
AcDbDictionary
281
     1
  3
Normal
350
F
100
AcDbDictionaryWithDefault
340
F
  0
DICTIONARY
  5
68
102
{ACAD_REACTORS
330
C
102
}
330
C
100
AcDbDictionary
281
     1
  0
DICTIONARY
  5
2A
102
{ACAD_REACTORS
330
C
102
}
330
C
100
AcDbDictionary
281
     1
  3
2dWireframe
350
2F
  3
3D Hidden
350
31
  3
3dWireframe
350
30
  3
Basic
350
32
  3
Brighten
350
36
  3
ColorChange
350
3A
  3
Conceptual
350
34
  3
Dim
350
35
  3
Facepattern
350
39
  3
Flat
350
2B
  3
FlatWithEdges
350
2C
  3
Gouraud
350
2D
  3
GouraudWithEdges
350
2E
  3
Linepattern
350
38
  3
Realistic
350
33
  3
Thicken
350
37
  0
LAYOUT
  5
1E
102
{ACAD_REACTORS
330
1A
102
}
330
1A
100
AcDbPlotSettings
  1

  2
none_device
  4

  6

 40
0.0
 41
0.0
 42
0.0
 43
0.0
 44
0.0
 45
0.0
 46
0.0
 47
0.0
 48
0.0
 49
0.0
140
0.0
141
0.0
142
1.0
143
1.0
 70
   688
 72
     0
 73
     0
 74
     5
  7

 75
    16
 76
     0
 77
     2
 78
   300
147
1.0
148
0.0
149
0.0
100
AcDbLayout
  1
Layout1
 70
     1
 71
     1
 10
0.0
 20
0.0
 11
12.0
 21
9.0
 12
0.0
 22
0.0
 32
0.0
 14
1.000000000000000E+20
 24
1.000000000000000E+20
 34
1.000000000000000E+20
 15
-1.000000000000000E+20
 25
-1.000000000000000E+20
 35
-1.000000000000000E+20
146
0.0
 13
0.0
 23
0.0
 33
0.0
 16
1.0
 26
0.0
 36
0.0
 17
0.0
 27
1.0
 37
0.0
 76
     0
330
1B
  0
LAYOUT
  5
26
102
{ACAD_REACTORS
330
1A
102
}
330
1A
100
AcDbPlotSettings
  1

  2
none_device
  4

  6

 40
0.0
 41
0.0
 42
0.0
 43
0.0
 44
0.0
 45
0.0
 46
0.0
 47
0.0
 48
0.0
 49
0.0
140
0.0
141
0.0
142
1.0
143
1.0
 70
   688
 72
     0
 73
     0
 74
     5
  7

 75
    16
 76
     0
 77
     2
 78
   300
147
1.0
148
0.0
149
0.0
100
AcDbLayout
  1
Layout2
 70
     1
 71
     2
 10
0.0
 20
0.0
 11
0.0
 21
0.0
 12
0.0
 22
0.0
 32
0.0
 14
0.0
 24
0.0
 34
0.0
 15
0.0
 25
0.0
 35
0.0
146
0.0
 13
0.0
 23
0.0
 33
0.0
 16
1.0
 26
0.0
 36
0.0
 17
0.0
 27
1.0
 37
0.0
 76
     0
330
23
  0
LAYOUT
  5
22
102
{ACAD_REACTORS
330
1A
102
}
330
1A
100
AcDbPlotSettings
  1

  2
none_device
  4

  6

 40
0.0
 41
0.0
 42
0.0
 43
0.0
 44
0.0
 45
0.0
 46
0.0
 47
0.0
 48
0.0
 49
0.0
140
0.0
141
0.0
142
1.0
143
1.0
 70
  1712
 72
     0
 73
     0
 74
     0
  7

 75
     0
 76
     0
 77
     2
 78
   300
147
1.0
148
0.0
149
0.0
100
AcDbLayout
  1
Model
 70
     1
 71
     0
 10
0.0
 20
0.0
 11
12.0
 21
9.0
 12
0.0
 22
0.0
 32
0.0
 14
1.000000000000000E+20
 24
1.000000000000000E+20
 34
1.000000000000000E+20
 15
-1.000000000000000E+20
 25
-1.000000000000000E+20
 35
-1.000000000000000E+20
146
0.0
 13
0.0
 23
0.0
 33
0.0
 16
1.0
 26
0.0
 36
0.0
 17
0.0
 27
1.0
 37
0.0
 76
     0
330
1F
331
29
  0
MATERIAL
  5
3D
102
{ACAD_REACTORS
330
3B
102
}
330
3B
100
AcDbMaterial
  1
ByBlock
 72
     1
 94
      127
  0
MATERIAL
  5
3C
102
{ACAD_REACTORS
330
3B
102
}
330
3B
100
AcDbMaterial
  1
ByLayer
 72
     1
 94
      127
  0
MATERIAL
  5
3E
102
{ACAD_REACTORS
330
3B
102
}
330
3B
100
AcDbMaterial
  1
Global
 72
     1
 94
      127
  0
MLINESTYLE
  5
18
102
{ACAD_REACTORS
330
17
102
}
330
17
100
AcDbMlineStyle
  2
Standard
 70
     0
  3

 62
   256
 51
90.0
 52
90.0
 71
     2
 49
0.5
 62
   256
  6
BYLAYER
 49
-0.5
 62
   256
  6
BYLAYER
  0
ACDBPLACEHOLDER
  5
F
102
{ACAD_REACTORS
330
E
102
}
330
E
  0
VISUALSTYLE
  5
2F
102
{ACAD_REACTORS
330
2A
102
}
102
{ACAD_XDICTIONARY
360
50
102
}
330
2A
100
AcDbVisualStyle
  2
2dWireframe
 70
     4
 71
     0
 72
     2
 73
     0
 90
        0
 40
-0.6
 41
-30.0
 62
     5
 63
     7
421
 16777215
 74
     1
 91
        4
 64
     7
 65
   257
 75
     1
175
     1
 42
1.0
 92
        0
 66
   257
 43
1.0
 76
     1
 77
     6
 78
     2
 67
     7
 79
     5
170
     0
171
     0
290
     0
174
     0
 93
        1
 44
0.0
173
     0
291
     0
 45
0.0
  0
VISUALSTYLE
  5
31
102
{ACAD_REACTORS
330
2A
102
}
102
{ACAD_XDICTIONARY
360
54
102
}
330
2A
100
AcDbVisualStyle
  2
3D Hidden
 70
     6
 71
     1
 72
     2
 73
     2
 90
        0
 40
-0.6
 41
-30.0
 62
     5
 63
     7
421
 16777215
 74
     2
 91
        2
 64
     7
 65
   257
 75
     2
175
     1
 42
40.0
 92
        0
 66
   257
 43
1.0
 76
     1
 77
     6
 78
     2
 67
     7
 79
     3
170
     0
171
     0
290
     0
174
     0
 93
        1
 44
0.0
173
     0
291
     0
 45
0.0
  0
VISUALSTYLE
  5
30
102
{ACAD_REACTORS
330
2A
102
}
102
{ACAD_XDICTIONARY
360
52
102
}
330
2A
100
AcDbVisualStyle
  2
3dWireframe
 70
     5
 71
     0
 72
     2
 73
     0
 90
        0
 40
-0.6
 41
-30.0
 62
     5
 63
     7
421
 16777215
 74
     1
 91
        4
 64
     7
 65
   257
 75
     1
175
     1
 42
1.0
 92
        0
 66
   257
 43
1.0
 76
     1
 77
     6
 78
     2
 67
     7
 79
     5
170
     0
171
     0
290
     0
174
     0
 93
        1
 44
0.0
173
     0
291
     0
 45
0.0
  0
VISUALSTYLE
  5
32
102
{ACAD_REACTORS
330
2A
102
}
102
{ACAD_XDICTIONARY
360
56
102
}
330
2A
100
AcDbVisualStyle
  2
Basic
 70
     7
 71
     1
 72
     0
 73
     1
 90
        0
 40
-0.6
 41
-30.0
 62
     5
 63
     7
421
 16777215
 74
     0
 91
        4
 64
     7
 65
   257
 75
     1
175
     1
 42
1.0
 92
        8
 66
     7
 43
1.0
 76
     1
 77
     6
 78
     2
 67
     7
 79
     5
170
     0
171
     0
290
     0
174
     0
 93
        1
 44
0.0
173
     0
291
     1
 45
0.0
  0
VISUALSTYLE
  5
36
102
{ACAD_REACTORS
330
2A
102
}
102
{ACAD_XDICTIONARY
360
5E
102
}
330
2A
100
AcDbVisualStyle
  2
Brighten
 70
    12
 71
     2
 72
     2
 73
     0
 90
        0
 40
-0.6
 41
-30.0
 62
     5
 63
     7
421
 16777215
 74
     1
 91
        4
 64
     7
 65
   257
 75
     1
175
     1
 42
1.0
 92
        8
 66
     7
 43
1.0
 76
     1
 77
     6
 78
     2
 67
     7
 79
     5
170
     0
171
     0
290
     0
174
     0
 93
        1
 44
50.0
173
     0
291
     1
 45
0.0
  0
VISUALSTYLE
  5
3A
102
{ACAD_REACTORS
330
2A
102
}
102
{ACAD_XDICTIONARY
360
66
102
}
330
2A
100
AcDbVisualStyle
  2
ColorChange
 70
    16
 71
     2
 72
     2
 73
     3
 90
        0
 40
-0.6
 41
-30.0
 62
     5
 63
     8
421
  8421504
 74
     1
 91
        4
 64
     7
 65
   257
 75
     1
175
     1
 42
1.0
 92
        8
 66
     8
424
  8421504
 43
1.0
 76
     1
 77
     6
 78
     2
 67
     7
 79
     5
170
     0
171
     0
290
     0
174
     0
 93
        1
 44
0.0
173
     0
291
     1
 45
0.0
  0
VISUALSTYLE
  5
34
102
{ACAD_REACTORS
330
2A
102
}
102
{ACAD_XDICTIONARY
360
5A
102
}
330
2A
100
AcDbVisualStyle
  2
Conceptual
 70
     9
 71
     3
 72
     2
 73
     0
 90
        0
 40
-0.6
 41
-30.0
 62
     5
 63
     7
421
 16777215
 74
     2
 91
        2
 64
     7
 65
   257
 75
     1
175
     1
 42
40.0
 92
        8
 66
     7
 43
1.0
 76
     1
 77
     6
 78
     2
 67
     7
 79
     3
170
     0
171
     0
290
     0
174
     0
 93
        1
 44
0.0
173
     0
291
     0
 45
0.0
  0
VISUALSTYLE
  5
35
102
{ACAD_REACTORS
330
2A
102
}
102
{ACAD_XDICTIONARY
360
5C
102
}
330
2A
100
AcDbVisualStyle
  2
Dim
 70
    11
 71
     2
 72
     2
 73
     0
 90
        0
 40
-0.6
 41
-30.0
 62
     5
 63
     7
421
 16777215
 74
     1
 91
        4
 64
     7
 65
   257
 75
     1
175
     1
 42
1.0
 92
        8
 66
     7
 43
1.0
 76
     1
 77
     6
 78
     2
 67
     7
 79
     5
170
     0
171
     0
290
     0
174
     0
 93
        1
 44
-50.0
173
     0
291
     1
 45
0.0
  0
VISUALSTYLE
  5
39
102
{ACAD_REACTORS
330
2A
102
}
102
{ACAD_XDICTIONARY
360
64
102
}
330
2A
100
AcDbVisualStyle
  2
Facepattern
 70
    15
 71
     2
 72
     2
 73
     0
 90
        0
 40
-0.6
 41
-30.0
 62
     5
 63
     7
421
 16777215
 74
     1
 91
        4
 64
     7
 65
   257
 75
     1
175
     1
 42
1.0
 92
        8
 66
     7
 43
1.0
 76
     1
 77
     6
 78
     2
 67
     7
 79
     5
170
     0
171
     0
290
     0
174
     0
 93
        1
 44
0.0
173
     0
291
     1
 45
0.0
  0
VISUALSTYLE
  5
2B
102
{ACAD_REACTORS
330
2A
102
}
102
{ACAD_XDICTIONARY
360
48
102
}
330
2A
100
AcDbVisualStyle
  2
Flat
 70
     0
 71
     2
 72
     1
 73
     1
 90
        2
 40
-0.6
 41
30.0
 62
     5
 63
     7
421
 16777215
 74
     0
 91
        4
 64
     7
 65
   257
 75
     1
175
     1
 42
1.0
 92
        8
 66
     7
 43
1.0
 76
     1
 77
     6
 78
     2
 67
     7
 79
     5
170
     0
171
     0
290
     0
174
     0
 93
       13
 44
0.0
173
     0
291
     1
 45
0.0
  0
VISUALSTYLE
  5
2C
102
{ACAD_REACTORS
330
2A
102
}
102
{ACAD_XDICTIONARY
360
4A
102
}
330
2A
100
AcDbVisualStyle
  2
FlatWithEdges
 70
     1
 71
     2
 72
     1
 73
     1
 90
        2
 40
-0.6
 41
30.0
 62
     5
 63
     7
421
 16777215
 74
     1
 91
        4
 64
     7
 65
   257
 75
     1
175
     1
 42
1.0
 92
        0
 66
   257
 43
1.0
 76
     1
 77
     6
 78
     2
 67
     7
 79
     5
170
     0
171
     0
290
     0
174
     0
 93
       13
 44
0.0
173
     0
291
     1
 45
0.0
  0
VISUALSTYLE
  5
2D
102
{ACAD_REACTORS
330
2A
102
}
102
{ACAD_XDICTIONARY
360
4C
102
}
330
2A
100
AcDbVisualStyle
  2
Gouraud
 70
     2
 71
     2
 72
     2
 73
     1
 90
        2
 40
-0.6
 41
30.0
 62
     5
 63
     7
421
 16777215
 74
     0
 91
        4
 64
     7
 65
   257
 75
     1
175
     1
 42
1.0
 92
        0
 66
     7
 43
1.0
 76
     1
 77
     6
 78
     2
 67
     7
 79
     5
170
     0
171
     0
290
     0
174
     0
 93
       13
 44
0.0
173
     0
291
     1
 45
0.0
  0
VISUALSTYLE
  5
2E
102
{ACAD_REACTORS
330
2A
102
}
102
{ACAD_XDICTIONARY
360
4E
102
}
330
2A
100
AcDbVisualStyle
  2
GouraudWithEdges
 70
     3
 71
     2
 72
     2
 73
     1
 90
        2
 40
-0.6
 41
30.0
 62
     5
 63
     7
421
 16777215
 74
     1
 91
        4
 64
     7
 65
   257
 75
     1
175
     1
 42
1.0
 92
        0
 66
   257
 43
1.0
 76
     1
 77
     6
 78
     2
 67
     7
 79
     5
170
     0
171
     0
290
     0
174
     0
 93
       13
 44
0.0
173
     0
291
     1
 45
0.0
  0
VISUALSTYLE
  5
38
102
{ACAD_REACTORS
330
2A
102
}
102
{ACAD_XDICTIONARY
360
62
102
}
330
2A
100
AcDbVisualStyle
  2
Linepattern
 70
    14
 71
     2
 72
     2
 73
     0
 90
        0
 40
-0.6
 41
-30.0
 62
     5
 63
     7
421
 16777215
 74
     1
 91
        4
 64
     7
 65
   257
 75
     7
175
     7
 42
1.0
 92
        8
 66
     7
 43
1.0
 76
     1
 77
     6
 78
     2
 67
     7
 79
     5
170
     0
171
     0
290
     0
174
     0
 93
        1
 44
0.0
173
     0
291
     1
 45
0.0
  0
VISUALSTYLE
  5
33
102
{ACAD_REACTORS
330
2A
102
}
102
{ACAD_XDICTIONARY
360
58
102
}
330
2A
100
AcDbVisualStyle
  2
Realistic
 70
     8
 71
     2
 72
     2
 73
     0
 90
        0
 40
-0.6
 41
-30.0
 62
     5
 63
     7
421
 16777215
 74
     1
 91
        0
 64
     7
 65
   257
 75
     1
175
     1
 42
1.0
 92
        8
 66
     8
424
  7895160
 43
1.0
 76
     1
 77
     6
 78
     2
 67
     7
 79
     5
170
     0
171
     0
290
     0
174
     0
 93
       13
 44
0.0
173
     0
291
     0
 45
0.0
  0
VISUALSTYLE
  5
37
102
{ACAD_REACTORS
330
2A
102
}
102
{ACAD_XDICTIONARY
360
60
102
}
330
2A
100
AcDbVisualStyle
  2
Thicken
 70
    13
 71
     2
 72
     2
 73
     0
 90
        0
 40
-0.6
 41
-30.0
 62
     5
 63
     7
421
 16777215
 74
     1
 91
        4
 64
     7
 65
   257
 75
     1
175
     1
 42
1.0
 92
       12
 66
     7
 43
1.0
 76
     1
 77
     6
 78
     2
 67
     7
 79
     5
170
     0
171
     0
290
     0
174
     0
 93
        1
 44
0.0
173
     0
291
     1
 45
0.0
  0
DICTIONARY
  5
50
330
2F
100
AcDbDictionary
280
     1
281
     1
  3
ACAD_XREC_ROUNDTRIP
360
51
  0
DICTIONARY
  5
54
330
31
100
AcDbDictionary
280
     1
281
     1
  3
ACAD_XREC_ROUNDTRIP
360
55
  0
DICTIONARY
  5
52
330
30
100
AcDbDictionary
280
     1
281
     1
  3
ACAD_XREC_ROUNDTRIP
360
53
  0
DICTIONARY
  5
56
330
32
100
AcDbDictionary
280
     1
281
     1
  3
ACAD_XREC_ROUNDTRIP
360
57
  0
DICTIONARY
  5
5E
330
36
100
AcDbDictionary
280
     1
281
     1
  3
ACAD_XREC_ROUNDTRIP
360
5F
  0
DICTIONARY
  5
66
330
3A
100
AcDbDictionary
280
     1
281
     1
  3
ACAD_XREC_ROUNDTRIP
360
67
  0
DICTIONARY
  5
5A
330
34
100
AcDbDictionary
280
     1
281
     1
  3
ACAD_XREC_ROUNDTRIP
360
5B
  0
DICTIONARY
  5
5C
330
35
100
AcDbDictionary
280
     1
281
     1
  3
ACAD_XREC_ROUNDTRIP
360
5D
  0
DICTIONARY
  5
64
330
39
100
AcDbDictionary
280
     1
281
     1
  3
ACAD_XREC_ROUNDTRIP
360
65
  0
DICTIONARY
  5
48
330
2B
100
AcDbDictionary
280
     1
281
     1
  3
ACAD_XREC_ROUNDTRIP
360
49
  0
DICTIONARY
  5
4A
330
2C
100
AcDbDictionary
280
     1
281
     1
  3
ACAD_XREC_ROUNDTRIP
360
4B
  0
DICTIONARY
  5
4C
330
2D
100
AcDbDictionary
280
     1
281
     1
  3
ACAD_XREC_ROUNDTRIP
360
4D
  0
DICTIONARY
  5
4E
330
2E
100
AcDbDictionary
280
     1
281
     1
  3
ACAD_XREC_ROUNDTRIP
360
4F
  0
DICTIONARY
  5
62
330
38
100
AcDbDictionary
280
     1
281
     1
  3
ACAD_XREC_ROUNDTRIP
360
63
  0
DICTIONARY
  5
58
330
33
100
AcDbDictionary
280
     1
281
     1
  3
ACAD_XREC_ROUNDTRIP
360
59
  0
DICTIONARY
  5
60
330
37
100
AcDbDictionary
280
     1
281
     1
  3
ACAD_XREC_ROUNDTRIP
360
61
  0
XRECORD
  5
51
102
{ACAD_REACTORS
330
50
102
}
330
50
100
AcDbXrecord
280
     1
102
RTVSPropertyOp0
 70
     1
102
RTVSPropertyOp1
 70
     1
102
RTVSPropertyOp2
 70
     1
102
RTVSPropertyOp3
 70
     1
102
RTVSPropertyOp4
 70
     1
102
RTVSPropertyOp5
 70
     1
102
RTVSPropertyOp6
 70
     1
102
RTVSPropertyOp7
 70
     1
102
RTVSPropertyOp8
 70
     1
102
RTVSPropertyOp9
 70
     1
102
RTVSPropertyOp10
 70
     1
102
RTVSPropertyOp11
 70
     1
102
RTVSPropertyOp12
 70
     1
102
RTVSPropertyOp13
 70
     1
102
RTVSPropertyOp14
 70
     1
102
RTVSPropertyOp15
 70
     1
102
RTVSPropertyOp16
 70
     1
102
RTVSPropertyOp17
 70
     1
102
RTVSPropertyOp18
 70
     1
102
RTVSPropertyOp19
 70
     1
102
RTVSPropertyOp20
 70
     1
102
RTVSPropertyOp21
 70
     1
102
RTVSPropertyOp22
 70
     1
102
RTVSPropertyOp23
 70
     1
102
RTVSPropertyOp24
 70
     1
102
RTVSPropertyOp25
 70
     1
102
RTVSPropertyOp26
 70
     1
102
RTVSPropertyOp27
 70
     1
102
RTVSPropertyOp28
 70
     1
102
RTVSPropertyOp29
 70
     1
102
RTVSPropertyOp30
 70
     1
102
RTVSPropertyOp31
 70
     1
102
RTVSPropertyOp32
 70
     1
  0
XRECORD
  5
55
102
{ACAD_REACTORS
330
54
102
}
330
54
100
AcDbXrecord
280
     1
102
RTVSPropertyOp0
 70
     1
102
RTVSPropertyOp1
 70
     1
102
RTVSPropertyOp2
 70
     1
102
RTVSPropertyOp3
 70
     1
102
RTVSPropertyOp4
 70
     1
102
RTVSPropertyOp5
 70
     1
102
RTVSPropertyOp6
 70
     1
102
RTVSPropertyOp7
 70
     1
102
RTVSPropertyOp8
 70
     1
102
RTVSPropertyOp9
 70
     1
102
RTVSPropertyOp10
 70
     1
102
RTVSPropertyOp11
 70
     1
102
RTVSPropertyOp12
 70
     1
102
RTVSPropertyOp13
 70
     1
102
RTVSPropertyOp14
 70
     1
102
RTVSPropertyOp15
 70
     1
102
RTVSPropertyOp16
 70
     1
102
RTVSPropertyOp17
 70
     1
102
RTVSPropertyOp18
 70
     1
102
RTVSPropertyOp19
 70
     1
102
RTVSPropertyOp20
 70
     1
102
RTVSPropertyOp21
 70
     1
102
RTVSPropertyOp22
 70
     1
102
RTVSPropertyOp23
 70
     1
102
RTVSPropertyOp24
 70
     1
102
RTVSPropertyOp25
 70
     1
102
RTVSPropertyOp26
 70
     1
102
RTVSPropertyOp27
 70
     1
102
RTVSPropertyOp28
 70
     1
102
RTVSPropertyOp29
 70
     1
102
RTVSPropertyOp30
 70
     1
102
RTVSPropertyOp31
 70
     1
102
RTVSPropertyOp32
 70
     1
  0
XRECORD
  5
53
102
{ACAD_REACTORS
330
52
102
}
330
52
100
AcDbXrecord
280
     1
102
RTVSPropertyOp0
 70
     1
102
RTVSPropertyOp1
 70
     1
102
RTVSPropertyOp2
 70
     1
102
RTVSPropertyOp3
 70
     1
102
RTVSPropertyOp4
 70
     1
102
RTVSPropertyOp5
 70
     1
102
RTVSPropertyOp6
 70
     1
102
RTVSPropertyOp7
 70
     1
102
RTVSPropertyOp8
 70
     1
102
RTVSPropertyOp9
 70
     1
102
RTVSPropertyOp10
 70
     1
102
RTVSPropertyOp11
 70
     1
102
RTVSPropertyOp12
 70
     1
102
RTVSPropertyOp13
 70
     1
102
RTVSPropertyOp14
 70
     1
102
RTVSPropertyOp15
 70
     1
102
RTVSPropertyOp16
 70
     1
102
RTVSPropertyOp17
 70
     1
102
RTVSPropertyOp18
 70
     1
102
RTVSPropertyOp19
 70
     1
102
RTVSPropertyOp20
 70
     1
102
RTVSPropertyOp21
 70
     1
102
RTVSPropertyOp22
 70
     1
102
RTVSPropertyOp23
 70
     1
102
RTVSPropertyOp24
 70
     1
102
RTVSPropertyOp25
 70
     1
102
RTVSPropertyOp26
 70
     1
102
RTVSPropertyOp27
 70
     1
102
RTVSPropertyOp28
 70
     1
102
RTVSPropertyOp29
 70
     1
102
RTVSPropertyOp30
 70
     1
102
RTVSPropertyOp31
 70
     1
102
RTVSPropertyOp32
 70
     1
  0
XRECORD
  5
57
102
{ACAD_REACTORS
330
56
102
}
330
56
100
AcDbXrecord
280
     1
102
RTVSPropertyOp0
 70
     1
102
RTVSPropertyOp1
 70
     1
102
RTVSPropertyOp2
 70
     1
102
RTVSPropertyOp3
 70
     1
102
RTVSPropertyOp4
 70
     1
102
RTVSPropertyOp5
 70
     1
102
RTVSPropertyOp6
 70
     1
102
RTVSPropertyOp7
 70
     1
102
RTVSPropertyOp8
 70
     1
102
RTVSPropertyOp9
 70
     1
102
RTVSPropertyOp10
 70
     1
102
RTVSPropertyOp11
 70
     1
102
RTVSPropertyOp12
 70
     1
102
RTVSPropertyOp13
 70
     1
102
RTVSPropertyOp14
 70
     1
102
RTVSPropertyOp15
 70
     1
102
RTVSPropertyOp16
 70
     1
102
RTVSPropertyOp17
 70
     1
102
RTVSPropertyOp18
 70
     1
102
RTVSPropertyOp19
 70
     1
102
RTVSPropertyOp20
 70
     1
102
RTVSPropertyOp21
 70
     1
102
RTVSPropertyOp22
 70
     1
102
RTVSPropertyOp23
 70
     1
102
RTVSPropertyOp24
 70
     1
102
RTVSPropertyOp25
 70
     1
102
RTVSPropertyOp26
 70
     1
102
RTVSPropertyOp27
 70
     1
102
RTVSPropertyOp28
 70
     1
102
RTVSPropertyOp29
 70
     1
102
RTVSPropertyOp30
 70
     1
102
RTVSPropertyOp31
 70
     1
102
RTVSPropertyOp32
 70
     1
  0
XRECORD
  5
5F
102
{ACAD_REACTORS
330
5E
102
}
330
5E
100
AcDbXrecord
280
     1
102
RTVSPropertyOp0
 70
     1
102
RTVSPropertyOp1
 70
     1
102
RTVSPropertyOp2
 70
     1
102
RTVSPropertyOp3
 70
     1
102
RTVSPropertyOp4
 70
     1
102
RTVSPropertyOp5
 70
     1
102
RTVSPropertyOp6
 70
     1
102
RTVSPropertyOp7
 70
     1
102
RTVSPropertyOp8
 70
     1
102
RTVSPropertyOp9
 70
     1
102
RTVSPropertyOp10
 70
     1
102
RTVSPropertyOp11
 70
     1
102
RTVSPropertyOp12
 70
     1
102
RTVSPropertyOp13
 70
     1
102
RTVSPropertyOp14
 70
     1
102
RTVSPropertyOp15
 70
     1
102
RTVSPropertyOp16
 70
     1
102
RTVSPropertyOp17
 70
     1
102
RTVSPropertyOp18
 70
     1
102
RTVSPropertyOp19
 70
     1
102
RTVSPropertyOp20
 70
     1
102
RTVSPropertyOp21
 70
     1
102
RTVSPropertyOp22
 70
     1
102
RTVSPropertyOp23
 70
     1
102
RTVSPropertyOp24
 70
     1
102
RTVSPropertyOp25
 70
     1
102
RTVSPropertyOp26
 70
     1
102
RTVSPropertyOp27
 70
     1
102
RTVSPropertyOp28
 70
     1
102
RTVSPropertyOp29
 70
     1
102
RTVSPropertyOp30
 70
     1
102
RTVSPropertyOp31
 70
     1
102
RTVSPropertyOp32
 70
     1
  0
XRECORD
  5
67
102
{ACAD_REACTORS
330
66
102
}
330
66
100
AcDbXrecord
280
     1
102
RTVSPropertyOp0
 70
     1
102
RTVSPropertyOp1
 70
     1
102
RTVSPropertyOp2
 70
     1
102
RTVSPropertyOp3
 70
     1
102
RTVSPropertyOp4
 70
     1
102
RTVSPropertyOp5
 70
     1
102
RTVSPropertyOp6
 70
     1
102
RTVSPropertyOp7
 70
     1
102
RTVSPropertyOp8
 70
     1
102
RTVSPropertyOp9
 70
     1
102
RTVSPropertyOp10
 70
     1
102
RTVSPropertyOp11
 70
     1
102
RTVSPropertyOp12
 70
     1
102
RTVSPropertyOp13
 70
     1
102
RTVSPropertyOp14
 70
     1
102
RTVSPropertyOp15
 70
     1
102
RTVSPropertyOp16
 70
     1
102
RTVSPropertyOp17
 70
     1
102
RTVSPropertyOp18
 70
     1
102
RTVSPropertyOp19
 70
     1
102
RTVSPropertyOp20
 70
     1
102
RTVSPropertyOp21
 70
     1
102
RTVSPropertyOp22
 70
     1
102
RTVSPropertyOp23
 70
     1
102
RTVSPropertyOp24
 70
     1
102
RTVSPropertyOp25
 70
     1
102
RTVSPropertyOp26
 70
     1
102
RTVSPropertyOp27
 70
     1
102
RTVSPropertyOp28
 70
     1
102
RTVSPropertyOp29
 70
     1
102
RTVSPropertyOp30
 70
     1
102
RTVSPropertyOp31
 70
     1
102
RTVSPropertyOp32
 70
     1
  0
XRECORD
  5
5B
102
{ACAD_REACTORS
330
5A
102
}
330
5A
100
AcDbXrecord
280
     1
102
RTVSPropertyOp0
 70
     1
102
RTVSPropertyOp1
 70
     1
102
RTVSPropertyOp2
 70
     1
102
RTVSPropertyOp3
 70
     1
102
RTVSPropertyOp4
 70
     1
102
RTVSPropertyOp5
 70
     1
102
RTVSPropertyOp6
 70
     1
102
RTVSPropertyOp7
 70
     1
102
RTVSPropertyOp8
 70
     1
102
RTVSPropertyOp9
 70
     1
102
RTVSPropertyOp10
 70
     1
102
RTVSPropertyOp11
 70
     1
102
RTVSPropertyOp12
 70
     1
102
RTVSPropertyOp13
 70
     1
102
RTVSPropertyOp14
 70
     1
102
RTVSPropertyOp15
 70
     1
102
RTVSPropertyOp16
 70
     1
102
RTVSPropertyOp17
 70
     1
102
RTVSPropertyOp18
 70
     1
102
RTVSPropertyOp19
 70
     1
102
RTVSPropertyOp20
 70
     1
102
RTVSPropertyOp21
 70
     1
102
RTVSPropertyOp22
 70
     1
102
RTVSPropertyOp23
 70
     1
102
RTVSPropertyOp24
 70
     1
102
RTVSPropertyOp25
 70
     1
102
RTVSPropertyOp26
 70
     1
102
RTVSPropertyOp27
 70
     1
102
RTVSPropertyOp28
 70
     1
102
RTVSPropertyOp29
 70
     1
102
RTVSPropertyOp30
 70
     1
102
RTVSPropertyOp31
 70
     1
102
RTVSPropertyOp32
 70
     1
  0
XRECORD
  5
5D
102
{ACAD_REACTORS
330
5C
102
}
330
5C
100
AcDbXrecord
280
     1
102
RTVSPropertyOp0
 70
     1
102
RTVSPropertyOp1
 70
     1
102
RTVSPropertyOp2
 70
     1
102
RTVSPropertyOp3
 70
     1
102
RTVSPropertyOp4
 70
     1
102
RTVSPropertyOp5
 70
     1
102
RTVSPropertyOp6
 70
     1
102
RTVSPropertyOp7
 70
     1
102
RTVSPropertyOp8
 70
     1
102
RTVSPropertyOp9
 70
     1
102
RTVSPropertyOp10
 70
     1
102
RTVSPropertyOp11
 70
     1
102
RTVSPropertyOp12
 70
     1
102
RTVSPropertyOp13
 70
     1
102
RTVSPropertyOp14
 70
     1
102
RTVSPropertyOp15
 70
     1
102
RTVSPropertyOp16
 70
     1
102
RTVSPropertyOp17
 70
     1
102
RTVSPropertyOp18
 70
     1
102
RTVSPropertyOp19
 70
     1
102
RTVSPropertyOp20
 70
     1
102
RTVSPropertyOp21
 70
     1
102
RTVSPropertyOp22
 70
     1
102
RTVSPropertyOp23
 70
     1
102
RTVSPropertyOp24
 70
     1
102
RTVSPropertyOp25
 70
     1
102
RTVSPropertyOp26
 70
     1
102
RTVSPropertyOp27
 70
     1
102
RTVSPropertyOp28
 70
     1
102
RTVSPropertyOp29
 70
     1
102
RTVSPropertyOp30
 70
     1
102
RTVSPropertyOp31
 70
     1
102
RTVSPropertyOp32
 70
     1
  0
XRECORD
  5
65
102
{ACAD_REACTORS
330
64
102
}
330
64
100
AcDbXrecord
280
     1
102
RTVSPropertyOp0
 70
     1
102
RTVSPropertyOp1
 70
     1
102
RTVSPropertyOp2
 70
     1
102
RTVSPropertyOp3
 70
     1
102
RTVSPropertyOp4
 70
     1
102
RTVSPropertyOp5
 70
     1
102
RTVSPropertyOp6
 70
     1
102
RTVSPropertyOp7
 70
     1
102
RTVSPropertyOp8
 70
     1
102
RTVSPropertyOp9
 70
     1
102
RTVSPropertyOp10
 70
     1
102
RTVSPropertyOp11
 70
     1
102
RTVSPropertyOp12
 70
     1
102
RTVSPropertyOp13
 70
     1
102
RTVSPropertyOp14
 70
     1
102
RTVSPropertyOp15
 70
     1
102
RTVSPropertyOp16
 70
     1
102
RTVSPropertyOp17
 70
     1
102
RTVSPropertyOp18
 70
     1
102
RTVSPropertyOp19
 70
     1
102
RTVSPropertyOp20
 70
     1
102
RTVSPropertyOp21
 70
     1
102
RTVSPropertyOp22
 70
     1
102
RTVSPropertyOp23
 70
     1
102
RTVSPropertyOp24
 70
     1
102
RTVSPropertyOp25
 70
     1
102
RTVSPropertyOp26
 70
     1
102
RTVSPropertyOp27
 70
     1
102
RTVSPropertyOp28
 70
     1
102
RTVSPropertyOp29
 70
     1
102
RTVSPropertyOp30
 70
     1
102
RTVSPropertyOp31
 70
     1
102
RTVSPropertyOp32
 70
     1
  0
XRECORD
  5
49
102
{ACAD_REACTORS
330
48
102
}
330
48
100
AcDbXrecord
280
     1
102
RTVSPropertyOp0
 70
     1
102
RTVSPropertyOp1
 70
     1
102
RTVSPropertyOp2
 70
     1
102
RTVSPropertyOp3
 70
     1
102
RTVSPropertyOp4
 70
     1
102
RTVSPropertyOp5
 70
     1
102
RTVSPropertyOp6
 70
     1
102
RTVSPropertyOp7
 70
     1
102
RTVSPropertyOp8
 70
     1
102
RTVSPropertyOp9
 70
     1
102
RTVSPropertyOp10
 70
     1
102
RTVSPropertyOp11
 70
     1
102
RTVSPropertyOp12
 70
     1
102
RTVSPropertyOp13
 70
     1
102
RTVSPropertyOp14
 70
     1
102
RTVSPropertyOp15
 70
     1
102
RTVSPropertyOp16
 70
     1
102
RTVSPropertyOp17
 70
     1
102
RTVSPropertyOp18
 70
     1
102
RTVSPropertyOp19
 70
     1
102
RTVSPropertyOp20
 70
     1
102
RTVSPropertyOp21
 70
     1
102
RTVSPropertyOp22
 70
     1
102
RTVSPropertyOp23
 70
     1
102
RTVSPropertyOp24
 70
     1
102
RTVSPropertyOp25
 70
     1
102
RTVSPropertyOp26
 70
     1
102
RTVSPropertyOp27
 70
     1
102
RTVSPropertyOp28
 70
     1
102
RTVSPropertyOp29
 70
     1
102
RTVSPropertyOp30
 70
     1
102
RTVSPropertyOp31
 70
     1
102
RTVSPropertyOp32
 70
     1
  0
XRECORD
  5
4B
102
{ACAD_REACTORS
330
4A
102
}
330
4A
100
AcDbXrecord
280
     1
102
RTVSPropertyOp0
 70
     1
102
RTVSPropertyOp1
 70
     1
102
RTVSPropertyOp2
 70
     1
102
RTVSPropertyOp3
 70
     1
102
RTVSPropertyOp4
 70
     1
102
RTVSPropertyOp5
 70
     1
102
RTVSPropertyOp6
 70
     1
102
RTVSPropertyOp7
 70
     1
102
RTVSPropertyOp8
 70
     1
102
RTVSPropertyOp9
 70
     1
102
RTVSPropertyOp10
 70
     1
102
RTVSPropertyOp11
 70
     1
102
RTVSPropertyOp12
 70
     1
102
RTVSPropertyOp13
 70
     1
102
RTVSPropertyOp14
 70
     1
102
RTVSPropertyOp15
 70
     1
102
RTVSPropertyOp16
 70
     1
102
RTVSPropertyOp17
 70
     1
102
RTVSPropertyOp18
 70
     1
102
RTVSPropertyOp19
 70
     1
102
RTVSPropertyOp20
 70
     1
102
RTVSPropertyOp21
 70
     1
102
RTVSPropertyOp22
 70
     1
102
RTVSPropertyOp23
 70
     1
102
RTVSPropertyOp24
 70
     1
102
RTVSPropertyOp25
 70
     1
102
RTVSPropertyOp26
 70
     1
102
RTVSPropertyOp27
 70
     1
102
RTVSPropertyOp28
 70
     1
102
RTVSPropertyOp29
 70
     1
102
RTVSPropertyOp30
 70
     1
102
RTVSPropertyOp31
 70
     1
102
RTVSPropertyOp32
 70
     1
  0
XRECORD
  5
4D
102
{ACAD_REACTORS
330
4C
102
}
330
4C
100
AcDbXrecord
280
     1
102
RTVSPropertyOp0
 70
     1
102
RTVSPropertyOp1
 70
     1
102
RTVSPropertyOp2
 70
     1
102
RTVSPropertyOp3
 70
     1
102
RTVSPropertyOp4
 70
     1
102
RTVSPropertyOp5
 70
     1
102
RTVSPropertyOp6
 70
     1
102
RTVSPropertyOp7
 70
     1
102
RTVSPropertyOp8
 70
     1
102
RTVSPropertyOp9
 70
     1
102
RTVSPropertyOp10
 70
     1
102
RTVSPropertyOp11
 70
     1
102
RTVSPropertyOp12
 70
     1
102
RTVSPropertyOp13
 70
     1
102
RTVSPropertyOp14
 70
     1
102
RTVSPropertyOp15
 70
     1
102
RTVSPropertyOp16
 70
     1
102
RTVSPropertyOp17
 70
     1
102
RTVSPropertyOp18
 70
     1
102
RTVSPropertyOp19
 70
     1
102
RTVSPropertyOp20
 70
     1
102
RTVSPropertyOp21
 70
     1
102
RTVSPropertyOp22
 70
     1
102
RTVSPropertyOp23
 70
     1
102
RTVSPropertyOp24
 70
     1
102
RTVSPropertyOp25
 70
     1
102
RTVSPropertyOp26
 70
     1
102
RTVSPropertyOp27
 70
     1
102
RTVSPropertyOp28
 70
     1
102
RTVSPropertyOp29
 70
     1
102
RTVSPropertyOp30
 70
     1
102
RTVSPropertyOp31
 70
     1
102
RTVSPropertyOp32
 70
     1
  0
XRECORD
  5
4F
102
{ACAD_REACTORS
330
4E
102
}
330
4E
100
AcDbXrecord
280
     1
102
RTVSPropertyOp0
 70
     1
102
RTVSPropertyOp1
 70
     1
102
RTVSPropertyOp2
 70
     1
102
RTVSPropertyOp3
 70
     1
102
RTVSPropertyOp4
 70
     1
102
RTVSPropertyOp5
 70
     1
102
RTVSPropertyOp6
 70
     1
102
RTVSPropertyOp7
 70
     1
102
RTVSPropertyOp8
 70
     1
102
RTVSPropertyOp9
 70
     1
102
RTVSPropertyOp10
 70
     1
102
RTVSPropertyOp11
 70
     1
102
RTVSPropertyOp12
 70
     1
102
RTVSPropertyOp13
 70
     1
102
RTVSPropertyOp14
 70
     1
102
RTVSPropertyOp15
 70
     1
102
RTVSPropertyOp16
 70
     1
102
RTVSPropertyOp17
 70
     1
102
RTVSPropertyOp18
 70
     1
102
RTVSPropertyOp19
 70
     1
102
RTVSPropertyOp20
 70
     1
102
RTVSPropertyOp21
 70
     1
102
RTVSPropertyOp22
 70
     1
102
RTVSPropertyOp23
 70
     1
102
RTVSPropertyOp24
 70
     1
102
RTVSPropertyOp25
 70
     1
102
RTVSPropertyOp26
 70
     1
102
RTVSPropertyOp27
 70
     1
102
RTVSPropertyOp28
 70
     1
102
RTVSPropertyOp29
 70
     1
102
RTVSPropertyOp30
 70
     1
102
RTVSPropertyOp31
 70
     1
102
RTVSPropertyOp32
 70
     1
  0
XRECORD
  5
63
102
{ACAD_REACTORS
330
62
102
}
330
62
100
AcDbXrecord
280
     1
102
RTVSPropertyOp0
 70
     1
102
RTVSPropertyOp1
 70
     1
102
RTVSPropertyOp2
 70
     1
102
RTVSPropertyOp3
 70
     1
102
RTVSPropertyOp4
 70
     1
102
RTVSPropertyOp5
 70
     1
102
RTVSPropertyOp6
 70
     1
102
RTVSPropertyOp7
 70
     1
102
RTVSPropertyOp8
 70
     1
102
RTVSPropertyOp9
 70
     1
102
RTVSPropertyOp10
 70
     1
102
RTVSPropertyOp11
 70
     1
102
RTVSPropertyOp12
 70
     1
102
RTVSPropertyOp13
 70
     1
102
RTVSPropertyOp14
 70
     1
102
RTVSPropertyOp15
 70
     1
102
RTVSPropertyOp16
 70
     1
102
RTVSPropertyOp17
 70
     1
102
RTVSPropertyOp18
 70
     1
102
RTVSPropertyOp19
 70
     1
102
RTVSPropertyOp20
 70
     1
102
RTVSPropertyOp21
 70
     1
102
RTVSPropertyOp22
 70
     1
102
RTVSPropertyOp23
 70
     1
102
RTVSPropertyOp24
 70
     1
102
RTVSPropertyOp25
 70
     1
102
RTVSPropertyOp26
 70
     1
102
RTVSPropertyOp27
 70
     1
102
RTVSPropertyOp28
 70
     1
102
RTVSPropertyOp29
 70
     1
102
RTVSPropertyOp30
 70
     1
102
RTVSPropertyOp31
 70
     1
102
RTVSPropertyOp32
 70
     1
  0
XRECORD
  5
59
102
{ACAD_REACTORS
330
58
102
}
330
58
100
AcDbXrecord
280
     1
102
RTVSPropertyOp0
 70
     1
102
RTVSPropertyOp1
 70
     1
102
RTVSPropertyOp2
 70
     1
102
RTVSPropertyOp3
 70
     1
102
RTVSPropertyOp4
 70
     1
102
RTVSPropertyOp5
 70
     1
102
RTVSPropertyOp6
 70
     1
102
RTVSPropertyOp7
 70
     1
102
RTVSPropertyOp8
 70
     1
102
RTVSPropertyOp9
 70
     1
102
RTVSPropertyOp10
 70
     1
102
RTVSPropertyOp11
 70
     1
102
RTVSPropertyOp12
 70
     1
102
RTVSPropertyOp13
 70
     1
102
RTVSPropertyOp14
 70
     1
102
RTVSPropertyOp15
 70
     1
102
RTVSPropertyOp16
 70
     1
102
RTVSPropertyOp17
 70
     1
102
RTVSPropertyOp18
 70
     1
102
RTVSPropertyOp19
 70
     1
102
RTVSPropertyOp20
 70
     1
102
RTVSPropertyOp21
 70
     1
102
RTVSPropertyOp22
 70
     1
102
RTVSPropertyOp23
 70
     1
102
RTVSPropertyOp24
 70
     1
102
RTVSPropertyOp25
 70
     1
102
RTVSPropertyOp26
 70
     1
102
RTVSPropertyOp27
 70
     1
102
RTVSPropertyOp28
 70
     1
102
RTVSPropertyOp29
 70
     1
102
RTVSPropertyOp30
 70
     1
102
RTVSPropertyOp31
 70
     1
102
RTVSPropertyOp32
 70
     1
  0
XRECORD
  5
61
102
{ACAD_REACTORS
330
60
102
}
330
60
100
AcDbXrecord
280
     1
102
RTVSPropertyOp0
 70
     1
102
RTVSPropertyOp1
 70
     1
102
RTVSPropertyOp2
 70
     1
102
RTVSPropertyOp3
 70
     1
102
RTVSPropertyOp4
 70
     1
102
RTVSPropertyOp5
 70
     1
102
RTVSPropertyOp6
 70
     1
102
RTVSPropertyOp7
 70
     1
102
RTVSPropertyOp8
 70
     1
102
RTVSPropertyOp9
 70
     1
102
RTVSPropertyOp10
 70
     1
102
RTVSPropertyOp11
 70
     1
102
RTVSPropertyOp12
 70
     1
102
RTVSPropertyOp13
 70
     1
102
RTVSPropertyOp14
 70
     1
102
RTVSPropertyOp15
 70
     1
102
RTVSPropertyOp16
 70
     1
102
RTVSPropertyOp17
 70
     1
102
RTVSPropertyOp18
 70
     1
102
RTVSPropertyOp19
 70
     1
102
RTVSPropertyOp20
 70
     1
102
RTVSPropertyOp21
 70
     1
102
RTVSPropertyOp22
 70
     1
102
RTVSPropertyOp23
 70
     1
102
RTVSPropertyOp24
 70
     1
102
RTVSPropertyOp25
 70
     1
102
RTVSPropertyOp26
 70
     1
102
RTVSPropertyOp27
 70
     1
102
RTVSPropertyOp28
 70
     1
102
RTVSPropertyOp29
 70
     1
102
RTVSPropertyOp30
 70
     1
102
RTVSPropertyOp31
 70
     1
102
RTVSPropertyOp32
 70
     1
  0
ENDSEC
  0
EOF
