  0
SECTION
  2
HEADER
  9
$ACADVER
  1
AC1021
  9
$ACADMAINTVER
 70
    25
  9
$DWGCODEPAGE
  3
ANSI_1252
  9
$INSBASE
 10
0.0
 20
0.0
 30
0.0
  9
$EXTMIN
 10
1.000000000000000E+20
 20
1.000000000000000E+20
 30
1.000000000000000E+20
  9
$EXTMAX
 10
-1.000000000000000E+20
 20
-1.000000000000000E+20
 30
-1.000000000000000E+20
  9
$LIMMIN
 10
0.0
 20
0.0
  9
$LIMMAX
 10
12.0
 20
9.0
  9
$ORTHOMODE
 70
     0
  9
$REGENMODE
 70
     1
  9
$FILLMODE
 70
     1
  9
$QTEXTMODE
 70
     0
  9
$MIRRTEXT
 70
     1
  9
$LTSCALE
 40
1.0
  9
$ATTMODE
 70
     1
  9
$TEXTSIZE
 40
0.2
  9
$TRACEWID
 40
0.05
  9
$TEXTSTYLE
  7
Standard
  9
$CLAYER
  8
0
  9
$CELTYPE
  6
ByLayer
  9
$CECOLOR
 62
   256
  9
$CELTSCALE
 40
1.0
  9
$DISPSILH
 70
     0
  9
$DIMSCALE
 40
1.0
  9
$DIMASZ
 40
0.18
  9
$DIMEXO
 40
0.0625
  9
$DIMDLI
 40
0.38
  9
$DIMRND
 40
0.0
  9
$DIMDLE
 40
0.0
  9
$DIMEXE
 40
0.18
  9
$DIMTP
 40
0.0
  9
$DIMTM
 40
0.0
  9
$DIMTXT
 40
0.18
  9
$DIMCEN
 40
0.09
  9
$DIMTSZ
 40
0.0
  9
$DIMTOL
 70
     0
  9
$DIMLIM
 70
     0
  9
$DIMTIH
 70
     1
  9
$DIMTOH
 70
     1
  9
$DIMSE1
 70
     0
  9
$DIMSE2
 70
     0
  9
$DIMTAD
 70
     0
  9
$DIMZIN
 70
     0
  9
$DIMBLK
  1

  9
$DIMASO
 70
     1
  9
$DIMSHO
 70
     1
  9
$DIMPOST
  1

  9
$DIMAPOST
  1

  9
$DIMALT
 70
     0
  9
$DIMALTD
 70
     2
  9
$DIMALTF
 40
25.4
  9
$DIMLFAC
 40
1.0
  9
$DIMTOFL
 70
     0
  9
$DIMTVP
 40
0.0
  9
$DIMTIX
 70
     0
  9
$DIMSOXD
 70
     0
  9
$DIMSAH
 70
     0
  9
$DIMBLK1
  1

  9
$DIMBLK2
  1

  9
$DIMSTYLE
  2
Standard
  9
$DIMCLRD
 70
     0
  9
$DIMCLRE
 70
     0
  9
$DIMCLRT
 70
     0
  9
$DIMTFAC
 40
1.0
  9
$DIMGAP
 40
0.09
  9
$DIMJUST
 70
     0
  9
$DIMSD1
 70
     0
  9
$DIMSD2
 70
     0
  9
$DIMTOLJ
 70
     1
  9
$DIMTZIN
 70
     0
  9
$DIMALTZ
 70
     0
  9
$DIMALTTZ
 70
     0
  9
$DIMUPT
 70
     0
  9
$DIMDEC
 70
     4
  9
$DIMTDEC
 70
     4
  9
$DIMALTU
 70
     2
  9
$DIMALTTD
 70
     2
  9
$DIMTXSTY
  7
Standard
  9
$DIMAUNIT
 70
     0
  9
$DIMADEC
 70
     0
  9
$DIMALTRND
 40
0.0
  9
$DIMAZIN
 70
     0
  9
$DIMDSEP
 70
    46
  9
$DIMATFIT
 70
     3
  9
$DIMFRAC
 70
     0
  9
$DIMLDRBLK
  1

  9
$DIMLUNIT
 70
     2
  9
$DIMLWD
 70
    -2
  9
$DIMLWE
 70
    -2
  9
$DIMTMOVE
 70
     0
  9
$DIMFXL
 40
1.0
  9
$DIMFXLON
 70
     0
  9
$DIMJOGANG
 40
0.7853981633974483
  9
$DIMTFILL
 70
     0
  9
$DIMTFILLCLR
 70
     0
  9
$DIMARCSYM
 70
     0
  9
$DIMLTYPE
  6

  9
$DIMLTEX1
  6

  9
$DIMLTEX2
  6

  9
$LUNITS
 70
     2
  9
$LUPREC
 70
     4
  9
$SKETCHINC
 40
0.1
  9
$FILLETRAD
 40
0.5
  9
$AUNITS
 70
     0
  9
$AUPREC
 70
     0
  9
$MENU
  1
.
  9
$ELEVATION
 40
0.0
  9
$PELEVATION
 40
0.0
  9
$THICKNESS
 40
0.0
  9
$LIMCHECK
 70
     0
  9
$CHAMFERA
 40
0.5
  9
$CHAMFERB
 40
0.5
  9
$CHAMFERC
 40
1.0
  9
$CHAMFERD
 40
0.0
  9
$SKPOLY
 70
     0
  9
$TDCREATE
 40
2458551.626224016
  9
$TDUCREATE
 40
2458551.334557349
  9
$TDUPDATE
 40
2458551.62622419
  9
$TDUUPDATE
 40
2458551.334557523
  9
$TDINDWG
 40
0.0000000116
  9
$TDUSRTIMER
 40
0.0000000116
  9
$USRTIMER
 70
     1
  9
$ANGBASE
 50
0.0
  9
$ANGDIR
 70
     0
  9
$PDMODE
 70
     0
  9
$PDSIZE
 40
0.0
  9
$PLINEWID
 40
0.0
  9
$SPLFRAME
 70
     0
  9
$SPLINETYPE
 70
     6
  9
$SPLINESEGS
 70
     8
  9
$HANDSEED
  5
67
  9
$SURFTAB1
 70
     6
  9
$SURFTAB2
 70
     6
  9
$SURFTYPE
 70
     6
  9
$SURFU
 70
     6
  9
$SURFV
 70
     6
  9
$UCSBASE
  2

  9
$UCSNAME
  2

  9
$UCSORG
 10
0.0
 20
0.0
 30
0.0
  9
$UCSXDIR
 10
1.0
 20
0.0
 30
0.0
  9
$UCSYDIR
 10
0.0
 20
1.0
 30
0.0
  9
$UCSORTHOREF
  2

  9
$UCSORTHOVIEW
 70
     0
  9
$UCSORGTOP
 10
0.0
 20
0.0
 30
0.0
  9
$UCSORGBOTTOM
 10
0.0
 20
0.0
 30
0.0
  9
$UCSORGLEFT
 10
0.0
 20
0.0
 30
0.0
  9
$UCSORGRIGHT
 10
0.0
 20
0.0
 30
0.0
  9
$UCSORGFRONT
 10
0.0
 20
0.0
 30
0.0
  9
$UCSORGBACK
 10
0.0
 20
0.0
 30
0.0
  9
$PUCSBASE
  2

  9
$PUCSNAME
  2

  9
$PUCSORG
 10
0.0
 20
0.0
 30
0.0
  9
$PUCSXDIR
 10
1.0
 20
0.0
 30
0.0
  9
$PUCSYDIR
 10
0.0
 20
1.0
 30
0.0
  9
$PUCSORTHOREF
  2

  9
$PUCSORTHOVIEW
 70
     0
  9
$PUCSORGTOP
 10
0.0
 20
0.0
 30
0.0
  9
$PUCSORGBOTTOM
 10
0.0
 20
0.0
 30
0.0
  9
$PUCSORGLEFT
 10
0.0
 20
0.0
 30
0.0
  9
$PUCSORGRIGHT
 10
0.0
 20
0.0
 30
0.0
  9
$PUCSORGFRONT
 10
0.0
 20
0.0
 30
0.0
  9
$PUCSORGBACK
 10
0.0
 20
0.0
 30
0.0
  9
$USERI1
 70
     0
  9
$USERI2
 70
     0
  9
$USERI3
 70
     0
  9
$USERI4
 70
     0
  9
$USERI5
 70
     0
  9
$USERR1
 40
0.0
  9
$USERR2
 40
0.0
  9
$USERR3
 40
0.0
  9
$USERR4
 40
0.0
  9
$USERR5
 40
0.0
  9
$WORLDVIEW
 70
     1
  9
$SHADEDGE
 70
     3
  9
$SHADEDIF
 70
    70
  9
$TILEMODE
 70
     1
  9
$MAXACTVP
 70
    64
  9
$PINSBASE
 10
0.0
 20
0.0
 30
0.0
  9
$PLIMCHECK
 70
     0
  9
$PEXTMIN
 10
1.000000000000000E+20
 20
1.000000000000000E+20
 30
1.000000000000000E+20
  9
$PEXTMAX
 10
-1.000000000000000E+20
 20
-1.000000000000000E+20
 30
-1.000000000000000E+20
  9
$PLIMMIN
 10
0.0
 20
0.0
  9
$PLIMMAX
 10
12.0
 20
9.0
  9
$UNITMODE
 70
     0
  9
$VISRETAIN
 70
     1
  9
$PLINEGEN
 70
     0
  9
$PSLTSCALE
 70
     1
  9
$TREEDEPTH
 70
  3020
  9
$CMLSTYLE
  2
Standard
  9
$CMLJUST
 70
     0
  9
$CMLSCALE
 40
1.0
  9
$PROXYGRAPHICS
 70
     1
  9
$MEASUREMENT
 70
     0
  9
$CELWEIGHT
370
    -1
  9
$ENDCAPS
280
     0
  9
$JOINSTYLE
280
     0
  9
$LWDISPLAY
290
     1
  9
$INSUNITS
 70
     1
  9
$HYPERLINKBASE
  1

  9
$STYLESHEET
  1

  9
$XEDIT
290
     1
  9
$CEPSNTYPE
380
     0
  9
$PSTYLEMODE
290
     1
  9
$FINGERPRINTGUID
  2
{0BF581D8-BF97-4000-A460-864683B05B2C}
  9
$VERSIONGUID
  2
{FAEB1C32-E019-11D5-929B-00C0DF256EC4}
  9
$EXTNAMES
290
     1
  9
$PSVPSCALE
 40
0.0
  9
$OLESTARTUP
290
     0
  9
$SORTENTS
280
   127
  9
$INDEXCTL
280
     0
  9
$HIDETEXT
280
     1
  9
$XCLIPFRAME
290
     0
  9
$HALOGAP
280
     0
  9
$OBSCOLOR
 70
   257
  9
$OBSLTYPE
280
     0
  9
$INTERSECTIONDISPLAY
280
     0
  9
$INTERSECTIONCOLOR
 70
   257
  9
$DIMASSOC
280
     2
  9
$PROJECTNAME
  1

  9
$CAMERADISPLAY
290
     0
  9
$LENSLENGTH
 40
50.0
  9
$CAMERAHEIGHT
 40
0.0
  9
$STEPSPERSEC
 40
2.0
  9
$STEPSIZE
 40
6.0
  9
$3DDWFPREC
 40
2.0
  9
$PSOLWIDTH
 40
0.25
  9
$PSOLHEIGHT
 40
4.0
  9
$LOFTANG1
 40
1.570796326794897
  9
$LOFTANG2
 40
1.570796326794897
  9
$LOFTMAG1
 40
0.0
  9
$LOFTMAG2
 40
0.0
  9
$LOFTPARAM
 70
     7
  9
$LOFTNORMALS
280
     1
  9
$LATITUDE
 40
37.795
  9
$LONGITUDE
 40
-122.394
  9
$NORTHDIRECTION
 40
0.0
  9
$TIMEZONE
 70
 -8000
  9
$LIGHTGLYPHDISPLAY
280
     1
  9
$TILEMODELIGHTSYNCH
280
     1
  9
$CMATERIAL
347
3C
  9
$SOLIDHIST
280
     1
  9
$SHOWHIST
280
     1
  9
$DWFFRAME
280
     2
  9
$DGNFRAME
280
     2
  9
$REALWORLDSCALE
290
     1
  9
$INTERFERECOLOR
 62
   256
  9
$CSHADOW
280
     0
  9
$SHADOWPLANELOCATION
 40
0.0
  0
ENDSEC
  0
SECTION
  2
CLASSES
  0
CLASS
  1
ACDBDICTIONARYWDFLT
  2
AcDbDictionaryWithDefault
  3
ObjectDBX Classes
 90
        0
 91
        4
280
     0
281
     0
  0
CLASS
  1
VISUALSTYLE
  2
AcDbVisualStyle
  3
ObjectDBX Classes
 90
     4095
 91
        4
280
     0
281
     0
  0
CLASS
  1
MATERIAL
  2
AcDbMaterial
  3
ObjectDBX Classes
 90
     1153
 91
        4
280
     0
281
     0
  0
CLASS
  1
SUN
  2
AcDbSun
  3
SCENEOE
 90
     1024
 91
        4
280
     0
281
     0
  0
ENDSEC
  0
SECTION
  2
TABLES
  0
TABLE
  2
VPORT
  5
8
330
0
100
AcDbSymbolTable
 70
     1
  0
VPORT
  5
29
330
8
100
AcDbSymbolTableRecord
100
AcDbViewportTableRecord
  2
*Active
 70
     0
 10
0.0
 20
0.0
 11
1.0
 21
1.0
 12
0.0
 22
0.0
 13
0.0
 23
0.0
 14
0.5
 24
0.5
 15
0.5
 25
0.5
 16
0.0
 26
0.0
 36
1.0
 17
39.99961911841359
 27
-39.99962012888904
 37
0.0
 40
79.99924025777808
 41
0.9999999747378738
 42
50.0
 43
0.0
 44
0.0
 50
0.0
 51
0.0
 71
     0
 72
   100
 73
     1
 74
     3
 75
     0
 76
     0
 77
     0
 78
     0
281
     0
 65
     1
110
0.0
120
0.0
130
0.0
111
1.0
121
0.0
131
0.0
112
0.0
122
1.0
132
0.0
 79
     0
146
0.0
 60
     3
 61
     5
292
     1
282
     1
141
0.0
142
0.0
 63
   250
361
3F
  0
ENDTAB
  0
TABLE
  2
LTYPE
  5
5
330
0
100
AcDbSymbolTable
 70
     1
  0
LTYPE
  5
14
330
5
100
AcDbSymbolTableRecord
100
AcDbLinetypeTableRecord
  2
ByBlock
 70
     0
  3

 72
    65
 73
     0
 40
0.0
  0
LTYPE
  5
15
330
5
100
AcDbSymbolTableRecord
100
AcDbLinetypeTableRecord
  2
ByLayer
 70
     0
  3

 72
    65
 73
     0
 40
0.0
  0
LTYPE
  5
16
330
5
100
AcDbSymbolTableRecord
100
AcDbLinetypeTableRecord
  2
Continuous
 70
     0
  3
Solid line
 72
    65
 73
     0
 40
0.0
  0
ENDTAB
  0
TABLE
  2
LAYER
  5
2
330
0
100
AcDbSymbolTable
 70
     2
  0
LAYER
  5
10
330
2
100
AcDbSymbolTableRecord
100
AcDbLayerTableRecord
  2
0
 70
     0
 62
     7
  6
Continuous
370
    -3
390
F
347
3E
  0
LAYER
  5
40
330
2
100
AcDbSymbolTableRecord
100
AcDbLayerTableRecord
  2
Layer 1
 70
     0
 62
     7
  6
Continuous
370
    -3
390
F
347
3E
  0
ENDTAB
  0
TABLE
  2
STYLE
  5
3
330
0
100
AcDbSymbolTable
 70
     1
  0
STYLE
  5
11
330
3
100
AcDbSymbolTableRecord
100
AcDbTextStyleTableRecord
  2
Standard
 70
     0
 40
0.0
 41
1.0
 50
0.0
 71
     0
 42
0.2
  3
txt
  4

  0
ENDTAB
  0
TABLE
  2
VIEW
  5
6
330
0
100
AcDbSymbolTable
 70
     0
  0
ENDTAB
  0
TABLE
  2
UCS
  5
7
330
0
100
AcDbSymbolTable
 70
     0
  0
ENDTAB
  0
TABLE
  2
APPID
  5
9
330
0
100
AcDbSymbolTable
 70
     1
  0
APPID
  5
12
330
9
100
AcDbSymbolTableRecord
100
AcDbRegAppTableRecord
  2
ACAD
 70
     0
  0
ENDTAB
  0
TABLE
  2
DIMSTYLE
  5
A
330
0
100
AcDbSymbolTable
 70
     1
100
AcDbDimStyleTable
  0
DIMSTYLE
105
27
330
A
100
AcDbSymbolTableRecord
100
AcDbDimStyleTableRecord
  2
Standard
 70
     0
178
     0
340
11
  0
ENDTAB
  0
TABLE
  2
BLOCK_RECORD
  5
1
330
0
100
AcDbSymbolTable
 70
     1
  0
BLOCK_RECORD
  5
1F
330
1
100
AcDbSymbolTableRecord
100
AcDbBlockTableRecord
  2
*Model_Space
340
22
 70
     0
280
     1
281
     0
  0
BLOCK_RECORD
  5
1B
330
1
100
AcDbSymbolTableRecord
100
AcDbBlockTableRecord
  2
*Paper_Space
340
1E
 70
     0
280
     1
281
     0
  0
BLOCK_RECORD
  5
23
330
1
100
AcDbSymbolTableRecord
100
AcDbBlockTableRecord
  2
*Paper_Space0
340
26
 70
     0
280
     1
281
     0
  0
ENDTAB
  0
ENDSEC
  0
SECTION
  2
BLOCKS
  0
BLOCK
  5
20
330
1F
100
AcDbEntity
  8
0
100
AcDbBlockBegin
  2
*Model_Space
 70
     0
 10
0.0
 20
0.0
 30
0.0
  3
*Model_Space
  1

  0
ENDBLK
  5
21
330
1F
100
AcDbEntity
  8
0
100
AcDbBlockEnd
  0
BLOCK
  5
1C
330
1B
100
AcDbEntity
 67
     1
  8
0
100
AcDbBlockBegin
  2
*Paper_Space
 70
     0
 10
0.0
 20
0.0
 30
0.0
  3
*Paper_Space
  1

  0
ENDBLK
  5
1D
330
1B
100
AcDbEntity
 67
     1
  8
0
100
AcDbBlockEnd
  0
BLOCK
  5
24
330
23
100
AcDbEntity
  8
0
100
AcDbBlockBegin
  2
*Paper_Space0
 70
     0
 10
0.0
 20
0.0
 30
0.0
  3
*Paper_Space0
  1

  0
ENDBLK
  5
25
330
23
100
AcDbEntity
  8
0
100
AcDbBlockEnd
  0
ENDSEC
  0
SECTION
  2
ENTITIES
  0
SPLINE
  5
41
330
1F
100
AcDbEntity
  8
Layer 1
370
     0
100
AcDbSpline
210
0.0
220
0.0
230
1.0
 70
    11
 71
     3
 72
   881
 73
   877
 74
     0
 42
0.0000000001
 43
0.0000000001
 12
1.0
 22
0.0
 32
0.0
 13
1.0
 23
0.0
 33
0.0
 40
0.0
 40
0.0
 40
0.0
 40
0.0
 40
1.0
 40
1.0
 40
1.0
 40
2.0
 40
2.0
 40
2.0
 40
3.0
 40
3.0
 40
3.0
 40
4.0
 40
4.0
 40
4.0
 40
5.0
 40
5.0
 40
5.0
 40
6.0
 40
6.0
 40
6.0
 40
7.0
 40
7.0
 40
7.0
 40
8.0
 40
8.0
 40
8.0
 40
9.0
 40
9.0
 40
9.0
 40
10.0
 40
10.0
 40
10.0
 40
11.0
 40
11.0
 40
11.0
 40
12.0
 40
12.0
 40
12.0
 40
13.0
 40
13.0
 40
13.0
 40
14.0
 40
14.0
 40
14.0
 40
15.0
 40
15.0
 40
15.0
 40
16.0
 40
16.0
 40
16.0
 40
17.0
 40
17.0
 40
17.0
 40
18.0
 40
18.0
 40
18.0
 40
19.0
 40
19.0
 40
19.0
 40
20.0
 40
20.0
 40
20.0
 40
21.0
 40
21.0
 40
21.0
 40
22.0
 40
22.0
 40
22.0
 40
23.0
 40
23.0
 40
23.0
 40
24.0
 40
24.0
 40
24.0
 40
25.0
 40
25.0
 40
25.0
 40
26.0
 40
26.0
 40
26.0
 40
27.0
 40
27.0
 40
27.0
 40
28.0
 40
28.0
 40
28.0
 40
29.0
 40
29.0
 40
29.0
 40
30.0
 40
30.0
 40
30.0
 40
31.0
 40
31.0
 40
31.0
 40
32.0
 40
32.0
 40
32.0
 40
33.0
 40
33.0
 40
33.0
 40
34.0
 40
34.0
 40
34.0
 40
35.0
 40
35.0
 40
35.0
 40
36.0
 40
36.0
 40
36.0
 40
37.0
 40
37.0
 40
37.0
 40
38.0
 40
38.0
 40
38.0
 40
39.0
 40
39.0
 40
39.0
 40
40.0
 40
40.0
 40
40.0
 40
41.0
 40
41.0
 40
41.0
 40
42.0
 40
42.0
 40
42.0
 40
43.0
 40
43.0
 40
43.0
 40
44.0
 40
44.0
 40
44.0
 40
45.0
 40
45.0
 40
45.0
 40
46.0
 40
46.0
 40
46.0
 40
47.0
 40
47.0
 40
47.0
 40
48.0
 40
48.0
 40
48.0
 40
49.0
 40
49.0
 40
49.0
 40
50.0
 40
50.0
 40
50.0
 40
51.0
 40
51.0
 40
51.0
 40
52.0
 40
52.0
 40
52.0
 40
53.0
 40
53.0
 40
53.0
 40
54.0
 40
54.0
 40
54.0
 40
55.0
 40
55.0
 40
55.0
 40
56.0
 40
56.0
 40
56.0
 40
57.0
 40
57.0
 40
57.0
 40
58.0
 40
58.0
 40
58.0
 40
59.0
 40
59.0
 40
59.0
 40
60.0
 40
60.0
 40
60.0
 40
61.0
 40
61.0
 40
61.0
 40
62.0
 40
62.0
 40
62.0
 40
63.0
 40
63.0
 40
63.0
 40
64.0
 40
64.0
 40
64.0
 40
65.0
 40
65.0
 40
65.0
 40
66.0
 40
66.0
 40
66.0
 40
67.0
 40
67.0
 40
67.0
 40
68.0
 40
68.0
 40
68.0
 40
69.0
 40
69.0
 40
69.0
 40
70.0
 40
70.0
 40
70.0
 40
71.0
 40
71.0
 40
71.0
 40
72.0
 40
72.0
 40
72.0
 40
73.0
 40
73.0
 40
73.0
 40
74.0
 40
74.0
 40
74.0
 40
75.0
 40
75.0
 40
75.0
 40
76.0
 40
76.0
 40
76.0
 40
77.0
 40
77.0
 40
77.0
 40
78.0
 40
78.0
 40
78.0
 40
79.0
 40
79.0
 40
79.0
 40
80.0
 40
80.0
 40
80.0
 40
81.0
 40
81.0
 40
81.0
 40
82.0
 40
82.0
 40
82.0
 40
83.0
 40
83.0
 40
83.0
 40
84.0
 40
84.0
 40
84.0
 40
85.0
 40
85.0
 40
85.0
 40
86.0
 40
86.0
 40
86.0
 40
87.0
 40
87.0
 40
87.0
 40
88.0
 40
88.0
 40
88.0
 40
89.0
 40
89.0
 40
89.0
 40
90.0
 40
90.0
 40
90.0
 40
91.0
 40
91.0
 40
91.0
 40
92.0
 40
92.0
 40
92.0
 40
93.0
 40
93.0
 40
93.0
 40
94.0
 40
94.0
 40
94.0
 40
95.0
 40
95.0
 40
95.0
 40
96.0
 40
96.0
 40
96.0
 40
97.0
 40
97.0
 40
97.0
 40
98.0
 40
98.0
 40
98.0
 40
99.0
 40
99.0
 40
99.0
 40
100.0
 40
100.0
 40
100.0
 40
101.0
 40
101.0
 40
101.0
 40
102.0
 40
102.0
 40
102.0
 40
103.0
 40
103.0
 40
103.0
 40
104.0
 40
104.0
 40
104.0
 40
105.0
 40
105.0
 40
105.0
 40
106.0
 40
106.0
 40
106.0
 40
107.0
 40
107.0
 40
107.0
 40
108.0
 40
108.0
 40
108.0
 40
109.0
 40
109.0
 40
109.0
 40
110.0
 40
110.0
 40
110.0
 40
111.0
 40
111.0
 40
111.0
 40
112.0
 40
112.0
 40
112.0
 40
113.0
 40
113.0
 40
113.0
 40
114.0
 40
114.0
 40
114.0
 40
115.0
 40
115.0
 40
115.0
 40
116.0
 40
116.0
 40
116.0
 40
117.0
 40
117.0
 40
117.0
 40
118.0
 40
118.0
 40
118.0
 40
119.0
 40
119.0
 40
119.0
 40
120.0
 40
120.0
 40
120.0
 40
121.0
 40
121.0
 40
121.0
 40
122.0
 40
122.0
 40
122.0
 40
123.0
 40
123.0
 40
123.0
 40
124.0
 40
124.0
 40
124.0
 40
125.0
 40
125.0
 40
125.0
 40
126.0
 40
126.0
 40
126.0
 40
127.0
 40
127.0
 40
127.0
 40
128.0
 40
128.0
 40
128.0
 40
129.0
 40
129.0
 40
129.0
 40
130.0
 40
130.0
 40
130.0
 40
131.0
 40
131.0
 40
131.0
 40
132.0
 40
132.0
 40
132.0
 40
133.0
 40
133.0
 40
133.0
 40
134.0
 40
134.0
 40
134.0
 40
135.0
 40
135.0
 40
135.0
 40
136.0
 40
136.0
 40
136.0
 40
137.0
 40
137.0
 40
137.0
 40
138.0
 40
138.0
 40
138.0
 40
139.0
 40
139.0
 40
139.0
 40
140.0
 40
140.0
 40
140.0
 40
141.0
 40
141.0
 40
141.0
 40
142.0
 40
142.0
 40
142.0
 40
143.0
 40
143.0
 40
143.0
 40
144.0
 40
144.0
 40
144.0
 40
145.0
 40
145.0
 40
145.0
 40
146.0
 40
146.0
 40
146.0
 40
147.0
 40
147.0
 40
147.0
 40
148.0
 40
148.0
 40
148.0
 40
149.0
 40
149.0
 40
149.0
 40
150.0
 40
150.0
 40
150.0
 40
151.0
 40
151.0
 40
151.0
 40
152.0
 40
152.0
 40
152.0
 40
153.0
 40
153.0
 40
153.0
 40
154.0
 40
154.0
 40
154.0
 40
155.0
 40
155.0
 40
155.0
 40
156.0
 40
156.0
 40
156.0
 40
157.0
 40
157.0
 40
157.0
 40
158.0
 40
158.0
 40
158.0
 40
159.0
 40
159.0
 40
159.0
 40
160.0
 40
160.0
 40
160.0
 40
161.0
 40
161.0
 40
161.0
 40
162.0
 40
162.0
 40
162.0
 40
163.0
 40
163.0
 40
163.0
 40
164.0
 40
164.0
 40
164.0
 40
165.0
 40
165.0
 40
165.0
 40
166.0
 40
166.0
 40
166.0
 40
167.0
 40
167.0
 40
167.0
 40
168.0
 40
168.0
 40
168.0
 40
169.0
 40
169.0
 40
169.0
 40
170.0
 40
170.0
 40
170.0
 40
171.0
 40
171.0
 40
171.0
 40
172.0
 40
172.0
 40
172.0
 40
173.0
 40
173.0
 40
173.0
 40
174.0
 40
174.0
 40
174.0
 40
175.0
 40
175.0
 40
175.0
 40
176.0
 40
176.0
 40
176.0
 40
177.0
 40
177.0
 40
177.0
 40
178.0
 40
178.0
 40
178.0
 40
179.0
 40
179.0
 40
179.0
 40
180.0
 40
180.0
 40
180.0
 40
181.0
 40
181.0
 40
181.0
 40
182.0
 40
182.0
 40
182.0
 40
183.0
 40
183.0
 40
183.0
 40
184.0
 40
184.0
 40
184.0
 40
185.0
 40
185.0
 40
185.0
 40
186.0
 40
186.0
 40
186.0
 40
187.0
 40
187.0
 40
187.0
 40
188.0
 40
188.0
 40
188.0
 40
189.0
 40
189.0
 40
189.0
 40
190.0
 40
190.0
 40
190.0
 40
191.0
 40
191.0
 40
191.0
 40
192.0
 40
192.0
 40
192.0
 40
193.0
 40
193.0
 40
193.0
 40
194.0
 40
194.0
 40
194.0
 40
195.0
 40
195.0
 40
195.0
 40
196.0
 40
196.0
 40
196.0
 40
197.0
 40
197.0
 40
197.0
 40
198.0
 40
198.0
 40
198.0
 40
199.0
 40
199.0
 40
199.0
 40
200.0
 40
200.0
 40
200.0
 40
201.0
 40
201.0
 40
201.0
 40
202.0
 40
202.0
 40
202.0
 40
203.0
 40
203.0
 40
203.0
 40
204.0
 40
204.0
 40
204.0
 40
205.0
 40
205.0
 40
205.0
 40
206.0
 40
206.0
 40
206.0
 40
207.0
 40
207.0
 40
207.0
 40
208.0
 40
208.0
 40
208.0
 40
209.0
 40
209.0
 40
209.0
 40
210.0
 40
210.0
 40
210.0
 40
211.0
 40
211.0
 40
211.0
 40
212.0
 40
212.0
 40
212.0
 40
213.0
 40
213.0
 40
213.0
 40
214.0
 40
214.0
 40
214.0
 40
215.0
 40
215.0
 40
215.0
 40
216.0
 40
216.0
 40
216.0
 40
217.0
 40
217.0
 40
217.0
 40
218.0
 40
218.0
 40
218.0
 40
219.0
 40
219.0
 40
219.0
 40
220.0
 40
220.0
 40
220.0
 40
221.0
 40
221.0
 40
221.0
 40
222.0
 40
222.0
 40
222.0
 40
223.0
 40
223.0
 40
223.0
 40
224.0
 40
224.0
 40
224.0
 40
225.0
 40
225.0
 40
225.0
 40
226.0
 40
226.0
 40
226.0
 40
227.0
 40
227.0
 40
227.0
 40
228.0
 40
228.0
 40
228.0
 40
229.0
 40
229.0
 40
229.0
 40
230.0
 40
230.0
 40
230.0
 40
231.0
 40
231.0
 40
231.0
 40
232.0
 40
232.0
 40
232.0
 40
233.0
 40
233.0
 40
233.0
 40
234.0
 40
234.0
 40
234.0
 40
235.0
 40
235.0
 40
235.0
 40
236.0
 40
236.0
 40
236.0
 40
237.0
 40
237.0
 40
237.0
 40
238.0
 40
238.0
 40
238.0
 40
239.0
 40
239.0
 40
239.0
 40
240.0
 40
240.0
 40
240.0
 40
241.0
 40
241.0
 40
241.0
 40
242.0
 40
242.0
 40
242.0
 40
243.0
 40
243.0
 40
243.0
 40
244.0
 40
244.0
 40
244.0
 40
245.0
 40
245.0
 40
245.0
 40
246.0
 40
246.0
 40
246.0
 40
247.0
 40
247.0
 40
247.0
 40
248.0
 40
248.0
 40
248.0
 40
249.0
 40
249.0
 40
249.0
 40
250.0
 40
250.0
 40
250.0
 40
251.0
 40
251.0
 40
251.0
 40
252.0
 40
252.0
 40
252.0
 40
253.0
 40
253.0
 40
253.0
 40
254.0
 40
254.0
 40
254.0
 40
255.0
 40
255.0
 40
255.0
 40
256.0
 40
256.0
 40
256.0
 40
257.0
 40
257.0
 40
257.0
 40
258.0
 40
258.0
 40
258.0
 40
259.0
 40
259.0
 40
259.0
 40
260.0
 40
260.0
 40
260.0
 40
261.0
 40
261.0
 40
261.0
 40
262.0
 40
262.0
 40
262.0
 40
263.0
 40
263.0
 40
263.0
 40
264.0
 40
264.0
 40
264.0
 40
265.0
 40
265.0
 40
265.0
 40
266.0
 40
266.0
 40
266.0
 40
267.0
 40
267.0
 40
267.0
 40
268.0
 40
268.0
 40
268.0
 40
269.0
 40
269.0
 40
269.0
 40
270.0
 40
270.0
 40
270.0
 40
271.0
 40
271.0
 40
271.0
 40
272.0
 40
272.0
 40
272.0
 40
273.0
 40
273.0
 40
273.0
 40
274.0
 40
274.0
 40
274.0
 40
275.0
 40
275.0
 40
275.0
 40
276.0
 40
276.0
 40
276.0
 40
277.0
 40
277.0
 40
277.0
 40
278.0
 40
278.0
 40
278.0
 40
279.0
 40
279.0
 40
279.0
 40
280.0
 40
280.0
 40
280.0
 40
281.0
 40
281.0
 40
281.0
 40
282.0
 40
282.0
 40
282.0
 40
283.0
 40
283.0
 40
283.0
 40
284.0
 40
284.0
 40
284.0
 40
285.0
 40
285.0
 40
285.0
 40
286.0
 40
286.0
 40
286.0
 40
287.0
 40
287.0
 40
287.0
 40
288.0
 40
288.0
 40
288.0
 40
289.0
 40
289.0
 40
289.0
 40
290.0
 40
290.0
 40
290.0
 40
291.0
 40
291.0
 40
291.0
 40
292.0
 40
292.0
 40
292.0
 40
292.0
 10
21.16581999470844
 20
-48.32815665458491
 30
0.0
 10
21.14151360582587
 20
-48.51142471009413
 30
0.0
 10
21.16701943915276
 20
-48.65027804339319
 30
0.0
 10
21.18423499470386
 20
-48.79082471002473
 30
0.0
 10
21.19510055025686
 20
-48.87799609889136
 30
0.0
 10
21.23711638357965
 20
-48.9999513766386
 30
0.0
 10
21.10104999472485
 20
-49.02062415441131
 30
0.0
 10
20.96600666142516
 20
-49.0405913766285
 30
0.0
 10
20.9656538836474
 20
-48.91655470999286
 30
0.0
 10
20.95514110587249
 20
-48.82666693223798
 30
0.0
 10
20.93739638365442
 20
-48.6647419322782
 30
0.0
 10
20.92018082810332
 20
-48.50281693231906
 30
0.0
 10
20.91809943921491
 20
-48.34124471013704
 30
0.0
 10
20.91619443921538
 20
-48.21583221016851
 30
0.0
 10
20.87089777256018
 20
-48.19826387683933
 30
0.0
 10
20.77099110591822
 20
-48.24959304349335
 30
0.0
 10
20.55445610597265
 20
-48.36191748790975
 30
0.0
 10
20.33277055047234
 20
-48.46492859899492
 30
0.0
 10
20.12195055052502
 20
-48.58790693229728
 30
0.0
 10
19.46617193957779
 20
-48.96894220998016
 30
0.0
 10
18.7540547175338
 20
-49.16737970993056
 30
0.0
 10
18.00785916216473
 20
-49.25867859879649
 30
0.0
 10
17.80046110666087
 20
-49.28485470990073
 30
0.0
 10
17.61133694004171
 20
-49.2197319321397
 30
0.0
 10
17.45008221785961
 20
-49.08504137661746
 30
0.0
 10
17.31867249567042
 20
-48.9744455433117
 30
0.0
 10
17.22081194013935
 20
-48.83732082112393
 30
0.0
 10
17.13762694016001
 20
-48.68918943227244
 30
0.0
 10
16.74265694025876
 20
-47.9781305435611
 30
0.0
 10
16.79518555135679
 20
-47.66634554363918
 30
0.0
 10
17.32675110677949
 20
-47.0527591549033
 30
0.0
 10
18.18061443989935
 20
-46.06780359959418
 30
0.0
 10
19.22155582852779
 20
-45.39223415531831
 30
0.0
 10
20.48315971710143
 20
-45.06185776651209
 30
0.0
 10
20.73119777259488
 20
-44.99606471097306
 30
0.0
 10
20.9830458280877
 20
-44.94642887765216
 30
0.0
 10
21.23471749469132
 20
-44.8954524887759
 30
0.0
 10
21.42038443908919
 20
-44.85823443322976
 30
0.0
 10
21.5621658279429
 20
-44.7731444332509
 30
0.0
 10
21.68084027235772
 20
-44.61467665551305
 30
0.0
 10
22.02811471671513
 20
-44.154760266739
 30
0.0
 10
22.50094277215242
 20
-43.97872415567198
 30
0.0
 10
23.06887971645501
 20
-44.05933387787378
 30
0.0
 10
23.18222721642654
 20
-44.07587915564784
 30
0.0
 10
23.29038888306645
 20
-44.07690221120296
 30
0.0
 10
23.40338360526021
 20
-44.05658221120801
 30
0.0
 10
23.61303943854104
 20
-44.0200697112174
 30
0.0
 10
23.82283638293323
 20
-43.99523415566787
 30
0.0
 10
24.03764277176848
 20
-44.03142915565888
 30
0.0
 10
24.32565054947415
 20
-44.08032415564674
 30
0.0
 10
24.59280916051855
 20
-44.00317165566558
 30
0.0
 10
24.85584027156397
 20
-43.88396804458475
 30
0.0
 10
26.49865582670873
 20
-43.14257026699234
 30
0.0
 10
28.16263804851501
 20
-42.44840943383218
 30
0.0
 10
29.82489165921033
 20
-41.75319026733936
 30
0.0
 10
30.66358554788965
 20
-41.40214110076042
 30
0.0
 10
31.52037693656448
 20
-41.10171554527999
 30
0.0
 10
32.42006610300618
 20
-40.9480455453188
 30
0.0
 10
32.90136082510814
 20
-40.86641276756123
 30
0.0
 10
33.38762971387533
 20
-40.83092332312575
 30
0.0
 10
33.87597999153091
 20
-40.80887471202014
 30
0.0
 10
34.49538721359825
 20
-40.77959415647172
 30
0.0
 10
35.11412415788823
 20
-40.77892387869436
 30
0.0
 10
35.73338936614307
 20
-40.78167554536012
 30
0.0
 10
35.97059713786917
 20
-40.78305137869301
 30
0.0
 10
36.20829879847156
 20
-40.78993054535808
 30
0.0
 10
36.44533018131327
 20
-40.80266582313244
 30
0.0
 10
36.5555732340563
 20
-40.80887471202014
 30
0.0
 10
36.62757517666382
 20
-40.78234582313749
 30
0.0
 10
36.64634295396279
 20
-40.66349498983443
 30
0.0
 10
36.70592711910934
 20
-40.29314887881566
 30
0.0
 10
36.92073350251806
 20
-40.09972082330832
 30
0.0
 10
37.29626543738188
 20
-40.05146082332031
 30
0.0
 10
37.56843348599386
 20
-40.01650054555147
 30
0.0
 10
37.825255701664
 20
-39.89973110113617
 30
0.0
 10
38.099999990475
 20
-39.86508832336692
 30
0.0
 10
38.17856263709483
 20
-39.85475193448089
 30
0.0
 10
38.22696374697113
 20
-39.81220693449146
 30
0.0
 10
38.2322916571086
 20
-39.7317736011782
 30
0.0
 10
38.24417930208748
 20
-39.55711332344406
 30
0.0
 10
38.35287013264788
 20
-39.4799255456857
 30
0.0
 10
38.5092917953239
 20
-39.45099776791504
 30
0.0
 10
38.67051123565529
 20
-39.42118804570029
 30
0.0
 10
38.74974512252275
 20
-39.33765026794352
 30
0.0
 10
38.72099373436738
 20
-39.16348387909817
 30
0.0
 10
38.69806317939683
 20
-39.0256888791324
 30
0.0
 10
38.78435262163984
 20
-38.94680776804123
 30
0.0
 10
38.89583039657359
 20
-38.88358999027909
 30
0.0
 10
39.51696621406042
 20
-38.52477971259101
 30
0.0
 10
40.17997776773269
 20
-38.26192499043446
 30
0.0
 10
40.85678090210113
 20
-38.0338541571582
 30
0.0
 10
41.58057505030227
 20
-37.79096665721885
 30
0.0
 10
42.30990780947322
 20
-37.56427165727548
 30
0.0
 10
43.03751195757715
 20
-37.33313165733354
 30
0.0
 10
43.16221889884006
 20
-37.29298554623243
 30
0.0
 10
43.26731139615892
 20
-37.25492082401973
 30
0.0
 10
43.27902361808234
 20
-37.09264304628252
 30
0.0
 10
43.28763139564052
 20
-36.97294554631225
 30
0.0
 10
43.38789083752713
 20
-36.92228665743622
 30
0.0
 10
43.50088555686662
 20
-36.89646332410909
 30
0.0
 10
43.79337360496018
 20
-36.82823610190421
 30
0.0
 10
44.08378026421796
 20
-36.75073082414561
 30
0.0
 10
44.37729136784098
 20
-36.68768943527267
 30
0.0
 10
44.77109719112749
 20
-36.60171749084972
 30
0.0
 10
45.11420884904064
 20
-36.41774387978434
 30
0.0
 10
45.43322578534629
 20
-36.17746693540003
 30
0.0
 10
46.37616665507232
 20
-35.46690193557781
 30
0.0
 10
47.36179129170004
 20
-34.82784499129288
 30
0.0
 10
48.44527765294689
 20
-34.35138332474542
 30
0.0
 10
49.31618013072831
 20
-33.9681255470634
 30
0.0
 10
50.21537538556571
 20
-33.69080693602185
 30
0.0
 10
51.17722397213802
 20
-33.66822915824961
 30
0.0
 10
51.26474813657176
 20
-33.66650054713897
 30
0.0
 10
51.35121396769917
 20
-33.6489322138101
 30
0.0
 10
51.43905563212481
 20
-33.64067721381215
 30
0.0
 10
51.72226562489951
 20
-33.61707638048447
 30
0.0
 10
51.71535118063147
 20
-33.61880499159543
 30
0.0
 10
51.6561197932537
 20
-33.34903582499599
 30
0.0
 10
51.49073887601639
 20
-32.59059888074135
 30
0.0
 10
51.12557730678897
 20
-31.94258138090327
 30
0.0
 10
50.622233986297
 20
-31.35534749216117
 30
0.0
 10
49.85293150592354
 20
-30.45706943683019
 30
0.0
 10
49.31653290849709
 20
-29.43489582597461
 30
0.0
 10
49.04817485978792
 20
-28.27510360404246
 30
0.0
 10
48.94653958460307
 20
-27.83776499304065
 30
0.0
 10
48.65094709214427
 20
-27.59882860421139
 30
0.0
 10
48.20997488117219
 20
-27.52474527089657
 30
0.0
 10
47.71559211600716
 20
-27.44173665980611
 30
0.0
 10
47.22191490637969
 20
-27.51165721534444
 30
0.0
 10
46.73098936334869
 20
-27.54181971533663
 30
0.0
 10
45.59067050355176
 20
-27.61417443754081
 30
0.0
 10
44.45620775471654
 20
-27.57833221532756
 30
0.0
 10
43.32312083917955
 20
-27.43690360425193
 30
0.0
 10
42.67785502230832
 20
-27.35576471538316
 30
0.0
 10
42.03153087213076
 20
-27.27240332651527
 30
0.0
 10
41.37938588876836
 20
-27.27018082651582
 30
0.0
 10
39.1752303894455
 20
-27.26122027096235
 30
0.0
 10
36.99703933390467
 20
-27.02228388213341
 30
0.0
 10
34.84403749128886
 20
-26.54617499336339
 30
0.0
 10
34.5767024913559
 20
-26.48659082671173
 30
0.0
 10
34.29832554698107
 20
-26.47918249338035
 30
0.0
 10
34.02513443593817
 20
-26.44732666005471
 30
0.0
 10
33.94554776929149
 20
-26.4380133267238
 30
0.0
 10
33.87597999153091
 20
-26.46366027116173
 30
0.0
 10
33.8165369359903
 20
-26.51449554892695
 30
0.0
 10
33.45084749163716
 20
-26.82610415995999
 30
0.0
 10
33.02433915841051
 20
-27.03727693768506
 30
0.0
 10
32.59578471407329
 20
-27.24467499318893
 30
0.0
 10
31.99839082533371
 20
-27.53458777089412
 30
0.0
 10
31.45387832546992
 20
-27.89233971524925
 30
0.0
 10
31.03583665890762
 20
-28.42185915956106
 30
0.0
 10
30.89804165894217
 20
-28.59602554840641
 30
0.0
 10
30.70976415898926
 20
-28.64477943728322
 30
0.0
 10
30.57366249235661
 20
-28.56932027063551
 30
0.0
 10
30.4327630479473
 20
-28.49181499287691
 30
0.0
 10
30.36732277018603
 20
-28.28854443737234
 30
0.0
 10
30.42140360350582
 20
-28.0858030485341
 30
0.0
 10
30.47805971460283
 20
-27.87201971525429
 30
0.0
 10
30.61416138123547
 20
-27.71199971529436
 30
0.0
 10
30.77915554786063
 20
-27.57127665977394
 30
0.0
 10
30.98810582558625
 20
-27.39160693759641
 30
0.0
 10
31.19705610331188
 20
-27.21228999319697
 30
0.0
 10
31.40117332548301
 20
-27.02866915990935
 30
0.0
 10
31.55364388100052
 20
-26.89034499327726
 30
0.0
 10
31.56292193655359
 20
-26.74616471553554
 30
0.0
 10
31.44389471436132
 20
-26.57993582668823
 30
0.0
 10
31.33657971438798
 20
-26.42958193783697
 30
0.0
 10
31.18587304775896
 20
-26.34445666008058
 30
0.0
 10
31.01343527002426
 20
-26.29640832675929
 30
0.0
 10
30.75936471453231
 20
-26.2263113823324
 30
0.0
 10
30.52113388125858
 20
-26.09468999347617
 30
0.0
 10
30.27309582576513
 20
-26.0357761046022
 30
0.0
 10
29.87551527030883
 20
-25.94260749351426
 30
0.0
 10
29.48537832596207
 20
-25.78569193799818
 30
0.0
 10
29.06402054828952
 20
-25.80135527132752
 30
0.0
 10
28.62477693728819
 20
-25.81737138243462
 30
0.0
 10
28.18708554850894
 20
-25.82202804909991
 30
0.0
 10
27.77659332638907
 20
-25.62066249359487
 30
0.0
 10
27.66084693752922
 20
-25.56450027138667
 30
0.0
 10
27.58383554865974
 20
-25.48389054918454
 30
0.0
 10
27.54940443755722
 20
-25.36313471588131
 30
0.0
 10
27.50685943756779
 20
-25.21119332703044
 30
0.0
 10
27.56058749310982
 20
-25.1207763826086
 30
0.0
 10
27.71820860418142
 20
-25.10285527150198
 30
0.0
 10
27.78763527083095
 20
-25.09544693817059
 30
0.0
 10
27.81776249304562
 20
-25.06891804928826
 30
0.0
 10
27.83808249304057
 20
-25.01035693819173
 30
0.0
 10
27.85480415970287
 20
-24.96057999375979
 30
0.0
 10
27.88701277080595
 20
-24.91182610488329
 30
0.0
 10
27.93731888190453
 20
-24.90494693821823
 30
0.0
 10
28.05426471520871
 20
-24.88924832711105
 30
0.0
 10
28.09388165964317
 20
-24.8136480493523
 30
0.0
 10
28.13935471518725
 20
-24.71614027159867
 30
0.0
 10
28.21911777072314
 20
-24.54423166053062
 30
0.0
 10
28.3610755484654
 20
-24.60677916051508
 30
0.0
 10
28.47509332621461
 20
-24.67341888272068
 30
0.0
 10
28.63874693728472
 20
-24.77007999380742
 30
0.0
 10
28.80356471502131
 20
-24.84998416045403
 30
0.0
 10
28.9954758260844
 20
-24.87256193822627
 30
0.0
 10
29.09778138161436
 20
-24.88409777155663
 30
0.0
 10
29.13602249271594
 20
-24.86134360489583
 30
0.0
 10
29.11605527049875
 20
-24.75402860492249
 30
0.0
 10
29.09778138161436
 20
-24.65655610494702
 30
0.0
 10
29.11086943716681
 20
-24.55869554941595
 30
0.0
 10
29.21148165936365
 20
-24.5109999938721
 30
0.0
 10
29.31223499267185
 20
-24.46379832721737
 30
0.0
 10
29.39302110376286
 20
-24.52218304942502
 30
0.0
 10
29.46280054818983
 20
-24.59041027163022
 30
0.0
 10
29.60578138148754
 20
-24.72820527159568
 30
0.0
 10
29.77511471477839
 20
-24.82398443823834
 30
0.0
 10
29.96699054806396
 20
-24.8677288826721
 30
0.0
 10
30.40365888128808
 20
-24.9691877715355
 30
0.0
 10
30.83376554784706
 20
-25.09322443817114
 30
0.0
 10
31.29660999217576
 20
-25.03879082707359
 30
0.0
 10
31.65474999208616
 20
-24.99691610486184
 30
0.0
 10
32.02026304755043
 20
-25.02464443818818
 30
0.0
 10
32.38270693634869
 20
-25.01035693819173
 30
0.0
 10
33.55142443605647
 20
-24.96710638264709
 30
0.0
 10
34.72208221354163
 20
-24.95370082709504
 30
0.0
 10
35.89136325100171
 20
-24.92043388265868
 30
0.0
 10
36.6117354548457
 20
-24.89958471599741
 30
0.0
 10
37.32399377000781
 20
-24.80193582713274
 30
0.0
 10
38.03438332382485
 20
-24.68033332716326
 30
0.0
 10
39.12319566855079
 20
-24.49272610498803
 30
0.0
 10
40.21356119628881
 20
-24.45381471610877
 30
0.0
 10
41.28981665634402
 20
-24.76609360491949
 30
0.0
 10
42.00743615052324
 20
-24.97451471597848
 30
0.0
 10
42.72435113223322
 20
-24.9238911048803
 30
0.0
 10
43.44574639160667
 20
-24.79727916046744
 30
0.0
 10
44.06621193133283
 20
-24.68841193827233
 30
0.0
 10
44.69115774872247
 20
-24.66290610494544
 30
0.0
 10
45.31472773281387
 20
-24.76094304936539
 30
0.0
 10
45.9720585493773
 20
-24.86377777156168
 30
0.0
 10
46.55841047886266
 20
-24.63105027162013
 30
0.0
 10
47.15199435260796
 20
-24.41056416056414
 30
0.0
 10
47.97192044280101
 20
-24.10654027175105
 30
0.0
 10
48.80803903258096
 20
-23.9211908273531
 30
0.0
 10
49.68585595463043
 20
-24.12774221619041
 30
0.0
 10
49.80710567375932
 20
-24.15614082729443
 30
0.0
 10
49.93047205950086
 20
-24.18767916061982
 30
0.0
 10
50.04209094554212
 20
-24.24123082727297
 30
0.0
 10
50.17265399776674
 20
-24.30342554947967
 30
0.0
 10
50.23636566280798
 20
-24.25692943838015
 30
0.0
 10
50.29496205020195
 20
-24.14460499396375
 30
0.0
 10
50.49234121183306
 20
-23.76857916072456
 30
0.0
 10
50.40520510294498
 20
-23.40581777192638
 30
0.0
 10
50.21227220966941
 20
-23.07060832756566
 30
0.0
 10
49.94973372567613
 20
-22.61566610545715
 30
0.0
 10
49.53564443206027
 20
-22.28737110553934
 30
0.0
 10
49.17598624541607
 20
-21.91392055007704
 30
0.0
 10
49.11982402462667
 20
-21.85655888342483
 30
0.0
 10
49.06747180374006
 20
-21.87430360564257
 30
0.0
 10
49.00749958304786
 20
-21.9087347167451
 30
0.0
 10
48.84423403165755
 20
-22.00056277227767
 30
0.0
 10
48.66198903630701
 20
-22.00398471672112
 30
0.0
 10
48.4976298738335
 20
-21.94044943895937
 30
0.0
 10
48.23548071385481
 20
-21.83761471676276
 30
0.0
 10
47.96087849863827
 20
-21.77005777233524
 30
0.0
 10
47.70148100525606
 20
-21.66260166125118
 30
0.0
 10
47.35491212520888
 20
-21.51753943906506
 30
0.0
 10
47.27359684950562
 20
-21.2950072168985
 30
0.0
 10
47.43929656750049
 20
-20.9549647169836
 30
0.0
 10
47.47753887701963
 20
-20.87555443922548
 30
0.0
 10
47.49030823286574
 20
-20.82750610590418
 30
0.0
 10
47.41107434599828
 20
-20.76566416147525
 30
0.0
 10
47.15541629696511
 20
-20.56359305041468
 30
0.0
 10
46.90808380327508
 20
-20.35224388380072
 30
0.0
 10
46.71275075270289
 20
-20.08748416164466
 30
0.0
 10
46.66692492053867
 20
-20.02528943943827
 30
0.0
 10
46.63351686583542
 20
-19.99893693944482
 30
0.0
 10
46.55047297906516
 20
-20.06321305053961
 30
0.0
 10
46.4247429822728
 20
-20.15948610607139
 30
0.0
 10
46.31619443286571
 20
-20.10265360608551
 30
0.0
 10
46.2800335415202
 20
-19.94143416168125
 30
0.0
 10
46.25971354203861
 20
-19.85031166170421
 30
0.0
 10
46.24729576457764
 20
-19.75746055061619
 30
0.0
 10
46.22284826520134
 20
-19.61532638398505
 30
0.0
 10
46.16739159994949
 20
-19.7045791617404
 30
0.0
 10
46.13052632311223
 20
-19.75746055061619
 30
0.0
 10
46.1008929905349
 20
-19.8136227728244
 30
0.0
 10
46.04127354761147
 20
-19.92196082835286
 30
0.0
 10
45.96651993840749
 20
-19.98119221722708
 30
0.0
 10
45.8452702192786
 20
-19.8995594394695
 30
0.0
 10
45.73467438876681
 20
-19.824805828377
 30
0.0
 10
45.61134443304142
 20
-19.75347416172826
 30
0.0
 10
45.7043707784288
 20
-19.58622221732582
 30
0.0
 10
45.72536105567107
 20
-19.54868666177945
 30
0.0
 10
45.74846799952601
 20
-19.51111582845555
 30
0.0
 10
45.77118688783529
 20
-19.47393305068694
 30
0.0
 10
45.92139966178082
 20
-19.22483666186053
 30
0.0
 10
45.92069410624327
 20
-19.22638888408229
 30
0.0
 10
45.67678355691039
 20
-19.04982360634862
 30
0.0
 10
45.58894189248475
 20
-18.98575916192023
 30
0.0
 10
45.45079411823141
 20
-18.93474749526645
 30
0.0
 10
45.49972439476088
 20
-18.79659971752291
 30
0.0
 10
45.55003050458858
 20
-18.65485360644736
 30
0.0
 10
45.53761387750468
 20
-18.45521666205297
 30
0.0
 10
45.75569994378596
 20
-18.4247013842827
 30
0.0
 10
45.86421438546196
 20
-18.40988471761961
 30
0.0
 10
45.83080633075872
 20
-18.34892471763507
 30
0.0
 10
45.79873883157683
 20
-18.29103388431622
 30
0.0
 10
45.72846665523448
 20
-18.16495110657001
 30
0.0
 10
45.65268883530288
 20
-18.04264305104502
 30
0.0
 10
45.58516717035883
 20
-17.9151844399656
 30
0.0
 10
45.45735578473068
 20
-17.67504860669234
 30
0.0
 10
45.62926439145604
 20
-17.37000166232412
 30
0.0
 10
45.89762244016521
 20
-17.36516860676995
 30
0.0
 10
45.9982346598206
 20
-17.36396916232562
 30
0.0
 10
45.96239243851279
 20
-17.29281388456577
 30
0.0
 10
45.97064743830219
 20
-17.24702332902145
 30
0.0
 10
46.0023621597153
 20
-17.07440916239819
 30
0.0
 10
45.96376943295324
 20
-16.85064221800947
 30
0.0
 10
46.18908743272932
 20
-16.79447999580126
 30
0.0
 10
46.40269437172419
 20
-16.74039916248147
 30
0.0
 10
46.5535774234304
 20
-16.65650860694693
 30
0.0
 10
46.65140269871245
 20
-16.44463027366665
 30
0.0
 10
46.69931109943636
 20
-16.34112527369236
 30
0.0
 10
46.86500963770733
 20
-16.37005305146302
 30
0.0
 10
46.9642472104813
 20
-16.40811777367572
 30
0.0
 10
47.07378352126995
 20
-16.44928694033227
 30
0.0
 10
47.13993054377057
 20
-16.41347999589654
 30
0.0
 10
47.21881046201445
 20
-16.35784694035498
 30
0.0
 10
47.6198482295609
 20
-16.07516610709229
 30
0.0
 10
48.06561943242797
 20
-15.90325749602423
 30
0.0
 10
48.55139443230667
 20
-15.83365444048614
 30
0.0
 10
49.37855124024821
 20
-15.71617944051532
 30
0.0
 10
50.09790038856275
 20
-15.97162582934048
 30
0.0
 10
50.73212426127124
 20
-16.48735166254496
 30
0.0
 10
51.20064841598486
 20
-16.86891610689385
 30
0.0
 10
51.55067451816606
 20
-17.34724749566332
 30
0.0
 10
51.81215340038406
 20
-17.88883193997214
 30
0.0
 10
51.86764534341279
 20
-18.00270860661031
 30
0.0
 10
51.91241284227068
 20
-18.04849916215463
 30
0.0
 10
52.05056061652401
 20
-17.9899380510581
 30
0.0
 10
52.28519443137284
 20
-17.89038416219423
 30
0.0
 10
52.47258866131273
 20
-17.97476860661757
 30
0.0
 10
52.53287838199684
 20
-18.2176561065566
 30
0.0
 10
52.61281782440186
 20
-18.54461055091937
 30
0.0
 10
52.6924044890381
 20
-18.87343471750383
 30
0.0
 10
52.71166615521336
 20
-19.21139582853064
 30
0.0
 10
52.71685198841439
 20
-19.29941388406415
 30
0.0
 10
52.72200254383855
 20
-19.40432999514885
 30
0.0
 10
52.65585671219274
 20
-19.46186805068994
 30
0.0
 10
52.51082977144824
 20
-19.5871041617699
 30
0.0
 10
52.55492699254545
 20
-19.7198897172923
 30
0.0
 10
52.59764838034442
 20
-19.86787999503307
 30
0.0
 10
52.63934671261394
 20
-20.01135471721926
 30
0.0
 10
52.66929754518316
 20
-20.15948610607139
 30
0.0
 10
52.66792171188493
 20
-20.31072193936674
 30
0.0
 10
52.66792171188493
 20
-20.37482166157297
 30
0.0
 10
52.68481976700938
 20
-20.43493499489126
 30
0.0
 10
52.71787504394385
 20
-20.48936860598882
 30
0.0
 10
52.98418698159411
 20
-20.92723638365694
 30
0.0
 10
53.25014614147559
 20
-21.36492777243651
 30
0.0
 10
53.5157525235883
 20
-21.79986749454999
 30
0.0
 10
53.58295668854044
 20
-21.79866805010598
 30
0.0
 10
53.58433252183868
 20
-21.74476360567507
 30
0.0
 10
53.60017224365679
 20
-21.70839221679518
 30
0.0
 10
53.93502890178056
 20
-20.95323610587296
 30
0.0
 10
54.36841639072392
 20
-20.26147416160144
 30
0.0
 10
54.91963165443902
 20
-19.64513610619979
 30
0.0
 10
54.99198637481533
 20
-19.56417360622022
 30
0.0
 10
55.04814998623777
 20
-19.47220443957629
 30
0.0
 10
55.06261387512343
 20
-19.36436027293663
 30
0.0
 10
55.18008887509361
 20
-18.50464082870715
 30
0.0
 10
55.4732810847587
 20
-17.68884221779999
 30
0.0
 10
55.68582969044724
 20
-16.85272360689787
 30
0.0
 10
55.76164163295756
 20
-16.55402666252808
 30
0.0
 10
55.82052024256655
 20
-16.25638805149158
 30
0.0
 10
55.77952746583459
 20
-15.94492055156926
 30
0.0
 10
55.68099663501498
 20
-15.19650249620074
 30
0.0
 10
55.9218380177595
 20
-14.51366582970486
 30
0.0
 10
56.17813106677647
 20
-13.82860666320952
 30
0.0
 10
56.54022216864987
 20
-12.86121944122926
 30
0.0
 10
56.9198816034084
 20
-11.89986471924717
 30
0.0
 10
57.19892881851153
 20
-10.90372610838513
 30
0.0
 10
57.32501159307267
 20
-10.45654499738577
 30
0.0
 10
57.37394186960213
 20
-9.996275830834279
 30
0.0
 10
57.33880520383187
 20
-9.528633608728923
 30
0.0
 10
57.32293020423688
 20
-9.320177219892097
 30
0.0
 10
57.22545770672361
 20
-9.159486942154482
 30
0.0
 10
57.08798021023095
 20
-9.019081386633978
 30
0.0
 10
56.48578855892747
 20
-8.406553331231706
 30
0.0
 10
56.00897412664758
 20
-7.705301664740394
 30
0.0
 10
55.60003413708051
 20
-6.954625831594585
 30
0.0
 10
55.58214830420349
 20
-6.921182498269665
 30
0.0
 10
55.56147552695311
 20
-6.890208609388434
 30
0.0
 10
55.54493024959744
 20
-6.856588887174635
 30
0.0
 10
55.49324830647151
 20
-6.754636109422429
 30
0.0
 10
55.42847830812393
 20
-6.643687498339232
 30
0.0
 10
55.54733054166884
 20
-6.552564998361865
 30
0.0
 10
55.66861413533089
 20
-6.459043609496491
 30
0.0
 10
55.78608913233385
 20
-6.513124442816284
 30
0.0
 10
55.8839144076159
 20
-6.604952498348854
 30
0.0
 10
56.07272106946571
 20
-6.782188053859888
 30
0.0
 10
56.18536301103642
 20
-7.019889720467299
 30
0.0
 10
56.36072883989579
 20
-7.207814442642452
 30
0.0
 10
56.40274467215721
 20
-7.252969998186614
 30
0.0
 10
56.4268746715416
 20
-7.314988331504436
 30
0.0
 10
56.51094161384133
 20
-7.343916109275099
 30
0.0
 10
56.435129671331
 20
-7.118420553776052
 30
0.0
 10
56.33557578498195
 20
-6.920335831603103
 30
0.0
 10
56.22293384341124
 20
-6.727930831651213
 30
0.0
 10
55.99415746035892
 20
-6.336911942860374
 30
0.0
 10
55.82637776382104
 20
-5.918658609631355
 30
0.0
 10
55.68099663501498
 20
-5.492185554182549
 30
0.0
 10
55.58800441516519
 20
-5.220511387583896
 30
0.0
 10
55.61933108103265
 20
-5.078765276508028
 30
0.0
 10
55.75853718859231
 20
-5.028811943187208
 30
0.0
 10
55.91629940678969
 20
-4.973002498756769
 30
0.0
 10
56.07684998598098
 20
-5.071180554287761
 30
0.0
 10
56.18846745540166
 20
-5.307506387561967
 30
0.0
 10
56.31352717443334
 20
-5.573148054162118
 30
0.0
 10
56.42722744931039
 20
-5.844610554094371
 30
0.0
 10
56.54812439067049
 20
-6.112121942916529
 30
0.0
 10
56.57087855675665
 20
-6.161369720681825
 30
0.0
 10
56.60636943029311
 20
-6.204267498449019
 30
0.0
 10
56.64736077702765
 20
-6.268190831766367
 30
0.0
 10
56.65459272128759
 20
-6.229067776220387
 30
0.0
 10
56.66528331916709
 20
-6.21029999844752
 30
0.0
 10
56.6604488322493
 20
-6.197211942895073
 30
0.0
 10
56.46476300390833
 20
-5.649947776365193
 30
0.0
 10
56.53161439109169
 20
-5.069981109843757
 30
0.0
 10
56.45717828187961
 20
-4.507547498873022
 30
0.0
 10
56.44514998588886
 20
-4.416283887784935
 30
0.0
 10
56.47682800360052
 20
-4.332710832249996
 30
0.0
 10
56.5660455013244
 20
-4.28621472115079
 30
0.0
 10
56.66080161001808
 20
-4.236614165607412
 30
0.0
 10
56.7489960522125
 20
-4.257957221157809
 30
0.0
 10
56.82787716131118
 20
-4.321351387808515
 30
0.0
 10
56.91882327010207
 20
-4.394905554456699
 30
0.0
 10
56.97808993525671
 20
-4.489838054433119
 30
0.0
 10
56.99495271260428
 20
-4.606431109959536
 30
0.0
 10
57.0318194301868
 20
-4.866534165449988
 30
0.0
 10
57.07111743288338
 20
-5.126143332051958
 30
0.0
 10
57.10039798769193
 20
-5.387269443097533
 30
0.0
 10
57.11831909834584
 20
-5.544890554169458
 30
0.0
 10
57.16689659710652
 20
-5.686636665245005
 30
0.0
 10
57.25988881695631
 20
-5.819104720767479
 30
0.0
 10
57.2196015957619
 20
-5.54005749861496
 30
0.0
 10
57.23096103991654
 20
-5.262033332017884
 30
0.0
 10
57.24059187300417
 20
-4.98453833208713
 30
0.0
 10
57.24750631727222
 20
-4.778163332138711
 30
0.0
 10
57.26264048355278
 20
-4.572141109968054
 30
0.0
 10
57.27918576090845
 20
-4.366648054464038
 30
0.0
 10
57.28849909400418
 20
-4.254006110047714
 30
0.0
 10
57.3305149262656
 20
-4.153746665628315
 30
0.0
 10
57.45522186752851
 20
-4.128099721190063
 30
0.0
 10
57.57717714219495
 20
-4.103440554529735
 30
0.0
 10
57.65503519576418
 20
-4.178370554510803
 30
0.0
 10
57.71603047198584
 20
-4.272279998931779
 30
0.0
 10
57.77148713723768
 20
-4.358040276688327
 30
0.0
 10
57.80249630311324
 20
-4.452619998886986
 30
0.0
 10
57.80457769194903
 20
-4.555101943305512
 30
0.0
 10
57.80630630301604
 20
-4.649328887726409
 30
0.0
 10
57.81766574717068
 20
-4.744226109924989
 30
0.0
 10
57.80870519184373
 20
-4.836900832124122
 30
0.0
 10
57.73257574934151
 20
-5.590716387491302
 30
0.0
 10
58.24142240302641
 20
-6.246142220660769
 30
0.0
 10
58.73164239051986
 20
-6.820781942739226
 30
0.0
 10
58.74543600127907
 20
-6.661079442779214
 30
0.0
 10
58.74645905680853
 20
-6.521061942814313
 30
0.0
 10
58.72060044635712
 20
-6.380127220627168
 30
0.0
 10
58.68514628059496
 20
-6.189450831785925
 30
0.0
 10
58.64619961492191
 20
-5.998598054055802
 30
0.0
 10
58.66309767004636
 20
-5.80255944299374
 30
0.0
 10
58.67685600302869
 20
-5.648219165254547
 30
0.0
 10
58.7247632240287
 20
-5.509753887511411
 30
0.0
 10
58.89942498527541
 20
-5.486646943072849
 30
0.0
 10
59.07030904854642
 20
-5.463751665300687
 30
0.0
 10
59.11542932517308
 20
-5.604651109709991
 30
0.0
 10
59.16330276298707
 20
-5.728511387456755
 30
0.0
 10
59.19639182310756
 20
-5.815682776323706
 30
0.0
 10
59.20672821173275
 20
-5.917282776298471
 30
0.0
 10
59.25632876602288
 20
-5.993271109612823
 30
0.0
 10
59.60289764607007
 20
-6.527235553923855
 30
0.0
 10
59.57326431349274
 20
-7.104133053779601
 30
0.0
 10
59.48990292673058
 20
-7.69859888696421
 30
0.0
 10
59.43649237253764
 20
-8.079422497980053
 30
0.0
 10
59.27873015434027
 20
-8.418265553450947
 30
0.0
 10
59.12336682497058
 20
-8.758131664477284
 30
0.0
 10
58.86047683167747
 20
-9.331395553222858
 30
0.0
 10
58.82879738804123
 20
-9.943076941958568
 30
0.0
 10
58.79090905567451
 20
-10.55507583069452
 30
0.0
 10
58.71615544647052
 20
-11.76034110817108
 30
0.0
 10
58.644153503863
 20
-12.96578277453619
 30
0.0
 10
58.57522220757873
 20
-14.17087166312387
 30
0.0
 10
58.56283822815975
 20
-14.38345555195967
 30
0.0
 10
58.55938100602572
 20
-14.59826194079492
 30
0.0
 10
58.57659656114208
 20
-14.80961110740856
 30
0.0
 10
58.62863128203679
 20
-15.43127610725318
 30
0.0
 10
58.57282183901616
 20
-16.03519638488006
 30
0.0
 10
58.32270240095279
 20
-16.61174110695805
 30
0.0
 10
58.0315916521587
 20
-17.28198360679061
 30
0.0
 10
57.87933130115302
 20
-17.9938891621682
 30
0.0
 10
57.70294241676418
 20
-18.69757499532568
 30
0.0
 10
57.31880270434218
 20
-20.22753693938772
 30
0.0
 10
56.84096665245636
 20
-21.73079360567854
 30
0.0
 10
56.39346661683836
 20
-23.24198777196739
 30
0.0
 10
56.35487272893408
 20
-23.37343277193443
 30
0.0
 10
56.36693772862628
 20
-23.48177082746289
 30
0.0
 10
56.42962776367057
 20
-23.6006216607666
 30
0.0
 10
56.5336605021506
 20
-23.79941193849475
 30
0.0
 10
56.65596855458583
 20
-23.99767304955626
 30
0.0
 10
56.71385938644224
 20
-24.21145638283607
 30
0.0
 10
56.84992577185979
 20
-24.71564638270987
 30
0.0
 10
57.2499052060999
 20
-25.0132849937467
 30
0.0
 10
57.56617047580908
 20
-25.37622277143376
 30
0.0
 10
57.96957185440635
 20
-25.84012554909542
 30
0.0
 10
58.36369517768475
 20
-26.30794416008965
 30
0.0
 10
58.61829489341159
 20
-26.87570471550337
 30
0.0
 10
58.89667183075405
 20
-27.49701693757023
 30
0.0
 10
58.96761544005524
 20
-28.15141971518425
 30
0.0
 10
58.91628627469809
 20
-28.82116832612801
 30
0.0
 10
58.8835837755324
 20
-29.23853971491263
 30
0.0
 10
58.81295766622311
 20
-29.65400610369771
 30
0.0
 10
58.79055627790573
 20
-30.07190665914865
 30
0.0
 10
58.76575600076066
 20
-30.52250971459146
 30
0.0
 10
58.82466988814653
 20
-30.97466499225636
 30
0.0
 10
58.90425655278278
 20
-31.4154961032573
 30
0.0
 10
59.09510932569149
 20
-32.46779693632755
 30
0.0
 10
58.98211460635201
 20
-33.49561499162603
 30
0.0
 10
58.73785276309339
 20
-34.52156332470283
 30
0.0
 10
58.66447498533377
 20
-34.8313022135145
 30
0.0
 10
58.63000711533502
 20
-35.15031915787924
 30
0.0
 10
58.57522220757873
 20
-35.46467943557836
 30
0.0
 10
58.55423045060157
 20
-35.58748137999216
 30
0.0
 10
58.57282183901616
 20
-35.69705415774248
 30
0.0
 10
58.644153503863
 20
-35.80331082438254
 30
0.0
 10
59.06752210417308
 20
-36.44049804644546
 30
0.0
 10
59.33108237522687
 20
-37.14742943515751
 30
0.0
 10
59.56638514700158
 20
-37.87055332386554
 30
0.0
 10
59.80098236323872
 20
-38.58954971257491
 30
0.0
 10
60.0769604117535
 20
-39.29545804573184
 30
0.0
 10
60.30915873916295
 20
-40.0156538788849
 30
0.0
 10
60.58026845446859
 20
-40.8567819342304
 30
0.0
 10
60.89138316875362
 20
-41.68083554513551
 30
0.0
 10
61.2641281592441
 20
-42.48044165604637
 30
0.0
 10
61.65895703806007
 20
-43.32791971138996
 30
0.0
 10
62.10716119329209
 20
-44.14371832229713
 30
0.0
 10
62.7007450670374
 20
-44.87238082211518
 30
0.0
 10
62.91742117262064
 20
-45.13763443315973
 30
0.0
 10
62.89780831760876
 20
-45.23651804424624
 30
0.0
 10
62.60496590281426
 20
-45.41841026642321
 30
0.0
 10
62.23324396785323
 20
-45.65060859969844
 30
0.0
 10
62.22290757922804
 20
-45.54449304416974
 30
0.0
 10
62.41273887328559
 20
-46.01785026627304
 30
0.0
 10
62.71281006672959
 20
-46.7675030438634
 30
0.0
 10
63.0087200591803
 20
-47.51821415478705
 30
0.0
 10
63.27676060789757
 20
-48.28024943237466
 30
0.0
 10
63.36255616126429
 20
-48.52415998786913
 30
0.0
 10
63.33324032867888
 20
-48.73120526559524
 30
0.0
 10
63.14859644450064
 20
-48.91726026554838
 30
0.0
 10
63.01390589238133
 20
-49.05403220995903
 30
0.0
 10
62.93569506104332
 20
-49.2190616543617
 30
0.0
 10
62.8936792287819
 20
-49.40956165431438
 30
0.0
 10
62.85025228544537
 20
-49.61075082093054
 30
0.0
 10
62.78135478720309
 20
-49.80710693199253
 30
0.0
 10
62.71175173342326
 20
-50.00109943194402
 30
0.0
 10
62.60771756941072
 20
-50.29048304298322
 30
0.0
 10
62.55120257085254
 20
-50.30942720964465
 30
0.0
 10
62.29145229970155
 20
-50.1574858207941
 30
0.0
 10
62.06581563879135
 20
-50.02589970971603
 30
0.0
 10
61.84257786670884
 20
-49.89085637641602
 30
0.0
 10
61.60381942904349
 20
-49.74787554311831
 30
0.0
 10
61.59556287301072
 20
-50.08100359859095
 30
0.0
 10
61.61655315025299
 20
-50.40414804295435
 30
0.0
 10
61.57143287362633
 20
-50.72559915398526
 30
0.0
 10
61.52320815263442
 20
-51.07283832056514
 30
0.0
 10
61.46842176514325
 20
-51.41908970936742
 30
0.0
 10
61.38954065604456
 20
-51.76015526483776
 30
0.0
 10
61.33821149068741
 20
-51.98441609811528
 30
0.0
 10
61.22140831802772
 20
-52.03401665365802
 30
0.0
 10
61.02092316544878
 20
-51.91689443146496
 30
0.0
 10
60.66433539676831
 20
-51.70847332040597
 30
0.0
 10
60.31120485022186
 20
-51.4931377649044
 30
0.0
 10
59.93052235993388
 20
-51.3298722093899
 30
0.0
 10
59.88748347214301
 20
-51.31124554272743
 30
0.0
 10
59.84165763997879
 20
-51.26337359829535
 30
0.0
 10
59.79410319674756
 20
-51.30436637606301
 30
0.0
 10
59.75550930884329
 20
-51.33915026494297
 30
0.0
 10
59.78927014131531
 20
-51.38772776493059
 30
0.0
 10
59.79823069664226
 20
-51.42840304269865
 30
0.0
 10
60.02594874638825
 20
-52.46020748688475
 30
0.0
 10
60.03011152405982
 20
-53.50128998662456
 30
0.0
 10
59.94777319282711
 20
-54.54791109747406
 30
0.0
 10
59.94085874855907
 20
-54.63508248634134
 30
0.0
 10
59.93673124866437
 20
-54.73121443076144
 30
0.0
 10
59.84165763997879
 20
-54.77323026408423
 30
0.0
 10
59.74037514256272
 20
-54.81799776407343
 30
0.0
 10
59.67871109619132
 20
-54.73290776409457
 30
0.0
 10
59.61323403469525
 20
-54.68020276410765
 30
0.0
 10
59.42859165180978
 20
-54.53171859747841
 30
0.0
 10
59.272168487841
 20
-54.35053193085696
 30
0.0
 10
59.07337821513479
 20
-54.21682915311232
 30
0.0
 10
59.01619442969071
 20
-54.25785720865751
 30
0.0
 10
59.04582776301625
 20
-54.31229081975506
 30
0.0
 10
59.04618054079401
 20
-54.35705831974426
 30
0.0
 10
59.05274071566129
 20
-55.00782748624811
 30
0.0
 10
59.08406738152875
 20
-55.65930220830749
 30
0.0
 10
58.94419099620841
 20
-56.30181637481338
 30
0.0
 10
58.92492933003314
 20
-56.39311526367931
 30
0.0
 10
58.92351821895804
 20
-56.49958359698641
 30
0.0
 10
58.81775544387849
 20
-56.53609609697703
 30
0.0
 10
58.70581905784534
 20
-56.57465470807852
 30
0.0
 10
58.64757544822015
 20
-56.47820526365818
 30
0.0
 10
58.58213517211188
 20
-56.41551665256267
 30
0.0
 10
58.15079379422743
 20
-55.99863915266718
 30
0.0
 10
57.71567769421706
 20
-55.58490137499274
 30
0.0
 10
57.29333214943644
 20
-55.15874581954353
 30
0.0
 10
57.16827243040475
 20
-55.03231026401988
 30
0.0
 10
57.07729104383699
 20
-55.02610137513218
 30
0.0
 10
56.94880938044817
 20
-55.13909609732658
 30
0.0
 10
56.85990938271619
 20
-55.21660137508486
 30
0.0
 10
56.75552244093488
 20
-55.277949430625
 30
0.0
 10
56.65459272128759
 20
-55.3406380417205
 30
0.0
 10
56.55228716834207
 20
-55.40540804170442
 30
0.0
 10
56.46684439274411
 20
-55.38096054171017
 30
0.0
 10
56.39861717226252
 20
-55.27964276395812
 30
0.0
 10
56.20603578828679
 20
-54.99438665291822
 30
0.0
 10
56.02174468187734
 20
-54.7039799863239
 30
0.0
 10
55.87943412995242
 20
-54.38944331973622
 30
0.0
 10
55.8194971870371
 20
-54.25612859754686
 30
0.0
 10
55.77335385488098
 20
-54.25337693088109
 30
0.0
 10
55.70375080110114
 20
-54.37670804196121
 30
0.0
 10
55.65757219116815
 20
-54.45869359749655
 30
0.0
 10
55.6021155259163
 20
-54.5351758196997
 30
0.0
 10
55.55801830481909
 20
-54.61751415301215
 30
0.0
 10
55.48291191784632
 20
-54.75841359742146
 30
0.0
 10
55.38783830916074
 20
-54.75566193075569
 30
0.0
 10
55.29170636716883
 20
-54.65127498633699
 30
0.0
 10
55.19871414731904
 20
-54.55034526414023
 30
0.0
 10
55.12015053821225
 20
-54.43699776416871
 30
0.0
 10
55.03262776401948
 20
-54.33088220863937
 30
0.0
 10
54.99473804141179
 20
-54.28438609754016
 30
0.0
 10
54.98164998619013
 20
-54.21443026422431
 30
0.0
 10
54.8855533219751
 20
-54.19823776422801
 30
0.0
 10
54.85796610045669
 20
-54.54791109747406
 30
0.0
 10
54.86177610035949
 20
-54.9024174862743
 30
0.0
 10
54.76977165826227
 20
-55.23660387507957
 30
0.0
 10
54.62749638411424
 20
-55.75268248606182
 30
0.0
 10
54.62301610645076
 20
-56.28664693037285
 30
0.0
 10
54.52035777573646
 20
-56.80653554135415
 30
0.0
 10
54.4631724994176
 20
-57.09831804128072
 30
0.0
 10
54.35945583539696
 20
-57.37359054121202
 30
0.0
 10
54.24956556042272
 20
-57.64438276336691
 30
0.0
 10
54.12175554202486
 20
-57.95648526328843
 30
0.0
 10
54.04873054204364
 20
-58.27483192987581
 30
0.0
 10
54.04908331982076
 20
-58.61071165201422
 30
0.0
 10
54.05045778772461
 20
-59.55054692955702
 30
0.0
 10
54.09007473115834
 20
-60.4896766515443
 30
0.0
 10
54.04908331982076
 20
-61.4274305401987
 30
0.0
 10
54.0025505667246
 20
-62.50230915104087
 30
0.0
 10
53.9340058462511
 20
-63.57718776188368
 30
0.0
 10
53.87819640323048
 20
-64.65136081717033
 30
0.0
 10
53.84478834852723
 20
-65.30040137256353
 30
0.0
 10
53.81688362701691
 20
-65.95085303906778
 30
0.0
 10
53.7892964054985
 20
-66.60091665001674
 30
0.0
 10
53.7727864059197
 20
-67.00160164991658
 30
0.0
 10
53.76449612835343
 20
-67.40122831648313
 30
0.0
 10
53.7469277954683
 20
-67.80187803860481
 30
0.0
 10
53.74004998656525
 20
-67.95932276078817
 30
0.0
 10
53.7731039059116
 20
-68.09747053853107
 30
0.0
 10
53.88680554208386
 20
-68.21392248294677
 30
0.0
 10
53.93467612401178
 20
-68.26249998293437
 30
0.0
 10
53.9722469563866
 20
-68.32278970514123
 30
0.0
 10
54.00946501099264
 20
-68.37962220512743
 30
0.0
 10
54.20098806166204
 20
-68.66935859394376
 30
0.0
 10
54.19858917283435
 20
-68.6965930383813
 30
0.0
 10
53.94123779051104
 20
-68.93806942721024
 30
0.0
 10
53.88542834749042
 20
-68.9904569271969
 30
0.0
 10
53.87579751440278
 20
-69.05247526051441
 30
0.0
 10
53.85854668150956
 20
-69.12031442716433
 30
0.0
 10
53.75828723962294
 20
-69.51616637150998
 30
0.0
 10
53.85029168172016
 20
-69.90305776030218
 30
0.0
 10
53.9098758468667
 20
-70.29132498242724
 30
0.0
 10
54.00946501099264
 20
-70.9407183155982
 30
0.0
 10
54.10764443091761
 20
-71.59011164876918
 30
0.0
 10
54.20719695039252
 20
-72.2391874819399
 30
0.0
 10
54.21375861689179
 20
-72.28190887081821
 30
0.0
 10
54.22924556094113
 20
-72.32427748191877
 30
0.0
 10
54.23510167190284
 20
-72.36766914857444
 30
0.0
 10
54.27267250427766
 20
-72.65363081516986
 30
0.0
 10
54.37737694605087
 20
-72.8582419262298
 30
0.0
 10
54.72256999279982
 20
-72.83689887067972
 30
0.0
 10
54.85764998628574
 20
-72.82864387068177
 30
0.0
 10
54.99096331928587
 20
-72.89097970399952
 30
0.0
 10
55.11704609384701
 20
-72.95126942620637
 30
0.0
 10
55.18731942538752
 20
-72.98573581508673
 30
0.0
 10
55.25967414576382
 20
-73.02535275952151
 30
0.0
 10
55.22245609115777
 20
-73.12042637060898
 30
0.0
 10
55.18456775879105
 20
-73.21722859280709
 30
0.0
 10
55.10533387192359
 20
-73.19278109281284
 30
0.0
 10
55.03195609601784
 20
-73.16385331504218
 30
0.0
 10
54.88587220850088
 20
-73.10525692616844
 30
0.0
 10
54.73773943685726
 20
-73.05667942618018
 30
0.0
 10
54.57962444089111
 20
-73.04807164840447
 30
0.0
 10
54.53792610862159
 20
-73.0453199817387
 30
0.0
 10
54.48211666560096
 20
-73.03223192618658
 30
0.0
 10
54.46938138814809
 20
-73.0907930372828
 30
0.0
 10
54.45558777738888
 20
-73.15351692615582
 30
0.0
 10
54.50487220859615
 20
-73.17658859281718
 30
0.0
 10
54.55757583034251
 20
-73.1875952594809
 30
0.0
 10
54.75428609742281
 20
-73.22791775947056
 30
0.0
 10
54.94686609818866
 20
-73.28164581501323
 30
0.0
 10
55.13013414906866
 20
-73.36677109276962
 30
0.0
 10
55.24450470170638
 20
-73.41947609275653
 30
0.0
 10
55.34994997679402
 20
-73.48526914829556
 30
0.0
 10
55.43331136355619
 20
-73.58242414827079
 30
0.0
 10
55.57456358217476
 20
-73.7474535926741
 30
0.0
 10
55.5859230263294
 20
-73.90659164818994
 30
0.0
 10
55.46742497379699
 20
-74.05853303704113
 30
0.0
 10
55.33926081040006
 20
-74.22250414811116
 30
0.0
 10
55.15355859291549
 20
-74.26522553698948
 30
0.0
 10
54.96581026437202
 20
-74.16496609257008
 30
0.0
 10
54.89416109953328
 20
-74.1274305370237
 30
0.0
 10
54.83041415671515
 20
-74.07574859259192
 30
0.0
 10
54.76324526953989
 20
-74.03027553704783
 30
0.0
 10
54.69639388235652
 20
-73.98550803705928
 30
0.0
 10
54.65921110552735
 20
-73.90486303707931
 30
0.0
 10
54.55238999714147
 20
-73.87318359264287
 30
0.0
 10
54.52550833116062
 20
-74.14877359257378
 30
0.0
 10
54.57687277429464
 20
-74.41131081473071
 30
0.0
 10
54.60304888473794
 20
-74.67278970355373
 30
0.0
 10
54.63920860603766
 20
-75.04521720346091
 30
0.0
 10
54.63437555060541
 20
-75.4103774811471
 30
0.0
 10
54.53690305309213
 20
-75.77211581439015
 30
0.0
 10
54.47590777687047
 20
-76.00156248099961
 30
0.0
 10
54.37427250168563
 20
-76.08425359208982
 30
0.0
 10
54.13727776424315
 20
-76.08838109208912
 30
0.0
 10
53.94331917934683
 20
-76.09183831431042
 30
0.0
 10
53.74936196207287
 20
-76.08425359208982
 30
0.0
 10
53.55536946702203
 20
-76.09010970319977
 30
0.0
 10
53.25670780797486
 20
-76.09836470319772
 30
0.0
 10
53.05964614633565
 20
-75.95817081434394
 30
0.0
 10
52.93148332010028
 20
-75.69528081440923
 30
0.0
 10
52.58385476958522
 20
-74.97801303681082
 30
0.0
 10
52.27139949977883
 20
-74.24561109254941
 30
0.0
 10
52.09398887586528
 20
-73.46837109274374
 30
0.0
 10
51.85039451051956
 20
-72.40107720412216
 30
0.0
 10
51.24234674825438
 20
-71.58735998210341
 30
0.0
 10
50.4007248252815
 20
-70.92830053782345
 30
0.0
 10
49.79609900737346
 20
-70.4549433157195
 30
0.0
 10
49.75062595297801
 20
-69.88136192697434
 30
0.0
 10
50.29527955019385
 20
-69.33600276044366
 30
0.0
 10
50.42792399125425
 20
-69.20300553825454
 30
0.0
 10
50.56744759880582
 20
-69.07692276050865
 30
0.0
 10
50.70972287295385
 20
-68.95461470498365
 30
0.0
 10
51.01738036510486
 20
-68.68967859393871
 30
0.0
 10
51.17034480564686
 20
-68.35930220513248
 30
0.0
 10
51.15655119488765
 20
-67.95279637190087
 30
0.0
 10
51.15485786159751
 20
-67.90936942746703
 30
0.0
 10
51.14794341732947
 20
-67.86185026081206
 30
0.0
 10
51.16071397255923
 20
-67.82223331637792
 30
0.0
 10
51.33156424597825
 20
-67.29306664984355
 30
0.0
 10
51.17965813874259
 20
-66.7694033166407
 30
0.0
 10
51.12797619561666
 20
-66.24644553899404
 30
0.0
 10
50.99603731009381
 20
-64.91248692821623
 30
0.0
 10
50.67010592952013
 20
-63.60953748409747
 30
0.0
 10
50.44065926870713
 20
-62.29043081776059
 30
0.0
 10
50.1957256638448
 20
-60.87967248478002
 30
0.0
 10
50.22846344078737
 20
-59.47473498513123
 30
0.0
 10
50.50405343375648
 20
-58.07226692992612
 30
0.0
 10
50.58847315382497
 20
-57.64265415225627
 30
0.0
 10
50.68319398474178
 20
-57.21544026347377
 30
0.0
 10
50.75865314948332
 20
-56.78342859691527
 30
0.0
 10
50.81583842580218
 20
-56.45580387477482
 30
0.0
 10
50.78483054285947
 20
-56.12129998596994
 30
0.0
 10
50.78310064885961
 20
-55.79092359716307
 30
0.0
 10
50.78070176003192
 20
-55.31583776394913
 30
0.0
 10
50.83100786985962
 20
-54.84283331962232
 30
0.0
 10
50.7893095375901
 20
-54.36566609751997
 30
0.0
 10
50.73177148350246
 20
-53.70491331990689
 30
0.0
 10
50.64082537471158
 20
-53.04895832007109
 30
0.0
 10
50.53403954410258
 20
-52.3943791535682
 30
0.0
 10
50.51199093355397
 20
-52.26004137582371
 30
0.0
 10
50.45067815734041
 20
-52.25312693138113
 30
0.0
 10
50.33972954905984
 20
-52.29172082026015
 30
0.0
 10
50.16267038691033
 20
-52.35338637580053
 30
0.0
 10
49.98247150261869
 20
-52.40817276467584
 30
0.0
 10
49.80124956279761
 20
-52.45537443133057
 30
0.0
 10
49.57077984645516
 20
-52.51739276464871
 30
0.0
 10
49.49775484831818
 20
-52.47396582021488
 30
0.0
 10
49.43813540539475
 20
-52.23763998694035
 30
0.0
 10
49.37167207375704
 20
-51.97651387589445
 30
0.0
 10
49.30584374210313
 20
-51.71535248707104
 30
0.0
 10
49.25557291005232
 20
-51.45076915380385
 30
0.0
 10
49.22833846630267
 20
-51.30884665383942
 30
0.0
 10
49.18113680084022
 20
-51.26199776496246
 30
0.0
 10
49.02990097136524
 20
-51.30263776495237
 30
0.0
 10
48.73949431210746
 20
-51.3798255427104
 30
0.0
 10
48.69744443227039
 20
-51.35050970938445
 30
0.0
 10
48.62406665451077
 20
-51.05907998723501
 30
0.0
 10
48.53830515057356
 20
-50.71251109843313
 30
0.0
 10
48.45663709710153
 20
-50.36523665407508
 30
0.0
 10
48.3825890434351
 20
-50.01658637638479
 30
0.0
 10
48.3567304329837
 20
-49.89600693197045
 30
0.0
 10
48.32332237828045
 20
-49.88051998752967
 30
0.0
 10
48.229942102885
 20
-49.96077693195436
 30
0.0
 10
48.03979488551384
 20
-50.1233722096915
 30
0.0
 10
47.83447822408524
 20
-50.26737609854433
 30
0.0
 10
47.62259989615737
 20
-50.40139637628857
 30
0.0
 10
47.43760323421036
 20
-50.51820109848139
 30
0.0
 10
47.37625518021992
 20
-50.50440748737374
 30
0.0
 10
47.26223740535098
 20
-50.31217887631106
 30
0.0
 10
47.09618609933714
 20
-50.03277887638045
 30
0.0
 10
46.92942685828613
 20
-49.7533788764505
 30
0.0
 10
46.77268887719598
 20
-49.46776998763283
 30
0.0
 10
46.71169241939656
 20
-49.3578797098826
 30
0.0
 10
46.66071603180819
 20
-49.34754332099624
 30
0.0
 10
46.55460047895986
 20
-49.4147122098688
 30
0.0
 10
46.39129964979268
 20
-49.51807609873173
 30
0.0
 10
46.2118063210386
 20
-49.59491109871265
 30
0.0
 10
46.04406049198482
 20
-49.69171332091011
 30
0.0
 10
45.87490355185593
 20
-49.78922109866375
 30
0.0
 10
45.76914077677638
 20
-49.73510498756643
 30
0.0
 10
45.6743846680827
 20
-49.57836582093859
 30
0.0
 10
45.37293606466218
 20
-49.07780943217528
 30
0.0
 10
45.12214634883814
 20
-48.55344054341692
 30
0.0
 10
44.9581399641334
 20
-47.99188887689122
 30
0.0
 10
44.91129107643973
 20
-47.83204526581985
 30
0.0
 10
44.85064857798685
 20
-47.7955327658286
 30
0.0
 10
44.69288635978948
 20
-47.85409387692545
 30
0.0
 10
44.46516943332804
 20
-47.9398894324592
 30
0.0
 10
44.22503248283653
 20
-47.99294721022387
 30
0.0
 10
43.99491665566763
 20
-48.07355693242632
 30
0.0
 10
43.81436388220245
 20
-48.13726859907695
 30
0.0
 10
43.71481110018215
 20
-48.07768443242497
 30
0.0
 10
43.64178610020093
 20
-47.91025609913365
 30
0.0
 10
43.32312083917955
 20
-47.18162887709376
 30
0.0
 10
42.96723862603664
 20
-46.47159304393754
 30
0.0
 10
42.5638019696625
 20
-45.7856519329978
 30
0.0
 10
42.19931197896142
 20
-45.1651863775975
 30
0.0
 10
41.74214726840243
 20
-44.62088554440011
 30
0.0
 10
41.2415908922838
 20
-44.10995748897228
 30
0.0
 10
41.14270832304766
 20
-44.00938054455328
 30
0.0
 10
41.03761478637656
 20
-44.01350804455194
 30
0.0
 10
40.91463645618066
 20
-44.03555665565754
 30
0.0
 10
39.87302481608772
 20
-44.21988304450068
 30
0.0
 10
38.82707499029313
 20
-44.38660582223648
 30
0.0
 10
37.77099848082599
 20
-44.44622526666597
 30
0.0
 10
37.02254516658729
 20
-44.48894665554428
 30
0.0
 10
36.26876490804005
 20
-44.47617609999175
 30
0.0
 10
35.51840659384995
 20
-44.45239887777551
 30
0.0
 10
34.41805832472885
 20
-44.41761498889554
 30
0.0
 10
33.33301971388889
 20
-44.45793748888521
 30
0.0
 10
32.27331054748726
 20
-44.80485915546549
 30
0.0
 10
31.41013388103648
 20
-45.08701082206186
 30
0.0
 10
30.5049413812626
 20
-45.12489915538536
 30
0.0
 10
29.609203325931
 20
-45.22307721091635
 30
0.0
 10
27.93887110412629
 20
-45.40567498864885
 30
0.0
 10
26.28864721565014
 20
-45.6950585996874
 30
0.0
 10
24.70530999382384
 20
-46.28624359953928
 30
0.0
 10
24.67031443827683
 20
-46.29897887731428
 30
0.0
 10
24.63037999384245
 20
-46.30723387731224
 30
0.0
 10
24.60141693829394
 20
-46.32896498841759
 30
0.0
 10
23.93911193845973
 20
-46.82814554384866
 30
0.0
 10
23.10055916089145
 20
-46.96562304381419
 30
0.0
 10
22.40466971662095
 20
-47.39968082148359
 30
0.0
 10
22.1874644388977
 20
-47.53542971033847
 30
0.0
 10
21.97159971672916
 20
-47.67460054363713
 30
0.0
 10
21.7483619390074
 20
-47.80036582138342
 30
0.0
 10
21.66757582791639
 20
-47.8458388769275
 30
0.0
 10
21.66877527236072
 20
-47.87959971025234
 30
0.0
 10
21.74112999456458
 20
-47.93332776579437
 30
0.0
 10
21.87705527230867
 20
-48.0342927657693
 30
0.0
 10
22.00073916116655
 20
-48.15141498796235
 30
0.0
 10
22.08392416114556
 20
-48.30229804348026
 30
0.0
 10
22.15335082779509
 20
-48.42806332122655
 30
0.0
 10
22.19088638334115
 20
-48.56275387674815
 30
0.0
 10
22.10131610558587
 20
-48.69194109893822
 30
0.0
 10
22.01675527227365
 20
-48.81354359890769
 30
0.0
 10
21.8801597167522
 20
-48.83079443223663
 30
0.0
 10
21.74663332789676
 20
-48.81633054335162
 30
0.0
 10
21.46518721685591
 20
-48.78634443224767
 30
0.0
 10
21.28915110578888
 20
-48.61203693229129
 30
0.0
 10
21.16581999470844
 20
-48.32815665458491
 30
0.0
  0
SPLINE
  5
42
330
1F
100
AcDbEntity
  8
Layer 1
370
     0
100
AcDbSpline
210
0.0
220
0.0
230
1.0
 70
    11
 71
     3
 72
    17
 73
    13
 74
     0
 42
0.0000000001
 43
0.0000000001
 12
1.0
 22
0.0
 32
0.0
 13
1.0
 23
0.0
 33
0.0
 40
0.0
 40
0.0
 40
0.0
 40
0.0
 40
1.0
 40
1.0
 40
1.0
 40
2.0
 40
2.0
 40
2.0
 40
3.0
 40
3.0
 40
3.0
 40
4.0
 40
4.0
 40
4.0
 40
4.0
 10
54.55584721927549
 20
-73.41637164831235
 30
0.0
 10
54.70845888204871
 20
-73.64271387047829
 30
0.0
 10
54.84593637854137
 20
-73.81462248154666
 30
0.0
 10
55.038835262509
 20
-73.9344963704055
 30
0.0
 10
55.12600664917396
 20
-73.98825970372505
 30
0.0
 10
55.21935164679253
 20
-74.00307637038782
 30
0.0
 10
55.28655581174468
 20
-73.90659164818994
 30
0.0
 10
55.35026747678592
 20
-73.81462248154666
 30
0.0
 10
55.27378525651493
 20
-73.75362720378364
 30
0.0
 10
55.21487136912906
 20
-73.70300359268514
 30
0.0
 10
55.03678915145009
 20
-73.54933359272395
 30
0.0
 10
54.81834915702296
 20
-73.49041970384934
 30
0.0
 10
54.55584721927549
 20
-73.41637164831235
 30
0.0
  0
SPLINE
  5
43
330
1F
100
AcDbEntity
  8
Layer 1
370
     0
100
AcDbSpline
210
0.0
220
0.0
230
1.0
 70
    11
 71
     3
 72
    17
 73
    13
 74
     0
 42
0.0000000001
 43
0.0000000001
 12
1.0
 22
0.0
 32
0.0
 13
1.0
 23
0.0
 33
0.0
 40
0.0
 40
0.0
 40
0.0
 40
0.0
 40
1.0
 40
1.0
 40
1.0
 40
2.0
 40
2.0
 40
2.0
 40
3.0
 40
3.0
 40
3.0
 40
4.0
 40
4.0
 40
4.0
 40
4.0
 10
21.78780249455298
 20
-48.58240359896574
 30
0.0
 10
21.89236582786024
 20
-48.57965193229933
 30
0.0
 10
21.94870443895732
 20
-48.54141082119808
 30
0.0
 10
21.88876749452791
 20
-48.43254359900296
 30
0.0
 10
21.78917832788619
 20
-48.25096887682624
 30
0.0
 10
21.63571999459108
 20
-48.12453332130194
 30
0.0
 10
21.45245193908123
 20
-48.0342927657693
 30
0.0
 10
21.411282772425
 20
-48.01393748799683
 30
0.0
 10
21.36820860576892
 20
-47.99707471022317
 30
0.0
 10
21.35476777243904
 20
-48.06770082131638
 30
0.0
 10
21.3175497168929
 20
-48.27128887682119
 30
0.0
 10
21.58283860571529
 20
-48.58790693229728
 30
0.0
 10
21.78780249455298
 20
-48.58240359896574
 30
0.0
  0
HATCH
  5
44
330
1F
100
AcDbEntity
  8
Layer 1
 62
     7
100
AcDbHatch
 10
0.0
 20
0.0
 30
0.0
210
0.0
220
0.0
230
1.0
  2
SOLID
 70
     1
 71
     0
 91
        3
 92
        1
 93
        1
 72
     4
 94
        3
 73
     0
 74
     1
 95
      881
 96
      877
 40
0.0
 40
0.0
 40
0.0
 40
0.0
 40
1.0
 40
1.0
 40
1.0
 40
2.0
 40
2.0
 40
2.0
 40
3.0
 40
3.0
 40
3.0
 40
4.0
 40
4.0
 40
4.0
 40
5.0
 40
5.0
 40
5.0
 40
6.0
 40
6.0
 40
6.0
 40
7.0
 40
7.0
 40
7.0
 40
8.0
 40
8.0
 40
8.0
 40
9.0
 40
9.0
 40
9.0
 40
10.0
 40
10.0
 40
10.0
 40
11.0
 40
11.0
 40
11.0
 40
12.0
 40
12.0
 40
12.0
 40
13.0
 40
13.0
 40
13.0
 40
14.0
 40
14.0
 40
14.0
 40
15.0
 40
15.0
 40
15.0
 40
16.0
 40
16.0
 40
16.0
 40
17.0
 40
17.0
 40
17.0
 40
18.0
 40
18.0
 40
18.0
 40
19.0
 40
19.0
 40
19.0
 40
20.0
 40
20.0
 40
20.0
 40
21.0
 40
21.0
 40
21.0
 40
22.0
 40
22.0
 40
22.0
 40
23.0
 40
23.0
 40
23.0
 40
24.0
 40
24.0
 40
24.0
 40
25.0
 40
25.0
 40
25.0
 40
26.0
 40
26.0
 40
26.0
 40
27.0
 40
27.0
 40
27.0
 40
28.0
 40
28.0
 40
28.0
 40
29.0
 40
29.0
 40
29.0
 40
30.0
 40
30.0
 40
30.0
 40
31.0
 40
31.0
 40
31.0
 40
32.0
 40
32.0
 40
32.0
 40
33.0
 40
33.0
 40
33.0
 40
34.0
 40
34.0
 40
34.0
 40
35.0
 40
35.0
 40
35.0
 40
36.0
 40
36.0
 40
36.0
 40
37.0
 40
37.0
 40
37.0
 40
38.0
 40
38.0
 40
38.0
 40
39.0
 40
39.0
 40
39.0
 40
40.0
 40
40.0
 40
40.0
 40
41.0
 40
41.0
 40
41.0
 40
42.0
 40
42.0
 40
42.0
 40
43.0
 40
43.0
 40
43.0
 40
44.0
 40
44.0
 40
44.0
 40
45.0
 40
45.0
 40
45.0
 40
46.0
 40
46.0
 40
46.0
 40
47.0
 40
47.0
 40
47.0
 40
48.0
 40
48.0
 40
48.0
 40
49.0
 40
49.0
 40
49.0
 40
50.0
 40
50.0
 40
50.0
 40
51.0
 40
51.0
 40
51.0
 40
52.0
 40
52.0
 40
52.0
 40
53.0
 40
53.0
 40
53.0
 40
54.0
 40
54.0
 40
54.0
 40
55.0
 40
55.0
 40
55.0
 40
56.0
 40
56.0
 40
56.0
 40
57.0
 40
57.0
 40
57.0
 40
58.0
 40
58.0
 40
58.0
 40
59.0
 40
59.0
 40
59.0
 40
60.0
 40
60.0
 40
60.0
 40
61.0
 40
61.0
 40
61.0
 40
62.0
 40
62.0
 40
62.0
 40
63.0
 40
63.0
 40
63.0
 40
64.0
 40
64.0
 40
64.0
 40
65.0
 40
65.0
 40
65.0
 40
66.0
 40
66.0
 40
66.0
 40
67.0
 40
67.0
 40
67.0
 40
68.0
 40
68.0
 40
68.0
 40
69.0
 40
69.0
 40
69.0
 40
70.0
 40
70.0
 40
70.0
 40
71.0
 40
71.0
 40
71.0
 40
72.0
 40
72.0
 40
72.0
 40
73.0
 40
73.0
 40
73.0
 40
74.0
 40
74.0
 40
74.0
 40
75.0
 40
75.0
 40
75.0
 40
76.0
 40
76.0
 40
76.0
 40
77.0
 40
77.0
 40
77.0
 40
78.0
 40
78.0
 40
78.0
 40
79.0
 40
79.0
 40
79.0
 40
80.0
 40
80.0
 40
80.0
 40
81.0
 40
81.0
 40
81.0
 40
82.0
 40
82.0
 40
82.0
 40
83.0
 40
83.0
 40
83.0
 40
84.0
 40
84.0
 40
84.0
 40
85.0
 40
85.0
 40
85.0
 40
86.0
 40
86.0
 40
86.0
 40
87.0
 40
87.0
 40
87.0
 40
88.0
 40
88.0
 40
88.0
 40
89.0
 40
89.0
 40
89.0
 40
90.0
 40
90.0
 40
90.0
 40
91.0
 40
91.0
 40
91.0
 40
92.0
 40
92.0
 40
92.0
 40
93.0
 40
93.0
 40
93.0
 40
94.0
 40
94.0
 40
94.0
 40
95.0
 40
95.0
 40
95.0
 40
96.0
 40
96.0
 40
96.0
 40
97.0
 40
97.0
 40
97.0
 40
98.0
 40
98.0
 40
98.0
 40
99.0
 40
99.0
 40
99.0
 40
100.0
 40
100.0
 40
100.0
 40
101.0
 40
101.0
 40
101.0
 40
102.0
 40
102.0
 40
102.0
 40
103.0
 40
103.0
 40
103.0
 40
104.0
 40
104.0
 40
104.0
 40
105.0
 40
105.0
 40
105.0
 40
106.0
 40
106.0
 40
106.0
 40
107.0
 40
107.0
 40
107.0
 40
108.0
 40
108.0
 40
108.0
 40
109.0
 40
109.0
 40
109.0
 40
110.0
 40
110.0
 40
110.0
 40
111.0
 40
111.0
 40
111.0
 40
112.0
 40
112.0
 40
112.0
 40
113.0
 40
113.0
 40
113.0
 40
114.0
 40
114.0
 40
114.0
 40
115.0
 40
115.0
 40
115.0
 40
116.0
 40
116.0
 40
116.0
 40
117.0
 40
117.0
 40
117.0
 40
118.0
 40
118.0
 40
118.0
 40
119.0
 40
119.0
 40
119.0
 40
120.0
 40
120.0
 40
120.0
 40
121.0
 40
121.0
 40
121.0
 40
122.0
 40
122.0
 40
122.0
 40
123.0
 40
123.0
 40
123.0
 40
124.0
 40
124.0
 40
124.0
 40
125.0
 40
125.0
 40
125.0
 40
126.0
 40
126.0
 40
126.0
 40
127.0
 40
127.0
 40
127.0
 40
128.0
 40
128.0
 40
128.0
 40
129.0
 40
129.0
 40
129.0
 40
130.0
 40
130.0
 40
130.0
 40
131.0
 40
131.0
 40
131.0
 40
132.0
 40
132.0
 40
132.0
 40
133.0
 40
133.0
 40
133.0
 40
134.0
 40
134.0
 40
134.0
 40
135.0
 40
135.0
 40
135.0
 40
136.0
 40
136.0
 40
136.0
 40
137.0
 40
137.0
 40
137.0
 40
138.0
 40
138.0
 40
138.0
 40
139.0
 40
139.0
 40
139.0
 40
140.0
 40
140.0
 40
140.0
 40
141.0
 40
141.0
 40
141.0
 40
142.0
 40
142.0
 40
142.0
 40
143.0
 40
143.0
 40
143.0
 40
144.0
 40
144.0
 40
144.0
 40
145.0
 40
145.0
 40
145.0
 40
146.0
 40
146.0
 40
146.0
 40
147.0
 40
147.0
 40
147.0
 40
148.0
 40
148.0
 40
148.0
 40
149.0
 40
149.0
 40
149.0
 40
150.0
 40
150.0
 40
150.0
 40
151.0
 40
151.0
 40
151.0
 40
152.0
 40
152.0
 40
152.0
 40
153.0
 40
153.0
 40
153.0
 40
154.0
 40
154.0
 40
154.0
 40
155.0
 40
155.0
 40
155.0
 40
156.0
 40
156.0
 40
156.0
 40
157.0
 40
157.0
 40
157.0
 40
158.0
 40
158.0
 40
158.0
 40
159.0
 40
159.0
 40
159.0
 40
160.0
 40
160.0
 40
160.0
 40
161.0
 40
161.0
 40
161.0
 40
162.0
 40
162.0
 40
162.0
 40
163.0
 40
163.0
 40
163.0
 40
164.0
 40
164.0
 40
164.0
 40
165.0
 40
165.0
 40
165.0
 40
166.0
 40
166.0
 40
166.0
 40
167.0
 40
167.0
 40
167.0
 40
168.0
 40
168.0
 40
168.0
 40
169.0
 40
169.0
 40
169.0
 40
170.0
 40
170.0
 40
170.0
 40
171.0
 40
171.0
 40
171.0
 40
172.0
 40
172.0
 40
172.0
 40
173.0
 40
173.0
 40
173.0
 40
174.0
 40
174.0
 40
174.0
 40
175.0
 40
175.0
 40
175.0
 40
176.0
 40
176.0
 40
176.0
 40
177.0
 40
177.0
 40
177.0
 40
178.0
 40
178.0
 40
178.0
 40
179.0
 40
179.0
 40
179.0
 40
180.0
 40
180.0
 40
180.0
 40
181.0
 40
181.0
 40
181.0
 40
182.0
 40
182.0
 40
182.0
 40
183.0
 40
183.0
 40
183.0
 40
184.0
 40
184.0
 40
184.0
 40
185.0
 40
185.0
 40
185.0
 40
186.0
 40
186.0
 40
186.0
 40
187.0
 40
187.0
 40
187.0
 40
188.0
 40
188.0
 40
188.0
 40
189.0
 40
189.0
 40
189.0
 40
190.0
 40
190.0
 40
190.0
 40
191.0
 40
191.0
 40
191.0
 40
192.0
 40
192.0
 40
192.0
 40
193.0
 40
193.0
 40
193.0
 40
194.0
 40
194.0
 40
194.0
 40
195.0
 40
195.0
 40
195.0
 40
196.0
 40
196.0
 40
196.0
 40
197.0
 40
197.0
 40
197.0
 40
198.0
 40
198.0
 40
198.0
 40
199.0
 40
199.0
 40
199.0
 40
200.0
 40
200.0
 40
200.0
 40
201.0
 40
201.0
 40
201.0
 40
202.0
 40
202.0
 40
202.0
 40
203.0
 40
203.0
 40
203.0
 40
204.0
 40
204.0
 40
204.0
 40
205.0
 40
205.0
 40
205.0
 40
206.0
 40
206.0
 40
206.0
 40
207.0
 40
207.0
 40
207.0
 40
208.0
 40
208.0
 40
208.0
 40
209.0
 40
209.0
 40
209.0
 40
210.0
 40
210.0
 40
210.0
 40
211.0
 40
211.0
 40
211.0
 40
212.0
 40
212.0
 40
212.0
 40
213.0
 40
213.0
 40
213.0
 40
214.0
 40
214.0
 40
214.0
 40
215.0
 40
215.0
 40
215.0
 40
216.0
 40
216.0
 40
216.0
 40
217.0
 40
217.0
 40
217.0
 40
218.0
 40
218.0
 40
218.0
 40
219.0
 40
219.0
 40
219.0
 40
220.0
 40
220.0
 40
220.0
 40
221.0
 40
221.0
 40
221.0
 40
222.0
 40
222.0
 40
222.0
 40
223.0
 40
223.0
 40
223.0
 40
224.0
 40
224.0
 40
224.0
 40
225.0
 40
225.0
 40
225.0
 40
226.0
 40
226.0
 40
226.0
 40
227.0
 40
227.0
 40
227.0
 40
228.0
 40
228.0
 40
228.0
 40
229.0
 40
229.0
 40
229.0
 40
230.0
 40
230.0
 40
230.0
 40
231.0
 40
231.0
 40
231.0
 40
232.0
 40
232.0
 40
232.0
 40
233.0
 40
233.0
 40
233.0
 40
234.0
 40
234.0
 40
234.0
 40
235.0
 40
235.0
 40
235.0
 40
236.0
 40
236.0
 40
236.0
 40
237.0
 40
237.0
 40
237.0
 40
238.0
 40
238.0
 40
238.0
 40
239.0
 40
239.0
 40
239.0
 40
240.0
 40
240.0
 40
240.0
 40
241.0
 40
241.0
 40
241.0
 40
242.0
 40
242.0
 40
242.0
 40
243.0
 40
243.0
 40
243.0
 40
244.0
 40
244.0
 40
244.0
 40
245.0
 40
245.0
 40
245.0
 40
246.0
 40
246.0
 40
246.0
 40
247.0
 40
247.0
 40
247.0
 40
248.0
 40
248.0
 40
248.0
 40
249.0
 40
249.0
 40
249.0
 40
250.0
 40
250.0
 40
250.0
 40
251.0
 40
251.0
 40
251.0
 40
252.0
 40
252.0
 40
252.0
 40
253.0
 40
253.0
 40
253.0
 40
254.0
 40
254.0
 40
254.0
 40
255.0
 40
255.0
 40
255.0
 40
256.0
 40
256.0
 40
256.0
 40
257.0
 40
257.0
 40
257.0
 40
258.0
 40
258.0
 40
258.0
 40
259.0
 40
259.0
 40
259.0
 40
260.0
 40
260.0
 40
260.0
 40
261.0
 40
261.0
 40
261.0
 40
262.0
 40
262.0
 40
262.0
 40
263.0
 40
263.0
 40
263.0
 40
264.0
 40
264.0
 40
264.0
 40
265.0
 40
265.0
 40
265.0
 40
266.0
 40
266.0
 40
266.0
 40
267.0
 40
267.0
 40
267.0
 40
268.0
 40
268.0
 40
268.0
 40
269.0
 40
269.0
 40
269.0
 40
270.0
 40
270.0
 40
270.0
 40
271.0
 40
271.0
 40
271.0
 40
272.0
 40
272.0
 40
272.0
 40
273.0
 40
273.0
 40
273.0
 40
274.0
 40
274.0
 40
274.0
 40
275.0
 40
275.0
 40
275.0
 40
276.0
 40
276.0
 40
276.0
 40
277.0
 40
277.0
 40
277.0
 40
278.0
 40
278.0
 40
278.0
 40
279.0
 40
279.0
 40
279.0
 40
280.0
 40
280.0
 40
280.0
 40
281.0
 40
281.0
 40
281.0
 40
282.0
 40
282.0
 40
282.0
 40
283.0
 40
283.0
 40
283.0
 40
284.0
 40
284.0
 40
284.0
 40
285.0
 40
285.0
 40
285.0
 40
286.0
 40
286.0
 40
286.0
 40
287.0
 40
287.0
 40
287.0
 40
288.0
 40
288.0
 40
288.0
 40
289.0
 40
289.0
 40
289.0
 40
290.0
 40
290.0
 40
290.0
 40
291.0
 40
291.0
 40
291.0
 40
292.0
 40
292.0
 40
292.0
 40
292.0
 10
21.16581999470844
 20
-48.32815665458491
 10
21.14151360582587
 20
-48.51142471009413
 10
21.16701943915276
 20
-48.65027804339319
 10
21.18423499470386
 20
-48.79082471002473
 10
21.19510055025686
 20
-48.87799609889136
 10
21.23711638357965
 20
-48.9999513766386
 10
21.10104999472485
 20
-49.02062415441131
 10
20.96600666142516
 20
-49.0405913766285
 10
20.9656538836474
 20
-48.91655470999286
 10
20.95514110587249
 20
-48.82666693223798
 10
20.93739638365442
 20
-48.6647419322782
 10
20.92018082810332
 20
-48.50281693231906
 10
20.91809943921491
 20
-48.34124471013704
 10
20.91619443921538
 20
-48.21583221016851
 10
20.87089777256018
 20
-48.19826387683933
 10
20.77099110591822
 20
-48.24959304349335
 10
20.55445610597265
 20
-48.36191748790975
 10
20.33277055047234
 20
-48.46492859899492
 10
20.12195055052502
 20
-48.58790693229728
 10
19.46617193957779
 20
-48.96894220998016
 10
18.7540547175338
 20
-49.16737970993056
 10
18.00785916216473
 20
-49.25867859879649
 10
17.80046110666087
 20
-49.28485470990073
 10
17.61133694004171
 20
-49.2197319321397
 10
17.45008221785961
 20
-49.08504137661746
 10
17.31867249567042
 20
-48.9744455433117
 10
17.22081194013935
 20
-48.83732082112393
 10
17.13762694016001
 20
-48.68918943227244
 10
16.74265694025876
 20
-47.9781305435611
 10
16.79518555135679
 20
-47.66634554363918
 10
17.32675110677949
 20
-47.0527591549033
 10
18.18061443989935
 20
-46.06780359959418
 10
19.22155582852779
 20
-45.39223415531831
 10
20.48315971710143
 20
-45.06185776651209
 10
20.73119777259488
 20
-44.99606471097306
 10
20.9830458280877
 20
-44.94642887765216
 10
21.23471749469132
 20
-44.8954524887759
 10
21.42038443908919
 20
-44.85823443322976
 10
21.5621658279429
 20
-44.7731444332509
 10
21.68084027235772
 20
-44.61467665551305
 10
22.02811471671513
 20
-44.154760266739
 10
22.50094277215242
 20
-43.97872415567198
 10
23.06887971645501
 20
-44.05933387787378
 10
23.18222721642654
 20
-44.07587915564784
 10
23.29038888306645
 20
-44.07690221120296
 10
23.40338360526021
 20
-44.05658221120801
 10
23.61303943854104
 20
-44.0200697112174
 10
23.82283638293323
 20
-43.99523415566787
 10
24.03764277176848
 20
-44.03142915565888
 10
24.32565054947415
 20
-44.08032415564674
 10
24.59280916051855
 20
-44.00317165566558
 10
24.85584027156397
 20
-43.88396804458475
 10
26.49865582670873
 20
-43.14257026699234
 10
28.16263804851501
 20
-42.44840943383218
 10
29.82489165921033
 20
-41.75319026733936
 10
30.66358554788965
 20
-41.40214110076042
 10
31.52037693656448
 20
-41.10171554527999
 10
32.42006610300618
 20
-40.9480455453188
 10
32.90136082510814
 20
-40.86641276756123
 10
33.38762971387533
 20
-40.83092332312575
 10
33.87597999153091
 20
-40.80887471202014
 10
34.49538721359825
 20
-40.77959415647172
 10
35.11412415788823
 20
-40.77892387869436
 10
35.73338936614307
 20
-40.78167554536012
 10
35.97059713786917
 20
-40.78305137869301
 10
36.20829879847156
 20
-40.78993054535808
 10
36.44533018131327
 20
-40.80266582313244
 10
36.5555732340563
 20
-40.80887471202014
 10
36.62757517666382
 20
-40.78234582313749
 10
36.64634295396279
 20
-40.66349498983443
 10
36.70592711910934
 20
-40.29314887881566
 10
36.92073350251806
 20
-40.09972082330832
 10
37.29626543738188
 20
-40.05146082332031
 10
37.56843348599386
 20
-40.01650054555147
 10
37.825255701664
 20
-39.89973110113617
 10
38.099999990475
 20
-39.86508832336692
 10
38.17856263709483
 20
-39.85475193448089
 10
38.22696374697113
 20
-39.81220693449146
 10
38.2322916571086
 20
-39.7317736011782
 10
38.24417930208748
 20
-39.55711332344406
 10
38.35287013264788
 20
-39.4799255456857
 10
38.5092917953239
 20
-39.45099776791504
 10
38.67051123565529
 20
-39.42118804570029
 10
38.74974512252275
 20
-39.33765026794352
 10
38.72099373436738
 20
-39.16348387909817
 10
38.69806317939683
 20
-39.0256888791324
 10
38.78435262163984
 20
-38.94680776804123
 10
38.89583039657359
 20
-38.88358999027909
 10
39.51696621406042
 20
-38.52477971259101
 10
40.17997776773269
 20
-38.26192499043446
 10
40.85678090210113
 20
-38.0338541571582
 10
41.58057505030227
 20
-37.79096665721885
 10
42.30990780947322
 20
-37.56427165727548
 10
43.03751195757715
 20
-37.33313165733354
 10
43.16221889884006
 20
-37.29298554623243
 10
43.26731139615892
 20
-37.25492082401973
 10
43.27902361808234
 20
-37.09264304628252
 10
43.28763139564052
 20
-36.97294554631225
 10
43.38789083752713
 20
-36.92228665743622
 10
43.50088555686662
 20
-36.89646332410909
 10
43.79337360496018
 20
-36.82823610190421
 10
44.08378026421796
 20
-36.75073082414561
 10
44.37729136784098
 20
-36.68768943527267
 10
44.77109719112749
 20
-36.60171749084972
 10
45.11420884904064
 20
-36.41774387978434
 10
45.43322578534629
 20
-36.17746693540003
 10
46.37616665507232
 20
-35.46690193557781
 10
47.36179129170004
 20
-34.82784499129288
 10
48.44527765294689
 20
-34.35138332474542
 10
49.31618013072831
 20
-33.9681255470634
 10
50.21537538556571
 20
-33.69080693602185
 10
51.17722397213802
 20
-33.66822915824961
 10
51.26474813657176
 20
-33.66650054713897
 10
51.35121396769917
 20
-33.6489322138101
 10
51.43905563212481
 20
-33.64067721381215
 10
51.72226562489951
 20
-33.61707638048447
 10
51.71535118063147
 20
-33.61880499159543
 10
51.6561197932537
 20
-33.34903582499599
 10
51.49073887601639
 20
-32.59059888074135
 10
51.12557730678897
 20
-31.94258138090327
 10
50.622233986297
 20
-31.35534749216117
 10
49.85293150592354
 20
-30.45706943683019
 10
49.31653290849709
 20
-29.43489582597461
 10
49.04817485978792
 20
-28.27510360404246
 10
48.94653958460307
 20
-27.83776499304065
 10
48.65094709214427
 20
-27.59882860421139
 10
48.20997488117219
 20
-27.52474527089657
 10
47.71559211600716
 20
-27.44173665980611
 10
47.22191490637969
 20
-27.51165721534444
 10
46.73098936334869
 20
-27.54181971533663
 10
45.59067050355176
 20
-27.61417443754081
 10
44.45620775471654
 20
-27.57833221532756
 10
43.32312083917955
 20
-27.43690360425193
 10
42.67785502230832
 20
-27.35576471538316
 10
42.03153087213076
 20
-27.27240332651527
 10
41.37938588876836
 20
-27.27018082651582
 10
39.1752303894455
 20
-27.26122027096235
 10
36.99703933390467
 20
-27.02228388213341
 10
34.84403749128886
 20
-26.54617499336339
 10
34.5767024913559
 20
-26.48659082671173
 10
34.29832554698107
 20
-26.47918249338035
 10
34.02513443593817
 20
-26.44732666005471
 10
33.94554776929149
 20
-26.4380133267238
 10
33.87597999153091
 20
-26.46366027116173
 10
33.8165369359903
 20
-26.51449554892695
 10
33.45084749163716
 20
-26.82610415995999
 10
33.02433915841051
 20
-27.03727693768506
 10
32.59578471407329
 20
-27.24467499318893
 10
31.99839082533371
 20
-27.53458777089412
 10
31.45387832546992
 20
-27.89233971524925
 10
31.03583665890762
 20
-28.42185915956106
 10
30.89804165894217
 20
-28.59602554840641
 10
30.70976415898926
 20
-28.64477943728322
 10
30.57366249235661
 20
-28.56932027063551
 10
30.4327630479473
 20
-28.49181499287691
 10
30.36732277018603
 20
-28.28854443737234
 10
30.42140360350582
 20
-28.0858030485341
 10
30.47805971460283
 20
-27.87201971525429
 10
30.61416138123547
 20
-27.71199971529436
 10
30.77915554786063
 20
-27.57127665977394
 10
30.98810582558625
 20
-27.39160693759641
 10
31.19705610331188
 20
-27.21228999319697
 10
31.40117332548301
 20
-27.02866915990935
 10
31.55364388100052
 20
-26.89034499327726
 10
31.56292193655359
 20
-26.74616471553554
 10
31.44389471436132
 20
-26.57993582668823
 10
31.33657971438798
 20
-26.42958193783697
 10
31.18587304775896
 20
-26.34445666008058
 10
31.01343527002426
 20
-26.29640832675929
 10
30.75936471453231
 20
-26.2263113823324
 10
30.52113388125858
 20
-26.09468999347617
 10
30.27309582576513
 20
-26.0357761046022
 10
29.87551527030883
 20
-25.94260749351426
 10
29.48537832596207
 20
-25.78569193799818
 10
29.06402054828952
 20
-25.80135527132752
 10
28.62477693728819
 20
-25.81737138243462
 10
28.18708554850894
 20
-25.82202804909991
 10
27.77659332638907
 20
-25.62066249359487
 10
27.66084693752922
 20
-25.56450027138667
 10
27.58383554865974
 20
-25.48389054918454
 10
27.54940443755722
 20
-25.36313471588131
 10
27.50685943756779
 20
-25.21119332703044
 10
27.56058749310982
 20
-25.1207763826086
 10
27.71820860418142
 20
-25.10285527150198
 10
27.78763527083095
 20
-25.09544693817059
 10
27.81776249304562
 20
-25.06891804928826
 10
27.83808249304057
 20
-25.01035693819173
 10
27.85480415970287
 20
-24.96057999375979
 10
27.88701277080595
 20
-24.91182610488329
 10
27.93731888190453
 20
-24.90494693821823
 10
28.05426471520871
 20
-24.88924832711105
 10
28.09388165964317
 20
-24.8136480493523
 10
28.13935471518725
 20
-24.71614027159867
 10
28.21911777072314
 20
-24.54423166053062
 10
28.3610755484654
 20
-24.60677916051508
 10
28.47509332621461
 20
-24.67341888272068
 10
28.63874693728472
 20
-24.77007999380742
 10
28.80356471502131
 20
-24.84998416045403
 10
28.9954758260844
 20
-24.87256193822627
 10
29.09778138161436
 20
-24.88409777155663
 10
29.13602249271594
 20
-24.86134360489583
 10
29.11605527049875
 20
-24.75402860492249
 10
29.09778138161436
 20
-24.65655610494702
 10
29.11086943716681
 20
-24.55869554941595
 10
29.21148165936365
 20
-24.5109999938721
 10
29.31223499267185
 20
-24.46379832721737
 10
29.39302110376286
 20
-24.52218304942502
 10
29.46280054818983
 20
-24.59041027163022
 10
29.60578138148754
 20
-24.72820527159568
 10
29.77511471477839
 20
-24.82398443823834
 10
29.96699054806396
 20
-24.8677288826721
 10
30.40365888128808
 20
-24.9691877715355
 10
30.83376554784706
 20
-25.09322443817114
 10
31.29660999217576
 20
-25.03879082707359
 10
31.65474999208616
 20
-24.99691610486184
 10
32.02026304755043
 20
-25.02464443818818
 10
32.38270693634869
 20
-25.01035693819173
 10
33.55142443605647
 20
-24.96710638264709
 10
34.72208221354163
 20
-24.95370082709504
 10
35.89136325100171
 20
-24.92043388265868
 10
36.6117354548457
 20
-24.89958471599741
 10
37.32399377000781
 20
-24.80193582713274
 10
38.03438332382485
 20
-24.68033332716326
 10
39.12319566855079
 20
-24.49272610498803
 10
40.21356119628881
 20
-24.45381471610877
 10
41.28981665634402
 20
-24.76609360491949
 10
42.00743615052324
 20
-24.97451471597848
 10
42.72435113223322
 20
-24.9238911048803
 10
43.44574639160667
 20
-24.79727916046744
 10
44.06621193133283
 20
-24.68841193827233
 10
44.69115774872247
 20
-24.66290610494544
 10
45.31472773281387
 20
-24.76094304936539
 10
45.9720585493773
 20
-24.86377777156168
 10
46.55841047886266
 20
-24.63105027162013
 10
47.15199435260796
 20
-24.41056416056414
 10
47.97192044280101
 20
-24.10654027175105
 10
48.80803903258096
 20
-23.9211908273531
 10
49.68585595463043
 20
-24.12774221619041
 10
49.80710567375932
 20
-24.15614082729443
 10
49.93047205950086
 20
-24.18767916061982
 10
50.04209094554212
 20
-24.24123082727297
 10
50.17265399776674
 20
-24.30342554947967
 10
50.23636566280798
 20
-24.25692943838015
 10
50.29496205020195
 20
-24.14460499396375
 10
50.49234121183306
 20
-23.76857916072456
 10
50.40520510294498
 20
-23.40581777192638
 10
50.21227220966941
 20
-23.07060832756566
 10
49.94973372567613
 20
-22.61566610545715
 10
49.53564443206027
 20
-22.28737110553934
 10
49.17598624541607
 20
-21.91392055007704
 10
49.11982402462667
 20
-21.85655888342483
 10
49.06747180374006
 20
-21.87430360564257
 10
49.00749958304786
 20
-21.9087347167451
 10
48.84423403165755
 20
-22.00056277227767
 10
48.66198903630701
 20
-22.00398471672112
 10
48.4976298738335
 20
-21.94044943895937
 10
48.23548071385481
 20
-21.83761471676276
 10
47.96087849863827
 20
-21.77005777233524
 10
47.70148100525606
 20
-21.66260166125118
 10
47.35491212520888
 20
-21.51753943906506
 10
47.27359684950562
 20
-21.2950072168985
 10
47.43929656750049
 20
-20.9549647169836
 10
47.47753887701963
 20
-20.87555443922548
 10
47.49030823286574
 20
-20.82750610590418
 10
47.41107434599828
 20
-20.76566416147525
 10
47.15541629696511
 20
-20.56359305041468
 10
46.90808380327508
 20
-20.35224388380072
 10
46.71275075270289
 20
-20.08748416164466
 10
46.66692492053867
 20
-20.02528943943827
 10
46.63351686583542
 20
-19.99893693944482
 10
46.55047297906516
 20
-20.06321305053961
 10
46.4247429822728
 20
-20.15948610607139
 10
46.31619443286571
 20
-20.10265360608551
 10
46.2800335415202
 20
-19.94143416168125
 10
46.25971354203861
 20
-19.85031166170421
 10
46.24729576457764
 20
-19.75746055061619
 10
46.22284826520134
 20
-19.61532638398505
 10
46.16739159994949
 20
-19.7045791617404
 10
46.13052632311223
 20
-19.75746055061619
 10
46.1008929905349
 20
-19.8136227728244
 10
46.04127354761147
 20
-19.92196082835286
 10
45.96651993840749
 20
-19.98119221722708
 10
45.8452702192786
 20
-19.8995594394695
 10
45.73467438876681
 20
-19.824805828377
 10
45.61134443304142
 20
-19.75347416172826
 10
45.7043707784288
 20
-19.58622221732582
 10
45.72536105567107
 20
-19.54868666177945
 10
45.74846799952601
 20
-19.51111582845555
 10
45.77118688783529
 20
-19.47393305068694
 10
45.92139966178082
 20
-19.22483666186053
 10
45.92069410624327
 20
-19.22638888408229
 10
45.67678355691039
 20
-19.04982360634862
 10
45.58894189248475
 20
-18.98575916192023
 10
45.45079411823141
 20
-18.93474749526645
 10
45.49972439476088
 20
-18.79659971752291
 10
45.55003050458858
 20
-18.65485360644736
 10
45.53761387750468
 20
-18.45521666205297
 10
45.75569994378596
 20
-18.4247013842827
 10
45.86421438546196
 20
-18.40988471761961
 10
45.83080633075872
 20
-18.34892471763507
 10
45.79873883157683
 20
-18.29103388431622
 10
45.72846665523448
 20
-18.16495110657001
 10
45.65268883530288
 20
-18.04264305104502
 10
45.58516717035883
 20
-17.9151844399656
 10
45.45735578473068
 20
-17.67504860669234
 10
45.62926439145604
 20
-17.37000166232412
 10
45.89762244016521
 20
-17.36516860676995
 10
45.9982346598206
 20
-17.36396916232562
 10
45.96239243851279
 20
-17.29281388456577
 10
45.97064743830219
 20
-17.24702332902145
 10
46.0023621597153
 20
-17.07440916239819
 10
45.96376943295324
 20
-16.85064221800947
 10
46.18908743272932
 20
-16.79447999580126
 10
46.40269437172419
 20
-16.74039916248147
 10
46.5535774234304
 20
-16.65650860694693
 10
46.65140269871245
 20
-16.44463027366665
 10
46.69931109943636
 20
-16.34112527369236
 10
46.86500963770733
 20
-16.37005305146302
 10
46.9642472104813
 20
-16.40811777367572
 10
47.07378352126995
 20
-16.44928694033227
 10
47.13993054377057
 20
-16.41347999589654
 10
47.21881046201445
 20
-16.35784694035498
 10
47.6198482295609
 20
-16.07516610709229
 10
48.06561943242797
 20
-15.90325749602423
 10
48.55139443230667
 20
-15.83365444048614
 10
49.37855124024821
 20
-15.71617944051532
 10
50.09790038856275
 20
-15.97162582934048
 10
50.73212426127124
 20
-16.48735166254496
 10
51.20064841598486
 20
-16.86891610689385
 10
51.55067451816606
 20
-17.34724749566332
 10
51.81215340038406
 20
-17.88883193997214
 10
51.86764534341279
 20
-18.00270860661031
 10
51.91241284227068
 20
-18.04849916215463
 10
52.05056061652401
 20
-17.9899380510581
 10
52.28519443137284
 20
-17.89038416219423
 10
52.47258866131273
 20
-17.97476860661757
 10
52.53287838199684
 20
-18.2176561065566
 10
52.61281782440186
 20
-18.54461055091937
 10
52.6924044890381
 20
-18.87343471750383
 10
52.71166615521336
 20
-19.21139582853064
 10
52.71685198841439
 20
-19.29941388406415
 10
52.72200254383855
 20
-19.40432999514885
 10
52.65585671219274
 20
-19.46186805068994
 10
52.51082977144824
 20
-19.5871041617699
 10
52.55492699254545
 20
-19.7198897172923
 10
52.59764838034442
 20
-19.86787999503307
 10
52.63934671261394
 20
-20.01135471721926
 10
52.66929754518316
 20
-20.15948610607139
 10
52.66792171188493
 20
-20.31072193936674
 10
52.66792171188493
 20
-20.37482166157297
 10
52.68481976700938
 20
-20.43493499489126
 10
52.71787504394385
 20
-20.48936860598882
 10
52.98418698159411
 20
-20.92723638365694
 10
53.25014614147559
 20
-21.36492777243651
 10
53.5157525235883
 20
-21.79986749454999
 10
53.58295668854044
 20
-21.79866805010598
 10
53.58433252183868
 20
-21.74476360567507
 10
53.60017224365679
 20
-21.70839221679518
 10
53.93502890178056
 20
-20.95323610587296
 10
54.36841639072392
 20
-20.26147416160144
 10
54.91963165443902
 20
-19.64513610619979
 10
54.99198637481533
 20
-19.56417360622022
 10
55.04814998623777
 20
-19.47220443957629
 10
55.06261387512343
 20
-19.36436027293663
 10
55.18008887509361
 20
-18.50464082870715
 10
55.4732810847587
 20
-17.68884221779999
 10
55.68582969044724
 20
-16.85272360689787
 10
55.76164163295756
 20
-16.55402666252808
 10
55.82052024256655
 20
-16.25638805149158
 10
55.77952746583459
 20
-15.94492055156926
 10
55.68099663501498
 20
-15.19650249620074
 10
55.9218380177595
 20
-14.51366582970486
 10
56.17813106677647
 20
-13.82860666320952
 10
56.54022216864987
 20
-12.86121944122926
 10
56.9198816034084
 20
-11.89986471924717
 10
57.19892881851153
 20
-10.90372610838513
 10
57.32501159307267
 20
-10.45654499738577
 10
57.37394186960213
 20
-9.996275830834279
 10
57.33880520383187
 20
-9.528633608728923
 10
57.32293020423688
 20
-9.320177219892097
 10
57.22545770672361
 20
-9.159486942154482
 10
57.08798021023095
 20
-9.019081386633978
 10
56.48578855892747
 20
-8.406553331231706
 10
56.00897412664758
 20
-7.705301664740394
 10
55.60003413708051
 20
-6.954625831594585
 10
55.58214830420349
 20
-6.921182498269665
 10
55.56147552695311
 20
-6.890208609388434
 10
55.54493024959744
 20
-6.856588887174635
 10
55.49324830647151
 20
-6.754636109422429
 10
55.42847830812393
 20
-6.643687498339232
 10
55.54733054166884
 20
-6.552564998361865
 10
55.66861413533089
 20
-6.459043609496491
 10
55.78608913233385
 20
-6.513124442816284
 10
55.8839144076159
 20
-6.604952498348854
 10
56.07272106946571
 20
-6.782188053859888
 10
56.18536301103642
 20
-7.019889720467299
 10
56.36072883989579
 20
-7.207814442642452
 10
56.40274467215721
 20
-7.252969998186614
 10
56.4268746715416
 20
-7.314988331504436
 10
56.51094161384133
 20
-7.343916109275099
 10
56.435129671331
 20
-7.118420553776052
 10
56.33557578498195
 20
-6.920335831603103
 10
56.22293384341124
 20
-6.727930831651213
 10
55.99415746035892
 20
-6.336911942860374
 10
55.82637776382104
 20
-5.918658609631355
 10
55.68099663501498
 20
-5.492185554182549
 10
55.58800441516519
 20
-5.220511387583896
 10
55.61933108103265
 20
-5.078765276508028
 10
55.75853718859231
 20
-5.028811943187208
 10
55.91629940678969
 20
-4.973002498756769
 10
56.07684998598098
 20
-5.071180554287761
 10
56.18846745540166
 20
-5.307506387561967
 10
56.31352717443334
 20
-5.573148054162118
 10
56.42722744931039
 20
-5.844610554094371
 10
56.54812439067049
 20
-6.112121942916529
 10
56.57087855675665
 20
-6.161369720681825
 10
56.60636943029311
 20
-6.204267498449019
 10
56.64736077702765
 20
-6.268190831766367
 10
56.65459272128759
 20
-6.229067776220387
 10
56.66528331916709
 20
-6.21029999844752
 10
56.6604488322493
 20
-6.197211942895073
 10
56.46476300390833
 20
-5.649947776365193
 10
56.53161439109169
 20
-5.069981109843757
 10
56.45717828187961
 20
-4.507547498873022
 10
56.44514998588886
 20
-4.416283887784935
 10
56.47682800360052
 20
-4.332710832249996
 10
56.5660455013244
 20
-4.28621472115079
 10
56.66080161001808
 20
-4.236614165607412
 10
56.7489960522125
 20
-4.257957221157809
 10
56.82787716131118
 20
-4.321351387808515
 10
56.91882327010207
 20
-4.394905554456699
 10
56.97808993525671
 20
-4.489838054433119
 10
56.99495271260428
 20
-4.606431109959536
 10
57.0318194301868
 20
-4.866534165449988
 10
57.07111743288338
 20
-5.126143332051958
 10
57.10039798769193
 20
-5.387269443097533
 10
57.11831909834584
 20
-5.544890554169458
 10
57.16689659710652
 20
-5.686636665245005
 10
57.25988881695631
 20
-5.819104720767479
 10
57.2196015957619
 20
-5.54005749861496
 10
57.23096103991654
 20
-5.262033332017884
 10
57.24059187300417
 20
-4.98453833208713
 10
57.24750631727222
 20
-4.778163332138711
 10
57.26264048355278
 20
-4.572141109968054
 10
57.27918576090845
 20
-4.366648054464038
 10
57.28849909400418
 20
-4.254006110047714
 10
57.3305149262656
 20
-4.153746665628315
 10
57.45522186752851
 20
-4.128099721190063
 10
57.57717714219495
 20
-4.103440554529735
 10
57.65503519576418
 20
-4.178370554510803
 10
57.71603047198584
 20
-4.272279998931779
 10
57.77148713723768
 20
-4.358040276688327
 10
57.80249630311324
 20
-4.452619998886986
 10
57.80457769194903
 20
-4.555101943305512
 10
57.80630630301604
 20
-4.649328887726409
 10
57.81766574717068
 20
-4.744226109924989
 10
57.80870519184373
 20
-4.836900832124122
 10
57.73257574934151
 20
-5.590716387491302
 10
58.24142240302641
 20
-6.246142220660769
 10
58.73164239051986
 20
-6.820781942739226
 10
58.74543600127907
 20
-6.661079442779214
 10
58.74645905680853
 20
-6.521061942814313
 10
58.72060044635712
 20
-6.380127220627168
 10
58.68514628059496
 20
-6.189450831785925
 10
58.64619961492191
 20
-5.998598054055802
 10
58.66309767004636
 20
-5.80255944299374
 10
58.67685600302869
 20
-5.648219165254547
 10
58.7247632240287
 20
-5.509753887511411
 10
58.89942498527541
 20
-5.486646943072849
 10
59.07030904854642
 20
-5.463751665300687
 10
59.11542932517308
 20
-5.604651109709991
 10
59.16330276298707
 20
-5.728511387456755
 10
59.19639182310756
 20
-5.815682776323706
 10
59.20672821173275
 20
-5.917282776298471
 10
59.25632876602288
 20
-5.993271109612823
 10
59.60289764607007
 20
-6.527235553923855
 10
59.57326431349274
 20
-7.104133053779601
 10
59.48990292673058
 20
-7.69859888696421
 10
59.43649237253764
 20
-8.079422497980053
 10
59.27873015434027
 20
-8.418265553450947
 10
59.12336682497058
 20
-8.758131664477284
 10
58.86047683167747
 20
-9.331395553222858
 10
58.82879738804123
 20
-9.943076941958568
 10
58.79090905567451
 20
-10.55507583069452
 10
58.71615544647052
 20
-11.76034110817108
 10
58.644153503863
 20
-12.96578277453619
 10
58.57522220757873
 20
-14.17087166312387
 10
58.56283822815975
 20
-14.38345555195967
 10
58.55938100602572
 20
-14.59826194079492
 10
58.57659656114208
 20
-14.80961110740856
 10
58.62863128203679
 20
-15.43127610725318
 10
58.57282183901616
 20
-16.03519638488006
 10
58.32270240095279
 20
-16.61174110695805
 10
58.0315916521587
 20
-17.28198360679061
 10
57.87933130115302
 20
-17.9938891621682
 10
57.70294241676418
 20
-18.69757499532568
 10
57.31880270434218
 20
-20.22753693938772
 10
56.84096665245636
 20
-21.73079360567854
 10
56.39346661683836
 20
-23.24198777196739
 10
56.35487272893408
 20
-23.37343277193443
 10
56.36693772862628
 20
-23.48177082746289
 10
56.42962776367057
 20
-23.6006216607666
 10
56.5336605021506
 20
-23.79941193849475
 10
56.65596855458583
 20
-23.99767304955626
 10
56.71385938644224
 20
-24.21145638283607
 10
56.84992577185979
 20
-24.71564638270987
 10
57.2499052060999
 20
-25.0132849937467
 10
57.56617047580908
 20
-25.37622277143376
 10
57.96957185440635
 20
-25.84012554909542
 10
58.36369517768475
 20
-26.30794416008965
 10
58.61829489341159
 20
-26.87570471550337
 10
58.89667183075405
 20
-27.49701693757023
 10
58.96761544005524
 20
-28.15141971518425
 10
58.91628627469809
 20
-28.82116832612801
 10
58.8835837755324
 20
-29.23853971491263
 10
58.81295766622311
 20
-29.65400610369771
 10
58.79055627790573
 20
-30.07190665914865
 10
58.76575600076066
 20
-30.52250971459146
 10
58.82466988814653
 20
-30.97466499225636
 10
58.90425655278278
 20
-31.4154961032573
 10
59.09510932569149
 20
-32.46779693632755
 10
58.98211460635201
 20
-33.49561499162603
 10
58.73785276309339
 20
-34.52156332470283
 10
58.66447498533377
 20
-34.8313022135145
 10
58.63000711533502
 20
-35.15031915787924
 10
58.57522220757873
 20
-35.46467943557836
 10
58.55423045060157
 20
-35.58748137999216
 10
58.57282183901616
 20
-35.69705415774248
 10
58.644153503863
 20
-35.80331082438254
 10
59.06752210417308
 20
-36.44049804644546
 10
59.33108237522687
 20
-37.14742943515751
 10
59.56638514700158
 20
-37.87055332386554
 10
59.80098236323872
 20
-38.58954971257491
 10
60.0769604117535
 20
-39.29545804573184
 10
60.30915873916295
 20
-40.0156538788849
 10
60.58026845446859
 20
-40.8567819342304
 10
60.89138316875362
 20
-41.68083554513551
 10
61.2641281592441
 20
-42.48044165604637
 10
61.65895703806007
 20
-43.32791971138996
 10
62.10716119329209
 20
-44.14371832229713
 10
62.7007450670374
 20
-44.87238082211518
 10
62.91742117262064
 20
-45.13763443315973
 10
62.89780831760876
 20
-45.23651804424624
 10
62.60496590281426
 20
-45.41841026642321
 10
62.23324396785323
 20
-45.65060859969844
 10
62.22290757922804
 20
-45.54449304416974
 10
62.41273887328559
 20
-46.01785026627304
 10
62.71281006672959
 20
-46.7675030438634
 10
63.0087200591803
 20
-47.51821415478705
 10
63.27676060789757
 20
-48.28024943237466
 10
63.36255616126429
 20
-48.52415998786913
 10
63.33324032867888
 20
-48.73120526559524
 10
63.14859644450064
 20
-48.91726026554838
 10
63.01390589238133
 20
-49.05403220995903
 10
62.93569506104332
 20
-49.2190616543617
 10
62.8936792287819
 20
-49.40956165431438
 10
62.85025228544537
 20
-49.61075082093054
 10
62.78135478720309
 20
-49.80710693199253
 10
62.71175173342326
 20
-50.00109943194402
 10
62.60771756941072
 20
-50.29048304298322
 10
62.55120257085254
 20
-50.30942720964465
 10
62.29145229970155
 20
-50.1574858207941
 10
62.06581563879135
 20
-50.02589970971603
 10
61.84257786670884
 20
-49.89085637641602
 10
61.60381942904349
 20
-49.74787554311831
 10
61.59556287301072
 20
-50.08100359859095
 10
61.61655315025299
 20
-50.40414804295435
 10
61.57143287362633
 20
-50.72559915398526
 10
61.52320815263442
 20
-51.07283832056514
 10
61.46842176514325
 20
-51.41908970936742
 10
61.38954065604456
 20
-51.76015526483776
 10
61.33821149068741
 20
-51.98441609811528
 10
61.22140831802772
 20
-52.03401665365802
 10
61.02092316544878
 20
-51.91689443146496
 10
60.66433539676831
 20
-51.70847332040597
 10
60.31120485022186
 20
-51.4931377649044
 10
59.93052235993388
 20
-51.3298722093899
 10
59.88748347214301
 20
-51.31124554272743
 10
59.84165763997879
 20
-51.26337359829535
 10
59.79410319674756
 20
-51.30436637606301
 10
59.75550930884329
 20
-51.33915026494297
 10
59.78927014131531
 20
-51.38772776493059
 10
59.79823069664226
 20
-51.42840304269865
 10
60.02594874638825
 20
-52.46020748688475
 10
60.03011152405982
 20
-53.50128998662456
 10
59.94777319282711
 20
-54.54791109747406
 10
59.94085874855907
 20
-54.63508248634134
 10
59.93673124866437
 20
-54.73121443076144
 10
59.84165763997879
 20
-54.77323026408423
 10
59.74037514256272
 20
-54.81799776407343
 10
59.67871109619132
 20
-54.73290776409457
 10
59.61323403469525
 20
-54.68020276410765
 10
59.42859165180978
 20
-54.53171859747841
 10
59.272168487841
 20
-54.35053193085696
 10
59.07337821513479
 20
-54.21682915311232
 10
59.01619442969071
 20
-54.25785720865751
 10
59.04582776301625
 20
-54.31229081975506
 10
59.04618054079401
 20
-54.35705831974426
 10
59.05274071566129
 20
-55.00782748624811
 10
59.08406738152875
 20
-55.65930220830749
 10
58.94419099620841
 20
-56.30181637481338
 10
58.92492933003314
 20
-56.39311526367931
 10
58.92351821895804
 20
-56.49958359698641
 10
58.81775544387849
 20
-56.53609609697703
 10
58.70581905784534
 20
-56.57465470807852
 10
58.64757544822015
 20
-56.47820526365818
 10
58.58213517211188
 20
-56.41551665256267
 10
58.15079379422743
 20
-55.99863915266718
 10
57.71567769421706
 20
-55.58490137499274
 10
57.29333214943644
 20
-55.15874581954353
 10
57.16827243040475
 20
-55.03231026401988
 10
57.07729104383699
 20
-55.02610137513218
 10
56.94880938044817
 20
-55.13909609732658
 10
56.85990938271619
 20
-55.21660137508486
 10
56.75552244093488
 20
-55.277949430625
 10
56.65459272128759
 20
-55.3406380417205
 10
56.55228716834207
 20
-55.40540804170442
 10
56.46684439274411
 20
-55.38096054171017
 10
56.39861717226252
 20
-55.27964276395812
 10
56.20603578828679
 20
-54.99438665291822
 10
56.02174468187734
 20
-54.7039799863239
 10
55.87943412995242
 20
-54.38944331973622
 10
55.8194971870371
 20
-54.25612859754686
 10
55.77335385488098
 20
-54.25337693088109
 10
55.70375080110114
 20
-54.37670804196121
 10
55.65757219116815
 20
-54.45869359749655
 10
55.6021155259163
 20
-54.5351758196997
 10
55.55801830481909
 20
-54.61751415301215
 10
55.48291191784632
 20
-54.75841359742146
 10
55.38783830916074
 20
-54.75566193075569
 10
55.29170636716883
 20
-54.65127498633699
 10
55.19871414731904
 20
-54.55034526414023
 10
55.12015053821225
 20
-54.43699776416871
 10
55.03262776401948
 20
-54.33088220863937
 10
54.99473804141179
 20
-54.28438609754016
 10
54.98164998619013
 20
-54.21443026422431
 10
54.8855533219751
 20
-54.19823776422801
 10
54.85796610045669
 20
-54.54791109747406
 10
54.86177610035949
 20
-54.9024174862743
 10
54.76977165826227
 20
-55.23660387507957
 10
54.62749638411424
 20
-55.75268248606182
 10
54.62301610645076
 20
-56.28664693037285
 10
54.52035777573646
 20
-56.80653554135415
 10
54.4631724994176
 20
-57.09831804128072
 10
54.35945583539696
 20
-57.37359054121202
 10
54.24956556042272
 20
-57.64438276336691
 10
54.12175554202486
 20
-57.95648526328843
 10
54.04873054204364
 20
-58.27483192987581
 10
54.04908331982076
 20
-58.61071165201422
 10
54.05045778772461
 20
-59.55054692955702
 10
54.09007473115834
 20
-60.4896766515443
 10
54.04908331982076
 20
-61.4274305401987
 10
54.0025505667246
 20
-62.50230915104087
 10
53.9340058462511
 20
-63.57718776188368
 10
53.87819640323048
 20
-64.65136081717033
 10
53.84478834852723
 20
-65.30040137256353
 10
53.81688362701691
 20
-65.95085303906778
 10
53.7892964054985
 20
-66.60091665001674
 10
53.7727864059197
 20
-67.00160164991658
 10
53.76449612835343
 20
-67.40122831648313
 10
53.7469277954683
 20
-67.80187803860481
 10
53.74004998656525
 20
-67.95932276078817
 10
53.7731039059116
 20
-68.09747053853107
 10
53.88680554208386
 20
-68.21392248294677
 10
53.93467612401178
 20
-68.26249998293437
 10
53.9722469563866
 20
-68.32278970514123
 10
54.00946501099264
 20
-68.37962220512743
 10
54.20098806166204
 20
-68.66935859394376
 10
54.19858917283435
 20
-68.6965930383813
 10
53.94123779051104
 20
-68.93806942721024
 10
53.88542834749042
 20
-68.9904569271969
 10
53.87579751440278
 20
-69.05247526051441
 10
53.85854668150956
 20
-69.12031442716433
 10
53.75828723962294
 20
-69.51616637150998
 10
53.85029168172016
 20
-69.90305776030218
 10
53.9098758468667
 20
-70.29132498242724
 10
54.00946501099264
 20
-70.9407183155982
 10
54.10764443091761
 20
-71.59011164876918
 10
54.20719695039252
 20
-72.2391874819399
 10
54.21375861689179
 20
-72.28190887081821
 10
54.22924556094113
 20
-72.32427748191877
 10
54.23510167190284
 20
-72.36766914857444
 10
54.27267250427766
 20
-72.65363081516986
 10
54.37737694605087
 20
-72.8582419262298
 10
54.72256999279982
 20
-72.83689887067972
 10
54.85764998628574
 20
-72.82864387068177
 10
54.99096331928587
 20
-72.89097970399952
 10
55.11704609384701
 20
-72.95126942620637
 10
55.18731942538752
 20
-72.98573581508673
 10
55.25967414576382
 20
-73.02535275952151
 10
55.22245609115777
 20
-73.12042637060898
 10
55.18456775879105
 20
-73.21722859280709
 10
55.10533387192359
 20
-73.19278109281284
 10
55.03195609601784
 20
-73.16385331504218
 10
54.88587220850088
 20
-73.10525692616844
 10
54.73773943685726
 20
-73.05667942618018
 10
54.57962444089111
 20
-73.04807164840447
 10
54.53792610862159
 20
-73.0453199817387
 10
54.48211666560096
 20
-73.03223192618658
 10
54.46938138814809
 20
-73.0907930372828
 10
54.45558777738888
 20
-73.15351692615582
 10
54.50487220859615
 20
-73.17658859281718
 10
54.55757583034251
 20
-73.1875952594809
 10
54.75428609742281
 20
-73.22791775947056
 10
54.94686609818866
 20
-73.28164581501323
 10
55.13013414906866
 20
-73.36677109276962
 10
55.24450470170638
 20
-73.41947609275653
 10
55.34994997679402
 20
-73.48526914829556
 10
55.43331136355619
 20
-73.58242414827079
 10
55.57456358217476
 20
-73.7474535926741
 10
55.5859230263294
 20
-73.90659164818994
 10
55.46742497379699
 20
-74.05853303704113
 10
55.33926081040006
 20
-74.22250414811116
 10
55.15355859291549
 20
-74.26522553698948
 10
54.96581026437202
 20
-74.16496609257008
 10
54.89416109953328
 20
-74.1274305370237
 10
54.83041415671515
 20
-74.07574859259192
 10
54.76324526953989
 20
-74.03027553704783
 10
54.69639388235652
 20
-73.98550803705928
 10
54.65921110552735
 20
-73.90486303707931
 10
54.55238999714147
 20
-73.87318359264287
 10
54.52550833116062
 20
-74.14877359257378
 10
54.57687277429464
 20
-74.41131081473071
 10
54.60304888473794
 20
-74.67278970355373
 10
54.63920860603766
 20
-75.04521720346091
 10
54.63437555060541
 20
-75.4103774811471
 10
54.53690305309213
 20
-75.77211581439015
 10
54.47590777687047
 20
-76.00156248099961
 10
54.37427250168563
 20
-76.08425359208982
 10
54.13727776424315
 20
-76.08838109208912
 10
53.94331917934683
 20
-76.09183831431042
 10
53.74936196207287
 20
-76.08425359208982
 10
53.55536946702203
 20
-76.09010970319977
 10
53.25670780797486
 20
-76.09836470319772
 10
53.05964614633565
 20
-75.95817081434394
 10
52.93148332010028
 20
-75.69528081440923
 10
52.58385476958522
 20
-74.97801303681082
 10
52.27139949977883
 20
-74.24561109254941
 10
52.09398887586528
 20
-73.46837109274374
 10
51.85039451051956
 20
-72.40107720412216
 10
51.24234674825438
 20
-71.58735998210341
 10
50.4007248252815
 20
-70.92830053782345
 10
49.79609900737346
 20
-70.4549433157195
 10
49.75062595297801
 20
-69.88136192697434
 10
50.29527955019385
 20
-69.33600276044366
 10
50.42792399125425
 20
-69.20300553825454
 10
50.56744759880582
 20
-69.07692276050865
 10
50.70972287295385
 20
-68.95461470498365
 10
51.01738036510486
 20
-68.68967859393871
 10
51.17034480564686
 20
-68.35930220513248
 10
51.15655119488765
 20
-67.95279637190087
 10
51.15485786159751
 20
-67.90936942746703
 10
51.14794341732947
 20
-67.86185026081206
 10
51.16071397255923
 20
-67.82223331637792
 10
51.33156424597825
 20
-67.29306664984355
 10
51.17965813874259
 20
-66.7694033166407
 10
51.12797619561666
 20
-66.24644553899404
 10
50.99603731009381
 20
-64.91248692821623
 10
50.67010592952013
 20
-63.60953748409747
 10
50.44065926870713
 20
-62.29043081776059
 10
50.1957256638448
 20
-60.87967248478002
 10
50.22846344078737
 20
-59.47473498513123
 10
50.50405343375648
 20
-58.07226692992612
 10
50.58847315382497
 20
-57.64265415225627
 10
50.68319398474178
 20
-57.21544026347377
 10
50.75865314948332
 20
-56.78342859691527
 10
50.81583842580218
 20
-56.45580387477482
 10
50.78483054285947
 20
-56.12129998596994
 10
50.78310064885961
 20
-55.79092359716307
 10
50.78070176003192
 20
-55.31583776394913
 10
50.83100786985962
 20
-54.84283331962232
 10
50.7893095375901
 20
-54.36566609751997
 10
50.73177148350246
 20
-53.70491331990689
 10
50.64082537471158
 20
-53.04895832007109
 10
50.53403954410258
 20
-52.3943791535682
 10
50.51199093355397
 20
-52.26004137582371
 10
50.45067815734041
 20
-52.25312693138113
 10
50.33972954905984
 20
-52.29172082026015
 10
50.16267038691033
 20
-52.35338637580053
 10
49.98247150261869
 20
-52.40817276467584
 10
49.80124956279761
 20
-52.45537443133057
 10
49.57077984645516
 20
-52.51739276464871
 10
49.49775484831818
 20
-52.47396582021488
 10
49.43813540539475
 20
-52.23763998694035
 10
49.37167207375704
 20
-51.97651387589445
 10
49.30584374210313
 20
-51.71535248707104
 10
49.25557291005232
 20
-51.45076915380385
 10
49.22833846630267
 20
-51.30884665383942
 10
49.18113680084022
 20
-51.26199776496246
 10
49.02990097136524
 20
-51.30263776495237
 10
48.73949431210746
 20
-51.3798255427104
 10
48.69744443227039
 20
-51.35050970938445
 10
48.62406665451077
 20
-51.05907998723501
 10
48.53830515057356
 20
-50.71251109843313
 10
48.45663709710153
 20
-50.36523665407508
 10
48.3825890434351
 20
-50.01658637638479
 10
48.3567304329837
 20
-49.89600693197045
 10
48.32332237828045
 20
-49.88051998752967
 10
48.229942102885
 20
-49.96077693195436
 10
48.03979488551384
 20
-50.1233722096915
 10
47.83447822408524
 20
-50.26737609854433
 10
47.62259989615737
 20
-50.40139637628857
 10
47.43760323421036
 20
-50.51820109848139
 10
47.37625518021992
 20
-50.50440748737374
 10
47.26223740535098
 20
-50.31217887631106
 10
47.09618609933714
 20
-50.03277887638045
 10
46.92942685828613
 20
-49.7533788764505
 10
46.77268887719598
 20
-49.46776998763283
 10
46.71169241939656
 20
-49.3578797098826
 10
46.66071603180819
 20
-49.34754332099624
 10
46.55460047895986
 20
-49.4147122098688
 10
46.39129964979268
 20
-49.51807609873173
 10
46.2118063210386
 20
-49.59491109871265
 10
46.04406049198482
 20
-49.69171332091011
 10
45.87490355185593
 20
-49.78922109866375
 10
45.76914077677638
 20
-49.73510498756643
 10
45.6743846680827
 20
-49.57836582093859
 10
45.37293606466218
 20
-49.07780943217528
 10
45.12214634883814
 20
-48.55344054341692
 10
44.9581399641334
 20
-47.99188887689122
 10
44.91129107643973
 20
-47.83204526581985
 10
44.85064857798685
 20
-47.7955327658286
 10
44.69288635978948
 20
-47.85409387692545
 10
44.46516943332804
 20
-47.9398894324592
 10
44.22503248283653
 20
-47.99294721022387
 10
43.99491665566763
 20
-48.07355693242632
 10
43.81436388220245
 20
-48.13726859907695
 10
43.71481110018215
 20
-48.07768443242497
 10
43.64178610020093
 20
-47.91025609913365
 10
43.32312083917955
 20
-47.18162887709376
 10
42.96723862603664
 20
-46.47159304393754
 10
42.5638019696625
 20
-45.7856519329978
 10
42.19931197896142
 20
-45.1651863775975
 10
41.74214726840243
 20
-44.62088554440011
 10
41.2415908922838
 20
-44.10995748897228
 10
41.14270832304766
 20
-44.00938054455328
 10
41.03761478637656
 20
-44.01350804455194
 10
40.91463645618066
 20
-44.03555665565754
 10
39.87302481608772
 20
-44.21988304450068
 10
38.82707499029313
 20
-44.38660582223648
 10
37.77099848082599
 20
-44.44622526666597
 10
37.02254516658729
 20
-44.48894665554428
 10
36.26876490804005
 20
-44.47617609999175
 10
35.51840659384995
 20
-44.45239887777551
 10
34.41805832472885
 20
-44.41761498889554
 10
33.33301971388889
 20
-44.45793748888521
 10
32.27331054748726
 20
-44.80485915546549
 10
31.41013388103648
 20
-45.08701082206186
 10
30.5049413812626
 20
-45.12489915538536
 10
29.609203325931
 20
-45.22307721091635
 10
27.93887110412629
 20
-45.40567498864885
 10
26.28864721565014
 20
-45.6950585996874
 10
24.70530999382384
 20
-46.28624359953928
 10
24.67031443827683
 20
-46.29897887731428
 10
24.63037999384245
 20
-46.30723387731224
 10
24.60141693829394
 20
-46.32896498841759
 10
23.93911193845973
 20
-46.82814554384866
 10
23.10055916089145
 20
-46.96562304381419
 10
22.40466971662095
 20
-47.39968082148359
 10
22.1874644388977
 20
-47.53542971033847
 10
21.97159971672916
 20
-47.67460054363713
 10
21.7483619390074
 20
-47.80036582138342
 10
21.66757582791639
 20
-47.8458388769275
 10
21.66877527236072
 20
-47.87959971025234
 10
21.74112999456458
 20
-47.93332776579437
 10
21.87705527230867
 20
-48.0342927657693
 10
22.00073916116655
 20
-48.15141498796235
 10
22.08392416114556
 20
-48.30229804348026
 10
22.15335082779509
 20
-48.42806332122655
 10
22.19088638334115
 20
-48.56275387674815
 10
22.10131610558587
 20
-48.69194109893822
 10
22.01675527227365
 20
-48.81354359890769
 10
21.8801597167522
 20
-48.83079443223663
 10
21.74663332789676
 20
-48.81633054335162
 10
21.46518721685591
 20
-48.78634443224767
 10
21.28915110578888
 20
-48.61203693229129
 10
21.16581999470844
 20
-48.32815665458491
 97
        0
 92
        1
 93
        1
 72
     4
 94
        3
 73
     0
 74
     1
 95
       17
 96
       13
 40
0.0
 40
0.0
 40
0.0
 40
0.0
 40
1.0
 40
1.0
 40
1.0
 40
2.0
 40
2.0
 40
2.0
 40
3.0
 40
3.0
 40
3.0
 40
4.0
 40
4.0
 40
4.0
 40
4.0
 10
54.55584721927549
 20
-73.41637164831235
 10
54.70845888204871
 20
-73.64271387047829
 10
54.84593637854137
 20
-73.81462248154666
 10
55.038835262509
 20
-73.9344963704055
 10
55.12600664917396
 20
-73.98825970372505
 10
55.21935164679253
 20
-74.00307637038782
 10
55.28655581174468
 20
-73.90659164818994
 10
55.35026747678592
 20
-73.81462248154666
 10
55.27378525651493
 20
-73.75362720378364
 10
55.21487136912906
 20
-73.70300359268514
 10
55.03678915145009
 20
-73.54933359272395
 10
54.81834915702296
 20
-73.49041970384934
 10
54.55584721927549
 20
-73.41637164831235
 97
        0
 92
        1
 93
        1
 72
     4
 94
        3
 73
     0
 74
     1
 95
       17
 96
       13
 40
0.0
 40
0.0
 40
0.0
 40
0.0
 40
1.0
 40
1.0
 40
1.0
 40
2.0
 40
2.0
 40
2.0
 40
3.0
 40
3.0
 40
3.0
 40
4.0
 40
4.0
 40
4.0
 40
4.0
 10
21.78780249455298
 20
-48.58240359896574
 10
21.89236582786024
 20
-48.57965193229933
 10
21.94870443895732
 20
-48.54141082119808
 10
21.88876749452791
 20
-48.43254359900296
 10
21.78917832788619
 20
-48.25096887682624
 10
21.63571999459108
 20
-48.12453332130194
 10
21.45245193908123
 20
-48.0342927657693
 10
21.411282772425
 20
-48.01393748799683
 10
21.36820860576892
 20
-47.99707471022317
 10
21.35476777243904
 20
-48.06770082131638
 10
21.3175497168929
 20
-48.27128887682119
 10
21.58283860571529
 20
-48.58790693229728
 10
21.78780249455298
 20
-48.58240359896574
 97
        0
 75
     0
 76
     1
 98
        0
  0
ENDSEC
  0
SECTION
  2
OBJECTS
  0
DICTIONARY
  5
C
330
0
100
AcDbDictionary
281
     1
  3
ACAD_GROUP
350
D
  3
ACAD_LAYOUT
350
1A
  3
ACAD_MATERIAL
350
3B
  3
ACAD_MLEADERSTYLE
350
66
  3
ACAD_MLINESTYLE
350
17
  3
ACAD_PLOTSETTINGS
350
19
  3
ACAD_PLOTSTYLENAME
350
E
  3
ACAD_TABLESTYLE
350
65
  3
ACAD_VISUALSTYLE
350
2A
  0
SUN
  5
3F
330
29
100
AcDbSun
 90
        1
290
     0
 63
     7
421
 16777215
 40
1.0
291
     1
 91
  2455826
 92
 54000000
292
     0
 70
     2
 71
   256
280
     1
  0
DICTIONARY
  5
D
102
{ACAD_REACTORS
330
C
102
}
330
C
100
AcDbDictionary
281
     1
  0
DICTIONARY
  5
1A
102
{ACAD_REACTORS
330
C
102
}
330
C
100
AcDbDictionary
281
     1
  3
Layout1
350
1E
  3
Layout2
350
26
  3
Model
350
22
  0
DICTIONARY
  5
3B
102
{ACAD_REACTORS
330
C
102
}
330
C
100
AcDbDictionary
281
     1
  3
ByBlock
350
3D
  3
ByLayer
350
3C
  3
Global
350
3E
  0
DICTIONARY
  5
66
102
{ACAD_REACTORS
330
C
102
}
330
C
100
AcDbDictionary
281
     1
  0
DICTIONARY
  5
17
102
{ACAD_REACTORS
330
C
102
}
330
C
100
AcDbDictionary
281
     1
  3
Standard
350
18
  0
DICTIONARY
  5
19
102
{ACAD_REACTORS
330
C
102
}
330
C
100
AcDbDictionary
281
     1
  0
ACDBDICTIONARYWDFLT
  5
E
102
{ACAD_REACTORS
330
C
102
}
330
C
100
AcDbDictionary
281
     1
  3
Normal
350
F
100
AcDbDictionaryWithDefault
340
F
  0
DICTIONARY
  5
65
102
{ACAD_REACTORS
330
C
102
}
330
C
100
AcDbDictionary
281
     1
  0
DICTIONARY
  5
2A
102
{ACAD_REACTORS
330
C
102
}
330
C
100
AcDbDictionary
281
     1
  3
2dWireframe
350
2F
  3
3D Hidden
350
31
  3
3dWireframe
350
30
  3
Basic
350
32
  3
Brighten
350
36
  3
ColorChange
350
3A
  3
Conceptual
350
34
  3
Dim
350
35
  3
Facepattern
350
39
  3
Flat
350
2B
  3
FlatWithEdges
350
2C
  3
Gouraud
350
2D
  3
GouraudWithEdges
350
2E
  3
Linepattern
350
38
  3
Realistic
350
33
  3
Thicken
350
37
  0
LAYOUT
  5
1E
102
{ACAD_REACTORS
330
1A
102
}
330
1A
100
AcDbPlotSettings
  1

  2
none_device
  4

  6

 40
0.0
 41
0.0
 42
0.0
 43
0.0
 44
0.0
 45
0.0
 46
0.0
 47
0.0
 48
0.0
 49
0.0
140
0.0
141
0.0
142
1.0
143
1.0
 70
   688
 72
     0
 73
     0
 74
     5
  7

 75
    16
 76
     0
 77
     2
 78
   300
147
1.0
148
0.0
149
0.0
100
AcDbLayout
  1
Layout1
 70
     1
 71
     1
 10
0.0
 20
0.0
 11
12.0
 21
9.0
 12
0.0
 22
0.0
 32
0.0
 14
1.000000000000000E+20
 24
1.000000000000000E+20
 34
1.000000000000000E+20
 15
-1.000000000000000E+20
 25
-1.000000000000000E+20
 35
-1.000000000000000E+20
146
0.0
 13
0.0
 23
0.0
 33
0.0
 16
1.0
 26
0.0
 36
0.0
 17
0.0
 27
1.0
 37
0.0
 76
     0
330
1B
  0
LAYOUT
  5
26
102
{ACAD_REACTORS
330
1A
102
}
330
1A
100
AcDbPlotSettings
  1

  2
none_device
  4

  6

 40
0.0
 41
0.0
 42
0.0
 43
0.0
 44
0.0
 45
0.0
 46
0.0
 47
0.0
 48
0.0
 49
0.0
140
0.0
141
0.0
142
1.0
143
1.0
 70
   688
 72
     0
 73
     0
 74
     5
  7

 75
    16
 76
     0
 77
     2
 78
   300
147
1.0
148
0.0
149
0.0
100
AcDbLayout
  1
Layout2
 70
     1
 71
     2
 10
0.0
 20
0.0
 11
0.0
 21
0.0
 12
0.0
 22
0.0
 32
0.0
 14
0.0
 24
0.0
 34
0.0
 15
0.0
 25
0.0
 35
0.0
146
0.0
 13
0.0
 23
0.0
 33
0.0
 16
1.0
 26
0.0
 36
0.0
 17
0.0
 27
1.0
 37
0.0
 76
     0
330
23
  0
LAYOUT
  5
22
102
{ACAD_REACTORS
330
1A
102
}
330
1A
100
AcDbPlotSettings
  1

  2
none_device
  4

  6

 40
0.0
 41
0.0
 42
0.0
 43
0.0
 44
0.0
 45
0.0
 46
0.0
 47
0.0
 48
0.0
 49
0.0
140
0.0
141
0.0
142
1.0
143
1.0
 70
  1712
 72
     0
 73
     0
 74
     0
  7

 75
     0
 76
     0
 77
     2
 78
   300
147
1.0
148
0.0
149
0.0
100
AcDbLayout
  1
Model
 70
     1
 71
     0
 10
0.0
 20
0.0
 11
12.0
 21
9.0
 12
0.0
 22
0.0
 32
0.0
 14
1.000000000000000E+20
 24
1.000000000000000E+20
 34
1.000000000000000E+20
 15
-1.000000000000000E+20
 25
-1.000000000000000E+20
 35
-1.000000000000000E+20
146
0.0
 13
0.0
 23
0.0
 33
0.0
 16
1.0
 26
0.0
 36
0.0
 17
0.0
 27
1.0
 37
0.0
 76
     0
330
1F
331
29
  0
MATERIAL
  5
3D
102
{ACAD_REACTORS
330
3B
102
}
330
3B
100
AcDbMaterial
  1
ByBlock
 72
     1
 94
      127
  0
MATERIAL
  5
3C
102
{ACAD_REACTORS
330
3B
102
}
330
3B
100
AcDbMaterial
  1
ByLayer
 72
     1
 94
      127
  0
MATERIAL
  5
3E
102
{ACAD_REACTORS
330
3B
102
}
330
3B
100
AcDbMaterial
  1
Global
 72
     1
 94
      127
  0
MLINESTYLE
  5
18
102
{ACAD_REACTORS
330
17
102
}
330
17
100
AcDbMlineStyle
  2
Standard
 70
     0
  3

 62
   256
 51
90.0
 52
90.0
 71
     2
 49
0.5
 62
   256
  6
BYLAYER
 49
-0.5
 62
   256
  6
BYLAYER
  0
ACDBPLACEHOLDER
  5
F
102
{ACAD_REACTORS
330
E
102
}
330
E
  0
VISUALSTYLE
  5
2F
102
{ACAD_REACTORS
330
2A
102
}
102
{ACAD_XDICTIONARY
360
4D
102
}
330
2A
100
AcDbVisualStyle
  2
2dWireframe
 70
     4
 71
     0
 72
     2
 73
     0
 90
        0
 40
-0.6
 41
-30.0
 62
     5
 63
     7
421
 16777215
 74
     1
 91
        4
 64
     7
 65
   257
 75
     1
175
     1
 42
1.0
 92
        0
 66
   257
 43
1.0
 76
     1
 77
     6
 78
     2
 67
     7
 79
     5
170
     0
171
     0
290
     0
174
     0
 93
        1
 44
0.0
173
     0
291
     0
 45
0.0
  0
VISUALSTYLE
  5
31
102
{ACAD_REACTORS
330
2A
102
}
102
{ACAD_XDICTIONARY
360
51
102
}
330
2A
100
AcDbVisualStyle
  2
3D Hidden
 70
     6
 71
     1
 72
     2
 73
     2
 90
        0
 40
-0.6
 41
-30.0
 62
     5
 63
     7
421
 16777215
 74
     2
 91
        2
 64
     7
 65
   257
 75
     2
175
     1
 42
40.0
 92
        0
 66
   257
 43
1.0
 76
     1
 77
     6
 78
     2
 67
     7
 79
     3
170
     0
171
     0
290
     0
174
     0
 93
        1
 44
0.0
173
     0
291
     0
 45
0.0
  0
VISUALSTYLE
  5
30
102
{ACAD_REACTORS
330
2A
102
}
102
{ACAD_XDICTIONARY
360
4F
102
}
330
2A
100
AcDbVisualStyle
  2
3dWireframe
 70
     5
 71
     0
 72
     2
 73
     0
 90
        0
 40
-0.6
 41
-30.0
 62
     5
 63
     7
421
 16777215
 74
     1
 91
        4
 64
     7
 65
   257
 75
     1
175
     1
 42
1.0
 92
        0
 66
   257
 43
1.0
 76
     1
 77
     6
 78
     2
 67
     7
 79
     5
170
     0
171
     0
290
     0
174
     0
 93
        1
 44
0.0
173
     0
291
     0
 45
0.0
  0
VISUALSTYLE
  5
32
102
{ACAD_REACTORS
330
2A
102
}
102
{ACAD_XDICTIONARY
360
53
102
}
330
2A
100
AcDbVisualStyle
  2
Basic
 70
     7
 71
     1
 72
     0
 73
     1
 90
        0
 40
-0.6
 41
-30.0
 62
     5
 63
     7
421
 16777215
 74
     0
 91
        4
 64
     7
 65
   257
 75
     1
175
     1
 42
1.0
 92
        8
 66
     7
 43
1.0
 76
     1
 77
     6
 78
     2
 67
     7
 79
     5
170
     0
171
     0
290
     0
174
     0
 93
        1
 44
0.0
173
     0
291
     1
 45
0.0
  0
VISUALSTYLE
  5
36
102
{ACAD_REACTORS
330
2A
102
}
102
{ACAD_XDICTIONARY
360
5B
102
}
330
2A
100
AcDbVisualStyle
  2
Brighten
 70
    12
 71
     2
 72
     2
 73
     0
 90
        0
 40
-0.6
 41
-30.0
 62
     5
 63
     7
421
 16777215
 74
     1
 91
        4
 64
     7
 65
   257
 75
     1
175
     1
 42
1.0
 92
        8
 66
     7
 43
1.0
 76
     1
 77
     6
 78
     2
 67
     7
 79
     5
170
     0
171
     0
290
     0
174
     0
 93
        1
 44
50.0
173
     0
291
     1
 45
0.0
  0
VISUALSTYLE
  5
3A
102
{ACAD_REACTORS
330
2A
102
}
102
{ACAD_XDICTIONARY
360
63
102
}
330
2A
100
AcDbVisualStyle
  2
ColorChange
 70
    16
 71
     2
 72
     2
 73
     3
 90
        0
 40
-0.6
 41
-30.0
 62
     5
 63
     8
421
  8421504
 74
     1
 91
        4
 64
     7
 65
   257
 75
     1
175
     1
 42
1.0
 92
        8
 66
     8
424
  8421504
 43
1.0
 76
     1
 77
     6
 78
     2
 67
     7
 79
     5
170
     0
171
     0
290
     0
174
     0
 93
        1
 44
0.0
173
     0
291
     1
 45
0.0
  0
VISUALSTYLE
  5
34
102
{ACAD_REACTORS
330
2A
102
}
102
{ACAD_XDICTIONARY
360
57
102
}
330
2A
100
AcDbVisualStyle
  2
Conceptual
 70
     9
 71
     3
 72
     2
 73
     0
 90
        0
 40
-0.6
 41
-30.0
 62
     5
 63
     7
421
 16777215
 74
     2
 91
        2
 64
     7
 65
   257
 75
     1
175
     1
 42
40.0
 92
        8
 66
     7
 43
1.0
 76
     1
 77
     6
 78
     2
 67
     7
 79
     3
170
     0
171
     0
290
     0
174
     0
 93
        1
 44
0.0
173
     0
291
     0
 45
0.0
  0
VISUALSTYLE
  5
35
102
{ACAD_REACTORS
330
2A
102
}
102
{ACAD_XDICTIONARY
360
59
102
}
330
2A
100
AcDbVisualStyle
  2
Dim
 70
    11
 71
     2
 72
     2
 73
     0
 90
        0
 40
-0.6
 41
-30.0
 62
     5
 63
     7
421
 16777215
 74
     1
 91
        4
 64
     7
 65
   257
 75
     1
175
     1
 42
1.0
 92
        8
 66
     7
 43
1.0
 76
     1
 77
     6
 78
     2
 67
     7
 79
     5
170
     0
171
     0
290
     0
174
     0
 93
        1
 44
-50.0
173
     0
291
     1
 45
0.0
  0
VISUALSTYLE
  5
39
102
{ACAD_REACTORS
330
2A
102
}
102
{ACAD_XDICTIONARY
360
61
102
}
330
2A
100
AcDbVisualStyle
  2
Facepattern
 70
    15
 71
     2
 72
     2
 73
     0
 90
        0
 40
-0.6
 41
-30.0
 62
     5
 63
     7
421
 16777215
 74
     1
 91
        4
 64
     7
 65
   257
 75
     1
175
     1
 42
1.0
 92
        8
 66
     7
 43
1.0
 76
     1
 77
     6
 78
     2
 67
     7
 79
     5
170
     0
171
     0
290
     0
174
     0
 93
        1
 44
0.0
173
     0
291
     1
 45
0.0
  0
VISUALSTYLE
  5
2B
102
{ACAD_REACTORS
330
2A
102
}
102
{ACAD_XDICTIONARY
360
45
102
}
330
2A
100
AcDbVisualStyle
  2
Flat
 70
     0
 71
     2
 72
     1
 73
     1
 90
        2
 40
-0.6
 41
30.0
 62
     5
 63
     7
421
 16777215
 74
     0
 91
        4
 64
     7
 65
   257
 75
     1
175
     1
 42
1.0
 92
        8
 66
     7
 43
1.0
 76
     1
 77
     6
 78
     2
 67
     7
 79
     5
170
     0
171
     0
290
     0
174
     0
 93
       13
 44
0.0
173
     0
291
     1
 45
0.0
  0
VISUALSTYLE
  5
2C
102
{ACAD_REACTORS
330
2A
102
}
102
{ACAD_XDICTIONARY
360
47
102
}
330
2A
100
AcDbVisualStyle
  2
FlatWithEdges
 70
     1
 71
     2
 72
     1
 73
     1
 90
        2
 40
-0.6
 41
30.0
 62
     5
 63
     7
421
 16777215
 74
     1
 91
        4
 64
     7
 65
   257
 75
     1
175
     1
 42
1.0
 92
        0
 66
   257
 43
1.0
 76
     1
 77
     6
 78
     2
 67
     7
 79
     5
170
     0
171
     0
290
     0
174
     0
 93
       13
 44
0.0
173
     0
291
     1
 45
0.0
  0
VISUALSTYLE
  5
2D
102
{ACAD_REACTORS
330
2A
102
}
102
{ACAD_XDICTIONARY
360
49
102
}
330
2A
100
AcDbVisualStyle
  2
Gouraud
 70
     2
 71
     2
 72
     2
 73
     1
 90
        2
 40
-0.6
 41
30.0
 62
     5
 63
     7
421
 16777215
 74
     0
 91
        4
 64
     7
 65
   257
 75
     1
175
     1
 42
1.0
 92
        0
 66
     7
 43
1.0
 76
     1
 77
     6
 78
     2
 67
     7
 79
     5
170
     0
171
     0
290
     0
174
     0
 93
       13
 44
0.0
173
     0
291
     1
 45
0.0
  0
VISUALSTYLE
  5
2E
102
{ACAD_REACTORS
330
2A
102
}
102
{ACAD_XDICTIONARY
360
4B
102
}
330
2A
100
AcDbVisualStyle
  2
GouraudWithEdges
 70
     3
 71
     2
 72
     2
 73
     1
 90
        2
 40
-0.6
 41
30.0
 62
     5
 63
     7
421
 16777215
 74
     1
 91
        4
 64
     7
 65
   257
 75
     1
175
     1
 42
1.0
 92
        0
 66
   257
 43
1.0
 76
     1
 77
     6
 78
     2
 67
     7
 79
     5
170
     0
171
     0
290
     0
174
     0
 93
       13
 44
0.0
173
     0
291
     1
 45
0.0
  0
VISUALSTYLE
  5
38
102
{ACAD_REACTORS
330
2A
102
}
102
{ACAD_XDICTIONARY
360
5F
102
}
330
2A
100
AcDbVisualStyle
  2
Linepattern
 70
    14
 71
     2
 72
     2
 73
     0
 90
        0
 40
-0.6
 41
-30.0
 62
     5
 63
     7
421
 16777215
 74
     1
 91
        4
 64
     7
 65
   257
 75
     7
175
     7
 42
1.0
 92
        8
 66
     7
 43
1.0
 76
     1
 77
     6
 78
     2
 67
     7
 79
     5
170
     0
171
     0
290
     0
174
     0
 93
        1
 44
0.0
173
     0
291
     1
 45
0.0
  0
VISUALSTYLE
  5
33
102
{ACAD_REACTORS
330
2A
102
}
102
{ACAD_XDICTIONARY
360
55
102
}
330
2A
100
AcDbVisualStyle
  2
Realistic
 70
     8
 71
     2
 72
     2
 73
     0
 90
        0
 40
-0.6
 41
-30.0
 62
     5
 63
     7
421
 16777215
 74
     1
 91
        0
 64
     7
 65
   257
 75
     1
175
     1
 42
1.0
 92
        8
 66
     8
424
  7895160
 43
1.0
 76
     1
 77
     6
 78
     2
 67
     7
 79
     5
170
     0
171
     0
290
     0
174
     0
 93
       13
 44
0.0
173
     0
291
     0
 45
0.0
  0
VISUALSTYLE
  5
37
102
{ACAD_REACTORS
330
2A
102
}
102
{ACAD_XDICTIONARY
360
5D
102
}
330
2A
100
AcDbVisualStyle
  2
Thicken
 70
    13
 71
     2
 72
     2
 73
     0
 90
        0
 40
-0.6
 41
-30.0
 62
     5
 63
     7
421
 16777215
 74
     1
 91
        4
 64
     7
 65
   257
 75
     1
175
     1
 42
1.0
 92
       12
 66
     7
 43
1.0
 76
     1
 77
     6
 78
     2
 67
     7
 79
     5
170
     0
171
     0
290
     0
174
     0
 93
        1
 44
0.0
173
     0
291
     1
 45
0.0
  0
DICTIONARY
  5
4D
330
2F
100
AcDbDictionary
280
     1
281
     1
  3
ACAD_XREC_ROUNDTRIP
360
4E
  0
DICTIONARY
  5
51
330
31
100
AcDbDictionary
280
     1
281
     1
  3
ACAD_XREC_ROUNDTRIP
360
52
  0
DICTIONARY
  5
4F
330
30
100
AcDbDictionary
280
     1
281
     1
  3
ACAD_XREC_ROUNDTRIP
360
50
  0
DICTIONARY
  5
53
330
32
100
AcDbDictionary
280
     1
281
     1
  3
ACAD_XREC_ROUNDTRIP
360
54
  0
DICTIONARY
  5
5B
330
36
100
AcDbDictionary
280
     1
281
     1
  3
ACAD_XREC_ROUNDTRIP
360
5C
  0
DICTIONARY
  5
63
330
3A
100
AcDbDictionary
280
     1
281
     1
  3
ACAD_XREC_ROUNDTRIP
360
64
  0
DICTIONARY
  5
57
330
34
100
AcDbDictionary
280
     1
281
     1
  3
ACAD_XREC_ROUNDTRIP
360
58
  0
DICTIONARY
  5
59
330
35
100
AcDbDictionary
280
     1
281
     1
  3
ACAD_XREC_ROUNDTRIP
360
5A
  0
DICTIONARY
  5
61
330
39
100
AcDbDictionary
280
     1
281
     1
  3
ACAD_XREC_ROUNDTRIP
360
62
  0
DICTIONARY
  5
45
330
2B
100
AcDbDictionary
280
     1
281
     1
  3
ACAD_XREC_ROUNDTRIP
360
46
  0
DICTIONARY
  5
47
330
2C
100
AcDbDictionary
280
     1
281
     1
  3
ACAD_XREC_ROUNDTRIP
360
48
  0
DICTIONARY
  5
49
330
2D
100
AcDbDictionary
280
     1
281
     1
  3
ACAD_XREC_ROUNDTRIP
360
4A
  0
DICTIONARY
  5
4B
330
2E
100
AcDbDictionary
280
     1
281
     1
  3
ACAD_XREC_ROUNDTRIP
360
4C
  0
DICTIONARY
  5
5F
330
38
100
AcDbDictionary
280
     1
281
     1
  3
ACAD_XREC_ROUNDTRIP
360
60
  0
DICTIONARY
  5
55
330
33
100
AcDbDictionary
280
     1
281
     1
  3
ACAD_XREC_ROUNDTRIP
360
56
  0
DICTIONARY
  5
5D
330
37
100
AcDbDictionary
280
     1
281
     1
  3
ACAD_XREC_ROUNDTRIP
360
5E
  0
XRECORD
  5
4E
102
{ACAD_REACTORS
330
4D
102
}
330
4D
100
AcDbXrecord
280
     1
102
RTVSPropertyOp0
 70
     1
102
RTVSPropertyOp1
 70
     1
102
RTVSPropertyOp2
 70
     1
102
RTVSPropertyOp3
 70
     1
102
RTVSPropertyOp4
 70
     1
102
RTVSPropertyOp5
 70
     1
102
RTVSPropertyOp6
 70
     1
102
RTVSPropertyOp7
 70
     1
102
RTVSPropertyOp8
 70
     1
102
RTVSPropertyOp9
 70
     1
102
RTVSPropertyOp10
 70
     1
102
RTVSPropertyOp11
 70
     1
102
RTVSPropertyOp12
 70
     1
102
RTVSPropertyOp13
 70
     1
102
RTVSPropertyOp14
 70
     1
102
RTVSPropertyOp15
 70
     1
102
RTVSPropertyOp16
 70
     1
102
RTVSPropertyOp17
 70
     1
102
RTVSPropertyOp18
 70
     1
102
RTVSPropertyOp19
 70
     1
102
RTVSPropertyOp20
 70
     1
102
RTVSPropertyOp21
 70
     1
102
RTVSPropertyOp22
 70
     1
102
RTVSPropertyOp23
 70
     1
102
RTVSPropertyOp24
 70
     1
102
RTVSPropertyOp25
 70
     1
102
RTVSPropertyOp26
 70
     1
102
RTVSPropertyOp27
 70
     1
102
RTVSPropertyOp28
 70
     1
102
RTVSPropertyOp29
 70
     1
102
RTVSPropertyOp30
 70
     1
102
RTVSPropertyOp31
 70
     1
102
RTVSPropertyOp32
 70
     1
  0
XRECORD
  5
52
102
{ACAD_REACTORS
330
51
102
}
330
51
100
AcDbXrecord
280
     1
102
RTVSPropertyOp0
 70
     1
102
RTVSPropertyOp1
 70
     1
102
RTVSPropertyOp2
 70
     1
102
RTVSPropertyOp3
 70
     1
102
RTVSPropertyOp4
 70
     1
102
RTVSPropertyOp5
 70
     1
102
RTVSPropertyOp6
 70
     1
102
RTVSPropertyOp7
 70
     1
102
RTVSPropertyOp8
 70
     1
102
RTVSPropertyOp9
 70
     1
102
RTVSPropertyOp10
 70
     1
102
RTVSPropertyOp11
 70
     1
102
RTVSPropertyOp12
 70
     1
102
RTVSPropertyOp13
 70
     1
102
RTVSPropertyOp14
 70
     1
102
RTVSPropertyOp15
 70
     1
102
RTVSPropertyOp16
 70
     1
102
RTVSPropertyOp17
 70
     1
102
RTVSPropertyOp18
 70
     1
102
RTVSPropertyOp19
 70
     1
102
RTVSPropertyOp20
 70
     1
102
RTVSPropertyOp21
 70
     1
102
RTVSPropertyOp22
 70
     1
102
RTVSPropertyOp23
 70
     1
102
RTVSPropertyOp24
 70
     1
102
RTVSPropertyOp25
 70
     1
102
RTVSPropertyOp26
 70
     1
102
RTVSPropertyOp27
 70
     1
102
RTVSPropertyOp28
 70
     1
102
RTVSPropertyOp29
 70
     1
102
RTVSPropertyOp30
 70
     1
102
RTVSPropertyOp31
 70
     1
102
RTVSPropertyOp32
 70
     1
  0
XRECORD
  5
50
102
{ACAD_REACTORS
330
4F
102
}
330
4F
100
AcDbXrecord
280
     1
102
RTVSPropertyOp0
 70
     1
102
RTVSPropertyOp1
 70
     1
102
RTVSPropertyOp2
 70
     1
102
RTVSPropertyOp3
 70
     1
102
RTVSPropertyOp4
 70
     1
102
RTVSPropertyOp5
 70
     1
102
RTVSPropertyOp6
 70
     1
102
RTVSPropertyOp7
 70
     1
102
RTVSPropertyOp8
 70
     1
102
RTVSPropertyOp9
 70
     1
102
RTVSPropertyOp10
 70
     1
102
RTVSPropertyOp11
 70
     1
102
RTVSPropertyOp12
 70
     1
102
RTVSPropertyOp13
 70
     1
102
RTVSPropertyOp14
 70
     1
102
RTVSPropertyOp15
 70
     1
102
RTVSPropertyOp16
 70
     1
102
RTVSPropertyOp17
 70
     1
102
RTVSPropertyOp18
 70
     1
102
RTVSPropertyOp19
 70
     1
102
RTVSPropertyOp20
 70
     1
102
RTVSPropertyOp21
 70
     1
102
RTVSPropertyOp22
 70
     1
102
RTVSPropertyOp23
 70
     1
102
RTVSPropertyOp24
 70
     1
102
RTVSPropertyOp25
 70
     1
102
RTVSPropertyOp26
 70
     1
102
RTVSPropertyOp27
 70
     1
102
RTVSPropertyOp28
 70
     1
102
RTVSPropertyOp29
 70
     1
102
RTVSPropertyOp30
 70
     1
102
RTVSPropertyOp31
 70
     1
102
RTVSPropertyOp32
 70
     1
  0
XRECORD
  5
54
102
{ACAD_REACTORS
330
53
102
}
330
53
100
AcDbXrecord
280
     1
102
RTVSPropertyOp0
 70
     1
102
RTVSPropertyOp1
 70
     1
102
RTVSPropertyOp2
 70
     1
102
RTVSPropertyOp3
 70
     1
102
RTVSPropertyOp4
 70
     1
102
RTVSPropertyOp5
 70
     1
102
RTVSPropertyOp6
 70
     1
102
RTVSPropertyOp7
 70
     1
102
RTVSPropertyOp8
 70
     1
102
RTVSPropertyOp9
 70
     1
102
RTVSPropertyOp10
 70
     1
102
RTVSPropertyOp11
 70
     1
102
RTVSPropertyOp12
 70
     1
102
RTVSPropertyOp13
 70
     1
102
RTVSPropertyOp14
 70
     1
102
RTVSPropertyOp15
 70
     1
102
RTVSPropertyOp16
 70
     1
102
RTVSPropertyOp17
 70
     1
102
RTVSPropertyOp18
 70
     1
102
RTVSPropertyOp19
 70
     1
102
RTVSPropertyOp20
 70
     1
102
RTVSPropertyOp21
 70
     1
102
RTVSPropertyOp22
 70
     1
102
RTVSPropertyOp23
 70
     1
102
RTVSPropertyOp24
 70
     1
102
RTVSPropertyOp25
 70
     1
102
RTVSPropertyOp26
 70
     1
102
RTVSPropertyOp27
 70
     1
102
RTVSPropertyOp28
 70
     1
102
RTVSPropertyOp29
 70
     1
102
RTVSPropertyOp30
 70
     1
102
RTVSPropertyOp31
 70
     1
102
RTVSPropertyOp32
 70
     1
  0
XRECORD
  5
5C
102
{ACAD_REACTORS
330
5B
102
}
330
5B
100
AcDbXrecord
280
     1
102
RTVSPropertyOp0
 70
     1
102
RTVSPropertyOp1
 70
     1
102
RTVSPropertyOp2
 70
     1
102
RTVSPropertyOp3
 70
     1
102
RTVSPropertyOp4
 70
     1
102
RTVSPropertyOp5
 70
     1
102
RTVSPropertyOp6
 70
     1
102
RTVSPropertyOp7
 70
     1
102
RTVSPropertyOp8
 70
     1
102
RTVSPropertyOp9
 70
     1
102
RTVSPropertyOp10
 70
     1
102
RTVSPropertyOp11
 70
     1
102
RTVSPropertyOp12
 70
     1
102
RTVSPropertyOp13
 70
     1
102
RTVSPropertyOp14
 70
     1
102
RTVSPropertyOp15
 70
     1
102
RTVSPropertyOp16
 70
     1
102
RTVSPropertyOp17
 70
     1
102
RTVSPropertyOp18
 70
     1
102
RTVSPropertyOp19
 70
     1
102
RTVSPropertyOp20
 70
     1
102
RTVSPropertyOp21
 70
     1
102
RTVSPropertyOp22
 70
     1
102
RTVSPropertyOp23
 70
     1
102
RTVSPropertyOp24
 70
     1
102
RTVSPropertyOp25
 70
     1
102
RTVSPropertyOp26
 70
     1
102
RTVSPropertyOp27
 70
     1
102
RTVSPropertyOp28
 70
     1
102
RTVSPropertyOp29
 70
     1
102
RTVSPropertyOp30
 70
     1
102
RTVSPropertyOp31
 70
     1
102
RTVSPropertyOp32
 70
     1
  0
XRECORD
  5
64
102
{ACAD_REACTORS
330
63
102
}
330
63
100
AcDbXrecord
280
     1
102
RTVSPropertyOp0
 70
     1
102
RTVSPropertyOp1
 70
     1
102
RTVSPropertyOp2
 70
     1
102
RTVSPropertyOp3
 70
     1
102
RTVSPropertyOp4
 70
     1
102
RTVSPropertyOp5
 70
     1
102
RTVSPropertyOp6
 70
     1
102
RTVSPropertyOp7
 70
     1
102
RTVSPropertyOp8
 70
     1
102
RTVSPropertyOp9
 70
     1
102
RTVSPropertyOp10
 70
     1
102
RTVSPropertyOp11
 70
     1
102
RTVSPropertyOp12
 70
     1
102
RTVSPropertyOp13
 70
     1
102
RTVSPropertyOp14
 70
     1
102
RTVSPropertyOp15
 70
     1
102
RTVSPropertyOp16
 70
     1
102
RTVSPropertyOp17
 70
     1
102
RTVSPropertyOp18
 70
     1
102
RTVSPropertyOp19
 70
     1
102
RTVSPropertyOp20
 70
     1
102
RTVSPropertyOp21
 70
     1
102
RTVSPropertyOp22
 70
     1
102
RTVSPropertyOp23
 70
     1
102
RTVSPropertyOp24
 70
     1
102
RTVSPropertyOp25
 70
     1
102
RTVSPropertyOp26
 70
     1
102
RTVSPropertyOp27
 70
     1
102
RTVSPropertyOp28
 70
     1
102
RTVSPropertyOp29
 70
     1
102
RTVSPropertyOp30
 70
     1
102
RTVSPropertyOp31
 70
     1
102
RTVSPropertyOp32
 70
     1
  0
XRECORD
  5
58
102
{ACAD_REACTORS
330
57
102
}
330
57
100
AcDbXrecord
280
     1
102
RTVSPropertyOp0
 70
     1
102
RTVSPropertyOp1
 70
     1
102
RTVSPropertyOp2
 70
     1
102
RTVSPropertyOp3
 70
     1
102
RTVSPropertyOp4
 70
     1
102
RTVSPropertyOp5
 70
     1
102
RTVSPropertyOp6
 70
     1
102
RTVSPropertyOp7
 70
     1
102
RTVSPropertyOp8
 70
     1
102
RTVSPropertyOp9
 70
     1
102
RTVSPropertyOp10
 70
     1
102
RTVSPropertyOp11
 70
     1
102
RTVSPropertyOp12
 70
     1
102
RTVSPropertyOp13
 70
     1
102
RTVSPropertyOp14
 70
     1
102
RTVSPropertyOp15
 70
     1
102
RTVSPropertyOp16
 70
     1
102
RTVSPropertyOp17
 70
     1
102
RTVSPropertyOp18
 70
     1
102
RTVSPropertyOp19
 70
     1
102
RTVSPropertyOp20
 70
     1
102
RTVSPropertyOp21
 70
     1
102
RTVSPropertyOp22
 70
     1
102
RTVSPropertyOp23
 70
     1
102
RTVSPropertyOp24
 70
     1
102
RTVSPropertyOp25
 70
     1
102
RTVSPropertyOp26
 70
     1
102
RTVSPropertyOp27
 70
     1
102
RTVSPropertyOp28
 70
     1
102
RTVSPropertyOp29
 70
     1
102
RTVSPropertyOp30
 70
     1
102
RTVSPropertyOp31
 70
     1
102
RTVSPropertyOp32
 70
     1
  0
XRECORD
  5
5A
102
{ACAD_REACTORS
330
59
102
}
330
59
100
AcDbXrecord
280
     1
102
RTVSPropertyOp0
 70
     1
102
RTVSPropertyOp1
 70
     1
102
RTVSPropertyOp2
 70
     1
102
RTVSPropertyOp3
 70
     1
102
RTVSPropertyOp4
 70
     1
102
RTVSPropertyOp5
 70
     1
102
RTVSPropertyOp6
 70
     1
102
RTVSPropertyOp7
 70
     1
102
RTVSPropertyOp8
 70
     1
102
RTVSPropertyOp9
 70
     1
102
RTVSPropertyOp10
 70
     1
102
RTVSPropertyOp11
 70
     1
102
RTVSPropertyOp12
 70
     1
102
RTVSPropertyOp13
 70
     1
102
RTVSPropertyOp14
 70
     1
102
RTVSPropertyOp15
 70
     1
102
RTVSPropertyOp16
 70
     1
102
RTVSPropertyOp17
 70
     1
102
RTVSPropertyOp18
 70
     1
102
RTVSPropertyOp19
 70
     1
102
RTVSPropertyOp20
 70
     1
102
RTVSPropertyOp21
 70
     1
102
RTVSPropertyOp22
 70
     1
102
RTVSPropertyOp23
 70
     1
102
RTVSPropertyOp24
 70
     1
102
RTVSPropertyOp25
 70
     1
102
RTVSPropertyOp26
 70
     1
102
RTVSPropertyOp27
 70
     1
102
RTVSPropertyOp28
 70
     1
102
RTVSPropertyOp29
 70
     1
102
RTVSPropertyOp30
 70
     1
102
RTVSPropertyOp31
 70
     1
102
RTVSPropertyOp32
 70
     1
  0
XRECORD
  5
62
102
{ACAD_REACTORS
330
61
102
}
330
61
100
AcDbXrecord
280
     1
102
RTVSPropertyOp0
 70
     1
102
RTVSPropertyOp1
 70
     1
102
RTVSPropertyOp2
 70
     1
102
RTVSPropertyOp3
 70
     1
102
RTVSPropertyOp4
 70
     1
102
RTVSPropertyOp5
 70
     1
102
RTVSPropertyOp6
 70
     1
102
RTVSPropertyOp7
 70
     1
102
RTVSPropertyOp8
 70
     1
102
RTVSPropertyOp9
 70
     1
102
RTVSPropertyOp10
 70
     1
102
RTVSPropertyOp11
 70
     1
102
RTVSPropertyOp12
 70
     1
102
RTVSPropertyOp13
 70
     1
102
RTVSPropertyOp14
 70
     1
102
RTVSPropertyOp15
 70
     1
102
RTVSPropertyOp16
 70
     1
102
RTVSPropertyOp17
 70
     1
102
RTVSPropertyOp18
 70
     1
102
RTVSPropertyOp19
 70
     1
102
RTVSPropertyOp20
 70
     1
102
RTVSPropertyOp21
 70
     1
102
RTVSPropertyOp22
 70
     1
102
RTVSPropertyOp23
 70
     1
102
RTVSPropertyOp24
 70
     1
102
RTVSPropertyOp25
 70
     1
102
RTVSPropertyOp26
 70
     1
102
RTVSPropertyOp27
 70
     1
102
RTVSPropertyOp28
 70
     1
102
RTVSPropertyOp29
 70
     1
102
RTVSPropertyOp30
 70
     1
102
RTVSPropertyOp31
 70
     1
102
RTVSPropertyOp32
 70
     1
  0
XRECORD
  5
46
102
{ACAD_REACTORS
330
45
102
}
330
45
100
AcDbXrecord
280
     1
102
RTVSPropertyOp0
 70
     1
102
RTVSPropertyOp1
 70
     1
102
RTVSPropertyOp2
 70
     1
102
RTVSPropertyOp3
 70
     1
102
RTVSPropertyOp4
 70
     1
102
RTVSPropertyOp5
 70
     1
102
RTVSPropertyOp6
 70
     1
102
RTVSPropertyOp7
 70
     1
102
RTVSPropertyOp8
 70
     1
102
RTVSPropertyOp9
 70
     1
102
RTVSPropertyOp10
 70
     1
102
RTVSPropertyOp11
 70
     1
102
RTVSPropertyOp12
 70
     1
102
RTVSPropertyOp13
 70
     1
102
RTVSPropertyOp14
 70
     1
102
RTVSPropertyOp15
 70
     1
102
RTVSPropertyOp16
 70
     1
102
RTVSPropertyOp17
 70
     1
102
RTVSPropertyOp18
 70
     1
102
RTVSPropertyOp19
 70
     1
102
RTVSPropertyOp20
 70
     1
102
RTVSPropertyOp21
 70
     1
102
RTVSPropertyOp22
 70
     1
102
RTVSPropertyOp23
 70
     1
102
RTVSPropertyOp24
 70
     1
102
RTVSPropertyOp25
 70
     1
102
RTVSPropertyOp26
 70
     1
102
RTVSPropertyOp27
 70
     1
102
RTVSPropertyOp28
 70
     1
102
RTVSPropertyOp29
 70
     1
102
RTVSPropertyOp30
 70
     1
102
RTVSPropertyOp31
 70
     1
102
RTVSPropertyOp32
 70
     1
  0
XRECORD
  5
48
102
{ACAD_REACTORS
330
47
102
}
330
47
100
AcDbXrecord
280
     1
102
RTVSPropertyOp0
 70
     1
102
RTVSPropertyOp1
 70
     1
102
RTVSPropertyOp2
 70
     1
102
RTVSPropertyOp3
 70
     1
102
RTVSPropertyOp4
 70
     1
102
RTVSPropertyOp5
 70
     1
102
RTVSPropertyOp6
 70
     1
102
RTVSPropertyOp7
 70
     1
102
RTVSPropertyOp8
 70
     1
102
RTVSPropertyOp9
 70
     1
102
RTVSPropertyOp10
 70
     1
102
RTVSPropertyOp11
 70
     1
102
RTVSPropertyOp12
 70
     1
102
RTVSPropertyOp13
 70
     1
102
RTVSPropertyOp14
 70
     1
102
RTVSPropertyOp15
 70
     1
102
RTVSPropertyOp16
 70
     1
102
RTVSPropertyOp17
 70
     1
102
RTVSPropertyOp18
 70
     1
102
RTVSPropertyOp19
 70
     1
102
RTVSPropertyOp20
 70
     1
102
RTVSPropertyOp21
 70
     1
102
RTVSPropertyOp22
 70
     1
102
RTVSPropertyOp23
 70
     1
102
RTVSPropertyOp24
 70
     1
102
RTVSPropertyOp25
 70
     1
102
RTVSPropertyOp26
 70
     1
102
RTVSPropertyOp27
 70
     1
102
RTVSPropertyOp28
 70
     1
102
RTVSPropertyOp29
 70
     1
102
RTVSPropertyOp30
 70
     1
102
RTVSPropertyOp31
 70
     1
102
RTVSPropertyOp32
 70
     1
  0
XRECORD
  5
4A
102
{ACAD_REACTORS
330
49
102
}
330
49
100
AcDbXrecord
280
     1
102
RTVSPropertyOp0
 70
     1
102
RTVSPropertyOp1
 70
     1
102
RTVSPropertyOp2
 70
     1
102
RTVSPropertyOp3
 70
     1
102
RTVSPropertyOp4
 70
     1
102
RTVSPropertyOp5
 70
     1
102
RTVSPropertyOp6
 70
     1
102
RTVSPropertyOp7
 70
     1
102
RTVSPropertyOp8
 70
     1
102
RTVSPropertyOp9
 70
     1
102
RTVSPropertyOp10
 70
     1
102
RTVSPropertyOp11
 70
     1
102
RTVSPropertyOp12
 70
     1
102
RTVSPropertyOp13
 70
     1
102
RTVSPropertyOp14
 70
     1
102
RTVSPropertyOp15
 70
     1
102
RTVSPropertyOp16
 70
     1
102
RTVSPropertyOp17
 70
     1
102
RTVSPropertyOp18
 70
     1
102
RTVSPropertyOp19
 70
     1
102
RTVSPropertyOp20
 70
     1
102
RTVSPropertyOp21
 70
     1
102
RTVSPropertyOp22
 70
     1
102
RTVSPropertyOp23
 70
     1
102
RTVSPropertyOp24
 70
     1
102
RTVSPropertyOp25
 70
     1
102
RTVSPropertyOp26
 70
     1
102
RTVSPropertyOp27
 70
     1
102
RTVSPropertyOp28
 70
     1
102
RTVSPropertyOp29
 70
     1
102
RTVSPropertyOp30
 70
     1
102
RTVSPropertyOp31
 70
     1
102
RTVSPropertyOp32
 70
     1
  0
XRECORD
  5
4C
102
{ACAD_REACTORS
330
4B
102
}
330
4B
100
AcDbXrecord
280
     1
102
RTVSPropertyOp0
 70
     1
102
RTVSPropertyOp1
 70
     1
102
RTVSPropertyOp2
 70
     1
102
RTVSPropertyOp3
 70
     1
102
RTVSPropertyOp4
 70
     1
102
RTVSPropertyOp5
 70
     1
102
RTVSPropertyOp6
 70
     1
102
RTVSPropertyOp7
 70
     1
102
RTVSPropertyOp8
 70
     1
102
RTVSPropertyOp9
 70
     1
102
RTVSPropertyOp10
 70
     1
102
RTVSPropertyOp11
 70
     1
102
RTVSPropertyOp12
 70
     1
102
RTVSPropertyOp13
 70
     1
102
RTVSPropertyOp14
 70
     1
102
RTVSPropertyOp15
 70
     1
102
RTVSPropertyOp16
 70
     1
102
RTVSPropertyOp17
 70
     1
102
RTVSPropertyOp18
 70
     1
102
RTVSPropertyOp19
 70
     1
102
RTVSPropertyOp20
 70
     1
102
RTVSPropertyOp21
 70
     1
102
RTVSPropertyOp22
 70
     1
102
RTVSPropertyOp23
 70
     1
102
RTVSPropertyOp24
 70
     1
102
RTVSPropertyOp25
 70
     1
102
RTVSPropertyOp26
 70
     1
102
RTVSPropertyOp27
 70
     1
102
RTVSPropertyOp28
 70
     1
102
RTVSPropertyOp29
 70
     1
102
RTVSPropertyOp30
 70
     1
102
RTVSPropertyOp31
 70
     1
102
RTVSPropertyOp32
 70
     1
  0
XRECORD
  5
60
102
{ACAD_REACTORS
330
5F
102
}
330
5F
100
AcDbXrecord
280
     1
102
RTVSPropertyOp0
 70
     1
102
RTVSPropertyOp1
 70
     1
102
RTVSPropertyOp2
 70
     1
102
RTVSPropertyOp3
 70
     1
102
RTVSPropertyOp4
 70
     1
102
RTVSPropertyOp5
 70
     1
102
RTVSPropertyOp6
 70
     1
102
RTVSPropertyOp7
 70
     1
102
RTVSPropertyOp8
 70
     1
102
RTVSPropertyOp9
 70
     1
102
RTVSPropertyOp10
 70
     1
102
RTVSPropertyOp11
 70
     1
102
RTVSPropertyOp12
 70
     1
102
RTVSPropertyOp13
 70
     1
102
RTVSPropertyOp14
 70
     1
102
RTVSPropertyOp15
 70
     1
102
RTVSPropertyOp16
 70
     1
102
RTVSPropertyOp17
 70
     1
102
RTVSPropertyOp18
 70
     1
102
RTVSPropertyOp19
 70
     1
102
RTVSPropertyOp20
 70
     1
102
RTVSPropertyOp21
 70
     1
102
RTVSPropertyOp22
 70
     1
102
RTVSPropertyOp23
 70
     1
102
RTVSPropertyOp24
 70
     1
102
RTVSPropertyOp25
 70
     1
102
RTVSPropertyOp26
 70
     1
102
RTVSPropertyOp27
 70
     1
102
RTVSPropertyOp28
 70
     1
102
RTVSPropertyOp29
 70
     1
102
RTVSPropertyOp30
 70
     1
102
RTVSPropertyOp31
 70
     1
102
RTVSPropertyOp32
 70
     1
  0
XRECORD
  5
56
102
{ACAD_REACTORS
330
55
102
}
330
55
100
AcDbXrecord
280
     1
102
RTVSPropertyOp0
 70
     1
102
RTVSPropertyOp1
 70
     1
102
RTVSPropertyOp2
 70
     1
102
RTVSPropertyOp3
 70
     1
102
RTVSPropertyOp4
 70
     1
102
RTVSPropertyOp5
 70
     1
102
RTVSPropertyOp6
 70
     1
102
RTVSPropertyOp7
 70
     1
102
RTVSPropertyOp8
 70
     1
102
RTVSPropertyOp9
 70
     1
102
RTVSPropertyOp10
 70
     1
102
RTVSPropertyOp11
 70
     1
102
RTVSPropertyOp12
 70
     1
102
RTVSPropertyOp13
 70
     1
102
RTVSPropertyOp14
 70
     1
102
RTVSPropertyOp15
 70
     1
102
RTVSPropertyOp16
 70
     1
102
RTVSPropertyOp17
 70
     1
102
RTVSPropertyOp18
 70
     1
102
RTVSPropertyOp19
 70
     1
102
RTVSPropertyOp20
 70
     1
102
RTVSPropertyOp21
 70
     1
102
RTVSPropertyOp22
 70
     1
102
RTVSPropertyOp23
 70
     1
102
RTVSPropertyOp24
 70
     1
102
RTVSPropertyOp25
 70
     1
102
RTVSPropertyOp26
 70
     1
102
RTVSPropertyOp27
 70
     1
102
RTVSPropertyOp28
 70
     1
102
RTVSPropertyOp29
 70
     1
102
RTVSPropertyOp30
 70
     1
102
RTVSPropertyOp31
 70
     1
102
RTVSPropertyOp32
 70
     1
  0
XRECORD
  5
5E
102
{ACAD_REACTORS
330
5D
102
}
330
5D
100
AcDbXrecord
280
     1
102
RTVSPropertyOp0
 70
     1
102
RTVSPropertyOp1
 70
     1
102
RTVSPropertyOp2
 70
     1
102
RTVSPropertyOp3
 70
     1
102
RTVSPropertyOp4
 70
     1
102
RTVSPropertyOp5
 70
     1
102
RTVSPropertyOp6
 70
     1
102
RTVSPropertyOp7
 70
     1
102
RTVSPropertyOp8
 70
     1
102
RTVSPropertyOp9
 70
     1
102
RTVSPropertyOp10
 70
     1
102
RTVSPropertyOp11
 70
     1
102
RTVSPropertyOp12
 70
     1
102
RTVSPropertyOp13
 70
     1
102
RTVSPropertyOp14
 70
     1
102
RTVSPropertyOp15
 70
     1
102
RTVSPropertyOp16
 70
     1
102
RTVSPropertyOp17
 70
     1
102
RTVSPropertyOp18
 70
     1
102
RTVSPropertyOp19
 70
     1
102
RTVSPropertyOp20
 70
     1
102
RTVSPropertyOp21
 70
     1
102
RTVSPropertyOp22
 70
     1
102
RTVSPropertyOp23
 70
     1
102
RTVSPropertyOp24
 70
     1
102
RTVSPropertyOp25
 70
     1
102
RTVSPropertyOp26
 70
     1
102
RTVSPropertyOp27
 70
     1
102
RTVSPropertyOp28
 70
     1
102
RTVSPropertyOp29
 70
     1
102
RTVSPropertyOp30
 70
     1
102
RTVSPropertyOp31
 70
     1
102
RTVSPropertyOp32
 70
     1
  0
ENDSEC
  0
EOF
