<?xml version="1.0" encoding="utf-8"?>
<!-- Generator: Adobe Illustrator 16.0.0, SVG Export Plug-In . SVG Version: 6.00 Build 0)  -->
<!DOCTYPE svg PUBLIC "-//W3C//DTD SVG 1.1//EN" "http://www.w3.org/Graphics/SVG/1.1/DTD/svg11.dtd">
<svg version="1.1" id="Layer_1" xmlns="http://www.w3.org/2000/svg" xmlns:xlink="http://www.w3.org/1999/xlink" x="0px" y="0px"
	 width="226.77px" height="226.77px" viewBox="0 0 226.77 226.77" enable-background="new 0 0 226.77 226.77" xml:space="preserve">
<path d="M214.77,18.826c-0.393-0.031-0.423-0.189-0.25-0.522c0.324-0.614,0.225-0.773-0.463-0.764
	c-1.398,0.021-2.797-0.008-4.189-0.108c-0.619-0.042-1.172-0.299-1.83-0.625c0.672-0.133,1.219-0.234,1.766-0.348
	c1.236-0.259,2.504-0.376,3.693-0.843c0.316-0.125,0.604-0.284,0.781-0.59c0.158-0.272,0.254-0.593,0.105-0.853
	c-0.127-0.222-0.432-0.048-0.656-0.058c-0.049-0.003-0.1,0.005-0.148,0.014c-2.494,0.446-5,0.703-7.543,0.632
	c-1.596-0.042-3.176,0.137-4.724,0.643c-1.438,0.471-2.944,0.739-4.464,0.79c-1.201,0.042-2.285,0.356-3.303,0.985
	c-1.648,1.018-3.123,2.272-4.676,3.418c-3.525,2.601-7.164,5.04-10.766,7.531c-2.566,1.775-5.034,3.665-7.139,5.989
	c-0.412,0.456-0.861,0.889-1.338,1.274c-2.229,1.805-4.7,3.271-7.02,4.946c-1.582,1.144-3.303,1.722-5.205,1.967
	c-2.875,0.369-5.733,0.835-8.462,1.882c-1.679,0.645-3.374,1.236-5.13,1.653c-1.838,0.439-3.612,0.2-5.334-0.439
	c-1.621-0.606-2.386-1.99-2.915-3.537c-0.421-1.227-0.673-2.507-1.22-3.694c-0.184-0.399-0.125-0.813,0.184-1.165
	c1.33-1.505,2.938-2.586,4.854-3.21c0.409-0.133,0.809-0.317,1.182-0.531c0.717-0.408,1.059-1.066,0.819-1.803
	c-0.307-0.939-0.384-1.88-0.322-2.851c0.029-0.451-0.116-0.823-0.618-0.949c-0.256-0.065-0.262-0.207-0.121-0.403
	c0.098-0.133,0.196-0.272,0.259-0.424c0.245-0.591,0.085-0.907-0.528-1.064c-0.251-0.065-0.4-0.245-0.491-0.461
	c-0.104-0.244,0.155-0.297,0.267-0.422c0.133-0.15,0.287-0.277,0.422-0.426c0.664-0.724,0.545-1.401-0.336-1.842
	c-0.699-0.353-1.401-0.69-2.026-1.176c-0.257-0.198-0.429-0.358-0.271-0.62c0.012-0.018,0.214-0.367,0.243-0.769
	c0.008-0.104,0.024-0.198,0.029-0.266c-0.021,0.075-0.075,0.154-0.139,0.231c-0.382,0.543-0.734,0.702-0.842,0.13
	c-0.132-0.7-0.273-1.405-0.64-2.039c-0.889-1.536-2.252-2.49-3.796-3.279c-1.224-0.623-2.632-0.699-3.817-1.405
	c-0.107-0.066-0.256-0.082-0.387-0.087c-1.867-0.063-3.722-0.063-5.518,0.606c-2.053,0.765-3.662,2.152-5.205,3.63
	c-0.382,0.364-0.656,0.745-1.217,0.344c-0.072-0.051-0.2-0.056-0.293-0.039c-0.418,0.081-0.787-0.072-1.162-0.21
	c-0.767-0.277-1.542-0.193-2.312-0.036c-0.317,0.065-0.496,0.313-0.624,0.601c-0.199,0.444-0.295,0.919-0.399,1.39
	c-0.127,0.568-0.465,0.941-0.985,1.177c-0.227,0.101-0.453,0.21-0.661,0.344c-0.156,0.101-0.273,0.256-0.228,0.464
	c0.045,0.201,0.191,0.294,0.382,0.349c0.642,0.184,0.89,0.614,0.596,1.235c-0.355,0.75-0.346,1.515-0.303,2.297
	c0.007,0.15,0.018,0.288-0.037,0.44c-0.26,0.72,0.116,1.456,0.862,1.692c-0.613,0.339-0.591,0.879-0.457,1.442
	c0.286,1.199,1.08,2.049,2.004,2.785c1.195,0.951,2.514,1.57,4.104,1.308c0.246-0.038,0.449,0.039,0.657,0.168
	c0.421,0.265,0.642,0.178,0.728-0.322c0.059-0.349,0.145-0.679,0.32-0.985c0.047-0.084,0.093-0.222,0.209-0.136
	c0.256,0.188,0.649,0.229,0.695,0.648c0.105,0.941,0.583,1.688,1.258,2.319c0.369,0.347,0.561,0.769,0.635,1.267
	c0.182,1.207,0.736,1.762,1.936,1.91c0.292,0.035,0.451,0.144,0.546,0.41c0.534,1.555,0.519,3.076-0.303,4.529
	c-0.519,0.919-1.394,1.351-2.4,1.405c-1.259,0.066-2.524,0.033-3.786,0.019c-1.7-0.015-3.393,0.027-5.063,0.403
	c-3.16,0.713-6.262,1.585-9.136,3.13c-0.939,0.505-1.789,1.157-2.776,1.576c-1.316,0.561-2.727,0.739-4.106,1.04
	c-2.732,0.601-5.474,0.706-8.222,0.105c-1.297-0.285-2.609-0.353-3.921-0.195c-1.075,0.131-2.153,0.208-3.227,0.305
	c-3.498,0.32-6.982,0.731-10.465,1.175c-3.533,0.445-7.056,0.977-10.623,1.077c-1.862,0.055-3.697,0.533-5.571,0.376
	c-1.78-0.145-3.562-0.016-5.343-0.094c-0.64-0.026-1.155,0.192-1.565,0.713c-0.263,0.335-0.568,0.643-1.044,0.712
	c-1.185,0.177-2.364,0.06-3.532-0.094c-1.285-0.168-2.556-0.44-3.833-0.658c-0.253-0.044-0.571-0.151-0.684,0.196
	c-0.104,0.319-0.019,0.629,0.264,0.852c0.267,0.206,0.568,0.342,0.886,0.449c0.547,0.178,1.091,0.367,1.635,0.551
	c-0.512,0.098-1.006,0.09-1.501,0.103c-0.217,0.007-0.512-0.088-0.591,0.226c-0.075,0.292-0.064,0.601,0.187,0.833
	c0.084,0.078,0.185,0.14,0.371,0.276c-0.385,0.1-0.689,0.165-0.986,0.258c-0.209,0.065-0.506,0.04-0.529,0.36
	c-0.022,0.329,0.136,0.571,0.443,0.711c0.378,0.173,0.773,0.179,1.177,0.136c1.525-0.158,2.983-0.684,4.508-0.843
	c0.662-0.066,1.327-0.195,1.924-0.503c1.194-0.613,2.192-0.216,3.112,0.566c0.523,0.441,0.467,0.896-0.145,1.222
	c-0.529,0.278-1.082,0.519-1.629,0.756c-0.719,0.311-1.512,0.418-2.197,0.815c-0.603,0.35-1.066,0.808-1.146,1.538
	c-0.06,0.544,0.192,0.773,0.728,0.708c0.839-0.101,1.635-0.354,2.368-0.754c1.412-0.772,2.933-1.135,4.504-1.398
	c1.595-0.268,3.076-0.881,4.32-1.938c0.98-0.832,2.085-1.303,3.355-1.336c3.481-0.087,6.949,0.214,10.421,0.421
	c2.806,0.167,5.612,0.317,8.418,0.442c2.03,0.09,4.051,0.244,6.073,0.405c1.28,0.1,2.562,0.066,3.788-0.431
	c0.509-0.202,1.042-0.342,1.581-0.456c2.453-0.507,4.951-0.633,7.433-0.843c4.181-0.354,8.351-0.786,12.521-1.213
	c0.777-0.08,1.543,0.003,2.212,0.435c0.924,0.592,1.744,1.395,2.261,2.291c0.656,1.135,1.312,2.375,1.168,3.808
	c-0.067,0.683,0.161,1.275,0.605,1.792c0.392,0.46,0.637,0.986,0.594,1.602c-0.086,1.265,0.488,2.443,0.486,3.698
	c0,0.125,0.049,0.272,0.12,0.376c0.487,0.704,0.546,1.521,0.657,2.329c0.051,0.385-0.072,0.647-0.406,0.828
	c-0.354,0.192-0.659,0.442-0.959,0.713c-0.977,0.878-1.884,1.836-2.963,2.597c-0.333,0.233-0.67,0.435-1.09,0.453
	c-1.153,0.047-2.282,0.249-3.396,0.544c-1.685,0.447-3.367,0.899-5.116,1.069c-0.839,0.08-1.689,0.256-2.478,0.541
	c-0.605,0.217-1.191,0.41-1.827,0.443c-0.627,0.034-1.239,0.18-1.757,0.52c-1.359,0.892-2.878,1.272-4.455,1.493
	c-0.466,0.066-0.911,0.194-1.286,0.503c-0.271,0.221-0.58,0.259-0.936,0.233c-0.694-0.048-1.412-0.072-2.025,0.343
	c-0.435,0.295-0.905,0.361-1.41,0.417c-0.956,0.11-1.947,0.047-2.857,0.375c-0.774,0.283-1.548,0.481-2.366,0.566
	c-0.987,0.098-1.963,0.363-2.964,0.069c-0.278-0.083-0.581,0.012-0.81,0.18c-0.491,0.364-0.935,0.266-1.439,0.015
	c-0.843-0.418-1.773-0.542-2.597-0.062c-1.051,0.61-2.174,0.69-3.321,0.715c-1.515,0.029-3.032,0.013-4.547,0.004
	c-0.868-0.004-1.726,0.024-2.583,0.196c-0.77,0.155-1.556,0.194-2.333,0.048c-1.252-0.236-2.402-0.773-3.57-1.254
	c-0.216-0.089-0.472-0.289-0.653-0.183c-0.494,0.291-0.932,0.024-1.382-0.049c-1.149-0.191-2.297-0.389-3.461-0.435
	c-3.091-0.129-6.096,0.403-9.078,1.149c-2.618,0.656-5.158,1.578-7.772,2.242c-1.847,0.467-3.701,0.664-5.565,0.076
	c-0.323-0.104-0.659-0.112-0.987-0.024c-0.586,0.155-1.115,0.086-1.584-0.327c-0.173-0.154-0.392-0.248-0.618-0.322
	c-1.712-0.548-3.423-1.096-5.132-1.654c-2.383-0.777-4.776-0.916-7.223-0.271c-1.261,0.336-2.075,1.14-2.72,2.189
	c-0.074,0.122-0.146,0.285-0.13,0.42c0.058,0.563-0.217,0.991-0.507,1.422c-0.11,0.165-0.203,0.347-0.277,0.531
	c-0.248,0.628-0.151,1.001,0.368,1.448c0.105,0.094,0.181,0.188,0.201,0.33c0.109,0.748,0.62,1.144,1.255,1.43
	c0.592,0.268,1.185,0.531,1.774,0.8c0.246,0.113,0.497,0.183,0.765,0.213c1.79,0.197,3.553,0.518,5.293,0.985
	c1.708,0.461,3.449,0.77,5.226,0.681c1.312-0.067,2.62-0.194,3.929-0.317c0.927-0.086,1.852-0.191,2.745-0.494
	c0.518-0.176,0.946-0.585,1.509-0.636c0.877-0.079,1.745-0.234,2.633-0.245c2.72-0.029,5.37,0.432,7.985,1.116
	c2.334,0.609,4.62,1.415,7.023,1.734c1.169,0.155,2.348,0.242,3.53,0.252c0.252,0.002,0.501-0.008,0.52,0.368
	c0.046,0.881,0.121,1.76,0.178,2.636c0.17,2.664,0.478,5.308,1.226,7.877c0.378,1.296,0.807,2.583,1.641,3.674
	c0.324,0.424,0.532,0.881,0.632,1.394c0.275,1.382,0.843,2.619,1.741,3.714c0.685,0.835,1.485,1.577,2.047,2.513
	c0.38,0.635,0.822,1.209,1.483,1.588c0.46,0.264,0.643,0.689,0.634,1.218c-0.012,0.643,0.204,1.204,0.65,1.678
	c0.55,0.583,1.018,1.229,1.483,1.883c1.398,1.957,3.064,3.683,4.819,5.314c0.952,0.884,2.098,1.54,3.027,2.45
	c1.286,1.258,2.636,2.446,3.936,3.682c2.41,2.291,5.411,3.321,8.457,4.271c0.905,0.281,1.819,0.486,2.643,0.98
	c0.282,0.17,0.604,0.286,0.918,0.386c0.673,0.215,1.309,0.501,1.9,0.878c0.677,0.427,1.404,0.683,2.195,0.769
	c0.429,0.047,0.786,0.229,1.104,0.525c0.713,0.665,1.266,1.457,1.804,2.258c0.712,1.064,1.427,2.121,2.273,3.098
	c1.338,1.548,3.026,2.766,4.177,4.484c0.092,0.138,0.228,0.251,0.363,0.091c0.543-0.637,1.313-1.028,1.827-1.688
	c0.678-0.869,0.661-0.869,1.703-0.432c0.312,0.132,0.398,0.316,0.407,0.646c0.09,2.975-0.376,5.904-0.658,8.85
	c-0.18,1.877-0.243,3.777,0.317,5.597c0.844,2.742,1.475,5.531,2.089,8.326c0.835,3.796,1.547,7.604,1.135,11.522
	c-0.155,1.48-0.47,2.925-1.064,4.294c-0.134,0.311-0.308,0.57-0.614,0.804c-0.883,0.675-1.879,1.207-2.64,2.046
	c-0.959,1.058-1.189,2.353-0.469,3.591c0.941,1.619,2.29,2.891,3.769,4.015c0.604,0.46,1.115,0.992,1.534,1.621
	c0.742,1.111,1.308,2.319,1.961,3.479c0.742,1.326,0.994,2.734,1.014,4.22c0.01,0.688-0.066,1.359-0.156,2.037
	c-0.125,0.952,0.236,1.465,1.182,1.534c0.72,0.049,1.453,0.079,2.18-0.006c0.766-0.09,1.208-0.517,1.342-1.264
	c0.074-0.409,0.162-0.821,0.174-1.231c0.033-1.154,0.16-2.284,0.428-3.41c0.242-1.026,0.553-2.071,0.14-3.137
	c-0.034-0.084,0.011-0.196,0.017-0.298c0.076-1.227,0.308-2.474,0.189-3.682c-0.203-2.071-0.087-4.149-0.349-6.218
	c-0.229-1.831-0.331-3.676-0.668-5.496c-0.296-1.606-0.444-3.234-0.505-4.863c-0.106-2.813,0.026-5.627,0.311-8.423
	c0.502-4.936,0.922-9.874,1.178-14.827c0.107-2.106,0.299-4.215,0.707-6.295c0.131-0.668,0.145-0.686,0.844-0.677
	c0.565,0.009,1.133,0.004,1.697,0.003c0.873-0.003,1.527-0.377,1.99-1.12c0.509-0.819,0.98-1.672,1.625-2.392
	c1.611-1.805,2.206-3.981,2.441-6.316c0.137-1.384,0.014-2.758,0-4.137c-0.027-2.607,0.443-5.178,0.883-7.728
	c0.351-2.018,0.559-4.013,0.504-6.048c-0.005-0.2-0.006-0.403,0.025-0.598c0.32-1.938,0.676-3.869,0.912-5.817
	c0.175-1.438,0.388-2.876,0.167-4.326c-0.28-1.84-0.233-3.685-0.075-5.525c0.129-1.466,0.137-2.92-0.006-4.382
	c-0.106-1.107-0.297-2.206-0.168-3.334c0.111-0.946,0.117-1.898-0.395-2.771c-0.133-0.229-0.055-0.453,0.141-0.63
	c0.363-0.329,0.415-0.737,0.31-1.189c-0.058-0.243-0.127-0.485-0.16-0.731c-0.078-0.573-0.37-1.103-0.3-1.709
	c0.128-1.111,0.754-1.95,1.484-2.711c1.623-1.689,2.86-3.624,3.823-5.747c0.38-0.836,0.827-1.629,1.318-2.408
	c0.985-1.562,1.999-3.105,2.995-4.659c1.575-2.456,2.561-5.193,3.582-7.901c0.753-1.99,1.432-4.014,1.871-6.106
	c0.301-1.421,0.576-2.838,0.379-4.299c-0.084-0.618,0.018-1.179,0.395-1.696c0.254-0.349,0.45-0.739,0.663-1.116
	c0.948-1.677,1.956-3.293,3.619-4.386c1.116-0.733,2.269-1.396,3.478-1.962c1.854-0.867,3.736-1.677,5.498-2.732
	c2.646-1.585,5.042-3.54,7.654-5.174c1.921-1.202,3.836-2.404,6.03-3.082c1.348-0.416,2.658-0.963,3.5-2.178
	c0.897-1.291,1.952-2.414,3.085-3.508c2.574-2.484,4.818-5.293,7.463-7.715c2.085-1.91,3.916-4.086,6.09-5.912
	c0.494-0.414,1.002-0.644,1.63-0.594c0.474,0.038,0.933-0.021,1.38-0.157c0.502-0.151,0.98-0.217,1.506-0.042
	c0.367,0.124,0.783,0.129,1.186,0.125c1.281-0.012,2.564,0.002,3.846-0.009c0.426-0.003,0.823,0.064,1.221,0.208
	c0.834,0.303,1.697,0.353,2.561,0.186c0.641-0.122,0.811-0.664,0.378-1.149c-0.325-0.367-0.708-0.646-1.218-0.72
	c-0.528-0.08-1.053-0.18-1.574-0.286c-0.486-0.096-0.988-0.145-1.543-0.429c0.536,0.005,0.947-0.038,1.361-0.088
	c1.924-0.234,3.832-0.298,5.689,0.458c0.755,0.308,1.582,0.378,2.409,0.326c0.548-0.035,0.994-0.209,1.274-0.728
	C215.237,19.079,215.217,18.863,214.77,18.826z"/>
</svg>
