<?xml version="1.0" encoding="utf-8"?>
<!-- Generator: Adobe Illustrator 16.0.0, SVG Export Plug-In . SVG Version: 6.00 Build 0)  -->
<!DOCTYPE svg PUBLIC "-//W3C//DTD SVG 1.1//EN" "http://www.w3.org/Graphics/SVG/1.1/DTD/svg11.dtd">
<svg version="1.1" id="Layer_1" xmlns="http://www.w3.org/2000/svg" xmlns:xlink="http://www.w3.org/1999/xlink" x="0px" y="0px"
	 width="226.77px" height="226.77px" viewBox="0 0 226.77 226.77" enable-background="new 0 0 226.77 226.77" xml:space="preserve">
<path fill-rule="evenodd" clip-rule="evenodd" d="M190.955,58.539c-3.275,0.518-7.464,3.719-9.19,5.863l-1.612,1.615
	c-1.362,1.68-2.806,3.32-5.01,4.151c-3.145,1.183-6.719,2.211-10.19,2.917c-2.247,0.273-4.506,0.55-6.758,0.826
	c-1.342,0.168-2.673,0.338-4.015,0.51c-2.638,0.57-5.285,1.145-7.922,1.715c-1.991,0.757-3.979,1.507-5.971,2.264
	c-1.063,0.227-2.129,0.455-3.186,0.688c-0.487,0.124-0.975,0.245-1.458,0.365c-0.91,0.746-1.934,1.342-2.998,1.876
	c-2.908-0.804-4.991-1.321-4.991-1.321s-8.718,3.038-16.765,4.439c-5.695,0.986-10.924,0.249-13.078,1.057
	c-3.777,1.416-5.756,2.465-6.564,2.933c-0.684,0.004-1.367,0.007-2.048,0.012c-0.151-0.01-0.301-0.03-0.452-0.042
	c-0.578-0.464-1.154-0.925-1.731-1.393c-0.028-1.535-0.29-4.151,0.029-5.562c0.404-1.451,0.803-2.903,1.204-4.354
	c0.341-1.334,0.649-2.517,1.098-3.675c0.116-0.352,0.224-0.704,0.34-1.059c1.109-1.042,2.222-2.084,3.33-3.119
	c0.467-0.46,0.938-0.92,1.405-1.373c2.268-1.992,4.527-3.985,6.793-5.973c0.869-0.879,1.74-1.76,2.609-2.639
	c1.624-1.591,3.243-3.182,4.87-4.771c0.8-0.791,1.602-1.579,2.397-2.367c1.763-1.109,3.525-2.215,5.287-3.327
	c0.9-0.832,1.806-1.672,2.706-2.503c1.66-1.344,3.229-2.856,4.736-4.358c0.699-0.695,1.375-1.368,2.101-2.012
	c1.326-0.99,2.646-1.996,3.989-2.998c1.947,0.309,3.895,0.613,5.846,0.928c1.094,0.336,2.2,1.518,3.208,1.515
	c0.174-0.014,0.043,0.011,0.204-0.049c0.222-0.15,0.276-0.314,0.248-0.533c0.057-1.319-2.299-1.825-3.348-2.388
	c0.77-0.615,1.704-1.186,2.382-1.704c1.384,0.717,5.858,1.509,6.646,0.476c-0.024-0.099-0.043-0.201-0.069-0.299
	c-1.113-0.319-2.279-0.065-3.493-0.655l0.04-0.061c0.709-0.213,1.428-0.425,2.142-0.642c0.442-0.273,0.682-0.917,0.458-1.271
	c-3.521,0.28-7.021,0.626-10.501,1.075c-1.632,0.213-3.427,0.021-4.973,0.586c-1.52,0.549-2.905,1.449-4.308,2.325
	c0-0.001-0.003-0.001-0.01-0.001c-0.029,0.02-0.049,0.037-0.076,0.053c-0.217,0.133-0.427,0.271-0.646,0.402
	c0.012,0.017,0.017,0.033,0.03,0.049c-1.339,0.967-2.685,1.936-4.022,2.907c-2.639,1.587-5.28,3.178-7.92,4.769
	c-1.068,0.604-2.127,1.209-3.193,1.815c-1.063,1.227-2.129,2.448-3.188,3.67c-2.688,2.2-5.3,4.559-8.13,6.587l-3.021,2.231
	c-0.769,0.353-1.53,0.711-2.297,1.063c-1.662,0.732-3.401,1.607-4.942,2.504c-1.007,0.524-2.016,1.05-3.018,1.576
	c-0.628,0.562-1.26,1.125-1.887,1.685c-0.411,0.353-0.825,0.706-1.237,1.064c-0.067-0.072-0.136-0.14-0.204-0.208
	c-0.662-0.315-1.368-1.182-1.747-1.817c0.218-0.348,0.436-0.69,0.65-1.03c0.422-0.128,0.841-0.253,1.268-0.379
	c0.757-0.375,1.509-0.758,2.267-1.131c0.696-0.43,1.337-1.066,2.159-1.373c0.553-0.205,2.25,0.11,2.608-0.205
	c1.026-0.88,2.336-3.368,2.743-4.875c-0.012-0.543-0.022-1.094-0.034-1.643c-0.399-0.38-0.801-0.756-1.199-1.132
	c-0.336-0.473-0.279-1.039-0.481-1.678c-0.253-0.702-0.502-1.396-0.753-2.097c-0.229-0.32-0.459-0.639-0.688-0.961
	c-1.289-1.823-2.666-3.135-4.734-4.185c-0.379-0.193-0.755-0.389-1.131-0.583c-0.146-0.012-0.289-0.028-0.435-0.045
	c-2.377-1.089-4.665-0.937-5.9-0.714c-0.998,0.152-2.103,0.492-2.582,1.253c-0.148,0.127-0.288,0.264-0.388,0.422
	c-0.266,0.384-0.461,0.799-0.57,1.21c-0.069,0.254-0.106,0.556-0.101,0.818c0.003,0.116,0.063,0.27,0.042,0.383
	c-0.027,0.125-0.227,0.246-0.328,0.368c-0.142,0.178-0.413,0.623-0.571,0.729c-0.015-0.003-0.031-0.006-0.046-0.011
	c-0.127-0.063-0.379-0.231-0.452-0.392c-0.035-0.087-0.028-0.261-0.124-0.308c-0.12,0.09-0.085,0.539-0.019,0.671
	c0.066,0.128,0.175,0.233,0.281,0.333c0,0.012-0.002,0.025-0.002,0.038c-0.21,0.077-0.458,0.072-0.675,0.097
	c-0.192,0.022-0.362,0.089-0.548,0.1c-0.293,0.021-0.589,0.034-0.881,0.063c-0.161,0.013-0.686-0.029-0.806,0.19
	c-0.093,0.163-0.13,0.371-0.112,0.541c0.04,0.376,0.366,0.442,0.1,0.834c-0.179,0.264-0.471,0.02-0.666,0.083
	c-0.109,0.041-0.218,0.186-0.255,0.264c-0.183,0.365,0.049,0.715,0.326,1.111l-0.02,0.017c-0.009,0.003-0.012,0.003-0.021,0.003
	c-0.103-0.069-0.218-0.108-0.321-0.13c-0.098-0.023-0.173-0.036-0.261-0.036c-0.147-0.006-0.3,0.204-0.336,0.317
	c-0.108,0.377,0.316,0.611,0.055,1.056c-0.134,0.239-0.479,0.307-0.675,0.416c-0.091,0.058-0.302,0.301-0.401,0.456
	c-0.002,0.015-0.007,0.015-0.014,0.021c-0.02,0.038-0.039,0.074-0.048,0.09c0,0.002,0.002,0.003,0.002,0.01
	c-0.049,0.124-0.07,0.313,0,0.549c0.068,0.318,0.31,0.674,0.662,0.953c0.396,0.314,0.77,0.648,1.163,0.955
	c0.009,0.023,0.017,0.048,0.043,0.068c0.171,0.123,0.623,0.504,0.99,0.813c0.028,0.003,0.054,0.021,0.077,0.026
	c0.516,0.529,2.277,2.467,2.311,4.01c-0.073,0.481-0.154,0.961-0.228,1.437c-0.365,1.881-0.471,3.865-1.272,5.355
	c-0.056,0.019-0.112,0.044-0.167,0.07c-0.764-0.256-2.16-2.577-3.015-4.01l0.021-0.001c-0.951-1.389-3.683-6.186-3.965-6.679
	c-0.504-1.424-1.015-2.848-1.52-4.269l-1.167-5.11c-0.488-1.396-0.983-2.795-1.475-4.188l-1.886-2.673
	c-0.48-1.054-0.965-2.106-1.442-3.159l-2.987-5.969c-1.267-2.309-2.792-3.918-2.792-3.918c-0.913-0.704-1.826-1.415-2.729-2.155
	c-1.275-0.567-2.544-1.146-3.817-1.714c-0.735-0.37-1.397-1.033-2.102-1.4c-1.597,0.62-3.891-0.441-4.288-1.016
	s-0.699-0.366-0.235,0.309s0.367,0.55,0.544,0.785v0.078c-0.774-0.185-1.694-0.389-2.333-0.544s-0.863,0.186,0,0.544
	s1.388,0.491,2.178,0.854c-0.051,0.022-0.104,0.056-0.153,0.082c-0.553,0.39-1.36,0.484-2.341,0.466
	c-0.463-0.054-0.416,0.431,0.156,0.618c1.404,0.757,3.761-1.047,4.908-0.385c0.575,0.338,0.926,0.508,1.715,1.017s0,0.384,0,0.384
	c-1.322-0.042-2.737-0.333-3.347,0.469c-0.239,0.422,0.064,0.406,0.23,0.543c0.887,0.209,1.897-0.09,2.966,0.156
	c0.675,0.237,1.35,0.47,2.02,0.704c0.548-0.052,1.096-0.104,1.645-0.153c0.908,0.184,1.67,1.037,2.354,1.949
	c-0.002,0.021-0.002,0.043-0.005,0.063c0.015,0,0.029,0,0.046,0.003c0.528,1.118,1.052,2.243,1.58,3.357
	c0.576,2.32,1.164,4.643,1.744,6.966c1.237,4.007,2.698,7.69,4.154,11.424c1.368,4.024,2.745,8.052,4.117,12.074
	c0.42,0.813,0.845,1.623,1.271,2.437l1.576,3.227c0.866,1.697,1.81,3.472,2.538,5.281c0.599,1.489-0.192,3.82-0.448,5.111
	c-0.029,0.64-0.064,1.275-0.1,1.921c-0.255,1.589-0.087,3.079,0.204,4.458c0.07,0.461,0.137,0.917,0.206,1.375l1.065,2.434
	c0.799,0.867,1.602,1.737,2.403,2.607c1.267,1.715,2.534,3.432,3.805,5.147c1.384,1.429,2.768,2.857,4.152,4.287
	c0.682,0.845,1.503,1.677,2.348,2.442c0.191,0.363,0.651,1.316,1.112,2.789c0.241,1.83,0.603,3.541,1.011,5.2
	c0.334,3.712,0.009,8.527-2.13,14.179c-5.112,13.513,1.712,28.905,1.712,28.905l15.35,2.946l1.77-6.491
	c0.397,1.5,0.797,3.003,1.192,4.505l-1.027,9.434c-0.105,1.222-0.206,2.448-0.312,3.673c-0.527,3.105-0.585,6.173-1.165,9.122
	c-0.14,1.054-0.275,2.107-0.408,3.156c-0.792,2.941-1.58,5.88-2.373,8.818c-0.245,1.188-0.103,2.409-0.103,3.702l0.04,1.958
	c0.617,2.949,1.511,6.15,2.844,8.438c0.253,0.499,0.41,1.063,0.758,1.513c0.291,0.376,1.111,0.972,1.578,1.062
	c0.481,0.093,1.037-0.027,1.437-0.31c0.198-0.141,0.259-0.409,0.38-0.618c1.333-2.023,0.27-5.497-0.103-7.959
	c0.056-0.351,0.112-0.706,0.167-1.063c0.26-1.244,0.368-2.085,0.966-2.917c0.476-0.401,0.96-0.8,1.436-1.201
	c0.451-0.358,1.985-2.705,1.751-3.635c-0.113-0.161-0.224-0.326-0.342-0.479c-0.832-1.329-3.225-2.317-2.675-4.911
	c0.48-1.473,0.957-2.945,1.437-4.422c1.832-5.184,3.999-10.103,5.149-15.811c-0.005-0.511-0.016-1.02-0.021-1.531
	c0.647-0.812,1.776-1.847,3.768-2.916c0.215-0.116,0.413-0.183,0.621-0.281c0.066,0.068,0.118,0.153,0.187,0.22
	c-0.021-0.088-0.046-0.185-0.068-0.274c3.938-1.8,6.704-0.654,6.704-0.654l-5.076-11.585l8.043,12.063c0,0-0.771-2.237,5.248-10.233
	c6.021-8.005,8.014-5.538,8.014-5.538l-10.163-11.831l10.813,9.324c0,0-4.017-4.254-1.886-11.936
	c2.133-7.682,6.213-8.331,6.213-8.331l-10.808-9.491l11.45,7.152c0,0-1.795-2.964-1.332-8.865c0.461-5.899,4.096-8.259,4.096-8.259
	l-12.387-2.294l13.188,0.303c0,0,0.733-2.962,3.08-5.438c1.839-1.943,5.477-3.306,5.155-4.662c-0.103-0.433-0.647-0.923-1.489-1.432
	c0.688-0.192,1.373-0.383,2.067-0.561c1.442-0.365,2.868-0.564,4.152-1.096c1.021-0.531,2.037-1.056,3.055-1.579
	c2.833-1.446,5.585-2.849,8.235-4.495c1.542-0.972,3.088-1.945,4.629-2.914c3.173-1.371,7.369-1.691,10.534-3.092
	c1.183-0.522,2.039-1.411,2.985-2.158c1.208-0.995,2.424-1.987,3.633-2.986c0.666-0.443,1.328-0.892,1.991-1.333
	c0.274-0.415,0.549-0.824,0.823-1.238c0.895-1.272,2.202-2.632,2.368-4.564C192.77,59.948,192.196,59.162,190.955,58.539z"/>
</svg>
