<?xml version="1.0" encoding="utf-8"?>
<!-- Generator: Adobe Illustrator 16.0.0, SVG Export Plug-In . SVG Version: 6.00 Build 0)  -->
<!DOCTYPE svg PUBLIC "-//W3C//DTD SVG 1.1//EN" "http://www.w3.org/Graphics/SVG/1.1/DTD/svg11.dtd">
<svg version="1.1" id="Layer_1" xmlns="http://www.w3.org/2000/svg" xmlns:xlink="http://www.w3.org/1999/xlink" x="0px" y="0px"
	 width="226.77px" height="226.77px" viewBox="0 0 226.77 226.77" enable-background="new 0 0 226.77 226.77" xml:space="preserve">
<path fill-rule="evenodd" clip-rule="evenodd" d="M155.677,125.555c-0.81-0.852-1.62-1.7-2.429-2.553
	c-0.932-1.084-1.857-2.172-2.787-3.258c-2.053-1.145-4.111-2.294-6.164-3.439c-2.176-1.521-4.348-3.043-6.521-4.562
	c-0.803-0.471-1.84-0.514-2.729-0.953c-0.65-0.412-1.302-0.827-1.953-1.243l-2.018-1.008c-0.563-0.427-0.636-1.383-1.068-1.957
	c-0.623-0.827-1.836-0.516-2.134-1.778c-0.31-1.309,0.263-3.306,0.476-4.446c0.734-3.965,1.662-7.205,2.368-10.908
	c0.425-2.19-0.666-6.997-1.242-8.478c-0.378-0.889-0.752-1.778-1.126-2.665c0.555-2.732,2.046-4.631,3.023-6.879
	c2.248-5.169,4.327-10.238,6.109-15.827c0.392-0.97,0.785-1.936,1.183-2.905c0.019-0.533,0.04-1.069,0.06-1.604
	c0.48-2.763-0.041-7.274-0.478-9.901c-0.237-2.448-0.472-4.901-0.709-7.35c-0.04-1.127-0.082-2.25-0.12-3.376
	c-0.693-2.436-2.705-5.098-4.564-6.462c-0.729-0.418-1.597-0.653-2.195-1.247c-0.23-0.229-0.65-1.126-0.65-1.126
	c-0.523-0.701-1.408-1.458-2.192-1.897c-0.409-0.228-0.435,0.193-0.415,0.355c0.169,0.86,0.871,1.516,1.246,2.254
	c-0.475-0.156-0.891-0.431-1.422-0.357c0,0-0.497,0.001-0.119,0.535c0.378,0.533,1.827,0.761,2.37,1.483
	c0.816,1.086,0.494,2.423,0.295,3.496c-0.694-0.162-0.903-0.653-1.421-0.947c0,0-0.015-0.071-1.244-0.299s-0.357,0.951-0.357,0.951
	s0.502,0.36,0.828,0.592c0.418,0.494,0.83,0.991,1.246,1.481c0.613,0.398,1.223,0.793,1.836,1.189
	c1.099,0.616,2.082,0.208,2.555,1.48c0.92,2.495,0.117,9.89-0.359,12.39c-0.371,1.967-0.322,3.937-0.652,6.047
	c-0.039,1.065-0.076,2.135-0.115,3.202c-0.458,1.809-1.648,2.947-2.315,4.505c-0.829,2.153-1.66,4.309-2.487,6.463
	c-0.761,1.132-2.016,1.854-2.846,2.904c-1.086,1.371-2.404,2.847-3.139,4.505c-0.065,0.041-0.125,0.082-0.182,0.12
	c-1.624-1.284-1.381-3.184-1.008-5.514c0.037-0.65,0.076-1.304,0.115-1.957c0.396-0.902,1.025-0.944,1.126-2.49
	c0.261-0.061,0.519-0.118,0.771-0.177c0.015-0.042,0.024-0.088,0.036-0.131l0.188-0.201c0.003-0.003,0.013,0,0.018-0.006
	c0.003-0.006,0.006-0.019,0.009-0.025l0.048-0.047l-0.02-0.013c0.211-0.392,0.314-1.345,0.359-2.047c0.047-0.743,0.25-1.689,0-2.234
	c-0.143-0.316-0.477-0.25-0.742-0.139c-0.003-0.024-0.01-0.051-0.013-0.077c0.021-1.639,0.04-3.282,0.058-4.921
	c-0.635-2.223-3.029-3.778-5.158-4.504c-0.898-0.308-2.528-0.374-3.615-0.059c-0.512,0.295-1.028,0.59-1.536,0.889
	c-0.44,0.077-0.874,0.157-1.309,0.236c-1.898,1.055-2.998,5.6-2.133,8.298v0.178l-0.653,0.061c-0.758,1.964-0.047,5.161,2.136,4.326
	c1.34,4.8,2.82,7.18-1.841,9.901c-1.44-1.772-3.539-3.694-4.384-5.988c-0.333-2.607-0.673-5.216-1.009-7.825
	c-0.564-2.708-1.507-4.884-2.017-7.767c-0.411-2.344,0.22-4.827,0.535-6.641c0.118-1.421,0.238-2.845,0.358-4.266
	c0.393-3.576,0.791-7.155,1.187-10.731c0.444-1.264,2.291-1.124,3.554-1.601c1.049-0.396,1.747-1.332,2.843-1.719
	c1.229-0.431,4.131-0.952,3.023-1.542c-1.108-0.59-2.337-0.497-3.317,0c0.183-1.369,2.004-2.485,3.202-2.784
	c1.64-0.416,5.377,1.239,4.922-0.357c-0.092-0.321-0.356-0.466-0.771-0.358c0,0,0.549-0.594,0-0.77c-0.55-0.175-3.855-0.14-5.514,0
	c0.683-0.888,3.043-2.307,3.139-3.438l-0.237-0.238c-0.431-0.393-4.059,2.642-4.623,3.082c-1.485,1.105-2.963,2.215-4.443,3.321
	c-1.387,0.971-3.14,1.703-4.035,3.143c-1.091,1.761-1.225,4.347-1.954,6.459c-1.451,4.197-2.401,8.096-3.259,13.104
	c-0.467,2.699-0.093,5.817,0.294,8.182c0.076,1.265,0.157,2.527,0.236,3.793c0.605,3.261,0.663,6.889,1.304,10.019
	c0.497,2.404,0.258,6.838,1.186,8.773c0.55,1.139,1.677,1.996,2.193,3.083c0.672,1.937,1.345,3.874,2.016,5.808
	c1.247,3.122,2.504,6.021,3.676,9.311c0.603,1.685,1.77,5.994,0.831,8.062c-0.164-0.009-0.307-0.093-0.451-0.194
	c-0.084,0.135-0.227,0.244-0.439,0.285c-0.392,0.072-0.779,0.106-1.17,0.139c-0.408,0.327-0.939,0.547-1.614,0.547h-9.129
	c-0.319,0.147-0.723,0.266-1.305,0.348c-1.798-0.333-3.597-0.672-5.396-1.008c-2.976-0.464-6.407-0.462-9.068,0.18
	c-0.474,0.217-0.951,0.434-1.422,0.65c-1.617,0.367-3.877,0.015-4.804,1.069c0.045,0.537,0.126,0.656,0.12,1.242l-0.889,0.062
	l-0.177,0.294c-0.186,0.359,0.203,0.538,0.293,0.892c-0.021,0.81-0.038,1.622-0.058,2.429c0.631,0.661,2.098,0.701,3.259,0.356
	c0.263,0.577,0.343,1.472,0.534,1.954c0.422,0.253,1.22,0.229,1.659,0.478c0.216,0.124,0.283,0.271,0.357,0.533
	c-0.845,1.313,0.233,3.283,0.653,4.624c0.718,0.569,0.773,0.936,1.896,0.534c0.752,0.907,3.521,2.747,5.272,2.547
	c0.615-0.178,1.229-0.354,1.84-0.534c1.203,1.007,1.295,3.261,2.193,4.566c0.722,1.049,2.102,1.721,2.611,2.964
	c0.667,0.106,0.951-0.292,1.304-0.235l0.831,0.532c0.591-0.455,1.184-0.907,1.777-1.364c0.473,0.163,1.072,0.628,1.659,0.536
	l0.773-0.296c0.767,0.155,1.542,0.314,2.311,0.471c0.631,2.035,1.264,4.073,1.896,6.108c1.412,4.006,2.724,7.733,3.854,12.15
	c0.612,2.55,1.226,5.1,1.839,7.65c-0.239,4.7-2.048,8.27-3.142,12.27c-0.137,1.285-0.278,2.57-0.417,3.856
	c-0.344,2.112,0.801,3.76,1.128,5.452c0.077,1.147,0.16,2.295,0.238,3.438c0.66,3.961,0.652,9.199-0.238,12.807
	c-0.353,1.423-2.061,1.488-2.789,2.488c-0.414,0.574-0.484,1.235-0.71,2.018c1.697,1.415,4.961,4.544,5.575,6.88
	c0.499,1.906-0.682,7.468,0.355,8.537c0.301,0.346,0.989,0.426,1.483,0.411c2.661-0.065,2.734-2.925,3.318-5.036
	c0.188-0.686,0.597-1.741,0.475-2.611l-0.177-2.018c0.337-2.12,0.271-4.139-0.057-6.285c-0.042-1.835-0.084-3.675-0.122-5.512
	c-0.363-2.293-0.217-7.239,0.592-8.832v-0.12h0.058c0.611,2.309,1.686,4.409,2.373,6.581c0.766,2.422,1.006,5.426,1.6,7.943
	c0.318,1.345-0.232,2.72-0.414,3.854c-0.4,2.488-0.001,6.163,0.476,8.48c0.485,2.365,0.522,4.621,3.437,4.687
	c0.474,0.017,0.949,0.039,1.421,0.059c2.897-1.074,2.378-9.21,1.782-12.749c-0.021-0.949-0.041-1.896-0.059-2.843
	c-0.764-3.239-2.4-6.411-3.145-9.785c-0.039-0.771-0.076-1.544-0.119-2.313c-0.573-3.465-0.014-7.654-0.594-11.204
	c-0.039-1.7-0.078-3.399-0.115-5.096c-0.592-2.177-1.188-4.35-1.779-6.524c0.018-1.282,0.039-2.568,0.056-3.854l-0.119-3.201
	c0.379-1.088,0.754-2.173,1.13-3.262c0.352-1.333,0.359-2.545,0.828-3.674c0.637-1.126,1.266-2.251,1.897-3.377
	c1.274-2.946,2.123-6.035,3.145-9.249c0.679-2.152,1.622-4.728,1.839-7.233c1.035,0.236,2.359-0.134,3.494,0.059l1.129,0.177
	l0.949-0.235c0.275,0.137,0.553,0.275,0.831,0.416l1.006,0.058c0.446,0.244,1.468,2.459,1.721,3.023
	c1.106,0.707,3.173-1.039,4.563-0.534c2.358,0.856,3.42,4.083,6.107,4.802c0.326-0.734,0.998-0.944,1.184-1.896
	c0.414-0.039,0.83-0.078,1.248-0.118c0.195-0.555,0.393-1.105,0.587-1.66c1.032,0.558,2.044,0.317,2.908,0.77
	c0.326-0.521,0.501-1.116,0.472-2.015l1.188-0.595c0.432-0.883,0.051-1.529-0.299-2.132
	C154.588,126.433,155.197,126.146,155.677,125.555z"/>
</svg>
