  0
SECTION
  2
HEADER
  9
$ACADVER
  1
AC1021
  9
$ACADMAINTVER
 70
    25
  9
$DWGCODEPAGE
  3
ANSI_1252
  9
$INSBASE
 10
0.0
 20
0.0
 30
0.0
  9
$EXTMIN
 10
1.000000000000000E+20
 20
1.000000000000000E+20
 30
1.000000000000000E+20
  9
$EXTMAX
 10
-1.000000000000000E+20
 20
-1.000000000000000E+20
 30
-1.000000000000000E+20
  9
$LIMMIN
 10
0.0
 20
0.0
  9
$LIMMAX
 10
12.0
 20
9.0
  9
$ORTHOMODE
 70
     0
  9
$REGENMODE
 70
     1
  9
$FILLMODE
 70
     1
  9
$QTEXTMODE
 70
     0
  9
$MIRRTEXT
 70
     1
  9
$LTSCALE
 40
1.0
  9
$ATTMODE
 70
     1
  9
$TEXTSIZE
 40
0.2
  9
$TRACEWID
 40
0.05
  9
$TEXTSTYLE
  7
Standard
  9
$CLAYER
  8
0
  9
$CELTYPE
  6
ByLayer
  9
$CECOLOR
 62
   256
  9
$CELTSCALE
 40
1.0
  9
$DISPSILH
 70
     0
  9
$DIMSCALE
 40
1.0
  9
$DIMASZ
 40
0.18
  9
$DIMEXO
 40
0.0625
  9
$DIMDLI
 40
0.38
  9
$DIMRND
 40
0.0
  9
$DIMDLE
 40
0.0
  9
$DIMEXE
 40
0.18
  9
$DIMTP
 40
0.0
  9
$DIMTM
 40
0.0
  9
$DIMTXT
 40
0.18
  9
$DIMCEN
 40
0.09
  9
$DIMTSZ
 40
0.0
  9
$DIMTOL
 70
     0
  9
$DIMLIM
 70
     0
  9
$DIMTIH
 70
     1
  9
$DIMTOH
 70
     1
  9
$DIMSE1
 70
     0
  9
$DIMSE2
 70
     0
  9
$DIMTAD
 70
     0
  9
$DIMZIN
 70
     0
  9
$DIMBLK
  1

  9
$DIMASO
 70
     1
  9
$DIMSHO
 70
     1
  9
$DIMPOST
  1

  9
$DIMAPOST
  1

  9
$DIMALT
 70
     0
  9
$DIMALTD
 70
     2
  9
$DIMALTF
 40
25.4
  9
$DIMLFAC
 40
1.0
  9
$DIMTOFL
 70
     0
  9
$DIMTVP
 40
0.0
  9
$DIMTIX
 70
     0
  9
$DIMSOXD
 70
     0
  9
$DIMSAH
 70
     0
  9
$DIMBLK1
  1

  9
$DIMBLK2
  1

  9
$DIMSTYLE
  2
Standard
  9
$DIMCLRD
 70
     0
  9
$DIMCLRE
 70
     0
  9
$DIMCLRT
 70
     0
  9
$DIMTFAC
 40
1.0
  9
$DIMGAP
 40
0.09
  9
$DIMJUST
 70
     0
  9
$DIMSD1
 70
     0
  9
$DIMSD2
 70
     0
  9
$DIMTOLJ
 70
     1
  9
$DIMTZIN
 70
     0
  9
$DIMALTZ
 70
     0
  9
$DIMALTTZ
 70
     0
  9
$DIMUPT
 70
     0
  9
$DIMDEC
 70
     4
  9
$DIMTDEC
 70
     4
  9
$DIMALTU
 70
     2
  9
$DIMALTTD
 70
     2
  9
$DIMTXSTY
  7
Standard
  9
$DIMAUNIT
 70
     0
  9
$DIMADEC
 70
     0
  9
$DIMALTRND
 40
0.0
  9
$DIMAZIN
 70
     0
  9
$DIMDSEP
 70
    46
  9
$DIMATFIT
 70
     3
  9
$DIMFRAC
 70
     0
  9
$DIMLDRBLK
  1

  9
$DIMLUNIT
 70
     2
  9
$DIMLWD
 70
    -2
  9
$DIMLWE
 70
    -2
  9
$DIMTMOVE
 70
     0
  9
$DIMFXL
 40
1.0
  9
$DIMFXLON
 70
     0
  9
$DIMJOGANG
 40
0.7853981633974483
  9
$DIMTFILL
 70
     0
  9
$DIMTFILLCLR
 70
     0
  9
$DIMARCSYM
 70
     0
  9
$DIMLTYPE
  6

  9
$DIMLTEX1
  6

  9
$DIMLTEX2
  6

  9
$LUNITS
 70
     2
  9
$LUPREC
 70
     4
  9
$SKETCHINC
 40
0.1
  9
$FILLETRAD
 40
0.5
  9
$AUNITS
 70
     0
  9
$AUPREC
 70
     0
  9
$MENU
  1
.
  9
$ELEVATION
 40
0.0
  9
$PELEVATION
 40
0.0
  9
$THICKNESS
 40
0.0
  9
$LIMCHECK
 70
     0
  9
$CHAMFERA
 40
0.5
  9
$CHAMFERB
 40
0.5
  9
$CHAMFERC
 40
1.0
  9
$CHAMFERD
 40
0.0
  9
$SKPOLY
 70
     0
  9
$TDCREATE
 40
2458551.625928021
  9
$TDUCREATE
 40
2458551.334261354
  9
$TDUPDATE
 40
2458551.625928021
  9
$TDUUPDATE
 40
2458551.334261354
  9
$TDINDWG
 40
0.0000000116
  9
$TDUSRTIMER
 40
0.0000000116
  9
$USRTIMER
 70
     1
  9
$ANGBASE
 50
0.0
  9
$ANGDIR
 70
     0
  9
$PDMODE
 70
     0
  9
$PDSIZE
 40
0.0
  9
$PLINEWID
 40
0.0
  9
$SPLFRAME
 70
     0
  9
$SPLINETYPE
 70
     6
  9
$SPLINESEGS
 70
     8
  9
$HANDSEED
  5
65
  9
$SURFTAB1
 70
     6
  9
$SURFTAB2
 70
     6
  9
$SURFTYPE
 70
     6
  9
$SURFU
 70
     6
  9
$SURFV
 70
     6
  9
$UCSBASE
  2

  9
$UCSNAME
  2

  9
$UCSORG
 10
0.0
 20
0.0
 30
0.0
  9
$UCSXDIR
 10
1.0
 20
0.0
 30
0.0
  9
$UCSYDIR
 10
0.0
 20
1.0
 30
0.0
  9
$UCSORTHOREF
  2

  9
$UCSORTHOVIEW
 70
     0
  9
$UCSORGTOP
 10
0.0
 20
0.0
 30
0.0
  9
$UCSORGBOTTOM
 10
0.0
 20
0.0
 30
0.0
  9
$UCSORGLEFT
 10
0.0
 20
0.0
 30
0.0
  9
$UCSORGRIGHT
 10
0.0
 20
0.0
 30
0.0
  9
$UCSORGFRONT
 10
0.0
 20
0.0
 30
0.0
  9
$UCSORGBACK
 10
0.0
 20
0.0
 30
0.0
  9
$PUCSBASE
  2

  9
$PUCSNAME
  2

  9
$PUCSORG
 10
0.0
 20
0.0
 30
0.0
  9
$PUCSXDIR
 10
1.0
 20
0.0
 30
0.0
  9
$PUCSYDIR
 10
0.0
 20
1.0
 30
0.0
  9
$PUCSORTHOREF
  2

  9
$PUCSORTHOVIEW
 70
     0
  9
$PUCSORGTOP
 10
0.0
 20
0.0
 30
0.0
  9
$PUCSORGBOTTOM
 10
0.0
 20
0.0
 30
0.0
  9
$PUCSORGLEFT
 10
0.0
 20
0.0
 30
0.0
  9
$PUCSORGRIGHT
 10
0.0
 20
0.0
 30
0.0
  9
$PUCSORGFRONT
 10
0.0
 20
0.0
 30
0.0
  9
$PUCSORGBACK
 10
0.0
 20
0.0
 30
0.0
  9
$USERI1
 70
     0
  9
$USERI2
 70
     0
  9
$USERI3
 70
     0
  9
$USERI4
 70
     0
  9
$USERI5
 70
     0
  9
$USERR1
 40
0.0
  9
$USERR2
 40
0.0
  9
$USERR3
 40
0.0
  9
$USERR4
 40
0.0
  9
$USERR5
 40
0.0
  9
$WORLDVIEW
 70
     1
  9
$SHADEDGE
 70
     3
  9
$SHADEDIF
 70
    70
  9
$TILEMODE
 70
     1
  9
$MAXACTVP
 70
    64
  9
$PINSBASE
 10
0.0
 20
0.0
 30
0.0
  9
$PLIMCHECK
 70
     0
  9
$PEXTMIN
 10
1.000000000000000E+20
 20
1.000000000000000E+20
 30
1.000000000000000E+20
  9
$PEXTMAX
 10
-1.000000000000000E+20
 20
-1.000000000000000E+20
 30
-1.000000000000000E+20
  9
$PLIMMIN
 10
0.0
 20
0.0
  9
$PLIMMAX
 10
12.0
 20
9.0
  9
$UNITMODE
 70
     0
  9
$VISRETAIN
 70
     1
  9
$PLINEGEN
 70
     0
  9
$PSLTSCALE
 70
     1
  9
$TREEDEPTH
 70
  3020
  9
$CMLSTYLE
  2
Standard
  9
$CMLJUST
 70
     0
  9
$CMLSCALE
 40
1.0
  9
$PROXYGRAPHICS
 70
     1
  9
$MEASUREMENT
 70
     0
  9
$CELWEIGHT
370
    -1
  9
$ENDCAPS
280
     0
  9
$JOINSTYLE
280
     0
  9
$LWDISPLAY
290
     1
  9
$INSUNITS
 70
     1
  9
$HYPERLINKBASE
  1

  9
$STYLESHEET
  1

  9
$XEDIT
290
     1
  9
$CEPSNTYPE
380
     0
  9
$PSTYLEMODE
290
     1
  9
$FINGERPRINTGUID
  2
{17E1E5AC-D576-4C59-AEA0-F0ECA219D9ED}
  9
$VERSIONGUID
  2
{FAEB1C32-E019-11D5-929B-00C0DF256EC4}
  9
$EXTNAMES
290
     1
  9
$PSVPSCALE
 40
0.0
  9
$OLESTARTUP
290
     0
  9
$SORTENTS
280
   127
  9
$INDEXCTL
280
     0
  9
$HIDETEXT
280
     1
  9
$XCLIPFRAME
290
     0
  9
$HALOGAP
280
     0
  9
$OBSCOLOR
 70
   257
  9
$OBSLTYPE
280
     0
  9
$INTERSECTIONDISPLAY
280
     0
  9
$INTERSECTIONCOLOR
 70
   257
  9
$DIMASSOC
280
     2
  9
$PROJECTNAME
  1

  9
$CAMERADISPLAY
290
     0
  9
$LENSLENGTH
 40
50.0
  9
$CAMERAHEIGHT
 40
0.0
  9
$STEPSPERSEC
 40
2.0
  9
$STEPSIZE
 40
6.0
  9
$3DDWFPREC
 40
2.0
  9
$PSOLWIDTH
 40
0.25
  9
$PSOLHEIGHT
 40
4.0
  9
$LOFTANG1
 40
1.570796326794897
  9
$LOFTANG2
 40
1.570796326794897
  9
$LOFTMAG1
 40
0.0
  9
$LOFTMAG2
 40
0.0
  9
$LOFTPARAM
 70
     7
  9
$LOFTNORMALS
280
     1
  9
$LATITUDE
 40
37.795
  9
$LONGITUDE
 40
-122.394
  9
$NORTHDIRECTION
 40
0.0
  9
$TIMEZONE
 70
 -8000
  9
$LIGHTGLYPHDISPLAY
280
     1
  9
$TILEMODELIGHTSYNCH
280
     1
  9
$CMATERIAL
347
3C
  9
$SOLIDHIST
280
     1
  9
$SHOWHIST
280
     1
  9
$DWFFRAME
280
     2
  9
$DGNFRAME
280
     2
  9
$REALWORLDSCALE
290
     1
  9
$INTERFERECOLOR
 62
   256
  9
$CSHADOW
280
     0
  9
$SHADOWPLANELOCATION
 40
0.0
  0
ENDSEC
  0
SECTION
  2
CLASSES
  0
CLASS
  1
ACDBDICTIONARYWDFLT
  2
AcDbDictionaryWithDefault
  3
ObjectDBX Classes
 90
        0
 91
        4
280
     0
281
     0
  0
CLASS
  1
VISUALSTYLE
  2
AcDbVisualStyle
  3
ObjectDBX Classes
 90
     4095
 91
        4
280
     0
281
     0
  0
CLASS
  1
MATERIAL
  2
AcDbMaterial
  3
ObjectDBX Classes
 90
     1153
 91
        4
280
     0
281
     0
  0
CLASS
  1
SUN
  2
AcDbSun
  3
SCENEOE
 90
     1024
 91
        4
280
     0
281
     0
  0
ENDSEC
  0
SECTION
  2
TABLES
  0
TABLE
  2
VPORT
  5
8
330
0
100
AcDbSymbolTable
 70
     1
  0
VPORT
  5
29
330
8
100
AcDbSymbolTableRecord
100
AcDbViewportTableRecord
  2
*Active
 70
     0
 10
0.0
 20
0.0
 11
1.0
 21
1.0
 12
0.0
 22
0.0
 13
0.0
 23
0.0
 14
0.5
 24
0.5
 15
0.5
 25
0.5
 16
0.0
 26
0.0
 36
1.0
 17
39.99961911841359
 27
-39.99962012888904
 37
0.0
 40
79.99924025777808
 41
0.9999999747378738
 42
50.0
 43
0.0
 44
0.0
 50
0.0
 51
0.0
 71
     0
 72
   100
 73
     1
 74
     3
 75
     0
 76
     0
 77
     0
 78
     0
281
     0
 65
     1
110
0.0
120
0.0
130
0.0
111
1.0
121
0.0
131
0.0
112
0.0
122
1.0
132
0.0
 79
     0
146
0.0
 60
     3
 61
     5
292
     1
282
     1
141
0.0
142
0.0
 63
   250
361
3F
  0
ENDTAB
  0
TABLE
  2
LTYPE
  5
5
330
0
100
AcDbSymbolTable
 70
     1
  0
LTYPE
  5
14
330
5
100
AcDbSymbolTableRecord
100
AcDbLinetypeTableRecord
  2
ByBlock
 70
     0
  3

 72
    65
 73
     0
 40
0.0
  0
LTYPE
  5
15
330
5
100
AcDbSymbolTableRecord
100
AcDbLinetypeTableRecord
  2
ByLayer
 70
     0
  3

 72
    65
 73
     0
 40
0.0
  0
LTYPE
  5
16
330
5
100
AcDbSymbolTableRecord
100
AcDbLinetypeTableRecord
  2
Continuous
 70
     0
  3
Solid line
 72
    65
 73
     0
 40
0.0
  0
ENDTAB
  0
TABLE
  2
LAYER
  5
2
330
0
100
AcDbSymbolTable
 70
     2
  0
LAYER
  5
10
330
2
100
AcDbSymbolTableRecord
100
AcDbLayerTableRecord
  2
0
 70
     0
 62
     7
  6
Continuous
370
    -3
390
F
347
3E
  0
LAYER
  5
40
330
2
100
AcDbSymbolTableRecord
100
AcDbLayerTableRecord
  2
Layer 1
 70
     0
 62
     7
  6
Continuous
370
    -3
390
F
347
3E
  0
ENDTAB
  0
TABLE
  2
STYLE
  5
3
330
0
100
AcDbSymbolTable
 70
     1
  0
STYLE
  5
11
330
3
100
AcDbSymbolTableRecord
100
AcDbTextStyleTableRecord
  2
Standard
 70
     0
 40
0.0
 41
1.0
 50
0.0
 71
     0
 42
0.2
  3
txt
  4

  0
ENDTAB
  0
TABLE
  2
VIEW
  5
6
330
0
100
AcDbSymbolTable
 70
     0
  0
ENDTAB
  0
TABLE
  2
UCS
  5
7
330
0
100
AcDbSymbolTable
 70
     0
  0
ENDTAB
  0
TABLE
  2
APPID
  5
9
330
0
100
AcDbSymbolTable
 70
     1
  0
APPID
  5
12
330
9
100
AcDbSymbolTableRecord
100
AcDbRegAppTableRecord
  2
ACAD
 70
     0
  0
ENDTAB
  0
TABLE
  2
DIMSTYLE
  5
A
330
0
100
AcDbSymbolTable
 70
     1
100
AcDbDimStyleTable
  0
DIMSTYLE
105
27
330
A
100
AcDbSymbolTableRecord
100
AcDbDimStyleTableRecord
  2
Standard
 70
     0
178
     0
340
11
  0
ENDTAB
  0
TABLE
  2
BLOCK_RECORD
  5
1
330
0
100
AcDbSymbolTable
 70
     1
  0
BLOCK_RECORD
  5
1F
330
1
100
AcDbSymbolTableRecord
100
AcDbBlockTableRecord
  2
*Model_Space
340
22
 70
     0
280
     1
281
     0
  0
BLOCK_RECORD
  5
1B
330
1
100
AcDbSymbolTableRecord
100
AcDbBlockTableRecord
  2
*Paper_Space
340
1E
 70
     0
280
     1
281
     0
  0
BLOCK_RECORD
  5
23
330
1
100
AcDbSymbolTableRecord
100
AcDbBlockTableRecord
  2
*Paper_Space0
340
26
 70
     0
280
     1
281
     0
  0
ENDTAB
  0
ENDSEC
  0
SECTION
  2
BLOCKS
  0
BLOCK
  5
20
330
1F
100
AcDbEntity
  8
0
100
AcDbBlockBegin
  2
*Model_Space
 70
     0
 10
0.0
 20
0.0
 30
0.0
  3
*Model_Space
  1

  0
ENDBLK
  5
21
330
1F
100
AcDbEntity
  8
0
100
AcDbBlockEnd
  0
BLOCK
  5
1C
330
1B
100
AcDbEntity
 67
     1
  8
0
100
AcDbBlockBegin
  2
*Paper_Space
 70
     0
 10
0.0
 20
0.0
 30
0.0
  3
*Paper_Space
  1

  0
ENDBLK
  5
1D
330
1B
100
AcDbEntity
 67
     1
  8
0
100
AcDbBlockEnd
  0
BLOCK
  5
24
330
23
100
AcDbEntity
  8
0
100
AcDbBlockBegin
  2
*Paper_Space0
 70
     0
 10
0.0
 20
0.0
 30
0.0
  3
*Paper_Space0
  1

  0
ENDBLK
  5
25
330
23
100
AcDbEntity
  8
0
100
AcDbBlockEnd
  0
ENDSEC
  0
SECTION
  2
ENTITIES
  0
SPLINE
  5
41
330
1F
100
AcDbEntity
  8
Layer 1
370
     0
100
AcDbSpline
210
0.0
220
0.0
230
1.0
 70
    11
 71
     3
 72
   710
 73
   706
 74
     0
 42
0.0000000001
 43
0.0000000001
 12
1.0
 22
0.0
 32
0.0
 13
1.0
 23
0.0
 33
0.0
 40
0.0
 40
0.0
 40
0.0
 40
0.0
 40
1.0
 40
1.0
 40
1.0
 40
2.0
 40
2.0
 40
2.0
 40
3.0
 40
3.0
 40
3.0
 40
4.0
 40
4.0
 40
4.0
 40
5.0
 40
5.0
 40
5.0
 40
6.0
 40
6.0
 40
6.0
 40
7.0
 40
7.0
 40
7.0
 40
8.0
 40
8.0
 40
8.0
 40
9.0
 40
9.0
 40
9.0
 40
10.0
 40
10.0
 40
10.0
 40
11.0
 40
11.0
 40
11.0
 40
12.0
 40
12.0
 40
12.0
 40
13.0
 40
13.0
 40
13.0
 40
14.0
 40
14.0
 40
14.0
 40
15.0
 40
15.0
 40
15.0
 40
16.0
 40
16.0
 40
16.0
 40
17.0
 40
17.0
 40
17.0
 40
18.0
 40
18.0
 40
18.0
 40
19.0
 40
19.0
 40
19.0
 40
20.0
 40
20.0
 40
20.0
 40
21.0
 40
21.0
 40
21.0
 40
22.0
 40
22.0
 40
22.0
 40
23.0
 40
23.0
 40
23.0
 40
24.0
 40
24.0
 40
24.0
 40
25.0
 40
25.0
 40
25.0
 40
26.0
 40
26.0
 40
26.0
 40
27.0
 40
27.0
 40
27.0
 40
28.0
 40
28.0
 40
28.0
 40
29.0
 40
29.0
 40
29.0
 40
30.0
 40
30.0
 40
30.0
 40
31.0
 40
31.0
 40
31.0
 40
32.0
 40
32.0
 40
32.0
 40
33.0
 40
33.0
 40
33.0
 40
34.0
 40
34.0
 40
34.0
 40
35.0
 40
35.0
 40
35.0
 40
36.0
 40
36.0
 40
36.0
 40
37.0
 40
37.0
 40
37.0
 40
38.0
 40
38.0
 40
38.0
 40
39.0
 40
39.0
 40
39.0
 40
40.0
 40
40.0
 40
40.0
 40
41.0
 40
41.0
 40
41.0
 40
42.0
 40
42.0
 40
42.0
 40
43.0
 40
43.0
 40
43.0
 40
44.0
 40
44.0
 40
44.0
 40
45.0
 40
45.0
 40
45.0
 40
46.0
 40
46.0
 40
46.0
 40
47.0
 40
47.0
 40
47.0
 40
48.0
 40
48.0
 40
48.0
 40
49.0
 40
49.0
 40
49.0
 40
50.0
 40
50.0
 40
50.0
 40
51.0
 40
51.0
 40
51.0
 40
52.0
 40
52.0
 40
52.0
 40
53.0
 40
53.0
 40
53.0
 40
54.0
 40
54.0
 40
54.0
 40
55.0
 40
55.0
 40
55.0
 40
56.0
 40
56.0
 40
56.0
 40
57.0
 40
57.0
 40
57.0
 40
58.0
 40
58.0
 40
58.0
 40
59.0
 40
59.0
 40
59.0
 40
60.0
 40
60.0
 40
60.0
 40
61.0
 40
61.0
 40
61.0
 40
62.0
 40
62.0
 40
62.0
 40
63.0
 40
63.0
 40
63.0
 40
64.0
 40
64.0
 40
64.0
 40
65.0
 40
65.0
 40
65.0
 40
66.0
 40
66.0
 40
66.0
 40
67.0
 40
67.0
 40
67.0
 40
68.0
 40
68.0
 40
68.0
 40
69.0
 40
69.0
 40
69.0
 40
70.0
 40
70.0
 40
70.0
 40
71.0
 40
71.0
 40
71.0
 40
72.0
 40
72.0
 40
72.0
 40
73.0
 40
73.0
 40
73.0
 40
74.0
 40
74.0
 40
74.0
 40
75.0
 40
75.0
 40
75.0
 40
76.0
 40
76.0
 40
76.0
 40
77.0
 40
77.0
 40
77.0
 40
78.0
 40
78.0
 40
78.0
 40
79.0
 40
79.0
 40
79.0
 40
80.0
 40
80.0
 40
80.0
 40
81.0
 40
81.0
 40
81.0
 40
82.0
 40
82.0
 40
82.0
 40
83.0
 40
83.0
 40
83.0
 40
84.0
 40
84.0
 40
84.0
 40
85.0
 40
85.0
 40
85.0
 40
86.0
 40
86.0
 40
86.0
 40
87.0
 40
87.0
 40
87.0
 40
88.0
 40
88.0
 40
88.0
 40
89.0
 40
89.0
 40
89.0
 40
90.0
 40
90.0
 40
90.0
 40
91.0
 40
91.0
 40
91.0
 40
92.0
 40
92.0
 40
92.0
 40
93.0
 40
93.0
 40
93.0
 40
94.0
 40
94.0
 40
94.0
 40
95.0
 40
95.0
 40
95.0
 40
96.0
 40
96.0
 40
96.0
 40
97.0
 40
97.0
 40
97.0
 40
98.0
 40
98.0
 40
98.0
 40
99.0
 40
99.0
 40
99.0
 40
100.0
 40
100.0
 40
100.0
 40
101.0
 40
101.0
 40
101.0
 40
102.0
 40
102.0
 40
102.0
 40
103.0
 40
103.0
 40
103.0
 40
104.0
 40
104.0
 40
104.0
 40
105.0
 40
105.0
 40
105.0
 40
106.0
 40
106.0
 40
106.0
 40
107.0
 40
107.0
 40
107.0
 40
108.0
 40
108.0
 40
108.0
 40
109.0
 40
109.0
 40
109.0
 40
110.0
 40
110.0
 40
110.0
 40
111.0
 40
111.0
 40
111.0
 40
112.0
 40
112.0
 40
112.0
 40
113.0
 40
113.0
 40
113.0
 40
114.0
 40
114.0
 40
114.0
 40
115.0
 40
115.0
 40
115.0
 40
116.0
 40
116.0
 40
116.0
 40
117.0
 40
117.0
 40
117.0
 40
118.0
 40
118.0
 40
118.0
 40
119.0
 40
119.0
 40
119.0
 40
120.0
 40
120.0
 40
120.0
 40
121.0
 40
121.0
 40
121.0
 40
122.0
 40
122.0
 40
122.0
 40
123.0
 40
123.0
 40
123.0
 40
124.0
 40
124.0
 40
124.0
 40
125.0
 40
125.0
 40
125.0
 40
126.0
 40
126.0
 40
126.0
 40
127.0
 40
127.0
 40
127.0
 40
128.0
 40
128.0
 40
128.0
 40
129.0
 40
129.0
 40
129.0
 40
130.0
 40
130.0
 40
130.0
 40
131.0
 40
131.0
 40
131.0
 40
132.0
 40
132.0
 40
132.0
 40
133.0
 40
133.0
 40
133.0
 40
134.0
 40
134.0
 40
134.0
 40
135.0
 40
135.0
 40
135.0
 40
136.0
 40
136.0
 40
136.0
 40
137.0
 40
137.0
 40
137.0
 40
138.0
 40
138.0
 40
138.0
 40
139.0
 40
139.0
 40
139.0
 40
140.0
 40
140.0
 40
140.0
 40
141.0
 40
141.0
 40
141.0
 40
142.0
 40
142.0
 40
142.0
 40
143.0
 40
143.0
 40
143.0
 40
144.0
 40
144.0
 40
144.0
 40
145.0
 40
145.0
 40
145.0
 40
146.0
 40
146.0
 40
146.0
 40
147.0
 40
147.0
 40
147.0
 40
148.0
 40
148.0
 40
148.0
 40
149.0
 40
149.0
 40
149.0
 40
150.0
 40
150.0
 40
150.0
 40
151.0
 40
151.0
 40
151.0
 40
152.0
 40
152.0
 40
152.0
 40
153.0
 40
153.0
 40
153.0
 40
154.0
 40
154.0
 40
154.0
 40
155.0
 40
155.0
 40
155.0
 40
156.0
 40
156.0
 40
156.0
 40
157.0
 40
157.0
 40
157.0
 40
158.0
 40
158.0
 40
158.0
 40
159.0
 40
159.0
 40
159.0
 40
160.0
 40
160.0
 40
160.0
 40
161.0
 40
161.0
 40
161.0
 40
162.0
 40
162.0
 40
162.0
 40
163.0
 40
163.0
 40
163.0
 40
164.0
 40
164.0
 40
164.0
 40
165.0
 40
165.0
 40
165.0
 40
166.0
 40
166.0
 40
166.0
 40
167.0
 40
167.0
 40
167.0
 40
168.0
 40
168.0
 40
168.0
 40
169.0
 40
169.0
 40
169.0
 40
170.0
 40
170.0
 40
170.0
 40
171.0
 40
171.0
 40
171.0
 40
172.0
 40
172.0
 40
172.0
 40
173.0
 40
173.0
 40
173.0
 40
174.0
 40
174.0
 40
174.0
 40
175.0
 40
175.0
 40
175.0
 40
176.0
 40
176.0
 40
176.0
 40
177.0
 40
177.0
 40
177.0
 40
178.0
 40
178.0
 40
178.0
 40
179.0
 40
179.0
 40
179.0
 40
180.0
 40
180.0
 40
180.0
 40
181.0
 40
181.0
 40
181.0
 40
182.0
 40
182.0
 40
182.0
 40
183.0
 40
183.0
 40
183.0
 40
184.0
 40
184.0
 40
184.0
 40
185.0
 40
185.0
 40
185.0
 40
186.0
 40
186.0
 40
186.0
 40
187.0
 40
187.0
 40
187.0
 40
188.0
 40
188.0
 40
188.0
 40
189.0
 40
189.0
 40
189.0
 40
190.0
 40
190.0
 40
190.0
 40
191.0
 40
191.0
 40
191.0
 40
192.0
 40
192.0
 40
192.0
 40
193.0
 40
193.0
 40
193.0
 40
194.0
 40
194.0
 40
194.0
 40
195.0
 40
195.0
 40
195.0
 40
196.0
 40
196.0
 40
196.0
 40
197.0
 40
197.0
 40
197.0
 40
198.0
 40
198.0
 40
198.0
 40
199.0
 40
199.0
 40
199.0
 40
200.0
 40
200.0
 40
200.0
 40
201.0
 40
201.0
 40
201.0
 40
202.0
 40
202.0
 40
202.0
 40
203.0
 40
203.0
 40
203.0
 40
204.0
 40
204.0
 40
204.0
 40
205.0
 40
205.0
 40
205.0
 40
206.0
 40
206.0
 40
206.0
 40
207.0
 40
207.0
 40
207.0
 40
208.0
 40
208.0
 40
208.0
 40
209.0
 40
209.0
 40
209.0
 40
210.0
 40
210.0
 40
210.0
 40
211.0
 40
211.0
 40
211.0
 40
212.0
 40
212.0
 40
212.0
 40
213.0
 40
213.0
 40
213.0
 40
214.0
 40
214.0
 40
214.0
 40
215.0
 40
215.0
 40
215.0
 40
216.0
 40
216.0
 40
216.0
 40
217.0
 40
217.0
 40
217.0
 40
218.0
 40
218.0
 40
218.0
 40
219.0
 40
219.0
 40
219.0
 40
220.0
 40
220.0
 40
220.0
 40
221.0
 40
221.0
 40
221.0
 40
222.0
 40
222.0
 40
222.0
 40
223.0
 40
223.0
 40
223.0
 40
224.0
 40
224.0
 40
224.0
 40
225.0
 40
225.0
 40
225.0
 40
226.0
 40
226.0
 40
226.0
 40
227.0
 40
227.0
 40
227.0
 40
228.0
 40
228.0
 40
228.0
 40
229.0
 40
229.0
 40
229.0
 40
230.0
 40
230.0
 40
230.0
 40
231.0
 40
231.0
 40
231.0
 40
232.0
 40
232.0
 40
232.0
 40
233.0
 40
233.0
 40
233.0
 40
234.0
 40
234.0
 40
234.0
 40
235.0
 40
235.0
 40
235.0
 40
235.0
 10
16.18505638484252
 20
-9.956835275288697
 30
0.0
 10
15.91772138490956
 20
-9.813536941991064
 30
0.0
 10
15.65243249608685
 20
-9.674683608692327
 30
0.0
 10
15.42284471836667
 20
-9.478680275408104
 30
0.0
 10
15.27760610729167
 20
-9.35446721988358
 30
0.0
 10
15.15222888510098
 20
-9.215790275473722
 30
0.0
 10
15.111906385111
 20
-9.020986386633504
 30
0.0
 10
15.1019227740024
 20
-8.972585275534772
 30
0.0
 10
15.08745888511707
 20
-8.912965831104959
 30
0.0
 10
15.1346605517718
 20
-8.879204997780118
 30
0.0
 10
15.18270888509309
 20
-8.844597497788714
 30
0.0
 10
15.21802194064002
 20
-8.898008053331145
 30
0.0
 10
15.25435805174207
 20
-8.920056664436744
 30
0.0
 10
15.72704499606832
 20
-9.205312775476326
 30
0.0
 10
16.24467582927202
 20
-9.379267497655269
 30
0.0
 10
16.79864277357808
 20
-9.561865275387444
 30
0.0
 10
16.74075194025923
 20
-9.445060553194304
 30
0.0
 10
16.6982069402698
 20
-9.361346386548645
 30
0.0
 10
16.65774332916877
 20
-9.27660916434754
 30
0.0
 10
16.62705166250995
 20
-9.212368331030271
 30
0.0
 10
16.5993233291836
 20
-9.146539997713395
 30
0.0
 10
16.60225138473826
 20
-9.073021108842731
 30
0.0
 10
16.6039799958489
 20
-9.031499164408743
 30
0.0
 10
16.60983610695852
 20
-8.987049164419783
 30
0.0
 10
16.64878277361562
 20
-8.966023608869628
 30
0.0
 10
16.69563166249291
 20
-8.940729442209138
 30
0.0
 10
16.72353638470813
 20
-8.984121108865134
 30
0.0
 10
16.75091194025671
 20
-9.01100277552491
 30
0.0
 10
16.9653655513142
 20
-9.220799719917101
 30
0.0
 10
17.19826944014495
 20
-9.409077219870015
 30
0.0
 10
17.42993860675354
 20
-9.599753608711259
 30
0.0
 10
17.75946832889352
 20
-9.87139249753207
 30
0.0
 10
18.15789555101606
 20
-9.995958330834357
 30
0.0
 10
18.54563360647482
 20
-10.14458360857497
 30
0.0
 10
18.63142916200888
 20
-10.17767416412213
 30
0.0
 10
18.71687193976519
 20
-10.20628444189287
 30
0.0
 10
18.79074360641329
 20
-10.26276416410099
 30
0.0
 10
19.27270860629294
 20
-10.63018221956479
 30
0.0
 10
19.78846971727527
 20
-10.94404860837511
 30
0.0
 10
20.3222577726971
 20
-11.23032777497014
 30
0.0
 10
20.54567193930806
 20
-11.35020166382897
 30
0.0
 10
20.76531138369748
 20
-11.47889499713023
 30
0.0
 10
20.97941221697721
 20
-11.61496138598504
 30
0.0
 10
21.34048027244258
 20
-11.8451136081497
 30
0.0
 10
21.62090332792799
 20
-12.15516999696129
 30
0.0
 10
21.86259138342333
 20
-12.50741860798423
 30
0.0
 10
22.79085554985794
 20
-13.86099166320148
 30
0.0
 10
23.71481582740468
 20
-15.21717527397345
 30
0.0
 10
24.72958110492856
 20
-16.50890638476176
 30
0.0
 10
25.08098304928526
 20
-16.95608749576112
 30
0.0
 10
25.46476999363392
 20
-17.37776277343327
 30
0.0
 10
25.78911388244163
 20
-17.84663971776047
 30
0.0
 10
26.08177832681292
 20
-18.26986721765471
 30
0.0
 10
26.35895582674376
 20
-18.70445416199042
 30
0.0
 10
26.5515372155842
 20
-19.18109221742709
 30
0.0
 10
26.83746360440179
 20
-19.88784721725026
 30
0.0
 10
27.26898138207149
 20
-20.50005777265261
 30
0.0
 10
27.73715277084349
 20
-21.08983166139409
 30
0.0
 10
28.71607582615444
 20
-22.32233138330818
 30
0.0
 10
29.82676138143233
 20
-23.43164110525319
 30
0.0
 10
30.96916165892451
 20
-24.50962416053921
 30
0.0
 10
31.38325221437639
 20
-24.89976110488629
 30
0.0
 10
31.80598582538182
 20
-25.28097277145741
 30
0.0
 10
32.22543860305485
 20
-25.66542999358375
 30
0.0
 10
32.28036610304088
 20
-25.71524221579353
 30
0.0
 10
32.33963276969293
 20
-25.76053888244873
 30
0.0
 10
32.39766471412282
 20
-25.80841082688114
 30
0.0
 10
32.43213110300319
 20
-25.75933943800473
 30
0.0
 10
32.41438638078544
 20
-25.72504943801324
 30
0.0
 10
32.40524943634309
 20
-25.69248804913241
 30
0.0
 10
32.291055269705
 20
-25.28217221590174
 30
0.0
 10
32.26537304748923
 20
-24.86444804933936
 30
0.0
 10
32.27606221415335
 20
-24.44037388277889
 30
0.0
 10
32.28795082526147
 20
-23.95149443845665
 30
0.0
 10
32.18649193639774
 20
-23.48074777190745
 30
0.0
 10
31.99355776977954
 20
-23.03166166090888
 30
0.0
 10
31.86334749203403
 20
-22.729013605429
 30
0.0
 10
31.67404693652599
 20
-22.47116832771551
 30
0.0
 10
31.42840776992055
 20
-22.24722499443823
 30
0.0
 10
31.20224193664382
 20
-22.04053249448989
 30
0.0
 10
31.01911499224532
 20
-21.79334110566268
 30
0.0
 10
30.91490443671583
 20
-21.50014749462508
 30
0.0
 10
30.79259638119083
 20
-21.155801105822
 30
0.0
 10
30.91268193671638
 20
-20.91707638365947
 30
0.0
 10
31.26648276996109
 20
-20.82817638368187
 30
0.0
 10
31.41256804770233
 20
-20.79166388369094
 30
0.0
 10
31.46336804768972
 20
-20.73825332814883
 30
0.0
 10
31.42029388103396
 20
-20.5926972170739
 30
0.0
 10
31.38808526993089
 20
-20.4835124948792
 30
0.0
 10
31.42272804769981
 20
-20.38565193934813
 30
0.0
 10
31.52556276989642
 20
-20.33294693936121
 30
0.0
 10
31.62596332542686
 20
-20.28161777270751
 30
0.0
 10
31.64751804764365
 20
-20.20446527272668
 30
0.0
 10
31.62959693653703
 20
-20.10625193941784
 30
0.0
 10
31.60945332543096
 20
-19.99893693944482
 30
0.0
 10
31.63785193653498
 20
-19.93264999501698
 30
0.0
 10
31.74569610317464
 20
-19.87835749503047
 30
0.0
 10
31.96911026978561
 20
-19.76673860616927
 30
0.0
 10
32.07780110309152
 20
-19.57934305066076
 30
0.0
 10
32.06764110309436
 20
-19.32096860628095
 30
0.0
 10
32.05335360309791
 20
-18.94734166192977
 30
0.0
 10
32.21093943639167
 20
-18.81917749529515
 30
0.0
 10
32.57648776963378
 20
-18.90599610638467
 30
0.0
 10
32.83916610290144
 20
-18.96819082859137
 30
0.0
 10
33.1013505472803
 20
-19.01641555080154
 30
0.0
 10
33.37383610276768
 20
-19.01228805080257
 30
0.0
 10
33.6275891582597
 20
-19.00865443969239
 30
0.0
 10
33.83840915820702
 20
-18.92733916193474
 30
0.0
 10
34.01342221371893
 20
-18.742695273092
 30
0.0
 10
34.20240526922704
 20
-18.5430583286976
 30
0.0
 10
34.40634610250962
 20
-18.35873193985478
 30
0.0
 10
34.63836804689596
 20
-18.20975388433641
 30
0.0
 10
35.15151860232324
 20
-17.88040055108531
 30
0.0
 10
35.71511547772038
 20
-17.77118055111276
 30
0.0
 10
36.31476712908866
 20
-17.85179027331489
 30
0.0
 10
36.43756907040017
 20
-17.86851193997719
 30
0.0
 10
36.5333482346233
 20
-17.84748638442704
 30
0.0
 10
36.62464712118297
 20
-17.77340305111221
 30
0.0
 10
37.05715266570439
 20
-17.42013138453382
 30
0.0
 10
37.50899043195482
 20
-17.39892944009479
 30
0.0
 10
37.99751708615813
 20
-17.66421832891718
 30
0.0
 10
38.50685762871933
 20
-17.94118416218129
 30
0.0
 10
39.02275983777979
 20
-18.20266305100495
 30
0.0
 10
39.44549443458318
 20
-18.61213221756905
 30
0.0
 10
39.99102897974385
 20
-19.1402758285483
 30
0.0
 10
40.3747806366202
 20
-19.77725138394451
 30
0.0
 10
40.69725479505986
 20
-20.45525499488621
 30
0.0
 10
40.81300118099582
 20
-20.6977897170478
 30
0.0
 10
40.91259034512175
 20
-20.94840305031846
 30
0.0
 10
41.01729478689496
 20
-21.19647638358975
 30
0.0
 10
41.04625784171161
 20
-21.26519749468375
 30
0.0
 10
41.08379443417369
 20
-21.31737332800402
 30
0.0
 10
41.15854700551354
 20
-21.34407860577524
 30
0.0
 10
41.54921310665793
 20
-21.48293193907366
 30
0.0
 10
41.76282004565281
 20
-21.77799527233327
 30
0.0
 10
41.85309587668301
 20
-22.16710916112491
 30
0.0
 10
41.88477532031925
 20
-22.30388110553523
 30
0.0
 10
41.93610554507146
 20
-22.33799471663784
 30
0.0
 10
42.0728764266315
 20
-22.30698554997877
 30
0.0
 10
42.70678279934809
 20
-22.16280527223705
 30
0.0
 10
43.33998361652712
 20
-22.01467388338524
 30
0.0
 10
43.95011387790155
 20
-21.78438055010953
 30
0.0
 10
44.01142554384166
 20
-21.76144999455953
 30
0.0
 10
44.07654831995801
 20
-21.73908388345401
 30
0.0
 10
44.12858304085272
 20
-21.7009838834638
 30
0.0
 10
45.17104134759073
 20
-20.93376277254425
 30
0.0
 10
46.32483631815496
 20
-20.36914193935223
 30
0.0
 10
47.5051248991544
 20
-19.85630888392487
 30
0.0
 10
48.64300959234677
 20
-19.3619613840483
 30
0.0
 10
49.80505956270041
 20
-18.93079638415603
 30
0.0
 10
51.01702758733608
 20
-18.65139638422608
 30
0.0
 10
51.61029396108948
 20
-18.51462443981574
 30
0.0
 10
52.20733505696881
 20
-18.39164610651306
 30
0.0
 10
52.8074453194365
 20
-18.29138666209366
 30
0.0
 10
53.18812780972448
 20
-18.22781610655408
 30
0.0
 10
53.57883054216099
 20
-18.25367471765873
 30
0.0
 10
53.96363917882842
 20
-18.28242610654051
 30
0.0
 10
54.5275897199964
 20
-18.32479471764107
 30
0.0
 10
55.09051720563492
 20
-18.31258860653302
 30
0.0
 10
55.65344469127345
 20
-18.28157943987395
 30
0.0
 10
55.88080996325066
 20
-18.26898527321062
 30
0.0
 10
56.09166665264375
 20
-18.27656999543089
 30
0.0
 10
56.30252050804748
 20
-18.38734221762553
 30
0.0
 10
56.54089244641055
 20
-18.51275471759406
 30
0.0
 10
56.80790993959837
 20
-18.57251527313459
 30
0.0
 10
57.0707646551146
 20
-18.62952416200936
 30
0.0
 10
57.37873964725751
 20
-18.69651666199239
 30
0.0
 10
57.67916665224688
 20
-18.78869749530272
 30
0.0
 10
57.97923796527085
 20
-18.8835947175013
 30
0.0
 10
58.12945073921638
 20
-18.93079638415603
 30
0.0
 10
58.28103934646015
 20
-18.9729886063677
 30
0.0
 10
58.43777850912807
 20
-18.99419055080706
 30
0.0
 10
58.47979434138949
 20
-19.00004666191668
 30
0.0
 10
58.53941378431291
 20
-18.98713499525311
 30
0.0
 10
58.54526989527462
 20
-19.05222249523695
 30
0.0
 10
58.54939739516931
 20
-19.10252860633553
 30
0.0
 10
58.51045072949626
 20
-19.13526638410493
 30
0.0
 10
58.46981073053308
 20
-19.15869082854373
 30
0.0
 10
58.32407823425103
 20
-19.24275777296715
 30
0.0
 10
58.16663351604555
 20
-19.26635860629452
 30
0.0
 10
57.99955796475245
 20
-19.24998971740966
 30
0.0
 10
57.78115324810219
 20
-19.22861138408174
 30
0.0
 10
57.5696276979431
 20
-19.17523610631715
 30
0.0
 10
57.3566910367089
 20
-19.12803443966242
 30
0.0
 10
57.29883548262936
 20
-19.11476999522141
 30
0.0
 10
57.24094465077295
 20
-19.1013291618912
 30
0.0
 10
57.17928054126093
 20
-19.11286499522189
 30
0.0
 10
57.5014004774615
 20
-19.47202805068741
 30
0.0
 10
57.91136352255803
 20
-19.67752110619175
 30
0.0
 10
58.34199934490493
 20
-19.85045277281525
 30
0.0
 10
58.36094351108829
 20
-19.85786110614663
 30
0.0
 10
58.37988767727165
 20
-19.8649519394781
 30
0.0
 10
58.39851434346311
 20
-19.87285416169861
 30
0.0
 10
58.62450378214209
 20
-19.96743388389694
 30
0.0
 10
58.62517405990276
 20
-19.96947999500751
 30
0.0
 10
58.45086656434972
 20
-20.13295721718906
 30
0.0
 10
58.56834156135268
 20
-20.20136082828314
 30
0.0
 10
58.69442433591382
 20
-20.24062499493984
 30
0.0
 10
58.82156544378129
 20
-20.26888249493283
 30
0.0
 10
58.93904044078425
 20
-20.29452943937076
 30
0.0
 10
58.92422377449559
 20
-20.34053166158148
 30
0.0
 10
58.8615351649838
 20
-20.40893527267557
 30
0.0
 10
58.76713331864181
 20
-20.51071166153889
 30
0.0
 10
58.64136655948965
 20
-20.53036138375616
 30
0.0
 10
58.5135551738615
 20
-20.53812249486563
 30
0.0
 10
58.33028712298151
 20
-20.54912916152935
 30
0.0
 10
58.14804212763097
 20
-20.53932193930963
 30
0.0
 10
57.96854879887689
 20
-20.49487193932067
 30
0.0
 10
57.93478796640487
 20
-20.48626416154496
 30
0.0
 10
57.89414796744168
 20
-20.46661443932769
 30
0.0
 10
57.8676190792296
 20
-20.496071383765
 30
0.0
 10
57.83142408015301
 20
-20.53586471708834
 30
0.0
 10
57.8717465791243
 20
-20.57220082819039
 30
0.0
 10
57.89206657860589
 20
-20.60338638373802
 30
0.0
 10
57.98714165216974
 20
-20.7518705503676
 30
0.0
 10
58.04640831882147
 20
-20.92448471699117
 30
0.0
 10
58.20074712628635
 20
-21.03215249474196
 30
0.0
 10
58.27310184666265
 20
-21.08210582806278
 30
0.0
 10
58.23486073652715
 20
-21.12757888360686
 30
0.0
 10
58.17181934924658
 20
-21.15269666137847
 30
0.0
 10
58.02231213083861
 20
-21.21249249469685
 30
0.0
 10
57.88829185647997
 20
-21.16271555026491
 30
0.0
 10
57.77286297053592
 20
-21.07296888362075
 30
0.0
 10
57.52722381013603
 20
-20.88193971700174
 30
0.0
 10
57.30123437145706
 20
-20.66903832816602
 30
0.0
 10
57.14862270868384
 20
-20.39274277267959
 30
0.0
 10
57.09489465449899
 20
-20.29488221714852
 30
0.0
 10
57.02045854528691
 20
-20.25131416160396
 30
0.0
 10
56.91296715914035
 20
-20.22563193938819
 30
0.0
 10
56.56639827909317
 20
-20.14191777274221
 30
0.0
 10
56.2157018991513
 20
-20.08730777275609
 30
0.0
 10
55.86497024143254
 20
-20.03082805054797
 30
0.0
 10
55.67549330182205
 20
-20.00017166166666
 30
0.0
 10
55.4912021954126
 20
-20.05079527276516
 30
0.0
 10
55.31548358878445
 20
-20.12004555052549
 30
0.0
 10
55.22280886892655
 20
-20.15655805051642
 30
0.0
 10
55.19490554175702
 20
-20.22185721716666
 30
0.0
 10
55.27138636768724
 20
-20.30952249492273
 30
0.0
 10
55.4370860856821
 20
-20.49952860598629
 30
0.0
 10
55.62314108093545
 20
-20.65591499483605
 30
0.0
 10
55.86292413037363
 20
-20.74996555036807
 30
0.0
 10
56.18536301103642
 20
-20.87693027255868
 30
0.0
 10
56.37621578394513
 20
-21.13703332804914
 30
0.0
 10
56.50610855840907
 20
-21.44641943908272
 30
0.0
 10
56.55122883503574
 20
-21.55355805016719
 30
0.0
 10
56.49541939201511
 20
-21.64397499458903
 30
0.0
 10
56.43650550462924
 20
-21.72892388345653
 30
0.0
 10
56.39896995003129
 20
-21.78282832788777
 30
0.0
 10
56.35864745106001
 20
-21.7871322167753
 30
0.0
 10
56.31592606326103
 20
-21.73132277234486
 30
0.0
 10
56.13092940131402
 20
-21.49224527240457
 30
0.0
 10
55.86602857473887
 20
-21.38351916132082
 30
0.0
 10
55.5979880260216
 20
-21.26519749468375
 30
0.0
 10
54.69364221576005
 20
-20.865394439228
 30
0.0
 10
53.78171168346978
 20
-20.47575138377005
 30
0.0
 10
52.97797809286362
 20
-19.88389610614017
 30
0.0
 10
52.77714170909849
 20
-19.73572943951052
 30
0.0
 10
52.55527977031422
 20
-19.74952305061817
 30
0.0
 10
52.33581672035763
 20
-19.80085221727187
 30
0.0
 10
51.83765923306669
 20
-19.91712777279837
 30
0.0
 10
51.40702341071979
 20
-20.18015888384379
 30
0.0
 10
50.98326675486406
 20
-20.45215055044236
 30
0.0
 10
50.17780455319089
 20
-20.96893471698013
 30
0.0
 10
49.43675957209652
 20
-21.57317249460662
 30
0.0
 10
48.67299570269287
 20
-22.14661277224107
 30
0.0
 10
47.72113072697697
 20
-22.86148166095115
 30
0.0
 10
46.7409729742051
 20
-23.53345277189436
 30
0.0
 10
45.63649633571598
 20
-23.99904888288915
 30
0.0
 10
45.36916134253627
 20
-24.11186721619435
 30
0.0
 10
45.09078440519381
 20
-24.18337527173196
 30
0.0
 10
44.80485802359951
 20
-24.23936110505128
 30
0.0
 10
44.57816302938298
 20
-24.28412860504017
 30
0.0
 10
44.36180554446511
 20
-24.38456443834844
 30
0.0
 10
44.14339970714138
 20
-24.4669027716609
 30
0.0
 10
43.11191387811103
 20
-24.85739249378574
 30
0.0
 10
42.10663725910352
 20
-25.30905388256151
 30
0.0
 10
41.11169811781987
 20
-25.78445721577602
 30
0.0
 10
40.89121201233382
 20
-25.88990249352767
 30
0.0
 10
40.68518979536767
 20
-26.0197599934951
 30
0.0
 10
40.47987313393907
 20
-26.15102860457325
 30
0.0
 10
40.41235146899502
 20
-26.19427916011821
 30
0.0
 10
40.36825424789781
 20
-26.24578471566079
 30
0.0
 10
40.3665256368308
 20
-26.33464943786087
 30
0.0
 10
40.34550008181165
 20
-27.38659749315336
 30
0.0
 10
40.13224592058555
 20
-28.41152277067503
 30
0.0
 10
39.92608259251188
 20
-29.43697721486302
 30
0.0
 10
39.76189981892276
 20
-30.25344610354786
 30
0.0
 10
39.57277565708105
 20
-31.06494082556717
 30
0.0
 10
39.36608316235422
 20
-31.87177888092086
 30
0.0
 10
39.31164955263182
 20
-32.08468026975658
 30
0.0
 10
39.31045010821798
 20
-32.29433610303741
 30
0.0
 10
39.38707343959648
 20
-32.50102860298575
 30
0.0
 10
39.4689178819529
 20
-32.72151471404174
 30
0.0
 10
39.60600832343192
 20
-32.78783693624742
 30
0.0
 10
39.82755276782087
 20
-32.71357721404371
 30
0.0
 10
40.40166230260105
 20
-32.5213486029807
 30
0.0
 10
40.98699117655696
 20
-32.37166499190712
 30
0.0
 10
41.58159810583172
 20
-32.26159832526801
 30
0.0
 10
41.70253032496871
 20
-32.23919693638465
 30
0.0
 10
41.77523887844497
 20
-32.18822054750839
 30
0.0
 10
41.82896587729862
 20
-32.07229776975966
 30
0.0
 10
42.2516994776249
 20
-31.15690999221078
 30
0.0
 10
42.76947140885988
 20
-30.29549721464849
 30
0.0
 10
43.33585611663243
 20
-29.46209499263463
 30
0.0
 10
43.45573000246308
 20
-29.2858824926784
 30
0.0
 10
43.58114249926354
 20
-29.11259804827746
 30
0.0
 10
43.68792832987253
 20
-28.92830693721248
 30
0.0
 10
43.76441055014354
 20
-28.79548610391224
 30
0.0
 10
43.88498999151174
 20
-28.75414054836713
 30
0.0
 10
44.0145299882069
 20
-28.73382054837218
 30
0.0
 10
44.20196081675847
 20
-28.70436360393487
 30
0.0
 10
44.29428275884759
 20
-28.59740138173961
 30
0.0
 10
44.36593192368633
 20
-28.42686860400444
 30
0.0
 10
44.87580276655895
 20
-27.2141949931965
 30
0.0
 10
45.3967132862778
 20
-26.00649554905377
 30
0.0
 10
45.90933466208863
 20
-24.795056660468
 30
0.0
 10
45.96239243851279
 20
-24.66911499383282
 30
0.0
 10
46.01784910376464
 20
-24.64364443828345
 30
0.0
 10
46.14876493375803
 20
-24.69306860493795
 30
0.0
 10
47.14201074175156
 20
-25.07082304928778
 30
0.0
 10
48.00328238644535
 20
-25.6511424935873
 30
0.0
 10
48.77978153330187
 20
-26.36841027118571
 30
0.0
 10
49.09812819184684
 20
-26.66192138222356
 30
0.0
 10
49.39301512876809
 20
-26.97494110436732
 30
0.0
 10
49.68208123250451
 20
-27.29582777095375
 30
0.0
 10
49.77990650778656
 20
-27.40402471537118
 30
0.0
 10
49.79885067396992
 20
-27.48410527090666
 30
0.0
 10
49.70377706528433
 20
-27.60831832643119
 30
0.0
 10
49.53497290292422
 20
-27.82947471526486
 30
0.0
 10
49.38543040673937
 20
-28.0649538818725
 30
0.0
 10
49.24558929919591
 20
-28.31920082625366
 30
0.0
 10
49.44261568305823
 20
-28.22377443738843
 30
0.0
 10
49.64451040012969
 20
-28.1364266596326
 30
0.0
 10
49.83571595080718
 20
-28.03034638188142
 30
0.0
 10
49.96560872527112
 20
-27.95848554856605
 30
0.0
 10
50.05584927852445
 20
-27.97538360411722
 30
0.0
 10
50.15575594264229
 20
-28.08149915964625
 30
0.0
 10
50.33489649362758
 20
-28.27132888182092
 30
0.0
 10
50.48235760097665
 20
-28.48303082621264
 30
0.0
 10
50.61912954193175
 20
-28.70351693726863
 30
0.0
 10
50.87408332061451
 20
-29.11467943716587
 30
0.0
 10
51.09523841867409
 20
-29.54256360372539
 30
0.0
 10
51.26989998718265
 20
-29.99418971472365
 30
0.0
 10
51.29162980255262
 20
-30.05105749248738
 30
0.0
 10
51.30986841319842
 20
-30.10961860358359
 30
0.0
 10
51.32503785725586
 20
-30.16853249245788
 30
0.0
 10
51.38014174473894
 20
-30.38400915907081
 30
0.0
 10
51.37911868920948
 20
-30.38400915907081
 30
0.0
 10
51.58926840607034
 20
-30.30703304797886
 30
0.0
 10
52.17114005789222
 20
-30.09395527025425
 30
0.0
 10
52.71339476628037
 20
-29.81247388143588
 30
0.0
 10
53.17779142109929
 20
-29.39407943709583
 30
0.0
 10
53.29770058470682
 20
-29.28641165934504
 30
0.0
 10
53.39210391563172
 20
-29.17271138159575
 30
0.0
 10
53.44032863662363
 20
-29.01322054830214
 30
0.0
 10
53.61326029887844
 20
-28.44461332622219
 30
0.0
 10
53.80206696072825
 20
-27.88098027080745
 30
0.0
 10
53.97397556745361
 20
-27.31237304872749
 30
0.0
 10
54.29472111482627
 20
-26.25284027121441
 30
0.0
 10
54.94859470925567
 20
-25.45563304919156
 30
0.0
 10
55.86602857473887
 20
-24.85379416045308
 30
0.0
 10
56.4671971705129
 20
-24.45931804944063
 30
0.0
 10
57.11831909834584
 20
-24.15995082729348
 30
0.0
 10
57.75324998556138
 20
-23.82904527182061
 30
0.0
 10
58.54904461740054
 20
-23.41442554970209
 30
0.0
 10
59.30938654244704
 20
-22.94710082759666
 30
0.0
 10
59.92949930440443
 20
-22.28426666109548
 30
0.0
 10
60.15069096542803
 20
-22.04843471671008
 30
0.0
 10
60.33533484960626
 20
-21.78815527233075
 30
0.0
 10
60.4452251245805
 20
-21.48173249462965
 30
0.0
 10
60.53550095561071
 20
-21.23023721691459
 30
0.0
 10
60.54340317763133
 20
-20.98064693919937
 30
0.0
 10
60.44349651351349
 20
-20.72396582815238
 30
0.0
 10
60.26710762912466
 20
-20.27163416159891
 30
0.0
 10
60.13689735466882
 20
-19.80790777282581
 30
0.0
 10
60.20131457524762
 20
-19.3132074951718
 30
0.0
 10
60.24505901857605
 20
-18.97764527303332
 30
0.0
 10
60.38013762624102
 20
-18.69101332866054
 30
0.0
 10
60.65399900814312
 20
-18.4796641620469
 30
0.0
 10
60.73598609592742
 20
-18.41644638428475
 30
0.0
 10
60.82523887368247
 20
-18.37562999540597
 30
0.0
 10
60.92789720699052
 20
-18.35478082874469
 30
0.0
 10
61.19695927206883
 20
-18.29999443986938
 30
0.0
 10
61.46118982088331
 20
-18.22576999544351
 30
0.0
 10
61.72026981427362
 20
-18.13464749546646
 30
0.0
 10
62.34969590932674
 20
-17.91327943996607
 30
0.0
 10
62.84062145235774
 20
-17.5196852733977
 30
0.0
 10
63.2261017203011
 20
-16.97295027353446
 30
0.0
 10
63.77975276183273
 20
-16.18816082928637
 30
0.0
 10
64.40674307906932
 20
-15.4584752739132
 30
0.0
 10
65.00413695271742
 20
-14.70712916299003
 30
0.0
 10
65.08337083958487
 20
-14.60686971857063
 30
0.0
 10
65.15847722655765
 20
-14.58118749635486
 30
0.0
 10
65.27697527909007
 20
-14.62891832967623
 30
0.0
 10
65.54293609472512
 20
-14.73690360742694
 30
0.0
 10
65.78409332170796
 20
-14.88556416294539
 30
0.0
 10
66.02112470454968
 20
-15.04385555179467
 30
0.0
 10
66.0710780366086
 20
-15.07729888511959
 30
0.0
 10
66.08176720300256
 20
-15.11691582955406
 30
0.0
 10
66.06314053681109
 20
-15.17427749620658
 30
0.0
 10
65.72828387868734
 20
-16.19916749595009
 30
0.0
 10
65.49608555127787
 20
-17.25009249568745
 30
0.0
 10
65.26561583493542
 20
-18.30242860653554
 30
0.0
 10
65.00893473037279
 20
-19.47393305068694
 30
0.0
 10
64.4811791882814
 20
-20.52947943931208
 30
0.0
 10
63.82247253841974
 20
-21.52445388350764
 30
0.0
 10
63.38319366073779
 20
-22.18711166111994
 30
0.0
 10
62.85265276206493
 20
-22.77706193875029
 30
0.0
 10
62.35417776218938
 20
-23.39304721637385
 30
0.0
 10
61.10153288561447
 20
-24.94145943820916
 30
0.0
 10
59.90332319396113
 20
-26.53241666003358
 30
0.0
 10
58.69202544708613
 20
-28.11317860408268
 30
0.0
 10
58.07328851842698
 20
-28.92001665943669
 30
0.0
 10
57.49243992213455
 20
-29.75391277033935
 30
0.0
 10
56.88266354880236
 20
-30.56625415902522
 30
0.0
 10
56.80720438406081
 20
-30.66686638122206
 30
0.0
 10
56.78688438457922
 20
-30.78882165896962
 30
0.0
 10
56.7448685523178
 20
-30.90301582560771
 30
0.0
 10
56.51471633596724
 20
-31.52743249211811
 30
0.0
 10
56.1615857894208
 20
-32.05885693642977
 30
0.0
 10
55.59696497049215
 20
-32.43421249189159
 30
0.0
 10
54.9361769317947
 20
-32.8734561028926
 30
0.0
 10
54.37808250158843
 20
-33.42879888053155
 30
0.0
 10
53.84341387542818
 20
-34.00844804705339
 30
0.0
 10
53.52644168998226
 20
-34.35226526918982
 30
0.0
 10
53.23945832002378
 20
-34.72243499131939
 30
0.0
 10
52.93045892740927
 20
-35.072284713454
 30
0.0
 10
52.61832115759479
 20
-35.42626193558791
 30
0.0
 10
52.23245283410578
 20
-35.70721415773995
 30
0.0
 10
51.87074978777804
 20
-36.01106165766384
 30
0.0
 10
51.64543062685974
 20
-36.20053860206108
 30
0.0
 10
51.41185646615205
 20
-36.38056110201605
 30
0.0
 10
51.18378563863728
 20
-36.56675721308055
 30
0.0
 10
51.13280925104891
 20
-36.60845554640342
 30
0.0
 10
51.07975276500773
 20
-36.65202360194797
 30
0.0
 10
51.04390925331694
 20
-36.70592804637921
 30
0.0
 10
50.72662220954038
 20
-37.18722276848085
 30
0.0
 10
50.27358371741403
 20
-37.52451360172998
 30
0.0
 10
49.81952345122029
 20
-37.86004054609062
 30
0.0
 10
49.32895068595807
 20
-38.22248443488888
 30
0.0
 10
48.82183264334017
 20
-38.56044554591537
 30
0.0
 10
48.30921126752934
 20
-38.89117471249936
 30
0.0
 10
48.04321682987098
 20
-39.06188387912341
 30
0.0
 10
47.79863600277743
 20
-39.25996860129604
 30
0.0
 10
47.62429443253823
 20
-39.53213665678349
 30
0.0
 10
47.49993906595338
 20
-39.72676415673482
 30
0.0
 10
47.44723406729799
 20
-39.93225721223916
 30
0.0
 10
47.53818017608887
 20
-40.15362526773924
 30
0.0
 10
47.57712684176193
 20
-40.24869887882669
 30
0.0
 10
47.51027545457856
 20
-40.28210693437378
 30
0.0
 10
47.45757045592318
 20
-40.32620415658497
 30
0.0
 10
46.83054443273667
 20
-40.85194887867622
 30
0.0
 10
46.18012687740237
 20
-41.34802498966312
 30
0.0
 10
45.51591689434778
 20
-41.8255097117657
 30
0.0
 10
44.83103413404281
 20
-42.31851665608723
 30
0.0
 10
44.13031165191973
 20
-42.78739360041411
 30
0.0
 10
43.39304139295128
 20
-43.1990852669783
 30
0.0
 10
43.32689556130547
 20
-43.23559776696892
 30
0.0
 10
43.2841741735065
 20
-43.28590387806717
 30
0.0
 10
43.2538705631685
 20
-43.35377832249461
 30
0.0
 10
42.79981029697476
 20
-44.36455721113087
 30
0.0
 10
42.29198669881931
 20
-45.34848971088488
 30
0.0
 10
41.73043610067824
 20
-46.30416471064622
 30
0.0
 10
41.33151394554523
 20
-46.98350887714297
 30
0.0
 10
40.86916340178522
 20
-47.62260109920575
 30
0.0
 10
40.46988952308266
 20
-48.30162776570226
 30
0.0
 10
39.99480370186977
 20
-49.10811304327883
 30
0.0
 10
39.5737987126105
 20
-49.94218554307005
 30
0.0
 10
39.22758261033211
 20
-50.81273526507437
 30
0.0
 10
39.00296900495136
 20
-51.37876720937776
 30
0.0
 10
38.92063067371866
 20
-51.98028859811599
 30
0.0
 10
38.78452901052423
 20
-52.56801637574657
 30
0.0
 10
38.54061943480922
 20
-53.62359804214955
 30
0.0
 10
38.2798451345109
 20
-54.67261804188771
 30
0.0
 10
37.84162459013528
 20
-55.66861554163872
 30
0.0
 10
37.29781765956451
 20
-56.90436081910738
 30
0.0
 10
36.50872434636262
 20
-57.96509304106414
 30
0.0
 10
35.54821631531167
 20
-58.90700970749536
 30
0.0
 10
35.01111304680274
 20
-59.43409498514132
 30
0.0
 10
34.41237860250811
 20
-59.8912597072496
 30
0.0
 10
33.87044138042121
 20
-60.41389998489667
 30
0.0
 10
33.10099776950254
 20
-61.15526248471092
 30
0.0
 10
32.41318693634112
 20
-61.95934887339885
 30
0.0
 10
31.93153943646171
 20
-62.92052720649237
 30
0.0
 10
31.71451054762701
 20
-63.35359720638352
 30
0.0
 10
31.57876165877213
 20
-63.81418387293557
 30
0.0
 10
31.52348138100801
 20
-64.30062915059163
 30
0.0
 10
31.48661610323932
 20
-64.62758359495407
 30
0.0
 10
31.6211655476502
 20
-64.8952713726648
 30
0.0
 10
31.75190499206203
 20
-65.16881526148546
 30
0.0
 10
31.90398749202393
 20
-65.48712665029468
 30
0.0
 10
32.02527249199381
 20
-65.81475137243513
 30
0.0
 10
32.06023276976265
 20
-66.16752915012472
 30
0.0
 10
32.08605610308946
 20
-66.42900803894837
 30
0.0
 10
32.04749749198829
 20
-66.67637581666413
 30
0.0
 10
31.8493774920375
 20
-66.871708872171
 30
0.0
 10
31.79462638094034
 20
-66.92578970549079
 30
0.0
 10
31.73327832539988
 20
-66.97196831659039
 30
0.0
 10
31.64751804764365
 20
-66.95852748326051
 30
0.0
 10
31.08889443667229
 20
-66.86930998328299
 30
0.0
 10
30.59228915901875
 20
-67.04774498323803
 30
0.0
 10
30.12478804802444
 20
-67.32749776094575
 30
0.0
 10
29.63125193703659
 20
-67.62171442753912
 30
0.0
 10
29.20682499269835
 20
-67.99756387188943
 30
0.0
 10
28.8631841594508
 20
-68.46093748288477
 30
0.0
 10
28.22430360405508
 20
-69.32185637155825
 30
0.0
 10
27.55885888199917
 20
-70.16213776023719
 30
0.0
 10
26.90240999327426
 20
-71.00996859335854
 30
0.0
 10
26.82317610440534
 20
-71.11227414888883
 30
0.0
 10
26.74736415997987
 20
-71.13707442666019
 30
0.0
 10
26.62957166000912
 20
-71.09470581555964
 30
0.0
 10
26.35789749341047
 20
-70.99825637113929
 30
0.0
 10
26.12227721569179
 20
-70.83943581562369
 30
0.0
 10
25.88591610463974
 20
-70.68061526010743
 30
0.0
 10
25.82978916020938
 20
-70.64304442678355
 30
0.0
 10
25.82442693798824
 20
-70.59725387123986
 30
0.0
 10
25.84580527131648
 20
-70.53590581569908
 30
0.0
 10
26.22941582677593
 20
-69.44176553819524
 30
0.0
 10
26.51982249336993
 20
-68.32106109403058
 30
0.0
 10
26.79784665996733
 20
-67.19658192764504
 30
0.0
 10
27.01007777102537
 20
-66.3394377611931
 30
0.0
 10
27.40003832648324
 20
-65.55948137249918
 30
0.0
 10
27.8191383263785
 20
-64.79017887269123
 30
0.0
 10
28.2020786040606
 20
-64.08843331731111
 30
0.0
 10
28.68799471505034
 20
-63.45315109524804
 30
0.0
 10
29.10571888161239
 20
-62.77377165097312
 30
0.0
 10
29.71274360368281
 20
-61.78641720677535
 30
0.0
 10
30.24328610355039
 20
-60.75598859592213
 30
0.0
 10
30.78194249230456
 20
-59.73106331840047
 30
0.0
 10
31.84560276981628
 20
-57.70742415223954
 30
0.0
 10
32.87465554733693
 20
-55.66586387497231
 30
0.0
 10
33.89785221374763
 20
-53.62151665326115
 30
0.0
 10
34.12521749146869
 20
-53.16745637559704
 30
0.0
 10
34.34898443585709
 20
-52.71134998682205
 30
0.0
 10
34.57137554691261
 20
-52.25450276471401
 30
0.0
 10
34.78427693574833
 20
-51.81836359815621
 30
0.0
 10
34.9100069357171
 20
-51.36638470938051
 30
0.0
 10
34.84421388017774
 20
-50.87097887617097
 30
0.0
 10
34.814404157963
 20
-50.64774109844922
 30
0.0
 10
34.9039744357186
 20
-50.430006654059
 30
0.0
 10
34.93981665793184
 20
-50.21019082078101
 30
0.0
 10
35.00680915791489
 20
-49.79920470977234
 30
0.0
 10
35.06021971345731
 20
-49.3861372098759
 30
0.0
 10
35.11052582455557
 20
-48.97271693220106
 30
0.0
 10
35.11842804677608
 20
-48.90794693221714
 30
0.0
 10
35.13066943566164
 20
-48.84113082112299
 30
0.0
 10
35.15617526898886
 20
-48.78186415447126
 30
0.0
 10
35.38766715274095
 20
-48.23788082127411
 30
0.0
 10
35.5418310376968
 20
-47.66839165474943
 30
0.0
 10
35.69723054663136
 20
-47.10031359933579
 30
0.0
 10
35.75769575441185
 20
-46.87947471050204
 30
0.0
 10
35.74647742136472
 20
-46.64660609944945
 30
0.0
 10
35.75614443550533
 20
-46.41853526617287
 30
0.0
 10
35.75818964328813
 20
-46.37408526618455
 30
0.0
 10
35.75183964345014
 20
-46.33034082175048
 30
0.0
 10
35.69754714483526
 20
-46.33034082175048
 30
0.0
 10
35.2838093776128
 20
-46.33206943286112
 30
0.0
 10
34.90845471349501
 20
-46.14534415513062
 30
0.0
 10
34.50642915804013
 20
-46.08847637736689
 30
0.0
 10
34.04390221371136
 20
-46.02370637738298
 30
0.0
 10
33.58380943604843
 20
-46.0685091551497
 30
0.0
 10
33.12526888060759
 20
-46.12639998846855
 30
0.0
 10
33.01537860285735
 20
-46.14015832179803
 30
0.0
 10
32.92736054732384
 20
-46.11535804402666
 30
0.0
 10
32.83934249179033
 20
-46.05609137737493
 30
0.0
 10
32.6030166585158
 20
-45.8955774885262
 30
0.0
 10
32.37113582524049
 20
-45.73121832190025
 30
0.0
 10
32.20663554750382
 20
-45.49143526640507
 30
0.0
 10
32.15876360307141
 20
-45.42116193308898
 30
0.0
 10
32.08898415864444
 20
-45.41117832198039
 30
0.0
 10
32.01751138088466
 20
-45.42564221086604
 30
0.0
 10
30.97004360336859
 20
-45.64027221081209
 30
0.0
 10
30.08566499247846
 20
-45.23997526646753
 30
0.0
 10
29.2037205482545
 20
-44.7387133221487
 30
0.0
 10
28.49869415954198
 20
-44.33802832224886
 30
0.0
 10
28.16263804851501
 20
-43.71068360018349
 30
0.0
 10
27.91837471524278
 20
-42.99549721147349
 30
0.0
 10
27.82002027082291
 20
-42.70745415598966
 30
0.0
 10
27.74128027084247
 20
-42.41256721161893
 30
0.0
 10
27.64825277086557
 20
-42.12247804502485
 30
0.0
 10
27.61279860420792
 20
-42.01121193394173
 30
0.0
 10
27.63932749309026
 20
-41.95642554506641
 30
0.0
 10
27.75627332639412
 20
-41.92682748951839
 30
0.0
 10
28.16934082629088
 20
-41.82000637843417
 30
0.0
 10
28.57965665952187
 20
-41.70217860068558
 30
0.0
 10
28.99290054830719
 20
-41.5960983229344
 30
0.0
 10
29.10279082605774
 20
-41.56851110071911
 30
0.0
 10
29.13207138160585
 20
-41.52441387850791
 30
0.0
 10
29.09848693716989
 20
-41.41660498964608
 30
0.0
 10
29.04112527051736
 20
-41.2326313785807
 30
0.0
 10
28.99649888163984
 20
-41.04417748973891
 30
0.0
 10
28.9413949927646
 20
-40.85953360089616
 30
0.0
 10
28.91056221499473
 20
-40.75616971203323
 30
0.0
 10
28.93000027054528
 20
-40.70656915648986
 30
0.0
 10
29.04938027051531
 20
-40.71136693426651
 30
0.0
 10
30.02967915915914
 20
-40.74791471203528
 30
0.0
 10
30.97776943669989
 20
-40.54224526764207
 30
0.0
 10
31.92346082535232
 20
-40.32242943436408
 30
0.0
 10
32.93339304732234
 20
-40.088326101089
 30
0.0
 10
33.92420471374109
 20
-39.78567804560912
 30
0.0
 10
34.91293499127175
 20
-39.47682110124185
 30
0.0
 10
35.32480215434477
 20
-39.34798665682955
 30
0.0
 10
35.73130797730727
 20
-39.2029597124216
 30
0.0
 10
36.14024796687435
 20
-39.0646355457895
 30
0.0
 10
36.17746602148039
 20
-39.05204137912585
 30
0.0
 10
36.23189963120279
 20
-39.05084193468185
 30
0.0
 10
36.2405083242733
 20
-39.00762665691473
 30
0.0
 10
36.25119657515493
 20
-38.95213471248422
 30
0.0
 10
36.18970832428592
 20
-38.93802360137664
 30
0.0
 10
36.15559379981618
 20
-38.91287054582719
 30
0.0
 10
35.27432054673704
 20
-38.26277165710103
 30
0.0
 10
34.45732249138555
 20
-37.53929499061523
 30
0.0
 10
33.69786249157548
 20
-36.75108360192337
 30
0.0
 10
33.20400888058803
 20
-36.23860332427378
 30
0.0
 10
32.72874665848457
 20
-35.70926026885052
 30
0.0
 10
32.30001582525847
 20
-35.14065304677025
 30
0.0
 10
32.17495610306738
 20
-34.97512971347845
 30
0.0
 10
31.99355776977954
 20
-34.87606971350306
 30
0.0
 10
31.84214554759499
 20
-34.74137915798146
 30
0.0
 10
31.12505415888547
 20
-34.10387443591861
 30
0.0
 10
30.62414499234407
 20
-33.33062082500056
 30
0.0
 10
30.35730388129959
 20
-32.40750721412038
 30
0.0
 10
30.30047138131371
 20
-32.20938721416991
 30
0.0
 10
30.30237638131324
 20
-32.00975026977519
 30
0.0
 10
30.31235999242183
 20
-31.80425721427117
 30
0.0
 10
30.34403943685859
 20
-31.16001443665431
 30
0.0
 10
30.35885610352136
 20
-30.51527777014896
 30
0.0
 10
30.3826333257376
 20
-29.87071749253217
 30
0.0
 10
30.38661971462554
 20
-29.77010527033533
 30
0.0
 10
30.36076110352089
 20
-29.68275749257918
 30
0.0
 10
30.31373582575504
 20
-29.59526860371231
 30
0.0
 10
30.06001804804053
 20
-29.12328721494125
 30
0.0
 10
29.74339999256411
 20
-28.69455638171516
 30
0.0
 10
29.41577527042398
 20
-28.27288110404301
 30
0.0
 10
28.92587277054631
 20
-27.64327860420035
 30
0.0
 10
28.48472415954545
 20
-26.97801027103333
 30
0.0
 10
28.02120943743907
 20
-26.32914610452869
 30
0.0
 10
27.11185415988869
 20
-25.05618277151389
 30
0.0
 10
26.22405360455511
 20
-23.76720332739167
 30
0.0
 10
25.26065277146246
 20
-22.53297499436662
 30
0.0
 10
25.02965388263155
 20
-22.23671221666299
 30
0.0
 10
24.7466202715911
 20
-21.98556971672569
 30
0.0
 10
24.5344244383109
 20
-21.67187971680425
 30
0.0
 10
24.06484193842818
 20
-20.9782127725332
 30
0.0
 10
23.72275332740271
 20
-20.21875277272312
 30
0.0
 10
23.37530249415611
 20
-19.46133888402361
 30
0.0
 10
22.82221749429445
 20
-18.2557208287693
 30
0.0
 10
22.37485999440621
 20
-17.00568805130418
 30
0.0
 10
21.82071666121158
 20
-15.80077555160539
 30
0.0
 10
21.55959055016569
 20
-15.23248582952535
 30
0.0
 10
21.28604666134503
 20
-14.67093416299902
 30
0.0
 10
20.9375727725433
 20
-14.14952860757379
 30
0.0
 10
20.798543050356
 20
-13.94160138540361
 30
0.0
 10
20.64455555039457
 20
-13.74746777434075
 30
0.0
 10
20.45871221710751
 20
-13.57919277438287
 30
0.0
 10
20.29713999492581
 20
-13.43293110775275
 30
0.0
 10
20.11556527274876
 20
-13.36696166332483
 30
0.0
 10
19.89095166169379
 20
-13.36851388554692
 30
0.0
 10
19.04068666190659
 20
-13.37472277443398
 30
0.0
 10
18.21800888433436
 20
-13.24313666335591
 30
0.0
 10
17.42217749564439
 20
-12.91515916343801
 30
0.0
 10
17.03807305129614
 20
-12.75718527458833
 30
0.0
 10
16.63516555139685
 20
-12.60958305240316
 30
0.0
 10
16.20417694039347
 20
-12.60887749684763
 30
0.0
 10
16.11323082930499
 20
-12.60870110795907
 30
0.0
 10
16.02090888488361
 20
-12.61162916351372
 30
0.0
 10
15.93080944046169
 20
-12.62506999684361
 30
0.0
 10
15.76285194050373
 20
-12.65039944128194
 30
0.0
 10
15.74461332939718
 20
-12.6338541635082
 30
0.0
 10
15.7725180516124
 20
-12.46780166354977
 30
0.0
 10
15.79195610716327
 20
-12.35085583024559
 30
0.0
 10
15.85760805159127
 20
-12.27437360804244
 30
0.0
 10
15.96527582934205
 20
-12.23320444138621
 30
0.0
 10
16.39986277367777
 20
-12.06697555253889
 30
0.0
 10
16.83480249579125
 20
-11.99462083033471
 30
0.0
 10
17.27972582901332
 20
-12.20512333028211
 30
0.0
 10
17.57962221782743
 20
-12.34669305246877
 30
0.0
 10
17.84988527331536
 20
-12.21493055250182
 30
0.0
 10
18.10106305103018
 20
-12.07022110809346
 30
0.0
 10
18.21455166211307
 20
-12.00460444144331
 30
0.0
 10
18.16011805101551
 20
-11.87111333036571
 30
0.0
 10
18.09312555103216
 20
-11.78602333038685
 30
0.0
 10
17.98048360661615
 20
-11.64286610820025
 30
0.0
 10
17.86283221775645
 20
-11.50111999712471
 30
0.0
 10
17.71036166223894
 20
-11.39638027492857
 30
0.0
 10
17.55122360672341
 20
-11.28698388606714
 30
0.0
 10
17.38637055120898
 20
-11.18640694164782
 30
0.0
 10
17.22804388458185
 20
-11.07581110834206
 30
0.0
 10
17.10009138461396
 20
-10.98624083058678
 30
0.0
 10
16.95866277353801
 20
-10.94041499726494
 30
0.0
 10
16.80792082913147
 20
-10.90718333060642
 30
0.0
 10
16.25603527371382
 20
-10.78642749730351
 30
0.0
 10
15.71445082940468
 20
-10.63191083067544
 30
0.0
 10
15.19650249620074
 20
-10.40299333073262
 30
0.0
 10
14.97291194070122
 20
-10.3041097196461
 30
0.0
 10
14.75775277408821
 20
-10.18991555300801
 30
0.0
 10
14.57653082968924
 20
-10.02111138638349
 30
0.0
 10
14.47785888526945
 20
-9.929283330850918
 30
0.0
 10
14.42772916305975
 20
-9.817488053101158
 30
0.0
 10
14.43358527416937
 20
-9.681915553135152
 30
0.0
 10
14.43700721861282
 20
-9.601305830933024
 30
0.0
 10
14.47182638527095
 20
-9.564793330942093
 30
0.0
 10
14.55000194080691
 20
-9.609560830930974
 30
0.0
 10
15.05711999623568
 20
-9.900673053080496
 30
0.0
 10
15.61884805165089
 20
-9.939266941959513
 30
0.0
 10
16.18505638484252
 20
-9.956835275288697
 30
0.0
  0
HATCH
  5
42
330
1F
100
AcDbEntity
  8
Layer 1
 62
     7
100
AcDbHatch
 10
0.0
 20
0.0
 30
0.0
210
0.0
220
0.0
230
1.0
  2
SOLID
 70
     1
 71
     0
 91
        1
 92
        1
 93
        1
 72
     4
 94
        3
 73
     0
 74
     1
 95
      710
 96
      706
 40
0.0
 40
0.0
 40
0.0
 40
0.0
 40
1.0
 40
1.0
 40
1.0
 40
2.0
 40
2.0
 40
2.0
 40
3.0
 40
3.0
 40
3.0
 40
4.0
 40
4.0
 40
4.0
 40
5.0
 40
5.0
 40
5.0
 40
6.0
 40
6.0
 40
6.0
 40
7.0
 40
7.0
 40
7.0
 40
8.0
 40
8.0
 40
8.0
 40
9.0
 40
9.0
 40
9.0
 40
10.0
 40
10.0
 40
10.0
 40
11.0
 40
11.0
 40
11.0
 40
12.0
 40
12.0
 40
12.0
 40
13.0
 40
13.0
 40
13.0
 40
14.0
 40
14.0
 40
14.0
 40
15.0
 40
15.0
 40
15.0
 40
16.0
 40
16.0
 40
16.0
 40
17.0
 40
17.0
 40
17.0
 40
18.0
 40
18.0
 40
18.0
 40
19.0
 40
19.0
 40
19.0
 40
20.0
 40
20.0
 40
20.0
 40
21.0
 40
21.0
 40
21.0
 40
22.0
 40
22.0
 40
22.0
 40
23.0
 40
23.0
 40
23.0
 40
24.0
 40
24.0
 40
24.0
 40
25.0
 40
25.0
 40
25.0
 40
26.0
 40
26.0
 40
26.0
 40
27.0
 40
27.0
 40
27.0
 40
28.0
 40
28.0
 40
28.0
 40
29.0
 40
29.0
 40
29.0
 40
30.0
 40
30.0
 40
30.0
 40
31.0
 40
31.0
 40
31.0
 40
32.0
 40
32.0
 40
32.0
 40
33.0
 40
33.0
 40
33.0
 40
34.0
 40
34.0
 40
34.0
 40
35.0
 40
35.0
 40
35.0
 40
36.0
 40
36.0
 40
36.0
 40
37.0
 40
37.0
 40
37.0
 40
38.0
 40
38.0
 40
38.0
 40
39.0
 40
39.0
 40
39.0
 40
40.0
 40
40.0
 40
40.0
 40
41.0
 40
41.0
 40
41.0
 40
42.0
 40
42.0
 40
42.0
 40
43.0
 40
43.0
 40
43.0
 40
44.0
 40
44.0
 40
44.0
 40
45.0
 40
45.0
 40
45.0
 40
46.0
 40
46.0
 40
46.0
 40
47.0
 40
47.0
 40
47.0
 40
48.0
 40
48.0
 40
48.0
 40
49.0
 40
49.0
 40
49.0
 40
50.0
 40
50.0
 40
50.0
 40
51.0
 40
51.0
 40
51.0
 40
52.0
 40
52.0
 40
52.0
 40
53.0
 40
53.0
 40
53.0
 40
54.0
 40
54.0
 40
54.0
 40
55.0
 40
55.0
 40
55.0
 40
56.0
 40
56.0
 40
56.0
 40
57.0
 40
57.0
 40
57.0
 40
58.0
 40
58.0
 40
58.0
 40
59.0
 40
59.0
 40
59.0
 40
60.0
 40
60.0
 40
60.0
 40
61.0
 40
61.0
 40
61.0
 40
62.0
 40
62.0
 40
62.0
 40
63.0
 40
63.0
 40
63.0
 40
64.0
 40
64.0
 40
64.0
 40
65.0
 40
65.0
 40
65.0
 40
66.0
 40
66.0
 40
66.0
 40
67.0
 40
67.0
 40
67.0
 40
68.0
 40
68.0
 40
68.0
 40
69.0
 40
69.0
 40
69.0
 40
70.0
 40
70.0
 40
70.0
 40
71.0
 40
71.0
 40
71.0
 40
72.0
 40
72.0
 40
72.0
 40
73.0
 40
73.0
 40
73.0
 40
74.0
 40
74.0
 40
74.0
 40
75.0
 40
75.0
 40
75.0
 40
76.0
 40
76.0
 40
76.0
 40
77.0
 40
77.0
 40
77.0
 40
78.0
 40
78.0
 40
78.0
 40
79.0
 40
79.0
 40
79.0
 40
80.0
 40
80.0
 40
80.0
 40
81.0
 40
81.0
 40
81.0
 40
82.0
 40
82.0
 40
82.0
 40
83.0
 40
83.0
 40
83.0
 40
84.0
 40
84.0
 40
84.0
 40
85.0
 40
85.0
 40
85.0
 40
86.0
 40
86.0
 40
86.0
 40
87.0
 40
87.0
 40
87.0
 40
88.0
 40
88.0
 40
88.0
 40
89.0
 40
89.0
 40
89.0
 40
90.0
 40
90.0
 40
90.0
 40
91.0
 40
91.0
 40
91.0
 40
92.0
 40
92.0
 40
92.0
 40
93.0
 40
93.0
 40
93.0
 40
94.0
 40
94.0
 40
94.0
 40
95.0
 40
95.0
 40
95.0
 40
96.0
 40
96.0
 40
96.0
 40
97.0
 40
97.0
 40
97.0
 40
98.0
 40
98.0
 40
98.0
 40
99.0
 40
99.0
 40
99.0
 40
100.0
 40
100.0
 40
100.0
 40
101.0
 40
101.0
 40
101.0
 40
102.0
 40
102.0
 40
102.0
 40
103.0
 40
103.0
 40
103.0
 40
104.0
 40
104.0
 40
104.0
 40
105.0
 40
105.0
 40
105.0
 40
106.0
 40
106.0
 40
106.0
 40
107.0
 40
107.0
 40
107.0
 40
108.0
 40
108.0
 40
108.0
 40
109.0
 40
109.0
 40
109.0
 40
110.0
 40
110.0
 40
110.0
 40
111.0
 40
111.0
 40
111.0
 40
112.0
 40
112.0
 40
112.0
 40
113.0
 40
113.0
 40
113.0
 40
114.0
 40
114.0
 40
114.0
 40
115.0
 40
115.0
 40
115.0
 40
116.0
 40
116.0
 40
116.0
 40
117.0
 40
117.0
 40
117.0
 40
118.0
 40
118.0
 40
118.0
 40
119.0
 40
119.0
 40
119.0
 40
120.0
 40
120.0
 40
120.0
 40
121.0
 40
121.0
 40
121.0
 40
122.0
 40
122.0
 40
122.0
 40
123.0
 40
123.0
 40
123.0
 40
124.0
 40
124.0
 40
124.0
 40
125.0
 40
125.0
 40
125.0
 40
126.0
 40
126.0
 40
126.0
 40
127.0
 40
127.0
 40
127.0
 40
128.0
 40
128.0
 40
128.0
 40
129.0
 40
129.0
 40
129.0
 40
130.0
 40
130.0
 40
130.0
 40
131.0
 40
131.0
 40
131.0
 40
132.0
 40
132.0
 40
132.0
 40
133.0
 40
133.0
 40
133.0
 40
134.0
 40
134.0
 40
134.0
 40
135.0
 40
135.0
 40
135.0
 40
136.0
 40
136.0
 40
136.0
 40
137.0
 40
137.0
 40
137.0
 40
138.0
 40
138.0
 40
138.0
 40
139.0
 40
139.0
 40
139.0
 40
140.0
 40
140.0
 40
140.0
 40
141.0
 40
141.0
 40
141.0
 40
142.0
 40
142.0
 40
142.0
 40
143.0
 40
143.0
 40
143.0
 40
144.0
 40
144.0
 40
144.0
 40
145.0
 40
145.0
 40
145.0
 40
146.0
 40
146.0
 40
146.0
 40
147.0
 40
147.0
 40
147.0
 40
148.0
 40
148.0
 40
148.0
 40
149.0
 40
149.0
 40
149.0
 40
150.0
 40
150.0
 40
150.0
 40
151.0
 40
151.0
 40
151.0
 40
152.0
 40
152.0
 40
152.0
 40
153.0
 40
153.0
 40
153.0
 40
154.0
 40
154.0
 40
154.0
 40
155.0
 40
155.0
 40
155.0
 40
156.0
 40
156.0
 40
156.0
 40
157.0
 40
157.0
 40
157.0
 40
158.0
 40
158.0
 40
158.0
 40
159.0
 40
159.0
 40
159.0
 40
160.0
 40
160.0
 40
160.0
 40
161.0
 40
161.0
 40
161.0
 40
162.0
 40
162.0
 40
162.0
 40
163.0
 40
163.0
 40
163.0
 40
164.0
 40
164.0
 40
164.0
 40
165.0
 40
165.0
 40
165.0
 40
166.0
 40
166.0
 40
166.0
 40
167.0
 40
167.0
 40
167.0
 40
168.0
 40
168.0
 40
168.0
 40
169.0
 40
169.0
 40
169.0
 40
170.0
 40
170.0
 40
170.0
 40
171.0
 40
171.0
 40
171.0
 40
172.0
 40
172.0
 40
172.0
 40
173.0
 40
173.0
 40
173.0
 40
174.0
 40
174.0
 40
174.0
 40
175.0
 40
175.0
 40
175.0
 40
176.0
 40
176.0
 40
176.0
 40
177.0
 40
177.0
 40
177.0
 40
178.0
 40
178.0
 40
178.0
 40
179.0
 40
179.0
 40
179.0
 40
180.0
 40
180.0
 40
180.0
 40
181.0
 40
181.0
 40
181.0
 40
182.0
 40
182.0
 40
182.0
 40
183.0
 40
183.0
 40
183.0
 40
184.0
 40
184.0
 40
184.0
 40
185.0
 40
185.0
 40
185.0
 40
186.0
 40
186.0
 40
186.0
 40
187.0
 40
187.0
 40
187.0
 40
188.0
 40
188.0
 40
188.0
 40
189.0
 40
189.0
 40
189.0
 40
190.0
 40
190.0
 40
190.0
 40
191.0
 40
191.0
 40
191.0
 40
192.0
 40
192.0
 40
192.0
 40
193.0
 40
193.0
 40
193.0
 40
194.0
 40
194.0
 40
194.0
 40
195.0
 40
195.0
 40
195.0
 40
196.0
 40
196.0
 40
196.0
 40
197.0
 40
197.0
 40
197.0
 40
198.0
 40
198.0
 40
198.0
 40
199.0
 40
199.0
 40
199.0
 40
200.0
 40
200.0
 40
200.0
 40
201.0
 40
201.0
 40
201.0
 40
202.0
 40
202.0
 40
202.0
 40
203.0
 40
203.0
 40
203.0
 40
204.0
 40
204.0
 40
204.0
 40
205.0
 40
205.0
 40
205.0
 40
206.0
 40
206.0
 40
206.0
 40
207.0
 40
207.0
 40
207.0
 40
208.0
 40
208.0
 40
208.0
 40
209.0
 40
209.0
 40
209.0
 40
210.0
 40
210.0
 40
210.0
 40
211.0
 40
211.0
 40
211.0
 40
212.0
 40
212.0
 40
212.0
 40
213.0
 40
213.0
 40
213.0
 40
214.0
 40
214.0
 40
214.0
 40
215.0
 40
215.0
 40
215.0
 40
216.0
 40
216.0
 40
216.0
 40
217.0
 40
217.0
 40
217.0
 40
218.0
 40
218.0
 40
218.0
 40
219.0
 40
219.0
 40
219.0
 40
220.0
 40
220.0
 40
220.0
 40
221.0
 40
221.0
 40
221.0
 40
222.0
 40
222.0
 40
222.0
 40
223.0
 40
223.0
 40
223.0
 40
224.0
 40
224.0
 40
224.0
 40
225.0
 40
225.0
 40
225.0
 40
226.0
 40
226.0
 40
226.0
 40
227.0
 40
227.0
 40
227.0
 40
228.0
 40
228.0
 40
228.0
 40
229.0
 40
229.0
 40
229.0
 40
230.0
 40
230.0
 40
230.0
 40
231.0
 40
231.0
 40
231.0
 40
232.0
 40
232.0
 40
232.0
 40
233.0
 40
233.0
 40
233.0
 40
234.0
 40
234.0
 40
234.0
 40
235.0
 40
235.0
 40
235.0
 40
235.0
 10
16.18505638484252
 20
-9.956835275288697
 10
15.91772138490956
 20
-9.813536941991064
 10
15.65243249608685
 20
-9.674683608692327
 10
15.42284471836667
 20
-9.478680275408104
 10
15.27760610729167
 20
-9.35446721988358
 10
15.15222888510098
 20
-9.215790275473722
 10
15.111906385111
 20
-9.020986386633504
 10
15.1019227740024
 20
-8.972585275534772
 10
15.08745888511707
 20
-8.912965831104959
 10
15.1346605517718
 20
-8.879204997780118
 10
15.18270888509309
 20
-8.844597497788714
 10
15.21802194064002
 20
-8.898008053331145
 10
15.25435805174207
 20
-8.920056664436744
 10
15.72704499606832
 20
-9.205312775476326
 10
16.24467582927202
 20
-9.379267497655269
 10
16.79864277357808
 20
-9.561865275387444
 10
16.74075194025923
 20
-9.445060553194304
 10
16.6982069402698
 20
-9.361346386548645
 10
16.65774332916877
 20
-9.27660916434754
 10
16.62705166250995
 20
-9.212368331030271
 10
16.5993233291836
 20
-9.146539997713395
 10
16.60225138473826
 20
-9.073021108842731
 10
16.6039799958489
 20
-9.031499164408743
 10
16.60983610695852
 20
-8.987049164419783
 10
16.64878277361562
 20
-8.966023608869628
 10
16.69563166249291
 20
-8.940729442209138
 10
16.72353638470813
 20
-8.984121108865134
 10
16.75091194025671
 20
-9.01100277552491
 10
16.9653655513142
 20
-9.220799719917101
 10
17.19826944014495
 20
-9.409077219870015
 10
17.42993860675354
 20
-9.599753608711259
 10
17.75946832889352
 20
-9.87139249753207
 10
18.15789555101606
 20
-9.995958330834357
 10
18.54563360647482
 20
-10.14458360857497
 10
18.63142916200888
 20
-10.17767416412213
 10
18.71687193976519
 20
-10.20628444189287
 10
18.79074360641329
 20
-10.26276416410099
 10
19.27270860629294
 20
-10.63018221956479
 10
19.78846971727527
 20
-10.94404860837511
 10
20.3222577726971
 20
-11.23032777497014
 10
20.54567193930806
 20
-11.35020166382897
 10
20.76531138369748
 20
-11.47889499713023
 10
20.97941221697721
 20
-11.61496138598504
 10
21.34048027244258
 20
-11.8451136081497
 10
21.62090332792799
 20
-12.15516999696129
 10
21.86259138342333
 20
-12.50741860798423
 10
22.79085554985794
 20
-13.86099166320148
 10
23.71481582740468
 20
-15.21717527397345
 10
24.72958110492856
 20
-16.50890638476176
 10
25.08098304928526
 20
-16.95608749576112
 10
25.46476999363392
 20
-17.37776277343327
 10
25.78911388244163
 20
-17.84663971776047
 10
26.08177832681292
 20
-18.26986721765471
 10
26.35895582674376
 20
-18.70445416199042
 10
26.5515372155842
 20
-19.18109221742709
 10
26.83746360440179
 20
-19.88784721725026
 10
27.26898138207149
 20
-20.50005777265261
 10
27.73715277084349
 20
-21.08983166139409
 10
28.71607582615444
 20
-22.32233138330818
 10
29.82676138143233
 20
-23.43164110525319
 10
30.96916165892451
 20
-24.50962416053921
 10
31.38325221437639
 20
-24.89976110488629
 10
31.80598582538182
 20
-25.28097277145741
 10
32.22543860305485
 20
-25.66542999358375
 10
32.28036610304088
 20
-25.71524221579353
 10
32.33963276969293
 20
-25.76053888244873
 10
32.39766471412282
 20
-25.80841082688114
 10
32.43213110300319
 20
-25.75933943800473
 10
32.41438638078544
 20
-25.72504943801324
 10
32.40524943634309
 20
-25.69248804913241
 10
32.291055269705
 20
-25.28217221590174
 10
32.26537304748923
 20
-24.86444804933936
 10
32.27606221415335
 20
-24.44037388277889
 10
32.28795082526147
 20
-23.95149443845665
 10
32.18649193639774
 20
-23.48074777190745
 10
31.99355776977954
 20
-23.03166166090888
 10
31.86334749203403
 20
-22.729013605429
 10
31.67404693652599
 20
-22.47116832771551
 10
31.42840776992055
 20
-22.24722499443823
 10
31.20224193664382
 20
-22.04053249448989
 10
31.01911499224532
 20
-21.79334110566268
 10
30.91490443671583
 20
-21.50014749462508
 10
30.79259638119083
 20
-21.155801105822
 10
30.91268193671638
 20
-20.91707638365947
 10
31.26648276996109
 20
-20.82817638368187
 10
31.41256804770233
 20
-20.79166388369094
 10
31.46336804768972
 20
-20.73825332814883
 10
31.42029388103396
 20
-20.5926972170739
 10
31.38808526993089
 20
-20.4835124948792
 10
31.42272804769981
 20
-20.38565193934813
 10
31.52556276989642
 20
-20.33294693936121
 10
31.62596332542686
 20
-20.28161777270751
 10
31.64751804764365
 20
-20.20446527272668
 10
31.62959693653703
 20
-20.10625193941784
 10
31.60945332543096
 20
-19.99893693944482
 10
31.63785193653498
 20
-19.93264999501698
 10
31.74569610317464
 20
-19.87835749503047
 10
31.96911026978561
 20
-19.76673860616927
 10
32.07780110309152
 20
-19.57934305066076
 10
32.06764110309436
 20
-19.32096860628095
 10
32.05335360309791
 20
-18.94734166192977
 10
32.21093943639167
 20
-18.81917749529515
 10
32.57648776963378
 20
-18.90599610638467
 10
32.83916610290144
 20
-18.96819082859137
 10
33.1013505472803
 20
-19.01641555080154
 10
33.37383610276768
 20
-19.01228805080257
 10
33.6275891582597
 20
-19.00865443969239
 10
33.83840915820702
 20
-18.92733916193474
 10
34.01342221371893
 20
-18.742695273092
 10
34.20240526922704
 20
-18.5430583286976
 10
34.40634610250962
 20
-18.35873193985478
 10
34.63836804689596
 20
-18.20975388433641
 10
35.15151860232324
 20
-17.88040055108531
 10
35.71511547772038
 20
-17.77118055111276
 10
36.31476712908866
 20
-17.85179027331489
 10
36.43756907040017
 20
-17.86851193997719
 10
36.5333482346233
 20
-17.84748638442704
 10
36.62464712118297
 20
-17.77340305111221
 10
37.05715266570439
 20
-17.42013138453382
 10
37.50899043195482
 20
-17.39892944009479
 10
37.99751708615813
 20
-17.66421832891718
 10
38.50685762871933
 20
-17.94118416218129
 10
39.02275983777979
 20
-18.20266305100495
 10
39.44549443458318
 20
-18.61213221756905
 10
39.99102897974385
 20
-19.1402758285483
 10
40.3747806366202
 20
-19.77725138394451
 10
40.69725479505986
 20
-20.45525499488621
 10
40.81300118099582
 20
-20.6977897170478
 10
40.91259034512175
 20
-20.94840305031846
 10
41.01729478689496
 20
-21.19647638358975
 10
41.04625784171161
 20
-21.26519749468375
 10
41.08379443417369
 20
-21.31737332800402
 10
41.15854700551354
 20
-21.34407860577524
 10
41.54921310665793
 20
-21.48293193907366
 10
41.76282004565281
 20
-21.77799527233327
 10
41.85309587668301
 20
-22.16710916112491
 10
41.88477532031925
 20
-22.30388110553523
 10
41.93610554507146
 20
-22.33799471663784
 10
42.0728764266315
 20
-22.30698554997877
 10
42.70678279934809
 20
-22.16280527223705
 10
43.33998361652712
 20
-22.01467388338524
 10
43.95011387790155
 20
-21.78438055010953
 10
44.01142554384166
 20
-21.76144999455953
 10
44.07654831995801
 20
-21.73908388345401
 10
44.12858304085272
 20
-21.7009838834638
 10
45.17104134759073
 20
-20.93376277254425
 10
46.32483631815496
 20
-20.36914193935223
 10
47.5051248991544
 20
-19.85630888392487
 10
48.64300959234677
 20
-19.3619613840483
 10
49.80505956270041
 20
-18.93079638415603
 10
51.01702758733608
 20
-18.65139638422608
 10
51.61029396108948
 20
-18.51462443981574
 10
52.20733505696881
 20
-18.39164610651306
 10
52.8074453194365
 20
-18.29138666209366
 10
53.18812780972448
 20
-18.22781610655408
 10
53.57883054216099
 20
-18.25367471765873
 10
53.96363917882842
 20
-18.28242610654051
 10
54.5275897199964
 20
-18.32479471764107
 10
55.09051720563492
 20
-18.31258860653302
 10
55.65344469127345
 20
-18.28157943987395
 10
55.88080996325066
 20
-18.26898527321062
 10
56.09166665264375
 20
-18.27656999543089
 10
56.30252050804748
 20
-18.38734221762553
 10
56.54089244641055
 20
-18.51275471759406
 10
56.80790993959837
 20
-18.57251527313459
 10
57.0707646551146
 20
-18.62952416200936
 10
57.37873964725751
 20
-18.69651666199239
 10
57.67916665224688
 20
-18.78869749530272
 10
57.97923796527085
 20
-18.8835947175013
 10
58.12945073921638
 20
-18.93079638415603
 10
58.28103934646015
 20
-18.9729886063677
 10
58.43777850912807
 20
-18.99419055080706
 10
58.47979434138949
 20
-19.00004666191668
 10
58.53941378431291
 20
-18.98713499525311
 10
58.54526989527462
 20
-19.05222249523695
 10
58.54939739516931
 20
-19.10252860633553
 10
58.51045072949626
 20
-19.13526638410493
 10
58.46981073053308
 20
-19.15869082854373
 10
58.32407823425103
 20
-19.24275777296715
 10
58.16663351604555
 20
-19.26635860629452
 10
57.99955796475245
 20
-19.24998971740966
 10
57.78115324810219
 20
-19.22861138408174
 10
57.5696276979431
 20
-19.17523610631715
 10
57.3566910367089
 20
-19.12803443966242
 10
57.29883548262936
 20
-19.11476999522141
 10
57.24094465077295
 20
-19.1013291618912
 10
57.17928054126093
 20
-19.11286499522189
 10
57.5014004774615
 20
-19.47202805068741
 10
57.91136352255803
 20
-19.67752110619175
 10
58.34199934490493
 20
-19.85045277281525
 10
58.36094351108829
 20
-19.85786110614663
 10
58.37988767727165
 20
-19.8649519394781
 10
58.39851434346311
 20
-19.87285416169861
 10
58.62450378214209
 20
-19.96743388389694
 10
58.62517405990276
 20
-19.96947999500751
 10
58.45086656434972
 20
-20.13295721718906
 10
58.56834156135268
 20
-20.20136082828314
 10
58.69442433591382
 20
-20.24062499493984
 10
58.82156544378129
 20
-20.26888249493283
 10
58.93904044078425
 20
-20.29452943937076
 10
58.92422377449559
 20
-20.34053166158148
 10
58.8615351649838
 20
-20.40893527267557
 10
58.76713331864181
 20
-20.51071166153889
 10
58.64136655948965
 20
-20.53036138375616
 10
58.5135551738615
 20
-20.53812249486563
 10
58.33028712298151
 20
-20.54912916152935
 10
58.14804212763097
 20
-20.53932193930963
 10
57.96854879887689
 20
-20.49487193932067
 10
57.93478796640487
 20
-20.48626416154496
 10
57.89414796744168
 20
-20.46661443932769
 10
57.8676190792296
 20
-20.496071383765
 10
57.83142408015301
 20
-20.53586471708834
 10
57.8717465791243
 20
-20.57220082819039
 10
57.89206657860589
 20
-20.60338638373802
 10
57.98714165216974
 20
-20.7518705503676
 10
58.04640831882147
 20
-20.92448471699117
 10
58.20074712628635
 20
-21.03215249474196
 10
58.27310184666265
 20
-21.08210582806278
 10
58.23486073652715
 20
-21.12757888360686
 10
58.17181934924658
 20
-21.15269666137847
 10
58.02231213083861
 20
-21.21249249469685
 10
57.88829185647997
 20
-21.16271555026491
 10
57.77286297053592
 20
-21.07296888362075
 10
57.52722381013603
 20
-20.88193971700174
 10
57.30123437145706
 20
-20.66903832816602
 10
57.14862270868384
 20
-20.39274277267959
 10
57.09489465449899
 20
-20.29488221714852
 10
57.02045854528691
 20
-20.25131416160396
 10
56.91296715914035
 20
-20.22563193938819
 10
56.56639827909317
 20
-20.14191777274221
 10
56.2157018991513
 20
-20.08730777275609
 10
55.86497024143254
 20
-20.03082805054797
 10
55.67549330182205
 20
-20.00017166166666
 10
55.4912021954126
 20
-20.05079527276516
 10
55.31548358878445
 20
-20.12004555052549
 10
55.22280886892655
 20
-20.15655805051642
 10
55.19490554175702
 20
-20.22185721716666
 10
55.27138636768724
 20
-20.30952249492273
 10
55.4370860856821
 20
-20.49952860598629
 10
55.62314108093545
 20
-20.65591499483605
 10
55.86292413037363
 20
-20.74996555036807
 10
56.18536301103642
 20
-20.87693027255868
 10
56.37621578394513
 20
-21.13703332804914
 10
56.50610855840907
 20
-21.44641943908272
 10
56.55122883503574
 20
-21.55355805016719
 10
56.49541939201511
 20
-21.64397499458903
 10
56.43650550462924
 20
-21.72892388345653
 10
56.39896995003129
 20
-21.78282832788777
 10
56.35864745106001
 20
-21.7871322167753
 10
56.31592606326103
 20
-21.73132277234486
 10
56.13092940131402
 20
-21.49224527240457
 10
55.86602857473887
 20
-21.38351916132082
 10
55.5979880260216
 20
-21.26519749468375
 10
54.69364221576005
 20
-20.865394439228
 10
53.78171168346978
 20
-20.47575138377005
 10
52.97797809286362
 20
-19.88389610614017
 10
52.77714170909849
 20
-19.73572943951052
 10
52.55527977031422
 20
-19.74952305061817
 10
52.33581672035763
 20
-19.80085221727187
 10
51.83765923306669
 20
-19.91712777279837
 10
51.40702341071979
 20
-20.18015888384379
 10
50.98326675486406
 20
-20.45215055044236
 10
50.17780455319089
 20
-20.96893471698013
 10
49.43675957209652
 20
-21.57317249460662
 10
48.67299570269287
 20
-22.14661277224107
 10
47.72113072697697
 20
-22.86148166095115
 10
46.7409729742051
 20
-23.53345277189436
 10
45.63649633571598
 20
-23.99904888288915
 10
45.36916134253627
 20
-24.11186721619435
 10
45.09078440519381
 20
-24.18337527173196
 10
44.80485802359951
 20
-24.23936110505128
 10
44.57816302938298
 20
-24.28412860504017
 10
44.36180554446511
 20
-24.38456443834844
 10
44.14339970714138
 20
-24.4669027716609
 10
43.11191387811103
 20
-24.85739249378574
 10
42.10663725910352
 20
-25.30905388256151
 10
41.11169811781987
 20
-25.78445721577602
 10
40.89121201233382
 20
-25.88990249352767
 10
40.68518979536767
 20
-26.0197599934951
 10
40.47987313393907
 20
-26.15102860457325
 10
40.41235146899502
 20
-26.19427916011821
 10
40.36825424789781
 20
-26.24578471566079
 10
40.3665256368308
 20
-26.33464943786087
 10
40.34550008181165
 20
-27.38659749315336
 10
40.13224592058555
 20
-28.41152277067503
 10
39.92608259251188
 20
-29.43697721486302
 10
39.76189981892276
 20
-30.25344610354786
 10
39.57277565708105
 20
-31.06494082556717
 10
39.36608316235422
 20
-31.87177888092086
 10
39.31164955263182
 20
-32.08468026975658
 10
39.31045010821798
 20
-32.29433610303741
 10
39.38707343959648
 20
-32.50102860298575
 10
39.4689178819529
 20
-32.72151471404174
 10
39.60600832343192
 20
-32.78783693624742
 10
39.82755276782087
 20
-32.71357721404371
 10
40.40166230260105
 20
-32.5213486029807
 10
40.98699117655696
 20
-32.37166499190712
 10
41.58159810583172
 20
-32.26159832526801
 10
41.70253032496871
 20
-32.23919693638465
 10
41.77523887844497
 20
-32.18822054750839
 10
41.82896587729862
 20
-32.07229776975966
 10
42.2516994776249
 20
-31.15690999221078
 10
42.76947140885988
 20
-30.29549721464849
 10
43.33585611663243
 20
-29.46209499263463
 10
43.45573000246308
 20
-29.2858824926784
 10
43.58114249926354
 20
-29.11259804827746
 10
43.68792832987253
 20
-28.92830693721248
 10
43.76441055014354
 20
-28.79548610391224
 10
43.88498999151174
 20
-28.75414054836713
 10
44.0145299882069
 20
-28.73382054837218
 10
44.20196081675847
 20
-28.70436360393487
 10
44.29428275884759
 20
-28.59740138173961
 10
44.36593192368633
 20
-28.42686860400444
 10
44.87580276655895
 20
-27.2141949931965
 10
45.3967132862778
 20
-26.00649554905377
 10
45.90933466208863
 20
-24.795056660468
 10
45.96239243851279
 20
-24.66911499383282
 10
46.01784910376464
 20
-24.64364443828345
 10
46.14876493375803
 20
-24.69306860493795
 10
47.14201074175156
 20
-25.07082304928778
 10
48.00328238644535
 20
-25.6511424935873
 10
48.77978153330187
 20
-26.36841027118571
 10
49.09812819184684
 20
-26.66192138222356
 10
49.39301512876809
 20
-26.97494110436732
 10
49.68208123250451
 20
-27.29582777095375
 10
49.77990650778656
 20
-27.40402471537118
 10
49.79885067396992
 20
-27.48410527090666
 10
49.70377706528433
 20
-27.60831832643119
 10
49.53497290292422
 20
-27.82947471526486
 10
49.38543040673937
 20
-28.0649538818725
 10
49.24558929919591
 20
-28.31920082625366
 10
49.44261568305823
 20
-28.22377443738843
 10
49.64451040012969
 20
-28.1364266596326
 10
49.83571595080718
 20
-28.03034638188142
 10
49.96560872527112
 20
-27.95848554856605
 10
50.05584927852445
 20
-27.97538360411722
 10
50.15575594264229
 20
-28.08149915964625
 10
50.33489649362758
 20
-28.27132888182092
 10
50.48235760097665
 20
-28.48303082621264
 10
50.61912954193175
 20
-28.70351693726863
 10
50.87408332061451
 20
-29.11467943716587
 10
51.09523841867409
 20
-29.54256360372539
 10
51.26989998718265
 20
-29.99418971472365
 10
51.29162980255262
 20
-30.05105749248738
 10
51.30986841319842
 20
-30.10961860358359
 10
51.32503785725586
 20
-30.16853249245788
 10
51.38014174473894
 20
-30.38400915907081
 10
51.37911868920948
 20
-30.38400915907081
 10
51.58926840607034
 20
-30.30703304797886
 10
52.17114005789222
 20
-30.09395527025425
 10
52.71339476628037
 20
-29.81247388143588
 10
53.17779142109929
 20
-29.39407943709583
 10
53.29770058470682
 20
-29.28641165934504
 10
53.39210391563172
 20
-29.17271138159575
 10
53.44032863662363
 20
-29.01322054830214
 10
53.61326029887844
 20
-28.44461332622219
 10
53.80206696072825
 20
-27.88098027080745
 10
53.97397556745361
 20
-27.31237304872749
 10
54.29472111482627
 20
-26.25284027121441
 10
54.94859470925567
 20
-25.45563304919156
 10
55.86602857473887
 20
-24.85379416045308
 10
56.4671971705129
 20
-24.45931804944063
 10
57.11831909834584
 20
-24.15995082729348
 10
57.75324998556138
 20
-23.82904527182061
 10
58.54904461740054
 20
-23.41442554970209
 10
59.30938654244704
 20
-22.94710082759666
 10
59.92949930440443
 20
-22.28426666109548
 10
60.15069096542803
 20
-22.04843471671008
 10
60.33533484960626
 20
-21.78815527233075
 10
60.4452251245805
 20
-21.48173249462965
 10
60.53550095561071
 20
-21.23023721691459
 10
60.54340317763133
 20
-20.98064693919937
 10
60.44349651351349
 20
-20.72396582815238
 10
60.26710762912466
 20
-20.27163416159891
 10
60.13689735466882
 20
-19.80790777282581
 10
60.20131457524762
 20
-19.3132074951718
 10
60.24505901857605
 20
-18.97764527303332
 10
60.38013762624102
 20
-18.69101332866054
 10
60.65399900814312
 20
-18.4796641620469
 10
60.73598609592742
 20
-18.41644638428475
 10
60.82523887368247
 20
-18.37562999540597
 10
60.92789720699052
 20
-18.35478082874469
 10
61.19695927206883
 20
-18.29999443986938
 10
61.46118982088331
 20
-18.22576999544351
 10
61.72026981427362
 20
-18.13464749546646
 10
62.34969590932674
 20
-17.91327943996607
 10
62.84062145235774
 20
-17.5196852733977
 10
63.2261017203011
 20
-16.97295027353446
 10
63.77975276183273
 20
-16.18816082928637
 10
64.40674307906932
 20
-15.4584752739132
 10
65.00413695271742
 20
-14.70712916299003
 10
65.08337083958487
 20
-14.60686971857063
 10
65.15847722655765
 20
-14.58118749635486
 10
65.27697527909007
 20
-14.62891832967623
 10
65.54293609472512
 20
-14.73690360742694
 10
65.78409332170796
 20
-14.88556416294539
 10
66.02112470454968
 20
-15.04385555179467
 10
66.0710780366086
 20
-15.07729888511959
 10
66.08176720300256
 20
-15.11691582955406
 10
66.06314053681109
 20
-15.17427749620658
 10
65.72828387868734
 20
-16.19916749595009
 10
65.49608555127787
 20
-17.25009249568745
 10
65.26561583493542
 20
-18.30242860653554
 10
65.00893473037279
 20
-19.47393305068694
 10
64.4811791882814
 20
-20.52947943931208
 10
63.82247253841974
 20
-21.52445388350764
 10
63.38319366073779
 20
-22.18711166111994
 10
62.85265276206493
 20
-22.77706193875029
 10
62.35417776218938
 20
-23.39304721637385
 10
61.10153288561447
 20
-24.94145943820916
 10
59.90332319396113
 20
-26.53241666003358
 10
58.69202544708613
 20
-28.11317860408268
 10
58.07328851842698
 20
-28.92001665943669
 10
57.49243992213455
 20
-29.75391277033935
 10
56.88266354880236
 20
-30.56625415902522
 10
56.80720438406081
 20
-30.66686638122206
 10
56.78688438457922
 20
-30.78882165896962
 10
56.7448685523178
 20
-30.90301582560771
 10
56.51471633596724
 20
-31.52743249211811
 10
56.1615857894208
 20
-32.05885693642977
 10
55.59696497049215
 20
-32.43421249189159
 10
54.9361769317947
 20
-32.8734561028926
 10
54.37808250158843
 20
-33.42879888053155
 10
53.84341387542818
 20
-34.00844804705339
 10
53.52644168998226
 20
-34.35226526918982
 10
53.23945832002378
 20
-34.72243499131939
 10
52.93045892740927
 20
-35.072284713454
 10
52.61832115759479
 20
-35.42626193558791
 10
52.23245283410578
 20
-35.70721415773995
 10
51.87074978777804
 20
-36.01106165766384
 10
51.64543062685974
 20
-36.20053860206108
 10
51.41185646615205
 20
-36.38056110201605
 10
51.18378563863728
 20
-36.56675721308055
 10
51.13280925104891
 20
-36.60845554640342
 10
51.07975276500773
 20
-36.65202360194797
 10
51.04390925331694
 20
-36.70592804637921
 10
50.72662220954038
 20
-37.18722276848085
 10
50.27358371741403
 20
-37.52451360172998
 10
49.81952345122029
 20
-37.86004054609062
 10
49.32895068595807
 20
-38.22248443488888
 10
48.82183264334017
 20
-38.56044554591537
 10
48.30921126752934
 20
-38.89117471249936
 10
48.04321682987098
 20
-39.06188387912341
 10
47.79863600277743
 20
-39.25996860129604
 10
47.62429443253823
 20
-39.53213665678349
 10
47.49993906595338
 20
-39.72676415673482
 10
47.44723406729799
 20
-39.93225721223916
 10
47.53818017608887
 20
-40.15362526773924
 10
47.57712684176193
 20
-40.24869887882669
 10
47.51027545457856
 20
-40.28210693437378
 10
47.45757045592318
 20
-40.32620415658497
 10
46.83054443273667
 20
-40.85194887867622
 10
46.18012687740237
 20
-41.34802498966312
 10
45.51591689434778
 20
-41.8255097117657
 10
44.83103413404281
 20
-42.31851665608723
 10
44.13031165191973
 20
-42.78739360041411
 10
43.39304139295128
 20
-43.1990852669783
 10
43.32689556130547
 20
-43.23559776696892
 10
43.2841741735065
 20
-43.28590387806717
 10
43.2538705631685
 20
-43.35377832249461
 10
42.79981029697476
 20
-44.36455721113087
 10
42.29198669881931
 20
-45.34848971088488
 10
41.73043610067824
 20
-46.30416471064622
 10
41.33151394554523
 20
-46.98350887714297
 10
40.86916340178522
 20
-47.62260109920575
 10
40.46988952308266
 20
-48.30162776570226
 10
39.99480370186977
 20
-49.10811304327883
 10
39.5737987126105
 20
-49.94218554307005
 10
39.22758261033211
 20
-50.81273526507437
 10
39.00296900495136
 20
-51.37876720937776
 10
38.92063067371866
 20
-51.98028859811599
 10
38.78452901052423
 20
-52.56801637574657
 10
38.54061943480922
 20
-53.62359804214955
 10
38.2798451345109
 20
-54.67261804188771
 10
37.84162459013528
 20
-55.66861554163872
 10
37.29781765956451
 20
-56.90436081910738
 10
36.50872434636262
 20
-57.96509304106414
 10
35.54821631531167
 20
-58.90700970749536
 10
35.01111304680274
 20
-59.43409498514132
 10
34.41237860250811
 20
-59.8912597072496
 10
33.87044138042121
 20
-60.41389998489667
 10
33.10099776950254
 20
-61.15526248471092
 10
32.41318693634112
 20
-61.95934887339885
 10
31.93153943646171
 20
-62.92052720649237
 10
31.71451054762701
 20
-63.35359720638352
 10
31.57876165877213
 20
-63.81418387293557
 10
31.52348138100801
 20
-64.30062915059163
 10
31.48661610323932
 20
-64.62758359495407
 10
31.6211655476502
 20
-64.8952713726648
 10
31.75190499206203
 20
-65.16881526148546
 10
31.90398749202393
 20
-65.48712665029468
 10
32.02527249199381
 20
-65.81475137243513
 10
32.06023276976265
 20
-66.16752915012472
 10
32.08605610308946
 20
-66.42900803894837
 10
32.04749749198829
 20
-66.67637581666413
 10
31.8493774920375
 20
-66.871708872171
 10
31.79462638094034
 20
-66.92578970549079
 10
31.73327832539988
 20
-66.97196831659039
 10
31.64751804764365
 20
-66.95852748326051
 10
31.08889443667229
 20
-66.86930998328299
 10
30.59228915901875
 20
-67.04774498323803
 10
30.12478804802444
 20
-67.32749776094575
 10
29.63125193703659
 20
-67.62171442753912
 10
29.20682499269835
 20
-67.99756387188943
 10
28.8631841594508
 20
-68.46093748288477
 10
28.22430360405508
 20
-69.32185637155825
 10
27.55885888199917
 20
-70.16213776023719
 10
26.90240999327426
 20
-71.00996859335854
 10
26.82317610440534
 20
-71.11227414888883
 10
26.74736415997987
 20
-71.13707442666019
 10
26.62957166000912
 20
-71.09470581555964
 10
26.35789749341047
 20
-70.99825637113929
 10
26.12227721569179
 20
-70.83943581562369
 10
25.88591610463974
 20
-70.68061526010743
 10
25.82978916020938
 20
-70.64304442678355
 10
25.82442693798824
 20
-70.59725387123986
 10
25.84580527131648
 20
-70.53590581569908
 10
26.22941582677593
 20
-69.44176553819524
 10
26.51982249336993
 20
-68.32106109403058
 10
26.79784665996733
 20
-67.19658192764504
 10
27.01007777102537
 20
-66.3394377611931
 10
27.40003832648324
 20
-65.55948137249918
 10
27.8191383263785
 20
-64.79017887269123
 10
28.2020786040606
 20
-64.08843331731111
 10
28.68799471505034
 20
-63.45315109524804
 10
29.10571888161239
 20
-62.77377165097312
 10
29.71274360368281
 20
-61.78641720677535
 10
30.24328610355039
 20
-60.75598859592213
 10
30.78194249230456
 20
-59.73106331840047
 10
31.84560276981628
 20
-57.70742415223954
 10
32.87465554733693
 20
-55.66586387497231
 10
33.89785221374763
 20
-53.62151665326115
 10
34.12521749146869
 20
-53.16745637559704
 10
34.34898443585709
 20
-52.71134998682205
 10
34.57137554691261
 20
-52.25450276471401
 10
34.78427693574833
 20
-51.81836359815621
 10
34.9100069357171
 20
-51.36638470938051
 10
34.84421388017774
 20
-50.87097887617097
 10
34.814404157963
 20
-50.64774109844922
 10
34.9039744357186
 20
-50.430006654059
 10
34.93981665793184
 20
-50.21019082078101
 10
35.00680915791489
 20
-49.79920470977234
 10
35.06021971345731
 20
-49.3861372098759
 10
35.11052582455557
 20
-48.97271693220106
 10
35.11842804677608
 20
-48.90794693221714
 10
35.13066943566164
 20
-48.84113082112299
 10
35.15617526898886
 20
-48.78186415447126
 10
35.38766715274095
 20
-48.23788082127411
 10
35.5418310376968
 20
-47.66839165474943
 10
35.69723054663136
 20
-47.10031359933579
 10
35.75769575441185
 20
-46.87947471050204
 10
35.74647742136472
 20
-46.64660609944945
 10
35.75614443550533
 20
-46.41853526617287
 10
35.75818964328813
 20
-46.37408526618455
 10
35.75183964345014
 20
-46.33034082175048
 10
35.69754714483526
 20
-46.33034082175048
 10
35.2838093776128
 20
-46.33206943286112
 10
34.90845471349501
 20
-46.14534415513062
 10
34.50642915804013
 20
-46.08847637736689
 10
34.04390221371136
 20
-46.02370637738298
 10
33.58380943604843
 20
-46.0685091551497
 10
33.12526888060759
 20
-46.12639998846855
 10
33.01537860285735
 20
-46.14015832179803
 10
32.92736054732384
 20
-46.11535804402666
 10
32.83934249179033
 20
-46.05609137737493
 10
32.6030166585158
 20
-45.8955774885262
 10
32.37113582524049
 20
-45.73121832190025
 10
32.20663554750382
 20
-45.49143526640507
 10
32.15876360307141
 20
-45.42116193308898
 10
32.08898415864444
 20
-45.41117832198039
 10
32.01751138088466
 20
-45.42564221086604
 10
30.97004360336859
 20
-45.64027221081209
 10
30.08566499247846
 20
-45.23997526646753
 10
29.2037205482545
 20
-44.7387133221487
 10
28.49869415954198
 20
-44.33802832224886
 10
28.16263804851501
 20
-43.71068360018349
 10
27.91837471524278
 20
-42.99549721147349
 10
27.82002027082291
 20
-42.70745415598966
 10
27.74128027084247
 20
-42.41256721161893
 10
27.64825277086557
 20
-42.12247804502485
 10
27.61279860420792
 20
-42.01121193394173
 10
27.63932749309026
 20
-41.95642554506641
 10
27.75627332639412
 20
-41.92682748951839
 10
28.16934082629088
 20
-41.82000637843417
 10
28.57965665952187
 20
-41.70217860068558
 10
28.99290054830719
 20
-41.5960983229344
 10
29.10279082605774
 20
-41.56851110071911
 10
29.13207138160585
 20
-41.52441387850791
 10
29.09848693716989
 20
-41.41660498964608
 10
29.04112527051736
 20
-41.2326313785807
 10
28.99649888163984
 20
-41.04417748973891
 10
28.9413949927646
 20
-40.85953360089616
 10
28.91056221499473
 20
-40.75616971203323
 10
28.93000027054528
 20
-40.70656915648986
 10
29.04938027051531
 20
-40.71136693426651
 10
30.02967915915914
 20
-40.74791471203528
 10
30.97776943669989
 20
-40.54224526764207
 10
31.92346082535232
 20
-40.32242943436408
 10
32.93339304732234
 20
-40.088326101089
 10
33.92420471374109
 20
-39.78567804560912
 10
34.91293499127175
 20
-39.47682110124185
 10
35.32480215434477
 20
-39.34798665682955
 10
35.73130797730727
 20
-39.2029597124216
 10
36.14024796687435
 20
-39.0646355457895
 10
36.17746602148039
 20
-39.05204137912585
 10
36.23189963120279
 20
-39.05084193468185
 10
36.2405083242733
 20
-39.00762665691473
 10
36.25119657515493
 20
-38.95213471248422
 10
36.18970832428592
 20
-38.93802360137664
 10
36.15559379981618
 20
-38.91287054582719
 10
35.27432054673704
 20
-38.26277165710103
 10
34.45732249138555
 20
-37.53929499061523
 10
33.69786249157548
 20
-36.75108360192337
 10
33.20400888058803
 20
-36.23860332427378
 10
32.72874665848457
 20
-35.70926026885052
 10
32.30001582525847
 20
-35.14065304677025
 10
32.17495610306738
 20
-34.97512971347845
 10
31.99355776977954
 20
-34.87606971350306
 10
31.84214554759499
 20
-34.74137915798146
 10
31.12505415888547
 20
-34.10387443591861
 10
30.62414499234407
 20
-33.33062082500056
 10
30.35730388129959
 20
-32.40750721412038
 10
30.30047138131371
 20
-32.20938721416991
 10
30.30237638131324
 20
-32.00975026977519
 10
30.31235999242183
 20
-31.80425721427117
 10
30.34403943685859
 20
-31.16001443665431
 10
30.35885610352136
 20
-30.51527777014896
 10
30.3826333257376
 20
-29.87071749253217
 10
30.38661971462554
 20
-29.77010527033533
 10
30.36076110352089
 20
-29.68275749257918
 10
30.31373582575504
 20
-29.59526860371231
 10
30.06001804804053
 20
-29.12328721494125
 10
29.74339999256411
 20
-28.69455638171516
 10
29.41577527042398
 20
-28.27288110404301
 10
28.92587277054631
 20
-27.64327860420035
 10
28.48472415954545
 20
-26.97801027103333
 10
28.02120943743907
 20
-26.32914610452869
 10
27.11185415988869
 20
-25.05618277151389
 10
26.22405360455511
 20
-23.76720332739167
 10
25.26065277146246
 20
-22.53297499436662
 10
25.02965388263155
 20
-22.23671221666299
 10
24.7466202715911
 20
-21.98556971672569
 10
24.5344244383109
 20
-21.67187971680425
 10
24.06484193842818
 20
-20.9782127725332
 10
23.72275332740271
 20
-20.21875277272312
 10
23.37530249415611
 20
-19.46133888402361
 10
22.82221749429445
 20
-18.2557208287693
 10
22.37485999440621
 20
-17.00568805130418
 10
21.82071666121158
 20
-15.80077555160539
 10
21.55959055016569
 20
-15.23248582952535
 10
21.28604666134503
 20
-14.67093416299902
 10
20.9375727725433
 20
-14.14952860757379
 10
20.798543050356
 20
-13.94160138540361
 10
20.64455555039457
 20
-13.74746777434075
 10
20.45871221710751
 20
-13.57919277438287
 10
20.29713999492581
 20
-13.43293110775275
 10
20.11556527274876
 20
-13.36696166332483
 10
19.89095166169379
 20
-13.36851388554692
 10
19.04068666190659
 20
-13.37472277443398
 10
18.21800888433436
 20
-13.24313666335591
 10
17.42217749564439
 20
-12.91515916343801
 10
17.03807305129614
 20
-12.75718527458833
 10
16.63516555139685
 20
-12.60958305240316
 10
16.20417694039347
 20
-12.60887749684763
 10
16.11323082930499
 20
-12.60870110795907
 10
16.02090888488361
 20
-12.61162916351372
 10
15.93080944046169
 20
-12.62506999684361
 10
15.76285194050373
 20
-12.65039944128194
 10
15.74461332939718
 20
-12.6338541635082
 10
15.7725180516124
 20
-12.46780166354977
 10
15.79195610716327
 20
-12.35085583024559
 10
15.85760805159127
 20
-12.27437360804244
 10
15.96527582934205
 20
-12.23320444138621
 10
16.39986277367777
 20
-12.06697555253889
 10
16.83480249579125
 20
-11.99462083033471
 10
17.27972582901332
 20
-12.20512333028211
 10
17.57962221782743
 20
-12.34669305246877
 10
17.84988527331536
 20
-12.21493055250182
 10
18.10106305103018
 20
-12.07022110809346
 10
18.21455166211307
 20
-12.00460444144331
 10
18.16011805101551
 20
-11.87111333036571
 10
18.09312555103216
 20
-11.78602333038685
 10
17.98048360661615
 20
-11.64286610820025
 10
17.86283221775645
 20
-11.50111999712471
 10
17.71036166223894
 20
-11.39638027492857
 10
17.55122360672341
 20
-11.28698388606714
 10
17.38637055120898
 20
-11.18640694164782
 10
17.22804388458185
 20
-11.07581110834206
 10
17.10009138461396
 20
-10.98624083058678
 10
16.95866277353801
 20
-10.94041499726494
 10
16.80792082913147
 20
-10.90718333060642
 10
16.25603527371382
 20
-10.78642749730351
 10
15.71445082940468
 20
-10.63191083067544
 10
15.19650249620074
 20
-10.40299333073262
 10
14.97291194070122
 20
-10.3041097196461
 10
14.75775277408821
 20
-10.18991555300801
 10
14.57653082968924
 20
-10.02111138638349
 10
14.47785888526945
 20
-9.929283330850918
 10
14.42772916305975
 20
-9.817488053101158
 10
14.43358527416937
 20
-9.681915553135152
 10
14.43700721861282
 20
-9.601305830933024
 10
14.47182638527095
 20
-9.564793330942093
 10
14.55000194080691
 20
-9.609560830930974
 10
15.05711999623568
 20
-9.900673053080496
 10
15.61884805165089
 20
-9.939266941959513
 10
16.18505638484252
 20
-9.956835275288697
 97
        0
 75
     0
 76
     1
 98
        0
  0
ENDSEC
  0
SECTION
  2
OBJECTS
  0
DICTIONARY
  5
C
330
0
100
AcDbDictionary
281
     1
  3
ACAD_GROUP
350
D
  3
ACAD_LAYOUT
350
1A
  3
ACAD_MATERIAL
350
3B
  3
ACAD_MLEADERSTYLE
350
64
  3
ACAD_MLINESTYLE
350
17
  3
ACAD_PLOTSETTINGS
350
19
  3
ACAD_PLOTSTYLENAME
350
E
  3
ACAD_TABLESTYLE
350
63
  3
ACAD_VISUALSTYLE
350
2A
  0
SUN
  5
3F
330
29
100
AcDbSun
 90
        1
290
     0
 63
     7
421
 16777215
 40
1.0
291
     1
 91
  2455826
 92
 54000000
292
     0
 70
     2
 71
   256
280
     1
  0
DICTIONARY
  5
D
102
{ACAD_REACTORS
330
C
102
}
330
C
100
AcDbDictionary
281
     1
  0
DICTIONARY
  5
1A
102
{ACAD_REACTORS
330
C
102
}
330
C
100
AcDbDictionary
281
     1
  3
Layout1
350
1E
  3
Layout2
350
26
  3
Model
350
22
  0
DICTIONARY
  5
3B
102
{ACAD_REACTORS
330
C
102
}
330
C
100
AcDbDictionary
281
     1
  3
ByBlock
350
3D
  3
ByLayer
350
3C
  3
Global
350
3E
  0
DICTIONARY
  5
64
102
{ACAD_REACTORS
330
C
102
}
330
C
100
AcDbDictionary
281
     1
  0
DICTIONARY
  5
17
102
{ACAD_REACTORS
330
C
102
}
330
C
100
AcDbDictionary
281
     1
  3
Standard
350
18
  0
DICTIONARY
  5
19
102
{ACAD_REACTORS
330
C
102
}
330
C
100
AcDbDictionary
281
     1
  0
ACDBDICTIONARYWDFLT
  5
E
102
{ACAD_REACTORS
330
C
102
}
330
C
100
AcDbDictionary
281
     1
  3
Normal
350
F
100
AcDbDictionaryWithDefault
340
F
  0
DICTIONARY
  5
63
102
{ACAD_REACTORS
330
C
102
}
330
C
100
AcDbDictionary
281
     1
  0
DICTIONARY
  5
2A
102
{ACAD_REACTORS
330
C
102
}
330
C
100
AcDbDictionary
281
     1
  3
2dWireframe
350
2F
  3
3D Hidden
350
31
  3
3dWireframe
350
30
  3
Basic
350
32
  3
Brighten
350
36
  3
ColorChange
350
3A
  3
Conceptual
350
34
  3
Dim
350
35
  3
Facepattern
350
39
  3
Flat
350
2B
  3
FlatWithEdges
350
2C
  3
Gouraud
350
2D
  3
GouraudWithEdges
350
2E
  3
Linepattern
350
38
  3
Realistic
350
33
  3
Thicken
350
37
  0
LAYOUT
  5
1E
102
{ACAD_REACTORS
330
1A
102
}
330
1A
100
AcDbPlotSettings
  1

  2
none_device
  4

  6

 40
0.0
 41
0.0
 42
0.0
 43
0.0
 44
0.0
 45
0.0
 46
0.0
 47
0.0
 48
0.0
 49
0.0
140
0.0
141
0.0
142
1.0
143
1.0
 70
   688
 72
     0
 73
     0
 74
     5
  7

 75
    16
 76
     0
 77
     2
 78
   300
147
1.0
148
0.0
149
0.0
100
AcDbLayout
  1
Layout1
 70
     1
 71
     1
 10
0.0
 20
0.0
 11
12.0
 21
9.0
 12
0.0
 22
0.0
 32
0.0
 14
1.000000000000000E+20
 24
1.000000000000000E+20
 34
1.000000000000000E+20
 15
-1.000000000000000E+20
 25
-1.000000000000000E+20
 35
-1.000000000000000E+20
146
0.0
 13
0.0
 23
0.0
 33
0.0
 16
1.0
 26
0.0
 36
0.0
 17
0.0
 27
1.0
 37
0.0
 76
     0
330
1B
  0
LAYOUT
  5
26
102
{ACAD_REACTORS
330
1A
102
}
330
1A
100
AcDbPlotSettings
  1

  2
none_device
  4

  6

 40
0.0
 41
0.0
 42
0.0
 43
0.0
 44
0.0
 45
0.0
 46
0.0
 47
0.0
 48
0.0
 49
0.0
140
0.0
141
0.0
142
1.0
143
1.0
 70
   688
 72
     0
 73
     0
 74
     5
  7

 75
    16
 76
     0
 77
     2
 78
   300
147
1.0
148
0.0
149
0.0
100
AcDbLayout
  1
Layout2
 70
     1
 71
     2
 10
0.0
 20
0.0
 11
0.0
 21
0.0
 12
0.0
 22
0.0
 32
0.0
 14
0.0
 24
0.0
 34
0.0
 15
0.0
 25
0.0
 35
0.0
146
0.0
 13
0.0
 23
0.0
 33
0.0
 16
1.0
 26
0.0
 36
0.0
 17
0.0
 27
1.0
 37
0.0
 76
     0
330
23
  0
LAYOUT
  5
22
102
{ACAD_REACTORS
330
1A
102
}
330
1A
100
AcDbPlotSettings
  1

  2
none_device
  4

  6

 40
0.0
 41
0.0
 42
0.0
 43
0.0
 44
0.0
 45
0.0
 46
0.0
 47
0.0
 48
0.0
 49
0.0
140
0.0
141
0.0
142
1.0
143
1.0
 70
  1712
 72
     0
 73
     0
 74
     0
  7

 75
     0
 76
     0
 77
     2
 78
   300
147
1.0
148
0.0
149
0.0
100
AcDbLayout
  1
Model
 70
     1
 71
     0
 10
0.0
 20
0.0
 11
12.0
 21
9.0
 12
0.0
 22
0.0
 32
0.0
 14
1.000000000000000E+20
 24
1.000000000000000E+20
 34
1.000000000000000E+20
 15
-1.000000000000000E+20
 25
-1.000000000000000E+20
 35
-1.000000000000000E+20
146
0.0
 13
0.0
 23
0.0
 33
0.0
 16
1.0
 26
0.0
 36
0.0
 17
0.0
 27
1.0
 37
0.0
 76
     0
330
1F
331
29
  0
MATERIAL
  5
3D
102
{ACAD_REACTORS
330
3B
102
}
330
3B
100
AcDbMaterial
  1
ByBlock
 72
     1
 94
      127
  0
MATERIAL
  5
3C
102
{ACAD_REACTORS
330
3B
102
}
330
3B
100
AcDbMaterial
  1
ByLayer
 72
     1
 94
      127
  0
MATERIAL
  5
3E
102
{ACAD_REACTORS
330
3B
102
}
330
3B
100
AcDbMaterial
  1
Global
 72
     1
 94
      127
  0
MLINESTYLE
  5
18
102
{ACAD_REACTORS
330
17
102
}
330
17
100
AcDbMlineStyle
  2
Standard
 70
     0
  3

 62
   256
 51
90.0
 52
90.0
 71
     2
 49
0.5
 62
   256
  6
BYLAYER
 49
-0.5
 62
   256
  6
BYLAYER
  0
ACDBPLACEHOLDER
  5
F
102
{ACAD_REACTORS
330
E
102
}
330
E
  0
VISUALSTYLE
  5
2F
102
{ACAD_REACTORS
330
2A
102
}
102
{ACAD_XDICTIONARY
360
4B
102
}
330
2A
100
AcDbVisualStyle
  2
2dWireframe
 70
     4
 71
     0
 72
     2
 73
     0
 90
        0
 40
-0.6
 41
-30.0
 62
     5
 63
     7
421
 16777215
 74
     1
 91
        4
 64
     7
 65
   257
 75
     1
175
     1
 42
1.0
 92
        0
 66
   257
 43
1.0
 76
     1
 77
     6
 78
     2
 67
     7
 79
     5
170
     0
171
     0
290
     0
174
     0
 93
        1
 44
0.0
173
     0
291
     0
 45
0.0
  0
VISUALSTYLE
  5
31
102
{ACAD_REACTORS
330
2A
102
}
102
{ACAD_XDICTIONARY
360
4F
102
}
330
2A
100
AcDbVisualStyle
  2
3D Hidden
 70
     6
 71
     1
 72
     2
 73
     2
 90
        0
 40
-0.6
 41
-30.0
 62
     5
 63
     7
421
 16777215
 74
     2
 91
        2
 64
     7
 65
   257
 75
     2
175
     1
 42
40.0
 92
        0
 66
   257
 43
1.0
 76
     1
 77
     6
 78
     2
 67
     7
 79
     3
170
     0
171
     0
290
     0
174
     0
 93
        1
 44
0.0
173
     0
291
     0
 45
0.0
  0
VISUALSTYLE
  5
30
102
{ACAD_REACTORS
330
2A
102
}
102
{ACAD_XDICTIONARY
360
4D
102
}
330
2A
100
AcDbVisualStyle
  2
3dWireframe
 70
     5
 71
     0
 72
     2
 73
     0
 90
        0
 40
-0.6
 41
-30.0
 62
     5
 63
     7
421
 16777215
 74
     1
 91
        4
 64
     7
 65
   257
 75
     1
175
     1
 42
1.0
 92
        0
 66
   257
 43
1.0
 76
     1
 77
     6
 78
     2
 67
     7
 79
     5
170
     0
171
     0
290
     0
174
     0
 93
        1
 44
0.0
173
     0
291
     0
 45
0.0
  0
VISUALSTYLE
  5
32
102
{ACAD_REACTORS
330
2A
102
}
102
{ACAD_XDICTIONARY
360
51
102
}
330
2A
100
AcDbVisualStyle
  2
Basic
 70
     7
 71
     1
 72
     0
 73
     1
 90
        0
 40
-0.6
 41
-30.0
 62
     5
 63
     7
421
 16777215
 74
     0
 91
        4
 64
     7
 65
   257
 75
     1
175
     1
 42
1.0
 92
        8
 66
     7
 43
1.0
 76
     1
 77
     6
 78
     2
 67
     7
 79
     5
170
     0
171
     0
290
     0
174
     0
 93
        1
 44
0.0
173
     0
291
     1
 45
0.0
  0
VISUALSTYLE
  5
36
102
{ACAD_REACTORS
330
2A
102
}
102
{ACAD_XDICTIONARY
360
59
102
}
330
2A
100
AcDbVisualStyle
  2
Brighten
 70
    12
 71
     2
 72
     2
 73
     0
 90
        0
 40
-0.6
 41
-30.0
 62
     5
 63
     7
421
 16777215
 74
     1
 91
        4
 64
     7
 65
   257
 75
     1
175
     1
 42
1.0
 92
        8
 66
     7
 43
1.0
 76
     1
 77
     6
 78
     2
 67
     7
 79
     5
170
     0
171
     0
290
     0
174
     0
 93
        1
 44
50.0
173
     0
291
     1
 45
0.0
  0
VISUALSTYLE
  5
3A
102
{ACAD_REACTORS
330
2A
102
}
102
{ACAD_XDICTIONARY
360
61
102
}
330
2A
100
AcDbVisualStyle
  2
ColorChange
 70
    16
 71
     2
 72
     2
 73
     3
 90
        0
 40
-0.6
 41
-30.0
 62
     5
 63
     8
421
  8421504
 74
     1
 91
        4
 64
     7
 65
   257
 75
     1
175
     1
 42
1.0
 92
        8
 66
     8
424
  8421504
 43
1.0
 76
     1
 77
     6
 78
     2
 67
     7
 79
     5
170
     0
171
     0
290
     0
174
     0
 93
        1
 44
0.0
173
     0
291
     1
 45
0.0
  0
VISUALSTYLE
  5
34
102
{ACAD_REACTORS
330
2A
102
}
102
{ACAD_XDICTIONARY
360
55
102
}
330
2A
100
AcDbVisualStyle
  2
Conceptual
 70
     9
 71
     3
 72
     2
 73
     0
 90
        0
 40
-0.6
 41
-30.0
 62
     5
 63
     7
421
 16777215
 74
     2
 91
        2
 64
     7
 65
   257
 75
     1
175
     1
 42
40.0
 92
        8
 66
     7
 43
1.0
 76
     1
 77
     6
 78
     2
 67
     7
 79
     3
170
     0
171
     0
290
     0
174
     0
 93
        1
 44
0.0
173
     0
291
     0
 45
0.0
  0
VISUALSTYLE
  5
35
102
{ACAD_REACTORS
330
2A
102
}
102
{ACAD_XDICTIONARY
360
57
102
}
330
2A
100
AcDbVisualStyle
  2
Dim
 70
    11
 71
     2
 72
     2
 73
     0
 90
        0
 40
-0.6
 41
-30.0
 62
     5
 63
     7
421
 16777215
 74
     1
 91
        4
 64
     7
 65
   257
 75
     1
175
     1
 42
1.0
 92
        8
 66
     7
 43
1.0
 76
     1
 77
     6
 78
     2
 67
     7
 79
     5
170
     0
171
     0
290
     0
174
     0
 93
        1
 44
-50.0
173
     0
291
     1
 45
0.0
  0
VISUALSTYLE
  5
39
102
{ACAD_REACTORS
330
2A
102
}
102
{ACAD_XDICTIONARY
360
5F
102
}
330
2A
100
AcDbVisualStyle
  2
Facepattern
 70
    15
 71
     2
 72
     2
 73
     0
 90
        0
 40
-0.6
 41
-30.0
 62
     5
 63
     7
421
 16777215
 74
     1
 91
        4
 64
     7
 65
   257
 75
     1
175
     1
 42
1.0
 92
        8
 66
     7
 43
1.0
 76
     1
 77
     6
 78
     2
 67
     7
 79
     5
170
     0
171
     0
290
     0
174
     0
 93
        1
 44
0.0
173
     0
291
     1
 45
0.0
  0
VISUALSTYLE
  5
2B
102
{ACAD_REACTORS
330
2A
102
}
102
{ACAD_XDICTIONARY
360
43
102
}
330
2A
100
AcDbVisualStyle
  2
Flat
 70
     0
 71
     2
 72
     1
 73
     1
 90
        2
 40
-0.6
 41
30.0
 62
     5
 63
     7
421
 16777215
 74
     0
 91
        4
 64
     7
 65
   257
 75
     1
175
     1
 42
1.0
 92
        8
 66
     7
 43
1.0
 76
     1
 77
     6
 78
     2
 67
     7
 79
     5
170
     0
171
     0
290
     0
174
     0
 93
       13
 44
0.0
173
     0
291
     1
 45
0.0
  0
VISUALSTYLE
  5
2C
102
{ACAD_REACTORS
330
2A
102
}
102
{ACAD_XDICTIONARY
360
45
102
}
330
2A
100
AcDbVisualStyle
  2
FlatWithEdges
 70
     1
 71
     2
 72
     1
 73
     1
 90
        2
 40
-0.6
 41
30.0
 62
     5
 63
     7
421
 16777215
 74
     1
 91
        4
 64
     7
 65
   257
 75
     1
175
     1
 42
1.0
 92
        0
 66
   257
 43
1.0
 76
     1
 77
     6
 78
     2
 67
     7
 79
     5
170
     0
171
     0
290
     0
174
     0
 93
       13
 44
0.0
173
     0
291
     1
 45
0.0
  0
VISUALSTYLE
  5
2D
102
{ACAD_REACTORS
330
2A
102
}
102
{ACAD_XDICTIONARY
360
47
102
}
330
2A
100
AcDbVisualStyle
  2
Gouraud
 70
     2
 71
     2
 72
     2
 73
     1
 90
        2
 40
-0.6
 41
30.0
 62
     5
 63
     7
421
 16777215
 74
     0
 91
        4
 64
     7
 65
   257
 75
     1
175
     1
 42
1.0
 92
        0
 66
     7
 43
1.0
 76
     1
 77
     6
 78
     2
 67
     7
 79
     5
170
     0
171
     0
290
     0
174
     0
 93
       13
 44
0.0
173
     0
291
     1
 45
0.0
  0
VISUALSTYLE
  5
2E
102
{ACAD_REACTORS
330
2A
102
}
102
{ACAD_XDICTIONARY
360
49
102
}
330
2A
100
AcDbVisualStyle
  2
GouraudWithEdges
 70
     3
 71
     2
 72
     2
 73
     1
 90
        2
 40
-0.6
 41
30.0
 62
     5
 63
     7
421
 16777215
 74
     1
 91
        4
 64
     7
 65
   257
 75
     1
175
     1
 42
1.0
 92
        0
 66
   257
 43
1.0
 76
     1
 77
     6
 78
     2
 67
     7
 79
     5
170
     0
171
     0
290
     0
174
     0
 93
       13
 44
0.0
173
     0
291
     1
 45
0.0
  0
VISUALSTYLE
  5
38
102
{ACAD_REACTORS
330
2A
102
}
102
{ACAD_XDICTIONARY
360
5D
102
}
330
2A
100
AcDbVisualStyle
  2
Linepattern
 70
    14
 71
     2
 72
     2
 73
     0
 90
        0
 40
-0.6
 41
-30.0
 62
     5
 63
     7
421
 16777215
 74
     1
 91
        4
 64
     7
 65
   257
 75
     7
175
     7
 42
1.0
 92
        8
 66
     7
 43
1.0
 76
     1
 77
     6
 78
     2
 67
     7
 79
     5
170
     0
171
     0
290
     0
174
     0
 93
        1
 44
0.0
173
     0
291
     1
 45
0.0
  0
VISUALSTYLE
  5
33
102
{ACAD_REACTORS
330
2A
102
}
102
{ACAD_XDICTIONARY
360
53
102
}
330
2A
100
AcDbVisualStyle
  2
Realistic
 70
     8
 71
     2
 72
     2
 73
     0
 90
        0
 40
-0.6
 41
-30.0
 62
     5
 63
     7
421
 16777215
 74
     1
 91
        0
 64
     7
 65
   257
 75
     1
175
     1
 42
1.0
 92
        8
 66
     8
424
  7895160
 43
1.0
 76
     1
 77
     6
 78
     2
 67
     7
 79
     5
170
     0
171
     0
290
     0
174
     0
 93
       13
 44
0.0
173
     0
291
     0
 45
0.0
  0
VISUALSTYLE
  5
37
102
{ACAD_REACTORS
330
2A
102
}
102
{ACAD_XDICTIONARY
360
5B
102
}
330
2A
100
AcDbVisualStyle
  2
Thicken
 70
    13
 71
     2
 72
     2
 73
     0
 90
        0
 40
-0.6
 41
-30.0
 62
     5
 63
     7
421
 16777215
 74
     1
 91
        4
 64
     7
 65
   257
 75
     1
175
     1
 42
1.0
 92
       12
 66
     7
 43
1.0
 76
     1
 77
     6
 78
     2
 67
     7
 79
     5
170
     0
171
     0
290
     0
174
     0
 93
        1
 44
0.0
173
     0
291
     1
 45
0.0
  0
DICTIONARY
  5
4B
330
2F
100
AcDbDictionary
280
     1
281
     1
  3
ACAD_XREC_ROUNDTRIP
360
4C
  0
DICTIONARY
  5
4F
330
31
100
AcDbDictionary
280
     1
281
     1
  3
ACAD_XREC_ROUNDTRIP
360
50
  0
DICTIONARY
  5
4D
330
30
100
AcDbDictionary
280
     1
281
     1
  3
ACAD_XREC_ROUNDTRIP
360
4E
  0
DICTIONARY
  5
51
330
32
100
AcDbDictionary
280
     1
281
     1
  3
ACAD_XREC_ROUNDTRIP
360
52
  0
DICTIONARY
  5
59
330
36
100
AcDbDictionary
280
     1
281
     1
  3
ACAD_XREC_ROUNDTRIP
360
5A
  0
DICTIONARY
  5
61
330
3A
100
AcDbDictionary
280
     1
281
     1
  3
ACAD_XREC_ROUNDTRIP
360
62
  0
DICTIONARY
  5
55
330
34
100
AcDbDictionary
280
     1
281
     1
  3
ACAD_XREC_ROUNDTRIP
360
56
  0
DICTIONARY
  5
57
330
35
100
AcDbDictionary
280
     1
281
     1
  3
ACAD_XREC_ROUNDTRIP
360
58
  0
DICTIONARY
  5
5F
330
39
100
AcDbDictionary
280
     1
281
     1
  3
ACAD_XREC_ROUNDTRIP
360
60
  0
DICTIONARY
  5
43
330
2B
100
AcDbDictionary
280
     1
281
     1
  3
ACAD_XREC_ROUNDTRIP
360
44
  0
DICTIONARY
  5
45
330
2C
100
AcDbDictionary
280
     1
281
     1
  3
ACAD_XREC_ROUNDTRIP
360
46
  0
DICTIONARY
  5
47
330
2D
100
AcDbDictionary
280
     1
281
     1
  3
ACAD_XREC_ROUNDTRIP
360
48
  0
DICTIONARY
  5
49
330
2E
100
AcDbDictionary
280
     1
281
     1
  3
ACAD_XREC_ROUNDTRIP
360
4A
  0
DICTIONARY
  5
5D
330
38
100
AcDbDictionary
280
     1
281
     1
  3
ACAD_XREC_ROUNDTRIP
360
5E
  0
DICTIONARY
  5
53
330
33
100
AcDbDictionary
280
     1
281
     1
  3
ACAD_XREC_ROUNDTRIP
360
54
  0
DICTIONARY
  5
5B
330
37
100
AcDbDictionary
280
     1
281
     1
  3
ACAD_XREC_ROUNDTRIP
360
5C
  0
XRECORD
  5
4C
102
{ACAD_REACTORS
330
4B
102
}
330
4B
100
AcDbXrecord
280
     1
102
RTVSPropertyOp0
 70
     1
102
RTVSPropertyOp1
 70
     1
102
RTVSPropertyOp2
 70
     1
102
RTVSPropertyOp3
 70
     1
102
RTVSPropertyOp4
 70
     1
102
RTVSPropertyOp5
 70
     1
102
RTVSPropertyOp6
 70
     1
102
RTVSPropertyOp7
 70
     1
102
RTVSPropertyOp8
 70
     1
102
RTVSPropertyOp9
 70
     1
102
RTVSPropertyOp10
 70
     1
102
RTVSPropertyOp11
 70
     1
102
RTVSPropertyOp12
 70
     1
102
RTVSPropertyOp13
 70
     1
102
RTVSPropertyOp14
 70
     1
102
RTVSPropertyOp15
 70
     1
102
RTVSPropertyOp16
 70
     1
102
RTVSPropertyOp17
 70
     1
102
RTVSPropertyOp18
 70
     1
102
RTVSPropertyOp19
 70
     1
102
RTVSPropertyOp20
 70
     1
102
RTVSPropertyOp21
 70
     1
102
RTVSPropertyOp22
 70
     1
102
RTVSPropertyOp23
 70
     1
102
RTVSPropertyOp24
 70
     1
102
RTVSPropertyOp25
 70
     1
102
RTVSPropertyOp26
 70
     1
102
RTVSPropertyOp27
 70
     1
102
RTVSPropertyOp28
 70
     1
102
RTVSPropertyOp29
 70
     1
102
RTVSPropertyOp30
 70
     1
102
RTVSPropertyOp31
 70
     1
102
RTVSPropertyOp32
 70
     1
  0
XRECORD
  5
50
102
{ACAD_REACTORS
330
4F
102
}
330
4F
100
AcDbXrecord
280
     1
102
RTVSPropertyOp0
 70
     1
102
RTVSPropertyOp1
 70
     1
102
RTVSPropertyOp2
 70
     1
102
RTVSPropertyOp3
 70
     1
102
RTVSPropertyOp4
 70
     1
102
RTVSPropertyOp5
 70
     1
102
RTVSPropertyOp6
 70
     1
102
RTVSPropertyOp7
 70
     1
102
RTVSPropertyOp8
 70
     1
102
RTVSPropertyOp9
 70
     1
102
RTVSPropertyOp10
 70
     1
102
RTVSPropertyOp11
 70
     1
102
RTVSPropertyOp12
 70
     1
102
RTVSPropertyOp13
 70
     1
102
RTVSPropertyOp14
 70
     1
102
RTVSPropertyOp15
 70
     1
102
RTVSPropertyOp16
 70
     1
102
RTVSPropertyOp17
 70
     1
102
RTVSPropertyOp18
 70
     1
102
RTVSPropertyOp19
 70
     1
102
RTVSPropertyOp20
 70
     1
102
RTVSPropertyOp21
 70
     1
102
RTVSPropertyOp22
 70
     1
102
RTVSPropertyOp23
 70
     1
102
RTVSPropertyOp24
 70
     1
102
RTVSPropertyOp25
 70
     1
102
RTVSPropertyOp26
 70
     1
102
RTVSPropertyOp27
 70
     1
102
RTVSPropertyOp28
 70
     1
102
RTVSPropertyOp29
 70
     1
102
RTVSPropertyOp30
 70
     1
102
RTVSPropertyOp31
 70
     1
102
RTVSPropertyOp32
 70
     1
  0
XRECORD
  5
4E
102
{ACAD_REACTORS
330
4D
102
}
330
4D
100
AcDbXrecord
280
     1
102
RTVSPropertyOp0
 70
     1
102
RTVSPropertyOp1
 70
     1
102
RTVSPropertyOp2
 70
     1
102
RTVSPropertyOp3
 70
     1
102
RTVSPropertyOp4
 70
     1
102
RTVSPropertyOp5
 70
     1
102
RTVSPropertyOp6
 70
     1
102
RTVSPropertyOp7
 70
     1
102
RTVSPropertyOp8
 70
     1
102
RTVSPropertyOp9
 70
     1
102
RTVSPropertyOp10
 70
     1
102
RTVSPropertyOp11
 70
     1
102
RTVSPropertyOp12
 70
     1
102
RTVSPropertyOp13
 70
     1
102
RTVSPropertyOp14
 70
     1
102
RTVSPropertyOp15
 70
     1
102
RTVSPropertyOp16
 70
     1
102
RTVSPropertyOp17
 70
     1
102
RTVSPropertyOp18
 70
     1
102
RTVSPropertyOp19
 70
     1
102
RTVSPropertyOp20
 70
     1
102
RTVSPropertyOp21
 70
     1
102
RTVSPropertyOp22
 70
     1
102
RTVSPropertyOp23
 70
     1
102
RTVSPropertyOp24
 70
     1
102
RTVSPropertyOp25
 70
     1
102
RTVSPropertyOp26
 70
     1
102
RTVSPropertyOp27
 70
     1
102
RTVSPropertyOp28
 70
     1
102
RTVSPropertyOp29
 70
     1
102
RTVSPropertyOp30
 70
     1
102
RTVSPropertyOp31
 70
     1
102
RTVSPropertyOp32
 70
     1
  0
XRECORD
  5
52
102
{ACAD_REACTORS
330
51
102
}
330
51
100
AcDbXrecord
280
     1
102
RTVSPropertyOp0
 70
     1
102
RTVSPropertyOp1
 70
     1
102
RTVSPropertyOp2
 70
     1
102
RTVSPropertyOp3
 70
     1
102
RTVSPropertyOp4
 70
     1
102
RTVSPropertyOp5
 70
     1
102
RTVSPropertyOp6
 70
     1
102
RTVSPropertyOp7
 70
     1
102
RTVSPropertyOp8
 70
     1
102
RTVSPropertyOp9
 70
     1
102
RTVSPropertyOp10
 70
     1
102
RTVSPropertyOp11
 70
     1
102
RTVSPropertyOp12
 70
     1
102
RTVSPropertyOp13
 70
     1
102
RTVSPropertyOp14
 70
     1
102
RTVSPropertyOp15
 70
     1
102
RTVSPropertyOp16
 70
     1
102
RTVSPropertyOp17
 70
     1
102
RTVSPropertyOp18
 70
     1
102
RTVSPropertyOp19
 70
     1
102
RTVSPropertyOp20
 70
     1
102
RTVSPropertyOp21
 70
     1
102
RTVSPropertyOp22
 70
     1
102
RTVSPropertyOp23
 70
     1
102
RTVSPropertyOp24
 70
     1
102
RTVSPropertyOp25
 70
     1
102
RTVSPropertyOp26
 70
     1
102
RTVSPropertyOp27
 70
     1
102
RTVSPropertyOp28
 70
     1
102
RTVSPropertyOp29
 70
     1
102
RTVSPropertyOp30
 70
     1
102
RTVSPropertyOp31
 70
     1
102
RTVSPropertyOp32
 70
     1
  0
XRECORD
  5
5A
102
{ACAD_REACTORS
330
59
102
}
330
59
100
AcDbXrecord
280
     1
102
RTVSPropertyOp0
 70
     1
102
RTVSPropertyOp1
 70
     1
102
RTVSPropertyOp2
 70
     1
102
RTVSPropertyOp3
 70
     1
102
RTVSPropertyOp4
 70
     1
102
RTVSPropertyOp5
 70
     1
102
RTVSPropertyOp6
 70
     1
102
RTVSPropertyOp7
 70
     1
102
RTVSPropertyOp8
 70
     1
102
RTVSPropertyOp9
 70
     1
102
RTVSPropertyOp10
 70
     1
102
RTVSPropertyOp11
 70
     1
102
RTVSPropertyOp12
 70
     1
102
RTVSPropertyOp13
 70
     1
102
RTVSPropertyOp14
 70
     1
102
RTVSPropertyOp15
 70
     1
102
RTVSPropertyOp16
 70
     1
102
RTVSPropertyOp17
 70
     1
102
RTVSPropertyOp18
 70
     1
102
RTVSPropertyOp19
 70
     1
102
RTVSPropertyOp20
 70
     1
102
RTVSPropertyOp21
 70
     1
102
RTVSPropertyOp22
 70
     1
102
RTVSPropertyOp23
 70
     1
102
RTVSPropertyOp24
 70
     1
102
RTVSPropertyOp25
 70
     1
102
RTVSPropertyOp26
 70
     1
102
RTVSPropertyOp27
 70
     1
102
RTVSPropertyOp28
 70
     1
102
RTVSPropertyOp29
 70
     1
102
RTVSPropertyOp30
 70
     1
102
RTVSPropertyOp31
 70
     1
102
RTVSPropertyOp32
 70
     1
  0
XRECORD
  5
62
102
{ACAD_REACTORS
330
61
102
}
330
61
100
AcDbXrecord
280
     1
102
RTVSPropertyOp0
 70
     1
102
RTVSPropertyOp1
 70
     1
102
RTVSPropertyOp2
 70
     1
102
RTVSPropertyOp3
 70
     1
102
RTVSPropertyOp4
 70
     1
102
RTVSPropertyOp5
 70
     1
102
RTVSPropertyOp6
 70
     1
102
RTVSPropertyOp7
 70
     1
102
RTVSPropertyOp8
 70
     1
102
RTVSPropertyOp9
 70
     1
102
RTVSPropertyOp10
 70
     1
102
RTVSPropertyOp11
 70
     1
102
RTVSPropertyOp12
 70
     1
102
RTVSPropertyOp13
 70
     1
102
RTVSPropertyOp14
 70
     1
102
RTVSPropertyOp15
 70
     1
102
RTVSPropertyOp16
 70
     1
102
RTVSPropertyOp17
 70
     1
102
RTVSPropertyOp18
 70
     1
102
RTVSPropertyOp19
 70
     1
102
RTVSPropertyOp20
 70
     1
102
RTVSPropertyOp21
 70
     1
102
RTVSPropertyOp22
 70
     1
102
RTVSPropertyOp23
 70
     1
102
RTVSPropertyOp24
 70
     1
102
RTVSPropertyOp25
 70
     1
102
RTVSPropertyOp26
 70
     1
102
RTVSPropertyOp27
 70
     1
102
RTVSPropertyOp28
 70
     1
102
RTVSPropertyOp29
 70
     1
102
RTVSPropertyOp30
 70
     1
102
RTVSPropertyOp31
 70
     1
102
RTVSPropertyOp32
 70
     1
  0
XRECORD
  5
56
102
{ACAD_REACTORS
330
55
102
}
330
55
100
AcDbXrecord
280
     1
102
RTVSPropertyOp0
 70
     1
102
RTVSPropertyOp1
 70
     1
102
RTVSPropertyOp2
 70
     1
102
RTVSPropertyOp3
 70
     1
102
RTVSPropertyOp4
 70
     1
102
RTVSPropertyOp5
 70
     1
102
RTVSPropertyOp6
 70
     1
102
RTVSPropertyOp7
 70
     1
102
RTVSPropertyOp8
 70
     1
102
RTVSPropertyOp9
 70
     1
102
RTVSPropertyOp10
 70
     1
102
RTVSPropertyOp11
 70
     1
102
RTVSPropertyOp12
 70
     1
102
RTVSPropertyOp13
 70
     1
102
RTVSPropertyOp14
 70
     1
102
RTVSPropertyOp15
 70
     1
102
RTVSPropertyOp16
 70
     1
102
RTVSPropertyOp17
 70
     1
102
RTVSPropertyOp18
 70
     1
102
RTVSPropertyOp19
 70
     1
102
RTVSPropertyOp20
 70
     1
102
RTVSPropertyOp21
 70
     1
102
RTVSPropertyOp22
 70
     1
102
RTVSPropertyOp23
 70
     1
102
RTVSPropertyOp24
 70
     1
102
RTVSPropertyOp25
 70
     1
102
RTVSPropertyOp26
 70
     1
102
RTVSPropertyOp27
 70
     1
102
RTVSPropertyOp28
 70
     1
102
RTVSPropertyOp29
 70
     1
102
RTVSPropertyOp30
 70
     1
102
RTVSPropertyOp31
 70
     1
102
RTVSPropertyOp32
 70
     1
  0
XRECORD
  5
58
102
{ACAD_REACTORS
330
57
102
}
330
57
100
AcDbXrecord
280
     1
102
RTVSPropertyOp0
 70
     1
102
RTVSPropertyOp1
 70
     1
102
RTVSPropertyOp2
 70
     1
102
RTVSPropertyOp3
 70
     1
102
RTVSPropertyOp4
 70
     1
102
RTVSPropertyOp5
 70
     1
102
RTVSPropertyOp6
 70
     1
102
RTVSPropertyOp7
 70
     1
102
RTVSPropertyOp8
 70
     1
102
RTVSPropertyOp9
 70
     1
102
RTVSPropertyOp10
 70
     1
102
RTVSPropertyOp11
 70
     1
102
RTVSPropertyOp12
 70
     1
102
RTVSPropertyOp13
 70
     1
102
RTVSPropertyOp14
 70
     1
102
RTVSPropertyOp15
 70
     1
102
RTVSPropertyOp16
 70
     1
102
RTVSPropertyOp17
 70
     1
102
RTVSPropertyOp18
 70
     1
102
RTVSPropertyOp19
 70
     1
102
RTVSPropertyOp20
 70
     1
102
RTVSPropertyOp21
 70
     1
102
RTVSPropertyOp22
 70
     1
102
RTVSPropertyOp23
 70
     1
102
RTVSPropertyOp24
 70
     1
102
RTVSPropertyOp25
 70
     1
102
RTVSPropertyOp26
 70
     1
102
RTVSPropertyOp27
 70
     1
102
RTVSPropertyOp28
 70
     1
102
RTVSPropertyOp29
 70
     1
102
RTVSPropertyOp30
 70
     1
102
RTVSPropertyOp31
 70
     1
102
RTVSPropertyOp32
 70
     1
  0
XRECORD
  5
60
102
{ACAD_REACTORS
330
5F
102
}
330
5F
100
AcDbXrecord
280
     1
102
RTVSPropertyOp0
 70
     1
102
RTVSPropertyOp1
 70
     1
102
RTVSPropertyOp2
 70
     1
102
RTVSPropertyOp3
 70
     1
102
RTVSPropertyOp4
 70
     1
102
RTVSPropertyOp5
 70
     1
102
RTVSPropertyOp6
 70
     1
102
RTVSPropertyOp7
 70
     1
102
RTVSPropertyOp8
 70
     1
102
RTVSPropertyOp9
 70
     1
102
RTVSPropertyOp10
 70
     1
102
RTVSPropertyOp11
 70
     1
102
RTVSPropertyOp12
 70
     1
102
RTVSPropertyOp13
 70
     1
102
RTVSPropertyOp14
 70
     1
102
RTVSPropertyOp15
 70
     1
102
RTVSPropertyOp16
 70
     1
102
RTVSPropertyOp17
 70
     1
102
RTVSPropertyOp18
 70
     1
102
RTVSPropertyOp19
 70
     1
102
RTVSPropertyOp20
 70
     1
102
RTVSPropertyOp21
 70
     1
102
RTVSPropertyOp22
 70
     1
102
RTVSPropertyOp23
 70
     1
102
RTVSPropertyOp24
 70
     1
102
RTVSPropertyOp25
 70
     1
102
RTVSPropertyOp26
 70
     1
102
RTVSPropertyOp27
 70
     1
102
RTVSPropertyOp28
 70
     1
102
RTVSPropertyOp29
 70
     1
102
RTVSPropertyOp30
 70
     1
102
RTVSPropertyOp31
 70
     1
102
RTVSPropertyOp32
 70
     1
  0
XRECORD
  5
44
102
{ACAD_REACTORS
330
43
102
}
330
43
100
AcDbXrecord
280
     1
102
RTVSPropertyOp0
 70
     1
102
RTVSPropertyOp1
 70
     1
102
RTVSPropertyOp2
 70
     1
102
RTVSPropertyOp3
 70
     1
102
RTVSPropertyOp4
 70
     1
102
RTVSPropertyOp5
 70
     1
102
RTVSPropertyOp6
 70
     1
102
RTVSPropertyOp7
 70
     1
102
RTVSPropertyOp8
 70
     1
102
RTVSPropertyOp9
 70
     1
102
RTVSPropertyOp10
 70
     1
102
RTVSPropertyOp11
 70
     1
102
RTVSPropertyOp12
 70
     1
102
RTVSPropertyOp13
 70
     1
102
RTVSPropertyOp14
 70
     1
102
RTVSPropertyOp15
 70
     1
102
RTVSPropertyOp16
 70
     1
102
RTVSPropertyOp17
 70
     1
102
RTVSPropertyOp18
 70
     1
102
RTVSPropertyOp19
 70
     1
102
RTVSPropertyOp20
 70
     1
102
RTVSPropertyOp21
 70
     1
102
RTVSPropertyOp22
 70
     1
102
RTVSPropertyOp23
 70
     1
102
RTVSPropertyOp24
 70
     1
102
RTVSPropertyOp25
 70
     1
102
RTVSPropertyOp26
 70
     1
102
RTVSPropertyOp27
 70
     1
102
RTVSPropertyOp28
 70
     1
102
RTVSPropertyOp29
 70
     1
102
RTVSPropertyOp30
 70
     1
102
RTVSPropertyOp31
 70
     1
102
RTVSPropertyOp32
 70
     1
  0
XRECORD
  5
46
102
{ACAD_REACTORS
330
45
102
}
330
45
100
AcDbXrecord
280
     1
102
RTVSPropertyOp0
 70
     1
102
RTVSPropertyOp1
 70
     1
102
RTVSPropertyOp2
 70
     1
102
RTVSPropertyOp3
 70
     1
102
RTVSPropertyOp4
 70
     1
102
RTVSPropertyOp5
 70
     1
102
RTVSPropertyOp6
 70
     1
102
RTVSPropertyOp7
 70
     1
102
RTVSPropertyOp8
 70
     1
102
RTVSPropertyOp9
 70
     1
102
RTVSPropertyOp10
 70
     1
102
RTVSPropertyOp11
 70
     1
102
RTVSPropertyOp12
 70
     1
102
RTVSPropertyOp13
 70
     1
102
RTVSPropertyOp14
 70
     1
102
RTVSPropertyOp15
 70
     1
102
RTVSPropertyOp16
 70
     1
102
RTVSPropertyOp17
 70
     1
102
RTVSPropertyOp18
 70
     1
102
RTVSPropertyOp19
 70
     1
102
RTVSPropertyOp20
 70
     1
102
RTVSPropertyOp21
 70
     1
102
RTVSPropertyOp22
 70
     1
102
RTVSPropertyOp23
 70
     1
102
RTVSPropertyOp24
 70
     1
102
RTVSPropertyOp25
 70
     1
102
RTVSPropertyOp26
 70
     1
102
RTVSPropertyOp27
 70
     1
102
RTVSPropertyOp28
 70
     1
102
RTVSPropertyOp29
 70
     1
102
RTVSPropertyOp30
 70
     1
102
RTVSPropertyOp31
 70
     1
102
RTVSPropertyOp32
 70
     1
  0
XRECORD
  5
48
102
{ACAD_REACTORS
330
47
102
}
330
47
100
AcDbXrecord
280
     1
102
RTVSPropertyOp0
 70
     1
102
RTVSPropertyOp1
 70
     1
102
RTVSPropertyOp2
 70
     1
102
RTVSPropertyOp3
 70
     1
102
RTVSPropertyOp4
 70
     1
102
RTVSPropertyOp5
 70
     1
102
RTVSPropertyOp6
 70
     1
102
RTVSPropertyOp7
 70
     1
102
RTVSPropertyOp8
 70
     1
102
RTVSPropertyOp9
 70
     1
102
RTVSPropertyOp10
 70
     1
102
RTVSPropertyOp11
 70
     1
102
RTVSPropertyOp12
 70
     1
102
RTVSPropertyOp13
 70
     1
102
RTVSPropertyOp14
 70
     1
102
RTVSPropertyOp15
 70
     1
102
RTVSPropertyOp16
 70
     1
102
RTVSPropertyOp17
 70
     1
102
RTVSPropertyOp18
 70
     1
102
RTVSPropertyOp19
 70
     1
102
RTVSPropertyOp20
 70
     1
102
RTVSPropertyOp21
 70
     1
102
RTVSPropertyOp22
 70
     1
102
RTVSPropertyOp23
 70
     1
102
RTVSPropertyOp24
 70
     1
102
RTVSPropertyOp25
 70
     1
102
RTVSPropertyOp26
 70
     1
102
RTVSPropertyOp27
 70
     1
102
RTVSPropertyOp28
 70
     1
102
RTVSPropertyOp29
 70
     1
102
RTVSPropertyOp30
 70
     1
102
RTVSPropertyOp31
 70
     1
102
RTVSPropertyOp32
 70
     1
  0
XRECORD
  5
4A
102
{ACAD_REACTORS
330
49
102
}
330
49
100
AcDbXrecord
280
     1
102
RTVSPropertyOp0
 70
     1
102
RTVSPropertyOp1
 70
     1
102
RTVSPropertyOp2
 70
     1
102
RTVSPropertyOp3
 70
     1
102
RTVSPropertyOp4
 70
     1
102
RTVSPropertyOp5
 70
     1
102
RTVSPropertyOp6
 70
     1
102
RTVSPropertyOp7
 70
     1
102
RTVSPropertyOp8
 70
     1
102
RTVSPropertyOp9
 70
     1
102
RTVSPropertyOp10
 70
     1
102
RTVSPropertyOp11
 70
     1
102
RTVSPropertyOp12
 70
     1
102
RTVSPropertyOp13
 70
     1
102
RTVSPropertyOp14
 70
     1
102
RTVSPropertyOp15
 70
     1
102
RTVSPropertyOp16
 70
     1
102
RTVSPropertyOp17
 70
     1
102
RTVSPropertyOp18
 70
     1
102
RTVSPropertyOp19
 70
     1
102
RTVSPropertyOp20
 70
     1
102
RTVSPropertyOp21
 70
     1
102
RTVSPropertyOp22
 70
     1
102
RTVSPropertyOp23
 70
     1
102
RTVSPropertyOp24
 70
     1
102
RTVSPropertyOp25
 70
     1
102
RTVSPropertyOp26
 70
     1
102
RTVSPropertyOp27
 70
     1
102
RTVSPropertyOp28
 70
     1
102
RTVSPropertyOp29
 70
     1
102
RTVSPropertyOp30
 70
     1
102
RTVSPropertyOp31
 70
     1
102
RTVSPropertyOp32
 70
     1
  0
XRECORD
  5
5E
102
{ACAD_REACTORS
330
5D
102
}
330
5D
100
AcDbXrecord
280
     1
102
RTVSPropertyOp0
 70
     1
102
RTVSPropertyOp1
 70
     1
102
RTVSPropertyOp2
 70
     1
102
RTVSPropertyOp3
 70
     1
102
RTVSPropertyOp4
 70
     1
102
RTVSPropertyOp5
 70
     1
102
RTVSPropertyOp6
 70
     1
102
RTVSPropertyOp7
 70
     1
102
RTVSPropertyOp8
 70
     1
102
RTVSPropertyOp9
 70
     1
102
RTVSPropertyOp10
 70
     1
102
RTVSPropertyOp11
 70
     1
102
RTVSPropertyOp12
 70
     1
102
RTVSPropertyOp13
 70
     1
102
RTVSPropertyOp14
 70
     1
102
RTVSPropertyOp15
 70
     1
102
RTVSPropertyOp16
 70
     1
102
RTVSPropertyOp17
 70
     1
102
RTVSPropertyOp18
 70
     1
102
RTVSPropertyOp19
 70
     1
102
RTVSPropertyOp20
 70
     1
102
RTVSPropertyOp21
 70
     1
102
RTVSPropertyOp22
 70
     1
102
RTVSPropertyOp23
 70
     1
102
RTVSPropertyOp24
 70
     1
102
RTVSPropertyOp25
 70
     1
102
RTVSPropertyOp26
 70
     1
102
RTVSPropertyOp27
 70
     1
102
RTVSPropertyOp28
 70
     1
102
RTVSPropertyOp29
 70
     1
102
RTVSPropertyOp30
 70
     1
102
RTVSPropertyOp31
 70
     1
102
RTVSPropertyOp32
 70
     1
  0
XRECORD
  5
54
102
{ACAD_REACTORS
330
53
102
}
330
53
100
AcDbXrecord
280
     1
102
RTVSPropertyOp0
 70
     1
102
RTVSPropertyOp1
 70
     1
102
RTVSPropertyOp2
 70
     1
102
RTVSPropertyOp3
 70
     1
102
RTVSPropertyOp4
 70
     1
102
RTVSPropertyOp5
 70
     1
102
RTVSPropertyOp6
 70
     1
102
RTVSPropertyOp7
 70
     1
102
RTVSPropertyOp8
 70
     1
102
RTVSPropertyOp9
 70
     1
102
RTVSPropertyOp10
 70
     1
102
RTVSPropertyOp11
 70
     1
102
RTVSPropertyOp12
 70
     1
102
RTVSPropertyOp13
 70
     1
102
RTVSPropertyOp14
 70
     1
102
RTVSPropertyOp15
 70
     1
102
RTVSPropertyOp16
 70
     1
102
RTVSPropertyOp17
 70
     1
102
RTVSPropertyOp18
 70
     1
102
RTVSPropertyOp19
 70
     1
102
RTVSPropertyOp20
 70
     1
102
RTVSPropertyOp21
 70
     1
102
RTVSPropertyOp22
 70
     1
102
RTVSPropertyOp23
 70
     1
102
RTVSPropertyOp24
 70
     1
102
RTVSPropertyOp25
 70
     1
102
RTVSPropertyOp26
 70
     1
102
RTVSPropertyOp27
 70
     1
102
RTVSPropertyOp28
 70
     1
102
RTVSPropertyOp29
 70
     1
102
RTVSPropertyOp30
 70
     1
102
RTVSPropertyOp31
 70
     1
102
RTVSPropertyOp32
 70
     1
  0
XRECORD
  5
5C
102
{ACAD_REACTORS
330
5B
102
}
330
5B
100
AcDbXrecord
280
     1
102
RTVSPropertyOp0
 70
     1
102
RTVSPropertyOp1
 70
     1
102
RTVSPropertyOp2
 70
     1
102
RTVSPropertyOp3
 70
     1
102
RTVSPropertyOp4
 70
     1
102
RTVSPropertyOp5
 70
     1
102
RTVSPropertyOp6
 70
     1
102
RTVSPropertyOp7
 70
     1
102
RTVSPropertyOp8
 70
     1
102
RTVSPropertyOp9
 70
     1
102
RTVSPropertyOp10
 70
     1
102
RTVSPropertyOp11
 70
     1
102
RTVSPropertyOp12
 70
     1
102
RTVSPropertyOp13
 70
     1
102
RTVSPropertyOp14
 70
     1
102
RTVSPropertyOp15
 70
     1
102
RTVSPropertyOp16
 70
     1
102
RTVSPropertyOp17
 70
     1
102
RTVSPropertyOp18
 70
     1
102
RTVSPropertyOp19
 70
     1
102
RTVSPropertyOp20
 70
     1
102
RTVSPropertyOp21
 70
     1
102
RTVSPropertyOp22
 70
     1
102
RTVSPropertyOp23
 70
     1
102
RTVSPropertyOp24
 70
     1
102
RTVSPropertyOp25
 70
     1
102
RTVSPropertyOp26
 70
     1
102
RTVSPropertyOp27
 70
     1
102
RTVSPropertyOp28
 70
     1
102
RTVSPropertyOp29
 70
     1
102
RTVSPropertyOp30
 70
     1
102
RTVSPropertyOp31
 70
     1
102
RTVSPropertyOp32
 70
     1
  0
ENDSEC
  0
EOF
