<?xml version="1.0" encoding="utf-8"?>
<!-- Generator: Adobe Illustrator 16.0.0, SVG Export Plug-In . SVG Version: 6.00 Build 0)  -->
<!DOCTYPE svg PUBLIC "-//W3C//DTD SVG 1.1//EN" "http://www.w3.org/Graphics/SVG/1.1/DTD/svg11.dtd">
<svg version="1.1" id="Layer_1" xmlns="http://www.w3.org/2000/svg" xmlns:xlink="http://www.w3.org/1999/xlink" x="0px" y="0px"
	 width="226.77px" height="226.77px" viewBox="0 0 226.77 226.77" enable-background="new 0 0 226.77 226.77" xml:space="preserve">
<path fill-rule="evenodd" clip-rule="evenodd" d="M193.822,81.817c-0.429,0.572-1.024,0.956-1.588,1.372
	c-0.965,0.713-1.662,1.581-1.926,2.795c-0.191,0.883-0.602,1.69-1.253,2.351c-0.579,0.586-1.259,0.719-2.024,0.442
	c-1.17-0.423-1.734-0.196-2.266,0.943c-0.186,0.397-0.353,0.811-0.478,1.232c-0.269,0.916-0.901,1.446-1.761,1.761
	c-0.668,0.244-1.372,0.293-2.063,0.403c-0.369,0.058-0.685,0.192-0.965,0.437c-1.515,1.317-3.28,1.117-4.409-0.548
	c-0.326-0.481-0.67-0.542-1.156-0.402c-0.73,0.211-1.222,0.646-1.43,1.401c-0.203,0.743-0.315,1.504-0.427,2.261
	c-0.305,2.064-3.306,3.722-5.17,3.138c-0.407-0.128-0.808-0.272-1.095-0.614c-1.145-1.357-2.55-1.668-4.189-1.048
	c-0.197,0.075-0.4,0.135-0.652,0.218c0.462,0.466,0.984,0.792,1.473,1.159c3.188,2.397,6.402,4.758,9.297,7.515
	c0.521,0.496,1.009,1.023,1.477,1.571c0.621,0.726,0.809,1.583,0.875,2.494c0.114,1.567,0.045,3.099-0.689,4.541
	c-0.342,0.669-0.822,1.159-1.495,1.493c-3.827,1.891-7.778,3.488-11.759,5.019c-3.08,1.187-6.171,2.353-9.355,3.226
	c-7.029,1.926-13.963,4.156-20.906,6.361c-4.531,1.438-9.057,2.893-13.547,4.453c-0.479,0.166-0.958,0.33-1.428,0.52
	c-0.98,0.393-1.713,1.051-2.166,2.02c-1.262,2.699-2.664,5.303-4.591,7.617c-1.157,1.39-1.747,3.133-2.392,4.81
	c-2.255,5.864-3.935,11.909-5.567,17.966c-1.862,6.908-3.516,13.867-5.038,20.857c-0.458,2.105-0.771,4.244-1.28,6.337
	c-0.677,2.789-2.008,5.308-3.521,7.728c-1.854,2.963-4.002,5.693-6.561,8.087c-1.031,0.964-2.13,1.833-3.445,2.39
	c-0.328,0-0.653,0-0.98,0c-0.662-0.52-1.034-1.219-1.197-2.024c-0.305-1.502,0.002-2.925,0.65-4.284
	c0.769-1.605,1.545-3.209,2.352-4.797c0.591-1.16,0.753-2.316,0.358-3.592c-0.455-1.465-0.809-2.963-1.057-4.479
	c-0.201-1.232-0.009-2.371,0.814-3.364c0.736-0.89,1.691-1.477,2.679-2.027c0.701-0.392,1.388-0.802,1.961-1.374
	c1.28-1.281,2.066-2.844,2.618-4.543c0.835-2.574,1.076-5.242,1.172-7.922c0.123-3.4-0.042-6.797-0.205-10.191
	c-0.156-3.248-0.318-6.494-0.065-9.742c0.14-1.805,0.544-3.522,1.542-5.1c1.862-2.943,3.54-5.995,4.951-9.184
	c0.39-0.88,0.75-1.773,0.891-2.741c0.053-0.368-0.044-0.524-0.423-0.512c-0.375,0.013-0.753,0.016-1.127-0.011
	c-1.185-0.084-2.336-0.301-3.343-0.986c-1.261-0.857-1.371-1.939-0.312-3.036c0.655-0.679,1.453-1.161,2.269-1.614
	c1.99-1.105,4.117-1.914,6.196-2.824c0.635-0.277,0.994-0.664,1.137-1.38c0.582-2.913,1.15-5.829,1.683-8.753
	c0.586-3.229,1.195-6.454,1.795-9.68c0.129-0.696-0.041-1.279-0.583-1.767c-0.731-0.659-0.772-0.667-1.353,0.136
	c-0.086,0.12-0.166,0.243-0.254,0.362c-0.54,0.735-1.216,1.29-2.134,1.456c-2.412,0.436-3.123-0.002-3.836-1.33
	c-0.58-1.076-1.426-1.602-2.681-1.466c-0.648,0.07-1.306,0.015-1.931-0.231c-1.055-0.416-1.518-1.286-1.251-2.389
	c0.057-0.238,0.14-0.47,0.196-0.708c0.028-0.121,0.118-0.267,0-0.369c-0.125-0.106-0.285-0.047-0.418,0.012
	c-0.367,0.162-0.55,0.502-0.75,0.819c-0.254,0.401-0.479,0.842-0.9,1.082c-1.182,0.672-2.492,0.929-3.82,0.833
	c-1.069-0.077-2.025-0.608-2.91-1.216c-0.816-0.562-1.364-1.235-0.917-2.301c0.006-0.015,0.008-0.032,0.012-0.048
	c0.117-0.743-0.254-1.106-0.983-0.929c-0.492,0.12-0.968,0.295-1.457,0.431c-1.293,0.361-1.928-0.042-2.155-1.359
	c-0.189-1.097-0.227-1.136-1.328-1.369c-1.168-0.249-1.55-0.691-1.606-1.866c-0.081-1.669-0.108-1.696-1.727-2.174
	c-0.815-0.241-1.629-0.495-2.322-1.016c-0.593-0.448-0.908-1.032-0.774-1.787c0.085-0.479-0.114-0.758-0.537-0.903
	c-0.464-0.161-0.94-0.281-1.401-0.444c-0.964-0.341-1.379-1.173-1.087-2.145c0.094-0.313,0.21-0.621,0.279-0.938
	c0.176-0.808-0.002-1.135-0.795-1.415c-0.415-0.146-0.851-0.229-1.273-0.354c-0.373-0.109-0.731-0.286-0.834-0.686
	c-0.156-0.597-0.369-1.216-0.339-1.816c0.041-0.843-0.209-1.481-0.778-2.07c-0.454-0.47-0.397-0.926,0.091-1.357
	c0.401-0.352,0.883-0.567,1.381-0.723c0.475-0.148,0.689-0.442,0.744-0.914c0.068-0.583,0.153-1.164,0.245-1.744
	c0.06-0.383,0.267-0.513,0.684-0.493c2.864,0.135,5.67-0.234,8.422-1.028c2.339-0.676,4.593-1.617,6.973-2.157
	c1.919-0.436,3.797-0.626,5.726,0.111c1.79,0.684,3.693,0.86,5.598,0.534c1.303-0.224,2.583-0.569,3.881-0.818
	c3.443-0.663,6.905-1.117,10.416-0.631c1.854,0.257,3.608,0.789,5.015,2.124c0.547,0.52,0.838,0.587,1.533,0.239
	c0.76-0.38,1.538-0.716,2.316-1.057c1.212-0.533,2.265-1.294,2.789-2.556c1.016-2.44,1.015-4.789-0.734-6.966
	c-1.402-1.746-3.144-3.08-4.986-4.307c-1.128-0.751-2.314-1.407-3.385-2.252c-1.383-1.094-3.029-1.523-4.766-1.539
	c-2.029-0.02-3.969,0.479-5.761,1.391c-3.438,1.751-6.953,3.333-10.445,4.967c-1.895,0.886-3.837,1.702-5.578,2.863
	c-1.704,1.136-3.55,1.939-5.418,2.722c-4.067,1.706-8.195,3.263-12.248,5.004c-3.856,1.657-7.719,3.299-11.276,5.56
	c-0.872,0.554-1.691,1.172-2.362,1.969c-0.337,0.4-0.5,0.819-0.272,1.349c0.134,0.312,0.192,0.658,0.262,0.994
	c0.271,1.314,0.509,2.624,0.146,3.972c-0.268,0.997-0.415,2.015-0.21,3.054c0.046,0.235,0.032,0.489-0.044,0.728
	c-0.13,0.41-0.36,0.511-0.687,0.229c-1.018-0.878-1.615-1.977-1.522-3.351c0.065-0.965-0.295-1.749-0.872-2.465
	c-0.176-0.218-0.408-0.419-0.714-0.355c-0.707,0.148-1.386,0.329-1.765,1.067c-0.456,0.889-0.817,1.818-1.263,2.71
	c-0.205,0.411-0.45,0.802-0.843,1.064c-0.184,0.123-0.399,0.192-0.591,0.028c-0.201-0.171,0-0.326,0.059-0.479
	c0.195-0.499,0.382-0.999,0.39-1.549c-0.481,0.535-0.893,1.103-1.333,1.646c-1.317,1.623-2.366,3.454-3.83,4.964
	c-0.241,0.248-0.491,0.484-0.819,0.609c-0.204,0.077-0.424,0.096-0.585-0.1c-0.147-0.179-0.177-0.382-0.06-0.593
	c0.056-0.101,0.111-0.201,0.166-0.3c0.576-1.066,1.151-2.132,1.757-3.256c-0.538,0.313-0.992,0.607-1.471,0.852
	c-0.626,0.32-1.264,0.632-1.998,0.582c-0.264-0.017-0.549-0.063-0.653-0.346c-0.098-0.266,0.147-0.412,0.307-0.563
	c0.177-0.168,0.377-0.312,0.57-0.462c0.954-0.742,1.913-1.479,2.864-2.227c0.324-0.255,0.628-0.535,0.942-0.804
	c-0.846,0.312-1.638,0.695-2.474,0.967c-0.858,0.279-1.727,0.54-2.611,0.077c0-0.099,0-0.197,0-0.295
	c1.299-0.792,2.655-1.477,4.034-2.115c1.187-0.548,2.227-1.295,3.151-2.213c1.603-1.595,2.837-3.457,3.937-5.416
	c0.155-0.276,0.343-0.514,0.594-0.704c0.457-0.346,0.903-0.704,1.365-1.041c4.264-3.113,8.647-6.05,13.006-9.023
	c3.78-2.578,7.598-5.098,11.437-7.589c1.263-0.819,2.554-1.563,3.994-2.059c1.983-0.681,3.899-1.528,5.537-2.882
	c2.255-1.863,4.476-3.765,6.61-5.767c1.109-1.04,2.24-2.061,3.166-3.273c0.699-0.915,0.638-1.081-0.48-1.395
	c-2.397-0.673-4.874-0.706-7.334-0.807c-2.35-0.095-4.704-0.022-7.05,0.186c-1.187,0.104-2.375,0.228-3.513,0.613
	c-0.227,0.077-0.491,0.132-0.582,0.403c-0.457,1.355-1.227,2.6-1.377,4.067c-0.064,0.629-0.24,1.251-0.412,1.863
	c-0.206,0.736-0.551,0.83-1.151,0.342c-0.326-0.266-0.529-0.617-0.627-1.027c-0.143-0.597-0.131-1.197-0.053-1.802
	c0.03-0.241,0.07-0.492,0.039-0.728c-0.042-0.309-0.207-0.48-0.544-0.278c-0.31,0.186-0.639,0.336-0.992,0.417
	c-0.846,0.191-1.578,0.614-2.289,1.085c-1.228,0.812-2.445,1.636-3.684,2.427c-0.715,0.456-1.435,0.915-2.252,1.178
	c-0.21,0.068-0.434,0.114-0.577-0.105c-0.133-0.205-0.05-0.41,0.087-0.589c0.258-0.342,0.577-0.623,0.913-0.885
	c0.595-0.465,1.195-0.923,1.793-1.384c-1.155,0.401-2.238,0.931-3.311,1.481c-1.065,0.546-2.129,1.082-3.351,1.172
	c-0.253,0.019-0.556,0.145-0.68-0.19c-0.112-0.304,0.139-0.484,0.338-0.647c0.522-0.428,1.134-0.708,1.731-1.011
	c0.797-0.404,1.583-0.83,2.375-1.246c-1.48,0.433-2.935,0.924-4.438,1.248c-0.43,0.093-0.865,0.204-1.31,0.145
	c-0.416-0.055-0.518-0.333-0.248-0.653c0.194-0.231,0.466-0.357,0.729-0.486c1.427-0.695,2.954-1.148,4.402-1.791
	c0.16-0.071,0.32-0.143,0.48-0.215c-0.315,0.011-0.598,0.091-0.882,0.161c-0.37,0.089-0.747,0.087-1.121,0.035
	c-0.226-0.033-0.382-0.177-0.436-0.411c-0.046-0.199,0.067-0.314,0.233-0.376c1.377-0.511,2.612-1.345,4.041-1.75
	c2.15-0.608,4.244-1.314,6.188-2.498c2.109-1.284,4.38-2.28,6.87-2.622c2.055-0.282,4.112-0.535,6.166-0.817
	c1.164-0.161,2.334-0.313,3.439-0.74c0.84-0.325,0.919-0.599,0.459-1.351c-1.694-2.774-2.129-5.739-1.213-8.85
	c1.3-4.417,4.111-7.797,7.625-10.622c1.253-1.006,2.875-1.191,4.44-1.38c0.688-0.083,1.257-0.353,1.604-0.978
	c0.168-0.3,0.368-0.407,0.67-0.192c0.369,0.262,0.668,0.131,0.956-0.151c0.377-0.37,0.637-0.828,0.954-1.243
	c0.334-0.438,0.717-0.805,1.272-0.941c0.28-0.06,0.255-0.067,0.393,0c0.326,0.141,0.658,0.268,0.977,0.425
	c0.416,0.205,0.809,0.188,1.197-0.06c0.191-0.122,0.381-0.245,0.572-0.366c0.43-0.53,0.664-0.258,0.883,0
	c0.101,0.129,0.258,0.077,0.38,0.061c0.621-0.08,1.072,0.173,1.43,0.661c0.165,0.224,0.366,0.418,0.548,0.628
	c0.458,0.525,1.042,0.771,1.733,0.772c0.442,0.002,0.879,0.036,1.318,0.095c1.486,0.2,2.034,0.792,2.178,2.288
	c0.187,1.924-0.161,3.811-0.354,5.707c-0.132,1.284-0.383,2.569-0.211,3.855c0.528,3.957,2.596,6.915,6.004,8.938
	c0.971,0.577,2.021,1.053,3.201,0.878c1.277-0.189,2.556-0.363,3.845-0.422c2.341-0.108,4.633,0.107,6.817,1.039
	c1.943,0.829,3.432,2.248,4.836,3.761c0.484,0.522,0.729,1.191,0.877,1.893c0.162,0.769,0.223,1.55,0.316,2.328
	c0.156,1.306,0.752,2.458,1.244,3.649c1.467,3.548,2.903,7.108,3.972,10.802c0.296,1.021,0.517,2.05,0.384,3.136
	c-0.246,2.008-0.809,3.934-1.463,5.833c-1.006,2.92-2.084,5.812-3.463,8.583c-0.234,0.474-0.082,0.707,0.446,0.734
	c0.485,0.026,0.937-0.1,1.371-0.307c1.599-0.762,3.282-1.285,4.988-1.737c1.117-0.297,2.212-0.387,3.374-0.07
	c2,0.544,4.05,0.676,6.115,0.323c1.363-0.233,2.626-0.771,3.916-1.239c2.965-1.076,6.016-1.696,9.178-1.278
	c3.023,0.398,6.033,0.309,9.036-0.069c3.539-0.445,6.945-1.355,10.123-3.049c1.217-0.648,2.534-0.926,3.933-0.522
	c1.697,0.49,2.012,0.801,1.941,2.408c-0.016,0.364,0.165,0.586,0.509,0.678c0.19,0.051,0.386,0.078,0.571,0.138
	c0.828,0.275,1.739,0.411,2.213,1.292c0,0.197,0,0.393,0,0.589c-0.121,0.247-0.217,0.513-0.371,0.739
	c-0.386,0.569-0.432,1.181-0.263,1.818c0.2,0.752,0.422,1.5,0.634,2.249C193.822,80.901,193.822,81.359,193.822,81.817z
	 M146.234,110.967c-0.747-0.167-1.402-0.301-2.052-0.46c-5.203-1.273-10.346-2.764-15.481-4.285
	c-0.367-0.109-0.522-0.018-0.682,0.296c-0.585,1.151-1.207,2.282-1.787,3.434c-2.392,4.74-4.771,9.486-7,14.305
	c-0.383,0.826-0.054,1.413,0.854,1.587c0.687,0.131,1.331-0.05,1.964-0.271c1.271-0.449,2.43-1.122,3.566-1.834
	c3.549-2.219,6.857-4.786,10.311-7.145C139.15,114.393,142.362,112.161,146.234,110.967z"/>
</svg>
