<?xml version="1.0" encoding="utf-8"?>
<!-- Generator: Adobe Illustrator 16.0.0, SVG Export Plug-In . SVG Version: 6.00 Build 0)  -->
<!DOCTYPE svg PUBLIC "-//W3C//DTD SVG 1.1//EN" "http://www.w3.org/Graphics/SVG/1.1/DTD/svg11.dtd">
<svg version="1.1" id="Layer_1" xmlns="http://www.w3.org/2000/svg" xmlns:xlink="http://www.w3.org/1999/xlink" x="0px" y="0px"
	 width="226.77px" height="226.77px" viewBox="0 0 226.77 226.77" enable-background="new 0 0 226.77 226.77" xml:space="preserve">
<path fill-rule="evenodd" clip-rule="evenodd" d="M118.976,216.561c-0.593-0.034-0.779-0.373-0.869-0.938
	c-0.496-3.094-1.002-6.186-1.573-9.266c-0.307-1.651-1.024-3.154-2.045-4.495c-0.65-0.855-1.442-1.535-2.478-1.902
	c-0.447-0.158-0.677-0.705-0.58-1.313c0.111-0.687,0.459-1.254,0.907-1.767c0.564-0.647,1.184-1.249,1.915-1.695
	c0.813-0.494,1.269-1.218,1.568-2.077c0.597-1.707,0.697-3.473,0.576-5.26c-0.247-3.647-1.435-7.041-2.755-10.406
	c-1.486-3.782-2.333-7.695-2.218-11.779c0.075-2.625,0.561-5.191,1.2-7.733c0.507-2.016,1.182-3.985,1.625-6.017
	c0.336-1.546,0.395-3.125,0.456-4.695c0.104-2.684-0.085-5.356-0.318-8.031c-0.256-2.941-0.317-5.889-0.2-8.843
	c0.081-2.061,0.317-4.112,0.326-6.174c0.013-2.83-0.547-5.56-1.594-8.191c-0.339-0.85-0.842-1.598-1.381-2.328
	c-0.148-0.199-0.363-0.228-0.571-0.278c-3.373-0.812-6.744-1.628-10.12-2.429c-5.658-1.344-11.32-2.669-16.975-4.023
	c-1.075-0.257-2.146-0.559-3.18-0.944c-2.04-0.762-4.151-1.158-6.293-1.49c-3.625-0.563-7.261-1.119-10.771-2.228
	c-2.542-0.802-5.043-1.724-7.576-2.556c-3.254-1.069-6.561-1.938-9.975-2.312c-1.548-0.171-3.105-0.267-4.663-0.054
	c-0.388,0.054-0.782,0.043-1.137-0.129c-1.65-0.8-3.449-1.077-5.211-1.47c-1.848-0.412-3.708-0.769-5.569-1.121
	c-1.75-0.331-3.209-1.241-4.606-2.269c-1.614-1.188-2.988-2.639-4.365-4.083c-0.221-0.231-0.278-0.455-0.146-0.768
	c0.326-0.775,0.665-1.538,1.227-2.182c0.164-0.188,0.342-0.297,0.602-0.299c2.606-0.023,5.194,0.125,7.723,0.824
	c1.027,0.284,1.966,0.735,2.826,1.384c1.877,1.417,3.843,2.699,6.065,3.528c0.856,0.319,1.729,0.522,2.657,0.345
	c0.369-0.069,0.764,0.016,1.073,0.203c0.903,0.55,1.916,0.594,2.912,0.647c1.958,0.106,3.918,0.188,5.878,0.199
	c3.051,0.017,6.092-0.192,9.134-0.433c6.234-0.492,12.27,0.404,18.055,2.837c1.051,0.442,2.087,0.916,3.098,1.446
	c0.731,0.384,1.54,0.299,2.314,0.366c2.837,0.245,5.677,0.474,8.526,0.547c0.78,0.02,1.502-0.038,2.206-0.486
	c0.701-0.446,1.562-0.481,2.384-0.519c0.405-0.018,0.497-0.138,0.355-0.516c-0.265-0.708-0.451-1.438-0.553-2.189
	c-0.038-0.285-0.054-0.567-0.013-0.852c0.074-0.516,0.346-0.814,0.888-0.849c0.682-0.044,1.362-0.107,2.182-0.173
	c-0.461-0.267-0.812-0.475-1.166-0.673c-0.171-0.096-0.302-0.199-0.266-0.429c0.181-1.192,0.319-2.391,0.544-3.574
	c0.164-0.853,0.23-0.856,1.081-0.702c0.46,0.084,0.918,0.179,1.377,0.268c0.135-0.176-0.009-0.297-0.066-0.418
	c-0.487-1.049-0.958-2.107-1.487-3.135c-0.269-0.522-0.207-0.947,0.114-1.399c0.858-1.209,1.861-2.287,2.938-3.3
	c0.488-0.46,0.985-0.908,1.532-1.303c0.318-0.23,0.574-0.253,0.896,0.004c0.466,0.373,0.969,0.7,1.533,0.978
	c-0.531-0.842-1.031-1.706-1.605-2.517c-0.33-0.465-0.324-0.776,0.063-1.208c1.466-1.63,3.181-2.919,5.129-3.909
	c1.64-0.832,3.363-1.415,5.177-1.739c0.414-0.074,0.6,0.016,0.696,0.454c0.89,4.026,1.804,8.046,2.698,12.07
	c0.085,0.382,0.218,0.567,0.641,0.45c0.222-0.061,0.469-0.026,0.7-0.059c1.271-0.184,1.044-0.08,1.271,0.893
	c0.954,4.126,1.581,8.294,1.499,12.547c-0.006,0.276,0.054,0.477,0.325,0.611c0.814,0.405,1.642,0.755,2.552,0.888
	c1.48,0.215,2.334-0.727,1.927-2.185c-0.588-2.102-1.061-4.226-1.36-6.389c-0.373-2.695-0.566-5.397-0.361-8.119
	c0.064-0.846,0.442-1.572,0.88-2.274c1.327-2.125,2.321-4.392,2.713-6.874c0.185-1.166,0.102-2.346-0.551-3.409
	c-0.217-0.354-0.382-0.447-0.694-0.073c-0.782,0.938-1.843,1.13-2.972,0.93c-1.599-0.283-2.987-1.038-4.285-2.005
	c-1.05-0.783-1.094-1.857-0.878-2.945c0.168-0.835,0.185-1.453-0.52-2.111c-0.738-0.689-0.872-1.745-1.051-2.725
	c-0.323-1.794-0.436-3.591-0.1-5.398c0.444-2.375,1.664-4.176,3.866-5.253c2.067-1.01,4.234-1.42,6.495-0.899
	c1.739,0.4,3.182,1.382,4.449,2.619c0.255,0.249,0.412,0.568,0.541,0.9c0.504,1.304,1.217,2.449,2.353,3.319
	c0.625,0.479,0.987,1.167,1.232,1.919c0.591,1.82,0.984,3.688,1.405,5.55c0.213,0.945,0.07,1.824-0.632,2.515
	c-0.386,0.379-0.488,0.716-0.212,1.176c0.109,0.182,0.114,0.419,0.299,0.608c0.327-0.418,0.518-0.9,0.75-1.352
	c1.505-2.925,2.881-5.901,3.737-9.099c0.417-1.558,0.349-3.12,0.257-4.69c-0.128-2.2,0.007-4.392,0.261-6.573
	c0.492-4.245,1.24-8.452,2.073-12.643c0.364-1.822,0.764-3.641,1.221-5.443c0.49-1.932,1.462-3.669,2.369-5.427
	c0.422-0.82,0.875-1.623,1.302-2.441c0.23-0.446,0.562-0.767,0.99-1.035c2.174-1.361,4.343-2.736,6.203-4.527
	c0.228-0.221,0.433-0.465,0.647-0.699c0.076-0.083,0.117-0.23,0.262-0.197c0.151,0.036,0.19,0.185,0.214,0.315
	c0.064,0.385,0.038,0.765-0.094,1.139c-0.217,0.623-0.601,1.147-1.05,1.736c0.517-0.164,0.896-0.396,1.259-0.661
	c0.103-0.075,0.209-0.21,0.353-0.122c0.145,0.089,0.149,0.255,0.125,0.408c-0.06,0.382-0.292,0.67-0.538,0.948
	c-0.604,0.684-1.39,1.093-2.204,1.459c-0.228,0.103-0.449,0.221-0.666,0.356c0.552-0.049,1.11-0.054,1.605-0.357
	c0.095-0.058,0.201-0.162,0.315-0.058c0.124,0.11,0.059,0.252,0.016,0.376c-0.116,0.334-0.383,0.541-0.652,0.743
	c-0.606,0.455-1.319,0.655-2.039,0.816c-0.606,0.135-1.012,0.445-1.245,1.035c-0.195,0.498-0.472,0.963-0.711,1.443
	c-0.122,0.244-0.205,0.501-0.174,0.775c0.037,0.337,0.202,0.495,0.575,0.451c1.227-0.145,2.16-0.738,2.873-1.735
	c0.625-0.874,1.543-1.061,2.545-0.981c0.128,0.01,0.255,0.082,0.369,0.147c0.159,0.092,0.347,0.204,0.344,0.401
	c-0.004,0.201-0.234,0.208-0.375,0.284c-1.532,0.818-2.726,2.007-3.673,3.435c-0.847,1.278-1.694,2.539-2.969,3.443
	c-0.412,0.293-0.848,0.553-1.324,0.71c-0.443,0.146-0.678,0.441-0.857,0.845c-0.449,1.01-0.481,2.092-0.511,3.157
	c-0.047,1.709,0.109,3.417,0.321,5.112c0.507,4.062,0.88,8.131,0.734,12.229c-0.05,1.391-0.264,2.758-0.583,4.122
	c-0.28,1.2-0.351,2.45-0.582,3.667c-0.93,4.851-2.232,9.597-3.953,14.227c-0.224,0.604-0.227,0.615,0.414,0.613
	c4.855-0.013,9.675-0.349,14.432-1.404c1.282-0.284,2.406-0.91,3.604-1.382c2.441-0.962,4.99-1.435,7.603-1.534
	c4.643-0.177,9.252-0.71,13.855-1.296c1.163-0.148,2.326-0.325,3.495-0.391c0.98-0.056,1.933,0.201,2.813,0.649
	c1.497,0.762,3.042,1.403,4.635,1.937c0.37,0.124,0.693,0.305,0.973,0.597c0.33,0.348,0.817,0.456,1.254,0.606
	c1.409,0.489,2.836,0.926,4.313,1.17c0.126,0.021,0.309-0.006,0.33,0.162c0.022,0.182-0.161,0.249-0.293,0.296
	c-0.818,0.289-1.662,0.371-2.647,0.231c0.854,0.661,1.622,1.238,2.458,1.711c0.8,0.453,1.552,1,2.444,1.283
	c0.314,0.1,0.178,0.258,0,0.378c-0.388,0.261-0.819,0.277-1.261,0.205c-0.272-0.043-0.542-0.107-0.935-0.187
	c0.465,0.469,0.943,0.666,1.4,0.899c0.11,0.056,0.299,0.069,0.263,0.25c-0.027,0.141-0.178,0.196-0.308,0.232
	c-0.398,0.109-0.799,0.072-1.193-0.016c-1.128-0.249-2.17-0.718-3.128-1.342c-1.209-0.789-2.451-1.493-3.811-1.999
	c-0.607-0.226-1.226-0.327-1.854-0.42c-0.403-0.062-0.599,0.121-0.577,0.537c0.011,0.218,0.021,0.438-0.002,0.654
	c-0.082,0.747,0.258,1.214,0.891,1.588c1.002,0.593,1.353,1.623,1.602,2.684c0.06,0.256-0.101,0.492-0.268,0.682
	c-0.216,0.248-0.417,0.332-0.579-0.077c-0.274-0.69-0.784-1.206-1.349-1.661c-0.976-0.787-2-1.515-2.938-2.343
	c-1.253-1.109-2.499-2.237-3.439-3.647c-0.271-0.406-0.69-0.503-1.137-0.539c-1.071-0.084-2.105,0.151-3.119,0.448
	c-2.757,0.806-5.39,1.945-8.03,3.057c-2.29,0.965-4.66,1.704-6.997,2.53c-2.057,0.727-4.173,1.238-6.272,1.819
	c-2.698,0.748-5.399,1.473-8.136,2.062c-1.409,0.302-2.823,0.577-4.241,0.84c-0.326,0.061-0.398,0.177-0.36,0.5
	c0.362,3.046,0.518,6.108,0.702,9.168c0.133,2.232-0.49,4.33-1.318,6.35c-1.604,3.917-3.532,7.678-6.01,11.126
	c-0.995,1.386-2.035,2.747-3.228,3.977c-0.225,0.231-0.256,0.365,0.054,0.57c3.623,2.399,7.412,4.456,11.625,5.635
	c0.87,0.243,1.747,0.485,2.658,0.517c0.424,0.015,0.646,0.216,0.565,0.629c-0.185,0.972,0.358,1.359,1.166,1.646
	c0.884,0.313,1.73,0.728,2.601,1.081c0.289,0.117,0.386,0.266,0.27,0.573c-0.629,1.662-1.215,3.34-2.14,4.873
	c-0.394,0.651-0.896,1.146-1.575,1.502c-1.577,0.826-3.158,1.637-4.916,2.01c-0.559,0.119-1.12,0.218-1.694,0.101
	c-0.24-0.047-0.415,0.047-0.561,0.244c-0.526,0.713-1.296,1.098-2.051,1.502c-0.25,0.133-0.489,0.042-0.731-0.021
	c-1.137-0.295-2.283-0.523-3.465-0.568c-0.732-0.029-1.431,0.157-2.143,0.252c-0.997,0.136-1.937-0.027-2.832-0.469
	c-1.112-0.548-2.159-1.22-3.309-1.7c-0.421-0.177-0.548-0.082-0.616,0.34c-0.778,4.768-2.385,9.277-4.334,13.67
	c-0.745,1.681-1.402,3.372-1.58,5.217c-0.021,0.2-0.069,0.404-0.05,0.6c0.092,0.955-0.222,1.809-0.594,2.661
	c-0.569,1.307-1.112,2.625-1.323,4.05c-0.055,0.374-0.25,0.692-0.454,1.001c-0.64,0.966-0.918,2.036-0.956,3.183
	c-0.099,2.966-0.154,5.932-0.234,8.896c-0.186,7.041-0.214,14.081-0.158,21.123c0.014,1.847,0.255,3.676,0.415,5.511
	c0.341,3.91,0.32,7.789-0.741,11.624c-0.729,2.631-1.305,5.305-1.706,8.011c-0.05,0.328-0.203,0.466-0.524,0.475
	c-0.165,0.004-0.329,0.05-0.493,0.076C119.914,216.561,119.444,216.561,118.976,216.561z"/>
</svg>
