<?xml version="1.0" encoding="utf-8"?>
<!-- Generator: Adobe Illustrator 16.0.0, SVG Export Plug-In . SVG Version: 6.00 Build 0)  -->
<!DOCTYPE svg PUBLIC "-//W3C//DTD SVG 1.1//EN" "http://www.w3.org/Graphics/SVG/1.1/DTD/svg11.dtd">
<svg version="1.1" id="Layer_1" xmlns="http://www.w3.org/2000/svg" xmlns:xlink="http://www.w3.org/1999/xlink" x="0px" y="0px"
	 width="226.77px" height="226.77px" viewBox="0 0 226.77 226.77" enable-background="new 0 0 226.77 226.77" xml:space="preserve">
<path fill="#010101" d="M171.452,112.38c0.144-0.597,0.289-1.195,0.432-1.796c-0.11-0.249-0.226-0.495-0.342-0.741
	c-0.368-0.196-1.088-0.447-1.458-0.561c-0.07-0.423,0.336-0.545,0.436-0.838c-0.111-0.741-0.228-1.487-0.34-2.229
	c-0.918-0.131-1.841-0.268-2.756-0.401c-1.693-0.217-3.391-0.436-5.084-0.652c-1.034-0.052-2.069-0.102-3.102-0.153h-0.029
	c-0.012-0.322-0.019-0.644-0.031-0.962c-0.124-0.193-0.248-0.394-0.369-0.588c-0.396-0.16-3.534-0.005-4.154,0.093
	c-2.129,0.063-4.256,0.124-6.384,0.182c-0.773-0.346-1.549-0.696-2.326-1.049h-0.063c0.489-0.167,0.974-0.33,1.463-0.496
	c0.028-0.01,0.058-0.021,0.085-0.034c-0.004-1.423-0.574-1.621-0.956-2.48c-1.386,0.117-2.768,0.23-4.151,0.341
	c-1.001,0.189-2.007,0.375-3.009,0.563c-0.604-0.578-0.877-1.675-1.762-1.954c-0.44-0.14-1.054,0.229-1.616,0.124
	c-0.929-0.176-1.899-0.978-2.321-1.675c-0.135-0.455-0.272-0.911-0.406-1.366c-0.483-1.25-0.939-2.698-1.233-4.118
	c-0.128-1.899-0.253-3.804-0.378-5.702c-0.408-2.308-0.728-4.604-1.207-6.786c-0.136-0.754-0.265-1.51-0.401-2.264
	c-0.299-0.483-0.599-0.971-0.899-1.456c-0.053-0.307-0.106-0.621-0.156-0.928c-0.402-1.071-1.06-2.37-1.238-3.63
	c-0.065-0.465,0.596-0.822,0.526-1.393c-0.163-0.391-0.331-0.783-0.494-1.18c-0.063-0.265-0.128-0.533-0.186-0.805
	c-0.396-0.768-1.274-1.36-1.953-1.858c-0.332-0.259-0.661-0.516-0.993-0.774c-0.621-0.939-0.563-2.183-0.805-3.533
	c-0.105-0.583-0.193-1.742,0.03-2.354c0.372-1.015,1.797-2.258,2.604-2.913c2.393-2.147,4.797-4.298,7.19-6.445
	c1.333-1.471,2.665-2.936,4-4.401c1.273-1.603,2.627-3.158,3.901-4.742c0.981-1.219,2.58-1.81,3.533-3.067
	c0.438-0.712,0.868-1.425,1.304-2.136c1.886-3.015,3.487-6.288,5.327-9.361c1.155-1.928,2.228-3.869,3.286-5.919
	c0.33-0.638,0.663-1.279,0.988-1.92c0.352-0.35,0.707-0.705,1.055-1.055c0.796,0.165,1.591,0.33,2.39,0.496
	c0.128,0.015,1.727-0.096,1.916-0.154c0.304-0.177,0.604-0.351,0.902-0.53c-0.041-0.756-0.085-1.818-0.526-2.196
	c-0.313-0.208-0.62-0.41-0.932-0.621c-0.223-0.259-0.049-1.183-0.124-1.548c-0.111-0.224-0.227-0.456-0.339-0.683
	c-0.364-0.871-0.354-1.871-1.486-1.982c-0.131,0.187-0.269,0.373-0.402,0.559c-0.121,0.409-0.056,0.809-0.219,1.143
	c-0.07,0.07-0.266,0.14-0.373,0.155c-0.296-0.051-0.6-0.104-0.896-0.155c-0.477,0.042-0.95,0.085-1.429,0.127
	c-0.279-0.434-0.554-0.872-0.835-1.305c-1.57-0.034-1.135,1.412-0.803,2.451v0.153c-0.155,0.041-0.313,0.082-0.469,0.124
	c-0.133-0.308-0.266-0.621-0.4-0.929c-0.396-0.548-0.957-0.991-1.363-1.518h-0.562c-0.74,1.139,0.281,1.615,0.591,2.604
	c0.03,0.761,0.063,1.523,0.092,2.29c-0.164,0.333-0.328,0.662-0.497,0.992c-0.745,1.188-1.893,2.058-2.755,3.13
	c-2.837,3.51-6.658,6.126-9.484,9.641c-0.544,0.74-1.094,1.483-1.645,2.229c-0.4,0.768-0.803,1.529-1.206,2.296
	c-1.46,2.034-3.332,3.671-5.082,5.421c-0.836,0.886-1.676,1.773-2.512,2.666c-2.319,1.747-5.742,2.414-8.09,4.119
	c-0.533,0.393-1.072,0.787-1.609,1.18c-0.372,0.474-0.742,0.947-1.115,1.427c-0.456,0.317-0.91,0.637-1.361,0.958
	c-0.736,0.661-1.471,1.323-2.205,1.979c-0.719,0.698-1.444,1.39-2.169,2.08c-0.443,0.281-1.109,0.236-1.701,0.345
	c-0.612,0.06-1.221,0.121-1.83,0.184c-1.397-0.382-3.044-3.229-3.406-4.711c-0.675-2.757,3.82-2.304,4.893-3.47
	c0.339-0.369,1.009-1.795,0.932-2.513c-0.021-0.464-0.04-0.928-0.059-1.394c0.168-0.603,0.649-1.07,0.74-1.831
	c-0.07-0.134-0.144-0.266-0.219-0.398l-0.773-0.158c-0.369,0.092-0.744,0.187-1.113,0.282c-0.088-0.074-0.167-0.148-0.249-0.22
	c-0.451-0.284-0.947-0.375-1.707-0.37c-1.224-3.749-3.277-6.709-6.85-8.088l-2.354-0.313c-0.542-0.107-1.304,0.024-1.948-0.094
	c-0.825-0.146-1.716,0.049-2.356,0.185c-3.217,0.692-4.765,1.408-6.913,3.103c-0.533,0.422-1.278,0.966-1.728,1.573
	c-0.04-0.023-0.078-0.044-0.114-0.064c-1.321,1.734-1.995,3.504-2.306,4.654c-0.394,1.3-0.616,2.837,0.027,3.855
	c0.063,0.258,0.154,0.502,0.277,0.717c0.325,0.544,0.71,1.018,1.147,1.387c0.266,0.231,0.609,0.457,0.932,0.597
	c0.144,0.06,0.364,0.075,0.49,0.169c0.138,0.106,0.166,0.42,0.257,0.616c0.136,0.27,0.513,0.854,0.553,1.108
	c-0.017,0.019-0.023,0.034-0.039,0.047c-0.148,0.118-0.499,0.33-0.733,0.323c-0.125-0.006-0.337-0.119-0.446-0.024
	c0.034,0.199,0.604,0.413,0.802,0.409c0.188-0.005,0.385-0.082,0.563-0.152c0.017,0.001,0.032,0.019,0.049,0.023
	c-0.029,0.308-0.182,0.599-0.271,0.883c-0.083,0.24-0.105,0.483-0.192,0.715c-0.146,0.362-0.302,0.733-0.438,1.106
	c-0.078,0.202-0.43,0.814-0.234,1.084c0.146,0.205,0.374,0.371,0.59,0.443c0.48,0.174,0.747-0.18,1.07,0.368
	c0.215,0.363-0.246,0.589-0.283,0.856c-0.012,0.155,0.104,0.372,0.173,0.455c0.338,0.436,0.896,0.354,1.532,0.25l0.005,0.037
	c0.003,0.006,0,0.012,0,0.022c-0.146,0.085-0.259,0.204-0.342,0.316c-0.085,0.103-0.145,0.187-0.195,0.298
	c-0.092,0.173,0.069,0.48,0.188,0.589c0.4,0.347,0.929-0.026,1.313,0.542c0.216,0.307,0.095,0.756,0.116,1.06
	c0.017,0.146,0.192,0.537,0.323,0.751c0.012,0.015,0.012,0.017,0.017,0.027c0.03,0.047,0.066,0.091,0.08,0.108
	c0,0,0.007,0,0.016,0.003c0.119,0.133,0.335,0.269,0.664,0.318c0.423,0.1,0.992,0.013,1.537-0.248
	c0.609-0.299,1.229-0.566,1.825-0.859c0.038,0,0.073,0.002,0.109-0.017c0.226-0.122,0.844-0.405,1.39-0.661
	c0.422,0.798,0.852,1.748,0.791,2.005c-0.108,0.476-1.381,2.277-1.73,2.632c-0.755,0.712-1.513,1.429-2.264,2.141
	c-0.539,0.566-1.077,1.135-1.612,1.705c-1.895,1.48-3.732,2.87-5.238,4.74c-0.395,0.412-0.784,0.829-1.176,1.237
	c-0.188,0.425-0.374,0.849-0.56,1.271c-0.695,1.577-1.254,3.56-1.702,5.455c-0.155,0.91-0.31,1.817-0.466,2.724
	c-0.391,1.213-1.413,2.238-2.05,3.287c-0.621,1.043-0.842,2.43-1.484,3.473c-1.001,1.626-3.057,2.265-4.117,3.809
	c-0.53,1.023-1.059,2.049-1.583,3.068c-2.134,3.595-3.991,7.452-6.137,11.097c-0.734,1.064-1.466,2.13-2.201,3.19
	c-0.588,0.727-1.433,1.257-1.952,2.044c-0.072,0.28-0.142,0.558-0.215,0.836c-0.229,0.436-0.456,0.872-0.686,1.306
	c-0.918,1.509-2.003,2.986-3.039,4.4c-0.619,0.853-1.216,1.752-1.576,2.881c-0.274,0.865-0.3,1.628-0.618,2.478
	c-0.118,0.306-0.392,0.484-0.466,0.871c-0.034,0.917-0.063,1.836-0.096,2.759c0.096,0.442,0.187,0.887,0.281,1.33
	c-0.235,1.29-1.081,3.128-0.22,4.245c0.229,0.012,0.467,0.101,0.684,0.029c0.2-0.066,0.372-0.229,0.494-0.399
	c0.239-0.333,0.291-0.769,0.438-1.146v-0.063c0.29,0.728-0.086,2.095,0.153,2.878c0.069,0.137,0.088,0.324,0.214,0.404
	c0.185,0.117,0.447,0.095,0.653,0.028c0.792-0.693,0.723-1.867,1.023-3.531c0.348-1.938,0.492-3.744,1.7-4.8
	c-0.264,0.471,0.029,1.916,0.407,2.047c0.192,0.066,0.448,0.176,0.62,0.059c0.765-0.523,1.535-1.876,2.294-2.944
	c0.784-0.792,1.57-1.592,2.355-2.388c0.893-1.256,1.146-3.162,1.113-5.328c0.897-0.244,1.646,0.498,2.077,1.022
	c0.235-0.092,0.476-0.185,0.713-0.28c0.517,0.501,1.141,1.389,2.415,1.087c0.227-0.103,0.456-0.203,0.681-0.313
	c0.271,0.022,0.541,0.044,0.806,0.063c0.709-0.104,1.316-0.189,1.831-0.433c0.344,0.217,1.979,0.815,2.664,0.588l0.867-0.433
	c0.269,0.174,0.539,0.352,0.806,0.527l0.311,0.435c0.783,0.466,2.59,0.603,3.224-0.035c0.574,0.138,1.165,0.495,1.86,0.559
	c0.426,0.045,0.564-0.462,1.112-0.336c0.661,0.142,1.728,1.403,2.885,1.08c0.572-0.157,1.111-0.687,1.612-0.962
	c0.464,0.596,1.535,0.992,2.26,1.304c0.568-0.379,1.139-0.763,1.702-1.147c0.095,0.062,0.188,0.128,0.281,0.185
	c0.156,0.34-0.08,0.792,0.031,1.182c0.116,0.218,0.229,0.434,0.342,0.65c0.229,0.021,0.451,0.043,0.682,0.062
	c-0.579,2.086-1.155,4.174-1.734,6.259c-0.463,2.047-0.93,4.091-1.396,6.141c-0.145,1.257-0.29,2.519-0.434,3.777
	c-0.124,1.612-0.249,3.225-0.373,4.838v1.577c-0.02,1.055-0.041,2.104-0.063,3.161v2.264c0.021,0.792,0.043,1.595,0.063,2.387
	c0.256,1.611-0.105,4.04-0.34,5.487c-0.38,2.369,0.589,4.072,1.209,5.481c0.166,0.351,0.327,0.704,0.492,1.058
	c-0.135,0.71-0.834,1.31-1.142,1.919c-0.7,1.378-1.073,3.071-1.553,4.588c-1.99,6.328-3.516,12.913-6.32,18.404
	c-0.568,1.114-1.375,2.272-2.328,3.009c-0.524,0.409-1.134,0.626-1.7,1.021c-0.267,0.354-0.539,0.703-0.807,1.056
	c-0.568,0.73-1.429,1.312-1.675,2.354c-0.271,1.17,0.379,2.181,0.563,2.972c0.007,0.24,0.018,0.478,0.028,0.714
	c-1.179,1.463-2.356,2.916-3.535,4.373c-0.817,1.208-1.479,2.381-2.103,3.811c-0.242,0.516-0.477,1.034-0.717,1.549
	c-0.212,0.778-0.473,1.933-0.245,2.789c0.3,1.15,1.74,2.714,2.727,3.222c0.347,0.179,1.42,0.827,1.983,0.687
	c0.536-0.345,1.073-0.687,1.611-1.027c1.614-1.004,3.654-2.963,4.831-4.431c0.576-0.712,1.384-1.159,1.738-2.104
	c0.767-2.037,1.267-4.15,1.858-6.296c0.244-0.885,0.456-1.725,0.713-2.539c0.096-0.342,0.187-0.682,0.281-1.021
	c0.348-0.361,0.699-0.726,1.051-1.087c0.307-0.381,0.584-0.835,0.837-1.269c1.679-2.861,2.718-6.115,4.587-8.772
	c0.983-1.381,1.966-2.769,2.946-4.153c0.577-1.041,1.155-2.084,1.732-3.128c0.548-0.962,1.095-1.921,1.646-2.884
	c0.019-0.009,0.037-0.021,0.062-0.028c1.609,3.256,3.787,6.176,5.667,9.173c1.452,2.309,2.749,4.648,4.156,7.03
	c0.542,0.922,0.981,1.947,1.549,2.886c0.77,1.264,1.65,2.724,2.047,4.37c-0.043,0.455-0.087,0.908-0.124,1.362
	c0.092,0.205,0.186,0.414,0.274,0.619c-0.774,0.981-2.762,1.203-4.272,1.522c-0.994,0.237-1.981,0.473-2.977,0.707
	c-1.705,0.239-3.409,0.479-5.112,0.718c-2.538,0.485-5.054,0.523-4.433,3.901c0.087,0.461,0.12,1.059,0.278,1.429
	c0.438,0.252,1.213,0.148,1.798,0.246c1.97,0.331,4.663,0.096,6.815,0.096c1.491-0.044,2.98-0.085,4.466-0.125
	c0.804-0.052,1.609-0.107,2.414-0.159c1.337,0.118,2.67,0.232,4.003,0.344c1.141,0.011,2.291,0.025,3.436,0.03
	c1.157,0.084,2.313,0.166,3.473,0.248c0.754-0.164,1.51-0.33,2.259-0.495c0.243-0.475,0.484-0.95,0.716-1.425
	c-0.021-0.402-0.04-0.807-0.065-1.211c-0.186-1.178-0.024-2.181-0.306-3.223c-0.385-0.638-0.766-1.28-1.146-1.92
	c-0.877-1.611-1.756-3.222-2.634-4.835c-0.529-1.014-1.053-2.026-1.58-3.036c-0.633-1.714-1.263-3.43-1.889-5.146
	c-0.834-2.085-1.687-4.282-2.329-6.538c-0.156-0.799-0.31-1.594-0.465-2.389c-0.449-1.651-0.969-3.303-1.518-4.861
	c-0.195-0.632-0.391-1.265-0.588-1.891c-1.454-3.023-3.189-5.737-5.019-8.339c-0.674-0.955-1.349-1.923-2.017-2.885
	c0.237-0.957,0.475-1.92,0.712-2.878c1.013-2.813,2.416-5.604,3.875-7.995c0.391-0.673,0.787-1.345,1.177-2.015
	c2.426-3.281,5.663-5.867,8.183-9.052c1.641-2.126,3.286-4.257,4.927-6.387c0.936-1.521,1.88-3.059,2.819-4.585
	c0.555-1.101,1.118-2.211,1.674-3.314c1.063-1.814,2.379-4.11,2.979-6.26c0.46,0.151,0.895,0.347,1.396,0.528h0.027
	c-0.073-0.31-0.144-0.621-0.219-0.931c0.84,0.257,0.737,0.606,1.271,0.992c0.904,0.65,2.165,0.887,3.285,1.302h0.03
	c-0.122-0.308-0.243-0.623-0.368-0.931c1.448,0.678,3.183,2.046,5.015,1.611c-0.131-0.272-0.264-0.536-0.398-0.803v-0.033
	c0.483,0.028,1.109,0.145,1.457,0.37c0.111,0.157,0.224,0.309,0.336,0.466c0.234,0.195,1.712,0.725,2.201,0.588
	c0.19-0.132,0.373-0.268,0.558-0.403c0.011-0.019,0.026-0.039,0.029-0.063c-0.241-0.257-0.491-0.514-0.74-0.772
	c0.011-0.26,0.021-0.517,0.033-0.777c0.161,0.124,0.328,0.25,0.493,0.374c0.243,0.28,0.969,0,1.179-0.158
	c0.971-0.771,1.945-1.549,2.912-2.319c0.849,0.392,1.694,0.784,2.541,1.178c0.45,0.126,0.85-0.212,1.273-0.095
	c0.316,0.21,0.639,0.413,0.956,0.617c0.571,0.208,1.139,0.417,1.707,0.619c0.491,0.256,0.911,0.713,1.459,0.995
	c0.236-0.092,0.472-0.187,0.71-0.282c0.049-0.122,0.104-0.241,0.155-0.37c-0.149-0.288-0.234-0.548-0.34-0.93
	c0.083-0.296,1.067-0.713,1.395-0.773c0.256,0.311,0.516,0.619,0.772,0.931c0.332,0.114,1.215-0.478,1.642-0.62
	c0.843-0.284,1.645-0.442,2.324-0.866l0.466-0.467c0.327-0.199,0.841-0.235,1.023-0.558c0.231-0.404,0.1-0.903,0.032-1.304
	c0.512-0.662,1.19-1.18,1.644-1.92c0.1-0.473,0.202-0.95,0.306-1.424c0.168-0.262,0.333-0.518,0.5-0.774
	c0.08-0.734,0.165-1.47,0.245-2.201C171.844,112.857,171.648,112.619,171.452,112.38z M101.754,100.73
	c-2.862,0.666-6.833,0.039-10.164,0.032c-0.372,0.433-0.743,0.863-1.117,1.3c-1.66,0.081-3.323,0.165-4.988,0.246l-0.249,1.025
	c-1.759,0.028-3.509,0.062-5.269,0.091c-0.298,0.525-0.599,1.055-0.898,1.583c-0.762,0.039-1.528,0.081-2.293,0.124
	c2.138-2.287,4.276-4.566,6.415-6.851c0.826-1.146,1.082-2.683,1.797-3.965c0.394-0.53,0.787-1.056,1.18-1.582
	c0.734-1.312,1.467-2.624,2.199-3.937c1.259-2.103,2.527-4.155,3.501-6.539c0.207-0.515,0.417-1.031,0.622-1.548
	c0.422,0.074,0.844,0.144,1.27,0.214c0.405,0.29,0.803,0.58,1.212,0.869c0.132,0.042,0.266,0.083,0.398,0.125
	c0.232,0.184,0.299,0.765,0.711,1.085c0.84,0.641,1.676,1.281,2.514,1.92c0.298,0.395,0.599,0.788,0.899,1.18
	c0.592,0.733,1.174,1.468,1.763,2.197c0.466,0.944,0.935,1.884,1.398,2.825c0.488,0.955,0.944,1.906,1.426,2.91
	c0.158,0.333,0.578,0.804,0.495,1.3C104.258,97.257,102.593,99.153,101.754,100.73z"/>
</svg>
