  0
SECTION
  2
HEADER
  9
$ACADVER
  1
AC1021
  9
$ACADMAINTVER
 70
    25
  9
$DWGCODEPAGE
  3
ANSI_1252
  9
$INSBASE
 10
0.0
 20
0.0
 30
0.0
  9
$EXTMIN
 10
1.000000000000000E+20
 20
1.000000000000000E+20
 30
1.000000000000000E+20
  9
$EXTMAX
 10
-1.000000000000000E+20
 20
-1.000000000000000E+20
 30
-1.000000000000000E+20
  9
$LIMMIN
 10
0.0
 20
0.0
  9
$LIMMAX
 10
12.0
 20
9.0
  9
$ORTHOMODE
 70
     0
  9
$REGENMODE
 70
     1
  9
$FILLMODE
 70
     1
  9
$QTEXTMODE
 70
     0
  9
$MIRRTEXT
 70
     1
  9
$LTSCALE
 40
1.0
  9
$ATTMODE
 70
     1
  9
$TEXTSIZE
 40
0.2
  9
$TRACEWID
 40
0.05
  9
$TEXTSTYLE
  7
Standard
  9
$CLAYER
  8
0
  9
$CELTYPE
  6
ByLayer
  9
$CECOLOR
 62
   256
  9
$CELTSCALE
 40
1.0
  9
$DISPSILH
 70
     0
  9
$DIMSCALE
 40
1.0
  9
$DIMASZ
 40
0.18
  9
$DIMEXO
 40
0.0625
  9
$DIMDLI
 40
0.38
  9
$DIMRND
 40
0.0
  9
$DIMDLE
 40
0.0
  9
$DIMEXE
 40
0.18
  9
$DIMTP
 40
0.0
  9
$DIMTM
 40
0.0
  9
$DIMTXT
 40
0.18
  9
$DIMCEN
 40
0.09
  9
$DIMTSZ
 40
0.0
  9
$DIMTOL
 70
     0
  9
$DIMLIM
 70
     0
  9
$DIMTIH
 70
     1
  9
$DIMTOH
 70
     1
  9
$DIMSE1
 70
     0
  9
$DIMSE2
 70
     0
  9
$DIMTAD
 70
     0
  9
$DIMZIN
 70
     0
  9
$DIMBLK
  1

  9
$DIMASO
 70
     1
  9
$DIMSHO
 70
     1
  9
$DIMPOST
  1

  9
$DIMAPOST
  1

  9
$DIMALT
 70
     0
  9
$DIMALTD
 70
     2
  9
$DIMALTF
 40
25.4
  9
$DIMLFAC
 40
1.0
  9
$DIMTOFL
 70
     0
  9
$DIMTVP
 40
0.0
  9
$DIMTIX
 70
     0
  9
$DIMSOXD
 70
     0
  9
$DIMSAH
 70
     0
  9
$DIMBLK1
  1

  9
$DIMBLK2
  1

  9
$DIMSTYLE
  2
Standard
  9
$DIMCLRD
 70
     0
  9
$DIMCLRE
 70
     0
  9
$DIMCLRT
 70
     0
  9
$DIMTFAC
 40
1.0
  9
$DIMGAP
 40
0.09
  9
$DIMJUST
 70
     0
  9
$DIMSD1
 70
     0
  9
$DIMSD2
 70
     0
  9
$DIMTOLJ
 70
     1
  9
$DIMTZIN
 70
     0
  9
$DIMALTZ
 70
     0
  9
$DIMALTTZ
 70
     0
  9
$DIMUPT
 70
     0
  9
$DIMDEC
 70
     4
  9
$DIMTDEC
 70
     4
  9
$DIMALTU
 70
     2
  9
$DIMALTTD
 70
     2
  9
$DIMTXSTY
  7
Standard
  9
$DIMAUNIT
 70
     0
  9
$DIMADEC
 70
     0
  9
$DIMALTRND
 40
0.0
  9
$DIMAZIN
 70
     0
  9
$DIMDSEP
 70
    46
  9
$DIMATFIT
 70
     3
  9
$DIMFRAC
 70
     0
  9
$DIMLDRBLK
  1

  9
$DIMLUNIT
 70
     2
  9
$DIMLWD
 70
    -2
  9
$DIMLWE
 70
    -2
  9
$DIMTMOVE
 70
     0
  9
$DIMFXL
 40
1.0
  9
$DIMFXLON
 70
     0
  9
$DIMJOGANG
 40
0.7853981633974483
  9
$DIMTFILL
 70
     0
  9
$DIMTFILLCLR
 70
     0
  9
$DIMARCSYM
 70
     0
  9
$DIMLTYPE
  6

  9
$DIMLTEX1
  6

  9
$DIMLTEX2
  6

  9
$LUNITS
 70
     2
  9
$LUPREC
 70
     4
  9
$SKETCHINC
 40
0.1
  9
$FILLETRAD
 40
0.5
  9
$AUNITS
 70
     0
  9
$AUPREC
 70
     0
  9
$MENU
  1
.
  9
$ELEVATION
 40
0.0
  9
$PELEVATION
 40
0.0
  9
$THICKNESS
 40
0.0
  9
$LIMCHECK
 70
     0
  9
$CHAMFERA
 40
0.5
  9
$CHAMFERB
 40
0.5
  9
$CHAMFERC
 40
1.0
  9
$CHAMFERD
 40
0.0
  9
$SKPOLY
 70
     0
  9
$TDCREATE
 40
2458551.626315787
  9
$TDUCREATE
 40
2458551.33464912
  9
$TDUPDATE
 40
2458551.62631581
  9
$TDUUPDATE
 40
2458551.334649144
  9
$TDINDWG
 40
0.0000000116
  9
$TDUSRTIMER
 40
0.0000000116
  9
$USRTIMER
 70
     1
  9
$ANGBASE
 50
0.0
  9
$ANGDIR
 70
     0
  9
$PDMODE
 70
     0
  9
$PDSIZE
 40
0.0
  9
$PLINEWID
 40
0.0
  9
$SPLFRAME
 70
     0
  9
$SPLINETYPE
 70
     6
  9
$SPLINESEGS
 70
     8
  9
$HANDSEED
  5
65
  9
$SURFTAB1
 70
     6
  9
$SURFTAB2
 70
     6
  9
$SURFTYPE
 70
     6
  9
$SURFU
 70
     6
  9
$SURFV
 70
     6
  9
$UCSBASE
  2

  9
$UCSNAME
  2

  9
$UCSORG
 10
0.0
 20
0.0
 30
0.0
  9
$UCSXDIR
 10
1.0
 20
0.0
 30
0.0
  9
$UCSYDIR
 10
0.0
 20
1.0
 30
0.0
  9
$UCSORTHOREF
  2

  9
$UCSORTHOVIEW
 70
     0
  9
$UCSORGTOP
 10
0.0
 20
0.0
 30
0.0
  9
$UCSORGBOTTOM
 10
0.0
 20
0.0
 30
0.0
  9
$UCSORGLEFT
 10
0.0
 20
0.0
 30
0.0
  9
$UCSORGRIGHT
 10
0.0
 20
0.0
 30
0.0
  9
$UCSORGFRONT
 10
0.0
 20
0.0
 30
0.0
  9
$UCSORGBACK
 10
0.0
 20
0.0
 30
0.0
  9
$PUCSBASE
  2

  9
$PUCSNAME
  2

  9
$PUCSORG
 10
0.0
 20
0.0
 30
0.0
  9
$PUCSXDIR
 10
1.0
 20
0.0
 30
0.0
  9
$PUCSYDIR
 10
0.0
 20
1.0
 30
0.0
  9
$PUCSORTHOREF
  2

  9
$PUCSORTHOVIEW
 70
     0
  9
$PUCSORGTOP
 10
0.0
 20
0.0
 30
0.0
  9
$PUCSORGBOTTOM
 10
0.0
 20
0.0
 30
0.0
  9
$PUCSORGLEFT
 10
0.0
 20
0.0
 30
0.0
  9
$PUCSORGRIGHT
 10
0.0
 20
0.0
 30
0.0
  9
$PUCSORGFRONT
 10
0.0
 20
0.0
 30
0.0
  9
$PUCSORGBACK
 10
0.0
 20
0.0
 30
0.0
  9
$USERI1
 70
     0
  9
$USERI2
 70
     0
  9
$USERI3
 70
     0
  9
$USERI4
 70
     0
  9
$USERI5
 70
     0
  9
$USERR1
 40
0.0
  9
$USERR2
 40
0.0
  9
$USERR3
 40
0.0
  9
$USERR4
 40
0.0
  9
$USERR5
 40
0.0
  9
$WORLDVIEW
 70
     1
  9
$SHADEDGE
 70
     3
  9
$SHADEDIF
 70
    70
  9
$TILEMODE
 70
     1
  9
$MAXACTVP
 70
    64
  9
$PINSBASE
 10
0.0
 20
0.0
 30
0.0
  9
$PLIMCHECK
 70
     0
  9
$PEXTMIN
 10
1.000000000000000E+20
 20
1.000000000000000E+20
 30
1.000000000000000E+20
  9
$PEXTMAX
 10
-1.000000000000000E+20
 20
-1.000000000000000E+20
 30
-1.000000000000000E+20
  9
$PLIMMIN
 10
0.0
 20
0.0
  9
$PLIMMAX
 10
12.0
 20
9.0
  9
$UNITMODE
 70
     0
  9
$VISRETAIN
 70
     1
  9
$PLINEGEN
 70
     0
  9
$PSLTSCALE
 70
     1
  9
$TREEDEPTH
 70
  3020
  9
$CMLSTYLE
  2
Standard
  9
$CMLJUST
 70
     0
  9
$CMLSCALE
 40
1.0
  9
$PROXYGRAPHICS
 70
     1
  9
$MEASUREMENT
 70
     0
  9
$CELWEIGHT
370
    -1
  9
$ENDCAPS
280
     0
  9
$JOINSTYLE
280
     0
  9
$LWDISPLAY
290
     1
  9
$INSUNITS
 70
     1
  9
$HYPERLINKBASE
  1

  9
$STYLESHEET
  1

  9
$XEDIT
290
     1
  9
$CEPSNTYPE
380
     0
  9
$PSTYLEMODE
290
     1
  9
$FINGERPRINTGUID
  2
{4DFF6071-C08B-4322-B8BB-6290376E30A3}
  9
$VERSIONGUID
  2
{FAEB1C32-E019-11D5-929B-00C0DF256EC4}
  9
$EXTNAMES
290
     1
  9
$PSVPSCALE
 40
0.0
  9
$OLESTARTUP
290
     0
  9
$SORTENTS
280
   127
  9
$INDEXCTL
280
     0
  9
$HIDETEXT
280
     1
  9
$XCLIPFRAME
290
     0
  9
$HALOGAP
280
     0
  9
$OBSCOLOR
 70
   257
  9
$OBSLTYPE
280
     0
  9
$INTERSECTIONDISPLAY
280
     0
  9
$INTERSECTIONCOLOR
 70
   257
  9
$DIMASSOC
280
     2
  9
$PROJECTNAME
  1

  9
$CAMERADISPLAY
290
     0
  9
$LENSLENGTH
 40
50.0
  9
$CAMERAHEIGHT
 40
0.0
  9
$STEPSPERSEC
 40
2.0
  9
$STEPSIZE
 40
6.0
  9
$3DDWFPREC
 40
2.0
  9
$PSOLWIDTH
 40
0.25
  9
$PSOLHEIGHT
 40
4.0
  9
$LOFTANG1
 40
1.570796326794897
  9
$LOFTANG2
 40
1.570796326794897
  9
$LOFTMAG1
 40
0.0
  9
$LOFTMAG2
 40
0.0
  9
$LOFTPARAM
 70
     7
  9
$LOFTNORMALS
280
     1
  9
$LATITUDE
 40
37.795
  9
$LONGITUDE
 40
-122.394
  9
$NORTHDIRECTION
 40
0.0
  9
$TIMEZONE
 70
 -8000
  9
$LIGHTGLYPHDISPLAY
280
     1
  9
$TILEMODELIGHTSYNCH
280
     1
  9
$CMATERIAL
347
3C
  9
$SOLIDHIST
280
     1
  9
$SHOWHIST
280
     1
  9
$DWFFRAME
280
     2
  9
$DGNFRAME
280
     2
  9
$REALWORLDSCALE
290
     1
  9
$INTERFERECOLOR
 62
   256
  9
$CSHADOW
280
     0
  9
$SHADOWPLANELOCATION
 40
0.0
  0
ENDSEC
  0
SECTION
  2
CLASSES
  0
CLASS
  1
ACDBDICTIONARYWDFLT
  2
AcDbDictionaryWithDefault
  3
ObjectDBX Classes
 90
        0
 91
        4
280
     0
281
     0
  0
CLASS
  1
VISUALSTYLE
  2
AcDbVisualStyle
  3
ObjectDBX Classes
 90
     4095
 91
        4
280
     0
281
     0
  0
CLASS
  1
MATERIAL
  2
AcDbMaterial
  3
ObjectDBX Classes
 90
     1153
 91
        4
280
     0
281
     0
  0
CLASS
  1
SUN
  2
AcDbSun
  3
SCENEOE
 90
     1024
 91
        4
280
     0
281
     0
  0
ENDSEC
  0
SECTION
  2
TABLES
  0
TABLE
  2
VPORT
  5
8
330
0
100
AcDbSymbolTable
 70
     1
  0
VPORT
  5
29
330
8
100
AcDbSymbolTableRecord
100
AcDbViewportTableRecord
  2
*Active
 70
     0
 10
0.0
 20
0.0
 11
1.0
 21
1.0
 12
0.0
 22
0.0
 13
0.0
 23
0.0
 14
0.5
 24
0.5
 15
0.5
 25
0.5
 16
0.0
 26
0.0
 36
1.0
 17
39.99961911841359
 27
-39.99962012888904
 37
0.0
 40
79.99924025777808
 41
0.9999999747378738
 42
50.0
 43
0.0
 44
0.0
 50
0.0
 51
0.0
 71
     0
 72
   100
 73
     1
 74
     3
 75
     0
 76
     0
 77
     0
 78
     0
281
     0
 65
     1
110
0.0
120
0.0
130
0.0
111
1.0
121
0.0
131
0.0
112
0.0
122
1.0
132
0.0
 79
     0
146
0.0
 60
     3
 61
     5
292
     1
282
     1
141
0.0
142
0.0
 63
   250
361
3F
  0
ENDTAB
  0
TABLE
  2
LTYPE
  5
5
330
0
100
AcDbSymbolTable
 70
     1
  0
LTYPE
  5
14
330
5
100
AcDbSymbolTableRecord
100
AcDbLinetypeTableRecord
  2
ByBlock
 70
     0
  3

 72
    65
 73
     0
 40
0.0
  0
LTYPE
  5
15
330
5
100
AcDbSymbolTableRecord
100
AcDbLinetypeTableRecord
  2
ByLayer
 70
     0
  3

 72
    65
 73
     0
 40
0.0
  0
LTYPE
  5
16
330
5
100
AcDbSymbolTableRecord
100
AcDbLinetypeTableRecord
  2
Continuous
 70
     0
  3
Solid line
 72
    65
 73
     0
 40
0.0
  0
ENDTAB
  0
TABLE
  2
LAYER
  5
2
330
0
100
AcDbSymbolTable
 70
     2
  0
LAYER
  5
10
330
2
100
AcDbSymbolTableRecord
100
AcDbLayerTableRecord
  2
0
 70
     0
 62
     7
  6
Continuous
370
    -3
390
F
347
3E
  0
LAYER
  5
40
330
2
100
AcDbSymbolTableRecord
100
AcDbLayerTableRecord
  2
Layer 1
 70
     0
 62
     7
  6
Continuous
370
    -3
390
F
347
3E
  0
ENDTAB
  0
TABLE
  2
STYLE
  5
3
330
0
100
AcDbSymbolTable
 70
     1
  0
STYLE
  5
11
330
3
100
AcDbSymbolTableRecord
100
AcDbTextStyleTableRecord
  2
Standard
 70
     0
 40
0.0
 41
1.0
 50
0.0
 71
     0
 42
0.2
  3
txt
  4

  0
ENDTAB
  0
TABLE
  2
VIEW
  5
6
330
0
100
AcDbSymbolTable
 70
     0
  0
ENDTAB
  0
TABLE
  2
UCS
  5
7
330
0
100
AcDbSymbolTable
 70
     0
  0
ENDTAB
  0
TABLE
  2
APPID
  5
9
330
0
100
AcDbSymbolTable
 70
     1
  0
APPID
  5
12
330
9
100
AcDbSymbolTableRecord
100
AcDbRegAppTableRecord
  2
ACAD
 70
     0
  0
ENDTAB
  0
TABLE
  2
DIMSTYLE
  5
A
330
0
100
AcDbSymbolTable
 70
     1
100
AcDbDimStyleTable
  0
DIMSTYLE
105
27
330
A
100
AcDbSymbolTableRecord
100
AcDbDimStyleTableRecord
  2
Standard
 70
     0
178
     0
340
11
  0
ENDTAB
  0
TABLE
  2
BLOCK_RECORD
  5
1
330
0
100
AcDbSymbolTable
 70
     1
  0
BLOCK_RECORD
  5
1F
330
1
100
AcDbSymbolTableRecord
100
AcDbBlockTableRecord
  2
*Model_Space
340
22
 70
     0
280
     1
281
     0
  0
BLOCK_RECORD
  5
1B
330
1
100
AcDbSymbolTableRecord
100
AcDbBlockTableRecord
  2
*Paper_Space
340
1E
 70
     0
280
     1
281
     0
  0
BLOCK_RECORD
  5
23
330
1
100
AcDbSymbolTableRecord
100
AcDbBlockTableRecord
  2
*Paper_Space0
340
26
 70
     0
280
     1
281
     0
  0
ENDTAB
  0
ENDSEC
  0
SECTION
  2
BLOCKS
  0
BLOCK
  5
20
330
1F
100
AcDbEntity
  8
0
100
AcDbBlockBegin
  2
*Model_Space
 70
     0
 10
0.0
 20
0.0
 30
0.0
  3
*Model_Space
  1

  0
ENDBLK
  5
21
330
1F
100
AcDbEntity
  8
0
100
AcDbBlockEnd
  0
BLOCK
  5
1C
330
1B
100
AcDbEntity
 67
     1
  8
0
100
AcDbBlockBegin
  2
*Paper_Space
 70
     0
 10
0.0
 20
0.0
 30
0.0
  3
*Paper_Space
  1

  0
ENDBLK
  5
1D
330
1B
100
AcDbEntity
 67
     1
  8
0
100
AcDbBlockEnd
  0
BLOCK
  5
24
330
23
100
AcDbEntity
  8
0
100
AcDbBlockBegin
  2
*Paper_Space0
 70
     0
 10
0.0
 20
0.0
 30
0.0
  3
*Paper_Space0
  1

  0
ENDBLK
  5
25
330
23
100
AcDbEntity
  8
0
100
AcDbBlockEnd
  0
ENDSEC
  0
SECTION
  2
ENTITIES
  0
SPLINE
  5
41
330
1F
100
AcDbEntity
  8
Layer 1
370
     0
100
AcDbSpline
210
0.0
220
0.0
230
1.0
 70
    11
 71
     3
 72
   356
 73
   352
 74
     0
 42
0.0000000001
 43
0.0000000001
 12
1.0
 22
0.0
 32
0.0
 13
1.0
 23
0.0
 33
0.0
 40
0.0
 40
0.0
 40
0.0
 40
0.0
 40
1.0
 40
1.0
 40
1.0
 40
2.0
 40
2.0
 40
2.0
 40
3.0
 40
3.0
 40
3.0
 40
4.0
 40
4.0
 40
4.0
 40
5.0
 40
5.0
 40
5.0
 40
6.0
 40
6.0
 40
6.0
 40
7.0
 40
7.0
 40
7.0
 40
8.0
 40
8.0
 40
8.0
 40
9.0
 40
9.0
 40
9.0
 40
10.0
 40
10.0
 40
10.0
 40
11.0
 40
11.0
 40
11.0
 40
12.0
 40
12.0
 40
12.0
 40
13.0
 40
13.0
 40
13.0
 40
14.0
 40
14.0
 40
14.0
 40
15.0
 40
15.0
 40
15.0
 40
16.0
 40
16.0
 40
16.0
 40
17.0
 40
17.0
 40
17.0
 40
18.0
 40
18.0
 40
18.0
 40
19.0
 40
19.0
 40
19.0
 40
20.0
 40
20.0
 40
20.0
 40
21.0
 40
21.0
 40
21.0
 40
22.0
 40
22.0
 40
22.0
 40
23.0
 40
23.0
 40
23.0
 40
24.0
 40
24.0
 40
24.0
 40
25.0
 40
25.0
 40
25.0
 40
26.0
 40
26.0
 40
26.0
 40
27.0
 40
27.0
 40
27.0
 40
28.0
 40
28.0
 40
28.0
 40
29.0
 40
29.0
 40
29.0
 40
30.0
 40
30.0
 40
30.0
 40
31.0
 40
31.0
 40
31.0
 40
32.0
 40
32.0
 40
32.0
 40
33.0
 40
33.0
 40
33.0
 40
34.0
 40
34.0
 40
34.0
 40
35.0
 40
35.0
 40
35.0
 40
36.0
 40
36.0
 40
36.0
 40
37.0
 40
37.0
 40
37.0
 40
38.0
 40
38.0
 40
38.0
 40
39.0
 40
39.0
 40
39.0
 40
40.0
 40
40.0
 40
40.0
 40
41.0
 40
41.0
 40
41.0
 40
42.0
 40
42.0
 40
42.0
 40
43.0
 40
43.0
 40
43.0
 40
44.0
 40
44.0
 40
44.0
 40
45.0
 40
45.0
 40
45.0
 40
46.0
 40
46.0
 40
46.0
 40
47.0
 40
47.0
 40
47.0
 40
48.0
 40
48.0
 40
48.0
 40
49.0
 40
49.0
 40
49.0
 40
50.0
 40
50.0
 40
50.0
 40
51.0
 40
51.0
 40
51.0
 40
52.0
 40
52.0
 40
52.0
 40
53.0
 40
53.0
 40
53.0
 40
54.0
 40
54.0
 40
54.0
 40
55.0
 40
55.0
 40
55.0
 40
56.0
 40
56.0
 40
56.0
 40
57.0
 40
57.0
 40
57.0
 40
58.0
 40
58.0
 40
58.0
 40
59.0
 40
59.0
 40
59.0
 40
60.0
 40
60.0
 40
60.0
 40
61.0
 40
61.0
 40
61.0
 40
62.0
 40
62.0
 40
62.0
 40
63.0
 40
63.0
 40
63.0
 40
64.0
 40
64.0
 40
64.0
 40
65.0
 40
65.0
 40
65.0
 40
66.0
 40
66.0
 40
66.0
 40
67.0
 40
67.0
 40
67.0
 40
68.0
 40
68.0
 40
68.0
 40
69.0
 40
69.0
 40
69.0
 40
70.0
 40
70.0
 40
70.0
 40
71.0
 40
71.0
 40
71.0
 40
72.0
 40
72.0
 40
72.0
 40
73.0
 40
73.0
 40
73.0
 40
74.0
 40
74.0
 40
74.0
 40
75.0
 40
75.0
 40
75.0
 40
76.0
 40
76.0
 40
76.0
 40
77.0
 40
77.0
 40
77.0
 40
78.0
 40
78.0
 40
78.0
 40
79.0
 40
79.0
 40
79.0
 40
80.0
 40
80.0
 40
80.0
 40
81.0
 40
81.0
 40
81.0
 40
82.0
 40
82.0
 40
82.0
 40
83.0
 40
83.0
 40
83.0
 40
84.0
 40
84.0
 40
84.0
 40
85.0
 40
85.0
 40
85.0
 40
86.0
 40
86.0
 40
86.0
 40
87.0
 40
87.0
 40
87.0
 40
88.0
 40
88.0
 40
88.0
 40
89.0
 40
89.0
 40
89.0
 40
90.0
 40
90.0
 40
90.0
 40
91.0
 40
91.0
 40
91.0
 40
92.0
 40
92.0
 40
92.0
 40
93.0
 40
93.0
 40
93.0
 40
94.0
 40
94.0
 40
94.0
 40
95.0
 40
95.0
 40
95.0
 40
96.0
 40
96.0
 40
96.0
 40
97.0
 40
97.0
 40
97.0
 40
98.0
 40
98.0
 40
98.0
 40
99.0
 40
99.0
 40
99.0
 40
100.0
 40
100.0
 40
100.0
 40
101.0
 40
101.0
 40
101.0
 40
102.0
 40
102.0
 40
102.0
 40
103.0
 40
103.0
 40
103.0
 40
104.0
 40
104.0
 40
104.0
 40
105.0
 40
105.0
 40
105.0
 40
106.0
 40
106.0
 40
106.0
 40
107.0
 40
107.0
 40
107.0
 40
108.0
 40
108.0
 40
108.0
 40
109.0
 40
109.0
 40
109.0
 40
110.0
 40
110.0
 40
110.0
 40
111.0
 40
111.0
 40
111.0
 40
112.0
 40
112.0
 40
112.0
 40
113.0
 40
113.0
 40
113.0
 40
114.0
 40
114.0
 40
114.0
 40
115.0
 40
115.0
 40
115.0
 40
116.0
 40
116.0
 40
116.0
 40
117.0
 40
117.0
 40
117.0
 40
117.0
 10
50.163340664671
 20
-7.212823887085831
 30
0.0
 10
50.12855677666953
 20
-6.576342220578111
 30
0.0
 10
50.30219399446189
 20
-6.069576942927096
 30
0.0
 10
50.05722511182268
 20
-5.302355832007869
 30
0.0
 10
49.83779733964298
 20
-4.895991109886973
 30
0.0
 10
49.31173513084172
 20
-3.628883887981796
 30
0.0
 10
49.22421096640798
 20
-4.016621943440224
 30
0.0
 10
49.06849485926951
 20
-4.586287498853464
 30
0.0
 10
49.8677481722122
 20
-5.934533609627413
 30
0.0
 10
49.5363499876158
 20
-5.822385554099891
 30
0.0
 10
49.24488374365835
 20
-5.717822220792636
 30
0.0
 10
49.14875180166644
 20
-5.438774998640437
 30
0.0
 10
48.91242597436228
 20
-5.302355832007869
 30
0.0
 10
48.40255626514791
 20
-5.139901665381767
 30
0.0
 10
47.89268655593355
 20
-4.977835554310946
 30
0.0
 10
47.38316962448797
 20
-4.816086943240367
 30
0.0
 10
47.02968630017274
 20
-4.738899165482011
 30
0.0
 10
46.9621646352287
 20
-4.857079721008034
 30
0.0
 10
47.07240768797172
 20
-5.197792498700614
 30
0.0
 10
47.40966323492317
 20
-5.87819499853033
 30
0.0
 10
48.49177498787718
 20
-5.843728609650287
 30
0.0
 10
48.66816387672197
 20
-6.622661942788756
 30
0.0
 10
48.67401875822233
 20
-6.647814998337886
 30
0.0
 10
48.66816387672197
 20
-6.726554998318329
 30
0.0
 10
48.66816387672197
 20
-6.726554998318329
 30
0.0
 10
48.51900820662142
 20
-6.803037220521483
 30
0.0
 10
48.39186709875395
 20
-6.396002220623225
 30
0.0
 10
48.14760377165229
 20
-6.274893609542231
 30
0.0
 10
47.93297498801662
 20
-6.157947776238372
 30
0.0
 10
47.85306961249982
 20
-6.187581109564238
 30
0.0
 10
47.90506905561764
 20
-6.448883609499015
 30
0.0
 10
48.08766682873697
 20
-7.087411387116981
 30
0.0
 10
48.37913182130107
 20
-7.34684416483007
 30
0.0
 10
48.56550554341392
 20
-7.873576664698277
 30
0.0
 10
48.6220193151045
 20
-8.116816942415388
 30
0.0
 10
48.68093320249037
 20
-8.359880831243299
 30
0.0
 10
48.73878875656991
 20
-8.602909442293688
 30
0.0
 10
48.91242597436228
 20
-8.822725275571996
 30
0.0
 10
49.08641596992342
 20
-9.0418355532951
 30
0.0
 10
49.25899485440946
 20
-9.262639164351011
 30
0.0
 10
49.49877790384764
 20
-10.05691833081922
 30
0.0
 10
48.05976210722665
 20
-12.62506999684361
 30
0.0
 10
47.97431933162871
 20
-12.77182555236254
 30
0.0
 10
47.93057488830027
 20
-12.88810110788903
 30
0.0
 10
47.76625100360364
 20
-13.29358388556553
 30
0.0
 10
47.76625100360364
 20
-13.29358388556553
 30
0.0
 10
47.62429443253823
 20
-13.5996891632667
 30
0.0
 10
47.4872037885005
 20
-14.12610416313499
 30
0.0
 10
47.4872037885005
 20
-14.12610416313499
 30
0.0
 10
47.47305739997252
 20
-14.59378166301818
 30
0.0
 10
46.84087963832294
 20
-15.89704860713685
 30
0.0
 10
46.61834742177798
 20
-16.21038582928085
 30
0.0
 10
46.30448104089649
 20
-16.65633221805805
 30
0.0
 10
45.89247188474106
 20
-17.18154777348233
 30
0.0
 10
45.61134443304142
 20
-17.63680749559076
 30
0.0
 10
45.03670357324019
 20
-18.5690580509133
 30
0.0
 10
44.40727747818708
 20
-19.47149888402109
 30
0.0
 10
43.87465360288655
 20
-20.44975166155436
 30
0.0
 10
43.60869444300507
 20
-20.99405249475142
 30
0.0
 10
43.34171222759414
 20
-21.53803582794889
 30
0.0
 10
43.07610584548143
 20
-22.0823719389238
 30
0.0
 10
42.58309998935442
 20
-22.78739832763632
 30
0.0
 10
41.45622088680814
 20
-23.13985860532631
 30
0.0
 10
40.78167451512836
 20
-23.68056110519104
 30
0.0
 10
40.78167451512836
 20
-23.68056110519104
 30
0.0
 10
40.64522007416516
 20
-23.68056110519104
 30
0.0
 10
40.64522007416516
 20
-23.68056110519104
 30
0.0
 10
40.08522064400749
 20
-22.61824138323436
 30
0.0
 10
40.92119812267993
 20
-21.30894193911719
 30
0.0
 10
41.58159810583172
 20
-20.79734360591168
 30
0.0
 10
42.43394447297544
 20
-21.30929471689495
 30
0.0
 10
42.27822836583698
 20
-19.89800721724774
 30
0.0
 10
42.41531780678398
 20
-19.37247416182354
 30
0.0
 10
42.50869808217943
 20
-19.01743860635666
 30
0.0
 10
42.75948887819921
 20
-18.62574943978814
 30
0.0
 10
42.65785252281863
 20
-18.08779860658917
 30
0.0
 10
42.45803919458296
 20
-17.02858332907634
 30
0.0
 10
42.03428253872723
 20
-15.91892082935357
 30
0.0
 10
41.12961922847377
 20
-15.58526360721493
 30
0.0
 10
39.60307926741906
 20
-15.02353555179972
 30
0.0
 10
38.12084819412281
 20
-16.71129499582225
 30
0.0
 10
37.72601931530684
 20
-17.70556388446261
 30
0.0
 10
37.6903887606603
 20
-17.90191999552459
 30
0.0
 10
37.65489931712126
 20
-18.09951082880842
 30
0.0
 10
37.62131487353363
 20
-18.29569055098152
 30
0.0
 10
37.42443054619946
 20
-18.81780166196227
 30
0.0
 10
36.68543073074336
 20
-19.41879388403418
 30
0.0
 10
37.72601931530684
 20
-19.79002193949703
 30
0.0
 10
37.91087486614634
 20
-20.73052749481752
 30
0.0
 10
37.24543016090102
 20
-22.79325443874627
 30
0.0
 10
36.6480715650298
 20
-23.22889971641495
 30
0.0
 10
35.7254527688465
 20
-23.90242304957992
 30
0.0
 10
34.32330221364132
 20
-23.7229297162916
 30
0.0
 10
33.17508110281737
 20
-23.95840888289924
 30
0.0
 10
33.17508110281737
 20
-23.95840888289924
 30
0.0
 10
32.37494582523954
 20
-23.95840888289924
 30
0.0
 10
32.37494582523954
 20
-23.95840888289924
 30
0.0
 10
31.33365165883333
 20
-24.20560027172644
 30
0.0
 10
30.80483777007672
 20
-25.03480443818565
 30
0.0
 10
29.97732693694999
 20
-25.45252860474803
 30
0.0
 10
29.16685527048613
 20
-25.75415360467247
 30
0.0
 10
28.35691277068859
 20
-26.0545791601529
 30
0.0
 10
27.5447477708916
 20
-26.35616888229983
 30
0.0
 10
26.2924572156492
 20
-26.71790721554288
 30
0.0
 10
25.0980222159478
 20
-26.92100138215857
 30
0.0
 10
25.53158610472807
 20
-28.71865110393133
 30
0.0
 10
25.66285471580654
 20
-29.26538610379489
 30
0.0
 10
25.83441054909684
 20
-29.66864638147161
 30
0.0
 10
26.01633804905133
 20
-30.21160665911363
 30
0.0
 10
26.31810416008713
 20
-30.5824466590212
 30
0.0
 10
26.61782416001236
 20
-30.95247527003973
 30
0.0
 10
26.9206486043808
 20
-31.32419721439106
 30
0.0
 10
27.50943471534499
 20
-32.07952971420248
 30
0.0
 10
27.94850193745745
 20
-32.6090491585143
 30
0.0
 10
28.86593582611689
 20
-33.09616471394804
 30
0.0
 10
28.95155499276208
 20
-33.13285360282785
 30
0.0
 10
29.04422971496121
 20
-33.09376582506003
 30
0.0
 10
28.97067554831303
 20
-33.02726721396547
 30
0.0
 10
28.51333443731619
 20
-32.47432332521485
 30
0.0
 10
28.12489082630224
 20
-32.14616943640776
 30
0.0
 10
28.10044332630831
 20
-32.1234505475248
 30
0.0
 10
28.02431388188292
 20
-31.9725674920069
 30
0.0
 10
28.12111610408071
 20
-32.01888721421754
 30
0.0
 10
28.20430110406004
 20
-32.08813749197788
 30
0.0
 10
28.50712554842881
 20
-32.34308999191423
 30
0.0
 10
28.80892693724213
 20
-32.59765443629497
 30
0.0
 10
29.10899971494512
 20
-32.85172499178692
 30
0.0
 10
29.10899971494512
 20
-32.85172499178692
 30
0.0
 10
29.7456577703414
 20
-33.30786665833976
 30
0.0
 10
29.08659832606176
 20
-32.23404638083024
 30
0.0
 10
29.16653777048621
 20
-32.26798360304428
 30
0.0
 10
29.30655527045111
 20
-32.40094554745523
 30
0.0
 10
29.38769415931988
 20
-32.43625860300216
 30
0.0
 10
29.69757415924227
 20
-32.61335304740215
 30
0.0
 10
29.64282304814479
 20
-32.42782721411533
 30
0.0
 10
29.52566554817422
 20
-32.2283666586095
 30
0.0
 10
29.13379999271649
 20
-31.41563721436835
 30
0.0
 10
27.9848380485595
 20
-31.39083693659666
 30
0.0
 10
28.10044332630831
 20
-30.14253277024218
 30
0.0
 10
28.12954749296754
 20
-30.01659110360701
 30
0.0
 10
28.18451027073173
 20
-29.991261659169
 30
0.0
 10
28.48405388176776
 20
-30.07377638137034
 30
0.0
 10
28.86593582611689
 20
-30.19435582578469
 30
0.0
 10
29.21543277047407
 20
-30.88527110338964
 30
0.0
 10
29.80404249254905
 20
-30.49065388126615
 30
0.0
 10
29.87431582586482
 20
-30.44242915905598
 30
0.0
 10
29.86052221475718
 20
-30.45290665905338
 30
0.0
 10
29.9065244369679
 20
-30.38573777018146
 30
0.0
 10
29.52118527039748
 20
-29.95150360362318
 30
0.0
 10
28.97893054831098
 20
-29.83589832587437
 30
0.0
 10
28.69265138171563
 20
-29.27367638157035
 30
0.0
 10
28.23961415960665
 20
-29.20491999269883
 30
0.0
 10
27.36680665982504
 20
-29.18202471492667
 30
0.0
 10
27.33734971538774
 20
-29.06539638162241
 30
0.0
 10
27.276883604292
 20
-28.81425388168543
 30
0.0
 10
27.39005471537465
 20
-28.60738499284821
 30
0.0
 10
27.44103110425091
 20
-28.37190582624024
 30
0.0
 10
28.68404360394024
 20
-27.92782915968473
 30
0.0
 10
30.31666388130969
 20
-27.8520524930371
 30
0.0
 10
31.47162304768766
 20
-27.39883888203924
 30
0.0
 10
31.75860776983821
 20
-27.28464471540115
 30
0.0
 10
32.34615915858024
 20
-27.06708665989981
 30
0.0
 10
32.72204388070838
 20
-27.22453138208285
 30
0.0
 10
32.7564749918109
 20
-27.24777943763246
 30
0.0
 10
32.79094138069127
 20
-27.27102749318238
 30
0.0
 10
32.82505499179387
 20
-27.29395804873207
 30
0.0
 10
32.49654832520933
 20
-28.03584971521328
 30
0.0
 10
32.54202138075342
 20
-29.08451693717335
 30
0.0
 10
32.68828304738354
 20
-30.00332665916569
 30
0.0
 10
32.68828304738354
 20
-30.00332665916569
 30
0.0
 10
32.68828304738354
 20
-31.84457971426116
 30
0.0
 10
32.68828304738354
 20
-31.84457971426116
 30
0.0
 10
32.87567860289205
 20
-32.99421193619584
 30
0.0
 10
32.98782665841957
 20
-34.13573026924392
 30
0.0
 10
33.20884193614221
 20
-35.14601526899138
 30
0.0
 10
33.26585082501697
 20
-35.63228415775856
 30
0.0
 10
33.32423554722462
 20
-36.11908221319239
 30
0.0
 10
33.38297304720971
 20
-36.60517471307101
 30
0.0
 10
33.34473193610813
 20
-36.73573776859396
 30
0.0
 10
33.15250332504512
 20
-36.99086665741887
 30
0.0
 10
33.17508110281737
 20
-37.1942783240348
 30
0.0
 10
33.27858610279134
 20
-37.46249526841216
 30
0.0
 10
33.38297304720971
 20
-37.72912471278991
 30
0.0
 10
33.48683082496176
 20
-37.99441360161262
 30
0.0
 10
33.42862249164299
 20
-38.49239471259904
 30
0.0
 10
33.37143721387935
 20
-38.99072860136355
 30
0.0
 10
33.31322888056058
 20
-39.48821582346118
 30
0.0
 10
33.31322888056058
 20
-39.48821582346118
 30
0.0
 10
33.31322888056058
 20
-41.15614915637754
 30
0.0
 10
33.31322888056058
 20
-41.15614915637754
 30
0.0
 10
33.22933832502604
 20
-41.44278110075033
 30
0.0
 10
32.96800054731342
 20
-41.85034526731523
 30
0.0
 10
32.92993582510073
 20
-42.19793721167288
 30
0.0
 10
32.90065526955262
 20
-42.48217026715702
 30
0.0
 10
33.15095110282336
 20
-42.59893971157231
 30
0.0
 10
33.20884193614221
 20
-42.78809915596963
 30
0.0
 10
33.29340276945443
 20
-43.06781665589983
 30
0.0
 10
33.14234332504765
 20
-43.32689665583484
 30
0.0
 10
33.1053016583904
 20
-43.5181022113424
 30
0.0
 10
33.40759693609252
 20
-43.81161332238025
 30
0.0
 10
33.61259610270805
 20
-44.02694887788247
 30
0.0
 10
34.14624304701884
 20
-44.10893443341716
 30
0.0
 10
34.24442110255016
 20
-44.36730887779729
 30
0.0
 10
34.36895165807428
 20
-44.48721804443363
 30
0.0
 10
34.21824499144558
 20
-44.73423304437228
 30
0.0
 10
34.35448776918927
 20
-44.91231526654956
 30
0.0
 10
34.60012693579439
 20
-45.0463355442938
 30
0.0
 10
34.84093304684533
 20
-45.11523304427701
 30
0.0
 10
34.8438611024003
 20
-45.2148222109184
 30
0.0
 10
34.82731582462656
 20
-45.2189497109177
 30
0.0
 10
34.77274110241797
 20
-45.3257355442244
 30
0.0
 10
35.0562686023469
 20
-45.29232748867668
 30
0.0
 10
35.21731165786228
 20
-45.22618165535988
 30
0.0
 10
35.43211715160694
 20
-45.35949637754924
 30
0.0
 10
35.73494158832569
 20
-45.56551859971957
 30
0.0
 10
35.95422824939789
 20
-46.47399193282619
 30
0.0
 10
36.16300213296051
 20
-46.88776498827815
 30
0.0
 10
36.46201656977646
 20
-47.32803165483461
 30
0.0
 10
36.76399433985014
 20
-47.76833359916922
 30
0.0
 10
37.06456099884871
 20
-48.20824748794792
 30
0.0
 10
36.9496965573347
 20
-49.25074109879813
 30
0.0
 10
36.83342100474559
 20
-50.29323470964898
 30
0.0
 10
36.71781665748733
 20
-51.3357283204992
 30
0.0
 10
36.74092267377208
 20
-52.11049887586118
 30
0.0
 10
36.76399433985014
 20
-52.88773887566684
 30
0.0
 10
36.78688961704381
 20
-53.6635677643621
 30
0.0
 10
36.47510554643686
 20
-54.785648041859
 30
0.0
 10
36.16300213296051
 20
-55.90977443046678
 30
0.0
 10
35.84895936319463
 20
-57.03287776351944
 30
0.0
 10
35.86053047401054
 20
-57.41493609675745
 30
0.0
 10
35.87171352928079
 20
-57.79837026332834
 30
0.0
 10
35.8836021400886
 20
-58.17972304101083
 30
0.0
 10
35.61041103594717
 20
-59.68767165174479
 30
0.0
 10
35.87171352928079
 20
-61.17007915137434
 30
0.0
 10
35.57061770362905
 20
-62.59117387324127
 30
0.0
 10
35.40953937440517
 20
-63.33292442861144
 30
0.0
 10
35.24676860229926
 20
-64.0739694284261
 30
0.0
 10
35.08449082456237
 20
-64.81533192824035
 30
0.0
 10
34.93413693571078
 20
-65.11611026149855
 30
0.0
 10
34.78307749130433
 20
-65.41752359475659
 30
0.0
 10
34.63353499134147
 20
-65.7189722057928
 30
0.0
 10
34.45887471360764
 20
-66.33841470563733
 30
0.0
 10
34.83352471351395
 20
-67.1690299832079
 30
0.0
 10
34.94687221348547
 20
-67.62929914975906
 30
0.0
 10
35.32737743205685
 20
-69.20265276047742
 30
0.0
 10
35.42178076298175
 20
-70.50320331570752
 30
0.0
 10
36.02277296987138
 20
-71.76272581539243
 30
0.0
 10
36.34524712831105
 20
-72.31323553747752
 30
0.0
 10
36.97467322336416
 20
-72.11617387086002
 30
0.0
 10
37.23890377217864
 20
-71.69382831540986
 30
0.0
 10
37.925691532435
 20
-70.61513970456865
 30
0.0
 10
37.99716430838936
 20
-68.1467535940742
 30
0.0
 10
37.41183543443345
 20
-67.03948998324007
 30
0.0
 10
37.16153960748569
 20
-66.5644041500255
 30
0.0
 10
36.89491110188732
 20
-66.00422831683206
 30
0.0
 10
37.03012988861602
 20
-65.23185665035872
 30
0.0
 10
37.28109599332445
 20
-63.81280803960204
 30
0.0
 10
37.75237181463454
 20
-62.78100359541595
 30
0.0
 10
38.10776110158415
 20
-61.54938581794594
 30
0.0
 10
38.32704679997335
 20
-60.68155248482987
 30
0.0
 10
38.54682734992184
 20
-59.81202581838004
 30
0.0
 10
38.76784262206105
 20
-58.94387498526373
 30
0.0
 10
39.29080038649706
 20
-57.44767387452717
 30
0.0
 10
39.84406176127108
 20
-56.03448137488043
 30
0.0
 10
39.81047731768344
 20
-53.87198887542108
 30
0.0
 10
40.21151508522989
 20
-54.04562609759947
 30
0.0
 10
40.51363396641108
 20
-56.63773137472931
 30
0.0
 10
40.71415285018431
 20
-57.20616220792071
 30
0.0
 10
41.19851672671605
 20
-58.59247304090767
 30
0.0
 10
41.59331032775514
 20
-60.22234165161134
 30
0.0
 10
41.89271387841578
 20
-61.79262609566305
 30
0.0
 10
41.89271387841578
 20
-61.79262609566305
 30
0.0
 10
41.89271387841578
 20
-62.83441415095838
 30
0.0
 10
41.89271387841578
 20
-62.83441415095838
 30
0.0
 10
42.06772587120734
 20
-63.70358803962981
 30
0.0
 10
42.24203336676039
 20
-64.5721269283014
 30
0.0
 10
42.41531780678398
 20
-65.43957220586219
 30
0.0
 10
42.76774279779287
 20
-66.53170165003394
 30
0.0
 10
43.46021028012655
 20
-67.44119803869503
 30
0.0
 10
43.80610888241306
 20
-68.53223387175599
 30
0.0
 10
44.07757137548747
 20
-68.59047748285259
 30
0.0
 10
44.39041470083951
 20
-68.6028599828492
 30
0.0
 10
44.63880552783586
 20
-68.46333637177278
 30
0.0
 10
44.98054135245079
 20
-68.2356183162746
 30
0.0
 10
44.79279302390731
 20
-67.11082164988882
 30
0.0
 10
44.70770302607814
 20
-66.69189803888243
 30
0.0
 10
44.6243063615391
 20
-66.27950081676336
 30
0.0
 10
44.38970914530195
 20
-65.47922442807449
 30
0.0
 10
44.53441858605455
 20
-65.05857220595746
 30
0.0
 10
44.74799024727255
 20
-64.44050553944517
 30
0.0
 10
46.0488582696402
 20
-63.83760831737406
 30
0.0
 10
45.57687689279255
 20
-62.90398192871831
 30
0.0
 10
45.4270168966158
 20
-62.60359165101603
 30
0.0
 10
45.21273967986025
 20
-62.64698331767171
 30
0.0
 10
44.91612413187198
 20
-62.48851553993322
 30
0.0
 10
44.55265832219491
 20
-62.29110109553859
 30
0.0
 10
44.17232748418115
 20
-61.67271692902606
 30
0.0
 10
44.04829082067892
 20
-61.23724804024626
 30
0.0
 10
43.90947276866491
 20
-59.87058692947689
 30
0.0
 10
43.76994916111335
 20
-58.50322026315199
 30
0.0
 10
43.63144860909123
 20
-57.13691193016037
 30
0.0
 10
43.4729808353563
 20
-56.1316363748563
 30
0.0
 10
43.69586582967003
 20
-55.3123805417272
 30
0.0
 10
43.45608278023185
 20
-54.53136581970065
 30
0.0
 10
42.7949772415425
 20
-52.35786665357694
 30
0.0
 10
41.47378921969327
 20
-50.91094859838352
 30
0.0
 10
41.09550561823297
 20
-48.45148776566504
 30
0.0
 10
41.44313283158649
 20
-47.15474721043335
 30
0.0
 10
41.78970276733062
 20
-45.8580066552023
 30
0.0
 10
42.1369761472184
 20
-44.56094859997102
 30
0.0
 10
42.33230919779059
 20
-44.17130554451242
 30
0.0
 10
42.71778946573395
 20
-44.21332137783585
 30
0.0
 10
42.69231891082821
 20
-43.62386498909398
 30
0.0
 10
43.11812167774285
 20
-43.35102665582885
 30
0.0
 10
44.30564220300223
 20
-43.35688276693879
 30
0.0
 10
44.53441858605455
 20
-42.89280360038793
 30
0.0
 10
44.06310748696759
 20
-42.41637721161798
 30
0.0
 10
44.18851998376805
 20
-41.57094526738527
 30
0.0
 10
43.97939443344934
 20
-40.80852193424238
 30
0.0
 10
43.71756166244986
 20
-39.85785637892442
 30
0.0
 10
43.44539361383789
 20
-38.94955943470701
 30
0.0
 10
43.07610584548143
 20
-38.06384026826183
 30
0.0
 10
42.03086059437008
 20
-35.56663221333057
 30
0.0
 10
39.33920149637336
 20
-34.57444471357861
 30
0.0
 10
39.74020398614293
 20
-31.15003082554571
 30
0.0
 10
39.93211509235798
 20
-29.51621110373194
 30
0.0
 10
41.34322616746865
 20
-29.02267499274441
 30
0.0
 10
42.17176110056798
 20
-27.95368777078939
 30
0.0
 10
42.47493724970741
 20
-27.56386832644223
 30
0.0
 10
42.56725919179652
 20
-27.12201415988617
 30
0.0
 10
42.83184251837977
 20
-26.66848304888838
 30
0.0
 10
43.016486402558
 20
-26.35101832674573
 30
0.0
 10
43.83055638178935
 20
-26.01873693793966
 30
0.0
 10
44.1171883189212
 20
-25.62736527137105
 30
0.0
 10
44.58366636257591
 20
-24.98883749375277
 30
0.0
 10
44.78658413517682
 20
-24.30705916058985
 30
0.0
 10
45.16003468120486
 20
-23.54170777189231
 30
0.0
 10
45.49591439485808
 20
-22.96329332759263
 30
0.0
 10
45.83249966404885
 20
-22.38329138329304
 30
0.0
 10
46.16703882218071
 20
-21.80505332788193
 30
0.0
 10
46.56116214545912
 20
-20.80838555035356
 30
0.0
 10
46.95493269096875
 20
-19.81238805060255
 30
0.0
 10
47.34905601424717
 20
-18.81744888418451
 30
0.0
 10
47.69460183876489
 20
-18.00284971772135
 30
0.0
 10
48.2378796026825
 20
-17.3119344401164
 30
0.0
 10
48.56550554341392
 20
-16.55885971808258
 30
0.0
 10
49.44677846072981
 20
-14.52745944081251
 30
0.0
 10
50.01281039073358
 20
-11.95412194145585
 30
0.0
 10
50.47547843448549
 20
-9.575976386495013
 30
0.0
 10
50.62498565289346
 20
-8.80702666446482
 30
0.0
 10
50.27531232848104
 20
-7.915804164687787
 30
0.0
 10
50.163340664671
 20
-7.212823887085831
 30
0.0
  0
HATCH
  5
42
330
1F
100
AcDbEntity
  8
Layer 1
 62
     7
100
AcDbHatch
 10
0.0
 20
0.0
 30
0.0
210
0.0
220
0.0
230
1.0
  2
SOLID
 70
     1
 71
     0
 91
        1
 92
        1
 93
        1
 72
     4
 94
        3
 73
     0
 74
     1
 95
      356
 96
      352
 40
0.0
 40
0.0
 40
0.0
 40
0.0
 40
1.0
 40
1.0
 40
1.0
 40
2.0
 40
2.0
 40
2.0
 40
3.0
 40
3.0
 40
3.0
 40
4.0
 40
4.0
 40
4.0
 40
5.0
 40
5.0
 40
5.0
 40
6.0
 40
6.0
 40
6.0
 40
7.0
 40
7.0
 40
7.0
 40
8.0
 40
8.0
 40
8.0
 40
9.0
 40
9.0
 40
9.0
 40
10.0
 40
10.0
 40
10.0
 40
11.0
 40
11.0
 40
11.0
 40
12.0
 40
12.0
 40
12.0
 40
13.0
 40
13.0
 40
13.0
 40
14.0
 40
14.0
 40
14.0
 40
15.0
 40
15.0
 40
15.0
 40
16.0
 40
16.0
 40
16.0
 40
17.0
 40
17.0
 40
17.0
 40
18.0
 40
18.0
 40
18.0
 40
19.0
 40
19.0
 40
19.0
 40
20.0
 40
20.0
 40
20.0
 40
21.0
 40
21.0
 40
21.0
 40
22.0
 40
22.0
 40
22.0
 40
23.0
 40
23.0
 40
23.0
 40
24.0
 40
24.0
 40
24.0
 40
25.0
 40
25.0
 40
25.0
 40
26.0
 40
26.0
 40
26.0
 40
27.0
 40
27.0
 40
27.0
 40
28.0
 40
28.0
 40
28.0
 40
29.0
 40
29.0
 40
29.0
 40
30.0
 40
30.0
 40
30.0
 40
31.0
 40
31.0
 40
31.0
 40
32.0
 40
32.0
 40
32.0
 40
33.0
 40
33.0
 40
33.0
 40
34.0
 40
34.0
 40
34.0
 40
35.0
 40
35.0
 40
35.0
 40
36.0
 40
36.0
 40
36.0
 40
37.0
 40
37.0
 40
37.0
 40
38.0
 40
38.0
 40
38.0
 40
39.0
 40
39.0
 40
39.0
 40
40.0
 40
40.0
 40
40.0
 40
41.0
 40
41.0
 40
41.0
 40
42.0
 40
42.0
 40
42.0
 40
43.0
 40
43.0
 40
43.0
 40
44.0
 40
44.0
 40
44.0
 40
45.0
 40
45.0
 40
45.0
 40
46.0
 40
46.0
 40
46.0
 40
47.0
 40
47.0
 40
47.0
 40
48.0
 40
48.0
 40
48.0
 40
49.0
 40
49.0
 40
49.0
 40
50.0
 40
50.0
 40
50.0
 40
51.0
 40
51.0
 40
51.0
 40
52.0
 40
52.0
 40
52.0
 40
53.0
 40
53.0
 40
53.0
 40
54.0
 40
54.0
 40
54.0
 40
55.0
 40
55.0
 40
55.0
 40
56.0
 40
56.0
 40
56.0
 40
57.0
 40
57.0
 40
57.0
 40
58.0
 40
58.0
 40
58.0
 40
59.0
 40
59.0
 40
59.0
 40
60.0
 40
60.0
 40
60.0
 40
61.0
 40
61.0
 40
61.0
 40
62.0
 40
62.0
 40
62.0
 40
63.0
 40
63.0
 40
63.0
 40
64.0
 40
64.0
 40
64.0
 40
65.0
 40
65.0
 40
65.0
 40
66.0
 40
66.0
 40
66.0
 40
67.0
 40
67.0
 40
67.0
 40
68.0
 40
68.0
 40
68.0
 40
69.0
 40
69.0
 40
69.0
 40
70.0
 40
70.0
 40
70.0
 40
71.0
 40
71.0
 40
71.0
 40
72.0
 40
72.0
 40
72.0
 40
73.0
 40
73.0
 40
73.0
 40
74.0
 40
74.0
 40
74.0
 40
75.0
 40
75.0
 40
75.0
 40
76.0
 40
76.0
 40
76.0
 40
77.0
 40
77.0
 40
77.0
 40
78.0
 40
78.0
 40
78.0
 40
79.0
 40
79.0
 40
79.0
 40
80.0
 40
80.0
 40
80.0
 40
81.0
 40
81.0
 40
81.0
 40
82.0
 40
82.0
 40
82.0
 40
83.0
 40
83.0
 40
83.0
 40
84.0
 40
84.0
 40
84.0
 40
85.0
 40
85.0
 40
85.0
 40
86.0
 40
86.0
 40
86.0
 40
87.0
 40
87.0
 40
87.0
 40
88.0
 40
88.0
 40
88.0
 40
89.0
 40
89.0
 40
89.0
 40
90.0
 40
90.0
 40
90.0
 40
91.0
 40
91.0
 40
91.0
 40
92.0
 40
92.0
 40
92.0
 40
93.0
 40
93.0
 40
93.0
 40
94.0
 40
94.0
 40
94.0
 40
95.0
 40
95.0
 40
95.0
 40
96.0
 40
96.0
 40
96.0
 40
97.0
 40
97.0
 40
97.0
 40
98.0
 40
98.0
 40
98.0
 40
99.0
 40
99.0
 40
99.0
 40
100.0
 40
100.0
 40
100.0
 40
101.0
 40
101.0
 40
101.0
 40
102.0
 40
102.0
 40
102.0
 40
103.0
 40
103.0
 40
103.0
 40
104.0
 40
104.0
 40
104.0
 40
105.0
 40
105.0
 40
105.0
 40
106.0
 40
106.0
 40
106.0
 40
107.0
 40
107.0
 40
107.0
 40
108.0
 40
108.0
 40
108.0
 40
109.0
 40
109.0
 40
109.0
 40
110.0
 40
110.0
 40
110.0
 40
111.0
 40
111.0
 40
111.0
 40
112.0
 40
112.0
 40
112.0
 40
113.0
 40
113.0
 40
113.0
 40
114.0
 40
114.0
 40
114.0
 40
115.0
 40
115.0
 40
115.0
 40
116.0
 40
116.0
 40
116.0
 40
117.0
 40
117.0
 40
117.0
 40
117.0
 10
50.163340664671
 20
-7.212823887085831
 10
50.12855677666953
 20
-6.576342220578111
 10
50.30219399446189
 20
-6.069576942927096
 10
50.05722511182268
 20
-5.302355832007869
 10
49.83779733964298
 20
-4.895991109886973
 10
49.31173513084172
 20
-3.628883887981796
 10
49.22421096640798
 20
-4.016621943440224
 10
49.06849485926951
 20
-4.586287498853464
 10
49.8677481722122
 20
-5.934533609627413
 10
49.5363499876158
 20
-5.822385554099891
 10
49.24488374365835
 20
-5.717822220792636
 10
49.14875180166644
 20
-5.438774998640437
 10
48.91242597436228
 20
-5.302355832007869
 10
48.40255626514791
 20
-5.139901665381767
 10
47.89268655593355
 20
-4.977835554310946
 10
47.38316962448797
 20
-4.816086943240367
 10
47.02968630017274
 20
-4.738899165482011
 10
46.9621646352287
 20
-4.857079721008034
 10
47.07240768797172
 20
-5.197792498700614
 10
47.40966323492317
 20
-5.87819499853033
 10
48.49177498787718
 20
-5.843728609650287
 10
48.66816387672197
 20
-6.622661942788756
 10
48.67401875822233
 20
-6.647814998337886
 10
48.66816387672197
 20
-6.726554998318329
 10
48.66816387672197
 20
-6.726554998318329
 10
48.51900820662142
 20
-6.803037220521483
 10
48.39186709875395
 20
-6.396002220623225
 10
48.14760377165229
 20
-6.274893609542231
 10
47.93297498801662
 20
-6.157947776238372
 10
47.85306961249982
 20
-6.187581109564238
 10
47.90506905561764
 20
-6.448883609499015
 10
48.08766682873697
 20
-7.087411387116981
 10
48.37913182130107
 20
-7.34684416483007
 10
48.56550554341392
 20
-7.873576664698277
 10
48.6220193151045
 20
-8.116816942415388
 10
48.68093320249037
 20
-8.359880831243299
 10
48.73878875656991
 20
-8.602909442293688
 10
48.91242597436228
 20
-8.822725275571996
 10
49.08641596992342
 20
-9.0418355532951
 10
49.25899485440946
 20
-9.262639164351011
 10
49.49877790384764
 20
-10.05691833081922
 10
48.05976210722665
 20
-12.62506999684361
 10
47.97431933162871
 20
-12.77182555236254
 10
47.93057488830027
 20
-12.88810110788903
 10
47.76625100360364
 20
-13.29358388556553
 10
47.76625100360364
 20
-13.29358388556553
 10
47.62429443253823
 20
-13.5996891632667
 10
47.4872037885005
 20
-14.12610416313499
 10
47.4872037885005
 20
-14.12610416313499
 10
47.47305739997252
 20
-14.59378166301818
 10
46.84087963832294
 20
-15.89704860713685
 10
46.61834742177798
 20
-16.21038582928085
 10
46.30448104089649
 20
-16.65633221805805
 10
45.89247188474106
 20
-17.18154777348233
 10
45.61134443304142
 20
-17.63680749559076
 10
45.03670357324019
 20
-18.5690580509133
 10
44.40727747818708
 20
-19.47149888402109
 10
43.87465360288655
 20
-20.44975166155436
 10
43.60869444300507
 20
-20.99405249475142
 10
43.34171222759414
 20
-21.53803582794889
 10
43.07610584548143
 20
-22.0823719389238
 10
42.58309998935442
 20
-22.78739832763632
 10
41.45622088680814
 20
-23.13985860532631
 10
40.78167451512836
 20
-23.68056110519104
 10
40.78167451512836
 20
-23.68056110519104
 10
40.64522007416516
 20
-23.68056110519104
 10
40.64522007416516
 20
-23.68056110519104
 10
40.08522064400749
 20
-22.61824138323436
 10
40.92119812267993
 20
-21.30894193911719
 10
41.58159810583172
 20
-20.79734360591168
 10
42.43394447297544
 20
-21.30929471689495
 10
42.27822836583698
 20
-19.89800721724774
 10
42.41531780678398
 20
-19.37247416182354
 10
42.50869808217943
 20
-19.01743860635666
 10
42.75948887819921
 20
-18.62574943978814
 10
42.65785252281863
 20
-18.08779860658917
 10
42.45803919458296
 20
-17.02858332907634
 10
42.03428253872723
 20
-15.91892082935357
 10
41.12961922847377
 20
-15.58526360721493
 10
39.60307926741906
 20
-15.02353555179972
 10
38.12084819412281
 20
-16.71129499582225
 10
37.72601931530684
 20
-17.70556388446261
 10
37.6903887606603
 20
-17.90191999552459
 10
37.65489931712126
 20
-18.09951082880842
 10
37.62131487353363
 20
-18.29569055098152
 10
37.42443054619946
 20
-18.81780166196227
 10
36.68543073074336
 20
-19.41879388403418
 10
37.72601931530684
 20
-19.79002193949703
 10
37.91087486614634
 20
-20.73052749481752
 10
37.24543016090102
 20
-22.79325443874627
 10
36.6480715650298
 20
-23.22889971641495
 10
35.7254527688465
 20
-23.90242304957992
 10
34.32330221364132
 20
-23.7229297162916
 10
33.17508110281737
 20
-23.95840888289924
 10
33.17508110281737
 20
-23.95840888289924
 10
32.37494582523954
 20
-23.95840888289924
 10
32.37494582523954
 20
-23.95840888289924
 10
31.33365165883333
 20
-24.20560027172644
 10
30.80483777007672
 20
-25.03480443818565
 10
29.97732693694999
 20
-25.45252860474803
 10
29.16685527048613
 20
-25.75415360467247
 10
28.35691277068859
 20
-26.0545791601529
 10
27.5447477708916
 20
-26.35616888229983
 10
26.2924572156492
 20
-26.71790721554288
 10
25.0980222159478
 20
-26.92100138215857
 10
25.53158610472807
 20
-28.71865110393133
 10
25.66285471580654
 20
-29.26538610379489
 10
25.83441054909684
 20
-29.66864638147161
 10
26.01633804905133
 20
-30.21160665911363
 10
26.31810416008713
 20
-30.5824466590212
 10
26.61782416001236
 20
-30.95247527003973
 10
26.9206486043808
 20
-31.32419721439106
 10
27.50943471534499
 20
-32.07952971420248
 10
27.94850193745745
 20
-32.6090491585143
 10
28.86593582611689
 20
-33.09616471394804
 10
28.95155499276208
 20
-33.13285360282785
 10
29.04422971496121
 20
-33.09376582506003
 10
28.97067554831303
 20
-33.02726721396547
 10
28.51333443731619
 20
-32.47432332521485
 10
28.12489082630224
 20
-32.14616943640776
 10
28.10044332630831
 20
-32.1234505475248
 10
28.02431388188292
 20
-31.9725674920069
 10
28.12111610408071
 20
-32.01888721421754
 10
28.20430110406004
 20
-32.08813749197788
 10
28.50712554842881
 20
-32.34308999191423
 10
28.80892693724213
 20
-32.59765443629497
 10
29.10899971494512
 20
-32.85172499178692
 10
29.10899971494512
 20
-32.85172499178692
 10
29.7456577703414
 20
-33.30786665833976
 10
29.08659832606176
 20
-32.23404638083024
 10
29.16653777048621
 20
-32.26798360304428
 10
29.30655527045111
 20
-32.40094554745523
 10
29.38769415931988
 20
-32.43625860300216
 10
29.69757415924227
 20
-32.61335304740215
 10
29.64282304814479
 20
-32.42782721411533
 10
29.52566554817422
 20
-32.2283666586095
 10
29.13379999271649
 20
-31.41563721436835
 10
27.9848380485595
 20
-31.39083693659666
 10
28.10044332630831
 20
-30.14253277024218
 10
28.12954749296754
 20
-30.01659110360701
 10
28.18451027073173
 20
-29.991261659169
 10
28.48405388176776
 20
-30.07377638137034
 10
28.86593582611689
 20
-30.19435582578469
 10
29.21543277047407
 20
-30.88527110338964
 10
29.80404249254905
 20
-30.49065388126615
 10
29.87431582586482
 20
-30.44242915905598
 10
29.86052221475718
 20
-30.45290665905338
 10
29.9065244369679
 20
-30.38573777018146
 10
29.52118527039748
 20
-29.95150360362318
 10
28.97893054831098
 20
-29.83589832587437
 10
28.69265138171563
 20
-29.27367638157035
 10
28.23961415960665
 20
-29.20491999269883
 10
27.36680665982504
 20
-29.18202471492667
 10
27.33734971538774
 20
-29.06539638162241
 10
27.276883604292
 20
-28.81425388168543
 10
27.39005471537465
 20
-28.60738499284821
 10
27.44103110425091
 20
-28.37190582624024
 10
28.68404360394024
 20
-27.92782915968473
 10
30.31666388130969
 20
-27.8520524930371
 10
31.47162304768766
 20
-27.39883888203924
 10
31.75860776983821
 20
-27.28464471540115
 10
32.34615915858024
 20
-27.06708665989981
 10
32.72204388070838
 20
-27.22453138208285
 10
32.7564749918109
 20
-27.24777943763246
 10
32.79094138069127
 20
-27.27102749318238
 10
32.82505499179387
 20
-27.29395804873207
 10
32.49654832520933
 20
-28.03584971521328
 10
32.54202138075342
 20
-29.08451693717335
 10
32.68828304738354
 20
-30.00332665916569
 10
32.68828304738354
 20
-30.00332665916569
 10
32.68828304738354
 20
-31.84457971426116
 10
32.68828304738354
 20
-31.84457971426116
 10
32.87567860289205
 20
-32.99421193619584
 10
32.98782665841957
 20
-34.13573026924392
 10
33.20884193614221
 20
-35.14601526899138
 10
33.26585082501697
 20
-35.63228415775856
 10
33.32423554722462
 20
-36.11908221319239
 10
33.38297304720971
 20
-36.60517471307101
 10
33.34473193610813
 20
-36.73573776859396
 10
33.15250332504512
 20
-36.99086665741887
 10
33.17508110281737
 20
-37.1942783240348
 10
33.27858610279134
 20
-37.46249526841216
 10
33.38297304720971
 20
-37.72912471278991
 10
33.48683082496176
 20
-37.99441360161262
 10
33.42862249164299
 20
-38.49239471259904
 10
33.37143721387935
 20
-38.99072860136355
 10
33.31322888056058
 20
-39.48821582346118
 10
33.31322888056058
 20
-39.48821582346118
 10
33.31322888056058
 20
-41.15614915637754
 10
33.31322888056058
 20
-41.15614915637754
 10
33.22933832502604
 20
-41.44278110075033
 10
32.96800054731342
 20
-41.85034526731523
 10
32.92993582510073
 20
-42.19793721167288
 10
32.90065526955262
 20
-42.48217026715702
 10
33.15095110282336
 20
-42.59893971157231
 10
33.20884193614221
 20
-42.78809915596963
 10
33.29340276945443
 20
-43.06781665589983
 10
33.14234332504765
 20
-43.32689665583484
 10
33.1053016583904
 20
-43.5181022113424
 10
33.40759693609252
 20
-43.81161332238025
 10
33.61259610270805
 20
-44.02694887788247
 10
34.14624304701884
 20
-44.10893443341716
 10
34.24442110255016
 20
-44.36730887779729
 10
34.36895165807428
 20
-44.48721804443363
 10
34.21824499144558
 20
-44.73423304437228
 10
34.35448776918927
 20
-44.91231526654956
 10
34.60012693579439
 20
-45.0463355442938
 10
34.84093304684533
 20
-45.11523304427701
 10
34.8438611024003
 20
-45.2148222109184
 10
34.82731582462656
 20
-45.2189497109177
 10
34.77274110241797
 20
-45.3257355442244
 10
35.0562686023469
 20
-45.29232748867668
 10
35.21731165786228
 20
-45.22618165535988
 10
35.43211715160694
 20
-45.35949637754924
 10
35.73494158832569
 20
-45.56551859971957
 10
35.95422824939789
 20
-46.47399193282619
 10
36.16300213296051
 20
-46.88776498827815
 10
36.46201656977646
 20
-47.32803165483461
 10
36.76399433985014
 20
-47.76833359916922
 10
37.06456099884871
 20
-48.20824748794792
 10
36.9496965573347
 20
-49.25074109879813
 10
36.83342100474559
 20
-50.29323470964898
 10
36.71781665748733
 20
-51.3357283204992
 10
36.74092267377208
 20
-52.11049887586118
 10
36.76399433985014
 20
-52.88773887566684
 10
36.78688961704381
 20
-53.6635677643621
 10
36.47510554643686
 20
-54.785648041859
 10
36.16300213296051
 20
-55.90977443046678
 10
35.84895936319463
 20
-57.03287776351944
 10
35.86053047401054
 20
-57.41493609675745
 10
35.87171352928079
 20
-57.79837026332834
 10
35.8836021400886
 20
-58.17972304101083
 10
35.61041103594717
 20
-59.68767165174479
 10
35.87171352928079
 20
-61.17007915137434
 10
35.57061770362905
 20
-62.59117387324127
 10
35.40953937440517
 20
-63.33292442861144
 10
35.24676860229926
 20
-64.0739694284261
 10
35.08449082456237
 20
-64.81533192824035
 10
34.93413693571078
 20
-65.11611026149855
 10
34.78307749130433
 20
-65.41752359475659
 10
34.63353499134147
 20
-65.7189722057928
 10
34.45887471360764
 20
-66.33841470563733
 10
34.83352471351395
 20
-67.1690299832079
 10
34.94687221348547
 20
-67.62929914975906
 10
35.32737743205685
 20
-69.20265276047742
 10
35.42178076298175
 20
-70.50320331570752
 10
36.02277296987138
 20
-71.76272581539243
 10
36.34524712831105
 20
-72.31323553747752
 10
36.97467322336416
 20
-72.11617387086002
 10
37.23890377217864
 20
-71.69382831540986
 10
37.925691532435
 20
-70.61513970456865
 10
37.99716430838936
 20
-68.1467535940742
 10
37.41183543443345
 20
-67.03948998324007
 10
37.16153960748569
 20
-66.5644041500255
 10
36.89491110188732
 20
-66.00422831683206
 10
37.03012988861602
 20
-65.23185665035872
 10
37.28109599332445
 20
-63.81280803960204
 10
37.75237181463454
 20
-62.78100359541595
 10
38.10776110158415
 20
-61.54938581794594
 10
38.32704679997335
 20
-60.68155248482987
 10
38.54682734992184
 20
-59.81202581838004
 10
38.76784262206105
 20
-58.94387498526373
 10
39.29080038649706
 20
-57.44767387452717
 10
39.84406176127108
 20
-56.03448137488043
 10
39.81047731768344
 20
-53.87198887542108
 10
40.21151508522989
 20
-54.04562609759947
 10
40.51363396641108
 20
-56.63773137472931
 10
40.71415285018431
 20
-57.20616220792071
 10
41.19851672671605
 20
-58.59247304090767
 10
41.59331032775514
 20
-60.22234165161134
 10
41.89271387841578
 20
-61.79262609566305
 10
41.89271387841578
 20
-61.79262609566305
 10
41.89271387841578
 20
-62.83441415095838
 10
41.89271387841578
 20
-62.83441415095838
 10
42.06772587120734
 20
-63.70358803962981
 10
42.24203336676039
 20
-64.5721269283014
 10
42.41531780678398
 20
-65.43957220586219
 10
42.76774279779287
 20
-66.53170165003394
 10
43.46021028012655
 20
-67.44119803869503
 10
43.80610888241306
 20
-68.53223387175599
 10
44.07757137548747
 20
-68.59047748285259
 10
44.39041470083951
 20
-68.6028599828492
 10
44.63880552783586
 20
-68.46333637177278
 10
44.98054135245079
 20
-68.2356183162746
 10
44.79279302390731
 20
-67.11082164988882
 10
44.70770302607814
 20
-66.69189803888243
 10
44.6243063615391
 20
-66.27950081676336
 10
44.38970914530195
 20
-65.47922442807449
 10
44.53441858605455
 20
-65.05857220595746
 10
44.74799024727255
 20
-64.44050553944517
 10
46.0488582696402
 20
-63.83760831737406
 10
45.57687689279255
 20
-62.90398192871831
 10
45.4270168966158
 20
-62.60359165101603
 10
45.21273967986025
 20
-62.64698331767171
 10
44.91612413187198
 20
-62.48851553993322
 10
44.55265832219491
 20
-62.29110109553859
 10
44.17232748418115
 20
-61.67271692902606
 10
44.04829082067892
 20
-61.23724804024626
 10
43.90947276866491
 20
-59.87058692947689
 10
43.76994916111335
 20
-58.50322026315199
 10
43.63144860909123
 20
-57.13691193016037
 10
43.4729808353563
 20
-56.1316363748563
 10
43.69586582967003
 20
-55.3123805417272
 10
43.45608278023185
 20
-54.53136581970065
 10
42.7949772415425
 20
-52.35786665357694
 10
41.47378921969327
 20
-50.91094859838352
 10
41.09550561823297
 20
-48.45148776566504
 10
41.44313283158649
 20
-47.15474721043335
 10
41.78970276733062
 20
-45.8580066552023
 10
42.1369761472184
 20
-44.56094859997102
 10
42.33230919779059
 20
-44.17130554451242
 10
42.71778946573395
 20
-44.21332137783585
 10
42.69231891082821
 20
-43.62386498909398
 10
43.11812167774285
 20
-43.35102665582885
 10
44.30564220300223
 20
-43.35688276693879
 10
44.53441858605455
 20
-42.89280360038793
 10
44.06310748696759
 20
-42.41637721161798
 10
44.18851998376805
 20
-41.57094526738527
 10
43.97939443344934
 20
-40.80852193424238
 10
43.71756166244986
 20
-39.85785637892442
 10
43.44539361383789
 20
-38.94955943470701
 10
43.07610584548143
 20
-38.06384026826183
 10
42.03086059437008
 20
-35.56663221333057
 10
39.33920149637336
 20
-34.57444471357861
 10
39.74020398614293
 20
-31.15003082554571
 10
39.93211509235798
 20
-29.51621110373194
 10
41.34322616746865
 20
-29.02267499274441
 10
42.17176110056798
 20
-27.95368777078939
 10
42.47493724970741
 20
-27.56386832644223
 10
42.56725919179652
 20
-27.12201415988617
 10
42.83184251837977
 20
-26.66848304888838
 10
43.016486402558
 20
-26.35101832674573
 10
43.83055638178935
 20
-26.01873693793966
 10
44.1171883189212
 20
-25.62736527137105
 10
44.58366636257591
 20
-24.98883749375277
 10
44.78658413517682
 20
-24.30705916058985
 10
45.16003468120486
 20
-23.54170777189231
 10
45.49591439485808
 20
-22.96329332759263
 10
45.83249966404885
 20
-22.38329138329304
 10
46.16703882218071
 20
-21.80505332788193
 10
46.56116214545912
 20
-20.80838555035356
 10
46.95493269096875
 20
-19.81238805060255
 10
47.34905601424717
 20
-18.81744888418451
 10
47.69460183876489
 20
-18.00284971772135
 10
48.2378796026825
 20
-17.3119344401164
 10
48.56550554341392
 20
-16.55885971808258
 10
49.44677846072981
 20
-14.52745944081251
 10
50.01281039073358
 20
-11.95412194145585
 10
50.47547843448549
 20
-9.575976386495013
 10
50.62498565289346
 20
-8.80702666446482
 10
50.27531232848104
 20
-7.915804164687787
 10
50.163340664671
 20
-7.212823887085831
 97
        0
 75
     0
 76
     1
 98
        0
  0
ENDSEC
  0
SECTION
  2
OBJECTS
  0
DICTIONARY
  5
C
330
0
100
AcDbDictionary
281
     1
  3
ACAD_GROUP
350
D
  3
ACAD_LAYOUT
350
1A
  3
ACAD_MATERIAL
350
3B
  3
ACAD_MLEADERSTYLE
350
64
  3
ACAD_MLINESTYLE
350
17
  3
ACAD_PLOTSETTINGS
350
19
  3
ACAD_PLOTSTYLENAME
350
E
  3
ACAD_TABLESTYLE
350
63
  3
ACAD_VISUALSTYLE
350
2A
  0
SUN
  5
3F
330
29
100
AcDbSun
 90
        1
290
     0
 63
     7
421
 16777215
 40
1.0
291
     1
 91
  2455826
 92
 54000000
292
     0
 70
     2
 71
   256
280
     1
  0
DICTIONARY
  5
D
102
{ACAD_REACTORS
330
C
102
}
330
C
100
AcDbDictionary
281
     1
  0
DICTIONARY
  5
1A
102
{ACAD_REACTORS
330
C
102
}
330
C
100
AcDbDictionary
281
     1
  3
Layout1
350
1E
  3
Layout2
350
26
  3
Model
350
22
  0
DICTIONARY
  5
3B
102
{ACAD_REACTORS
330
C
102
}
330
C
100
AcDbDictionary
281
     1
  3
ByBlock
350
3D
  3
ByLayer
350
3C
  3
Global
350
3E
  0
DICTIONARY
  5
64
102
{ACAD_REACTORS
330
C
102
}
330
C
100
AcDbDictionary
281
     1
  0
DICTIONARY
  5
17
102
{ACAD_REACTORS
330
C
102
}
330
C
100
AcDbDictionary
281
     1
  3
Standard
350
18
  0
DICTIONARY
  5
19
102
{ACAD_REACTORS
330
C
102
}
330
C
100
AcDbDictionary
281
     1
  0
ACDBDICTIONARYWDFLT
  5
E
102
{ACAD_REACTORS
330
C
102
}
330
C
100
AcDbDictionary
281
     1
  3
Normal
350
F
100
AcDbDictionaryWithDefault
340
F
  0
DICTIONARY
  5
63
102
{ACAD_REACTORS
330
C
102
}
330
C
100
AcDbDictionary
281
     1
  0
DICTIONARY
  5
2A
102
{ACAD_REACTORS
330
C
102
}
330
C
100
AcDbDictionary
281
     1
  3
2dWireframe
350
2F
  3
3D Hidden
350
31
  3
3dWireframe
350
30
  3
Basic
350
32
  3
Brighten
350
36
  3
ColorChange
350
3A
  3
Conceptual
350
34
  3
Dim
350
35
  3
Facepattern
350
39
  3
Flat
350
2B
  3
FlatWithEdges
350
2C
  3
Gouraud
350
2D
  3
GouraudWithEdges
350
2E
  3
Linepattern
350
38
  3
Realistic
350
33
  3
Thicken
350
37
  0
LAYOUT
  5
1E
102
{ACAD_REACTORS
330
1A
102
}
330
1A
100
AcDbPlotSettings
  1

  2
none_device
  4

  6

 40
0.0
 41
0.0
 42
0.0
 43
0.0
 44
0.0
 45
0.0
 46
0.0
 47
0.0
 48
0.0
 49
0.0
140
0.0
141
0.0
142
1.0
143
1.0
 70
   688
 72
     0
 73
     0
 74
     5
  7

 75
    16
 76
     0
 77
     2
 78
   300
147
1.0
148
0.0
149
0.0
100
AcDbLayout
  1
Layout1
 70
     1
 71
     1
 10
0.0
 20
0.0
 11
12.0
 21
9.0
 12
0.0
 22
0.0
 32
0.0
 14
1.000000000000000E+20
 24
1.000000000000000E+20
 34
1.000000000000000E+20
 15
-1.000000000000000E+20
 25
-1.000000000000000E+20
 35
-1.000000000000000E+20
146
0.0
 13
0.0
 23
0.0
 33
0.0
 16
1.0
 26
0.0
 36
0.0
 17
0.0
 27
1.0
 37
0.0
 76
     0
330
1B
  0
LAYOUT
  5
26
102
{ACAD_REACTORS
330
1A
102
}
330
1A
100
AcDbPlotSettings
  1

  2
none_device
  4

  6

 40
0.0
 41
0.0
 42
0.0
 43
0.0
 44
0.0
 45
0.0
 46
0.0
 47
0.0
 48
0.0
 49
0.0
140
0.0
141
0.0
142
1.0
143
1.0
 70
   688
 72
     0
 73
     0
 74
     5
  7

 75
    16
 76
     0
 77
     2
 78
   300
147
1.0
148
0.0
149
0.0
100
AcDbLayout
  1
Layout2
 70
     1
 71
     2
 10
0.0
 20
0.0
 11
0.0
 21
0.0
 12
0.0
 22
0.0
 32
0.0
 14
0.0
 24
0.0
 34
0.0
 15
0.0
 25
0.0
 35
0.0
146
0.0
 13
0.0
 23
0.0
 33
0.0
 16
1.0
 26
0.0
 36
0.0
 17
0.0
 27
1.0
 37
0.0
 76
     0
330
23
  0
LAYOUT
  5
22
102
{ACAD_REACTORS
330
1A
102
}
330
1A
100
AcDbPlotSettings
  1

  2
none_device
  4

  6

 40
0.0
 41
0.0
 42
0.0
 43
0.0
 44
0.0
 45
0.0
 46
0.0
 47
0.0
 48
0.0
 49
0.0
140
0.0
141
0.0
142
1.0
143
1.0
 70
  1712
 72
     0
 73
     0
 74
     0
  7

 75
     0
 76
     0
 77
     2
 78
   300
147
1.0
148
0.0
149
0.0
100
AcDbLayout
  1
Model
 70
     1
 71
     0
 10
0.0
 20
0.0
 11
12.0
 21
9.0
 12
0.0
 22
0.0
 32
0.0
 14
1.000000000000000E+20
 24
1.000000000000000E+20
 34
1.000000000000000E+20
 15
-1.000000000000000E+20
 25
-1.000000000000000E+20
 35
-1.000000000000000E+20
146
0.0
 13
0.0
 23
0.0
 33
0.0
 16
1.0
 26
0.0
 36
0.0
 17
0.0
 27
1.0
 37
0.0
 76
     0
330
1F
331
29
  0
MATERIAL
  5
3D
102
{ACAD_REACTORS
330
3B
102
}
330
3B
100
AcDbMaterial
  1
ByBlock
 72
     1
 94
      127
  0
MATERIAL
  5
3C
102
{ACAD_REACTORS
330
3B
102
}
330
3B
100
AcDbMaterial
  1
ByLayer
 72
     1
 94
      127
  0
MATERIAL
  5
3E
102
{ACAD_REACTORS
330
3B
102
}
330
3B
100
AcDbMaterial
  1
Global
 72
     1
 94
      127
  0
MLINESTYLE
  5
18
102
{ACAD_REACTORS
330
17
102
}
330
17
100
AcDbMlineStyle
  2
Standard
 70
     0
  3

 62
   256
 51
90.0
 52
90.0
 71
     2
 49
0.5
 62
   256
  6
BYLAYER
 49
-0.5
 62
   256
  6
BYLAYER
  0
ACDBPLACEHOLDER
  5
F
102
{ACAD_REACTORS
330
E
102
}
330
E
  0
VISUALSTYLE
  5
2F
102
{ACAD_REACTORS
330
2A
102
}
102
{ACAD_XDICTIONARY
360
4B
102
}
330
2A
100
AcDbVisualStyle
  2
2dWireframe
 70
     4
 71
     0
 72
     2
 73
     0
 90
        0
 40
-0.6
 41
-30.0
 62
     5
 63
     7
421
 16777215
 74
     1
 91
        4
 64
     7
 65
   257
 75
     1
175
     1
 42
1.0
 92
        0
 66
   257
 43
1.0
 76
     1
 77
     6
 78
     2
 67
     7
 79
     5
170
     0
171
     0
290
     0
174
     0
 93
        1
 44
0.0
173
     0
291
     0
 45
0.0
  0
VISUALSTYLE
  5
31
102
{ACAD_REACTORS
330
2A
102
}
102
{ACAD_XDICTIONARY
360
4F
102
}
330
2A
100
AcDbVisualStyle
  2
3D Hidden
 70
     6
 71
     1
 72
     2
 73
     2
 90
        0
 40
-0.6
 41
-30.0
 62
     5
 63
     7
421
 16777215
 74
     2
 91
        2
 64
     7
 65
   257
 75
     2
175
     1
 42
40.0
 92
        0
 66
   257
 43
1.0
 76
     1
 77
     6
 78
     2
 67
     7
 79
     3
170
     0
171
     0
290
     0
174
     0
 93
        1
 44
0.0
173
     0
291
     0
 45
0.0
  0
VISUALSTYLE
  5
30
102
{ACAD_REACTORS
330
2A
102
}
102
{ACAD_XDICTIONARY
360
4D
102
}
330
2A
100
AcDbVisualStyle
  2
3dWireframe
 70
     5
 71
     0
 72
     2
 73
     0
 90
        0
 40
-0.6
 41
-30.0
 62
     5
 63
     7
421
 16777215
 74
     1
 91
        4
 64
     7
 65
   257
 75
     1
175
     1
 42
1.0
 92
        0
 66
   257
 43
1.0
 76
     1
 77
     6
 78
     2
 67
     7
 79
     5
170
     0
171
     0
290
     0
174
     0
 93
        1
 44
0.0
173
     0
291
     0
 45
0.0
  0
VISUALSTYLE
  5
32
102
{ACAD_REACTORS
330
2A
102
}
102
{ACAD_XDICTIONARY
360
51
102
}
330
2A
100
AcDbVisualStyle
  2
Basic
 70
     7
 71
     1
 72
     0
 73
     1
 90
        0
 40
-0.6
 41
-30.0
 62
     5
 63
     7
421
 16777215
 74
     0
 91
        4
 64
     7
 65
   257
 75
     1
175
     1
 42
1.0
 92
        8
 66
     7
 43
1.0
 76
     1
 77
     6
 78
     2
 67
     7
 79
     5
170
     0
171
     0
290
     0
174
     0
 93
        1
 44
0.0
173
     0
291
     1
 45
0.0
  0
VISUALSTYLE
  5
36
102
{ACAD_REACTORS
330
2A
102
}
102
{ACAD_XDICTIONARY
360
59
102
}
330
2A
100
AcDbVisualStyle
  2
Brighten
 70
    12
 71
     2
 72
     2
 73
     0
 90
        0
 40
-0.6
 41
-30.0
 62
     5
 63
     7
421
 16777215
 74
     1
 91
        4
 64
     7
 65
   257
 75
     1
175
     1
 42
1.0
 92
        8
 66
     7
 43
1.0
 76
     1
 77
     6
 78
     2
 67
     7
 79
     5
170
     0
171
     0
290
     0
174
     0
 93
        1
 44
50.0
173
     0
291
     1
 45
0.0
  0
VISUALSTYLE
  5
3A
102
{ACAD_REACTORS
330
2A
102
}
102
{ACAD_XDICTIONARY
360
61
102
}
330
2A
100
AcDbVisualStyle
  2
ColorChange
 70
    16
 71
     2
 72
     2
 73
     3
 90
        0
 40
-0.6
 41
-30.0
 62
     5
 63
     8
421
  8421504
 74
     1
 91
        4
 64
     7
 65
   257
 75
     1
175
     1
 42
1.0
 92
        8
 66
     8
424
  8421504
 43
1.0
 76
     1
 77
     6
 78
     2
 67
     7
 79
     5
170
     0
171
     0
290
     0
174
     0
 93
        1
 44
0.0
173
     0
291
     1
 45
0.0
  0
VISUALSTYLE
  5
34
102
{ACAD_REACTORS
330
2A
102
}
102
{ACAD_XDICTIONARY
360
55
102
}
330
2A
100
AcDbVisualStyle
  2
Conceptual
 70
     9
 71
     3
 72
     2
 73
     0
 90
        0
 40
-0.6
 41
-30.0
 62
     5
 63
     7
421
 16777215
 74
     2
 91
        2
 64
     7
 65
   257
 75
     1
175
     1
 42
40.0
 92
        8
 66
     7
 43
1.0
 76
     1
 77
     6
 78
     2
 67
     7
 79
     3
170
     0
171
     0
290
     0
174
     0
 93
        1
 44
0.0
173
     0
291
     0
 45
0.0
  0
VISUALSTYLE
  5
35
102
{ACAD_REACTORS
330
2A
102
}
102
{ACAD_XDICTIONARY
360
57
102
}
330
2A
100
AcDbVisualStyle
  2
Dim
 70
    11
 71
     2
 72
     2
 73
     0
 90
        0
 40
-0.6
 41
-30.0
 62
     5
 63
     7
421
 16777215
 74
     1
 91
        4
 64
     7
 65
   257
 75
     1
175
     1
 42
1.0
 92
        8
 66
     7
 43
1.0
 76
     1
 77
     6
 78
     2
 67
     7
 79
     5
170
     0
171
     0
290
     0
174
     0
 93
        1
 44
-50.0
173
     0
291
     1
 45
0.0
  0
VISUALSTYLE
  5
39
102
{ACAD_REACTORS
330
2A
102
}
102
{ACAD_XDICTIONARY
360
5F
102
}
330
2A
100
AcDbVisualStyle
  2
Facepattern
 70
    15
 71
     2
 72
     2
 73
     0
 90
        0
 40
-0.6
 41
-30.0
 62
     5
 63
     7
421
 16777215
 74
     1
 91
        4
 64
     7
 65
   257
 75
     1
175
     1
 42
1.0
 92
        8
 66
     7
 43
1.0
 76
     1
 77
     6
 78
     2
 67
     7
 79
     5
170
     0
171
     0
290
     0
174
     0
 93
        1
 44
0.0
173
     0
291
     1
 45
0.0
  0
VISUALSTYLE
  5
2B
102
{ACAD_REACTORS
330
2A
102
}
102
{ACAD_XDICTIONARY
360
43
102
}
330
2A
100
AcDbVisualStyle
  2
Flat
 70
     0
 71
     2
 72
     1
 73
     1
 90
        2
 40
-0.6
 41
30.0
 62
     5
 63
     7
421
 16777215
 74
     0
 91
        4
 64
     7
 65
   257
 75
     1
175
     1
 42
1.0
 92
        8
 66
     7
 43
1.0
 76
     1
 77
     6
 78
     2
 67
     7
 79
     5
170
     0
171
     0
290
     0
174
     0
 93
       13
 44
0.0
173
     0
291
     1
 45
0.0
  0
VISUALSTYLE
  5
2C
102
{ACAD_REACTORS
330
2A
102
}
102
{ACAD_XDICTIONARY
360
45
102
}
330
2A
100
AcDbVisualStyle
  2
FlatWithEdges
 70
     1
 71
     2
 72
     1
 73
     1
 90
        2
 40
-0.6
 41
30.0
 62
     5
 63
     7
421
 16777215
 74
     1
 91
        4
 64
     7
 65
   257
 75
     1
175
     1
 42
1.0
 92
        0
 66
   257
 43
1.0
 76
     1
 77
     6
 78
     2
 67
     7
 79
     5
170
     0
171
     0
290
     0
174
     0
 93
       13
 44
0.0
173
     0
291
     1
 45
0.0
  0
VISUALSTYLE
  5
2D
102
{ACAD_REACTORS
330
2A
102
}
102
{ACAD_XDICTIONARY
360
47
102
}
330
2A
100
AcDbVisualStyle
  2
Gouraud
 70
     2
 71
     2
 72
     2
 73
     1
 90
        2
 40
-0.6
 41
30.0
 62
     5
 63
     7
421
 16777215
 74
     0
 91
        4
 64
     7
 65
   257
 75
     1
175
     1
 42
1.0
 92
        0
 66
     7
 43
1.0
 76
     1
 77
     6
 78
     2
 67
     7
 79
     5
170
     0
171
     0
290
     0
174
     0
 93
       13
 44
0.0
173
     0
291
     1
 45
0.0
  0
VISUALSTYLE
  5
2E
102
{ACAD_REACTORS
330
2A
102
}
102
{ACAD_XDICTIONARY
360
49
102
}
330
2A
100
AcDbVisualStyle
  2
GouraudWithEdges
 70
     3
 71
     2
 72
     2
 73
     1
 90
        2
 40
-0.6
 41
30.0
 62
     5
 63
     7
421
 16777215
 74
     1
 91
        4
 64
     7
 65
   257
 75
     1
175
     1
 42
1.0
 92
        0
 66
   257
 43
1.0
 76
     1
 77
     6
 78
     2
 67
     7
 79
     5
170
     0
171
     0
290
     0
174
     0
 93
       13
 44
0.0
173
     0
291
     1
 45
0.0
  0
VISUALSTYLE
  5
38
102
{ACAD_REACTORS
330
2A
102
}
102
{ACAD_XDICTIONARY
360
5D
102
}
330
2A
100
AcDbVisualStyle
  2
Linepattern
 70
    14
 71
     2
 72
     2
 73
     0
 90
        0
 40
-0.6
 41
-30.0
 62
     5
 63
     7
421
 16777215
 74
     1
 91
        4
 64
     7
 65
   257
 75
     7
175
     7
 42
1.0
 92
        8
 66
     7
 43
1.0
 76
     1
 77
     6
 78
     2
 67
     7
 79
     5
170
     0
171
     0
290
     0
174
     0
 93
        1
 44
0.0
173
     0
291
     1
 45
0.0
  0
VISUALSTYLE
  5
33
102
{ACAD_REACTORS
330
2A
102
}
102
{ACAD_XDICTIONARY
360
53
102
}
330
2A
100
AcDbVisualStyle
  2
Realistic
 70
     8
 71
     2
 72
     2
 73
     0
 90
        0
 40
-0.6
 41
-30.0
 62
     5
 63
     7
421
 16777215
 74
     1
 91
        0
 64
     7
 65
   257
 75
     1
175
     1
 42
1.0
 92
        8
 66
     8
424
  7895160
 43
1.0
 76
     1
 77
     6
 78
     2
 67
     7
 79
     5
170
     0
171
     0
290
     0
174
     0
 93
       13
 44
0.0
173
     0
291
     0
 45
0.0
  0
VISUALSTYLE
  5
37
102
{ACAD_REACTORS
330
2A
102
}
102
{ACAD_XDICTIONARY
360
5B
102
}
330
2A
100
AcDbVisualStyle
  2
Thicken
 70
    13
 71
     2
 72
     2
 73
     0
 90
        0
 40
-0.6
 41
-30.0
 62
     5
 63
     7
421
 16777215
 74
     1
 91
        4
 64
     7
 65
   257
 75
     1
175
     1
 42
1.0
 92
       12
 66
     7
 43
1.0
 76
     1
 77
     6
 78
     2
 67
     7
 79
     5
170
     0
171
     0
290
     0
174
     0
 93
        1
 44
0.0
173
     0
291
     1
 45
0.0
  0
DICTIONARY
  5
4B
330
2F
100
AcDbDictionary
280
     1
281
     1
  3
ACAD_XREC_ROUNDTRIP
360
4C
  0
DICTIONARY
  5
4F
330
31
100
AcDbDictionary
280
     1
281
     1
  3
ACAD_XREC_ROUNDTRIP
360
50
  0
DICTIONARY
  5
4D
330
30
100
AcDbDictionary
280
     1
281
     1
  3
ACAD_XREC_ROUNDTRIP
360
4E
  0
DICTIONARY
  5
51
330
32
100
AcDbDictionary
280
     1
281
     1
  3
ACAD_XREC_ROUNDTRIP
360
52
  0
DICTIONARY
  5
59
330
36
100
AcDbDictionary
280
     1
281
     1
  3
ACAD_XREC_ROUNDTRIP
360
5A
  0
DICTIONARY
  5
61
330
3A
100
AcDbDictionary
280
     1
281
     1
  3
ACAD_XREC_ROUNDTRIP
360
62
  0
DICTIONARY
  5
55
330
34
100
AcDbDictionary
280
     1
281
     1
  3
ACAD_XREC_ROUNDTRIP
360
56
  0
DICTIONARY
  5
57
330
35
100
AcDbDictionary
280
     1
281
     1
  3
ACAD_XREC_ROUNDTRIP
360
58
  0
DICTIONARY
  5
5F
330
39
100
AcDbDictionary
280
     1
281
     1
  3
ACAD_XREC_ROUNDTRIP
360
60
  0
DICTIONARY
  5
43
330
2B
100
AcDbDictionary
280
     1
281
     1
  3
ACAD_XREC_ROUNDTRIP
360
44
  0
DICTIONARY
  5
45
330
2C
100
AcDbDictionary
280
     1
281
     1
  3
ACAD_XREC_ROUNDTRIP
360
46
  0
DICTIONARY
  5
47
330
2D
100
AcDbDictionary
280
     1
281
     1
  3
ACAD_XREC_ROUNDTRIP
360
48
  0
DICTIONARY
  5
49
330
2E
100
AcDbDictionary
280
     1
281
     1
  3
ACAD_XREC_ROUNDTRIP
360
4A
  0
DICTIONARY
  5
5D
330
38
100
AcDbDictionary
280
     1
281
     1
  3
ACAD_XREC_ROUNDTRIP
360
5E
  0
DICTIONARY
  5
53
330
33
100
AcDbDictionary
280
     1
281
     1
  3
ACAD_XREC_ROUNDTRIP
360
54
  0
DICTIONARY
  5
5B
330
37
100
AcDbDictionary
280
     1
281
     1
  3
ACAD_XREC_ROUNDTRIP
360
5C
  0
XRECORD
  5
4C
102
{ACAD_REACTORS
330
4B
102
}
330
4B
100
AcDbXrecord
280
     1
102
RTVSPropertyOp0
 70
     1
102
RTVSPropertyOp1
 70
     1
102
RTVSPropertyOp2
 70
     1
102
RTVSPropertyOp3
 70
     1
102
RTVSPropertyOp4
 70
     1
102
RTVSPropertyOp5
 70
     1
102
RTVSPropertyOp6
 70
     1
102
RTVSPropertyOp7
 70
     1
102
RTVSPropertyOp8
 70
     1
102
RTVSPropertyOp9
 70
     1
102
RTVSPropertyOp10
 70
     1
102
RTVSPropertyOp11
 70
     1
102
RTVSPropertyOp12
 70
     1
102
RTVSPropertyOp13
 70
     1
102
RTVSPropertyOp14
 70
     1
102
RTVSPropertyOp15
 70
     1
102
RTVSPropertyOp16
 70
     1
102
RTVSPropertyOp17
 70
     1
102
RTVSPropertyOp18
 70
     1
102
RTVSPropertyOp19
 70
     1
102
RTVSPropertyOp20
 70
     1
102
RTVSPropertyOp21
 70
     1
102
RTVSPropertyOp22
 70
     1
102
RTVSPropertyOp23
 70
     1
102
RTVSPropertyOp24
 70
     1
102
RTVSPropertyOp25
 70
     1
102
RTVSPropertyOp26
 70
     1
102
RTVSPropertyOp27
 70
     1
102
RTVSPropertyOp28
 70
     1
102
RTVSPropertyOp29
 70
     1
102
RTVSPropertyOp30
 70
     1
102
RTVSPropertyOp31
 70
     1
102
RTVSPropertyOp32
 70
     1
  0
XRECORD
  5
50
102
{ACAD_REACTORS
330
4F
102
}
330
4F
100
AcDbXrecord
280
     1
102
RTVSPropertyOp0
 70
     1
102
RTVSPropertyOp1
 70
     1
102
RTVSPropertyOp2
 70
     1
102
RTVSPropertyOp3
 70
     1
102
RTVSPropertyOp4
 70
     1
102
RTVSPropertyOp5
 70
     1
102
RTVSPropertyOp6
 70
     1
102
RTVSPropertyOp7
 70
     1
102
RTVSPropertyOp8
 70
     1
102
RTVSPropertyOp9
 70
     1
102
RTVSPropertyOp10
 70
     1
102
RTVSPropertyOp11
 70
     1
102
RTVSPropertyOp12
 70
     1
102
RTVSPropertyOp13
 70
     1
102
RTVSPropertyOp14
 70
     1
102
RTVSPropertyOp15
 70
     1
102
RTVSPropertyOp16
 70
     1
102
RTVSPropertyOp17
 70
     1
102
RTVSPropertyOp18
 70
     1
102
RTVSPropertyOp19
 70
     1
102
RTVSPropertyOp20
 70
     1
102
RTVSPropertyOp21
 70
     1
102
RTVSPropertyOp22
 70
     1
102
RTVSPropertyOp23
 70
     1
102
RTVSPropertyOp24
 70
     1
102
RTVSPropertyOp25
 70
     1
102
RTVSPropertyOp26
 70
     1
102
RTVSPropertyOp27
 70
     1
102
RTVSPropertyOp28
 70
     1
102
RTVSPropertyOp29
 70
     1
102
RTVSPropertyOp30
 70
     1
102
RTVSPropertyOp31
 70
     1
102
RTVSPropertyOp32
 70
     1
  0
XRECORD
  5
4E
102
{ACAD_REACTORS
330
4D
102
}
330
4D
100
AcDbXrecord
280
     1
102
RTVSPropertyOp0
 70
     1
102
RTVSPropertyOp1
 70
     1
102
RTVSPropertyOp2
 70
     1
102
RTVSPropertyOp3
 70
     1
102
RTVSPropertyOp4
 70
     1
102
RTVSPropertyOp5
 70
     1
102
RTVSPropertyOp6
 70
     1
102
RTVSPropertyOp7
 70
     1
102
RTVSPropertyOp8
 70
     1
102
RTVSPropertyOp9
 70
     1
102
RTVSPropertyOp10
 70
     1
102
RTVSPropertyOp11
 70
     1
102
RTVSPropertyOp12
 70
     1
102
RTVSPropertyOp13
 70
     1
102
RTVSPropertyOp14
 70
     1
102
RTVSPropertyOp15
 70
     1
102
RTVSPropertyOp16
 70
     1
102
RTVSPropertyOp17
 70
     1
102
RTVSPropertyOp18
 70
     1
102
RTVSPropertyOp19
 70
     1
102
RTVSPropertyOp20
 70
     1
102
RTVSPropertyOp21
 70
     1
102
RTVSPropertyOp22
 70
     1
102
RTVSPropertyOp23
 70
     1
102
RTVSPropertyOp24
 70
     1
102
RTVSPropertyOp25
 70
     1
102
RTVSPropertyOp26
 70
     1
102
RTVSPropertyOp27
 70
     1
102
RTVSPropertyOp28
 70
     1
102
RTVSPropertyOp29
 70
     1
102
RTVSPropertyOp30
 70
     1
102
RTVSPropertyOp31
 70
     1
102
RTVSPropertyOp32
 70
     1
  0
XRECORD
  5
52
102
{ACAD_REACTORS
330
51
102
}
330
51
100
AcDbXrecord
280
     1
102
RTVSPropertyOp0
 70
     1
102
RTVSPropertyOp1
 70
     1
102
RTVSPropertyOp2
 70
     1
102
RTVSPropertyOp3
 70
     1
102
RTVSPropertyOp4
 70
     1
102
RTVSPropertyOp5
 70
     1
102
RTVSPropertyOp6
 70
     1
102
RTVSPropertyOp7
 70
     1
102
RTVSPropertyOp8
 70
     1
102
RTVSPropertyOp9
 70
     1
102
RTVSPropertyOp10
 70
     1
102
RTVSPropertyOp11
 70
     1
102
RTVSPropertyOp12
 70
     1
102
RTVSPropertyOp13
 70
     1
102
RTVSPropertyOp14
 70
     1
102
RTVSPropertyOp15
 70
     1
102
RTVSPropertyOp16
 70
     1
102
RTVSPropertyOp17
 70
     1
102
RTVSPropertyOp18
 70
     1
102
RTVSPropertyOp19
 70
     1
102
RTVSPropertyOp20
 70
     1
102
RTVSPropertyOp21
 70
     1
102
RTVSPropertyOp22
 70
     1
102
RTVSPropertyOp23
 70
     1
102
RTVSPropertyOp24
 70
     1
102
RTVSPropertyOp25
 70
     1
102
RTVSPropertyOp26
 70
     1
102
RTVSPropertyOp27
 70
     1
102
RTVSPropertyOp28
 70
     1
102
RTVSPropertyOp29
 70
     1
102
RTVSPropertyOp30
 70
     1
102
RTVSPropertyOp31
 70
     1
102
RTVSPropertyOp32
 70
     1
  0
XRECORD
  5
5A
102
{ACAD_REACTORS
330
59
102
}
330
59
100
AcDbXrecord
280
     1
102
RTVSPropertyOp0
 70
     1
102
RTVSPropertyOp1
 70
     1
102
RTVSPropertyOp2
 70
     1
102
RTVSPropertyOp3
 70
     1
102
RTVSPropertyOp4
 70
     1
102
RTVSPropertyOp5
 70
     1
102
RTVSPropertyOp6
 70
     1
102
RTVSPropertyOp7
 70
     1
102
RTVSPropertyOp8
 70
     1
102
RTVSPropertyOp9
 70
     1
102
RTVSPropertyOp10
 70
     1
102
RTVSPropertyOp11
 70
     1
102
RTVSPropertyOp12
 70
     1
102
RTVSPropertyOp13
 70
     1
102
RTVSPropertyOp14
 70
     1
102
RTVSPropertyOp15
 70
     1
102
RTVSPropertyOp16
 70
     1
102
RTVSPropertyOp17
 70
     1
102
RTVSPropertyOp18
 70
     1
102
RTVSPropertyOp19
 70
     1
102
RTVSPropertyOp20
 70
     1
102
RTVSPropertyOp21
 70
     1
102
RTVSPropertyOp22
 70
     1
102
RTVSPropertyOp23
 70
     1
102
RTVSPropertyOp24
 70
     1
102
RTVSPropertyOp25
 70
     1
102
RTVSPropertyOp26
 70
     1
102
RTVSPropertyOp27
 70
     1
102
RTVSPropertyOp28
 70
     1
102
RTVSPropertyOp29
 70
     1
102
RTVSPropertyOp30
 70
     1
102
RTVSPropertyOp31
 70
     1
102
RTVSPropertyOp32
 70
     1
  0
XRECORD
  5
62
102
{ACAD_REACTORS
330
61
102
}
330
61
100
AcDbXrecord
280
     1
102
RTVSPropertyOp0
 70
     1
102
RTVSPropertyOp1
 70
     1
102
RTVSPropertyOp2
 70
     1
102
RTVSPropertyOp3
 70
     1
102
RTVSPropertyOp4
 70
     1
102
RTVSPropertyOp5
 70
     1
102
RTVSPropertyOp6
 70
     1
102
RTVSPropertyOp7
 70
     1
102
RTVSPropertyOp8
 70
     1
102
RTVSPropertyOp9
 70
     1
102
RTVSPropertyOp10
 70
     1
102
RTVSPropertyOp11
 70
     1
102
RTVSPropertyOp12
 70
     1
102
RTVSPropertyOp13
 70
     1
102
RTVSPropertyOp14
 70
     1
102
RTVSPropertyOp15
 70
     1
102
RTVSPropertyOp16
 70
     1
102
RTVSPropertyOp17
 70
     1
102
RTVSPropertyOp18
 70
     1
102
RTVSPropertyOp19
 70
     1
102
RTVSPropertyOp20
 70
     1
102
RTVSPropertyOp21
 70
     1
102
RTVSPropertyOp22
 70
     1
102
RTVSPropertyOp23
 70
     1
102
RTVSPropertyOp24
 70
     1
102
RTVSPropertyOp25
 70
     1
102
RTVSPropertyOp26
 70
     1
102
RTVSPropertyOp27
 70
     1
102
RTVSPropertyOp28
 70
     1
102
RTVSPropertyOp29
 70
     1
102
RTVSPropertyOp30
 70
     1
102
RTVSPropertyOp31
 70
     1
102
RTVSPropertyOp32
 70
     1
  0
XRECORD
  5
56
102
{ACAD_REACTORS
330
55
102
}
330
55
100
AcDbXrecord
280
     1
102
RTVSPropertyOp0
 70
     1
102
RTVSPropertyOp1
 70
     1
102
RTVSPropertyOp2
 70
     1
102
RTVSPropertyOp3
 70
     1
102
RTVSPropertyOp4
 70
     1
102
RTVSPropertyOp5
 70
     1
102
RTVSPropertyOp6
 70
     1
102
RTVSPropertyOp7
 70
     1
102
RTVSPropertyOp8
 70
     1
102
RTVSPropertyOp9
 70
     1
102
RTVSPropertyOp10
 70
     1
102
RTVSPropertyOp11
 70
     1
102
RTVSPropertyOp12
 70
     1
102
RTVSPropertyOp13
 70
     1
102
RTVSPropertyOp14
 70
     1
102
RTVSPropertyOp15
 70
     1
102
RTVSPropertyOp16
 70
     1
102
RTVSPropertyOp17
 70
     1
102
RTVSPropertyOp18
 70
     1
102
RTVSPropertyOp19
 70
     1
102
RTVSPropertyOp20
 70
     1
102
RTVSPropertyOp21
 70
     1
102
RTVSPropertyOp22
 70
     1
102
RTVSPropertyOp23
 70
     1
102
RTVSPropertyOp24
 70
     1
102
RTVSPropertyOp25
 70
     1
102
RTVSPropertyOp26
 70
     1
102
RTVSPropertyOp27
 70
     1
102
RTVSPropertyOp28
 70
     1
102
RTVSPropertyOp29
 70
     1
102
RTVSPropertyOp30
 70
     1
102
RTVSPropertyOp31
 70
     1
102
RTVSPropertyOp32
 70
     1
  0
XRECORD
  5
58
102
{ACAD_REACTORS
330
57
102
}
330
57
100
AcDbXrecord
280
     1
102
RTVSPropertyOp0
 70
     1
102
RTVSPropertyOp1
 70
     1
102
RTVSPropertyOp2
 70
     1
102
RTVSPropertyOp3
 70
     1
102
RTVSPropertyOp4
 70
     1
102
RTVSPropertyOp5
 70
     1
102
RTVSPropertyOp6
 70
     1
102
RTVSPropertyOp7
 70
     1
102
RTVSPropertyOp8
 70
     1
102
RTVSPropertyOp9
 70
     1
102
RTVSPropertyOp10
 70
     1
102
RTVSPropertyOp11
 70
     1
102
RTVSPropertyOp12
 70
     1
102
RTVSPropertyOp13
 70
     1
102
RTVSPropertyOp14
 70
     1
102
RTVSPropertyOp15
 70
     1
102
RTVSPropertyOp16
 70
     1
102
RTVSPropertyOp17
 70
     1
102
RTVSPropertyOp18
 70
     1
102
RTVSPropertyOp19
 70
     1
102
RTVSPropertyOp20
 70
     1
102
RTVSPropertyOp21
 70
     1
102
RTVSPropertyOp22
 70
     1
102
RTVSPropertyOp23
 70
     1
102
RTVSPropertyOp24
 70
     1
102
RTVSPropertyOp25
 70
     1
102
RTVSPropertyOp26
 70
     1
102
RTVSPropertyOp27
 70
     1
102
RTVSPropertyOp28
 70
     1
102
RTVSPropertyOp29
 70
     1
102
RTVSPropertyOp30
 70
     1
102
RTVSPropertyOp31
 70
     1
102
RTVSPropertyOp32
 70
     1
  0
XRECORD
  5
60
102
{ACAD_REACTORS
330
5F
102
}
330
5F
100
AcDbXrecord
280
     1
102
RTVSPropertyOp0
 70
     1
102
RTVSPropertyOp1
 70
     1
102
RTVSPropertyOp2
 70
     1
102
RTVSPropertyOp3
 70
     1
102
RTVSPropertyOp4
 70
     1
102
RTVSPropertyOp5
 70
     1
102
RTVSPropertyOp6
 70
     1
102
RTVSPropertyOp7
 70
     1
102
RTVSPropertyOp8
 70
     1
102
RTVSPropertyOp9
 70
     1
102
RTVSPropertyOp10
 70
     1
102
RTVSPropertyOp11
 70
     1
102
RTVSPropertyOp12
 70
     1
102
RTVSPropertyOp13
 70
     1
102
RTVSPropertyOp14
 70
     1
102
RTVSPropertyOp15
 70
     1
102
RTVSPropertyOp16
 70
     1
102
RTVSPropertyOp17
 70
     1
102
RTVSPropertyOp18
 70
     1
102
RTVSPropertyOp19
 70
     1
102
RTVSPropertyOp20
 70
     1
102
RTVSPropertyOp21
 70
     1
102
RTVSPropertyOp22
 70
     1
102
RTVSPropertyOp23
 70
     1
102
RTVSPropertyOp24
 70
     1
102
RTVSPropertyOp25
 70
     1
102
RTVSPropertyOp26
 70
     1
102
RTVSPropertyOp27
 70
     1
102
RTVSPropertyOp28
 70
     1
102
RTVSPropertyOp29
 70
     1
102
RTVSPropertyOp30
 70
     1
102
RTVSPropertyOp31
 70
     1
102
RTVSPropertyOp32
 70
     1
  0
XRECORD
  5
44
102
{ACAD_REACTORS
330
43
102
}
330
43
100
AcDbXrecord
280
     1
102
RTVSPropertyOp0
 70
     1
102
RTVSPropertyOp1
 70
     1
102
RTVSPropertyOp2
 70
     1
102
RTVSPropertyOp3
 70
     1
102
RTVSPropertyOp4
 70
     1
102
RTVSPropertyOp5
 70
     1
102
RTVSPropertyOp6
 70
     1
102
RTVSPropertyOp7
 70
     1
102
RTVSPropertyOp8
 70
     1
102
RTVSPropertyOp9
 70
     1
102
RTVSPropertyOp10
 70
     1
102
RTVSPropertyOp11
 70
     1
102
RTVSPropertyOp12
 70
     1
102
RTVSPropertyOp13
 70
     1
102
RTVSPropertyOp14
 70
     1
102
RTVSPropertyOp15
 70
     1
102
RTVSPropertyOp16
 70
     1
102
RTVSPropertyOp17
 70
     1
102
RTVSPropertyOp18
 70
     1
102
RTVSPropertyOp19
 70
     1
102
RTVSPropertyOp20
 70
     1
102
RTVSPropertyOp21
 70
     1
102
RTVSPropertyOp22
 70
     1
102
RTVSPropertyOp23
 70
     1
102
RTVSPropertyOp24
 70
     1
102
RTVSPropertyOp25
 70
     1
102
RTVSPropertyOp26
 70
     1
102
RTVSPropertyOp27
 70
     1
102
RTVSPropertyOp28
 70
     1
102
RTVSPropertyOp29
 70
     1
102
RTVSPropertyOp30
 70
     1
102
RTVSPropertyOp31
 70
     1
102
RTVSPropertyOp32
 70
     1
  0
XRECORD
  5
46
102
{ACAD_REACTORS
330
45
102
}
330
45
100
AcDbXrecord
280
     1
102
RTVSPropertyOp0
 70
     1
102
RTVSPropertyOp1
 70
     1
102
RTVSPropertyOp2
 70
     1
102
RTVSPropertyOp3
 70
     1
102
RTVSPropertyOp4
 70
     1
102
RTVSPropertyOp5
 70
     1
102
RTVSPropertyOp6
 70
     1
102
RTVSPropertyOp7
 70
     1
102
RTVSPropertyOp8
 70
     1
102
RTVSPropertyOp9
 70
     1
102
RTVSPropertyOp10
 70
     1
102
RTVSPropertyOp11
 70
     1
102
RTVSPropertyOp12
 70
     1
102
RTVSPropertyOp13
 70
     1
102
RTVSPropertyOp14
 70
     1
102
RTVSPropertyOp15
 70
     1
102
RTVSPropertyOp16
 70
     1
102
RTVSPropertyOp17
 70
     1
102
RTVSPropertyOp18
 70
     1
102
RTVSPropertyOp19
 70
     1
102
RTVSPropertyOp20
 70
     1
102
RTVSPropertyOp21
 70
     1
102
RTVSPropertyOp22
 70
     1
102
RTVSPropertyOp23
 70
     1
102
RTVSPropertyOp24
 70
     1
102
RTVSPropertyOp25
 70
     1
102
RTVSPropertyOp26
 70
     1
102
RTVSPropertyOp27
 70
     1
102
RTVSPropertyOp28
 70
     1
102
RTVSPropertyOp29
 70
     1
102
RTVSPropertyOp30
 70
     1
102
RTVSPropertyOp31
 70
     1
102
RTVSPropertyOp32
 70
     1
  0
XRECORD
  5
48
102
{ACAD_REACTORS
330
47
102
}
330
47
100
AcDbXrecord
280
     1
102
RTVSPropertyOp0
 70
     1
102
RTVSPropertyOp1
 70
     1
102
RTVSPropertyOp2
 70
     1
102
RTVSPropertyOp3
 70
     1
102
RTVSPropertyOp4
 70
     1
102
RTVSPropertyOp5
 70
     1
102
RTVSPropertyOp6
 70
     1
102
RTVSPropertyOp7
 70
     1
102
RTVSPropertyOp8
 70
     1
102
RTVSPropertyOp9
 70
     1
102
RTVSPropertyOp10
 70
     1
102
RTVSPropertyOp11
 70
     1
102
RTVSPropertyOp12
 70
     1
102
RTVSPropertyOp13
 70
     1
102
RTVSPropertyOp14
 70
     1
102
RTVSPropertyOp15
 70
     1
102
RTVSPropertyOp16
 70
     1
102
RTVSPropertyOp17
 70
     1
102
RTVSPropertyOp18
 70
     1
102
RTVSPropertyOp19
 70
     1
102
RTVSPropertyOp20
 70
     1
102
RTVSPropertyOp21
 70
     1
102
RTVSPropertyOp22
 70
     1
102
RTVSPropertyOp23
 70
     1
102
RTVSPropertyOp24
 70
     1
102
RTVSPropertyOp25
 70
     1
102
RTVSPropertyOp26
 70
     1
102
RTVSPropertyOp27
 70
     1
102
RTVSPropertyOp28
 70
     1
102
RTVSPropertyOp29
 70
     1
102
RTVSPropertyOp30
 70
     1
102
RTVSPropertyOp31
 70
     1
102
RTVSPropertyOp32
 70
     1
  0
XRECORD
  5
4A
102
{ACAD_REACTORS
330
49
102
}
330
49
100
AcDbXrecord
280
     1
102
RTVSPropertyOp0
 70
     1
102
RTVSPropertyOp1
 70
     1
102
RTVSPropertyOp2
 70
     1
102
RTVSPropertyOp3
 70
     1
102
RTVSPropertyOp4
 70
     1
102
RTVSPropertyOp5
 70
     1
102
RTVSPropertyOp6
 70
     1
102
RTVSPropertyOp7
 70
     1
102
RTVSPropertyOp8
 70
     1
102
RTVSPropertyOp9
 70
     1
102
RTVSPropertyOp10
 70
     1
102
RTVSPropertyOp11
 70
     1
102
RTVSPropertyOp12
 70
     1
102
RTVSPropertyOp13
 70
     1
102
RTVSPropertyOp14
 70
     1
102
RTVSPropertyOp15
 70
     1
102
RTVSPropertyOp16
 70
     1
102
RTVSPropertyOp17
 70
     1
102
RTVSPropertyOp18
 70
     1
102
RTVSPropertyOp19
 70
     1
102
RTVSPropertyOp20
 70
     1
102
RTVSPropertyOp21
 70
     1
102
RTVSPropertyOp22
 70
     1
102
RTVSPropertyOp23
 70
     1
102
RTVSPropertyOp24
 70
     1
102
RTVSPropertyOp25
 70
     1
102
RTVSPropertyOp26
 70
     1
102
RTVSPropertyOp27
 70
     1
102
RTVSPropertyOp28
 70
     1
102
RTVSPropertyOp29
 70
     1
102
RTVSPropertyOp30
 70
     1
102
RTVSPropertyOp31
 70
     1
102
RTVSPropertyOp32
 70
     1
  0
XRECORD
  5
5E
102
{ACAD_REACTORS
330
5D
102
}
330
5D
100
AcDbXrecord
280
     1
102
RTVSPropertyOp0
 70
     1
102
RTVSPropertyOp1
 70
     1
102
RTVSPropertyOp2
 70
     1
102
RTVSPropertyOp3
 70
     1
102
RTVSPropertyOp4
 70
     1
102
RTVSPropertyOp5
 70
     1
102
RTVSPropertyOp6
 70
     1
102
RTVSPropertyOp7
 70
     1
102
RTVSPropertyOp8
 70
     1
102
RTVSPropertyOp9
 70
     1
102
RTVSPropertyOp10
 70
     1
102
RTVSPropertyOp11
 70
     1
102
RTVSPropertyOp12
 70
     1
102
RTVSPropertyOp13
 70
     1
102
RTVSPropertyOp14
 70
     1
102
RTVSPropertyOp15
 70
     1
102
RTVSPropertyOp16
 70
     1
102
RTVSPropertyOp17
 70
     1
102
RTVSPropertyOp18
 70
     1
102
RTVSPropertyOp19
 70
     1
102
RTVSPropertyOp20
 70
     1
102
RTVSPropertyOp21
 70
     1
102
RTVSPropertyOp22
 70
     1
102
RTVSPropertyOp23
 70
     1
102
RTVSPropertyOp24
 70
     1
102
RTVSPropertyOp25
 70
     1
102
RTVSPropertyOp26
 70
     1
102
RTVSPropertyOp27
 70
     1
102
RTVSPropertyOp28
 70
     1
102
RTVSPropertyOp29
 70
     1
102
RTVSPropertyOp30
 70
     1
102
RTVSPropertyOp31
 70
     1
102
RTVSPropertyOp32
 70
     1
  0
XRECORD
  5
54
102
{ACAD_REACTORS
330
53
102
}
330
53
100
AcDbXrecord
280
     1
102
RTVSPropertyOp0
 70
     1
102
RTVSPropertyOp1
 70
     1
102
RTVSPropertyOp2
 70
     1
102
RTVSPropertyOp3
 70
     1
102
RTVSPropertyOp4
 70
     1
102
RTVSPropertyOp5
 70
     1
102
RTVSPropertyOp6
 70
     1
102
RTVSPropertyOp7
 70
     1
102
RTVSPropertyOp8
 70
     1
102
RTVSPropertyOp9
 70
     1
102
RTVSPropertyOp10
 70
     1
102
RTVSPropertyOp11
 70
     1
102
RTVSPropertyOp12
 70
     1
102
RTVSPropertyOp13
 70
     1
102
RTVSPropertyOp14
 70
     1
102
RTVSPropertyOp15
 70
     1
102
RTVSPropertyOp16
 70
     1
102
RTVSPropertyOp17
 70
     1
102
RTVSPropertyOp18
 70
     1
102
RTVSPropertyOp19
 70
     1
102
RTVSPropertyOp20
 70
     1
102
RTVSPropertyOp21
 70
     1
102
RTVSPropertyOp22
 70
     1
102
RTVSPropertyOp23
 70
     1
102
RTVSPropertyOp24
 70
     1
102
RTVSPropertyOp25
 70
     1
102
RTVSPropertyOp26
 70
     1
102
RTVSPropertyOp27
 70
     1
102
RTVSPropertyOp28
 70
     1
102
RTVSPropertyOp29
 70
     1
102
RTVSPropertyOp30
 70
     1
102
RTVSPropertyOp31
 70
     1
102
RTVSPropertyOp32
 70
     1
  0
XRECORD
  5
5C
102
{ACAD_REACTORS
330
5B
102
}
330
5B
100
AcDbXrecord
280
     1
102
RTVSPropertyOp0
 70
     1
102
RTVSPropertyOp1
 70
     1
102
RTVSPropertyOp2
 70
     1
102
RTVSPropertyOp3
 70
     1
102
RTVSPropertyOp4
 70
     1
102
RTVSPropertyOp5
 70
     1
102
RTVSPropertyOp6
 70
     1
102
RTVSPropertyOp7
 70
     1
102
RTVSPropertyOp8
 70
     1
102
RTVSPropertyOp9
 70
     1
102
RTVSPropertyOp10
 70
     1
102
RTVSPropertyOp11
 70
     1
102
RTVSPropertyOp12
 70
     1
102
RTVSPropertyOp13
 70
     1
102
RTVSPropertyOp14
 70
     1
102
RTVSPropertyOp15
 70
     1
102
RTVSPropertyOp16
 70
     1
102
RTVSPropertyOp17
 70
     1
102
RTVSPropertyOp18
 70
     1
102
RTVSPropertyOp19
 70
     1
102
RTVSPropertyOp20
 70
     1
102
RTVSPropertyOp21
 70
     1
102
RTVSPropertyOp22
 70
     1
102
RTVSPropertyOp23
 70
     1
102
RTVSPropertyOp24
 70
     1
102
RTVSPropertyOp25
 70
     1
102
RTVSPropertyOp26
 70
     1
102
RTVSPropertyOp27
 70
     1
102
RTVSPropertyOp28
 70
     1
102
RTVSPropertyOp29
 70
     1
102
RTVSPropertyOp30
 70
     1
102
RTVSPropertyOp31
 70
     1
102
RTVSPropertyOp32
 70
     1
  0
ENDSEC
  0
EOF
