<?xml version="1.0" encoding="utf-8"?>
<!-- Generator: Adobe Illustrator 16.0.0, SVG Export Plug-In . SVG Version: 6.00 Build 0)  -->
<!DOCTYPE svg PUBLIC "-//W3C//DTD SVG 1.1//EN" "http://www.w3.org/Graphics/SVG/1.1/DTD/svg11.dtd">
<svg version="1.1" id="Layer_1" xmlns="http://www.w3.org/2000/svg" xmlns:xlink="http://www.w3.org/1999/xlink" x="0px" y="0px"
	 width="226.77px" height="226.77px" viewBox="0 0 226.77 226.77" enable-background="new 0 0 226.77 226.77" xml:space="preserve">
<path d="M188.52,101.584c-1.575-0.574-2.385-2.058-3.607-2.911c-0.808-0.555-1.748-0.448-2.813-0.802
	c-1.467-0.701-2.94-1.404-4.412-2.104c-5.834-1.67-12.619,0.7-19.056-0.602c-3.14-0.769-6.28-1.54-9.423-2.309
	c-1.008-0.227-1.999-0.381-2.988-0.515c0.556-0.57,1.066-1.178,1.464-1.864c-0.917-0.388-0.946-1.283-2.218-1.46
	c0.107-0.563,0.222-1.125,0.336-1.69c-0.707-0.221-1.418-0.447-2.127-0.668c1.216-1.451,1.289-2.813,2.287-4.028
	c-0.611-0.402-1.385-0.592-2.68-0.479l-0.362-1.57c-1.079-0.521-2.16,0.061-3.163,0.583c-0.87-0.473-1.027-1.278-1.673-1.888
	c-1.542,1.176-3.085,2.349-4.628,3.532c-1.609,1.129-3.215,2.259-4.822,3.392c0.059-1.195,0.087-2.367,0.217-3.372
	c0.23-1.824,1.001-4.377,0.602-6.919c-0.164-1.403-0.338-2.809-0.5-4.217c0.246-5.111,1.207-9.598,2.002-14.133
	c0.133-2.575,0.268-5.151,0.404-7.728c0.07-1.902,0.133-3.813,0.197-5.712c0.135-1.005,0.264-2.007,0.402-3.012
	c-0.467-2.642-0.936-5.282-1.406-7.923c-1.201-4.504-2.716-9.036-4.011-13.237c-0.261-1.134-0.53-2.275-0.794-3.407
	c-0.627-1.493-2.236-1.444-3.013-2.612c-0.274-1.132-0.542-2.271-0.806-3.402c-0.605-0.085-0.691-0.064-1.104,0.193
	c0.129-0.567,0.267-1.136,0.399-1.7c0.165-0.802-0.382-1.052-0.899-0.3c-0.233,0.3-0.475,0.603-0.699,0.895
	c-0.463-0.107-0.977,0.031-1.408,0.206c-0.263,0.809-0.693,1.217-0.797,2.207c-0.236-0.138-0.473-0.27-0.706-0.404
	c0.47-0.424,0.733-0.62,0.601-1.402c-0.068-0.032-0.131-0.068-0.193-0.099c-1.729,0.37-2.096,1.066-2.722,2.503
	c0.952,5.61,6.615,4.369,7.73,8.227c0.604,2.872,1.2,5.749,1.809,8.625c0.161,2.704,0.331,5.415,0.491,8.124
	c0.271,1.514,1.606,5.42,1.209,6.818c-0.482,1.672-1.455,3.249-1.904,5.516c-0.203,1.703-0.404,3.407-0.604,5.114v3.411
	c-0.671,0.969-1.336,1.939-2.007,2.905c-0.924,1.794-1.461,4.468-2.004,6.519h-0.398c-1.397-0.486-2.29-0.855-2.912-2.104
	c0.769,0.369,1.35,0.606,2.408,0.901c0.021-0.811-0.215-1.958,0.2-2.304c-0.2-0.401-0.399-0.805-0.603-1.204
	c0.471,0.313,1.611,0.764,2.109,0.803c-0.074-0.102-0.14-0.2-0.201-0.301c-0.885-0.2-1.268-1.464-1.807-2.209l1.406-2.809
	c0.18,0.402,0.148,0.324,0.4,0.402c-0.033-0.922,0.227-0.943,0.296-2.207c0.556,0.148,0.509,0.336,0.712,0.303
	c0.127-0.033,0.26-0.069,0.393-0.101v-1.402c0.453-0.123,0.33-0.007,0.503-0.401c-1.034-1.704-2.071-3.413-3.112-5.116
	c0.271,0.233,0.54,0.472,0.809,0.698V50.74c-0.602-0.805-1.209-1.604-1.806-2.409h0.097c0.434,0.288,0.672,0.479,1.404,0.498
	c-0.129-0.467-0.259-0.936-0.398-1.402c-0.215-0.099-0.424-0.198-0.64-0.292c-0.233-0.436-1.513-1.148-4.771-2.304
	c-7.556-2.69-12.71,0.891-14.93,3.006c-0.337,0.244-0.633,0.551-0.878,0.907c-0.238,0.273-0.369,0.45-0.369,0.45l0.097-0.01
	c-0.077,0.142-0.126,0.311-0.191,0.469c-0.685,1.141-1.087,2.224-1.297,2.988c-0.341,1.132-0.532,2.468,0.028,3.354
	c0.055,0.222,0.134,0.435,0.244,0.622c0.277,0.475,0.616,0.886,0.994,1.207c0.234,0.205,0.531,0.395,0.811,0.518
	c0.124,0.054,0.315,0.07,0.425,0.153c0.119,0.089,0.146,0.363,0.222,0.535c0.118,0.232,0.451,0.74,0.483,0.957
	c-0.015,0.021-0.024,0.035-0.033,0.05c-0.133,0.099-0.432,0.282-0.641,0.277c-0.104-0.009-0.29-0.104-0.384-0.022
	c0.032,0.176,0.522,0.36,0.692,0.355c0.17,0,0.339-0.067,0.495-0.131c0.014,0.005,0.026,0.014,0.038,0.023
	c-0.022,0.265-0.153,0.519-0.233,0.76c-0.075,0.21-0.09,0.427-0.169,0.629c-0.125,0.315-0.261,0.638-0.38,0.958
	c-0.065,0.179-0.373,0.71-0.202,0.947c0.124,0.179,0.323,0.324,0.517,0.387c0.411,0.149,0.645-0.156,0.924,0.319
	c0.19,0.314-0.209,0.509-0.241,0.741c-0.016,0.136,0.086,0.325,0.148,0.396c0.29,0.377,0.776,0.31,1.334,0.22l0.004,0.031
	c0.002,0.005,0,0.015,0,0.021c-0.127,0.073-0.227,0.173-0.303,0.272c-0.072,0.091-0.122,0.165-0.169,0.261
	c-0.079,0.147,0.063,0.418,0.164,0.513c0.348,0.301,0.807-0.023,1.145,0.467c0.187,0.27,0.083,0.665,0.102,0.923
	c0.011,0.129,0.166,0.471,0.278,0.654c0.013,0.009,0.013,0.018,0.016,0.027c0.027,0.041,0.059,0.077,0.067,0.092
	c0.002,0.003,0.009,0,0.014,0.005c0.109,0.113,0.294,0.227,0.581,0.276c0.37,0.086,0.86,0.01,1.339-0.217
	c0.023-0.013,0.049-0.021,0.069-0.035c0.299-0.01,0.592,0.006,0.864,0.107c-0.07,0.095-0.136,0.2-0.204,0.293
	c-0.691,0.248-1.544,0.713-2.377,1.258c-0.148,0.115-0.301,0.221-0.466,0.311c-0.912,0.639-1.762,1.351-2.269,1.945
	c-0.641-0.2-1.276-0.403-1.908-0.605c-2.683-0.554-7.319,2.063-8.727,3.111c-1.45,1.085-2.504,2.544-4.311,3.311
	c-2.507,0.868-5.01,1.736-7.525,2.609c-1.047,0.488-2.023,1.183-3.309,1.501c-1.836,0.069-3.672,0.135-5.51,0.205
	c-3.375,0.563-6.759,1.139-10.127,1.701h-3.916c-1.958,0.314-4.817,0.746-6.923,0.202c-0.983-0.257-4.591-1.899-5.513-1.605
	c-1.349,0.425-3.759,1.783-4.312,3.106c0.101,0.759-0.371,2.147,0,3.114s0.501,0,0.501,0c0.314-0.477,0.427-1.521,0.802-2.009
	c0.067,0.031,0.133,0.065,0.195,0.101c0.348,1.139-0.096,2.645,0.51,3.915c0,0,0.66,1.054,0.799-1.209
	c0.037-0.594,2.486-1.799,3.115-1.907c1.653-0.272,2.889,1.156,4.811,1.109c0.501-0.139,1.002-0.271,1.499-0.404
	c2.137-0.511,4.585,0.384,6.32,0.702c2.472,0.167,4.948,0.337,7.418,0.5c7.325,1.222,14.867-2.001,20.063-3.51
	c2.634-0.761,4.868-1.565,7.118-2.708c1.067-0.566,2.141-1.134,3.21-1.703c0.83-0.219,1.727,0.075,2.206,0.5
	c2.416,2.156,5.667,13.731,5.016,16.849c-0.09,0.42,0.201,1.08,0.455,1.86c-0.195,0.169-0.415,0.328-0.687,0.457l-9.507,4.589
	c-0.258,0.317-0.625,0.646-1.188,1.021c-2.039,0.557-4.083,1.111-6.125,1.666c-3.33,1.011-6.904,2.739-9.358,4.748
	c-0.384,0.463-0.766,0.928-1.153,1.392c-1.497,1.195-4.027,1.962-4.464,3.526c0.319,0.538,0.466,0.623,0.752,1.238l-0.9,0.511
	l-0.036,0.395c-0.013,0.466,0.483,0.459,0.755,0.778c0.388,0.854,0.775,1.707,1.159,2.563c0.989,0.37,2.544-0.324,3.576-1.271
	c0.568,0.471,1.101,1.359,1.541,1.768c0.565,0.051,1.385-0.371,1.969-0.335c0.288,0.017,0.427,0.139,0.636,0.374
	c-0.216,1.797,1.898,3.305,3.005,4.489c1.039,0.232,1.28,0.587,2.241-0.395c1.249,0.564,5.054,1.091,6.783,0
	c0.549-0.496,1.097-0.99,1.648-1.48c1.755,0.44,2.985,2.742,4.58,3.652c1.279,0.729,3.053,0.734,4.207,1.776
	c0.746-0.228,0.847-0.786,1.24-0.905l1.13,0.138c0.391-0.769,0.78-1.54,1.165-2.314c0.578-0.065,1.435,0.115,2.001-0.273l0.656-0.7
	c0.249-0.065,0.503-0.128,0.753-0.191c0.267,1.203,0.986,1.936,1.686,2.715c-0.8,3.211-1.604,6.419-2.405,9.626
	c-1.241,5.864-0.434,12.661-1.803,18.356c-0.73,1.67-1.473,3.343-2.208,5.016c-0.742,3.041-1.47,6.084-2.205,9.123
	c-0.331,1.85-0.895,5.02-0.306,6.719c0.438,0.805,0.871,1.604,1.309,2.409c0.5,2.185,0.385,11.72-0.301,14.343
	c-0.573,2.168-3.139,2.221-3.413,4.311c0.431,1.067,0.341,2.32,0.908,3.203c0.866,1.037,1.732,2.076,2.608,3.113
	c0.55,1.277,0.173,2.653,0.795,3.813c-0.067,0.124-0.137,0.263-0.195,0.399c-0.316,1.007-1.942,7.036-1.607,7.72
	c0.183,0.377,0.233,0.539,0.605,0.601c0.311,0.052,0.678-0.072,0.899-0.297c1.453-1.475,2.526-2.791,3.405-4.411
	c1.338-2.467,2.214-5.151,3.322-7.724c0.533-2.086,0.806-8.309,0.492-10.129c-0.063-1.036-0.135-2.076-0.195-3.114
	c1.028-6.259,1.842-11.531,2.907-17.448c0.488-2.697-0.341-6.22,0.396-8.623c1.236-2.873,2.476-5.746,3.711-8.624
	c0.813-2.773,1.607-5.55,2.412-8.322c0.67-1.004,1.336-2.011,2.01-3.009c1.305-2.036,2.371-4.606,3.103-7.124
	c1.547-5.279,1.54-10.461,2.511-16.342c0.473-2.903,0.23-5.546,0.354-8.497c0.209,0.079,0.397,0.146,0.51,0.189
	c1.479-0.337,1.733-3.452,3.278-4.182c2.628-1.24,6.14,0.518,8.921-1.098c-0.334-0.869,0.035-1.589-0.586-2.517
	c0.302-0.374,0.607-0.75,0.913-1.122c-0.294-0.612-0.585-1.225-0.876-1.837c1.293-0.391,1.922-1.416,2.998-1.759
	c-0.076-0.315-0.193-0.622-0.368-0.926c1.214,0.437,2.495,0.813,3.915,1.083c3.335,0.647,6.855-0.139,9.519-0.697
	c3.413-0.535,6.825-1.072,10.229-1.607c1.338,0.066,2.672,0.135,4.008,0.2c2.004,1.135,1.99,4.736,5.32,3.514
	c1.238-0.454,1.955-0.802,2.606-1.808c2.735,0.777,11.333-0.254,11.731-1.809C188.794,101.925,188.721,101.898,188.52,101.584z"/>
</svg>
