  0
SECTION
  2
HEADER
  9
$ACADVER
  1
AC1021
  9
$ACADMAINTVER
 70
    25
  9
$DWGCODEPAGE
  3
ANSI_1252
  9
$INSBASE
 10
0.0
 20
0.0
 30
0.0
  9
$EXTMIN
 10
1.000000000000000E+20
 20
1.000000000000000E+20
 30
1.000000000000000E+20
  9
$EXTMAX
 10
-1.000000000000000E+20
 20
-1.000000000000000E+20
 30
-1.000000000000000E+20
  9
$LIMMIN
 10
0.0
 20
0.0
  9
$LIMMAX
 10
12.0
 20
9.0
  9
$ORTHOMODE
 70
     0
  9
$REGENMODE
 70
     1
  9
$FILLMODE
 70
     1
  9
$QTEXTMODE
 70
     0
  9
$MIRRTEXT
 70
     1
  9
$LTSCALE
 40
1.0
  9
$ATTMODE
 70
     1
  9
$TEXTSIZE
 40
0.2
  9
$TRACEWID
 40
0.05
  9
$TEXTSTYLE
  7
Standard
  9
$CLAYER
  8
0
  9
$CELTYPE
  6
ByLayer
  9
$CECOLOR
 62
   256
  9
$CELTSCALE
 40
1.0
  9
$DISPSILH
 70
     0
  9
$DIMSCALE
 40
1.0
  9
$DIMASZ
 40
0.18
  9
$DIMEXO
 40
0.0625
  9
$DIMDLI
 40
0.38
  9
$DIMRND
 40
0.0
  9
$DIMDLE
 40
0.0
  9
$DIMEXE
 40
0.18
  9
$DIMTP
 40
0.0
  9
$DIMTM
 40
0.0
  9
$DIMTXT
 40
0.18
  9
$DIMCEN
 40
0.09
  9
$DIMTSZ
 40
0.0
  9
$DIMTOL
 70
     0
  9
$DIMLIM
 70
     0
  9
$DIMTIH
 70
     1
  9
$DIMTOH
 70
     1
  9
$DIMSE1
 70
     0
  9
$DIMSE2
 70
     0
  9
$DIMTAD
 70
     0
  9
$DIMZIN
 70
     0
  9
$DIMBLK
  1

  9
$DIMASO
 70
     1
  9
$DIMSHO
 70
     1
  9
$DIMPOST
  1

  9
$DIMAPOST
  1

  9
$DIMALT
 70
     0
  9
$DIMALTD
 70
     2
  9
$DIMALTF
 40
25.4
  9
$DIMLFAC
 40
1.0
  9
$DIMTOFL
 70
     0
  9
$DIMTVP
 40
0.0
  9
$DIMTIX
 70
     0
  9
$DIMSOXD
 70
     0
  9
$DIMSAH
 70
     0
  9
$DIMBLK1
  1

  9
$DIMBLK2
  1

  9
$DIMSTYLE
  2
Standard
  9
$DIMCLRD
 70
     0
  9
$DIMCLRE
 70
     0
  9
$DIMCLRT
 70
     0
  9
$DIMTFAC
 40
1.0
  9
$DIMGAP
 40
0.09
  9
$DIMJUST
 70
     0
  9
$DIMSD1
 70
     0
  9
$DIMSD2
 70
     0
  9
$DIMTOLJ
 70
     1
  9
$DIMTZIN
 70
     0
  9
$DIMALTZ
 70
     0
  9
$DIMALTTZ
 70
     0
  9
$DIMUPT
 70
     0
  9
$DIMDEC
 70
     4
  9
$DIMTDEC
 70
     4
  9
$DIMALTU
 70
     2
  9
$DIMALTTD
 70
     2
  9
$DIMTXSTY
  7
Standard
  9
$DIMAUNIT
 70
     0
  9
$DIMADEC
 70
     0
  9
$DIMALTRND
 40
0.0
  9
$DIMAZIN
 70
     0
  9
$DIMDSEP
 70
    46
  9
$DIMATFIT
 70
     3
  9
$DIMFRAC
 70
     0
  9
$DIMLDRBLK
  1

  9
$DIMLUNIT
 70
     2
  9
$DIMLWD
 70
    -2
  9
$DIMLWE
 70
    -2
  9
$DIMTMOVE
 70
     0
  9
$DIMFXL
 40
1.0
  9
$DIMFXLON
 70
     0
  9
$DIMJOGANG
 40
0.7853981633974483
  9
$DIMTFILL
 70
     0
  9
$DIMTFILLCLR
 70
     0
  9
$DIMARCSYM
 70
     0
  9
$DIMLTYPE
  6

  9
$DIMLTEX1
  6

  9
$DIMLTEX2
  6

  9
$LUNITS
 70
     2
  9
$LUPREC
 70
     4
  9
$SKETCHINC
 40
0.1
  9
$FILLETRAD
 40
0.5
  9
$AUNITS
 70
     0
  9
$AUPREC
 70
     0
  9
$MENU
  1
.
  9
$ELEVATION
 40
0.0
  9
$PELEVATION
 40
0.0
  9
$THICKNESS
 40
0.0
  9
$LIMCHECK
 70
     0
  9
$CHAMFERA
 40
0.5
  9
$CHAMFERB
 40
0.5
  9
$CHAMFERC
 40
1.0
  9
$CHAMFERD
 40
0.0
  9
$SKPOLY
 70
     0
  9
$TDCREATE
 40
2458551.625696493
  9
$TDUCREATE
 40
2458551.334029826
  9
$TDUPDATE
 40
2458551.625696493
  9
$TDUUPDATE
 40
2458551.334029826
  9
$TDINDWG
 40
0.0000000116
  9
$TDUSRTIMER
 40
0.0000000116
  9
$USRTIMER
 70
     1
  9
$ANGBASE
 50
0.0
  9
$ANGDIR
 70
     0
  9
$PDMODE
 70
     0
  9
$PDSIZE
 40
0.0
  9
$PLINEWID
 40
0.0
  9
$SPLFRAME
 70
     0
  9
$SPLINETYPE
 70
     6
  9
$SPLINESEGS
 70
     8
  9
$HANDSEED
  5
66
  9
$SURFTAB1
 70
     6
  9
$SURFTAB2
 70
     6
  9
$SURFTYPE
 70
     6
  9
$SURFU
 70
     6
  9
$SURFV
 70
     6
  9
$UCSBASE
  2

  9
$UCSNAME
  2

  9
$UCSORG
 10
0.0
 20
0.0
 30
0.0
  9
$UCSXDIR
 10
1.0
 20
0.0
 30
0.0
  9
$UCSYDIR
 10
0.0
 20
1.0
 30
0.0
  9
$UCSORTHOREF
  2

  9
$UCSORTHOVIEW
 70
     0
  9
$UCSORGTOP
 10
0.0
 20
0.0
 30
0.0
  9
$UCSORGBOTTOM
 10
0.0
 20
0.0
 30
0.0
  9
$UCSORGLEFT
 10
0.0
 20
0.0
 30
0.0
  9
$UCSORGRIGHT
 10
0.0
 20
0.0
 30
0.0
  9
$UCSORGFRONT
 10
0.0
 20
0.0
 30
0.0
  9
$UCSORGBACK
 10
0.0
 20
0.0
 30
0.0
  9
$PUCSBASE
  2

  9
$PUCSNAME
  2

  9
$PUCSORG
 10
0.0
 20
0.0
 30
0.0
  9
$PUCSXDIR
 10
1.0
 20
0.0
 30
0.0
  9
$PUCSYDIR
 10
0.0
 20
1.0
 30
0.0
  9
$PUCSORTHOREF
  2

  9
$PUCSORTHOVIEW
 70
     0
  9
$PUCSORGTOP
 10
0.0
 20
0.0
 30
0.0
  9
$PUCSORGBOTTOM
 10
0.0
 20
0.0
 30
0.0
  9
$PUCSORGLEFT
 10
0.0
 20
0.0
 30
0.0
  9
$PUCSORGRIGHT
 10
0.0
 20
0.0
 30
0.0
  9
$PUCSORGFRONT
 10
0.0
 20
0.0
 30
0.0
  9
$PUCSORGBACK
 10
0.0
 20
0.0
 30
0.0
  9
$USERI1
 70
     0
  9
$USERI2
 70
     0
  9
$USERI3
 70
     0
  9
$USERI4
 70
     0
  9
$USERI5
 70
     0
  9
$USERR1
 40
0.0
  9
$USERR2
 40
0.0
  9
$USERR3
 40
0.0
  9
$USERR4
 40
0.0
  9
$USERR5
 40
0.0
  9
$WORLDVIEW
 70
     1
  9
$SHADEDGE
 70
     3
  9
$SHADEDIF
 70
    70
  9
$TILEMODE
 70
     1
  9
$MAXACTVP
 70
    64
  9
$PINSBASE
 10
0.0
 20
0.0
 30
0.0
  9
$PLIMCHECK
 70
     0
  9
$PEXTMIN
 10
1.000000000000000E+20
 20
1.000000000000000E+20
 30
1.000000000000000E+20
  9
$PEXTMAX
 10
-1.000000000000000E+20
 20
-1.000000000000000E+20
 30
-1.000000000000000E+20
  9
$PLIMMIN
 10
0.0
 20
0.0
  9
$PLIMMAX
 10
12.0
 20
9.0
  9
$UNITMODE
 70
     0
  9
$VISRETAIN
 70
     1
  9
$PLINEGEN
 70
     0
  9
$PSLTSCALE
 70
     1
  9
$TREEDEPTH
 70
  3020
  9
$CMLSTYLE
  2
Standard
  9
$CMLJUST
 70
     0
  9
$CMLSCALE
 40
1.0
  9
$PROXYGRAPHICS
 70
     1
  9
$MEASUREMENT
 70
     0
  9
$CELWEIGHT
370
    -1
  9
$ENDCAPS
280
     0
  9
$JOINSTYLE
280
     0
  9
$LWDISPLAY
290
     1
  9
$INSUNITS
 70
     1
  9
$HYPERLINKBASE
  1

  9
$STYLESHEET
  1

  9
$XEDIT
290
     1
  9
$CEPSNTYPE
380
     0
  9
$PSTYLEMODE
290
     1
  9
$FINGERPRINTGUID
  2
{0E9920A1-DC9D-4B3E-8D2B-D89A2E2719D7}
  9
$VERSIONGUID
  2
{FAEB1C32-E019-11D5-929B-00C0DF256EC4}
  9
$EXTNAMES
290
     1
  9
$PSVPSCALE
 40
0.0
  9
$OLESTARTUP
290
     0
  9
$SORTENTS
280
   127
  9
$INDEXCTL
280
     0
  9
$HIDETEXT
280
     1
  9
$XCLIPFRAME
290
     0
  9
$HALOGAP
280
     0
  9
$OBSCOLOR
 70
   257
  9
$OBSLTYPE
280
     0
  9
$INTERSECTIONDISPLAY
280
     0
  9
$INTERSECTIONCOLOR
 70
   257
  9
$DIMASSOC
280
     2
  9
$PROJECTNAME
  1

  9
$CAMERADISPLAY
290
     0
  9
$LENSLENGTH
 40
50.0
  9
$CAMERAHEIGHT
 40
0.0
  9
$STEPSPERSEC
 40
2.0
  9
$STEPSIZE
 40
6.0
  9
$3DDWFPREC
 40
2.0
  9
$PSOLWIDTH
 40
0.25
  9
$PSOLHEIGHT
 40
4.0
  9
$LOFTANG1
 40
1.570796326794897
  9
$LOFTANG2
 40
1.570796326794897
  9
$LOFTMAG1
 40
0.0
  9
$LOFTMAG2
 40
0.0
  9
$LOFTPARAM
 70
     7
  9
$LOFTNORMALS
280
     1
  9
$LATITUDE
 40
37.795
  9
$LONGITUDE
 40
-122.394
  9
$NORTHDIRECTION
 40
0.0
  9
$TIMEZONE
 70
 -8000
  9
$LIGHTGLYPHDISPLAY
280
     1
  9
$TILEMODELIGHTSYNCH
280
     1
  9
$CMATERIAL
347
3C
  9
$SOLIDHIST
280
     1
  9
$SHOWHIST
280
     1
  9
$DWFFRAME
280
     2
  9
$DGNFRAME
280
     2
  9
$REALWORLDSCALE
290
     1
  9
$INTERFERECOLOR
 62
   256
  9
$CSHADOW
280
     0
  9
$SHADOWPLANELOCATION
 40
0.0
  0
ENDSEC
  0
SECTION
  2
CLASSES
  0
CLASS
  1
ACDBDICTIONARYWDFLT
  2
AcDbDictionaryWithDefault
  3
ObjectDBX Classes
 90
        0
 91
        4
280
     0
281
     0
  0
CLASS
  1
VISUALSTYLE
  2
AcDbVisualStyle
  3
ObjectDBX Classes
 90
     4095
 91
        4
280
     0
281
     0
  0
CLASS
  1
MATERIAL
  2
AcDbMaterial
  3
ObjectDBX Classes
 90
     1153
 91
        4
280
     0
281
     0
  0
CLASS
  1
SUN
  2
AcDbSun
  3
SCENEOE
 90
     1024
 91
        4
280
     0
281
     0
  0
ENDSEC
  0
SECTION
  2
TABLES
  0
TABLE
  2
VPORT
  5
8
330
0
100
AcDbSymbolTable
 70
     1
  0
VPORT
  5
29
330
8
100
AcDbSymbolTableRecord
100
AcDbViewportTableRecord
  2
*Active
 70
     0
 10
0.0
 20
0.0
 11
1.0
 21
1.0
 12
0.0
 22
0.0
 13
0.0
 23
0.0
 14
0.5
 24
0.5
 15
0.5
 25
0.5
 16
0.0
 26
0.0
 36
1.0
 17
39.99961911841359
 27
-39.99962012888904
 37
0.0
 40
79.99924025777808
 41
0.9999999747378738
 42
50.0
 43
0.0
 44
0.0
 50
0.0
 51
0.0
 71
     0
 72
   100
 73
     1
 74
     3
 75
     0
 76
     0
 77
     0
 78
     0
281
     0
 65
     1
110
0.0
120
0.0
130
0.0
111
1.0
121
0.0
131
0.0
112
0.0
122
1.0
132
0.0
 79
     0
146
0.0
 60
     3
 61
     5
292
     1
282
     1
141
0.0
142
0.0
 63
   250
361
3F
  0
ENDTAB
  0
TABLE
  2
LTYPE
  5
5
330
0
100
AcDbSymbolTable
 70
     1
  0
LTYPE
  5
14
330
5
100
AcDbSymbolTableRecord
100
AcDbLinetypeTableRecord
  2
ByBlock
 70
     0
  3

 72
    65
 73
     0
 40
0.0
  0
LTYPE
  5
15
330
5
100
AcDbSymbolTableRecord
100
AcDbLinetypeTableRecord
  2
ByLayer
 70
     0
  3

 72
    65
 73
     0
 40
0.0
  0
LTYPE
  5
16
330
5
100
AcDbSymbolTableRecord
100
AcDbLinetypeTableRecord
  2
Continuous
 70
     0
  3
Solid line
 72
    65
 73
     0
 40
0.0
  0
ENDTAB
  0
TABLE
  2
LAYER
  5
2
330
0
100
AcDbSymbolTable
 70
     2
  0
LAYER
  5
10
330
2
100
AcDbSymbolTableRecord
100
AcDbLayerTableRecord
  2
0
 70
     0
 62
     7
  6
Continuous
370
    -3
390
F
347
3E
  0
LAYER
  5
40
330
2
100
AcDbSymbolTableRecord
100
AcDbLayerTableRecord
  2
Layer 1
 70
     0
 62
     7
  6
Continuous
370
    -3
390
F
347
3E
  0
ENDTAB
  0
TABLE
  2
STYLE
  5
3
330
0
100
AcDbSymbolTable
 70
     1
  0
STYLE
  5
11
330
3
100
AcDbSymbolTableRecord
100
AcDbTextStyleTableRecord
  2
Standard
 70
     0
 40
0.0
 41
1.0
 50
0.0
 71
     0
 42
0.2
  3
txt
  4

  0
ENDTAB
  0
TABLE
  2
VIEW
  5
6
330
0
100
AcDbSymbolTable
 70
     0
  0
ENDTAB
  0
TABLE
  2
UCS
  5
7
330
0
100
AcDbSymbolTable
 70
     0
  0
ENDTAB
  0
TABLE
  2
APPID
  5
9
330
0
100
AcDbSymbolTable
 70
     1
  0
APPID
  5
12
330
9
100
AcDbSymbolTableRecord
100
AcDbRegAppTableRecord
  2
ACAD
 70
     0
  0
ENDTAB
  0
TABLE
  2
DIMSTYLE
  5
A
330
0
100
AcDbSymbolTable
 70
     1
100
AcDbDimStyleTable
  0
DIMSTYLE
105
27
330
A
100
AcDbSymbolTableRecord
100
AcDbDimStyleTableRecord
  2
Standard
 70
     0
178
     0
340
11
  0
ENDTAB
  0
TABLE
  2
BLOCK_RECORD
  5
1
330
0
100
AcDbSymbolTable
 70
     1
  0
BLOCK_RECORD
  5
1F
330
1
100
AcDbSymbolTableRecord
100
AcDbBlockTableRecord
  2
*Model_Space
340
22
 70
     0
280
     1
281
     0
  0
BLOCK_RECORD
  5
1B
330
1
100
AcDbSymbolTableRecord
100
AcDbBlockTableRecord
  2
*Paper_Space
340
1E
 70
     0
280
     1
281
     0
  0
BLOCK_RECORD
  5
23
330
1
100
AcDbSymbolTableRecord
100
AcDbBlockTableRecord
  2
*Paper_Space0
340
26
 70
     0
280
     1
281
     0
  0
ENDTAB
  0
ENDSEC
  0
SECTION
  2
BLOCKS
  0
BLOCK
  5
20
330
1F
100
AcDbEntity
  8
0
100
AcDbBlockBegin
  2
*Model_Space
 70
     0
 10
0.0
 20
0.0
 30
0.0
  3
*Model_Space
  1

  0
ENDBLK
  5
21
330
1F
100
AcDbEntity
  8
0
100
AcDbBlockEnd
  0
BLOCK
  5
1C
330
1B
100
AcDbEntity
 67
     1
  8
0
100
AcDbBlockBegin
  2
*Paper_Space
 70
     0
 10
0.0
 20
0.0
 30
0.0
  3
*Paper_Space
  1

  0
ENDBLK
  5
1D
330
1B
100
AcDbEntity
 67
     1
  8
0
100
AcDbBlockEnd
  0
BLOCK
  5
24
330
23
100
AcDbEntity
  8
0
100
AcDbBlockBegin
  2
*Paper_Space0
 70
     0
 10
0.0
 20
0.0
 30
0.0
  3
*Paper_Space0
  1

  0
ENDBLK
  5
25
330
23
100
AcDbEntity
  8
0
100
AcDbBlockEnd
  0
ENDSEC
  0
SECTION
  2
ENTITIES
  0
SPLINE
  5
41
330
1F
100
AcDbEntity
  8
Layer 1
370
     0
100
AcDbSpline
210
0.0
220
0.0
230
1.0
 70
    11
 71
     3
 72
   782
 73
   778
 74
     0
 42
0.0000000001
 43
0.0000000001
 12
1.0
 22
0.0
 32
0.0
 13
1.0
 23
0.0
 33
0.0
 40
0.0
 40
0.0
 40
0.0
 40
0.0
 40
1.0
 40
1.0
 40
1.0
 40
2.0
 40
2.0
 40
2.0
 40
3.0
 40
3.0
 40
3.0
 40
4.0
 40
4.0
 40
4.0
 40
5.0
 40
5.0
 40
5.0
 40
6.0
 40
6.0
 40
6.0
 40
7.0
 40
7.0
 40
7.0
 40
8.0
 40
8.0
 40
8.0
 40
9.0
 40
9.0
 40
9.0
 40
10.0
 40
10.0
 40
10.0
 40
11.0
 40
11.0
 40
11.0
 40
12.0
 40
12.0
 40
12.0
 40
13.0
 40
13.0
 40
13.0
 40
14.0
 40
14.0
 40
14.0
 40
15.0
 40
15.0
 40
15.0
 40
16.0
 40
16.0
 40
16.0
 40
17.0
 40
17.0
 40
17.0
 40
18.0
 40
18.0
 40
18.0
 40
19.0
 40
19.0
 40
19.0
 40
20.0
 40
20.0
 40
20.0
 40
21.0
 40
21.0
 40
21.0
 40
22.0
 40
22.0
 40
22.0
 40
23.0
 40
23.0
 40
23.0
 40
24.0
 40
24.0
 40
24.0
 40
25.0
 40
25.0
 40
25.0
 40
26.0
 40
26.0
 40
26.0
 40
27.0
 40
27.0
 40
27.0
 40
28.0
 40
28.0
 40
28.0
 40
29.0
 40
29.0
 40
29.0
 40
30.0
 40
30.0
 40
30.0
 40
31.0
 40
31.0
 40
31.0
 40
32.0
 40
32.0
 40
32.0
 40
33.0
 40
33.0
 40
33.0
 40
34.0
 40
34.0
 40
34.0
 40
35.0
 40
35.0
 40
35.0
 40
36.0
 40
36.0
 40
36.0
 40
37.0
 40
37.0
 40
37.0
 40
38.0
 40
38.0
 40
38.0
 40
39.0
 40
39.0
 40
39.0
 40
40.0
 40
40.0
 40
40.0
 40
41.0
 40
41.0
 40
41.0
 40
42.0
 40
42.0
 40
42.0
 40
43.0
 40
43.0
 40
43.0
 40
44.0
 40
44.0
 40
44.0
 40
45.0
 40
45.0
 40
45.0
 40
46.0
 40
46.0
 40
46.0
 40
47.0
 40
47.0
 40
47.0
 40
48.0
 40
48.0
 40
48.0
 40
49.0
 40
49.0
 40
49.0
 40
50.0
 40
50.0
 40
50.0
 40
51.0
 40
51.0
 40
51.0
 40
52.0
 40
52.0
 40
52.0
 40
53.0
 40
53.0
 40
53.0
 40
54.0
 40
54.0
 40
54.0
 40
55.0
 40
55.0
 40
55.0
 40
56.0
 40
56.0
 40
56.0
 40
57.0
 40
57.0
 40
57.0
 40
58.0
 40
58.0
 40
58.0
 40
59.0
 40
59.0
 40
59.0
 40
60.0
 40
60.0
 40
60.0
 40
61.0
 40
61.0
 40
61.0
 40
62.0
 40
62.0
 40
62.0
 40
63.0
 40
63.0
 40
63.0
 40
64.0
 40
64.0
 40
64.0
 40
65.0
 40
65.0
 40
65.0
 40
66.0
 40
66.0
 40
66.0
 40
67.0
 40
67.0
 40
67.0
 40
68.0
 40
68.0
 40
68.0
 40
69.0
 40
69.0
 40
69.0
 40
70.0
 40
70.0
 40
70.0
 40
71.0
 40
71.0
 40
71.0
 40
72.0
 40
72.0
 40
72.0
 40
73.0
 40
73.0
 40
73.0
 40
74.0
 40
74.0
 40
74.0
 40
75.0
 40
75.0
 40
75.0
 40
76.0
 40
76.0
 40
76.0
 40
77.0
 40
77.0
 40
77.0
 40
78.0
 40
78.0
 40
78.0
 40
79.0
 40
79.0
 40
79.0
 40
80.0
 40
80.0
 40
80.0
 40
81.0
 40
81.0
 40
81.0
 40
82.0
 40
82.0
 40
82.0
 40
83.0
 40
83.0
 40
83.0
 40
84.0
 40
84.0
 40
84.0
 40
85.0
 40
85.0
 40
85.0
 40
86.0
 40
86.0
 40
86.0
 40
87.0
 40
87.0
 40
87.0
 40
88.0
 40
88.0
 40
88.0
 40
89.0
 40
89.0
 40
89.0
 40
90.0
 40
90.0
 40
90.0
 40
91.0
 40
91.0
 40
91.0
 40
92.0
 40
92.0
 40
92.0
 40
93.0
 40
93.0
 40
93.0
 40
94.0
 40
94.0
 40
94.0
 40
95.0
 40
95.0
 40
95.0
 40
96.0
 40
96.0
 40
96.0
 40
97.0
 40
97.0
 40
97.0
 40
98.0
 40
98.0
 40
98.0
 40
99.0
 40
99.0
 40
99.0
 40
100.0
 40
100.0
 40
100.0
 40
101.0
 40
101.0
 40
101.0
 40
102.0
 40
102.0
 40
102.0
 40
103.0
 40
103.0
 40
103.0
 40
104.0
 40
104.0
 40
104.0
 40
105.0
 40
105.0
 40
105.0
 40
106.0
 40
106.0
 40
106.0
 40
107.0
 40
107.0
 40
107.0
 40
108.0
 40
108.0
 40
108.0
 40
109.0
 40
109.0
 40
109.0
 40
110.0
 40
110.0
 40
110.0
 40
111.0
 40
111.0
 40
111.0
 40
112.0
 40
112.0
 40
112.0
 40
113.0
 40
113.0
 40
113.0
 40
114.0
 40
114.0
 40
114.0
 40
115.0
 40
115.0
 40
115.0
 40
116.0
 40
116.0
 40
116.0
 40
117.0
 40
117.0
 40
117.0
 40
118.0
 40
118.0
 40
118.0
 40
119.0
 40
119.0
 40
119.0
 40
120.0
 40
120.0
 40
120.0
 40
121.0
 40
121.0
 40
121.0
 40
122.0
 40
122.0
 40
122.0
 40
123.0
 40
123.0
 40
123.0
 40
124.0
 40
124.0
 40
124.0
 40
125.0
 40
125.0
 40
125.0
 40
126.0
 40
126.0
 40
126.0
 40
127.0
 40
127.0
 40
127.0
 40
128.0
 40
128.0
 40
128.0
 40
129.0
 40
129.0
 40
129.0
 40
130.0
 40
130.0
 40
130.0
 40
131.0
 40
131.0
 40
131.0
 40
132.0
 40
132.0
 40
132.0
 40
133.0
 40
133.0
 40
133.0
 40
134.0
 40
134.0
 40
134.0
 40
135.0
 40
135.0
 40
135.0
 40
136.0
 40
136.0
 40
136.0
 40
137.0
 40
137.0
 40
137.0
 40
138.0
 40
138.0
 40
138.0
 40
139.0
 40
139.0
 40
139.0
 40
140.0
 40
140.0
 40
140.0
 40
141.0
 40
141.0
 40
141.0
 40
142.0
 40
142.0
 40
142.0
 40
143.0
 40
143.0
 40
143.0
 40
144.0
 40
144.0
 40
144.0
 40
145.0
 40
145.0
 40
145.0
 40
146.0
 40
146.0
 40
146.0
 40
147.0
 40
147.0
 40
147.0
 40
148.0
 40
148.0
 40
148.0
 40
149.0
 40
149.0
 40
149.0
 40
150.0
 40
150.0
 40
150.0
 40
151.0
 40
151.0
 40
151.0
 40
152.0
 40
152.0
 40
152.0
 40
153.0
 40
153.0
 40
153.0
 40
154.0
 40
154.0
 40
154.0
 40
155.0
 40
155.0
 40
155.0
 40
156.0
 40
156.0
 40
156.0
 40
157.0
 40
157.0
 40
157.0
 40
158.0
 40
158.0
 40
158.0
 40
159.0
 40
159.0
 40
159.0
 40
160.0
 40
160.0
 40
160.0
 40
161.0
 40
161.0
 40
161.0
 40
162.0
 40
162.0
 40
162.0
 40
163.0
 40
163.0
 40
163.0
 40
164.0
 40
164.0
 40
164.0
 40
165.0
 40
165.0
 40
165.0
 40
166.0
 40
166.0
 40
166.0
 40
167.0
 40
167.0
 40
167.0
 40
168.0
 40
168.0
 40
168.0
 40
169.0
 40
169.0
 40
169.0
 40
170.0
 40
170.0
 40
170.0
 40
171.0
 40
171.0
 40
171.0
 40
172.0
 40
172.0
 40
172.0
 40
173.0
 40
173.0
 40
173.0
 40
174.0
 40
174.0
 40
174.0
 40
175.0
 40
175.0
 40
175.0
 40
176.0
 40
176.0
 40
176.0
 40
177.0
 40
177.0
 40
177.0
 40
178.0
 40
178.0
 40
178.0
 40
179.0
 40
179.0
 40
179.0
 40
180.0
 40
180.0
 40
180.0
 40
181.0
 40
181.0
 40
181.0
 40
182.0
 40
182.0
 40
182.0
 40
183.0
 40
183.0
 40
183.0
 40
184.0
 40
184.0
 40
184.0
 40
185.0
 40
185.0
 40
185.0
 40
186.0
 40
186.0
 40
186.0
 40
187.0
 40
187.0
 40
187.0
 40
188.0
 40
188.0
 40
188.0
 40
189.0
 40
189.0
 40
189.0
 40
190.0
 40
190.0
 40
190.0
 40
191.0
 40
191.0
 40
191.0
 40
192.0
 40
192.0
 40
192.0
 40
193.0
 40
193.0
 40
193.0
 40
194.0
 40
194.0
 40
194.0
 40
195.0
 40
195.0
 40
195.0
 40
196.0
 40
196.0
 40
196.0
 40
197.0
 40
197.0
 40
197.0
 40
198.0
 40
198.0
 40
198.0
 40
199.0
 40
199.0
 40
199.0
 40
200.0
 40
200.0
 40
200.0
 40
201.0
 40
201.0
 40
201.0
 40
202.0
 40
202.0
 40
202.0
 40
203.0
 40
203.0
 40
203.0
 40
204.0
 40
204.0
 40
204.0
 40
205.0
 40
205.0
 40
205.0
 40
206.0
 40
206.0
 40
206.0
 40
207.0
 40
207.0
 40
207.0
 40
208.0
 40
208.0
 40
208.0
 40
209.0
 40
209.0
 40
209.0
 40
210.0
 40
210.0
 40
210.0
 40
211.0
 40
211.0
 40
211.0
 40
212.0
 40
212.0
 40
212.0
 40
213.0
 40
213.0
 40
213.0
 40
214.0
 40
214.0
 40
214.0
 40
215.0
 40
215.0
 40
215.0
 40
216.0
 40
216.0
 40
216.0
 40
217.0
 40
217.0
 40
217.0
 40
218.0
 40
218.0
 40
218.0
 40
219.0
 40
219.0
 40
219.0
 40
220.0
 40
220.0
 40
220.0
 40
221.0
 40
221.0
 40
221.0
 40
222.0
 40
222.0
 40
222.0
 40
223.0
 40
223.0
 40
223.0
 40
224.0
 40
224.0
 40
224.0
 40
225.0
 40
225.0
 40
225.0
 40
226.0
 40
226.0
 40
226.0
 40
227.0
 40
227.0
 40
227.0
 40
228.0
 40
228.0
 40
228.0
 40
229.0
 40
229.0
 40
229.0
 40
230.0
 40
230.0
 40
230.0
 40
231.0
 40
231.0
 40
231.0
 40
232.0
 40
232.0
 40
232.0
 40
233.0
 40
233.0
 40
233.0
 40
234.0
 40
234.0
 40
234.0
 40
235.0
 40
235.0
 40
235.0
 40
236.0
 40
236.0
 40
236.0
 40
237.0
 40
237.0
 40
237.0
 40
238.0
 40
238.0
 40
238.0
 40
239.0
 40
239.0
 40
239.0
 40
240.0
 40
240.0
 40
240.0
 40
241.0
 40
241.0
 40
241.0
 40
242.0
 40
242.0
 40
242.0
 40
243.0
 40
243.0
 40
243.0
 40
244.0
 40
244.0
 40
244.0
 40
245.0
 40
245.0
 40
245.0
 40
246.0
 40
246.0
 40
246.0
 40
247.0
 40
247.0
 40
247.0
 40
248.0
 40
248.0
 40
248.0
 40
249.0
 40
249.0
 40
249.0
 40
250.0
 40
250.0
 40
250.0
 40
251.0
 40
251.0
 40
251.0
 40
252.0
 40
252.0
 40
252.0
 40
253.0
 40
253.0
 40
253.0
 40
254.0
 40
254.0
 40
254.0
 40
255.0
 40
255.0
 40
255.0
 40
256.0
 40
256.0
 40
256.0
 40
257.0
 40
257.0
 40
257.0
 40
258.0
 40
258.0
 40
258.0
 40
259.0
 40
259.0
 40
259.0
 40
259.0
 10
68.37619853335562
 20
-28.8631841594508
 30
0.0
 10
68.22496270388064
 20
-29.06490249273392
 30
0.0
 10
68.01481298701978
 20
-29.20043971492209
 30
0.0
 10
67.81602271431356
 20
-29.34705415932997
 30
0.0
 10
67.47562744522
 20
-29.59854943704472
 30
0.0
 10
67.2296707848282
 20
-29.90461943696837
 30
0.0
 10
67.13664328720154
 20
-30.33303277019455
 30
0.0
 10
67.06912162225748
 20
-30.64464138122758
 30
0.0
 10
66.92441387215791
 20
-30.92936832560084
 30
0.0
 10
66.6946480207
 20
-31.1622722144316
 30
0.0
 10
66.49035441480085
 20
-31.36914110326882
 30
0.0
 10
66.25057136536267
 20
-31.41598999214611
 30
0.0
 10
65.98048470558649
 20
-31.31834110328144
 30
0.0
 10
65.56773471611662
 20
-31.16915138109666
 30
0.0
 10
65.3686269434185
 20
-31.24909082552111
 30
0.0
 10
65.18119611486692
 20
-31.65093999208711
 30
0.0
 10
65.11575583875867
 20
-31.79116915871873
 30
0.0
 10
65.0568419513728
 20
-31.93690165868253
 30
0.0
 10
65.01274473027559
 20
-32.08573860308955
 30
0.0
 10
64.91798862158191
 20
-32.40870665856438
 30
0.0
 10
64.6947508494994
 20
-32.59578471407329
 30
0.0
 10
64.39157363501188
 20
-32.70705082515673
 30
0.0
 10
64.15595336324527
 20
-32.79316388069072
 30
0.0
 10
63.90756253624892
 20
-32.8105558251307
 30
0.0
 10
63.66365198691604
 20
-32.84932610289892
 30
0.0
 10
63.53340643468332
 20
-32.86964610289355
 30
0.0
 10
63.42214032641085
 20
-32.91702415843748
 30
0.0
 10
63.32325831750245
 20
-33.00331360286035
 30
0.0
 10
62.78893950923181
 20
-33.46788665829969
 30
0.0
 10
62.16607508067796
 20
-33.39743693609504
 30
0.0
 10
61.76778897972797
 20
-32.8100619362419
 30
0.0
 10
61.65274814932958
 20
-32.64019943628441
 30
0.0
 10
61.53146315242382
 20
-32.61885638073434
 30
0.0
 10
61.35990732346723
 20
-32.66810415849963
 30
0.0
 10
61.10220316337515
 20
-32.74254026959222
 30
0.0
 10
60.92891872335156
 20
-32.89617499177589
 30
0.0
 10
60.8555409474458
 20
-33.16231054726484
 30
0.0
 10
60.78389178260706
 20
-33.42449499164402
 30
0.0
 10
60.74427483917333
 20
-33.69285304713242
 30
0.0
 10
60.70497539573149
 20
-33.95987054706546
 30
0.0
 10
60.59751928736182
 20
-34.68796860243902
 30
0.0
 10
59.53883320326004
 20
-35.27276832451528
 30
0.0
 10
58.88114960892784
 20
-35.06678138012214
 30
0.0
 10
58.73749998531563
 20
-35.0214494356891
 30
0.0
 10
58.59624628286299
 20
-34.9708258245906
 30
0.0
 10
58.49496378544693
 20
-34.85024638017624
 30
0.0
 10
58.09121109658819
 20
-34.37156221362933
 30
0.0
 10
57.59545103061763
 20
-34.26181304699013
 30
0.0
 10
57.01700276352339
 20
-34.4803941580466
 30
0.0
 10
56.94743354714993
 20
-34.50678193581789
 30
0.0
 10
56.87578438231119
 20
-34.52794860247909
 30
0.0
 10
56.78688438457922
 20
-34.55740554691607
 30
0.0
 10
56.94983243597762
 20
-34.72190582465274
 30
0.0
 10
57.13415882016395
 20
-34.83698193573524
 30
0.0
 10
57.30642020465809
 20
-34.96616915792498
 30
0.0
 10
58.4308993426369
 20
-35.81195387993576
 30
0.0
 10
59.56500931370334
 20
-36.64461526861659
 30
0.0
 10
60.5861245654303
 20
-37.61715304615127
 30
0.0
 10
60.77009817184786
 20
-37.79202499055214
 30
0.0
 10
60.94200831809776
 20
-37.97804471272777
 30
0.0
 10
61.1070362188074
 20
-38.17129637934622
 30
0.0
 10
61.32614649099521
 20
-38.42727193483769
 30
0.0
 10
61.39229232264103
 20
-38.72960249031766
 30
0.0
 10
61.41571676648786
 20
-39.05119471245929
 30
0.0
 10
61.45603926545915
 20
-39.60413860121023
 30
0.0
 10
61.43155648830598
 20
-40.14431193440832
 30
0.0
 10
61.17247649491566
 20
-40.65315860094807
 30
0.0
 10
61.05189705354746
 20
-40.88916693422235
 30
0.0
 10
60.88242261342666
 20
-41.06209860084585
 30
0.0
 10
60.64503845281617
 20
-41.17992637859379
 30
0.0
 10
59.29492265392716
 20
-41.84688804509394
 30
0.0
 10
57.90102713393284
 20
-42.41052110050868
 30
0.0
 10
56.49679522531334
 20
-42.95034165592901
 30
0.0
 10
55.41023969747813
 20
-43.36891248915763
 30
0.0
 10
54.31983889196324
 20
-43.78028665572158
 30
0.0
 10
53.19641943114522
 20
-44.08826165564444
 30
0.0
 10
50.7166373172219
 20
-44.76764109991936
 30
0.0
 10
48.27061737962507
 20
-45.55451193305586
 30
0.0
 10
45.82114021989421
 20
-46.33238693286136
 30
0.0
 10
44.22263359400885
 20
-46.83950498829014
 30
0.0
 10
42.62617307918239
 20
-47.35283193260598
 30
0.0
 10
41.04209506404003
 20
-47.90337693246859
 30
0.0
 10
40.87329090167992
 20
-47.9619380435648
 30
0.0
 10
40.70413396155103
 20
-48.01979359910612
 30
0.0
 10
40.53843424355616
 20
-48.08664498797845
 30
0.0
 10
40.19271203015404
 20
-48.2251455434991
 30
0.0
 10
39.9339848145325
 20
-48.45734387677433
 30
0.0
 10
39.77431759638373
 20
-48.79907971002267
 30
0.0
 10
39.32904149663256
 20
-49.75129748756208
 30
0.0
 10
38.83448332362483
 20
-50.66978970955481
 30
0.0
 10
38.15478541547922
 20
-51.48625859823934
 30
0.0
 10
37.7465166572299
 20
-51.97651387589445
 30
0.0
 10
37.53844737564776
 20
-52.5914408201857
 30
0.0
 10
37.31108210367055
 20
-53.18297859781534
 30
0.0
 10
36.51560351285379
 20
-55.25173804174258
 30
0.0
 10
35.92304269463794
 20
-57.38427970787614
 30
0.0
 10
35.34702715377777
 20
-59.52091359623083
 30
0.0
 10
34.69022638021631
 20
-61.95797304006596
 30
0.0
 10
34.10662610258438
 20
-64.41295359500803
 30
0.0
 10
33.56969832494086
 20
-66.87894081661382
 30
0.0
 10
33.40812610275916
 20
-67.62171442753912
 30
0.0
 10
33.2975302694534
 20
-68.37620026068366
 30
0.0
 10
33.11803693616508
 20
-69.11445831605504
 30
0.0
 10
32.87913582511366
 20
-70.09839081580904
 30
0.0
 10
32.40955332523095
 20
-70.98689692669781
 30
0.0
 10
31.87590638091983
 20
-71.84058387092847
 30
0.0
 10
31.22203276997213
 20
-72.8858291484451
 30
0.0
 10
30.46412499238382
 20
-73.84905359264886
 30
0.0
 10
29.56150777038746
 20
-74.69346248132645
 30
0.0
 10
29.19786443714488
 20
-75.03350498124166
 30
0.0
 10
28.81012638168646
 20
-75.34010414783164
 30
0.0
 10
28.34625888180231
 20
-75.53646025889363
 30
0.0
 10
28.2306536040535
 20
-75.53646025889363
 30
0.0
 10
28.11575388185989
 20
-75.53646025889363
 30
0.0
 10
28.00036027077779
 20
-75.53646025889363
 30
0.0
 10
27.76678610416936
 20
-75.35319220338377
 30
0.0
 10
27.63569388198009
 20
-75.10652998122353
 30
0.0
 10
27.57815582643868
 20
-74.82229692573875
 30
0.0
 10
27.47048804868789
 20
-74.29245998142702
 30
0.0
 10
27.57903777088308
 20
-73.79049248155266
 30
0.0
 10
27.80760249304814
 20
-73.31092637056102
 30
0.0
 10
28.07892388186903
 20
-72.74457692625803
 30
0.0
 10
28.35260888180073
 20
-72.17889775973305
 30
0.0
 10
28.63737110395184
 20
-71.61872192653959
 30
0.0
 10
28.84579221501082
 20
-71.20942914886405
 30
0.0
 10
28.90315388166303
 20
-70.80154748229955
 30
0.0
 10
28.76363027058693
 20
-70.3516147046341
 30
0.0
 10
28.60308110396035
 20
-69.83483053809697
 30
0.0
 10
28.47819777065815
 20
-69.30636942711811
 30
0.0
 10
28.39084999290231
 20
-68.77169942725156
 30
0.0
 10
28.31990638180886
 20
-68.33690081624913
 30
0.0
 10
28.38760443734742
 20
-67.93522803857168
 30
0.0
 10
28.6781874928303
 20
-67.58484914977075
 30
0.0
 10
28.93793777054331
 20
-67.27101803873795
 30
0.0
 10
29.27487582601468
 20
-67.06393748323433
 30
0.0
 10
29.62317332592752
 20
-66.86966276106011
 30
0.0
 10
29.87054110364361
 20
-66.73151498331721
 30
0.0
 10
30.11289943691632
 20
-66.58680553890886
 30
0.0
 10
30.31511165908792
 20
-66.38491081673718
 30
0.0
 10
30.76659665897514
 20
-65.93293192796148
 30
0.0
 10
31.04409165890557
 20
-65.38171665032151
 30
0.0
 10
31.23875443663475
 20
-64.78227665047103
 30
0.0
 10
31.53346499211661
 20
-63.87412081736466
 30
0.0
 10
31.61823749209555
 20
-62.93294498426649
 30
0.0
 10
31.65231582542031
 20
-61.98760637339215
 30
0.0
 10
31.69556638096495
 20
-60.78802081813633
 30
0.0
 10
31.6376755476461
 20
-59.5898110962134
 30
0.0
 10
31.58017276988285
 20
-58.39230692984663
 30
0.0
 10
31.52503360322978
 20
-57.24644943013285
 30
0.0
 10
31.46784832546645
 20
-56.10129748597458
 30
0.0
 10
31.55724221433285
 20
-54.95547526403897
 30
0.0
 10
31.60670165876487
 20
-54.31881720864236
 30
0.0
 10
31.74915332539594
 20
-53.71281554212707
 30
0.0
 10
32.10122554753032
 20
-53.15644970893332
 30
0.0
 10
32.75820360292155
 20
-52.11808359808176
 30
0.0
 10
33.34991776944039
 20
-51.04151165390647
 30
0.0
 10
33.84772249153794
 20
-49.91667970974316
 30
0.0
 10
33.98516471372594
 20
-49.60627054315412
 30
0.0
 10
34.11230582480512
 20
-49.29106359878844
 30
0.0
 10
34.16208276923738
 20
-48.94964526554033
 30
0.0
 10
34.18085054701024
 20
-48.81975248779475
 30
0.0
 10
34.14659582479661
 20
-48.76464859891983
 30
0.0
 10
34.01292832483013
 20
-48.76912887669689
 30
0.0
 10
33.88046026930765
 20
-48.77360915447331
 30
0.0
 10
33.74711026934109
 20
-48.77463221002843
 30
0.0
 10
33.61517138048494
 20
-48.76531887669783
 30
0.0
 10
33.19712971392296
 20
-48.73568554337165
 30
0.0
 10
32.79111776958015
 20
-48.6592033211685
 30
0.0
 10
32.4359058252244
 20
-48.41737415456243
 30
0.0
 10
31.99098249200232
 20
-48.11490248797111
 30
0.0
 10
31.95238860312299
 20
-47.73316165473334
 30
0.0
 10
32.32601554747416
 20
-47.34630554371867
 30
0.0
 10
32.55719082519395
 20
-47.10687526600126
 30
0.0
 10
32.8386369362348
 20
-46.93665998826601
 30
0.0
 10
33.12632721394055
 20
-46.77681637719463
 30
0.0
 10
33.82842554709843
 20
-46.38682054395892
 30
0.0
 10
34.57878388024431
 20
-46.10156443291902
 30
0.0
 10
35.31224326577629
 20
-45.78050137744403
 30
0.0
 10
35.53632770450386
 20
-45.68264082191263
 30
0.0
 10
35.66293964571817
 20
-45.54622165528039
 30
0.0
 10
35.71342214443025
 20
-45.2937033220102
 30
0.0
 10
35.91873880585885
 20
-44.26602637782212
 30
0.0
 10
36.11925768963208
 20
-43.23732637807956
 30
0.0
 10
36.30718332425642
 20
-42.20587471167058
 30
0.0
 10
36.51405129067116
 20
-41.06693165640003
 30
0.0
 10
36.7286812851955
 20
-39.92918804557315
 30
0.0
 10
36.94038322423898
 20
-38.79091526807996
 30
0.0
 10
36.98603266751881
 20
-38.54527610147483
 30
0.0
 10
36.92609572460348
 20
-38.33960665708162
 30
0.0
 10
36.7347137850416
 20
-38.16752165712468
 30
0.0
 10
36.47683323606512
 20
-37.93514693496057
 30
0.0
 10
36.46219295866085
 20
-37.93204249051704
 30
0.0
 10
36.25754657499292
 20
-38.21556999044598
 30
0.0
 10
36.22706657577054
 20
-38.25797387932437
 30
0.0
 10
36.19898546537583
 20
-38.30136554598036
 30
0.0
 10
36.16797629950027
 20
-38.34338137930315
 30
0.0
 10
35.97747630436034
 20
-38.60263776812704
 30
0.0
 10
35.73906908822039
 20
-38.79849999030022
 30
0.0
 10
35.41507798537498
 20
-38.85688471250787
 30
0.0
 10
34.5641436024701
 20
-39.01055471246971
 30
0.0
 10
34.31331860253272
 20
-38.85603804584163
 30
0.0
 10
34.0616469359291
 20
-38.38765499040323
 30
0.0
 10
33.85717693598021
 20
-38.00803082383139
 30
0.0
 10
33.55869165827714
 20
-37.82268137943313
 30
0.0
 10
33.11599082505419
 20
-37.87037693497698
 30
0.0
 10
32.88739082511162
 20
-37.89517721274835
 30
0.0
 10
32.65519249183606
 20
-37.87556276830892
 30
0.0
 10
32.43488276966895
 20
-37.7887441572194
 30
0.0
 10
32.06263165865098
 20
-37.64212971281184
 30
0.0
 10
31.8995072142472
 20
-37.33500137955522
 30
0.0
 10
31.99355776977954
 20
-36.94606387965247
 30
0.0
 10
32.01373665866313
 20
-36.86199693522905
 30
0.0
 10
32.04284082532267
 20
-36.78036415747147
 30
0.0
 10
32.06263165865098
 20
-36.69629721304806
 30
0.0
 10
32.07265054753741
 20
-36.65357582417006
 30
0.0
 10
32.10415360308497
 20
-36.60207026862716
 30
0.0
 10
32.06263165865098
 20
-36.56622804641391
 30
0.0
 10
32.0183580475509
 20
-36.52869249086785
 30
0.0
 10
31.96223110312054
 20
-36.54954165752913
 30
0.0
 10
31.91520582535469
 20
-36.57056721307961
 30
0.0
 10
31.78566582538687
 20
-36.62775249084293
 30
0.0
 10
31.72107221429184
 20
-36.74780276859096
 30
0.0
 10
31.65062249208751
 20
-36.85959804634072
 30
0.0
 10
31.56105221433191
 20
-37.00120304630523
 30
0.0
 10
31.4816419365741
 20
-37.15656637959987
 30
0.0
 10
31.33298138105565
 20
-37.24112721291208
 30
0.0
 10
30.91610388115983
 20
-37.47833499063037
 30
0.0
 10
30.45396499238666
 20
-37.56875193505222
 30
0.0
 10
29.98540554805906
 20
-37.5348147128385
 30
0.0
 10
29.60835665926443
 20
-37.50779193506736
 30
0.0
 10
29.27092471490458
 20
-37.32036110178101
 30
0.0
 10
28.95878693720491
 20
-37.10573110183464
 30
0.0
 10
28.67077915949891
 20
-36.90746999077313
 30
0.0
 10
28.47766860399182
 20
-36.67012110194348
 30
0.0
 10
28.63546610395231
 20
-36.29391887981541
 30
0.0
 10
28.63768860395176
 20
-36.2885566575946
 30
0.0
 10
28.63839415950696
 20
-36.28270054648497
 30
0.0
 10
28.63959360395128
 20
-36.27684443537535
 30
0.0
 10
28.68076277060751
 20
-36.01469526877401
 30
0.0
 10
28.54984693730712
 20
-35.88670749102828
 30
0.0
 10
28.2928483262602
 20
-35.9492197132349
 30
0.0
 10
28.11938749297006
 20
-35.99141193544657
 30
0.0
 10
27.95125360412322
 20
-36.05325387987551
 30
0.0
 10
27.77902749305524
 20
-36.10116110208576
 30
0.0
 10
27.32270943761385
 20
-36.22861971316518
 30
0.0
 10
27.09876610433657
 20
-36.08616804653411
 30
0.0
 10
27.01868554880076
 20
-35.62159499109445
 30
0.0
 10
26.95201054881764
 20
-35.23470360230258
 30
0.0
 10
26.93874610437631
 20
-35.22076888008357
 30
0.0
 10
26.55016138225132
 20
-35.13860693565967
 30
0.0
 10
26.13811693791001
 20
-35.05090638012608
 30
0.0
 10
26.00339110461024
 20
-34.8946963801652
 30
0.0
 10
25.98342388239305
 20
-34.4803941580466
 30
0.0
 10
25.95498999351119
 20
-33.89164332486057
 30
0.0
 10
25.94535916018036
 20
-33.88215360264046
 30
0.0
 10
25.37417666032319
 20
-33.71352582490481
 30
0.0
 10
25.08648638261712
 20
-33.62861221381515
 30
0.0
 10
24.79936054935585
 20
-33.53886554717099
 30
0.0
 10
24.55509721608329
 20
-33.35506832499449
 30
0.0
 10
24.34597054946911
 20
-33.19712971392296
 30
0.0
 10
24.23488082727455
 20
-32.99093110286343
 30
0.0
 10
24.28190610504072
 20
-32.72479554737447
 30
0.0
 10
24.3118569383665
 20
-32.55599138074995
 30
0.0
 10
24.24158360505073
 20
-32.45746054744119
 30
0.0
 10
24.09242916064348
 20
-32.40613138078749
 30
0.0
 10
23.92877554957337
 20
-32.34943999191265
 30
0.0
 10
23.76081804961541
 20
-32.3070713808121
 30
0.0
 10
23.59822277187827
 20
-32.24935693638213
 30
0.0
 10
23.25818027196337
 20
-32.12913026974554
 30
0.0
 10
23.11177749422221
 20
-31.83561915870769
 30
0.0
 10
23.21461221641849
 20
-31.49264860323782
 30
0.0
 10
23.24784388307701
 20
-31.38240554770983
 30
0.0
 10
23.28866027195548
 20
-31.27371471440392
 30
0.0
 10
23.31296666083837
 20
-31.1615666588764
 30
0.0
 10
23.37498499415619
 20
-30.87648693672537
 30
0.0
 10
23.31226110528317
 20
-30.76126971453184
 30
0.0
 10
23.03236721646408
 20
-30.66238610344565
 30
0.0
 10
22.88610554983396
 20
-30.61088054790274
 30
0.0
 10
22.73211804987253
 20
-30.58159999235464
 30
0.0
 10
22.58310471657631
 20
-30.53767915903232
 30
0.0
 10
22.45151860549824
 20
-30.49908527015298
 30
0.0
 10
22.32525943886315
 20
-30.4367141590574
 30
0.0
 10
22.28874693887222
 20
-30.29581471464842
 30
0.0
 10
22.23360777221946
 20
-30.08517110358998
 30
0.0
 10
22.15867777223807
 20
-29.86673110364456
 30
0.0
 10
22.16901416112443
 20
-29.65520554814172
 30
0.0
 10
22.18330166112088
 20
-29.35788443710481
 30
0.0
 10
22.09510721669849
 20
-29.13260054827249
 30
0.0
 10
21.89444721674865
 20
-28.92484971499086
 30
0.0
 10
21.73425082789984
 20
-28.75897360392131
 30
0.0
 10
21.75439443900591
 20
-28.59824804840585
 30
0.0
 10
21.92665582785172
 20
-28.44616554844395
 30
0.0
 10
22.06808443892735
 20
-28.32195249291943
 30
0.0
 10
22.23826443888476
 20
-28.24599943738291
 30
0.0
 10
22.41380666106331
 20
-28.1912130485076
 30
0.0
 10
22.58141138324351
 20
-28.13903721518733
 30
0.0
 10
22.65701166100226
 20
-28.03514415965776
 30
0.0
 10
22.67630860544209
 20
-27.86891527081044
 30
0.0
 10
22.70043860543609
 20
-27.66342221530643
 30
0.0
 10
22.73038943876188
 20
-27.45845832646873
 30
0.0
 10
22.76277443875384
 20
-27.25381193763096
 30
0.0
 10
22.78397638319287
 20
-27.11876860433128
 30
0.0
 10
22.85700138317473
 20
-27.07294277100943
 30
0.0
 10
23.00393332758222
 20
-27.07999832656338
 30
0.0
 10
24.01421832732968
 20
-27.12755277099587
 30
0.0
 10
25.00432443819322
 20
-26.99748360436172
 30
0.0
 10
25.9751688823951
 20
-26.7172369377652
 30
0.0
 10
26.80024554885534
 20
-26.47882971560259
 30
0.0
 10
27.5953713819901
 20
-26.14690110457428
 30
0.0
 10
28.43512360400239
 20
-25.95622471573303
 30
0.0
 10
29.11210415938865
 20
-25.80237832688264
 30
0.0
 10
29.77476193700063
 20
-25.7353858268996
 30
0.0
 10
30.45516443683066
 20
-25.99531249350117
 30
0.0
 10
31.08646027000612
 20
-26.23664777121876
 30
0.0
 10
31.75807860317157
 20
-26.29884249342514
 30
0.0
 10
32.43004971411478
 20
-26.18376638234297
 30
0.0
 10
32.88964860288858
 20
-26.1047088823626
 30
0.0
 10
33.34145110277572
 20
-25.98307110461529
 30
0.0
 10
33.7993213804392
 20
-25.89522943797066
 30
0.0
 10
35.01404110235771
 20
-25.66130249358478
 30
0.0
 10
36.23535685333681
 20
-25.50110610473596
 30
0.0
 10
37.47385376618456
 20
-25.67252082691522
 30
0.0
 10
38.12808013838275
 20
-25.76329054911482
 30
0.0
 10
38.7468170670419
 20
-25.95068610462333
 30
0.0
 10
39.24306955438144
 20
-26.42182082672782
 30
0.0
 10
39.43600371612595
 20
-26.60508888223768
 30
0.0
 10
39.53883843572464
 20
-26.6290424933428
 30
0.0
 10
39.78394842947136
 20
-26.50620527115116
 30
0.0
 10
40.05216536707302
 20
-26.37222027118476
 30
0.0
 10
40.32655591562829
 20
-26.25368693788098
 30
0.0
 10
40.60112285306795
 20
-26.13328388235551
 30
0.0
 10
41.02868950882648
 20
-25.94535916018036
 30
0.0
 10
41.40005866601873
 20
-25.67664832691419
 30
0.0
 10
41.58505532796574
 20
-25.23168971591428
 30
0.0
 10
41.94333642993634
 20
-24.3707708272408
 30
0.0
 10
41.94301892994444
 20
-23.54223693855895
 30
0.0
 10
41.32597533457542
 20
-22.7743102720842
 30
0.0
 10
40.8312750694185
 20
-22.15850138334919
 30
0.0
 10
40.21701943439027
 20
-21.68789582791135
 30
0.0
 10
39.56709593500373
 20
-21.2548611057974
 30
0.0
 10
39.16902150071501
 20
-20.98992499475245
 30
0.0
 10
38.75059178916782
 20
-20.75860860592162
 30
0.0
 10
38.37301374324508
 20
-20.46040555044031
 30
0.0
 10
37.88501625569494
 20
-20.07457249498141
 30
0.0
 10
37.30452043717128
 20
-19.92316027279687
 30
0.0
 10
36.69181600835823
 20
-19.91765693946501
 30
0.0
 10
35.9761004710621
 20
-19.91060138391138
 30
0.0
 10
35.2917468774103
 20
-20.08663749497841
 30
0.0
 10
34.659569991335
 20
-20.40822971712004
 30
0.0
 10
33.44654360274961
 20
-21.02594360585458
 30
0.0
 10
32.2068119363927
 20
-21.5842144390485
 30
0.0
 10
30.97466499225636
 20
-22.16040638334872
 30
0.0
 10
30.30632749242333
 20
-22.4730380499372
 30
0.0
 10
29.62091554815024
 20
-22.76072832764327
 30
0.0
 10
29.0068352705262
 20
-23.1705149942073
 30
0.0
 10
28.40584304845396
 20
-23.57116471632929
 30
0.0
 10
27.75436832639459
 20
-23.85451582736967
 30
0.0
 10
27.09552054878167
 20
-24.13067027174506
 30
0.0
 10
25.66080860469598
 20
-24.73233277159465
 30
0.0
 10
24.20454193839316
 20
-25.28167832701294
 30
0.0
 10
22.77483943875084
 20
-25.89611138241474
 30
0.0
 10
21.41435193909101
 20
-26.48073471560211
 30
0.0
 10
20.05167721720925
 20
-27.05985471545731
 30
0.0
 10
18.79677610641179
 20
-27.85755582636896
 30
0.0
 10
18.48929499537773
 20
-28.05306527076438
 30
0.0
 10
18.20026416211662
 20
-28.27097610404348
 30
0.0
 10
17.96358555106465
 20
-28.55210471508409
 30
0.0
 10
17.84455832887206
 20
-28.69318054838227
 30
0.0
 10
17.78719666221986
 20
-28.84095915945632
 30
0.0
 10
17.86745360664423
 20
-29.02786082607635
 30
0.0
 10
17.91483166218784
 20
-29.13792749271547
 30
0.0
 10
17.93532805107167
 20
-29.26005915935158
 30
0.0
 10
17.95981082884344
 20
-29.37855721487753
 30
0.0
 10
18.05523721770834
 20
-29.84228360365063
 30
0.0
 10
18.1394452732428
 20
-30.30428138131276
 30
0.0
 10
18.0114927732749
 20
-30.77968471452727
 30
0.0
 10
17.91691305107624
 20
-31.13126304777285
 30
0.0
 10
17.8650547177559
 20
-31.49042610323837
 30
0.0
 10
17.93740943996008
 20
-31.85713860314696
 30
0.0
 10
17.95377832884494
 20
-31.94000610312606
 30
0.0
 10
17.948592495513
 20
-32.02957638088134
 30
0.0
 10
17.92188721774178
 20
-32.11396082530469
 30
0.0
 10
17.87609666219778
 20
-32.25867026971304
 30
0.0
 10
17.79478138444012
 20
-32.29415971414853
 30
0.0
 10
17.67970527335795
 20
-32.19492332528458
 30
0.0
 10
17.32071860678099
 20
-31.88504332536219
 30
0.0
 10
17.10989860683367
 20
-31.49748165879232
 30
0.0
 10
17.14263638460339
 20
-31.01290610335794
 30
0.0
 10
17.16553166237523
 20
-30.67236971455424
 30
0.0
 10
17.03856694018494
 20
-30.39589777017893
 30
0.0
 10
16.83497888468013
 20
-30.14320304801987
 30
0.0
 10
16.77296055136231
 20
-30.06636804803895
 30
0.0
 10
16.69097499582729
 20
-29.99524804805662
 30
0.0
 10
16.58295444029875
 20
-30.0179669369399
 30
0.0
 10
16.33354055147209
 20
-30.07035443692689
 30
0.0
 10
16.09393388486547
 20
-30.13388971468864
 30
0.0
 10
15.96026638489868
 20
-30.39434554795685
 30
0.0
 10
15.79936444049466
 20
-30.70785915898973
 30
0.0
 10
15.67208221830412
 20
-31.03583665890762
 30
0.0
 10
15.51481388501028
 20
-31.35037332549563
 30
0.0
 10
15.44263555169498
 20
-31.49522388101503
 30
0.0
 10
15.35616971838323
 20
-31.63337165875824
 30
0.0
 10
15.2173163850845
 20
-31.72572888095745
 30
0.0
 10
15.15240527398954
 20
-31.76894415872457
 30
0.0
 10
15.07659332956407
 20
-31.79339165871817
 30
0.0
 10
15.00871888513663
 20
-31.73553610317717
 30
0.0
 10
14.93795166293205
 20
-31.67524638096999
 30
0.0
 10
15.00854249624775
 20
-31.62063638098388
 30
0.0
 10
15.02956805179822
 20
-31.56673193655265
 30
0.0
 10
15.09846555178079
 20
-31.39083693659666
 30
0.0
 10
15.16429388509767
 20
-31.21444804775186
 30
0.0
 10
15.16722194065264
 20
-31.02017332557829
 30
0.0
 10
14.99735944069515
 20
-31.20876832553112
 30
0.0
 10
14.85233249628687
 20
-31.40911082548104
 30
0.0
 10
14.69679277410367
 20
-31.60066915876637
 30
0.0
 10
14.23204332977545
 20
-32.17305110306786
 30
0.0
 10
13.86219110764548
 20
-32.81919888068425
 30
0.0
 10
13.34561860777475
 20
-33.35178749166208
 30
0.0
 10
13.26070499668477
 20
-33.43913526941791
 30
0.0
 10
13.17233416337349
 20
-33.52267304717501
 30
0.0
 10
13.05672888562468
 20
-33.56677026938621
 30
0.0
 10
12.98472694119826
 20
-33.59400471382374
 30
0.0
 10
12.90722166343998
 20
-33.60070749159993
 30
0.0
 10
12.8503891634541
 20
-33.53145721383928
 30
0.0
 10
12.79835444124487
 20
-33.46841582496634
 30
0.0
 10
12.78784166346964
 20
-33.39676665831736
 30
0.0
 10
12.82936360790362
 20
-33.32233054722509
 30
0.0
 10
12.84918971900978
 20
-33.28684110278928
 30
0.0
 10
12.86862777456064
 20
-33.25152804724268
 30
0.0
 10
12.88774833011127
 20
-33.21639138058463
 30
0.0
 10
13.09084249672728
 20
-32.84018915845657
 30
0.0
 10
13.29376027445441
 20
-32.46416332521738
 30
0.0
 10
13.50771999662309
 20
-32.06764110309436
 30
0.0
 10
13.31789027444841
 20
-32.17823693639979
 30
0.0
 10
13.15787027448816
 20
-32.28191832526296
 30
0.0
 10
12.98885444119724
 20
-32.36820776968584
 30
0.0
 10
12.76805083014133
 20
-32.48123776965744
 30
0.0
 10
12.5430844413086
 20
-32.59112804740767
 30
0.0
 10
12.28418083026215
 20
-32.57355971407881
 30
0.0
 10
12.19115333028558
 20
-32.56752721408031
 30
0.0
 10
12.09039999697738
 20
-32.55133471408433
 30
0.0
 10
12.05388749698645
 20
-32.45160443633157
 30
0.0
 10
12.0194211081064
 20
-32.35787138079948
 30
0.0
 10
12.10588694141783
 20
-32.3063658252569
 30
0.0
 10
12.16204916362603
 20
-32.25281415860342
 30
0.0
 10
12.22442027472162
 20
-32.19354749195169
 30
0.0
 10
12.29504638581515
 20
-32.14292388085319
 30
0.0
 10
12.36323833024252
 20
-32.08968971419996
 30
0.0
 10
12.69982360793612
 20
-31.82803443648742
 30
0.0
 10
13.03813749674037
 20
-31.56775499210809
 30
0.0
 10
13.37352332998997
 20
-31.30419471439603
 30
0.0
 10
13.48789388551694
 20
-31.21427165886298
 30
0.0
 10
13.59503249660109
 20
-31.11559971444319
 30
0.0
 10
13.70580471879572
 20
-31.02066721446709
 30
0.0
 10
13.40746055220369
 20
-31.13055749221732
 30
0.0
 10
13.12806055227341
 20
-31.26595360329477
 30
0.0
 10
12.83299721901412
 20
-31.36190915882631
 30
0.0
 10
12.53031388575639
 20
-31.46043999213475
 30
0.0
 10
12.2238911080553
 20
-31.55240915877867
 30
0.0
 10
11.91192971924418
 20
-31.38914360326385
 30
0.0
 10
11.91192971924418
 20
-31.35414804771716
 30
0.0
 10
11.91192971924418
 20
-31.31954054772576
 30
0.0
 10
11.91192971924418
 20
-31.2850741588454
 30
0.0
 10
12.37029388579646
 20
-31.00585054780399
 30
0.0
 10
12.84848416345457
 20
-30.76402138119793
 30
0.0
 10
13.33492944111063
 20
-30.53905499236521
 30
0.0
 10
13.75367666322813
 20
-30.34559165908035
 30
0.0
 10
14.12060082980313
 20
-30.08206665914613
 30
0.0
 10
14.44649694083293
 20
-29.75821665922721
 30
0.0
 10
15.01182332958048
 20
-29.19564193714544
 30
0.0
 10
15.44729221836028
 20
-28.5386638817542
 30
0.0
 10
15.83520666270791
 20
-27.84757221526037
 30
0.0
 10
15.88981666269434
 20
-27.75006443750706
 30
0.0
 10
15.9561388848997
 20
-27.6661738819722
 30
0.0
 10
16.04468610709986
 20
-27.59935777087804
 30
0.0
 10
16.20572916261523
 20
-27.4774024931308
 30
0.0
 10
16.36335027368684
 20
-27.35096693760683
 30
0.0
 10
16.52612194031286
 20
-27.23225721541416
 30
0.0
 10
18.03026055104809
 20
-26.13398943791103
 30
0.0
 10
19.57659138399467
 20
-25.09788110483676
 30
0.0
 10
21.11449082805473
 20
-24.04900221620996
 30
0.0
 10
22.44788499438807
 20
-23.13950582754855
 30
0.0
 10
23.79493166071801
 20
-22.25050582777064
 30
0.0
 10
25.14903388260158
 20
-21.37180693910157
 30
0.0
 10
25.59466277137918
 20
-21.08295249472934
 30
0.0
 10
26.05009888237649
 20
-20.82027416146168
 30
0.0
 10
26.55788721558263
 20
-20.64557860594969
 30
0.0
 10
27.25741027096329
 20
-20.4053016615654
 30
0.0
 10
27.93336777079443
 20
-20.10642832830672
 30
0.0
 10
28.51125304842778
 20
-19.62876721731493
 30
0.0
 10
29.30673165933999
 20
-18.97161277303482
 30
0.0
 10
30.09032165914408
 20
-18.30052360653602
 30
0.0
 10
30.84325527006686
 20
-17.59426249560133
 30
0.0
 10
31.2344505477469
 20
-17.22754999569305
 30
0.0
 10
31.63354804764712
 20
-16.86736388467208
 30
0.0
 10
31.95997332534325
 20
-16.43947971811223
 30
0.0
 10
32.20663554750382
 20
-16.11668805152627
 30
0.0
 10
32.18493971417598
 20
-16.05809166265223
 30
0.0
 10
31.79063999205241
 20
-15.94753110712431
 30
0.0
 10
30.94489054781946
 20
-15.71014694051682
 30
0.0
 10
30.07120110359345
 20
-15.69843471829758
 30
0.0
 10
29.20322665936602
 20
-15.66294527386209
 30
0.0
 10
28.37433999290641
 20
-15.62936082942613
 30
0.0
 10
27.54372471533616
 20
-15.65521944053078
 30
0.0
 10
26.71603749332087
 20
-15.72842082940121
 30
0.0
 10
26.29729027120337
 20
-15.7652861071699
 30
0.0
 10
25.878366660197
 20
-15.80867777382557
 30
0.0
 10
25.47665860474203
 20
-15.94477944045822
 30
0.0
 10
25.39671916031759
 20
-15.97197860711824
 30
0.0
 10
25.30337416034077
 20
-15.99145194044663
 30
0.0
 10
25.27134193812658
 20
-16.08705471820041
 30
0.0
 10
25.1100872159448
 20
-16.565209718081
 30
0.0
 10
24.83844832712367
 20
-17.0043122179713
 30
0.0
 10
24.7855669382482
 20
-17.52176666228611
 30
0.0
 10
24.76298916047596
 20
-17.74380499556418
 30
0.0
 10
24.7008297160471
 20
-17.96323277328689
 30
0.0
 10
24.64018721606216
 20
-18.1790974954551
 30
0.0
 10
24.56747971608022
 20
-18.43884777316811
 30
0.0
 10
24.44587721611074
 20
-18.47172666204887
 30
0.0
 10
24.23417527171935
 20
-18.29964166209161
 30
0.0
 10
24.11927554952574
 20
-18.20576749544848
 30
0.0
 10
24.0474499939882
 20
-18.08208360659059
 30
0.0
 10
24.01301888288567
 20
-17.93740943996008
 30
0.0
 10
23.96271277178709
 20
-17.72690694001268
 30
0.0
 10
23.96684027178607
 20
-17.5150286067324
 30
0.0
 10
23.99421582733465
 20
-17.30177444011892
 30
0.0
 10
24.00490499399876
 20
-17.21686082902926
 30
0.0
 10
24.01887499399529
 20
-17.1283136068291
 30
0.0
 10
24.0080094384423
 20
-17.04495221796088
 30
0.0
 10
23.9933691606684
 20
-16.93590860687721
 30
0.0
 10
23.93516082734963
 20
-16.87544249578115
 30
0.0
 10
23.81595721626817
 20
-16.94695055131877
 30
0.0
 10
23.70673721629562
 20
-17.01239082908036
 30
0.0
 10
23.59046166076912
 20
-17.06562499573359
 30
0.0
 10
23.46610749413356
 20
-17.09405888461546
 30
0.0
 10
23.16776332754153
 20
-17.16158055126514
 30
0.0
 10
22.90952999427276
 20
-17.31055860678351
 30
0.0
 10
22.65874027211322
 20
-17.47678749563083
 30
0.0
 10
22.22570554999927
 20
-17.76310194000369
 30
0.0
 10
21.79626916121765
 20
-18.05403777326433
 30
0.0
 10
21.35907166132689
 20
-18.33308499541685
 30
0.0
 10
21.10690610583447
 20
-18.49395166204303
 30
0.0
 10
20.85297666145356
 20
-18.65570027311393
 30
0.0
 10
20.56465138374764
 20
-18.74855138420162
 30
0.0
 10
20.49039166154394
 20
-18.77250499530675
 30
0.0
 10
20.41151055045278
 20
-18.78869749530272
 30
0.0
 10
20.3612044393542
 20
-18.71133332865549
 30
0.0
 10
20.31435555047691
 20
-18.63901388422915
 30
0.0
 10
20.34363610602533
 20
-18.56683555091385
 30
0.0
 10
20.39186082823551
 20
-18.50344138426314
 30
0.0
 10
20.48298332821255
 20
-18.38268555095991
 30
0.0
 10
20.59548416151783
 20
-18.28362555098452
 30
0.0
 10
20.71398221704378
 20
-18.19130360656315
 30
0.0
 10
20.92395555032453
 20
-18.02733249549312
 30
0.0
 10
21.13565749471593
 20
-17.86558388442254
 30
0.0
 10
21.34668916132997
 20
-17.70295332890756
 30
0.0
 10
20.93930138365395
 20
-17.84455832887206
 30
0.0
 10
20.55724305041626
 20
-18.03145999549209
 30
0.0
 10
20.1787830505109
 20
-18.22559360655463
 30
0.0
 10
19.80310999504916
 20
-18.41835138428428
 30
0.0
 10
19.42775443958766
 20
-18.60712277312599
 30
0.0
 10
18.99658943969539
 20
-18.63901388422915
 30
0.0
 10
18.90737193971755
 20
-18.64554027311645
 30
0.0
 10
18.80040971752197
 20
-18.68999027310541
 30
0.0
 10
18.75680638419957
 20
-18.57180971757939
 30
0.0
 10
18.71718943976511
 20
-18.46449471760604
 30
0.0
 10
18.80591305085415
 20
-18.4009594398443
 30
0.0
 10
18.87600999528104
 20
-18.34359777319177
 30
0.0
 10
19.06015999523498
 20
-18.19250305100747
 30
0.0
 10
19.27598943962535
 20
-18.09397221769872
 30
0.0
 10
19.48666832846163
 20
-17.98700999550313
 30
0.0
 10
19.76779693950255
 20
-17.84455832887206
 30
0.0
 10
20.04529193943299
 20
-17.69434555113185
 30
0.0
 10
20.32433916158551
 20
-17.54758999561324
 30
0.0
 10
19.8020516617162
 20
-17.70037805113035
 30
0.0
 10
19.28890110628892
 20
-17.87348610664273
 30
0.0
 10
18.75888777308798
 20
-17.98789193994754
 30
0.0
 10
18.60712277312599
 20
-18.02059443993942
 30
0.0
 10
18.45384082871977
 20
-18.05971749548507
 30
0.0
 10
18.29688999542584
 20
-18.03886832882348
 30
0.0
 10
18.1503108287958
 20
-18.01957138438397
 30
0.0
 10
18.11432749547151
 20
-17.92156971774186
 30
0.0
 10
18.20940110655865
 20
-17.80857499554778
 30
0.0
 10
18.27776943987489
 20
-17.72708332890156
 30
0.0
 10
18.37372499540644
 20
-17.6826333289126
 30
0.0
 10
18.46657610649445
 20
-17.63716027336852
 30
0.0
 10
18.97006055081306
 20
-17.39187388454084
 30
0.0
 10
19.50854055067834
 20
-17.23220666235867
 30
0.0
 10
20.01960971721721
 20
-17.00533527352642
 30
0.0
 10
20.07612471720318
 20
-16.98035860686617
 30
0.0
 10
20.1326044394113
 20
-16.95485277353896
 30
0.0
 10
20.18911943939726
 20
-16.92955860687879
 30
0.0
 10
20.07785332831382
 20
-16.9333333291
 30
0.0
 10
19.9782641616721
 20
-16.96176721798186
 30
0.0
 10
19.87786360614167
 20
-16.98621471797579
 30
0.0
 10
19.7474769395076
 20
-17.0175766624123
 30
0.0
 10
19.6143033284296
 20
-17.01687110685678
 30
0.0
 10
19.48254082846265
 20
-16.99845610686135
 30
0.0
 10
19.40277777292708
 20
-16.98692027353099
 30
0.0
 10
19.34767388405185
 20
-16.93608499576609
 30
0.0
 10
19.32869443961226
 20
-16.85357027356444
 30
0.0
 10
19.31236082850524
 20
-16.78329694024866
 30
0.0
 10
19.3524716618285
 20
-16.74265694025876
 30
0.0
 10
19.41085638403615
 20
-16.72092582915308
 30
0.0
 10
19.89663138391485
 20
-16.54058582919819
 30
0.0
 10
20.33227666158353
 20
-16.24636916260514
 30
0.0
 10
20.83629027256878
 20
-16.10374110708519
 30
0.0
 10
21.59490360571229
 20
-15.8892874960277
 30
0.0
 10
22.3335144388611
 20
-15.64004999608993
 30
0.0
 10
23.01945554980083
 20
-15.22250221841676
 30
0.0
 10
23.76339332739262
 20
-14.76964138519633
 30
0.0
 10
24.56455166052557
 20
-14.41823944083995
 30
0.0
 10
25.44307416030576
 20
-14.29748360753672
 30
0.0
 10
26.16792666012475
 20
-14.19792971867285
 30
0.0
 10
26.89362582660999
 20
-14.10888860758389
 30
0.0
 10
27.61830193753978
 20
-14.00912305205329
 30
0.0
 10
28.02879415965933
 20
-13.9522905520674
 30
0.0
 10
28.44186165955609
 20
-13.89887999652529
 30
0.0
 10
28.83164582612541
 20
-13.74817332989627
 30
0.0
 10
29.12794388160687
 20
-13.63362638548042
 30
0.0
 10
29.15602499271097
 20
-13.53682416328232
 30
0.0
 10
28.99374721497375
 20
-13.27153527445993
 30
0.0
 10
28.39603582623425
 20
-12.29296499692674
 30
0.0
 10
28.24254221516162
 20
-11.24701416385492
 30
0.0
 10
28.56586304841422
 20
-10.14941666412947
 30
0.0
 10
29.02457999274394
 20
-8.591373608963327
 30
0.0
 10
30.01609721471821
 20
-7.398702498150416
 30
0.0
 10
31.25561721440841
 20
-6.402352220621648
 30
0.0
 10
31.69764776985335
 20
-6.047528331821497
 30
0.0
 10
32.26967693637708
 20
-5.982229165171264
 30
0.0
 10
32.8221269362389
 20
-5.915589442965665
 30
0.0
 10
33.06483804728937
 20
-5.886273609639399
 30
0.0
 10
33.26549804723921
 20
-5.791023609663378
 30
0.0
 10
33.38815888054197
 20
-5.570537498607389
 30
0.0
 10
33.44756665830474
 20
-5.46459833196725
 30
0.0
 10
33.51783999162051
 20
-5.427062776420875
 30
0.0
 10
33.62448471381617
 20
-5.502663054179946
 30
0.0
 10
33.75451860267248
 20
-5.595020276379157
 30
0.0
 10
33.86010499153486
 20
-5.549018054168433
 30
0.0
 10
33.96174026928746
 20
-5.449464165304235
 30
0.0
 10
34.09473749147626
 20
-5.318865832003768
 30
0.0
 10
34.18653026923099
 20
-5.157293609821749
 30
0.0
 10
34.29814915809219
 20
-5.010890832080585
 30
0.0
 10
34.41597693584045
 20
-4.85619777656363
 30
0.0
 10
34.55119665802901
 20
-4.727010554373888
 30
0.0
 10
34.74688249131331
 20
-4.678962221052596
 30
0.0
 10
34.84558971351095
 20
-4.65776027661324
 30
0.0
 10
34.83698193573524
 20
-4.655361387724911
 30
0.0
 10
34.88538304683429
 20
-4.678962221052596
 30
0.0
 10
35.00028276902758
 20
-4.728562776595654
 30
0.0
 10
35.11758138010952
 20
-4.773541943250934
 30
0.0
 10
35.22990582452592
 20
-4.828998609903934
 30
0.0
 10
35.3764840974707
 20
-4.901353332108113
 30
0.0
 10
35.51530214948471
 20
-4.895144443220731
 30
0.0
 10
35.65207499108688
 20
-4.807973054353457
 30
0.0
 10
35.71945554662584
 20
-4.765075276586584
 30
0.0
 10
35.78662353145162
 20
-4.721683609930589
 30
0.0
 10
35.85396880751127
 20
-4.678962221052596
 30
0.0
 10
36.00555832433198
 20
-4.491884165543686
 30
0.0
 10
36.08807213487214
 20
-4.58801610996411
 30
0.0
 10
36.1654010217882
 20
-4.678962221052596
 30
0.0
 10
36.20089046532723
 20
-4.724611665485559
 30
0.0
 10
36.25652351946347
 20
-4.706161387712293
 30
0.0
 10
36.29942221314727
 20
-4.700481665491553
 30
0.0
 10
36.51853156833464
 20
-4.672400554387453
 30
0.0
 10
36.67770489760713
 20
-4.761653332142812
 30
0.0
 10
36.80396406105265
 20
-4.933738332099748
 30
0.0
 10
36.86199600401658
 20
-5.012619443191231
 30
0.0
 10
36.93297489109464
 20
-5.081164165396356
 30
0.0
 10
36.99721665741729
 20
-5.155247498711182
 30
0.0
 10
37.15896432977362
 20
-5.340596943109446
 30
0.0
 10
37.36498654673978
 20
-5.427239165309755
 30
0.0
 10
37.60854431830388
 20
-5.427733054198558
 30
0.0
 10
37.76461320321112
 20
-5.42843860975408
 30
0.0
 10
37.91877708816696
 20
-5.440503609751084
 30
0.0
 10
38.07347013977596
 20
-5.461352776412357
 30
0.0
 10
38.59780373751021
 20
-5.53180249861701
 30
0.0
 10
38.79091428813911
 20
-5.740576387453758
 30
0.0
 10
38.84171428684309
 20
-6.268508331766289
 30
0.0
 10
38.907542618497
 20
-6.947217498263199
 30
0.0
 10
38.7850581771774
 20
-7.612803331430142
 30
0.0
 10
38.71683095669579
 20
-8.281669997929498
 30
0.0
 10
38.67015845788651
 20
-8.7345308311496
 30
0.0
 10
38.5817876268077
 20
-9.187885553258504
 30
0.0
 10
38.6422537363762
 20
-9.641804719811889
 30
0.0
 10
38.82844984273705
 20
-11.03774638612937
 30
0.0
 10
39.55813537967678
 20
-12.08108666364646
 30
0.0
 10
40.76029721203189
 20
-12.79507360791246
 30
0.0
 10
41.10273756249291
 20
-12.99852055230591
 30
0.0
 10
41.47343644192448
 20
-13.16647805226387
 30
0.0
 10
41.8896083757515
 20
-13.10481249672381
 30
0.0
 10
42.34021141981122
 20
-13.03796110785149
 30
0.0
 10
42.79120251941659
 20
-12.97682471897807
 30
0.0
 10
43.245933063371
 20
-12.95597555231648
 30
0.0
 10
44.07171526452576
 20
-12.91791083010378
 30
0.0
 10
44.88028191056417
 20
-12.99386388564029
 30
0.0
 10
45.65096022423587
 20
-13.32237055222483
 30
0.0
 10
46.33654854007838
 20
-13.61468221881868
 30
0.0
 10
46.86155241557331
 20
-14.11523860758231
 30
0.0
 10
47.35695823626779
 20
-14.6490619407823
 30
0.0
 10
47.52784378746369
 20
-14.83321194073624
 30
0.0
 10
47.61430961859109
 20
-15.06936138512157
 30
0.0
 10
47.6663443394858
 20
-15.31672916283733
 30
0.0
 10
47.72352961580466
 20
-15.5880152738807
 30
0.0
 10
47.74487267081571
 20
-15.86364055158977
 30
0.0
 10
47.77796322552705
 20
-16.13785471818779
 30
0.0
 10
47.83306711301012
 20
-16.59865305140592
 30
0.0
 10
48.04321682987098
 20
-17.00515888463754
 30
0.0
 10
48.21685404766335
 20
-17.42510555119936
 30
0.0
 10
48.73430847890643
 20
-18.67690221755296
 30
0.0
 10
49.24110902153243
 20
-19.93279110612802
 30
0.0
 10
49.61798151191761
 20
-21.23574055024677
 30
0.0
 10
49.72236845369892
 20
-21.59592666126774
 30
0.0
 10
49.80022776532746
 20
-21.9588644389548
 30
0.0
 10
49.75337761957448
 20
-22.34194582774793
 30
0.0
 10
49.66655901067829
 20
-23.0502883275707
 30
0.0
 10
49.46812151574085
 20
-23.72980888295634
 30
0.0
 10
49.23729902162963
 20
-24.3995574939001
 30
0.0
 10
48.88247514179305
 20
-25.42980971586475
 30
0.0
 10
48.50211015149697
 20
-26.44990193783192
 30
0.0
 10
48.01566488612944
 20
-27.42744915980966
 30
0.0
 10
47.93297498801662
 20
-27.59452471532354
 30
0.0
 10
47.98673710908967
 20
-27.67686304863631
 30
0.0
 10
48.17310960433492
 20
-27.68649388196715
 30
0.0
 10
48.34434793329959
 20
-27.6956308264095
 30
0.0
 10
48.5034859847952
 20
-27.65135721530942
 30
0.0
 10
48.65680320310598
 20
-27.57815582643868
 30
0.0
 10
49.22075374427396
 20
-27.30926860428364
 30
0.0
 10
49.81469165421311
 20
-27.12480110432978
 30
0.0
 10
50.41656454709961
 20
-26.96527499325865
 30
0.0
 10
50.81068787037803
 20
-26.86053527106251
 30
0.0
 10
51.19687498720079
 20
-26.82885582662608
 30
0.0
 10
51.60683673895547
 20
-26.94065110437584
 30
0.0
 10
52.3123922765108
 20
-27.13270332655028
 30
0.0
 10
53.03551614695126
 20
-27.17923471542733
 30
0.0
 10
53.76414335058465
 20
-27.05466888212537
 30
0.0
 10
54.24508528275925
 20
-26.97250693770147
 30
0.0
 10
54.69053777139481
 20
-26.78250082663759
 30
0.0
 10
55.14565637089488
 20
-26.61750666001244
 30
0.0
 10
56.19157189976691
 20
-26.23802360455164
 30
0.0
 10
57.26782776346109
 20
-26.0192661046063
 30
0.0
 10
58.38334489940567
 20
-26.16655082679155
 30
0.0
 10
59.44993320552807
 20
-26.30709749342309
 30
0.0
 10
60.51172373399509
 20
-26.27538277120881
 30
0.0
 10
61.57108009585755
 20
-26.1420680490201
 30
0.0
 10
62.81959589733859
 20
-25.9851524935037
 30
0.0
 10
64.02122753334908
 20
-25.66387777136167
 30
0.0
 10
65.14228472697074
 20
-25.06651916039993
 30
0.0
 10
65.57154471601942
 20
-24.83777804934599
 30
0.0
 10
66.03629414860711
 20
-24.73974110492604
 30
0.0
 10
66.52961858046581
 20
-24.88236916044599
 30
0.0
 10
67.12838828741214
 20
-25.05515971595845
 30
0.0
 10
67.23930161791584
 20
-25.1648736048198
 30
0.0
 10
67.21450134077077
 20
-25.73175221578943
 30
0.0
 10
67.20899800757783
 20
-25.86026916020149
 30
0.0
 10
67.27270967261909
 20
-25.93847999351529
 30
0.0
 10
67.39399466952484
 20
-25.97104138239613
 30
0.0
 10
67.46116355670011
 20
-25.98910360461379
 30
0.0
 10
67.5300610549424
 20
-25.9984169379447
 30
0.0
 10
67.59553660882753
 20
-26.0197599934951
 30
0.0
 10
67.88767187915231
 20
-26.11673860458177
 30
0.0
 10
68.20908770428564
 20
-26.16464582679202
 30
0.0
 10
68.37619853335562
 20
-26.47572527115873
 30
0.0
 10
68.37619853335562
 20
-26.54515193780826
 30
0.0
 10
68.37619853335562
 20
-26.61422582667971
 30
0.0
 10
68.37619853335562
 20
-26.68347610444036
 30
0.0
 10
68.33347714555664
 20
-26.77064749330731
 30
0.0
 10
68.29971631308463
 20
-26.86452165995044
 30
0.0
 10
68.24528270336224
 20
-26.94410832659745
 30
0.0
 10
68.10918104016781
 20
-27.14494471543585
 30
0.0
 10
68.09298854058092
 20
-27.36059777093766
 30
0.0
 10
68.15260798350434
 20
-27.58556415977039
 30
0.0
 10
68.22323409281363
 20
-27.85102943748166
 30
0.0
 10
68.30144492415164
 20
-28.11455443741588
 30
0.0
 10
68.37619853335562
 20
-28.37878499290531
 30
0.0
 10
68.37619853335562
 20
-28.54021610397596
 30
0.0
 10
68.37619853335562
 20
-28.70161193726911
 30
0.0
 10
68.37619853335562
 20
-28.8631841594508
 30
0.0
  0
SPLINE
  5
42
330
1F
100
AcDbEntity
  8
Layer 1
370
     0
100
AcDbSpline
210
0.0
220
0.0
230
1.0
 70
    11
 71
     3
 72
    35
 73
    31
 74
     0
 42
0.0000000001
 43
0.0000000001
 12
1.0
 22
0.0
 32
0.0
 13
1.0
 23
0.0
 33
0.0
 40
0.0
 40
0.0
 40
0.0
 40
0.0
 40
1.0
 40
1.0
 40
1.0
 40
2.0
 40
2.0
 40
2.0
 40
3.0
 40
3.0
 40
3.0
 40
4.0
 40
4.0
 40
4.0
 40
5.0
 40
5.0
 40
5.0
 40
6.0
 40
6.0
 40
6.0
 40
7.0
 40
7.0
 40
7.0
 40
8.0
 40
8.0
 40
8.0
 40
9.0
 40
9.0
 40
9.0
 40
10.0
 40
10.0
 40
10.0
 40
10.0
 10
51.58824535054088
 20
-39.14662110132451
 30
0.0
 10
51.32468507948708
 20
-39.08770721245022
 30
0.0
 10
51.09351109833786
 20
-39.04050554579549
 30
0.0
 10
50.86441592456286
 20
-38.98434332358729
 30
0.0
 10
49.02887791583579
 20
-38.53529249036624
 30
0.0
 10
47.21468296211975
 20
-38.0092302682754
 30
0.0
 10
45.40292217500829
 20
-37.47283165729851
 30
0.0
 10
45.27338332201525
 20
-37.43441415730805
 30
0.0
 10
45.21859579082196
 20
-37.46662276841113
 30
0.0
 10
45.16243357003255
 20
-37.57721860171689
 30
0.0
 10
44.95609385307449
 20
-37.98319526828186
 30
0.0
 10
44.7366308031179
 20
-38.38215165707105
 30
0.0
 10
44.53198441944998
 20
-38.78865749030299
 30
0.0
 10
43.68828110764132
 20
-40.46092998988474
 30
0.0
 10
42.84905807349612
 20
-42.13524860057737
 30
0.0
 10
42.06254003800631
 20
-43.83503776681874
 30
0.0
 10
41.92749670811822
 20
-44.12650276674634
 30
0.0
 10
42.04359587182295
 20
-44.33354804447244
 30
0.0
 10
42.36398864142683
 20
-44.39489610001259
 30
0.0
 10
42.6061705796927
 20
-44.44103943333403
 30
0.0
 10
42.83357221151371
 20
-44.37729248890588
 30
0.0
 10
43.05680890152929
 20
-44.2991169333696
 30
0.0
 10
43.5053658345301
 20
-44.1406138778536
 30
0.0
 10
43.91395304632839
 20
-43.90326498902395
 30
0.0
 10
44.31495553609796
 20
-43.65212248908728
 30
0.0
 10
45.56689443305246
 20
-42.86937915594944
 30
0.0
 10
46.73409380771394
 20
-41.96365748950924
 30
0.0
 10
47.9522707210801
 20
-41.13170165638394
 30
0.0
 10
49.08916763651989
 20
-40.35516721213316
 30
0.0
 10
50.22225455205687
 20
-39.56794360121922
 30
0.0
 10
51.58824535054088
 20
-39.14662110132451
 30
0.0
  0
HATCH
  5
43
330
1F
100
AcDbEntity
  8
Layer 1
 62
     7
100
AcDbHatch
 10
0.0
 20
0.0
 30
0.0
210
0.0
220
0.0
230
1.0
  2
SOLID
 70
     1
 71
     0
 91
        2
 92
        1
 93
        1
 72
     4
 94
        3
 73
     0
 74
     1
 95
      782
 96
      778
 40
0.0
 40
0.0
 40
0.0
 40
0.0
 40
1.0
 40
1.0
 40
1.0
 40
2.0
 40
2.0
 40
2.0
 40
3.0
 40
3.0
 40
3.0
 40
4.0
 40
4.0
 40
4.0
 40
5.0
 40
5.0
 40
5.0
 40
6.0
 40
6.0
 40
6.0
 40
7.0
 40
7.0
 40
7.0
 40
8.0
 40
8.0
 40
8.0
 40
9.0
 40
9.0
 40
9.0
 40
10.0
 40
10.0
 40
10.0
 40
11.0
 40
11.0
 40
11.0
 40
12.0
 40
12.0
 40
12.0
 40
13.0
 40
13.0
 40
13.0
 40
14.0
 40
14.0
 40
14.0
 40
15.0
 40
15.0
 40
15.0
 40
16.0
 40
16.0
 40
16.0
 40
17.0
 40
17.0
 40
17.0
 40
18.0
 40
18.0
 40
18.0
 40
19.0
 40
19.0
 40
19.0
 40
20.0
 40
20.0
 40
20.0
 40
21.0
 40
21.0
 40
21.0
 40
22.0
 40
22.0
 40
22.0
 40
23.0
 40
23.0
 40
23.0
 40
24.0
 40
24.0
 40
24.0
 40
25.0
 40
25.0
 40
25.0
 40
26.0
 40
26.0
 40
26.0
 40
27.0
 40
27.0
 40
27.0
 40
28.0
 40
28.0
 40
28.0
 40
29.0
 40
29.0
 40
29.0
 40
30.0
 40
30.0
 40
30.0
 40
31.0
 40
31.0
 40
31.0
 40
32.0
 40
32.0
 40
32.0
 40
33.0
 40
33.0
 40
33.0
 40
34.0
 40
34.0
 40
34.0
 40
35.0
 40
35.0
 40
35.0
 40
36.0
 40
36.0
 40
36.0
 40
37.0
 40
37.0
 40
37.0
 40
38.0
 40
38.0
 40
38.0
 40
39.0
 40
39.0
 40
39.0
 40
40.0
 40
40.0
 40
40.0
 40
41.0
 40
41.0
 40
41.0
 40
42.0
 40
42.0
 40
42.0
 40
43.0
 40
43.0
 40
43.0
 40
44.0
 40
44.0
 40
44.0
 40
45.0
 40
45.0
 40
45.0
 40
46.0
 40
46.0
 40
46.0
 40
47.0
 40
47.0
 40
47.0
 40
48.0
 40
48.0
 40
48.0
 40
49.0
 40
49.0
 40
49.0
 40
50.0
 40
50.0
 40
50.0
 40
51.0
 40
51.0
 40
51.0
 40
52.0
 40
52.0
 40
52.0
 40
53.0
 40
53.0
 40
53.0
 40
54.0
 40
54.0
 40
54.0
 40
55.0
 40
55.0
 40
55.0
 40
56.0
 40
56.0
 40
56.0
 40
57.0
 40
57.0
 40
57.0
 40
58.0
 40
58.0
 40
58.0
 40
59.0
 40
59.0
 40
59.0
 40
60.0
 40
60.0
 40
60.0
 40
61.0
 40
61.0
 40
61.0
 40
62.0
 40
62.0
 40
62.0
 40
63.0
 40
63.0
 40
63.0
 40
64.0
 40
64.0
 40
64.0
 40
65.0
 40
65.0
 40
65.0
 40
66.0
 40
66.0
 40
66.0
 40
67.0
 40
67.0
 40
67.0
 40
68.0
 40
68.0
 40
68.0
 40
69.0
 40
69.0
 40
69.0
 40
70.0
 40
70.0
 40
70.0
 40
71.0
 40
71.0
 40
71.0
 40
72.0
 40
72.0
 40
72.0
 40
73.0
 40
73.0
 40
73.0
 40
74.0
 40
74.0
 40
74.0
 40
75.0
 40
75.0
 40
75.0
 40
76.0
 40
76.0
 40
76.0
 40
77.0
 40
77.0
 40
77.0
 40
78.0
 40
78.0
 40
78.0
 40
79.0
 40
79.0
 40
79.0
 40
80.0
 40
80.0
 40
80.0
 40
81.0
 40
81.0
 40
81.0
 40
82.0
 40
82.0
 40
82.0
 40
83.0
 40
83.0
 40
83.0
 40
84.0
 40
84.0
 40
84.0
 40
85.0
 40
85.0
 40
85.0
 40
86.0
 40
86.0
 40
86.0
 40
87.0
 40
87.0
 40
87.0
 40
88.0
 40
88.0
 40
88.0
 40
89.0
 40
89.0
 40
89.0
 40
90.0
 40
90.0
 40
90.0
 40
91.0
 40
91.0
 40
91.0
 40
92.0
 40
92.0
 40
92.0
 40
93.0
 40
93.0
 40
93.0
 40
94.0
 40
94.0
 40
94.0
 40
95.0
 40
95.0
 40
95.0
 40
96.0
 40
96.0
 40
96.0
 40
97.0
 40
97.0
 40
97.0
 40
98.0
 40
98.0
 40
98.0
 40
99.0
 40
99.0
 40
99.0
 40
100.0
 40
100.0
 40
100.0
 40
101.0
 40
101.0
 40
101.0
 40
102.0
 40
102.0
 40
102.0
 40
103.0
 40
103.0
 40
103.0
 40
104.0
 40
104.0
 40
104.0
 40
105.0
 40
105.0
 40
105.0
 40
106.0
 40
106.0
 40
106.0
 40
107.0
 40
107.0
 40
107.0
 40
108.0
 40
108.0
 40
108.0
 40
109.0
 40
109.0
 40
109.0
 40
110.0
 40
110.0
 40
110.0
 40
111.0
 40
111.0
 40
111.0
 40
112.0
 40
112.0
 40
112.0
 40
113.0
 40
113.0
 40
113.0
 40
114.0
 40
114.0
 40
114.0
 40
115.0
 40
115.0
 40
115.0
 40
116.0
 40
116.0
 40
116.0
 40
117.0
 40
117.0
 40
117.0
 40
118.0
 40
118.0
 40
118.0
 40
119.0
 40
119.0
 40
119.0
 40
120.0
 40
120.0
 40
120.0
 40
121.0
 40
121.0
 40
121.0
 40
122.0
 40
122.0
 40
122.0
 40
123.0
 40
123.0
 40
123.0
 40
124.0
 40
124.0
 40
124.0
 40
125.0
 40
125.0
 40
125.0
 40
126.0
 40
126.0
 40
126.0
 40
127.0
 40
127.0
 40
127.0
 40
128.0
 40
128.0
 40
128.0
 40
129.0
 40
129.0
 40
129.0
 40
130.0
 40
130.0
 40
130.0
 40
131.0
 40
131.0
 40
131.0
 40
132.0
 40
132.0
 40
132.0
 40
133.0
 40
133.0
 40
133.0
 40
134.0
 40
134.0
 40
134.0
 40
135.0
 40
135.0
 40
135.0
 40
136.0
 40
136.0
 40
136.0
 40
137.0
 40
137.0
 40
137.0
 40
138.0
 40
138.0
 40
138.0
 40
139.0
 40
139.0
 40
139.0
 40
140.0
 40
140.0
 40
140.0
 40
141.0
 40
141.0
 40
141.0
 40
142.0
 40
142.0
 40
142.0
 40
143.0
 40
143.0
 40
143.0
 40
144.0
 40
144.0
 40
144.0
 40
145.0
 40
145.0
 40
145.0
 40
146.0
 40
146.0
 40
146.0
 40
147.0
 40
147.0
 40
147.0
 40
148.0
 40
148.0
 40
148.0
 40
149.0
 40
149.0
 40
149.0
 40
150.0
 40
150.0
 40
150.0
 40
151.0
 40
151.0
 40
151.0
 40
152.0
 40
152.0
 40
152.0
 40
153.0
 40
153.0
 40
153.0
 40
154.0
 40
154.0
 40
154.0
 40
155.0
 40
155.0
 40
155.0
 40
156.0
 40
156.0
 40
156.0
 40
157.0
 40
157.0
 40
157.0
 40
158.0
 40
158.0
 40
158.0
 40
159.0
 40
159.0
 40
159.0
 40
160.0
 40
160.0
 40
160.0
 40
161.0
 40
161.0
 40
161.0
 40
162.0
 40
162.0
 40
162.0
 40
163.0
 40
163.0
 40
163.0
 40
164.0
 40
164.0
 40
164.0
 40
165.0
 40
165.0
 40
165.0
 40
166.0
 40
166.0
 40
166.0
 40
167.0
 40
167.0
 40
167.0
 40
168.0
 40
168.0
 40
168.0
 40
169.0
 40
169.0
 40
169.0
 40
170.0
 40
170.0
 40
170.0
 40
171.0
 40
171.0
 40
171.0
 40
172.0
 40
172.0
 40
172.0
 40
173.0
 40
173.0
 40
173.0
 40
174.0
 40
174.0
 40
174.0
 40
175.0
 40
175.0
 40
175.0
 40
176.0
 40
176.0
 40
176.0
 40
177.0
 40
177.0
 40
177.0
 40
178.0
 40
178.0
 40
178.0
 40
179.0
 40
179.0
 40
179.0
 40
180.0
 40
180.0
 40
180.0
 40
181.0
 40
181.0
 40
181.0
 40
182.0
 40
182.0
 40
182.0
 40
183.0
 40
183.0
 40
183.0
 40
184.0
 40
184.0
 40
184.0
 40
185.0
 40
185.0
 40
185.0
 40
186.0
 40
186.0
 40
186.0
 40
187.0
 40
187.0
 40
187.0
 40
188.0
 40
188.0
 40
188.0
 40
189.0
 40
189.0
 40
189.0
 40
190.0
 40
190.0
 40
190.0
 40
191.0
 40
191.0
 40
191.0
 40
192.0
 40
192.0
 40
192.0
 40
193.0
 40
193.0
 40
193.0
 40
194.0
 40
194.0
 40
194.0
 40
195.0
 40
195.0
 40
195.0
 40
196.0
 40
196.0
 40
196.0
 40
197.0
 40
197.0
 40
197.0
 40
198.0
 40
198.0
 40
198.0
 40
199.0
 40
199.0
 40
199.0
 40
200.0
 40
200.0
 40
200.0
 40
201.0
 40
201.0
 40
201.0
 40
202.0
 40
202.0
 40
202.0
 40
203.0
 40
203.0
 40
203.0
 40
204.0
 40
204.0
 40
204.0
 40
205.0
 40
205.0
 40
205.0
 40
206.0
 40
206.0
 40
206.0
 40
207.0
 40
207.0
 40
207.0
 40
208.0
 40
208.0
 40
208.0
 40
209.0
 40
209.0
 40
209.0
 40
210.0
 40
210.0
 40
210.0
 40
211.0
 40
211.0
 40
211.0
 40
212.0
 40
212.0
 40
212.0
 40
213.0
 40
213.0
 40
213.0
 40
214.0
 40
214.0
 40
214.0
 40
215.0
 40
215.0
 40
215.0
 40
216.0
 40
216.0
 40
216.0
 40
217.0
 40
217.0
 40
217.0
 40
218.0
 40
218.0
 40
218.0
 40
219.0
 40
219.0
 40
219.0
 40
220.0
 40
220.0
 40
220.0
 40
221.0
 40
221.0
 40
221.0
 40
222.0
 40
222.0
 40
222.0
 40
223.0
 40
223.0
 40
223.0
 40
224.0
 40
224.0
 40
224.0
 40
225.0
 40
225.0
 40
225.0
 40
226.0
 40
226.0
 40
226.0
 40
227.0
 40
227.0
 40
227.0
 40
228.0
 40
228.0
 40
228.0
 40
229.0
 40
229.0
 40
229.0
 40
230.0
 40
230.0
 40
230.0
 40
231.0
 40
231.0
 40
231.0
 40
232.0
 40
232.0
 40
232.0
 40
233.0
 40
233.0
 40
233.0
 40
234.0
 40
234.0
 40
234.0
 40
235.0
 40
235.0
 40
235.0
 40
236.0
 40
236.0
 40
236.0
 40
237.0
 40
237.0
 40
237.0
 40
238.0
 40
238.0
 40
238.0
 40
239.0
 40
239.0
 40
239.0
 40
240.0
 40
240.0
 40
240.0
 40
241.0
 40
241.0
 40
241.0
 40
242.0
 40
242.0
 40
242.0
 40
243.0
 40
243.0
 40
243.0
 40
244.0
 40
244.0
 40
244.0
 40
245.0
 40
245.0
 40
245.0
 40
246.0
 40
246.0
 40
246.0
 40
247.0
 40
247.0
 40
247.0
 40
248.0
 40
248.0
 40
248.0
 40
249.0
 40
249.0
 40
249.0
 40
250.0
 40
250.0
 40
250.0
 40
251.0
 40
251.0
 40
251.0
 40
252.0
 40
252.0
 40
252.0
 40
253.0
 40
253.0
 40
253.0
 40
254.0
 40
254.0
 40
254.0
 40
255.0
 40
255.0
 40
255.0
 40
256.0
 40
256.0
 40
256.0
 40
257.0
 40
257.0
 40
257.0
 40
258.0
 40
258.0
 40
258.0
 40
259.0
 40
259.0
 40
259.0
 40
259.0
 10
68.37619853335562
 20
-28.8631841594508
 10
68.22496270388064
 20
-29.06490249273392
 10
68.01481298701978
 20
-29.20043971492209
 10
67.81602271431356
 20
-29.34705415932997
 10
67.47562744522
 20
-29.59854943704472
 10
67.2296707848282
 20
-29.90461943696837
 10
67.13664328720154
 20
-30.33303277019455
 10
67.06912162225748
 20
-30.64464138122758
 10
66.92441387215791
 20
-30.92936832560084
 10
66.6946480207
 20
-31.1622722144316
 10
66.49035441480085
 20
-31.36914110326882
 10
66.25057136536267
 20
-31.41598999214611
 10
65.98048470558649
 20
-31.31834110328144
 10
65.56773471611662
 20
-31.16915138109666
 10
65.3686269434185
 20
-31.24909082552111
 10
65.18119611486692
 20
-31.65093999208711
 10
65.11575583875867
 20
-31.79116915871873
 10
65.0568419513728
 20
-31.93690165868253
 10
65.01274473027559
 20
-32.08573860308955
 10
64.91798862158191
 20
-32.40870665856438
 10
64.6947508494994
 20
-32.59578471407329
 10
64.39157363501188
 20
-32.70705082515673
 10
64.15595336324527
 20
-32.79316388069072
 10
63.90756253624892
 20
-32.8105558251307
 10
63.66365198691604
 20
-32.84932610289892
 10
63.53340643468332
 20
-32.86964610289355
 10
63.42214032641085
 20
-32.91702415843748
 10
63.32325831750245
 20
-33.00331360286035
 10
62.78893950923181
 20
-33.46788665829969
 10
62.16607508067796
 20
-33.39743693609504
 10
61.76778897972797
 20
-32.8100619362419
 10
61.65274814932958
 20
-32.64019943628441
 10
61.53146315242382
 20
-32.61885638073434
 10
61.35990732346723
 20
-32.66810415849963
 10
61.10220316337515
 20
-32.74254026959222
 10
60.92891872335156
 20
-32.89617499177589
 10
60.8555409474458
 20
-33.16231054726484
 10
60.78389178260706
 20
-33.42449499164402
 10
60.74427483917333
 20
-33.69285304713242
 10
60.70497539573149
 20
-33.95987054706546
 10
60.59751928736182
 20
-34.68796860243902
 10
59.53883320326004
 20
-35.27276832451528
 10
58.88114960892784
 20
-35.06678138012214
 10
58.73749998531563
 20
-35.0214494356891
 10
58.59624628286299
 20
-34.9708258245906
 10
58.49496378544693
 20
-34.85024638017624
 10
58.09121109658819
 20
-34.37156221362933
 10
57.59545103061763
 20
-34.26181304699013
 10
57.01700276352339
 20
-34.4803941580466
 10
56.94743354714993
 20
-34.50678193581789
 10
56.87578438231119
 20
-34.52794860247909
 10
56.78688438457922
 20
-34.55740554691607
 10
56.94983243597762
 20
-34.72190582465274
 10
57.13415882016395
 20
-34.83698193573524
 10
57.30642020465809
 20
-34.96616915792498
 10
58.4308993426369
 20
-35.81195387993576
 10
59.56500931370334
 20
-36.64461526861659
 10
60.5861245654303
 20
-37.61715304615127
 10
60.77009817184786
 20
-37.79202499055214
 10
60.94200831809776
 20
-37.97804471272777
 10
61.1070362188074
 20
-38.17129637934622
 10
61.32614649099521
 20
-38.42727193483769
 10
61.39229232264103
 20
-38.72960249031766
 10
61.41571676648786
 20
-39.05119471245929
 10
61.45603926545915
 20
-39.60413860121023
 10
61.43155648830598
 20
-40.14431193440832
 10
61.17247649491566
 20
-40.65315860094807
 10
61.05189705354746
 20
-40.88916693422235
 10
60.88242261342666
 20
-41.06209860084585
 10
60.64503845281617
 20
-41.17992637859379
 10
59.29492265392716
 20
-41.84688804509394
 10
57.90102713393284
 20
-42.41052110050868
 10
56.49679522531334
 20
-42.95034165592901
 10
55.41023969747813
 20
-43.36891248915763
 10
54.31983889196324
 20
-43.78028665572158
 10
53.19641943114522
 20
-44.08826165564444
 10
50.7166373172219
 20
-44.76764109991936
 10
48.27061737962507
 20
-45.55451193305586
 10
45.82114021989421
 20
-46.33238693286136
 10
44.22263359400885
 20
-46.83950498829014
 10
42.62617307918239
 20
-47.35283193260598
 10
41.04209506404003
 20
-47.90337693246859
 10
40.87329090167992
 20
-47.9619380435648
 10
40.70413396155103
 20
-48.01979359910612
 10
40.53843424355616
 20
-48.08664498797845
 10
40.19271203015404
 20
-48.2251455434991
 10
39.9339848145325
 20
-48.45734387677433
 10
39.77431759638373
 20
-48.79907971002267
 10
39.32904149663256
 20
-49.75129748756208
 10
38.83448332362483
 20
-50.66978970955481
 10
38.15478541547922
 20
-51.48625859823934
 10
37.7465166572299
 20
-51.97651387589445
 10
37.53844737564776
 20
-52.5914408201857
 10
37.31108210367055
 20
-53.18297859781534
 10
36.51560351285379
 20
-55.25173804174258
 10
35.92304269463794
 20
-57.38427970787614
 10
35.34702715377777
 20
-59.52091359623083
 10
34.69022638021631
 20
-61.95797304006596
 10
34.10662610258438
 20
-64.41295359500803
 10
33.56969832494086
 20
-66.87894081661382
 10
33.40812610275916
 20
-67.62171442753912
 10
33.2975302694534
 20
-68.37620026068366
 10
33.11803693616508
 20
-69.11445831605504
 10
32.87913582511366
 20
-70.09839081580904
 10
32.40955332523095
 20
-70.98689692669781
 10
31.87590638091983
 20
-71.84058387092847
 10
31.22203276997213
 20
-72.8858291484451
 10
30.46412499238382
 20
-73.84905359264886
 10
29.56150777038746
 20
-74.69346248132645
 10
29.19786443714488
 20
-75.03350498124166
 10
28.81012638168646
 20
-75.34010414783164
 10
28.34625888180231
 20
-75.53646025889363
 10
28.2306536040535
 20
-75.53646025889363
 10
28.11575388185989
 20
-75.53646025889363
 10
28.00036027077779
 20
-75.53646025889363
 10
27.76678610416936
 20
-75.35319220338377
 10
27.63569388198009
 20
-75.10652998122353
 10
27.57815582643868
 20
-74.82229692573875
 10
27.47048804868789
 20
-74.29245998142702
 10
27.57903777088308
 20
-73.79049248155266
 10
27.80760249304814
 20
-73.31092637056102
 10
28.07892388186903
 20
-72.74457692625803
 10
28.35260888180073
 20
-72.17889775973305
 10
28.63737110395184
 20
-71.61872192653959
 10
28.84579221501082
 20
-71.20942914886405
 10
28.90315388166303
 20
-70.80154748229955
 10
28.76363027058693
 20
-70.3516147046341
 10
28.60308110396035
 20
-69.83483053809697
 10
28.47819777065815
 20
-69.30636942711811
 10
28.39084999290231
 20
-68.77169942725156
 10
28.31990638180886
 20
-68.33690081624913
 10
28.38760443734742
 20
-67.93522803857168
 10
28.6781874928303
 20
-67.58484914977075
 10
28.93793777054331
 20
-67.27101803873795
 10
29.27487582601468
 20
-67.06393748323433
 10
29.62317332592752
 20
-66.86966276106011
 10
29.87054110364361
 20
-66.73151498331721
 10
30.11289943691632
 20
-66.58680553890886
 10
30.31511165908792
 20
-66.38491081673718
 10
30.76659665897514
 20
-65.93293192796148
 10
31.04409165890557
 20
-65.38171665032151
 10
31.23875443663475
 20
-64.78227665047103
 10
31.53346499211661
 20
-63.87412081736466
 10
31.61823749209555
 20
-62.93294498426649
 10
31.65231582542031
 20
-61.98760637339215
 10
31.69556638096495
 20
-60.78802081813633
 10
31.6376755476461
 20
-59.5898110962134
 10
31.58017276988285
 20
-58.39230692984663
 10
31.52503360322978
 20
-57.24644943013285
 10
31.46784832546645
 20
-56.10129748597458
 10
31.55724221433285
 20
-54.95547526403897
 10
31.60670165876487
 20
-54.31881720864236
 10
31.74915332539594
 20
-53.71281554212707
 10
32.10122554753032
 20
-53.15644970893332
 10
32.75820360292155
 20
-52.11808359808176
 10
33.34991776944039
 20
-51.04151165390647
 10
33.84772249153794
 20
-49.91667970974316
 10
33.98516471372594
 20
-49.60627054315412
 10
34.11230582480512
 20
-49.29106359878844
 10
34.16208276923738
 20
-48.94964526554033
 10
34.18085054701024
 20
-48.81975248779475
 10
34.14659582479661
 20
-48.76464859891983
 10
34.01292832483013
 20
-48.76912887669689
 10
33.88046026930765
 20
-48.77360915447331
 10
33.74711026934109
 20
-48.77463221002843
 10
33.61517138048494
 20
-48.76531887669783
 10
33.19712971392296
 20
-48.73568554337165
 10
32.79111776958015
 20
-48.6592033211685
 10
32.4359058252244
 20
-48.41737415456243
 10
31.99098249200232
 20
-48.11490248797111
 10
31.95238860312299
 20
-47.73316165473334
 10
32.32601554747416
 20
-47.34630554371867
 10
32.55719082519395
 20
-47.10687526600126
 10
32.8386369362348
 20
-46.93665998826601
 10
33.12632721394055
 20
-46.77681637719463
 10
33.82842554709843
 20
-46.38682054395892
 10
34.57878388024431
 20
-46.10156443291902
 10
35.31224326577629
 20
-45.78050137744403
 10
35.53632770450386
 20
-45.68264082191263
 10
35.66293964571817
 20
-45.54622165528039
 10
35.71342214443025
 20
-45.2937033220102
 10
35.91873880585885
 20
-44.26602637782212
 10
36.11925768963208
 20
-43.23732637807956
 10
36.30718332425642
 20
-42.20587471167058
 10
36.51405129067116
 20
-41.06693165640003
 10
36.7286812851955
 20
-39.92918804557315
 10
36.94038322423898
 20
-38.79091526807996
 10
36.98603266751881
 20
-38.54527610147483
 10
36.92609572460348
 20
-38.33960665708162
 10
36.7347137850416
 20
-38.16752165712468
 10
36.47683323606512
 20
-37.93514693496057
 10
36.46219295866085
 20
-37.93204249051704
 10
36.25754657499292
 20
-38.21556999044598
 10
36.22706657577054
 20
-38.25797387932437
 10
36.19898546537583
 20
-38.30136554598036
 10
36.16797629950027
 20
-38.34338137930315
 10
35.97747630436034
 20
-38.60263776812704
 10
35.73906908822039
 20
-38.79849999030022
 10
35.41507798537498
 20
-38.85688471250787
 10
34.5641436024701
 20
-39.01055471246971
 10
34.31331860253272
 20
-38.85603804584163
 10
34.0616469359291
 20
-38.38765499040323
 10
33.85717693598021
 20
-38.00803082383139
 10
33.55869165827714
 20
-37.82268137943313
 10
33.11599082505419
 20
-37.87037693497698
 10
32.88739082511162
 20
-37.89517721274835
 10
32.65519249183606
 20
-37.87556276830892
 10
32.43488276966895
 20
-37.7887441572194
 10
32.06263165865098
 20
-37.64212971281184
 10
31.8995072142472
 20
-37.33500137955522
 10
31.99355776977954
 20
-36.94606387965247
 10
32.01373665866313
 20
-36.86199693522905
 10
32.04284082532267
 20
-36.78036415747147
 10
32.06263165865098
 20
-36.69629721304806
 10
32.07265054753741
 20
-36.65357582417006
 10
32.10415360308497
 20
-36.60207026862716
 10
32.06263165865098
 20
-36.56622804641391
 10
32.0183580475509
 20
-36.52869249086785
 10
31.96223110312054
 20
-36.54954165752913
 10
31.91520582535469
 20
-36.57056721307961
 10
31.78566582538687
 20
-36.62775249084293
 10
31.72107221429184
 20
-36.74780276859096
 10
31.65062249208751
 20
-36.85959804634072
 10
31.56105221433191
 20
-37.00120304630523
 10
31.4816419365741
 20
-37.15656637959987
 10
31.33298138105565
 20
-37.24112721291208
 10
30.91610388115983
 20
-37.47833499063037
 10
30.45396499238666
 20
-37.56875193505222
 10
29.98540554805906
 20
-37.5348147128385
 10
29.60835665926443
 20
-37.50779193506736
 10
29.27092471490458
 20
-37.32036110178101
 10
28.95878693720491
 20
-37.10573110183464
 10
28.67077915949891
 20
-36.90746999077313
 10
28.47766860399182
 20
-36.67012110194348
 10
28.63546610395231
 20
-36.29391887981541
 10
28.63768860395176
 20
-36.2885566575946
 10
28.63839415950696
 20
-36.28270054648497
 10
28.63959360395128
 20
-36.27684443537535
 10
28.68076277060751
 20
-36.01469526877401
 10
28.54984693730712
 20
-35.88670749102828
 10
28.2928483262602
 20
-35.9492197132349
 10
28.11938749297006
 20
-35.99141193544657
 10
27.95125360412322
 20
-36.05325387987551
 10
27.77902749305524
 20
-36.10116110208576
 10
27.32270943761385
 20
-36.22861971316518
 10
27.09876610433657
 20
-36.08616804653411
 10
27.01868554880076
 20
-35.62159499109445
 10
26.95201054881764
 20
-35.23470360230258
 10
26.93874610437631
 20
-35.22076888008357
 10
26.55016138225132
 20
-35.13860693565967
 10
26.13811693791001
 20
-35.05090638012608
 10
26.00339110461024
 20
-34.8946963801652
 10
25.98342388239305
 20
-34.4803941580466
 10
25.95498999351119
 20
-33.89164332486057
 10
25.94535916018036
 20
-33.88215360264046
 10
25.37417666032319
 20
-33.71352582490481
 10
25.08648638261712
 20
-33.62861221381515
 10
24.79936054935585
 20
-33.53886554717099
 10
24.55509721608329
 20
-33.35506832499449
 10
24.34597054946911
 20
-33.19712971392296
 10
24.23488082727455
 20
-32.99093110286343
 10
24.28190610504072
 20
-32.72479554737447
 10
24.3118569383665
 20
-32.55599138074995
 10
24.24158360505073
 20
-32.45746054744119
 10
24.09242916064348
 20
-32.40613138078749
 10
23.92877554957337
 20
-32.34943999191265
 10
23.76081804961541
 20
-32.3070713808121
 10
23.59822277187827
 20
-32.24935693638213
 10
23.25818027196337
 20
-32.12913026974554
 10
23.11177749422221
 20
-31.83561915870769
 10
23.21461221641849
 20
-31.49264860323782
 10
23.24784388307701
 20
-31.38240554770983
 10
23.28866027195548
 20
-31.27371471440392
 10
23.31296666083837
 20
-31.1615666588764
 10
23.37498499415619
 20
-30.87648693672537
 10
23.31226110528317
 20
-30.76126971453184
 10
23.03236721646408
 20
-30.66238610344565
 10
22.88610554983396
 20
-30.61088054790274
 10
22.73211804987253
 20
-30.58159999235464
 10
22.58310471657631
 20
-30.53767915903232
 10
22.45151860549824
 20
-30.49908527015298
 10
22.32525943886315
 20
-30.4367141590574
 10
22.28874693887222
 20
-30.29581471464842
 10
22.23360777221946
 20
-30.08517110358998
 10
22.15867777223807
 20
-29.86673110364456
 10
22.16901416112443
 20
-29.65520554814172
 10
22.18330166112088
 20
-29.35788443710481
 10
22.09510721669849
 20
-29.13260054827249
 10
21.89444721674865
 20
-28.92484971499086
 10
21.73425082789984
 20
-28.75897360392131
 10
21.75439443900591
 20
-28.59824804840585
 10
21.92665582785172
 20
-28.44616554844395
 10
22.06808443892735
 20
-28.32195249291943
 10
22.23826443888476
 20
-28.24599943738291
 10
22.41380666106331
 20
-28.1912130485076
 10
22.58141138324351
 20
-28.13903721518733
 10
22.65701166100226
 20
-28.03514415965776
 10
22.67630860544209
 20
-27.86891527081044
 10
22.70043860543609
 20
-27.66342221530643
 10
22.73038943876188
 20
-27.45845832646873
 10
22.76277443875384
 20
-27.25381193763096
 10
22.78397638319287
 20
-27.11876860433128
 10
22.85700138317473
 20
-27.07294277100943
 10
23.00393332758222
 20
-27.07999832656338
 10
24.01421832732968
 20
-27.12755277099587
 10
25.00432443819322
 20
-26.99748360436172
 10
25.9751688823951
 20
-26.7172369377652
 10
26.80024554885534
 20
-26.47882971560259
 10
27.5953713819901
 20
-26.14690110457428
 10
28.43512360400239
 20
-25.95622471573303
 10
29.11210415938865
 20
-25.80237832688264
 10
29.77476193700063
 20
-25.7353858268996
 10
30.45516443683066
 20
-25.99531249350117
 10
31.08646027000612
 20
-26.23664777121876
 10
31.75807860317157
 20
-26.29884249342514
 10
32.43004971411478
 20
-26.18376638234297
 10
32.88964860288858
 20
-26.1047088823626
 10
33.34145110277572
 20
-25.98307110461529
 10
33.7993213804392
 20
-25.89522943797066
 10
35.01404110235771
 20
-25.66130249358478
 10
36.23535685333681
 20
-25.50110610473596
 10
37.47385376618456
 20
-25.67252082691522
 10
38.12808013838275
 20
-25.76329054911482
 10
38.7468170670419
 20
-25.95068610462333
 10
39.24306955438144
 20
-26.42182082672782
 10
39.43600371612595
 20
-26.60508888223768
 10
39.53883843572464
 20
-26.6290424933428
 10
39.78394842947136
 20
-26.50620527115116
 10
40.05216536707302
 20
-26.37222027118476
 10
40.32655591562829
 20
-26.25368693788098
 10
40.60112285306795
 20
-26.13328388235551
 10
41.02868950882648
 20
-25.94535916018036
 10
41.40005866601873
 20
-25.67664832691419
 10
41.58505532796574
 20
-25.23168971591428
 10
41.94333642993634
 20
-24.3707708272408
 10
41.94301892994444
 20
-23.54223693855895
 10
41.32597533457542
 20
-22.7743102720842
 10
40.8312750694185
 20
-22.15850138334919
 10
40.21701943439027
 20
-21.68789582791135
 10
39.56709593500373
 20
-21.2548611057974
 10
39.16902150071501
 20
-20.98992499475245
 10
38.75059178916782
 20
-20.75860860592162
 10
38.37301374324508
 20
-20.46040555044031
 10
37.88501625569494
 20
-20.07457249498141
 10
37.30452043717128
 20
-19.92316027279687
 10
36.69181600835823
 20
-19.91765693946501
 10
35.9761004710621
 20
-19.91060138391138
 10
35.2917468774103
 20
-20.08663749497841
 10
34.659569991335
 20
-20.40822971712004
 10
33.44654360274961
 20
-21.02594360585458
 10
32.2068119363927
 20
-21.5842144390485
 10
30.97466499225636
 20
-22.16040638334872
 10
30.30632749242333
 20
-22.4730380499372
 10
29.62091554815024
 20
-22.76072832764327
 10
29.0068352705262
 20
-23.1705149942073
 10
28.40584304845396
 20
-23.57116471632929
 10
27.75436832639459
 20
-23.85451582736967
 10
27.09552054878167
 20
-24.13067027174506
 10
25.66080860469598
 20
-24.73233277159465
 10
24.20454193839316
 20
-25.28167832701294
 10
22.77483943875084
 20
-25.89611138241474
 10
21.41435193909101
 20
-26.48073471560211
 10
20.05167721720925
 20
-27.05985471545731
 10
18.79677610641179
 20
-27.85755582636896
 10
18.48929499537773
 20
-28.05306527076438
 10
18.20026416211662
 20
-28.27097610404348
 10
17.96358555106465
 20
-28.55210471508409
 10
17.84455832887206
 20
-28.69318054838227
 10
17.78719666221986
 20
-28.84095915945632
 10
17.86745360664423
 20
-29.02786082607635
 10
17.91483166218784
 20
-29.13792749271547
 10
17.93532805107167
 20
-29.26005915935158
 10
17.95981082884344
 20
-29.37855721487753
 10
18.05523721770834
 20
-29.84228360365063
 10
18.1394452732428
 20
-30.30428138131276
 10
18.0114927732749
 20
-30.77968471452727
 10
17.91691305107624
 20
-31.13126304777285
 10
17.8650547177559
 20
-31.49042610323837
 10
17.93740943996008
 20
-31.85713860314696
 10
17.95377832884494
 20
-31.94000610312606
 10
17.948592495513
 20
-32.02957638088134
 10
17.92188721774178
 20
-32.11396082530469
 10
17.87609666219778
 20
-32.25867026971304
 10
17.79478138444012
 20
-32.29415971414853
 10
17.67970527335795
 20
-32.19492332528458
 10
17.32071860678099
 20
-31.88504332536219
 10
17.10989860683367
 20
-31.49748165879232
 10
17.14263638460339
 20
-31.01290610335794
 10
17.16553166237523
 20
-30.67236971455424
 10
17.03856694018494
 20
-30.39589777017893
 10
16.83497888468013
 20
-30.14320304801987
 10
16.77296055136231
 20
-30.06636804803895
 10
16.69097499582729
 20
-29.99524804805662
 10
16.58295444029875
 20
-30.0179669369399
 10
16.33354055147209
 20
-30.07035443692689
 10
16.09393388486547
 20
-30.13388971468864
 10
15.96026638489868
 20
-30.39434554795685
 10
15.79936444049466
 20
-30.70785915898973
 10
15.67208221830412
 20
-31.03583665890762
 10
15.51481388501028
 20
-31.35037332549563
 10
15.44263555169498
 20
-31.49522388101503
 10
15.35616971838323
 20
-31.63337165875824
 10
15.2173163850845
 20
-31.72572888095745
 10
15.15240527398954
 20
-31.76894415872457
 10
15.07659332956407
 20
-31.79339165871817
 10
15.00871888513663
 20
-31.73553610317717
 10
14.93795166293205
 20
-31.67524638096999
 10
15.00854249624775
 20
-31.62063638098388
 10
15.02956805179822
 20
-31.56673193655265
 10
15.09846555178079
 20
-31.39083693659666
 10
15.16429388509767
 20
-31.21444804775186
 10
15.16722194065264
 20
-31.02017332557829
 10
14.99735944069515
 20
-31.20876832553112
 10
14.85233249628687
 20
-31.40911082548104
 10
14.69679277410367
 20
-31.60066915876637
 10
14.23204332977545
 20
-32.17305110306786
 10
13.86219110764548
 20
-32.81919888068425
 10
13.34561860777475
 20
-33.35178749166208
 10
13.26070499668477
 20
-33.43913526941791
 10
13.17233416337349
 20
-33.52267304717501
 10
13.05672888562468
 20
-33.56677026938621
 10
12.98472694119826
 20
-33.59400471382374
 10
12.90722166343998
 20
-33.60070749159993
 10
12.8503891634541
 20
-33.53145721383928
 10
12.79835444124487
 20
-33.46841582496634
 10
12.78784166346964
 20
-33.39676665831736
 10
12.82936360790362
 20
-33.32233054722509
 10
12.84918971900978
 20
-33.28684110278928
 10
12.86862777456064
 20
-33.25152804724268
 10
12.88774833011127
 20
-33.21639138058463
 10
13.09084249672728
 20
-32.84018915845657
 10
13.29376027445441
 20
-32.46416332521738
 10
13.50771999662309
 20
-32.06764110309436
 10
13.31789027444841
 20
-32.17823693639979
 10
13.15787027448816
 20
-32.28191832526296
 10
12.98885444119724
 20
-32.36820776968584
 10
12.76805083014133
 20
-32.48123776965744
 10
12.5430844413086
 20
-32.59112804740767
 10
12.28418083026215
 20
-32.57355971407881
 10
12.19115333028558
 20
-32.56752721408031
 10
12.09039999697738
 20
-32.55133471408433
 10
12.05388749698645
 20
-32.45160443633157
 10
12.0194211081064
 20
-32.35787138079948
 10
12.10588694141783
 20
-32.3063658252569
 10
12.16204916362603
 20
-32.25281415860342
 10
12.22442027472162
 20
-32.19354749195169
 10
12.29504638581515
 20
-32.14292388085319
 10
12.36323833024252
 20
-32.08968971419996
 10
12.69982360793612
 20
-31.82803443648742
 10
13.03813749674037
 20
-31.56775499210809
 10
13.37352332998997
 20
-31.30419471439603
 10
13.48789388551694
 20
-31.21427165886298
 10
13.59503249660109
 20
-31.11559971444319
 10
13.70580471879572
 20
-31.02066721446709
 10
13.40746055220369
 20
-31.13055749221732
 10
13.12806055227341
 20
-31.26595360329477
 10
12.83299721901412
 20
-31.36190915882631
 10
12.53031388575639
 20
-31.46043999213475
 10
12.2238911080553
 20
-31.55240915877867
 10
11.91192971924418
 20
-31.38914360326385
 10
11.91192971924418
 20
-31.35414804771716
 10
11.91192971924418
 20
-31.31954054772576
 10
11.91192971924418
 20
-31.2850741588454
 10
12.37029388579646
 20
-31.00585054780399
 10
12.84848416345457
 20
-30.76402138119793
 10
13.33492944111063
 20
-30.53905499236521
 10
13.75367666322813
 20
-30.34559165908035
 10
14.12060082980313
 20
-30.08206665914613
 10
14.44649694083293
 20
-29.75821665922721
 10
15.01182332958048
 20
-29.19564193714544
 10
15.44729221836028
 20
-28.5386638817542
 10
15.83520666270791
 20
-27.84757221526037
 10
15.88981666269434
 20
-27.75006443750706
 10
15.9561388848997
 20
-27.6661738819722
 10
16.04468610709986
 20
-27.59935777087804
 10
16.20572916261523
 20
-27.4774024931308
 10
16.36335027368684
 20
-27.35096693760683
 10
16.52612194031286
 20
-27.23225721541416
 10
18.03026055104809
 20
-26.13398943791103
 10
19.57659138399467
 20
-25.09788110483676
 10
21.11449082805473
 20
-24.04900221620996
 10
22.44788499438807
 20
-23.13950582754855
 10
23.79493166071801
 20
-22.25050582777064
 10
25.14903388260158
 20
-21.37180693910157
 10
25.59466277137918
 20
-21.08295249472934
 10
26.05009888237649
 20
-20.82027416146168
 10
26.55788721558263
 20
-20.64557860594969
 10
27.25741027096329
 20
-20.4053016615654
 10
27.93336777079443
 20
-20.10642832830672
 10
28.51125304842778
 20
-19.62876721731493
 10
29.30673165933999
 20
-18.97161277303482
 10
30.09032165914408
 20
-18.30052360653602
 10
30.84325527006686
 20
-17.59426249560133
 10
31.2344505477469
 20
-17.22754999569305
 10
31.63354804764712
 20
-16.86736388467208
 10
31.95997332534325
 20
-16.43947971811223
 10
32.20663554750382
 20
-16.11668805152627
 10
32.18493971417598
 20
-16.05809166265223
 10
31.79063999205241
 20
-15.94753110712431
 10
30.94489054781946
 20
-15.71014694051682
 10
30.07120110359345
 20
-15.69843471829758
 10
29.20322665936602
 20
-15.66294527386209
 10
28.37433999290641
 20
-15.62936082942613
 10
27.54372471533616
 20
-15.65521944053078
 10
26.71603749332087
 20
-15.72842082940121
 10
26.29729027120337
 20
-15.7652861071699
 10
25.878366660197
 20
-15.80867777382557
 10
25.47665860474203
 20
-15.94477944045822
 10
25.39671916031759
 20
-15.97197860711824
 10
25.30337416034077
 20
-15.99145194044663
 10
25.27134193812658
 20
-16.08705471820041
 10
25.1100872159448
 20
-16.565209718081
 10
24.83844832712367
 20
-17.0043122179713
 10
24.7855669382482
 20
-17.52176666228611
 10
24.76298916047596
 20
-17.74380499556418
 10
24.7008297160471
 20
-17.96323277328689
 10
24.64018721606216
 20
-18.1790974954551
 10
24.56747971608022
 20
-18.43884777316811
 10
24.44587721611074
 20
-18.47172666204887
 10
24.23417527171935
 20
-18.29964166209161
 10
24.11927554952574
 20
-18.20576749544848
 10
24.0474499939882
 20
-18.08208360659059
 10
24.01301888288567
 20
-17.93740943996008
 10
23.96271277178709
 20
-17.72690694001268
 10
23.96684027178607
 20
-17.5150286067324
 10
23.99421582733465
 20
-17.30177444011892
 10
24.00490499399876
 20
-17.21686082902926
 10
24.01887499399529
 20
-17.1283136068291
 10
24.0080094384423
 20
-17.04495221796088
 10
23.9933691606684
 20
-16.93590860687721
 10
23.93516082734963
 20
-16.87544249578115
 10
23.81595721626817
 20
-16.94695055131877
 10
23.70673721629562
 20
-17.01239082908036
 10
23.59046166076912
 20
-17.06562499573359
 10
23.46610749413356
 20
-17.09405888461546
 10
23.16776332754153
 20
-17.16158055126514
 10
22.90952999427276
 20
-17.31055860678351
 10
22.65874027211322
 20
-17.47678749563083
 10
22.22570554999927
 20
-17.76310194000369
 10
21.79626916121765
 20
-18.05403777326433
 10
21.35907166132689
 20
-18.33308499541685
 10
21.10690610583447
 20
-18.49395166204303
 10
20.85297666145356
 20
-18.65570027311393
 10
20.56465138374764
 20
-18.74855138420162
 10
20.49039166154394
 20
-18.77250499530675
 10
20.41151055045278
 20
-18.78869749530272
 10
20.3612044393542
 20
-18.71133332865549
 10
20.31435555047691
 20
-18.63901388422915
 10
20.34363610602533
 20
-18.56683555091385
 10
20.39186082823551
 20
-18.50344138426314
 10
20.48298332821255
 20
-18.38268555095991
 10
20.59548416151783
 20
-18.28362555098452
 10
20.71398221704378
 20
-18.19130360656315
 10
20.92395555032453
 20
-18.02733249549312
 10
21.13565749471593
 20
-17.86558388442254
 10
21.34668916132997
 20
-17.70295332890756
 10
20.93930138365395
 20
-17.84455832887206
 10
20.55724305041626
 20
-18.03145999549209
 10
20.1787830505109
 20
-18.22559360655463
 10
19.80310999504916
 20
-18.41835138428428
 10
19.42775443958766
 20
-18.60712277312599
 10
18.99658943969539
 20
-18.63901388422915
 10
18.90737193971755
 20
-18.64554027311645
 10
18.80040971752197
 20
-18.68999027310541
 10
18.75680638419957
 20
-18.57180971757939
 10
18.71718943976511
 20
-18.46449471760604
 10
18.80591305085415
 20
-18.4009594398443
 10
18.87600999528104
 20
-18.34359777319177
 10
19.06015999523498
 20
-18.19250305100747
 10
19.27598943962535
 20
-18.09397221769872
 10
19.48666832846163
 20
-17.98700999550313
 10
19.76779693950255
 20
-17.84455832887206
 10
20.04529193943299
 20
-17.69434555113185
 10
20.32433916158551
 20
-17.54758999561324
 10
19.8020516617162
 20
-17.70037805113035
 10
19.28890110628892
 20
-17.87348610664273
 10
18.75888777308798
 20
-17.98789193994754
 10
18.60712277312599
 20
-18.02059443993942
 10
18.45384082871977
 20
-18.05971749548507
 10
18.29688999542584
 20
-18.03886832882348
 10
18.1503108287958
 20
-18.01957138438397
 10
18.11432749547151
 20
-17.92156971774186
 10
18.20940110655865
 20
-17.80857499554778
 10
18.27776943987489
 20
-17.72708332890156
 10
18.37372499540644
 20
-17.6826333289126
 10
18.46657610649445
 20
-17.63716027336852
 10
18.97006055081306
 20
-17.39187388454084
 10
19.50854055067834
 20
-17.23220666235867
 10
20.01960971721721
 20
-17.00533527352642
 10
20.07612471720318
 20
-16.98035860686617
 10
20.1326044394113
 20
-16.95485277353896
 10
20.18911943939726
 20
-16.92955860687879
 10
20.07785332831382
 20
-16.9333333291
 10
19.9782641616721
 20
-16.96176721798186
 10
19.87786360614167
 20
-16.98621471797579
 10
19.7474769395076
 20
-17.0175766624123
 10
19.6143033284296
 20
-17.01687110685678
 10
19.48254082846265
 20
-16.99845610686135
 10
19.40277777292708
 20
-16.98692027353099
 10
19.34767388405185
 20
-16.93608499576609
 10
19.32869443961226
 20
-16.85357027356444
 10
19.31236082850524
 20
-16.78329694024866
 10
19.3524716618285
 20
-16.74265694025876
 10
19.41085638403615
 20
-16.72092582915308
 10
19.89663138391485
 20
-16.54058582919819
 10
20.33227666158353
 20
-16.24636916260514
 10
20.83629027256878
 20
-16.10374110708519
 10
21.59490360571229
 20
-15.8892874960277
 10
22.3335144388611
 20
-15.64004999608993
 10
23.01945554980083
 20
-15.22250221841676
 10
23.76339332739262
 20
-14.76964138519633
 10
24.56455166052557
 20
-14.41823944083995
 10
25.44307416030576
 20
-14.29748360753672
 10
26.16792666012475
 20
-14.19792971867285
 10
26.89362582660999
 20
-14.10888860758389
 10
27.61830193753978
 20
-14.00912305205329
 10
28.02879415965933
 20
-13.9522905520674
 10
28.44186165955609
 20
-13.89887999652529
 10
28.83164582612541
 20
-13.74817332989627
 10
29.12794388160687
 20
-13.63362638548042
 10
29.15602499271097
 20
-13.53682416328232
 10
28.99374721497375
 20
-13.27153527445993
 10
28.39603582623425
 20
-12.29296499692674
 10
28.24254221516162
 20
-11.24701416385492
 10
28.56586304841422
 20
-10.14941666412947
 10
29.02457999274394
 20
-8.591373608963327
 10
30.01609721471821
 20
-7.398702498150416
 10
31.25561721440841
 20
-6.402352220621648
 10
31.69764776985335
 20
-6.047528331821497
 10
32.26967693637708
 20
-5.982229165171264
 10
32.8221269362389
 20
-5.915589442965665
 10
33.06483804728937
 20
-5.886273609639399
 10
33.26549804723921
 20
-5.791023609663378
 10
33.38815888054197
 20
-5.570537498607389
 10
33.44756665830474
 20
-5.46459833196725
 10
33.51783999162051
 20
-5.427062776420875
 10
33.62448471381617
 20
-5.502663054179946
 10
33.75451860267248
 20
-5.595020276379157
 10
33.86010499153486
 20
-5.549018054168433
 10
33.96174026928746
 20
-5.449464165304235
 10
34.09473749147626
 20
-5.318865832003768
 10
34.18653026923099
 20
-5.157293609821749
 10
34.29814915809219
 20
-5.010890832080585
 10
34.41597693584045
 20
-4.85619777656363
 10
34.55119665802901
 20
-4.727010554373888
 10
34.74688249131331
 20
-4.678962221052596
 10
34.84558971351095
 20
-4.65776027661324
 10
34.83698193573524
 20
-4.655361387724911
 10
34.88538304683429
 20
-4.678962221052596
 10
35.00028276902758
 20
-4.728562776595654
 10
35.11758138010952
 20
-4.773541943250934
 10
35.22990582452592
 20
-4.828998609903934
 10
35.3764840974707
 20
-4.901353332108113
 10
35.51530214948471
 20
-4.895144443220731
 10
35.65207499108688
 20
-4.807973054353457
 10
35.71945554662584
 20
-4.765075276586584
 10
35.78662353145162
 20
-4.721683609930589
 10
35.85396880751127
 20
-4.678962221052596
 10
36.00555832433198
 20
-4.491884165543686
 10
36.08807213487214
 20
-4.58801610996411
 10
36.1654010217882
 20
-4.678962221052596
 10
36.20089046532723
 20
-4.724611665485559
 10
36.25652351946347
 20
-4.706161387712293
 10
36.29942221314727
 20
-4.700481665491553
 10
36.51853156833464
 20
-4.672400554387453
 10
36.67770489760713
 20
-4.761653332142812
 10
36.80396406105265
 20
-4.933738332099748
 10
36.86199600401658
 20
-5.012619443191231
 10
36.93297489109464
 20
-5.081164165396356
 10
36.99721665741729
 20
-5.155247498711182
 10
37.15896432977362
 20
-5.340596943109446
 10
37.36498654673978
 20
-5.427239165309755
 10
37.60854431830388
 20
-5.427733054198558
 10
37.76461320321112
 20
-5.42843860975408
 10
37.91877708816696
 20
-5.440503609751084
 10
38.07347013977596
 20
-5.461352776412357
 10
38.59780373751021
 20
-5.53180249861701
 10
38.79091428813911
 20
-5.740576387453758
 10
38.84171428684309
 20
-6.268508331766289
 10
38.907542618497
 20
-6.947217498263199
 10
38.7850581771774
 20
-7.612803331430142
 10
38.71683095669579
 20
-8.281669997929498
 10
38.67015845788651
 20
-8.7345308311496
 10
38.5817876268077
 20
-9.187885553258504
 10
38.6422537363762
 20
-9.641804719811889
 10
38.82844984273705
 20
-11.03774638612937
 10
39.55813537967678
 20
-12.08108666364646
 10
40.76029721203189
 20
-12.79507360791246
 10
41.10273756249291
 20
-12.99852055230591
 10
41.47343644192448
 20
-13.16647805226387
 10
41.8896083757515
 20
-13.10481249672381
 10
42.34021141981122
 20
-13.03796110785149
 10
42.79120251941659
 20
-12.97682471897807
 10
43.245933063371
 20
-12.95597555231648
 10
44.07171526452576
 20
-12.91791083010378
 10
44.88028191056417
 20
-12.99386388564029
 10
45.65096022423587
 20
-13.32237055222483
 10
46.33654854007838
 20
-13.61468221881868
 10
46.86155241557331
 20
-14.11523860758231
 10
47.35695823626779
 20
-14.6490619407823
 10
47.52784378746369
 20
-14.83321194073624
 10
47.61430961859109
 20
-15.06936138512157
 10
47.6663443394858
 20
-15.31672916283733
 10
47.72352961580466
 20
-15.5880152738807
 10
47.74487267081571
 20
-15.86364055158977
 10
47.77796322552705
 20
-16.13785471818779
 10
47.83306711301012
 20
-16.59865305140592
 10
48.04321682987098
 20
-17.00515888463754
 10
48.21685404766335
 20
-17.42510555119936
 10
48.73430847890643
 20
-18.67690221755296
 10
49.24110902153243
 20
-19.93279110612802
 10
49.61798151191761
 20
-21.23574055024677
 10
49.72236845369892
 20
-21.59592666126774
 10
49.80022776532746
 20
-21.9588644389548
 10
49.75337761957448
 20
-22.34194582774793
 10
49.66655901067829
 20
-23.0502883275707
 10
49.46812151574085
 20
-23.72980888295634
 10
49.23729902162963
 20
-24.3995574939001
 10
48.88247514179305
 20
-25.42980971586475
 10
48.50211015149697
 20
-26.44990193783192
 10
48.01566488612944
 20
-27.42744915980966
 10
47.93297498801662
 20
-27.59452471532354
 10
47.98673710908967
 20
-27.67686304863631
 10
48.17310960433492
 20
-27.68649388196715
 10
48.34434793329959
 20
-27.6956308264095
 10
48.5034859847952
 20
-27.65135721530942
 10
48.65680320310598
 20
-27.57815582643868
 10
49.22075374427396
 20
-27.30926860428364
 10
49.81469165421311
 20
-27.12480110432978
 10
50.41656454709961
 20
-26.96527499325865
 10
50.81068787037803
 20
-26.86053527106251
 10
51.19687498720079
 20
-26.82885582662608
 10
51.60683673895547
 20
-26.94065110437584
 10
52.3123922765108
 20
-27.13270332655028
 10
53.03551614695126
 20
-27.17923471542733
 10
53.76414335058465
 20
-27.05466888212537
 10
54.24508528275925
 20
-26.97250693770147
 10
54.69053777139481
 20
-26.78250082663759
 10
55.14565637089488
 20
-26.61750666001244
 10
56.19157189976691
 20
-26.23802360455164
 10
57.26782776346109
 20
-26.0192661046063
 10
58.38334489940567
 20
-26.16655082679155
 10
59.44993320552807
 20
-26.30709749342309
 10
60.51172373399509
 20
-26.27538277120881
 10
61.57108009585755
 20
-26.1420680490201
 10
62.81959589733859
 20
-25.9851524935037
 10
64.02122753334908
 20
-25.66387777136167
 10
65.14228472697074
 20
-25.06651916039993
 10
65.57154471601942
 20
-24.83777804934599
 10
66.03629414860711
 20
-24.73974110492604
 10
66.52961858046581
 20
-24.88236916044599
 10
67.12838828741214
 20
-25.05515971595845
 10
67.23930161791584
 20
-25.1648736048198
 10
67.21450134077077
 20
-25.73175221578943
 10
67.20899800757783
 20
-25.86026916020149
 10
67.27270967261909
 20
-25.93847999351529
 10
67.39399466952484
 20
-25.97104138239613
 10
67.46116355670011
 20
-25.98910360461379
 10
67.5300610549424
 20
-25.9984169379447
 10
67.59553660882753
 20
-26.0197599934951
 10
67.88767187915231
 20
-26.11673860458177
 10
68.20908770428564
 20
-26.16464582679202
 10
68.37619853335562
 20
-26.47572527115873
 10
68.37619853335562
 20
-26.54515193780826
 10
68.37619853335562
 20
-26.61422582667971
 10
68.37619853335562
 20
-26.68347610444036
 10
68.33347714555664
 20
-26.77064749330731
 10
68.29971631308463
 20
-26.86452165995044
 10
68.24528270336224
 20
-26.94410832659745
 10
68.10918104016781
 20
-27.14494471543585
 10
68.09298854058092
 20
-27.36059777093766
 10
68.15260798350434
 20
-27.58556415977039
 10
68.22323409281363
 20
-27.85102943748166
 10
68.30144492415164
 20
-28.11455443741588
 10
68.37619853335562
 20
-28.37878499290531
 10
68.37619853335562
 20
-28.54021610397596
 10
68.37619853335562
 20
-28.70161193726911
 10
68.37619853335562
 20
-28.8631841594508
 97
        0
 92
        1
 93
        1
 72
     4
 94
        3
 73
     0
 74
     1
 95
       35
 96
       31
 40
0.0
 40
0.0
 40
0.0
 40
0.0
 40
1.0
 40
1.0
 40
1.0
 40
2.0
 40
2.0
 40
2.0
 40
3.0
 40
3.0
 40
3.0
 40
4.0
 40
4.0
 40
4.0
 40
5.0
 40
5.0
 40
5.0
 40
6.0
 40
6.0
 40
6.0
 40
7.0
 40
7.0
 40
7.0
 40
8.0
 40
8.0
 40
8.0
 40
9.0
 40
9.0
 40
9.0
 40
10.0
 40
10.0
 40
10.0
 40
10.0
 10
51.58824535054088
 20
-39.14662110132451
 10
51.32468507948708
 20
-39.08770721245022
 10
51.09351109833786
 20
-39.04050554579549
 10
50.86441592456286
 20
-38.98434332358729
 10
49.02887791583579
 20
-38.53529249036624
 10
47.21468296211975
 20
-38.0092302682754
 10
45.40292217500829
 20
-37.47283165729851
 10
45.27338332201525
 20
-37.43441415730805
 10
45.21859579082196
 20
-37.46662276841113
 10
45.16243357003255
 20
-37.57721860171689
 10
44.95609385307449
 20
-37.98319526828186
 10
44.7366308031179
 20
-38.38215165707105
 10
44.53198441944998
 20
-38.78865749030299
 10
43.68828110764132
 20
-40.46092998988474
 10
42.84905807349612
 20
-42.13524860057737
 10
42.06254003800631
 20
-43.83503776681874
 10
41.92749670811822
 20
-44.12650276674634
 10
42.04359587182295
 20
-44.33354804447244
 10
42.36398864142683
 20
-44.39489610001259
 10
42.6061705796927
 20
-44.44103943333403
 10
42.83357221151371
 20
-44.37729248890588
 10
43.05680890152929
 20
-44.2991169333696
 10
43.5053658345301
 20
-44.1406138778536
 10
43.91395304632839
 20
-43.90326498902395
 10
44.31495553609796
 20
-43.65212248908728
 10
45.56689443305246
 20
-42.86937915594944
 10
46.73409380771394
 20
-41.96365748950924
 10
47.9522707210801
 20
-41.13170165638394
 10
49.08916763651989
 20
-40.35516721213316
 10
50.22225455205687
 20
-39.56794360121922
 10
51.58824535054088
 20
-39.14662110132451
 97
        0
 75
     0
 76
     1
 98
        0
  0
ENDSEC
  0
SECTION
  2
OBJECTS
  0
DICTIONARY
  5
C
330
0
100
AcDbDictionary
281
     1
  3
ACAD_GROUP
350
D
  3
ACAD_LAYOUT
350
1A
  3
ACAD_MATERIAL
350
3B
  3
ACAD_MLEADERSTYLE
350
65
  3
ACAD_MLINESTYLE
350
17
  3
ACAD_PLOTSETTINGS
350
19
  3
ACAD_PLOTSTYLENAME
350
E
  3
ACAD_TABLESTYLE
350
64
  3
ACAD_VISUALSTYLE
350
2A
  0
SUN
  5
3F
330
29
100
AcDbSun
 90
        1
290
     0
 63
     7
421
 16777215
 40
1.0
291
     1
 91
  2455826
 92
 54000000
292
     0
 70
     2
 71
   256
280
     1
  0
DICTIONARY
  5
D
102
{ACAD_REACTORS
330
C
102
}
330
C
100
AcDbDictionary
281
     1
  0
DICTIONARY
  5
1A
102
{ACAD_REACTORS
330
C
102
}
330
C
100
AcDbDictionary
281
     1
  3
Layout1
350
1E
  3
Layout2
350
26
  3
Model
350
22
  0
DICTIONARY
  5
3B
102
{ACAD_REACTORS
330
C
102
}
330
C
100
AcDbDictionary
281
     1
  3
ByBlock
350
3D
  3
ByLayer
350
3C
  3
Global
350
3E
  0
DICTIONARY
  5
65
102
{ACAD_REACTORS
330
C
102
}
330
C
100
AcDbDictionary
281
     1
  0
DICTIONARY
  5
17
102
{ACAD_REACTORS
330
C
102
}
330
C
100
AcDbDictionary
281
     1
  3
Standard
350
18
  0
DICTIONARY
  5
19
102
{ACAD_REACTORS
330
C
102
}
330
C
100
AcDbDictionary
281
     1
  0
ACDBDICTIONARYWDFLT
  5
E
102
{ACAD_REACTORS
330
C
102
}
330
C
100
AcDbDictionary
281
     1
  3
Normal
350
F
100
AcDbDictionaryWithDefault
340
F
  0
DICTIONARY
  5
64
102
{ACAD_REACTORS
330
C
102
}
330
C
100
AcDbDictionary
281
     1
  0
DICTIONARY
  5
2A
102
{ACAD_REACTORS
330
C
102
}
330
C
100
AcDbDictionary
281
     1
  3
2dWireframe
350
2F
  3
3D Hidden
350
31
  3
3dWireframe
350
30
  3
Basic
350
32
  3
Brighten
350
36
  3
ColorChange
350
3A
  3
Conceptual
350
34
  3
Dim
350
35
  3
Facepattern
350
39
  3
Flat
350
2B
  3
FlatWithEdges
350
2C
  3
Gouraud
350
2D
  3
GouraudWithEdges
350
2E
  3
Linepattern
350
38
  3
Realistic
350
33
  3
Thicken
350
37
  0
LAYOUT
  5
1E
102
{ACAD_REACTORS
330
1A
102
}
330
1A
100
AcDbPlotSettings
  1

  2
none_device
  4

  6

 40
0.0
 41
0.0
 42
0.0
 43
0.0
 44
0.0
 45
0.0
 46
0.0
 47
0.0
 48
0.0
 49
0.0
140
0.0
141
0.0
142
1.0
143
1.0
 70
   688
 72
     0
 73
     0
 74
     5
  7

 75
    16
 76
     0
 77
     2
 78
   300
147
1.0
148
0.0
149
0.0
100
AcDbLayout
  1
Layout1
 70
     1
 71
     1
 10
0.0
 20
0.0
 11
12.0
 21
9.0
 12
0.0
 22
0.0
 32
0.0
 14
1.000000000000000E+20
 24
1.000000000000000E+20
 34
1.000000000000000E+20
 15
-1.000000000000000E+20
 25
-1.000000000000000E+20
 35
-1.000000000000000E+20
146
0.0
 13
0.0
 23
0.0
 33
0.0
 16
1.0
 26
0.0
 36
0.0
 17
0.0
 27
1.0
 37
0.0
 76
     0
330
1B
  0
LAYOUT
  5
26
102
{ACAD_REACTORS
330
1A
102
}
330
1A
100
AcDbPlotSettings
  1

  2
none_device
  4

  6

 40
0.0
 41
0.0
 42
0.0
 43
0.0
 44
0.0
 45
0.0
 46
0.0
 47
0.0
 48
0.0
 49
0.0
140
0.0
141
0.0
142
1.0
143
1.0
 70
   688
 72
     0
 73
     0
 74
     5
  7

 75
    16
 76
     0
 77
     2
 78
   300
147
1.0
148
0.0
149
0.0
100
AcDbLayout
  1
Layout2
 70
     1
 71
     2
 10
0.0
 20
0.0
 11
0.0
 21
0.0
 12
0.0
 22
0.0
 32
0.0
 14
0.0
 24
0.0
 34
0.0
 15
0.0
 25
0.0
 35
0.0
146
0.0
 13
0.0
 23
0.0
 33
0.0
 16
1.0
 26
0.0
 36
0.0
 17
0.0
 27
1.0
 37
0.0
 76
     0
330
23
  0
LAYOUT
  5
22
102
{ACAD_REACTORS
330
1A
102
}
330
1A
100
AcDbPlotSettings
  1

  2
none_device
  4

  6

 40
0.0
 41
0.0
 42
0.0
 43
0.0
 44
0.0
 45
0.0
 46
0.0
 47
0.0
 48
0.0
 49
0.0
140
0.0
141
0.0
142
1.0
143
1.0
 70
  1712
 72
     0
 73
     0
 74
     0
  7

 75
     0
 76
     0
 77
     2
 78
   300
147
1.0
148
0.0
149
0.0
100
AcDbLayout
  1
Model
 70
     1
 71
     0
 10
0.0
 20
0.0
 11
12.0
 21
9.0
 12
0.0
 22
0.0
 32
0.0
 14
1.000000000000000E+20
 24
1.000000000000000E+20
 34
1.000000000000000E+20
 15
-1.000000000000000E+20
 25
-1.000000000000000E+20
 35
-1.000000000000000E+20
146
0.0
 13
0.0
 23
0.0
 33
0.0
 16
1.0
 26
0.0
 36
0.0
 17
0.0
 27
1.0
 37
0.0
 76
     0
330
1F
331
29
  0
MATERIAL
  5
3D
102
{ACAD_REACTORS
330
3B
102
}
330
3B
100
AcDbMaterial
  1
ByBlock
 72
     1
 94
      127
  0
MATERIAL
  5
3C
102
{ACAD_REACTORS
330
3B
102
}
330
3B
100
AcDbMaterial
  1
ByLayer
 72
     1
 94
      127
  0
MATERIAL
  5
3E
102
{ACAD_REACTORS
330
3B
102
}
330
3B
100
AcDbMaterial
  1
Global
 72
     1
 94
      127
  0
MLINESTYLE
  5
18
102
{ACAD_REACTORS
330
17
102
}
330
17
100
AcDbMlineStyle
  2
Standard
 70
     0
  3

 62
   256
 51
90.0
 52
90.0
 71
     2
 49
0.5
 62
   256
  6
BYLAYER
 49
-0.5
 62
   256
  6
BYLAYER
  0
ACDBPLACEHOLDER
  5
F
102
{ACAD_REACTORS
330
E
102
}
330
E
  0
VISUALSTYLE
  5
2F
102
{ACAD_REACTORS
330
2A
102
}
102
{ACAD_XDICTIONARY
360
4C
102
}
330
2A
100
AcDbVisualStyle
  2
2dWireframe
 70
     4
 71
     0
 72
     2
 73
     0
 90
        0
 40
-0.6
 41
-30.0
 62
     5
 63
     7
421
 16777215
 74
     1
 91
        4
 64
     7
 65
   257
 75
     1
175
     1
 42
1.0
 92
        0
 66
   257
 43
1.0
 76
     1
 77
     6
 78
     2
 67
     7
 79
     5
170
     0
171
     0
290
     0
174
     0
 93
        1
 44
0.0
173
     0
291
     0
 45
0.0
  0
VISUALSTYLE
  5
31
102
{ACAD_REACTORS
330
2A
102
}
102
{ACAD_XDICTIONARY
360
50
102
}
330
2A
100
AcDbVisualStyle
  2
3D Hidden
 70
     6
 71
     1
 72
     2
 73
     2
 90
        0
 40
-0.6
 41
-30.0
 62
     5
 63
     7
421
 16777215
 74
     2
 91
        2
 64
     7
 65
   257
 75
     2
175
     1
 42
40.0
 92
        0
 66
   257
 43
1.0
 76
     1
 77
     6
 78
     2
 67
     7
 79
     3
170
     0
171
     0
290
     0
174
     0
 93
        1
 44
0.0
173
     0
291
     0
 45
0.0
  0
VISUALSTYLE
  5
30
102
{ACAD_REACTORS
330
2A
102
}
102
{ACAD_XDICTIONARY
360
4E
102
}
330
2A
100
AcDbVisualStyle
  2
3dWireframe
 70
     5
 71
     0
 72
     2
 73
     0
 90
        0
 40
-0.6
 41
-30.0
 62
     5
 63
     7
421
 16777215
 74
     1
 91
        4
 64
     7
 65
   257
 75
     1
175
     1
 42
1.0
 92
        0
 66
   257
 43
1.0
 76
     1
 77
     6
 78
     2
 67
     7
 79
     5
170
     0
171
     0
290
     0
174
     0
 93
        1
 44
0.0
173
     0
291
     0
 45
0.0
  0
VISUALSTYLE
  5
32
102
{ACAD_REACTORS
330
2A
102
}
102
{ACAD_XDICTIONARY
360
52
102
}
330
2A
100
AcDbVisualStyle
  2
Basic
 70
     7
 71
     1
 72
     0
 73
     1
 90
        0
 40
-0.6
 41
-30.0
 62
     5
 63
     7
421
 16777215
 74
     0
 91
        4
 64
     7
 65
   257
 75
     1
175
     1
 42
1.0
 92
        8
 66
     7
 43
1.0
 76
     1
 77
     6
 78
     2
 67
     7
 79
     5
170
     0
171
     0
290
     0
174
     0
 93
        1
 44
0.0
173
     0
291
     1
 45
0.0
  0
VISUALSTYLE
  5
36
102
{ACAD_REACTORS
330
2A
102
}
102
{ACAD_XDICTIONARY
360
5A
102
}
330
2A
100
AcDbVisualStyle
  2
Brighten
 70
    12
 71
     2
 72
     2
 73
     0
 90
        0
 40
-0.6
 41
-30.0
 62
     5
 63
     7
421
 16777215
 74
     1
 91
        4
 64
     7
 65
   257
 75
     1
175
     1
 42
1.0
 92
        8
 66
     7
 43
1.0
 76
     1
 77
     6
 78
     2
 67
     7
 79
     5
170
     0
171
     0
290
     0
174
     0
 93
        1
 44
50.0
173
     0
291
     1
 45
0.0
  0
VISUALSTYLE
  5
3A
102
{ACAD_REACTORS
330
2A
102
}
102
{ACAD_XDICTIONARY
360
62
102
}
330
2A
100
AcDbVisualStyle
  2
ColorChange
 70
    16
 71
     2
 72
     2
 73
     3
 90
        0
 40
-0.6
 41
-30.0
 62
     5
 63
     8
421
  8421504
 74
     1
 91
        4
 64
     7
 65
   257
 75
     1
175
     1
 42
1.0
 92
        8
 66
     8
424
  8421504
 43
1.0
 76
     1
 77
     6
 78
     2
 67
     7
 79
     5
170
     0
171
     0
290
     0
174
     0
 93
        1
 44
0.0
173
     0
291
     1
 45
0.0
  0
VISUALSTYLE
  5
34
102
{ACAD_REACTORS
330
2A
102
}
102
{ACAD_XDICTIONARY
360
56
102
}
330
2A
100
AcDbVisualStyle
  2
Conceptual
 70
     9
 71
     3
 72
     2
 73
     0
 90
        0
 40
-0.6
 41
-30.0
 62
     5
 63
     7
421
 16777215
 74
     2
 91
        2
 64
     7
 65
   257
 75
     1
175
     1
 42
40.0
 92
        8
 66
     7
 43
1.0
 76
     1
 77
     6
 78
     2
 67
     7
 79
     3
170
     0
171
     0
290
     0
174
     0
 93
        1
 44
0.0
173
     0
291
     0
 45
0.0
  0
VISUALSTYLE
  5
35
102
{ACAD_REACTORS
330
2A
102
}
102
{ACAD_XDICTIONARY
360
58
102
}
330
2A
100
AcDbVisualStyle
  2
Dim
 70
    11
 71
     2
 72
     2
 73
     0
 90
        0
 40
-0.6
 41
-30.0
 62
     5
 63
     7
421
 16777215
 74
     1
 91
        4
 64
     7
 65
   257
 75
     1
175
     1
 42
1.0
 92
        8
 66
     7
 43
1.0
 76
     1
 77
     6
 78
     2
 67
     7
 79
     5
170
     0
171
     0
290
     0
174
     0
 93
        1
 44
-50.0
173
     0
291
     1
 45
0.0
  0
VISUALSTYLE
  5
39
102
{ACAD_REACTORS
330
2A
102
}
102
{ACAD_XDICTIONARY
360
60
102
}
330
2A
100
AcDbVisualStyle
  2
Facepattern
 70
    15
 71
     2
 72
     2
 73
     0
 90
        0
 40
-0.6
 41
-30.0
 62
     5
 63
     7
421
 16777215
 74
     1
 91
        4
 64
     7
 65
   257
 75
     1
175
     1
 42
1.0
 92
        8
 66
     7
 43
1.0
 76
     1
 77
     6
 78
     2
 67
     7
 79
     5
170
     0
171
     0
290
     0
174
     0
 93
        1
 44
0.0
173
     0
291
     1
 45
0.0
  0
VISUALSTYLE
  5
2B
102
{ACAD_REACTORS
330
2A
102
}
102
{ACAD_XDICTIONARY
360
44
102
}
330
2A
100
AcDbVisualStyle
  2
Flat
 70
     0
 71
     2
 72
     1
 73
     1
 90
        2
 40
-0.6
 41
30.0
 62
     5
 63
     7
421
 16777215
 74
     0
 91
        4
 64
     7
 65
   257
 75
     1
175
     1
 42
1.0
 92
        8
 66
     7
 43
1.0
 76
     1
 77
     6
 78
     2
 67
     7
 79
     5
170
     0
171
     0
290
     0
174
     0
 93
       13
 44
0.0
173
     0
291
     1
 45
0.0
  0
VISUALSTYLE
  5
2C
102
{ACAD_REACTORS
330
2A
102
}
102
{ACAD_XDICTIONARY
360
46
102
}
330
2A
100
AcDbVisualStyle
  2
FlatWithEdges
 70
     1
 71
     2
 72
     1
 73
     1
 90
        2
 40
-0.6
 41
30.0
 62
     5
 63
     7
421
 16777215
 74
     1
 91
        4
 64
     7
 65
   257
 75
     1
175
     1
 42
1.0
 92
        0
 66
   257
 43
1.0
 76
     1
 77
     6
 78
     2
 67
     7
 79
     5
170
     0
171
     0
290
     0
174
     0
 93
       13
 44
0.0
173
     0
291
     1
 45
0.0
  0
VISUALSTYLE
  5
2D
102
{ACAD_REACTORS
330
2A
102
}
102
{ACAD_XDICTIONARY
360
48
102
}
330
2A
100
AcDbVisualStyle
  2
Gouraud
 70
     2
 71
     2
 72
     2
 73
     1
 90
        2
 40
-0.6
 41
30.0
 62
     5
 63
     7
421
 16777215
 74
     0
 91
        4
 64
     7
 65
   257
 75
     1
175
     1
 42
1.0
 92
        0
 66
     7
 43
1.0
 76
     1
 77
     6
 78
     2
 67
     7
 79
     5
170
     0
171
     0
290
     0
174
     0
 93
       13
 44
0.0
173
     0
291
     1
 45
0.0
  0
VISUALSTYLE
  5
2E
102
{ACAD_REACTORS
330
2A
102
}
102
{ACAD_XDICTIONARY
360
4A
102
}
330
2A
100
AcDbVisualStyle
  2
GouraudWithEdges
 70
     3
 71
     2
 72
     2
 73
     1
 90
        2
 40
-0.6
 41
30.0
 62
     5
 63
     7
421
 16777215
 74
     1
 91
        4
 64
     7
 65
   257
 75
     1
175
     1
 42
1.0
 92
        0
 66
   257
 43
1.0
 76
     1
 77
     6
 78
     2
 67
     7
 79
     5
170
     0
171
     0
290
     0
174
     0
 93
       13
 44
0.0
173
     0
291
     1
 45
0.0
  0
VISUALSTYLE
  5
38
102
{ACAD_REACTORS
330
2A
102
}
102
{ACAD_XDICTIONARY
360
5E
102
}
330
2A
100
AcDbVisualStyle
  2
Linepattern
 70
    14
 71
     2
 72
     2
 73
     0
 90
        0
 40
-0.6
 41
-30.0
 62
     5
 63
     7
421
 16777215
 74
     1
 91
        4
 64
     7
 65
   257
 75
     7
175
     7
 42
1.0
 92
        8
 66
     7
 43
1.0
 76
     1
 77
     6
 78
     2
 67
     7
 79
     5
170
     0
171
     0
290
     0
174
     0
 93
        1
 44
0.0
173
     0
291
     1
 45
0.0
  0
VISUALSTYLE
  5
33
102
{ACAD_REACTORS
330
2A
102
}
102
{ACAD_XDICTIONARY
360
54
102
}
330
2A
100
AcDbVisualStyle
  2
Realistic
 70
     8
 71
     2
 72
     2
 73
     0
 90
        0
 40
-0.6
 41
-30.0
 62
     5
 63
     7
421
 16777215
 74
     1
 91
        0
 64
     7
 65
   257
 75
     1
175
     1
 42
1.0
 92
        8
 66
     8
424
  7895160
 43
1.0
 76
     1
 77
     6
 78
     2
 67
     7
 79
     5
170
     0
171
     0
290
     0
174
     0
 93
       13
 44
0.0
173
     0
291
     0
 45
0.0
  0
VISUALSTYLE
  5
37
102
{ACAD_REACTORS
330
2A
102
}
102
{ACAD_XDICTIONARY
360
5C
102
}
330
2A
100
AcDbVisualStyle
  2
Thicken
 70
    13
 71
     2
 72
     2
 73
     0
 90
        0
 40
-0.6
 41
-30.0
 62
     5
 63
     7
421
 16777215
 74
     1
 91
        4
 64
     7
 65
   257
 75
     1
175
     1
 42
1.0
 92
       12
 66
     7
 43
1.0
 76
     1
 77
     6
 78
     2
 67
     7
 79
     5
170
     0
171
     0
290
     0
174
     0
 93
        1
 44
0.0
173
     0
291
     1
 45
0.0
  0
DICTIONARY
  5
4C
330
2F
100
AcDbDictionary
280
     1
281
     1
  3
ACAD_XREC_ROUNDTRIP
360
4D
  0
DICTIONARY
  5
50
330
31
100
AcDbDictionary
280
     1
281
     1
  3
ACAD_XREC_ROUNDTRIP
360
51
  0
DICTIONARY
  5
4E
330
30
100
AcDbDictionary
280
     1
281
     1
  3
ACAD_XREC_ROUNDTRIP
360
4F
  0
DICTIONARY
  5
52
330
32
100
AcDbDictionary
280
     1
281
     1
  3
ACAD_XREC_ROUNDTRIP
360
53
  0
DICTIONARY
  5
5A
330
36
100
AcDbDictionary
280
     1
281
     1
  3
ACAD_XREC_ROUNDTRIP
360
5B
  0
DICTIONARY
  5
62
330
3A
100
AcDbDictionary
280
     1
281
     1
  3
ACAD_XREC_ROUNDTRIP
360
63
  0
DICTIONARY
  5
56
330
34
100
AcDbDictionary
280
     1
281
     1
  3
ACAD_XREC_ROUNDTRIP
360
57
  0
DICTIONARY
  5
58
330
35
100
AcDbDictionary
280
     1
281
     1
  3
ACAD_XREC_ROUNDTRIP
360
59
  0
DICTIONARY
  5
60
330
39
100
AcDbDictionary
280
     1
281
     1
  3
ACAD_XREC_ROUNDTRIP
360
61
  0
DICTIONARY
  5
44
330
2B
100
AcDbDictionary
280
     1
281
     1
  3
ACAD_XREC_ROUNDTRIP
360
45
  0
DICTIONARY
  5
46
330
2C
100
AcDbDictionary
280
     1
281
     1
  3
ACAD_XREC_ROUNDTRIP
360
47
  0
DICTIONARY
  5
48
330
2D
100
AcDbDictionary
280
     1
281
     1
  3
ACAD_XREC_ROUNDTRIP
360
49
  0
DICTIONARY
  5
4A
330
2E
100
AcDbDictionary
280
     1
281
     1
  3
ACAD_XREC_ROUNDTRIP
360
4B
  0
DICTIONARY
  5
5E
330
38
100
AcDbDictionary
280
     1
281
     1
  3
ACAD_XREC_ROUNDTRIP
360
5F
  0
DICTIONARY
  5
54
330
33
100
AcDbDictionary
280
     1
281
     1
  3
ACAD_XREC_ROUNDTRIP
360
55
  0
DICTIONARY
  5
5C
330
37
100
AcDbDictionary
280
     1
281
     1
  3
ACAD_XREC_ROUNDTRIP
360
5D
  0
XRECORD
  5
4D
102
{ACAD_REACTORS
330
4C
102
}
330
4C
100
AcDbXrecord
280
     1
102
RTVSPropertyOp0
 70
     1
102
RTVSPropertyOp1
 70
     1
102
RTVSPropertyOp2
 70
     1
102
RTVSPropertyOp3
 70
     1
102
RTVSPropertyOp4
 70
     1
102
RTVSPropertyOp5
 70
     1
102
RTVSPropertyOp6
 70
     1
102
RTVSPropertyOp7
 70
     1
102
RTVSPropertyOp8
 70
     1
102
RTVSPropertyOp9
 70
     1
102
RTVSPropertyOp10
 70
     1
102
RTVSPropertyOp11
 70
     1
102
RTVSPropertyOp12
 70
     1
102
RTVSPropertyOp13
 70
     1
102
RTVSPropertyOp14
 70
     1
102
RTVSPropertyOp15
 70
     1
102
RTVSPropertyOp16
 70
     1
102
RTVSPropertyOp17
 70
     1
102
RTVSPropertyOp18
 70
     1
102
RTVSPropertyOp19
 70
     1
102
RTVSPropertyOp20
 70
     1
102
RTVSPropertyOp21
 70
     1
102
RTVSPropertyOp22
 70
     1
102
RTVSPropertyOp23
 70
     1
102
RTVSPropertyOp24
 70
     1
102
RTVSPropertyOp25
 70
     1
102
RTVSPropertyOp26
 70
     1
102
RTVSPropertyOp27
 70
     1
102
RTVSPropertyOp28
 70
     1
102
RTVSPropertyOp29
 70
     1
102
RTVSPropertyOp30
 70
     1
102
RTVSPropertyOp31
 70
     1
102
RTVSPropertyOp32
 70
     1
  0
XRECORD
  5
51
102
{ACAD_REACTORS
330
50
102
}
330
50
100
AcDbXrecord
280
     1
102
RTVSPropertyOp0
 70
     1
102
RTVSPropertyOp1
 70
     1
102
RTVSPropertyOp2
 70
     1
102
RTVSPropertyOp3
 70
     1
102
RTVSPropertyOp4
 70
     1
102
RTVSPropertyOp5
 70
     1
102
RTVSPropertyOp6
 70
     1
102
RTVSPropertyOp7
 70
     1
102
RTVSPropertyOp8
 70
     1
102
RTVSPropertyOp9
 70
     1
102
RTVSPropertyOp10
 70
     1
102
RTVSPropertyOp11
 70
     1
102
RTVSPropertyOp12
 70
     1
102
RTVSPropertyOp13
 70
     1
102
RTVSPropertyOp14
 70
     1
102
RTVSPropertyOp15
 70
     1
102
RTVSPropertyOp16
 70
     1
102
RTVSPropertyOp17
 70
     1
102
RTVSPropertyOp18
 70
     1
102
RTVSPropertyOp19
 70
     1
102
RTVSPropertyOp20
 70
     1
102
RTVSPropertyOp21
 70
     1
102
RTVSPropertyOp22
 70
     1
102
RTVSPropertyOp23
 70
     1
102
RTVSPropertyOp24
 70
     1
102
RTVSPropertyOp25
 70
     1
102
RTVSPropertyOp26
 70
     1
102
RTVSPropertyOp27
 70
     1
102
RTVSPropertyOp28
 70
     1
102
RTVSPropertyOp29
 70
     1
102
RTVSPropertyOp30
 70
     1
102
RTVSPropertyOp31
 70
     1
102
RTVSPropertyOp32
 70
     1
  0
XRECORD
  5
4F
102
{ACAD_REACTORS
330
4E
102
}
330
4E
100
AcDbXrecord
280
     1
102
RTVSPropertyOp0
 70
     1
102
RTVSPropertyOp1
 70
     1
102
RTVSPropertyOp2
 70
     1
102
RTVSPropertyOp3
 70
     1
102
RTVSPropertyOp4
 70
     1
102
RTVSPropertyOp5
 70
     1
102
RTVSPropertyOp6
 70
     1
102
RTVSPropertyOp7
 70
     1
102
RTVSPropertyOp8
 70
     1
102
RTVSPropertyOp9
 70
     1
102
RTVSPropertyOp10
 70
     1
102
RTVSPropertyOp11
 70
     1
102
RTVSPropertyOp12
 70
     1
102
RTVSPropertyOp13
 70
     1
102
RTVSPropertyOp14
 70
     1
102
RTVSPropertyOp15
 70
     1
102
RTVSPropertyOp16
 70
     1
102
RTVSPropertyOp17
 70
     1
102
RTVSPropertyOp18
 70
     1
102
RTVSPropertyOp19
 70
     1
102
RTVSPropertyOp20
 70
     1
102
RTVSPropertyOp21
 70
     1
102
RTVSPropertyOp22
 70
     1
102
RTVSPropertyOp23
 70
     1
102
RTVSPropertyOp24
 70
     1
102
RTVSPropertyOp25
 70
     1
102
RTVSPropertyOp26
 70
     1
102
RTVSPropertyOp27
 70
     1
102
RTVSPropertyOp28
 70
     1
102
RTVSPropertyOp29
 70
     1
102
RTVSPropertyOp30
 70
     1
102
RTVSPropertyOp31
 70
     1
102
RTVSPropertyOp32
 70
     1
  0
XRECORD
  5
53
102
{ACAD_REACTORS
330
52
102
}
330
52
100
AcDbXrecord
280
     1
102
RTVSPropertyOp0
 70
     1
102
RTVSPropertyOp1
 70
     1
102
RTVSPropertyOp2
 70
     1
102
RTVSPropertyOp3
 70
     1
102
RTVSPropertyOp4
 70
     1
102
RTVSPropertyOp5
 70
     1
102
RTVSPropertyOp6
 70
     1
102
RTVSPropertyOp7
 70
     1
102
RTVSPropertyOp8
 70
     1
102
RTVSPropertyOp9
 70
     1
102
RTVSPropertyOp10
 70
     1
102
RTVSPropertyOp11
 70
     1
102
RTVSPropertyOp12
 70
     1
102
RTVSPropertyOp13
 70
     1
102
RTVSPropertyOp14
 70
     1
102
RTVSPropertyOp15
 70
     1
102
RTVSPropertyOp16
 70
     1
102
RTVSPropertyOp17
 70
     1
102
RTVSPropertyOp18
 70
     1
102
RTVSPropertyOp19
 70
     1
102
RTVSPropertyOp20
 70
     1
102
RTVSPropertyOp21
 70
     1
102
RTVSPropertyOp22
 70
     1
102
RTVSPropertyOp23
 70
     1
102
RTVSPropertyOp24
 70
     1
102
RTVSPropertyOp25
 70
     1
102
RTVSPropertyOp26
 70
     1
102
RTVSPropertyOp27
 70
     1
102
RTVSPropertyOp28
 70
     1
102
RTVSPropertyOp29
 70
     1
102
RTVSPropertyOp30
 70
     1
102
RTVSPropertyOp31
 70
     1
102
RTVSPropertyOp32
 70
     1
  0
XRECORD
  5
5B
102
{ACAD_REACTORS
330
5A
102
}
330
5A
100
AcDbXrecord
280
     1
102
RTVSPropertyOp0
 70
     1
102
RTVSPropertyOp1
 70
     1
102
RTVSPropertyOp2
 70
     1
102
RTVSPropertyOp3
 70
     1
102
RTVSPropertyOp4
 70
     1
102
RTVSPropertyOp5
 70
     1
102
RTVSPropertyOp6
 70
     1
102
RTVSPropertyOp7
 70
     1
102
RTVSPropertyOp8
 70
     1
102
RTVSPropertyOp9
 70
     1
102
RTVSPropertyOp10
 70
     1
102
RTVSPropertyOp11
 70
     1
102
RTVSPropertyOp12
 70
     1
102
RTVSPropertyOp13
 70
     1
102
RTVSPropertyOp14
 70
     1
102
RTVSPropertyOp15
 70
     1
102
RTVSPropertyOp16
 70
     1
102
RTVSPropertyOp17
 70
     1
102
RTVSPropertyOp18
 70
     1
102
RTVSPropertyOp19
 70
     1
102
RTVSPropertyOp20
 70
     1
102
RTVSPropertyOp21
 70
     1
102
RTVSPropertyOp22
 70
     1
102
RTVSPropertyOp23
 70
     1
102
RTVSPropertyOp24
 70
     1
102
RTVSPropertyOp25
 70
     1
102
RTVSPropertyOp26
 70
     1
102
RTVSPropertyOp27
 70
     1
102
RTVSPropertyOp28
 70
     1
102
RTVSPropertyOp29
 70
     1
102
RTVSPropertyOp30
 70
     1
102
RTVSPropertyOp31
 70
     1
102
RTVSPropertyOp32
 70
     1
  0
XRECORD
  5
63
102
{ACAD_REACTORS
330
62
102
}
330
62
100
AcDbXrecord
280
     1
102
RTVSPropertyOp0
 70
     1
102
RTVSPropertyOp1
 70
     1
102
RTVSPropertyOp2
 70
     1
102
RTVSPropertyOp3
 70
     1
102
RTVSPropertyOp4
 70
     1
102
RTVSPropertyOp5
 70
     1
102
RTVSPropertyOp6
 70
     1
102
RTVSPropertyOp7
 70
     1
102
RTVSPropertyOp8
 70
     1
102
RTVSPropertyOp9
 70
     1
102
RTVSPropertyOp10
 70
     1
102
RTVSPropertyOp11
 70
     1
102
RTVSPropertyOp12
 70
     1
102
RTVSPropertyOp13
 70
     1
102
RTVSPropertyOp14
 70
     1
102
RTVSPropertyOp15
 70
     1
102
RTVSPropertyOp16
 70
     1
102
RTVSPropertyOp17
 70
     1
102
RTVSPropertyOp18
 70
     1
102
RTVSPropertyOp19
 70
     1
102
RTVSPropertyOp20
 70
     1
102
RTVSPropertyOp21
 70
     1
102
RTVSPropertyOp22
 70
     1
102
RTVSPropertyOp23
 70
     1
102
RTVSPropertyOp24
 70
     1
102
RTVSPropertyOp25
 70
     1
102
RTVSPropertyOp26
 70
     1
102
RTVSPropertyOp27
 70
     1
102
RTVSPropertyOp28
 70
     1
102
RTVSPropertyOp29
 70
     1
102
RTVSPropertyOp30
 70
     1
102
RTVSPropertyOp31
 70
     1
102
RTVSPropertyOp32
 70
     1
  0
XRECORD
  5
57
102
{ACAD_REACTORS
330
56
102
}
330
56
100
AcDbXrecord
280
     1
102
RTVSPropertyOp0
 70
     1
102
RTVSPropertyOp1
 70
     1
102
RTVSPropertyOp2
 70
     1
102
RTVSPropertyOp3
 70
     1
102
RTVSPropertyOp4
 70
     1
102
RTVSPropertyOp5
 70
     1
102
RTVSPropertyOp6
 70
     1
102
RTVSPropertyOp7
 70
     1
102
RTVSPropertyOp8
 70
     1
102
RTVSPropertyOp9
 70
     1
102
RTVSPropertyOp10
 70
     1
102
RTVSPropertyOp11
 70
     1
102
RTVSPropertyOp12
 70
     1
102
RTVSPropertyOp13
 70
     1
102
RTVSPropertyOp14
 70
     1
102
RTVSPropertyOp15
 70
     1
102
RTVSPropertyOp16
 70
     1
102
RTVSPropertyOp17
 70
     1
102
RTVSPropertyOp18
 70
     1
102
RTVSPropertyOp19
 70
     1
102
RTVSPropertyOp20
 70
     1
102
RTVSPropertyOp21
 70
     1
102
RTVSPropertyOp22
 70
     1
102
RTVSPropertyOp23
 70
     1
102
RTVSPropertyOp24
 70
     1
102
RTVSPropertyOp25
 70
     1
102
RTVSPropertyOp26
 70
     1
102
RTVSPropertyOp27
 70
     1
102
RTVSPropertyOp28
 70
     1
102
RTVSPropertyOp29
 70
     1
102
RTVSPropertyOp30
 70
     1
102
RTVSPropertyOp31
 70
     1
102
RTVSPropertyOp32
 70
     1
  0
XRECORD
  5
59
102
{ACAD_REACTORS
330
58
102
}
330
58
100
AcDbXrecord
280
     1
102
RTVSPropertyOp0
 70
     1
102
RTVSPropertyOp1
 70
     1
102
RTVSPropertyOp2
 70
     1
102
RTVSPropertyOp3
 70
     1
102
RTVSPropertyOp4
 70
     1
102
RTVSPropertyOp5
 70
     1
102
RTVSPropertyOp6
 70
     1
102
RTVSPropertyOp7
 70
     1
102
RTVSPropertyOp8
 70
     1
102
RTVSPropertyOp9
 70
     1
102
RTVSPropertyOp10
 70
     1
102
RTVSPropertyOp11
 70
     1
102
RTVSPropertyOp12
 70
     1
102
RTVSPropertyOp13
 70
     1
102
RTVSPropertyOp14
 70
     1
102
RTVSPropertyOp15
 70
     1
102
RTVSPropertyOp16
 70
     1
102
RTVSPropertyOp17
 70
     1
102
RTVSPropertyOp18
 70
     1
102
RTVSPropertyOp19
 70
     1
102
RTVSPropertyOp20
 70
     1
102
RTVSPropertyOp21
 70
     1
102
RTVSPropertyOp22
 70
     1
102
RTVSPropertyOp23
 70
     1
102
RTVSPropertyOp24
 70
     1
102
RTVSPropertyOp25
 70
     1
102
RTVSPropertyOp26
 70
     1
102
RTVSPropertyOp27
 70
     1
102
RTVSPropertyOp28
 70
     1
102
RTVSPropertyOp29
 70
     1
102
RTVSPropertyOp30
 70
     1
102
RTVSPropertyOp31
 70
     1
102
RTVSPropertyOp32
 70
     1
  0
XRECORD
  5
61
102
{ACAD_REACTORS
330
60
102
}
330
60
100
AcDbXrecord
280
     1
102
RTVSPropertyOp0
 70
     1
102
RTVSPropertyOp1
 70
     1
102
RTVSPropertyOp2
 70
     1
102
RTVSPropertyOp3
 70
     1
102
RTVSPropertyOp4
 70
     1
102
RTVSPropertyOp5
 70
     1
102
RTVSPropertyOp6
 70
     1
102
RTVSPropertyOp7
 70
     1
102
RTVSPropertyOp8
 70
     1
102
RTVSPropertyOp9
 70
     1
102
RTVSPropertyOp10
 70
     1
102
RTVSPropertyOp11
 70
     1
102
RTVSPropertyOp12
 70
     1
102
RTVSPropertyOp13
 70
     1
102
RTVSPropertyOp14
 70
     1
102
RTVSPropertyOp15
 70
     1
102
RTVSPropertyOp16
 70
     1
102
RTVSPropertyOp17
 70
     1
102
RTVSPropertyOp18
 70
     1
102
RTVSPropertyOp19
 70
     1
102
RTVSPropertyOp20
 70
     1
102
RTVSPropertyOp21
 70
     1
102
RTVSPropertyOp22
 70
     1
102
RTVSPropertyOp23
 70
     1
102
RTVSPropertyOp24
 70
     1
102
RTVSPropertyOp25
 70
     1
102
RTVSPropertyOp26
 70
     1
102
RTVSPropertyOp27
 70
     1
102
RTVSPropertyOp28
 70
     1
102
RTVSPropertyOp29
 70
     1
102
RTVSPropertyOp30
 70
     1
102
RTVSPropertyOp31
 70
     1
102
RTVSPropertyOp32
 70
     1
  0
XRECORD
  5
45
102
{ACAD_REACTORS
330
44
102
}
330
44
100
AcDbXrecord
280
     1
102
RTVSPropertyOp0
 70
     1
102
RTVSPropertyOp1
 70
     1
102
RTVSPropertyOp2
 70
     1
102
RTVSPropertyOp3
 70
     1
102
RTVSPropertyOp4
 70
     1
102
RTVSPropertyOp5
 70
     1
102
RTVSPropertyOp6
 70
     1
102
RTVSPropertyOp7
 70
     1
102
RTVSPropertyOp8
 70
     1
102
RTVSPropertyOp9
 70
     1
102
RTVSPropertyOp10
 70
     1
102
RTVSPropertyOp11
 70
     1
102
RTVSPropertyOp12
 70
     1
102
RTVSPropertyOp13
 70
     1
102
RTVSPropertyOp14
 70
     1
102
RTVSPropertyOp15
 70
     1
102
RTVSPropertyOp16
 70
     1
102
RTVSPropertyOp17
 70
     1
102
RTVSPropertyOp18
 70
     1
102
RTVSPropertyOp19
 70
     1
102
RTVSPropertyOp20
 70
     1
102
RTVSPropertyOp21
 70
     1
102
RTVSPropertyOp22
 70
     1
102
RTVSPropertyOp23
 70
     1
102
RTVSPropertyOp24
 70
     1
102
RTVSPropertyOp25
 70
     1
102
RTVSPropertyOp26
 70
     1
102
RTVSPropertyOp27
 70
     1
102
RTVSPropertyOp28
 70
     1
102
RTVSPropertyOp29
 70
     1
102
RTVSPropertyOp30
 70
     1
102
RTVSPropertyOp31
 70
     1
102
RTVSPropertyOp32
 70
     1
  0
XRECORD
  5
47
102
{ACAD_REACTORS
330
46
102
}
330
46
100
AcDbXrecord
280
     1
102
RTVSPropertyOp0
 70
     1
102
RTVSPropertyOp1
 70
     1
102
RTVSPropertyOp2
 70
     1
102
RTVSPropertyOp3
 70
     1
102
RTVSPropertyOp4
 70
     1
102
RTVSPropertyOp5
 70
     1
102
RTVSPropertyOp6
 70
     1
102
RTVSPropertyOp7
 70
     1
102
RTVSPropertyOp8
 70
     1
102
RTVSPropertyOp9
 70
     1
102
RTVSPropertyOp10
 70
     1
102
RTVSPropertyOp11
 70
     1
102
RTVSPropertyOp12
 70
     1
102
RTVSPropertyOp13
 70
     1
102
RTVSPropertyOp14
 70
     1
102
RTVSPropertyOp15
 70
     1
102
RTVSPropertyOp16
 70
     1
102
RTVSPropertyOp17
 70
     1
102
RTVSPropertyOp18
 70
     1
102
RTVSPropertyOp19
 70
     1
102
RTVSPropertyOp20
 70
     1
102
RTVSPropertyOp21
 70
     1
102
RTVSPropertyOp22
 70
     1
102
RTVSPropertyOp23
 70
     1
102
RTVSPropertyOp24
 70
     1
102
RTVSPropertyOp25
 70
     1
102
RTVSPropertyOp26
 70
     1
102
RTVSPropertyOp27
 70
     1
102
RTVSPropertyOp28
 70
     1
102
RTVSPropertyOp29
 70
     1
102
RTVSPropertyOp30
 70
     1
102
RTVSPropertyOp31
 70
     1
102
RTVSPropertyOp32
 70
     1
  0
XRECORD
  5
49
102
{ACAD_REACTORS
330
48
102
}
330
48
100
AcDbXrecord
280
     1
102
RTVSPropertyOp0
 70
     1
102
RTVSPropertyOp1
 70
     1
102
RTVSPropertyOp2
 70
     1
102
RTVSPropertyOp3
 70
     1
102
RTVSPropertyOp4
 70
     1
102
RTVSPropertyOp5
 70
     1
102
RTVSPropertyOp6
 70
     1
102
RTVSPropertyOp7
 70
     1
102
RTVSPropertyOp8
 70
     1
102
RTVSPropertyOp9
 70
     1
102
RTVSPropertyOp10
 70
     1
102
RTVSPropertyOp11
 70
     1
102
RTVSPropertyOp12
 70
     1
102
RTVSPropertyOp13
 70
     1
102
RTVSPropertyOp14
 70
     1
102
RTVSPropertyOp15
 70
     1
102
RTVSPropertyOp16
 70
     1
102
RTVSPropertyOp17
 70
     1
102
RTVSPropertyOp18
 70
     1
102
RTVSPropertyOp19
 70
     1
102
RTVSPropertyOp20
 70
     1
102
RTVSPropertyOp21
 70
     1
102
RTVSPropertyOp22
 70
     1
102
RTVSPropertyOp23
 70
     1
102
RTVSPropertyOp24
 70
     1
102
RTVSPropertyOp25
 70
     1
102
RTVSPropertyOp26
 70
     1
102
RTVSPropertyOp27
 70
     1
102
RTVSPropertyOp28
 70
     1
102
RTVSPropertyOp29
 70
     1
102
RTVSPropertyOp30
 70
     1
102
RTVSPropertyOp31
 70
     1
102
RTVSPropertyOp32
 70
     1
  0
XRECORD
  5
4B
102
{ACAD_REACTORS
330
4A
102
}
330
4A
100
AcDbXrecord
280
     1
102
RTVSPropertyOp0
 70
     1
102
RTVSPropertyOp1
 70
     1
102
RTVSPropertyOp2
 70
     1
102
RTVSPropertyOp3
 70
     1
102
RTVSPropertyOp4
 70
     1
102
RTVSPropertyOp5
 70
     1
102
RTVSPropertyOp6
 70
     1
102
RTVSPropertyOp7
 70
     1
102
RTVSPropertyOp8
 70
     1
102
RTVSPropertyOp9
 70
     1
102
RTVSPropertyOp10
 70
     1
102
RTVSPropertyOp11
 70
     1
102
RTVSPropertyOp12
 70
     1
102
RTVSPropertyOp13
 70
     1
102
RTVSPropertyOp14
 70
     1
102
RTVSPropertyOp15
 70
     1
102
RTVSPropertyOp16
 70
     1
102
RTVSPropertyOp17
 70
     1
102
RTVSPropertyOp18
 70
     1
102
RTVSPropertyOp19
 70
     1
102
RTVSPropertyOp20
 70
     1
102
RTVSPropertyOp21
 70
     1
102
RTVSPropertyOp22
 70
     1
102
RTVSPropertyOp23
 70
     1
102
RTVSPropertyOp24
 70
     1
102
RTVSPropertyOp25
 70
     1
102
RTVSPropertyOp26
 70
     1
102
RTVSPropertyOp27
 70
     1
102
RTVSPropertyOp28
 70
     1
102
RTVSPropertyOp29
 70
     1
102
RTVSPropertyOp30
 70
     1
102
RTVSPropertyOp31
 70
     1
102
RTVSPropertyOp32
 70
     1
  0
XRECORD
  5
5F
102
{ACAD_REACTORS
330
5E
102
}
330
5E
100
AcDbXrecord
280
     1
102
RTVSPropertyOp0
 70
     1
102
RTVSPropertyOp1
 70
     1
102
RTVSPropertyOp2
 70
     1
102
RTVSPropertyOp3
 70
     1
102
RTVSPropertyOp4
 70
     1
102
RTVSPropertyOp5
 70
     1
102
RTVSPropertyOp6
 70
     1
102
RTVSPropertyOp7
 70
     1
102
RTVSPropertyOp8
 70
     1
102
RTVSPropertyOp9
 70
     1
102
RTVSPropertyOp10
 70
     1
102
RTVSPropertyOp11
 70
     1
102
RTVSPropertyOp12
 70
     1
102
RTVSPropertyOp13
 70
     1
102
RTVSPropertyOp14
 70
     1
102
RTVSPropertyOp15
 70
     1
102
RTVSPropertyOp16
 70
     1
102
RTVSPropertyOp17
 70
     1
102
RTVSPropertyOp18
 70
     1
102
RTVSPropertyOp19
 70
     1
102
RTVSPropertyOp20
 70
     1
102
RTVSPropertyOp21
 70
     1
102
RTVSPropertyOp22
 70
     1
102
RTVSPropertyOp23
 70
     1
102
RTVSPropertyOp24
 70
     1
102
RTVSPropertyOp25
 70
     1
102
RTVSPropertyOp26
 70
     1
102
RTVSPropertyOp27
 70
     1
102
RTVSPropertyOp28
 70
     1
102
RTVSPropertyOp29
 70
     1
102
RTVSPropertyOp30
 70
     1
102
RTVSPropertyOp31
 70
     1
102
RTVSPropertyOp32
 70
     1
  0
XRECORD
  5
55
102
{ACAD_REACTORS
330
54
102
}
330
54
100
AcDbXrecord
280
     1
102
RTVSPropertyOp0
 70
     1
102
RTVSPropertyOp1
 70
     1
102
RTVSPropertyOp2
 70
     1
102
RTVSPropertyOp3
 70
     1
102
RTVSPropertyOp4
 70
     1
102
RTVSPropertyOp5
 70
     1
102
RTVSPropertyOp6
 70
     1
102
RTVSPropertyOp7
 70
     1
102
RTVSPropertyOp8
 70
     1
102
RTVSPropertyOp9
 70
     1
102
RTVSPropertyOp10
 70
     1
102
RTVSPropertyOp11
 70
     1
102
RTVSPropertyOp12
 70
     1
102
RTVSPropertyOp13
 70
     1
102
RTVSPropertyOp14
 70
     1
102
RTVSPropertyOp15
 70
     1
102
RTVSPropertyOp16
 70
     1
102
RTVSPropertyOp17
 70
     1
102
RTVSPropertyOp18
 70
     1
102
RTVSPropertyOp19
 70
     1
102
RTVSPropertyOp20
 70
     1
102
RTVSPropertyOp21
 70
     1
102
RTVSPropertyOp22
 70
     1
102
RTVSPropertyOp23
 70
     1
102
RTVSPropertyOp24
 70
     1
102
RTVSPropertyOp25
 70
     1
102
RTVSPropertyOp26
 70
     1
102
RTVSPropertyOp27
 70
     1
102
RTVSPropertyOp28
 70
     1
102
RTVSPropertyOp29
 70
     1
102
RTVSPropertyOp30
 70
     1
102
RTVSPropertyOp31
 70
     1
102
RTVSPropertyOp32
 70
     1
  0
XRECORD
  5
5D
102
{ACAD_REACTORS
330
5C
102
}
330
5C
100
AcDbXrecord
280
     1
102
RTVSPropertyOp0
 70
     1
102
RTVSPropertyOp1
 70
     1
102
RTVSPropertyOp2
 70
     1
102
RTVSPropertyOp3
 70
     1
102
RTVSPropertyOp4
 70
     1
102
RTVSPropertyOp5
 70
     1
102
RTVSPropertyOp6
 70
     1
102
RTVSPropertyOp7
 70
     1
102
RTVSPropertyOp8
 70
     1
102
RTVSPropertyOp9
 70
     1
102
RTVSPropertyOp10
 70
     1
102
RTVSPropertyOp11
 70
     1
102
RTVSPropertyOp12
 70
     1
102
RTVSPropertyOp13
 70
     1
102
RTVSPropertyOp14
 70
     1
102
RTVSPropertyOp15
 70
     1
102
RTVSPropertyOp16
 70
     1
102
RTVSPropertyOp17
 70
     1
102
RTVSPropertyOp18
 70
     1
102
RTVSPropertyOp19
 70
     1
102
RTVSPropertyOp20
 70
     1
102
RTVSPropertyOp21
 70
     1
102
RTVSPropertyOp22
 70
     1
102
RTVSPropertyOp23
 70
     1
102
RTVSPropertyOp24
 70
     1
102
RTVSPropertyOp25
 70
     1
102
RTVSPropertyOp26
 70
     1
102
RTVSPropertyOp27
 70
     1
102
RTVSPropertyOp28
 70
     1
102
RTVSPropertyOp29
 70
     1
102
RTVSPropertyOp30
 70
     1
102
RTVSPropertyOp31
 70
     1
102
RTVSPropertyOp32
 70
     1
  0
ENDSEC
  0
EOF
