<?xml version="1.0" encoding="utf-8"?>
<!-- Generator: Adobe Illustrator 16.0.0, SVG Export Plug-In . SVG Version: 6.00 Build 0)  -->
<!DOCTYPE svg PUBLIC "-//W3C//DTD SVG 1.1//EN" "http://www.w3.org/Graphics/SVG/1.1/DTD/svg11.dtd">
<svg version="1.1" id="Layer_1" xmlns="http://www.w3.org/2000/svg" xmlns:xlink="http://www.w3.org/1999/xlink" x="0px" y="0px"
	 width="226.77px" height="226.77px" viewBox="0 0 226.77 226.77" enable-background="new 0 0 226.77 226.77" xml:space="preserve">
<path fill-rule="evenodd" clip-rule="evenodd" d="M45.195,88.233c0.572-0.257,1.068-0.62,1.477-1.094
	c0.939-1.092,2.115-1.935,3.107-2.97c0.363-0.38,0.75-0.742,1.017-1.204c0.144-0.251,0.376-0.373,0.635-0.483
	c1.993-0.847,3.917-1.823,5.668-3.11c1.029-0.755,2.196-1.176,3.422-1.491c4.326-1.109,8.624-2.324,12.882-3.667
	c3.578-1.128,7.217-1.785,10.979-1.686c0.865,0.022,1.679-0.287,2.495-0.527c2.84-0.835,5.628-1.823,8.421-2.8
	c0.767-0.269,1.437-0.64,2.109-1.081c1.837-1.203,3.938-1.652,6.077-1.92c1.764-0.22,3.533-0.414,5.314-0.443
	c0.188-0.003,0.363-0.031,0.484-0.195c0.922-1.243,1.374-2.835,0.508-4.382c-0.587-1.048-1.416-1.302-2.466-0.731
	c-0.253,0.138-0.488,0.314-0.718,0.491c-1.036,0.792-2.193,1.108-3.482,0.9c-0.248-0.04-0.458-0.03-0.668,0.119
	c-0.789,0.561-1.679,0.756-2.633,0.69c-1.236-0.085-2.475-0.239-3.625-0.693c-2.206-0.872-3.216-2.72-3.726-4.903
	c-0.196-0.84-0.191-1.696,0.014-2.539c0.231-0.947,0.767-1.692,1.627-2.15c0.361-0.191,0.521-0.441,0.626-0.813
	c0.704-2.475,1.639-4.851,3.075-7.004c0.888-1.33,2.015-2.429,3.315-3.349c0.653-0.461,1.326-0.894,1.994-1.333
	c1.247-0.821,2.531-0.836,3.798-0.077c0.469,0.281,0.898,0.369,1.435,0.248c2.417-0.543,4.63,0.011,6.462,1.613
	c1.391,1.217,2.809,1.354,4.435,0.767c0.358-0.128,0.718-0.267,1.089-0.342c0.692-0.142,1.225,0.229,1.242,0.932
	c0.026,0.982,0.402,1.675,1.348,2.018c0.104,0.039,0.234,0.107,0.227,0.213c-0.049,0.619,0.306,0.978,0.751,1.319
	c0.177,0.136,0.097,0.414,0.087,0.627c-0.017,0.311,0.104,0.441,0.422,0.502c1.312,0.25,1.742,0.979,1.32,2.245
	c-0.297,0.888-0.775,1.674-1.44,2.348c-1.534,1.553-2.418,3.39-2.349,5.612c0.035,1.098,0.465,2.151,0.299,3.381
	c1.082-0.954,1.691-2.064,2.334-3.151c2.139-3.615,4.057-7.339,5.709-11.203c0.534-1.249,1.232-2.428,1.837-3.648
	c0.265-0.536,0.497-1.091,0.722-1.645c0.24-0.591,0.342-1.189,0.316-1.85c-0.061-1.544,0.229-3.073,0.339-4.612
	c0.15-2.117,0.333-4.232,0.479-6.349c0.121-1.757,0.18-3.519,0.102-5.279c-0.052-1.16-0.166-2.316-0.533-3.432
	c-0.154-0.47-0.432-0.728-0.937-0.867c-1.302-0.361-2.528-0.905-3.55-1.831c-0.324-0.293-0.588-0.619-0.783-1.026
	c-0.514-1.075-1.324-1.857-2.356-2.488c-1.101-0.672-2.264-1.042-3.515-1.224c-0.17-0.025-0.412-0.007-0.463-0.217
	c-0.054-0.22,0.145-0.361,0.306-0.475c0.8-0.563,1.712-0.552,2.622-0.448c0.674,0.076,1.324,0.29,1.885,0.671
	c0.6,0.407,1.268,0.615,1.944,0.825c0.321,0.099,0.62,0.096,0.876-0.113c0.281-0.23,0.076-0.509,0.002-0.754
	c-0.328-1.081-0.834-2.039-1.846-2.653c-0.197-0.12-0.391-0.291-0.51-0.484c-0.521-0.833-1.369-1.213-2.188-1.639
	c-0.677-0.351-1.358-0.698-1.954-1.183c-0.471-0.384-0.795-0.852-0.75-1.495c0.023-0.332,0.15-0.5,0.477-0.23
	c0.193,0.161,0.392,0.311,0.747,0.345c-0.446-0.424-0.8-0.832-0.972-1.353c-0.061-0.187-0.107-0.392-0.096-0.584
	c0.018-0.307,0.139-0.437,0.445-0.193c0.76,0.601,1.625,1.024,2.604,1.495c-0.128-0.254-0.213-0.416-0.293-0.58
	c-0.161-0.327-0.314-0.657-0.307-1.034c0.003-0.167,0.021-0.35,0.179-0.432c0.21-0.108,0.274,0.112,0.374,0.222
	c1.396,1.537,2.981,2.845,4.783,3.905c-0.158-0.237-0.316-0.473-0.473-0.71c-0.221-0.336-0.403-0.694-0.483-1.09
	c-0.052-0.257-0.175-0.607,0.132-0.729c0.25-0.098,0.352,0.254,0.492,0.424c0.456,0.545,0.929,1.07,1.509,1.485
	c0.242,0.173,0.423,0.39,0.565,0.65c0.404,0.738,0.874,1.434,1.533,1.965c0.529,0.425,0.827,0.97,1.101,1.577
	c0.923,2.053,1.781,4.148,2.881,6.104c0.769,1.37,0.972,2.828,1.286,4.29c1.019,4.74,1.95,9.496,2.58,14.306
	c0.321,2.449,0.572,4.906,0.477,7.382c-0.046,1.134-0.326,2.204-0.728,3.273c-0.726,1.938-1.328,3.921-1.989,5.883
	c-1.989,5.902-3.979,11.804-5.982,17.701c-0.127,0.373-0.082,0.647,0.154,0.951c0.668,0.859,1.352,1.705,2.062,2.532
	c1.786,2.078,2.306,4.514,1.868,7.182c-0.137,0.826-0.367,1.626-0.635,2.421c-0.314,0.934-0.326,1.928-0.473,2.895
	c-0.541,3.611-1.196,7.199-2.039,10.752c-0.096,0.407-0.058,0.548,0.394,0.384c4.166-1.526,8.274-3.178,12.057-5.535
	c1.206-0.751,2.354-1.586,3.29-2.667c0.277-0.317,0.536-0.365,0.829-0.105c0.511,0.453,0.962,0.349,1.503,0.01
	c1.029-0.646,2.104-1.22,3.156-1.829c0.242-0.142,0.447-0.228,0.64,0.079c1.028,1.626,2.091,3.23,2.872,5.002
	c0.484,1.101,0.488,2.194,0.271,3.35c-0.391,2.057-0.689,4.156-1.91,5.912c-0.522,0.755-0.777,1.4-0.565,2.316
	c0.149,0.641-0.063,1.332-0.188,1.993c-0.053,0.276-0.281,0.411-0.477,0.572c-1.576,1.296-3.087,2.631-3.942,4.568
	c-0.54,1.221-1.518,2.067-2.742,2.612c-0.381,0.171-0.757,0.354-1.139,0.521c-1.049,0.463-2.063,0.988-3.031,1.605
	c-0.362,0.23-0.46,0.447-0.198,0.833c0.189,0.28,0.318,0.614,0.423,0.939c0.182,0.555,0.08,0.665-0.485,0.579
	c-1.493-0.229-2.993-0.33-4.505-0.279c-0.784,0.026-1.557,0.122-2.309,0.346c-0.283,0.083-0.572,0.133-0.861,0.102
	c-1.563-0.168-2.59,0.863-3.725,1.654c-0.213,0.147-0.103,0.297,0,0.463c1.567,2.554,3.121,5.113,4.693,7.662
	c2.749,4.457,5.254,9.045,7.466,13.791c1.327,2.848,2.725,5.657,4.323,8.367c0.652,1.107,1.232,2.271,1.715,3.463
	c0.68,1.672,1.73,3.098,2.765,4.539c2.147,2.994,4.308,5.977,6.455,8.969c0.41,0.567,0.598,1.242,0.838,1.887
	c1.519,4.068,3.113,8.104,5.204,11.921c1.376,2.507,2.936,4.888,4.877,7.002c0.428,0.468,0.855,0.937,1.404,1.281
	c0.366,0.231,0.6,0.586,0.74,0.985c0.73,2.078,1.992,3.865,3.095,5.742c1.052,1.785,2.251,3.473,3.351,5.226
	c0.746,1.19,1.078,2.524,1.361,3.883c0.562,2.681,0.435,5.381,0.318,8.085c-0.014,0.31-0.138,0.504-0.43,0.621
	c-0.861,0.35-1.732,0.656-2.662,0.756c-0.348,0.037-0.633-0.021-0.889-0.287c-1.825-1.908-3.512-3.918-4.908-6.171
	c-1.016-1.64-1.373-3.437-1.627-5.31c-0.318-2.359-0.826-4.688-1.912-6.842c-0.373-0.737-0.826-1.401-1.504-1.905
	c-0.42-0.312-0.692-0.772-0.801-1.27c-0.164-0.769-0.611-1.347-1.097-1.913c-3.762-4.4-7.85-8.455-12.392-12.057
	c-4.092-3.245-7.234-7.269-9.446-12.012c-0.716-1.533-1.37-3.09-1.827-4.715c-0.273-0.971-0.76-1.795-1.359-2.573
	c-1.569-2.045-3.174-4.062-4.714-6.128c-2.249-3.021-5.05-5.51-7.708-8.139c-2.674-2.644-5.289-5.342-7.826-8.118
	c-0.148-0.165-0.276-0.475-0.518-0.401c-0.188,0.055-0.18,0.373-0.24,0.578c-0.895,3.111-2.013,6.141-3.219,9.143
	c-0.742,1.848-0.982,3.787-0.944,5.764c0.008,0.43-0.071,0.82-0.214,1.221c-0.659,1.844-1.395,3.668-1.664,5.629
	c-0.053,0.383-0.251,0.719-0.451,1.045c-0.652,1.067-0.944,2.238-0.935,3.479c0.033,4.05,0.065,8.1,0.126,12.148
	c0.046,3.031,0.115,6.063,0.212,9.094c0.124,3.865,0.279,7.729,0.437,11.592c0.094,2.25,0.395,4.475,0.708,6.706
	c0.648,4.644,0.754,9.278-0.39,13.899c-0.676,2.729-1.123,5.516-1.45,8.311c-0.064,0.545-0.286,0.766-0.805,0.791
	c-0.74,0.035-1.475,0.172-2.225,0.059c-0.362-0.055-0.531-0.203-0.604-0.566c-0.652-3.186-1.354-6.355-1.965-9.549
	c-0.506-2.644-1.567-5.02-3.556-6.906c-0.532-0.504-1.154-0.871-1.848-1.117c-0.647-0.232-0.887-0.563-0.893-1.258
	c-0.007-1.057,0.576-1.85,1.216-2.604c0.614-0.726,1.358-1.31,2.116-1.874c0.419-0.313,0.723-0.699,0.947-1.17
	c0.906-1.918,1.037-3.949,0.895-6.02c-0.299-4.331-1.806-8.309-3.53-12.231c-1.499-3.411-2.538-6.957-2.917-10.676
	c-0.285-2.8-0.11-5.583,0.333-8.356c0.488-3.049,1.269-6.038,1.972-9.041c0.345-1.479,0.365-2.985,0.408-4.494
	c0.106-3.77-0.276-7.502-0.745-11.236c-0.45-3.57-0.555-7.164-0.487-10.763c0.024-1.325-0.024-2.65,0.097-3.975
	c0.051-0.56,0.009-1.122-0.122-1.703c-0.238,0.018-0.322,0.215-0.438,0.356c-0.668,0.815-1.288,1.668-1.857,2.555
	c-0.205,0.316-0.369,0.42-0.729,0.187c-1.419-0.921-2.966-1.496-4.65-1.755c-1.474-0.226-2.907-0.643-4.253-1.314
	c-0.311-0.154-0.606-0.334-0.861-0.568c-0.583-0.539-0.579-1.092,0.012-1.628c0.32-0.288,0.662-0.556,0.921-0.896
	c-0.046-0.049-0.072-0.098-0.092-0.096c-0.911,0.131-1.574-0.277-2.198-0.902c-0.562-0.563-1.217-1.033-1.839-1.533
	c-0.371-0.299-0.786-0.52-1.262-0.611c-0.325-0.063-0.352-0.204-0.104-0.425c0.42-0.374,0.832-0.758,1.244-1.143
	c0.098-0.092,0.286-0.154,0.226-0.33c-0.046-0.133-0.217-0.108-0.336-0.134c-1.297-0.274-2.59-0.564-3.895-0.802
	c-0.573-0.104-0.899-0.39-1.069-0.933c-0.745-2.373-1.154-4.794-1.139-7.286c0.002-0.394,0.177-0.584,0.546-0.69
	c0.674-0.193,1.337-0.422,1.994-0.727c-1.208-0.1-2.416-0.216-3.626-0.292c-0.405-0.026-0.631-0.156-0.719-0.571
	c-1.035-4.911-0.548-9.601,1.982-14.01c0.28-0.485,0.526-0.567,1.028-0.305c4.008,2.094,8.035,4.15,12.037,6.254
	c0.585,0.307,1.063,0.393,1.579-0.047c0.397-0.336,0.756-0.235,1.184,0.01c3.321,1.909,6.656,3.797,9.99,5.684
	c0.841,0.476,0.868,0.452,1.621-0.171c1.992-1.649,4.094-3.137,6.409-4.303c0.46-0.231,0.72-0.54,0.847-1.043
	c0.29-1.15,0.508-2.301,0.443-3.496c-0.025-0.458-0.17-0.823-0.497-1.162c-2.594-2.673-5.121-5.407-7.232-8.492
	c-0.286-0.419-0.601-0.829-0.821-1.282c-0.254-0.52-0.653-0.708-1.185-0.818c-2.277-0.471-4.518-0.224-6.748,0.288
	c-2.832,0.65-5.666,1.279-8.564,1.574c-0.459,0.046-0.896,0.284-1.352,0.401c-2.337,0.602-4.728,0.733-7.128,0.788
	c-3.474,0.08-6.928-0.266-10.391-0.423c-1.868-0.084-3.74-0.139-5.598,0.179c-0.45,0.077-0.891,0.184-1.305,0.375
	c-0.335,0.155-0.646,0.358-0.713,0.764c-0.233,1.389-0.913,2.598-1.559,3.814c-0.672,1.267-1.45,2.462-2.372,3.578
	c-0.734,0.887-1.314,1.904-1.943,2.875c-0.249,0.384-0.376,0.823-0.432,1.281c-0.02,0.155,0.002,0.358-0.187,0.417
	c-0.174,0.055-0.305-0.09-0.43-0.192c-0.445-0.363-0.506-0.874-0.468-1.388c0.08-1.064,0.295-2.057,1.163-2.838
	c0.413-0.373,0.668-0.941,0.732-1.547c0.066-0.636-0.126-0.935-0.767-1.004c-0.645-0.069-1.268,0.051-1.807,0.441
	c-0.956,0.692-1.889,1.413-2.781,2.188c-0.221,0.192-0.356,0.395-0.369,0.69c-0.045,1.048-0.386,2.027-0.722,3.005
	c-0.184,0.536-0.405,1.061-0.949,1.343c-0.193,0.101-0.423,0.201-0.616,0.041c-0.206-0.17-0.025-0.367,0.042-0.542
	c0.304-0.795,0.206-1.642,0.387-2.599c-0.441,0.313-0.772,0.549-1.104,0.784c-0.559,0.396-1.168,0.667-1.862,0.69
	c-0.177,0.006-0.415,0.003-0.493-0.166c-0.103-0.224,0.169-0.277,0.289-0.394c0.194-0.19,0.411-0.357,0.602-0.549
	c0.238-0.239,0.46-0.457-0.118-0.581c-0.387-0.083-0.199-0.335-0.043-0.529c0.478-0.595,0.964-1.183,1.429-1.787
	c0.568-0.738,0.979-1.558,1.266-2.523c-0.556,0.227-0.902,0.633-1.331,0.915c-0.577,0.379-1.134,0.795-1.876,0.783
	c-0.241-0.004-0.473-0.017-0.675-0.168C45.195,88.379,45.195,88.307,45.195,88.233z"/>
</svg>
