<?xml version="1.0" encoding="utf-8"?>
<!-- Generator: Adobe Illustrator 16.0.0, SVG Export Plug-In . SVG Version: 6.00 Build 0)  -->
<!DOCTYPE svg PUBLIC "-//W3C//DTD SVG 1.1//EN" "http://www.w3.org/Graphics/SVG/1.1/DTD/svg11.dtd">
<svg version="1.1" id="Layer_1" xmlns="http://www.w3.org/2000/svg" xmlns:xlink="http://www.w3.org/1999/xlink" x="0px" y="0px"
	 width="226.77px" height="226.77px" viewBox="0 0 226.77 226.77" enable-background="new 0 0 226.77 226.77" xml:space="preserve">
<path fill-rule="evenodd" clip-rule="evenodd" d="M172.602,16.012c-0.405,0.903-1.211,1.375-2.012,1.84
	c-1.014,0.587-2.09,1.04-3.199,1.42c-0.158,0.055-0.35,0.06-0.494,0.247c0.809,0.206,1.615,0.25,2.412,0.355
	c0.135,0.018,0.335-0.047,0.379,0.134c0.047,0.193-0.153,0.268-0.283,0.348c-0.482,0.297-1.027,0.391-1.578,0.444
	c-0.273,0.026-0.554,0.043-0.826,0.021c-0.637-0.052-1.209,0.038-1.722,0.477c-0.63,0.537-1.157,1.134-1.462,1.91
	c-0.098,0.247-0.006,0.431,0.182,0.603c0.645,0.592,1.507,0.689,2.279,0.276c1.054-0.563,2.182-0.699,3.353-0.5
	c0.438,0.074,0.784,0.304,1.013,0.69c0.137,0.231,0.127,0.411-0.204,0.419c-1.141,0.029-2.093,0.593-3.111,1.019
	c-2.686,1.123-5.351,2.44-8.366,2.306c-1.336-0.059-2.067,0.662-2.738,1.591c-0.984,1.366-1.651,2.902-2.292,4.447
	c-1.268,3.061-2.212,6.237-3.3,9.362c-1.057,3.033-2.115,6.069-3.551,8.951c-0.59,1.181-1.332,2.255-2.154,3.29
	c-0.898,1.131-1.562,2.427-2.327,3.65c-2.92,4.662-5.802,9.348-8.817,13.948c-1.119,1.71-2.332,3.358-3.174,5.235
	c-0.027,0.059-0.057,0.117-0.085,0.175c-0.401,0.837-0.552,1.637-0.409,2.633c0.604,4.251-0.355,8.085-3.296,11.37
	c-3.006,3.357-6.24,6.464-9.745,9.291c-0.1,0.08-0.262,0.137-0.255,0.274c0.011,0.17,0.196,0.139,0.312,0.164
	c3.383,0.723,6.789,1.283,10.26,1.316c1.17,0.012,2.336-0.088,3.473-0.386c0.359-0.094,0.576-0.013,0.654,0.345
	c0.129,0.596,0.484,0.759,1.081,0.764c1.117,0.009,2.233,0.129,3.351,0.185c0.432,0.021,0.625,0.147,0.57,0.644
	c-0.188,1.74-0.289,3.485-0.752,5.191c-0.262,0.965-0.727,1.757-1.459,2.414c-1.051,0.94-2.044,1.943-3.199,2.763
	c-0.803,0.568-1.631,1.064-2.588,1.31c-0.373,0.096-0.615,0.271-0.768,0.651c-0.314,0.783-0.936,1.352-1.505,1.949
	c-0.196,0.207-0.47,0.277-0.757,0.284c-0.83,0.017-1.645,0.174-2.457,0.325c-0.812,0.15-1.646,0.297-2.353,0.75
	c-1.827,1.17-3.765,1.354-5.839,0.849c-0.975-0.237-1.989-0.262-2.998-0.286c-0.468-0.01-0.646,0.17-0.656,0.612
	c-0.007,0.345-0.128,0.667-0.247,0.987c-0.133,0.356-0.32,0.406-0.603,0.134c-0.878-0.847-1.824-1.61-2.833-2.294
	c-0.269-0.182-0.554-0.338-0.829-0.509c-0.311-0.192-0.418-0.081-0.457,0.257c-0.229,1.985-0.629,3.938-1.103,5.879
	c-0.743,3.045-1.708,6.021-2.768,8.971c-0.701,1.951-0.928,3.971-0.737,6.035c0.02,0.221-0.03,0.416-0.093,0.617
	c-0.512,1.623-1.127,3.227-1.365,4.918c-0.134,0.955-0.471,1.797-0.883,2.65c-0.498,1.033-0.503,2.164-0.44,3.293
	c0.11,1.975,0.2,3.95,0.306,5.924c0.136,2.525,0.276,5.051,0.422,7.576c0.103,1.781,0.207,3.561,0.329,5.34
	c0.21,3.074,0.427,6.147,0.653,9.22c0.17,2.313,0.358,4.625,0.719,6.919c0.242,1.535,0.587,3.055,0.787,4.6
	c0.488,3.791,0.552,7.557-0.215,11.333c-0.553,2.716-0.869,5.478-1.125,8.24c-0.035,0.373-0.17,0.526-0.545,0.586
	c-0.74,0.121-1.478,0.196-2.229,0.175c-0.371-0.01-0.594-0.135-0.69-0.526c-0.757-3.09-1.554-6.167-2.275-9.265
	c-0.556-2.387-1.621-4.51-3.428-6.217c-0.575-0.543-1.234-0.947-1.984-1.198c-0.771-0.253-1.107-0.808-0.967-1.631
	c0.132-0.775,0.526-1.422,0.999-2.03c0.571-0.736,1.232-1.388,1.973-1.94c0.613-0.456,0.938-1.061,1.164-1.747
	c0.539-1.648,0.609-3.348,0.45-5.055c-0.367-3.957-1.769-7.598-3.496-11.127c-1.649-3.372-2.956-6.854-3.508-10.582
	c-0.397-2.676-0.418-5.355-0.089-8.048c0.384-3.145,1.03-6.239,1.635-9.342c0.318-1.636,0.289-3.296,0.224-4.951
	c-0.087-2.202-0.222-4.405-0.578-6.586c-0.329-2.017-0.659-4.032-0.898-6.063c-0.189-1.61-0.332-3.226-0.426-4.845
	c-0.128-2.22-0.118-4.443-0.134-6.666c-0.014-1.975-0.302-3.911-0.963-5.781c-0.087-0.247-0.189-0.475-0.389-0.661
	c-0.983-0.92-1.961-1.846-2.933-2.778c-0.192-0.184-0.409-0.314-0.645-0.427c-0.849-0.407-1.728-0.779-2.482-1.336
	c-0.839-0.62-1.739-0.627-2.685-0.518c-1.459,0.168-2.865,0.557-4.224,1.107c-0.344,0.14-0.605,0.084-0.903-0.112
	c-1.723-1.141-3.13-2.547-4.038-4.443c-0.561-1.172-1.362-2.207-2.17-3.226c-0.121-0.152-0.243-0.304-0.354-0.465
	c-0.291-0.419-0.238-0.576,0.232-0.752c0.415-0.154,0.854-0.188,1.284-0.269c0.22-0.041,0.441-0.079,0.762-0.138
	c-1.321-0.708-2.276-1.671-3.019-2.857c-0.722-1.15-1.003-2.455-1.351-3.738c-0.073-0.266,0.038-0.366,0.302-0.324
	c0.429,0.067,0.859,0.132,1.44,0.221c-0.501-0.565-0.882-1.06-1.331-1.482c-0.426-0.401-0.557-0.84-0.325-1.351
	c0.293-0.645,0.077-1.146-0.269-1.704c-1.295-2.098-2.542-4.227-3.812-6.34c-0.725-1.206-0.913-2.548-1.028-3.915
	c-0.238-2.799-0.202-5.607-0.304-8.41c-0.144-3.954-0.292-7.908-0.551-11.857c-0.186-2.832-0.336-5.666-0.713-8.48
	c-0.17-1.269-0.52-2.509-0.623-3.791c-0.171-2.122-0.171-4.244-0.093-6.369c0.058-1.59,0.229-3.169,0.367-4.752
	c0.17-1.97,0.915-3.77,1.595-5.594c0.724-1.946,1.417-3.904,1.958-5.911c0.067-0.249,0.162-0.414,0.446-0.419
	c0.812-0.016,1.62-0.022,2.425,0.121c0.395,0.07,0.561,0.254,0.608,0.671c0.371,3.221,0.728,6.445,1.171,9.657
	c0.255,1.839,0.797,3.614,1.827,5.194c0.443,0.68,1.021,1.233,1.822,1.464c0.654,0.188,0.878,0.68,0.972,1.26
	c0.234,1.438-0.218,2.685-1.121,3.794c-0.65,0.799-1.435,1.444-2.259,2.056c-0.75,0.557-1.029,1.389-1.161,2.281
	c-0.234,1.584,0.104,3.097,0.561,4.595c0.782,2.567,2.091,4.884,3.406,7.2c0.915,1.612,1.687,3.29,2.248,5.062
	c0.85,2.687,0.646,5.346-0.179,7.993c-0.125,0.403-0.25,0.806-0.371,1.21c-0.11,0.37,0.429,1.128,0.806,1.136
	c0.162,0.004,0.209-0.135,0.273-0.243c0.848-1.414,1.86-2.694,3.058-3.829c0.722-0.684,1.517-1.268,2.343-1.814
	c0.311-0.206,0.429-0.018,0.575,0.192c1.299,1.863,2.612,3.716,3.891,5.592c0.271,0.398,0.44,0.4,0.758,0.072
	c0.303-0.312,0.683-0.547,1.006-0.841c0.244-0.223,0.382-0.202,0.563,0.08c1.088,1.692,2.212,3.36,3.285,5.062
	c1.895,3.005,3.813,5.998,5.438,9.162c0.139,0.272,0.325,0.36,0.619,0.354c4.042-0.085,8.025,0.327,11.959,1.307
	c1.13,0.282,2.226-0.121,3.133-0.868c0.528-0.437,0.605-1.041,0.44-1.691c-0.743-2.925-1.382-5.874-1.841-8.858
	c-0.315-2.053-0.571-4.112-0.513-6.197c0.008-0.244,0.024-0.484-0.246-0.634c-0.402-0.226-0.651-0.161-0.782,0.282
	c-0.167,0.565-0.386,1.098-0.718,1.588c-0.364,0.537-0.815,0.969-1.411,1.23c-0.255,0.112-0.402,0.276-0.493,0.551
	c-0.26,0.795-0.751,1.452-1.43,1.921c-0.988,0.683-2.036,1.28-3.172,1.682c-1.727,0.61-3.323,0.181-4.841-0.705
	c-0.796-0.465-1.459-1.082-2.019-1.807c-0.881-1.144-1.147-2.383-0.495-3.729c0.126-0.26,0.039-0.466-0.051-0.693
	c-0.704-1.785-1.257-3.613-1.601-5.505c-0.481-2.647-0.136-5.2,0.827-7.688c0.118-0.303,0.219-0.611,0.333-0.914
	c0.491-1.291,1.429-2.025,2.794-2.174c0.493-0.054,0.873-0.199,1.209-0.596c1.556-1.835,3.558-2.811,5.958-2.622
	c1.9,0.15,3.064-0.75,3.991-2.211c0.183-0.289,0.36-0.581,0.614-0.813c0.447-0.408,1.004-0.425,1.372,0.042
	c0.598,0.762,1.302,1.097,2.253,0.775c0.296-0.101,0.414,0.131,0.536,0.31c0.166,0.242,0.346,0.35,0.652,0.265
	c0.383-0.105,0.665,0.074,0.841,0.413c0.163,0.312,0.321,0.391,0.675,0.19c1.119-0.629,1.912-0.289,2.334,0.937
	c0.312,0.906,0.306,1.852,0.369,2.789c0.097,1.442,0.483,2.807,1.074,4.121c0.15,0.332,0.292,0.397,0.537,0.087
	c1.276-1.618,2.59-3.207,3.716-4.937c0.326-0.5,0.424-1.085,0.623-1.632c1.191-3.277,2.779-6.359,4.588-9.332
	c1.645-2.704,3.375-5.351,5.385-7.801c0.842-1.028,1.703-2.042,2.591-3.032c0.979-1.091,2.24-1.808,3.5-2.52
	c1.81-1.023,3.718-1.847,5.573-2.781c0.189-0.095,0.398-0.19,0.605-0.155c0.894,0.154,1.748-0.074,2.596-0.274
	c1.279-0.303,2.609-0.338,3.859-0.777c0.121-0.042,0.26-0.089,0.348,0.059c0.078,0.133,0.006,0.254-0.069,0.36
	c-0.253,0.356-0.611,0.569-0.997,0.753c-0.646,0.308-1.365,0.399-2.093,0.682c0.927,0.44,1.862,0.443,2.786,0.5
	c0.418,0.025,0.842-0.015,1.264-0.023c0.188-0.004,0.424-0.119,0.551,0.062c0.152,0.218-0.127,0.366-0.194,0.6
	c0.363,0.005,0.702-0.037,1.042-0.118c0.132-0.031,0.307-0.155,0.406-0.013c0.108,0.157-0.053,0.303-0.141,0.431
	c-0.245,0.36-0.592,0.603-0.988,0.762c-0.446,0.18-0.905,0.331-1.438,0.522c0.508,0.374,0.961,0.723,1.508,0.934
	c0.122,0.048,0.322,0.045,0.304,0.252c-0.015,0.157-0.151,0.246-0.279,0.316c-0.397,0.218-0.821,0.188-1.229,0.06
	c-0.771-0.242-1.562-0.456-2.22-0.961c-0.237-0.183-0.487-0.199-0.777-0.15c-1.259,0.21-2.472,0.543-3.562,1.232
	c-0.348,0.219-0.644,0.49-0.816,0.877c-0.146,0.332-0.066,0.573,0.264,0.713c0.422,0.18,0.857,0.3,1.324,0.226
	c0.926-0.147,1.68,0.229,2.375,0.779c0.143,0.113,0.238,0.266,0.287,0.443c0.048,0.173,0.096,0.362-0.022,0.515
	c-0.128,0.167-0.3,0.039-0.45,0.009c-1.373-0.287-2.76-0.339-4.156-0.239c-1.436,0.103-2.855-0.044-4.259-0.313
	c-1.774-0.341-2.37,0.029-3.31,1.49c-0.105,0.163-0.196,0.336-0.289,0.508c-0.721,1.321-1.132,2.759-1.574,4.184
	c-0.892,2.865-1.475,5.817-2.439,8.662c-0.93,2.739-1.971,5.418-3.547,7.878c-0.721,1.125-1.186,2.414-1.777,3.623
	c-0.965,1.968-2.016,3.889-3.064,5.812c-0.165,0.304-0.147,0.513,0.08,0.776c0.82,0.942,1.622,1.9,2.42,2.862
	c0.215,0.261,0.367,0.334,0.648,0.049c4.557-4.605,9.014-9.297,12.879-14.513c1.459-1.969,2.894-3.971,3.748-6.294
	c0.641-1.744,1.402-3.419,2.353-5.013c0.892-1.495,1.981-2.85,2.968-4.278c2.076-3.005,4.008-6.103,5.898-9.226
	c0.664-1.097,1.362-2.176,1.963-3.306c0.622-1.172,1.491-2.087,2.615-2.746c2.137-1.252,4.121-2.705,5.963-4.356
	c0.386-0.345,0.88-0.394,1.33-0.565c1.82-0.692,3.632-1.407,5.398-2.226c1.089-0.504,2.187-0.997,3.174-1.693
	c0.199-0.14,0.404-0.273,0.544-0.48c0.065,0,0.13,0,0.194,0c0.201,0.701-0.143,1.227-0.563,1.718
	c-0.47,0.55-1.062,0.965-1.629,1.414c0.831-0.249,1.622-0.566,2.345-1.037c0.16-0.104,0.309-0.257,0.529-0.148
	C172.602,15.753,172.602,15.883,172.602,16.012z"/>
</svg>
