  0
SECTION
  2
HEADER
  9
$ACADVER
  1
AC1021
  9
$ACADMAINTVER
 70
    25
  9
$DWGCODEPAGE
  3
ANSI_1252
  9
$INSBASE
 10
0.0
 20
0.0
 30
0.0
  9
$EXTMIN
 10
1.000000000000000E+20
 20
1.000000000000000E+20
 30
1.000000000000000E+20
  9
$EXTMAX
 10
-1.000000000000000E+20
 20
-1.000000000000000E+20
 30
-1.000000000000000E+20
  9
$LIMMIN
 10
0.0
 20
0.0
  9
$LIMMAX
 10
12.0
 20
9.0
  9
$ORTHOMODE
 70
     0
  9
$REGENMODE
 70
     1
  9
$FILLMODE
 70
     1
  9
$QTEXTMODE
 70
     0
  9
$MIRRTEXT
 70
     1
  9
$LTSCALE
 40
1.0
  9
$ATTMODE
 70
     1
  9
$TEXTSIZE
 40
0.2
  9
$TRACEWID
 40
0.05
  9
$TEXTSTYLE
  7
Standard
  9
$CLAYER
  8
0
  9
$CELTYPE
  6
ByLayer
  9
$CECOLOR
 62
   256
  9
$CELTSCALE
 40
1.0
  9
$DISPSILH
 70
     0
  9
$DIMSCALE
 40
1.0
  9
$DIMASZ
 40
0.18
  9
$DIMEXO
 40
0.0625
  9
$DIMDLI
 40
0.38
  9
$DIMRND
 40
0.0
  9
$DIMDLE
 40
0.0
  9
$DIMEXE
 40
0.18
  9
$DIMTP
 40
0.0
  9
$DIMTM
 40
0.0
  9
$DIMTXT
 40
0.18
  9
$DIMCEN
 40
0.09
  9
$DIMTSZ
 40
0.0
  9
$DIMTOL
 70
     0
  9
$DIMLIM
 70
     0
  9
$DIMTIH
 70
     1
  9
$DIMTOH
 70
     1
  9
$DIMSE1
 70
     0
  9
$DIMSE2
 70
     0
  9
$DIMTAD
 70
     0
  9
$DIMZIN
 70
     0
  9
$DIMBLK
  1

  9
$DIMASO
 70
     1
  9
$DIMSHO
 70
     1
  9
$DIMPOST
  1

  9
$DIMAPOST
  1

  9
$DIMALT
 70
     0
  9
$DIMALTD
 70
     2
  9
$DIMALTF
 40
25.4
  9
$DIMLFAC
 40
1.0
  9
$DIMTOFL
 70
     0
  9
$DIMTVP
 40
0.0
  9
$DIMTIX
 70
     0
  9
$DIMSOXD
 70
     0
  9
$DIMSAH
 70
     0
  9
$DIMBLK1
  1

  9
$DIMBLK2
  1

  9
$DIMSTYLE
  2
Standard
  9
$DIMCLRD
 70
     0
  9
$DIMCLRE
 70
     0
  9
$DIMCLRT
 70
     0
  9
$DIMTFAC
 40
1.0
  9
$DIMGAP
 40
0.09
  9
$DIMJUST
 70
     0
  9
$DIMSD1
 70
     0
  9
$DIMSD2
 70
     0
  9
$DIMTOLJ
 70
     1
  9
$DIMTZIN
 70
     0
  9
$DIMALTZ
 70
     0
  9
$DIMALTTZ
 70
     0
  9
$DIMUPT
 70
     0
  9
$DIMDEC
 70
     4
  9
$DIMTDEC
 70
     4
  9
$DIMALTU
 70
     2
  9
$DIMALTTD
 70
     2
  9
$DIMTXSTY
  7
Standard
  9
$DIMAUNIT
 70
     0
  9
$DIMADEC
 70
     0
  9
$DIMALTRND
 40
0.0
  9
$DIMAZIN
 70
     0
  9
$DIMDSEP
 70
    46
  9
$DIMATFIT
 70
     3
  9
$DIMFRAC
 70
     0
  9
$DIMLDRBLK
  1

  9
$DIMLUNIT
 70
     2
  9
$DIMLWD
 70
    -2
  9
$DIMLWE
 70
    -2
  9
$DIMTMOVE
 70
     0
  9
$DIMFXL
 40
1.0
  9
$DIMFXLON
 70
     0
  9
$DIMJOGANG
 40
0.7853981633974483
  9
$DIMTFILL
 70
     0
  9
$DIMTFILLCLR
 70
     0
  9
$DIMARCSYM
 70
     0
  9
$DIMLTYPE
  6

  9
$DIMLTEX1
  6

  9
$DIMLTEX2
  6

  9
$LUNITS
 70
     2
  9
$LUPREC
 70
     4
  9
$SKETCHINC
 40
0.1
  9
$FILLETRAD
 40
0.5
  9
$AUNITS
 70
     0
  9
$AUPREC
 70
     0
  9
$MENU
  1
.
  9
$ELEVATION
 40
0.0
  9
$PELEVATION
 40
0.0
  9
$THICKNESS
 40
0.0
  9
$LIMCHECK
 70
     0
  9
$CHAMFERA
 40
0.5
  9
$CHAMFERB
 40
0.5
  9
$CHAMFERC
 40
1.0
  9
$CHAMFERD
 40
0.0
  9
$SKPOLY
 70
     0
  9
$TDCREATE
 40
2458551.625879433
  9
$TDUCREATE
 40
2458551.334212766
  9
$TDUPDATE
 40
2458551.625879433
  9
$TDUUPDATE
 40
2458551.334212766
  9
$TDINDWG
 40
0.0000000116
  9
$TDUSRTIMER
 40
0.0000000116
  9
$USRTIMER
 70
     1
  9
$ANGBASE
 50
0.0
  9
$ANGDIR
 70
     0
  9
$PDMODE
 70
     0
  9
$PDSIZE
 40
0.0
  9
$PLINEWID
 40
0.0
  9
$SPLFRAME
 70
     0
  9
$SPLINETYPE
 70
     6
  9
$SPLINESEGS
 70
     8
  9
$HANDSEED
  5
65
  9
$SURFTAB1
 70
     6
  9
$SURFTAB2
 70
     6
  9
$SURFTYPE
 70
     6
  9
$SURFU
 70
     6
  9
$SURFV
 70
     6
  9
$UCSBASE
  2

  9
$UCSNAME
  2

  9
$UCSORG
 10
0.0
 20
0.0
 30
0.0
  9
$UCSXDIR
 10
1.0
 20
0.0
 30
0.0
  9
$UCSYDIR
 10
0.0
 20
1.0
 30
0.0
  9
$UCSORTHOREF
  2

  9
$UCSORTHOVIEW
 70
     0
  9
$UCSORGTOP
 10
0.0
 20
0.0
 30
0.0
  9
$UCSORGBOTTOM
 10
0.0
 20
0.0
 30
0.0
  9
$UCSORGLEFT
 10
0.0
 20
0.0
 30
0.0
  9
$UCSORGRIGHT
 10
0.0
 20
0.0
 30
0.0
  9
$UCSORGFRONT
 10
0.0
 20
0.0
 30
0.0
  9
$UCSORGBACK
 10
0.0
 20
0.0
 30
0.0
  9
$PUCSBASE
  2

  9
$PUCSNAME
  2

  9
$PUCSORG
 10
0.0
 20
0.0
 30
0.0
  9
$PUCSXDIR
 10
1.0
 20
0.0
 30
0.0
  9
$PUCSYDIR
 10
0.0
 20
1.0
 30
0.0
  9
$PUCSORTHOREF
  2

  9
$PUCSORTHOVIEW
 70
     0
  9
$PUCSORGTOP
 10
0.0
 20
0.0
 30
0.0
  9
$PUCSORGBOTTOM
 10
0.0
 20
0.0
 30
0.0
  9
$PUCSORGLEFT
 10
0.0
 20
0.0
 30
0.0
  9
$PUCSORGRIGHT
 10
0.0
 20
0.0
 30
0.0
  9
$PUCSORGFRONT
 10
0.0
 20
0.0
 30
0.0
  9
$PUCSORGBACK
 10
0.0
 20
0.0
 30
0.0
  9
$USERI1
 70
     0
  9
$USERI2
 70
     0
  9
$USERI3
 70
     0
  9
$USERI4
 70
     0
  9
$USERI5
 70
     0
  9
$USERR1
 40
0.0
  9
$USERR2
 40
0.0
  9
$USERR3
 40
0.0
  9
$USERR4
 40
0.0
  9
$USERR5
 40
0.0
  9
$WORLDVIEW
 70
     1
  9
$SHADEDGE
 70
     3
  9
$SHADEDIF
 70
    70
  9
$TILEMODE
 70
     1
  9
$MAXACTVP
 70
    64
  9
$PINSBASE
 10
0.0
 20
0.0
 30
0.0
  9
$PLIMCHECK
 70
     0
  9
$PEXTMIN
 10
1.000000000000000E+20
 20
1.000000000000000E+20
 30
1.000000000000000E+20
  9
$PEXTMAX
 10
-1.000000000000000E+20
 20
-1.000000000000000E+20
 30
-1.000000000000000E+20
  9
$PLIMMIN
 10
0.0
 20
0.0
  9
$PLIMMAX
 10
12.0
 20
9.0
  9
$UNITMODE
 70
     0
  9
$VISRETAIN
 70
     1
  9
$PLINEGEN
 70
     0
  9
$PSLTSCALE
 70
     1
  9
$TREEDEPTH
 70
  3020
  9
$CMLSTYLE
  2
Standard
  9
$CMLJUST
 70
     0
  9
$CMLSCALE
 40
1.0
  9
$PROXYGRAPHICS
 70
     1
  9
$MEASUREMENT
 70
     0
  9
$CELWEIGHT
370
    -1
  9
$ENDCAPS
280
     0
  9
$JOINSTYLE
280
     0
  9
$LWDISPLAY
290
     1
  9
$INSUNITS
 70
     1
  9
$HYPERLINKBASE
  1

  9
$STYLESHEET
  1

  9
$XEDIT
290
     1
  9
$CEPSNTYPE
380
     0
  9
$PSTYLEMODE
290
     1
  9
$FINGERPRINTGUID
  2
{DDD99ED2-98AC-43AB-9667-9F95067F741B}
  9
$VERSIONGUID
  2
{FAEB1C32-E019-11D5-929B-00C0DF256EC4}
  9
$EXTNAMES
290
     1
  9
$PSVPSCALE
 40
0.0
  9
$OLESTARTUP
290
     0
  9
$SORTENTS
280
   127
  9
$INDEXCTL
280
     0
  9
$HIDETEXT
280
     1
  9
$XCLIPFRAME
290
     0
  9
$HALOGAP
280
     0
  9
$OBSCOLOR
 70
   257
  9
$OBSLTYPE
280
     0
  9
$INTERSECTIONDISPLAY
280
     0
  9
$INTERSECTIONCOLOR
 70
   257
  9
$DIMASSOC
280
     2
  9
$PROJECTNAME
  1

  9
$CAMERADISPLAY
290
     0
  9
$LENSLENGTH
 40
50.0
  9
$CAMERAHEIGHT
 40
0.0
  9
$STEPSPERSEC
 40
2.0
  9
$STEPSIZE
 40
6.0
  9
$3DDWFPREC
 40
2.0
  9
$PSOLWIDTH
 40
0.25
  9
$PSOLHEIGHT
 40
4.0
  9
$LOFTANG1
 40
1.570796326794897
  9
$LOFTANG2
 40
1.570796326794897
  9
$LOFTMAG1
 40
0.0
  9
$LOFTMAG2
 40
0.0
  9
$LOFTPARAM
 70
     7
  9
$LOFTNORMALS
280
     1
  9
$LATITUDE
 40
37.795
  9
$LONGITUDE
 40
-122.394
  9
$NORTHDIRECTION
 40
0.0
  9
$TIMEZONE
 70
 -8000
  9
$LIGHTGLYPHDISPLAY
280
     1
  9
$TILEMODELIGHTSYNCH
280
     1
  9
$CMATERIAL
347
3C
  9
$SOLIDHIST
280
     1
  9
$SHOWHIST
280
     1
  9
$DWFFRAME
280
     2
  9
$DGNFRAME
280
     2
  9
$REALWORLDSCALE
290
     1
  9
$INTERFERECOLOR
 62
   256
  9
$CSHADOW
280
     0
  9
$SHADOWPLANELOCATION
 40
0.0
  0
ENDSEC
  0
SECTION
  2
CLASSES
  0
CLASS
  1
ACDBDICTIONARYWDFLT
  2
AcDbDictionaryWithDefault
  3
ObjectDBX Classes
 90
        0
 91
        4
280
     0
281
     0
  0
CLASS
  1
VISUALSTYLE
  2
AcDbVisualStyle
  3
ObjectDBX Classes
 90
     4095
 91
        4
280
     0
281
     0
  0
CLASS
  1
MATERIAL
  2
AcDbMaterial
  3
ObjectDBX Classes
 90
     1153
 91
        4
280
     0
281
     0
  0
CLASS
  1
SUN
  2
AcDbSun
  3
SCENEOE
 90
     1024
 91
        4
280
     0
281
     0
  0
ENDSEC
  0
SECTION
  2
TABLES
  0
TABLE
  2
VPORT
  5
8
330
0
100
AcDbSymbolTable
 70
     1
  0
VPORT
  5
29
330
8
100
AcDbSymbolTableRecord
100
AcDbViewportTableRecord
  2
*Active
 70
     0
 10
0.0
 20
0.0
 11
1.0
 21
1.0
 12
0.0
 22
0.0
 13
0.0
 23
0.0
 14
0.5
 24
0.5
 15
0.5
 25
0.5
 16
0.0
 26
0.0
 36
1.0
 17
39.99961911841359
 27
-39.99962012888904
 37
0.0
 40
79.99924025777808
 41
0.9999999747378738
 42
50.0
 43
0.0
 44
0.0
 50
0.0
 51
0.0
 71
     0
 72
   100
 73
     1
 74
     3
 75
     0
 76
     0
 77
     0
 78
     0
281
     0
 65
     1
110
0.0
120
0.0
130
0.0
111
1.0
121
0.0
131
0.0
112
0.0
122
1.0
132
0.0
 79
     0
146
0.0
 60
     3
 61
     5
292
     1
282
     1
141
0.0
142
0.0
 63
   250
361
3F
  0
ENDTAB
  0
TABLE
  2
LTYPE
  5
5
330
0
100
AcDbSymbolTable
 70
     1
  0
LTYPE
  5
14
330
5
100
AcDbSymbolTableRecord
100
AcDbLinetypeTableRecord
  2
ByBlock
 70
     0
  3

 72
    65
 73
     0
 40
0.0
  0
LTYPE
  5
15
330
5
100
AcDbSymbolTableRecord
100
AcDbLinetypeTableRecord
  2
ByLayer
 70
     0
  3

 72
    65
 73
     0
 40
0.0
  0
LTYPE
  5
16
330
5
100
AcDbSymbolTableRecord
100
AcDbLinetypeTableRecord
  2
Continuous
 70
     0
  3
Solid line
 72
    65
 73
     0
 40
0.0
  0
ENDTAB
  0
TABLE
  2
LAYER
  5
2
330
0
100
AcDbSymbolTable
 70
     2
  0
LAYER
  5
10
330
2
100
AcDbSymbolTableRecord
100
AcDbLayerTableRecord
  2
0
 70
     0
 62
     7
  6
Continuous
370
    -3
390
F
347
3E
  0
LAYER
  5
40
330
2
100
AcDbSymbolTableRecord
100
AcDbLayerTableRecord
  2
Layer 1
 70
     0
 62
     7
  6
Continuous
370
    -3
390
F
347
3E
  0
ENDTAB
  0
TABLE
  2
STYLE
  5
3
330
0
100
AcDbSymbolTable
 70
     1
  0
STYLE
  5
11
330
3
100
AcDbSymbolTableRecord
100
AcDbTextStyleTableRecord
  2
Standard
 70
     0
 40
0.0
 41
1.0
 50
0.0
 71
     0
 42
0.2
  3
txt
  4

  0
ENDTAB
  0
TABLE
  2
VIEW
  5
6
330
0
100
AcDbSymbolTable
 70
     0
  0
ENDTAB
  0
TABLE
  2
UCS
  5
7
330
0
100
AcDbSymbolTable
 70
     0
  0
ENDTAB
  0
TABLE
  2
APPID
  5
9
330
0
100
AcDbSymbolTable
 70
     1
  0
APPID
  5
12
330
9
100
AcDbSymbolTableRecord
100
AcDbRegAppTableRecord
  2
ACAD
 70
     0
  0
ENDTAB
  0
TABLE
  2
DIMSTYLE
  5
A
330
0
100
AcDbSymbolTable
 70
     1
100
AcDbDimStyleTable
  0
DIMSTYLE
105
27
330
A
100
AcDbSymbolTableRecord
100
AcDbDimStyleTableRecord
  2
Standard
 70
     0
178
     0
340
11
  0
ENDTAB
  0
TABLE
  2
BLOCK_RECORD
  5
1
330
0
100
AcDbSymbolTable
 70
     1
  0
BLOCK_RECORD
  5
1F
330
1
100
AcDbSymbolTableRecord
100
AcDbBlockTableRecord
  2
*Model_Space
340
22
 70
     0
280
     1
281
     0
  0
BLOCK_RECORD
  5
1B
330
1
100
AcDbSymbolTableRecord
100
AcDbBlockTableRecord
  2
*Paper_Space
340
1E
 70
     0
280
     1
281
     0
  0
BLOCK_RECORD
  5
23
330
1
100
AcDbSymbolTableRecord
100
AcDbBlockTableRecord
  2
*Paper_Space0
340
26
 70
     0
280
     1
281
     0
  0
ENDTAB
  0
ENDSEC
  0
SECTION
  2
BLOCKS
  0
BLOCK
  5
20
330
1F
100
AcDbEntity
  8
0
100
AcDbBlockBegin
  2
*Model_Space
 70
     0
 10
0.0
 20
0.0
 30
0.0
  3
*Model_Space
  1

  0
ENDBLK
  5
21
330
1F
100
AcDbEntity
  8
0
100
AcDbBlockEnd
  0
BLOCK
  5
1C
330
1B
100
AcDbEntity
 67
     1
  8
0
100
AcDbBlockBegin
  2
*Paper_Space
 70
     0
 10
0.0
 20
0.0
 30
0.0
  3
*Paper_Space
  1

  0
ENDBLK
  5
1D
330
1B
100
AcDbEntity
 67
     1
  8
0
100
AcDbBlockEnd
  0
BLOCK
  5
24
330
23
100
AcDbEntity
  8
0
100
AcDbBlockBegin
  2
*Paper_Space0
 70
     0
 10
0.0
 20
0.0
 30
0.0
  3
*Paper_Space0
  1

  0
ENDBLK
  5
25
330
23
100
AcDbEntity
  8
0
100
AcDbBlockEnd
  0
ENDSEC
  0
SECTION
  2
ENTITIES
  0
SPLINE
  5
41
330
1F
100
AcDbEntity
  8
Layer 1
370
     0
100
AcDbSpline
210
0.0
220
0.0
230
1.0
 70
    11
 71
     3
 72
   689
 73
   685
 74
     0
 42
0.0000000001
 43
0.0000000001
 12
1.0
 22
0.0
 32
0.0
 13
1.0
 23
0.0
 33
0.0
 40
0.0
 40
0.0
 40
0.0
 40
0.0
 40
1.0
 40
1.0
 40
1.0
 40
2.0
 40
2.0
 40
2.0
 40
3.0
 40
3.0
 40
3.0
 40
4.0
 40
4.0
 40
4.0
 40
5.0
 40
5.0
 40
5.0
 40
6.0
 40
6.0
 40
6.0
 40
7.0
 40
7.0
 40
7.0
 40
8.0
 40
8.0
 40
8.0
 40
9.0
 40
9.0
 40
9.0
 40
10.0
 40
10.0
 40
10.0
 40
11.0
 40
11.0
 40
11.0
 40
12.0
 40
12.0
 40
12.0
 40
13.0
 40
13.0
 40
13.0
 40
14.0
 40
14.0
 40
14.0
 40
15.0
 40
15.0
 40
15.0
 40
16.0
 40
16.0
 40
16.0
 40
17.0
 40
17.0
 40
17.0
 40
18.0
 40
18.0
 40
18.0
 40
19.0
 40
19.0
 40
19.0
 40
20.0
 40
20.0
 40
20.0
 40
21.0
 40
21.0
 40
21.0
 40
22.0
 40
22.0
 40
22.0
 40
23.0
 40
23.0
 40
23.0
 40
24.0
 40
24.0
 40
24.0
 40
25.0
 40
25.0
 40
25.0
 40
26.0
 40
26.0
 40
26.0
 40
27.0
 40
27.0
 40
27.0
 40
28.0
 40
28.0
 40
28.0
 40
29.0
 40
29.0
 40
29.0
 40
30.0
 40
30.0
 40
30.0
 40
31.0
 40
31.0
 40
31.0
 40
32.0
 40
32.0
 40
32.0
 40
33.0
 40
33.0
 40
33.0
 40
34.0
 40
34.0
 40
34.0
 40
35.0
 40
35.0
 40
35.0
 40
36.0
 40
36.0
 40
36.0
 40
37.0
 40
37.0
 40
37.0
 40
38.0
 40
38.0
 40
38.0
 40
39.0
 40
39.0
 40
39.0
 40
40.0
 40
40.0
 40
40.0
 40
41.0
 40
41.0
 40
41.0
 40
42.0
 40
42.0
 40
42.0
 40
43.0
 40
43.0
 40
43.0
 40
44.0
 40
44.0
 40
44.0
 40
45.0
 40
45.0
 40
45.0
 40
46.0
 40
46.0
 40
46.0
 40
47.0
 40
47.0
 40
47.0
 40
48.0
 40
48.0
 40
48.0
 40
49.0
 40
49.0
 40
49.0
 40
50.0
 40
50.0
 40
50.0
 40
51.0
 40
51.0
 40
51.0
 40
52.0
 40
52.0
 40
52.0
 40
53.0
 40
53.0
 40
53.0
 40
54.0
 40
54.0
 40
54.0
 40
55.0
 40
55.0
 40
55.0
 40
56.0
 40
56.0
 40
56.0
 40
57.0
 40
57.0
 40
57.0
 40
58.0
 40
58.0
 40
58.0
 40
59.0
 40
59.0
 40
59.0
 40
60.0
 40
60.0
 40
60.0
 40
61.0
 40
61.0
 40
61.0
 40
62.0
 40
62.0
 40
62.0
 40
63.0
 40
63.0
 40
63.0
 40
64.0
 40
64.0
 40
64.0
 40
65.0
 40
65.0
 40
65.0
 40
66.0
 40
66.0
 40
66.0
 40
67.0
 40
67.0
 40
67.0
 40
68.0
 40
68.0
 40
68.0
 40
69.0
 40
69.0
 40
69.0
 40
70.0
 40
70.0
 40
70.0
 40
71.0
 40
71.0
 40
71.0
 40
72.0
 40
72.0
 40
72.0
 40
73.0
 40
73.0
 40
73.0
 40
74.0
 40
74.0
 40
74.0
 40
75.0
 40
75.0
 40
75.0
 40
76.0
 40
76.0
 40
76.0
 40
77.0
 40
77.0
 40
77.0
 40
78.0
 40
78.0
 40
78.0
 40
79.0
 40
79.0
 40
79.0
 40
80.0
 40
80.0
 40
80.0
 40
81.0
 40
81.0
 40
81.0
 40
82.0
 40
82.0
 40
82.0
 40
83.0
 40
83.0
 40
83.0
 40
84.0
 40
84.0
 40
84.0
 40
85.0
 40
85.0
 40
85.0
 40
86.0
 40
86.0
 40
86.0
 40
87.0
 40
87.0
 40
87.0
 40
88.0
 40
88.0
 40
88.0
 40
89.0
 40
89.0
 40
89.0
 40
90.0
 40
90.0
 40
90.0
 40
91.0
 40
91.0
 40
91.0
 40
92.0
 40
92.0
 40
92.0
 40
93.0
 40
93.0
 40
93.0
 40
94.0
 40
94.0
 40
94.0
 40
95.0
 40
95.0
 40
95.0
 40
96.0
 40
96.0
 40
96.0
 40
97.0
 40
97.0
 40
97.0
 40
98.0
 40
98.0
 40
98.0
 40
99.0
 40
99.0
 40
99.0
 40
100.0
 40
100.0
 40
100.0
 40
101.0
 40
101.0
 40
101.0
 40
102.0
 40
102.0
 40
102.0
 40
103.0
 40
103.0
 40
103.0
 40
104.0
 40
104.0
 40
104.0
 40
105.0
 40
105.0
 40
105.0
 40
106.0
 40
106.0
 40
106.0
 40
107.0
 40
107.0
 40
107.0
 40
108.0
 40
108.0
 40
108.0
 40
109.0
 40
109.0
 40
109.0
 40
110.0
 40
110.0
 40
110.0
 40
111.0
 40
111.0
 40
111.0
 40
112.0
 40
112.0
 40
112.0
 40
113.0
 40
113.0
 40
113.0
 40
114.0
 40
114.0
 40
114.0
 40
115.0
 40
115.0
 40
115.0
 40
116.0
 40
116.0
 40
116.0
 40
117.0
 40
117.0
 40
117.0
 40
118.0
 40
118.0
 40
118.0
 40
119.0
 40
119.0
 40
119.0
 40
120.0
 40
120.0
 40
120.0
 40
121.0
 40
121.0
 40
121.0
 40
122.0
 40
122.0
 40
122.0
 40
123.0
 40
123.0
 40
123.0
 40
124.0
 40
124.0
 40
124.0
 40
125.0
 40
125.0
 40
125.0
 40
126.0
 40
126.0
 40
126.0
 40
127.0
 40
127.0
 40
127.0
 40
128.0
 40
128.0
 40
128.0
 40
129.0
 40
129.0
 40
129.0
 40
130.0
 40
130.0
 40
130.0
 40
131.0
 40
131.0
 40
131.0
 40
132.0
 40
132.0
 40
132.0
 40
133.0
 40
133.0
 40
133.0
 40
134.0
 40
134.0
 40
134.0
 40
135.0
 40
135.0
 40
135.0
 40
136.0
 40
136.0
 40
136.0
 40
137.0
 40
137.0
 40
137.0
 40
138.0
 40
138.0
 40
138.0
 40
139.0
 40
139.0
 40
139.0
 40
140.0
 40
140.0
 40
140.0
 40
141.0
 40
141.0
 40
141.0
 40
142.0
 40
142.0
 40
142.0
 40
143.0
 40
143.0
 40
143.0
 40
144.0
 40
144.0
 40
144.0
 40
145.0
 40
145.0
 40
145.0
 40
146.0
 40
146.0
 40
146.0
 40
147.0
 40
147.0
 40
147.0
 40
148.0
 40
148.0
 40
148.0
 40
149.0
 40
149.0
 40
149.0
 40
150.0
 40
150.0
 40
150.0
 40
151.0
 40
151.0
 40
151.0
 40
152.0
 40
152.0
 40
152.0
 40
153.0
 40
153.0
 40
153.0
 40
154.0
 40
154.0
 40
154.0
 40
155.0
 40
155.0
 40
155.0
 40
156.0
 40
156.0
 40
156.0
 40
157.0
 40
157.0
 40
157.0
 40
158.0
 40
158.0
 40
158.0
 40
159.0
 40
159.0
 40
159.0
 40
160.0
 40
160.0
 40
160.0
 40
161.0
 40
161.0
 40
161.0
 40
162.0
 40
162.0
 40
162.0
 40
163.0
 40
163.0
 40
163.0
 40
164.0
 40
164.0
 40
164.0
 40
165.0
 40
165.0
 40
165.0
 40
166.0
 40
166.0
 40
166.0
 40
167.0
 40
167.0
 40
167.0
 40
168.0
 40
168.0
 40
168.0
 40
169.0
 40
169.0
 40
169.0
 40
170.0
 40
170.0
 40
170.0
 40
171.0
 40
171.0
 40
171.0
 40
172.0
 40
172.0
 40
172.0
 40
173.0
 40
173.0
 40
173.0
 40
174.0
 40
174.0
 40
174.0
 40
175.0
 40
175.0
 40
175.0
 40
176.0
 40
176.0
 40
176.0
 40
177.0
 40
177.0
 40
177.0
 40
178.0
 40
178.0
 40
178.0
 40
179.0
 40
179.0
 40
179.0
 40
180.0
 40
180.0
 40
180.0
 40
181.0
 40
181.0
 40
181.0
 40
182.0
 40
182.0
 40
182.0
 40
183.0
 40
183.0
 40
183.0
 40
184.0
 40
184.0
 40
184.0
 40
185.0
 40
185.0
 40
185.0
 40
186.0
 40
186.0
 40
186.0
 40
187.0
 40
187.0
 40
187.0
 40
188.0
 40
188.0
 40
188.0
 40
189.0
 40
189.0
 40
189.0
 40
190.0
 40
190.0
 40
190.0
 40
191.0
 40
191.0
 40
191.0
 40
192.0
 40
192.0
 40
192.0
 40
193.0
 40
193.0
 40
193.0
 40
194.0
 40
194.0
 40
194.0
 40
195.0
 40
195.0
 40
195.0
 40
196.0
 40
196.0
 40
196.0
 40
197.0
 40
197.0
 40
197.0
 40
198.0
 40
198.0
 40
198.0
 40
199.0
 40
199.0
 40
199.0
 40
200.0
 40
200.0
 40
200.0
 40
201.0
 40
201.0
 40
201.0
 40
202.0
 40
202.0
 40
202.0
 40
203.0
 40
203.0
 40
203.0
 40
204.0
 40
204.0
 40
204.0
 40
205.0
 40
205.0
 40
205.0
 40
206.0
 40
206.0
 40
206.0
 40
207.0
 40
207.0
 40
207.0
 40
208.0
 40
208.0
 40
208.0
 40
209.0
 40
209.0
 40
209.0
 40
210.0
 40
210.0
 40
210.0
 40
211.0
 40
211.0
 40
211.0
 40
212.0
 40
212.0
 40
212.0
 40
213.0
 40
213.0
 40
213.0
 40
214.0
 40
214.0
 40
214.0
 40
215.0
 40
215.0
 40
215.0
 40
216.0
 40
216.0
 40
216.0
 40
217.0
 40
217.0
 40
217.0
 40
218.0
 40
218.0
 40
218.0
 40
219.0
 40
219.0
 40
219.0
 40
220.0
 40
220.0
 40
220.0
 40
221.0
 40
221.0
 40
221.0
 40
222.0
 40
222.0
 40
222.0
 40
223.0
 40
223.0
 40
223.0
 40
224.0
 40
224.0
 40
224.0
 40
225.0
 40
225.0
 40
225.0
 40
226.0
 40
226.0
 40
226.0
 40
227.0
 40
227.0
 40
227.0
 40
228.0
 40
228.0
 40
228.0
 40
228.0
 10
41.97194670698421
 20
-76.39773192534487
 30
0.0
 10
41.76282004565281
 20
-76.38570220312603
 30
0.0
 10
41.69702699177577
 20
-76.2661458142668
 30
0.0
 10
41.66531227036266
 20
-76.06668525876128
 30
0.0
 10
41.49033449704893
 20
-74.97526137014506
 30
0.0
 10
41.31186422382432
 20
-73.88454303708436
 30
0.0
 10
41.11032228452164
 20
-72.79795220402293
 30
0.0
 10
41.0021606206144
 20
-72.21541025972365
 30
0.0
 10
40.74893673818579
 20
-71.68518525985664
 30
0.0
 10
40.38892702514818
 20
-71.21218081553046
 30
0.0
 10
40.15948036433519
 20
-70.91041470449466
 30
0.0
 10
39.88008037146328
 20
-70.67063164899884
 30
0.0
 10
39.51488482522463
 20
-70.54109164903166
 30
0.0
 10
39.35712260702726
 20
-70.48528220460122
 30
0.0
 10
39.27616110129201
 20
-70.29234803798236
 30
0.0
 10
39.31027371933359
 20
-70.07807081581409
 30
0.0
 10
39.34936149611416
 20
-69.83588887142962
 30
0.0
 10
39.47216343742566
 20
-69.63572276036858
 30
0.0
 10
39.63031371116869
 20
-69.45485359374737
 30
0.0
 10
39.82928037275929
 20
-69.22642998269367
 30
0.0
 10
40.04786147829393
 20
-69.01423414941316
 30
0.0
 10
40.30588313837792
 20
-68.85678942723042
 30
0.0
 10
40.59251507550977
 20
-68.68244664949589
 30
0.0
 10
40.75341701584927
 20
-68.42717664955993
 30
0.0
 10
40.85917979092881
 20
-68.12399942741372
 30
0.0
 10
41.0696833230658
 20
-67.52180776089749
 30
0.0
 10
41.10517172909748
 20
-66.89894331660854
 30
0.0
 10
41.06245034129851
 20
-66.26849415009964
 30
0.0
 10
40.97527895463354
 20
-64.98173720597654
 30
0.0
 10
40.55635535421006
 20
-63.78455053960938
 30
0.0
 10
40.09058286609291
 20
-62.59738276212833
 30
0.0
 10
39.56639037946618
 20
-61.26310665135091
 30
0.0
 10
39.26755233153461
 20
-59.88265192947389
 30
0.0
 10
39.30801594161341
 20
-58.44190748538937
 30
0.0
 10
39.33454482982549
 20
-57.51586581895421
 30
0.0
 10
39.50578315879017
 20
-56.61049693029177
 30
0.0
 10
39.73124443451157
 20
-55.71373581940504
 30
0.0
 10
39.91020759291689
 20
-55.0026769306937
 30
0.0
 10
40.14829730906494
 20
-54.30781054197865
 30
0.0
 10
40.30450832325714
 20
-53.5912130421576
 30
0.0
 10
40.4230416565606
 20
-53.04585387562756
 30
0.0
 10
40.44371341263935
 20
-52.48878248687765
 30
0.0
 10
40.46540924541918
 20
-51.9348155425719
 30
0.0
 10
40.50227452225645
 20
-50.98810109836403
 30
0.0
 10
40.43542313507308
 20
-50.04519665415522
 30
0.0
 10
40.35308480384037
 20
-49.10155137661336
 30
0.0
 10
40.26284425058704
 20
-48.06389082131732
 30
0.0
 10
40.24111314003034
 20
-47.0241841549104
 30
0.0
 10
40.28245869453108
 20
-45.98204332183795
 30
0.0
 10
40.31106897157895
 20
-45.25510943313054
 30
0.0
 10
40.39443035834111
 20
-44.53131526664483
 30
0.0
 10
40.39753480270636
 20
-43.80402860016031
 30
0.0
 10
40.40201508036984
 20
-42.80566748929881
 30
0.0
 10
40.20442425207747
 20
-41.84276054509464
 30
0.0
 10
39.835136483721
 20
-40.91428471199396
 30
0.0
 10
39.71540370899786
 20
-40.61456471206841
 30
0.0
 10
39.53816815796396
 20
-40.35068693435674
 30
0.0
 10
39.34780927393153
 20
-40.0931591566435
 30
0.0
 10
39.29563344192932
 20
-40.02288582332773
 30
0.0
 10
39.21982149941899
 20
-40.01272582333025
 30
0.0
 10
39.14626733462885
 20
-39.99498110111251
 30
0.0
 10
37.95634792054178
 20
-39.70852554562828
 30
0.0
 10
36.76727517309978
 20
-39.42069415681149
 30
0.0
 10
35.57629742570637
 20
-39.13818971243768
 30
0.0
 10
33.58038749160497
 20
-38.66412693477854
 30
0.0
 10
31.58292443654862
 20
-38.19662582378423
 30
0.0
 10
29.58786027038092
 20
-37.71878832390355
 30
0.0
 10
29.20872999269788
 20
-37.62801860170395
 30
0.0
 10
28.83079915945885
 20
-37.52172665728637
 30
0.0
 10
28.46613277066114
 20
-37.38566026843124
 30
0.0
 10
27.7464661041744
 20
-37.11694943516508
 30
0.0
 10
27.00178749324958
 20
-36.9772494352001
 30
0.0
 10
26.24610221566071
 20
-36.86012721300704
 30
0.0
 10
24.96710638264709
 20
-36.66168971305665
 30
0.0
 10
23.68468860519002
 20
-36.46547471310571
 30
0.0
 10
22.44619166105526
 20
-36.07427943542599
 30
0.0
 10
21.54943055016821
 20
-35.79145749105226
 30
0.0
 10
20.66695693927761
 20
-35.46605526891125
 30
0.0
 10
19.77347666172329
 20
-35.1725441578734
 30
0.0
 10
18.62539666201038
 20
-34.79528360241237
 30
0.0
 10
17.45904277341308
 20
-34.48903721359983
 30
0.0
 10
16.25465944038093
 20
-34.3568866580776
 30
0.0
 10
15.70841832940617
 20
-34.29663221364794
 30
0.0
 10
15.15910805176573
 20
-34.26269499143422
 30
0.0
 10
14.60979777412528
 20
-34.33794249141553
 30
0.0
 10
14.47302582971495
 20
-34.3568866580776
 30
0.0
 10
14.33399610752765
 20
-34.35328832474494
 30
0.0
 10
14.20861888533664
 20
-34.29246943587145
 30
0.0
 10
13.62639444103792
 20
-34.01031776927508
 30
0.0
 10
12.99195888564077
 20
-33.91266888041073
 30
0.0
 10
12.37011749690758
 20
-33.77399193600087
 30
0.0
 10
11.71832527484828
 20
-33.62861221381515
 30
0.0
 10
11.06184110834553
 20
-33.50288221384638
 30
0.0
 10
10.40556860850982
 20
-33.37866915832186
 30
0.0
 10
9.788207497553053
 20
-33.26204082501792
 30
0.0
 10
9.27350471990369
 20
-32.94080138065372
 30
0.0
 10
8.780497775582806
 20
-32.57821638074443
 30
0.0
 10
8.211220275724845
 20
-32.15929276973804
 30
0.0
 10
7.726327220290549
 20
-31.64734165875477
 30
0.0
 10
7.24055222041217
 20
-31.13764832554879
 30
0.0
 10
7.162694164876131
 20
-31.05598027001369
 30
0.0
 10
7.142550553770059
 20
-30.97709915892253
 30
0.0
 10
7.189046664869265
 20
-30.86685610339454
 30
0.0
 10
7.304122775951758
 20
-30.59331221457388
 30
0.0
 10
7.423502775921785
 20
-30.32424860352996
 30
0.0
 10
7.621940275872175
 20
-30.09720082580914
 30
0.0
 10
7.679795831413503
 20
-30.03091388138131
 30
0.0
 10
7.742519720286527
 20
-29.99249638139085
 30
0.0
 10
7.834312498041577
 20
-29.99161443694645
 30
0.0
 10
8.753827775589428
 20
-29.98353582583738
 30
0.0
 10
9.666781386472138
 20
-30.03553527026876
 30
0.0
 10
10.55888583069357
 20
-30.2823738813182
 30
0.0
 10
10.92129444171399
 20
-30.3826333257376
 30
0.0
 10
11.25237638607574
 20
-30.54180665903129
 30
0.0
 10
11.5556947193333
 20
-30.77054777008523
 30
0.0
 10
12.21803499694535
 20
-31.27043388107118
 30
0.0
 10
12.91134916343896
 20
-31.72280082540248
 30
0.0
 10
13.69529194102048
 20
-32.01528888088522
 30
0.0
 10
13.99723444094517
 20
-32.12775443641265
 30
0.0
 10
14.30524471864587
 20
-32.19940360306131
 30
0.0
 10
14.63251666300856
 20
-32.13706776974357
 30
0.0
 10
14.76276221853159
 20
-32.1125849919718
 30
0.0
 10
14.90193305182992
 20
-32.14257110307543
 30
0.0
 10
15.01097666291392
 20
-32.20871693639222
 30
0.0
 10
15.3296408295009
 20
-32.40267415856588
 30
0.0
 10
15.68672249607834
 20
-32.41816110300665
 30
0.0
 10
16.03812444043503
 20
-32.43696415855736
 30
0.0
 10
16.72903971803999
 20
-32.47432332521485
 30
0.0
 10
17.42048416231158
 20
-32.50342749187408
 30
0.0
 10
18.11189332880534
 20
-32.50706110298425
 30
0.0
 10
19.18814777298072
 20
-32.51291721409387
 30
0.0
 10
20.2609449949348
 20
-32.43936304744569
 30
0.0
 10
21.33409499466632
 20
-32.35444943635571
 30
0.0
 10
23.53327638300548
 20
-32.18098860306588
 30
0.0
 10
25.66267832691766
 20
-32.49690110298678
 30
0.0
 10
27.70339193751865
 20
-33.35524471388337
 30
0.0
 10
28.07426721520374
 20
-33.51131360273321
 30
0.0
 10
28.43978027066769
 20
-33.67838915824709
 30
0.0
 10
28.79619165946776
 20
-33.865467213756
 30
0.0
 10
29.05403693718093
 20
-34.00086332483312
 30
0.0
 10
29.33946943710971
 20
-33.97105360261838
 30
0.0
 10
29.61266054815229
 20
-33.99465443594574
 30
0.0
 10
30.61345582567995
 20
-34.08112026925749
 30
0.0
 10
31.61548582542946
 20
-34.1619063803485
 30
0.0
 10
32.62058499184498
 20
-34.18758860256427
 30
0.0
 10
32.89582221399812
 20
-34.19446776922901
 30
0.0
 10
33.15042193615672
 20
-34.17414776923438
 30
0.0
 10
33.39863638053937
 20
-34.0161738803847
 30
0.0
 10
33.64600415825513
 20
-33.85872915820197
 30
0.0
 10
33.94971054706798
 20
-33.84652304709393
 30
0.0
 10
34.23958804699566
 20
-33.83308221376404
 30
0.0
 10
34.38256888029337
 20
-33.82687332487666
 30
0.0
 10
34.41477749139644
 20
-33.78432832488723
 30
0.0
 10
34.36500054696418
 20
-33.65101360269851
 30
0.0
 10
34.27162026920985
 20
-33.4012469360941
 30
0.0
 10
34.2060036025597
 20
-33.14371915838085
 30
0.0
 10
34.17002026923541
 20
-32.87860665844703
 30
0.0
 10
34.1565794359052
 20
-32.77820610291658
 30
0.0
 10
34.15089971368446
 20
-32.67861693627486
 30
0.0
 10
34.16553999145867
 20
-32.57821638074443
 30
0.0
 10
34.19171610256325
 20
-32.39611249190106
 30
0.0
 10
34.28767165809479
 20
-32.29087888081612
 30
0.0
 10
34.47887721360235
 20
-32.27881388081911
 30
0.0
 10
34.71933054687585
 20
-32.26332693637866
 30
0.0
 10
34.95946638014912
 20
-32.2409255474953
 30
0.0
 10
35.24849721341023
 20
-32.21785388083457
 30
0.0
 10
35.08572554678421
 20
-32.12380332530224
 30
0.0
 10
34.96221804681488
 20
-32.05042554754294
 30
0.0
 10
34.83715832462412
 20
-31.98046971422709
 30
0.0
 10
34.77669221352806
 20
-31.94653249201336
 30
0.0
 10
34.73068999131733
 20
-31.9103727698002
 30
0.0
 10
34.74328415798098
 20
-31.82923388093143
 30
0.0
 10
34.80717221352049
 20
-31.40875804770328
 30
0.0
 10
34.85574971350842
 20
-30.98570693669792
 30
0.0
 10
34.93515999126623
 20
-30.56851193680219
 30
0.0
 10
34.99287443569619
 20
-30.26773360354431
 30
0.0
 10
35.01647526902356
 20
-30.26653415909999
 30
0.0
 10
35.31637076567099
 20
-30.32079138130866
 30
0.0
 10
35.47878965041622
 20
-30.35042471463453
 30
0.0
 10
35.64036186851639
 20
-30.38383277018193
 30
0.0
 10
35.80228686438534
 20
-30.41537110350732
 30
0.0
 10
35.85001769650096
 20
-30.3533527701895
 30
0.0
 10
35.79900603113571
 20
-30.31063138131119
 30
0.0
 10
35.77903880942289
 20
-30.26773360354431
 30
0.0
 10
35.60713020269754
 20
-29.89774027030331
 30
0.0
 10
35.44107770693389
 20
-29.52446610372989
 30
0.0
 10
35.25452971340873
 20
-29.16170471493171
 30
0.0
 10
35.1597736023212
 20
-28.97737832608889
 30
0.0
 10
35.18164582453791
 20
-28.82769471501532
 30
0.0
 10
35.29467493289116
 20
-28.66802749283314
 30
0.0
 10
35.59732298072552
 20
-28.24151915960618
 30
0.0
 10
35.95130019391703
 20
-27.86118943747913
 30
0.0
 10
36.33127712866746
 20
-27.50393138201282
 30
0.0
 10
36.5033621242772
 20
-27.3416536042756
 30
0.0
 10
36.67872795313658
 20
-27.18353860431519
 30
0.0
 10
36.87183850376547
 20
-27.04433249323901
 30
0.0
 10
36.98395127868302
 20
-26.96322888214808
 30
0.0
 10
37.07422710971322
 20
-26.95493860437229
 30
0.0
 10
37.18806943514742
 20
-27.04588471546078
 30
0.0
 10
37.35242765817129
 20
-27.17732971542781
 30
0.0
 10
37.53001598697397
 20
-27.29272332651022
 30
0.0
 10
37.72880625968018
 20
-27.39076027093017
 30
0.0
 10
37.54137543112861
 20
-27.09361554878215
 30
0.0
 10
37.36498654673978
 20
-26.78888610441386
 30
0.0
 10
37.16242155190764
 20
-26.50278332670771
 30
0.0
 10
37.04596961043413
 20
-26.33860054897096
 30
0.0
 10
37.04822738815431
 20
-26.22888666010929
 30
0.0
 10
37.18482294022502
 20
-26.0766277712585
 30
0.0
 10
37.70210098258372
 20
-25.5014588825134
 30
0.0
 10
38.30704430048366
 20
-25.04669304929378
 30
0.0
 10
38.99436122739318
 20
-24.69772527160325
 30
0.0
 10
39.57295204596544
 20
-24.40417888278787
 30
0.0
 10
40.18064703046185
 20
-24.19850943839466
 30
0.0
 10
40.82058590302454
 20
-24.08431527175657
 30
0.0
 10
40.96667221198063
 20
-24.05831554954088
 30
0.0
 10
41.03211145318362
 20
-24.08999499397763
 30
0.0
 10
41.06622506342443
 20
-24.24433527171682
 30
0.0
 10
41.38009144430592
 20
-25.66458332691719
 30
0.0
 10
41.70253032496871
 20
-27.08292638211803
 30
0.0
 10
42.01809003914033
 20
-28.50246888176319
 30
0.0
 10
42.04807614948643
 20
-28.63719471506295
 30
0.0
 10
42.0949250371801
 20
-28.70263499282423
 30
0.0
 10
42.24411475559618
 20
-28.66128943727912
 30
0.0
 10
42.32232558693418
 20
-28.63994638172904
 30
0.0
 10
42.40946169582227
 20
-28.65218777061461
 30
0.0
 10
42.4911297492943
 20
-28.64044027061752
 30
0.0
 10
42.93933390452633
 20
-28.57552915952289
 30
0.0
 10
42.85939446212131
 20
-28.61239443729126
 30
0.0
 10
42.93933390452633
 20
-28.95550610387217
 30
0.0
 10
43.2759191737171
 20
-30.41124360350835
 30
0.0
 10
43.49707555696382
 20
-31.88158610314057
 30
0.0
 10
43.46814777992405
 20
-33.3817736027657
 30
0.0
 10
43.46606639108826
 20
-33.47910499163013
 30
0.0
 10
43.48709194610741
 20
-33.54990749161254
 30
0.0
 10
43.58287221132632
 20
-33.5974266582672
 30
0.0
 10
43.87017332522308
 20
-33.74040749156491
 30
0.0
 10
44.16199109555597
 20
-33.86391499153391
 30
0.0
 10
44.4830894206974
 20
-33.9107638804112
 30
0.0
 10
45.00534162959585
 20
-33.98671693594771
 30
0.0
 10
45.3064374552476
 20
-33.65443554714196
 30
0.0
 10
45.16278634780133
 20
-33.14008554727068
 30
0.0
 10
44.95538829753694
 20
-32.3985466585669
 30
0.0
 10
44.78866665546919
 20
-31.6492466587543
 30
0.0
 10
44.68290274893307
 20
-30.88632943672293
 30
0.0
 10
44.55128136340212
 20
-29.93545221473824
 30
0.0
 10
44.4830894206974
 20
-28.98221138164339
 30
0.0
 10
44.55540886329682
 20
-28.02223249299451
 30
0.0
 10
44.57816302938298
 20
-27.7237119375136
 30
0.0
 10
44.71147774820406
 20
-27.46755999313325
 30
0.0
 10
44.86581802204429
 20
-27.22005110430612
 30
0.0
 10
45.33402467676601
 20
-26.47022193782687
 30
0.0
 10
45.68472221080104
 20
-25.67079221580457
 30
0.0
 10
45.82286883096122
 20
-24.79519777157904
 30
0.0
 10
45.88799160707758
 20
-24.38385888279292
 30
0.0
 10
45.85871105226904
 20
-23.96768693845263
 30
0.0
 10
45.62855883591848
 20
-23.59254304965753
 30
0.0
 10
45.55207776638969
 20
-23.46765971635532
 30
0.0
 10
45.49386943307124
 20
-23.43474554969672
 30
0.0
 10
45.38362523105615
 20
-23.56686082744176
 30
0.0
 10
45.10768246031826
 20
-23.89794277180318
 30
0.0
 10
44.73352635875266
 20
-23.96564082734206
 30
0.0
 10
44.33527553557956
 20
-23.89501471624853
 30
0.0
 10
43.77132499441158
 20
-23.79528443849577
 30
0.0
 10
43.28142250691003
 20
-23.52897249411762
 30
0.0
 10
42.8235522408135
 20
-23.18773054975872
 30
0.0
 10
42.4532061391507
 20
-22.91143499427229
 30
0.0
 10
42.43771919510137
 20
-22.53265749436669
 30
0.0
 10
42.51384863760358
 20
-22.14887055001836
 30
0.0
 10
42.57311530275823
 20
-21.85412471675866
 30
0.0
 10
42.57897141371994
 20
-21.63639027236876
 30
0.0
 10
42.33058058672358
 20
-21.40419193909353
 30
0.0
 10
42.07012476003504
 20
-21.16116332804314
 30
0.0
 10
42.02292309457258
 20
-20.78855943924741
 30
0.0
 10
41.95988170729201
 20
-20.44283721711145
 30
0.0
 10
41.84586393242307
 20
-19.80981277282534
 30
0.0
 10
41.80624698898934
 20
-19.17608277298371
 30
0.0
 10
41.92474504152176
 20
-18.53857805092087
 30
0.0
 10
42.08148420418967
 20
-17.70055444001923
 30
0.0
 10
42.51180252654467
 20
-17.06527221795583
 30
0.0
 10
43.28865554473359
 20
-16.68529527360655
 30
0.0
 10
44.01798721034092
 20
-16.3288838848068
 30
0.0
 10
44.78245663528212
 20
-16.18420971817628
 30
0.0
 10
45.5799813371578
 20
-16.36800694035245
 30
0.0
 10
46.1935677103928
 20
-16.50908277365064
 30
0.0
 10
46.7024143640777
 20
-16.85565166245284
 30
0.0
 10
47.1495601860034
 20
-17.29196721789921
 30
0.0
 10
47.23948323926482
 20
-17.37980888454384
 30
0.0
 10
47.29497518229355
 20
-17.49230971784912
 30
0.0
 10
47.34044823668899
 20
-17.60943194004218
 30
0.0
 10
47.51821295437605
 20
-18.06934832881591
 30
0.0
 10
47.76970822573766
 20
-18.47327888427063
 30
0.0
 10
48.17035793773845
 20
-18.78026610641589
 30
0.0
 10
48.3908440432245
 20
-18.94907027304042
 30
0.0
 10
48.51865542885265
 20
-19.19209888409081
 30
0.0
 10
48.60512125998005
 20
-19.45721138402464
 30
0.0
 10
48.8135423657739
 20
-20.09919638386422
 30
0.0
 10
48.95239569556478
 20
-20.75807943925498
 30
0.0
 10
49.10087985844331
 20
-21.41523388353509
 30
0.0
 10
49.17598624541607
 20
-21.74871471678517
 30
0.0
 10
49.12568013558838
 20
-22.05859471670756
 30
0.0
 10
48.87799486412958
 20
-22.30250527220203
 30
0.0
 10
48.74189443225871
 20
-22.43617277216883
 30
0.0
 10
48.70573347963544
 20
-22.55519999436109
 30
0.0
 10
48.80320597714871
 20
-22.71730138320943
 30
0.0
 10
48.84179986505298
 20
-22.7815422165267
 30
0.0
 10
48.84352847612
 20
-22.86511527206164
 30
0.0
 10
48.90865125223635
 20
-22.93175499426692
 30
0.0
 10
49.02404486040353
 20
-22.7842938831928
 30
0.0
 10
49.09124902535567
 20
-22.61411388323538
 30
0.0
 10
49.1732345788196
 20
-22.45479943883065
 30
0.0
 10
49.70412984305312
 20
-21.42281860575536
 30
0.0
 10
50.18951677511431
 20
-20.37291666157344
 30
0.0
 10
50.49167220959938
 20
-19.2449802729666
 30
0.0
 10
50.63878054289574
 20
-18.69531721754839
 30
0.0
 10
50.61464926426827
 20
-18.14445471768618
 30
0.0
 10
50.58226426509449
 20
-17.59031138449123
 30
0.0
 10
50.53714398846782
 20
-16.81412971801853
 30
0.0
 10
50.58466315392217
 20
-16.0408761071008
 30
0.0
 10
50.6742687071917
 20
-15.27160888507101
 30
0.0
 10
50.84787064720719
 20
-13.77399666322309
 30
0.0
 10
51.11178369602976
 20
-12.28986055248321
 30
0.0
 10
51.40564757742156
 20
-10.81158055285264
 30
0.0
 10
51.53416451858726
 20
-10.16871360856898
 30
0.0
 10
51.67506395943706
 20
-9.5272224976182
 30
0.0
 10
51.83628339976845
 20
-8.891446386666
 30
0.0
 10
52.00921506202327
 20
-8.20984444239196
 30
0.0
 10
52.35200921994453
 20
-7.596963609211926
 30
0.0
 10
52.67204921177963
 20
-6.976991942700105
 30
0.0
 10
52.82088615242693
 20
-6.687784720550431
 30
0.0
 10
52.98072975946009
 20
-6.404433609510056
 30
0.0
 10
53.1312953111744
 20
-6.115720276248862
 30
0.0
 10
53.21261058687764
 20
-5.958275554066138
 30
0.0
 10
53.32938002834305
 20
-5.845280831872053
 30
0.0
 10
53.48061585781804
 20
-5.750736387451234
 30
0.0
 10
54.24751944936381
 20
-5.270641109793595
 30
0.0
 10
55.01265915206569
 20
-4.785571665470418
 30
0.0
 10
55.66896691309967
 20
-4.153746665628315
 30
0.0
 10
55.74922385549659
 20
-4.075888610092277
 30
0.0
 10
55.82157857587288
 20
-3.989599165669408
 30
0.0
 10
55.89735524060633
 20
-3.907084443467752
 30
0.0
 10
55.92423690658719
 20
-3.877803887919327
 30
0.0
 10
55.93870079510707
 20
-3.825769165710101
 30
0.0
 10
55.98967718269544
 20
-3.837657776818223
 30
0.0
 10
56.04308773688838
 20
-3.850251943481868
 30
0.0
 10
56.05688134764759
 20
-3.902956943468777
 30
0.0
 10
56.06513634743699
 20
-3.948782776790621
 30
0.0
 10
56.08789051352315
 20
-4.084672776756547
 30
0.0
 10
56.07857718042742
 20
-4.218516665611907
 30
0.0
 10
56.03208107050252
 20
-4.350631943356941
 30
0.0
 10
55.95559885023152
 20
-4.570447776635247
 30
0.0
 10
55.82020274257465
 20
-4.755444443255429
 30
0.0
 10
55.66173496883972
 20
-4.963159998759214
 30
0.0
 10
55.84397996419027
 20
-4.905304443218207
 30
0.0
 10
55.97796496077203
 20
-4.823495276571753
 30
0.0
 10
56.10577776375165
 20
-4.730114998817419
 30
0.0
 10
56.14197134547676
 20
-4.703586109935084
 30
0.0
 10
56.17950831928839
 20
-4.656031665502594
 30
0.0
 10
56.23016578767118
 20
-4.687040832161665
 30
0.0
 10
56.28114217525955
 20
-4.718579165487058
 30
0.0
 10
56.28287220815132
 20
-4.776963887694707
 30
0.0
 10
56.27426300876839
 20
-4.831044721014501
 30
0.0
 10
56.25323887482577
 20
-4.965946943202823
 30
0.0
 10
56.17125190028531
 20
-5.067405832066547
 30
0.0
 10
56.08443329138913
 20
-5.165583887597539
 30
0.0
 10
55.87118054158776
 20
-5.406742776426243
 30
0.0
 10
55.5941780261188
 20
-5.55124055416788
 30
0.0
 10
55.30687581122627
 20
-5.680463054135463
 30
0.0
 10
55.22661886882935
 20
-5.716622776348632
 30
0.0
 10
55.14840803749134
 20
-5.758321109671502
 30
0.0
 10
55.07192581722034
 20
-5.806193054103913
 30
0.0
 10
55.26655331225498
 20
-5.788977498552812
 30
0.0
 10
55.46361497389419
 20
-5.787072498553284
 30
0.0
 10
55.63827524721601
 20
-5.680286665246582
 30
0.0
 10
55.67171857969613
 20
-5.659790276362748
 30
0.0
 10
55.70925554162798
 20
-5.623101387483257
 30
0.0
 10
55.74957663326536
 20
-5.659790276362748
 30
0.0
 10
55.79332107659379
 20
-5.698701665242008
 30
0.0
 10
55.77024941051573
 20
-5.748831387451707
 30
0.0
 10
55.7550799664583
 20
-5.792399442996263
 30
0.0
 10
55.71408718972633
 20
-5.910403609633406
 30
0.0
 10
55.62003663657021
 20
-5.983252220726387
 30
0.0
 10
55.52496302788462
 20
-6.054583887375122
 30
0.0
 10
55.31100331112097
 20
-6.215133054001697
 30
0.0
 10
55.05950803975937
 20
-6.28575916509523
 30
0.0
 10
54.80561387957008
 20
-6.342415276192233
 30
0.0
 10
54.5916555419075
 20
-6.389969720624723
 30
0.0
 10
54.44870861089772
 20
-6.499330831708636
 30
0.0
 10
54.36637027966501
 20
-6.707434442767701
 30
0.0
 10
54.29747278142273
 20
-6.883117776056969
 30
0.0
 10
54.19996500613259
 20
-7.047300553793717
 30
0.0
 10
54.11554528606409
 20
-7.216457498196004
 30
0.0
 10
54.07250639827321
 20
-7.302394164841111
 30
0.0
 10
54.04322584346467
 20
-7.393163887040716
 30
0.0
 10
54.05423250985053
 20
-7.489966109238503
 30
0.0
 10
54.06732056507218
 20
-7.608852220320048
 30
0.0
 10
54.12556417469737
 20
-7.664661664750488
 30
0.0
 10
54.25715028245144
 20
-7.649139442532193
 30
0.0
 10
54.68986749363413
 20
-7.59816305365593
 30
0.0
 10
55.01922220846711
 20
-7.388859998152861
 30
0.0
 10
55.27071608992656
 20
-7.03696416490736
 30
0.0
 10
55.4912021954126
 20
-6.728601109428896
 30
0.0
 10
55.81501690937362
 20
-6.662808053889861
 30
0.0
 10
56.16850023368885
 20
-6.69071277610508
 30
0.0
 10
56.21362051031551
 20
-6.694346387215253
 30
0.0
 10
56.25842328695027
 20
-6.719675831653264
 30
0.0
 10
56.29871050814468
 20
-6.742747498314307
 30
0.0
 10
56.35487272893408
 20
-6.775308887195144
 30
0.0
 10
56.4210185605799
 20
-6.814573053851844
 30
0.0
 10
56.41999550505044
 20
-6.884317220501294
 30
0.0
 10
56.41861967175221
 20
-6.955296109372268
 30
0.0
 10
56.33730439604896
 20
-6.957871387149478
 30
0.0
 10
56.28770384175882
 20
-6.984400276031812
 30
0.0
 10
55.7471424666608
 20
-7.272937220404126
 30
0.0
 10
55.3261727551784
 20
-7.692566386965708
 30
0.0
 10
54.99198637481533
 20
-8.196227220173192
 30
0.0
 10
54.69328943799128
 20
-8.647183053393768
 30
0.0
 10
54.39427500117532
 20
-9.09178888661592
 30
0.0
 10
53.94469501264506
 20
-9.410982219869542
 30
0.0
 10
53.79931665321698
 20
-9.514310830954631
 30
0.0
 10
53.64564529805224
 20
-9.605962497598641
 30
0.0
 10
53.4775114134528
 20
-9.661419164251319
 30
0.0
 10
53.32112502855366
 20
-9.712748330905022
 30
0.0
 10
53.23843391955217
 20
-9.817135275323396
 30
0.0
 10
53.17503975450283
 20
-9.959410553065586
 30
0.0
 10
53.0165719807679
 20
-10.31564555297678
 30
0.0
 10
53.00521387563766
 20
-10.69735110843671
 30
0.0
 10
52.99487614798807
 20
-11.07305944167629
 30
0.0
 10
52.9783308706324
 20
-11.67613305263661
 30
0.0
 10
53.03347003589235
 20
-12.27850110804141
 30
0.0
 10
53.10822498672283
 20
-12.87656527455867
 30
0.0
 10
53.28701141831286
 20
-14.30937221864484
 30
0.0
 10
53.41863280384381
 20
-15.74510721828599
 30
0.0
 10
53.36726836070978
 20
-17.19086110681324
 30
0.0
 10
53.34970002782465
 20
-17.6814338844686
 30
0.0
 10
53.27427614085998
 20
-18.16375166212569
 30
0.0
 10
53.1615989215124
 20
-18.64504638422765
 30
0.0
 10
53.06275059070089
 20
-19.06827388412189
 30
0.0
 10
53.03795031355583
 20
-19.50924610623387
 30
0.0
 10
52.9562822600838
 20
-19.93882360612652
 30
0.0
 10
52.6283047684512
 20
-21.65018388347641
 30
0.0
 10
52.16874116906453
 20
-23.32432610528017
 30
0.0
 10
51.5617164623288
 20
-24.95765193820514
 30
0.0
 10
51.48280007545323
 20
-25.17055332704054
 30
0.0
 10
51.48177701992378
 20
-25.17450443815095
 30
0.0
 10
51.70776645860276
 20
-25.17383416037327
 30
0.0
 10
53.42067891490272
 20
-25.16935388259654
 30
0.0
 10
55.12082220844187
 20
-25.05067943818171
 30
0.0
 10
56.79894938427141
 20
-24.67860471605262
 30
0.0
 10
57.25128103939814
 20
-24.57834527163322
 30
0.0
 10
57.64780325150424
 20
-24.35750638279947
 30
0.0
 10
58.07018407406174
 20
-24.19110110506327
 30
0.0
 10
58.93145571875553
 20
-23.85158777181502
 30
0.0
 10
59.83061569581605
 20
-23.68504138296778
 30
0.0
 10
60.75217706119395
 20
-23.64990471630973
 30
0.0
 10
62.38998313052114
 20
-23.58753360521415
 30
0.0
 10
64.01607697792493
 20
-23.39943249415012
 30
0.0
 10
65.64008943649291
 20
-23.19256360531289
 30
0.0
 10
66.05040525935821
 20
-23.14017610532591
 30
0.0
 10
66.46072108222353
 20
-23.07801666089705
 30
0.0
 10
66.87308301614775
 20
-23.05476860534744
 30
0.0
 10
67.2189833165284
 20
-23.03511888313017
 30
0.0
 10
67.55486133208746
 20
-23.1257122164409
 30
0.0
 10
67.8656249830336
 20
-23.28386249417914
 30
0.0
 10
68.39376686624075
 20
-23.55257332744531
 30
0.0
 10
68.93877498276512
 20
-23.77891554961091
 30
0.0
 10
69.50067767133444
 20
-23.96701666067495
 30
0.0
 10
69.63124072355905
 20
-24.0105847162195
 30
0.0
 10
69.745258498428
 20
-24.07450804953685
 30
0.0
 10
69.8437893292476
 20
-24.17751916062234
 30
0.0
 10
69.9602412707211
 20
-24.30014471614726
 30
0.0
 10
70.13214987744647
 20
-24.33838582724884
 30
0.0
 10
70.28613737351792
 20
-24.39144360501319
 30
0.0
 10
70.7832718052794
 20
-24.56405777163677
 30
0.0
 10
71.28661512577138
 20
-24.71822166048708
 30
0.0
 10
71.80784427914038
 20
-24.80415832713219
 30
0.0
 10
71.85229427800637
 20
-24.81156666046389
 30
0.0
 10
71.91671149858517
 20
-24.80193582713274
 30
0.0
 10
71.92429622061388
 20
-24.86120249378479
 30
0.0
 10
71.93219844263452
 20
-24.92526693821318
 30
0.0
 10
71.8674637220638
 20
-24.94904416042943
 30
0.0
 10
71.82093233436203
 20
-24.96558943820317
 30
0.0
 10
71.53225428617127
 20
-25.06754221595537
 30
0.0
 10
71.23458040487667
 20
-25.09632888261467
 30
0.0
 10
70.88698846930004
 20
-25.04704582707154
 30
0.0
 10
71.18808609331397
 20
-25.28012610479117
 30
0.0
 10
71.4591940102574
 20
-25.48371416029566
 30
0.0
 10
71.75411622495554
 20
-25.65078971580954
 30
0.0
 10
72.03626788442392
 20
-25.81049221576955
 30
0.0
 10
72.30152148876785
 20
-26.00356749349912
 30
0.0
 10
72.6164109251788
 20
-26.10333304902972
 30
0.0
 10
72.72735953345936
 20
-26.13864610457633
 30
0.0
 10
72.67909953469058
 20
-26.19445554900709
 30
0.0
 10
72.6164109251788
 20
-26.23664777121876
 30
0.0
 10
72.4796389842237
 20
-26.32861693786237
 30
0.0
 10
72.32738009921925
 20
-26.33429666008311
 30
0.0
 10
72.1716639920808
 20
-26.30882610453406
 30
0.0
 10
72.07553205008888
 20
-26.29348027120432
 30
0.0
 10
71.9804584414033
 20
-26.27107888232096
 30
0.0
 10
71.84195788938118
 20
-26.24299777121718
 30
0.0
 10
72.00592899630904
 20
-26.40837999339793
 30
0.0
 10
72.17473315866916
 20
-26.47780666004714
 30
0.0
 10
72.33598787677742
 20
-26.56014499335992
 30
0.0
 10
72.3748992646736
 20
-26.57993582668823
 30
0.0
 10
72.4413978740882
 20
-26.58459249335384
 30
0.0
 10
72.42866259663532
 20
-26.64851582667119
 30
0.0
 10
72.4189964857708
 20
-26.69811638221425
 30
0.0
 10
72.36593870934665
 20
-26.71758971554296
 30
0.0
 10
72.32014998192011
 20
-26.73032499331732
 30
0.0
 10
72.17956621410141
 20
-26.76874249330778
 30
0.0
 10
72.03831399548282
 20
-26.75583082664454
 30
0.0
 10
71.89914316570004
 20
-26.72482165998547
 30
0.0
 10
71.5012451202957
 20
-26.63694471556299
 30
0.0
 10
71.13365068522938
 20
-26.47159777115976
 30
0.0
 10
70.79568958274038
 20
-26.25128804899265
 30
0.0
 10
70.36918126028817
 20
-25.97308749350669
 30
0.0
 10
69.93096071591256
 20
-25.72469666023548
 30
0.0
 10
69.4513946170362
 20
-25.54608527139125
 30
0.0
 10
69.23711740028064
 20
-25.46649860474456
 30
0.0
 10
69.01903018362229
 20
-25.43083277142019
 30
0.0
 10
68.79752102260679
 20
-25.39777749365055
 30
0.0
 10
68.65524574845875
 20
-25.37604638254487
 30
0.0
 10
68.58634998285329
 20
-25.44046360475103
 30
0.0
 10
68.5939329722452
 20
-25.58707804915891
 30
0.0
 10
68.59770769437112
 20
-25.66387777136167
 30
0.0
 10
68.60116664951607
 20
-25.74159471578698
 30
0.0
 10
68.59322741670765
 20
-25.81772416021238
 30
0.0
 10
68.56429963966788
 20
-26.08110804903524
 30
0.0
 10
68.68417352549852
 20
-26.24592582677183
 30
0.0
 10
68.90741129758104
 20
-26.37807638229438
 30
0.0
 10
69.26089462189626
 20
-26.58734416001993
 30
0.0
 10
69.38457850762971
 20
-26.95045832659588
 30
0.0
 10
69.47242017205535
 20
-27.32493193761329
 30
0.0
 10
69.4934457270745
 20
-27.4152077709241
 30
0.0
 10
69.43693072851632
 20
-27.49839277090312
 30
0.0
 10
69.37801684113045
 20
-27.5655969375532
 30
0.0
 10
69.30188739862822
 20
-27.65290943753119
 30
0.0
 10
69.23090851155015
 20
-27.68271915974594
 30
0.0
 10
69.17372498270676
 20
-27.53853888200422
 30
0.0
 10
69.0769210154787
 20
-27.29515749317607
 30
0.0
 10
68.89707490895584
 20
-27.11322999322158
 30
0.0
 10
68.69796713625773
 20
-26.95271610437284
 30
0.0
 10
68.35379714503824
 20
-26.67518582666457
 30
0.0
 10
67.9924115987024
 20
-26.41818721561765
 30
0.0
 10
67.66168244047334
 20
-26.126051937913
 30
0.0
 10
67.21965189619492
 20
-25.73485666023296
 30
0.0
 10
66.78009079629794
 20
-25.33678221588817
 30
0.0
 10
66.44830330476255
 20
-24.83929499379023
 30
0.0
 10
66.3528769183082
 20
-24.69617304938148
 30
0.0
 10
66.20474720567084
 20
-24.66170666050112
 30
0.0
 10
66.04730081499298
 20
-24.64932416050419
 30
0.0
 10
65.66936999130147
 20
-24.61951443828945
 30
0.0
 10
65.3045272228316
 20
-24.7025230493799
 30
0.0
 10
64.94695167639856
 20
-24.80726277157604
 30
0.0
 10
63.97437864565541
 20
-25.09149582706049
 30
0.0
 10
63.04558533601757
 20
-25.49352138251538
 30
0.0
 10
62.11404035978325
 20
-25.8857749935287
 30
0.0
 10
61.3061792692824
 20
-26.22613499344352
 30
0.0
 10
60.47002540172557
 20
-26.48694360448949
 30
0.0
 10
59.64561903386904
 20
-26.77837332663862
 30
0.0
 10
58.92009627460089
 20
-27.03470165990786
 30
0.0
 10
58.17354796031359
 20
-27.21504165986306
 30
0.0
 10
57.432855756988
 20
-27.42004082647827
 30
0.0
 10
56.48095550349522
 20
-27.68391860419026
 30
0.0
 10
55.52803219447299
 20
-27.93971777079286
 30
0.0
 10
54.56272776413684
 20
-28.14729221518528
 30
0.0
 10
54.06559195400517
 20
-28.2539016596031
 30
0.0
 10
53.56676418895355
 20
-28.35088027069009
 30
0.0
 10
53.06652531282682
 20
-28.4437313817781
 30
0.0
 10
52.95144920465154
 20
-28.46510971510602
 30
0.0
 10
52.92597864974579
 20
-28.50627888176225
 30
0.0
 10
52.93941948273622
 20
-28.61994388173401
 30
0.0
 10
53.06723086836437
 20
-29.6946461036873
 30
0.0
 10
53.12198332005295
 20
-30.77485165897309
 30
0.0
 10
53.18710475419503
 20
-31.85421054759199
 30
0.0
 10
53.2339536418887
 20
-32.64175165850617
 30
0.0
 10
53.01417309194021
 20
-33.3817736027657
 30
0.0
 10
52.72200254383855
 20
-34.0943847136985
 30
0.0
 10
52.15600589161166
 20
-35.47639165779761
 30
0.0
 10
51.47592220935298
 20
-36.80290665746588
 30
0.0
 10
50.6019139868154
 20
-38.01939026827287
 30
0.0
 10
50.25086482910474
 20
-38.50841082370614
 30
0.0
 10
49.8839406717991
 20
-38.9885061013641
 30
0.0
 10
49.4632884603086
 20
-39.42221110125541
 30
0.0
 10
49.38405457344114
 20
-39.50370276790195
 30
0.0
 10
49.37304790705527
 20
-39.55108082344556
 30
0.0
 10
49.48223262649196
 20
-39.62343554564973
 30
0.0
 10
50.76038176055033
 20
-40.46989054543821
 30
0.0
 10
52.09709200422579
 20
-41.19541332303456
 30
0.0
 10
53.58327418853234
 20
-41.61123248959742
 30
0.0
 10
53.89026140292267
 20
-41.69702804513116
 30
0.0
 10
54.1996122283638
 20
-41.78247082288779
 30
0.0
 10
54.52106333127401
 20
-41.79347748955151
 30
0.0
 10
54.67057054968199
 20
-41.79866332288345
 30
0.0
 10
54.74878138102
 20
-41.8696069339769
 30
0.0
 10
54.72052388174091
 20
-42.01533943394038
 30
0.0
 10
54.65540110562455
 20
-42.35813360052137
 30
0.0
 10
54.84695943407083
 20
-42.49490554493202
 30
0.0
 10
55.13186276013567
 20
-42.59618804490654
 30
0.0
 10
55.44364775218137
 20
-42.7067838782123
 30
0.0
 10
55.74234468900542
 20
-42.85286915595354
 30
0.0
 10
56.04929662561887
 20
-42.97757610036655
 30
0.0
 10
56.15124940079561
 20
-43.01892165591197
 30
0.0
 10
56.18536301103642
 20
-43.07127387812113
 30
0.0
 10
56.14437023430445
 20
-43.17978832253847
 30
0.0
 10
55.92250829552017
 20
-43.76614026683617
 30
0.0
 10
55.71581580079334
 20
-44.35803082224357
 30
0.0
 10
55.38956692022776
 20
-44.89890971099719
 30
0.0
 10
55.25071359043687
 20
-45.12867387760689
 30
0.0
 10
55.07365442828736
 20
-45.30333415534104
 30
0.0
 10
54.83387137884917
 20
-45.42874665530957
 30
0.0
 10
54.27747028193303
 20
-45.72021165523653
 30
0.0
 10
53.71972862949554
 20
-46.00613804405379
 30
0.0
 10
53.09961586753816
 20
-46.13775943291002
 30
0.0
 10
52.90255554232961
 20
-46.17977526623282
 30
0.0
 10
52.70443421095342
 20
-46.21459443289094
 30
0.0
 10
52.50186921612129
 20
-46.17324887734551
 30
0.0
 10
52.41713332022931
 20
-46.1567035995721
 30
0.0
 10
52.35546644207855
 20
-46.18975887734141
 30
0.0
 10
52.3041372767214
 20
-46.2593619328795
 30
0.0
 10
52.11843505923684
 20
-46.51085721059457
 30
0.0
 10
51.84697256616242
 20
-46.64660609944945
 30
0.0
 10
51.58066062851216
 20
-46.7892341549694
 30
0.0
 10
51.49246618631774
 20
-46.83608304384637
 30
0.0
 10
51.40804646624925
 20
-46.80405082163217
 30
0.0
 10
51.3226036906513
 20
-46.78164943274881
 30
0.0
 10
50.92160120088172
 20
-46.67761526610852
 30
0.0
 10
50.51714148897813
 20
-46.59697026612855
 30
0.0
 10
50.10029927739043
 20
-46.58113054391001
 30
0.0
 10
49.84192483953768
 20
-46.57079415502366
 30
0.0
 10
49.59558012360023
 20
-46.63658721056333
 30
0.0
 10
49.34443887655271
 20
-46.67003054388793
 30
0.0
 10
48.99271943219641
 20
-46.71790248832066
 30
0.0
 10
48.66128348076946
 20
-46.66036443277958
 30
0.0
 10
48.34537221013569
 20
-46.50464832170686
 30
0.0
 10
47.95297627661765
 20
-46.31139665508905
 30
0.0
 10
47.58365323048432
 20
-46.074365266259
 30
0.0
 10
47.17817046305127
 20
-45.90485554407928
 30
0.0
 10
47.02968630017274
 20
-45.84251971076153
 30
0.0
 10
46.98488352353798
 20
-45.87592776630861
 30
0.0
 10
46.96078880193046
 20
-46.02476471071626
 30
0.0
 10
46.6862218644908
 20
-47.70663276585132
 30
0.0
 10
46.11948437894949
 20
-49.29758998767574
 30
0.0
 10
45.43184995204805
 20
-50.84720165395473
 30
0.0
 10
45.16899523653181
 20
-51.44011526491789
 30
0.0
 10
44.93714968689113
 20
-52.03680359810195
 30
0.0
 10
44.87442579960246
 20
-52.6875727646058
 30
0.0
 10
44.86719385534252
 20
-52.75819887569966
 30
0.0
 10
44.84997830022617
 20
-52.83020082012575
 30
0.0
 10
44.85685746671734
 20
-52.89909832010832
 30
0.0
 10
44.88924246589113
 20
-53.23603637558001
 30
0.0
 10
44.77864663537933
 20
-53.5371322088378
 30
0.0
 10
44.64741330539404
 20
-53.83787526431848
 30
0.0
 10
44.44654164385203
 20
-54.29884998642518
 30
0.0
 10
44.25501859318263
 20
-54.76391693075364
 30
0.0
 10
44.18058248397055
 20
-55.26655470840536
 30
0.0
 10
44.16128554001841
 20
-55.39852887503935
 30
0.0
 10
44.09238804177613
 20
-55.5108180416776
 30
0.0
 10
44.02038609916861
 20
-55.6196852638727
 30
0.0
 10
43.79474943825841
 20
-55.96039804156528
 30
0.0
 10
43.69657138520759
 20
-56.33797609702687
 30
0.0
 10
43.68313055221716
 20
-56.7424358191476
 30
0.0
 10
43.64831138643881
 20
-57.78870415221935
 30
0.0
 10
43.62869694249477
 20
-58.83500776306926
 30
0.0
 10
43.60043944321568
 20
-59.88092331836324
 30
0.0
 10
43.53499916710742
 20
-62.36483165107533
 30
0.0
 10
43.52498027847413
 20
-64.84842248378783
 30
0.0
 10
43.54463000019505
 20
-67.33268359427768
 30
0.0
 10
43.5494630556273
 20
-67.98412303855955
 30
0.0
 10
43.63455305345648
 20
-68.62938887173185
 30
0.0
 10
43.69103277423778
 20
-69.27673609379192
 30
0.0
 10
43.81129471561409
 20
-70.65616776011383
 30
0.0
 10
43.80402749357727
 20
-72.02455748199385
 30
0.0
 10
43.42955389201978
 20
-73.37742498165558
 30
0.0
 10
43.17220250969647
 20
-74.30554803697913
 30
0.0
 10
42.96928473709555
 20
-75.24880525896572
 30
0.0
 10
42.82771501848507
 20
-76.2034572031713
 30
0.0
 10
42.81014668559995
 20
-76.31920359203147
 30
0.0
 10
42.75603057586945
 20
-76.36778109201909
 30
0.0
 10
42.64271943378391
 20
-76.37088553646261
 30
0.0
 10
42.58447474691287
 20
-76.37226136979613
 30
0.0
 10
42.52661919283334
 20
-76.3884538697918
 30
0.0
 10
42.46872836097692
 20
-76.39773192534487
 30
0.0
 10
42.30302864298205
 20
-76.39773192534487
 30
0.0
 10
42.1372936472103
 20
-76.39773192534487
 30
0.0
 10
41.97194670698421
 20
-76.39773192534487
 30
0.0
  0
HATCH
  5
42
330
1F
100
AcDbEntity
  8
Layer 1
 62
     7
100
AcDbHatch
 10
0.0
 20
0.0
 30
0.0
210
0.0
220
0.0
230
1.0
  2
SOLID
 70
     1
 71
     0
 91
        1
 92
        1
 93
        1
 72
     4
 94
        3
 73
     0
 74
     1
 95
      689
 96
      685
 40
0.0
 40
0.0
 40
0.0
 40
0.0
 40
1.0
 40
1.0
 40
1.0
 40
2.0
 40
2.0
 40
2.0
 40
3.0
 40
3.0
 40
3.0
 40
4.0
 40
4.0
 40
4.0
 40
5.0
 40
5.0
 40
5.0
 40
6.0
 40
6.0
 40
6.0
 40
7.0
 40
7.0
 40
7.0
 40
8.0
 40
8.0
 40
8.0
 40
9.0
 40
9.0
 40
9.0
 40
10.0
 40
10.0
 40
10.0
 40
11.0
 40
11.0
 40
11.0
 40
12.0
 40
12.0
 40
12.0
 40
13.0
 40
13.0
 40
13.0
 40
14.0
 40
14.0
 40
14.0
 40
15.0
 40
15.0
 40
15.0
 40
16.0
 40
16.0
 40
16.0
 40
17.0
 40
17.0
 40
17.0
 40
18.0
 40
18.0
 40
18.0
 40
19.0
 40
19.0
 40
19.0
 40
20.0
 40
20.0
 40
20.0
 40
21.0
 40
21.0
 40
21.0
 40
22.0
 40
22.0
 40
22.0
 40
23.0
 40
23.0
 40
23.0
 40
24.0
 40
24.0
 40
24.0
 40
25.0
 40
25.0
 40
25.0
 40
26.0
 40
26.0
 40
26.0
 40
27.0
 40
27.0
 40
27.0
 40
28.0
 40
28.0
 40
28.0
 40
29.0
 40
29.0
 40
29.0
 40
30.0
 40
30.0
 40
30.0
 40
31.0
 40
31.0
 40
31.0
 40
32.0
 40
32.0
 40
32.0
 40
33.0
 40
33.0
 40
33.0
 40
34.0
 40
34.0
 40
34.0
 40
35.0
 40
35.0
 40
35.0
 40
36.0
 40
36.0
 40
36.0
 40
37.0
 40
37.0
 40
37.0
 40
38.0
 40
38.0
 40
38.0
 40
39.0
 40
39.0
 40
39.0
 40
40.0
 40
40.0
 40
40.0
 40
41.0
 40
41.0
 40
41.0
 40
42.0
 40
42.0
 40
42.0
 40
43.0
 40
43.0
 40
43.0
 40
44.0
 40
44.0
 40
44.0
 40
45.0
 40
45.0
 40
45.0
 40
46.0
 40
46.0
 40
46.0
 40
47.0
 40
47.0
 40
47.0
 40
48.0
 40
48.0
 40
48.0
 40
49.0
 40
49.0
 40
49.0
 40
50.0
 40
50.0
 40
50.0
 40
51.0
 40
51.0
 40
51.0
 40
52.0
 40
52.0
 40
52.0
 40
53.0
 40
53.0
 40
53.0
 40
54.0
 40
54.0
 40
54.0
 40
55.0
 40
55.0
 40
55.0
 40
56.0
 40
56.0
 40
56.0
 40
57.0
 40
57.0
 40
57.0
 40
58.0
 40
58.0
 40
58.0
 40
59.0
 40
59.0
 40
59.0
 40
60.0
 40
60.0
 40
60.0
 40
61.0
 40
61.0
 40
61.0
 40
62.0
 40
62.0
 40
62.0
 40
63.0
 40
63.0
 40
63.0
 40
64.0
 40
64.0
 40
64.0
 40
65.0
 40
65.0
 40
65.0
 40
66.0
 40
66.0
 40
66.0
 40
67.0
 40
67.0
 40
67.0
 40
68.0
 40
68.0
 40
68.0
 40
69.0
 40
69.0
 40
69.0
 40
70.0
 40
70.0
 40
70.0
 40
71.0
 40
71.0
 40
71.0
 40
72.0
 40
72.0
 40
72.0
 40
73.0
 40
73.0
 40
73.0
 40
74.0
 40
74.0
 40
74.0
 40
75.0
 40
75.0
 40
75.0
 40
76.0
 40
76.0
 40
76.0
 40
77.0
 40
77.0
 40
77.0
 40
78.0
 40
78.0
 40
78.0
 40
79.0
 40
79.0
 40
79.0
 40
80.0
 40
80.0
 40
80.0
 40
81.0
 40
81.0
 40
81.0
 40
82.0
 40
82.0
 40
82.0
 40
83.0
 40
83.0
 40
83.0
 40
84.0
 40
84.0
 40
84.0
 40
85.0
 40
85.0
 40
85.0
 40
86.0
 40
86.0
 40
86.0
 40
87.0
 40
87.0
 40
87.0
 40
88.0
 40
88.0
 40
88.0
 40
89.0
 40
89.0
 40
89.0
 40
90.0
 40
90.0
 40
90.0
 40
91.0
 40
91.0
 40
91.0
 40
92.0
 40
92.0
 40
92.0
 40
93.0
 40
93.0
 40
93.0
 40
94.0
 40
94.0
 40
94.0
 40
95.0
 40
95.0
 40
95.0
 40
96.0
 40
96.0
 40
96.0
 40
97.0
 40
97.0
 40
97.0
 40
98.0
 40
98.0
 40
98.0
 40
99.0
 40
99.0
 40
99.0
 40
100.0
 40
100.0
 40
100.0
 40
101.0
 40
101.0
 40
101.0
 40
102.0
 40
102.0
 40
102.0
 40
103.0
 40
103.0
 40
103.0
 40
104.0
 40
104.0
 40
104.0
 40
105.0
 40
105.0
 40
105.0
 40
106.0
 40
106.0
 40
106.0
 40
107.0
 40
107.0
 40
107.0
 40
108.0
 40
108.0
 40
108.0
 40
109.0
 40
109.0
 40
109.0
 40
110.0
 40
110.0
 40
110.0
 40
111.0
 40
111.0
 40
111.0
 40
112.0
 40
112.0
 40
112.0
 40
113.0
 40
113.0
 40
113.0
 40
114.0
 40
114.0
 40
114.0
 40
115.0
 40
115.0
 40
115.0
 40
116.0
 40
116.0
 40
116.0
 40
117.0
 40
117.0
 40
117.0
 40
118.0
 40
118.0
 40
118.0
 40
119.0
 40
119.0
 40
119.0
 40
120.0
 40
120.0
 40
120.0
 40
121.0
 40
121.0
 40
121.0
 40
122.0
 40
122.0
 40
122.0
 40
123.0
 40
123.0
 40
123.0
 40
124.0
 40
124.0
 40
124.0
 40
125.0
 40
125.0
 40
125.0
 40
126.0
 40
126.0
 40
126.0
 40
127.0
 40
127.0
 40
127.0
 40
128.0
 40
128.0
 40
128.0
 40
129.0
 40
129.0
 40
129.0
 40
130.0
 40
130.0
 40
130.0
 40
131.0
 40
131.0
 40
131.0
 40
132.0
 40
132.0
 40
132.0
 40
133.0
 40
133.0
 40
133.0
 40
134.0
 40
134.0
 40
134.0
 40
135.0
 40
135.0
 40
135.0
 40
136.0
 40
136.0
 40
136.0
 40
137.0
 40
137.0
 40
137.0
 40
138.0
 40
138.0
 40
138.0
 40
139.0
 40
139.0
 40
139.0
 40
140.0
 40
140.0
 40
140.0
 40
141.0
 40
141.0
 40
141.0
 40
142.0
 40
142.0
 40
142.0
 40
143.0
 40
143.0
 40
143.0
 40
144.0
 40
144.0
 40
144.0
 40
145.0
 40
145.0
 40
145.0
 40
146.0
 40
146.0
 40
146.0
 40
147.0
 40
147.0
 40
147.0
 40
148.0
 40
148.0
 40
148.0
 40
149.0
 40
149.0
 40
149.0
 40
150.0
 40
150.0
 40
150.0
 40
151.0
 40
151.0
 40
151.0
 40
152.0
 40
152.0
 40
152.0
 40
153.0
 40
153.0
 40
153.0
 40
154.0
 40
154.0
 40
154.0
 40
155.0
 40
155.0
 40
155.0
 40
156.0
 40
156.0
 40
156.0
 40
157.0
 40
157.0
 40
157.0
 40
158.0
 40
158.0
 40
158.0
 40
159.0
 40
159.0
 40
159.0
 40
160.0
 40
160.0
 40
160.0
 40
161.0
 40
161.0
 40
161.0
 40
162.0
 40
162.0
 40
162.0
 40
163.0
 40
163.0
 40
163.0
 40
164.0
 40
164.0
 40
164.0
 40
165.0
 40
165.0
 40
165.0
 40
166.0
 40
166.0
 40
166.0
 40
167.0
 40
167.0
 40
167.0
 40
168.0
 40
168.0
 40
168.0
 40
169.0
 40
169.0
 40
169.0
 40
170.0
 40
170.0
 40
170.0
 40
171.0
 40
171.0
 40
171.0
 40
172.0
 40
172.0
 40
172.0
 40
173.0
 40
173.0
 40
173.0
 40
174.0
 40
174.0
 40
174.0
 40
175.0
 40
175.0
 40
175.0
 40
176.0
 40
176.0
 40
176.0
 40
177.0
 40
177.0
 40
177.0
 40
178.0
 40
178.0
 40
178.0
 40
179.0
 40
179.0
 40
179.0
 40
180.0
 40
180.0
 40
180.0
 40
181.0
 40
181.0
 40
181.0
 40
182.0
 40
182.0
 40
182.0
 40
183.0
 40
183.0
 40
183.0
 40
184.0
 40
184.0
 40
184.0
 40
185.0
 40
185.0
 40
185.0
 40
186.0
 40
186.0
 40
186.0
 40
187.0
 40
187.0
 40
187.0
 40
188.0
 40
188.0
 40
188.0
 40
189.0
 40
189.0
 40
189.0
 40
190.0
 40
190.0
 40
190.0
 40
191.0
 40
191.0
 40
191.0
 40
192.0
 40
192.0
 40
192.0
 40
193.0
 40
193.0
 40
193.0
 40
194.0
 40
194.0
 40
194.0
 40
195.0
 40
195.0
 40
195.0
 40
196.0
 40
196.0
 40
196.0
 40
197.0
 40
197.0
 40
197.0
 40
198.0
 40
198.0
 40
198.0
 40
199.0
 40
199.0
 40
199.0
 40
200.0
 40
200.0
 40
200.0
 40
201.0
 40
201.0
 40
201.0
 40
202.0
 40
202.0
 40
202.0
 40
203.0
 40
203.0
 40
203.0
 40
204.0
 40
204.0
 40
204.0
 40
205.0
 40
205.0
 40
205.0
 40
206.0
 40
206.0
 40
206.0
 40
207.0
 40
207.0
 40
207.0
 40
208.0
 40
208.0
 40
208.0
 40
209.0
 40
209.0
 40
209.0
 40
210.0
 40
210.0
 40
210.0
 40
211.0
 40
211.0
 40
211.0
 40
212.0
 40
212.0
 40
212.0
 40
213.0
 40
213.0
 40
213.0
 40
214.0
 40
214.0
 40
214.0
 40
215.0
 40
215.0
 40
215.0
 40
216.0
 40
216.0
 40
216.0
 40
217.0
 40
217.0
 40
217.0
 40
218.0
 40
218.0
 40
218.0
 40
219.0
 40
219.0
 40
219.0
 40
220.0
 40
220.0
 40
220.0
 40
221.0
 40
221.0
 40
221.0
 40
222.0
 40
222.0
 40
222.0
 40
223.0
 40
223.0
 40
223.0
 40
224.0
 40
224.0
 40
224.0
 40
225.0
 40
225.0
 40
225.0
 40
226.0
 40
226.0
 40
226.0
 40
227.0
 40
227.0
 40
227.0
 40
228.0
 40
228.0
 40
228.0
 40
228.0
 10
41.97194670698421
 20
-76.39773192534487
 10
41.76282004565281
 20
-76.38570220312603
 10
41.69702699177577
 20
-76.2661458142668
 10
41.66531227036266
 20
-76.06668525876128
 10
41.49033449704893
 20
-74.97526137014506
 10
41.31186422382432
 20
-73.88454303708436
 10
41.11032228452164
 20
-72.79795220402293
 10
41.0021606206144
 20
-72.21541025972365
 10
40.74893673818579
 20
-71.68518525985664
 10
40.38892702514818
 20
-71.21218081553046
 10
40.15948036433519
 20
-70.91041470449466
 10
39.88008037146328
 20
-70.67063164899884
 10
39.51488482522463
 20
-70.54109164903166
 10
39.35712260702726
 20
-70.48528220460122
 10
39.27616110129201
 20
-70.29234803798236
 10
39.31027371933359
 20
-70.07807081581409
 10
39.34936149611416
 20
-69.83588887142962
 10
39.47216343742566
 20
-69.63572276036858
 10
39.63031371116869
 20
-69.45485359374737
 10
39.82928037275929
 20
-69.22642998269367
 10
40.04786147829393
 20
-69.01423414941316
 10
40.30588313837792
 20
-68.85678942723042
 10
40.59251507550977
 20
-68.68244664949589
 10
40.75341701584927
 20
-68.42717664955993
 10
40.85917979092881
 20
-68.12399942741372
 10
41.0696833230658
 20
-67.52180776089749
 10
41.10517172909748
 20
-66.89894331660854
 10
41.06245034129851
 20
-66.26849415009964
 10
40.97527895463354
 20
-64.98173720597654
 10
40.55635535421006
 20
-63.78455053960938
 10
40.09058286609291
 20
-62.59738276212833
 10
39.56639037946618
 20
-61.26310665135091
 10
39.26755233153461
 20
-59.88265192947389
 10
39.30801594161341
 20
-58.44190748538937
 10
39.33454482982549
 20
-57.51586581895421
 10
39.50578315879017
 20
-56.61049693029177
 10
39.73124443451157
 20
-55.71373581940504
 10
39.91020759291689
 20
-55.0026769306937
 10
40.14829730906494
 20
-54.30781054197865
 10
40.30450832325714
 20
-53.5912130421576
 10
40.4230416565606
 20
-53.04585387562756
 10
40.44371341263935
 20
-52.48878248687765
 10
40.46540924541918
 20
-51.9348155425719
 10
40.50227452225645
 20
-50.98810109836403
 10
40.43542313507308
 20
-50.04519665415522
 10
40.35308480384037
 20
-49.10155137661336
 10
40.26284425058704
 20
-48.06389082131732
 10
40.24111314003034
 20
-47.0241841549104
 10
40.28245869453108
 20
-45.98204332183795
 10
40.31106897157895
 20
-45.25510943313054
 10
40.39443035834111
 20
-44.53131526664483
 10
40.39753480270636
 20
-43.80402860016031
 10
40.40201508036984
 20
-42.80566748929881
 10
40.20442425207747
 20
-41.84276054509464
 10
39.835136483721
 20
-40.91428471199396
 10
39.71540370899786
 20
-40.61456471206841
 10
39.53816815796396
 20
-40.35068693435674
 10
39.34780927393153
 20
-40.0931591566435
 10
39.29563344192932
 20
-40.02288582332773
 10
39.21982149941899
 20
-40.01272582333025
 10
39.14626733462885
 20
-39.99498110111251
 10
37.95634792054178
 20
-39.70852554562828
 10
36.76727517309978
 20
-39.42069415681149
 10
35.57629742570637
 20
-39.13818971243768
 10
33.58038749160497
 20
-38.66412693477854
 10
31.58292443654862
 20
-38.19662582378423
 10
29.58786027038092
 20
-37.71878832390355
 10
29.20872999269788
 20
-37.62801860170395
 10
28.83079915945885
 20
-37.52172665728637
 10
28.46613277066114
 20
-37.38566026843124
 10
27.7464661041744
 20
-37.11694943516508
 10
27.00178749324958
 20
-36.9772494352001
 10
26.24610221566071
 20
-36.86012721300704
 10
24.96710638264709
 20
-36.66168971305665
 10
23.68468860519002
 20
-36.46547471310571
 10
22.44619166105526
 20
-36.07427943542599
 10
21.54943055016821
 20
-35.79145749105226
 10
20.66695693927761
 20
-35.46605526891125
 10
19.77347666172329
 20
-35.1725441578734
 10
18.62539666201038
 20
-34.79528360241237
 10
17.45904277341308
 20
-34.48903721359983
 10
16.25465944038093
 20
-34.3568866580776
 10
15.70841832940617
 20
-34.29663221364794
 10
15.15910805176573
 20
-34.26269499143422
 10
14.60979777412528
 20
-34.33794249141553
 10
14.47302582971495
 20
-34.3568866580776
 10
14.33399610752765
 20
-34.35328832474494
 10
14.20861888533664
 20
-34.29246943587145
 10
13.62639444103792
 20
-34.01031776927508
 10
12.99195888564077
 20
-33.91266888041073
 10
12.37011749690758
 20
-33.77399193600087
 10
11.71832527484828
 20
-33.62861221381515
 10
11.06184110834553
 20
-33.50288221384638
 10
10.40556860850982
 20
-33.37866915832186
 10
9.788207497553053
 20
-33.26204082501792
 10
9.27350471990369
 20
-32.94080138065372
 10
8.780497775582806
 20
-32.57821638074443
 10
8.211220275724845
 20
-32.15929276973804
 10
7.726327220290549
 20
-31.64734165875477
 10
7.24055222041217
 20
-31.13764832554879
 10
7.162694164876131
 20
-31.05598027001369
 10
7.142550553770059
 20
-30.97709915892253
 10
7.189046664869265
 20
-30.86685610339454
 10
7.304122775951758
 20
-30.59331221457388
 10
7.423502775921785
 20
-30.32424860352996
 10
7.621940275872175
 20
-30.09720082580914
 10
7.679795831413503
 20
-30.03091388138131
 10
7.742519720286527
 20
-29.99249638139085
 10
7.834312498041577
 20
-29.99161443694645
 10
8.753827775589428
 20
-29.98353582583738
 10
9.666781386472138
 20
-30.03553527026876
 10
10.55888583069357
 20
-30.2823738813182
 10
10.92129444171399
 20
-30.3826333257376
 10
11.25237638607574
 20
-30.54180665903129
 10
11.5556947193333
 20
-30.77054777008523
 10
12.21803499694535
 20
-31.27043388107118
 10
12.91134916343896
 20
-31.72280082540248
 10
13.69529194102048
 20
-32.01528888088522
 10
13.99723444094517
 20
-32.12775443641265
 10
14.30524471864587
 20
-32.19940360306131
 10
14.63251666300856
 20
-32.13706776974357
 10
14.76276221853159
 20
-32.1125849919718
 10
14.90193305182992
 20
-32.14257110307543
 10
15.01097666291392
 20
-32.20871693639222
 10
15.3296408295009
 20
-32.40267415856588
 10
15.68672249607834
 20
-32.41816110300665
 10
16.03812444043503
 20
-32.43696415855736
 10
16.72903971803999
 20
-32.47432332521485
 10
17.42048416231158
 20
-32.50342749187408
 10
18.11189332880534
 20
-32.50706110298425
 10
19.18814777298072
 20
-32.51291721409387
 10
20.2609449949348
 20
-32.43936304744569
 10
21.33409499466632
 20
-32.35444943635571
 10
23.53327638300548
 20
-32.18098860306588
 10
25.66267832691766
 20
-32.49690110298678
 10
27.70339193751865
 20
-33.35524471388337
 10
28.07426721520374
 20
-33.51131360273321
 10
28.43978027066769
 20
-33.67838915824709
 10
28.79619165946776
 20
-33.865467213756
 10
29.05403693718093
 20
-34.00086332483312
 10
29.33946943710971
 20
-33.97105360261838
 10
29.61266054815229
 20
-33.99465443594574
 10
30.61345582567995
 20
-34.08112026925749
 10
31.61548582542946
 20
-34.1619063803485
 10
32.62058499184498
 20
-34.18758860256427
 10
32.89582221399812
 20
-34.19446776922901
 10
33.15042193615672
 20
-34.17414776923438
 10
33.39863638053937
 20
-34.0161738803847
 10
33.64600415825513
 20
-33.85872915820197
 10
33.94971054706798
 20
-33.84652304709393
 10
34.23958804699566
 20
-33.83308221376404
 10
34.38256888029337
 20
-33.82687332487666
 10
34.41477749139644
 20
-33.78432832488723
 10
34.36500054696418
 20
-33.65101360269851
 10
34.27162026920985
 20
-33.4012469360941
 10
34.2060036025597
 20
-33.14371915838085
 10
34.17002026923541
 20
-32.87860665844703
 10
34.1565794359052
 20
-32.77820610291658
 10
34.15089971368446
 20
-32.67861693627486
 10
34.16553999145867
 20
-32.57821638074443
 10
34.19171610256325
 20
-32.39611249190106
 10
34.28767165809479
 20
-32.29087888081612
 10
34.47887721360235
 20
-32.27881388081911
 10
34.71933054687585
 20
-32.26332693637866
 10
34.95946638014912
 20
-32.2409255474953
 10
35.24849721341023
 20
-32.21785388083457
 10
35.08572554678421
 20
-32.12380332530224
 10
34.96221804681488
 20
-32.05042554754294
 10
34.83715832462412
 20
-31.98046971422709
 10
34.77669221352806
 20
-31.94653249201336
 10
34.73068999131733
 20
-31.9103727698002
 10
34.74328415798098
 20
-31.82923388093143
 10
34.80717221352049
 20
-31.40875804770328
 10
34.85574971350842
 20
-30.98570693669792
 10
34.93515999126623
 20
-30.56851193680219
 10
34.99287443569619
 20
-30.26773360354431
 10
35.01647526902356
 20
-30.26653415909999
 10
35.31637076567099
 20
-30.32079138130866
 10
35.47878965041622
 20
-30.35042471463453
 10
35.64036186851639
 20
-30.38383277018193
 10
35.80228686438534
 20
-30.41537110350732
 10
35.85001769650096
 20
-30.3533527701895
 10
35.79900603113571
 20
-30.31063138131119
 10
35.77903880942289
 20
-30.26773360354431
 10
35.60713020269754
 20
-29.89774027030331
 10
35.44107770693389
 20
-29.52446610372989
 10
35.25452971340873
 20
-29.16170471493171
 10
35.1597736023212
 20
-28.97737832608889
 10
35.18164582453791
 20
-28.82769471501532
 10
35.29467493289116
 20
-28.66802749283314
 10
35.59732298072552
 20
-28.24151915960618
 10
35.95130019391703
 20
-27.86118943747913
 10
36.33127712866746
 20
-27.50393138201282
 10
36.5033621242772
 20
-27.3416536042756
 10
36.67872795313658
 20
-27.18353860431519
 10
36.87183850376547
 20
-27.04433249323901
 10
36.98395127868302
 20
-26.96322888214808
 10
37.07422710971322
 20
-26.95493860437229
 10
37.18806943514742
 20
-27.04588471546078
 10
37.35242765817129
 20
-27.17732971542781
 10
37.53001598697397
 20
-27.29272332651022
 10
37.72880625968018
 20
-27.39076027093017
 10
37.54137543112861
 20
-27.09361554878215
 10
37.36498654673978
 20
-26.78888610441386
 10
37.16242155190764
 20
-26.50278332670771
 10
37.04596961043413
 20
-26.33860054897096
 10
37.04822738815431
 20
-26.22888666010929
 10
37.18482294022502
 20
-26.0766277712585
 10
37.70210098258372
 20
-25.5014588825134
 10
38.30704430048366
 20
-25.04669304929378
 10
38.99436122739318
 20
-24.69772527160325
 10
39.57295204596544
 20
-24.40417888278787
 10
40.18064703046185
 20
-24.19850943839466
 10
40.82058590302454
 20
-24.08431527175657
 10
40.96667221198063
 20
-24.05831554954088
 10
41.03211145318362
 20
-24.08999499397763
 10
41.06622506342443
 20
-24.24433527171682
 10
41.38009144430592
 20
-25.66458332691719
 10
41.70253032496871
 20
-27.08292638211803
 10
42.01809003914033
 20
-28.50246888176319
 10
42.04807614948643
 20
-28.63719471506295
 10
42.0949250371801
 20
-28.70263499282423
 10
42.24411475559618
 20
-28.66128943727912
 10
42.32232558693418
 20
-28.63994638172904
 10
42.40946169582227
 20
-28.65218777061461
 10
42.4911297492943
 20
-28.64044027061752
 10
42.93933390452633
 20
-28.57552915952289
 10
42.85939446212131
 20
-28.61239443729126
 10
42.93933390452633
 20
-28.95550610387217
 10
43.2759191737171
 20
-30.41124360350835
 10
43.49707555696382
 20
-31.88158610314057
 10
43.46814777992405
 20
-33.3817736027657
 10
43.46606639108826
 20
-33.47910499163013
 10
43.48709194610741
 20
-33.54990749161254
 10
43.58287221132632
 20
-33.5974266582672
 10
43.87017332522308
 20
-33.74040749156491
 10
44.16199109555597
 20
-33.86391499153391
 10
44.4830894206974
 20
-33.9107638804112
 10
45.00534162959585
 20
-33.98671693594771
 10
45.3064374552476
 20
-33.65443554714196
 10
45.16278634780133
 20
-33.14008554727068
 10
44.95538829753694
 20
-32.3985466585669
 10
44.78866665546919
 20
-31.6492466587543
 10
44.68290274893307
 20
-30.88632943672293
 10
44.55128136340212
 20
-29.93545221473824
 10
44.4830894206974
 20
-28.98221138164339
 10
44.55540886329682
 20
-28.02223249299451
 10
44.57816302938298
 20
-27.7237119375136
 10
44.71147774820406
 20
-27.46755999313325
 10
44.86581802204429
 20
-27.22005110430612
 10
45.33402467676601
 20
-26.47022193782687
 10
45.68472221080104
 20
-25.67079221580457
 10
45.82286883096122
 20
-24.79519777157904
 10
45.88799160707758
 20
-24.38385888279292
 10
45.85871105226904
 20
-23.96768693845263
 10
45.62855883591848
 20
-23.59254304965753
 10
45.55207776638969
 20
-23.46765971635532
 10
45.49386943307124
 20
-23.43474554969672
 10
45.38362523105615
 20
-23.56686082744176
 10
45.10768246031826
 20
-23.89794277180318
 10
44.73352635875266
 20
-23.96564082734206
 10
44.33527553557956
 20
-23.89501471624853
 10
43.77132499441158
 20
-23.79528443849577
 10
43.28142250691003
 20
-23.52897249411762
 10
42.8235522408135
 20
-23.18773054975872
 10
42.4532061391507
 20
-22.91143499427229
 10
42.43771919510137
 20
-22.53265749436669
 10
42.51384863760358
 20
-22.14887055001836
 10
42.57311530275823
 20
-21.85412471675866
 10
42.57897141371994
 20
-21.63639027236876
 10
42.33058058672358
 20
-21.40419193909353
 10
42.07012476003504
 20
-21.16116332804314
 10
42.02292309457258
 20
-20.78855943924741
 10
41.95988170729201
 20
-20.44283721711145
 10
41.84586393242307
 20
-19.80981277282534
 10
41.80624698898934
 20
-19.17608277298371
 10
41.92474504152176
 20
-18.53857805092087
 10
42.08148420418967
 20
-17.70055444001923
 10
42.51180252654467
 20
-17.06527221795583
 10
43.28865554473359
 20
-16.68529527360655
 10
44.01798721034092
 20
-16.3288838848068
 10
44.78245663528212
 20
-16.18420971817628
 10
45.5799813371578
 20
-16.36800694035245
 10
46.1935677103928
 20
-16.50908277365064
 10
46.7024143640777
 20
-16.85565166245284
 10
47.1495601860034
 20
-17.29196721789921
 10
47.23948323926482
 20
-17.37980888454384
 10
47.29497518229355
 20
-17.49230971784912
 10
47.34044823668899
 20
-17.60943194004218
 10
47.51821295437605
 20
-18.06934832881591
 10
47.76970822573766
 20
-18.47327888427063
 10
48.17035793773845
 20
-18.78026610641589
 10
48.3908440432245
 20
-18.94907027304042
 10
48.51865542885265
 20
-19.19209888409081
 10
48.60512125998005
 20
-19.45721138402464
 10
48.8135423657739
 20
-20.09919638386422
 10
48.95239569556478
 20
-20.75807943925498
 10
49.10087985844331
 20
-21.41523388353509
 10
49.17598624541607
 20
-21.74871471678517
 10
49.12568013558838
 20
-22.05859471670756
 10
48.87799486412958
 20
-22.30250527220203
 10
48.74189443225871
 20
-22.43617277216883
 10
48.70573347963544
 20
-22.55519999436109
 10
48.80320597714871
 20
-22.71730138320943
 10
48.84179986505298
 20
-22.7815422165267
 10
48.84352847612
 20
-22.86511527206164
 10
48.90865125223635
 20
-22.93175499426692
 10
49.02404486040353
 20
-22.7842938831928
 10
49.09124902535567
 20
-22.61411388323538
 10
49.1732345788196
 20
-22.45479943883065
 10
49.70412984305312
 20
-21.42281860575536
 10
50.18951677511431
 20
-20.37291666157344
 10
50.49167220959938
 20
-19.2449802729666
 10
50.63878054289574
 20
-18.69531721754839
 10
50.61464926426827
 20
-18.14445471768618
 10
50.58226426509449
 20
-17.59031138449123
 10
50.53714398846782
 20
-16.81412971801853
 10
50.58466315392217
 20
-16.0408761071008
 10
50.6742687071917
 20
-15.27160888507101
 10
50.84787064720719
 20
-13.77399666322309
 10
51.11178369602976
 20
-12.28986055248321
 10
51.40564757742156
 20
-10.81158055285264
 10
51.53416451858726
 20
-10.16871360856898
 10
51.67506395943706
 20
-9.5272224976182
 10
51.83628339976845
 20
-8.891446386666
 10
52.00921506202327
 20
-8.20984444239196
 10
52.35200921994453
 20
-7.596963609211926
 10
52.67204921177963
 20
-6.976991942700105
 10
52.82088615242693
 20
-6.687784720550431
 10
52.98072975946009
 20
-6.404433609510056
 10
53.1312953111744
 20
-6.115720276248862
 10
53.21261058687764
 20
-5.958275554066138
 10
53.32938002834305
 20
-5.845280831872053
 10
53.48061585781804
 20
-5.750736387451234
 10
54.24751944936381
 20
-5.270641109793595
 10
55.01265915206569
 20
-4.785571665470418
 10
55.66896691309967
 20
-4.153746665628315
 10
55.74922385549659
 20
-4.075888610092277
 10
55.82157857587288
 20
-3.989599165669408
 10
55.89735524060633
 20
-3.907084443467752
 10
55.92423690658719
 20
-3.877803887919327
 10
55.93870079510707
 20
-3.825769165710101
 10
55.98967718269544
 20
-3.837657776818223
 10
56.04308773688838
 20
-3.850251943481868
 10
56.05688134764759
 20
-3.902956943468777
 10
56.06513634743699
 20
-3.948782776790621
 10
56.08789051352315
 20
-4.084672776756547
 10
56.07857718042742
 20
-4.218516665611907
 10
56.03208107050252
 20
-4.350631943356941
 10
55.95559885023152
 20
-4.570447776635247
 10
55.82020274257465
 20
-4.755444443255429
 10
55.66173496883972
 20
-4.963159998759214
 10
55.84397996419027
 20
-4.905304443218207
 10
55.97796496077203
 20
-4.823495276571753
 10
56.10577776375165
 20
-4.730114998817419
 10
56.14197134547676
 20
-4.703586109935084
 10
56.17950831928839
 20
-4.656031665502594
 10
56.23016578767118
 20
-4.687040832161665
 10
56.28114217525955
 20
-4.718579165487058
 10
56.28287220815132
 20
-4.776963887694707
 10
56.27426300876839
 20
-4.831044721014501
 10
56.25323887482577
 20
-4.965946943202823
 10
56.17125190028531
 20
-5.067405832066547
 10
56.08443329138913
 20
-5.165583887597539
 10
55.87118054158776
 20
-5.406742776426243
 10
55.5941780261188
 20
-5.55124055416788
 10
55.30687581122627
 20
-5.680463054135463
 10
55.22661886882935
 20
-5.716622776348632
 10
55.14840803749134
 20
-5.758321109671502
 10
55.07192581722034
 20
-5.806193054103913
 10
55.26655331225498
 20
-5.788977498552812
 10
55.46361497389419
 20
-5.787072498553284
 10
55.63827524721601
 20
-5.680286665246582
 10
55.67171857969613
 20
-5.659790276362748
 10
55.70925554162798
 20
-5.623101387483257
 10
55.74957663326536
 20
-5.659790276362748
 10
55.79332107659379
 20
-5.698701665242008
 10
55.77024941051573
 20
-5.748831387451707
 10
55.7550799664583
 20
-5.792399442996263
 10
55.71408718972633
 20
-5.910403609633406
 10
55.62003663657021
 20
-5.983252220726387
 10
55.52496302788462
 20
-6.054583887375122
 10
55.31100331112097
 20
-6.215133054001697
 10
55.05950803975937
 20
-6.28575916509523
 10
54.80561387957008
 20
-6.342415276192233
 10
54.5916555419075
 20
-6.389969720624723
 10
54.44870861089772
 20
-6.499330831708636
 10
54.36637027966501
 20
-6.707434442767701
 10
54.29747278142273
 20
-6.883117776056969
 10
54.19996500613259
 20
-7.047300553793717
 10
54.11554528606409
 20
-7.216457498196004
 10
54.07250639827321
 20
-7.302394164841111
 10
54.04322584346467
 20
-7.393163887040716
 10
54.05423250985053
 20
-7.489966109238503
 10
54.06732056507218
 20
-7.608852220320048
 10
54.12556417469737
 20
-7.664661664750488
 10
54.25715028245144
 20
-7.649139442532193
 10
54.68986749363413
 20
-7.59816305365593
 10
55.01922220846711
 20
-7.388859998152861
 10
55.27071608992656
 20
-7.03696416490736
 10
55.4912021954126
 20
-6.728601109428896
 10
55.81501690937362
 20
-6.662808053889861
 10
56.16850023368885
 20
-6.69071277610508
 10
56.21362051031551
 20
-6.694346387215253
 10
56.25842328695027
 20
-6.719675831653264
 10
56.29871050814468
 20
-6.742747498314307
 10
56.35487272893408
 20
-6.775308887195144
 10
56.4210185605799
 20
-6.814573053851844
 10
56.41999550505044
 20
-6.884317220501294
 10
56.41861967175221
 20
-6.955296109372268
 10
56.33730439604896
 20
-6.957871387149478
 10
56.28770384175882
 20
-6.984400276031812
 10
55.7471424666608
 20
-7.272937220404126
 10
55.3261727551784
 20
-7.692566386965708
 10
54.99198637481533
 20
-8.196227220173192
 10
54.69328943799128
 20
-8.647183053393768
 10
54.39427500117532
 20
-9.09178888661592
 10
53.94469501264506
 20
-9.410982219869542
 10
53.79931665321698
 20
-9.514310830954631
 10
53.64564529805224
 20
-9.605962497598641
 10
53.4775114134528
 20
-9.661419164251319
 10
53.32112502855366
 20
-9.712748330905022
 10
53.23843391955217
 20
-9.817135275323396
 10
53.17503975450283
 20
-9.959410553065586
 10
53.0165719807679
 20
-10.31564555297678
 10
53.00521387563766
 20
-10.69735110843671
 10
52.99487614798807
 20
-11.07305944167629
 10
52.9783308706324
 20
-11.67613305263661
 10
53.03347003589235
 20
-12.27850110804141
 10
53.10822498672283
 20
-12.87656527455867
 10
53.28701141831286
 20
-14.30937221864484
 10
53.41863280384381
 20
-15.74510721828599
 10
53.36726836070978
 20
-17.19086110681324
 10
53.34970002782465
 20
-17.6814338844686
 10
53.27427614085998
 20
-18.16375166212569
 10
53.1615989215124
 20
-18.64504638422765
 10
53.06275059070089
 20
-19.06827388412189
 10
53.03795031355583
 20
-19.50924610623387
 10
52.9562822600838
 20
-19.93882360612652
 10
52.6283047684512
 20
-21.65018388347641
 10
52.16874116906453
 20
-23.32432610528017
 10
51.5617164623288
 20
-24.95765193820514
 10
51.48280007545323
 20
-25.17055332704054
 10
51.48177701992378
 20
-25.17450443815095
 10
51.70776645860276
 20
-25.17383416037327
 10
53.42067891490272
 20
-25.16935388259654
 10
55.12082220844187
 20
-25.05067943818171
 10
56.79894938427141
 20
-24.67860471605262
 10
57.25128103939814
 20
-24.57834527163322
 10
57.64780325150424
 20
-24.35750638279947
 10
58.07018407406174
 20
-24.19110110506327
 10
58.93145571875553
 20
-23.85158777181502
 10
59.83061569581605
 20
-23.68504138296778
 10
60.75217706119395
 20
-23.64990471630973
 10
62.38998313052114
 20
-23.58753360521415
 10
64.01607697792493
 20
-23.39943249415012
 10
65.64008943649291
 20
-23.19256360531289
 10
66.05040525935821
 20
-23.14017610532591
 10
66.46072108222353
 20
-23.07801666089705
 10
66.87308301614775
 20
-23.05476860534744
 10
67.2189833165284
 20
-23.03511888313017
 10
67.55486133208746
 20
-23.1257122164409
 10
67.8656249830336
 20
-23.28386249417914
 10
68.39376686624075
 20
-23.55257332744531
 10
68.93877498276512
 20
-23.77891554961091
 10
69.50067767133444
 20
-23.96701666067495
 10
69.63124072355905
 20
-24.0105847162195
 10
69.745258498428
 20
-24.07450804953685
 10
69.8437893292476
 20
-24.17751916062234
 10
69.9602412707211
 20
-24.30014471614726
 10
70.13214987744647
 20
-24.33838582724884
 10
70.28613737351792
 20
-24.39144360501319
 10
70.7832718052794
 20
-24.56405777163677
 10
71.28661512577138
 20
-24.71822166048708
 10
71.80784427914038
 20
-24.80415832713219
 10
71.85229427800637
 20
-24.81156666046389
 10
71.91671149858517
 20
-24.80193582713274
 10
71.92429622061388
 20
-24.86120249378479
 10
71.93219844263452
 20
-24.92526693821318
 10
71.8674637220638
 20
-24.94904416042943
 10
71.82093233436203
 20
-24.96558943820317
 10
71.53225428617127
 20
-25.06754221595537
 10
71.23458040487667
 20
-25.09632888261467
 10
70.88698846930004
 20
-25.04704582707154
 10
71.18808609331397
 20
-25.28012610479117
 10
71.4591940102574
 20
-25.48371416029566
 10
71.75411622495554
 20
-25.65078971580954
 10
72.03626788442392
 20
-25.81049221576955
 10
72.30152148876785
 20
-26.00356749349912
 10
72.6164109251788
 20
-26.10333304902972
 10
72.72735953345936
 20
-26.13864610457633
 10
72.67909953469058
 20
-26.19445554900709
 10
72.6164109251788
 20
-26.23664777121876
 10
72.4796389842237
 20
-26.32861693786237
 10
72.32738009921925
 20
-26.33429666008311
 10
72.1716639920808
 20
-26.30882610453406
 10
72.07553205008888
 20
-26.29348027120432
 10
71.9804584414033
 20
-26.27107888232096
 10
71.84195788938118
 20
-26.24299777121718
 10
72.00592899630904
 20
-26.40837999339793
 10
72.17473315866916
 20
-26.47780666004714
 10
72.33598787677742
 20
-26.56014499335992
 10
72.3748992646736
 20
-26.57993582668823
 10
72.4413978740882
 20
-26.58459249335384
 10
72.42866259663532
 20
-26.64851582667119
 10
72.4189964857708
 20
-26.69811638221425
 10
72.36593870934665
 20
-26.71758971554296
 10
72.32014998192011
 20
-26.73032499331732
 10
72.17956621410141
 20
-26.76874249330778
 10
72.03831399548282
 20
-26.75583082664454
 10
71.89914316570004
 20
-26.72482165998547
 10
71.5012451202957
 20
-26.63694471556299
 10
71.13365068522938
 20
-26.47159777115976
 10
70.79568958274038
 20
-26.25128804899265
 10
70.36918126028817
 20
-25.97308749350669
 10
69.93096071591256
 20
-25.72469666023548
 10
69.4513946170362
 20
-25.54608527139125
 10
69.23711740028064
 20
-25.46649860474456
 10
69.01903018362229
 20
-25.43083277142019
 10
68.79752102260679
 20
-25.39777749365055
 10
68.65524574845875
 20
-25.37604638254487
 10
68.58634998285329
 20
-25.44046360475103
 10
68.5939329722452
 20
-25.58707804915891
 10
68.59770769437112
 20
-25.66387777136167
 10
68.60116664951607
 20
-25.74159471578698
 10
68.59322741670765
 20
-25.81772416021238
 10
68.56429963966788
 20
-26.08110804903524
 10
68.68417352549852
 20
-26.24592582677183
 10
68.90741129758104
 20
-26.37807638229438
 10
69.26089462189626
 20
-26.58734416001993
 10
69.38457850762971
 20
-26.95045832659588
 10
69.47242017205535
 20
-27.32493193761329
 10
69.4934457270745
 20
-27.4152077709241
 10
69.43693072851632
 20
-27.49839277090312
 10
69.37801684113045
 20
-27.5655969375532
 10
69.30188739862822
 20
-27.65290943753119
 10
69.23090851155015
 20
-27.68271915974594
 10
69.17372498270676
 20
-27.53853888200422
 10
69.0769210154787
 20
-27.29515749317607
 10
68.89707490895584
 20
-27.11322999322158
 10
68.69796713625773
 20
-26.95271610437284
 10
68.35379714503824
 20
-26.67518582666457
 10
67.9924115987024
 20
-26.41818721561765
 10
67.66168244047334
 20
-26.126051937913
 10
67.21965189619492
 20
-25.73485666023296
 10
66.78009079629794
 20
-25.33678221588817
 10
66.44830330476255
 20
-24.83929499379023
 10
66.3528769183082
 20
-24.69617304938148
 10
66.20474720567084
 20
-24.66170666050112
 10
66.04730081499298
 20
-24.64932416050419
 10
65.66936999130147
 20
-24.61951443828945
 10
65.3045272228316
 20
-24.7025230493799
 10
64.94695167639856
 20
-24.80726277157604
 10
63.97437864565541
 20
-25.09149582706049
 10
63.04558533601757
 20
-25.49352138251538
 10
62.11404035978325
 20
-25.8857749935287
 10
61.3061792692824
 20
-26.22613499344352
 10
60.47002540172557
 20
-26.48694360448949
 10
59.64561903386904
 20
-26.77837332663862
 10
58.92009627460089
 20
-27.03470165990786
 10
58.17354796031359
 20
-27.21504165986306
 10
57.432855756988
 20
-27.42004082647827
 10
56.48095550349522
 20
-27.68391860419026
 10
55.52803219447299
 20
-27.93971777079286
 10
54.56272776413684
 20
-28.14729221518528
 10
54.06559195400517
 20
-28.2539016596031
 10
53.56676418895355
 20
-28.35088027069009
 10
53.06652531282682
 20
-28.4437313817781
 10
52.95144920465154
 20
-28.46510971510602
 10
52.92597864974579
 20
-28.50627888176225
 10
52.93941948273622
 20
-28.61994388173401
 10
53.06723086836437
 20
-29.6946461036873
 10
53.12198332005295
 20
-30.77485165897309
 10
53.18710475419503
 20
-31.85421054759199
 10
53.2339536418887
 20
-32.64175165850617
 10
53.01417309194021
 20
-33.3817736027657
 10
52.72200254383855
 20
-34.0943847136985
 10
52.15600589161166
 20
-35.47639165779761
 10
51.47592220935298
 20
-36.80290665746588
 10
50.6019139868154
 20
-38.01939026827287
 10
50.25086482910474
 20
-38.50841082370614
 10
49.8839406717991
 20
-38.9885061013641
 10
49.4632884603086
 20
-39.42221110125541
 10
49.38405457344114
 20
-39.50370276790195
 10
49.37304790705527
 20
-39.55108082344556
 10
49.48223262649196
 20
-39.62343554564973
 10
50.76038176055033
 20
-40.46989054543821
 10
52.09709200422579
 20
-41.19541332303456
 10
53.58327418853234
 20
-41.61123248959742
 10
53.89026140292267
 20
-41.69702804513116
 10
54.1996122283638
 20
-41.78247082288779
 10
54.52106333127401
 20
-41.79347748955151
 10
54.67057054968199
 20
-41.79866332288345
 10
54.74878138102
 20
-41.8696069339769
 10
54.72052388174091
 20
-42.01533943394038
 10
54.65540110562455
 20
-42.35813360052137
 10
54.84695943407083
 20
-42.49490554493202
 10
55.13186276013567
 20
-42.59618804490654
 10
55.44364775218137
 20
-42.7067838782123
 10
55.74234468900542
 20
-42.85286915595354
 10
56.04929662561887
 20
-42.97757610036655
 10
56.15124940079561
 20
-43.01892165591197
 10
56.18536301103642
 20
-43.07127387812113
 10
56.14437023430445
 20
-43.17978832253847
 10
55.92250829552017
 20
-43.76614026683617
 10
55.71581580079334
 20
-44.35803082224357
 10
55.38956692022776
 20
-44.89890971099719
 10
55.25071359043687
 20
-45.12867387760689
 10
55.07365442828736
 20
-45.30333415534104
 10
54.83387137884917
 20
-45.42874665530957
 10
54.27747028193303
 20
-45.72021165523653
 10
53.71972862949554
 20
-46.00613804405379
 10
53.09961586753816
 20
-46.13775943291002
 10
52.90255554232961
 20
-46.17977526623282
 10
52.70443421095342
 20
-46.21459443289094
 10
52.50186921612129
 20
-46.17324887734551
 10
52.41713332022931
 20
-46.1567035995721
 10
52.35546644207855
 20
-46.18975887734141
 10
52.3041372767214
 20
-46.2593619328795
 10
52.11843505923684
 20
-46.51085721059457
 10
51.84697256616242
 20
-46.64660609944945
 10
51.58066062851216
 20
-46.7892341549694
 10
51.49246618631774
 20
-46.83608304384637
 10
51.40804646624925
 20
-46.80405082163217
 10
51.3226036906513
 20
-46.78164943274881
 10
50.92160120088172
 20
-46.67761526610852
 10
50.51714148897813
 20
-46.59697026612855
 10
50.10029927739043
 20
-46.58113054391001
 10
49.84192483953768
 20
-46.57079415502366
 10
49.59558012360023
 20
-46.63658721056333
 10
49.34443887655271
 20
-46.67003054388793
 10
48.99271943219641
 20
-46.71790248832066
 10
48.66128348076946
 20
-46.66036443277958
 10
48.34537221013569
 20
-46.50464832170686
 10
47.95297627661765
 20
-46.31139665508905
 10
47.58365323048432
 20
-46.074365266259
 10
47.17817046305127
 20
-45.90485554407928
 10
47.02968630017274
 20
-45.84251971076153
 10
46.98488352353798
 20
-45.87592776630861
 10
46.96078880193046
 20
-46.02476471071626
 10
46.6862218644908
 20
-47.70663276585132
 10
46.11948437894949
 20
-49.29758998767574
 10
45.43184995204805
 20
-50.84720165395473
 10
45.16899523653181
 20
-51.44011526491789
 10
44.93714968689113
 20
-52.03680359810195
 10
44.87442579960246
 20
-52.6875727646058
 10
44.86719385534252
 20
-52.75819887569966
 10
44.84997830022617
 20
-52.83020082012575
 10
44.85685746671734
 20
-52.89909832010832
 10
44.88924246589113
 20
-53.23603637558001
 10
44.77864663537933
 20
-53.5371322088378
 10
44.64741330539404
 20
-53.83787526431848
 10
44.44654164385203
 20
-54.29884998642518
 10
44.25501859318263
 20
-54.76391693075364
 10
44.18058248397055
 20
-55.26655470840536
 10
44.16128554001841
 20
-55.39852887503935
 10
44.09238804177613
 20
-55.5108180416776
 10
44.02038609916861
 20
-55.6196852638727
 10
43.79474943825841
 20
-55.96039804156528
 10
43.69657138520759
 20
-56.33797609702687
 10
43.68313055221716
 20
-56.7424358191476
 10
43.64831138643881
 20
-57.78870415221935
 10
43.62869694249477
 20
-58.83500776306926
 10
43.60043944321568
 20
-59.88092331836324
 10
43.53499916710742
 20
-62.36483165107533
 10
43.52498027847413
 20
-64.84842248378783
 10
43.54463000019505
 20
-67.33268359427768
 10
43.5494630556273
 20
-67.98412303855955
 10
43.63455305345648
 20
-68.62938887173185
 10
43.69103277423778
 20
-69.27673609379192
 10
43.81129471561409
 20
-70.65616776011383
 10
43.80402749357727
 20
-72.02455748199385
 10
43.42955389201978
 20
-73.37742498165558
 10
43.17220250969647
 20
-74.30554803697913
 10
42.96928473709555
 20
-75.24880525896572
 10
42.82771501848507
 20
-76.2034572031713
 10
42.81014668559995
 20
-76.31920359203147
 10
42.75603057586945
 20
-76.36778109201909
 10
42.64271943378391
 20
-76.37088553646261
 10
42.58447474691287
 20
-76.37226136979613
 10
42.52661919283334
 20
-76.3884538697918
 10
42.46872836097692
 20
-76.39773192534487
 10
42.30302864298205
 20
-76.39773192534487
 10
42.1372936472103
 20
-76.39773192534487
 10
41.97194670698421
 20
-76.39773192534487
 97
        0
 75
     0
 76
     1
 98
        0
  0
ENDSEC
  0
SECTION
  2
OBJECTS
  0
DICTIONARY
  5
C
330
0
100
AcDbDictionary
281
     1
  3
ACAD_GROUP
350
D
  3
ACAD_LAYOUT
350
1A
  3
ACAD_MATERIAL
350
3B
  3
ACAD_MLEADERSTYLE
350
64
  3
ACAD_MLINESTYLE
350
17
  3
ACAD_PLOTSETTINGS
350
19
  3
ACAD_PLOTSTYLENAME
350
E
  3
ACAD_TABLESTYLE
350
63
  3
ACAD_VISUALSTYLE
350
2A
  0
SUN
  5
3F
330
29
100
AcDbSun
 90
        1
290
     0
 63
     7
421
 16777215
 40
1.0
291
     1
 91
  2455826
 92
 54000000
292
     0
 70
     2
 71
   256
280
     1
  0
DICTIONARY
  5
D
102
{ACAD_REACTORS
330
C
102
}
330
C
100
AcDbDictionary
281
     1
  0
DICTIONARY
  5
1A
102
{ACAD_REACTORS
330
C
102
}
330
C
100
AcDbDictionary
281
     1
  3
Layout1
350
1E
  3
Layout2
350
26
  3
Model
350
22
  0
DICTIONARY
  5
3B
102
{ACAD_REACTORS
330
C
102
}
330
C
100
AcDbDictionary
281
     1
  3
ByBlock
350
3D
  3
ByLayer
350
3C
  3
Global
350
3E
  0
DICTIONARY
  5
64
102
{ACAD_REACTORS
330
C
102
}
330
C
100
AcDbDictionary
281
     1
  0
DICTIONARY
  5
17
102
{ACAD_REACTORS
330
C
102
}
330
C
100
AcDbDictionary
281
     1
  3
Standard
350
18
  0
DICTIONARY
  5
19
102
{ACAD_REACTORS
330
C
102
}
330
C
100
AcDbDictionary
281
     1
  0
ACDBDICTIONARYWDFLT
  5
E
102
{ACAD_REACTORS
330
C
102
}
330
C
100
AcDbDictionary
281
     1
  3
Normal
350
F
100
AcDbDictionaryWithDefault
340
F
  0
DICTIONARY
  5
63
102
{ACAD_REACTORS
330
C
102
}
330
C
100
AcDbDictionary
281
     1
  0
DICTIONARY
  5
2A
102
{ACAD_REACTORS
330
C
102
}
330
C
100
AcDbDictionary
281
     1
  3
2dWireframe
350
2F
  3
3D Hidden
350
31
  3
3dWireframe
350
30
  3
Basic
350
32
  3
Brighten
350
36
  3
ColorChange
350
3A
  3
Conceptual
350
34
  3
Dim
350
35
  3
Facepattern
350
39
  3
Flat
350
2B
  3
FlatWithEdges
350
2C
  3
Gouraud
350
2D
  3
GouraudWithEdges
350
2E
  3
Linepattern
350
38
  3
Realistic
350
33
  3
Thicken
350
37
  0
LAYOUT
  5
1E
102
{ACAD_REACTORS
330
1A
102
}
330
1A
100
AcDbPlotSettings
  1

  2
none_device
  4

  6

 40
0.0
 41
0.0
 42
0.0
 43
0.0
 44
0.0
 45
0.0
 46
0.0
 47
0.0
 48
0.0
 49
0.0
140
0.0
141
0.0
142
1.0
143
1.0
 70
   688
 72
     0
 73
     0
 74
     5
  7

 75
    16
 76
     0
 77
     2
 78
   300
147
1.0
148
0.0
149
0.0
100
AcDbLayout
  1
Layout1
 70
     1
 71
     1
 10
0.0
 20
0.0
 11
12.0
 21
9.0
 12
0.0
 22
0.0
 32
0.0
 14
1.000000000000000E+20
 24
1.000000000000000E+20
 34
1.000000000000000E+20
 15
-1.000000000000000E+20
 25
-1.000000000000000E+20
 35
-1.000000000000000E+20
146
0.0
 13
0.0
 23
0.0
 33
0.0
 16
1.0
 26
0.0
 36
0.0
 17
0.0
 27
1.0
 37
0.0
 76
     0
330
1B
  0
LAYOUT
  5
26
102
{ACAD_REACTORS
330
1A
102
}
330
1A
100
AcDbPlotSettings
  1

  2
none_device
  4

  6

 40
0.0
 41
0.0
 42
0.0
 43
0.0
 44
0.0
 45
0.0
 46
0.0
 47
0.0
 48
0.0
 49
0.0
140
0.0
141
0.0
142
1.0
143
1.0
 70
   688
 72
     0
 73
     0
 74
     5
  7

 75
    16
 76
     0
 77
     2
 78
   300
147
1.0
148
0.0
149
0.0
100
AcDbLayout
  1
Layout2
 70
     1
 71
     2
 10
0.0
 20
0.0
 11
0.0
 21
0.0
 12
0.0
 22
0.0
 32
0.0
 14
0.0
 24
0.0
 34
0.0
 15
0.0
 25
0.0
 35
0.0
146
0.0
 13
0.0
 23
0.0
 33
0.0
 16
1.0
 26
0.0
 36
0.0
 17
0.0
 27
1.0
 37
0.0
 76
     0
330
23
  0
LAYOUT
  5
22
102
{ACAD_REACTORS
330
1A
102
}
330
1A
100
AcDbPlotSettings
  1

  2
none_device
  4

  6

 40
0.0
 41
0.0
 42
0.0
 43
0.0
 44
0.0
 45
0.0
 46
0.0
 47
0.0
 48
0.0
 49
0.0
140
0.0
141
0.0
142
1.0
143
1.0
 70
  1712
 72
     0
 73
     0
 74
     0
  7

 75
     0
 76
     0
 77
     2
 78
   300
147
1.0
148
0.0
149
0.0
100
AcDbLayout
  1
Model
 70
     1
 71
     0
 10
0.0
 20
0.0
 11
12.0
 21
9.0
 12
0.0
 22
0.0
 32
0.0
 14
1.000000000000000E+20
 24
1.000000000000000E+20
 34
1.000000000000000E+20
 15
-1.000000000000000E+20
 25
-1.000000000000000E+20
 35
-1.000000000000000E+20
146
0.0
 13
0.0
 23
0.0
 33
0.0
 16
1.0
 26
0.0
 36
0.0
 17
0.0
 27
1.0
 37
0.0
 76
     0
330
1F
331
29
  0
MATERIAL
  5
3D
102
{ACAD_REACTORS
330
3B
102
}
330
3B
100
AcDbMaterial
  1
ByBlock
 72
     1
 94
      127
  0
MATERIAL
  5
3C
102
{ACAD_REACTORS
330
3B
102
}
330
3B
100
AcDbMaterial
  1
ByLayer
 72
     1
 94
      127
  0
MATERIAL
  5
3E
102
{ACAD_REACTORS
330
3B
102
}
330
3B
100
AcDbMaterial
  1
Global
 72
     1
 94
      127
  0
MLINESTYLE
  5
18
102
{ACAD_REACTORS
330
17
102
}
330
17
100
AcDbMlineStyle
  2
Standard
 70
     0
  3

 62
   256
 51
90.0
 52
90.0
 71
     2
 49
0.5
 62
   256
  6
BYLAYER
 49
-0.5
 62
   256
  6
BYLAYER
  0
ACDBPLACEHOLDER
  5
F
102
{ACAD_REACTORS
330
E
102
}
330
E
  0
VISUALSTYLE
  5
2F
102
{ACAD_REACTORS
330
2A
102
}
102
{ACAD_XDICTIONARY
360
4B
102
}
330
2A
100
AcDbVisualStyle
  2
2dWireframe
 70
     4
 71
     0
 72
     2
 73
     0
 90
        0
 40
-0.6
 41
-30.0
 62
     5
 63
     7
421
 16777215
 74
     1
 91
        4
 64
     7
 65
   257
 75
     1
175
     1
 42
1.0
 92
        0
 66
   257
 43
1.0
 76
     1
 77
     6
 78
     2
 67
     7
 79
     5
170
     0
171
     0
290
     0
174
     0
 93
        1
 44
0.0
173
     0
291
     0
 45
0.0
  0
VISUALSTYLE
  5
31
102
{ACAD_REACTORS
330
2A
102
}
102
{ACAD_XDICTIONARY
360
4F
102
}
330
2A
100
AcDbVisualStyle
  2
3D Hidden
 70
     6
 71
     1
 72
     2
 73
     2
 90
        0
 40
-0.6
 41
-30.0
 62
     5
 63
     7
421
 16777215
 74
     2
 91
        2
 64
     7
 65
   257
 75
     2
175
     1
 42
40.0
 92
        0
 66
   257
 43
1.0
 76
     1
 77
     6
 78
     2
 67
     7
 79
     3
170
     0
171
     0
290
     0
174
     0
 93
        1
 44
0.0
173
     0
291
     0
 45
0.0
  0
VISUALSTYLE
  5
30
102
{ACAD_REACTORS
330
2A
102
}
102
{ACAD_XDICTIONARY
360
4D
102
}
330
2A
100
AcDbVisualStyle
  2
3dWireframe
 70
     5
 71
     0
 72
     2
 73
     0
 90
        0
 40
-0.6
 41
-30.0
 62
     5
 63
     7
421
 16777215
 74
     1
 91
        4
 64
     7
 65
   257
 75
     1
175
     1
 42
1.0
 92
        0
 66
   257
 43
1.0
 76
     1
 77
     6
 78
     2
 67
     7
 79
     5
170
     0
171
     0
290
     0
174
     0
 93
        1
 44
0.0
173
     0
291
     0
 45
0.0
  0
VISUALSTYLE
  5
32
102
{ACAD_REACTORS
330
2A
102
}
102
{ACAD_XDICTIONARY
360
51
102
}
330
2A
100
AcDbVisualStyle
  2
Basic
 70
     7
 71
     1
 72
     0
 73
     1
 90
        0
 40
-0.6
 41
-30.0
 62
     5
 63
     7
421
 16777215
 74
     0
 91
        4
 64
     7
 65
   257
 75
     1
175
     1
 42
1.0
 92
        8
 66
     7
 43
1.0
 76
     1
 77
     6
 78
     2
 67
     7
 79
     5
170
     0
171
     0
290
     0
174
     0
 93
        1
 44
0.0
173
     0
291
     1
 45
0.0
  0
VISUALSTYLE
  5
36
102
{ACAD_REACTORS
330
2A
102
}
102
{ACAD_XDICTIONARY
360
59
102
}
330
2A
100
AcDbVisualStyle
  2
Brighten
 70
    12
 71
     2
 72
     2
 73
     0
 90
        0
 40
-0.6
 41
-30.0
 62
     5
 63
     7
421
 16777215
 74
     1
 91
        4
 64
     7
 65
   257
 75
     1
175
     1
 42
1.0
 92
        8
 66
     7
 43
1.0
 76
     1
 77
     6
 78
     2
 67
     7
 79
     5
170
     0
171
     0
290
     0
174
     0
 93
        1
 44
50.0
173
     0
291
     1
 45
0.0
  0
VISUALSTYLE
  5
3A
102
{ACAD_REACTORS
330
2A
102
}
102
{ACAD_XDICTIONARY
360
61
102
}
330
2A
100
AcDbVisualStyle
  2
ColorChange
 70
    16
 71
     2
 72
     2
 73
     3
 90
        0
 40
-0.6
 41
-30.0
 62
     5
 63
     8
421
  8421504
 74
     1
 91
        4
 64
     7
 65
   257
 75
     1
175
     1
 42
1.0
 92
        8
 66
     8
424
  8421504
 43
1.0
 76
     1
 77
     6
 78
     2
 67
     7
 79
     5
170
     0
171
     0
290
     0
174
     0
 93
        1
 44
0.0
173
     0
291
     1
 45
0.0
  0
VISUALSTYLE
  5
34
102
{ACAD_REACTORS
330
2A
102
}
102
{ACAD_XDICTIONARY
360
55
102
}
330
2A
100
AcDbVisualStyle
  2
Conceptual
 70
     9
 71
     3
 72
     2
 73
     0
 90
        0
 40
-0.6
 41
-30.0
 62
     5
 63
     7
421
 16777215
 74
     2
 91
        2
 64
     7
 65
   257
 75
     1
175
     1
 42
40.0
 92
        8
 66
     7
 43
1.0
 76
     1
 77
     6
 78
     2
 67
     7
 79
     3
170
     0
171
     0
290
     0
174
     0
 93
        1
 44
0.0
173
     0
291
     0
 45
0.0
  0
VISUALSTYLE
  5
35
102
{ACAD_REACTORS
330
2A
102
}
102
{ACAD_XDICTIONARY
360
57
102
}
330
2A
100
AcDbVisualStyle
  2
Dim
 70
    11
 71
     2
 72
     2
 73
     0
 90
        0
 40
-0.6
 41
-30.0
 62
     5
 63
     7
421
 16777215
 74
     1
 91
        4
 64
     7
 65
   257
 75
     1
175
     1
 42
1.0
 92
        8
 66
     7
 43
1.0
 76
     1
 77
     6
 78
     2
 67
     7
 79
     5
170
     0
171
     0
290
     0
174
     0
 93
        1
 44
-50.0
173
     0
291
     1
 45
0.0
  0
VISUALSTYLE
  5
39
102
{ACAD_REACTORS
330
2A
102
}
102
{ACAD_XDICTIONARY
360
5F
102
}
330
2A
100
AcDbVisualStyle
  2
Facepattern
 70
    15
 71
     2
 72
     2
 73
     0
 90
        0
 40
-0.6
 41
-30.0
 62
     5
 63
     7
421
 16777215
 74
     1
 91
        4
 64
     7
 65
   257
 75
     1
175
     1
 42
1.0
 92
        8
 66
     7
 43
1.0
 76
     1
 77
     6
 78
     2
 67
     7
 79
     5
170
     0
171
     0
290
     0
174
     0
 93
        1
 44
0.0
173
     0
291
     1
 45
0.0
  0
VISUALSTYLE
  5
2B
102
{ACAD_REACTORS
330
2A
102
}
102
{ACAD_XDICTIONARY
360
43
102
}
330
2A
100
AcDbVisualStyle
  2
Flat
 70
     0
 71
     2
 72
     1
 73
     1
 90
        2
 40
-0.6
 41
30.0
 62
     5
 63
     7
421
 16777215
 74
     0
 91
        4
 64
     7
 65
   257
 75
     1
175
     1
 42
1.0
 92
        8
 66
     7
 43
1.0
 76
     1
 77
     6
 78
     2
 67
     7
 79
     5
170
     0
171
     0
290
     0
174
     0
 93
       13
 44
0.0
173
     0
291
     1
 45
0.0
  0
VISUALSTYLE
  5
2C
102
{ACAD_REACTORS
330
2A
102
}
102
{ACAD_XDICTIONARY
360
45
102
}
330
2A
100
AcDbVisualStyle
  2
FlatWithEdges
 70
     1
 71
     2
 72
     1
 73
     1
 90
        2
 40
-0.6
 41
30.0
 62
     5
 63
     7
421
 16777215
 74
     1
 91
        4
 64
     7
 65
   257
 75
     1
175
     1
 42
1.0
 92
        0
 66
   257
 43
1.0
 76
     1
 77
     6
 78
     2
 67
     7
 79
     5
170
     0
171
     0
290
     0
174
     0
 93
       13
 44
0.0
173
     0
291
     1
 45
0.0
  0
VISUALSTYLE
  5
2D
102
{ACAD_REACTORS
330
2A
102
}
102
{ACAD_XDICTIONARY
360
47
102
}
330
2A
100
AcDbVisualStyle
  2
Gouraud
 70
     2
 71
     2
 72
     2
 73
     1
 90
        2
 40
-0.6
 41
30.0
 62
     5
 63
     7
421
 16777215
 74
     0
 91
        4
 64
     7
 65
   257
 75
     1
175
     1
 42
1.0
 92
        0
 66
     7
 43
1.0
 76
     1
 77
     6
 78
     2
 67
     7
 79
     5
170
     0
171
     0
290
     0
174
     0
 93
       13
 44
0.0
173
     0
291
     1
 45
0.0
  0
VISUALSTYLE
  5
2E
102
{ACAD_REACTORS
330
2A
102
}
102
{ACAD_XDICTIONARY
360
49
102
}
330
2A
100
AcDbVisualStyle
  2
GouraudWithEdges
 70
     3
 71
     2
 72
     2
 73
     1
 90
        2
 40
-0.6
 41
30.0
 62
     5
 63
     7
421
 16777215
 74
     1
 91
        4
 64
     7
 65
   257
 75
     1
175
     1
 42
1.0
 92
        0
 66
   257
 43
1.0
 76
     1
 77
     6
 78
     2
 67
     7
 79
     5
170
     0
171
     0
290
     0
174
     0
 93
       13
 44
0.0
173
     0
291
     1
 45
0.0
  0
VISUALSTYLE
  5
38
102
{ACAD_REACTORS
330
2A
102
}
102
{ACAD_XDICTIONARY
360
5D
102
}
330
2A
100
AcDbVisualStyle
  2
Linepattern
 70
    14
 71
     2
 72
     2
 73
     0
 90
        0
 40
-0.6
 41
-30.0
 62
     5
 63
     7
421
 16777215
 74
     1
 91
        4
 64
     7
 65
   257
 75
     7
175
     7
 42
1.0
 92
        8
 66
     7
 43
1.0
 76
     1
 77
     6
 78
     2
 67
     7
 79
     5
170
     0
171
     0
290
     0
174
     0
 93
        1
 44
0.0
173
     0
291
     1
 45
0.0
  0
VISUALSTYLE
  5
33
102
{ACAD_REACTORS
330
2A
102
}
102
{ACAD_XDICTIONARY
360
53
102
}
330
2A
100
AcDbVisualStyle
  2
Realistic
 70
     8
 71
     2
 72
     2
 73
     0
 90
        0
 40
-0.6
 41
-30.0
 62
     5
 63
     7
421
 16777215
 74
     1
 91
        0
 64
     7
 65
   257
 75
     1
175
     1
 42
1.0
 92
        8
 66
     8
424
  7895160
 43
1.0
 76
     1
 77
     6
 78
     2
 67
     7
 79
     5
170
     0
171
     0
290
     0
174
     0
 93
       13
 44
0.0
173
     0
291
     0
 45
0.0
  0
VISUALSTYLE
  5
37
102
{ACAD_REACTORS
330
2A
102
}
102
{ACAD_XDICTIONARY
360
5B
102
}
330
2A
100
AcDbVisualStyle
  2
Thicken
 70
    13
 71
     2
 72
     2
 73
     0
 90
        0
 40
-0.6
 41
-30.0
 62
     5
 63
     7
421
 16777215
 74
     1
 91
        4
 64
     7
 65
   257
 75
     1
175
     1
 42
1.0
 92
       12
 66
     7
 43
1.0
 76
     1
 77
     6
 78
     2
 67
     7
 79
     5
170
     0
171
     0
290
     0
174
     0
 93
        1
 44
0.0
173
     0
291
     1
 45
0.0
  0
DICTIONARY
  5
4B
330
2F
100
AcDbDictionary
280
     1
281
     1
  3
ACAD_XREC_ROUNDTRIP
360
4C
  0
DICTIONARY
  5
4F
330
31
100
AcDbDictionary
280
     1
281
     1
  3
ACAD_XREC_ROUNDTRIP
360
50
  0
DICTIONARY
  5
4D
330
30
100
AcDbDictionary
280
     1
281
     1
  3
ACAD_XREC_ROUNDTRIP
360
4E
  0
DICTIONARY
  5
51
330
32
100
AcDbDictionary
280
     1
281
     1
  3
ACAD_XREC_ROUNDTRIP
360
52
  0
DICTIONARY
  5
59
330
36
100
AcDbDictionary
280
     1
281
     1
  3
ACAD_XREC_ROUNDTRIP
360
5A
  0
DICTIONARY
  5
61
330
3A
100
AcDbDictionary
280
     1
281
     1
  3
ACAD_XREC_ROUNDTRIP
360
62
  0
DICTIONARY
  5
55
330
34
100
AcDbDictionary
280
     1
281
     1
  3
ACAD_XREC_ROUNDTRIP
360
56
  0
DICTIONARY
  5
57
330
35
100
AcDbDictionary
280
     1
281
     1
  3
ACAD_XREC_ROUNDTRIP
360
58
  0
DICTIONARY
  5
5F
330
39
100
AcDbDictionary
280
     1
281
     1
  3
ACAD_XREC_ROUNDTRIP
360
60
  0
DICTIONARY
  5
43
330
2B
100
AcDbDictionary
280
     1
281
     1
  3
ACAD_XREC_ROUNDTRIP
360
44
  0
DICTIONARY
  5
45
330
2C
100
AcDbDictionary
280
     1
281
     1
  3
ACAD_XREC_ROUNDTRIP
360
46
  0
DICTIONARY
  5
47
330
2D
100
AcDbDictionary
280
     1
281
     1
  3
ACAD_XREC_ROUNDTRIP
360
48
  0
DICTIONARY
  5
49
330
2E
100
AcDbDictionary
280
     1
281
     1
  3
ACAD_XREC_ROUNDTRIP
360
4A
  0
DICTIONARY
  5
5D
330
38
100
AcDbDictionary
280
     1
281
     1
  3
ACAD_XREC_ROUNDTRIP
360
5E
  0
DICTIONARY
  5
53
330
33
100
AcDbDictionary
280
     1
281
     1
  3
ACAD_XREC_ROUNDTRIP
360
54
  0
DICTIONARY
  5
5B
330
37
100
AcDbDictionary
280
     1
281
     1
  3
ACAD_XREC_ROUNDTRIP
360
5C
  0
XRECORD
  5
4C
102
{ACAD_REACTORS
330
4B
102
}
330
4B
100
AcDbXrecord
280
     1
102
RTVSPropertyOp0
 70
     1
102
RTVSPropertyOp1
 70
     1
102
RTVSPropertyOp2
 70
     1
102
RTVSPropertyOp3
 70
     1
102
RTVSPropertyOp4
 70
     1
102
RTVSPropertyOp5
 70
     1
102
RTVSPropertyOp6
 70
     1
102
RTVSPropertyOp7
 70
     1
102
RTVSPropertyOp8
 70
     1
102
RTVSPropertyOp9
 70
     1
102
RTVSPropertyOp10
 70
     1
102
RTVSPropertyOp11
 70
     1
102
RTVSPropertyOp12
 70
     1
102
RTVSPropertyOp13
 70
     1
102
RTVSPropertyOp14
 70
     1
102
RTVSPropertyOp15
 70
     1
102
RTVSPropertyOp16
 70
     1
102
RTVSPropertyOp17
 70
     1
102
RTVSPropertyOp18
 70
     1
102
RTVSPropertyOp19
 70
     1
102
RTVSPropertyOp20
 70
     1
102
RTVSPropertyOp21
 70
     1
102
RTVSPropertyOp22
 70
     1
102
RTVSPropertyOp23
 70
     1
102
RTVSPropertyOp24
 70
     1
102
RTVSPropertyOp25
 70
     1
102
RTVSPropertyOp26
 70
     1
102
RTVSPropertyOp27
 70
     1
102
RTVSPropertyOp28
 70
     1
102
RTVSPropertyOp29
 70
     1
102
RTVSPropertyOp30
 70
     1
102
RTVSPropertyOp31
 70
     1
102
RTVSPropertyOp32
 70
     1
  0
XRECORD
  5
50
102
{ACAD_REACTORS
330
4F
102
}
330
4F
100
AcDbXrecord
280
     1
102
RTVSPropertyOp0
 70
     1
102
RTVSPropertyOp1
 70
     1
102
RTVSPropertyOp2
 70
     1
102
RTVSPropertyOp3
 70
     1
102
RTVSPropertyOp4
 70
     1
102
RTVSPropertyOp5
 70
     1
102
RTVSPropertyOp6
 70
     1
102
RTVSPropertyOp7
 70
     1
102
RTVSPropertyOp8
 70
     1
102
RTVSPropertyOp9
 70
     1
102
RTVSPropertyOp10
 70
     1
102
RTVSPropertyOp11
 70
     1
102
RTVSPropertyOp12
 70
     1
102
RTVSPropertyOp13
 70
     1
102
RTVSPropertyOp14
 70
     1
102
RTVSPropertyOp15
 70
     1
102
RTVSPropertyOp16
 70
     1
102
RTVSPropertyOp17
 70
     1
102
RTVSPropertyOp18
 70
     1
102
RTVSPropertyOp19
 70
     1
102
RTVSPropertyOp20
 70
     1
102
RTVSPropertyOp21
 70
     1
102
RTVSPropertyOp22
 70
     1
102
RTVSPropertyOp23
 70
     1
102
RTVSPropertyOp24
 70
     1
102
RTVSPropertyOp25
 70
     1
102
RTVSPropertyOp26
 70
     1
102
RTVSPropertyOp27
 70
     1
102
RTVSPropertyOp28
 70
     1
102
RTVSPropertyOp29
 70
     1
102
RTVSPropertyOp30
 70
     1
102
RTVSPropertyOp31
 70
     1
102
RTVSPropertyOp32
 70
     1
  0
XRECORD
  5
4E
102
{ACAD_REACTORS
330
4D
102
}
330
4D
100
AcDbXrecord
280
     1
102
RTVSPropertyOp0
 70
     1
102
RTVSPropertyOp1
 70
     1
102
RTVSPropertyOp2
 70
     1
102
RTVSPropertyOp3
 70
     1
102
RTVSPropertyOp4
 70
     1
102
RTVSPropertyOp5
 70
     1
102
RTVSPropertyOp6
 70
     1
102
RTVSPropertyOp7
 70
     1
102
RTVSPropertyOp8
 70
     1
102
RTVSPropertyOp9
 70
     1
102
RTVSPropertyOp10
 70
     1
102
RTVSPropertyOp11
 70
     1
102
RTVSPropertyOp12
 70
     1
102
RTVSPropertyOp13
 70
     1
102
RTVSPropertyOp14
 70
     1
102
RTVSPropertyOp15
 70
     1
102
RTVSPropertyOp16
 70
     1
102
RTVSPropertyOp17
 70
     1
102
RTVSPropertyOp18
 70
     1
102
RTVSPropertyOp19
 70
     1
102
RTVSPropertyOp20
 70
     1
102
RTVSPropertyOp21
 70
     1
102
RTVSPropertyOp22
 70
     1
102
RTVSPropertyOp23
 70
     1
102
RTVSPropertyOp24
 70
     1
102
RTVSPropertyOp25
 70
     1
102
RTVSPropertyOp26
 70
     1
102
RTVSPropertyOp27
 70
     1
102
RTVSPropertyOp28
 70
     1
102
RTVSPropertyOp29
 70
     1
102
RTVSPropertyOp30
 70
     1
102
RTVSPropertyOp31
 70
     1
102
RTVSPropertyOp32
 70
     1
  0
XRECORD
  5
52
102
{ACAD_REACTORS
330
51
102
}
330
51
100
AcDbXrecord
280
     1
102
RTVSPropertyOp0
 70
     1
102
RTVSPropertyOp1
 70
     1
102
RTVSPropertyOp2
 70
     1
102
RTVSPropertyOp3
 70
     1
102
RTVSPropertyOp4
 70
     1
102
RTVSPropertyOp5
 70
     1
102
RTVSPropertyOp6
 70
     1
102
RTVSPropertyOp7
 70
     1
102
RTVSPropertyOp8
 70
     1
102
RTVSPropertyOp9
 70
     1
102
RTVSPropertyOp10
 70
     1
102
RTVSPropertyOp11
 70
     1
102
RTVSPropertyOp12
 70
     1
102
RTVSPropertyOp13
 70
     1
102
RTVSPropertyOp14
 70
     1
102
RTVSPropertyOp15
 70
     1
102
RTVSPropertyOp16
 70
     1
102
RTVSPropertyOp17
 70
     1
102
RTVSPropertyOp18
 70
     1
102
RTVSPropertyOp19
 70
     1
102
RTVSPropertyOp20
 70
     1
102
RTVSPropertyOp21
 70
     1
102
RTVSPropertyOp22
 70
     1
102
RTVSPropertyOp23
 70
     1
102
RTVSPropertyOp24
 70
     1
102
RTVSPropertyOp25
 70
     1
102
RTVSPropertyOp26
 70
     1
102
RTVSPropertyOp27
 70
     1
102
RTVSPropertyOp28
 70
     1
102
RTVSPropertyOp29
 70
     1
102
RTVSPropertyOp30
 70
     1
102
RTVSPropertyOp31
 70
     1
102
RTVSPropertyOp32
 70
     1
  0
XRECORD
  5
5A
102
{ACAD_REACTORS
330
59
102
}
330
59
100
AcDbXrecord
280
     1
102
RTVSPropertyOp0
 70
     1
102
RTVSPropertyOp1
 70
     1
102
RTVSPropertyOp2
 70
     1
102
RTVSPropertyOp3
 70
     1
102
RTVSPropertyOp4
 70
     1
102
RTVSPropertyOp5
 70
     1
102
RTVSPropertyOp6
 70
     1
102
RTVSPropertyOp7
 70
     1
102
RTVSPropertyOp8
 70
     1
102
RTVSPropertyOp9
 70
     1
102
RTVSPropertyOp10
 70
     1
102
RTVSPropertyOp11
 70
     1
102
RTVSPropertyOp12
 70
     1
102
RTVSPropertyOp13
 70
     1
102
RTVSPropertyOp14
 70
     1
102
RTVSPropertyOp15
 70
     1
102
RTVSPropertyOp16
 70
     1
102
RTVSPropertyOp17
 70
     1
102
RTVSPropertyOp18
 70
     1
102
RTVSPropertyOp19
 70
     1
102
RTVSPropertyOp20
 70
     1
102
RTVSPropertyOp21
 70
     1
102
RTVSPropertyOp22
 70
     1
102
RTVSPropertyOp23
 70
     1
102
RTVSPropertyOp24
 70
     1
102
RTVSPropertyOp25
 70
     1
102
RTVSPropertyOp26
 70
     1
102
RTVSPropertyOp27
 70
     1
102
RTVSPropertyOp28
 70
     1
102
RTVSPropertyOp29
 70
     1
102
RTVSPropertyOp30
 70
     1
102
RTVSPropertyOp31
 70
     1
102
RTVSPropertyOp32
 70
     1
  0
XRECORD
  5
62
102
{ACAD_REACTORS
330
61
102
}
330
61
100
AcDbXrecord
280
     1
102
RTVSPropertyOp0
 70
     1
102
RTVSPropertyOp1
 70
     1
102
RTVSPropertyOp2
 70
     1
102
RTVSPropertyOp3
 70
     1
102
RTVSPropertyOp4
 70
     1
102
RTVSPropertyOp5
 70
     1
102
RTVSPropertyOp6
 70
     1
102
RTVSPropertyOp7
 70
     1
102
RTVSPropertyOp8
 70
     1
102
RTVSPropertyOp9
 70
     1
102
RTVSPropertyOp10
 70
     1
102
RTVSPropertyOp11
 70
     1
102
RTVSPropertyOp12
 70
     1
102
RTVSPropertyOp13
 70
     1
102
RTVSPropertyOp14
 70
     1
102
RTVSPropertyOp15
 70
     1
102
RTVSPropertyOp16
 70
     1
102
RTVSPropertyOp17
 70
     1
102
RTVSPropertyOp18
 70
     1
102
RTVSPropertyOp19
 70
     1
102
RTVSPropertyOp20
 70
     1
102
RTVSPropertyOp21
 70
     1
102
RTVSPropertyOp22
 70
     1
102
RTVSPropertyOp23
 70
     1
102
RTVSPropertyOp24
 70
     1
102
RTVSPropertyOp25
 70
     1
102
RTVSPropertyOp26
 70
     1
102
RTVSPropertyOp27
 70
     1
102
RTVSPropertyOp28
 70
     1
102
RTVSPropertyOp29
 70
     1
102
RTVSPropertyOp30
 70
     1
102
RTVSPropertyOp31
 70
     1
102
RTVSPropertyOp32
 70
     1
  0
XRECORD
  5
56
102
{ACAD_REACTORS
330
55
102
}
330
55
100
AcDbXrecord
280
     1
102
RTVSPropertyOp0
 70
     1
102
RTVSPropertyOp1
 70
     1
102
RTVSPropertyOp2
 70
     1
102
RTVSPropertyOp3
 70
     1
102
RTVSPropertyOp4
 70
     1
102
RTVSPropertyOp5
 70
     1
102
RTVSPropertyOp6
 70
     1
102
RTVSPropertyOp7
 70
     1
102
RTVSPropertyOp8
 70
     1
102
RTVSPropertyOp9
 70
     1
102
RTVSPropertyOp10
 70
     1
102
RTVSPropertyOp11
 70
     1
102
RTVSPropertyOp12
 70
     1
102
RTVSPropertyOp13
 70
     1
102
RTVSPropertyOp14
 70
     1
102
RTVSPropertyOp15
 70
     1
102
RTVSPropertyOp16
 70
     1
102
RTVSPropertyOp17
 70
     1
102
RTVSPropertyOp18
 70
     1
102
RTVSPropertyOp19
 70
     1
102
RTVSPropertyOp20
 70
     1
102
RTVSPropertyOp21
 70
     1
102
RTVSPropertyOp22
 70
     1
102
RTVSPropertyOp23
 70
     1
102
RTVSPropertyOp24
 70
     1
102
RTVSPropertyOp25
 70
     1
102
RTVSPropertyOp26
 70
     1
102
RTVSPropertyOp27
 70
     1
102
RTVSPropertyOp28
 70
     1
102
RTVSPropertyOp29
 70
     1
102
RTVSPropertyOp30
 70
     1
102
RTVSPropertyOp31
 70
     1
102
RTVSPropertyOp32
 70
     1
  0
XRECORD
  5
58
102
{ACAD_REACTORS
330
57
102
}
330
57
100
AcDbXrecord
280
     1
102
RTVSPropertyOp0
 70
     1
102
RTVSPropertyOp1
 70
     1
102
RTVSPropertyOp2
 70
     1
102
RTVSPropertyOp3
 70
     1
102
RTVSPropertyOp4
 70
     1
102
RTVSPropertyOp5
 70
     1
102
RTVSPropertyOp6
 70
     1
102
RTVSPropertyOp7
 70
     1
102
RTVSPropertyOp8
 70
     1
102
RTVSPropertyOp9
 70
     1
102
RTVSPropertyOp10
 70
     1
102
RTVSPropertyOp11
 70
     1
102
RTVSPropertyOp12
 70
     1
102
RTVSPropertyOp13
 70
     1
102
RTVSPropertyOp14
 70
     1
102
RTVSPropertyOp15
 70
     1
102
RTVSPropertyOp16
 70
     1
102
RTVSPropertyOp17
 70
     1
102
RTVSPropertyOp18
 70
     1
102
RTVSPropertyOp19
 70
     1
102
RTVSPropertyOp20
 70
     1
102
RTVSPropertyOp21
 70
     1
102
RTVSPropertyOp22
 70
     1
102
RTVSPropertyOp23
 70
     1
102
RTVSPropertyOp24
 70
     1
102
RTVSPropertyOp25
 70
     1
102
RTVSPropertyOp26
 70
     1
102
RTVSPropertyOp27
 70
     1
102
RTVSPropertyOp28
 70
     1
102
RTVSPropertyOp29
 70
     1
102
RTVSPropertyOp30
 70
     1
102
RTVSPropertyOp31
 70
     1
102
RTVSPropertyOp32
 70
     1
  0
XRECORD
  5
60
102
{ACAD_REACTORS
330
5F
102
}
330
5F
100
AcDbXrecord
280
     1
102
RTVSPropertyOp0
 70
     1
102
RTVSPropertyOp1
 70
     1
102
RTVSPropertyOp2
 70
     1
102
RTVSPropertyOp3
 70
     1
102
RTVSPropertyOp4
 70
     1
102
RTVSPropertyOp5
 70
     1
102
RTVSPropertyOp6
 70
     1
102
RTVSPropertyOp7
 70
     1
102
RTVSPropertyOp8
 70
     1
102
RTVSPropertyOp9
 70
     1
102
RTVSPropertyOp10
 70
     1
102
RTVSPropertyOp11
 70
     1
102
RTVSPropertyOp12
 70
     1
102
RTVSPropertyOp13
 70
     1
102
RTVSPropertyOp14
 70
     1
102
RTVSPropertyOp15
 70
     1
102
RTVSPropertyOp16
 70
     1
102
RTVSPropertyOp17
 70
     1
102
RTVSPropertyOp18
 70
     1
102
RTVSPropertyOp19
 70
     1
102
RTVSPropertyOp20
 70
     1
102
RTVSPropertyOp21
 70
     1
102
RTVSPropertyOp22
 70
     1
102
RTVSPropertyOp23
 70
     1
102
RTVSPropertyOp24
 70
     1
102
RTVSPropertyOp25
 70
     1
102
RTVSPropertyOp26
 70
     1
102
RTVSPropertyOp27
 70
     1
102
RTVSPropertyOp28
 70
     1
102
RTVSPropertyOp29
 70
     1
102
RTVSPropertyOp30
 70
     1
102
RTVSPropertyOp31
 70
     1
102
RTVSPropertyOp32
 70
     1
  0
XRECORD
  5
44
102
{ACAD_REACTORS
330
43
102
}
330
43
100
AcDbXrecord
280
     1
102
RTVSPropertyOp0
 70
     1
102
RTVSPropertyOp1
 70
     1
102
RTVSPropertyOp2
 70
     1
102
RTVSPropertyOp3
 70
     1
102
RTVSPropertyOp4
 70
     1
102
RTVSPropertyOp5
 70
     1
102
RTVSPropertyOp6
 70
     1
102
RTVSPropertyOp7
 70
     1
102
RTVSPropertyOp8
 70
     1
102
RTVSPropertyOp9
 70
     1
102
RTVSPropertyOp10
 70
     1
102
RTVSPropertyOp11
 70
     1
102
RTVSPropertyOp12
 70
     1
102
RTVSPropertyOp13
 70
     1
102
RTVSPropertyOp14
 70
     1
102
RTVSPropertyOp15
 70
     1
102
RTVSPropertyOp16
 70
     1
102
RTVSPropertyOp17
 70
     1
102
RTVSPropertyOp18
 70
     1
102
RTVSPropertyOp19
 70
     1
102
RTVSPropertyOp20
 70
     1
102
RTVSPropertyOp21
 70
     1
102
RTVSPropertyOp22
 70
     1
102
RTVSPropertyOp23
 70
     1
102
RTVSPropertyOp24
 70
     1
102
RTVSPropertyOp25
 70
     1
102
RTVSPropertyOp26
 70
     1
102
RTVSPropertyOp27
 70
     1
102
RTVSPropertyOp28
 70
     1
102
RTVSPropertyOp29
 70
     1
102
RTVSPropertyOp30
 70
     1
102
RTVSPropertyOp31
 70
     1
102
RTVSPropertyOp32
 70
     1
  0
XRECORD
  5
46
102
{ACAD_REACTORS
330
45
102
}
330
45
100
AcDbXrecord
280
     1
102
RTVSPropertyOp0
 70
     1
102
RTVSPropertyOp1
 70
     1
102
RTVSPropertyOp2
 70
     1
102
RTVSPropertyOp3
 70
     1
102
RTVSPropertyOp4
 70
     1
102
RTVSPropertyOp5
 70
     1
102
RTVSPropertyOp6
 70
     1
102
RTVSPropertyOp7
 70
     1
102
RTVSPropertyOp8
 70
     1
102
RTVSPropertyOp9
 70
     1
102
RTVSPropertyOp10
 70
     1
102
RTVSPropertyOp11
 70
     1
102
RTVSPropertyOp12
 70
     1
102
RTVSPropertyOp13
 70
     1
102
RTVSPropertyOp14
 70
     1
102
RTVSPropertyOp15
 70
     1
102
RTVSPropertyOp16
 70
     1
102
RTVSPropertyOp17
 70
     1
102
RTVSPropertyOp18
 70
     1
102
RTVSPropertyOp19
 70
     1
102
RTVSPropertyOp20
 70
     1
102
RTVSPropertyOp21
 70
     1
102
RTVSPropertyOp22
 70
     1
102
RTVSPropertyOp23
 70
     1
102
RTVSPropertyOp24
 70
     1
102
RTVSPropertyOp25
 70
     1
102
RTVSPropertyOp26
 70
     1
102
RTVSPropertyOp27
 70
     1
102
RTVSPropertyOp28
 70
     1
102
RTVSPropertyOp29
 70
     1
102
RTVSPropertyOp30
 70
     1
102
RTVSPropertyOp31
 70
     1
102
RTVSPropertyOp32
 70
     1
  0
XRECORD
  5
48
102
{ACAD_REACTORS
330
47
102
}
330
47
100
AcDbXrecord
280
     1
102
RTVSPropertyOp0
 70
     1
102
RTVSPropertyOp1
 70
     1
102
RTVSPropertyOp2
 70
     1
102
RTVSPropertyOp3
 70
     1
102
RTVSPropertyOp4
 70
     1
102
RTVSPropertyOp5
 70
     1
102
RTVSPropertyOp6
 70
     1
102
RTVSPropertyOp7
 70
     1
102
RTVSPropertyOp8
 70
     1
102
RTVSPropertyOp9
 70
     1
102
RTVSPropertyOp10
 70
     1
102
RTVSPropertyOp11
 70
     1
102
RTVSPropertyOp12
 70
     1
102
RTVSPropertyOp13
 70
     1
102
RTVSPropertyOp14
 70
     1
102
RTVSPropertyOp15
 70
     1
102
RTVSPropertyOp16
 70
     1
102
RTVSPropertyOp17
 70
     1
102
RTVSPropertyOp18
 70
     1
102
RTVSPropertyOp19
 70
     1
102
RTVSPropertyOp20
 70
     1
102
RTVSPropertyOp21
 70
     1
102
RTVSPropertyOp22
 70
     1
102
RTVSPropertyOp23
 70
     1
102
RTVSPropertyOp24
 70
     1
102
RTVSPropertyOp25
 70
     1
102
RTVSPropertyOp26
 70
     1
102
RTVSPropertyOp27
 70
     1
102
RTVSPropertyOp28
 70
     1
102
RTVSPropertyOp29
 70
     1
102
RTVSPropertyOp30
 70
     1
102
RTVSPropertyOp31
 70
     1
102
RTVSPropertyOp32
 70
     1
  0
XRECORD
  5
4A
102
{ACAD_REACTORS
330
49
102
}
330
49
100
AcDbXrecord
280
     1
102
RTVSPropertyOp0
 70
     1
102
RTVSPropertyOp1
 70
     1
102
RTVSPropertyOp2
 70
     1
102
RTVSPropertyOp3
 70
     1
102
RTVSPropertyOp4
 70
     1
102
RTVSPropertyOp5
 70
     1
102
RTVSPropertyOp6
 70
     1
102
RTVSPropertyOp7
 70
     1
102
RTVSPropertyOp8
 70
     1
102
RTVSPropertyOp9
 70
     1
102
RTVSPropertyOp10
 70
     1
102
RTVSPropertyOp11
 70
     1
102
RTVSPropertyOp12
 70
     1
102
RTVSPropertyOp13
 70
     1
102
RTVSPropertyOp14
 70
     1
102
RTVSPropertyOp15
 70
     1
102
RTVSPropertyOp16
 70
     1
102
RTVSPropertyOp17
 70
     1
102
RTVSPropertyOp18
 70
     1
102
RTVSPropertyOp19
 70
     1
102
RTVSPropertyOp20
 70
     1
102
RTVSPropertyOp21
 70
     1
102
RTVSPropertyOp22
 70
     1
102
RTVSPropertyOp23
 70
     1
102
RTVSPropertyOp24
 70
     1
102
RTVSPropertyOp25
 70
     1
102
RTVSPropertyOp26
 70
     1
102
RTVSPropertyOp27
 70
     1
102
RTVSPropertyOp28
 70
     1
102
RTVSPropertyOp29
 70
     1
102
RTVSPropertyOp30
 70
     1
102
RTVSPropertyOp31
 70
     1
102
RTVSPropertyOp32
 70
     1
  0
XRECORD
  5
5E
102
{ACAD_REACTORS
330
5D
102
}
330
5D
100
AcDbXrecord
280
     1
102
RTVSPropertyOp0
 70
     1
102
RTVSPropertyOp1
 70
     1
102
RTVSPropertyOp2
 70
     1
102
RTVSPropertyOp3
 70
     1
102
RTVSPropertyOp4
 70
     1
102
RTVSPropertyOp5
 70
     1
102
RTVSPropertyOp6
 70
     1
102
RTVSPropertyOp7
 70
     1
102
RTVSPropertyOp8
 70
     1
102
RTVSPropertyOp9
 70
     1
102
RTVSPropertyOp10
 70
     1
102
RTVSPropertyOp11
 70
     1
102
RTVSPropertyOp12
 70
     1
102
RTVSPropertyOp13
 70
     1
102
RTVSPropertyOp14
 70
     1
102
RTVSPropertyOp15
 70
     1
102
RTVSPropertyOp16
 70
     1
102
RTVSPropertyOp17
 70
     1
102
RTVSPropertyOp18
 70
     1
102
RTVSPropertyOp19
 70
     1
102
RTVSPropertyOp20
 70
     1
102
RTVSPropertyOp21
 70
     1
102
RTVSPropertyOp22
 70
     1
102
RTVSPropertyOp23
 70
     1
102
RTVSPropertyOp24
 70
     1
102
RTVSPropertyOp25
 70
     1
102
RTVSPropertyOp26
 70
     1
102
RTVSPropertyOp27
 70
     1
102
RTVSPropertyOp28
 70
     1
102
RTVSPropertyOp29
 70
     1
102
RTVSPropertyOp30
 70
     1
102
RTVSPropertyOp31
 70
     1
102
RTVSPropertyOp32
 70
     1
  0
XRECORD
  5
54
102
{ACAD_REACTORS
330
53
102
}
330
53
100
AcDbXrecord
280
     1
102
RTVSPropertyOp0
 70
     1
102
RTVSPropertyOp1
 70
     1
102
RTVSPropertyOp2
 70
     1
102
RTVSPropertyOp3
 70
     1
102
RTVSPropertyOp4
 70
     1
102
RTVSPropertyOp5
 70
     1
102
RTVSPropertyOp6
 70
     1
102
RTVSPropertyOp7
 70
     1
102
RTVSPropertyOp8
 70
     1
102
RTVSPropertyOp9
 70
     1
102
RTVSPropertyOp10
 70
     1
102
RTVSPropertyOp11
 70
     1
102
RTVSPropertyOp12
 70
     1
102
RTVSPropertyOp13
 70
     1
102
RTVSPropertyOp14
 70
     1
102
RTVSPropertyOp15
 70
     1
102
RTVSPropertyOp16
 70
     1
102
RTVSPropertyOp17
 70
     1
102
RTVSPropertyOp18
 70
     1
102
RTVSPropertyOp19
 70
     1
102
RTVSPropertyOp20
 70
     1
102
RTVSPropertyOp21
 70
     1
102
RTVSPropertyOp22
 70
     1
102
RTVSPropertyOp23
 70
     1
102
RTVSPropertyOp24
 70
     1
102
RTVSPropertyOp25
 70
     1
102
RTVSPropertyOp26
 70
     1
102
RTVSPropertyOp27
 70
     1
102
RTVSPropertyOp28
 70
     1
102
RTVSPropertyOp29
 70
     1
102
RTVSPropertyOp30
 70
     1
102
RTVSPropertyOp31
 70
     1
102
RTVSPropertyOp32
 70
     1
  0
XRECORD
  5
5C
102
{ACAD_REACTORS
330
5B
102
}
330
5B
100
AcDbXrecord
280
     1
102
RTVSPropertyOp0
 70
     1
102
RTVSPropertyOp1
 70
     1
102
RTVSPropertyOp2
 70
     1
102
RTVSPropertyOp3
 70
     1
102
RTVSPropertyOp4
 70
     1
102
RTVSPropertyOp5
 70
     1
102
RTVSPropertyOp6
 70
     1
102
RTVSPropertyOp7
 70
     1
102
RTVSPropertyOp8
 70
     1
102
RTVSPropertyOp9
 70
     1
102
RTVSPropertyOp10
 70
     1
102
RTVSPropertyOp11
 70
     1
102
RTVSPropertyOp12
 70
     1
102
RTVSPropertyOp13
 70
     1
102
RTVSPropertyOp14
 70
     1
102
RTVSPropertyOp15
 70
     1
102
RTVSPropertyOp16
 70
     1
102
RTVSPropertyOp17
 70
     1
102
RTVSPropertyOp18
 70
     1
102
RTVSPropertyOp19
 70
     1
102
RTVSPropertyOp20
 70
     1
102
RTVSPropertyOp21
 70
     1
102
RTVSPropertyOp22
 70
     1
102
RTVSPropertyOp23
 70
     1
102
RTVSPropertyOp24
 70
     1
102
RTVSPropertyOp25
 70
     1
102
RTVSPropertyOp26
 70
     1
102
RTVSPropertyOp27
 70
     1
102
RTVSPropertyOp28
 70
     1
102
RTVSPropertyOp29
 70
     1
102
RTVSPropertyOp30
 70
     1
102
RTVSPropertyOp31
 70
     1
102
RTVSPropertyOp32
 70
     1
  0
ENDSEC
  0
EOF
