<?xml version="1.0" encoding="utf-8"?>
<!-- Generator: Adobe Illustrator 16.0.0, SVG Export Plug-In . SVG Version: 6.00 Build 0)  -->
<!DOCTYPE svg PUBLIC "-//W3C//DTD SVG 1.1//EN" "http://www.w3.org/Graphics/SVG/1.1/DTD/svg11.dtd">
<svg version="1.1" id="Layer_1" xmlns="http://www.w3.org/2000/svg" xmlns:xlink="http://www.w3.org/1999/xlink" x="0px" y="0px"
	 width="226.77px" height="226.77px" viewBox="0 0 226.77 226.77" enable-background="new 0 0 226.77 226.77" xml:space="preserve">
<path fill-rule="evenodd" clip-rule="evenodd" d="M183.908,122.548c-2.469-0.638-3.641-0.132-5.375-1.138
	c-2.104-1.214-3.762-3.504-5.697-4.885c-1.602-1.139-3.672-1.414-5.213-2.441c-3.529-2.77-7.055-5.539-10.584-8.306
	c-3.783-2.383-9.26-2.948-12.861-5.375c-2.168-1.456-3.277-4.008-4.889-6.026c-1.844-2.301-5.346-2.988-7.164-5.203
	c-2.744-3.364-4.541-7.368-7.002-11.079c0.598-1.95,1.195-3.904,1.793-5.857c0.271-1.144,2.844-0.441,5.209-0.33
	c1.156-0.001,0.654-1.907,1.301-3.092c1.033-1.41,2.068-2.824,3.096-4.233c0.543-1.851-0.051-3.006-0.326-4.072
	c-0.299-1.17,0.914-2.064,0.979-3.253c0.08-1.507-3.125-8.446-4.07-9.118c-2.172-1.55-5.316-2.062-8.471-2.605
	c-5.158-0.898-9.727,2.584-11.23,5.533c-0.973,1.903-0.844,3.707-1.795,5.864c-0.652,0.541-1.303,1.085-1.953,1.625
	c-2.818,4.463-0.266,8.045,3.422,9.935v0.49c-8.297-0.677-10.479-4.248-16.123-6.843c-3.411-1.567-8.243-1.875-11.4-3.743
	c-5.238-3.109-8.579-7.897-13.678-10.907c-5.057-2.988-11.026-4.405-15.955-7.329c-3.594-2.137-7.833-4.774-11.399-6.839
	c-0.977-0.16-1.954-0.325-2.933-0.49c-2.128-1.37-4.057-3.704-6.187-3.586c-0.147,0.008-0.792,0.101-0.325,0.49
	c0.814,0.548,1.63,1.089,2.444,1.628c1.027,0.811-2.063,0.111-3.092,0.166H34.1c0.484,1.538,4.132,2.365,5.864,2.601
	c0.677,2.138,3.287,3.575,2.278,4.073c-1.681,0.418-3.764,0.522-5.536,0.329c-1.909-0.218-1.346,1.224-0.979,1.467
	c2.695,1.784,11.934-0.172,15.469,2.115c3.638,3.149,7.273,6.298,10.911,9.444c2.603,2.007,5.214,4.011,7.817,6.026
	c1.715,1.03,3.501,1.491,5.044,2.601c5.819,4.177,11.479,9.595,18.4,12.539c2.755,4.804-4.359,16.494-6.023,20.355
	c-1.307,2.655-2.604,5.318-3.906,7.979c-1.193,3.229-1.77,6.417-3.419,9.279c-2.976,5.168-6.546,9.663-8.467,15.958
	c-1.204,3.943,0.14,7.712,0.647,11.071c-0.542,2.878-1.081,5.755-1.625,8.632c1.893-0.028,7.396-0.293,7.977,1.142
	c1.183-0.115,1.042-0.591,1.632-0.815c2.15-0.823,4.934,2.122,6.512,2.604c1.934,7.852,5.992,13.678,5.859,22.961
	c-3.148-0.058-6.299-0.115-9.443-0.165c-6.543,1.108-13.343,4.061-19.542,1.789c-0.269-1.138-0.541-2.272-0.813-3.418
	c-5.024-2.905-9.012,3.085-11.722,4.725c-1.852,0.49-3.694,0.973-5.538,1.464c-2.628,0.673-6.475,0.3-8.143,1.953
	c-1.418,1.481-0.819,2.043,1.302,2.932c5.231,1.163,10.066,1.767,14.982,2.608h18.561c4.969,0.973,13.236,2.555,18.239,1.628
	c5.582-1.048,10.745,2.977,15.632-1.142c2.797-2.357,1.385-15.699,2.605-20.352v-4.888c4.947,0.622,10.215,9.104,14.004,11.888
	c4.791,3.514,10.936,5.021,16.771,7.651c2.791,1.256,7.557,1.785,9.443,3.743c1.123,1.17,2.848,1.91,3.908,3.099
	c5.102,5.708,8.543,10.75,17.748,12.536c3.885,0.809,7.906-1.066,4.398-6.349c-2.402-0.966-2.768-3.421-4.725-4.724
	c-3.879-2.591-7.229-6.059-11.07-8.467c-3.229-2.029-7.918-2.678-11.236-4.724c-4.07-3.525-8.139-7.051-12.211-10.582
	c-2.498-1.356-4.996-2.717-7.492-4.072c-2.746-1.775-4.285-4.907-6.838-6.835c-4.598-3.475-10.006-6.396-13.516-10.911
	c2.334-6.485-1.16-13.395-1.301-20.194c-0.053-1.084-0.111-2.168-0.164-3.253c1.08-2.949,9.105-11.552,11.725-13.352
	c1.848-1.281,3.129-1.546,3.908-3.911c2.26-0.028,4.143-0.924,6.348-0.326c3.27,0.885,5.592,3.901,8.305,5.536
	c2.605,1.195,5.213,2.388,7.818,3.586c1.191,0.92,2.391,1.84,3.582,2.763c2.455,1.524,5.705,2.723,8.143,3.908
	c4.23,1.467,8.469,2.935,12.699,4.397c1.537,1.182,1.283,4.771,2.119,6.674c0.441,1.017,3.807,5.762,4.723,6.353
	c1.75-2.247-1.395-4.151-1.633-6.514c-0.197-1.039,0.537-1.352,1.305-1.302c5.459,0.522,7.482,3.419,10.182,6.205
	c0.348,0.359,2.629,0.62,1.008-1.729c1.652,0.318,0.301-1.878,0.301-1.878c-0.893-1.324-1.953-2.412-3.021-3.571
	c-0.109-0.058-0.219-0.111-0.326-0.161v-0.169c1.58,0.036,3.116,0.889,3.99,1.321C189.172,126.453,191.219,126.016,183.908,122.548z
	"/>
</svg>
