  0
SECTION
  2
HEADER
  9
$ACADVER
  1
AC1021
  9
$ACADMAINTVER
 70
    25
  9
$DWGCODEPAGE
  3
ANSI_1252
  9
$INSBASE
 10
0.0
 20
0.0
 30
0.0
  9
$EXTMIN
 10
1.000000000000000E+20
 20
1.000000000000000E+20
 30
1.000000000000000E+20
  9
$EXTMAX
 10
-1.000000000000000E+20
 20
-1.000000000000000E+20
 30
-1.000000000000000E+20
  9
$LIMMIN
 10
0.0
 20
0.0
  9
$LIMMAX
 10
12.0
 20
9.0
  9
$ORTHOMODE
 70
     0
  9
$REGENMODE
 70
     1
  9
$FILLMODE
 70
     1
  9
$QTEXTMODE
 70
     0
  9
$MIRRTEXT
 70
     1
  9
$LTSCALE
 40
1.0
  9
$ATTMODE
 70
     1
  9
$TEXTSIZE
 40
0.2
  9
$TRACEWID
 40
0.05
  9
$TEXTSTYLE
  7
Standard
  9
$CLAYER
  8
0
  9
$CELTYPE
  6
ByLayer
  9
$CECOLOR
 62
   256
  9
$CELTSCALE
 40
1.0
  9
$DISPSILH
 70
     0
  9
$DIMSCALE
 40
1.0
  9
$DIMASZ
 40
0.18
  9
$DIMEXO
 40
0.0625
  9
$DIMDLI
 40
0.38
  9
$DIMRND
 40
0.0
  9
$DIMDLE
 40
0.0
  9
$DIMEXE
 40
0.18
  9
$DIMTP
 40
0.0
  9
$DIMTM
 40
0.0
  9
$DIMTXT
 40
0.18
  9
$DIMCEN
 40
0.09
  9
$DIMTSZ
 40
0.0
  9
$DIMTOL
 70
     0
  9
$DIMLIM
 70
     0
  9
$DIMTIH
 70
     1
  9
$DIMTOH
 70
     1
  9
$DIMSE1
 70
     0
  9
$DIMSE2
 70
     0
  9
$DIMTAD
 70
     0
  9
$DIMZIN
 70
     0
  9
$DIMBLK
  1

  9
$DIMASO
 70
     1
  9
$DIMSHO
 70
     1
  9
$DIMPOST
  1

  9
$DIMAPOST
  1

  9
$DIMALT
 70
     0
  9
$DIMALTD
 70
     2
  9
$DIMALTF
 40
25.4
  9
$DIMLFAC
 40
1.0
  9
$DIMTOFL
 70
     0
  9
$DIMTVP
 40
0.0
  9
$DIMTIX
 70
     0
  9
$DIMSOXD
 70
     0
  9
$DIMSAH
 70
     0
  9
$DIMBLK1
  1

  9
$DIMBLK2
  1

  9
$DIMSTYLE
  2
Standard
  9
$DIMCLRD
 70
     0
  9
$DIMCLRE
 70
     0
  9
$DIMCLRT
 70
     0
  9
$DIMTFAC
 40
1.0
  9
$DIMGAP
 40
0.09
  9
$DIMJUST
 70
     0
  9
$DIMSD1
 70
     0
  9
$DIMSD2
 70
     0
  9
$DIMTOLJ
 70
     1
  9
$DIMTZIN
 70
     0
  9
$DIMALTZ
 70
     0
  9
$DIMALTTZ
 70
     0
  9
$DIMUPT
 70
     0
  9
$DIMDEC
 70
     4
  9
$DIMTDEC
 70
     4
  9
$DIMALTU
 70
     2
  9
$DIMALTTD
 70
     2
  9
$DIMTXSTY
  7
Standard
  9
$DIMAUNIT
 70
     0
  9
$DIMADEC
 70
     0
  9
$DIMALTRND
 40
0.0
  9
$DIMAZIN
 70
     0
  9
$DIMDSEP
 70
    46
  9
$DIMATFIT
 70
     3
  9
$DIMFRAC
 70
     0
  9
$DIMLDRBLK
  1

  9
$DIMLUNIT
 70
     2
  9
$DIMLWD
 70
    -2
  9
$DIMLWE
 70
    -2
  9
$DIMTMOVE
 70
     0
  9
$DIMFXL
 40
1.0
  9
$DIMFXLON
 70
     0
  9
$DIMJOGANG
 40
0.7853981633974483
  9
$DIMTFILL
 70
     0
  9
$DIMTFILLCLR
 70
     0
  9
$DIMARCSYM
 70
     0
  9
$DIMLTYPE
  6

  9
$DIMLTEX1
  6

  9
$DIMLTEX2
  6

  9
$LUNITS
 70
     2
  9
$LUPREC
 70
     4
  9
$SKETCHINC
 40
0.1
  9
$FILLETRAD
 40
0.5
  9
$AUNITS
 70
     0
  9
$AUPREC
 70
     0
  9
$MENU
  1
.
  9
$ELEVATION
 40
0.0
  9
$PELEVATION
 40
0.0
  9
$THICKNESS
 40
0.0
  9
$LIMCHECK
 70
     0
  9
$CHAMFERA
 40
0.5
  9
$CHAMFERB
 40
0.5
  9
$CHAMFERC
 40
1.0
  9
$CHAMFERD
 40
0.0
  9
$SKPOLY
 70
     0
  9
$TDCREATE
 40
2458551.625826724
  9
$TDUCREATE
 40
2458551.334160058
  9
$TDUPDATE
 40
2458551.625826724
  9
$TDUUPDATE
 40
2458551.334160058
  9
$TDINDWG
 40
0.0000000116
  9
$TDUSRTIMER
 40
0.0000000116
  9
$USRTIMER
 70
     1
  9
$ANGBASE
 50
0.0
  9
$ANGDIR
 70
     0
  9
$PDMODE
 70
     0
  9
$PDSIZE
 40
0.0
  9
$PLINEWID
 40
0.0
  9
$SPLFRAME
 70
     0
  9
$SPLINETYPE
 70
     6
  9
$SPLINESEGS
 70
     8
  9
$HANDSEED
  5
65
  9
$SURFTAB1
 70
     6
  9
$SURFTAB2
 70
     6
  9
$SURFTYPE
 70
     6
  9
$SURFU
 70
     6
  9
$SURFV
 70
     6
  9
$UCSBASE
  2

  9
$UCSNAME
  2

  9
$UCSORG
 10
0.0
 20
0.0
 30
0.0
  9
$UCSXDIR
 10
1.0
 20
0.0
 30
0.0
  9
$UCSYDIR
 10
0.0
 20
1.0
 30
0.0
  9
$UCSORTHOREF
  2

  9
$UCSORTHOVIEW
 70
     0
  9
$UCSORGTOP
 10
0.0
 20
0.0
 30
0.0
  9
$UCSORGBOTTOM
 10
0.0
 20
0.0
 30
0.0
  9
$UCSORGLEFT
 10
0.0
 20
0.0
 30
0.0
  9
$UCSORGRIGHT
 10
0.0
 20
0.0
 30
0.0
  9
$UCSORGFRONT
 10
0.0
 20
0.0
 30
0.0
  9
$UCSORGBACK
 10
0.0
 20
0.0
 30
0.0
  9
$PUCSBASE
  2

  9
$PUCSNAME
  2

  9
$PUCSORG
 10
0.0
 20
0.0
 30
0.0
  9
$PUCSXDIR
 10
1.0
 20
0.0
 30
0.0
  9
$PUCSYDIR
 10
0.0
 20
1.0
 30
0.0
  9
$PUCSORTHOREF
  2

  9
$PUCSORTHOVIEW
 70
     0
  9
$PUCSORGTOP
 10
0.0
 20
0.0
 30
0.0
  9
$PUCSORGBOTTOM
 10
0.0
 20
0.0
 30
0.0
  9
$PUCSORGLEFT
 10
0.0
 20
0.0
 30
0.0
  9
$PUCSORGRIGHT
 10
0.0
 20
0.0
 30
0.0
  9
$PUCSORGFRONT
 10
0.0
 20
0.0
 30
0.0
  9
$PUCSORGBACK
 10
0.0
 20
0.0
 30
0.0
  9
$USERI1
 70
     0
  9
$USERI2
 70
     0
  9
$USERI3
 70
     0
  9
$USERI4
 70
     0
  9
$USERI5
 70
     0
  9
$USERR1
 40
0.0
  9
$USERR2
 40
0.0
  9
$USERR3
 40
0.0
  9
$USERR4
 40
0.0
  9
$USERR5
 40
0.0
  9
$WORLDVIEW
 70
     1
  9
$SHADEDGE
 70
     3
  9
$SHADEDIF
 70
    70
  9
$TILEMODE
 70
     1
  9
$MAXACTVP
 70
    64
  9
$PINSBASE
 10
0.0
 20
0.0
 30
0.0
  9
$PLIMCHECK
 70
     0
  9
$PEXTMIN
 10
1.000000000000000E+20
 20
1.000000000000000E+20
 30
1.000000000000000E+20
  9
$PEXTMAX
 10
-1.000000000000000E+20
 20
-1.000000000000000E+20
 30
-1.000000000000000E+20
  9
$PLIMMIN
 10
0.0
 20
0.0
  9
$PLIMMAX
 10
12.0
 20
9.0
  9
$UNITMODE
 70
     0
  9
$VISRETAIN
 70
     1
  9
$PLINEGEN
 70
     0
  9
$PSLTSCALE
 70
     1
  9
$TREEDEPTH
 70
  3020
  9
$CMLSTYLE
  2
Standard
  9
$CMLJUST
 70
     0
  9
$CMLSCALE
 40
1.0
  9
$PROXYGRAPHICS
 70
     1
  9
$MEASUREMENT
 70
     0
  9
$CELWEIGHT
370
    -1
  9
$ENDCAPS
280
     0
  9
$JOINSTYLE
280
     0
  9
$LWDISPLAY
290
     1
  9
$INSUNITS
 70
     1
  9
$HYPERLINKBASE
  1

  9
$STYLESHEET
  1

  9
$XEDIT
290
     1
  9
$CEPSNTYPE
380
     0
  9
$PSTYLEMODE
290
     1
  9
$FINGERPRINTGUID
  2
{705CD845-F28B-44FD-97BC-D8CB374ED646}
  9
$VERSIONGUID
  2
{FAEB1C32-E019-11D5-929B-00C0DF256EC4}
  9
$EXTNAMES
290
     1
  9
$PSVPSCALE
 40
0.0
  9
$OLESTARTUP
290
     0
  9
$SORTENTS
280
   127
  9
$INDEXCTL
280
     0
  9
$HIDETEXT
280
     1
  9
$XCLIPFRAME
290
     0
  9
$HALOGAP
280
     0
  9
$OBSCOLOR
 70
   257
  9
$OBSLTYPE
280
     0
  9
$INTERSECTIONDISPLAY
280
     0
  9
$INTERSECTIONCOLOR
 70
   257
  9
$DIMASSOC
280
     2
  9
$PROJECTNAME
  1

  9
$CAMERADISPLAY
290
     0
  9
$LENSLENGTH
 40
50.0
  9
$CAMERAHEIGHT
 40
0.0
  9
$STEPSPERSEC
 40
2.0
  9
$STEPSIZE
 40
6.0
  9
$3DDWFPREC
 40
2.0
  9
$PSOLWIDTH
 40
0.25
  9
$PSOLHEIGHT
 40
4.0
  9
$LOFTANG1
 40
1.570796326794897
  9
$LOFTANG2
 40
1.570796326794897
  9
$LOFTMAG1
 40
0.0
  9
$LOFTMAG2
 40
0.0
  9
$LOFTPARAM
 70
     7
  9
$LOFTNORMALS
280
     1
  9
$LATITUDE
 40
37.795
  9
$LONGITUDE
 40
-122.394
  9
$NORTHDIRECTION
 40
0.0
  9
$TIMEZONE
 70
 -8000
  9
$LIGHTGLYPHDISPLAY
280
     1
  9
$TILEMODELIGHTSYNCH
280
     1
  9
$CMATERIAL
347
3C
  9
$SOLIDHIST
280
     1
  9
$SHOWHIST
280
     1
  9
$DWFFRAME
280
     2
  9
$DGNFRAME
280
     2
  9
$REALWORLDSCALE
290
     1
  9
$INTERFERECOLOR
 62
   256
  9
$CSHADOW
280
     0
  9
$SHADOWPLANELOCATION
 40
0.0
  0
ENDSEC
  0
SECTION
  2
CLASSES
  0
CLASS
  1
ACDBDICTIONARYWDFLT
  2
AcDbDictionaryWithDefault
  3
ObjectDBX Classes
 90
        0
 91
        4
280
     0
281
     0
  0
CLASS
  1
VISUALSTYLE
  2
AcDbVisualStyle
  3
ObjectDBX Classes
 90
     4095
 91
        4
280
     0
281
     0
  0
CLASS
  1
MATERIAL
  2
AcDbMaterial
  3
ObjectDBX Classes
 90
     1153
 91
        4
280
     0
281
     0
  0
CLASS
  1
SUN
  2
AcDbSun
  3
SCENEOE
 90
     1024
 91
        4
280
     0
281
     0
  0
ENDSEC
  0
SECTION
  2
TABLES
  0
TABLE
  2
VPORT
  5
8
330
0
100
AcDbSymbolTable
 70
     1
  0
VPORT
  5
29
330
8
100
AcDbSymbolTableRecord
100
AcDbViewportTableRecord
  2
*Active
 70
     0
 10
0.0
 20
0.0
 11
1.0
 21
1.0
 12
0.0
 22
0.0
 13
0.0
 23
0.0
 14
0.5
 24
0.5
 15
0.5
 25
0.5
 16
0.0
 26
0.0
 36
1.0
 17
39.99961911841359
 27
-39.99962012888904
 37
0.0
 40
79.99924025777808
 41
0.9999999747378738
 42
50.0
 43
0.0
 44
0.0
 50
0.0
 51
0.0
 71
     0
 72
   100
 73
     1
 74
     3
 75
     0
 76
     0
 77
     0
 78
     0
281
     0
 65
     1
110
0.0
120
0.0
130
0.0
111
1.0
121
0.0
131
0.0
112
0.0
122
1.0
132
0.0
 79
     0
146
0.0
 60
     3
 61
     5
292
     1
282
     1
141
0.0
142
0.0
 63
   250
361
3F
  0
ENDTAB
  0
TABLE
  2
LTYPE
  5
5
330
0
100
AcDbSymbolTable
 70
     1
  0
LTYPE
  5
14
330
5
100
AcDbSymbolTableRecord
100
AcDbLinetypeTableRecord
  2
ByBlock
 70
     0
  3

 72
    65
 73
     0
 40
0.0
  0
LTYPE
  5
15
330
5
100
AcDbSymbolTableRecord
100
AcDbLinetypeTableRecord
  2
ByLayer
 70
     0
  3

 72
    65
 73
     0
 40
0.0
  0
LTYPE
  5
16
330
5
100
AcDbSymbolTableRecord
100
AcDbLinetypeTableRecord
  2
Continuous
 70
     0
  3
Solid line
 72
    65
 73
     0
 40
0.0
  0
ENDTAB
  0
TABLE
  2
LAYER
  5
2
330
0
100
AcDbSymbolTable
 70
     2
  0
LAYER
  5
10
330
2
100
AcDbSymbolTableRecord
100
AcDbLayerTableRecord
  2
0
 70
     0
 62
     7
  6
Continuous
370
    -3
390
F
347
3E
  0
LAYER
  5
40
330
2
100
AcDbSymbolTableRecord
100
AcDbLayerTableRecord
  2
Layer 1
 70
     0
 62
     7
  6
Continuous
370
    -3
390
F
347
3E
  0
ENDTAB
  0
TABLE
  2
STYLE
  5
3
330
0
100
AcDbSymbolTable
 70
     1
  0
STYLE
  5
11
330
3
100
AcDbSymbolTableRecord
100
AcDbTextStyleTableRecord
  2
Standard
 70
     0
 40
0.0
 41
1.0
 50
0.0
 71
     0
 42
0.2
  3
txt
  4

  0
ENDTAB
  0
TABLE
  2
VIEW
  5
6
330
0
100
AcDbSymbolTable
 70
     0
  0
ENDTAB
  0
TABLE
  2
UCS
  5
7
330
0
100
AcDbSymbolTable
 70
     0
  0
ENDTAB
  0
TABLE
  2
APPID
  5
9
330
0
100
AcDbSymbolTable
 70
     1
  0
APPID
  5
12
330
9
100
AcDbSymbolTableRecord
100
AcDbRegAppTableRecord
  2
ACAD
 70
     0
  0
ENDTAB
  0
TABLE
  2
DIMSTYLE
  5
A
330
0
100
AcDbSymbolTable
 70
     1
100
AcDbDimStyleTable
  0
DIMSTYLE
105
27
330
A
100
AcDbSymbolTableRecord
100
AcDbDimStyleTableRecord
  2
Standard
 70
     0
178
     0
340
11
  0
ENDTAB
  0
TABLE
  2
BLOCK_RECORD
  5
1
330
0
100
AcDbSymbolTable
 70
     1
  0
BLOCK_RECORD
  5
1F
330
1
100
AcDbSymbolTableRecord
100
AcDbBlockTableRecord
  2
*Model_Space
340
22
 70
     0
280
     1
281
     0
  0
BLOCK_RECORD
  5
1B
330
1
100
AcDbSymbolTableRecord
100
AcDbBlockTableRecord
  2
*Paper_Space
340
1E
 70
     0
280
     1
281
     0
  0
BLOCK_RECORD
  5
23
330
1
100
AcDbSymbolTableRecord
100
AcDbBlockTableRecord
  2
*Paper_Space0
340
26
 70
     0
280
     1
281
     0
  0
ENDTAB
  0
ENDSEC
  0
SECTION
  2
BLOCKS
  0
BLOCK
  5
20
330
1F
100
AcDbEntity
  8
0
100
AcDbBlockBegin
  2
*Model_Space
 70
     0
 10
0.0
 20
0.0
 30
0.0
  3
*Model_Space
  1

  0
ENDBLK
  5
21
330
1F
100
AcDbEntity
  8
0
100
AcDbBlockEnd
  0
BLOCK
  5
1C
330
1B
100
AcDbEntity
 67
     1
  8
0
100
AcDbBlockBegin
  2
*Paper_Space
 70
     0
 10
0.0
 20
0.0
 30
0.0
  3
*Paper_Space
  1

  0
ENDBLK
  5
1D
330
1B
100
AcDbEntity
 67
     1
  8
0
100
AcDbBlockEnd
  0
BLOCK
  5
24
330
23
100
AcDbEntity
  8
0
100
AcDbBlockBegin
  2
*Paper_Space0
 70
     0
 10
0.0
 20
0.0
 30
0.0
  3
*Paper_Space0
  1

  0
ENDBLK
  5
25
330
23
100
AcDbEntity
  8
0
100
AcDbBlockEnd
  0
ENDSEC
  0
SECTION
  2
ENTITIES
  0
SPLINE
  5
41
330
1F
100
AcDbEntity
  8
Layer 1
370
     0
100
AcDbSpline
210
0.0
220
0.0
230
1.0
 70
    11
 71
     3
 72
   593
 73
   589
 74
     0
 42
0.0000000001
 43
0.0000000001
 12
1.0
 22
0.0
 32
0.0
 13
1.0
 23
0.0
 33
0.0
 40
0.0
 40
0.0
 40
0.0
 40
0.0
 40
1.0
 40
1.0
 40
1.0
 40
2.0
 40
2.0
 40
2.0
 40
3.0
 40
3.0
 40
3.0
 40
4.0
 40
4.0
 40
4.0
 40
5.0
 40
5.0
 40
5.0
 40
6.0
 40
6.0
 40
6.0
 40
7.0
 40
7.0
 40
7.0
 40
8.0
 40
8.0
 40
8.0
 40
9.0
 40
9.0
 40
9.0
 40
10.0
 40
10.0
 40
10.0
 40
11.0
 40
11.0
 40
11.0
 40
12.0
 40
12.0
 40
12.0
 40
13.0
 40
13.0
 40
13.0
 40
14.0
 40
14.0
 40
14.0
 40
15.0
 40
15.0
 40
15.0
 40
16.0
 40
16.0
 40
16.0
 40
17.0
 40
17.0
 40
17.0
 40
18.0
 40
18.0
 40
18.0
 40
19.0
 40
19.0
 40
19.0
 40
20.0
 40
20.0
 40
20.0
 40
21.0
 40
21.0
 40
21.0
 40
22.0
 40
22.0
 40
22.0
 40
23.0
 40
23.0
 40
23.0
 40
24.0
 40
24.0
 40
24.0
 40
25.0
 40
25.0
 40
25.0
 40
26.0
 40
26.0
 40
26.0
 40
27.0
 40
27.0
 40
27.0
 40
28.0
 40
28.0
 40
28.0
 40
29.0
 40
29.0
 40
29.0
 40
30.0
 40
30.0
 40
30.0
 40
31.0
 40
31.0
 40
31.0
 40
32.0
 40
32.0
 40
32.0
 40
33.0
 40
33.0
 40
33.0
 40
34.0
 40
34.0
 40
34.0
 40
35.0
 40
35.0
 40
35.0
 40
36.0
 40
36.0
 40
36.0
 40
37.0
 40
37.0
 40
37.0
 40
38.0
 40
38.0
 40
38.0
 40
39.0
 40
39.0
 40
39.0
 40
40.0
 40
40.0
 40
40.0
 40
41.0
 40
41.0
 40
41.0
 40
42.0
 40
42.0
 40
42.0
 40
43.0
 40
43.0
 40
43.0
 40
44.0
 40
44.0
 40
44.0
 40
45.0
 40
45.0
 40
45.0
 40
46.0
 40
46.0
 40
46.0
 40
47.0
 40
47.0
 40
47.0
 40
48.0
 40
48.0
 40
48.0
 40
49.0
 40
49.0
 40
49.0
 40
50.0
 40
50.0
 40
50.0
 40
51.0
 40
51.0
 40
51.0
 40
52.0
 40
52.0
 40
52.0
 40
53.0
 40
53.0
 40
53.0
 40
54.0
 40
54.0
 40
54.0
 40
55.0
 40
55.0
 40
55.0
 40
56.0
 40
56.0
 40
56.0
 40
57.0
 40
57.0
 40
57.0
 40
58.0
 40
58.0
 40
58.0
 40
59.0
 40
59.0
 40
59.0
 40
60.0
 40
60.0
 40
60.0
 40
61.0
 40
61.0
 40
61.0
 40
62.0
 40
62.0
 40
62.0
 40
63.0
 40
63.0
 40
63.0
 40
64.0
 40
64.0
 40
64.0
 40
65.0
 40
65.0
 40
65.0
 40
66.0
 40
66.0
 40
66.0
 40
67.0
 40
67.0
 40
67.0
 40
68.0
 40
68.0
 40
68.0
 40
69.0
 40
69.0
 40
69.0
 40
70.0
 40
70.0
 40
70.0
 40
71.0
 40
71.0
 40
71.0
 40
72.0
 40
72.0
 40
72.0
 40
73.0
 40
73.0
 40
73.0
 40
74.0
 40
74.0
 40
74.0
 40
75.0
 40
75.0
 40
75.0
 40
76.0
 40
76.0
 40
76.0
 40
77.0
 40
77.0
 40
77.0
 40
78.0
 40
78.0
 40
78.0
 40
79.0
 40
79.0
 40
79.0
 40
80.0
 40
80.0
 40
80.0
 40
81.0
 40
81.0
 40
81.0
 40
82.0
 40
82.0
 40
82.0
 40
83.0
 40
83.0
 40
83.0
 40
84.0
 40
84.0
 40
84.0
 40
85.0
 40
85.0
 40
85.0
 40
86.0
 40
86.0
 40
86.0
 40
87.0
 40
87.0
 40
87.0
 40
88.0
 40
88.0
 40
88.0
 40
89.0
 40
89.0
 40
89.0
 40
90.0
 40
90.0
 40
90.0
 40
91.0
 40
91.0
 40
91.0
 40
92.0
 40
92.0
 40
92.0
 40
93.0
 40
93.0
 40
93.0
 40
94.0
 40
94.0
 40
94.0
 40
95.0
 40
95.0
 40
95.0
 40
96.0
 40
96.0
 40
96.0
 40
97.0
 40
97.0
 40
97.0
 40
98.0
 40
98.0
 40
98.0
 40
99.0
 40
99.0
 40
99.0
 40
100.0
 40
100.0
 40
100.0
 40
101.0
 40
101.0
 40
101.0
 40
102.0
 40
102.0
 40
102.0
 40
103.0
 40
103.0
 40
103.0
 40
104.0
 40
104.0
 40
104.0
 40
105.0
 40
105.0
 40
105.0
 40
106.0
 40
106.0
 40
106.0
 40
107.0
 40
107.0
 40
107.0
 40
108.0
 40
108.0
 40
108.0
 40
109.0
 40
109.0
 40
109.0
 40
110.0
 40
110.0
 40
110.0
 40
111.0
 40
111.0
 40
111.0
 40
112.0
 40
112.0
 40
112.0
 40
113.0
 40
113.0
 40
113.0
 40
114.0
 40
114.0
 40
114.0
 40
115.0
 40
115.0
 40
115.0
 40
116.0
 40
116.0
 40
116.0
 40
117.0
 40
117.0
 40
117.0
 40
118.0
 40
118.0
 40
118.0
 40
119.0
 40
119.0
 40
119.0
 40
120.0
 40
120.0
 40
120.0
 40
121.0
 40
121.0
 40
121.0
 40
122.0
 40
122.0
 40
122.0
 40
123.0
 40
123.0
 40
123.0
 40
124.0
 40
124.0
 40
124.0
 40
125.0
 40
125.0
 40
125.0
 40
126.0
 40
126.0
 40
126.0
 40
127.0
 40
127.0
 40
127.0
 40
128.0
 40
128.0
 40
128.0
 40
129.0
 40
129.0
 40
129.0
 40
130.0
 40
130.0
 40
130.0
 40
131.0
 40
131.0
 40
131.0
 40
132.0
 40
132.0
 40
132.0
 40
133.0
 40
133.0
 40
133.0
 40
134.0
 40
134.0
 40
134.0
 40
135.0
 40
135.0
 40
135.0
 40
136.0
 40
136.0
 40
136.0
 40
137.0
 40
137.0
 40
137.0
 40
138.0
 40
138.0
 40
138.0
 40
139.0
 40
139.0
 40
139.0
 40
140.0
 40
140.0
 40
140.0
 40
141.0
 40
141.0
 40
141.0
 40
142.0
 40
142.0
 40
142.0
 40
143.0
 40
143.0
 40
143.0
 40
144.0
 40
144.0
 40
144.0
 40
145.0
 40
145.0
 40
145.0
 40
146.0
 40
146.0
 40
146.0
 40
147.0
 40
147.0
 40
147.0
 40
148.0
 40
148.0
 40
148.0
 40
149.0
 40
149.0
 40
149.0
 40
150.0
 40
150.0
 40
150.0
 40
151.0
 40
151.0
 40
151.0
 40
152.0
 40
152.0
 40
152.0
 40
153.0
 40
153.0
 40
153.0
 40
154.0
 40
154.0
 40
154.0
 40
155.0
 40
155.0
 40
155.0
 40
156.0
 40
156.0
 40
156.0
 40
157.0
 40
157.0
 40
157.0
 40
158.0
 40
158.0
 40
158.0
 40
159.0
 40
159.0
 40
159.0
 40
160.0
 40
160.0
 40
160.0
 40
161.0
 40
161.0
 40
161.0
 40
162.0
 40
162.0
 40
162.0
 40
163.0
 40
163.0
 40
163.0
 40
164.0
 40
164.0
 40
164.0
 40
165.0
 40
165.0
 40
165.0
 40
166.0
 40
166.0
 40
166.0
 40
167.0
 40
167.0
 40
167.0
 40
168.0
 40
168.0
 40
168.0
 40
169.0
 40
169.0
 40
169.0
 40
170.0
 40
170.0
 40
170.0
 40
171.0
 40
171.0
 40
171.0
 40
172.0
 40
172.0
 40
172.0
 40
173.0
 40
173.0
 40
173.0
 40
174.0
 40
174.0
 40
174.0
 40
175.0
 40
175.0
 40
175.0
 40
176.0
 40
176.0
 40
176.0
 40
177.0
 40
177.0
 40
177.0
 40
178.0
 40
178.0
 40
178.0
 40
179.0
 40
179.0
 40
179.0
 40
180.0
 40
180.0
 40
180.0
 40
181.0
 40
181.0
 40
181.0
 40
182.0
 40
182.0
 40
182.0
 40
183.0
 40
183.0
 40
183.0
 40
184.0
 40
184.0
 40
184.0
 40
185.0
 40
185.0
 40
185.0
 40
186.0
 40
186.0
 40
186.0
 40
187.0
 40
187.0
 40
187.0
 40
188.0
 40
188.0
 40
188.0
 40
189.0
 40
189.0
 40
189.0
 40
190.0
 40
190.0
 40
190.0
 40
191.0
 40
191.0
 40
191.0
 40
192.0
 40
192.0
 40
192.0
 40
193.0
 40
193.0
 40
193.0
 40
194.0
 40
194.0
 40
194.0
 40
195.0
 40
195.0
 40
195.0
 40
196.0
 40
196.0
 40
196.0
 40
196.0
 10
41.0407192307418
 20
-79.0979988691143
 30
0.0
 10
40.72378368327195
 20
-79.0979988691143
 30
0.0
 10
40.40649535803331
 20
-79.0979988691143
 30
0.0
 10
40.08952453278658
 20
-79.0979988691143
 30
0.0
 10
39.77534165672276
 20
-79.03770914690745
 30
0.0
 10
39.59344843433142
 20
-78.84135303584546
 30
0.0
 10
39.5093814920317
 20
-78.53990442480927
 30
0.0
 10
39.48355815935718
 20
-78.44895831372109
 30
0.0
 10
39.4408367715582
 20
-78.36249248040934
 30
0.0
 10
39.40326593918338
 20
-78.27496831376432
 30
0.0
 10
39.26342483163992
 20
-77.94596775829098
 30
0.0
 10
39.25513455407364
 20
-77.94219303607008
 30
0.0
 10
38.91064706286225
 20
-78.02901164715959
 30
0.0
 10
38.35907902137836
 20
-78.16782970268049
 30
0.0
 10
38.04348402942986
 20
-77.96872192495209
 30
0.0
 10
37.93292347669495
 20
-77.41196803620242
 30
0.0
 10
37.92152875476342
 20
-77.35615859177199
 30
0.0
 10
37.91225069944457
 20
-77.29967886956418
 30
0.0
 10
37.90844165718968
 20
-77.24284636957798
 30
0.0
 10
37.86607208951158
 20
-76.58516275863154
 30
0.0
 10
37.77064570305721
 20
-75.93266498101704
 30
0.0
 10
37.67899403872877
 20
-75.2801672034019
 30
0.0
 10
37.5797929301485
 20
-74.57528192580075
 30
0.0
 10
37.47163126624127
 20
-73.87526498153127
 30
0.0
 10
37.04096110185073
 20
-73.271662203904
 30
0.0
 10
36.90041350303647
 20
-73.07424775950938
 30
0.0
 10
36.75055350685972
 20
-72.926469148435
 30
0.0
 10
36.50149240210268
 20
-72.89821164844234
 30
0.0
 10
36.31614296238689
 20
-72.87753887066962
 30
0.0
 10
36.17005768833607
 20
-72.78348831513729
 30
0.0
 10
36.04912546919908
 20
-72.64223609295087
 30
0.0
 10
35.91305908378153
 20
-72.48309803743501
 30
0.0
 10
35.77663992059521
 20
-72.32082025969747
 30
0.0
 10
35.6904915894597
 20
-72.12996748196767
 30
0.0
 10
35.48379999112899
 20
-71.67382581541516
 30
0.0
 10
35.32981159866141
 20
-71.20600720442091
 30
0.0
 10
35.48034187259884
 20
-70.69680776010374
 30
0.0
 10
35.54271388000328
 20
-70.48595248237858
 30
0.0
 10
35.6643154790164
 20
-70.36815998240816
 30
0.0
 10
35.89926547302233
 20
-70.31612526019862
 30
0.0
 10
36.29547018513652
 20
-70.22965942688687
 30
0.0
 10
36.65339850933834
 20
-70.06840470470509
 30
0.0
 10
36.78431433933174
 20
-69.61469720481874
 30
0.0
 10
36.85183600427578
 20
-69.3818285937655
 30
0.0
 10
36.91833461369037
 20
-69.15269942715629
 30
0.0
 10
36.92316766912263
 20
-68.9101647049947
 30
0.0
 10
36.94659211296946
 20
-67.88802637191695
 30
0.0
 10
36.8594207263045
 20
-66.87033303883811
 30
0.0
 10
36.78981767252467
 20
-65.85232220575902
 30
0.0
 10
36.72885767407989
 20
-64.9620874837596
 30
0.0
 10
36.71506406332068
 20
-64.06500887287262
 30
0.0
 10
36.53592351233538
 20
-63.1861688730922
 30
0.0
 10
36.33198268420501
 20
-62.1801877622326
 30
0.0
 10
36.41604962650473
 20
-61.19177498470218
 30
0.0
 10
36.70130573033835
 20
-60.21613276272365
 30
0.0
 10
36.88044721300199
 20
-59.60222887398817
 30
0.0
 10
37.09437072031043
 20
-58.99795581858416
 30
0.0
 10
37.27594543790029
 20
-58.38401665207052
 30
0.0
 10
37.40823710119192
 20
-57.936870818849
 30
0.0
 10
37.59563265196662
 20
-57.49794470784791
 30
0.0
 10
37.55703876406234
 20
-57.01425109685761
 30
0.0
 10
37.49089293241653
 20
-56.19227887484092
 30
0.0
 10
37.36276404679648
 20
-55.37785609726664
 30
0.0
 10
37.205319328591
 20
-54.5692894308023
 30
0.0
 10
36.95692850159465
 20
-53.29286887556557
 30
0.0
 10
36.6117354548457
 20
-52.03955526476772
 30
0.0
 10
36.26721268585743
 20
-50.78655915397012
 30
0.0
 10
35.92201963910848
 20
-49.53289276539451
 30
0.0
 10
35.65673075698768
 20
-48.26063498793459
 30
0.0
 10
35.37080437539338
 20
-46.99352776602909
 30
0.0
 10
35.30945632140294
 20
-46.72273554387484
 30
0.0
 10
35.17995249120511
 20
-46.57079415502366
 30
0.0
 10
34.90295138016315
 20
-46.5260266550351
 30
0.0
 10
34.62665582467672
 20
-46.4819294328239
 30
0.0
 10
34.36828138029692
 20
-46.37235665507327
 30
0.0
 10
34.10920138036159
 20
-46.26761693287745
 30
0.0
 10
33.28408943612352
 20
-45.93484165518322
 30
0.0
 10
32.53718832519892
 20
-45.47182082196564
 30
0.0
 10
31.85061221425966
 20
-44.9116449887722
 30
0.0
 10
31.43235888103064
 20
-44.57093221107962
 30
0.0
 10
30.98450749225392
 20
-44.47412998888151
 30
0.0
 10
30.4656772146059
 20
-44.63259776661936
 30
0.0
 10
30.23725360355188
 20
-44.70216554437992
 30
0.0
 10
29.99334304805709
 20
-44.72975276659523
 30
0.0
 10
29.75426554811711
 20
-44.75180137770082
 30
0.0
 10
28.68764193727257
 20
-44.84927387767629
 30
0.0
 10
27.64102082642307
 20
-44.75317721103371
 30
0.0
 10
26.62248082667766
 20
-44.4038213777879
 30
0.0
 10
26.07920304903571
 20
-44.21709610005675
 30
0.0
 10
25.57190860471806
 20
-43.95872165567727
 30
0.0
 10
25.10804110483424
 20
-43.6224891557611
 30
0.0
 10
24.54387888275285
 20
-43.21390193364108
 30
0.0
 10
24.08516193842313
 20
-42.69715304488147
 30
0.0
 10
23.65350304964207
 20
-42.15556860057232
 30
0.0
 10
23.65350304964207
 20
-42.09150415614393
 30
0.0
 10
23.65350304964207
 20
-42.02810998949291
 30
0.0
 10
23.65350304964207
 20
-41.96471582284188
 30
0.0
 10
24.13617360507692
 20
-41.7728047117788
 30
0.0
 10
24.58815249385293
 20
-41.51340721184419
 30
0.0
 10
25.06150971595687
 20
-41.30392776745192
 30
0.0
 10
25.71831138245922
 20
-41.01316832307983
 30
0.0
 10
26.35154749341205
 20
-40.68314471205137
 30
0.0
 10
26.96717999325817
 20
-40.31555026769902
 30
0.0
 10
27.35061415982907
 20
-40.08677387886723
 30
0.0
 10
27.75884860417133
 20
-39.92280276779721
 30
0.0
 10
28.19777471517274
 20
-39.82391915671069
 30
0.0
 10
28.84579221501082
 20
-39.67801026785833
 30
0.0
 10
29.5210088815086
 20
-39.64548415675534
 30
0.0
 10
30.14129804802034
 20
-39.38675693459777
 30
0.0
 10
31.12540693666323
 20
-38.97661749025598
 30
0.0
 10
32.18441054750934
 20
-38.84894721250984
 30
0.0
 10
33.20090443614418
 20
-38.55751749036072
 30
0.0
 10
33.77332165822319
 20
-38.39301721262405
 30
0.0
 10
34.35173610252318
 20
-38.2503891571041
 30
0.0
 10
34.91191193571662
 20
-38.04538999048857
 30
0.0
 10
35.15444665787821
 20
-37.95634887939993
 30
0.0
 10
35.41006943559193
 20
-37.83612221276334
 30
0.0
 10
35.50034437208854
 20
-37.59510443504568
 30
0.0
 10
35.62984999109239
 20
-37.25096971290964
 30
0.0
 10
35.87929825130951
 20
-36.97622637964498
 30
0.0
 10
36.01123713683236
 20
-36.64856637972668
 30
0.0
 10
36.36920073881105
 20
-35.75783776883846
 30
0.0
 10
36.95759877935533
 20
-34.98599526903113
 30
0.0
 10
37.29661821515067
 20
-34.08697638036711
 30
0.0
 10
37.35997710242313
 20
-33.91972443596467
 30
0.0
 10
37.37789821307704
 20
-33.7784722137776
 30
0.0
 10
37.30279182610428
 20
-33.61587693604046
 30
0.0
 10
36.94038322423898
 20
-32.82830054734844
 30
0.0
 10
36.71023100788842
 20
-31.98632582533671
 30
0.0
 10
36.28753268533902
 20
-31.22153888108365
 30
0.0
 10
36.00675685916888
 20
-30.71424443676599
 30
0.0
 10
35.82899214148181
 20
-30.14941193690725
 30
0.0
 10
35.34942604260545
 20
-29.76975249255757
 30
0.0
 10
35.22126276897237
 20
-29.66899915924937
 30
0.0
 10
35.13723110232679
 20
-29.51963304817571
 30
0.0
 10
35.04695526901599
 20
-29.38081499265482
 30
0.0
 10
34.8044205468544
 20
-29.0075408260814
 30
0.0
 10
34.59839832468374
 20
-28.61532249284624
 30
0.0
 10
34.4185874913955
 20
-28.20895777072566
 30
0.0
 10
34.2573327692134
 20
-27.84446777081651
 30
0.0
 10
34.03342471371396
 20
-27.52615638200729
 30
0.0
 10
33.73127054712288
 20
-27.26277249318443
 30
0.0
 10
33.45945526941286
 20
-27.0257411043547
 30
0.0
 10
33.1886630472583
 20
-26.78698110441433
 30
0.0
 10
32.92390332510222
 20
-26.54084804892041
 30
0.0
 10
32.23369360305279
 20
-25.89886304908083
 30
0.0
 10
31.69193276985477
 20
-25.1648736048198
 30
0.0
 10
31.41426138103546
 20
-24.25191999393709
 30
0.0
 10
31.32744276994595
 20
-23.96701666067495
 30
0.0
 10
31.24305832552261
 20
-23.68073749407992
 30
0.0
 10
31.10335832555763
 20
-23.41527221636833
 30
0.0
 10
30.62104054790022
 20
-22.49889666104185
 30
0.0
 10
30.23968777021773
 20
-21.54251610572563
 30
0.0
 10
29.91841304807602
 20
-20.55671388374962
 30
0.0
 10
29.4316149926422
 20
-19.06255888412331
 30
0.0
 10
28.90848082610633
 20
-17.58050416227152
 30
0.0
 10
28.39758804845602
 20
-16.09428666264323
 30
0.0
 10
28.291472492927
 20
-15.78595888494229
 30
0.0
 10
28.23255860405303
 20
-15.47244527390973
 30
0.0
 10
28.20274888183828
 20
-15.14810138510201
 30
0.0
 10
28.1359327707438
 20
-14.42480110750478
 30
0.0
 10
28.22204582627779
 20
-13.70354694101843
 30
0.0
 10
28.21290888183576
 20
-12.98148138564337
 30
0.0
 10
28.20239610406052
 20
-12.12931138585664
 30
0.0
 10
28.303537492924
 20
-11.2859608305117
 30
0.0
 10
28.45907721510752
 20
-10.45001860849846
 30
0.0
 10
28.6781874928303
 20
-9.272305275459685
 30
0.0
 10
28.98824388164189
 20
-8.113712497971536
 30
0.0
 10
29.19236110381302
 20
-6.932894720488908
 30
0.0
 10
29.26228165935103
 20
-6.528964165034501
 30
0.0
 10
29.43006277042011
 20
-6.181866109565658
 30
0.0
 10
29.67813610369172
 20
-5.854770554091846
 30
0.0
 10
30.00815971472018
 20
-5.419830831978369
 30
0.0
 10
30.40556388128761
 20
-5.0375961098518
 30
0.0
 10
30.70528388121252
 20
-4.583359443298494
 30
0.0
 10
31.07181999223191
 20
-4.027663887882104
 30
0.0
 10
31.53088971433939
 20
-3.559316110221226
 30
0.0
 10
31.98703138089223
 20
-3.083704638118011
 30
0.0
 10
32.48035582521336
 20
-2.570384749357549
 30
0.0
 10
33.04345971396145
 20
-2.134580721688428
 30
0.0
 10
33.55110693605655
 20
-1.637971916257202
 30
0.0
 10
33.64272332492272
 20
-1.548398110723913
 30
0.0
 10
33.75229610267303
 20
-1.491209305182901
 30
0.0
 10
33.87597999153091
 20
-1.572341138495654
 30
0.0
 10
34.01000026927515
 20
-1.661223499584813
 30
0.0
 10
33.98241304705986
 20
-1.789211277330552
 30
0.0
 10
33.93556415818289
 20
-1.913748888410373
 30
0.0
 10
33.86768971375545
 20
-2.095133110587471
 30
0.0
 10
33.74954443600694
 20
-2.24413586054998
 30
0.0
 10
33.62173304715009
 20
-2.385899610514608
 30
0.0
 10
33.48580776940631
 20
-2.536451054921516
 30
0.0
 10
33.34854193610719
 20
-2.685795999328402
 30
0.0
 10
33.21381610280774
 20
-2.837553943735009
 30
0.0
 10
33.18524110281484
 20
-2.869420360393708
 30
0.0
 10
33.14992804726823
 20
-2.906970027051154
 30
0.0
 10
33.17522221392841
 20
-2.955201804816703
 30
0.0
 10
33.19624776947856
 20
-2.996028777028874
 30
0.0
 10
33.2401686028012
 20
-2.991375638140944
 30
0.0
 10
33.27721026945845
 20
-2.986380304808959
 30
0.0
 10
33.86320943597871
 20
-2.910762388161128
 30
0.0
 10
34.45474721360867
 20
-2.947624138152132
 30
0.0
 10
35.04282776901702
 20
-2.902147554830041
 30
0.0
 10
35.17028638009643
 20
-2.891984027054877
 30
0.0
 10
35.30878604364226
 20
-2.877689471502729
 30
0.0
 10
35.37976493072033
 20
-3.013769971468929
 30
0.0
 10
35.45176687332786
 20
-3.152951388100651
 30
0.0
 10
35.37701326412387
 20
-3.271805749182045
 30
0.0
 10
35.2881132663919
 20
-3.377053471378054
 30
0.0
 10
35.1785766578719
 20
-3.509175804678143
 30
0.0
 10
35.03249138013066
 20
-3.582740554660031
 30
0.0
 10
34.8671091579499
 20
-3.618371110206558
 30
0.0
 10
34.77443443575077
 20
-3.638549999090471
 30
0.0
 10
34.67900804688587
 20
-3.64680499908842
 30
0.0
 10
34.5866861024645
 20
-3.667654165749694
 30
0.0
 10
34.35794499141056
 20
-3.718277776848196
 30
0.0
 10
34.12987415813431
 20
-3.773416943500953
 30
0.0
 10
33.88285915819598
 20
-3.831448887931161
 30
0.0
 10
33.96519749150875
 20
-3.926028610129499
 30
0.0
 10
34.03995110260126
 20
-3.90655527680111
 30
0.0
 10
34.1064497136955
 20
-3.909836110133521
 30
0.0
 10
34.22702915810985
 20
-3.915692221243142
 30
0.0
 10
34.34796138030197
 20
-3.909483332356081
 30
0.0
 10
34.46748249138303
 20
-3.919819721242117
 30
0.0
 10
34.57772554691103
 20
-3.929485832351113
 30
0.0
 10
34.68934443577223
 20
-3.956191110122008
 30
0.0
 10
34.71072276910014
 20
-4.090352498977288
 30
0.0
 10
34.73139554687286
 20
-4.221621110055758
 30
0.0
 10
34.65695943578027
 20
-4.307063887812064
 30
0.0
 10
34.54777471358524
 20
-4.363719998909067
 30
0.0
 10
34.43372165805819
 20
-4.422810276671918
 30
0.0
 10
34.30936749142263
 20
-4.450044721109776
 30
0.0
 10
34.18222638034345
 20
-4.459675554440611
 30
0.0
 10
33.99239665816845
 20
-4.474139443325942
 30
0.0
 10
33.80260221377161
 20
-4.487756665544711
 30
0.0
 10
33.61312526937437
 20
-4.493789165543213
 30
0.0
 10
32.85899221400759
 20
-4.516684443315375
 30
0.0
 10
32.22078193638923
 20
-5.018299165411971
 30
0.0
 10
32.02301471421652
 20
-5.740576387453758
 30
0.0
 10
31.88451415869554
 20
-6.243531665105719
 30
0.0
 10
31.6311491587588
 20
-6.671239442776691
 30
0.0
 10
31.13884776999311
 20
-6.89451249827629
 30
0.0
 10
30.84738277006583
 20
-7.026627776021003
 30
0.0
 10
30.71992415898673
 20
-7.248313331521318
 30
0.0
 10
30.67201693677648
 20
-7.537344164782432
 30
0.0
 10
30.64499415900534
 20
-7.699269164741892
 30
0.0
 10
30.62742582567648
 20
-7.864474998033764
 30
0.0
 10
30.62449777012151
 20
-8.028622497992991
 30
0.0
 10
30.604001381238
 20
-9.037355275518363
 30
0.0
 10
30.67924888121899
 20
-10.04315999748909
 30
0.0
 10
30.75403777008934
 20
-11.04843555279349
 30
0.0
 10
30.8515102700648
 20
-12.35600638580001
 30
0.0
 10
30.99533777002908
 20
-13.66135471880676
 30
0.0
 10
30.8790974922801
 20
-14.97601638514475
 30
0.0
 10
30.8182786034066
 20
-15.66227499608441
 30
0.0
 10
31.00997804780297
 20
-16.28961971814978
 30
0.0
 10
31.33502749216622
 20
-16.88870694022216
 30
0.0
 10
32.06675915864996
 20
-18.23748221766275
 30
0.0
 10
32.75509915847802
 20
-19.60827082843142
 30
0.0
 10
33.37023776943534
 20
-21.01454888363526
 30
0.0
 10
33.47169665829875
 20
-21.24554777246648
 30
0.0
 10
33.60208332493281
 20
-21.45245193908123
 30
0.0
 10
33.81360888043533
 20
-21.59663221682294
 30
0.0
 10
34.33208638030591
 20
-21.95025666117909
 30
0.0
 10
34.85472665795298
 20
-22.29753110553681
 30
0.0
 10
35.31291354353696
 20
-22.73176527209477
 30
0.0
 10
35.43659742927041
 20
-22.8490638831767
 30
0.0
 10
35.58024853671668
 20
-22.84581832762181
 30
0.0
 10
35.70703686681537
 20
-22.73229443876141
 30
0.0
 10
35.89721936196342
 20
-22.563313883248
 30
0.0
 10
36.07773574624694
 20
-22.38537277218144
 30
0.0
 10
36.22516157581914
 20
-22.17744555001126
 30
0.0
 10
36.37195240540752
 20
-21.97022388339628
 30
0.0
 10
36.41188684883316
 20
-21.73770805012112
 30
0.0
 10
36.36641379443771
 20
-21.48914082796104
 30
0.0
 10
36.27652601895316
 20
-21.00664666141507
 30
0.0
 10
36.10253602339202
 20
-20.56412221708132
 30
0.0
 10
35.76972547632717
 20
-20.19342332828512
 30
0.0
 10
35.65468464592877
 20
-20.06614110609458
 30
0.0
 10
35.54648770424465
 20
-19.93314388390546
 30
0.0
 10
35.46520770631828
 20
-19.78106138394356
 30
0.0
 10
35.37803631965332
 20
-19.6191363839841
 30
0.0
 10
35.26606554673909
 20
-19.49097221734948
 30
0.0
 10
35.07246110234288
 20
-19.4515316618039
 30
0.0
 10
34.98356110236528
 20
-19.43361055069727
 30
0.0
 10
34.90845471349501
 20
-19.37349721737898
 30
0.0
 10
34.86435749128381
 20
-19.2951099951763
 30
0.0
 10
34.6648969357783
 20
-18.94508388415248
 30
0.0
 10
34.37791221362775
 20
-18.66243832866763
 30
0.0
 10
34.14021054702066
 20
-18.34236305096993
 30
0.0
 10
34.03204888038076
 20
-18.19733610656165
 30
0.0
 10
33.95556665817792
 20
-18.03904471771236
 30
0.0
 10
33.92318165818597
 20
-17.86145638442357
 30
0.0
 10
33.89697026930355
 20
-17.71776999557065
 30
0.0
 10
33.92247610263044
 20
-17.591863606713
 30
0.0
 10
34.06993721370489
 20
-17.52642332895173
 30
0.0
 10
34.20565082478193
 20
-17.46525166230047
 30
0.0
 10
34.21221249144708
 20
-17.36636805121395
 30
0.0
 10
34.1725955470123
 20
-17.24286055124495
 30
0.0
 10
34.05547332481956
 20
-16.87512499578123
 30
0.0
 10
33.93351804707232
 20
-16.50820082920624
 30
0.0
 10
33.82669693598778
 20
-16.13700805152123
 30
0.0
 10
33.57107415827375
 20
-15.24592666285524
 30
0.0
 10
33.74333554711988
 20
-14.45147110749815
 30
0.0
 10
34.41064999139747
 20
-13.79502221877356
 30
0.0
 10
34.61840082467877
 20
-13.59125777437987
 30
0.0
 10
34.82957360240385
 20
-13.39126805220772
 30
0.0
 10
35.03284415790841
 20
-13.18267055225985
 30
0.0
 10
36.30443074046347
 20
-11.87989749702998
 30
0.0
 10
38.36941541000355
 20
-12.11071999697233
 30
0.0
 10
39.25548733184242
 20
-13.66255416325109
 30
0.0
 10
39.6320423222357
 20
-14.32246027419729
 30
0.0
 10
39.77569443450052
 20
-15.05902499623521
 30
0.0
 10
39.87009676060687
 20
-15.80370360716003
 30
0.0
 10
39.89041676008846
 20
-15.96319444045365
 30
0.0
 10
39.92280276779721
 20
-16.08514971820088
 30
0.0
 10
40.09262897715182
 20
-16.13612610707715
 30
0.0
 10
40.2979809163573
 20
-16.19796805150609
 30
0.0
 10
40.37375758109074
 20
-16.36677221813061
 30
0.0
 10
40.40028646930283
 20
-16.55593166252761
 30
0.0
 10
40.47885007840961
 20
-17.13039499571751
 30
0.0
 10
40.32380424903182
 20
-17.67420194002577
 30
0.0
 10
40.15637591996995
 20
-18.21370499544651
 30
0.0
 10
40.13192842059365
 20
-18.29276249542687
 30
0.0
 10
40.07541342203547
 20
-18.36614027318617
 30
0.0
 10
39.99688610111203
 20
-18.39594999540092
 30
0.0
 10
39.79671898470112
 20
-18.47158555093751
 30
0.0
 10
39.78638259607592
 20
-18.61230860645793
 30
0.0
 10
39.82081370630863
 20
-18.79522388419003
 30
0.0
 10
39.95553953620482
 20
-19.51750110623182
 30
0.0
 10
40.11125564334328
 20
-20.23716777271855
 30
0.0
 10
40.15291869783592
 20
-20.97355610586759
 30
0.0
 10
40.1735914750863
 20
-21.3391044391097
 30
0.0
 10
40.37375758109074
 20
-21.58230943904897
 30
0.0
 10
40.66522257365485
 20
-21.77093971677964
 30
0.0
 10
40.77165562649508
 20
-21.84001360565109
 30
0.0
 10
40.8815811792462
 20
-21.86170943897893
 30
0.0
 10
40.97803062123001
 20
-21.7643780501145
 30
0.0
 10
41.23675783685155
 20
-21.5020524946246
 30
0.0
 10
41.49100477480962
 20
-21.23831582802366
 30
0.0
 10
41.5316447737728
 20
-20.84024138367887
 30
0.0
 10
41.59401588329269
 20
-20.21839999494536
 30
0.0
 10
41.78934998955285
 20
-19.64030305064562
 30
0.0
 10
42.13387170285316
 20
-19.11561666188766
 30
0.0
 10
42.22792225600929
 20
-18.97231832859034
 30
0.0
 10
42.31403530936791
 20
-18.82450443973845
 30
0.0
 10
42.41119030688928
 20
-18.68360499532915
 30
0.0
 10
42.84870529572734
 20
-18.04938110659872
 30
0.0
 10
43.10849084465522
 20
-17.35380916232815
 30
0.0
 10
43.17393112076348
 20
-16.58157860696586
 30
0.0
 10
43.24282861900576
 20
-15.78627638494221
 30
0.0
 10
43.31931083927675
 20
-14.99097416291889
 30
0.0
 10
43.46126861343289
 20
-14.20431499644879
 30
0.0
 10
43.60389666534969
 20
-13.41381055220212
 30
0.0
 10
43.47160500205807
 20
-12.66832055238857
 30
0.0
 10
43.11297221144368
 20
-11.95327527478961
 30
0.0
 10
42.94519001548804
 20
-11.61891249709513
 30
0.0
 10
42.78979140834147
 20
-11.27682388606966
 30
0.0
 10
42.69644641072291
 20
-10.91335694171596
 30
0.0
 10
42.50040780461315
 20
-10.15820083079374
 30
0.0
 10
42.24859503325965
 20
-9.41906083097861
 30
0.0
 10
42.05566087151515
 20
-8.664081108944947
 30
0.0
 10
41.77798948971024
 20
-7.579218886994183
 30
0.0
 10
41.35077561172049
 20
-6.548613887251772
 30
0.0
 10
40.95806339951719
 20
-5.504920831957234
 30
0.0
 10
40.81956387868426
 20
-5.136973609826796
 30
0.0
 10
40.72000896114602
 20
-5.069451943177114
 30
0.0
 10
40.40649535803331
 20
-5.11855860983137
 30
0.0
 10
40.15291869783592
 20
-5.157999165377272
 30
0.0
 10
39.91454675947286
 20
-5.114254720943515
 30
0.0
 10
39.67613954333291
 20
-5.046556665404952
 30
0.0
 10
39.48112499012971
 20
-4.990570832085631
 30
0.0
 10
39.28924816431444
 20
-4.922872776547069
 30
0.0
 10
39.09356233597347
 20
-4.870344165449041
 30
0.0
 10
38.67153429118474
 20
-4.757490554366318
 30
0.0
 10
38.24950624639602
 20
-4.704785554379408
 30
0.0
 10
37.82299792394382
 20
-4.867416109894391
 30
0.0
 10
37.67694792766986
 20
-4.923543054324752
 30
0.0
 10
37.51879765392684
 20
-4.955081387650145
 30
0.0
 10
37.35793099136422
 20
-4.955786943205347
 30
0.0
 10
37.18291794027363
 20
-4.956986387649672
 30
0.0
 10
37.02476766653059
 20
-4.926153609879481
 30
0.0
 10
36.95968016819111
 20
-4.734418887705274
 30
0.0
 10
36.90626961399818
 20
-4.576621387744789
 30
0.0
 10
36.97654294553869
 20
-4.417483332228939
 30
0.0
 10
37.15466044099453
 20
-4.300678610035801
 30
0.0
 10
37.35997710242313
 20
-4.16634083229164
 30
0.0
 10
37.59115237430314
 20
-4.100336110085884
 30
0.0
 10
37.83026514598064
 20
-4.059025832318616
 30
0.0
 10
38.06140514008377
 20
-4.018879721217512
 30
0.0
 10
38.29568485632902
 20
-3.998206943444798
 30
0.0
 10
38.51962818394908
 20
-3.922430276797167
 30
0.0
 10
38.77662776808351
 20
-3.835752776818696
 30
0.0
 10
38.8858115079403
 20
-3.680213054635499
 30
0.0
 10
38.84587706451467
 20
-3.460598304690529
 30
0.0
 10
38.80382595447637
 20
-3.229606471414677
 30
0.0
 10
38.64398332367247
 20
-3.109714943667088
 30
0.0
 10
38.37146152106246
 20
-3.126253165885132
 30
0.0
 10
38.02076514112058
 20
-3.14830177699073
 30
0.0
 10
37.68315681640036
 20
-3.228399971414977
 30
0.0
 10
37.36893765775009
 20
-3.393937415818162
 30
0.0
 10
37.24010321659248
 20
-3.461631943579037
 30
0.0
 10
37.11366766426256
 20
-3.539666388003956
 30
0.0
 10
36.96310211254826
 20
-3.547251110224223
 30
0.0
 10
36.82774128266827
 20
-3.554306665778169
 30
0.0
 10
36.71023100788842
 20
-3.516753471343034
 30
0.0
 10
36.64687212061596
 20
-3.383773888042998
 30
0.0
 10
36.58520656663362
 20
-3.255098193630817
 30
0.0
 10
36.63928739858724
 20
-3.14881683254598
 30
0.0
 10
36.72229600758062
 20
-3.053732638125456
 30
0.0
 10
36.81567628297607
 20
-2.946590499263304
 30
0.0
 10
36.94313489083545
 20
-2.885785721500879
 30
0.0
 10
37.06300877666609
 20
-2.814471693740903
 30
0.0
 10
37.33037904762269
 20
-2.656169721558232
 30
0.0
 10
37.59873709633186
 20
-2.500104360486081
 30
0.0
 10
37.86123903407932
 20
-2.333536804972077
 30
0.0
 10
38.03039597420821
 20
-2.225876082776987
 30
0.0
 10
38.02937291867876
 20
-2.110637693916686
 30
0.0
 10
37.86882375610804
 20
-1.98988891616915
 30
0.0
 10
37.73138153739226
 20
-1.885844166195153
 30
0.0
 10
37.57012776838511
 20
-1.824524332877158
 30
0.0
 10
37.41134154555716
 20
-1.760100055115631
 30
0.0
 10
37.29351377078542
 20
-1.712901916238591
 30
0.0
 10
37.1753332182449
 20
-1.665358055139164
 30
0.0
 10
37.07613210966462
 20
-1.583884027381712
 30
0.0
 10
36.91695878039214
 20
-1.453141055192196
 30
0.0
 10
36.92108628028684
 20
-1.315854055226616
 30
0.0
 10
37.08368155391646
 20
-1.179427833038351
 30
0.0
 10
37.25319127181413
 20
-1.101396916391441
 30
0.0
 10
37.33037904762269
 20
-1.144806221935875
 30
0.0
 10
37.46404654421254
 20
-1.179427833038351
 30
0.0
 10
38.0545259735926
 20
-1.260559666351426
 30
0.0
 10
38.57713096025984
 20
-1.458654971857439
 30
0.0
 10
38.94267928426726
 20
-1.969734721729694
 30
0.0
 10
39.05704983690498
 20
-2.129758249467635
 30
0.0
 10
39.2479026098137
 20
-2.190735888341254
 30
0.0
 10
39.44873899357882
 20
-2.190220832785683
 30
0.0
 10
39.60688926732185
 20
-2.189875110563618
 30
0.0
 10
39.75741954125928
 20
-2.226394666109925
 30
0.0
 10
39.87284842720334
 20
-2.332672499416753
 30
0.0
 10
40.28489286113565
 20
-2.712494221544242
 30
0.0
 10
40.78957776758031
 20
-2.940388665931618
 30
0.0
 10
41.26706144718955
 20
-3.214616943640712
 30
0.0
 10
41.70323588050626
 20
-3.465078582466945
 30
0.0
 10
42.10974170346876
 20
-3.751191943506794
 30
0.0
 10
42.38328558537897
 20
-4.195444998951185
 30
0.0
 10
43.08781806740485
 20
-5.340420554220565
 30
0.0
 10
43.77820416090274
 20
-6.493651109487574
 30
0.0
 10
44.35972303495585
 20
-7.706853886962159
 30
0.0
 10
44.92646052049717
 20
-8.889717775555356
 30
0.0
 10
45.49111661720271
 20
-10.07413388637032
 30
0.0
 10
46.02233054405009
 20
-11.27407221940357
 30
0.0
 10
46.20252826571975
 20
-11.68128360819071
 30
0.0
 10
46.33238576240681
 20
-12.09004721919962
 30
0.0
 10
46.19977776622753
 20
-12.54273166353084
 30
0.0
 10
46.16876743324772
 20
-12.64902360794874
 30
0.0
 10
46.17910382187291
 20
-12.76977944125197
 30
0.0
 10
46.18012687740237
 20
-12.88309166344598
 30
0.0
 10
46.19871943289488
 20
-14.29127471864934
 30
0.0
 10
46.15568054401633
 20
-15.6977644405199
 30
0.0
 10
46.07023660242812
 20
-17.10231388461341
 30
0.0
 10
46.02543382579336
 20
-17.82321527332199
 30
0.0
 10
45.98408827129261
 20
-18.54408138425273
 30
0.0
 10
45.85902855226093
 20
-19.25757443962992
 30
0.0
 10
45.67473744585148
 20
-20.30797027270065
 30
0.0
 10
45.37395912019164
 20
-21.33116693911167
 30
0.0
 10
45.14281912608851
 20
-22.37037971662947
 30
0.0
 10
44.9643499887591
 20
-23.17136166087386
 30
0.0
 10
44.81413607891836
 20
-23.97199082734049
 30
0.0
 10
44.89922607674753
 20
-24.79780832713377
 30
0.0
 10
44.93577498876621
 20
-25.15280860482279
 30
0.0
 10
44.91510107634253
 20
-25.50802054917855
 30
0.0
 10
44.88613802152588
 20
-25.86093943797917
 30
0.0
 10
44.85996191108258
 20
-26.19082193789659
 30
0.0
 10
44.89612163238229
 20
-26.50708721559556
 30
0.0
 10
45.03187051780794
 20
-26.80888860440889
 30
0.0
 10
45.33229721088922
 20
-27.47944860424137
 30
0.0
 10
45.36362273156646
 20
-28.18881415961959
 30
0.0
 10
45.29680662215996
 20
-28.9000494372195
 30
0.0
 10
45.18793940271518
 20
-30.06068832581821
 30
0.0
 10
45.02534412908555
 20
-31.21568276997371
 30
0.0
 10
44.91199663197729
 20
-32.37632165857274
 30
0.0
 10
44.7993194126297
 20
-33.53061054717304
 30
0.0
 10
44.74178135854206
 20
-34.67505693577578
 30
0.0
 10
45.04771023962606
 20
-35.81315332438009
 30
0.0
 10
45.17449856972475
 20
-36.28358249092906
 30
0.0
 10
45.21171662433079
 20
-36.77450804636185
 30
0.0
 10
45.33744662112315
 20
-37.24715971291059
 30
0.0
 10
45.39498467521079
 20
-37.46281276841208
 30
0.0
 10
45.51454106104954
 20
-37.58702582393661
 30
0.0
 10
45.73950744419906
 20
-37.61683554615135
 30
0.0
 10
45.84562299704739
 20
-37.63112304614781
 30
0.0
 10
45.94859998851271
 20
-37.66763554613873
 30
0.0
 10
46.05093965847598
 20
-37.69949137946405
 30
0.0
 10
46.8677613043038
 20
-37.95529054606664
 30
0.0
 10
47.6966479498238
 20
-38.16459360157003
 30
0.0
 10
48.53311931737253
 20
-38.34338137930315
 30
0.0
 10
48.8355909763225
 20
-38.40797499039786
 30
0.0
 10
49.15048041273344
 20
-38.39679193484526
 30
0.0
 10
49.44953012732628
 20
-38.49740415704242
 30
0.0
 10
50.06205816725494
 20
-38.70427304587965
 30
0.0
 10
50.68492259580879
 20
-38.87946249028011
 30
0.0
 10
51.31262007979489
 20
-39.03464943468587
 30
0.0
 10
51.85074728828834
 20
-39.16814054576346
 30
0.0
 10
52.33927394249166
 20
-39.39106082348562
 30
0.0
 10
52.77439004250203
 20
-39.73434887895542
 30
0.0
 10
53.58189835523411
 20
-40.37135971212945
 30
0.0
 10
54.30537500344335
 20
-41.10273860083512
 30
0.0
 10
55.08053359477852
 20
-41.77590915622297
 30
0.0
 10
55.60867719241556
 20
-42.23413221166389
 30
0.0
 10
56.04379329242594
 20
-42.76605054486403
 30
0.0
 10
56.25874078694217
 20
-43.44885193358208
 30
0.0
 10
56.25874078694217
 20
-43.60114610021103
 30
0.0
 10
56.25874078694217
 20
-43.75340498906181
 30
0.0
 10
56.25874078694217
 20
-43.90566387791259
 30
0.0
 10
56.15058054151773
 20
-44.50168193331929
 30
0.0
 10
55.79123968775801
 20
-44.91714832210373
 30
0.0
 10
55.29826943061995
 20
-45.23718832202424
 30
0.0
 10
55.00782609663344
 20
-45.42634776642092
 30
0.0
 10
54.7652913805988
 20
-45.66232082191768
 30
0.0
 10
54.58167055195002
 20
-45.95999471073235
 30
0.0
 10
54.32467194739549
 20
-46.37754248840584
 30
0.0
 10
53.94984556806921
 20
-46.65313248833675
 30
0.0
 10
53.51712835688653
 20
-46.8774285993918
 30
0.0
 10
52.60696171344015
 20
-47.34870443260732
 30
0.0
 10
51.64024479365871
 20
-47.67805776585842
 30
0.0
 10
50.68873259571158
 20
-48.04392359910013
 30
0.0
 10
49.59078234594485
 20
-48.4663044323278
 30
0.0
 10
48.50383876256398
 20
-48.92724387665697
 30
0.0
 10
47.30252462654539
 20
-49.00235026552725
 30
0.0
 10
46.46538298123599
 20
-49.05438498773615
 30
0.0
 10
45.62718300262025
 20
-49.19320304325705
 30
0.0
 10
44.89336996578582
 20
-48.61754026562347
 30
0.0
 10
44.76866302452292
 20
-48.51900943231471
 30
0.0
 10
44.66738052710685
 20
-48.5706913767465
 30
0.0
 10
44.61396997291391
 20
-48.71363693226605
 30
0.0
 10
44.56539247415323
 20
-48.84388248778875
 30
0.0
 10
44.51374580880418
 20
-48.97409276553395
 30
0.0
 10
44.47582219866058
 20
-49.10776026550106
 30
0.0
 10
44.28705081458765
 20
-49.79197276532951
 30
0.0
 10
44.10928609690058
 20
-50.47890165404685
 30
0.0
 10
43.91395304632839
 20
-51.16103276498754
 30
0.0
 10
43.68207221891083
 20
-51.97340943145092
 30
0.0
 10
43.32241528364199
 20
-52.73819637570431
 30
0.0
 10
43.00410390287391
 20
-53.5185408199535
 30
0.0
 10
42.62444446811539
 20
-54.44765165305466
 30
0.0
 10
42.45045554494306
 20
-55.44329637502791
 30
0.0
 10
42.0890689262184
 20
-56.37794581923878
 30
0.0
 10
41.83309443398629
 20
-57.03905137462898
 30
0.0
 10
41.64361643758284
 20
-57.72601554112384
 30
0.0
 10
41.30738394616084
 20
-58.35579442985538
 30
0.0
 10
41.21298061523594
 20
-58.53080748536729
 30
0.0
 10
41.1774911716969
 20
-58.72268331865286
 30
0.0
 10
41.15889978328232
 20
-58.92147359638101
 30
0.0
 10
41.12341033974329
 20
-59.2887152629556
 30
0.0
 10
41.15304367232061
 20
-59.65560415175307
 30
0.0
 10
41.15166783902238
 20
-60.02252831832743
 30
0.0
 10
41.15064478349292
 20
-60.76526665147521
 30
0.0
 10
41.19438922682135
 20
-61.50493581795698
 30
0.0
 10
41.2539733919679
 20
-62.24393470666138
 30
0.0
 10
41.35769005598853
 20
-63.54201581744779
 30
0.0
 10
41.34114477863286
 20
-64.83875637267948
 30
0.0
 10
41.25707783633315
 20
-66.13687276124341
 30
0.0
 10
41.19057922691855
 20
-67.16179803876507
 30
0.0
 10
41.16129867211001
 20
-68.1873935940641
 30
0.0
 10
41.16888339413872
 20
-69.21471776047379
 30
0.0
 10
41.17061200520574
 20
-69.43728526041818
 30
0.0
 10
41.20264422661075
 20
-69.65431414925288
 30
0.0
 10
41.36492200024848
 20
-69.83416026031897
 30
0.0
 10
41.45103610074828
 20
-69.92993942696195
 30
0.0
 10
41.45932533117338
 20
-70.06117276026225
 30
0.0
 10
41.41797977667264
 20
-70.17727192690019
 30
0.0
 10
41.32597533457542
 20
-70.43289470461391
 30
0.0
 10
41.38488922196129
 20
-70.67613498233102
 30
0.0
 10
41.44793060924187
 20
-70.92314998226902
 30
0.0
 10
41.59951921648562
 20
-71.5091491487896
 30
0.0
 10
41.70771615816974
 20
-72.10170998197437
 30
0.0
 10
41.91924170832883
 20
-72.67705525960835
 30
0.0
 10
42.14763003583548
 20
-73.29508664834312
 30
0.0
 10
42.11284721169401
 20
-73.96208359262079
 30
0.0
 10
42.01844281690911
 20
-74.61458137023529
 30
0.0
 10
41.96125754059025
 20
-75.01008053680319
 30
0.0
 10
41.90580087533839
 20
-75.40212248114979
 30
0.0
 10
41.95264976303207
 20
-75.805876647715
 30
0.0
 10
42.05703670481338
 20
-76.7057422030459
 30
0.0
 10
41.94749920760792
 20
-77.58768664726985
 30
0.0
 10
41.68908949197827
 20
-78.45379136927528
 30
0.0
 10
41.59024116116677
 20
-78.78864803585856
 30
0.0
 10
41.40178727708575
 20
-79.02980692468726
 30
0.0
 10
41.0407192307418
 20
-79.0979988691143
 30
0.0
  0
HATCH
  5
42
330
1F
100
AcDbEntity
  8
Layer 1
 62
     7
100
AcDbHatch
 10
0.0
 20
0.0
 30
0.0
210
0.0
220
0.0
230
1.0
  2
SOLID
 70
     1
 71
     0
 91
        1
 92
        1
 93
        1
 72
     4
 94
        3
 73
     0
 74
     1
 95
      593
 96
      589
 40
0.0
 40
0.0
 40
0.0
 40
0.0
 40
1.0
 40
1.0
 40
1.0
 40
2.0
 40
2.0
 40
2.0
 40
3.0
 40
3.0
 40
3.0
 40
4.0
 40
4.0
 40
4.0
 40
5.0
 40
5.0
 40
5.0
 40
6.0
 40
6.0
 40
6.0
 40
7.0
 40
7.0
 40
7.0
 40
8.0
 40
8.0
 40
8.0
 40
9.0
 40
9.0
 40
9.0
 40
10.0
 40
10.0
 40
10.0
 40
11.0
 40
11.0
 40
11.0
 40
12.0
 40
12.0
 40
12.0
 40
13.0
 40
13.0
 40
13.0
 40
14.0
 40
14.0
 40
14.0
 40
15.0
 40
15.0
 40
15.0
 40
16.0
 40
16.0
 40
16.0
 40
17.0
 40
17.0
 40
17.0
 40
18.0
 40
18.0
 40
18.0
 40
19.0
 40
19.0
 40
19.0
 40
20.0
 40
20.0
 40
20.0
 40
21.0
 40
21.0
 40
21.0
 40
22.0
 40
22.0
 40
22.0
 40
23.0
 40
23.0
 40
23.0
 40
24.0
 40
24.0
 40
24.0
 40
25.0
 40
25.0
 40
25.0
 40
26.0
 40
26.0
 40
26.0
 40
27.0
 40
27.0
 40
27.0
 40
28.0
 40
28.0
 40
28.0
 40
29.0
 40
29.0
 40
29.0
 40
30.0
 40
30.0
 40
30.0
 40
31.0
 40
31.0
 40
31.0
 40
32.0
 40
32.0
 40
32.0
 40
33.0
 40
33.0
 40
33.0
 40
34.0
 40
34.0
 40
34.0
 40
35.0
 40
35.0
 40
35.0
 40
36.0
 40
36.0
 40
36.0
 40
37.0
 40
37.0
 40
37.0
 40
38.0
 40
38.0
 40
38.0
 40
39.0
 40
39.0
 40
39.0
 40
40.0
 40
40.0
 40
40.0
 40
41.0
 40
41.0
 40
41.0
 40
42.0
 40
42.0
 40
42.0
 40
43.0
 40
43.0
 40
43.0
 40
44.0
 40
44.0
 40
44.0
 40
45.0
 40
45.0
 40
45.0
 40
46.0
 40
46.0
 40
46.0
 40
47.0
 40
47.0
 40
47.0
 40
48.0
 40
48.0
 40
48.0
 40
49.0
 40
49.0
 40
49.0
 40
50.0
 40
50.0
 40
50.0
 40
51.0
 40
51.0
 40
51.0
 40
52.0
 40
52.0
 40
52.0
 40
53.0
 40
53.0
 40
53.0
 40
54.0
 40
54.0
 40
54.0
 40
55.0
 40
55.0
 40
55.0
 40
56.0
 40
56.0
 40
56.0
 40
57.0
 40
57.0
 40
57.0
 40
58.0
 40
58.0
 40
58.0
 40
59.0
 40
59.0
 40
59.0
 40
60.0
 40
60.0
 40
60.0
 40
61.0
 40
61.0
 40
61.0
 40
62.0
 40
62.0
 40
62.0
 40
63.0
 40
63.0
 40
63.0
 40
64.0
 40
64.0
 40
64.0
 40
65.0
 40
65.0
 40
65.0
 40
66.0
 40
66.0
 40
66.0
 40
67.0
 40
67.0
 40
67.0
 40
68.0
 40
68.0
 40
68.0
 40
69.0
 40
69.0
 40
69.0
 40
70.0
 40
70.0
 40
70.0
 40
71.0
 40
71.0
 40
71.0
 40
72.0
 40
72.0
 40
72.0
 40
73.0
 40
73.0
 40
73.0
 40
74.0
 40
74.0
 40
74.0
 40
75.0
 40
75.0
 40
75.0
 40
76.0
 40
76.0
 40
76.0
 40
77.0
 40
77.0
 40
77.0
 40
78.0
 40
78.0
 40
78.0
 40
79.0
 40
79.0
 40
79.0
 40
80.0
 40
80.0
 40
80.0
 40
81.0
 40
81.0
 40
81.0
 40
82.0
 40
82.0
 40
82.0
 40
83.0
 40
83.0
 40
83.0
 40
84.0
 40
84.0
 40
84.0
 40
85.0
 40
85.0
 40
85.0
 40
86.0
 40
86.0
 40
86.0
 40
87.0
 40
87.0
 40
87.0
 40
88.0
 40
88.0
 40
88.0
 40
89.0
 40
89.0
 40
89.0
 40
90.0
 40
90.0
 40
90.0
 40
91.0
 40
91.0
 40
91.0
 40
92.0
 40
92.0
 40
92.0
 40
93.0
 40
93.0
 40
93.0
 40
94.0
 40
94.0
 40
94.0
 40
95.0
 40
95.0
 40
95.0
 40
96.0
 40
96.0
 40
96.0
 40
97.0
 40
97.0
 40
97.0
 40
98.0
 40
98.0
 40
98.0
 40
99.0
 40
99.0
 40
99.0
 40
100.0
 40
100.0
 40
100.0
 40
101.0
 40
101.0
 40
101.0
 40
102.0
 40
102.0
 40
102.0
 40
103.0
 40
103.0
 40
103.0
 40
104.0
 40
104.0
 40
104.0
 40
105.0
 40
105.0
 40
105.0
 40
106.0
 40
106.0
 40
106.0
 40
107.0
 40
107.0
 40
107.0
 40
108.0
 40
108.0
 40
108.0
 40
109.0
 40
109.0
 40
109.0
 40
110.0
 40
110.0
 40
110.0
 40
111.0
 40
111.0
 40
111.0
 40
112.0
 40
112.0
 40
112.0
 40
113.0
 40
113.0
 40
113.0
 40
114.0
 40
114.0
 40
114.0
 40
115.0
 40
115.0
 40
115.0
 40
116.0
 40
116.0
 40
116.0
 40
117.0
 40
117.0
 40
117.0
 40
118.0
 40
118.0
 40
118.0
 40
119.0
 40
119.0
 40
119.0
 40
120.0
 40
120.0
 40
120.0
 40
121.0
 40
121.0
 40
121.0
 40
122.0
 40
122.0
 40
122.0
 40
123.0
 40
123.0
 40
123.0
 40
124.0
 40
124.0
 40
124.0
 40
125.0
 40
125.0
 40
125.0
 40
126.0
 40
126.0
 40
126.0
 40
127.0
 40
127.0
 40
127.0
 40
128.0
 40
128.0
 40
128.0
 40
129.0
 40
129.0
 40
129.0
 40
130.0
 40
130.0
 40
130.0
 40
131.0
 40
131.0
 40
131.0
 40
132.0
 40
132.0
 40
132.0
 40
133.0
 40
133.0
 40
133.0
 40
134.0
 40
134.0
 40
134.0
 40
135.0
 40
135.0
 40
135.0
 40
136.0
 40
136.0
 40
136.0
 40
137.0
 40
137.0
 40
137.0
 40
138.0
 40
138.0
 40
138.0
 40
139.0
 40
139.0
 40
139.0
 40
140.0
 40
140.0
 40
140.0
 40
141.0
 40
141.0
 40
141.0
 40
142.0
 40
142.0
 40
142.0
 40
143.0
 40
143.0
 40
143.0
 40
144.0
 40
144.0
 40
144.0
 40
145.0
 40
145.0
 40
145.0
 40
146.0
 40
146.0
 40
146.0
 40
147.0
 40
147.0
 40
147.0
 40
148.0
 40
148.0
 40
148.0
 40
149.0
 40
149.0
 40
149.0
 40
150.0
 40
150.0
 40
150.0
 40
151.0
 40
151.0
 40
151.0
 40
152.0
 40
152.0
 40
152.0
 40
153.0
 40
153.0
 40
153.0
 40
154.0
 40
154.0
 40
154.0
 40
155.0
 40
155.0
 40
155.0
 40
156.0
 40
156.0
 40
156.0
 40
157.0
 40
157.0
 40
157.0
 40
158.0
 40
158.0
 40
158.0
 40
159.0
 40
159.0
 40
159.0
 40
160.0
 40
160.0
 40
160.0
 40
161.0
 40
161.0
 40
161.0
 40
162.0
 40
162.0
 40
162.0
 40
163.0
 40
163.0
 40
163.0
 40
164.0
 40
164.0
 40
164.0
 40
165.0
 40
165.0
 40
165.0
 40
166.0
 40
166.0
 40
166.0
 40
167.0
 40
167.0
 40
167.0
 40
168.0
 40
168.0
 40
168.0
 40
169.0
 40
169.0
 40
169.0
 40
170.0
 40
170.0
 40
170.0
 40
171.0
 40
171.0
 40
171.0
 40
172.0
 40
172.0
 40
172.0
 40
173.0
 40
173.0
 40
173.0
 40
174.0
 40
174.0
 40
174.0
 40
175.0
 40
175.0
 40
175.0
 40
176.0
 40
176.0
 40
176.0
 40
177.0
 40
177.0
 40
177.0
 40
178.0
 40
178.0
 40
178.0
 40
179.0
 40
179.0
 40
179.0
 40
180.0
 40
180.0
 40
180.0
 40
181.0
 40
181.0
 40
181.0
 40
182.0
 40
182.0
 40
182.0
 40
183.0
 40
183.0
 40
183.0
 40
184.0
 40
184.0
 40
184.0
 40
185.0
 40
185.0
 40
185.0
 40
186.0
 40
186.0
 40
186.0
 40
187.0
 40
187.0
 40
187.0
 40
188.0
 40
188.0
 40
188.0
 40
189.0
 40
189.0
 40
189.0
 40
190.0
 40
190.0
 40
190.0
 40
191.0
 40
191.0
 40
191.0
 40
192.0
 40
192.0
 40
192.0
 40
193.0
 40
193.0
 40
193.0
 40
194.0
 40
194.0
 40
194.0
 40
195.0
 40
195.0
 40
195.0
 40
196.0
 40
196.0
 40
196.0
 40
196.0
 10
41.0407192307418
 20
-79.0979988691143
 10
40.72378368327195
 20
-79.0979988691143
 10
40.40649535803331
 20
-79.0979988691143
 10
40.08952453278658
 20
-79.0979988691143
 10
39.77534165672276
 20
-79.03770914690745
 10
39.59344843433142
 20
-78.84135303584546
 10
39.5093814920317
 20
-78.53990442480927
 10
39.48355815935718
 20
-78.44895831372109
 10
39.4408367715582
 20
-78.36249248040934
 10
39.40326593918338
 20
-78.27496831376432
 10
39.26342483163992
 20
-77.94596775829098
 10
39.25513455407364
 20
-77.94219303607008
 10
38.91064706286225
 20
-78.02901164715959
 10
38.35907902137836
 20
-78.16782970268049
 10
38.04348402942986
 20
-77.96872192495209
 10
37.93292347669495
 20
-77.41196803620242
 10
37.92152875476342
 20
-77.35615859177199
 10
37.91225069944457
 20
-77.29967886956418
 10
37.90844165718968
 20
-77.24284636957798
 10
37.86607208951158
 20
-76.58516275863154
 10
37.77064570305721
 20
-75.93266498101704
 10
37.67899403872877
 20
-75.2801672034019
 10
37.5797929301485
 20
-74.57528192580075
 10
37.47163126624127
 20
-73.87526498153127
 10
37.04096110185073
 20
-73.271662203904
 10
36.90041350303647
 20
-73.07424775950938
 10
36.75055350685972
 20
-72.926469148435
 10
36.50149240210268
 20
-72.89821164844234
 10
36.31614296238689
 20
-72.87753887066962
 10
36.17005768833607
 20
-72.78348831513729
 10
36.04912546919908
 20
-72.64223609295087
 10
35.91305908378153
 20
-72.48309803743501
 10
35.77663992059521
 20
-72.32082025969747
 10
35.6904915894597
 20
-72.12996748196767
 10
35.48379999112899
 20
-71.67382581541516
 10
35.32981159866141
 20
-71.20600720442091
 10
35.48034187259884
 20
-70.69680776010374
 10
35.54271388000328
 20
-70.48595248237858
 10
35.6643154790164
 20
-70.36815998240816
 10
35.89926547302233
 20
-70.31612526019862
 10
36.29547018513652
 20
-70.22965942688687
 10
36.65339850933834
 20
-70.06840470470509
 10
36.78431433933174
 20
-69.61469720481874
 10
36.85183600427578
 20
-69.3818285937655
 10
36.91833461369037
 20
-69.15269942715629
 10
36.92316766912263
 20
-68.9101647049947
 10
36.94659211296946
 20
-67.88802637191695
 10
36.8594207263045
 20
-66.87033303883811
 10
36.78981767252467
 20
-65.85232220575902
 10
36.72885767407989
 20
-64.9620874837596
 10
36.71506406332068
 20
-64.06500887287262
 10
36.53592351233538
 20
-63.1861688730922
 10
36.33198268420501
 20
-62.1801877622326
 10
36.41604962650473
 20
-61.19177498470218
 10
36.70130573033835
 20
-60.21613276272365
 10
36.88044721300199
 20
-59.60222887398817
 10
37.09437072031043
 20
-58.99795581858416
 10
37.27594543790029
 20
-58.38401665207052
 10
37.40823710119192
 20
-57.936870818849
 10
37.59563265196662
 20
-57.49794470784791
 10
37.55703876406234
 20
-57.01425109685761
 10
37.49089293241653
 20
-56.19227887484092
 10
37.36276404679648
 20
-55.37785609726664
 10
37.205319328591
 20
-54.5692894308023
 10
36.95692850159465
 20
-53.29286887556557
 10
36.6117354548457
 20
-52.03955526476772
 10
36.26721268585743
 20
-50.78655915397012
 10
35.92201963910848
 20
-49.53289276539451
 10
35.65673075698768
 20
-48.26063498793459
 10
35.37080437539338
 20
-46.99352776602909
 10
35.30945632140294
 20
-46.72273554387484
 10
35.17995249120511
 20
-46.57079415502366
 10
34.90295138016315
 20
-46.5260266550351
 10
34.62665582467672
 20
-46.4819294328239
 10
34.36828138029692
 20
-46.37235665507327
 10
34.10920138036159
 20
-46.26761693287745
 10
33.28408943612352
 20
-45.93484165518322
 10
32.53718832519892
 20
-45.47182082196564
 10
31.85061221425966
 20
-44.9116449887722
 10
31.43235888103064
 20
-44.57093221107962
 10
30.98450749225392
 20
-44.47412998888151
 10
30.4656772146059
 20
-44.63259776661936
 10
30.23725360355188
 20
-44.70216554437992
 10
29.99334304805709
 20
-44.72975276659523
 10
29.75426554811711
 20
-44.75180137770082
 10
28.68764193727257
 20
-44.84927387767629
 10
27.64102082642307
 20
-44.75317721103371
 10
26.62248082667766
 20
-44.4038213777879
 10
26.07920304903571
 20
-44.21709610005675
 10
25.57190860471806
 20
-43.95872165567727
 10
25.10804110483424
 20
-43.6224891557611
 10
24.54387888275285
 20
-43.21390193364108
 10
24.08516193842313
 20
-42.69715304488147
 10
23.65350304964207
 20
-42.15556860057232
 10
23.65350304964207
 20
-42.09150415614393
 10
23.65350304964207
 20
-42.02810998949291
 10
23.65350304964207
 20
-41.96471582284188
 10
24.13617360507692
 20
-41.7728047117788
 10
24.58815249385293
 20
-41.51340721184419
 10
25.06150971595687
 20
-41.30392776745192
 10
25.71831138245922
 20
-41.01316832307983
 10
26.35154749341205
 20
-40.68314471205137
 10
26.96717999325817
 20
-40.31555026769902
 10
27.35061415982907
 20
-40.08677387886723
 10
27.75884860417133
 20
-39.92280276779721
 10
28.19777471517274
 20
-39.82391915671069
 10
28.84579221501082
 20
-39.67801026785833
 10
29.5210088815086
 20
-39.64548415675534
 10
30.14129804802034
 20
-39.38675693459777
 10
31.12540693666323
 20
-38.97661749025598
 10
32.18441054750934
 20
-38.84894721250984
 10
33.20090443614418
 20
-38.55751749036072
 10
33.77332165822319
 20
-38.39301721262405
 10
34.35173610252318
 20
-38.2503891571041
 10
34.91191193571662
 20
-38.04538999048857
 10
35.15444665787821
 20
-37.95634887939993
 10
35.41006943559193
 20
-37.83612221276334
 10
35.50034437208854
 20
-37.59510443504568
 10
35.62984999109239
 20
-37.25096971290964
 10
35.87929825130951
 20
-36.97622637964498
 10
36.01123713683236
 20
-36.64856637972668
 10
36.36920073881105
 20
-35.75783776883846
 10
36.95759877935533
 20
-34.98599526903113
 10
37.29661821515067
 20
-34.08697638036711
 10
37.35997710242313
 20
-33.91972443596467
 10
37.37789821307704
 20
-33.7784722137776
 10
37.30279182610428
 20
-33.61587693604046
 10
36.94038322423898
 20
-32.82830054734844
 10
36.71023100788842
 20
-31.98632582533671
 10
36.28753268533902
 20
-31.22153888108365
 10
36.00675685916888
 20
-30.71424443676599
 10
35.82899214148181
 20
-30.14941193690725
 10
35.34942604260545
 20
-29.76975249255757
 10
35.22126276897237
 20
-29.66899915924937
 10
35.13723110232679
 20
-29.51963304817571
 10
35.04695526901599
 20
-29.38081499265482
 10
34.8044205468544
 20
-29.0075408260814
 10
34.59839832468374
 20
-28.61532249284624
 10
34.4185874913955
 20
-28.20895777072566
 10
34.2573327692134
 20
-27.84446777081651
 10
34.03342471371396
 20
-27.52615638200729
 10
33.73127054712288
 20
-27.26277249318443
 10
33.45945526941286
 20
-27.0257411043547
 10
33.1886630472583
 20
-26.78698110441433
 10
32.92390332510222
 20
-26.54084804892041
 10
32.23369360305279
 20
-25.89886304908083
 10
31.69193276985477
 20
-25.1648736048198
 10
31.41426138103546
 20
-24.25191999393709
 10
31.32744276994595
 20
-23.96701666067495
 10
31.24305832552261
 20
-23.68073749407992
 10
31.10335832555763
 20
-23.41527221636833
 10
30.62104054790022
 20
-22.49889666104185
 10
30.23968777021773
 20
-21.54251610572563
 10
29.91841304807602
 20
-20.55671388374962
 10
29.4316149926422
 20
-19.06255888412331
 10
28.90848082610633
 20
-17.58050416227152
 10
28.39758804845602
 20
-16.09428666264323
 10
28.291472492927
 20
-15.78595888494229
 10
28.23255860405303
 20
-15.47244527390973
 10
28.20274888183828
 20
-15.14810138510201
 10
28.1359327707438
 20
-14.42480110750478
 10
28.22204582627779
 20
-13.70354694101843
 10
28.21290888183576
 20
-12.98148138564337
 10
28.20239610406052
 20
-12.12931138585664
 10
28.303537492924
 20
-11.2859608305117
 10
28.45907721510752
 20
-10.45001860849846
 10
28.6781874928303
 20
-9.272305275459685
 10
28.98824388164189
 20
-8.113712497971536
 10
29.19236110381302
 20
-6.932894720488908
 10
29.26228165935103
 20
-6.528964165034501
 10
29.43006277042011
 20
-6.181866109565658
 10
29.67813610369172
 20
-5.854770554091846
 10
30.00815971472018
 20
-5.419830831978369
 10
30.40556388128761
 20
-5.0375961098518
 10
30.70528388121252
 20
-4.583359443298494
 10
31.07181999223191
 20
-4.027663887882104
 10
31.53088971433939
 20
-3.559316110221226
 10
31.98703138089223
 20
-3.083704638118011
 10
32.48035582521336
 20
-2.570384749357549
 10
33.04345971396145
 20
-2.134580721688428
 10
33.55110693605655
 20
-1.637971916257202
 10
33.64272332492272
 20
-1.548398110723913
 10
33.75229610267303
 20
-1.491209305182901
 10
33.87597999153091
 20
-1.572341138495654
 10
34.01000026927515
 20
-1.661223499584813
 10
33.98241304705986
 20
-1.789211277330552
 10
33.93556415818289
 20
-1.913748888410373
 10
33.86768971375545
 20
-2.095133110587471
 10
33.74954443600694
 20
-2.24413586054998
 10
33.62173304715009
 20
-2.385899610514608
 10
33.48580776940631
 20
-2.536451054921516
 10
33.34854193610719
 20
-2.685795999328402
 10
33.21381610280774
 20
-2.837553943735009
 10
33.18524110281484
 20
-2.869420360393708
 10
33.14992804726823
 20
-2.906970027051154
 10
33.17522221392841
 20
-2.955201804816703
 10
33.19624776947856
 20
-2.996028777028874
 10
33.2401686028012
 20
-2.991375638140944
 10
33.27721026945845
 20
-2.986380304808959
 10
33.86320943597871
 20
-2.910762388161128
 10
34.45474721360867
 20
-2.947624138152132
 10
35.04282776901702
 20
-2.902147554830041
 10
35.17028638009643
 20
-2.891984027054877
 10
35.30878604364226
 20
-2.877689471502729
 10
35.37976493072033
 20
-3.013769971468929
 10
35.45176687332786
 20
-3.152951388100651
 10
35.37701326412387
 20
-3.271805749182045
 10
35.2881132663919
 20
-3.377053471378054
 10
35.1785766578719
 20
-3.509175804678143
 10
35.03249138013066
 20
-3.582740554660031
 10
34.8671091579499
 20
-3.618371110206558
 10
34.77443443575077
 20
-3.638549999090471
 10
34.67900804688587
 20
-3.64680499908842
 10
34.5866861024645
 20
-3.667654165749694
 10
34.35794499141056
 20
-3.718277776848196
 10
34.12987415813431
 20
-3.773416943500953
 10
33.88285915819598
 20
-3.831448887931161
 10
33.96519749150875
 20
-3.926028610129499
 10
34.03995110260126
 20
-3.90655527680111
 10
34.1064497136955
 20
-3.909836110133521
 10
34.22702915810985
 20
-3.915692221243142
 10
34.34796138030197
 20
-3.909483332356081
 10
34.46748249138303
 20
-3.919819721242117
 10
34.57772554691103
 20
-3.929485832351113
 10
34.68934443577223
 20
-3.956191110122008
 10
34.71072276910014
 20
-4.090352498977288
 10
34.73139554687286
 20
-4.221621110055758
 10
34.65695943578027
 20
-4.307063887812064
 10
34.54777471358524
 20
-4.363719998909067
 10
34.43372165805819
 20
-4.422810276671918
 10
34.30936749142263
 20
-4.450044721109776
 10
34.18222638034345
 20
-4.459675554440611
 10
33.99239665816845
 20
-4.474139443325942
 10
33.80260221377161
 20
-4.487756665544711
 10
33.61312526937437
 20
-4.493789165543213
 10
32.85899221400759
 20
-4.516684443315375
 10
32.22078193638923
 20
-5.018299165411971
 10
32.02301471421652
 20
-5.740576387453758
 10
31.88451415869554
 20
-6.243531665105719
 10
31.6311491587588
 20
-6.671239442776691
 10
31.13884776999311
 20
-6.89451249827629
 10
30.84738277006583
 20
-7.026627776021003
 10
30.71992415898673
 20
-7.248313331521318
 10
30.67201693677648
 20
-7.537344164782432
 10
30.64499415900534
 20
-7.699269164741892
 10
30.62742582567648
 20
-7.864474998033764
 10
30.62449777012151
 20
-8.028622497992991
 10
30.604001381238
 20
-9.037355275518363
 10
30.67924888121899
 20
-10.04315999748909
 10
30.75403777008934
 20
-11.04843555279349
 10
30.8515102700648
 20
-12.35600638580001
 10
30.99533777002908
 20
-13.66135471880676
 10
30.8790974922801
 20
-14.97601638514475
 10
30.8182786034066
 20
-15.66227499608441
 10
31.00997804780297
 20
-16.28961971814978
 10
31.33502749216622
 20
-16.88870694022216
 10
32.06675915864996
 20
-18.23748221766275
 10
32.75509915847802
 20
-19.60827082843142
 10
33.37023776943534
 20
-21.01454888363526
 10
33.47169665829875
 20
-21.24554777246648
 10
33.60208332493281
 20
-21.45245193908123
 10
33.81360888043533
 20
-21.59663221682294
 10
34.33208638030591
 20
-21.95025666117909
 10
34.85472665795298
 20
-22.29753110553681
 10
35.31291354353696
 20
-22.73176527209477
 10
35.43659742927041
 20
-22.8490638831767
 10
35.58024853671668
 20
-22.84581832762181
 10
35.70703686681537
 20
-22.73229443876141
 10
35.89721936196342
 20
-22.563313883248
 10
36.07773574624694
 20
-22.38537277218144
 10
36.22516157581914
 20
-22.17744555001126
 10
36.37195240540752
 20
-21.97022388339628
 10
36.41188684883316
 20
-21.73770805012112
 10
36.36641379443771
 20
-21.48914082796104
 10
36.27652601895316
 20
-21.00664666141507
 10
36.10253602339202
 20
-20.56412221708132
 10
35.76972547632717
 20
-20.19342332828512
 10
35.65468464592877
 20
-20.06614110609458
 10
35.54648770424465
 20
-19.93314388390546
 10
35.46520770631828
 20
-19.78106138394356
 10
35.37803631965332
 20
-19.6191363839841
 10
35.26606554673909
 20
-19.49097221734948
 10
35.07246110234288
 20
-19.4515316618039
 10
34.98356110236528
 20
-19.43361055069727
 10
34.90845471349501
 20
-19.37349721737898
 10
34.86435749128381
 20
-19.2951099951763
 10
34.6648969357783
 20
-18.94508388415248
 10
34.37791221362775
 20
-18.66243832866763
 10
34.14021054702066
 20
-18.34236305096993
 10
34.03204888038076
 20
-18.19733610656165
 10
33.95556665817792
 20
-18.03904471771236
 10
33.92318165818597
 20
-17.86145638442357
 10
33.89697026930355
 20
-17.71776999557065
 10
33.92247610263044
 20
-17.591863606713
 10
34.06993721370489
 20
-17.52642332895173
 10
34.20565082478193
 20
-17.46525166230047
 10
34.21221249144708
 20
-17.36636805121395
 10
34.1725955470123
 20
-17.24286055124495
 10
34.05547332481956
 20
-16.87512499578123
 10
33.93351804707232
 20
-16.50820082920624
 10
33.82669693598778
 20
-16.13700805152123
 10
33.57107415827375
 20
-15.24592666285524
 10
33.74333554711988
 20
-14.45147110749815
 10
34.41064999139747
 20
-13.79502221877356
 10
34.61840082467877
 20
-13.59125777437987
 10
34.82957360240385
 20
-13.39126805220772
 10
35.03284415790841
 20
-13.18267055225985
 10
36.30443074046347
 20
-11.87989749702998
 10
38.36941541000355
 20
-12.11071999697233
 10
39.25548733184242
 20
-13.66255416325109
 10
39.6320423222357
 20
-14.32246027419729
 10
39.77569443450052
 20
-15.05902499623521
 10
39.87009676060687
 20
-15.80370360716003
 10
39.89041676008846
 20
-15.96319444045365
 10
39.92280276779721
 20
-16.08514971820088
 10
40.09262897715182
 20
-16.13612610707715
 10
40.2979809163573
 20
-16.19796805150609
 10
40.37375758109074
 20
-16.36677221813061
 10
40.40028646930283
 20
-16.55593166252761
 10
40.47885007840961
 20
-17.13039499571751
 10
40.32380424903182
 20
-17.67420194002577
 10
40.15637591996995
 20
-18.21370499544651
 10
40.13192842059365
 20
-18.29276249542687
 10
40.07541342203547
 20
-18.36614027318617
 10
39.99688610111203
 20
-18.39594999540092
 10
39.79671898470112
 20
-18.47158555093751
 10
39.78638259607592
 20
-18.61230860645793
 10
39.82081370630863
 20
-18.79522388419003
 10
39.95553953620482
 20
-19.51750110623182
 10
40.11125564334328
 20
-20.23716777271855
 10
40.15291869783592
 20
-20.97355610586759
 10
40.1735914750863
 20
-21.3391044391097
 10
40.37375758109074
 20
-21.58230943904897
 10
40.66522257365485
 20
-21.77093971677964
 10
40.77165562649508
 20
-21.84001360565109
 10
40.8815811792462
 20
-21.86170943897893
 10
40.97803062123001
 20
-21.7643780501145
 10
41.23675783685155
 20
-21.5020524946246
 10
41.49100477480962
 20
-21.23831582802366
 10
41.5316447737728
 20
-20.84024138367887
 10
41.59401588329269
 20
-20.21839999494536
 10
41.78934998955285
 20
-19.64030305064562
 10
42.13387170285316
 20
-19.11561666188766
 10
42.22792225600929
 20
-18.97231832859034
 10
42.31403530936791
 20
-18.82450443973845
 10
42.41119030688928
 20
-18.68360499532915
 10
42.84870529572734
 20
-18.04938110659872
 10
43.10849084465522
 20
-17.35380916232815
 10
43.17393112076348
 20
-16.58157860696586
 10
43.24282861900576
 20
-15.78627638494221
 10
43.31931083927675
 20
-14.99097416291889
 10
43.46126861343289
 20
-14.20431499644879
 10
43.60389666534969
 20
-13.41381055220212
 10
43.47160500205807
 20
-12.66832055238857
 10
43.11297221144368
 20
-11.95327527478961
 10
42.94519001548804
 20
-11.61891249709513
 10
42.78979140834147
 20
-11.27682388606966
 10
42.69644641072291
 20
-10.91335694171596
 10
42.50040780461315
 20
-10.15820083079374
 10
42.24859503325965
 20
-9.41906083097861
 10
42.05566087151515
 20
-8.664081108944947
 10
41.77798948971024
 20
-7.579218886994183
 10
41.35077561172049
 20
-6.548613887251772
 10
40.95806339951719
 20
-5.504920831957234
 10
40.81956387868426
 20
-5.136973609826796
 10
40.72000896114602
 20
-5.069451943177114
 10
40.40649535803331
 20
-5.11855860983137
 10
40.15291869783592
 20
-5.157999165377272
 10
39.91454675947286
 20
-5.114254720943515
 10
39.67613954333291
 20
-5.046556665404952
 10
39.48112499012971
 20
-4.990570832085631
 10
39.28924816431444
 20
-4.922872776547069
 10
39.09356233597347
 20
-4.870344165449041
 10
38.67153429118474
 20
-4.757490554366318
 10
38.24950624639602
 20
-4.704785554379408
 10
37.82299792394382
 20
-4.867416109894391
 10
37.67694792766986
 20
-4.923543054324752
 10
37.51879765392684
 20
-4.955081387650145
 10
37.35793099136422
 20
-4.955786943205347
 10
37.18291794027363
 20
-4.956986387649672
 10
37.02476766653059
 20
-4.926153609879481
 10
36.95968016819111
 20
-4.734418887705274
 10
36.90626961399818
 20
-4.576621387744789
 10
36.97654294553869
 20
-4.417483332228939
 10
37.15466044099453
 20
-4.300678610035801
 10
37.35997710242313
 20
-4.16634083229164
 10
37.59115237430314
 20
-4.100336110085884
 10
37.83026514598064
 20
-4.059025832318616
 10
38.06140514008377
 20
-4.018879721217512
 10
38.29568485632902
 20
-3.998206943444798
 10
38.51962818394908
 20
-3.922430276797167
 10
38.77662776808351
 20
-3.835752776818696
 10
38.8858115079403
 20
-3.680213054635499
 10
38.84587706451467
 20
-3.460598304690529
 10
38.80382595447637
 20
-3.229606471414677
 10
38.64398332367247
 20
-3.109714943667088
 10
38.37146152106246
 20
-3.126253165885132
 10
38.02076514112058
 20
-3.14830177699073
 10
37.68315681640036
 20
-3.228399971414977
 10
37.36893765775009
 20
-3.393937415818162
 10
37.24010321659248
 20
-3.461631943579037
 10
37.11366766426256
 20
-3.539666388003956
 10
36.96310211254826
 20
-3.547251110224223
 10
36.82774128266827
 20
-3.554306665778169
 10
36.71023100788842
 20
-3.516753471343034
 10
36.64687212061596
 20
-3.383773888042998
 10
36.58520656663362
 20
-3.255098193630817
 10
36.63928739858724
 20
-3.14881683254598
 10
36.72229600758062
 20
-3.053732638125456
 10
36.81567628297607
 20
-2.946590499263304
 10
36.94313489083545
 20
-2.885785721500879
 10
37.06300877666609
 20
-2.814471693740903
 10
37.33037904762269
 20
-2.656169721558232
 10
37.59873709633186
 20
-2.500104360486081
 10
37.86123903407932
 20
-2.333536804972077
 10
38.03039597420821
 20
-2.225876082776987
 10
38.02937291867876
 20
-2.110637693916686
 10
37.86882375610804
 20
-1.98988891616915
 10
37.73138153739226
 20
-1.885844166195153
 10
37.57012776838511
 20
-1.824524332877158
 10
37.41134154555716
 20
-1.760100055115631
 10
37.29351377078542
 20
-1.712901916238591
 10
37.1753332182449
 20
-1.665358055139164
 10
37.07613210966462
 20
-1.583884027381712
 10
36.91695878039214
 20
-1.453141055192196
 10
36.92108628028684
 20
-1.315854055226616
 10
37.08368155391646
 20
-1.179427833038351
 10
37.25319127181413
 20
-1.101396916391441
 10
37.33037904762269
 20
-1.144806221935875
 10
37.46404654421254
 20
-1.179427833038351
 10
38.0545259735926
 20
-1.260559666351426
 10
38.57713096025984
 20
-1.458654971857439
 10
38.94267928426726
 20
-1.969734721729694
 10
39.05704983690498
 20
-2.129758249467635
 10
39.2479026098137
 20
-2.190735888341254
 10
39.44873899357882
 20
-2.190220832785683
 10
39.60688926732185
 20
-2.189875110563618
 10
39.75741954125928
 20
-2.226394666109925
 10
39.87284842720334
 20
-2.332672499416753
 10
40.28489286113565
 20
-2.712494221544242
 10
40.78957776758031
 20
-2.940388665931618
 10
41.26706144718955
 20
-3.214616943640712
 10
41.70323588050626
 20
-3.465078582466945
 10
42.10974170346876
 20
-3.751191943506794
 10
42.38328558537897
 20
-4.195444998951185
 10
43.08781806740485
 20
-5.340420554220565
 10
43.77820416090274
 20
-6.493651109487574
 10
44.35972303495585
 20
-7.706853886962159
 10
44.92646052049717
 20
-8.889717775555356
 10
45.49111661720271
 20
-10.07413388637032
 10
46.02233054405009
 20
-11.27407221940357
 10
46.20252826571975
 20
-11.68128360819071
 10
46.33238576240681
 20
-12.09004721919962
 10
46.19977776622753
 20
-12.54273166353084
 10
46.16876743324772
 20
-12.64902360794874
 10
46.17910382187291
 20
-12.76977944125197
 10
46.18012687740237
 20
-12.88309166344598
 10
46.19871943289488
 20
-14.29127471864934
 10
46.15568054401633
 20
-15.6977644405199
 10
46.07023660242812
 20
-17.10231388461341
 10
46.02543382579336
 20
-17.82321527332199
 10
45.98408827129261
 20
-18.54408138425273
 10
45.85902855226093
 20
-19.25757443962992
 10
45.67473744585148
 20
-20.30797027270065
 10
45.37395912019164
 20
-21.33116693911167
 10
45.14281912608851
 20
-22.37037971662947
 10
44.9643499887591
 20
-23.17136166087386
 10
44.81413607891836
 20
-23.97199082734049
 10
44.89922607674753
 20
-24.79780832713377
 10
44.93577498876621
 20
-25.15280860482279
 10
44.91510107634253
 20
-25.50802054917855
 10
44.88613802152588
 20
-25.86093943797917
 10
44.85996191108258
 20
-26.19082193789659
 10
44.89612163238229
 20
-26.50708721559556
 10
45.03187051780794
 20
-26.80888860440889
 10
45.33229721088922
 20
-27.47944860424137
 10
45.36362273156646
 20
-28.18881415961959
 10
45.29680662215996
 20
-28.9000494372195
 10
45.18793940271518
 20
-30.06068832581821
 10
45.02534412908555
 20
-31.21568276997371
 10
44.91199663197729
 20
-32.37632165857274
 10
44.7993194126297
 20
-33.53061054717304
 10
44.74178135854206
 20
-34.67505693577578
 10
45.04771023962606
 20
-35.81315332438009
 10
45.17449856972475
 20
-36.28358249092906
 10
45.21171662433079
 20
-36.77450804636185
 10
45.33744662112315
 20
-37.24715971291059
 10
45.39498467521079
 20
-37.46281276841208
 10
45.51454106104954
 20
-37.58702582393661
 10
45.73950744419906
 20
-37.61683554615135
 10
45.84562299704739
 20
-37.63112304614781
 10
45.94859998851271
 20
-37.66763554613873
 10
46.05093965847598
 20
-37.69949137946405
 10
46.8677613043038
 20
-37.95529054606664
 10
47.6966479498238
 20
-38.16459360157003
 10
48.53311931737253
 20
-38.34338137930315
 10
48.8355909763225
 20
-38.40797499039786
 10
49.15048041273344
 20
-38.39679193484526
 10
49.44953012732628
 20
-38.49740415704242
 10
50.06205816725494
 20
-38.70427304587965
 10
50.68492259580879
 20
-38.87946249028011
 10
51.31262007979489
 20
-39.03464943468587
 10
51.85074728828834
 20
-39.16814054576346
 10
52.33927394249166
 20
-39.39106082348562
 10
52.77439004250203
 20
-39.73434887895542
 10
53.58189835523411
 20
-40.37135971212945
 10
54.30537500344335
 20
-41.10273860083512
 10
55.08053359477852
 20
-41.77590915622297
 10
55.60867719241556
 20
-42.23413221166389
 10
56.04379329242594
 20
-42.76605054486403
 10
56.25874078694217
 20
-43.44885193358208
 10
56.25874078694217
 20
-43.60114610021103
 10
56.25874078694217
 20
-43.75340498906181
 10
56.25874078694217
 20
-43.90566387791259
 10
56.15058054151773
 20
-44.50168193331929
 10
55.79123968775801
 20
-44.91714832210373
 10
55.29826943061995
 20
-45.23718832202424
 10
55.00782609663344
 20
-45.42634776642092
 10
54.7652913805988
 20
-45.66232082191768
 10
54.58167055195002
 20
-45.95999471073235
 10
54.32467194739549
 20
-46.37754248840584
 10
53.94984556806921
 20
-46.65313248833675
 10
53.51712835688653
 20
-46.8774285993918
 10
52.60696171344015
 20
-47.34870443260732
 10
51.64024479365871
 20
-47.67805776585842
 10
50.68873259571158
 20
-48.04392359910013
 10
49.59078234594485
 20
-48.4663044323278
 10
48.50383876256398
 20
-48.92724387665697
 10
47.30252462654539
 20
-49.00235026552725
 10
46.46538298123599
 20
-49.05438498773615
 10
45.62718300262025
 20
-49.19320304325705
 10
44.89336996578582
 20
-48.61754026562347
 10
44.76866302452292
 20
-48.51900943231471
 10
44.66738052710685
 20
-48.5706913767465
 10
44.61396997291391
 20
-48.71363693226605
 10
44.56539247415323
 20
-48.84388248778875
 10
44.51374580880418
 20
-48.97409276553395
 10
44.47582219866058
 20
-49.10776026550106
 10
44.28705081458765
 20
-49.79197276532951
 10
44.10928609690058
 20
-50.47890165404685
 10
43.91395304632839
 20
-51.16103276498754
 10
43.68207221891083
 20
-51.97340943145092
 10
43.32241528364199
 20
-52.73819637570431
 10
43.00410390287391
 20
-53.5185408199535
 10
42.62444446811539
 20
-54.44765165305466
 10
42.45045554494306
 20
-55.44329637502791
 10
42.0890689262184
 20
-56.37794581923878
 10
41.83309443398629
 20
-57.03905137462898
 10
41.64361643758284
 20
-57.72601554112384
 10
41.30738394616084
 20
-58.35579442985538
 10
41.21298061523594
 20
-58.53080748536729
 10
41.1774911716969
 20
-58.72268331865286
 10
41.15889978328232
 20
-58.92147359638101
 10
41.12341033974329
 20
-59.2887152629556
 10
41.15304367232061
 20
-59.65560415175307
 10
41.15166783902238
 20
-60.02252831832743
 10
41.15064478349292
 20
-60.76526665147521
 10
41.19438922682135
 20
-61.50493581795698
 10
41.2539733919679
 20
-62.24393470666138
 10
41.35769005598853
 20
-63.54201581744779
 10
41.34114477863286
 20
-64.83875637267948
 10
41.25707783633315
 20
-66.13687276124341
 10
41.19057922691855
 20
-67.16179803876507
 10
41.16129867211001
 20
-68.1873935940641
 10
41.16888339413872
 20
-69.21471776047379
 10
41.17061200520574
 20
-69.43728526041818
 10
41.20264422661075
 20
-69.65431414925288
 10
41.36492200024848
 20
-69.83416026031897
 10
41.45103610074828
 20
-69.92993942696195
 10
41.45932533117338
 20
-70.06117276026225
 10
41.41797977667264
 20
-70.17727192690019
 10
41.32597533457542
 20
-70.43289470461391
 10
41.38488922196129
 20
-70.67613498233102
 10
41.44793060924187
 20
-70.92314998226902
 10
41.59951921648562
 20
-71.5091491487896
 10
41.70771615816974
 20
-72.10170998197437
 10
41.91924170832883
 20
-72.67705525960835
 10
42.14763003583548
 20
-73.29508664834312
 10
42.11284721169401
 20
-73.96208359262079
 10
42.01844281690911
 20
-74.61458137023529
 10
41.96125754059025
 20
-75.01008053680319
 10
41.90580087533839
 20
-75.40212248114979
 10
41.95264976303207
 20
-75.805876647715
 10
42.05703670481338
 20
-76.7057422030459
 10
41.94749920760792
 20
-77.58768664726985
 10
41.68908949197827
 20
-78.45379136927528
 10
41.59024116116677
 20
-78.78864803585856
 10
41.40178727708575
 20
-79.02980692468726
 10
41.0407192307418
 20
-79.0979988691143
 97
        0
 75
     0
 76
     1
 98
        0
  0
ENDSEC
  0
SECTION
  2
OBJECTS
  0
DICTIONARY
  5
C
330
0
100
AcDbDictionary
281
     1
  3
ACAD_GROUP
350
D
  3
ACAD_LAYOUT
350
1A
  3
ACAD_MATERIAL
350
3B
  3
ACAD_MLEADERSTYLE
350
64
  3
ACAD_MLINESTYLE
350
17
  3
ACAD_PLOTSETTINGS
350
19
  3
ACAD_PLOTSTYLENAME
350
E
  3
ACAD_TABLESTYLE
350
63
  3
ACAD_VISUALSTYLE
350
2A
  0
SUN
  5
3F
330
29
100
AcDbSun
 90
        1
290
     0
 63
     7
421
 16777215
 40
1.0
291
     1
 91
  2455826
 92
 54000000
292
     0
 70
     2
 71
   256
280
     1
  0
DICTIONARY
  5
D
102
{ACAD_REACTORS
330
C
102
}
330
C
100
AcDbDictionary
281
     1
  0
DICTIONARY
  5
1A
102
{ACAD_REACTORS
330
C
102
}
330
C
100
AcDbDictionary
281
     1
  3
Layout1
350
1E
  3
Layout2
350
26
  3
Model
350
22
  0
DICTIONARY
  5
3B
102
{ACAD_REACTORS
330
C
102
}
330
C
100
AcDbDictionary
281
     1
  3
ByBlock
350
3D
  3
ByLayer
350
3C
  3
Global
350
3E
  0
DICTIONARY
  5
64
102
{ACAD_REACTORS
330
C
102
}
330
C
100
AcDbDictionary
281
     1
  0
DICTIONARY
  5
17
102
{ACAD_REACTORS
330
C
102
}
330
C
100
AcDbDictionary
281
     1
  3
Standard
350
18
  0
DICTIONARY
  5
19
102
{ACAD_REACTORS
330
C
102
}
330
C
100
AcDbDictionary
281
     1
  0
ACDBDICTIONARYWDFLT
  5
E
102
{ACAD_REACTORS
330
C
102
}
330
C
100
AcDbDictionary
281
     1
  3
Normal
350
F
100
AcDbDictionaryWithDefault
340
F
  0
DICTIONARY
  5
63
102
{ACAD_REACTORS
330
C
102
}
330
C
100
AcDbDictionary
281
     1
  0
DICTIONARY
  5
2A
102
{ACAD_REACTORS
330
C
102
}
330
C
100
AcDbDictionary
281
     1
  3
2dWireframe
350
2F
  3
3D Hidden
350
31
  3
3dWireframe
350
30
  3
Basic
350
32
  3
Brighten
350
36
  3
ColorChange
350
3A
  3
Conceptual
350
34
  3
Dim
350
35
  3
Facepattern
350
39
  3
Flat
350
2B
  3
FlatWithEdges
350
2C
  3
Gouraud
350
2D
  3
GouraudWithEdges
350
2E
  3
Linepattern
350
38
  3
Realistic
350
33
  3
Thicken
350
37
  0
LAYOUT
  5
1E
102
{ACAD_REACTORS
330
1A
102
}
330
1A
100
AcDbPlotSettings
  1

  2
none_device
  4

  6

 40
0.0
 41
0.0
 42
0.0
 43
0.0
 44
0.0
 45
0.0
 46
0.0
 47
0.0
 48
0.0
 49
0.0
140
0.0
141
0.0
142
1.0
143
1.0
 70
   688
 72
     0
 73
     0
 74
     5
  7

 75
    16
 76
     0
 77
     2
 78
   300
147
1.0
148
0.0
149
0.0
100
AcDbLayout
  1
Layout1
 70
     1
 71
     1
 10
0.0
 20
0.0
 11
12.0
 21
9.0
 12
0.0
 22
0.0
 32
0.0
 14
1.000000000000000E+20
 24
1.000000000000000E+20
 34
1.000000000000000E+20
 15
-1.000000000000000E+20
 25
-1.000000000000000E+20
 35
-1.000000000000000E+20
146
0.0
 13
0.0
 23
0.0
 33
0.0
 16
1.0
 26
0.0
 36
0.0
 17
0.0
 27
1.0
 37
0.0
 76
     0
330
1B
  0
LAYOUT
  5
26
102
{ACAD_REACTORS
330
1A
102
}
330
1A
100
AcDbPlotSettings
  1

  2
none_device
  4

  6

 40
0.0
 41
0.0
 42
0.0
 43
0.0
 44
0.0
 45
0.0
 46
0.0
 47
0.0
 48
0.0
 49
0.0
140
0.0
141
0.0
142
1.0
143
1.0
 70
   688
 72
     0
 73
     0
 74
     5
  7

 75
    16
 76
     0
 77
     2
 78
   300
147
1.0
148
0.0
149
0.0
100
AcDbLayout
  1
Layout2
 70
     1
 71
     2
 10
0.0
 20
0.0
 11
0.0
 21
0.0
 12
0.0
 22
0.0
 32
0.0
 14
0.0
 24
0.0
 34
0.0
 15
0.0
 25
0.0
 35
0.0
146
0.0
 13
0.0
 23
0.0
 33
0.0
 16
1.0
 26
0.0
 36
0.0
 17
0.0
 27
1.0
 37
0.0
 76
     0
330
23
  0
LAYOUT
  5
22
102
{ACAD_REACTORS
330
1A
102
}
330
1A
100
AcDbPlotSettings
  1

  2
none_device
  4

  6

 40
0.0
 41
0.0
 42
0.0
 43
0.0
 44
0.0
 45
0.0
 46
0.0
 47
0.0
 48
0.0
 49
0.0
140
0.0
141
0.0
142
1.0
143
1.0
 70
  1712
 72
     0
 73
     0
 74
     0
  7

 75
     0
 76
     0
 77
     2
 78
   300
147
1.0
148
0.0
149
0.0
100
AcDbLayout
  1
Model
 70
     1
 71
     0
 10
0.0
 20
0.0
 11
12.0
 21
9.0
 12
0.0
 22
0.0
 32
0.0
 14
1.000000000000000E+20
 24
1.000000000000000E+20
 34
1.000000000000000E+20
 15
-1.000000000000000E+20
 25
-1.000000000000000E+20
 35
-1.000000000000000E+20
146
0.0
 13
0.0
 23
0.0
 33
0.0
 16
1.0
 26
0.0
 36
0.0
 17
0.0
 27
1.0
 37
0.0
 76
     0
330
1F
331
29
  0
MATERIAL
  5
3D
102
{ACAD_REACTORS
330
3B
102
}
330
3B
100
AcDbMaterial
  1
ByBlock
 72
     1
 94
      127
  0
MATERIAL
  5
3C
102
{ACAD_REACTORS
330
3B
102
}
330
3B
100
AcDbMaterial
  1
ByLayer
 72
     1
 94
      127
  0
MATERIAL
  5
3E
102
{ACAD_REACTORS
330
3B
102
}
330
3B
100
AcDbMaterial
  1
Global
 72
     1
 94
      127
  0
MLINESTYLE
  5
18
102
{ACAD_REACTORS
330
17
102
}
330
17
100
AcDbMlineStyle
  2
Standard
 70
     0
  3

 62
   256
 51
90.0
 52
90.0
 71
     2
 49
0.5
 62
   256
  6
BYLAYER
 49
-0.5
 62
   256
  6
BYLAYER
  0
ACDBPLACEHOLDER
  5
F
102
{ACAD_REACTORS
330
E
102
}
330
E
  0
VISUALSTYLE
  5
2F
102
{ACAD_REACTORS
330
2A
102
}
102
{ACAD_XDICTIONARY
360
4B
102
}
330
2A
100
AcDbVisualStyle
  2
2dWireframe
 70
     4
 71
     0
 72
     2
 73
     0
 90
        0
 40
-0.6
 41
-30.0
 62
     5
 63
     7
421
 16777215
 74
     1
 91
        4
 64
     7
 65
   257
 75
     1
175
     1
 42
1.0
 92
        0
 66
   257
 43
1.0
 76
     1
 77
     6
 78
     2
 67
     7
 79
     5
170
     0
171
     0
290
     0
174
     0
 93
        1
 44
0.0
173
     0
291
     0
 45
0.0
  0
VISUALSTYLE
  5
31
102
{ACAD_REACTORS
330
2A
102
}
102
{ACAD_XDICTIONARY
360
4F
102
}
330
2A
100
AcDbVisualStyle
  2
3D Hidden
 70
     6
 71
     1
 72
     2
 73
     2
 90
        0
 40
-0.6
 41
-30.0
 62
     5
 63
     7
421
 16777215
 74
     2
 91
        2
 64
     7
 65
   257
 75
     2
175
     1
 42
40.0
 92
        0
 66
   257
 43
1.0
 76
     1
 77
     6
 78
     2
 67
     7
 79
     3
170
     0
171
     0
290
     0
174
     0
 93
        1
 44
0.0
173
     0
291
     0
 45
0.0
  0
VISUALSTYLE
  5
30
102
{ACAD_REACTORS
330
2A
102
}
102
{ACAD_XDICTIONARY
360
4D
102
}
330
2A
100
AcDbVisualStyle
  2
3dWireframe
 70
     5
 71
     0
 72
     2
 73
     0
 90
        0
 40
-0.6
 41
-30.0
 62
     5
 63
     7
421
 16777215
 74
     1
 91
        4
 64
     7
 65
   257
 75
     1
175
     1
 42
1.0
 92
        0
 66
   257
 43
1.0
 76
     1
 77
     6
 78
     2
 67
     7
 79
     5
170
     0
171
     0
290
     0
174
     0
 93
        1
 44
0.0
173
     0
291
     0
 45
0.0
  0
VISUALSTYLE
  5
32
102
{ACAD_REACTORS
330
2A
102
}
102
{ACAD_XDICTIONARY
360
51
102
}
330
2A
100
AcDbVisualStyle
  2
Basic
 70
     7
 71
     1
 72
     0
 73
     1
 90
        0
 40
-0.6
 41
-30.0
 62
     5
 63
     7
421
 16777215
 74
     0
 91
        4
 64
     7
 65
   257
 75
     1
175
     1
 42
1.0
 92
        8
 66
     7
 43
1.0
 76
     1
 77
     6
 78
     2
 67
     7
 79
     5
170
     0
171
     0
290
     0
174
     0
 93
        1
 44
0.0
173
     0
291
     1
 45
0.0
  0
VISUALSTYLE
  5
36
102
{ACAD_REACTORS
330
2A
102
}
102
{ACAD_XDICTIONARY
360
59
102
}
330
2A
100
AcDbVisualStyle
  2
Brighten
 70
    12
 71
     2
 72
     2
 73
     0
 90
        0
 40
-0.6
 41
-30.0
 62
     5
 63
     7
421
 16777215
 74
     1
 91
        4
 64
     7
 65
   257
 75
     1
175
     1
 42
1.0
 92
        8
 66
     7
 43
1.0
 76
     1
 77
     6
 78
     2
 67
     7
 79
     5
170
     0
171
     0
290
     0
174
     0
 93
        1
 44
50.0
173
     0
291
     1
 45
0.0
  0
VISUALSTYLE
  5
3A
102
{ACAD_REACTORS
330
2A
102
}
102
{ACAD_XDICTIONARY
360
61
102
}
330
2A
100
AcDbVisualStyle
  2
ColorChange
 70
    16
 71
     2
 72
     2
 73
     3
 90
        0
 40
-0.6
 41
-30.0
 62
     5
 63
     8
421
  8421504
 74
     1
 91
        4
 64
     7
 65
   257
 75
     1
175
     1
 42
1.0
 92
        8
 66
     8
424
  8421504
 43
1.0
 76
     1
 77
     6
 78
     2
 67
     7
 79
     5
170
     0
171
     0
290
     0
174
     0
 93
        1
 44
0.0
173
     0
291
     1
 45
0.0
  0
VISUALSTYLE
  5
34
102
{ACAD_REACTORS
330
2A
102
}
102
{ACAD_XDICTIONARY
360
55
102
}
330
2A
100
AcDbVisualStyle
  2
Conceptual
 70
     9
 71
     3
 72
     2
 73
     0
 90
        0
 40
-0.6
 41
-30.0
 62
     5
 63
     7
421
 16777215
 74
     2
 91
        2
 64
     7
 65
   257
 75
     1
175
     1
 42
40.0
 92
        8
 66
     7
 43
1.0
 76
     1
 77
     6
 78
     2
 67
     7
 79
     3
170
     0
171
     0
290
     0
174
     0
 93
        1
 44
0.0
173
     0
291
     0
 45
0.0
  0
VISUALSTYLE
  5
35
102
{ACAD_REACTORS
330
2A
102
}
102
{ACAD_XDICTIONARY
360
57
102
}
330
2A
100
AcDbVisualStyle
  2
Dim
 70
    11
 71
     2
 72
     2
 73
     0
 90
        0
 40
-0.6
 41
-30.0
 62
     5
 63
     7
421
 16777215
 74
     1
 91
        4
 64
     7
 65
   257
 75
     1
175
     1
 42
1.0
 92
        8
 66
     7
 43
1.0
 76
     1
 77
     6
 78
     2
 67
     7
 79
     5
170
     0
171
     0
290
     0
174
     0
 93
        1
 44
-50.0
173
     0
291
     1
 45
0.0
  0
VISUALSTYLE
  5
39
102
{ACAD_REACTORS
330
2A
102
}
102
{ACAD_XDICTIONARY
360
5F
102
}
330
2A
100
AcDbVisualStyle
  2
Facepattern
 70
    15
 71
     2
 72
     2
 73
     0
 90
        0
 40
-0.6
 41
-30.0
 62
     5
 63
     7
421
 16777215
 74
     1
 91
        4
 64
     7
 65
   257
 75
     1
175
     1
 42
1.0
 92
        8
 66
     7
 43
1.0
 76
     1
 77
     6
 78
     2
 67
     7
 79
     5
170
     0
171
     0
290
     0
174
     0
 93
        1
 44
0.0
173
     0
291
     1
 45
0.0
  0
VISUALSTYLE
  5
2B
102
{ACAD_REACTORS
330
2A
102
}
102
{ACAD_XDICTIONARY
360
43
102
}
330
2A
100
AcDbVisualStyle
  2
Flat
 70
     0
 71
     2
 72
     1
 73
     1
 90
        2
 40
-0.6
 41
30.0
 62
     5
 63
     7
421
 16777215
 74
     0
 91
        4
 64
     7
 65
   257
 75
     1
175
     1
 42
1.0
 92
        8
 66
     7
 43
1.0
 76
     1
 77
     6
 78
     2
 67
     7
 79
     5
170
     0
171
     0
290
     0
174
     0
 93
       13
 44
0.0
173
     0
291
     1
 45
0.0
  0
VISUALSTYLE
  5
2C
102
{ACAD_REACTORS
330
2A
102
}
102
{ACAD_XDICTIONARY
360
45
102
}
330
2A
100
AcDbVisualStyle
  2
FlatWithEdges
 70
     1
 71
     2
 72
     1
 73
     1
 90
        2
 40
-0.6
 41
30.0
 62
     5
 63
     7
421
 16777215
 74
     1
 91
        4
 64
     7
 65
   257
 75
     1
175
     1
 42
1.0
 92
        0
 66
   257
 43
1.0
 76
     1
 77
     6
 78
     2
 67
     7
 79
     5
170
     0
171
     0
290
     0
174
     0
 93
       13
 44
0.0
173
     0
291
     1
 45
0.0
  0
VISUALSTYLE
  5
2D
102
{ACAD_REACTORS
330
2A
102
}
102
{ACAD_XDICTIONARY
360
47
102
}
330
2A
100
AcDbVisualStyle
  2
Gouraud
 70
     2
 71
     2
 72
     2
 73
     1
 90
        2
 40
-0.6
 41
30.0
 62
     5
 63
     7
421
 16777215
 74
     0
 91
        4
 64
     7
 65
   257
 75
     1
175
     1
 42
1.0
 92
        0
 66
     7
 43
1.0
 76
     1
 77
     6
 78
     2
 67
     7
 79
     5
170
     0
171
     0
290
     0
174
     0
 93
       13
 44
0.0
173
     0
291
     1
 45
0.0
  0
VISUALSTYLE
  5
2E
102
{ACAD_REACTORS
330
2A
102
}
102
{ACAD_XDICTIONARY
360
49
102
}
330
2A
100
AcDbVisualStyle
  2
GouraudWithEdges
 70
     3
 71
     2
 72
     2
 73
     1
 90
        2
 40
-0.6
 41
30.0
 62
     5
 63
     7
421
 16777215
 74
     1
 91
        4
 64
     7
 65
   257
 75
     1
175
     1
 42
1.0
 92
        0
 66
   257
 43
1.0
 76
     1
 77
     6
 78
     2
 67
     7
 79
     5
170
     0
171
     0
290
     0
174
     0
 93
       13
 44
0.0
173
     0
291
     1
 45
0.0
  0
VISUALSTYLE
  5
38
102
{ACAD_REACTORS
330
2A
102
}
102
{ACAD_XDICTIONARY
360
5D
102
}
330
2A
100
AcDbVisualStyle
  2
Linepattern
 70
    14
 71
     2
 72
     2
 73
     0
 90
        0
 40
-0.6
 41
-30.0
 62
     5
 63
     7
421
 16777215
 74
     1
 91
        4
 64
     7
 65
   257
 75
     7
175
     7
 42
1.0
 92
        8
 66
     7
 43
1.0
 76
     1
 77
     6
 78
     2
 67
     7
 79
     5
170
     0
171
     0
290
     0
174
     0
 93
        1
 44
0.0
173
     0
291
     1
 45
0.0
  0
VISUALSTYLE
  5
33
102
{ACAD_REACTORS
330
2A
102
}
102
{ACAD_XDICTIONARY
360
53
102
}
330
2A
100
AcDbVisualStyle
  2
Realistic
 70
     8
 71
     2
 72
     2
 73
     0
 90
        0
 40
-0.6
 41
-30.0
 62
     5
 63
     7
421
 16777215
 74
     1
 91
        0
 64
     7
 65
   257
 75
     1
175
     1
 42
1.0
 92
        8
 66
     8
424
  7895160
 43
1.0
 76
     1
 77
     6
 78
     2
 67
     7
 79
     5
170
     0
171
     0
290
     0
174
     0
 93
       13
 44
0.0
173
     0
291
     0
 45
0.0
  0
VISUALSTYLE
  5
37
102
{ACAD_REACTORS
330
2A
102
}
102
{ACAD_XDICTIONARY
360
5B
102
}
330
2A
100
AcDbVisualStyle
  2
Thicken
 70
    13
 71
     2
 72
     2
 73
     0
 90
        0
 40
-0.6
 41
-30.0
 62
     5
 63
     7
421
 16777215
 74
     1
 91
        4
 64
     7
 65
   257
 75
     1
175
     1
 42
1.0
 92
       12
 66
     7
 43
1.0
 76
     1
 77
     6
 78
     2
 67
     7
 79
     5
170
     0
171
     0
290
     0
174
     0
 93
        1
 44
0.0
173
     0
291
     1
 45
0.0
  0
DICTIONARY
  5
4B
330
2F
100
AcDbDictionary
280
     1
281
     1
  3
ACAD_XREC_ROUNDTRIP
360
4C
  0
DICTIONARY
  5
4F
330
31
100
AcDbDictionary
280
     1
281
     1
  3
ACAD_XREC_ROUNDTRIP
360
50
  0
DICTIONARY
  5
4D
330
30
100
AcDbDictionary
280
     1
281
     1
  3
ACAD_XREC_ROUNDTRIP
360
4E
  0
DICTIONARY
  5
51
330
32
100
AcDbDictionary
280
     1
281
     1
  3
ACAD_XREC_ROUNDTRIP
360
52
  0
DICTIONARY
  5
59
330
36
100
AcDbDictionary
280
     1
281
     1
  3
ACAD_XREC_ROUNDTRIP
360
5A
  0
DICTIONARY
  5
61
330
3A
100
AcDbDictionary
280
     1
281
     1
  3
ACAD_XREC_ROUNDTRIP
360
62
  0
DICTIONARY
  5
55
330
34
100
AcDbDictionary
280
     1
281
     1
  3
ACAD_XREC_ROUNDTRIP
360
56
  0
DICTIONARY
  5
57
330
35
100
AcDbDictionary
280
     1
281
     1
  3
ACAD_XREC_ROUNDTRIP
360
58
  0
DICTIONARY
  5
5F
330
39
100
AcDbDictionary
280
     1
281
     1
  3
ACAD_XREC_ROUNDTRIP
360
60
  0
DICTIONARY
  5
43
330
2B
100
AcDbDictionary
280
     1
281
     1
  3
ACAD_XREC_ROUNDTRIP
360
44
  0
DICTIONARY
  5
45
330
2C
100
AcDbDictionary
280
     1
281
     1
  3
ACAD_XREC_ROUNDTRIP
360
46
  0
DICTIONARY
  5
47
330
2D
100
AcDbDictionary
280
     1
281
     1
  3
ACAD_XREC_ROUNDTRIP
360
48
  0
DICTIONARY
  5
49
330
2E
100
AcDbDictionary
280
     1
281
     1
  3
ACAD_XREC_ROUNDTRIP
360
4A
  0
DICTIONARY
  5
5D
330
38
100
AcDbDictionary
280
     1
281
     1
  3
ACAD_XREC_ROUNDTRIP
360
5E
  0
DICTIONARY
  5
53
330
33
100
AcDbDictionary
280
     1
281
     1
  3
ACAD_XREC_ROUNDTRIP
360
54
  0
DICTIONARY
  5
5B
330
37
100
AcDbDictionary
280
     1
281
     1
  3
ACAD_XREC_ROUNDTRIP
360
5C
  0
XRECORD
  5
4C
102
{ACAD_REACTORS
330
4B
102
}
330
4B
100
AcDbXrecord
280
     1
102
RTVSPropertyOp0
 70
     1
102
RTVSPropertyOp1
 70
     1
102
RTVSPropertyOp2
 70
     1
102
RTVSPropertyOp3
 70
     1
102
RTVSPropertyOp4
 70
     1
102
RTVSPropertyOp5
 70
     1
102
RTVSPropertyOp6
 70
     1
102
RTVSPropertyOp7
 70
     1
102
RTVSPropertyOp8
 70
     1
102
RTVSPropertyOp9
 70
     1
102
RTVSPropertyOp10
 70
     1
102
RTVSPropertyOp11
 70
     1
102
RTVSPropertyOp12
 70
     1
102
RTVSPropertyOp13
 70
     1
102
RTVSPropertyOp14
 70
     1
102
RTVSPropertyOp15
 70
     1
102
RTVSPropertyOp16
 70
     1
102
RTVSPropertyOp17
 70
     1
102
RTVSPropertyOp18
 70
     1
102
RTVSPropertyOp19
 70
     1
102
RTVSPropertyOp20
 70
     1
102
RTVSPropertyOp21
 70
     1
102
RTVSPropertyOp22
 70
     1
102
RTVSPropertyOp23
 70
     1
102
RTVSPropertyOp24
 70
     1
102
RTVSPropertyOp25
 70
     1
102
RTVSPropertyOp26
 70
     1
102
RTVSPropertyOp27
 70
     1
102
RTVSPropertyOp28
 70
     1
102
RTVSPropertyOp29
 70
     1
102
RTVSPropertyOp30
 70
     1
102
RTVSPropertyOp31
 70
     1
102
RTVSPropertyOp32
 70
     1
  0
XRECORD
  5
50
102
{ACAD_REACTORS
330
4F
102
}
330
4F
100
AcDbXrecord
280
     1
102
RTVSPropertyOp0
 70
     1
102
RTVSPropertyOp1
 70
     1
102
RTVSPropertyOp2
 70
     1
102
RTVSPropertyOp3
 70
     1
102
RTVSPropertyOp4
 70
     1
102
RTVSPropertyOp5
 70
     1
102
RTVSPropertyOp6
 70
     1
102
RTVSPropertyOp7
 70
     1
102
RTVSPropertyOp8
 70
     1
102
RTVSPropertyOp9
 70
     1
102
RTVSPropertyOp10
 70
     1
102
RTVSPropertyOp11
 70
     1
102
RTVSPropertyOp12
 70
     1
102
RTVSPropertyOp13
 70
     1
102
RTVSPropertyOp14
 70
     1
102
RTVSPropertyOp15
 70
     1
102
RTVSPropertyOp16
 70
     1
102
RTVSPropertyOp17
 70
     1
102
RTVSPropertyOp18
 70
     1
102
RTVSPropertyOp19
 70
     1
102
RTVSPropertyOp20
 70
     1
102
RTVSPropertyOp21
 70
     1
102
RTVSPropertyOp22
 70
     1
102
RTVSPropertyOp23
 70
     1
102
RTVSPropertyOp24
 70
     1
102
RTVSPropertyOp25
 70
     1
102
RTVSPropertyOp26
 70
     1
102
RTVSPropertyOp27
 70
     1
102
RTVSPropertyOp28
 70
     1
102
RTVSPropertyOp29
 70
     1
102
RTVSPropertyOp30
 70
     1
102
RTVSPropertyOp31
 70
     1
102
RTVSPropertyOp32
 70
     1
  0
XRECORD
  5
4E
102
{ACAD_REACTORS
330
4D
102
}
330
4D
100
AcDbXrecord
280
     1
102
RTVSPropertyOp0
 70
     1
102
RTVSPropertyOp1
 70
     1
102
RTVSPropertyOp2
 70
     1
102
RTVSPropertyOp3
 70
     1
102
RTVSPropertyOp4
 70
     1
102
RTVSPropertyOp5
 70
     1
102
RTVSPropertyOp6
 70
     1
102
RTVSPropertyOp7
 70
     1
102
RTVSPropertyOp8
 70
     1
102
RTVSPropertyOp9
 70
     1
102
RTVSPropertyOp10
 70
     1
102
RTVSPropertyOp11
 70
     1
102
RTVSPropertyOp12
 70
     1
102
RTVSPropertyOp13
 70
     1
102
RTVSPropertyOp14
 70
     1
102
RTVSPropertyOp15
 70
     1
102
RTVSPropertyOp16
 70
     1
102
RTVSPropertyOp17
 70
     1
102
RTVSPropertyOp18
 70
     1
102
RTVSPropertyOp19
 70
     1
102
RTVSPropertyOp20
 70
     1
102
RTVSPropertyOp21
 70
     1
102
RTVSPropertyOp22
 70
     1
102
RTVSPropertyOp23
 70
     1
102
RTVSPropertyOp24
 70
     1
102
RTVSPropertyOp25
 70
     1
102
RTVSPropertyOp26
 70
     1
102
RTVSPropertyOp27
 70
     1
102
RTVSPropertyOp28
 70
     1
102
RTVSPropertyOp29
 70
     1
102
RTVSPropertyOp30
 70
     1
102
RTVSPropertyOp31
 70
     1
102
RTVSPropertyOp32
 70
     1
  0
XRECORD
  5
52
102
{ACAD_REACTORS
330
51
102
}
330
51
100
AcDbXrecord
280
     1
102
RTVSPropertyOp0
 70
     1
102
RTVSPropertyOp1
 70
     1
102
RTVSPropertyOp2
 70
     1
102
RTVSPropertyOp3
 70
     1
102
RTVSPropertyOp4
 70
     1
102
RTVSPropertyOp5
 70
     1
102
RTVSPropertyOp6
 70
     1
102
RTVSPropertyOp7
 70
     1
102
RTVSPropertyOp8
 70
     1
102
RTVSPropertyOp9
 70
     1
102
RTVSPropertyOp10
 70
     1
102
RTVSPropertyOp11
 70
     1
102
RTVSPropertyOp12
 70
     1
102
RTVSPropertyOp13
 70
     1
102
RTVSPropertyOp14
 70
     1
102
RTVSPropertyOp15
 70
     1
102
RTVSPropertyOp16
 70
     1
102
RTVSPropertyOp17
 70
     1
102
RTVSPropertyOp18
 70
     1
102
RTVSPropertyOp19
 70
     1
102
RTVSPropertyOp20
 70
     1
102
RTVSPropertyOp21
 70
     1
102
RTVSPropertyOp22
 70
     1
102
RTVSPropertyOp23
 70
     1
102
RTVSPropertyOp24
 70
     1
102
RTVSPropertyOp25
 70
     1
102
RTVSPropertyOp26
 70
     1
102
RTVSPropertyOp27
 70
     1
102
RTVSPropertyOp28
 70
     1
102
RTVSPropertyOp29
 70
     1
102
RTVSPropertyOp30
 70
     1
102
RTVSPropertyOp31
 70
     1
102
RTVSPropertyOp32
 70
     1
  0
XRECORD
  5
5A
102
{ACAD_REACTORS
330
59
102
}
330
59
100
AcDbXrecord
280
     1
102
RTVSPropertyOp0
 70
     1
102
RTVSPropertyOp1
 70
     1
102
RTVSPropertyOp2
 70
     1
102
RTVSPropertyOp3
 70
     1
102
RTVSPropertyOp4
 70
     1
102
RTVSPropertyOp5
 70
     1
102
RTVSPropertyOp6
 70
     1
102
RTVSPropertyOp7
 70
     1
102
RTVSPropertyOp8
 70
     1
102
RTVSPropertyOp9
 70
     1
102
RTVSPropertyOp10
 70
     1
102
RTVSPropertyOp11
 70
     1
102
RTVSPropertyOp12
 70
     1
102
RTVSPropertyOp13
 70
     1
102
RTVSPropertyOp14
 70
     1
102
RTVSPropertyOp15
 70
     1
102
RTVSPropertyOp16
 70
     1
102
RTVSPropertyOp17
 70
     1
102
RTVSPropertyOp18
 70
     1
102
RTVSPropertyOp19
 70
     1
102
RTVSPropertyOp20
 70
     1
102
RTVSPropertyOp21
 70
     1
102
RTVSPropertyOp22
 70
     1
102
RTVSPropertyOp23
 70
     1
102
RTVSPropertyOp24
 70
     1
102
RTVSPropertyOp25
 70
     1
102
RTVSPropertyOp26
 70
     1
102
RTVSPropertyOp27
 70
     1
102
RTVSPropertyOp28
 70
     1
102
RTVSPropertyOp29
 70
     1
102
RTVSPropertyOp30
 70
     1
102
RTVSPropertyOp31
 70
     1
102
RTVSPropertyOp32
 70
     1
  0
XRECORD
  5
62
102
{ACAD_REACTORS
330
61
102
}
330
61
100
AcDbXrecord
280
     1
102
RTVSPropertyOp0
 70
     1
102
RTVSPropertyOp1
 70
     1
102
RTVSPropertyOp2
 70
     1
102
RTVSPropertyOp3
 70
     1
102
RTVSPropertyOp4
 70
     1
102
RTVSPropertyOp5
 70
     1
102
RTVSPropertyOp6
 70
     1
102
RTVSPropertyOp7
 70
     1
102
RTVSPropertyOp8
 70
     1
102
RTVSPropertyOp9
 70
     1
102
RTVSPropertyOp10
 70
     1
102
RTVSPropertyOp11
 70
     1
102
RTVSPropertyOp12
 70
     1
102
RTVSPropertyOp13
 70
     1
102
RTVSPropertyOp14
 70
     1
102
RTVSPropertyOp15
 70
     1
102
RTVSPropertyOp16
 70
     1
102
RTVSPropertyOp17
 70
     1
102
RTVSPropertyOp18
 70
     1
102
RTVSPropertyOp19
 70
     1
102
RTVSPropertyOp20
 70
     1
102
RTVSPropertyOp21
 70
     1
102
RTVSPropertyOp22
 70
     1
102
RTVSPropertyOp23
 70
     1
102
RTVSPropertyOp24
 70
     1
102
RTVSPropertyOp25
 70
     1
102
RTVSPropertyOp26
 70
     1
102
RTVSPropertyOp27
 70
     1
102
RTVSPropertyOp28
 70
     1
102
RTVSPropertyOp29
 70
     1
102
RTVSPropertyOp30
 70
     1
102
RTVSPropertyOp31
 70
     1
102
RTVSPropertyOp32
 70
     1
  0
XRECORD
  5
56
102
{ACAD_REACTORS
330
55
102
}
330
55
100
AcDbXrecord
280
     1
102
RTVSPropertyOp0
 70
     1
102
RTVSPropertyOp1
 70
     1
102
RTVSPropertyOp2
 70
     1
102
RTVSPropertyOp3
 70
     1
102
RTVSPropertyOp4
 70
     1
102
RTVSPropertyOp5
 70
     1
102
RTVSPropertyOp6
 70
     1
102
RTVSPropertyOp7
 70
     1
102
RTVSPropertyOp8
 70
     1
102
RTVSPropertyOp9
 70
     1
102
RTVSPropertyOp10
 70
     1
102
RTVSPropertyOp11
 70
     1
102
RTVSPropertyOp12
 70
     1
102
RTVSPropertyOp13
 70
     1
102
RTVSPropertyOp14
 70
     1
102
RTVSPropertyOp15
 70
     1
102
RTVSPropertyOp16
 70
     1
102
RTVSPropertyOp17
 70
     1
102
RTVSPropertyOp18
 70
     1
102
RTVSPropertyOp19
 70
     1
102
RTVSPropertyOp20
 70
     1
102
RTVSPropertyOp21
 70
     1
102
RTVSPropertyOp22
 70
     1
102
RTVSPropertyOp23
 70
     1
102
RTVSPropertyOp24
 70
     1
102
RTVSPropertyOp25
 70
     1
102
RTVSPropertyOp26
 70
     1
102
RTVSPropertyOp27
 70
     1
102
RTVSPropertyOp28
 70
     1
102
RTVSPropertyOp29
 70
     1
102
RTVSPropertyOp30
 70
     1
102
RTVSPropertyOp31
 70
     1
102
RTVSPropertyOp32
 70
     1
  0
XRECORD
  5
58
102
{ACAD_REACTORS
330
57
102
}
330
57
100
AcDbXrecord
280
     1
102
RTVSPropertyOp0
 70
     1
102
RTVSPropertyOp1
 70
     1
102
RTVSPropertyOp2
 70
     1
102
RTVSPropertyOp3
 70
     1
102
RTVSPropertyOp4
 70
     1
102
RTVSPropertyOp5
 70
     1
102
RTVSPropertyOp6
 70
     1
102
RTVSPropertyOp7
 70
     1
102
RTVSPropertyOp8
 70
     1
102
RTVSPropertyOp9
 70
     1
102
RTVSPropertyOp10
 70
     1
102
RTVSPropertyOp11
 70
     1
102
RTVSPropertyOp12
 70
     1
102
RTVSPropertyOp13
 70
     1
102
RTVSPropertyOp14
 70
     1
102
RTVSPropertyOp15
 70
     1
102
RTVSPropertyOp16
 70
     1
102
RTVSPropertyOp17
 70
     1
102
RTVSPropertyOp18
 70
     1
102
RTVSPropertyOp19
 70
     1
102
RTVSPropertyOp20
 70
     1
102
RTVSPropertyOp21
 70
     1
102
RTVSPropertyOp22
 70
     1
102
RTVSPropertyOp23
 70
     1
102
RTVSPropertyOp24
 70
     1
102
RTVSPropertyOp25
 70
     1
102
RTVSPropertyOp26
 70
     1
102
RTVSPropertyOp27
 70
     1
102
RTVSPropertyOp28
 70
     1
102
RTVSPropertyOp29
 70
     1
102
RTVSPropertyOp30
 70
     1
102
RTVSPropertyOp31
 70
     1
102
RTVSPropertyOp32
 70
     1
  0
XRECORD
  5
60
102
{ACAD_REACTORS
330
5F
102
}
330
5F
100
AcDbXrecord
280
     1
102
RTVSPropertyOp0
 70
     1
102
RTVSPropertyOp1
 70
     1
102
RTVSPropertyOp2
 70
     1
102
RTVSPropertyOp3
 70
     1
102
RTVSPropertyOp4
 70
     1
102
RTVSPropertyOp5
 70
     1
102
RTVSPropertyOp6
 70
     1
102
RTVSPropertyOp7
 70
     1
102
RTVSPropertyOp8
 70
     1
102
RTVSPropertyOp9
 70
     1
102
RTVSPropertyOp10
 70
     1
102
RTVSPropertyOp11
 70
     1
102
RTVSPropertyOp12
 70
     1
102
RTVSPropertyOp13
 70
     1
102
RTVSPropertyOp14
 70
     1
102
RTVSPropertyOp15
 70
     1
102
RTVSPropertyOp16
 70
     1
102
RTVSPropertyOp17
 70
     1
102
RTVSPropertyOp18
 70
     1
102
RTVSPropertyOp19
 70
     1
102
RTVSPropertyOp20
 70
     1
102
RTVSPropertyOp21
 70
     1
102
RTVSPropertyOp22
 70
     1
102
RTVSPropertyOp23
 70
     1
102
RTVSPropertyOp24
 70
     1
102
RTVSPropertyOp25
 70
     1
102
RTVSPropertyOp26
 70
     1
102
RTVSPropertyOp27
 70
     1
102
RTVSPropertyOp28
 70
     1
102
RTVSPropertyOp29
 70
     1
102
RTVSPropertyOp30
 70
     1
102
RTVSPropertyOp31
 70
     1
102
RTVSPropertyOp32
 70
     1
  0
XRECORD
  5
44
102
{ACAD_REACTORS
330
43
102
}
330
43
100
AcDbXrecord
280
     1
102
RTVSPropertyOp0
 70
     1
102
RTVSPropertyOp1
 70
     1
102
RTVSPropertyOp2
 70
     1
102
RTVSPropertyOp3
 70
     1
102
RTVSPropertyOp4
 70
     1
102
RTVSPropertyOp5
 70
     1
102
RTVSPropertyOp6
 70
     1
102
RTVSPropertyOp7
 70
     1
102
RTVSPropertyOp8
 70
     1
102
RTVSPropertyOp9
 70
     1
102
RTVSPropertyOp10
 70
     1
102
RTVSPropertyOp11
 70
     1
102
RTVSPropertyOp12
 70
     1
102
RTVSPropertyOp13
 70
     1
102
RTVSPropertyOp14
 70
     1
102
RTVSPropertyOp15
 70
     1
102
RTVSPropertyOp16
 70
     1
102
RTVSPropertyOp17
 70
     1
102
RTVSPropertyOp18
 70
     1
102
RTVSPropertyOp19
 70
     1
102
RTVSPropertyOp20
 70
     1
102
RTVSPropertyOp21
 70
     1
102
RTVSPropertyOp22
 70
     1
102
RTVSPropertyOp23
 70
     1
102
RTVSPropertyOp24
 70
     1
102
RTVSPropertyOp25
 70
     1
102
RTVSPropertyOp26
 70
     1
102
RTVSPropertyOp27
 70
     1
102
RTVSPropertyOp28
 70
     1
102
RTVSPropertyOp29
 70
     1
102
RTVSPropertyOp30
 70
     1
102
RTVSPropertyOp31
 70
     1
102
RTVSPropertyOp32
 70
     1
  0
XRECORD
  5
46
102
{ACAD_REACTORS
330
45
102
}
330
45
100
AcDbXrecord
280
     1
102
RTVSPropertyOp0
 70
     1
102
RTVSPropertyOp1
 70
     1
102
RTVSPropertyOp2
 70
     1
102
RTVSPropertyOp3
 70
     1
102
RTVSPropertyOp4
 70
     1
102
RTVSPropertyOp5
 70
     1
102
RTVSPropertyOp6
 70
     1
102
RTVSPropertyOp7
 70
     1
102
RTVSPropertyOp8
 70
     1
102
RTVSPropertyOp9
 70
     1
102
RTVSPropertyOp10
 70
     1
102
RTVSPropertyOp11
 70
     1
102
RTVSPropertyOp12
 70
     1
102
RTVSPropertyOp13
 70
     1
102
RTVSPropertyOp14
 70
     1
102
RTVSPropertyOp15
 70
     1
102
RTVSPropertyOp16
 70
     1
102
RTVSPropertyOp17
 70
     1
102
RTVSPropertyOp18
 70
     1
102
RTVSPropertyOp19
 70
     1
102
RTVSPropertyOp20
 70
     1
102
RTVSPropertyOp21
 70
     1
102
RTVSPropertyOp22
 70
     1
102
RTVSPropertyOp23
 70
     1
102
RTVSPropertyOp24
 70
     1
102
RTVSPropertyOp25
 70
     1
102
RTVSPropertyOp26
 70
     1
102
RTVSPropertyOp27
 70
     1
102
RTVSPropertyOp28
 70
     1
102
RTVSPropertyOp29
 70
     1
102
RTVSPropertyOp30
 70
     1
102
RTVSPropertyOp31
 70
     1
102
RTVSPropertyOp32
 70
     1
  0
XRECORD
  5
48
102
{ACAD_REACTORS
330
47
102
}
330
47
100
AcDbXrecord
280
     1
102
RTVSPropertyOp0
 70
     1
102
RTVSPropertyOp1
 70
     1
102
RTVSPropertyOp2
 70
     1
102
RTVSPropertyOp3
 70
     1
102
RTVSPropertyOp4
 70
     1
102
RTVSPropertyOp5
 70
     1
102
RTVSPropertyOp6
 70
     1
102
RTVSPropertyOp7
 70
     1
102
RTVSPropertyOp8
 70
     1
102
RTVSPropertyOp9
 70
     1
102
RTVSPropertyOp10
 70
     1
102
RTVSPropertyOp11
 70
     1
102
RTVSPropertyOp12
 70
     1
102
RTVSPropertyOp13
 70
     1
102
RTVSPropertyOp14
 70
     1
102
RTVSPropertyOp15
 70
     1
102
RTVSPropertyOp16
 70
     1
102
RTVSPropertyOp17
 70
     1
102
RTVSPropertyOp18
 70
     1
102
RTVSPropertyOp19
 70
     1
102
RTVSPropertyOp20
 70
     1
102
RTVSPropertyOp21
 70
     1
102
RTVSPropertyOp22
 70
     1
102
RTVSPropertyOp23
 70
     1
102
RTVSPropertyOp24
 70
     1
102
RTVSPropertyOp25
 70
     1
102
RTVSPropertyOp26
 70
     1
102
RTVSPropertyOp27
 70
     1
102
RTVSPropertyOp28
 70
     1
102
RTVSPropertyOp29
 70
     1
102
RTVSPropertyOp30
 70
     1
102
RTVSPropertyOp31
 70
     1
102
RTVSPropertyOp32
 70
     1
  0
XRECORD
  5
4A
102
{ACAD_REACTORS
330
49
102
}
330
49
100
AcDbXrecord
280
     1
102
RTVSPropertyOp0
 70
     1
102
RTVSPropertyOp1
 70
     1
102
RTVSPropertyOp2
 70
     1
102
RTVSPropertyOp3
 70
     1
102
RTVSPropertyOp4
 70
     1
102
RTVSPropertyOp5
 70
     1
102
RTVSPropertyOp6
 70
     1
102
RTVSPropertyOp7
 70
     1
102
RTVSPropertyOp8
 70
     1
102
RTVSPropertyOp9
 70
     1
102
RTVSPropertyOp10
 70
     1
102
RTVSPropertyOp11
 70
     1
102
RTVSPropertyOp12
 70
     1
102
RTVSPropertyOp13
 70
     1
102
RTVSPropertyOp14
 70
     1
102
RTVSPropertyOp15
 70
     1
102
RTVSPropertyOp16
 70
     1
102
RTVSPropertyOp17
 70
     1
102
RTVSPropertyOp18
 70
     1
102
RTVSPropertyOp19
 70
     1
102
RTVSPropertyOp20
 70
     1
102
RTVSPropertyOp21
 70
     1
102
RTVSPropertyOp22
 70
     1
102
RTVSPropertyOp23
 70
     1
102
RTVSPropertyOp24
 70
     1
102
RTVSPropertyOp25
 70
     1
102
RTVSPropertyOp26
 70
     1
102
RTVSPropertyOp27
 70
     1
102
RTVSPropertyOp28
 70
     1
102
RTVSPropertyOp29
 70
     1
102
RTVSPropertyOp30
 70
     1
102
RTVSPropertyOp31
 70
     1
102
RTVSPropertyOp32
 70
     1
  0
XRECORD
  5
5E
102
{ACAD_REACTORS
330
5D
102
}
330
5D
100
AcDbXrecord
280
     1
102
RTVSPropertyOp0
 70
     1
102
RTVSPropertyOp1
 70
     1
102
RTVSPropertyOp2
 70
     1
102
RTVSPropertyOp3
 70
     1
102
RTVSPropertyOp4
 70
     1
102
RTVSPropertyOp5
 70
     1
102
RTVSPropertyOp6
 70
     1
102
RTVSPropertyOp7
 70
     1
102
RTVSPropertyOp8
 70
     1
102
RTVSPropertyOp9
 70
     1
102
RTVSPropertyOp10
 70
     1
102
RTVSPropertyOp11
 70
     1
102
RTVSPropertyOp12
 70
     1
102
RTVSPropertyOp13
 70
     1
102
RTVSPropertyOp14
 70
     1
102
RTVSPropertyOp15
 70
     1
102
RTVSPropertyOp16
 70
     1
102
RTVSPropertyOp17
 70
     1
102
RTVSPropertyOp18
 70
     1
102
RTVSPropertyOp19
 70
     1
102
RTVSPropertyOp20
 70
     1
102
RTVSPropertyOp21
 70
     1
102
RTVSPropertyOp22
 70
     1
102
RTVSPropertyOp23
 70
     1
102
RTVSPropertyOp24
 70
     1
102
RTVSPropertyOp25
 70
     1
102
RTVSPropertyOp26
 70
     1
102
RTVSPropertyOp27
 70
     1
102
RTVSPropertyOp28
 70
     1
102
RTVSPropertyOp29
 70
     1
102
RTVSPropertyOp30
 70
     1
102
RTVSPropertyOp31
 70
     1
102
RTVSPropertyOp32
 70
     1
  0
XRECORD
  5
54
102
{ACAD_REACTORS
330
53
102
}
330
53
100
AcDbXrecord
280
     1
102
RTVSPropertyOp0
 70
     1
102
RTVSPropertyOp1
 70
     1
102
RTVSPropertyOp2
 70
     1
102
RTVSPropertyOp3
 70
     1
102
RTVSPropertyOp4
 70
     1
102
RTVSPropertyOp5
 70
     1
102
RTVSPropertyOp6
 70
     1
102
RTVSPropertyOp7
 70
     1
102
RTVSPropertyOp8
 70
     1
102
RTVSPropertyOp9
 70
     1
102
RTVSPropertyOp10
 70
     1
102
RTVSPropertyOp11
 70
     1
102
RTVSPropertyOp12
 70
     1
102
RTVSPropertyOp13
 70
     1
102
RTVSPropertyOp14
 70
     1
102
RTVSPropertyOp15
 70
     1
102
RTVSPropertyOp16
 70
     1
102
RTVSPropertyOp17
 70
     1
102
RTVSPropertyOp18
 70
     1
102
RTVSPropertyOp19
 70
     1
102
RTVSPropertyOp20
 70
     1
102
RTVSPropertyOp21
 70
     1
102
RTVSPropertyOp22
 70
     1
102
RTVSPropertyOp23
 70
     1
102
RTVSPropertyOp24
 70
     1
102
RTVSPropertyOp25
 70
     1
102
RTVSPropertyOp26
 70
     1
102
RTVSPropertyOp27
 70
     1
102
RTVSPropertyOp28
 70
     1
102
RTVSPropertyOp29
 70
     1
102
RTVSPropertyOp30
 70
     1
102
RTVSPropertyOp31
 70
     1
102
RTVSPropertyOp32
 70
     1
  0
XRECORD
  5
5C
102
{ACAD_REACTORS
330
5B
102
}
330
5B
100
AcDbXrecord
280
     1
102
RTVSPropertyOp0
 70
     1
102
RTVSPropertyOp1
 70
     1
102
RTVSPropertyOp2
 70
     1
102
RTVSPropertyOp3
 70
     1
102
RTVSPropertyOp4
 70
     1
102
RTVSPropertyOp5
 70
     1
102
RTVSPropertyOp6
 70
     1
102
RTVSPropertyOp7
 70
     1
102
RTVSPropertyOp8
 70
     1
102
RTVSPropertyOp9
 70
     1
102
RTVSPropertyOp10
 70
     1
102
RTVSPropertyOp11
 70
     1
102
RTVSPropertyOp12
 70
     1
102
RTVSPropertyOp13
 70
     1
102
RTVSPropertyOp14
 70
     1
102
RTVSPropertyOp15
 70
     1
102
RTVSPropertyOp16
 70
     1
102
RTVSPropertyOp17
 70
     1
102
RTVSPropertyOp18
 70
     1
102
RTVSPropertyOp19
 70
     1
102
RTVSPropertyOp20
 70
     1
102
RTVSPropertyOp21
 70
     1
102
RTVSPropertyOp22
 70
     1
102
RTVSPropertyOp23
 70
     1
102
RTVSPropertyOp24
 70
     1
102
RTVSPropertyOp25
 70
     1
102
RTVSPropertyOp26
 70
     1
102
RTVSPropertyOp27
 70
     1
102
RTVSPropertyOp28
 70
     1
102
RTVSPropertyOp29
 70
     1
102
RTVSPropertyOp30
 70
     1
102
RTVSPropertyOp31
 70
     1
102
RTVSPropertyOp32
 70
     1
  0
ENDSEC
  0
EOF
