  0
SECTION
  2
HEADER
  9
$ACADVER
  1
AC1021
  9
$ACADMAINTVER
 70
    25
  9
$DWGCODEPAGE
  3
ANSI_1252
  9
$INSBASE
 10
0.0
 20
0.0
 30
0.0
  9
$EXTMIN
 10
1.000000000000000E+20
 20
1.000000000000000E+20
 30
1.000000000000000E+20
  9
$EXTMAX
 10
-1.000000000000000E+20
 20
-1.000000000000000E+20
 30
-1.000000000000000E+20
  9
$LIMMIN
 10
0.0
 20
0.0
  9
$LIMMAX
 10
12.0
 20
9.0
  9
$ORTHOMODE
 70
     0
  9
$REGENMODE
 70
     1
  9
$FILLMODE
 70
     1
  9
$QTEXTMODE
 70
     0
  9
$MIRRTEXT
 70
     1
  9
$LTSCALE
 40
1.0
  9
$ATTMODE
 70
     1
  9
$TEXTSIZE
 40
0.2
  9
$TRACEWID
 40
0.05
  9
$TEXTSTYLE
  7
Standard
  9
$CLAYER
  8
0
  9
$CELTYPE
  6
ByLayer
  9
$CECOLOR
 62
   256
  9
$CELTSCALE
 40
1.0
  9
$DISPSILH
 70
     0
  9
$DIMSCALE
 40
1.0
  9
$DIMASZ
 40
0.18
  9
$DIMEXO
 40
0.0625
  9
$DIMDLI
 40
0.38
  9
$DIMRND
 40
0.0
  9
$DIMDLE
 40
0.0
  9
$DIMEXE
 40
0.18
  9
$DIMTP
 40
0.0
  9
$DIMTM
 40
0.0
  9
$DIMTXT
 40
0.18
  9
$DIMCEN
 40
0.09
  9
$DIMTSZ
 40
0.0
  9
$DIMTOL
 70
     0
  9
$DIMLIM
 70
     0
  9
$DIMTIH
 70
     1
  9
$DIMTOH
 70
     1
  9
$DIMSE1
 70
     0
  9
$DIMSE2
 70
     0
  9
$DIMTAD
 70
     0
  9
$DIMZIN
 70
     0
  9
$DIMBLK
  1

  9
$DIMASO
 70
     1
  9
$DIMSHO
 70
     1
  9
$DIMPOST
  1

  9
$DIMAPOST
  1

  9
$DIMALT
 70
     0
  9
$DIMALTD
 70
     2
  9
$DIMALTF
 40
25.4
  9
$DIMLFAC
 40
1.0
  9
$DIMTOFL
 70
     0
  9
$DIMTVP
 40
0.0
  9
$DIMTIX
 70
     0
  9
$DIMSOXD
 70
     0
  9
$DIMSAH
 70
     0
  9
$DIMBLK1
  1

  9
$DIMBLK2
  1

  9
$DIMSTYLE
  2
Standard
  9
$DIMCLRD
 70
     0
  9
$DIMCLRE
 70
     0
  9
$DIMCLRT
 70
     0
  9
$DIMTFAC
 40
1.0
  9
$DIMGAP
 40
0.09
  9
$DIMJUST
 70
     0
  9
$DIMSD1
 70
     0
  9
$DIMSD2
 70
     0
  9
$DIMTOLJ
 70
     1
  9
$DIMTZIN
 70
     0
  9
$DIMALTZ
 70
     0
  9
$DIMALTTZ
 70
     0
  9
$DIMUPT
 70
     0
  9
$DIMDEC
 70
     4
  9
$DIMTDEC
 70
     4
  9
$DIMALTU
 70
     2
  9
$DIMALTTD
 70
     2
  9
$DIMTXSTY
  7
Standard
  9
$DIMAUNIT
 70
     0
  9
$DIMADEC
 70
     0
  9
$DIMALTRND
 40
0.0
  9
$DIMAZIN
 70
     0
  9
$DIMDSEP
 70
    46
  9
$DIMATFIT
 70
     3
  9
$DIMFRAC
 70
     0
  9
$DIMLDRBLK
  1

  9
$DIMLUNIT
 70
     2
  9
$DIMLWD
 70
    -2
  9
$DIMLWE
 70
    -2
  9
$DIMTMOVE
 70
     0
  9
$DIMFXL
 40
1.0
  9
$DIMFXLON
 70
     0
  9
$DIMJOGANG
 40
0.7853981633974483
  9
$DIMTFILL
 70
     0
  9
$DIMTFILLCLR
 70
     0
  9
$DIMARCSYM
 70
     0
  9
$DIMLTYPE
  6

  9
$DIMLTEX1
  6

  9
$DIMLTEX2
  6

  9
$LUNITS
 70
     2
  9
$LUPREC
 70
     4
  9
$SKETCHINC
 40
0.1
  9
$FILLETRAD
 40
0.5
  9
$AUNITS
 70
     0
  9
$AUPREC
 70
     0
  9
$MENU
  1
.
  9
$ELEVATION
 40
0.0
  9
$PELEVATION
 40
0.0
  9
$THICKNESS
 40
0.0
  9
$LIMCHECK
 70
     0
  9
$CHAMFERA
 40
0.5
  9
$CHAMFERB
 40
0.5
  9
$CHAMFERC
 40
1.0
  9
$CHAMFERD
 40
0.0
  9
$SKPOLY
 70
     0
  9
$TDCREATE
 40
2458551.626415683
  9
$TDUCREATE
 40
2458551.334749016
  9
$TDUPDATE
 40
2458551.626415868
  9
$TDUUPDATE
 40
2458551.334749201
  9
$TDINDWG
 40
0.0000000116
  9
$TDUSRTIMER
 40
0.0000000116
  9
$USRTIMER
 70
     1
  9
$ANGBASE
 50
0.0
  9
$ANGDIR
 70
     0
  9
$PDMODE
 70
     0
  9
$PDSIZE
 40
0.0
  9
$PLINEWID
 40
0.0
  9
$SPLFRAME
 70
     0
  9
$SPLINETYPE
 70
     6
  9
$SPLINESEGS
 70
     8
  9
$HANDSEED
  5
65
  9
$SURFTAB1
 70
     6
  9
$SURFTAB2
 70
     6
  9
$SURFTYPE
 70
     6
  9
$SURFU
 70
     6
  9
$SURFV
 70
     6
  9
$UCSBASE
  2

  9
$UCSNAME
  2

  9
$UCSORG
 10
0.0
 20
0.0
 30
0.0
  9
$UCSXDIR
 10
1.0
 20
0.0
 30
0.0
  9
$UCSYDIR
 10
0.0
 20
1.0
 30
0.0
  9
$UCSORTHOREF
  2

  9
$UCSORTHOVIEW
 70
     0
  9
$UCSORGTOP
 10
0.0
 20
0.0
 30
0.0
  9
$UCSORGBOTTOM
 10
0.0
 20
0.0
 30
0.0
  9
$UCSORGLEFT
 10
0.0
 20
0.0
 30
0.0
  9
$UCSORGRIGHT
 10
0.0
 20
0.0
 30
0.0
  9
$UCSORGFRONT
 10
0.0
 20
0.0
 30
0.0
  9
$UCSORGBACK
 10
0.0
 20
0.0
 30
0.0
  9
$PUCSBASE
  2

  9
$PUCSNAME
  2

  9
$PUCSORG
 10
0.0
 20
0.0
 30
0.0
  9
$PUCSXDIR
 10
1.0
 20
0.0
 30
0.0
  9
$PUCSYDIR
 10
0.0
 20
1.0
 30
0.0
  9
$PUCSORTHOREF
  2

  9
$PUCSORTHOVIEW
 70
     0
  9
$PUCSORGTOP
 10
0.0
 20
0.0
 30
0.0
  9
$PUCSORGBOTTOM
 10
0.0
 20
0.0
 30
0.0
  9
$PUCSORGLEFT
 10
0.0
 20
0.0
 30
0.0
  9
$PUCSORGRIGHT
 10
0.0
 20
0.0
 30
0.0
  9
$PUCSORGFRONT
 10
0.0
 20
0.0
 30
0.0
  9
$PUCSORGBACK
 10
0.0
 20
0.0
 30
0.0
  9
$USERI1
 70
     0
  9
$USERI2
 70
     0
  9
$USERI3
 70
     0
  9
$USERI4
 70
     0
  9
$USERI5
 70
     0
  9
$USERR1
 40
0.0
  9
$USERR2
 40
0.0
  9
$USERR3
 40
0.0
  9
$USERR4
 40
0.0
  9
$USERR5
 40
0.0
  9
$WORLDVIEW
 70
     1
  9
$SHADEDGE
 70
     3
  9
$SHADEDIF
 70
    70
  9
$TILEMODE
 70
     1
  9
$MAXACTVP
 70
    64
  9
$PINSBASE
 10
0.0
 20
0.0
 30
0.0
  9
$PLIMCHECK
 70
     0
  9
$PEXTMIN
 10
1.000000000000000E+20
 20
1.000000000000000E+20
 30
1.000000000000000E+20
  9
$PEXTMAX
 10
-1.000000000000000E+20
 20
-1.000000000000000E+20
 30
-1.000000000000000E+20
  9
$PLIMMIN
 10
0.0
 20
0.0
  9
$PLIMMAX
 10
12.0
 20
9.0
  9
$UNITMODE
 70
     0
  9
$VISRETAIN
 70
     1
  9
$PLINEGEN
 70
     0
  9
$PSLTSCALE
 70
     1
  9
$TREEDEPTH
 70
  3020
  9
$CMLSTYLE
  2
Standard
  9
$CMLJUST
 70
     0
  9
$CMLSCALE
 40
1.0
  9
$PROXYGRAPHICS
 70
     1
  9
$MEASUREMENT
 70
     0
  9
$CELWEIGHT
370
    -1
  9
$ENDCAPS
280
     0
  9
$JOINSTYLE
280
     0
  9
$LWDISPLAY
290
     1
  9
$INSUNITS
 70
     1
  9
$HYPERLINKBASE
  1

  9
$STYLESHEET
  1

  9
$XEDIT
290
     1
  9
$CEPSNTYPE
380
     0
  9
$PSTYLEMODE
290
     1
  9
$FINGERPRINTGUID
  2
{1C0B40A8-231F-4F20-9380-764E49B5F60A}
  9
$VERSIONGUID
  2
{FAEB1C32-E019-11D5-929B-00C0DF256EC4}
  9
$EXTNAMES
290
     1
  9
$PSVPSCALE
 40
0.0
  9
$OLESTARTUP
290
     0
  9
$SORTENTS
280
   127
  9
$INDEXCTL
280
     0
  9
$HIDETEXT
280
     1
  9
$XCLIPFRAME
290
     0
  9
$HALOGAP
280
     0
  9
$OBSCOLOR
 70
   257
  9
$OBSLTYPE
280
     0
  9
$INTERSECTIONDISPLAY
280
     0
  9
$INTERSECTIONCOLOR
 70
   257
  9
$DIMASSOC
280
     2
  9
$PROJECTNAME
  1

  9
$CAMERADISPLAY
290
     0
  9
$LENSLENGTH
 40
50.0
  9
$CAMERAHEIGHT
 40
0.0
  9
$STEPSPERSEC
 40
2.0
  9
$STEPSIZE
 40
6.0
  9
$3DDWFPREC
 40
2.0
  9
$PSOLWIDTH
 40
0.25
  9
$PSOLHEIGHT
 40
4.0
  9
$LOFTANG1
 40
1.570796326794897
  9
$LOFTANG2
 40
1.570796326794897
  9
$LOFTMAG1
 40
0.0
  9
$LOFTMAG2
 40
0.0
  9
$LOFTPARAM
 70
     7
  9
$LOFTNORMALS
280
     1
  9
$LATITUDE
 40
37.795
  9
$LONGITUDE
 40
-122.394
  9
$NORTHDIRECTION
 40
0.0
  9
$TIMEZONE
 70
 -8000
  9
$LIGHTGLYPHDISPLAY
280
     1
  9
$TILEMODELIGHTSYNCH
280
     1
  9
$CMATERIAL
347
3C
  9
$SOLIDHIST
280
     1
  9
$SHOWHIST
280
     1
  9
$DWFFRAME
280
     2
  9
$DGNFRAME
280
     2
  9
$REALWORLDSCALE
290
     1
  9
$INTERFERECOLOR
 62
   256
  9
$CSHADOW
280
     0
  9
$SHADOWPLANELOCATION
 40
0.0
  0
ENDSEC
  0
SECTION
  2
CLASSES
  0
CLASS
  1
ACDBDICTIONARYWDFLT
  2
AcDbDictionaryWithDefault
  3
ObjectDBX Classes
 90
        0
 91
        4
280
     0
281
     0
  0
CLASS
  1
VISUALSTYLE
  2
AcDbVisualStyle
  3
ObjectDBX Classes
 90
     4095
 91
        4
280
     0
281
     0
  0
CLASS
  1
MATERIAL
  2
AcDbMaterial
  3
ObjectDBX Classes
 90
     1153
 91
        4
280
     0
281
     0
  0
CLASS
  1
SUN
  2
AcDbSun
  3
SCENEOE
 90
     1024
 91
        4
280
     0
281
     0
  0
ENDSEC
  0
SECTION
  2
TABLES
  0
TABLE
  2
VPORT
  5
8
330
0
100
AcDbSymbolTable
 70
     1
  0
VPORT
  5
29
330
8
100
AcDbSymbolTableRecord
100
AcDbViewportTableRecord
  2
*Active
 70
     0
 10
0.0
 20
0.0
 11
1.0
 21
1.0
 12
0.0
 22
0.0
 13
0.0
 23
0.0
 14
0.5
 24
0.5
 15
0.5
 25
0.5
 16
0.0
 26
0.0
 36
1.0
 17
39.99961911841359
 27
-39.99962012888904
 37
0.0
 40
79.99924025777808
 41
0.9999999747378738
 42
50.0
 43
0.0
 44
0.0
 50
0.0
 51
0.0
 71
     0
 72
   100
 73
     1
 74
     3
 75
     0
 76
     0
 77
     0
 78
     0
281
     0
 65
     1
110
0.0
120
0.0
130
0.0
111
1.0
121
0.0
131
0.0
112
0.0
122
1.0
132
0.0
 79
     0
146
0.0
 60
     3
 61
     5
292
     1
282
     1
141
0.0
142
0.0
 63
   250
361
3F
  0
ENDTAB
  0
TABLE
  2
LTYPE
  5
5
330
0
100
AcDbSymbolTable
 70
     1
  0
LTYPE
  5
14
330
5
100
AcDbSymbolTableRecord
100
AcDbLinetypeTableRecord
  2
ByBlock
 70
     0
  3

 72
    65
 73
     0
 40
0.0
  0
LTYPE
  5
15
330
5
100
AcDbSymbolTableRecord
100
AcDbLinetypeTableRecord
  2
ByLayer
 70
     0
  3

 72
    65
 73
     0
 40
0.0
  0
LTYPE
  5
16
330
5
100
AcDbSymbolTableRecord
100
AcDbLinetypeTableRecord
  2
Continuous
 70
     0
  3
Solid line
 72
    65
 73
     0
 40
0.0
  0
ENDTAB
  0
TABLE
  2
LAYER
  5
2
330
0
100
AcDbSymbolTable
 70
     2
  0
LAYER
  5
10
330
2
100
AcDbSymbolTableRecord
100
AcDbLayerTableRecord
  2
0
 70
     0
 62
     7
  6
Continuous
370
    -3
390
F
347
3E
  0
LAYER
  5
40
330
2
100
AcDbSymbolTableRecord
100
AcDbLayerTableRecord
  2
Layer 1
 70
     0
 62
     7
  6
Continuous
370
    -3
390
F
347
3E
  0
ENDTAB
  0
TABLE
  2
STYLE
  5
3
330
0
100
AcDbSymbolTable
 70
     1
  0
STYLE
  5
11
330
3
100
AcDbSymbolTableRecord
100
AcDbTextStyleTableRecord
  2
Standard
 70
     0
 40
0.0
 41
1.0
 50
0.0
 71
     0
 42
0.2
  3
txt
  4

  0
ENDTAB
  0
TABLE
  2
VIEW
  5
6
330
0
100
AcDbSymbolTable
 70
     0
  0
ENDTAB
  0
TABLE
  2
UCS
  5
7
330
0
100
AcDbSymbolTable
 70
     0
  0
ENDTAB
  0
TABLE
  2
APPID
  5
9
330
0
100
AcDbSymbolTable
 70
     1
  0
APPID
  5
12
330
9
100
AcDbSymbolTableRecord
100
AcDbRegAppTableRecord
  2
ACAD
 70
     0
  0
ENDTAB
  0
TABLE
  2
DIMSTYLE
  5
A
330
0
100
AcDbSymbolTable
 70
     1
100
AcDbDimStyleTable
  0
DIMSTYLE
105
27
330
A
100
AcDbSymbolTableRecord
100
AcDbDimStyleTableRecord
  2
Standard
 70
     0
178
     0
340
11
  0
ENDTAB
  0
TABLE
  2
BLOCK_RECORD
  5
1
330
0
100
AcDbSymbolTable
 70
     1
  0
BLOCK_RECORD
  5
1F
330
1
100
AcDbSymbolTableRecord
100
AcDbBlockTableRecord
  2
*Model_Space
340
22
 70
     0
280
     1
281
     0
  0
BLOCK_RECORD
  5
1B
330
1
100
AcDbSymbolTableRecord
100
AcDbBlockTableRecord
  2
*Paper_Space
340
1E
 70
     0
280
     1
281
     0
  0
BLOCK_RECORD
  5
23
330
1
100
AcDbSymbolTableRecord
100
AcDbBlockTableRecord
  2
*Paper_Space0
340
26
 70
     0
280
     1
281
     0
  0
ENDTAB
  0
ENDSEC
  0
SECTION
  2
BLOCKS
  0
BLOCK
  5
20
330
1F
100
AcDbEntity
  8
0
100
AcDbBlockBegin
  2
*Model_Space
 70
     0
 10
0.0
 20
0.0
 30
0.0
  3
*Model_Space
  1

  0
ENDBLK
  5
21
330
1F
100
AcDbEntity
  8
0
100
AcDbBlockEnd
  0
BLOCK
  5
1C
330
1B
100
AcDbEntity
 67
     1
  8
0
100
AcDbBlockBegin
  2
*Paper_Space
 70
     0
 10
0.0
 20
0.0
 30
0.0
  3
*Paper_Space
  1

  0
ENDBLK
  5
1D
330
1B
100
AcDbEntity
 67
     1
  8
0
100
AcDbBlockEnd
  0
BLOCK
  5
24
330
23
100
AcDbEntity
  8
0
100
AcDbBlockBegin
  2
*Paper_Space0
 70
     0
 10
0.0
 20
0.0
 30
0.0
  3
*Paper_Space0
  1

  0
ENDBLK
  5
25
330
23
100
AcDbEntity
  8
0
100
AcDbBlockEnd
  0
ENDSEC
  0
SECTION
  2
ENTITIES
  0
SPLINE
  5
41
330
1F
100
AcDbEntity
  8
Layer 1
370
     0
100
AcDbSpline
210
0.0
220
0.0
230
1.0
 70
    11
 71
     3
 72
   359
 73
   355
 74
     0
 42
0.0000000001
 43
0.0000000001
 12
1.0
 22
0.0
 32
0.0
 13
1.0
 23
0.0
 33
0.0
 40
0.0
 40
0.0
 40
0.0
 40
0.0
 40
1.0
 40
1.0
 40
1.0
 40
2.0
 40
2.0
 40
2.0
 40
3.0
 40
3.0
 40
3.0
 40
4.0
 40
4.0
 40
4.0
 40
5.0
 40
5.0
 40
5.0
 40
6.0
 40
6.0
 40
6.0
 40
7.0
 40
7.0
 40
7.0
 40
8.0
 40
8.0
 40
8.0
 40
9.0
 40
9.0
 40
9.0
 40
10.0
 40
10.0
 40
10.0
 40
11.0
 40
11.0
 40
11.0
 40
12.0
 40
12.0
 40
12.0
 40
13.0
 40
13.0
 40
13.0
 40
14.0
 40
14.0
 40
14.0
 40
15.0
 40
15.0
 40
15.0
 40
16.0
 40
16.0
 40
16.0
 40
17.0
 40
17.0
 40
17.0
 40
18.0
 40
18.0
 40
18.0
 40
19.0
 40
19.0
 40
19.0
 40
20.0
 40
20.0
 40
20.0
 40
21.0
 40
21.0
 40
21.0
 40
22.0
 40
22.0
 40
22.0
 40
23.0
 40
23.0
 40
23.0
 40
24.0
 40
24.0
 40
24.0
 40
25.0
 40
25.0
 40
25.0
 40
26.0
 40
26.0
 40
26.0
 40
27.0
 40
27.0
 40
27.0
 40
28.0
 40
28.0
 40
28.0
 40
29.0
 40
29.0
 40
29.0
 40
30.0
 40
30.0
 40
30.0
 40
31.0
 40
31.0
 40
31.0
 40
32.0
 40
32.0
 40
32.0
 40
33.0
 40
33.0
 40
33.0
 40
34.0
 40
34.0
 40
34.0
 40
35.0
 40
35.0
 40
35.0
 40
36.0
 40
36.0
 40
36.0
 40
37.0
 40
37.0
 40
37.0
 40
38.0
 40
38.0
 40
38.0
 40
39.0
 40
39.0
 40
39.0
 40
40.0
 40
40.0
 40
40.0
 40
41.0
 40
41.0
 40
41.0
 40
42.0
 40
42.0
 40
42.0
 40
43.0
 40
43.0
 40
43.0
 40
44.0
 40
44.0
 40
44.0
 40
45.0
 40
45.0
 40
45.0
 40
46.0
 40
46.0
 40
46.0
 40
47.0
 40
47.0
 40
47.0
 40
48.0
 40
48.0
 40
48.0
 40
49.0
 40
49.0
 40
49.0
 40
50.0
 40
50.0
 40
50.0
 40
51.0
 40
51.0
 40
51.0
 40
52.0
 40
52.0
 40
52.0
 40
53.0
 40
53.0
 40
53.0
 40
54.0
 40
54.0
 40
54.0
 40
55.0
 40
55.0
 40
55.0
 40
56.0
 40
56.0
 40
56.0
 40
57.0
 40
57.0
 40
57.0
 40
58.0
 40
58.0
 40
58.0
 40
59.0
 40
59.0
 40
59.0
 40
60.0
 40
60.0
 40
60.0
 40
61.0
 40
61.0
 40
61.0
 40
62.0
 40
62.0
 40
62.0
 40
63.0
 40
63.0
 40
63.0
 40
64.0
 40
64.0
 40
64.0
 40
65.0
 40
65.0
 40
65.0
 40
66.0
 40
66.0
 40
66.0
 40
67.0
 40
67.0
 40
67.0
 40
68.0
 40
68.0
 40
68.0
 40
69.0
 40
69.0
 40
69.0
 40
70.0
 40
70.0
 40
70.0
 40
71.0
 40
71.0
 40
71.0
 40
72.0
 40
72.0
 40
72.0
 40
73.0
 40
73.0
 40
73.0
 40
74.0
 40
74.0
 40
74.0
 40
75.0
 40
75.0
 40
75.0
 40
76.0
 40
76.0
 40
76.0
 40
77.0
 40
77.0
 40
77.0
 40
78.0
 40
78.0
 40
78.0
 40
79.0
 40
79.0
 40
79.0
 40
80.0
 40
80.0
 40
80.0
 40
81.0
 40
81.0
 40
81.0
 40
82.0
 40
82.0
 40
82.0
 40
83.0
 40
83.0
 40
83.0
 40
84.0
 40
84.0
 40
84.0
 40
85.0
 40
85.0
 40
85.0
 40
86.0
 40
86.0
 40
86.0
 40
87.0
 40
87.0
 40
87.0
 40
88.0
 40
88.0
 40
88.0
 40
89.0
 40
89.0
 40
89.0
 40
90.0
 40
90.0
 40
90.0
 40
91.0
 40
91.0
 40
91.0
 40
92.0
 40
92.0
 40
92.0
 40
93.0
 40
93.0
 40
93.0
 40
94.0
 40
94.0
 40
94.0
 40
95.0
 40
95.0
 40
95.0
 40
96.0
 40
96.0
 40
96.0
 40
97.0
 40
97.0
 40
97.0
 40
98.0
 40
98.0
 40
98.0
 40
99.0
 40
99.0
 40
99.0
 40
100.0
 40
100.0
 40
100.0
 40
101.0
 40
101.0
 40
101.0
 40
102.0
 40
102.0
 40
102.0
 40
103.0
 40
103.0
 40
103.0
 40
104.0
 40
104.0
 40
104.0
 40
105.0
 40
105.0
 40
105.0
 40
106.0
 40
106.0
 40
106.0
 40
107.0
 40
107.0
 40
107.0
 40
108.0
 40
108.0
 40
108.0
 40
109.0
 40
109.0
 40
109.0
 40
110.0
 40
110.0
 40
110.0
 40
111.0
 40
111.0
 40
111.0
 40
112.0
 40
112.0
 40
112.0
 40
113.0
 40
113.0
 40
113.0
 40
114.0
 40
114.0
 40
114.0
 40
115.0
 40
115.0
 40
115.0
 40
116.0
 40
116.0
 40
116.0
 40
117.0
 40
117.0
 40
117.0
 40
118.0
 40
118.0
 40
118.0
 40
118.0
 10
57.33672381499609
 20
-39.98482110111503
 30
0.0
 10
54.47178027697578
 20
-38.62916665700938
 30
0.0
 10
51.60479062789656
 20
-37.27284193512636
 30
0.0
 10
48.74051736763692
 20
-35.91789304657622
 30
0.0
 10
48.17346238210369
 20
-35.74563165773041
 30
0.0
 10
47.60810072986061
 20
-35.57545165777268
 30
0.0
 10
47.04175129986494
 20
-35.40181443559398
 30
0.0
 10
46.37235548360932
 20
-35.02423638013271
 30
0.0
 10
45.70228938959301
 20
-34.64732860244943
 30
0.0
 10
45.03359912887495
 20
-34.27077360254329
 30
0.0
 10
43.52155833411699
 20
-33.58726665826972
 30
0.0
 10
41.9963942063605
 20
-33.32268332500254
 30
0.0
 10
40.86433034635296
 20
-32.31532638081005
 30
0.0
 10
39.9782584245141
 20
-31.5257391587853
 30
0.0
 10
38.64881540287546
 20
-30.85771915895219
 30
0.0
 10
37.41578654544376
 20
-30.4608441590514
 30
0.0
 10
37.03700905510718
 20
-30.40849193684226
 30
0.0
 10
36.6592555463908
 20
-30.35748027018847
 30
0.0
 10
36.28269962990677
 20
-30.30720943686773
 30
0.0
 10
36.12818296718216
 20
-30.08393638136781
 30
0.0
 10
35.97334880446564
 20
-29.86069860364606
 30
0.0
 10
35.81865575285663
 20
-29.63746082592398
 30
0.0
 10
34.48988388026639
 20
-27.93110999301715
 30
0.0
 10
35.58370575885071
 20
-26.96336999325912
 30
0.0
 10
37.20909405071693
 20
-26.18824666011971
 30
0.0
 10
37.32847499066792
 20
-26.25714416010227
 30
0.0
 10
37.44870071127072
 20
-26.32501860452971
 30
0.0
 10
37.56825709710947
 20
-26.39529193784549
 30
0.0
 10
39.08340233623267
 20
-25.32316499366909
 30
0.0
 10
40.5756522981622
 20
-20.92102749476988
 30
0.0
 10
38.34168707737763
 20
-19.49753388401462
 30
0.0
 10
36.01829269220791
 20
-18.01473832882979
 30
0.0
 10
32.68708360293922
 20
-21.15633027248865
 30
0.0
 10
32.42197110300571
 20
-22.89301999427686
 30
0.0
 10
32.57684054741122
 20
-23.11625777199862
 30
0.0
 10
32.73065165848409
 20
-23.34016582749839
 30
0.0
 10
32.88428638066776
 20
-23.56238054966502
 30
0.0
 10
32.83606165845759
 20
-24.24553471616083
 30
0.0
 10
32.43833999189057
 20
-24.73854166048203
 30
0.0
 10
32.16426693640327
 20
-25.21087582703052
 30
0.0
 10
31.45183221435935
 20
-26.43974193783444
 30
0.0
 10
30.73629304787159
 20
-28.30385499292392
 30
0.0
 10
28.86971054833811
 20
-27.26965165984918
 30
0.0
 10
28.525893326202
 20
-26.3425869378589
 30
0.0
 10
28.18398110406509
 20
-25.4172155492011
 30
0.0
 10
27.84101054859522
 20
-24.48979804943306
 30
0.0
 10
27.32479082650226
 20
-23.8204374940449
 30
0.0
 10
26.8114638821861
 20
-23.15206471643435
 30
0.0
 10
26.29605554898153
 20
-22.48199860549067
 30
0.0
 10
26.07334693792609
 20
-21.57317249460662
 30
0.0
 10
25.84940360464881
 20
-20.66300582816752
 30
0.0
 10
25.62549554914905
 20
-19.75417971728378
 30
0.0
 10
25.37724582698888
 20
-18.92906777304539
 30
0.0
 10
24.92473777154654
 20
-18.14530138435242
 30
0.0
 10
24.70030054938045
 20
-17.38704082898667
 30
0.0
 10
24.34854582724632
 20
-16.20195444039402
 30
0.0
 10
24.3426897161367
 20
-15.21078999619719
 30
0.0
 10
23.92722332735161
 20
-14.19415499645131
 30
0.0
 10
23.36083860527078
 20
-13.06071527451261
 30
0.0
 10
22.79533582763435
 20
-11.92900416368456
 30
0.0
 10
22.22863360555392
 20
-10.79761055285611
 30
0.0
 10
21.78265193899889
 20
-9.663853330917489
 30
0.0
 10
21.33804610577673
 20
-8.530413608978469
 30
0.0
 10
20.89019471699969
 20
-7.400078331483301
 30
0.0
 10
20.32917221714
 20
-6.410289720619677
 30
0.0
 10
19.27514277295911
 20
-5.369877498657551
 30
0.0
 10
18.93474749526645
 20
-4.207827498948109
 30
0.0
 10
18.66293221755643
 20
-3.283863693623352
 30
0.0
 10
19.00830166191463
 20
-2.346109804968953
 30
0.0
 10
18.67845443977473
 20
-1.581989610715569
 30
0.0
 10
18.67845443977473
 20
-1.581989610715569
 30
0.0
 10
18.55942721758246
 20
-1.262284749684384
 30
0.0
 10
18.47003332871574
 20
-1.480012138518908
 30
0.0
 10
18.28535416209548
 20
-1.929941388406351
 30
0.0
 10
18.35220555096748
 20
-2.592433360463148
 30
0.0
 10
18.36786888429682
 20
-3.280762776957509
 30
0.0
 10
18.37753499540549
 20
-3.362413193603841
 30
0.0
 10
18.32239582875274
 20
-3.428559026920638
 30
0.0
 10
18.26538693987797
 20
-3.332095471389221
 30
0.0
 10
17.79961443999462
 20
-2.951412971484418
 30
0.0
 10
17.54363888450283
 20
-1.433505444085997
 30
0.0
 10
16.9273008291015
 20
-1.735984166232697
 30
0.0
 10
16.61914944028976
 20
-1.890670166193955
 30
0.0
 10
18.01921860660621
 20
-3.527777776895833
 30
0.0
 10
17.95861138439911
 20
-3.693159999076586
 30
0.0
 10
17.84318249553918
 20
-3.893290832360103
 30
0.0
 10
17.23012527347026
 20
-2.566941638247008
 30
0.0
 10
16.9273008291015
 20
-2.559706166026815
 30
0.0
 10
16.9100852735504
 20
-2.578999582688636
 30
0.0
 10
16.89216416244377
 20
-2.595534277128991
 30
0.0
 10
16.87477221800347
 20
-2.611381054902584
 30
0.0
 10
17.06580138462247
 20
-3.511243082455478
 30
0.0
 10
17.93638638440495
 20
-4.49583527665378
 30
0.0
 10
18.1614938843484
 20
-5.186926943147615
 30
0.0
 10
18.19010416211914
 20
-5.302708609785309
 30
0.0
 10
18.19010416211914
 20
-5.302708609785309
 30
0.0
 10
18.11087027325022
 20
-5.288209443122458
 30
0.0
 10
17.38809916231963
 20
-5.229295554248167
 30
0.0
 10
17.06580138462247
 20
-4.578526387744317
 30
0.0
 10
16.46360971810624
 20
-4.309462776700393
 30
0.0
 10
16.15062527374
 20
-4.150642221184464
 30
0.0
 10
15.90255194046871
 20
-4.211284721169402
 30
0.0
 10
16.15507027373889
 20
-4.671201109943449
 30
0.0
 10
16.52989666253407
 20
-5.223439443138546
 30
0.0
 10
16.85201805134267
 20
-5.308882220894851
 30
0.0
 10
17.38979249565244
 20
-5.700606665241534
 30
0.0
 10
17.59599110671197
 20
-6.02583249849366
 30
0.0
 10
17.80218971777183
 20
-6.353104442856031
 30
0.0
 10
18.00768277327585
 20
-6.679706109441041
 30
0.0
 10
18.45863860649642
 20
-7.221960831527863
 30
0.0
 10
19.05155221745927
 20
-7.601267498099782
 30
0.0
 10
19.44877999513781
 20
-8.222756109055528
 30
0.0
 10
19.89543193947053
 20
-10.17887360856645
 30
0.0
 10
20.34173110602581
 20
-12.1356966636329
 30
0.0
 10
20.78700721702532
 20
-14.09079110758838
 30
0.0
 10
21.18733943914772
 20
-15.30413499617401
 30
0.0
 10
21.91907110563146
 20
-16.63153194028668
 30
0.0
 10
22.33196221663933
 20
-17.90139082885795
 30
0.0
 10
22.95158110537307
 20
-19.79654832838434
 30
0.0
 10
22.87474610539248
 20
-21.79298832788524
 30
0.0
 10
23.46487277191171
 20
-23.76875554961344
 30
0.0
 10
23.95184721623442
 20
-25.40550332698186
 30
0.0
 10
24.88857804933337
 20
-26.75978193775463
 30
0.0
 10
25.26580332701688
 20
-28.45406777066414
 30
0.0
 10
25.78241110466545
 20
-30.76366860342017
 30
0.0
 10
24.70114721604702
 20
-31.7038213809629
 30
0.0
 10
24.39091443834687
 20
-33.44739026941586
 30
0.0
 10
24.39091443834687
 20
-33.44739026941586
 30
0.0
 10
24.39091443834687
 20
-35.50584860223459
 30
0.0
 10
24.39091443834687
 20
-35.50584860223459
 30
0.0
 10
23.89138110513836
 20
-38.39111221262453
 30
0.0
 10
24.84532749378873
 20
-40.70656915648986
 30
0.0
 10
25.62549554914905
 20
-42.55692387824952
 30
0.0
 10
25.83649193798524
 20
-43.05299998923706
 30
0.0
 10
26.4566047156081
 20
-45.12765082205113
 30
0.0
 10
26.29605554898153
 20
-45.80011582188346
 30
0.0
 10
25.95174443795662
 20
-47.25087915485409
 30
0.0
 10
25.44099277141767
 20
-49.16081804326509
 30
0.0
 10
26.03821027126837
 20
-50.89750776505363
 30
0.0
 10
26.26402332676734
 20
-51.5527572093339
 30
0.0
 10
26.80440832663215
 20
-51.52862720933989
 30
0.0
 10
27.17094443765186
 20
-51.9789127647831
 30
0.0
 10
27.18833638209184
 20
-52.15046859807372
 30
0.0
 10
27.20523443764302
 20
-52.32170693136409
 30
0.0
 10
27.22333193763853
 20
-52.4925924868767
 30
0.0
 10
27.48685693757275
 20
-52.77506165347268
 30
0.0
 10
28.07338527075933
 20
-52.96351554231447
 30
0.0
 10
28.50885415953945
 20
-53.05929470895745
 30
0.0
 10
28.62424777062187
 20
-53.48269859774025
 30
0.0
 10
28.7889244372471
 20
-54.17414304201217
 30
0.0
 10
28.50885415953945
 20
-54.553096930806
 30
0.0
 10
28.525893326202
 20
-54.58858637524149
 30
0.0
 10
28.54399082619718
 20
-54.62097137523345
 30
0.0
 10
28.56035971508204
 20
-54.65540248633629
 30
0.0
 10
29.07351027050932
 20
-54.8424805418452
 30
0.0
 10
29.49673777040355
 20
-54.13484359757763
 30
0.0
 10
29.95150360362318
 20
-54.0370183198244
 30
0.0
 10
30.38520860351482
 20
-53.94363804206942
 30
0.0
 10
30.84600693673294
 20
-54.25817470865775
 30
0.0
 10
31.08250915889603
 20
-54.3467219308579
 30
0.0
 10
31.40738221437039
 20
-54.29539276420388
 30
0.0
 10
31.73451304762204
 20
-54.24335804199497
 30
0.0
 10
32.06178499198442
 20
-54.19238165311871
 30
0.0
 10
32.13480999196628
 20
-56.01451415266324
 30
0.0
 10
31.75239888095083
 20
-57.93066192996194
 30
0.0
 10
31.38879082548609
 20
-59.67733526285843
 30
0.0
 10
31.38879082548609
 20
-59.67733526285843
 30
0.0
 10
31.3632849921592
 20
-59.68798915174439
 30
0.0
 10
31.3632849921592
 20
-59.68798915174439
 30
0.0
 10
31.3632849921592
 20
-59.68798915174439
 30
0.0
 10
31.06529360334493
 20
-62.36553720663086
 30
0.0
 10
30.40796277017593
 20
-63.24335415085552
 30
0.0
 10
30.40796277017593
 20
-63.24335415085552
 30
0.0
 10
30.41621777017356
 20
-63.24437720641129
 30
0.0
 10
30.41621777017356
 20
-63.24437720641129
 30
0.0
 10
29.48036888151869
 20
-64.4880599838783
 30
0.0
 10
28.4885341595445
 20
-66.25642915010263
 30
0.0
 10
28.14969110407361
 20
-67.8842163719179
 30
0.0
 10
28.11525999297108
 20
-68.53533831619951
 30
0.0
 10
28.07994693742448
 20
-69.18956470492466
 30
0.0
 10
28.0465388818774
 20
-69.84174498253955
 30
0.0
 10
27.42882499314287
 20
-72.57231553741254
 30
0.0
 10
26.10710777125093
 20
-75.12960164788424
 30
0.0
 10
26.8615936043958
 20
-77.97387248050651
 30
0.0
 10
27.71302277084948
 20
-78.40623692484279
 30
0.0
 10
32.16497249195879
 20
-78.86202581361754
 30
0.0
 10
33.39969471387233
 20
-78.54060998036479
 30
0.0
 10
33.88010749152989
 20
-78.41622053595138
 30
0.0
 10
34.46783526916079
 20
-78.07790664714744
 30
0.0
 10
34.73619332464919
 20
-77.71789692501504
 30
0.0
 10
34.81976638018381
 20
-77.40611192509313
 30
0.0
 10
34.88280776905708
 20
-77.16188386959841
 30
0.0
 10
34.68641638021726
 20
-76.94517248076396
 30
0.0
 10
34.36619999140851
 20
-76.44080609200094
 30
0.0
 10
33.1233991583859
 20
-76.6054827586265
 30
0.0
 10
32.47277110299277
 20
-76.43011692533683
 30
0.0
 10
31.65679610319705
 20
-76.212064980947
 30
0.0
 10
30.56127999235968
 20
-75.86856525881049
 30
0.0
 10
30.00283277027721
 20
-75.34906470338511
 30
0.0
 10
29.75426554811711
 20
-75.11891248122014
 30
0.0
 10
29.71464860368233
 20
-74.73822998131565
 30
0.0
 10
29.43609527041862
 20
-74.52568137025737
 30
0.0
 10
29.56150777038746
 20
-73.77913303711054
 30
0.0
 10
30.03571165915764
 20
-73.46667775941125
 30
0.0
 10
30.31151332575559
 20
-72.87824442622515
 30
0.0
 10
30.77471054786173
 20
-71.88362275980703
 30
0.0
 10
31.2370258255241
 20
-70.88766053783354
 30
0.0
 10
31.70004665874168
 20
-69.89236859363805
 30
0.0
 10
32.25006249193734
 20
-68.9663269272029
 30
0.0
 10
32.79919638068922
 20
-68.03890942743486
 30
0.0
 10
33.34801276944086
 20
-67.11322053877747
 30
0.0
 10
33.78760915821964
 20
-66.06762248348308
 30
0.0
 10
33.80087360266096
 20
-64.73849692826008
 30
0.0
 10
34.17241915812342
 20
-63.51068915078912
 30
0.0
 10
34.71813110243153
 20
-61.69649415124231
 30
0.0
 10
35.60335548057162
 20
-59.80856859615874
 30
0.0
 10
36.12818296718216
 20
-58.1039463743632
 30
0.0
 10
36.16264935519173
 20
-58.0877538743669
 30
0.0
 10
36.19693935431692
 20
-58.0698327632606
 30
0.0
 10
36.23137046454962
 20
-58.05328748548654
 30
0.0
 10
36.85977350407328
 20
-58.46120442982919
 30
0.0
 10
37.32847499066792
 20
-59.06339609634544
 30
0.0
 10
37.87916110164125
 20
-59.54536109622508
 30
0.0
 10
38.23761763558822
 20
-59.75173609617318
 30
0.0
 10
38.59970873746161
 20
-59.9574055405664
 30
0.0
 10
38.96024761715239
 20
-60.16378054051449
 30
0.0
 10
39.6117223227541
 20
-61.04674804029358
 30
0.0
 10
39.95363453625342
 20
-62.11679359558221
 30
0.0
 10
40.55533332319419
 20
-63.09829192867004
 30
0.0
 10
41.34527227852756
 20
-64.39055220612467
 30
0.0
 10
42.37019753015732
 20
-65.63285915025816
 30
0.0
 10
42.97411779252781
 20
-67.11322053877747
 30
0.0
 10
43.50120305685851
 20
-68.39994220512239
 30
0.0
 10
43.81609249326947
 20
-69.82071942698907
 30
0.0
 10
44.51889636422833
 20
-70.92106859338062
 30
0.0
 10
45.0990394049832
 20
-71.83299914870852
 30
0.0
 10
47.08136943267436
 20
-74.18634442589767
 30
0.0
 10
48.58688264933424
 20
-73.39294720387387
 30
0.0
 10
49.55081387650145
 20
-72.67257498183193
 30
0.0
 10
47.32665462592978
 20
-71.63731331542391
 30
0.0
 10
47.45273740049092
 20
-70.56176442680373
 30
0.0
 10
47.5378273983201
 20
-69.83451303809673
 30
0.0
 10
48.79286958852352
 20
-69.35459414932797
 30
0.0
 10
48.37948459906985
 20
-68.55396498286134
 30
0.0
 10
48.27474487951977
 20
-68.35034164957901
 30
0.0
 10
47.65911239522585
 20
-67.98758026078083
 30
0.0
 10
47.65911239522585
 20
-67.98758026078083
 30
0.0
 10
46.88638797049526
 20
-67.69301081641034
 30
0.0
 10
46.07298826902459
 20
-67.88111192747438
 30
0.0
 10
45.70228938959301
 20
-67.21520859430751
 30
0.0
 10
45.58273300375426
 20
-66.68431331666248
 30
0.0
 10
45.46250634015484
 20
-66.15341803901747
 30
0.0
 10
45.34227967655541
 20
-65.62044137248404
 30
0.0
 10
44.6849499888285
 20
-63.87553192847571
 30
0.0
 10
44.3032444333689
 20
-61.54592859572465
 30
0.0
 10
43.38753805975836
 20
-60.00838192944266
 30
0.0
 10
42.39051752963891
 20
-58.33752054097132
 30
0.0
 10
40.73962340509006
 20
-57.18513665237023
 30
0.0
 10
39.68026704322761
 20
-55.63414915275835
 30
0.0
 10
39.30233621953609
 20
-54.84523220851097
 30
0.0
 10
38.92493456249774
 20
-54.0549394309307
 30
0.0
 10
38.54718012769062
 20
-53.26394109779491
 30
0.0
 10
38.29568485632902
 20
-52.84088998678987
 30
0.0
 10
37.87019958940628
 20
-52.43159720911432
 30
0.0
 10
37.77530236960508
 20
-51.87523137591993
 30
0.0
 10
38.27293069024286
 20
-51.72258443151387
 30
0.0
 10
38.86034095303455
 20
-51.4060016538153
 30
0.0
 10
39.06343610134518
 20
-50.94883693170701
 30
0.0
 10
39.09596122480116
 20
-50.91401776504953
 30
0.0
 10
39.13197983499335
 20
-50.88131526505733
 30
0.0
 10
39.1653888790977
 20
-50.84755443173249
 30
0.0
 10
39.02812205986521
 20
-50.72697498731814
 30
0.0
 10
39.03362539305814
 20
-50.79929443174448
 30
0.0
 10
38.96024761715239
 20
-50.58847443179749
 30
0.0
 10
39.25135983194772
 20
-50.48648637626744
 30
0.0
 10
39.54296593561934
 20
-50.38347526518163
 30
0.0
 10
39.8332314837696
 20
-50.28046415409646
 30
0.0
 10
39.02896872651028
 20
-48.25682498793553
 30
0.0
 10
38.39386387929029
 20
-45.56276693305381
 30
0.0
 10
37.15723571870661
 20
-43.89705610013688
 30
0.0
 10
35.76386936536546
 20
-42.01844387838455
 30
0.0
 10
31.58066665877165
 20
-40.57290165652338
 30
0.0
 10
33.70837526935072
 20
-37.35895499066035
 30
0.0
 10
33.93658721373802
 20
-37.07645054628654
 30
0.0
 10
34.70673638021221
 20
-37.21907860180649
 30
0.0
 10
34.99580249125117
 20
-36.99792221297282
 30
0.0
 10
35.59040853645747
 20
-36.54559054641904
 30
0.0
 10
35.74425492142142
 20
-35.46933610224366
 30
0.0
 10
36.28269962990677
 20
-34.93844082459864
 30
0.0
 10
38.401272212622
 20
-34.65939360244612
 30
0.0
 10
39.73674676400891
 20
-36.1349219354106
 30
0.0
 10
41.43004477636483
 20
-36.63893554639585
 30
0.0
 10
43.07815195654034
 20
-37.05062721295972
 30
0.0
 10
44.72491858119449
 20
-37.46129582396816
 30
0.0
 10
46.37235548360932
 20
-37.87401054608716
 30
0.0
 10
47.93297498801662
 20
-38.41972249039495
 30
0.0
 10
49.27793902059282
 20
-39.46323915680092
 30
0.0
 10
50.9522575889885
 20
-39.98482110111503
 30
0.0
 10
51.98236867381929
 20
-40.24217248993939
 30
0.0
 10
53.01142142534375
 20
-40.49881832320887
 30
0.0
 10
54.04322584346467
 20
-40.756522489811
 30
0.0
 10
54.65952860551925
 20
-40.84228276756722
 30
0.0
 10
55.27724247864894
 20
-40.92807832310161
 30
0.0
 10
55.89495635177864
 20
-41.0135211008576
 30
0.0
 10
56.99978576803654
 20
-41.4775649896303
 30
0.0
 10
58.92284794119735
 20
-43.87158554458751
 30
0.0
 10
59.91090791598985
 20
-43.99939693344469
 30
0.0
 10
60.03286319065629
 20
-44.03107637788112
 30
0.0
 10
60.28090276270756
 20
-43.94838526679091
 30
0.0
 10
60.06524818983008
 20
-43.6907163779663
 30
0.0
 10
59.70901319891838
 20
-43.17118054476276
 30
0.0
 10
58.98349043965024
 20
-42.7226236004302
 30
0.0
 10
58.82982044357069
 20
-42.09355026725418
 30
0.0
 10
58.82982044357069
 20
-42.09355026725418
 30
0.0
 10
60.11657735518722
 20
-42.09355026725418
 30
0.0
 10
60.11657735518722
 20
-42.09355026725418
 30
0.0
 10
60.70532817350028
 20
-42.41602443384022
 30
0.0
 10
61.92661109562977
 20
-44.10547721119587
 30
0.0
 10
62.69076145618099
 20
-43.94838526679091
 30
0.0
 10
62.78343617603888
 20
-43.95392387790061
 30
0.0
 10
62.83854165095703
 20
-43.91532998902095
 30
0.0
 10
62.74138506600058
 20
-43.79302193349595
 30
0.0
 10
62.74138506600058
 20
-43.79302193349595
 30
0.0
 10
62.38172813073175
 20
-43.43368248914154
 30
0.0
 10
62.38172813073175
 20
-43.43368248914154
 30
0.0
 10
62.48403368367727
 20
-43.417842766923
 30
0.0
 10
62.58806942879774
 20
-43.39925137803934
 30
0.0
 10
62.69076145618099
 20
-43.38235332248752
 30
0.0
 10
62.97633506000651
 20
-43.32552082250196
 30
0.0
 10
62.99838367055511
 20
-43.18772582253618
 30
0.0
 10
62.79306700912651
 20
-43.07264971145401
 30
0.0
 10
62.29557979959624
 20
-42.83219637818083
 30
0.0
 10
61.7974223123053
 20
-42.59170776713013
 30
0.0
 10
61.30064065831259
 20
-42.35263026718983
 30
0.0
 10
61.24828843742598
 20
-42.28408554498439
 30
0.0
 10
61.19660649430006
 20
-42.2151527672243
 30
0.0
 10
61.14563010671168
 20
-42.14558498946373
 30
0.0
 10
61.42019704415134
 20
-42.12939248946743
 30
0.0
 10
61.69441120382222
 20
-42.11182415613889
 30
0.0
 10
61.96933091903065
 20
-42.09355026725418
 30
0.0
 10
62.26527776221146
 20
-42.06324665615063
 30
0.0
 10
62.08338397167648
 20
-41.85584860064741
 30
0.0
 10
62.02066008438781
 20
-41.83690443398535
 30
0.0
 10
61.62826537217641
 20
-41.71805360068164
 30
0.0
 10
61.16386871735749
 20
-41.70013248957469
 30
0.0
 10
60.73358567277937
 20
-41.63123498959213
 30
0.0
 10
61.4308862105453
 20
-41.34735471188511
 30
0.0
 10
62.50781090529289
 20
-41.75936387844891
 30
0.0
 10
63.05077116921859
 20
-41.93991554507051
 30
0.0
 10
63.38425199404412
 20
-42.00260415616602
 30
0.0
 10
63.72048609518099
 20
-41.76006943400443
 30
0.0
 10
63.41109998414709
 20
-41.63123498959213
 30
0.0
 10
61.61690592802177
 20
-40.90638248977313
 30
0.0
 10
59.21773487811861
 20
-40.67037415649884
 30
0.0
 10
57.33672381499609
 20
-39.98482110111503
 30
0.0
  0
HATCH
  5
42
330
1F
100
AcDbEntity
  8
Layer 1
 62
   250
100
AcDbHatch
 10
0.0
 20
0.0
 30
0.0
210
0.0
220
0.0
230
1.0
  2
SOLID
 70
     1
 71
     0
 91
        1
 92
        1
 93
        1
 72
     4
 94
        3
 73
     0
 74
     1
 95
      359
 96
      355
 40
0.0
 40
0.0
 40
0.0
 40
0.0
 40
1.0
 40
1.0
 40
1.0
 40
2.0
 40
2.0
 40
2.0
 40
3.0
 40
3.0
 40
3.0
 40
4.0
 40
4.0
 40
4.0
 40
5.0
 40
5.0
 40
5.0
 40
6.0
 40
6.0
 40
6.0
 40
7.0
 40
7.0
 40
7.0
 40
8.0
 40
8.0
 40
8.0
 40
9.0
 40
9.0
 40
9.0
 40
10.0
 40
10.0
 40
10.0
 40
11.0
 40
11.0
 40
11.0
 40
12.0
 40
12.0
 40
12.0
 40
13.0
 40
13.0
 40
13.0
 40
14.0
 40
14.0
 40
14.0
 40
15.0
 40
15.0
 40
15.0
 40
16.0
 40
16.0
 40
16.0
 40
17.0
 40
17.0
 40
17.0
 40
18.0
 40
18.0
 40
18.0
 40
19.0
 40
19.0
 40
19.0
 40
20.0
 40
20.0
 40
20.0
 40
21.0
 40
21.0
 40
21.0
 40
22.0
 40
22.0
 40
22.0
 40
23.0
 40
23.0
 40
23.0
 40
24.0
 40
24.0
 40
24.0
 40
25.0
 40
25.0
 40
25.0
 40
26.0
 40
26.0
 40
26.0
 40
27.0
 40
27.0
 40
27.0
 40
28.0
 40
28.0
 40
28.0
 40
29.0
 40
29.0
 40
29.0
 40
30.0
 40
30.0
 40
30.0
 40
31.0
 40
31.0
 40
31.0
 40
32.0
 40
32.0
 40
32.0
 40
33.0
 40
33.0
 40
33.0
 40
34.0
 40
34.0
 40
34.0
 40
35.0
 40
35.0
 40
35.0
 40
36.0
 40
36.0
 40
36.0
 40
37.0
 40
37.0
 40
37.0
 40
38.0
 40
38.0
 40
38.0
 40
39.0
 40
39.0
 40
39.0
 40
40.0
 40
40.0
 40
40.0
 40
41.0
 40
41.0
 40
41.0
 40
42.0
 40
42.0
 40
42.0
 40
43.0
 40
43.0
 40
43.0
 40
44.0
 40
44.0
 40
44.0
 40
45.0
 40
45.0
 40
45.0
 40
46.0
 40
46.0
 40
46.0
 40
47.0
 40
47.0
 40
47.0
 40
48.0
 40
48.0
 40
48.0
 40
49.0
 40
49.0
 40
49.0
 40
50.0
 40
50.0
 40
50.0
 40
51.0
 40
51.0
 40
51.0
 40
52.0
 40
52.0
 40
52.0
 40
53.0
 40
53.0
 40
53.0
 40
54.0
 40
54.0
 40
54.0
 40
55.0
 40
55.0
 40
55.0
 40
56.0
 40
56.0
 40
56.0
 40
57.0
 40
57.0
 40
57.0
 40
58.0
 40
58.0
 40
58.0
 40
59.0
 40
59.0
 40
59.0
 40
60.0
 40
60.0
 40
60.0
 40
61.0
 40
61.0
 40
61.0
 40
62.0
 40
62.0
 40
62.0
 40
63.0
 40
63.0
 40
63.0
 40
64.0
 40
64.0
 40
64.0
 40
65.0
 40
65.0
 40
65.0
 40
66.0
 40
66.0
 40
66.0
 40
67.0
 40
67.0
 40
67.0
 40
68.0
 40
68.0
 40
68.0
 40
69.0
 40
69.0
 40
69.0
 40
70.0
 40
70.0
 40
70.0
 40
71.0
 40
71.0
 40
71.0
 40
72.0
 40
72.0
 40
72.0
 40
73.0
 40
73.0
 40
73.0
 40
74.0
 40
74.0
 40
74.0
 40
75.0
 40
75.0
 40
75.0
 40
76.0
 40
76.0
 40
76.0
 40
77.0
 40
77.0
 40
77.0
 40
78.0
 40
78.0
 40
78.0
 40
79.0
 40
79.0
 40
79.0
 40
80.0
 40
80.0
 40
80.0
 40
81.0
 40
81.0
 40
81.0
 40
82.0
 40
82.0
 40
82.0
 40
83.0
 40
83.0
 40
83.0
 40
84.0
 40
84.0
 40
84.0
 40
85.0
 40
85.0
 40
85.0
 40
86.0
 40
86.0
 40
86.0
 40
87.0
 40
87.0
 40
87.0
 40
88.0
 40
88.0
 40
88.0
 40
89.0
 40
89.0
 40
89.0
 40
90.0
 40
90.0
 40
90.0
 40
91.0
 40
91.0
 40
91.0
 40
92.0
 40
92.0
 40
92.0
 40
93.0
 40
93.0
 40
93.0
 40
94.0
 40
94.0
 40
94.0
 40
95.0
 40
95.0
 40
95.0
 40
96.0
 40
96.0
 40
96.0
 40
97.0
 40
97.0
 40
97.0
 40
98.0
 40
98.0
 40
98.0
 40
99.0
 40
99.0
 40
99.0
 40
100.0
 40
100.0
 40
100.0
 40
101.0
 40
101.0
 40
101.0
 40
102.0
 40
102.0
 40
102.0
 40
103.0
 40
103.0
 40
103.0
 40
104.0
 40
104.0
 40
104.0
 40
105.0
 40
105.0
 40
105.0
 40
106.0
 40
106.0
 40
106.0
 40
107.0
 40
107.0
 40
107.0
 40
108.0
 40
108.0
 40
108.0
 40
109.0
 40
109.0
 40
109.0
 40
110.0
 40
110.0
 40
110.0
 40
111.0
 40
111.0
 40
111.0
 40
112.0
 40
112.0
 40
112.0
 40
113.0
 40
113.0
 40
113.0
 40
114.0
 40
114.0
 40
114.0
 40
115.0
 40
115.0
 40
115.0
 40
116.0
 40
116.0
 40
116.0
 40
117.0
 40
117.0
 40
117.0
 40
118.0
 40
118.0
 40
118.0
 40
118.0
 10
57.33672381499609
 20
-39.98482110111503
 10
54.47178027697578
 20
-38.62916665700938
 10
51.60479062789656
 20
-37.27284193512636
 10
48.74051736763692
 20
-35.91789304657622
 10
48.17346238210369
 20
-35.74563165773041
 10
47.60810072986061
 20
-35.57545165777268
 10
47.04175129986494
 20
-35.40181443559398
 10
46.37235548360932
 20
-35.02423638013271
 10
45.70228938959301
 20
-34.64732860244943
 10
45.03359912887495
 20
-34.27077360254329
 10
43.52155833411699
 20
-33.58726665826972
 10
41.9963942063605
 20
-33.32268332500254
 10
40.86433034635296
 20
-32.31532638081005
 10
39.9782584245141
 20
-31.5257391587853
 10
38.64881540287546
 20
-30.85771915895219
 10
37.41578654544376
 20
-30.4608441590514
 10
37.03700905510718
 20
-30.40849193684226
 10
36.6592555463908
 20
-30.35748027018847
 10
36.28269962990677
 20
-30.30720943686773
 10
36.12818296718216
 20
-30.08393638136781
 10
35.97334880446564
 20
-29.86069860364606
 10
35.81865575285663
 20
-29.63746082592398
 10
34.48988388026639
 20
-27.93110999301715
 10
35.58370575885071
 20
-26.96336999325912
 10
37.20909405071693
 20
-26.18824666011971
 10
37.32847499066792
 20
-26.25714416010227
 10
37.44870071127072
 20
-26.32501860452971
 10
37.56825709710947
 20
-26.39529193784549
 10
39.08340233623267
 20
-25.32316499366909
 10
40.5756522981622
 20
-20.92102749476988
 10
38.34168707737763
 20
-19.49753388401462
 10
36.01829269220791
 20
-18.01473832882979
 10
32.68708360293922
 20
-21.15633027248865
 10
32.42197110300571
 20
-22.89301999427686
 10
32.57684054741122
 20
-23.11625777199862
 10
32.73065165848409
 20
-23.34016582749839
 10
32.88428638066776
 20
-23.56238054966502
 10
32.83606165845759
 20
-24.24553471616083
 10
32.43833999189057
 20
-24.73854166048203
 10
32.16426693640327
 20
-25.21087582703052
 10
31.45183221435935
 20
-26.43974193783444
 10
30.73629304787159
 20
-28.30385499292392
 10
28.86971054833811
 20
-27.26965165984918
 10
28.525893326202
 20
-26.3425869378589
 10
28.18398110406509
 20
-25.4172155492011
 10
27.84101054859522
 20
-24.48979804943306
 10
27.32479082650226
 20
-23.8204374940449
 10
26.8114638821861
 20
-23.15206471643435
 10
26.29605554898153
 20
-22.48199860549067
 10
26.07334693792609
 20
-21.57317249460662
 10
25.84940360464881
 20
-20.66300582816752
 10
25.62549554914905
 20
-19.75417971728378
 10
25.37724582698888
 20
-18.92906777304539
 10
24.92473777154654
 20
-18.14530138435242
 10
24.70030054938045
 20
-17.38704082898667
 10
24.34854582724632
 20
-16.20195444039402
 10
24.3426897161367
 20
-15.21078999619719
 10
23.92722332735161
 20
-14.19415499645131
 10
23.36083860527078
 20
-13.06071527451261
 10
22.79533582763435
 20
-11.92900416368456
 10
22.22863360555392
 20
-10.79761055285611
 10
21.78265193899889
 20
-9.663853330917489
 10
21.33804610577673
 20
-8.530413608978469
 10
20.89019471699969
 20
-7.400078331483301
 10
20.32917221714
 20
-6.410289720619677
 10
19.27514277295911
 20
-5.369877498657551
 10
18.93474749526645
 20
-4.207827498948109
 10
18.66293221755643
 20
-3.283863693623352
 10
19.00830166191463
 20
-2.346109804968953
 10
18.67845443977473
 20
-1.581989610715569
 10
18.67845443977473
 20
-1.581989610715569
 10
18.55942721758246
 20
-1.262284749684384
 10
18.47003332871574
 20
-1.480012138518908
 10
18.28535416209548
 20
-1.929941388406351
 10
18.35220555096748
 20
-2.592433360463148
 10
18.36786888429682
 20
-3.280762776957509
 10
18.37753499540549
 20
-3.362413193603841
 10
18.32239582875274
 20
-3.428559026920638
 10
18.26538693987797
 20
-3.332095471389221
 10
17.79961443999462
 20
-2.951412971484418
 10
17.54363888450283
 20
-1.433505444085997
 10
16.9273008291015
 20
-1.735984166232697
 10
16.61914944028976
 20
-1.890670166193955
 10
18.01921860660621
 20
-3.527777776895833
 10
17.95861138439911
 20
-3.693159999076586
 10
17.84318249553918
 20
-3.893290832360103
 10
17.23012527347026
 20
-2.566941638247008
 10
16.9273008291015
 20
-2.559706166026815
 10
16.9100852735504
 20
-2.578999582688636
 10
16.89216416244377
 20
-2.595534277128991
 10
16.87477221800347
 20
-2.611381054902584
 10
17.06580138462247
 20
-3.511243082455478
 10
17.93638638440495
 20
-4.49583527665378
 10
18.1614938843484
 20
-5.186926943147615
 10
18.19010416211914
 20
-5.302708609785309
 10
18.19010416211914
 20
-5.302708609785309
 10
18.11087027325022
 20
-5.288209443122458
 10
17.38809916231963
 20
-5.229295554248167
 10
17.06580138462247
 20
-4.578526387744317
 10
16.46360971810624
 20
-4.309462776700393
 10
16.15062527374
 20
-4.150642221184464
 10
15.90255194046871
 20
-4.211284721169402
 10
16.15507027373889
 20
-4.671201109943449
 10
16.52989666253407
 20
-5.223439443138546
 10
16.85201805134267
 20
-5.308882220894851
 10
17.38979249565244
 20
-5.700606665241534
 10
17.59599110671197
 20
-6.02583249849366
 10
17.80218971777183
 20
-6.353104442856031
 10
18.00768277327585
 20
-6.679706109441041
 10
18.45863860649642
 20
-7.221960831527863
 10
19.05155221745927
 20
-7.601267498099782
 10
19.44877999513781
 20
-8.222756109055528
 10
19.89543193947053
 20
-10.17887360856645
 10
20.34173110602581
 20
-12.1356966636329
 10
20.78700721702532
 20
-14.09079110758838
 10
21.18733943914772
 20
-15.30413499617401
 10
21.91907110563146
 20
-16.63153194028668
 10
22.33196221663933
 20
-17.90139082885795
 10
22.95158110537307
 20
-19.79654832838434
 10
22.87474610539248
 20
-21.79298832788524
 10
23.46487277191171
 20
-23.76875554961344
 10
23.95184721623442
 20
-25.40550332698186
 10
24.88857804933337
 20
-26.75978193775463
 10
25.26580332701688
 20
-28.45406777066414
 10
25.78241110466545
 20
-30.76366860342017
 10
24.70114721604702
 20
-31.7038213809629
 10
24.39091443834687
 20
-33.44739026941586
 10
24.39091443834687
 20
-33.44739026941586
 10
24.39091443834687
 20
-35.50584860223459
 10
24.39091443834687
 20
-35.50584860223459
 10
23.89138110513836
 20
-38.39111221262453
 10
24.84532749378873
 20
-40.70656915648986
 10
25.62549554914905
 20
-42.55692387824952
 10
25.83649193798524
 20
-43.05299998923706
 10
26.4566047156081
 20
-45.12765082205113
 10
26.29605554898153
 20
-45.80011582188346
 10
25.95174443795662
 20
-47.25087915485409
 10
25.44099277141767
 20
-49.16081804326509
 10
26.03821027126837
 20
-50.89750776505363
 10
26.26402332676734
 20
-51.5527572093339
 10
26.80440832663215
 20
-51.52862720933989
 10
27.17094443765186
 20
-51.9789127647831
 10
27.18833638209184
 20
-52.15046859807372
 10
27.20523443764302
 20
-52.32170693136409
 10
27.22333193763853
 20
-52.4925924868767
 10
27.48685693757275
 20
-52.77506165347268
 10
28.07338527075933
 20
-52.96351554231447
 10
28.50885415953945
 20
-53.05929470895745
 10
28.62424777062187
 20
-53.48269859774025
 10
28.7889244372471
 20
-54.17414304201217
 10
28.50885415953945
 20
-54.553096930806
 10
28.525893326202
 20
-54.58858637524149
 10
28.54399082619718
 20
-54.62097137523345
 10
28.56035971508204
 20
-54.65540248633629
 10
29.07351027050932
 20
-54.8424805418452
 10
29.49673777040355
 20
-54.13484359757763
 10
29.95150360362318
 20
-54.0370183198244
 10
30.38520860351482
 20
-53.94363804206942
 10
30.84600693673294
 20
-54.25817470865775
 10
31.08250915889603
 20
-54.3467219308579
 10
31.40738221437039
 20
-54.29539276420388
 10
31.73451304762204
 20
-54.24335804199497
 10
32.06178499198442
 20
-54.19238165311871
 10
32.13480999196628
 20
-56.01451415266324
 10
31.75239888095083
 20
-57.93066192996194
 10
31.38879082548609
 20
-59.67733526285843
 10
31.38879082548609
 20
-59.67733526285843
 10
31.3632849921592
 20
-59.68798915174439
 10
31.3632849921592
 20
-59.68798915174439
 10
31.3632849921592
 20
-59.68798915174439
 10
31.06529360334493
 20
-62.36553720663086
 10
30.40796277017593
 20
-63.24335415085552
 10
30.40796277017593
 20
-63.24335415085552
 10
30.41621777017356
 20
-63.24437720641129
 10
30.41621777017356
 20
-63.24437720641129
 10
29.48036888151869
 20
-64.4880599838783
 10
28.4885341595445
 20
-66.25642915010263
 10
28.14969110407361
 20
-67.8842163719179
 10
28.11525999297108
 20
-68.53533831619951
 10
28.07994693742448
 20
-69.18956470492466
 10
28.0465388818774
 20
-69.84174498253955
 10
27.42882499314287
 20
-72.57231553741254
 10
26.10710777125093
 20
-75.12960164788424
 10
26.8615936043958
 20
-77.97387248050651
 10
27.71302277084948
 20
-78.40623692484279
 10
32.16497249195879
 20
-78.86202581361754
 10
33.39969471387233
 20
-78.54060998036479
 10
33.88010749152989
 20
-78.41622053595138
 10
34.46783526916079
 20
-78.07790664714744
 10
34.73619332464919
 20
-77.71789692501504
 10
34.81976638018381
 20
-77.40611192509313
 10
34.88280776905708
 20
-77.16188386959841
 10
34.68641638021726
 20
-76.94517248076396
 10
34.36619999140851
 20
-76.44080609200094
 10
33.1233991583859
 20
-76.6054827586265
 10
32.47277110299277
 20
-76.43011692533683
 10
31.65679610319705
 20
-76.212064980947
 10
30.56127999235968
 20
-75.86856525881049
 10
30.00283277027721
 20
-75.34906470338511
 10
29.75426554811711
 20
-75.11891248122014
 10
29.71464860368233
 20
-74.73822998131565
 10
29.43609527041862
 20
-74.52568137025737
 10
29.56150777038746
 20
-73.77913303711054
 10
30.03571165915764
 20
-73.46667775941125
 10
30.31151332575559
 20
-72.87824442622515
 10
30.77471054786173
 20
-71.88362275980703
 10
31.2370258255241
 20
-70.88766053783354
 10
31.70004665874168
 20
-69.89236859363805
 10
32.25006249193734
 20
-68.9663269272029
 10
32.79919638068922
 20
-68.03890942743486
 10
33.34801276944086
 20
-67.11322053877747
 10
33.78760915821964
 20
-66.06762248348308
 10
33.80087360266096
 20
-64.73849692826008
 10
34.17241915812342
 20
-63.51068915078912
 10
34.71813110243153
 20
-61.69649415124231
 10
35.60335548057162
 20
-59.80856859615874
 10
36.12818296718216
 20
-58.1039463743632
 10
36.16264935519173
 20
-58.0877538743669
 10
36.19693935431692
 20
-58.0698327632606
 10
36.23137046454962
 20
-58.05328748548654
 10
36.85977350407328
 20
-58.46120442982919
 10
37.32847499066792
 20
-59.06339609634544
 10
37.87916110164125
 20
-59.54536109622508
 10
38.23761763558822
 20
-59.75173609617318
 10
38.59970873746161
 20
-59.9574055405664
 10
38.96024761715239
 20
-60.16378054051449
 10
39.6117223227541
 20
-61.04674804029358
 10
39.95363453625342
 20
-62.11679359558221
 10
40.55533332319419
 20
-63.09829192867004
 10
41.34527227852756
 20
-64.39055220612467
 10
42.37019753015732
 20
-65.63285915025816
 10
42.97411779252781
 20
-67.11322053877747
 10
43.50120305685851
 20
-68.39994220512239
 10
43.81609249326947
 20
-69.82071942698907
 10
44.51889636422833
 20
-70.92106859338062
 10
45.0990394049832
 20
-71.83299914870852
 10
47.08136943267436
 20
-74.18634442589767
 10
48.58688264933424
 20
-73.39294720387387
 10
49.55081387650145
 20
-72.67257498183193
 10
47.32665462592978
 20
-71.63731331542391
 10
47.45273740049092
 20
-70.56176442680373
 10
47.5378273983201
 20
-69.83451303809673
 10
48.79286958852352
 20
-69.35459414932797
 10
48.37948459906985
 20
-68.55396498286134
 10
48.27474487951977
 20
-68.35034164957901
 10
47.65911239522585
 20
-67.98758026078083
 10
47.65911239522585
 20
-67.98758026078083
 10
46.88638797049526
 20
-67.69301081641034
 10
46.07298826902459
 20
-67.88111192747438
 10
45.70228938959301
 20
-67.21520859430751
 10
45.58273300375426
 20
-66.68431331666248
 10
45.46250634015484
 20
-66.15341803901747
 10
45.34227967655541
 20
-65.62044137248404
 10
44.6849499888285
 20
-63.87553192847571
 10
44.3032444333689
 20
-61.54592859572465
 10
43.38753805975836
 20
-60.00838192944266
 10
42.39051752963891
 20
-58.33752054097132
 10
40.73962340509006
 20
-57.18513665237023
 10
39.68026704322761
 20
-55.63414915275835
 10
39.30233621953609
 20
-54.84523220851097
 10
38.92493456249774
 20
-54.0549394309307
 10
38.54718012769062
 20
-53.26394109779491
 10
38.29568485632902
 20
-52.84088998678987
 10
37.87019958940628
 20
-52.43159720911432
 10
37.77530236960508
 20
-51.87523137591993
 10
38.27293069024286
 20
-51.72258443151387
 10
38.86034095303455
 20
-51.4060016538153
 10
39.06343610134518
 20
-50.94883693170701
 10
39.09596122480116
 20
-50.91401776504953
 10
39.13197983499335
 20
-50.88131526505733
 10
39.1653888790977
 20
-50.84755443173249
 10
39.02812205986521
 20
-50.72697498731814
 10
39.03362539305814
 20
-50.79929443174448
 10
38.96024761715239
 20
-50.58847443179749
 10
39.25135983194772
 20
-50.48648637626744
 10
39.54296593561934
 20
-50.38347526518163
 10
39.8332314837696
 20
-50.28046415409646
 10
39.02896872651028
 20
-48.25682498793553
 10
38.39386387929029
 20
-45.56276693305381
 10
37.15723571870661
 20
-43.89705610013688
 10
35.76386936536546
 20
-42.01844387838455
 10
31.58066665877165
 20
-40.57290165652338
 10
33.70837526935072
 20
-37.35895499066035
 10
33.93658721373802
 20
-37.07645054628654
 10
34.70673638021221
 20
-37.21907860180649
 10
34.99580249125117
 20
-36.99792221297282
 10
35.59040853645747
 20
-36.54559054641904
 10
35.74425492142142
 20
-35.46933610224366
 10
36.28269962990677
 20
-34.93844082459864
 10
38.401272212622
 20
-34.65939360244612
 10
39.73674676400891
 20
-36.1349219354106
 10
41.43004477636483
 20
-36.63893554639585
 10
43.07815195654034
 20
-37.05062721295972
 10
44.72491858119449
 20
-37.46129582396816
 10
46.37235548360932
 20
-37.87401054608716
 10
47.93297498801662
 20
-38.41972249039495
 10
49.27793902059282
 20
-39.46323915680092
 10
50.9522575889885
 20
-39.98482110111503
 10
51.98236867381929
 20
-40.24217248993939
 10
53.01142142534375
 20
-40.49881832320887
 10
54.04322584346467
 20
-40.756522489811
 10
54.65952860551925
 20
-40.84228276756722
 10
55.27724247864894
 20
-40.92807832310161
 10
55.89495635177864
 20
-41.0135211008576
 10
56.99978576803654
 20
-41.4775649896303
 10
58.92284794119735
 20
-43.87158554458751
 10
59.91090791598985
 20
-43.99939693344469
 10
60.03286319065629
 20
-44.03107637788112
 10
60.28090276270756
 20
-43.94838526679091
 10
60.06524818983008
 20
-43.6907163779663
 10
59.70901319891838
 20
-43.17118054476276
 10
58.98349043965024
 20
-42.7226236004302
 10
58.82982044357069
 20
-42.09355026725418
 10
58.82982044357069
 20
-42.09355026725418
 10
60.11657735518722
 20
-42.09355026725418
 10
60.11657735518722
 20
-42.09355026725418
 10
60.70532817350028
 20
-42.41602443384022
 10
61.92661109562977
 20
-44.10547721119587
 10
62.69076145618099
 20
-43.94838526679091
 10
62.78343617603888
 20
-43.95392387790061
 10
62.83854165095703
 20
-43.91532998902095
 10
62.74138506600058
 20
-43.79302193349595
 10
62.74138506600058
 20
-43.79302193349595
 10
62.38172813073175
 20
-43.43368248914154
 10
62.38172813073175
 20
-43.43368248914154
 10
62.48403368367727
 20
-43.417842766923
 10
62.58806942879774
 20
-43.39925137803934
 10
62.69076145618099
 20
-43.38235332248752
 10
62.97633506000651
 20
-43.32552082250196
 10
62.99838367055511
 20
-43.18772582253618
 10
62.79306700912651
 20
-43.07264971145401
 10
62.29557979959624
 20
-42.83219637818083
 10
61.7974223123053
 20
-42.59170776713013
 10
61.30064065831259
 20
-42.35263026718983
 10
61.24828843742598
 20
-42.28408554498439
 10
61.19660649430006
 20
-42.2151527672243
 10
61.14563010671168
 20
-42.14558498946373
 10
61.42019704415134
 20
-42.12939248946743
 10
61.69441120382222
 20
-42.11182415613889
 10
61.96933091903065
 20
-42.09355026725418
 10
62.26527776221146
 20
-42.06324665615063
 10
62.08338397167648
 20
-41.85584860064741
 10
62.02066008438781
 20
-41.83690443398535
 10
61.62826537217641
 20
-41.71805360068164
 10
61.16386871735749
 20
-41.70013248957469
 10
60.73358567277937
 20
-41.63123498959213
 10
61.4308862105453
 20
-41.34735471188511
 10
62.50781090529289
 20
-41.75936387844891
 10
63.05077116921859
 20
-41.93991554507051
 10
63.38425199404412
 20
-42.00260415616602
 10
63.72048609518099
 20
-41.76006943400443
 10
63.41109998414709
 20
-41.63123498959213
 10
61.61690592802177
 20
-40.90638248977313
 10
59.21773487811861
 20
-40.67037415649884
 10
57.33672381499609
 20
-39.98482110111503
 97
        0
 75
     0
 76
     1
 98
        0
  0
ENDSEC
  0
SECTION
  2
OBJECTS
  0
DICTIONARY
  5
C
330
0
100
AcDbDictionary
281
     1
  3
ACAD_GROUP
350
D
  3
ACAD_LAYOUT
350
1A
  3
ACAD_MATERIAL
350
3B
  3
ACAD_MLEADERSTYLE
350
64
  3
ACAD_MLINESTYLE
350
17
  3
ACAD_PLOTSETTINGS
350
19
  3
ACAD_PLOTSTYLENAME
350
E
  3
ACAD_TABLESTYLE
350
63
  3
ACAD_VISUALSTYLE
350
2A
  0
SUN
  5
3F
330
29
100
AcDbSun
 90
        1
290
     0
 63
     7
421
 16777215
 40
1.0
291
     1
 91
  2455826
 92
 54000000
292
     0
 70
     2
 71
   256
280
     1
  0
DICTIONARY
  5
D
102
{ACAD_REACTORS
330
C
102
}
330
C
100
AcDbDictionary
281
     1
  0
DICTIONARY
  5
1A
102
{ACAD_REACTORS
330
C
102
}
330
C
100
AcDbDictionary
281
     1
  3
Layout1
350
1E
  3
Layout2
350
26
  3
Model
350
22
  0
DICTIONARY
  5
3B
102
{ACAD_REACTORS
330
C
102
}
330
C
100
AcDbDictionary
281
     1
  3
ByBlock
350
3D
  3
ByLayer
350
3C
  3
Global
350
3E
  0
DICTIONARY
  5
64
102
{ACAD_REACTORS
330
C
102
}
330
C
100
AcDbDictionary
281
     1
  0
DICTIONARY
  5
17
102
{ACAD_REACTORS
330
C
102
}
330
C
100
AcDbDictionary
281
     1
  3
Standard
350
18
  0
DICTIONARY
  5
19
102
{ACAD_REACTORS
330
C
102
}
330
C
100
AcDbDictionary
281
     1
  0
ACDBDICTIONARYWDFLT
  5
E
102
{ACAD_REACTORS
330
C
102
}
330
C
100
AcDbDictionary
281
     1
  3
Normal
350
F
100
AcDbDictionaryWithDefault
340
F
  0
DICTIONARY
  5
63
102
{ACAD_REACTORS
330
C
102
}
330
C
100
AcDbDictionary
281
     1
  0
DICTIONARY
  5
2A
102
{ACAD_REACTORS
330
C
102
}
330
C
100
AcDbDictionary
281
     1
  3
2dWireframe
350
2F
  3
3D Hidden
350
31
  3
3dWireframe
350
30
  3
Basic
350
32
  3
Brighten
350
36
  3
ColorChange
350
3A
  3
Conceptual
350
34
  3
Dim
350
35
  3
Facepattern
350
39
  3
Flat
350
2B
  3
FlatWithEdges
350
2C
  3
Gouraud
350
2D
  3
GouraudWithEdges
350
2E
  3
Linepattern
350
38
  3
Realistic
350
33
  3
Thicken
350
37
  0
LAYOUT
  5
1E
102
{ACAD_REACTORS
330
1A
102
}
330
1A
100
AcDbPlotSettings
  1

  2
none_device
  4

  6

 40
0.0
 41
0.0
 42
0.0
 43
0.0
 44
0.0
 45
0.0
 46
0.0
 47
0.0
 48
0.0
 49
0.0
140
0.0
141
0.0
142
1.0
143
1.0
 70
   688
 72
     0
 73
     0
 74
     5
  7

 75
    16
 76
     0
 77
     2
 78
   300
147
1.0
148
0.0
149
0.0
100
AcDbLayout
  1
Layout1
 70
     1
 71
     1
 10
0.0
 20
0.0
 11
12.0
 21
9.0
 12
0.0
 22
0.0
 32
0.0
 14
1.000000000000000E+20
 24
1.000000000000000E+20
 34
1.000000000000000E+20
 15
-1.000000000000000E+20
 25
-1.000000000000000E+20
 35
-1.000000000000000E+20
146
0.0
 13
0.0
 23
0.0
 33
0.0
 16
1.0
 26
0.0
 36
0.0
 17
0.0
 27
1.0
 37
0.0
 76
     0
330
1B
  0
LAYOUT
  5
26
102
{ACAD_REACTORS
330
1A
102
}
330
1A
100
AcDbPlotSettings
  1

  2
none_device
  4

  6

 40
0.0
 41
0.0
 42
0.0
 43
0.0
 44
0.0
 45
0.0
 46
0.0
 47
0.0
 48
0.0
 49
0.0
140
0.0
141
0.0
142
1.0
143
1.0
 70
   688
 72
     0
 73
     0
 74
     5
  7

 75
    16
 76
     0
 77
     2
 78
   300
147
1.0
148
0.0
149
0.0
100
AcDbLayout
  1
Layout2
 70
     1
 71
     2
 10
0.0
 20
0.0
 11
0.0
 21
0.0
 12
0.0
 22
0.0
 32
0.0
 14
0.0
 24
0.0
 34
0.0
 15
0.0
 25
0.0
 35
0.0
146
0.0
 13
0.0
 23
0.0
 33
0.0
 16
1.0
 26
0.0
 36
0.0
 17
0.0
 27
1.0
 37
0.0
 76
     0
330
23
  0
LAYOUT
  5
22
102
{ACAD_REACTORS
330
1A
102
}
330
1A
100
AcDbPlotSettings
  1

  2
none_device
  4

  6

 40
0.0
 41
0.0
 42
0.0
 43
0.0
 44
0.0
 45
0.0
 46
0.0
 47
0.0
 48
0.0
 49
0.0
140
0.0
141
0.0
142
1.0
143
1.0
 70
  1712
 72
     0
 73
     0
 74
     0
  7

 75
     0
 76
     0
 77
     2
 78
   300
147
1.0
148
0.0
149
0.0
100
AcDbLayout
  1
Model
 70
     1
 71
     0
 10
0.0
 20
0.0
 11
12.0
 21
9.0
 12
0.0
 22
0.0
 32
0.0
 14
1.000000000000000E+20
 24
1.000000000000000E+20
 34
1.000000000000000E+20
 15
-1.000000000000000E+20
 25
-1.000000000000000E+20
 35
-1.000000000000000E+20
146
0.0
 13
0.0
 23
0.0
 33
0.0
 16
1.0
 26
0.0
 36
0.0
 17
0.0
 27
1.0
 37
0.0
 76
     0
330
1F
331
29
  0
MATERIAL
  5
3D
102
{ACAD_REACTORS
330
3B
102
}
330
3B
100
AcDbMaterial
  1
ByBlock
 72
     1
 94
      127
  0
MATERIAL
  5
3C
102
{ACAD_REACTORS
330
3B
102
}
330
3B
100
AcDbMaterial
  1
ByLayer
 72
     1
 94
      127
  0
MATERIAL
  5
3E
102
{ACAD_REACTORS
330
3B
102
}
330
3B
100
AcDbMaterial
  1
Global
 72
     1
 94
      127
  0
MLINESTYLE
  5
18
102
{ACAD_REACTORS
330
17
102
}
330
17
100
AcDbMlineStyle
  2
Standard
 70
     0
  3

 62
   256
 51
90.0
 52
90.0
 71
     2
 49
0.5
 62
   256
  6
BYLAYER
 49
-0.5
 62
   256
  6
BYLAYER
  0
ACDBPLACEHOLDER
  5
F
102
{ACAD_REACTORS
330
E
102
}
330
E
  0
VISUALSTYLE
  5
2F
102
{ACAD_REACTORS
330
2A
102
}
102
{ACAD_XDICTIONARY
360
4B
102
}
330
2A
100
AcDbVisualStyle
  2
2dWireframe
 70
     4
 71
     0
 72
     2
 73
     0
 90
        0
 40
-0.6
 41
-30.0
 62
     5
 63
     7
421
 16777215
 74
     1
 91
        4
 64
     7
 65
   257
 75
     1
175
     1
 42
1.0
 92
        0
 66
   257
 43
1.0
 76
     1
 77
     6
 78
     2
 67
     7
 79
     5
170
     0
171
     0
290
     0
174
     0
 93
        1
 44
0.0
173
     0
291
     0
 45
0.0
  0
VISUALSTYLE
  5
31
102
{ACAD_REACTORS
330
2A
102
}
102
{ACAD_XDICTIONARY
360
4F
102
}
330
2A
100
AcDbVisualStyle
  2
3D Hidden
 70
     6
 71
     1
 72
     2
 73
     2
 90
        0
 40
-0.6
 41
-30.0
 62
     5
 63
     7
421
 16777215
 74
     2
 91
        2
 64
     7
 65
   257
 75
     2
175
     1
 42
40.0
 92
        0
 66
   257
 43
1.0
 76
     1
 77
     6
 78
     2
 67
     7
 79
     3
170
     0
171
     0
290
     0
174
     0
 93
        1
 44
0.0
173
     0
291
     0
 45
0.0
  0
VISUALSTYLE
  5
30
102
{ACAD_REACTORS
330
2A
102
}
102
{ACAD_XDICTIONARY
360
4D
102
}
330
2A
100
AcDbVisualStyle
  2
3dWireframe
 70
     5
 71
     0
 72
     2
 73
     0
 90
        0
 40
-0.6
 41
-30.0
 62
     5
 63
     7
421
 16777215
 74
     1
 91
        4
 64
     7
 65
   257
 75
     1
175
     1
 42
1.0
 92
        0
 66
   257
 43
1.0
 76
     1
 77
     6
 78
     2
 67
     7
 79
     5
170
     0
171
     0
290
     0
174
     0
 93
        1
 44
0.0
173
     0
291
     0
 45
0.0
  0
VISUALSTYLE
  5
32
102
{ACAD_REACTORS
330
2A
102
}
102
{ACAD_XDICTIONARY
360
51
102
}
330
2A
100
AcDbVisualStyle
  2
Basic
 70
     7
 71
     1
 72
     0
 73
     1
 90
        0
 40
-0.6
 41
-30.0
 62
     5
 63
     7
421
 16777215
 74
     0
 91
        4
 64
     7
 65
   257
 75
     1
175
     1
 42
1.0
 92
        8
 66
     7
 43
1.0
 76
     1
 77
     6
 78
     2
 67
     7
 79
     5
170
     0
171
     0
290
     0
174
     0
 93
        1
 44
0.0
173
     0
291
     1
 45
0.0
  0
VISUALSTYLE
  5
36
102
{ACAD_REACTORS
330
2A
102
}
102
{ACAD_XDICTIONARY
360
59
102
}
330
2A
100
AcDbVisualStyle
  2
Brighten
 70
    12
 71
     2
 72
     2
 73
     0
 90
        0
 40
-0.6
 41
-30.0
 62
     5
 63
     7
421
 16777215
 74
     1
 91
        4
 64
     7
 65
   257
 75
     1
175
     1
 42
1.0
 92
        8
 66
     7
 43
1.0
 76
     1
 77
     6
 78
     2
 67
     7
 79
     5
170
     0
171
     0
290
     0
174
     0
 93
        1
 44
50.0
173
     0
291
     1
 45
0.0
  0
VISUALSTYLE
  5
3A
102
{ACAD_REACTORS
330
2A
102
}
102
{ACAD_XDICTIONARY
360
61
102
}
330
2A
100
AcDbVisualStyle
  2
ColorChange
 70
    16
 71
     2
 72
     2
 73
     3
 90
        0
 40
-0.6
 41
-30.0
 62
     5
 63
     8
421
  8421504
 74
     1
 91
        4
 64
     7
 65
   257
 75
     1
175
     1
 42
1.0
 92
        8
 66
     8
424
  8421504
 43
1.0
 76
     1
 77
     6
 78
     2
 67
     7
 79
     5
170
     0
171
     0
290
     0
174
     0
 93
        1
 44
0.0
173
     0
291
     1
 45
0.0
  0
VISUALSTYLE
  5
34
102
{ACAD_REACTORS
330
2A
102
}
102
{ACAD_XDICTIONARY
360
55
102
}
330
2A
100
AcDbVisualStyle
  2
Conceptual
 70
     9
 71
     3
 72
     2
 73
     0
 90
        0
 40
-0.6
 41
-30.0
 62
     5
 63
     7
421
 16777215
 74
     2
 91
        2
 64
     7
 65
   257
 75
     1
175
     1
 42
40.0
 92
        8
 66
     7
 43
1.0
 76
     1
 77
     6
 78
     2
 67
     7
 79
     3
170
     0
171
     0
290
     0
174
     0
 93
        1
 44
0.0
173
     0
291
     0
 45
0.0
  0
VISUALSTYLE
  5
35
102
{ACAD_REACTORS
330
2A
102
}
102
{ACAD_XDICTIONARY
360
57
102
}
330
2A
100
AcDbVisualStyle
  2
Dim
 70
    11
 71
     2
 72
     2
 73
     0
 90
        0
 40
-0.6
 41
-30.0
 62
     5
 63
     7
421
 16777215
 74
     1
 91
        4
 64
     7
 65
   257
 75
     1
175
     1
 42
1.0
 92
        8
 66
     7
 43
1.0
 76
     1
 77
     6
 78
     2
 67
     7
 79
     5
170
     0
171
     0
290
     0
174
     0
 93
        1
 44
-50.0
173
     0
291
     1
 45
0.0
  0
VISUALSTYLE
  5
39
102
{ACAD_REACTORS
330
2A
102
}
102
{ACAD_XDICTIONARY
360
5F
102
}
330
2A
100
AcDbVisualStyle
  2
Facepattern
 70
    15
 71
     2
 72
     2
 73
     0
 90
        0
 40
-0.6
 41
-30.0
 62
     5
 63
     7
421
 16777215
 74
     1
 91
        4
 64
     7
 65
   257
 75
     1
175
     1
 42
1.0
 92
        8
 66
     7
 43
1.0
 76
     1
 77
     6
 78
     2
 67
     7
 79
     5
170
     0
171
     0
290
     0
174
     0
 93
        1
 44
0.0
173
     0
291
     1
 45
0.0
  0
VISUALSTYLE
  5
2B
102
{ACAD_REACTORS
330
2A
102
}
102
{ACAD_XDICTIONARY
360
43
102
}
330
2A
100
AcDbVisualStyle
  2
Flat
 70
     0
 71
     2
 72
     1
 73
     1
 90
        2
 40
-0.6
 41
30.0
 62
     5
 63
     7
421
 16777215
 74
     0
 91
        4
 64
     7
 65
   257
 75
     1
175
     1
 42
1.0
 92
        8
 66
     7
 43
1.0
 76
     1
 77
     6
 78
     2
 67
     7
 79
     5
170
     0
171
     0
290
     0
174
     0
 93
       13
 44
0.0
173
     0
291
     1
 45
0.0
  0
VISUALSTYLE
  5
2C
102
{ACAD_REACTORS
330
2A
102
}
102
{ACAD_XDICTIONARY
360
45
102
}
330
2A
100
AcDbVisualStyle
  2
FlatWithEdges
 70
     1
 71
     2
 72
     1
 73
     1
 90
        2
 40
-0.6
 41
30.0
 62
     5
 63
     7
421
 16777215
 74
     1
 91
        4
 64
     7
 65
   257
 75
     1
175
     1
 42
1.0
 92
        0
 66
   257
 43
1.0
 76
     1
 77
     6
 78
     2
 67
     7
 79
     5
170
     0
171
     0
290
     0
174
     0
 93
       13
 44
0.0
173
     0
291
     1
 45
0.0
  0
VISUALSTYLE
  5
2D
102
{ACAD_REACTORS
330
2A
102
}
102
{ACAD_XDICTIONARY
360
47
102
}
330
2A
100
AcDbVisualStyle
  2
Gouraud
 70
     2
 71
     2
 72
     2
 73
     1
 90
        2
 40
-0.6
 41
30.0
 62
     5
 63
     7
421
 16777215
 74
     0
 91
        4
 64
     7
 65
   257
 75
     1
175
     1
 42
1.0
 92
        0
 66
     7
 43
1.0
 76
     1
 77
     6
 78
     2
 67
     7
 79
     5
170
     0
171
     0
290
     0
174
     0
 93
       13
 44
0.0
173
     0
291
     1
 45
0.0
  0
VISUALSTYLE
  5
2E
102
{ACAD_REACTORS
330
2A
102
}
102
{ACAD_XDICTIONARY
360
49
102
}
330
2A
100
AcDbVisualStyle
  2
GouraudWithEdges
 70
     3
 71
     2
 72
     2
 73
     1
 90
        2
 40
-0.6
 41
30.0
 62
     5
 63
     7
421
 16777215
 74
     1
 91
        4
 64
     7
 65
   257
 75
     1
175
     1
 42
1.0
 92
        0
 66
   257
 43
1.0
 76
     1
 77
     6
 78
     2
 67
     7
 79
     5
170
     0
171
     0
290
     0
174
     0
 93
       13
 44
0.0
173
     0
291
     1
 45
0.0
  0
VISUALSTYLE
  5
38
102
{ACAD_REACTORS
330
2A
102
}
102
{ACAD_XDICTIONARY
360
5D
102
}
330
2A
100
AcDbVisualStyle
  2
Linepattern
 70
    14
 71
     2
 72
     2
 73
     0
 90
        0
 40
-0.6
 41
-30.0
 62
     5
 63
     7
421
 16777215
 74
     1
 91
        4
 64
     7
 65
   257
 75
     7
175
     7
 42
1.0
 92
        8
 66
     7
 43
1.0
 76
     1
 77
     6
 78
     2
 67
     7
 79
     5
170
     0
171
     0
290
     0
174
     0
 93
        1
 44
0.0
173
     0
291
     1
 45
0.0
  0
VISUALSTYLE
  5
33
102
{ACAD_REACTORS
330
2A
102
}
102
{ACAD_XDICTIONARY
360
53
102
}
330
2A
100
AcDbVisualStyle
  2
Realistic
 70
     8
 71
     2
 72
     2
 73
     0
 90
        0
 40
-0.6
 41
-30.0
 62
     5
 63
     7
421
 16777215
 74
     1
 91
        0
 64
     7
 65
   257
 75
     1
175
     1
 42
1.0
 92
        8
 66
     8
424
  7895160
 43
1.0
 76
     1
 77
     6
 78
     2
 67
     7
 79
     5
170
     0
171
     0
290
     0
174
     0
 93
       13
 44
0.0
173
     0
291
     0
 45
0.0
  0
VISUALSTYLE
  5
37
102
{ACAD_REACTORS
330
2A
102
}
102
{ACAD_XDICTIONARY
360
5B
102
}
330
2A
100
AcDbVisualStyle
  2
Thicken
 70
    13
 71
     2
 72
     2
 73
     0
 90
        0
 40
-0.6
 41
-30.0
 62
     5
 63
     7
421
 16777215
 74
     1
 91
        4
 64
     7
 65
   257
 75
     1
175
     1
 42
1.0
 92
       12
 66
     7
 43
1.0
 76
     1
 77
     6
 78
     2
 67
     7
 79
     5
170
     0
171
     0
290
     0
174
     0
 93
        1
 44
0.0
173
     0
291
     1
 45
0.0
  0
DICTIONARY
  5
4B
330
2F
100
AcDbDictionary
280
     1
281
     1
  3
ACAD_XREC_ROUNDTRIP
360
4C
  0
DICTIONARY
  5
4F
330
31
100
AcDbDictionary
280
     1
281
     1
  3
ACAD_XREC_ROUNDTRIP
360
50
  0
DICTIONARY
  5
4D
330
30
100
AcDbDictionary
280
     1
281
     1
  3
ACAD_XREC_ROUNDTRIP
360
4E
  0
DICTIONARY
  5
51
330
32
100
AcDbDictionary
280
     1
281
     1
  3
ACAD_XREC_ROUNDTRIP
360
52
  0
DICTIONARY
  5
59
330
36
100
AcDbDictionary
280
     1
281
     1
  3
ACAD_XREC_ROUNDTRIP
360
5A
  0
DICTIONARY
  5
61
330
3A
100
AcDbDictionary
280
     1
281
     1
  3
ACAD_XREC_ROUNDTRIP
360
62
  0
DICTIONARY
  5
55
330
34
100
AcDbDictionary
280
     1
281
     1
  3
ACAD_XREC_ROUNDTRIP
360
56
  0
DICTIONARY
  5
57
330
35
100
AcDbDictionary
280
     1
281
     1
  3
ACAD_XREC_ROUNDTRIP
360
58
  0
DICTIONARY
  5
5F
330
39
100
AcDbDictionary
280
     1
281
     1
  3
ACAD_XREC_ROUNDTRIP
360
60
  0
DICTIONARY
  5
43
330
2B
100
AcDbDictionary
280
     1
281
     1
  3
ACAD_XREC_ROUNDTRIP
360
44
  0
DICTIONARY
  5
45
330
2C
100
AcDbDictionary
280
     1
281
     1
  3
ACAD_XREC_ROUNDTRIP
360
46
  0
DICTIONARY
  5
47
330
2D
100
AcDbDictionary
280
     1
281
     1
  3
ACAD_XREC_ROUNDTRIP
360
48
  0
DICTIONARY
  5
49
330
2E
100
AcDbDictionary
280
     1
281
     1
  3
ACAD_XREC_ROUNDTRIP
360
4A
  0
DICTIONARY
  5
5D
330
38
100
AcDbDictionary
280
     1
281
     1
  3
ACAD_XREC_ROUNDTRIP
360
5E
  0
DICTIONARY
  5
53
330
33
100
AcDbDictionary
280
     1
281
     1
  3
ACAD_XREC_ROUNDTRIP
360
54
  0
DICTIONARY
  5
5B
330
37
100
AcDbDictionary
280
     1
281
     1
  3
ACAD_XREC_ROUNDTRIP
360
5C
  0
XRECORD
  5
4C
102
{ACAD_REACTORS
330
4B
102
}
330
4B
100
AcDbXrecord
280
     1
102
RTVSPropertyOp0
 70
     1
102
RTVSPropertyOp1
 70
     1
102
RTVSPropertyOp2
 70
     1
102
RTVSPropertyOp3
 70
     1
102
RTVSPropertyOp4
 70
     1
102
RTVSPropertyOp5
 70
     1
102
RTVSPropertyOp6
 70
     1
102
RTVSPropertyOp7
 70
     1
102
RTVSPropertyOp8
 70
     1
102
RTVSPropertyOp9
 70
     1
102
RTVSPropertyOp10
 70
     1
102
RTVSPropertyOp11
 70
     1
102
RTVSPropertyOp12
 70
     1
102
RTVSPropertyOp13
 70
     1
102
RTVSPropertyOp14
 70
     1
102
RTVSPropertyOp15
 70
     1
102
RTVSPropertyOp16
 70
     1
102
RTVSPropertyOp17
 70
     1
102
RTVSPropertyOp18
 70
     1
102
RTVSPropertyOp19
 70
     1
102
RTVSPropertyOp20
 70
     1
102
RTVSPropertyOp21
 70
     1
102
RTVSPropertyOp22
 70
     1
102
RTVSPropertyOp23
 70
     1
102
RTVSPropertyOp24
 70
     1
102
RTVSPropertyOp25
 70
     1
102
RTVSPropertyOp26
 70
     1
102
RTVSPropertyOp27
 70
     1
102
RTVSPropertyOp28
 70
     1
102
RTVSPropertyOp29
 70
     1
102
RTVSPropertyOp30
 70
     1
102
RTVSPropertyOp31
 70
     1
102
RTVSPropertyOp32
 70
     1
  0
XRECORD
  5
50
102
{ACAD_REACTORS
330
4F
102
}
330
4F
100
AcDbXrecord
280
     1
102
RTVSPropertyOp0
 70
     1
102
RTVSPropertyOp1
 70
     1
102
RTVSPropertyOp2
 70
     1
102
RTVSPropertyOp3
 70
     1
102
RTVSPropertyOp4
 70
     1
102
RTVSPropertyOp5
 70
     1
102
RTVSPropertyOp6
 70
     1
102
RTVSPropertyOp7
 70
     1
102
RTVSPropertyOp8
 70
     1
102
RTVSPropertyOp9
 70
     1
102
RTVSPropertyOp10
 70
     1
102
RTVSPropertyOp11
 70
     1
102
RTVSPropertyOp12
 70
     1
102
RTVSPropertyOp13
 70
     1
102
RTVSPropertyOp14
 70
     1
102
RTVSPropertyOp15
 70
     1
102
RTVSPropertyOp16
 70
     1
102
RTVSPropertyOp17
 70
     1
102
RTVSPropertyOp18
 70
     1
102
RTVSPropertyOp19
 70
     1
102
RTVSPropertyOp20
 70
     1
102
RTVSPropertyOp21
 70
     1
102
RTVSPropertyOp22
 70
     1
102
RTVSPropertyOp23
 70
     1
102
RTVSPropertyOp24
 70
     1
102
RTVSPropertyOp25
 70
     1
102
RTVSPropertyOp26
 70
     1
102
RTVSPropertyOp27
 70
     1
102
RTVSPropertyOp28
 70
     1
102
RTVSPropertyOp29
 70
     1
102
RTVSPropertyOp30
 70
     1
102
RTVSPropertyOp31
 70
     1
102
RTVSPropertyOp32
 70
     1
  0
XRECORD
  5
4E
102
{ACAD_REACTORS
330
4D
102
}
330
4D
100
AcDbXrecord
280
     1
102
RTVSPropertyOp0
 70
     1
102
RTVSPropertyOp1
 70
     1
102
RTVSPropertyOp2
 70
     1
102
RTVSPropertyOp3
 70
     1
102
RTVSPropertyOp4
 70
     1
102
RTVSPropertyOp5
 70
     1
102
RTVSPropertyOp6
 70
     1
102
RTVSPropertyOp7
 70
     1
102
RTVSPropertyOp8
 70
     1
102
RTVSPropertyOp9
 70
     1
102
RTVSPropertyOp10
 70
     1
102
RTVSPropertyOp11
 70
     1
102
RTVSPropertyOp12
 70
     1
102
RTVSPropertyOp13
 70
     1
102
RTVSPropertyOp14
 70
     1
102
RTVSPropertyOp15
 70
     1
102
RTVSPropertyOp16
 70
     1
102
RTVSPropertyOp17
 70
     1
102
RTVSPropertyOp18
 70
     1
102
RTVSPropertyOp19
 70
     1
102
RTVSPropertyOp20
 70
     1
102
RTVSPropertyOp21
 70
     1
102
RTVSPropertyOp22
 70
     1
102
RTVSPropertyOp23
 70
     1
102
RTVSPropertyOp24
 70
     1
102
RTVSPropertyOp25
 70
     1
102
RTVSPropertyOp26
 70
     1
102
RTVSPropertyOp27
 70
     1
102
RTVSPropertyOp28
 70
     1
102
RTVSPropertyOp29
 70
     1
102
RTVSPropertyOp30
 70
     1
102
RTVSPropertyOp31
 70
     1
102
RTVSPropertyOp32
 70
     1
  0
XRECORD
  5
52
102
{ACAD_REACTORS
330
51
102
}
330
51
100
AcDbXrecord
280
     1
102
RTVSPropertyOp0
 70
     1
102
RTVSPropertyOp1
 70
     1
102
RTVSPropertyOp2
 70
     1
102
RTVSPropertyOp3
 70
     1
102
RTVSPropertyOp4
 70
     1
102
RTVSPropertyOp5
 70
     1
102
RTVSPropertyOp6
 70
     1
102
RTVSPropertyOp7
 70
     1
102
RTVSPropertyOp8
 70
     1
102
RTVSPropertyOp9
 70
     1
102
RTVSPropertyOp10
 70
     1
102
RTVSPropertyOp11
 70
     1
102
RTVSPropertyOp12
 70
     1
102
RTVSPropertyOp13
 70
     1
102
RTVSPropertyOp14
 70
     1
102
RTVSPropertyOp15
 70
     1
102
RTVSPropertyOp16
 70
     1
102
RTVSPropertyOp17
 70
     1
102
RTVSPropertyOp18
 70
     1
102
RTVSPropertyOp19
 70
     1
102
RTVSPropertyOp20
 70
     1
102
RTVSPropertyOp21
 70
     1
102
RTVSPropertyOp22
 70
     1
102
RTVSPropertyOp23
 70
     1
102
RTVSPropertyOp24
 70
     1
102
RTVSPropertyOp25
 70
     1
102
RTVSPropertyOp26
 70
     1
102
RTVSPropertyOp27
 70
     1
102
RTVSPropertyOp28
 70
     1
102
RTVSPropertyOp29
 70
     1
102
RTVSPropertyOp30
 70
     1
102
RTVSPropertyOp31
 70
     1
102
RTVSPropertyOp32
 70
     1
  0
XRECORD
  5
5A
102
{ACAD_REACTORS
330
59
102
}
330
59
100
AcDbXrecord
280
     1
102
RTVSPropertyOp0
 70
     1
102
RTVSPropertyOp1
 70
     1
102
RTVSPropertyOp2
 70
     1
102
RTVSPropertyOp3
 70
     1
102
RTVSPropertyOp4
 70
     1
102
RTVSPropertyOp5
 70
     1
102
RTVSPropertyOp6
 70
     1
102
RTVSPropertyOp7
 70
     1
102
RTVSPropertyOp8
 70
     1
102
RTVSPropertyOp9
 70
     1
102
RTVSPropertyOp10
 70
     1
102
RTVSPropertyOp11
 70
     1
102
RTVSPropertyOp12
 70
     1
102
RTVSPropertyOp13
 70
     1
102
RTVSPropertyOp14
 70
     1
102
RTVSPropertyOp15
 70
     1
102
RTVSPropertyOp16
 70
     1
102
RTVSPropertyOp17
 70
     1
102
RTVSPropertyOp18
 70
     1
102
RTVSPropertyOp19
 70
     1
102
RTVSPropertyOp20
 70
     1
102
RTVSPropertyOp21
 70
     1
102
RTVSPropertyOp22
 70
     1
102
RTVSPropertyOp23
 70
     1
102
RTVSPropertyOp24
 70
     1
102
RTVSPropertyOp25
 70
     1
102
RTVSPropertyOp26
 70
     1
102
RTVSPropertyOp27
 70
     1
102
RTVSPropertyOp28
 70
     1
102
RTVSPropertyOp29
 70
     1
102
RTVSPropertyOp30
 70
     1
102
RTVSPropertyOp31
 70
     1
102
RTVSPropertyOp32
 70
     1
  0
XRECORD
  5
62
102
{ACAD_REACTORS
330
61
102
}
330
61
100
AcDbXrecord
280
     1
102
RTVSPropertyOp0
 70
     1
102
RTVSPropertyOp1
 70
     1
102
RTVSPropertyOp2
 70
     1
102
RTVSPropertyOp3
 70
     1
102
RTVSPropertyOp4
 70
     1
102
RTVSPropertyOp5
 70
     1
102
RTVSPropertyOp6
 70
     1
102
RTVSPropertyOp7
 70
     1
102
RTVSPropertyOp8
 70
     1
102
RTVSPropertyOp9
 70
     1
102
RTVSPropertyOp10
 70
     1
102
RTVSPropertyOp11
 70
     1
102
RTVSPropertyOp12
 70
     1
102
RTVSPropertyOp13
 70
     1
102
RTVSPropertyOp14
 70
     1
102
RTVSPropertyOp15
 70
     1
102
RTVSPropertyOp16
 70
     1
102
RTVSPropertyOp17
 70
     1
102
RTVSPropertyOp18
 70
     1
102
RTVSPropertyOp19
 70
     1
102
RTVSPropertyOp20
 70
     1
102
RTVSPropertyOp21
 70
     1
102
RTVSPropertyOp22
 70
     1
102
RTVSPropertyOp23
 70
     1
102
RTVSPropertyOp24
 70
     1
102
RTVSPropertyOp25
 70
     1
102
RTVSPropertyOp26
 70
     1
102
RTVSPropertyOp27
 70
     1
102
RTVSPropertyOp28
 70
     1
102
RTVSPropertyOp29
 70
     1
102
RTVSPropertyOp30
 70
     1
102
RTVSPropertyOp31
 70
     1
102
RTVSPropertyOp32
 70
     1
  0
XRECORD
  5
56
102
{ACAD_REACTORS
330
55
102
}
330
55
100
AcDbXrecord
280
     1
102
RTVSPropertyOp0
 70
     1
102
RTVSPropertyOp1
 70
     1
102
RTVSPropertyOp2
 70
     1
102
RTVSPropertyOp3
 70
     1
102
RTVSPropertyOp4
 70
     1
102
RTVSPropertyOp5
 70
     1
102
RTVSPropertyOp6
 70
     1
102
RTVSPropertyOp7
 70
     1
102
RTVSPropertyOp8
 70
     1
102
RTVSPropertyOp9
 70
     1
102
RTVSPropertyOp10
 70
     1
102
RTVSPropertyOp11
 70
     1
102
RTVSPropertyOp12
 70
     1
102
RTVSPropertyOp13
 70
     1
102
RTVSPropertyOp14
 70
     1
102
RTVSPropertyOp15
 70
     1
102
RTVSPropertyOp16
 70
     1
102
RTVSPropertyOp17
 70
     1
102
RTVSPropertyOp18
 70
     1
102
RTVSPropertyOp19
 70
     1
102
RTVSPropertyOp20
 70
     1
102
RTVSPropertyOp21
 70
     1
102
RTVSPropertyOp22
 70
     1
102
RTVSPropertyOp23
 70
     1
102
RTVSPropertyOp24
 70
     1
102
RTVSPropertyOp25
 70
     1
102
RTVSPropertyOp26
 70
     1
102
RTVSPropertyOp27
 70
     1
102
RTVSPropertyOp28
 70
     1
102
RTVSPropertyOp29
 70
     1
102
RTVSPropertyOp30
 70
     1
102
RTVSPropertyOp31
 70
     1
102
RTVSPropertyOp32
 70
     1
  0
XRECORD
  5
58
102
{ACAD_REACTORS
330
57
102
}
330
57
100
AcDbXrecord
280
     1
102
RTVSPropertyOp0
 70
     1
102
RTVSPropertyOp1
 70
     1
102
RTVSPropertyOp2
 70
     1
102
RTVSPropertyOp3
 70
     1
102
RTVSPropertyOp4
 70
     1
102
RTVSPropertyOp5
 70
     1
102
RTVSPropertyOp6
 70
     1
102
RTVSPropertyOp7
 70
     1
102
RTVSPropertyOp8
 70
     1
102
RTVSPropertyOp9
 70
     1
102
RTVSPropertyOp10
 70
     1
102
RTVSPropertyOp11
 70
     1
102
RTVSPropertyOp12
 70
     1
102
RTVSPropertyOp13
 70
     1
102
RTVSPropertyOp14
 70
     1
102
RTVSPropertyOp15
 70
     1
102
RTVSPropertyOp16
 70
     1
102
RTVSPropertyOp17
 70
     1
102
RTVSPropertyOp18
 70
     1
102
RTVSPropertyOp19
 70
     1
102
RTVSPropertyOp20
 70
     1
102
RTVSPropertyOp21
 70
     1
102
RTVSPropertyOp22
 70
     1
102
RTVSPropertyOp23
 70
     1
102
RTVSPropertyOp24
 70
     1
102
RTVSPropertyOp25
 70
     1
102
RTVSPropertyOp26
 70
     1
102
RTVSPropertyOp27
 70
     1
102
RTVSPropertyOp28
 70
     1
102
RTVSPropertyOp29
 70
     1
102
RTVSPropertyOp30
 70
     1
102
RTVSPropertyOp31
 70
     1
102
RTVSPropertyOp32
 70
     1
  0
XRECORD
  5
60
102
{ACAD_REACTORS
330
5F
102
}
330
5F
100
AcDbXrecord
280
     1
102
RTVSPropertyOp0
 70
     1
102
RTVSPropertyOp1
 70
     1
102
RTVSPropertyOp2
 70
     1
102
RTVSPropertyOp3
 70
     1
102
RTVSPropertyOp4
 70
     1
102
RTVSPropertyOp5
 70
     1
102
RTVSPropertyOp6
 70
     1
102
RTVSPropertyOp7
 70
     1
102
RTVSPropertyOp8
 70
     1
102
RTVSPropertyOp9
 70
     1
102
RTVSPropertyOp10
 70
     1
102
RTVSPropertyOp11
 70
     1
102
RTVSPropertyOp12
 70
     1
102
RTVSPropertyOp13
 70
     1
102
RTVSPropertyOp14
 70
     1
102
RTVSPropertyOp15
 70
     1
102
RTVSPropertyOp16
 70
     1
102
RTVSPropertyOp17
 70
     1
102
RTVSPropertyOp18
 70
     1
102
RTVSPropertyOp19
 70
     1
102
RTVSPropertyOp20
 70
     1
102
RTVSPropertyOp21
 70
     1
102
RTVSPropertyOp22
 70
     1
102
RTVSPropertyOp23
 70
     1
102
RTVSPropertyOp24
 70
     1
102
RTVSPropertyOp25
 70
     1
102
RTVSPropertyOp26
 70
     1
102
RTVSPropertyOp27
 70
     1
102
RTVSPropertyOp28
 70
     1
102
RTVSPropertyOp29
 70
     1
102
RTVSPropertyOp30
 70
     1
102
RTVSPropertyOp31
 70
     1
102
RTVSPropertyOp32
 70
     1
  0
XRECORD
  5
44
102
{ACAD_REACTORS
330
43
102
}
330
43
100
AcDbXrecord
280
     1
102
RTVSPropertyOp0
 70
     1
102
RTVSPropertyOp1
 70
     1
102
RTVSPropertyOp2
 70
     1
102
RTVSPropertyOp3
 70
     1
102
RTVSPropertyOp4
 70
     1
102
RTVSPropertyOp5
 70
     1
102
RTVSPropertyOp6
 70
     1
102
RTVSPropertyOp7
 70
     1
102
RTVSPropertyOp8
 70
     1
102
RTVSPropertyOp9
 70
     1
102
RTVSPropertyOp10
 70
     1
102
RTVSPropertyOp11
 70
     1
102
RTVSPropertyOp12
 70
     1
102
RTVSPropertyOp13
 70
     1
102
RTVSPropertyOp14
 70
     1
102
RTVSPropertyOp15
 70
     1
102
RTVSPropertyOp16
 70
     1
102
RTVSPropertyOp17
 70
     1
102
RTVSPropertyOp18
 70
     1
102
RTVSPropertyOp19
 70
     1
102
RTVSPropertyOp20
 70
     1
102
RTVSPropertyOp21
 70
     1
102
RTVSPropertyOp22
 70
     1
102
RTVSPropertyOp23
 70
     1
102
RTVSPropertyOp24
 70
     1
102
RTVSPropertyOp25
 70
     1
102
RTVSPropertyOp26
 70
     1
102
RTVSPropertyOp27
 70
     1
102
RTVSPropertyOp28
 70
     1
102
RTVSPropertyOp29
 70
     1
102
RTVSPropertyOp30
 70
     1
102
RTVSPropertyOp31
 70
     1
102
RTVSPropertyOp32
 70
     1
  0
XRECORD
  5
46
102
{ACAD_REACTORS
330
45
102
}
330
45
100
AcDbXrecord
280
     1
102
RTVSPropertyOp0
 70
     1
102
RTVSPropertyOp1
 70
     1
102
RTVSPropertyOp2
 70
     1
102
RTVSPropertyOp3
 70
     1
102
RTVSPropertyOp4
 70
     1
102
RTVSPropertyOp5
 70
     1
102
RTVSPropertyOp6
 70
     1
102
RTVSPropertyOp7
 70
     1
102
RTVSPropertyOp8
 70
     1
102
RTVSPropertyOp9
 70
     1
102
RTVSPropertyOp10
 70
     1
102
RTVSPropertyOp11
 70
     1
102
RTVSPropertyOp12
 70
     1
102
RTVSPropertyOp13
 70
     1
102
RTVSPropertyOp14
 70
     1
102
RTVSPropertyOp15
 70
     1
102
RTVSPropertyOp16
 70
     1
102
RTVSPropertyOp17
 70
     1
102
RTVSPropertyOp18
 70
     1
102
RTVSPropertyOp19
 70
     1
102
RTVSPropertyOp20
 70
     1
102
RTVSPropertyOp21
 70
     1
102
RTVSPropertyOp22
 70
     1
102
RTVSPropertyOp23
 70
     1
102
RTVSPropertyOp24
 70
     1
102
RTVSPropertyOp25
 70
     1
102
RTVSPropertyOp26
 70
     1
102
RTVSPropertyOp27
 70
     1
102
RTVSPropertyOp28
 70
     1
102
RTVSPropertyOp29
 70
     1
102
RTVSPropertyOp30
 70
     1
102
RTVSPropertyOp31
 70
     1
102
RTVSPropertyOp32
 70
     1
  0
XRECORD
  5
48
102
{ACAD_REACTORS
330
47
102
}
330
47
100
AcDbXrecord
280
     1
102
RTVSPropertyOp0
 70
     1
102
RTVSPropertyOp1
 70
     1
102
RTVSPropertyOp2
 70
     1
102
RTVSPropertyOp3
 70
     1
102
RTVSPropertyOp4
 70
     1
102
RTVSPropertyOp5
 70
     1
102
RTVSPropertyOp6
 70
     1
102
RTVSPropertyOp7
 70
     1
102
RTVSPropertyOp8
 70
     1
102
RTVSPropertyOp9
 70
     1
102
RTVSPropertyOp10
 70
     1
102
RTVSPropertyOp11
 70
     1
102
RTVSPropertyOp12
 70
     1
102
RTVSPropertyOp13
 70
     1
102
RTVSPropertyOp14
 70
     1
102
RTVSPropertyOp15
 70
     1
102
RTVSPropertyOp16
 70
     1
102
RTVSPropertyOp17
 70
     1
102
RTVSPropertyOp18
 70
     1
102
RTVSPropertyOp19
 70
     1
102
RTVSPropertyOp20
 70
     1
102
RTVSPropertyOp21
 70
     1
102
RTVSPropertyOp22
 70
     1
102
RTVSPropertyOp23
 70
     1
102
RTVSPropertyOp24
 70
     1
102
RTVSPropertyOp25
 70
     1
102
RTVSPropertyOp26
 70
     1
102
RTVSPropertyOp27
 70
     1
102
RTVSPropertyOp28
 70
     1
102
RTVSPropertyOp29
 70
     1
102
RTVSPropertyOp30
 70
     1
102
RTVSPropertyOp31
 70
     1
102
RTVSPropertyOp32
 70
     1
  0
XRECORD
  5
4A
102
{ACAD_REACTORS
330
49
102
}
330
49
100
AcDbXrecord
280
     1
102
RTVSPropertyOp0
 70
     1
102
RTVSPropertyOp1
 70
     1
102
RTVSPropertyOp2
 70
     1
102
RTVSPropertyOp3
 70
     1
102
RTVSPropertyOp4
 70
     1
102
RTVSPropertyOp5
 70
     1
102
RTVSPropertyOp6
 70
     1
102
RTVSPropertyOp7
 70
     1
102
RTVSPropertyOp8
 70
     1
102
RTVSPropertyOp9
 70
     1
102
RTVSPropertyOp10
 70
     1
102
RTVSPropertyOp11
 70
     1
102
RTVSPropertyOp12
 70
     1
102
RTVSPropertyOp13
 70
     1
102
RTVSPropertyOp14
 70
     1
102
RTVSPropertyOp15
 70
     1
102
RTVSPropertyOp16
 70
     1
102
RTVSPropertyOp17
 70
     1
102
RTVSPropertyOp18
 70
     1
102
RTVSPropertyOp19
 70
     1
102
RTVSPropertyOp20
 70
     1
102
RTVSPropertyOp21
 70
     1
102
RTVSPropertyOp22
 70
     1
102
RTVSPropertyOp23
 70
     1
102
RTVSPropertyOp24
 70
     1
102
RTVSPropertyOp25
 70
     1
102
RTVSPropertyOp26
 70
     1
102
RTVSPropertyOp27
 70
     1
102
RTVSPropertyOp28
 70
     1
102
RTVSPropertyOp29
 70
     1
102
RTVSPropertyOp30
 70
     1
102
RTVSPropertyOp31
 70
     1
102
RTVSPropertyOp32
 70
     1
  0
XRECORD
  5
5E
102
{ACAD_REACTORS
330
5D
102
}
330
5D
100
AcDbXrecord
280
     1
102
RTVSPropertyOp0
 70
     1
102
RTVSPropertyOp1
 70
     1
102
RTVSPropertyOp2
 70
     1
102
RTVSPropertyOp3
 70
     1
102
RTVSPropertyOp4
 70
     1
102
RTVSPropertyOp5
 70
     1
102
RTVSPropertyOp6
 70
     1
102
RTVSPropertyOp7
 70
     1
102
RTVSPropertyOp8
 70
     1
102
RTVSPropertyOp9
 70
     1
102
RTVSPropertyOp10
 70
     1
102
RTVSPropertyOp11
 70
     1
102
RTVSPropertyOp12
 70
     1
102
RTVSPropertyOp13
 70
     1
102
RTVSPropertyOp14
 70
     1
102
RTVSPropertyOp15
 70
     1
102
RTVSPropertyOp16
 70
     1
102
RTVSPropertyOp17
 70
     1
102
RTVSPropertyOp18
 70
     1
102
RTVSPropertyOp19
 70
     1
102
RTVSPropertyOp20
 70
     1
102
RTVSPropertyOp21
 70
     1
102
RTVSPropertyOp22
 70
     1
102
RTVSPropertyOp23
 70
     1
102
RTVSPropertyOp24
 70
     1
102
RTVSPropertyOp25
 70
     1
102
RTVSPropertyOp26
 70
     1
102
RTVSPropertyOp27
 70
     1
102
RTVSPropertyOp28
 70
     1
102
RTVSPropertyOp29
 70
     1
102
RTVSPropertyOp30
 70
     1
102
RTVSPropertyOp31
 70
     1
102
RTVSPropertyOp32
 70
     1
  0
XRECORD
  5
54
102
{ACAD_REACTORS
330
53
102
}
330
53
100
AcDbXrecord
280
     1
102
RTVSPropertyOp0
 70
     1
102
RTVSPropertyOp1
 70
     1
102
RTVSPropertyOp2
 70
     1
102
RTVSPropertyOp3
 70
     1
102
RTVSPropertyOp4
 70
     1
102
RTVSPropertyOp5
 70
     1
102
RTVSPropertyOp6
 70
     1
102
RTVSPropertyOp7
 70
     1
102
RTVSPropertyOp8
 70
     1
102
RTVSPropertyOp9
 70
     1
102
RTVSPropertyOp10
 70
     1
102
RTVSPropertyOp11
 70
     1
102
RTVSPropertyOp12
 70
     1
102
RTVSPropertyOp13
 70
     1
102
RTVSPropertyOp14
 70
     1
102
RTVSPropertyOp15
 70
     1
102
RTVSPropertyOp16
 70
     1
102
RTVSPropertyOp17
 70
     1
102
RTVSPropertyOp18
 70
     1
102
RTVSPropertyOp19
 70
     1
102
RTVSPropertyOp20
 70
     1
102
RTVSPropertyOp21
 70
     1
102
RTVSPropertyOp22
 70
     1
102
RTVSPropertyOp23
 70
     1
102
RTVSPropertyOp24
 70
     1
102
RTVSPropertyOp25
 70
     1
102
RTVSPropertyOp26
 70
     1
102
RTVSPropertyOp27
 70
     1
102
RTVSPropertyOp28
 70
     1
102
RTVSPropertyOp29
 70
     1
102
RTVSPropertyOp30
 70
     1
102
RTVSPropertyOp31
 70
     1
102
RTVSPropertyOp32
 70
     1
  0
XRECORD
  5
5C
102
{ACAD_REACTORS
330
5B
102
}
330
5B
100
AcDbXrecord
280
     1
102
RTVSPropertyOp0
 70
     1
102
RTVSPropertyOp1
 70
     1
102
RTVSPropertyOp2
 70
     1
102
RTVSPropertyOp3
 70
     1
102
RTVSPropertyOp4
 70
     1
102
RTVSPropertyOp5
 70
     1
102
RTVSPropertyOp6
 70
     1
102
RTVSPropertyOp7
 70
     1
102
RTVSPropertyOp8
 70
     1
102
RTVSPropertyOp9
 70
     1
102
RTVSPropertyOp10
 70
     1
102
RTVSPropertyOp11
 70
     1
102
RTVSPropertyOp12
 70
     1
102
RTVSPropertyOp13
 70
     1
102
RTVSPropertyOp14
 70
     1
102
RTVSPropertyOp15
 70
     1
102
RTVSPropertyOp16
 70
     1
102
RTVSPropertyOp17
 70
     1
102
RTVSPropertyOp18
 70
     1
102
RTVSPropertyOp19
 70
     1
102
RTVSPropertyOp20
 70
     1
102
RTVSPropertyOp21
 70
     1
102
RTVSPropertyOp22
 70
     1
102
RTVSPropertyOp23
 70
     1
102
RTVSPropertyOp24
 70
     1
102
RTVSPropertyOp25
 70
     1
102
RTVSPropertyOp26
 70
     1
102
RTVSPropertyOp27
 70
     1
102
RTVSPropertyOp28
 70
     1
102
RTVSPropertyOp29
 70
     1
102
RTVSPropertyOp30
 70
     1
102
RTVSPropertyOp31
 70
     1
102
RTVSPropertyOp32
 70
     1
  0
ENDSEC
  0
EOF
