<?xml version="1.0" encoding="utf-8"?>
<!-- Generator: Adobe Illustrator 16.0.0, SVG Export Plug-In . SVG Version: 6.00 Build 0)  -->
<!DOCTYPE svg PUBLIC "-//W3C//DTD SVG 1.1//EN" "http://www.w3.org/Graphics/SVG/1.1/DTD/svg11.dtd">
<svg version="1.1" id="Layer_1" xmlns="http://www.w3.org/2000/svg" xmlns:xlink="http://www.w3.org/1999/xlink" x="0px" y="0px"
	 width="226.77px" height="226.77px" viewBox="0 0 226.77 226.77" enable-background="new 0 0 226.77 226.77" xml:space="preserve">
<g>
	<path fill-rule="evenodd" clip-rule="evenodd" d="M163.874,95.927c0.01,1.173-0.103,2.191-0.179,3.187
		c-0.194,0.02-0.393,0.039-0.588,0.059c0.013,1.198-0.081,2.861-0.945,3.186c-0.315,0.122-0.508-0.148-0.768,0.059
		c-0.081,0.453-0.157,0.907-0.236,1.359c-0.628-0.119-1.258-0.237-1.885-0.355c-0.34,1.647-2.356,1.431-3.776,1.948
		c0.233,0.235,0.47,0.472,0.706,0.708c0,0.02,0,0.04,0,0.058c0,0.199,0,0.396,0,0.591c-1.405,0.729-2.138,0.531-3.301-0.236
		c-0.021,0-0.043,0-0.063,0c-0.038,0.472-0.078,0.944-0.116,1.416c-1.539-0.024-3.29-0.092-4.367,0.355
		c-0.58-0.271-1.004-0.593-1.475-0.943c-1.255,0.352-2.376,0.734-3.601,0.057c0.393,0.453,0.787,0.906,1.18,1.358
		c-0.098,0.157-0.195,0.314-0.294,0.471c-1.586-0.026-1.975-1.06-3.008-1.474c-0.688,0.018-1.378,0.039-2.067,0.059
		c-0.993-0.231-1.795-0.991-2.595-1.239c-0.653-0.203-1.169,0.312-1.652,0.413c-0.079-0.079-0.158-0.158-0.234-0.236
		c-1.006,0.748-2.006,1.495-3.011,2.244c-0.157-0.16-0.315-0.317-0.473-0.474c-0.403-0.214-0.878-1.06-1.237-0.887
		c-0.236,0.138-0.473,0.278-0.707,0.414c-0.321,3.253-1.914,6.4-3.308,8.792c-2.272,3.904-4.131,7.909-6.43,11.682
		c-0.944,1.455-1.888,2.91-2.831,4.367c0.117,1.69,0.236,3.381,0.351,5.071c0.239,1.693,0.475,3.386,0.711,5.077
		c0.403,1.905,0.874,3.728,0.942,5.958c-0.077,1.907-0.158,3.815-0.234,5.724c0.679,4.151,1.77,7.57,1.77,12.331
		c0,0.944,0,1.888,0,2.832c-0.895,5.636-1.514,11.288-1.475,17.878c0.021,3.141,0.391,6.996,1.063,9.735
		c0.351,1.437,0.812,3.798,0.114,5.249c-0.234,0.179-0.468,0.355-0.706,0.532c-2.792-0.138-5.584-0.274-8.378-0.413
		c-3.788,0.563-9.795,0.711-13.573,0.117c-1.176,0-2.359,0-3.536,0c-0.373-0.138-0.749-0.275-1.122-0.412
		c-0.088-0.984-0.529-2.576-0.058-3.6c1.04-0.352,2.279-0.922,3.48-1.18c1.924-0.414,3.7-0.323,5.427-0.766
		c1.005-0.354,2.006-0.708,3.009-1.063c1.893-0.594,3.874-1,4.838-2.48c1.111-1.702,1.122-9.055,0.65-11.859
		c-0.729-5.309-1.457-10.618-2.182-15.93c-0.553-3.285,0.185-7.311-0.298-10.264c-0.02,0-0.039,0-0.06,0
		c-0.644,4.333-2.819,8.195-4.719,11.445c-0.886,2.004-1.769,4.012-2.653,6.018c-1.76,3.021-3.645,6.252-5.019,9.557
		c-0.472,1.496-0.944,2.99-1.413,4.485c-0.376,0.982-0.748,1.968-1.124,2.95c-0.038,0.826-0.077,1.652-0.117,2.479
		c-0.391,2.108-0.559,4.73-1.355,6.547c-0.841,1.923-3.942,6.65-5.783,7.318c-0.655,0.239-2.822-0.491-3.187-0.707
		c-1.359-0.813-1.635-1.955-1.945-3.896c-0.737-4.592,2.574-7.621,3.538-10.854c0.442-1.485-0.664-2.966,0.298-4.604
		c1.427-2.438,3.908-4.305,5.013-7.021c0.256-1.002,0.512-2.002,0.769-3.008c0.729-2.387,1.377-5.012,1.945-7.551
		c0.374-2.126,0.748-4.25,1.123-6.373c0.511-1.809,1.023-3.619,1.535-5.428c0.727-1.908,1.453-3.815,2.18-5.723
		c0.646-2.263,0.573-4.592,1.123-7.141c0.659-3.059,2.23-5.186,3.305-7.964c0.235-0.61,0.47-1.22,0.707-1.831
		c-0.197-0.627-0.393-1.258-0.591-1.887c-0.471-1.79-0.942-3.58-1.416-5.369c-1.459-5.756-2.533-12.328-2.537-19.236
		c-0.294,0.179-0.591,0.355-0.885,0.534c-0.687,0.243-1.348-0.01-1.886,0.234c-0.827,0.63-1.653,1.26-2.481,1.888
		c-0.236,0-0.47,0-0.706,0c-0.314-0.276-0.63-0.55-0.942-0.825c-1.993,0.704-2.265,1.614-4.249,0.058
		c-0.508,0.095-1.275,0.433-1.89,0.176c-0.369-0.183-0.565-0.66-0.765-1.002c-0.059,0.06-0.12,0.118-0.181,0.177
		c-0.354,0.168-0.772,0.695-1.062,0.53c-0.137-0.078-0.273-0.157-0.41-0.235c-0.616,0.291-0.98,0.682-1.478,1.062
		c-1.043,0.045-1.361-0.097-1.771-0.766c-1.09,0.004-1.463,0.584-2.065,1.062c-0.839-0.116-2.986-1.202-3.242-1.062
		c-0.216,0.157-0.434,0.314-0.651,0.47c-0.252-0.196-0.51-0.393-0.766-0.589c-0.293,0.079-0.592,0.157-0.884,0.236
		c-0.02-0.198-0.039-0.393-0.06-0.587c-0.346,0.134-0.664,0.227-0.943,0.116c-0.102-0.242-0.24-0.418-0.473-0.531
		c-0.968-0.3-3.699,0.962-4.661,1.356c-1.513-1.062-1.791-1.747-1.89-4.188c7.73-2.223,15.461-4.446,23.19-6.667
		c0.077-1.05,4.109-2.875,5.013-3.599c0-0.02,0-0.04,0-0.06c-1.264,0.237-2.22,1.088-3.184,1.653
		c-1.024,0.596-2.204,0.844-3.186,1.414c-0.533,0.295-1.063,0.591-1.596,0.887c-0.574,0.106-2.499-0.095-1.063-1.356
		c1.098-0.348,2.924-1.373,3.661-2.184c-2.21,0.062-3.284,1.4-5.136,1.709c-0.341-0.29-0.576-0.418-0.588-1.062
		c0.019-0.058,0.038-0.117,0.057-0.178c0.297-0.196,0.591-0.392,0.884-0.588c1.085-1.083,2.169-2.164,3.247-3.247
		c0.668-0.55,1.339-1.102,2.005-1.652c0,0-1.114,0.316-0.533-0.59c0.165-0.552,4.451-4.978,4.96-5.132c0.807,0,1.612,0,2.419,0
		c2.001,0,3.962,0.014,5.547-0.236c-0.038-2.38-0.08-4.759-0.119-7.14c-0.295-0.57-0.592-1.142-0.886-1.709
		c-0.549-1.555-1.101-3.109-1.652-4.663c-0.157-1.042-0.315-2.086-0.471-3.128c0-0.608,0-1.218,0-1.83
		c-0.057,0.06-0.119,0.12-0.177,0.179c-1.637,0.719-3.314,2.847-4.778,3.953c-2.559,1.965-5.114,3.933-7.67,5.899
		c-1.422,1.128-2.436,2.774-3.837,3.895c-2.129,1.706-4.242,3.633-6.666,5.015c0.208,1.492,2.111,4.839,1.827,5.782
		c-0.144,0.379-0.385,0.564-0.883,0.589c-1.053-0.493-1.704-1.62-2.123-2.713c-0.022,0-0.042,0-0.063,0
		c-0.044,4.217,3.275,5.184,5.664,6.962c0.582,0.522,0.61,1.281,0,1.358c-1.421,0.154-2.401-0.759-3.362-1.299
		c0.021,0.039,0.039,0.08,0.06,0.12c0.577,0.233,2.374,1.4,2.125,2.181c-0.189,1.272-1.531,0.303-2.007,0
		c-0.002,0.327,0.017,0.341-0.178,0.474c-0.795,0.24-2.554-1.073-3.066-1.416c-0.939-0.632-2.8-2.273-3.306-3.247
		c-0.038-0.314-0.078-0.627-0.118-0.943c-0.451-0.964-0.903-1.929-1.357-2.892c-0.338-0.777-1.124-1.889-0.942-3.068
		c0.374-2.439,2.702-5.148,3.893-7.139c1.964-3.276,4.632-5.53,7.612-7.788c1.753-1.81,3.502-3.618,5.25-5.428
		c1.005-0.748,2.01-1.496,3.01-2.241c1.111-0.917,1.804-2.296,2.595-3.542c1.208-1.895,2.857-4.006,4.604-5.368
		c1.664-1.296,3.677-2.336,6.137-2.833c1.454-0.018,2.911-0.038,4.365-0.057c2.098-0.482,4.939-2.376,5.605-4.25
		c-0.038-3.794-0.079-7.592-0.119-11.388c-1.308,0.245-1.859-0.238-2.479-1.121c-0.041-1.674,0.193-3.189,0.886-4.131
		c0.239-0.018,0.473-0.038,0.71-0.057c-0.017-5,3.032-8.818,7.021-9.854c1.929-0.501,3.688,0.385,4.778,0.826
		c4.454,1.809,8.145,7.548,5.017,12.981c0.352-0.012,0.623,0.018,0.826,0.116c0.09,1.782-0.718,4.592-2.656,4.606
		c-0.197-0.177-0.393-0.355-0.589-0.532c-0.039,0.019-0.081,0.038-0.119,0.057c-0.579,1.45-1.588,3.117-2.006,4.781
		c-0.789,3.143,1.447,4.002,3.365,4.839c3.361,1.466,7.808,2.284,8.73,6.194c0.58,2.464-0.885,5.819-1.416,7.729
		c-0.302,1.084-0.104,2.448-0.412,3.719c-0.336,1.02-0.668,2.044-1.004,3.067c-0.589,1.022-1.182,2.044-1.772,3.067
		c-0.783,2.497-1.572,4.995-2.359,7.494c-0.851,3.735,1.735,5.603,2.834,7.788c0.642,1.275,1.171,3.207,1.356,4.72
		c1.061,0.021,2.125,0.04,3.187,0.058c0.886-0.314,1.771-0.628,2.655-0.943c1.965-0.197,3.936-0.396,5.9-0.59
		c0.863-0.1,1.729-0.198,2.595-0.296c0.825,0.22,1.473,0.996,1.888,1.652c0,0.021,0,0.04,0,0.061
		c-0.529,0.236-1.063,0.47-1.591,0.706c0,0.021,0,0.04,0,0.06c2.813-0.002,5.473,0.033,8.199,0.06
		c0.06,0.136,0.119,0.274,0.178,0.413c2.714,0.057,5.428,0.116,8.144,0.177c0,0.136,0,0.275,0,0.412
		C160.765,95.456,162.321,95.692,163.874,95.927z M96.611,94.039c-0.904,0.668-1.81,1.338-2.715,2.007
		c-1.41,0.631-3.952,1.361-4.954,2.359c2.184-0.532,4.364-1.062,6.547-1.594C95.972,96.498,96.775,94.701,96.611,94.039z"/>
</g>
</svg>
