  0
SECTION
  2
HEADER
  9
$ACADVER
  1
AC1021
  9
$ACADMAINTVER
 70
    25
  9
$DWGCODEPAGE
  3
ANSI_1252
  9
$INSBASE
 10
0.0
 20
0.0
 30
0.0
  9
$EXTMIN
 10
1.000000000000000E+20
 20
1.000000000000000E+20
 30
1.000000000000000E+20
  9
$EXTMAX
 10
-1.000000000000000E+20
 20
-1.000000000000000E+20
 30
-1.000000000000000E+20
  9
$LIMMIN
 10
0.0
 20
0.0
  9
$LIMMAX
 10
12.0
 20
9.0
  9
$ORTHOMODE
 70
     0
  9
$REGENMODE
 70
     1
  9
$FILLMODE
 70
     1
  9
$QTEXTMODE
 70
     0
  9
$MIRRTEXT
 70
     1
  9
$LTSCALE
 40
1.0
  9
$ATTMODE
 70
     1
  9
$TEXTSIZE
 40
0.2
  9
$TRACEWID
 40
0.05
  9
$TEXTSTYLE
  7
Standard
  9
$CLAYER
  8
0
  9
$CELTYPE
  6
ByLayer
  9
$CECOLOR
 62
   256
  9
$CELTSCALE
 40
1.0
  9
$DISPSILH
 70
     0
  9
$DIMSCALE
 40
1.0
  9
$DIMASZ
 40
0.18
  9
$DIMEXO
 40
0.0625
  9
$DIMDLI
 40
0.38
  9
$DIMRND
 40
0.0
  9
$DIMDLE
 40
0.0
  9
$DIMEXE
 40
0.18
  9
$DIMTP
 40
0.0
  9
$DIMTM
 40
0.0
  9
$DIMTXT
 40
0.18
  9
$DIMCEN
 40
0.09
  9
$DIMTSZ
 40
0.0
  9
$DIMTOL
 70
     0
  9
$DIMLIM
 70
     0
  9
$DIMTIH
 70
     1
  9
$DIMTOH
 70
     1
  9
$DIMSE1
 70
     0
  9
$DIMSE2
 70
     0
  9
$DIMTAD
 70
     0
  9
$DIMZIN
 70
     0
  9
$DIMBLK
  1

  9
$DIMASO
 70
     1
  9
$DIMSHO
 70
     1
  9
$DIMPOST
  1

  9
$DIMAPOST
  1

  9
$DIMALT
 70
     0
  9
$DIMALTD
 70
     2
  9
$DIMALTF
 40
25.4
  9
$DIMLFAC
 40
1.0
  9
$DIMTOFL
 70
     0
  9
$DIMTVP
 40
0.0
  9
$DIMTIX
 70
     0
  9
$DIMSOXD
 70
     0
  9
$DIMSAH
 70
     0
  9
$DIMBLK1
  1

  9
$DIMBLK2
  1

  9
$DIMSTYLE
  2
Standard
  9
$DIMCLRD
 70
     0
  9
$DIMCLRE
 70
     0
  9
$DIMCLRT
 70
     0
  9
$DIMTFAC
 40
1.0
  9
$DIMGAP
 40
0.09
  9
$DIMJUST
 70
     0
  9
$DIMSD1
 70
     0
  9
$DIMSD2
 70
     0
  9
$DIMTOLJ
 70
     1
  9
$DIMTZIN
 70
     0
  9
$DIMALTZ
 70
     0
  9
$DIMALTTZ
 70
     0
  9
$DIMUPT
 70
     0
  9
$DIMDEC
 70
     4
  9
$DIMTDEC
 70
     4
  9
$DIMALTU
 70
     2
  9
$DIMALTTD
 70
     2
  9
$DIMTXSTY
  7
Standard
  9
$DIMAUNIT
 70
     0
  9
$DIMADEC
 70
     0
  9
$DIMALTRND
 40
0.0
  9
$DIMAZIN
 70
     0
  9
$DIMDSEP
 70
    46
  9
$DIMATFIT
 70
     3
  9
$DIMFRAC
 70
     0
  9
$DIMLDRBLK
  1

  9
$DIMLUNIT
 70
     2
  9
$DIMLWD
 70
    -2
  9
$DIMLWE
 70
    -2
  9
$DIMTMOVE
 70
     0
  9
$DIMFXL
 40
1.0
  9
$DIMFXLON
 70
     0
  9
$DIMJOGANG
 40
0.7853981633974483
  9
$DIMTFILL
 70
     0
  9
$DIMTFILLCLR
 70
     0
  9
$DIMARCSYM
 70
     0
  9
$DIMLTYPE
  6

  9
$DIMLTEX1
  6

  9
$DIMLTEX2
  6

  9
$LUNITS
 70
     2
  9
$LUPREC
 70
     4
  9
$SKETCHINC
 40
0.1
  9
$FILLETRAD
 40
0.5
  9
$AUNITS
 70
     0
  9
$AUPREC
 70
     0
  9
$MENU
  1
.
  9
$ELEVATION
 40
0.0
  9
$PELEVATION
 40
0.0
  9
$THICKNESS
 40
0.0
  9
$LIMCHECK
 70
     0
  9
$CHAMFERA
 40
0.5
  9
$CHAMFERB
 40
0.5
  9
$CHAMFERC
 40
1.0
  9
$CHAMFERD
 40
0.0
  9
$SKPOLY
 70
     0
  9
$TDCREATE
 40
2458551.625978067
  9
$TDUCREATE
 40
2458551.334311401
  9
$TDUPDATE
 40
2458551.625978067
  9
$TDUUPDATE
 40
2458551.334311401
  9
$TDINDWG
 40
0.0000000116
  9
$TDUSRTIMER
 40
0.0000000116
  9
$USRTIMER
 70
     1
  9
$ANGBASE
 50
0.0
  9
$ANGDIR
 70
     0
  9
$PDMODE
 70
     0
  9
$PDSIZE
 40
0.0
  9
$PLINEWID
 40
0.0
  9
$SPLFRAME
 70
     0
  9
$SPLINETYPE
 70
     6
  9
$SPLINESEGS
 70
     8
  9
$HANDSEED
  5
65
  9
$SURFTAB1
 70
     6
  9
$SURFTAB2
 70
     6
  9
$SURFTYPE
 70
     6
  9
$SURFU
 70
     6
  9
$SURFV
 70
     6
  9
$UCSBASE
  2

  9
$UCSNAME
  2

  9
$UCSORG
 10
0.0
 20
0.0
 30
0.0
  9
$UCSXDIR
 10
1.0
 20
0.0
 30
0.0
  9
$UCSYDIR
 10
0.0
 20
1.0
 30
0.0
  9
$UCSORTHOREF
  2

  9
$UCSORTHOVIEW
 70
     0
  9
$UCSORGTOP
 10
0.0
 20
0.0
 30
0.0
  9
$UCSORGBOTTOM
 10
0.0
 20
0.0
 30
0.0
  9
$UCSORGLEFT
 10
0.0
 20
0.0
 30
0.0
  9
$UCSORGRIGHT
 10
0.0
 20
0.0
 30
0.0
  9
$UCSORGFRONT
 10
0.0
 20
0.0
 30
0.0
  9
$UCSORGBACK
 10
0.0
 20
0.0
 30
0.0
  9
$PUCSBASE
  2

  9
$PUCSNAME
  2

  9
$PUCSORG
 10
0.0
 20
0.0
 30
0.0
  9
$PUCSXDIR
 10
1.0
 20
0.0
 30
0.0
  9
$PUCSYDIR
 10
0.0
 20
1.0
 30
0.0
  9
$PUCSORTHOREF
  2

  9
$PUCSORTHOVIEW
 70
     0
  9
$PUCSORGTOP
 10
0.0
 20
0.0
 30
0.0
  9
$PUCSORGBOTTOM
 10
0.0
 20
0.0
 30
0.0
  9
$PUCSORGLEFT
 10
0.0
 20
0.0
 30
0.0
  9
$PUCSORGRIGHT
 10
0.0
 20
0.0
 30
0.0
  9
$PUCSORGFRONT
 10
0.0
 20
0.0
 30
0.0
  9
$PUCSORGBACK
 10
0.0
 20
0.0
 30
0.0
  9
$USERI1
 70
     0
  9
$USERI2
 70
     0
  9
$USERI3
 70
     0
  9
$USERI4
 70
     0
  9
$USERI5
 70
     0
  9
$USERR1
 40
0.0
  9
$USERR2
 40
0.0
  9
$USERR3
 40
0.0
  9
$USERR4
 40
0.0
  9
$USERR5
 40
0.0
  9
$WORLDVIEW
 70
     1
  9
$SHADEDGE
 70
     3
  9
$SHADEDIF
 70
    70
  9
$TILEMODE
 70
     1
  9
$MAXACTVP
 70
    64
  9
$PINSBASE
 10
0.0
 20
0.0
 30
0.0
  9
$PLIMCHECK
 70
     0
  9
$PEXTMIN
 10
1.000000000000000E+20
 20
1.000000000000000E+20
 30
1.000000000000000E+20
  9
$PEXTMAX
 10
-1.000000000000000E+20
 20
-1.000000000000000E+20
 30
-1.000000000000000E+20
  9
$PLIMMIN
 10
0.0
 20
0.0
  9
$PLIMMAX
 10
12.0
 20
9.0
  9
$UNITMODE
 70
     0
  9
$VISRETAIN
 70
     1
  9
$PLINEGEN
 70
     0
  9
$PSLTSCALE
 70
     1
  9
$TREEDEPTH
 70
  3020
  9
$CMLSTYLE
  2
Standard
  9
$CMLJUST
 70
     0
  9
$CMLSCALE
 40
1.0
  9
$PROXYGRAPHICS
 70
     1
  9
$MEASUREMENT
 70
     0
  9
$CELWEIGHT
370
    -1
  9
$ENDCAPS
280
     0
  9
$JOINSTYLE
280
     0
  9
$LWDISPLAY
290
     1
  9
$INSUNITS
 70
     1
  9
$HYPERLINKBASE
  1

  9
$STYLESHEET
  1

  9
$XEDIT
290
     1
  9
$CEPSNTYPE
380
     0
  9
$PSTYLEMODE
290
     1
  9
$FINGERPRINTGUID
  2
{789D7644-6559-4463-AB95-CFCD731AD576}
  9
$VERSIONGUID
  2
{FAEB1C32-E019-11D5-929B-00C0DF256EC4}
  9
$EXTNAMES
290
     1
  9
$PSVPSCALE
 40
0.0
  9
$OLESTARTUP
290
     0
  9
$SORTENTS
280
   127
  9
$INDEXCTL
280
     0
  9
$HIDETEXT
280
     1
  9
$XCLIPFRAME
290
     0
  9
$HALOGAP
280
     0
  9
$OBSCOLOR
 70
   257
  9
$OBSLTYPE
280
     0
  9
$INTERSECTIONDISPLAY
280
     0
  9
$INTERSECTIONCOLOR
 70
   257
  9
$DIMASSOC
280
     2
  9
$PROJECTNAME
  1

  9
$CAMERADISPLAY
290
     0
  9
$LENSLENGTH
 40
50.0
  9
$CAMERAHEIGHT
 40
0.0
  9
$STEPSPERSEC
 40
2.0
  9
$STEPSIZE
 40
6.0
  9
$3DDWFPREC
 40
2.0
  9
$PSOLWIDTH
 40
0.25
  9
$PSOLHEIGHT
 40
4.0
  9
$LOFTANG1
 40
1.570796326794897
  9
$LOFTANG2
 40
1.570796326794897
  9
$LOFTMAG1
 40
0.0
  9
$LOFTMAG2
 40
0.0
  9
$LOFTPARAM
 70
     7
  9
$LOFTNORMALS
280
     1
  9
$LATITUDE
 40
37.795
  9
$LONGITUDE
 40
-122.394
  9
$NORTHDIRECTION
 40
0.0
  9
$TIMEZONE
 70
 -8000
  9
$LIGHTGLYPHDISPLAY
280
     1
  9
$TILEMODELIGHTSYNCH
280
     1
  9
$CMATERIAL
347
3C
  9
$SOLIDHIST
280
     1
  9
$SHOWHIST
280
     1
  9
$DWFFRAME
280
     2
  9
$DGNFRAME
280
     2
  9
$REALWORLDSCALE
290
     1
  9
$INTERFERECOLOR
 62
   256
  9
$CSHADOW
280
     0
  9
$SHADOWPLANELOCATION
 40
0.0
  0
ENDSEC
  0
SECTION
  2
CLASSES
  0
CLASS
  1
ACDBDICTIONARYWDFLT
  2
AcDbDictionaryWithDefault
  3
ObjectDBX Classes
 90
        0
 91
        4
280
     0
281
     0
  0
CLASS
  1
VISUALSTYLE
  2
AcDbVisualStyle
  3
ObjectDBX Classes
 90
     4095
 91
        4
280
     0
281
     0
  0
CLASS
  1
MATERIAL
  2
AcDbMaterial
  3
ObjectDBX Classes
 90
     1153
 91
        4
280
     0
281
     0
  0
CLASS
  1
SUN
  2
AcDbSun
  3
SCENEOE
 90
     1024
 91
        4
280
     0
281
     0
  0
ENDSEC
  0
SECTION
  2
TABLES
  0
TABLE
  2
VPORT
  5
8
330
0
100
AcDbSymbolTable
 70
     1
  0
VPORT
  5
29
330
8
100
AcDbSymbolTableRecord
100
AcDbViewportTableRecord
  2
*Active
 70
     0
 10
0.0
 20
0.0
 11
1.0
 21
1.0
 12
0.0
 22
0.0
 13
0.0
 23
0.0
 14
0.5
 24
0.5
 15
0.5
 25
0.5
 16
0.0
 26
0.0
 36
1.0
 17
39.99961911841359
 27
-39.99962012888904
 37
0.0
 40
79.99924025777808
 41
0.9999999747378738
 42
50.0
 43
0.0
 44
0.0
 50
0.0
 51
0.0
 71
     0
 72
   100
 73
     1
 74
     3
 75
     0
 76
     0
 77
     0
 78
     0
281
     0
 65
     1
110
0.0
120
0.0
130
0.0
111
1.0
121
0.0
131
0.0
112
0.0
122
1.0
132
0.0
 79
     0
146
0.0
 60
     3
 61
     5
292
     1
282
     1
141
0.0
142
0.0
 63
   250
361
3F
  0
ENDTAB
  0
TABLE
  2
LTYPE
  5
5
330
0
100
AcDbSymbolTable
 70
     1
  0
LTYPE
  5
14
330
5
100
AcDbSymbolTableRecord
100
AcDbLinetypeTableRecord
  2
ByBlock
 70
     0
  3

 72
    65
 73
     0
 40
0.0
  0
LTYPE
  5
15
330
5
100
AcDbSymbolTableRecord
100
AcDbLinetypeTableRecord
  2
ByLayer
 70
     0
  3

 72
    65
 73
     0
 40
0.0
  0
LTYPE
  5
16
330
5
100
AcDbSymbolTableRecord
100
AcDbLinetypeTableRecord
  2
Continuous
 70
     0
  3
Solid line
 72
    65
 73
     0
 40
0.0
  0
ENDTAB
  0
TABLE
  2
LAYER
  5
2
330
0
100
AcDbSymbolTable
 70
     2
  0
LAYER
  5
10
330
2
100
AcDbSymbolTableRecord
100
AcDbLayerTableRecord
  2
0
 70
     0
 62
     7
  6
Continuous
370
    -3
390
F
347
3E
  0
LAYER
  5
40
330
2
100
AcDbSymbolTableRecord
100
AcDbLayerTableRecord
  2
Layer 1
 70
     0
 62
     7
  6
Continuous
370
    -3
390
F
347
3E
  0
ENDTAB
  0
TABLE
  2
STYLE
  5
3
330
0
100
AcDbSymbolTable
 70
     1
  0
STYLE
  5
11
330
3
100
AcDbSymbolTableRecord
100
AcDbTextStyleTableRecord
  2
Standard
 70
     0
 40
0.0
 41
1.0
 50
0.0
 71
     0
 42
0.2
  3
txt
  4

  0
ENDTAB
  0
TABLE
  2
VIEW
  5
6
330
0
100
AcDbSymbolTable
 70
     0
  0
ENDTAB
  0
TABLE
  2
UCS
  5
7
330
0
100
AcDbSymbolTable
 70
     0
  0
ENDTAB
  0
TABLE
  2
APPID
  5
9
330
0
100
AcDbSymbolTable
 70
     1
  0
APPID
  5
12
330
9
100
AcDbSymbolTableRecord
100
AcDbRegAppTableRecord
  2
ACAD
 70
     0
  0
ENDTAB
  0
TABLE
  2
DIMSTYLE
  5
A
330
0
100
AcDbSymbolTable
 70
     1
100
AcDbDimStyleTable
  0
DIMSTYLE
105
27
330
A
100
AcDbSymbolTableRecord
100
AcDbDimStyleTableRecord
  2
Standard
 70
     0
178
     0
340
11
  0
ENDTAB
  0
TABLE
  2
BLOCK_RECORD
  5
1
330
0
100
AcDbSymbolTable
 70
     1
  0
BLOCK_RECORD
  5
1F
330
1
100
AcDbSymbolTableRecord
100
AcDbBlockTableRecord
  2
*Model_Space
340
22
 70
     0
280
     1
281
     0
  0
BLOCK_RECORD
  5
1B
330
1
100
AcDbSymbolTableRecord
100
AcDbBlockTableRecord
  2
*Paper_Space
340
1E
 70
     0
280
     1
281
     0
  0
BLOCK_RECORD
  5
23
330
1
100
AcDbSymbolTableRecord
100
AcDbBlockTableRecord
  2
*Paper_Space0
340
26
 70
     0
280
     1
281
     0
  0
ENDTAB
  0
ENDSEC
  0
SECTION
  2
BLOCKS
  0
BLOCK
  5
20
330
1F
100
AcDbEntity
  8
0
100
AcDbBlockBegin
  2
*Model_Space
 70
     0
 10
0.0
 20
0.0
 30
0.0
  3
*Model_Space
  1

  0
ENDBLK
  5
21
330
1F
100
AcDbEntity
  8
0
100
AcDbBlockEnd
  0
BLOCK
  5
1C
330
1B
100
AcDbEntity
 67
     1
  8
0
100
AcDbBlockBegin
  2
*Paper_Space
 70
     0
 10
0.0
 20
0.0
 30
0.0
  3
*Paper_Space
  1

  0
ENDBLK
  5
1D
330
1B
100
AcDbEntity
 67
     1
  8
0
100
AcDbBlockEnd
  0
BLOCK
  5
24
330
23
100
AcDbEntity
  8
0
100
AcDbBlockBegin
  2
*Paper_Space0
 70
     0
 10
0.0
 20
0.0
 30
0.0
  3
*Paper_Space0
  1

  0
ENDBLK
  5
25
330
23
100
AcDbEntity
  8
0
100
AcDbBlockEnd
  0
ENDSEC
  0
SECTION
  2
ENTITIES
  0
SPLINE
  5
41
330
1F
100
AcDbEntity
  8
Layer 1
370
     0
100
AcDbSpline
210
0.0
220
0.0
230
1.0
 70
    11
 71
     3
 72
   749
 73
   745
 74
     0
 42
0.0000000001
 43
0.0000000001
 12
1.0
 22
0.0
 32
0.0
 13
1.0
 23
0.0
 33
0.0
 40
0.0
 40
0.0
 40
0.0
 40
0.0
 40
1.0
 40
1.0
 40
1.0
 40
2.0
 40
2.0
 40
2.0
 40
3.0
 40
3.0
 40
3.0
 40
4.0
 40
4.0
 40
4.0
 40
5.0
 40
5.0
 40
5.0
 40
6.0
 40
6.0
 40
6.0
 40
7.0
 40
7.0
 40
7.0
 40
8.0
 40
8.0
 40
8.0
 40
9.0
 40
9.0
 40
9.0
 40
10.0
 40
10.0
 40
10.0
 40
11.0
 40
11.0
 40
11.0
 40
12.0
 40
12.0
 40
12.0
 40
13.0
 40
13.0
 40
13.0
 40
14.0
 40
14.0
 40
14.0
 40
15.0
 40
15.0
 40
15.0
 40
16.0
 40
16.0
 40
16.0
 40
17.0
 40
17.0
 40
17.0
 40
18.0
 40
18.0
 40
18.0
 40
19.0
 40
19.0
 40
19.0
 40
20.0
 40
20.0
 40
20.0
 40
21.0
 40
21.0
 40
21.0
 40
22.0
 40
22.0
 40
22.0
 40
23.0
 40
23.0
 40
23.0
 40
24.0
 40
24.0
 40
24.0
 40
25.0
 40
25.0
 40
25.0
 40
26.0
 40
26.0
 40
26.0
 40
27.0
 40
27.0
 40
27.0
 40
28.0
 40
28.0
 40
28.0
 40
29.0
 40
29.0
 40
29.0
 40
30.0
 40
30.0
 40
30.0
 40
31.0
 40
31.0
 40
31.0
 40
32.0
 40
32.0
 40
32.0
 40
33.0
 40
33.0
 40
33.0
 40
34.0
 40
34.0
 40
34.0
 40
35.0
 40
35.0
 40
35.0
 40
36.0
 40
36.0
 40
36.0
 40
37.0
 40
37.0
 40
37.0
 40
38.0
 40
38.0
 40
38.0
 40
39.0
 40
39.0
 40
39.0
 40
40.0
 40
40.0
 40
40.0
 40
41.0
 40
41.0
 40
41.0
 40
42.0
 40
42.0
 40
42.0
 40
43.0
 40
43.0
 40
43.0
 40
44.0
 40
44.0
 40
44.0
 40
45.0
 40
45.0
 40
45.0
 40
46.0
 40
46.0
 40
46.0
 40
47.0
 40
47.0
 40
47.0
 40
48.0
 40
48.0
 40
48.0
 40
49.0
 40
49.0
 40
49.0
 40
50.0
 40
50.0
 40
50.0
 40
51.0
 40
51.0
 40
51.0
 40
52.0
 40
52.0
 40
52.0
 40
53.0
 40
53.0
 40
53.0
 40
54.0
 40
54.0
 40
54.0
 40
55.0
 40
55.0
 40
55.0
 40
56.0
 40
56.0
 40
56.0
 40
57.0
 40
57.0
 40
57.0
 40
58.0
 40
58.0
 40
58.0
 40
59.0
 40
59.0
 40
59.0
 40
60.0
 40
60.0
 40
60.0
 40
61.0
 40
61.0
 40
61.0
 40
62.0
 40
62.0
 40
62.0
 40
63.0
 40
63.0
 40
63.0
 40
64.0
 40
64.0
 40
64.0
 40
65.0
 40
65.0
 40
65.0
 40
66.0
 40
66.0
 40
66.0
 40
67.0
 40
67.0
 40
67.0
 40
68.0
 40
68.0
 40
68.0
 40
69.0
 40
69.0
 40
69.0
 40
70.0
 40
70.0
 40
70.0
 40
71.0
 40
71.0
 40
71.0
 40
72.0
 40
72.0
 40
72.0
 40
73.0
 40
73.0
 40
73.0
 40
74.0
 40
74.0
 40
74.0
 40
75.0
 40
75.0
 40
75.0
 40
76.0
 40
76.0
 40
76.0
 40
77.0
 40
77.0
 40
77.0
 40
78.0
 40
78.0
 40
78.0
 40
79.0
 40
79.0
 40
79.0
 40
80.0
 40
80.0
 40
80.0
 40
81.0
 40
81.0
 40
81.0
 40
82.0
 40
82.0
 40
82.0
 40
83.0
 40
83.0
 40
83.0
 40
84.0
 40
84.0
 40
84.0
 40
85.0
 40
85.0
 40
85.0
 40
86.0
 40
86.0
 40
86.0
 40
87.0
 40
87.0
 40
87.0
 40
88.0
 40
88.0
 40
88.0
 40
89.0
 40
89.0
 40
89.0
 40
90.0
 40
90.0
 40
90.0
 40
91.0
 40
91.0
 40
91.0
 40
92.0
 40
92.0
 40
92.0
 40
93.0
 40
93.0
 40
93.0
 40
94.0
 40
94.0
 40
94.0
 40
95.0
 40
95.0
 40
95.0
 40
96.0
 40
96.0
 40
96.0
 40
97.0
 40
97.0
 40
97.0
 40
98.0
 40
98.0
 40
98.0
 40
99.0
 40
99.0
 40
99.0
 40
100.0
 40
100.0
 40
100.0
 40
101.0
 40
101.0
 40
101.0
 40
102.0
 40
102.0
 40
102.0
 40
103.0
 40
103.0
 40
103.0
 40
104.0
 40
104.0
 40
104.0
 40
105.0
 40
105.0
 40
105.0
 40
106.0
 40
106.0
 40
106.0
 40
107.0
 40
107.0
 40
107.0
 40
108.0
 40
108.0
 40
108.0
 40
109.0
 40
109.0
 40
109.0
 40
110.0
 40
110.0
 40
110.0
 40
111.0
 40
111.0
 40
111.0
 40
112.0
 40
112.0
 40
112.0
 40
113.0
 40
113.0
 40
113.0
 40
114.0
 40
114.0
 40
114.0
 40
115.0
 40
115.0
 40
115.0
 40
116.0
 40
116.0
 40
116.0
 40
117.0
 40
117.0
 40
117.0
 40
118.0
 40
118.0
 40
118.0
 40
119.0
 40
119.0
 40
119.0
 40
120.0
 40
120.0
 40
120.0
 40
121.0
 40
121.0
 40
121.0
 40
122.0
 40
122.0
 40
122.0
 40
123.0
 40
123.0
 40
123.0
 40
124.0
 40
124.0
 40
124.0
 40
125.0
 40
125.0
 40
125.0
 40
126.0
 40
126.0
 40
126.0
 40
127.0
 40
127.0
 40
127.0
 40
128.0
 40
128.0
 40
128.0
 40
129.0
 40
129.0
 40
129.0
 40
130.0
 40
130.0
 40
130.0
 40
131.0
 40
131.0
 40
131.0
 40
132.0
 40
132.0
 40
132.0
 40
133.0
 40
133.0
 40
133.0
 40
134.0
 40
134.0
 40
134.0
 40
135.0
 40
135.0
 40
135.0
 40
136.0
 40
136.0
 40
136.0
 40
137.0
 40
137.0
 40
137.0
 40
138.0
 40
138.0
 40
138.0
 40
139.0
 40
139.0
 40
139.0
 40
140.0
 40
140.0
 40
140.0
 40
141.0
 40
141.0
 40
141.0
 40
142.0
 40
142.0
 40
142.0
 40
143.0
 40
143.0
 40
143.0
 40
144.0
 40
144.0
 40
144.0
 40
145.0
 40
145.0
 40
145.0
 40
146.0
 40
146.0
 40
146.0
 40
147.0
 40
147.0
 40
147.0
 40
148.0
 40
148.0
 40
148.0
 40
149.0
 40
149.0
 40
149.0
 40
150.0
 40
150.0
 40
150.0
 40
151.0
 40
151.0
 40
151.0
 40
152.0
 40
152.0
 40
152.0
 40
153.0
 40
153.0
 40
153.0
 40
154.0
 40
154.0
 40
154.0
 40
155.0
 40
155.0
 40
155.0
 40
156.0
 40
156.0
 40
156.0
 40
157.0
 40
157.0
 40
157.0
 40
158.0
 40
158.0
 40
158.0
 40
159.0
 40
159.0
 40
159.0
 40
160.0
 40
160.0
 40
160.0
 40
161.0
 40
161.0
 40
161.0
 40
162.0
 40
162.0
 40
162.0
 40
163.0
 40
163.0
 40
163.0
 40
164.0
 40
164.0
 40
164.0
 40
165.0
 40
165.0
 40
165.0
 40
166.0
 40
166.0
 40
166.0
 40
167.0
 40
167.0
 40
167.0
 40
168.0
 40
168.0
 40
168.0
 40
169.0
 40
169.0
 40
169.0
 40
170.0
 40
170.0
 40
170.0
 40
171.0
 40
171.0
 40
171.0
 40
172.0
 40
172.0
 40
172.0
 40
173.0
 40
173.0
 40
173.0
 40
174.0
 40
174.0
 40
174.0
 40
175.0
 40
175.0
 40
175.0
 40
176.0
 40
176.0
 40
176.0
 40
177.0
 40
177.0
 40
177.0
 40
178.0
 40
178.0
 40
178.0
 40
179.0
 40
179.0
 40
179.0
 40
180.0
 40
180.0
 40
180.0
 40
181.0
 40
181.0
 40
181.0
 40
182.0
 40
182.0
 40
182.0
 40
183.0
 40
183.0
 40
183.0
 40
184.0
 40
184.0
 40
184.0
 40
185.0
 40
185.0
 40
185.0
 40
186.0
 40
186.0
 40
186.0
 40
187.0
 40
187.0
 40
187.0
 40
188.0
 40
188.0
 40
188.0
 40
189.0
 40
189.0
 40
189.0
 40
190.0
 40
190.0
 40
190.0
 40
191.0
 40
191.0
 40
191.0
 40
192.0
 40
192.0
 40
192.0
 40
193.0
 40
193.0
 40
193.0
 40
194.0
 40
194.0
 40
194.0
 40
195.0
 40
195.0
 40
195.0
 40
196.0
 40
196.0
 40
196.0
 40
197.0
 40
197.0
 40
197.0
 40
198.0
 40
198.0
 40
198.0
 40
199.0
 40
199.0
 40
199.0
 40
200.0
 40
200.0
 40
200.0
 40
201.0
 40
201.0
 40
201.0
 40
202.0
 40
202.0
 40
202.0
 40
203.0
 40
203.0
 40
203.0
 40
204.0
 40
204.0
 40
204.0
 40
205.0
 40
205.0
 40
205.0
 40
206.0
 40
206.0
 40
206.0
 40
207.0
 40
207.0
 40
207.0
 40
208.0
 40
208.0
 40
208.0
 40
209.0
 40
209.0
 40
209.0
 40
210.0
 40
210.0
 40
210.0
 40
211.0
 40
211.0
 40
211.0
 40
212.0
 40
212.0
 40
212.0
 40
213.0
 40
213.0
 40
213.0
 40
214.0
 40
214.0
 40
214.0
 40
215.0
 40
215.0
 40
215.0
 40
216.0
 40
216.0
 40
216.0
 40
217.0
 40
217.0
 40
217.0
 40
218.0
 40
218.0
 40
218.0
 40
219.0
 40
219.0
 40
219.0
 40
220.0
 40
220.0
 40
220.0
 40
221.0
 40
221.0
 40
221.0
 40
222.0
 40
222.0
 40
222.0
 40
223.0
 40
223.0
 40
223.0
 40
224.0
 40
224.0
 40
224.0
 40
225.0
 40
225.0
 40
225.0
 40
226.0
 40
226.0
 40
226.0
 40
227.0
 40
227.0
 40
227.0
 40
228.0
 40
228.0
 40
228.0
 40
229.0
 40
229.0
 40
229.0
 40
230.0
 40
230.0
 40
230.0
 40
231.0
 40
231.0
 40
231.0
 40
232.0
 40
232.0
 40
232.0
 40
233.0
 40
233.0
 40
233.0
 40
234.0
 40
234.0
 40
234.0
 40
235.0
 40
235.0
 40
235.0
 40
236.0
 40
236.0
 40
236.0
 40
237.0
 40
237.0
 40
237.0
 40
238.0
 40
238.0
 40
238.0
 40
239.0
 40
239.0
 40
239.0
 40
240.0
 40
240.0
 40
240.0
 40
241.0
 40
241.0
 40
241.0
 40
242.0
 40
242.0
 40
242.0
 40
243.0
 40
243.0
 40
243.0
 40
244.0
 40
244.0
 40
244.0
 40
245.0
 40
245.0
 40
245.0
 40
246.0
 40
246.0
 40
246.0
 40
247.0
 40
247.0
 40
247.0
 40
248.0
 40
248.0
 40
248.0
 40
248.0
 10
60.89000733545539
 20
-5.64874833192119
 30
0.0
 10
60.7470265057698
 20
-5.96741249850817
 30
0.0
 10
60.46279345746563
 20
-6.133994165133247
 30
0.0
 10
60.18028902022847
 20
-6.297824165092234
 30
0.0
 10
59.82271347379543
 20
-6.504869442818335
 30
0.0
 10
59.44305554069479
 20
-6.664713053889387
 30
0.0
 10
59.05168238235496
 20
-6.798909720522508
 30
0.0
 10
58.99587293933433
 20
-6.818347776073058
 30
0.0
 10
58.92835276304543
 20
-6.819899998295144
 30
0.0
 10
58.87737488680192
 20
-6.88604583161194
 30
0.0
 10
59.16263099063553
 20
-6.95875333159356
 30
0.0
 10
59.4471815389316
 20
-6.974416664923217
 30
0.0
 10
59.72831014287053
 20
-7.011458331580469
 30
0.0
 10
59.77586458610175
 20
-7.017667220467851
 30
0.0
 10
59.84649069541104
 20
-6.994736664917848
 30
0.0
 10
59.86197763946038
 20
-7.058659998235198
 30
0.0
 10
59.87852291681606
 20
-7.126851942662883
 30
0.0
 10
59.80789680750676
 20
-7.153239720433857
 30
0.0
 10
59.76207097534255
 20
-7.181461942648998
 30
0.0
 10
59.5918909796842
 20
-7.286378053734014
 30
0.0
 10
59.39966387403912
 20
-7.319433331503332
 30
0.0
 10
59.20535237843451
 20
-7.338236387054359
 30
0.0
 10
59.10886765867382
 20
-7.347514442607432
 30
0.0
 10
59.01001932786232
 20
-7.353370553717054
 30
0.0
 10
58.91388887416042
 20
-7.345468331496865
 30
0.0
 10
58.68927378048966
 20
-7.3271944426128
 30
0.0
 10
58.48738054093345
 20
-7.358909164827073
 30
0.0
 10
58.30650990136589
 20
-7.513566942566188
 30
0.0
 10
58.08429518481285
 20
-7.703043886963106
 30
0.0
 10
57.89827546733638
 20
-7.913546386910499
 30
0.0
 10
57.79078408118982
 20
-8.1874430535086
 30
0.0
 10
57.75635297095712
 20
-8.274438053486993
 30
0.0
 10
57.78870269235404
 20
-8.339525553470825
 30
0.0
 10
57.85484998553615
 20
-8.399991664566562
 30
0.0
 10
58.08224907375393
 20
-8.60894194229219
 30
0.0
 10
58.38644934377091
 20
-8.643055553394792
 30
0.0
 10
58.65893489237478
 20
-8.49749944232019
 30
0.0
 10
59.03069210511269
 20
-8.298709164592038
 30
0.0
 10
59.42859165180978
 20
-8.251013609048508
 30
0.0
 10
59.84165763997879
 20
-8.320934164586518
 30
0.0
 10
59.9963506915878
 20
-8.346933886802212
 30
0.0
 10
60.11830596625424
 20
-8.428072775670662
 30
0.0
 10
60.19891568641994
 20
-8.56435083119219
 30
0.0
 10
60.24714040741184
 20
-8.645807220060883
 30
0.0
 10
60.24368318527782
 20
-8.709377775600469
 30
0.0
 10
60.12691374381241
 20
-8.71212944226656
 30
0.0
 10
59.72453542074461
 20
-8.722289442263715
 30
0.0
 10
59.38862042931451
 20
-8.92143249776963
 30
0.0
 10
59.02928099403758
 20
-9.071609997732006
 30
0.0
 10
58.08189629598515
 20
-9.467814719855426
 30
0.0
 10
57.14174354219267
 20
-9.93238777529477
 30
0.0
 10
56.07787162488986
 20
-9.88518610863972
 30
0.0
 10
55.60659720832057
 20
-9.864336941978445
 30
0.0
 10
55.34857414349579
 20
-10.11858388635928
 30
0.0
 10
55.11189553842285
 20
-10.44638499738829
 30
0.0
 10
54.76462110283812
 20
-10.92834999726794
 30
0.0
 10
54.52931833106341
 20
-11.47028721935452
 30
0.0
 10
54.30332889238444
 20
-12.01511721921855
 30
0.0
 10
53.85614779268187
 20
-13.09496999672625
 30
0.0
 10
53.52301974562512
 20
-14.21532166311283
 30
0.0
 10
53.13923281097189
 20
-15.31775221839277
 30
0.0
 10
52.76645254270453
 20
-16.38762138479188
 30
0.0
 10
52.3930019966765
 20
-17.45872527341316
 30
0.0
 10
51.88658950959616
 20
-18.47536027315904
 30
0.0
 10
51.6784859037942
 20
-18.8918849952771
 30
0.0
 10
51.41665554270125
 20
-19.27083888407125
 30
0.0
 10
51.12660036231843
 20
-19.63582277286888
 30
0.0
 10
50.80962953707169
 20
-20.03477916165807
 30
0.0
 10
50.5757378763721
 20
-20.49194388376603
 30
0.0
 10
50.30561593881904
 20
-20.92360277254677
 30
0.0
 10
49.27554013176513
 20
-22.5681469388025
 30
0.0
 10
48.25890515770165
 20
-24.22126360505578
 30
0.0
 10
47.19506851817572
 20
-25.84425304909439
 30
0.0
 10
46.80023963935975
 20
-26.44746777116575
 30
0.0
 10
46.37235548360932
 20
-27.02902193768712
 30
0.0
 10
46.07538715785228
 20
-27.69115054863277
 30
0.0
 10
46.06575632476465
 20
-27.71182332640548
 30
0.0
 10
46.05541993613946
 20
-27.73249610417787
 30
0.0
 10
46.04543632528306
 20
-27.75281610417283
 30
0.0
 10
45.9038313288957
 20
-28.04805582632132
 30
0.0
 10
45.85077355247154
 20
-28.33038388180626
 30
0.0
 10
45.90107966229923
 20
-28.68178582616295
 30
0.0
 10
46.11398104575655
 20
-30.18144415912144
 30
0.0
 10
45.77566716549877
 20
-31.53399415878325
 30
0.0
 10
44.73835941418492
 20
-32.69293971404884
 30
0.0
 10
43.67794471901613
 20
-33.87735582486412
 30
0.0
 10
42.53692030368164
 20
-34.97322471347893
 30
0.0
 10
41.30050477966967
 20
-35.97042165767394
 30
0.0
 10
41.26536811389942
 20
-35.99850276877804
 30
0.0
 10
41.20814755980368
 20
-36.01864637988411
 30
0.0
 10
41.21058172640825
 20
-36.06704749098316
 30
0.0
 10
41.21435644853417
 20
-36.12698443541257
 30
0.0
 10
41.2798320024193
 20
-36.11615415763774
 30
0.0
 10
41.32047200138249
 20
-36.12476193541313
 30
0.0
 10
42.51384863760358
 20
-36.37967915757164
 30
0.0
 10
43.71551665573767
 20
-36.57744637974467
 30
0.0
 10
44.9399013534876
 20
-36.58898221307503
 30
0.0
 10
45.35261606518059
 20
-36.59310971307401
 30
0.0
 10
45.76395494357535
 20
-36.55797304641596
 30
0.0
 10
46.16495743334492
 20
-36.45273943533135
 30
0.0
 10
46.29174576344362
 20
-36.41964887978386
 30
0.0
 10
46.36822798371462
 20
-36.44808276866573
 30
0.0
 10
46.39577992745615
 20
-36.57434193530082
 30
0.0
 10
46.4412529818516
 20
-36.78449165747045
 30
0.0
 10
46.566666655025
 20
-36.84220610190042
 30
0.0
 10
46.77716797328169
 20
-36.84393471301139
 30
0.0
 10
47.1712912965601
 20
-36.84700387967708
 30
0.0
 10
47.56506184206973
 20
-36.88940776855546
 30
0.0
 10
47.95918516534814
 20
-36.90919860188378
 30
0.0
 10
48.11144405035258
 20
-36.91678332410405
 30
0.0
 10
48.17967127083418
 20
-36.961233324093
 30
0.0
 10
48.16037432688204
 20
-37.13642276849379
 30
0.0
 10
48.09422849523623
 20
-37.75015026834039
 30
0.0
 10
48.05838627392842
 20
-38.36595915707507
 30
0.0
 10
47.89508544476124
 20
-38.96765693470251
 30
0.0
 10
47.80276350267212
 20
-39.30819332350621
 30
0.0
 10
47.63879239574426
 20
-39.58759332343649
 30
0.0
 10
47.38038268011462
 20
-39.81926249004508
 30
0.0
 10
47.00971907845993
 20
-40.15087360107346
 30
0.0
 10
46.65934019850995
 20
-40.50467443431818
 30
0.0
 10
46.25177604224111
 20
-40.79405804535673
 30
0.0
 10
45.96860132724328
 20
-40.99457693419553
 30
0.0
 10
45.67646605691849
 20
-41.16958998970743
 30
0.0
 10
45.33882245442138
 20
-41.25605582301918
 30
0.0
 10
45.20723634666732
 20
-41.28981665634402
 30
0.0
 10
45.12179357106937
 20
-41.35183498966217
 30
0.0
 10
45.0680666553998
 20
-41.48585526740641
 30
0.0
 10
44.95711690860395
 20
-41.76215082289283
 30
0.0
 10
44.73800663641614
 20
-41.96263443395348
 30
0.0
 10
44.53717025265102
 20
-42.17348971167863
 30
0.0
 10
44.46791997663996
 20
-42.24651471166049
 30
0.0
 10
44.37143525687927
 20
-42.27131498943186
 30
0.0
 10
44.2701527594632
 20
-42.27374915609803
 30
0.0
 10
43.97734721137773
 20
-42.27960526720797
 30
0.0
 10
43.69000971870832
 20
-42.33506193386065
 30
0.0
 10
43.40337778157647
 20
-42.38847248940308
 30
0.0
 10
43.11709862221339
 20
-42.44149498938959
 30
0.0
 10
42.82252918528404
 20
-42.49317693382137
 30
0.0
 10
42.57346808052701
 20
-42.65305582267027
 30
0.0
 10
41.92887254141645
 20
-43.06577054478895
 30
0.0
 10
41.24536665635507
 20
-43.13054054477286
 30
0.0
 10
40.51363396641108
 20
-42.95242304481742
 30
0.0
 10
40.16981675296037
 20
-42.86870887817144
 30
0.0
 10
39.81185315098168
 20
-42.86010110039637
 30
0.0
 10
39.45614732672315
 20
-42.85149332262066
 30
0.0
 10
39.29115316426584
 20
-42.84803610039937
 30
0.0
 10
39.22811177698527
 20
-42.91143026704975
 30
0.0
 10
39.22483094373564
 20
-43.06749915589959
 30
0.0
 10
39.22225566602356
 20
-43.18910165586971
 30
0.0
 10
39.1796753893321
 20
-43.30276665584083
 30
0.0
 10
39.13765955707068
 20
-43.41579665581276
 30
0.0
 10
39.09063428049262
 20
-43.54152665578153
 30
0.0
 10
39.02466483773119
 20
-43.55909498911007
 30
0.0
 10
38.92511095138213
 20
-43.46296304468997
 30
0.0
 10
38.61537207039534
 20
-43.1643013780977
 30
0.0
 10
38.28171485668542
 20
-42.89488498927633
 30
0.0
 10
37.92551514355061
 20
-42.65372610044763
 30
0.0
 10
37.83058264597254
 20
-42.58966165601924
 30
0.0
 10
37.73018209297842
 20
-42.53452248936616
 30
0.0
 10
37.63302709545705
 20
-42.47423276715931
 30
0.0
 10
37.52345432047471
 20
-42.40635832273186
 30
0.0
 10
37.48556598810799
 20
-42.4456577671664
 30
0.0
 10
37.47177237734878
 20
-42.56486137824787
 30
0.0
 10
37.39116265718308
 20
-43.2652311002951
 30
0.0
 10
37.24973404968011
 20
-43.9542413779002
 30
0.0
 10
37.0828348872714
 20
-44.63880665550706
 30
0.0
 10
36.82065044951584
 20
-45.7129797107937
 30
0.0
 10
36.48029045819914
 20
-46.76302276608698
 30
0.0
 10
36.10631074551794
 20
-47.80347026582695
 30
0.0
 10
35.85897825182791
 20
-48.49177498787718
 30
0.0
 10
35.77886242053851
 20
-49.20424498769893
 30
0.0
 10
35.84620769659816
 20
-49.93251943196105
 30
0.0
 10
35.85326325197371
 20
-50.0103774874971
 30
0.0
 10
35.83569491908859
 20
-50.0792749874803
 30
0.0
 10
35.81332880854809
 20
-50.15025387635128
 30
0.0
 10
35.63263603538017
 20
-50.72284748731948
 30
0.0
 10
35.41557187425126
 20
-51.28852665384447
 30
0.0
 10
35.33185770972032
 20
-51.88521498702853
 30
0.0
 10
35.28465604425787
 20
-52.22215304250022
 30
0.0
 10
35.16562971343081
 20
-52.5190860979812
 30
0.0
 10
35.02024999124509
 20
-52.82021720901716
 30
0.0
 10
34.84474304684439
 20
-53.18470720892599
 30
0.0
 10
34.84266165795598
 20
-53.58362831993765
 30
0.0
 10
34.86488665795046
 20
-53.98187915317132
 30
0.0
 10
34.90365693571867
 20
-54.67847415299701
 30
0.0
 10
34.93533638015511
 20
-55.37542193060047
 30
0.0
 10
34.97273082459012
 20
-56.07169943042656
 30
0.0
 10
35.02077915791141
 20
-56.96260443020399
 30
0.0
 10
35.07020332456591
 20
-57.85347415220326
 30
0.0
 10
35.12153249121962
 20
-58.7443791519807
 30
0.0
 10
35.1579038800995
 20
-59.37278220737934
 30
0.0
 10
35.194592768979
 20
-60.00047970722183
 30
0.0
 10
35.23745526896835
 20
-60.62817720706496
 30
0.0
 10
35.31153771023873
 20
-61.71268665123861
 30
0.0
 10
35.38801993050973
 20
-62.79684331763384
 30
0.0
 10
35.46795937291475
 20
-63.88068248403012
 30
0.0
 10
35.52789721334019
 20
-64.69648109493728
 30
0.0
 10
35.59421943554587
 20
-65.51227970584445
 30
0.0
 10
35.72150075533526
 20
-66.32151665008615
 30
0.0
 10
35.80694443549271
 20
-66.86310109439529
 30
0.0
 10
35.92872241671526
 20
-67.39914692759473
 30
0.0
 10
35.99899574825577
 20
-67.94418859412517
 30
0.0
 10
36.17108074386552
 20
-69.28156914934611
 30
0.0
 10
36.19365852106729
 20
-70.60998914901423
 30
0.0
 10
35.92304269463794
 20
-71.9422191486814
 30
0.0
 10
35.72806242183452
 20
-72.90029303733074
 30
0.0
 10
35.61644443554034
 20
-73.87455942597576
 30
0.0
 10
35.52599131587868
 20
-74.84917859239853
 30
0.0
 10
35.51360881619458
 20
-74.98076470347723
 30
0.0
 10
35.46587798407896
 20
-75.03488081457455
 30
0.0
 10
35.33376270967172
 20
-75.05587109234686
 30
0.0
 10
35.07263749123176
 20
-75.09859248122518
 30
0.0
 10
34.81235804685243
 20
-75.12512137010783
 30
0.0
 10
34.54759832469636
 20
-75.11753664788725
 30
0.0
 10
34.41685888028453
 20
-75.11411470344348
 30
0.0
 10
34.33811888030441
 20
-75.07001748123227
 30
0.0
 10
34.30418165809069
 20
-74.93186970348938
 30
0.0
 10
34.03702304704629
 20
-73.84182164820604
 30
0.0
 10
33.75589443600536
 20
-72.75628914847792
 30
0.0
 10
33.50147110273566
 20
-71.6634894265288
 30
0.0
 10
33.30546776945143
 20
-70.82151470451674
 30
0.0
 10
32.9296183251008
 20
-70.0725674824819
 30
0.0
 10
32.29207832526044
 20
-69.47034053818814
 30
0.0
 10
32.08916054753332
 20
-69.27881748268034
 30
0.0
 10
31.85660943648032
 20
-69.13618942716039
 30
0.0
 10
31.59202610321314
 20
-69.04764220496023
 30
0.0
 10
31.32021082550312
 20
-68.9584247049827
 30
0.0
 10
31.20153638108862
 20
-68.76273887169809
 30
0.0
 10
31.25081943663175
 20
-68.47229692732625
 30
0.0
 10
31.29749193662016
 20
-68.19875303850559
 30
0.0
 10
31.43630999214106
 20
-67.97071748300718
 30
0.0
 10
31.60324443654358
 20
-67.75608748306112
 30
0.0
 10
31.80460999204894
 20
-67.4963019275706
 30
0.0
 10
32.03783138087929
 20
-67.26653776096089
 30
0.0
 10
32.29913388081407
 20
-67.07152220545427
 30
0.0
 10
32.51549249187109
 20
-66.91065553882778
 30
0.0
 10
32.63021582517582
 20
-66.69740137221461
 30
0.0
 10
32.70962610293362
 20
-66.45521942783078
 30
0.0
 10
32.89963221399718
 20
-65.8736652613091
 30
0.0
 10
32.92460888065775
 20
-65.27422526145928
 30
0.0
 10
32.86844665844955
 20
-64.67203359494304
 30
0.0
 10
32.73890665848204
 20
-63.27605665084772
 30
0.0
 10
32.24455915860547
 20
-61.9917338733908
 30
0.0
 10
31.63527665875777
 20
-60.74667526259091
 30
0.0
 10
31.05340499223681
 20
-59.55707331844432
 30
0.0
 10
30.59246554790732
 20
-58.3289127631956
 30
0.0
 10
30.39780277017846
 20
-57.01358081908025
 30
0.0
 10
30.25774999243572
 20
-56.06961804153816
 30
0.0
 10
30.25016527021513
 20
-55.12427943066317
 30
0.0
 10
30.36644082574163
 20
-54.17446054201177
 30
0.0
 10
30.50201332570795
 20
-53.06515082006675
 30
0.0
 10
30.72973138120645
 20
-51.97340943145092
 30
0.0
 10
30.94316193670881
 20
-50.87888109839116
 30
0.0
 10
31.05530999223634
 20
-50.3018424874247
 30
0.0
 10
31.04497360334998
 20
-49.71616082090436
 30
0.0
 10
31.02221943668885
 20
-49.13224304327219
 30
0.0
 10
30.99156304780755
 20
-48.35535582124429
 30
0.0
 10
30.94383221448618
 20
-47.57815109921678
 30
0.0
 10
30.8182786034066
 20
-46.80884859940883
 30
0.0
 10
30.70235582565787
 20
-46.09743693292036
 30
0.0
 10
30.58590388124249
 20
-45.38637804420902
 30
0.0
 10
30.50130777015243
 20
-44.67013332216573
 30
0.0
 10
30.43449165905795
 20
-44.1020552667521
 30
0.0
 10
30.38436193684825
 20
-43.5322133224503
 30
0.0
 10
30.35113027019005
 20
-42.96103082259313
 30
0.0
 10
30.30597471464557
 20
-42.17796998945568
 30
0.0
 10
30.30943193686718
 20
-41.3934980452072
 30
0.0
 10
30.303928603535
 20
-40.60941415651463
 30
0.0
 10
30.29891915909194
 20
-39.91264276779973
 30
0.0
 10
30.19746027022854
 20
-39.22980610130353
 30
0.0
 10
29.96423888139786
 20
-38.56989999035765
 30
0.0
 10
29.93358249251656
 20
-38.48276387926821
 30
0.0
 10
29.89756388141443
 20
-38.402471657066
 30
0.0
 10
29.82711415920977
 20
-38.33667860152697
 30
0.0
 10
29.48036888151869
 20
-38.01215832383037
 30
0.0
 10
29.1351758260497
 20
-37.68538026835648
 30
0.0
 10
28.79238165946871
 20
-37.3567324906609
 30
0.0
 10
28.72450721504095
 20
-37.29178610178811
 30
0.0
 10
28.64802499283811
 20
-37.24578387957738
 30
0.0
 10
28.56501638174765
 20
-37.20616693514292
 30
0.0
 10
28.26561388182234
 20
-37.06251582406784
 30
0.0
 10
27.95541638190003
 20
-36.93142360187826
 30
0.0
 10
27.68928082641108
 20
-36.7348911019274
 30
0.0
 10
27.39333554870738
 20
-36.51627471309309
 30
0.0
 10
27.0758708265644
 20
-36.51369943531588
 30
0.0
 10
26.74203721553657
 20
-36.55211693530634
 30
0.0
 10
26.22715804899864
 20
-36.61138360195839
 30
0.0
 10
25.73125832690063
 20
-36.7486494352572
 30
0.0
 10
25.25186860479819
 20
-36.94278304631974
 30
0.0
 10
25.13058360482832
 20
-36.99206610186319
 30
0.0
 10
25.03826166040695
 20
-36.97259276853448
 30
0.0
 10
24.93320443821121
 20
-36.90316610188528
 30
0.0
 10
24.32529777169639
 20
-36.50078776865264
 30
0.0
 10
23.82886888293174
 20
-36.00467637988758
 30
0.0
 10
23.50865249412299
 20
-35.33566860227718
 30
0.0
 10
23.31088527194996
 20
-34.92207193571378
 30
0.0
 10
23.02806332757623
 20
-34.55722915802752
 30
0.0
 10
22.74315999431409
 20
-34.19757221367286
 30
0.0
 10
22.70057971654714
 20
-34.14380888035299
 30
0.0
 10
22.65736443878002
 20
-34.09025721369952
 30
0.0
 10
22.61824138323436
 20
-34.033565824825
 30
0.0
 10
22.51575943881551
 20
-33.88561082486207
 30
0.0
 10
22.53420971658878
 20
-33.83050693598683
 30
0.0
 10
22.70026221654721
 20
-33.76813582489125
 30
0.0
 10
22.8464886053995
 20
-33.7137022137937
 30
0.0
 10
23.00153443869421
 20
-33.70181360268557
 30
0.0
 10
23.15312304976732
 20
-33.67323860269267
 30
0.0
 10
23.23062832752559
 20
-33.6589158249187
 30
0.0
 10
23.30866277195051
 20
-33.64547499158849
 30
0.0
 10
23.42201027192236
 20
-33.62466110270505
 30
0.0
 10
22.95606138314981
 20
-33.37503554721168
 30
0.0
 10
22.61912332767844
 20
-33.03502832507462
 30
0.0
 10
22.35693888329958
 20
-32.61659860295705
 30
0.0
 10
22.10233916114099
 20
-32.21093943639167
 30
0.0
 10
22.002961661166
 20
-31.75070554761803
 30
0.0
 10
21.88047721675212
 20
-31.29802110328648
 30
0.0
 10
21.85483027231419
 20
-31.20411165886551
 30
0.0
 10
21.89374166119313
 20
-31.16897499220778
 30
0.0
 10
21.9869455500589
 20
-31.18361526998199
 30
0.0
 10
22.13835777224312
 20
-31.20739249219824
 30
0.0
 10
22.29012277220511
 20
-31.23014665885904
 30
0.0
 10
22.4950866610428
 20
-31.26164971440691
 30
0.0
 10
22.31820388330921
 20
-31.06236554778996
 30
0.0
 10
22.18383082778752
 20
-30.88788165894469
 30
0.0
 10
22.02553943893792
 20
-30.73886832564848
 30
0.0
 10
21.87515027230914
 20
-30.59726332568397
 30
0.0
 10
21.82897166120953
 20
-30.44242915905598
 30
0.0
 10
21.91099249452239
 20
-30.26223027021213
 30
0.0
 10
22.01432110560748
 20
-30.0348649924914
 30
0.0
 10
21.93819166118208
 20
-29.85812332586885
 30
0.0
 10
21.81623638343485
 20
-29.66106165925134
 30
0.0
 10
21.35942443910465
 20
-28.92089860388077
 30
0.0
 10
20.91965166143668
 20
-28.1700463818464
 30
0.0
 10
20.47162388377107
 20
-27.42434471536613
 30
0.0
 10
20.21600110605704
 20
-26.99885943769461
 30
0.0
 10
20.14967888385136
 20
-26.52550221559099
 30
0.0
 10
20.10903888386177
 20
-26.04318443793358
 30
0.0
 10
20.02514832832691
 20
-25.05565360484725
 30
0.0
 10
20.0378836061016
 20
-24.06519471620594
 30
0.0
 10
20.00186499499947
 20
-23.0762880497864
 30
0.0
 10
19.95106499501209
 20
-21.68136943902405
 30
0.0
 10
19.89871277280326
 20
-20.28662721715057
 30
0.0
 10
19.80759027282589
 20
-18.89343721749886
 30
0.0
 10
19.7419383283979
 20
-17.89433527330432
 30
0.0
 10
19.68888055063323
 20
-16.89473944022066
 30
0.0
 10
19.55591860622227
 20
-15.90188166269135
 30
0.0
 10
19.49598166179254
 20
-15.45417138502534
 30
0.0
 10
19.37265055071242
 20
-15.01683277402354
 30
0.0
 10
19.33627916183253
 20
-14.56464221858112
 30
0.0
 10
19.27598943962535
 20
-13.81604777432372
 30
0.0
 10
19.27581305073647
 20
-13.06759444117768
 30
0.0
 10
19.30340027295209
 20
-12.31776527469843
 30
0.0
 10
19.3238966618356
 20
-11.7569191637273
 30
0.0
 10
19.38436277293166
 20
-11.19967138608883
 30
0.0
 10
19.43276388403071
 20
-10.64122416400635
 30
0.0
 10
19.49287721734901
 20
-9.94632249751346
 30
0.0
 10
19.75555555061667
 20
-9.311393053227826
 30
0.0
 10
19.99533860611217
 20
-8.667679442277601
 30
0.0
 10
20.25078499493732
 20
-7.981244442449062
 30
0.0
 10
20.49540110598732
 20
-7.290329164844108
 30
0.0
 10
20.68607749482856
 20
-6.582374720576612
 30
0.0
 10
20.70985471704481
 20
-6.494709442820858
 30
0.0
 10
20.74326277259188
 20
-6.43646583172425
 30
0.0
 10
20.84352221701128
 20
-6.434560831724723
 30
0.0
 10
21.12980138360631
 20
-6.428881109503983
 30
0.0
 10
21.41505749464621
 20
-6.426834998393415
 30
0.0
 10
21.69911416124179
 20
-6.477141109491675
 30
0.0
 10
21.83828499454044
 20
-6.501764998374483
 30
0.0
 10
21.89684610563697
 20
-6.566852498358317
 30
0.0
 10
21.91374416118816
 20
-6.713819720543643
 30
0.0
 10
22.04448360559999
 20
-7.850152220259793
 30
0.0
 10
22.17038999445732
 20
-8.987578331086425
 30
0.0
 10
22.3269880499738
 20
-10.1204888863588
 30
0.0
 10
22.41705221661788
 20
-10.76935305286313
 30
0.0
 10
22.60808138323688
 20
-11.39535721937345
 30
0.0
 10
22.9713719387017
 20
-11.95274610812296
 30
0.0
 10
23.12761721644042
 20
-12.19252916361846
 30
0.0
 10
23.33155804972267
 20
-12.38786221912532
 30
0.0
 10
23.61406249409649
 20
-12.46935388577153
 30
0.0
 10
23.84488499403883
 20
-12.53585249686609
 30
0.0
 10
23.92394249401887
 20
-12.70931333015591
 30
0.0
 10
23.95703304956636
 20
-12.91392444121585
 30
0.0
 10
24.03968888287905
 20
-13.42139527442238
 30
0.0
 10
23.88019804958544
 20
-13.86099166320148
 30
0.0
 10
23.56171027188734
 20
-14.2523633297704
 30
0.0
 10
23.3322636052782
 20
-14.53433860747757
 30
0.0
 10
23.05561527201401
 20
-14.76188027408718
 30
0.0
 10
22.76467943875337
 20
-14.97770971847788
 30
0.0
 10
22.50009610548618
 20
-15.1741011073177
 30
0.0
 10
22.40156527217742
 20
-15.46778860724411
 30
0.0
 10
22.3550691610779
 20
-15.78232527383212
 30
0.0
 10
22.27237804998736
 20
-16.34112527369236
 30
0.0
 10
22.39189916106875
 20
-16.87477221800347
 30
0.0
 10
22.55297749436165
 20
-17.40340971787153
 30
0.0
 10
22.82892027207063
 20
-18.30913138431173
 30
0.0
 10
23.29074166084389
 20
-19.12630582855178
 30
0.0
 10
23.75460916072803
 20
-19.94348027279182
 30
0.0
 10
24.07725971620295
 20
-20.51226388376098
 30
0.0
 10
24.34974527169032
 20
-21.10415443916838
 30
0.0
 10
24.54751249386303
 20
-21.72906499456758
 30
0.0
 10
24.84740888267714
 20
-22.67683777210873
 30
0.0
 10
24.77558332713928
 20
-23.61508554965193
 30
0.0
 10
24.48447110499008
 20
-24.54871193830735
 30
0.0
 10
24.44019749389
 20
-24.69081082716066
 30
0.0
 10
24.39627666056769
 20
-24.83312138268069
 30
0.0
 10
24.35373166057826
 20
-24.97574943820064
 30
0.0
 10
24.31478499392115
 20
-25.10631249372327
 30
0.0
 10
24.50496749387392
 20
-25.37364749365655
 30
0.0
 10
24.63810582717375
 20
-25.37657554921152
 30
0.0
 10
24.6952911049374
 20
-25.3779513825444
 30
0.0
 10
24.71183638271082
 20
-25.32884471589015
 30
0.0
 10
24.73459054937194
 20
-25.29095638256601
 30
0.0
 10
25.03378138263053
 20
-24.79212860491302
 30
0.0
 10
25.39068666031909
 20
-24.34064360502581
 30
0.0
 10
25.81342027132452
 20
-23.94031138290373
 30
0.0
 10
26.06801999348311
 20
-23.69897610518647
 30
0.0
 10
26.34844304896852
 20
-23.49295388301549
 30
0.0
 10
26.64004916000652
 20
-23.30023138306368
 30
0.0
 10
26.74962193775715
 20
-23.22752388308206
 30
0.0
 10
26.79146138219106
 20
-23.29384610528774
 30
0.0
 10
26.84296693773365
 20
-23.36789416082473
 30
0.0
 10
27.30118999317457
 20
-24.02504860510484
 30
0.0
 10
27.76435193750351
 20
-24.67895749383038
 30
0.0
 10
28.21566054850152
 20
-25.34073332699827
 30
0.0
 10
28.31112221514459
 20
-25.48113888251845
 30
0.0
 10
28.37088277068512
 20
-25.48198554918502
 30
0.0
 10
28.48317193732368
 20
-25.36623916032516
 30
0.0
 10
28.59016943729679
 20
-25.25634888257493
 30
0.0
 10
28.72418971504102
 20
-25.17312860481775
 30
0.0
 10
28.83803110390167
 20
-25.0694472159549
 30
0.0
 10
28.92400304832462
 20
-24.99070721597446
 30
0.0
 10
28.97272165942359
 20
-24.99811554930616
 30
0.0
 10
29.03664499274095
 20
-25.097528327059
 30
0.0
 10
29.42060832597816
 20
-25.69456943802082
 30
0.0
 10
29.8169541592123
 20
-26.2829674934294
 30
0.0
 10
30.19559054800654
 20
-26.88328943772363
 30
0.0
 10
30.86392804783957
 20
-27.94352777079191
 30
0.0
 10
31.54087332544799
 20
-28.99907415941705
 30
0.0
 10
32.11413721419356
 20
-30.11529832580465
 30
0.0
 10
32.16324388084814
 20
-30.21143027022507
 30
0.0
 10
32.22868415860942
 20
-30.24226304799494
 30
0.0
 10
32.33257721413899
 20
-30.24000527021765
 30
0.0
 10
33.75850499156041
 20
-30.21005443689187
 30
0.0
 10
35.16375999120913
 20
-30.35543415907791
 30
0.0
 10
36.5514457341616
 20
-30.70097999232467
 30
0.0
 10
36.950190446211
 20
-30.80053388118886
 30
0.0
 10
37.33672904746069
 20
-30.65843499233555
 30
0.0
 10
37.65680431707266
 20
-30.39469832573461
 30
0.0
 10
37.84300042343352
 20
-30.24071082577318
 30
0.0
 10
37.87019958940628
 20
-30.02745665915969
 30
0.0
 10
37.81216764644235
 20
-29.79818638143943
 30
0.0
 10
37.54998320868678
 20
-28.76620554836414
 30
0.0
 10
37.32466404776849
 20
-27.72596971529089
 30
0.0
 10
37.16277432967642
 20
-26.67331610444288
 30
0.0
 10
37.05147294362706
 20
-25.94913388240157
 30
0.0
 10
36.96140877925813
 20
-25.22258804924977
 30
0.0
 10
36.98172877873972
 20
-24.48704638276697
 30
0.0
 10
36.98448044533618
 20
-24.40093332723298
 30
0.0
 10
36.99033655629789
 20
-24.31633721614324
 30
0.0
 10
36.89508655872793
 20
-24.26327943837857
 30
0.0
 10
36.75312878457179
 20
-24.18369277173188
 30
0.0
 10
36.66546350903054
 20
-24.20662332728157
 30
0.0
 10
36.61910851021315
 20
-24.36286860502029
 30
0.0
 10
36.56022990060416
 20
-24.56215277163724
 30
0.0
 10
36.48304212479561
 20
-24.75007749381239
 30
0.0
 10
36.36574443535295
 20
-24.92300916043589
 30
0.0
 10
36.23722657551133
 20
-25.11234499372177
 30
0.0
 10
36.07823054653608
 20
-25.26478027146144
 30
0.0
 10
35.86793880715487
 20
-25.35692582699425
 30
0.0
 10
35.77783936500905
 20
-25.39654277142871
 30
0.0
 10
35.7261583244017
 20
-25.45443360474756
 30
0.0
 10
35.69412520047811
 20
-25.55141221583422
 30
0.0
 10
35.60247353614967
 20
-25.83183527131995
 30
0.0
 10
35.42918909612608
 20
-26.06353971570638
 30
0.0
 10
35.18958332453594
 20
-26.22906304899817
 30
0.0
 10
34.84110943573421
 20
-26.46986916004911
 30
0.0
 10
34.47146888027097
 20
-26.68072443777427
 30
0.0
 10
34.07060749148225
 20
-26.82229415996093
 30
0.0
 10
33.46153665830127
 20
-27.03762971546282
 30
0.0
 10
32.89843276955317
 20
-26.88604110438972
 30
0.0
 10
32.36288082524253
 20
-26.57372693780117
 30
0.0
 10
32.08210499197937
 20
-26.40975582673082
 30
0.0
 10
31.84817804759349
 20
-26.1921977712298
 30
0.0
 10
31.65062249208751
 20
-25.93622221573832
 30
0.0
 10
31.33986054772071
 20
-25.53264443806136
 30
0.0
 10
31.2458099921887
 20
-25.09562332705947
 30
0.0
 10
31.4761033254644
 20
-24.62053749384489
 30
0.0
 10
31.52055332545304
 20
-24.52892110497904
 30
0.0
 10
31.48972054768317
 20
-24.45603721610822
 30
0.0
 10
31.4582174921353
 20
-24.37595666057273
 30
0.0
 10
31.20982665886409
 20
-23.7461777718412
 30
0.0
 10
31.01481110335747
 20
-23.10126471644697
 30
0.0
 10
30.89356138116543
 20
-22.43395027216938
 30
0.0
 10
30.72387527009683
 20
-21.50014749462508
 30
0.0
 10
30.8454777700663
 20
-20.59961166151681
 30
0.0
 10
31.18534388109264
 20
-19.72161832840295
 30
0.0
 10
31.22686582552663
 20
-19.61483249509624
 30
0.0
 10
31.262531658851
 20
-19.50596527290113
 30
0.0
 10
31.30299526995202
 20
-19.39914416181691
 30
0.0
 10
31.4761033254644
 20
-18.9437080508196
 30
0.0
 10
31.80718526982583
 20
-18.68480443977315
 30
0.0
 10
32.28879749192771
 20
-18.63209943978656
 30
0.0
 10
32.46278749188417
 20
-18.61297888423562
 30
0.0
 10
32.59663138073985
 20
-18.56182610647079
 30
0.0
 10
32.71530582515436
 20
-18.42194971761661
 30
0.0
 10
33.26412221390633
 20
-17.77463777333405
 30
0.0
 10
33.97034804706285
 20
-17.4302913845313
 30
0.0
 10
34.81733221351796
 20
-17.49696638451474
 30
0.0
 10
35.48775020574318
 20
-17.54998888450125
 30
0.0
 10
35.89841880637726
 20
-17.23252416235859
 30
0.0
 10
36.22533887983245
 20
-16.71697471804299
 30
0.0
 10
36.28993157416672
 20
-16.61516305140182
 30
0.0
 10
36.3523026836866
 20
-16.51218721809417
 30
0.0
 10
36.44204934806364
 20
-16.42998999589244
 30
0.0
 10
36.59967045515351
 20
-16.2859861070396
 30
0.0
 10
36.79620295013954
 20
-16.2799536070411
 30
0.0
 10
36.92591933571909
 20
-16.44480666255553
 30
0.0
 10
37.13691665738259
 20
-16.71355277359953
 30
0.0
 10
37.38530654622137
 20
-16.8318744402366
 30
0.0
 10
37.7206923709983
 20
-16.71817416248699
 30
0.0
 10
37.825255701664
 20
-16.68254360694046
 30
0.0
 10
37.86660125616474
 20
-16.76452916247548
 30
0.0
 10
37.90964014395561
 20
-16.82739416245986
 30
0.0
 10
37.96806110161917
 20
-16.91266055132728
 30
0.0
 10
38.03177180750644
 20
-16.95090166242886
 30
0.0
 10
38.13961597142178
 20
-16.92091555132524
 30
0.0
 10
38.27483569019426
 20
-16.88390916244582
 30
0.0
 10
38.37421318765892
 20
-16.94712694020765
 30
0.0
 10
38.43640790829443
 20
-17.06664805128904
 30
0.0
 10
38.49376957349768
 20
-17.17671471792815
 30
0.0
 10
38.54957901651831
 20
-17.20447832903233
 30
0.0
 10
38.67463873554999
 20
-17.1338522179388
 30
0.0
 10
39.06929122548156
 20
-16.91199027354993
 30
0.0
 10
39.34918610127387
 20
-17.03204055129763
 30
0.0
 10
39.49802204787706
 20
-17.4644049956339
 30
0.0
 10
39.60791232285131
 20
-17.78391582888745
 30
0.0
 10
39.6058662117924
 20
-18.11774943991496
 30
0.0
 10
39.62805593344851
 20
-18.44812582872119
 30
0.0
 10
39.6623459325737
 20
-18.95697249526061
 30
0.0
 10
39.79844759576812
 20
-19.43826721736257
 30
0.0
 10
40.00686870156197
 20
-19.90181721724679
 30
0.0
 10
40.05975008910174
 20
-20.01876305055097
 30
0.0
 10
40.11005619892943
 20
-20.04201110610057
 30
0.0
 10
40.19634564117246
 20
-19.93264999501698
 30
0.0
 10
40.64663118524027
 20
-19.3619613840483
 30
0.0
 10
41.10996950675285
 20
-18.80125638418853
 30
0.0
 10
41.50719727439651
 20
-18.19095082878571
 30
0.0
 10
41.62227338257178
 20
-18.01442082882987
 30
0.0
 10
41.6567055451415
 20
-17.80804582888145
 30
0.0
 10
41.72701310212187
 20
-17.61511166226292
 30
0.0
 10
42.14731253584359
 20
-16.45912944032982
 30
0.0
 10
42.70745307710877
 20
-15.37165666282369
 30
0.0
 10
43.34548694972005
 20
-14.32298944086361
 30
0.0
 10
43.92566526825181
 20
-13.36921944110212
 30
0.0
 10
44.53611191934468
 20
-12.43541666355781
 30
0.0
 10
45.24512467903403
 20
-11.57086416377384
 30
0.0
 10
45.54209300479108
 20
-11.20810277497566
 30
0.0
 10
45.8459416552053
 20
-10.85031555284302
 30
0.0
 10
46.15910132238321
 20
-10.50134777515249
 30
0.0
 10
46.50464714690094
 20
-10.11636138635983
 30
0.0
 10
46.94943054381789
 20
-9.863490275311882
 30
0.0
 10
47.39382351310505
 20
-9.612488886485623
 30
0.0
 10
48.03221016348512
 20
-9.251632497686971
 30
0.0
 10
48.70538070186667
 20
-8.96087305331521
 30
0.0
 10
49.359961098771
 20
-8.63134333117555
 30
0.0
 10
49.42677596124011
 20
-8.59775888673959
 30
0.0
 10
49.50050651491465
 20
-8.56435083119219
 30
0.0
 10
49.57353151305163
 20
-8.576733331189114
 30
0.0
 10
49.88877498752762
 20
-8.630990553397789
 30
0.0
 10
50.19022233065186
 20
-8.55055722008454
 30
0.0
 10
50.48923676746782
 20
-8.479931108991007
 30
0.0
 10
50.94054536706508
 20
-8.373145275684626
 30
0.0
 10
51.40977507731626
 20
-8.360727497909862
 30
0.0
 10
51.85074728828834
 20
-8.205716942392986
 30
0.0
 10
51.89346867608732
 20
-8.190723886841333
 30
0.0
 10
51.94239895261678
 20
-8.174178609067592
 30
0.0
 10
51.97340811849234
 20
-8.22653083127674
 30
0.0
 10
52.00096006223387
 20
-8.27337972015403
 30
0.0
 10
51.97545554256181
 20
-8.31610110903202
 30
0.0
 10
51.94892534133917
 20
-8.353495553467035
 30
0.0
 10
51.8597078436153
 20
-8.479225553435805
 30
0.0
 10
51.73327229128538
 20
-8.554155553416873
 30
0.0
 10
51.59720590586783
 20
-8.619278331178547
 30
0.0
 10
51.36913507835307
 20
-8.727969164484776
 30
0.0
 10
51.11555841815569
 20
-8.76000138669897
 30
0.0
 10
50.85891387617397
 20
-8.85990805334061
 30
0.0
 10
51.18586702747307
 20
-9.015130275523884
 30
0.0
 10
51.51589063016458
 20
-9.016153331079328
 30
0.0
 10
51.84178673296139
 20
-9.03615583107436
 30
0.0
 10
51.98924784031045
 20
-9.045081108849992
 30
0.0
 10
52.13875505871843
 20
-9.030969997742101
 30
0.0
 10
52.28759199936573
 20
-9.028041942187452
 30
0.0
 10
52.35409060878032
 20
-9.026489719965685
 30
0.0
 10
52.4370992177737
 20
-8.986202497753542
 30
0.0
 10
52.48190199440847
 20
-9.049737775515288
 30
0.0
 10
52.5356300485933
 20
-9.126572775496204
 30
0.0
 10
52.4370992177737
 20
-9.17878388659431
 30
0.0
 10
52.41332199615809
 20
-9.261263331018126
 30
0.0
 10
52.54148615955501
 20
-9.263168331017653
 30
0.0
 10
52.66104254539377
 20
-9.248175275465679
 30
0.0
 10
52.78091643122442
 20
-9.219776664361657
 30
0.0
 10
52.82744781892619
 20
-9.208734719920098
 30
0.0
 10
52.88911337290853
 20
-9.164990275486662
 30
0.0
 10
52.92425003867879
 20
-9.215296386584921
 30
0.0
 10
52.96249114881428
 20
-9.27057666434904
 30
0.0
 10
52.9056586502642
 20
-9.322082219891623
 30
0.0
 10
52.87464948438864
 20
-9.367378886547145
 30
0.0
 10
52.78814837548436
 20
-9.49434360873744
 30
0.0
 10
52.66587560082602
 20
-9.579962775382947
 30
0.0
 10
52.52599921550568
 20
-9.63626610870219
 30
0.0
 10
52.3685544973002
 20
-9.699836664241777
 30
0.0
 10
52.20662950143125
 20
-9.752894442006125
 30
0.0
 10
52.01888117288778
 20
-9.82041610865613
 30
0.0
 10
52.19802172387308
 20
-9.95217860862308
 30
0.0
 10
52.35786665357694
 20
-10.07536860859216
 30
0.0
 10
52.55079949265075
 20
-10.14994583079579
 30
0.0
 10
52.59387498685123
 20
-10.16698499745833
 30
0.0
 10
52.66449976752779
 20
-10.16596194190289
 30
0.0
 10
52.65793810102852
 20
-10.23881055299587
 30
0.0
 10
52.65278887572584
 20
-10.29430249742638
 30
0.0
 10
52.60452754683558
 20
-10.32562916408538
 30
0.0
 10
52.55940727020892
 20
-10.35042944185675
 30
0.0
 10
52.4191781071198
 20
-10.42744083072654
 30
0.0
 10
52.26967220915454
 20
-10.4169280529513
 30
0.0
 10
52.12566700349678
 20
-10.3716313862961
 30
0.0
 10
51.85349895488481
 20
-10.28636499742836
 30
0.0
 10
51.57480451755045
 20
-10.21090583078065
 30
0.0
 10
51.34260619014099
 20
-10.03247083082529
 30
0.0
 10
51.25889202561005
 20
-9.967877219730257
 30
0.0
 10
51.17069758341563
 20
-9.962197497509516
 30
0.0
 10
51.06835675269323
 20
-9.979413053060618
 30
0.0
 10
50.62431665401073
 20
-10.0534611085976
 30
0.0
 10
50.19643121938235
 20
-10.17097138634626
 30
0.0
 10
49.81193872919157
 20
-10.41417638628521
 30
0.0
 10
49.68931317676445
 20
-10.49150527515493
 30
0.0
 10
49.58492623498314
 20
-10.58696694179767
 30
0.0
 10
49.52393095876148
 20
-10.72356249731912
 30
0.0
 10
49.47224901563555
 20
-10.84068471951218
 30
0.0
 10
49.50050651491465
 20
-10.92559833060185
 30
0.0
 10
49.61695845638815
 20
-10.97505777503386
 30
0.0
 10
49.76579539703545
 20
-11.03859305279593
 30
0.0
 10
49.91943011533812
 20
-11.08082055278544
 30
0.0
 10
50.08410677780354
 20
-11.05460916390303
 30
0.0
 10
50.4107084361379
 20
-11.00278610836052
 30
0.0
 10
50.67666759601939
 20
-11.135254163883
 30
0.0
 10
50.9219539786505
 20
-11.32952888605657
 30
0.0
 10
50.97226008847819
 20
-11.36932221937992
 30
0.0
 10
51.00602220947098
 20
-11.42340305269971
 30
0.0
 10
51.02323647606657
 20
-11.48595055268417
 30
0.0
 10
51.04013453119102
 20
-11.54708694155759
 30
0.0
 10
51.05699730853859
 20
-11.61376194154103
 30
0.0
 10
51.01533425404595
 20
-11.66748999708306
 30
0.0
 10
50.97017869964241
 20
-11.72658027484623
 30
0.0
 10
50.90953620118952
 20
-11.68128360819071
 30
0.0
 10
50.85651370254224
 20
-11.67059444152691
 30
0.0
 10
50.37211454823363
 20
-11.56931194155207
 30
0.0
 10
49.88291761626964
 20
-11.55107333044553
 30
0.0
 10
49.39026346217162
 20
-11.58638638599245
 30
0.0
 10
48.88385097509128
 20
-11.62272249709418
 30
0.0
 10
48.382906543427
 20
-11.57086416377384
 30
0.0
 10
47.88785350050129
 20
-11.4757905526867
 30
0.0
 10
47.26188462758221
 20
-11.35538749716123
 30
0.0
 10
47.05173609934818
 20
-11.48595055268417
 30
0.0
 10
46.72030019695473
 20
-12.0013236081109
 30
0.0
 10
46.68311742012556
 20
-12.05886166365199
 30
0.0
 10
46.65108519872055
 20
-12.12003333030324
 30
0.0
 10
46.61834742177798
 20
-12.18046416362146
 30
0.0
 10
46.36410048381992
 20
-12.64641305239401
 30
0.0
 10
46.21903826529854
 20
-13.15388388560055
 30
0.0
 10
46.06300465816818
 20
-13.65634527436371
 30
0.0
 10
45.74846799952601
 20
-14.66715944077781
 30
0.0
 10
45.54279856032863
 20
-15.70859471829506
 30
0.0
 10
45.20240329123506
 20
-16.71200055137745
 30
0.0
 10
44.87442579960246
 20
-17.67815305113587
 30
0.0
 10
44.50718414230492
 20
-18.62331527312197
 30
0.0
 10
43.95113582315756
 20
-19.49114860623836
 30
0.0
 10
43.69688888519949
 20
-19.88819999502802
 30
0.0
 10
43.53291777827163
 20
-20.34261305046989
 30
0.0
 10
43.324143894709
 20
-20.76926249480758
 30
0.0
 10
42.98378390339231
 20
-21.46345860574526
 30
0.0
 10
42.61308610045772
 20
-22.14110943890921
 30
0.0
 10
42.24305642228985
 20
-22.8196069387394
 30
0.0
 10
42.18484809044153
 20
-22.92692193871274
 30
0.0
 10
42.19105697917202
 20
-23.00065249424981
 30
0.0
 10
42.27131392156894
 20
-23.09350360533782
 30
0.0
 10
42.56069752529726
 20
-23.42596138303245
 30
0.0
 10
42.84355474030319
 20
-23.76374610517006
 30
0.0
 10
43.12500084423402
 20
-24.10308304952976
 30
0.0
 10
43.20081387808895
 20
-24.19508749395121
 30
0.0
 10
43.25454084092917
 20
-24.22091082727802
 30
0.0
 10
43.35377722728633
 20
-24.12047499396974
 30
0.0
 10
44.96124440849865
 20
-22.4959686054872
 30
0.0
 10
46.53361020171759
 20
-20.84059416145663
 30
0.0
 10
47.89716683359703
 20
-19.00057582858333
 30
0.0
 10
48.41186959824364
 20
-18.305850550979
 30
0.0
 10
48.91793054332638
 20
-17.59962471782247
 30
0.0
 10
49.21937791097572
 20
-16.78001610691625
 30
0.0
 10
49.44540262743158
 20
-16.16491277373645
 30
0.0
 10
49.71411345390953
 20
-15.57390416277313
 30
0.0
 10
50.04932288980206
 20
-15.0116469406916
 30
0.0
 10
50.36385954844423
 20
-14.48420888526787
 30
0.0
 10
50.74831676085813
 20
-14.0063713853872
 30
0.0
 10
51.09626147420354
 20
-13.50235777440227
 30
0.0
 10
51.82869998704257
 20
-12.442119441334
 30
0.0
 10
52.51015949368756
 20
-11.34935499716272
 30
0.0
 10
53.17712114333862
 20
-10.24759471966046
 30
0.0
 10
53.41136558180698
 20
-9.860562219757233
 30
0.0
 10
53.65771029774443
 20
-9.480056108740989
 30
0.0
 10
53.8695886256723
 20
-9.081276108840681
 30
0.0
 10
54.08901639785201
 20
-8.667679442277601
 30
0.0
 10
54.39565083447356
 20
-8.345064164580526
 30
0.0
 10
54.79217304657966
 20
-8.112689442416412
 30
0.0
 10
55.54595330512689
 20
-7.67083527586003
 30
0.0
 10
56.24600550948929
 20
-7.158390275988276
 30
0.0
 10
56.89575160402401
 20
-6.575989442800349
 30
0.0
 10
57.0318194301868
 20
-6.454210553941993
 30
0.0
 10
57.20616076277147
 20
-6.436994998390892
 30
0.0
 10
57.36498131427518
 20
-6.376528887294835
 30
0.0
 10
58.00714268678117
 20
-6.132265554022601
 30
0.0
 10
58.64619961492191
 20
-5.880099998529857
 30
0.0
 10
59.26941682124453
 20
-5.591386665268663
 30
0.0
 10
59.65355653366654
 20
-5.413621943090987
 30
0.0
 10
60.0407654126769
 20
-5.239631943134524
 30
0.0
 10
60.3890629037911
 20
-4.994028054306924
 30
0.0
 10
60.45937151310849
 20
-4.944568609874907
 30
0.0
 10
60.53169095570791
 20
-4.89771972099794
 30
0.0
 10
60.58097401000614
 20
-4.824518332127197
 30
0.0
 10
60.60404720707095
 20
-4.824518332127197
 30
0.0
 10
60.62679984217036
 20
-4.824518332127197
 30
0.0
 10
60.64951873047965
 20
-4.824518332127197
 30
0.0
 10
60.72049761755771
 20
-5.071709720954403
 30
0.0
 10
60.59921262065195
 20
-5.257200276463387
 30
0.0
 10
60.45072845777343
 20
-5.430661109753528
 30
0.0
 10
60.28502873977856
 20
-5.624794720816063
 30
0.0
 10
60.07625485621594
 20
-5.771232776335068
 30
0.0
 10
59.87608875021149
 20
-5.929524165184355
 30
0.0
 10
60.16928235384261
 20
-5.84185888742828
 30
0.0
 10
60.44832956894574
 20
-5.72988722078964
 30
0.0
 10
60.70328206244137
 20
-5.563834720831204
 30
0.0
 10
60.75976178322267
 20
-5.527145831951393
 30
0.0
 10
60.81214928188615
 20
-5.473206109742961
 30
0.0
 10
60.89000733545539
 20
-5.511623609733098
 30
0.0
 10
60.89000733545539
 20
-5.557273054166382
 30
0.0
 10
60.89000733545539
 20
-5.603098887488226
 30
0.0
 10
60.89000733545539
 20
-5.64874833192119
 30
0.0
  0
HATCH
  5
42
330
1F
100
AcDbEntity
  8
Layer 1
 62
     7
100
AcDbHatch
 10
0.0
 20
0.0
 30
0.0
210
0.0
220
0.0
230
1.0
  2
SOLID
 70
     1
 71
     0
 91
        1
 92
        1
 93
        1
 72
     4
 94
        3
 73
     0
 74
     1
 95
      749
 96
      745
 40
0.0
 40
0.0
 40
0.0
 40
0.0
 40
1.0
 40
1.0
 40
1.0
 40
2.0
 40
2.0
 40
2.0
 40
3.0
 40
3.0
 40
3.0
 40
4.0
 40
4.0
 40
4.0
 40
5.0
 40
5.0
 40
5.0
 40
6.0
 40
6.0
 40
6.0
 40
7.0
 40
7.0
 40
7.0
 40
8.0
 40
8.0
 40
8.0
 40
9.0
 40
9.0
 40
9.0
 40
10.0
 40
10.0
 40
10.0
 40
11.0
 40
11.0
 40
11.0
 40
12.0
 40
12.0
 40
12.0
 40
13.0
 40
13.0
 40
13.0
 40
14.0
 40
14.0
 40
14.0
 40
15.0
 40
15.0
 40
15.0
 40
16.0
 40
16.0
 40
16.0
 40
17.0
 40
17.0
 40
17.0
 40
18.0
 40
18.0
 40
18.0
 40
19.0
 40
19.0
 40
19.0
 40
20.0
 40
20.0
 40
20.0
 40
21.0
 40
21.0
 40
21.0
 40
22.0
 40
22.0
 40
22.0
 40
23.0
 40
23.0
 40
23.0
 40
24.0
 40
24.0
 40
24.0
 40
25.0
 40
25.0
 40
25.0
 40
26.0
 40
26.0
 40
26.0
 40
27.0
 40
27.0
 40
27.0
 40
28.0
 40
28.0
 40
28.0
 40
29.0
 40
29.0
 40
29.0
 40
30.0
 40
30.0
 40
30.0
 40
31.0
 40
31.0
 40
31.0
 40
32.0
 40
32.0
 40
32.0
 40
33.0
 40
33.0
 40
33.0
 40
34.0
 40
34.0
 40
34.0
 40
35.0
 40
35.0
 40
35.0
 40
36.0
 40
36.0
 40
36.0
 40
37.0
 40
37.0
 40
37.0
 40
38.0
 40
38.0
 40
38.0
 40
39.0
 40
39.0
 40
39.0
 40
40.0
 40
40.0
 40
40.0
 40
41.0
 40
41.0
 40
41.0
 40
42.0
 40
42.0
 40
42.0
 40
43.0
 40
43.0
 40
43.0
 40
44.0
 40
44.0
 40
44.0
 40
45.0
 40
45.0
 40
45.0
 40
46.0
 40
46.0
 40
46.0
 40
47.0
 40
47.0
 40
47.0
 40
48.0
 40
48.0
 40
48.0
 40
49.0
 40
49.0
 40
49.0
 40
50.0
 40
50.0
 40
50.0
 40
51.0
 40
51.0
 40
51.0
 40
52.0
 40
52.0
 40
52.0
 40
53.0
 40
53.0
 40
53.0
 40
54.0
 40
54.0
 40
54.0
 40
55.0
 40
55.0
 40
55.0
 40
56.0
 40
56.0
 40
56.0
 40
57.0
 40
57.0
 40
57.0
 40
58.0
 40
58.0
 40
58.0
 40
59.0
 40
59.0
 40
59.0
 40
60.0
 40
60.0
 40
60.0
 40
61.0
 40
61.0
 40
61.0
 40
62.0
 40
62.0
 40
62.0
 40
63.0
 40
63.0
 40
63.0
 40
64.0
 40
64.0
 40
64.0
 40
65.0
 40
65.0
 40
65.0
 40
66.0
 40
66.0
 40
66.0
 40
67.0
 40
67.0
 40
67.0
 40
68.0
 40
68.0
 40
68.0
 40
69.0
 40
69.0
 40
69.0
 40
70.0
 40
70.0
 40
70.0
 40
71.0
 40
71.0
 40
71.0
 40
72.0
 40
72.0
 40
72.0
 40
73.0
 40
73.0
 40
73.0
 40
74.0
 40
74.0
 40
74.0
 40
75.0
 40
75.0
 40
75.0
 40
76.0
 40
76.0
 40
76.0
 40
77.0
 40
77.0
 40
77.0
 40
78.0
 40
78.0
 40
78.0
 40
79.0
 40
79.0
 40
79.0
 40
80.0
 40
80.0
 40
80.0
 40
81.0
 40
81.0
 40
81.0
 40
82.0
 40
82.0
 40
82.0
 40
83.0
 40
83.0
 40
83.0
 40
84.0
 40
84.0
 40
84.0
 40
85.0
 40
85.0
 40
85.0
 40
86.0
 40
86.0
 40
86.0
 40
87.0
 40
87.0
 40
87.0
 40
88.0
 40
88.0
 40
88.0
 40
89.0
 40
89.0
 40
89.0
 40
90.0
 40
90.0
 40
90.0
 40
91.0
 40
91.0
 40
91.0
 40
92.0
 40
92.0
 40
92.0
 40
93.0
 40
93.0
 40
93.0
 40
94.0
 40
94.0
 40
94.0
 40
95.0
 40
95.0
 40
95.0
 40
96.0
 40
96.0
 40
96.0
 40
97.0
 40
97.0
 40
97.0
 40
98.0
 40
98.0
 40
98.0
 40
99.0
 40
99.0
 40
99.0
 40
100.0
 40
100.0
 40
100.0
 40
101.0
 40
101.0
 40
101.0
 40
102.0
 40
102.0
 40
102.0
 40
103.0
 40
103.0
 40
103.0
 40
104.0
 40
104.0
 40
104.0
 40
105.0
 40
105.0
 40
105.0
 40
106.0
 40
106.0
 40
106.0
 40
107.0
 40
107.0
 40
107.0
 40
108.0
 40
108.0
 40
108.0
 40
109.0
 40
109.0
 40
109.0
 40
110.0
 40
110.0
 40
110.0
 40
111.0
 40
111.0
 40
111.0
 40
112.0
 40
112.0
 40
112.0
 40
113.0
 40
113.0
 40
113.0
 40
114.0
 40
114.0
 40
114.0
 40
115.0
 40
115.0
 40
115.0
 40
116.0
 40
116.0
 40
116.0
 40
117.0
 40
117.0
 40
117.0
 40
118.0
 40
118.0
 40
118.0
 40
119.0
 40
119.0
 40
119.0
 40
120.0
 40
120.0
 40
120.0
 40
121.0
 40
121.0
 40
121.0
 40
122.0
 40
122.0
 40
122.0
 40
123.0
 40
123.0
 40
123.0
 40
124.0
 40
124.0
 40
124.0
 40
125.0
 40
125.0
 40
125.0
 40
126.0
 40
126.0
 40
126.0
 40
127.0
 40
127.0
 40
127.0
 40
128.0
 40
128.0
 40
128.0
 40
129.0
 40
129.0
 40
129.0
 40
130.0
 40
130.0
 40
130.0
 40
131.0
 40
131.0
 40
131.0
 40
132.0
 40
132.0
 40
132.0
 40
133.0
 40
133.0
 40
133.0
 40
134.0
 40
134.0
 40
134.0
 40
135.0
 40
135.0
 40
135.0
 40
136.0
 40
136.0
 40
136.0
 40
137.0
 40
137.0
 40
137.0
 40
138.0
 40
138.0
 40
138.0
 40
139.0
 40
139.0
 40
139.0
 40
140.0
 40
140.0
 40
140.0
 40
141.0
 40
141.0
 40
141.0
 40
142.0
 40
142.0
 40
142.0
 40
143.0
 40
143.0
 40
143.0
 40
144.0
 40
144.0
 40
144.0
 40
145.0
 40
145.0
 40
145.0
 40
146.0
 40
146.0
 40
146.0
 40
147.0
 40
147.0
 40
147.0
 40
148.0
 40
148.0
 40
148.0
 40
149.0
 40
149.0
 40
149.0
 40
150.0
 40
150.0
 40
150.0
 40
151.0
 40
151.0
 40
151.0
 40
152.0
 40
152.0
 40
152.0
 40
153.0
 40
153.0
 40
153.0
 40
154.0
 40
154.0
 40
154.0
 40
155.0
 40
155.0
 40
155.0
 40
156.0
 40
156.0
 40
156.0
 40
157.0
 40
157.0
 40
157.0
 40
158.0
 40
158.0
 40
158.0
 40
159.0
 40
159.0
 40
159.0
 40
160.0
 40
160.0
 40
160.0
 40
161.0
 40
161.0
 40
161.0
 40
162.0
 40
162.0
 40
162.0
 40
163.0
 40
163.0
 40
163.0
 40
164.0
 40
164.0
 40
164.0
 40
165.0
 40
165.0
 40
165.0
 40
166.0
 40
166.0
 40
166.0
 40
167.0
 40
167.0
 40
167.0
 40
168.0
 40
168.0
 40
168.0
 40
169.0
 40
169.0
 40
169.0
 40
170.0
 40
170.0
 40
170.0
 40
171.0
 40
171.0
 40
171.0
 40
172.0
 40
172.0
 40
172.0
 40
173.0
 40
173.0
 40
173.0
 40
174.0
 40
174.0
 40
174.0
 40
175.0
 40
175.0
 40
175.0
 40
176.0
 40
176.0
 40
176.0
 40
177.0
 40
177.0
 40
177.0
 40
178.0
 40
178.0
 40
178.0
 40
179.0
 40
179.0
 40
179.0
 40
180.0
 40
180.0
 40
180.0
 40
181.0
 40
181.0
 40
181.0
 40
182.0
 40
182.0
 40
182.0
 40
183.0
 40
183.0
 40
183.0
 40
184.0
 40
184.0
 40
184.0
 40
185.0
 40
185.0
 40
185.0
 40
186.0
 40
186.0
 40
186.0
 40
187.0
 40
187.0
 40
187.0
 40
188.0
 40
188.0
 40
188.0
 40
189.0
 40
189.0
 40
189.0
 40
190.0
 40
190.0
 40
190.0
 40
191.0
 40
191.0
 40
191.0
 40
192.0
 40
192.0
 40
192.0
 40
193.0
 40
193.0
 40
193.0
 40
194.0
 40
194.0
 40
194.0
 40
195.0
 40
195.0
 40
195.0
 40
196.0
 40
196.0
 40
196.0
 40
197.0
 40
197.0
 40
197.0
 40
198.0
 40
198.0
 40
198.0
 40
199.0
 40
199.0
 40
199.0
 40
200.0
 40
200.0
 40
200.0
 40
201.0
 40
201.0
 40
201.0
 40
202.0
 40
202.0
 40
202.0
 40
203.0
 40
203.0
 40
203.0
 40
204.0
 40
204.0
 40
204.0
 40
205.0
 40
205.0
 40
205.0
 40
206.0
 40
206.0
 40
206.0
 40
207.0
 40
207.0
 40
207.0
 40
208.0
 40
208.0
 40
208.0
 40
209.0
 40
209.0
 40
209.0
 40
210.0
 40
210.0
 40
210.0
 40
211.0
 40
211.0
 40
211.0
 40
212.0
 40
212.0
 40
212.0
 40
213.0
 40
213.0
 40
213.0
 40
214.0
 40
214.0
 40
214.0
 40
215.0
 40
215.0
 40
215.0
 40
216.0
 40
216.0
 40
216.0
 40
217.0
 40
217.0
 40
217.0
 40
218.0
 40
218.0
 40
218.0
 40
219.0
 40
219.0
 40
219.0
 40
220.0
 40
220.0
 40
220.0
 40
221.0
 40
221.0
 40
221.0
 40
222.0
 40
222.0
 40
222.0
 40
223.0
 40
223.0
 40
223.0
 40
224.0
 40
224.0
 40
224.0
 40
225.0
 40
225.0
 40
225.0
 40
226.0
 40
226.0
 40
226.0
 40
227.0
 40
227.0
 40
227.0
 40
228.0
 40
228.0
 40
228.0
 40
229.0
 40
229.0
 40
229.0
 40
230.0
 40
230.0
 40
230.0
 40
231.0
 40
231.0
 40
231.0
 40
232.0
 40
232.0
 40
232.0
 40
233.0
 40
233.0
 40
233.0
 40
234.0
 40
234.0
 40
234.0
 40
235.0
 40
235.0
 40
235.0
 40
236.0
 40
236.0
 40
236.0
 40
237.0
 40
237.0
 40
237.0
 40
238.0
 40
238.0
 40
238.0
 40
239.0
 40
239.0
 40
239.0
 40
240.0
 40
240.0
 40
240.0
 40
241.0
 40
241.0
 40
241.0
 40
242.0
 40
242.0
 40
242.0
 40
243.0
 40
243.0
 40
243.0
 40
244.0
 40
244.0
 40
244.0
 40
245.0
 40
245.0
 40
245.0
 40
246.0
 40
246.0
 40
246.0
 40
247.0
 40
247.0
 40
247.0
 40
248.0
 40
248.0
 40
248.0
 40
248.0
 10
60.89000733545539
 20
-5.64874833192119
 10
60.7470265057698
 20
-5.96741249850817
 10
60.46279345746563
 20
-6.133994165133247
 10
60.18028902022847
 20
-6.297824165092234
 10
59.82271347379543
 20
-6.504869442818335
 10
59.44305554069479
 20
-6.664713053889387
 10
59.05168238235496
 20
-6.798909720522508
 10
58.99587293933433
 20
-6.818347776073058
 10
58.92835276304543
 20
-6.819899998295144
 10
58.87737488680192
 20
-6.88604583161194
 10
59.16263099063553
 20
-6.95875333159356
 10
59.4471815389316
 20
-6.974416664923217
 10
59.72831014287053
 20
-7.011458331580469
 10
59.77586458610175
 20
-7.017667220467851
 10
59.84649069541104
 20
-6.994736664917848
 10
59.86197763946038
 20
-7.058659998235198
 10
59.87852291681606
 20
-7.126851942662883
 10
59.80789680750676
 20
-7.153239720433857
 10
59.76207097534255
 20
-7.181461942648998
 10
59.5918909796842
 20
-7.286378053734014
 10
59.39966387403912
 20
-7.319433331503332
 10
59.20535237843451
 20
-7.338236387054359
 10
59.10886765867382
 20
-7.347514442607432
 10
59.01001932786232
 20
-7.353370553717054
 10
58.91388887416042
 20
-7.345468331496865
 10
58.68927378048966
 20
-7.3271944426128
 10
58.48738054093345
 20
-7.358909164827073
 10
58.30650990136589
 20
-7.513566942566188
 10
58.08429518481285
 20
-7.703043886963106
 10
57.89827546733638
 20
-7.913546386910499
 10
57.79078408118982
 20
-8.1874430535086
 10
57.75635297095712
 20
-8.274438053486993
 10
57.78870269235404
 20
-8.339525553470825
 10
57.85484998553615
 20
-8.399991664566562
 10
58.08224907375393
 20
-8.60894194229219
 10
58.38644934377091
 20
-8.643055553394792
 10
58.65893489237478
 20
-8.49749944232019
 10
59.03069210511269
 20
-8.298709164592038
 10
59.42859165180978
 20
-8.251013609048508
 10
59.84165763997879
 20
-8.320934164586518
 10
59.9963506915878
 20
-8.346933886802212
 10
60.11830596625424
 20
-8.428072775670662
 10
60.19891568641994
 20
-8.56435083119219
 10
60.24714040741184
 20
-8.645807220060883
 10
60.24368318527782
 20
-8.709377775600469
 10
60.12691374381241
 20
-8.71212944226656
 10
59.72453542074461
 20
-8.722289442263715
 10
59.38862042931451
 20
-8.92143249776963
 10
59.02928099403758
 20
-9.071609997732006
 10
58.08189629598515
 20
-9.467814719855426
 10
57.14174354219267
 20
-9.93238777529477
 10
56.07787162488986
 20
-9.88518610863972
 10
55.60659720832057
 20
-9.864336941978445
 10
55.34857414349579
 20
-10.11858388635928
 10
55.11189553842285
 20
-10.44638499738829
 10
54.76462110283812
 20
-10.92834999726794
 10
54.52931833106341
 20
-11.47028721935452
 10
54.30332889238444
 20
-12.01511721921855
 10
53.85614779268187
 20
-13.09496999672625
 10
53.52301974562512
 20
-14.21532166311283
 10
53.13923281097189
 20
-15.31775221839277
 10
52.76645254270453
 20
-16.38762138479188
 10
52.3930019966765
 20
-17.45872527341316
 10
51.88658950959616
 20
-18.47536027315904
 10
51.6784859037942
 20
-18.8918849952771
 10
51.41665554270125
 20
-19.27083888407125
 10
51.12660036231843
 20
-19.63582277286888
 10
50.80962953707169
 20
-20.03477916165807
 10
50.5757378763721
 20
-20.49194388376603
 10
50.30561593881904
 20
-20.92360277254677
 10
49.27554013176513
 20
-22.5681469388025
 10
48.25890515770165
 20
-24.22126360505578
 10
47.19506851817572
 20
-25.84425304909439
 10
46.80023963935975
 20
-26.44746777116575
 10
46.37235548360932
 20
-27.02902193768712
 10
46.07538715785228
 20
-27.69115054863277
 10
46.06575632476465
 20
-27.71182332640548
 10
46.05541993613946
 20
-27.73249610417787
 10
46.04543632528306
 20
-27.75281610417283
 10
45.9038313288957
 20
-28.04805582632132
 10
45.85077355247154
 20
-28.33038388180626
 10
45.90107966229923
 20
-28.68178582616295
 10
46.11398104575655
 20
-30.18144415912144
 10
45.77566716549877
 20
-31.53399415878325
 10
44.73835941418492
 20
-32.69293971404884
 10
43.67794471901613
 20
-33.87735582486412
 10
42.53692030368164
 20
-34.97322471347893
 10
41.30050477966967
 20
-35.97042165767394
 10
41.26536811389942
 20
-35.99850276877804
 10
41.20814755980368
 20
-36.01864637988411
 10
41.21058172640825
 20
-36.06704749098316
 10
41.21435644853417
 20
-36.12698443541257
 10
41.2798320024193
 20
-36.11615415763774
 10
41.32047200138249
 20
-36.12476193541313
 10
42.51384863760358
 20
-36.37967915757164
 10
43.71551665573767
 20
-36.57744637974467
 10
44.9399013534876
 20
-36.58898221307503
 10
45.35261606518059
 20
-36.59310971307401
 10
45.76395494357535
 20
-36.55797304641596
 10
46.16495743334492
 20
-36.45273943533135
 10
46.29174576344362
 20
-36.41964887978386
 10
46.36822798371462
 20
-36.44808276866573
 10
46.39577992745615
 20
-36.57434193530082
 10
46.4412529818516
 20
-36.78449165747045
 10
46.566666655025
 20
-36.84220610190042
 10
46.77716797328169
 20
-36.84393471301139
 10
47.1712912965601
 20
-36.84700387967708
 10
47.56506184206973
 20
-36.88940776855546
 10
47.95918516534814
 20
-36.90919860188378
 10
48.11144405035258
 20
-36.91678332410405
 10
48.17967127083418
 20
-36.961233324093
 10
48.16037432688204
 20
-37.13642276849379
 10
48.09422849523623
 20
-37.75015026834039
 10
48.05838627392842
 20
-38.36595915707507
 10
47.89508544476124
 20
-38.96765693470251
 10
47.80276350267212
 20
-39.30819332350621
 10
47.63879239574426
 20
-39.58759332343649
 10
47.38038268011462
 20
-39.81926249004508
 10
47.00971907845993
 20
-40.15087360107346
 10
46.65934019850995
 20
-40.50467443431818
 10
46.25177604224111
 20
-40.79405804535673
 10
45.96860132724328
 20
-40.99457693419553
 10
45.67646605691849
 20
-41.16958998970743
 10
45.33882245442138
 20
-41.25605582301918
 10
45.20723634666732
 20
-41.28981665634402
 10
45.12179357106937
 20
-41.35183498966217
 10
45.0680666553998
 20
-41.48585526740641
 10
44.95711690860395
 20
-41.76215082289283
 10
44.73800663641614
 20
-41.96263443395348
 10
44.53717025265102
 20
-42.17348971167863
 10
44.46791997663996
 20
-42.24651471166049
 10
44.37143525687927
 20
-42.27131498943186
 10
44.2701527594632
 20
-42.27374915609803
 10
43.97734721137773
 20
-42.27960526720797
 10
43.69000971870832
 20
-42.33506193386065
 10
43.40337778157647
 20
-42.38847248940308
 10
43.11709862221339
 20
-42.44149498938959
 10
42.82252918528404
 20
-42.49317693382137
 10
42.57346808052701
 20
-42.65305582267027
 10
41.92887254141645
 20
-43.06577054478895
 10
41.24536665635507
 20
-43.13054054477286
 10
40.51363396641108
 20
-42.95242304481742
 10
40.16981675296037
 20
-42.86870887817144
 10
39.81185315098168
 20
-42.86010110039637
 10
39.45614732672315
 20
-42.85149332262066
 10
39.29115316426584
 20
-42.84803610039937
 10
39.22811177698527
 20
-42.91143026704975
 10
39.22483094373564
 20
-43.06749915589959
 10
39.22225566602356
 20
-43.18910165586971
 10
39.1796753893321
 20
-43.30276665584083
 10
39.13765955707068
 20
-43.41579665581276
 10
39.09063428049262
 20
-43.54152665578153
 10
39.02466483773119
 20
-43.55909498911007
 10
38.92511095138213
 20
-43.46296304468997
 10
38.61537207039534
 20
-43.1643013780977
 10
38.28171485668542
 20
-42.89488498927633
 10
37.92551514355061
 20
-42.65372610044763
 10
37.83058264597254
 20
-42.58966165601924
 10
37.73018209297842
 20
-42.53452248936616
 10
37.63302709545705
 20
-42.47423276715931
 10
37.52345432047471
 20
-42.40635832273186
 10
37.48556598810799
 20
-42.4456577671664
 10
37.47177237734878
 20
-42.56486137824787
 10
37.39116265718308
 20
-43.2652311002951
 10
37.24973404968011
 20
-43.9542413779002
 10
37.0828348872714
 20
-44.63880665550706
 10
36.82065044951584
 20
-45.7129797107937
 10
36.48029045819914
 20
-46.76302276608698
 10
36.10631074551794
 20
-47.80347026582695
 10
35.85897825182791
 20
-48.49177498787718
 10
35.77886242053851
 20
-49.20424498769893
 10
35.84620769659816
 20
-49.93251943196105
 10
35.85326325197371
 20
-50.0103774874971
 10
35.83569491908859
 20
-50.0792749874803
 10
35.81332880854809
 20
-50.15025387635128
 10
35.63263603538017
 20
-50.72284748731948
 10
35.41557187425126
 20
-51.28852665384447
 10
35.33185770972032
 20
-51.88521498702853
 10
35.28465604425787
 20
-52.22215304250022
 10
35.16562971343081
 20
-52.5190860979812
 10
35.02024999124509
 20
-52.82021720901716
 10
34.84474304684439
 20
-53.18470720892599
 10
34.84266165795598
 20
-53.58362831993765
 10
34.86488665795046
 20
-53.98187915317132
 10
34.90365693571867
 20
-54.67847415299701
 10
34.93533638015511
 20
-55.37542193060047
 10
34.97273082459012
 20
-56.07169943042656
 10
35.02077915791141
 20
-56.96260443020399
 10
35.07020332456591
 20
-57.85347415220326
 10
35.12153249121962
 20
-58.7443791519807
 10
35.1579038800995
 20
-59.37278220737934
 10
35.194592768979
 20
-60.00047970722183
 10
35.23745526896835
 20
-60.62817720706496
 10
35.31153771023873
 20
-61.71268665123861
 10
35.38801993050973
 20
-62.79684331763384
 10
35.46795937291475
 20
-63.88068248403012
 10
35.52789721334019
 20
-64.69648109493728
 10
35.59421943554587
 20
-65.51227970584445
 10
35.72150075533526
 20
-66.32151665008615
 10
35.80694443549271
 20
-66.86310109439529
 10
35.92872241671526
 20
-67.39914692759473
 10
35.99899574825577
 20
-67.94418859412517
 10
36.17108074386552
 20
-69.28156914934611
 10
36.19365852106729
 20
-70.60998914901423
 10
35.92304269463794
 20
-71.9422191486814
 10
35.72806242183452
 20
-72.90029303733074
 10
35.61644443554034
 20
-73.87455942597576
 10
35.52599131587868
 20
-74.84917859239853
 10
35.51360881619458
 20
-74.98076470347723
 10
35.46587798407896
 20
-75.03488081457455
 10
35.33376270967172
 20
-75.05587109234686
 10
35.07263749123176
 20
-75.09859248122518
 10
34.81235804685243
 20
-75.12512137010783
 10
34.54759832469636
 20
-75.11753664788725
 10
34.41685888028453
 20
-75.11411470344348
 10
34.33811888030441
 20
-75.07001748123227
 10
34.30418165809069
 20
-74.93186970348938
 10
34.03702304704629
 20
-73.84182164820604
 10
33.75589443600536
 20
-72.75628914847792
 10
33.50147110273566
 20
-71.6634894265288
 10
33.30546776945143
 20
-70.82151470451674
 10
32.9296183251008
 20
-70.0725674824819
 10
32.29207832526044
 20
-69.47034053818814
 10
32.08916054753332
 20
-69.27881748268034
 10
31.85660943648032
 20
-69.13618942716039
 10
31.59202610321314
 20
-69.04764220496023
 10
31.32021082550312
 20
-68.9584247049827
 10
31.20153638108862
 20
-68.76273887169809
 10
31.25081943663175
 20
-68.47229692732625
 10
31.29749193662016
 20
-68.19875303850559
 10
31.43630999214106
 20
-67.97071748300718
 10
31.60324443654358
 20
-67.75608748306112
 10
31.80460999204894
 20
-67.4963019275706
 10
32.03783138087929
 20
-67.26653776096089
 10
32.29913388081407
 20
-67.07152220545427
 10
32.51549249187109
 20
-66.91065553882778
 10
32.63021582517582
 20
-66.69740137221461
 10
32.70962610293362
 20
-66.45521942783078
 10
32.89963221399718
 20
-65.8736652613091
 10
32.92460888065775
 20
-65.27422526145928
 10
32.86844665844955
 20
-64.67203359494304
 10
32.73890665848204
 20
-63.27605665084772
 10
32.24455915860547
 20
-61.9917338733908
 10
31.63527665875777
 20
-60.74667526259091
 10
31.05340499223681
 20
-59.55707331844432
 10
30.59246554790732
 20
-58.3289127631956
 10
30.39780277017846
 20
-57.01358081908025
 10
30.25774999243572
 20
-56.06961804153816
 10
30.25016527021513
 20
-55.12427943066317
 10
30.36644082574163
 20
-54.17446054201177
 10
30.50201332570795
 20
-53.06515082006675
 10
30.72973138120645
 20
-51.97340943145092
 10
30.94316193670881
 20
-50.87888109839116
 10
31.05530999223634
 20
-50.3018424874247
 10
31.04497360334998
 20
-49.71616082090436
 10
31.02221943668885
 20
-49.13224304327219
 10
30.99156304780755
 20
-48.35535582124429
 10
30.94383221448618
 20
-47.57815109921678
 10
30.8182786034066
 20
-46.80884859940883
 10
30.70235582565787
 20
-46.09743693292036
 10
30.58590388124249
 20
-45.38637804420902
 10
30.50130777015243
 20
-44.67013332216573
 10
30.43449165905795
 20
-44.1020552667521
 10
30.38436193684825
 20
-43.5322133224503
 10
30.35113027019005
 20
-42.96103082259313
 10
30.30597471464557
 20
-42.17796998945568
 10
30.30943193686718
 20
-41.3934980452072
 10
30.303928603535
 20
-40.60941415651463
 10
30.29891915909194
 20
-39.91264276779973
 10
30.19746027022854
 20
-39.22980610130353
 10
29.96423888139786
 20
-38.56989999035765
 10
29.93358249251656
 20
-38.48276387926821
 10
29.89756388141443
 20
-38.402471657066
 10
29.82711415920977
 20
-38.33667860152697
 10
29.48036888151869
 20
-38.01215832383037
 10
29.1351758260497
 20
-37.68538026835648
 10
28.79238165946871
 20
-37.3567324906609
 10
28.72450721504095
 20
-37.29178610178811
 10
28.64802499283811
 20
-37.24578387957738
 10
28.56501638174765
 20
-37.20616693514292
 10
28.26561388182234
 20
-37.06251582406784
 10
27.95541638190003
 20
-36.93142360187826
 10
27.68928082641108
 20
-36.7348911019274
 10
27.39333554870738
 20
-36.51627471309309
 10
27.0758708265644
 20
-36.51369943531588
 10
26.74203721553657
 20
-36.55211693530634
 10
26.22715804899864
 20
-36.61138360195839
 10
25.73125832690063
 20
-36.7486494352572
 10
25.25186860479819
 20
-36.94278304631974
 10
25.13058360482832
 20
-36.99206610186319
 10
25.03826166040695
 20
-36.97259276853448
 10
24.93320443821121
 20
-36.90316610188528
 10
24.32529777169639
 20
-36.50078776865264
 10
23.82886888293174
 20
-36.00467637988758
 10
23.50865249412299
 20
-35.33566860227718
 10
23.31088527194996
 20
-34.92207193571378
 10
23.02806332757623
 20
-34.55722915802752
 10
22.74315999431409
 20
-34.19757221367286
 10
22.70057971654714
 20
-34.14380888035299
 10
22.65736443878002
 20
-34.09025721369952
 10
22.61824138323436
 20
-34.033565824825
 10
22.51575943881551
 20
-33.88561082486207
 10
22.53420971658878
 20
-33.83050693598683
 10
22.70026221654721
 20
-33.76813582489125
 10
22.8464886053995
 20
-33.7137022137937
 10
23.00153443869421
 20
-33.70181360268557
 10
23.15312304976732
 20
-33.67323860269267
 10
23.23062832752559
 20
-33.6589158249187
 10
23.30866277195051
 20
-33.64547499158849
 10
23.42201027192236
 20
-33.62466110270505
 10
22.95606138314981
 20
-33.37503554721168
 10
22.61912332767844
 20
-33.03502832507462
 10
22.35693888329958
 20
-32.61659860295705
 10
22.10233916114099
 20
-32.21093943639167
 10
22.002961661166
 20
-31.75070554761803
 10
21.88047721675212
 20
-31.29802110328648
 10
21.85483027231419
 20
-31.20411165886551
 10
21.89374166119313
 20
-31.16897499220778
 10
21.9869455500589
 20
-31.18361526998199
 10
22.13835777224312
 20
-31.20739249219824
 10
22.29012277220511
 20
-31.23014665885904
 10
22.4950866610428
 20
-31.26164971440691
 10
22.31820388330921
 20
-31.06236554778996
 10
22.18383082778752
 20
-30.88788165894469
 10
22.02553943893792
 20
-30.73886832564848
 10
21.87515027230914
 20
-30.59726332568397
 10
21.82897166120953
 20
-30.44242915905598
 10
21.91099249452239
 20
-30.26223027021213
 10
22.01432110560748
 20
-30.0348649924914
 10
21.93819166118208
 20
-29.85812332586885
 10
21.81623638343485
 20
-29.66106165925134
 10
21.35942443910465
 20
-28.92089860388077
 10
20.91965166143668
 20
-28.1700463818464
 10
20.47162388377107
 20
-27.42434471536613
 10
20.21600110605704
 20
-26.99885943769461
 10
20.14967888385136
 20
-26.52550221559099
 10
20.10903888386177
 20
-26.04318443793358
 10
20.02514832832691
 20
-25.05565360484725
 10
20.0378836061016
 20
-24.06519471620594
 10
20.00186499499947
 20
-23.0762880497864
 10
19.95106499501209
 20
-21.68136943902405
 10
19.89871277280326
 20
-20.28662721715057
 10
19.80759027282589
 20
-18.89343721749886
 10
19.7419383283979
 20
-17.89433527330432
 10
19.68888055063323
 20
-16.89473944022066
 10
19.55591860622227
 20
-15.90188166269135
 10
19.49598166179254
 20
-15.45417138502534
 10
19.37265055071242
 20
-15.01683277402354
 10
19.33627916183253
 20
-14.56464221858112
 10
19.27598943962535
 20
-13.81604777432372
 10
19.27581305073647
 20
-13.06759444117768
 10
19.30340027295209
 20
-12.31776527469843
 10
19.3238966618356
 20
-11.7569191637273
 10
19.38436277293166
 20
-11.19967138608883
 10
19.43276388403071
 20
-10.64122416400635
 10
19.49287721734901
 20
-9.94632249751346
 10
19.75555555061667
 20
-9.311393053227826
 10
19.99533860611217
 20
-8.667679442277601
 10
20.25078499493732
 20
-7.981244442449062
 10
20.49540110598732
 20
-7.290329164844108
 10
20.68607749482856
 20
-6.582374720576612
 10
20.70985471704481
 20
-6.494709442820858
 10
20.74326277259188
 20
-6.43646583172425
 10
20.84352221701128
 20
-6.434560831724723
 10
21.12980138360631
 20
-6.428881109503983
 10
21.41505749464621
 20
-6.426834998393415
 10
21.69911416124179
 20
-6.477141109491675
 10
21.83828499454044
 20
-6.501764998374483
 10
21.89684610563697
 20
-6.566852498358317
 10
21.91374416118816
 20
-6.713819720543643
 10
22.04448360559999
 20
-7.850152220259793
 10
22.17038999445732
 20
-8.987578331086425
 10
22.3269880499738
 20
-10.1204888863588
 10
22.41705221661788
 20
-10.76935305286313
 10
22.60808138323688
 20
-11.39535721937345
 10
22.9713719387017
 20
-11.95274610812296
 10
23.12761721644042
 20
-12.19252916361846
 10
23.33155804972267
 20
-12.38786221912532
 10
23.61406249409649
 20
-12.46935388577153
 10
23.84488499403883
 20
-12.53585249686609
 10
23.92394249401887
 20
-12.70931333015591
 10
23.95703304956636
 20
-12.91392444121585
 10
24.03968888287905
 20
-13.42139527442238
 10
23.88019804958544
 20
-13.86099166320148
 10
23.56171027188734
 20
-14.2523633297704
 10
23.3322636052782
 20
-14.53433860747757
 10
23.05561527201401
 20
-14.76188027408718
 10
22.76467943875337
 20
-14.97770971847788
 10
22.50009610548618
 20
-15.1741011073177
 10
22.40156527217742
 20
-15.46778860724411
 10
22.3550691610779
 20
-15.78232527383212
 10
22.27237804998736
 20
-16.34112527369236
 10
22.39189916106875
 20
-16.87477221800347
 10
22.55297749436165
 20
-17.40340971787153
 10
22.82892027207063
 20
-18.30913138431173
 10
23.29074166084389
 20
-19.12630582855178
 10
23.75460916072803
 20
-19.94348027279182
 10
24.07725971620295
 20
-20.51226388376098
 10
24.34974527169032
 20
-21.10415443916838
 10
24.54751249386303
 20
-21.72906499456758
 10
24.84740888267714
 20
-22.67683777210873
 10
24.77558332713928
 20
-23.61508554965193
 10
24.48447110499008
 20
-24.54871193830735
 10
24.44019749389
 20
-24.69081082716066
 10
24.39627666056769
 20
-24.83312138268069
 10
24.35373166057826
 20
-24.97574943820064
 10
24.31478499392115
 20
-25.10631249372327
 10
24.50496749387392
 20
-25.37364749365655
 10
24.63810582717375
 20
-25.37657554921152
 10
24.6952911049374
 20
-25.3779513825444
 10
24.71183638271082
 20
-25.32884471589015
 10
24.73459054937194
 20
-25.29095638256601
 10
25.03378138263053
 20
-24.79212860491302
 10
25.39068666031909
 20
-24.34064360502581
 10
25.81342027132452
 20
-23.94031138290373
 10
26.06801999348311
 20
-23.69897610518647
 10
26.34844304896852
 20
-23.49295388301549
 10
26.64004916000652
 20
-23.30023138306368
 10
26.74962193775715
 20
-23.22752388308206
 10
26.79146138219106
 20
-23.29384610528774
 10
26.84296693773365
 20
-23.36789416082473
 10
27.30118999317457
 20
-24.02504860510484
 10
27.76435193750351
 20
-24.67895749383038
 10
28.21566054850152
 20
-25.34073332699827
 10
28.31112221514459
 20
-25.48113888251845
 10
28.37088277068512
 20
-25.48198554918502
 10
28.48317193732368
 20
-25.36623916032516
 10
28.59016943729679
 20
-25.25634888257493
 10
28.72418971504102
 20
-25.17312860481775
 10
28.83803110390167
 20
-25.0694472159549
 10
28.92400304832462
 20
-24.99070721597446
 10
28.97272165942359
 20
-24.99811554930616
 10
29.03664499274095
 20
-25.097528327059
 10
29.42060832597816
 20
-25.69456943802082
 10
29.8169541592123
 20
-26.2829674934294
 10
30.19559054800654
 20
-26.88328943772363
 10
30.86392804783957
 20
-27.94352777079191
 10
31.54087332544799
 20
-28.99907415941705
 10
32.11413721419356
 20
-30.11529832580465
 10
32.16324388084814
 20
-30.21143027022507
 10
32.22868415860942
 20
-30.24226304799494
 10
32.33257721413899
 20
-30.24000527021765
 10
33.75850499156041
 20
-30.21005443689187
 10
35.16375999120913
 20
-30.35543415907791
 10
36.5514457341616
 20
-30.70097999232467
 10
36.950190446211
 20
-30.80053388118886
 10
37.33672904746069
 20
-30.65843499233555
 10
37.65680431707266
 20
-30.39469832573461
 10
37.84300042343352
 20
-30.24071082577318
 10
37.87019958940628
 20
-30.02745665915969
 10
37.81216764644235
 20
-29.79818638143943
 10
37.54998320868678
 20
-28.76620554836414
 10
37.32466404776849
 20
-27.72596971529089
 10
37.16277432967642
 20
-26.67331610444288
 10
37.05147294362706
 20
-25.94913388240157
 10
36.96140877925813
 20
-25.22258804924977
 10
36.98172877873972
 20
-24.48704638276697
 10
36.98448044533618
 20
-24.40093332723298
 10
36.99033655629789
 20
-24.31633721614324
 10
36.89508655872793
 20
-24.26327943837857
 10
36.75312878457179
 20
-24.18369277173188
 10
36.66546350903054
 20
-24.20662332728157
 10
36.61910851021315
 20
-24.36286860502029
 10
36.56022990060416
 20
-24.56215277163724
 10
36.48304212479561
 20
-24.75007749381239
 10
36.36574443535295
 20
-24.92300916043589
 10
36.23722657551133
 20
-25.11234499372177
 10
36.07823054653608
 20
-25.26478027146144
 10
35.86793880715487
 20
-25.35692582699425
 10
35.77783936500905
 20
-25.39654277142871
 10
35.7261583244017
 20
-25.45443360474756
 10
35.69412520047811
 20
-25.55141221583422
 10
35.60247353614967
 20
-25.83183527131995
 10
35.42918909612608
 20
-26.06353971570638
 10
35.18958332453594
 20
-26.22906304899817
 10
34.84110943573421
 20
-26.46986916004911
 10
34.47146888027097
 20
-26.68072443777427
 10
34.07060749148225
 20
-26.82229415996093
 10
33.46153665830127
 20
-27.03762971546282
 10
32.89843276955317
 20
-26.88604110438972
 10
32.36288082524253
 20
-26.57372693780117
 10
32.08210499197937
 20
-26.40975582673082
 10
31.84817804759349
 20
-26.1921977712298
 10
31.65062249208751
 20
-25.93622221573832
 10
31.33986054772071
 20
-25.53264443806136
 10
31.2458099921887
 20
-25.09562332705947
 10
31.4761033254644
 20
-24.62053749384489
 10
31.52055332545304
 20
-24.52892110497904
 10
31.48972054768317
 20
-24.45603721610822
 10
31.4582174921353
 20
-24.37595666057273
 10
31.20982665886409
 20
-23.7461777718412
 10
31.01481110335747
 20
-23.10126471644697
 10
30.89356138116543
 20
-22.43395027216938
 10
30.72387527009683
 20
-21.50014749462508
 10
30.8454777700663
 20
-20.59961166151681
 10
31.18534388109264
 20
-19.72161832840295
 10
31.22686582552663
 20
-19.61483249509624
 10
31.262531658851
 20
-19.50596527290113
 10
31.30299526995202
 20
-19.39914416181691
 10
31.4761033254644
 20
-18.9437080508196
 10
31.80718526982583
 20
-18.68480443977315
 10
32.28879749192771
 20
-18.63209943978656
 10
32.46278749188417
 20
-18.61297888423562
 10
32.59663138073985
 20
-18.56182610647079
 10
32.71530582515436
 20
-18.42194971761661
 10
33.26412221390633
 20
-17.77463777333405
 10
33.97034804706285
 20
-17.4302913845313
 10
34.81733221351796
 20
-17.49696638451474
 10
35.48775020574318
 20
-17.54998888450125
 10
35.89841880637726
 20
-17.23252416235859
 10
36.22533887983245
 20
-16.71697471804299
 10
36.28993157416672
 20
-16.61516305140182
 10
36.3523026836866
 20
-16.51218721809417
 10
36.44204934806364
 20
-16.42998999589244
 10
36.59967045515351
 20
-16.2859861070396
 10
36.79620295013954
 20
-16.2799536070411
 10
36.92591933571909
 20
-16.44480666255553
 10
37.13691665738259
 20
-16.71355277359953
 10
37.38530654622137
 20
-16.8318744402366
 10
37.7206923709983
 20
-16.71817416248699
 10
37.825255701664
 20
-16.68254360694046
 10
37.86660125616474
 20
-16.76452916247548
 10
37.90964014395561
 20
-16.82739416245986
 10
37.96806110161917
 20
-16.91266055132728
 10
38.03177180750644
 20
-16.95090166242886
 10
38.13961597142178
 20
-16.92091555132524
 10
38.27483569019426
 20
-16.88390916244582
 10
38.37421318765892
 20
-16.94712694020765
 10
38.43640790829443
 20
-17.06664805128904
 10
38.49376957349768
 20
-17.17671471792815
 10
38.54957901651831
 20
-17.20447832903233
 10
38.67463873554999
 20
-17.1338522179388
 10
39.06929122548156
 20
-16.91199027354993
 10
39.34918610127387
 20
-17.03204055129763
 10
39.49802204787706
 20
-17.4644049956339
 10
39.60791232285131
 20
-17.78391582888745
 10
39.6058662117924
 20
-18.11774943991496
 10
39.62805593344851
 20
-18.44812582872119
 10
39.6623459325737
 20
-18.95697249526061
 10
39.79844759576812
 20
-19.43826721736257
 10
40.00686870156197
 20
-19.90181721724679
 10
40.05975008910174
 20
-20.01876305055097
 10
40.11005619892943
 20
-20.04201110610057
 10
40.19634564117246
 20
-19.93264999501698
 10
40.64663118524027
 20
-19.3619613840483
 10
41.10996950675285
 20
-18.80125638418853
 10
41.50719727439651
 20
-18.19095082878571
 10
41.62227338257178
 20
-18.01442082882987
 10
41.6567055451415
 20
-17.80804582888145
 10
41.72701310212187
 20
-17.61511166226292
 10
42.14731253584359
 20
-16.45912944032982
 10
42.70745307710877
 20
-15.37165666282369
 10
43.34548694972005
 20
-14.32298944086361
 10
43.92566526825181
 20
-13.36921944110212
 10
44.53611191934468
 20
-12.43541666355781
 10
45.24512467903403
 20
-11.57086416377384
 10
45.54209300479108
 20
-11.20810277497566
 10
45.8459416552053
 20
-10.85031555284302
 10
46.15910132238321
 20
-10.50134777515249
 10
46.50464714690094
 20
-10.11636138635983
 10
46.94943054381789
 20
-9.863490275311882
 10
47.39382351310505
 20
-9.612488886485623
 10
48.03221016348512
 20
-9.251632497686971
 10
48.70538070186667
 20
-8.96087305331521
 10
49.359961098771
 20
-8.63134333117555
 10
49.42677596124011
 20
-8.59775888673959
 10
49.50050651491465
 20
-8.56435083119219
 10
49.57353151305163
 20
-8.576733331189114
 10
49.88877498752762
 20
-8.630990553397789
 10
50.19022233065186
 20
-8.55055722008454
 10
50.48923676746782
 20
-8.479931108991007
 10
50.94054536706508
 20
-8.373145275684626
 10
51.40977507731626
 20
-8.360727497909862
 10
51.85074728828834
 20
-8.205716942392986
 10
51.89346867608732
 20
-8.190723886841333
 10
51.94239895261678
 20
-8.174178609067592
 10
51.97340811849234
 20
-8.22653083127674
 10
52.00096006223387
 20
-8.27337972015403
 10
51.97545554256181
 20
-8.31610110903202
 10
51.94892534133917
 20
-8.353495553467035
 10
51.8597078436153
 20
-8.479225553435805
 10
51.73327229128538
 20
-8.554155553416873
 10
51.59720590586783
 20
-8.619278331178547
 10
51.36913507835307
 20
-8.727969164484776
 10
51.11555841815569
 20
-8.76000138669897
 10
50.85891387617397
 20
-8.85990805334061
 10
51.18586702747307
 20
-9.015130275523884
 10
51.51589063016458
 20
-9.016153331079328
 10
51.84178673296139
 20
-9.03615583107436
 10
51.98924784031045
 20
-9.045081108849992
 10
52.13875505871843
 20
-9.030969997742101
 10
52.28759199936573
 20
-9.028041942187452
 10
52.35409060878032
 20
-9.026489719965685
 10
52.4370992177737
 20
-8.986202497753542
 10
52.48190199440847
 20
-9.049737775515288
 10
52.5356300485933
 20
-9.126572775496204
 10
52.4370992177737
 20
-9.17878388659431
 10
52.41332199615809
 20
-9.261263331018126
 10
52.54148615955501
 20
-9.263168331017653
 10
52.66104254539377
 20
-9.248175275465679
 10
52.78091643122442
 20
-9.219776664361657
 10
52.82744781892619
 20
-9.208734719920098
 10
52.88911337290853
 20
-9.164990275486662
 10
52.92425003867879
 20
-9.215296386584921
 10
52.96249114881428
 20
-9.27057666434904
 10
52.9056586502642
 20
-9.322082219891623
 10
52.87464948438864
 20
-9.367378886547145
 10
52.78814837548436
 20
-9.49434360873744
 10
52.66587560082602
 20
-9.579962775382947
 10
52.52599921550568
 20
-9.63626610870219
 10
52.3685544973002
 20
-9.699836664241777
 10
52.20662950143125
 20
-9.752894442006125
 10
52.01888117288778
 20
-9.82041610865613
 10
52.19802172387308
 20
-9.95217860862308
 10
52.35786665357694
 20
-10.07536860859216
 10
52.55079949265075
 20
-10.14994583079579
 10
52.59387498685123
 20
-10.16698499745833
 10
52.66449976752779
 20
-10.16596194190289
 10
52.65793810102852
 20
-10.23881055299587
 10
52.65278887572584
 20
-10.29430249742638
 10
52.60452754683558
 20
-10.32562916408538
 10
52.55940727020892
 20
-10.35042944185675
 10
52.4191781071198
 20
-10.42744083072654
 10
52.26967220915454
 20
-10.4169280529513
 10
52.12566700349678
 20
-10.3716313862961
 10
51.85349895488481
 20
-10.28636499742836
 10
51.57480451755045
 20
-10.21090583078065
 10
51.34260619014099
 20
-10.03247083082529
 10
51.25889202561005
 20
-9.967877219730257
 10
51.17069758341563
 20
-9.962197497509516
 10
51.06835675269323
 20
-9.979413053060618
 10
50.62431665401073
 20
-10.0534611085976
 10
50.19643121938235
 20
-10.17097138634626
 10
49.81193872919157
 20
-10.41417638628521
 10
49.68931317676445
 20
-10.49150527515493
 10
49.58492623498314
 20
-10.58696694179767
 10
49.52393095876148
 20
-10.72356249731912
 10
49.47224901563555
 20
-10.84068471951218
 10
49.50050651491465
 20
-10.92559833060185
 10
49.61695845638815
 20
-10.97505777503386
 10
49.76579539703545
 20
-11.03859305279593
 10
49.91943011533812
 20
-11.08082055278544
 10
50.08410677780354
 20
-11.05460916390303
 10
50.4107084361379
 20
-11.00278610836052
 10
50.67666759601939
 20
-11.135254163883
 10
50.9219539786505
 20
-11.32952888605657
 10
50.97226008847819
 20
-11.36932221937992
 10
51.00602220947098
 20
-11.42340305269971
 10
51.02323647606657
 20
-11.48595055268417
 10
51.04013453119102
 20
-11.54708694155759
 10
51.05699730853859
 20
-11.61376194154103
 10
51.01533425404595
 20
-11.66748999708306
 10
50.97017869964241
 20
-11.72658027484623
 10
50.90953620118952
 20
-11.68128360819071
 10
50.85651370254224
 20
-11.67059444152691
 10
50.37211454823363
 20
-11.56931194155207
 10
49.88291761626964
 20
-11.55107333044553
 10
49.39026346217162
 20
-11.58638638599245
 10
48.88385097509128
 20
-11.62272249709418
 10
48.382906543427
 20
-11.57086416377384
 10
47.88785350050129
 20
-11.4757905526867
 10
47.26188462758221
 20
-11.35538749716123
 10
47.05173609934818
 20
-11.48595055268417
 10
46.72030019695473
 20
-12.0013236081109
 10
46.68311742012556
 20
-12.05886166365199
 10
46.65108519872055
 20
-12.12003333030324
 10
46.61834742177798
 20
-12.18046416362146
 10
46.36410048381992
 20
-12.64641305239401
 10
46.21903826529854
 20
-13.15388388560055
 10
46.06300465816818
 20
-13.65634527436371
 10
45.74846799952601
 20
-14.66715944077781
 10
45.54279856032863
 20
-15.70859471829506
 10
45.20240329123506
 20
-16.71200055137745
 10
44.87442579960246
 20
-17.67815305113587
 10
44.50718414230492
 20
-18.62331527312197
 10
43.95113582315756
 20
-19.49114860623836
 10
43.69688888519949
 20
-19.88819999502802
 10
43.53291777827163
 20
-20.34261305046989
 10
43.324143894709
 20
-20.76926249480758
 10
42.98378390339231
 20
-21.46345860574526
 10
42.61308610045772
 20
-22.14110943890921
 10
42.24305642228985
 20
-22.8196069387394
 10
42.18484809044153
 20
-22.92692193871274
 10
42.19105697917202
 20
-23.00065249424981
 10
42.27131392156894
 20
-23.09350360533782
 10
42.56069752529726
 20
-23.42596138303245
 10
42.84355474030319
 20
-23.76374610517006
 10
43.12500084423402
 20
-24.10308304952976
 10
43.20081387808895
 20
-24.19508749395121
 10
43.25454084092917
 20
-24.22091082727802
 10
43.35377722728633
 20
-24.12047499396974
 10
44.96124440849865
 20
-22.4959686054872
 10
46.53361020171759
 20
-20.84059416145663
 10
47.89716683359703
 20
-19.00057582858333
 10
48.41186959824364
 20
-18.305850550979
 10
48.91793054332638
 20
-17.59962471782247
 10
49.21937791097572
 20
-16.78001610691625
 10
49.44540262743158
 20
-16.16491277373645
 10
49.71411345390953
 20
-15.57390416277313
 10
50.04932288980206
 20
-15.0116469406916
 10
50.36385954844423
 20
-14.48420888526787
 10
50.74831676085813
 20
-14.0063713853872
 10
51.09626147420354
 20
-13.50235777440227
 10
51.82869998704257
 20
-12.442119441334
 10
52.51015949368756
 20
-11.34935499716272
 10
53.17712114333862
 20
-10.24759471966046
 10
53.41136558180698
 20
-9.860562219757233
 10
53.65771029774443
 20
-9.480056108740989
 10
53.8695886256723
 20
-9.081276108840681
 10
54.08901639785201
 20
-8.667679442277601
 10
54.39565083447356
 20
-8.345064164580526
 10
54.79217304657966
 20
-8.112689442416412
 10
55.54595330512689
 20
-7.67083527586003
 10
56.24600550948929
 20
-7.158390275988276
 10
56.89575160402401
 20
-6.575989442800349
 10
57.0318194301868
 20
-6.454210553941993
 10
57.20616076277147
 20
-6.436994998390892
 10
57.36498131427518
 20
-6.376528887294835
 10
58.00714268678117
 20
-6.132265554022601
 10
58.64619961492191
 20
-5.880099998529857
 10
59.26941682124453
 20
-5.591386665268663
 10
59.65355653366654
 20
-5.413621943090987
 10
60.0407654126769
 20
-5.239631943134524
 10
60.3890629037911
 20
-4.994028054306924
 10
60.45937151310849
 20
-4.944568609874907
 10
60.53169095570791
 20
-4.89771972099794
 10
60.58097401000614
 20
-4.824518332127197
 10
60.60404720707095
 20
-4.824518332127197
 10
60.62679984217036
 20
-4.824518332127197
 10
60.64951873047965
 20
-4.824518332127197
 10
60.72049761755771
 20
-5.071709720954403
 10
60.59921262065195
 20
-5.257200276463387
 10
60.45072845777343
 20
-5.430661109753528
 10
60.28502873977856
 20
-5.624794720816063
 10
60.07625485621594
 20
-5.771232776335068
 10
59.87608875021149
 20
-5.929524165184355
 10
60.16928235384261
 20
-5.84185888742828
 10
60.44832956894574
 20
-5.72988722078964
 10
60.70328206244137
 20
-5.563834720831204
 10
60.75976178322267
 20
-5.527145831951393
 10
60.81214928188615
 20
-5.473206109742961
 10
60.89000733545539
 20
-5.511623609733098
 10
60.89000733545539
 20
-5.557273054166382
 10
60.89000733545539
 20
-5.603098887488226
 10
60.89000733545539
 20
-5.64874833192119
 97
        0
 75
     0
 76
     1
 98
        0
  0
ENDSEC
  0
SECTION
  2
OBJECTS
  0
DICTIONARY
  5
C
330
0
100
AcDbDictionary
281
     1
  3
ACAD_GROUP
350
D
  3
ACAD_LAYOUT
350
1A
  3
ACAD_MATERIAL
350
3B
  3
ACAD_MLEADERSTYLE
350
64
  3
ACAD_MLINESTYLE
350
17
  3
ACAD_PLOTSETTINGS
350
19
  3
ACAD_PLOTSTYLENAME
350
E
  3
ACAD_TABLESTYLE
350
63
  3
ACAD_VISUALSTYLE
350
2A
  0
SUN
  5
3F
330
29
100
AcDbSun
 90
        1
290
     0
 63
     7
421
 16777215
 40
1.0
291
     1
 91
  2455826
 92
 54000000
292
     0
 70
     2
 71
   256
280
     1
  0
DICTIONARY
  5
D
102
{ACAD_REACTORS
330
C
102
}
330
C
100
AcDbDictionary
281
     1
  0
DICTIONARY
  5
1A
102
{ACAD_REACTORS
330
C
102
}
330
C
100
AcDbDictionary
281
     1
  3
Layout1
350
1E
  3
Layout2
350
26
  3
Model
350
22
  0
DICTIONARY
  5
3B
102
{ACAD_REACTORS
330
C
102
}
330
C
100
AcDbDictionary
281
     1
  3
ByBlock
350
3D
  3
ByLayer
350
3C
  3
Global
350
3E
  0
DICTIONARY
  5
64
102
{ACAD_REACTORS
330
C
102
}
330
C
100
AcDbDictionary
281
     1
  0
DICTIONARY
  5
17
102
{ACAD_REACTORS
330
C
102
}
330
C
100
AcDbDictionary
281
     1
  3
Standard
350
18
  0
DICTIONARY
  5
19
102
{ACAD_REACTORS
330
C
102
}
330
C
100
AcDbDictionary
281
     1
  0
ACDBDICTIONARYWDFLT
  5
E
102
{ACAD_REACTORS
330
C
102
}
330
C
100
AcDbDictionary
281
     1
  3
Normal
350
F
100
AcDbDictionaryWithDefault
340
F
  0
DICTIONARY
  5
63
102
{ACAD_REACTORS
330
C
102
}
330
C
100
AcDbDictionary
281
     1
  0
DICTIONARY
  5
2A
102
{ACAD_REACTORS
330
C
102
}
330
C
100
AcDbDictionary
281
     1
  3
2dWireframe
350
2F
  3
3D Hidden
350
31
  3
3dWireframe
350
30
  3
Basic
350
32
  3
Brighten
350
36
  3
ColorChange
350
3A
  3
Conceptual
350
34
  3
Dim
350
35
  3
Facepattern
350
39
  3
Flat
350
2B
  3
FlatWithEdges
350
2C
  3
Gouraud
350
2D
  3
GouraudWithEdges
350
2E
  3
Linepattern
350
38
  3
Realistic
350
33
  3
Thicken
350
37
  0
LAYOUT
  5
1E
102
{ACAD_REACTORS
330
1A
102
}
330
1A
100
AcDbPlotSettings
  1

  2
none_device
  4

  6

 40
0.0
 41
0.0
 42
0.0
 43
0.0
 44
0.0
 45
0.0
 46
0.0
 47
0.0
 48
0.0
 49
0.0
140
0.0
141
0.0
142
1.0
143
1.0
 70
   688
 72
     0
 73
     0
 74
     5
  7

 75
    16
 76
     0
 77
     2
 78
   300
147
1.0
148
0.0
149
0.0
100
AcDbLayout
  1
Layout1
 70
     1
 71
     1
 10
0.0
 20
0.0
 11
12.0
 21
9.0
 12
0.0
 22
0.0
 32
0.0
 14
1.000000000000000E+20
 24
1.000000000000000E+20
 34
1.000000000000000E+20
 15
-1.000000000000000E+20
 25
-1.000000000000000E+20
 35
-1.000000000000000E+20
146
0.0
 13
0.0
 23
0.0
 33
0.0
 16
1.0
 26
0.0
 36
0.0
 17
0.0
 27
1.0
 37
0.0
 76
     0
330
1B
  0
LAYOUT
  5
26
102
{ACAD_REACTORS
330
1A
102
}
330
1A
100
AcDbPlotSettings
  1

  2
none_device
  4

  6

 40
0.0
 41
0.0
 42
0.0
 43
0.0
 44
0.0
 45
0.0
 46
0.0
 47
0.0
 48
0.0
 49
0.0
140
0.0
141
0.0
142
1.0
143
1.0
 70
   688
 72
     0
 73
     0
 74
     5
  7

 75
    16
 76
     0
 77
     2
 78
   300
147
1.0
148
0.0
149
0.0
100
AcDbLayout
  1
Layout2
 70
     1
 71
     2
 10
0.0
 20
0.0
 11
0.0
 21
0.0
 12
0.0
 22
0.0
 32
0.0
 14
0.0
 24
0.0
 34
0.0
 15
0.0
 25
0.0
 35
0.0
146
0.0
 13
0.0
 23
0.0
 33
0.0
 16
1.0
 26
0.0
 36
0.0
 17
0.0
 27
1.0
 37
0.0
 76
     0
330
23
  0
LAYOUT
  5
22
102
{ACAD_REACTORS
330
1A
102
}
330
1A
100
AcDbPlotSettings
  1

  2
none_device
  4

  6

 40
0.0
 41
0.0
 42
0.0
 43
0.0
 44
0.0
 45
0.0
 46
0.0
 47
0.0
 48
0.0
 49
0.0
140
0.0
141
0.0
142
1.0
143
1.0
 70
  1712
 72
     0
 73
     0
 74
     0
  7

 75
     0
 76
     0
 77
     2
 78
   300
147
1.0
148
0.0
149
0.0
100
AcDbLayout
  1
Model
 70
     1
 71
     0
 10
0.0
 20
0.0
 11
12.0
 21
9.0
 12
0.0
 22
0.0
 32
0.0
 14
1.000000000000000E+20
 24
1.000000000000000E+20
 34
1.000000000000000E+20
 15
-1.000000000000000E+20
 25
-1.000000000000000E+20
 35
-1.000000000000000E+20
146
0.0
 13
0.0
 23
0.0
 33
0.0
 16
1.0
 26
0.0
 36
0.0
 17
0.0
 27
1.0
 37
0.0
 76
     0
330
1F
331
29
  0
MATERIAL
  5
3D
102
{ACAD_REACTORS
330
3B
102
}
330
3B
100
AcDbMaterial
  1
ByBlock
 72
     1
 94
      127
  0
MATERIAL
  5
3C
102
{ACAD_REACTORS
330
3B
102
}
330
3B
100
AcDbMaterial
  1
ByLayer
 72
     1
 94
      127
  0
MATERIAL
  5
3E
102
{ACAD_REACTORS
330
3B
102
}
330
3B
100
AcDbMaterial
  1
Global
 72
     1
 94
      127
  0
MLINESTYLE
  5
18
102
{ACAD_REACTORS
330
17
102
}
330
17
100
AcDbMlineStyle
  2
Standard
 70
     0
  3

 62
   256
 51
90.0
 52
90.0
 71
     2
 49
0.5
 62
   256
  6
BYLAYER
 49
-0.5
 62
   256
  6
BYLAYER
  0
ACDBPLACEHOLDER
  5
F
102
{ACAD_REACTORS
330
E
102
}
330
E
  0
VISUALSTYLE
  5
2F
102
{ACAD_REACTORS
330
2A
102
}
102
{ACAD_XDICTIONARY
360
4B
102
}
330
2A
100
AcDbVisualStyle
  2
2dWireframe
 70
     4
 71
     0
 72
     2
 73
     0
 90
        0
 40
-0.6
 41
-30.0
 62
     5
 63
     7
421
 16777215
 74
     1
 91
        4
 64
     7
 65
   257
 75
     1
175
     1
 42
1.0
 92
        0
 66
   257
 43
1.0
 76
     1
 77
     6
 78
     2
 67
     7
 79
     5
170
     0
171
     0
290
     0
174
     0
 93
        1
 44
0.0
173
     0
291
     0
 45
0.0
  0
VISUALSTYLE
  5
31
102
{ACAD_REACTORS
330
2A
102
}
102
{ACAD_XDICTIONARY
360
4F
102
}
330
2A
100
AcDbVisualStyle
  2
3D Hidden
 70
     6
 71
     1
 72
     2
 73
     2
 90
        0
 40
-0.6
 41
-30.0
 62
     5
 63
     7
421
 16777215
 74
     2
 91
        2
 64
     7
 65
   257
 75
     2
175
     1
 42
40.0
 92
        0
 66
   257
 43
1.0
 76
     1
 77
     6
 78
     2
 67
     7
 79
     3
170
     0
171
     0
290
     0
174
     0
 93
        1
 44
0.0
173
     0
291
     0
 45
0.0
  0
VISUALSTYLE
  5
30
102
{ACAD_REACTORS
330
2A
102
}
102
{ACAD_XDICTIONARY
360
4D
102
}
330
2A
100
AcDbVisualStyle
  2
3dWireframe
 70
     5
 71
     0
 72
     2
 73
     0
 90
        0
 40
-0.6
 41
-30.0
 62
     5
 63
     7
421
 16777215
 74
     1
 91
        4
 64
     7
 65
   257
 75
     1
175
     1
 42
1.0
 92
        0
 66
   257
 43
1.0
 76
     1
 77
     6
 78
     2
 67
     7
 79
     5
170
     0
171
     0
290
     0
174
     0
 93
        1
 44
0.0
173
     0
291
     0
 45
0.0
  0
VISUALSTYLE
  5
32
102
{ACAD_REACTORS
330
2A
102
}
102
{ACAD_XDICTIONARY
360
51
102
}
330
2A
100
AcDbVisualStyle
  2
Basic
 70
     7
 71
     1
 72
     0
 73
     1
 90
        0
 40
-0.6
 41
-30.0
 62
     5
 63
     7
421
 16777215
 74
     0
 91
        4
 64
     7
 65
   257
 75
     1
175
     1
 42
1.0
 92
        8
 66
     7
 43
1.0
 76
     1
 77
     6
 78
     2
 67
     7
 79
     5
170
     0
171
     0
290
     0
174
     0
 93
        1
 44
0.0
173
     0
291
     1
 45
0.0
  0
VISUALSTYLE
  5
36
102
{ACAD_REACTORS
330
2A
102
}
102
{ACAD_XDICTIONARY
360
59
102
}
330
2A
100
AcDbVisualStyle
  2
Brighten
 70
    12
 71
     2
 72
     2
 73
     0
 90
        0
 40
-0.6
 41
-30.0
 62
     5
 63
     7
421
 16777215
 74
     1
 91
        4
 64
     7
 65
   257
 75
     1
175
     1
 42
1.0
 92
        8
 66
     7
 43
1.0
 76
     1
 77
     6
 78
     2
 67
     7
 79
     5
170
     0
171
     0
290
     0
174
     0
 93
        1
 44
50.0
173
     0
291
     1
 45
0.0
  0
VISUALSTYLE
  5
3A
102
{ACAD_REACTORS
330
2A
102
}
102
{ACAD_XDICTIONARY
360
61
102
}
330
2A
100
AcDbVisualStyle
  2
ColorChange
 70
    16
 71
     2
 72
     2
 73
     3
 90
        0
 40
-0.6
 41
-30.0
 62
     5
 63
     8
421
  8421504
 74
     1
 91
        4
 64
     7
 65
   257
 75
     1
175
     1
 42
1.0
 92
        8
 66
     8
424
  8421504
 43
1.0
 76
     1
 77
     6
 78
     2
 67
     7
 79
     5
170
     0
171
     0
290
     0
174
     0
 93
        1
 44
0.0
173
     0
291
     1
 45
0.0
  0
VISUALSTYLE
  5
34
102
{ACAD_REACTORS
330
2A
102
}
102
{ACAD_XDICTIONARY
360
55
102
}
330
2A
100
AcDbVisualStyle
  2
Conceptual
 70
     9
 71
     3
 72
     2
 73
     0
 90
        0
 40
-0.6
 41
-30.0
 62
     5
 63
     7
421
 16777215
 74
     2
 91
        2
 64
     7
 65
   257
 75
     1
175
     1
 42
40.0
 92
        8
 66
     7
 43
1.0
 76
     1
 77
     6
 78
     2
 67
     7
 79
     3
170
     0
171
     0
290
     0
174
     0
 93
        1
 44
0.0
173
     0
291
     0
 45
0.0
  0
VISUALSTYLE
  5
35
102
{ACAD_REACTORS
330
2A
102
}
102
{ACAD_XDICTIONARY
360
57
102
}
330
2A
100
AcDbVisualStyle
  2
Dim
 70
    11
 71
     2
 72
     2
 73
     0
 90
        0
 40
-0.6
 41
-30.0
 62
     5
 63
     7
421
 16777215
 74
     1
 91
        4
 64
     7
 65
   257
 75
     1
175
     1
 42
1.0
 92
        8
 66
     7
 43
1.0
 76
     1
 77
     6
 78
     2
 67
     7
 79
     5
170
     0
171
     0
290
     0
174
     0
 93
        1
 44
-50.0
173
     0
291
     1
 45
0.0
  0
VISUALSTYLE
  5
39
102
{ACAD_REACTORS
330
2A
102
}
102
{ACAD_XDICTIONARY
360
5F
102
}
330
2A
100
AcDbVisualStyle
  2
Facepattern
 70
    15
 71
     2
 72
     2
 73
     0
 90
        0
 40
-0.6
 41
-30.0
 62
     5
 63
     7
421
 16777215
 74
     1
 91
        4
 64
     7
 65
   257
 75
     1
175
     1
 42
1.0
 92
        8
 66
     7
 43
1.0
 76
     1
 77
     6
 78
     2
 67
     7
 79
     5
170
     0
171
     0
290
     0
174
     0
 93
        1
 44
0.0
173
     0
291
     1
 45
0.0
  0
VISUALSTYLE
  5
2B
102
{ACAD_REACTORS
330
2A
102
}
102
{ACAD_XDICTIONARY
360
43
102
}
330
2A
100
AcDbVisualStyle
  2
Flat
 70
     0
 71
     2
 72
     1
 73
     1
 90
        2
 40
-0.6
 41
30.0
 62
     5
 63
     7
421
 16777215
 74
     0
 91
        4
 64
     7
 65
   257
 75
     1
175
     1
 42
1.0
 92
        8
 66
     7
 43
1.0
 76
     1
 77
     6
 78
     2
 67
     7
 79
     5
170
     0
171
     0
290
     0
174
     0
 93
       13
 44
0.0
173
     0
291
     1
 45
0.0
  0
VISUALSTYLE
  5
2C
102
{ACAD_REACTORS
330
2A
102
}
102
{ACAD_XDICTIONARY
360
45
102
}
330
2A
100
AcDbVisualStyle
  2
FlatWithEdges
 70
     1
 71
     2
 72
     1
 73
     1
 90
        2
 40
-0.6
 41
30.0
 62
     5
 63
     7
421
 16777215
 74
     1
 91
        4
 64
     7
 65
   257
 75
     1
175
     1
 42
1.0
 92
        0
 66
   257
 43
1.0
 76
     1
 77
     6
 78
     2
 67
     7
 79
     5
170
     0
171
     0
290
     0
174
     0
 93
       13
 44
0.0
173
     0
291
     1
 45
0.0
  0
VISUALSTYLE
  5
2D
102
{ACAD_REACTORS
330
2A
102
}
102
{ACAD_XDICTIONARY
360
47
102
}
330
2A
100
AcDbVisualStyle
  2
Gouraud
 70
     2
 71
     2
 72
     2
 73
     1
 90
        2
 40
-0.6
 41
30.0
 62
     5
 63
     7
421
 16777215
 74
     0
 91
        4
 64
     7
 65
   257
 75
     1
175
     1
 42
1.0
 92
        0
 66
     7
 43
1.0
 76
     1
 77
     6
 78
     2
 67
     7
 79
     5
170
     0
171
     0
290
     0
174
     0
 93
       13
 44
0.0
173
     0
291
     1
 45
0.0
  0
VISUALSTYLE
  5
2E
102
{ACAD_REACTORS
330
2A
102
}
102
{ACAD_XDICTIONARY
360
49
102
}
330
2A
100
AcDbVisualStyle
  2
GouraudWithEdges
 70
     3
 71
     2
 72
     2
 73
     1
 90
        2
 40
-0.6
 41
30.0
 62
     5
 63
     7
421
 16777215
 74
     1
 91
        4
 64
     7
 65
   257
 75
     1
175
     1
 42
1.0
 92
        0
 66
   257
 43
1.0
 76
     1
 77
     6
 78
     2
 67
     7
 79
     5
170
     0
171
     0
290
     0
174
     0
 93
       13
 44
0.0
173
     0
291
     1
 45
0.0
  0
VISUALSTYLE
  5
38
102
{ACAD_REACTORS
330
2A
102
}
102
{ACAD_XDICTIONARY
360
5D
102
}
330
2A
100
AcDbVisualStyle
  2
Linepattern
 70
    14
 71
     2
 72
     2
 73
     0
 90
        0
 40
-0.6
 41
-30.0
 62
     5
 63
     7
421
 16777215
 74
     1
 91
        4
 64
     7
 65
   257
 75
     7
175
     7
 42
1.0
 92
        8
 66
     7
 43
1.0
 76
     1
 77
     6
 78
     2
 67
     7
 79
     5
170
     0
171
     0
290
     0
174
     0
 93
        1
 44
0.0
173
     0
291
     1
 45
0.0
  0
VISUALSTYLE
  5
33
102
{ACAD_REACTORS
330
2A
102
}
102
{ACAD_XDICTIONARY
360
53
102
}
330
2A
100
AcDbVisualStyle
  2
Realistic
 70
     8
 71
     2
 72
     2
 73
     0
 90
        0
 40
-0.6
 41
-30.0
 62
     5
 63
     7
421
 16777215
 74
     1
 91
        0
 64
     7
 65
   257
 75
     1
175
     1
 42
1.0
 92
        8
 66
     8
424
  7895160
 43
1.0
 76
     1
 77
     6
 78
     2
 67
     7
 79
     5
170
     0
171
     0
290
     0
174
     0
 93
       13
 44
0.0
173
     0
291
     0
 45
0.0
  0
VISUALSTYLE
  5
37
102
{ACAD_REACTORS
330
2A
102
}
102
{ACAD_XDICTIONARY
360
5B
102
}
330
2A
100
AcDbVisualStyle
  2
Thicken
 70
    13
 71
     2
 72
     2
 73
     0
 90
        0
 40
-0.6
 41
-30.0
 62
     5
 63
     7
421
 16777215
 74
     1
 91
        4
 64
     7
 65
   257
 75
     1
175
     1
 42
1.0
 92
       12
 66
     7
 43
1.0
 76
     1
 77
     6
 78
     2
 67
     7
 79
     5
170
     0
171
     0
290
     0
174
     0
 93
        1
 44
0.0
173
     0
291
     1
 45
0.0
  0
DICTIONARY
  5
4B
330
2F
100
AcDbDictionary
280
     1
281
     1
  3
ACAD_XREC_ROUNDTRIP
360
4C
  0
DICTIONARY
  5
4F
330
31
100
AcDbDictionary
280
     1
281
     1
  3
ACAD_XREC_ROUNDTRIP
360
50
  0
DICTIONARY
  5
4D
330
30
100
AcDbDictionary
280
     1
281
     1
  3
ACAD_XREC_ROUNDTRIP
360
4E
  0
DICTIONARY
  5
51
330
32
100
AcDbDictionary
280
     1
281
     1
  3
ACAD_XREC_ROUNDTRIP
360
52
  0
DICTIONARY
  5
59
330
36
100
AcDbDictionary
280
     1
281
     1
  3
ACAD_XREC_ROUNDTRIP
360
5A
  0
DICTIONARY
  5
61
330
3A
100
AcDbDictionary
280
     1
281
     1
  3
ACAD_XREC_ROUNDTRIP
360
62
  0
DICTIONARY
  5
55
330
34
100
AcDbDictionary
280
     1
281
     1
  3
ACAD_XREC_ROUNDTRIP
360
56
  0
DICTIONARY
  5
57
330
35
100
AcDbDictionary
280
     1
281
     1
  3
ACAD_XREC_ROUNDTRIP
360
58
  0
DICTIONARY
  5
5F
330
39
100
AcDbDictionary
280
     1
281
     1
  3
ACAD_XREC_ROUNDTRIP
360
60
  0
DICTIONARY
  5
43
330
2B
100
AcDbDictionary
280
     1
281
     1
  3
ACAD_XREC_ROUNDTRIP
360
44
  0
DICTIONARY
  5
45
330
2C
100
AcDbDictionary
280
     1
281
     1
  3
ACAD_XREC_ROUNDTRIP
360
46
  0
DICTIONARY
  5
47
330
2D
100
AcDbDictionary
280
     1
281
     1
  3
ACAD_XREC_ROUNDTRIP
360
48
  0
DICTIONARY
  5
49
330
2E
100
AcDbDictionary
280
     1
281
     1
  3
ACAD_XREC_ROUNDTRIP
360
4A
  0
DICTIONARY
  5
5D
330
38
100
AcDbDictionary
280
     1
281
     1
  3
ACAD_XREC_ROUNDTRIP
360
5E
  0
DICTIONARY
  5
53
330
33
100
AcDbDictionary
280
     1
281
     1
  3
ACAD_XREC_ROUNDTRIP
360
54
  0
DICTIONARY
  5
5B
330
37
100
AcDbDictionary
280
     1
281
     1
  3
ACAD_XREC_ROUNDTRIP
360
5C
  0
XRECORD
  5
4C
102
{ACAD_REACTORS
330
4B
102
}
330
4B
100
AcDbXrecord
280
     1
102
RTVSPropertyOp0
 70
     1
102
RTVSPropertyOp1
 70
     1
102
RTVSPropertyOp2
 70
     1
102
RTVSPropertyOp3
 70
     1
102
RTVSPropertyOp4
 70
     1
102
RTVSPropertyOp5
 70
     1
102
RTVSPropertyOp6
 70
     1
102
RTVSPropertyOp7
 70
     1
102
RTVSPropertyOp8
 70
     1
102
RTVSPropertyOp9
 70
     1
102
RTVSPropertyOp10
 70
     1
102
RTVSPropertyOp11
 70
     1
102
RTVSPropertyOp12
 70
     1
102
RTVSPropertyOp13
 70
     1
102
RTVSPropertyOp14
 70
     1
102
RTVSPropertyOp15
 70
     1
102
RTVSPropertyOp16
 70
     1
102
RTVSPropertyOp17
 70
     1
102
RTVSPropertyOp18
 70
     1
102
RTVSPropertyOp19
 70
     1
102
RTVSPropertyOp20
 70
     1
102
RTVSPropertyOp21
 70
     1
102
RTVSPropertyOp22
 70
     1
102
RTVSPropertyOp23
 70
     1
102
RTVSPropertyOp24
 70
     1
102
RTVSPropertyOp25
 70
     1
102
RTVSPropertyOp26
 70
     1
102
RTVSPropertyOp27
 70
     1
102
RTVSPropertyOp28
 70
     1
102
RTVSPropertyOp29
 70
     1
102
RTVSPropertyOp30
 70
     1
102
RTVSPropertyOp31
 70
     1
102
RTVSPropertyOp32
 70
     1
  0
XRECORD
  5
50
102
{ACAD_REACTORS
330
4F
102
}
330
4F
100
AcDbXrecord
280
     1
102
RTVSPropertyOp0
 70
     1
102
RTVSPropertyOp1
 70
     1
102
RTVSPropertyOp2
 70
     1
102
RTVSPropertyOp3
 70
     1
102
RTVSPropertyOp4
 70
     1
102
RTVSPropertyOp5
 70
     1
102
RTVSPropertyOp6
 70
     1
102
RTVSPropertyOp7
 70
     1
102
RTVSPropertyOp8
 70
     1
102
RTVSPropertyOp9
 70
     1
102
RTVSPropertyOp10
 70
     1
102
RTVSPropertyOp11
 70
     1
102
RTVSPropertyOp12
 70
     1
102
RTVSPropertyOp13
 70
     1
102
RTVSPropertyOp14
 70
     1
102
RTVSPropertyOp15
 70
     1
102
RTVSPropertyOp16
 70
     1
102
RTVSPropertyOp17
 70
     1
102
RTVSPropertyOp18
 70
     1
102
RTVSPropertyOp19
 70
     1
102
RTVSPropertyOp20
 70
     1
102
RTVSPropertyOp21
 70
     1
102
RTVSPropertyOp22
 70
     1
102
RTVSPropertyOp23
 70
     1
102
RTVSPropertyOp24
 70
     1
102
RTVSPropertyOp25
 70
     1
102
RTVSPropertyOp26
 70
     1
102
RTVSPropertyOp27
 70
     1
102
RTVSPropertyOp28
 70
     1
102
RTVSPropertyOp29
 70
     1
102
RTVSPropertyOp30
 70
     1
102
RTVSPropertyOp31
 70
     1
102
RTVSPropertyOp32
 70
     1
  0
XRECORD
  5
4E
102
{ACAD_REACTORS
330
4D
102
}
330
4D
100
AcDbXrecord
280
     1
102
RTVSPropertyOp0
 70
     1
102
RTVSPropertyOp1
 70
     1
102
RTVSPropertyOp2
 70
     1
102
RTVSPropertyOp3
 70
     1
102
RTVSPropertyOp4
 70
     1
102
RTVSPropertyOp5
 70
     1
102
RTVSPropertyOp6
 70
     1
102
RTVSPropertyOp7
 70
     1
102
RTVSPropertyOp8
 70
     1
102
RTVSPropertyOp9
 70
     1
102
RTVSPropertyOp10
 70
     1
102
RTVSPropertyOp11
 70
     1
102
RTVSPropertyOp12
 70
     1
102
RTVSPropertyOp13
 70
     1
102
RTVSPropertyOp14
 70
     1
102
RTVSPropertyOp15
 70
     1
102
RTVSPropertyOp16
 70
     1
102
RTVSPropertyOp17
 70
     1
102
RTVSPropertyOp18
 70
     1
102
RTVSPropertyOp19
 70
     1
102
RTVSPropertyOp20
 70
     1
102
RTVSPropertyOp21
 70
     1
102
RTVSPropertyOp22
 70
     1
102
RTVSPropertyOp23
 70
     1
102
RTVSPropertyOp24
 70
     1
102
RTVSPropertyOp25
 70
     1
102
RTVSPropertyOp26
 70
     1
102
RTVSPropertyOp27
 70
     1
102
RTVSPropertyOp28
 70
     1
102
RTVSPropertyOp29
 70
     1
102
RTVSPropertyOp30
 70
     1
102
RTVSPropertyOp31
 70
     1
102
RTVSPropertyOp32
 70
     1
  0
XRECORD
  5
52
102
{ACAD_REACTORS
330
51
102
}
330
51
100
AcDbXrecord
280
     1
102
RTVSPropertyOp0
 70
     1
102
RTVSPropertyOp1
 70
     1
102
RTVSPropertyOp2
 70
     1
102
RTVSPropertyOp3
 70
     1
102
RTVSPropertyOp4
 70
     1
102
RTVSPropertyOp5
 70
     1
102
RTVSPropertyOp6
 70
     1
102
RTVSPropertyOp7
 70
     1
102
RTVSPropertyOp8
 70
     1
102
RTVSPropertyOp9
 70
     1
102
RTVSPropertyOp10
 70
     1
102
RTVSPropertyOp11
 70
     1
102
RTVSPropertyOp12
 70
     1
102
RTVSPropertyOp13
 70
     1
102
RTVSPropertyOp14
 70
     1
102
RTVSPropertyOp15
 70
     1
102
RTVSPropertyOp16
 70
     1
102
RTVSPropertyOp17
 70
     1
102
RTVSPropertyOp18
 70
     1
102
RTVSPropertyOp19
 70
     1
102
RTVSPropertyOp20
 70
     1
102
RTVSPropertyOp21
 70
     1
102
RTVSPropertyOp22
 70
     1
102
RTVSPropertyOp23
 70
     1
102
RTVSPropertyOp24
 70
     1
102
RTVSPropertyOp25
 70
     1
102
RTVSPropertyOp26
 70
     1
102
RTVSPropertyOp27
 70
     1
102
RTVSPropertyOp28
 70
     1
102
RTVSPropertyOp29
 70
     1
102
RTVSPropertyOp30
 70
     1
102
RTVSPropertyOp31
 70
     1
102
RTVSPropertyOp32
 70
     1
  0
XRECORD
  5
5A
102
{ACAD_REACTORS
330
59
102
}
330
59
100
AcDbXrecord
280
     1
102
RTVSPropertyOp0
 70
     1
102
RTVSPropertyOp1
 70
     1
102
RTVSPropertyOp2
 70
     1
102
RTVSPropertyOp3
 70
     1
102
RTVSPropertyOp4
 70
     1
102
RTVSPropertyOp5
 70
     1
102
RTVSPropertyOp6
 70
     1
102
RTVSPropertyOp7
 70
     1
102
RTVSPropertyOp8
 70
     1
102
RTVSPropertyOp9
 70
     1
102
RTVSPropertyOp10
 70
     1
102
RTVSPropertyOp11
 70
     1
102
RTVSPropertyOp12
 70
     1
102
RTVSPropertyOp13
 70
     1
102
RTVSPropertyOp14
 70
     1
102
RTVSPropertyOp15
 70
     1
102
RTVSPropertyOp16
 70
     1
102
RTVSPropertyOp17
 70
     1
102
RTVSPropertyOp18
 70
     1
102
RTVSPropertyOp19
 70
     1
102
RTVSPropertyOp20
 70
     1
102
RTVSPropertyOp21
 70
     1
102
RTVSPropertyOp22
 70
     1
102
RTVSPropertyOp23
 70
     1
102
RTVSPropertyOp24
 70
     1
102
RTVSPropertyOp25
 70
     1
102
RTVSPropertyOp26
 70
     1
102
RTVSPropertyOp27
 70
     1
102
RTVSPropertyOp28
 70
     1
102
RTVSPropertyOp29
 70
     1
102
RTVSPropertyOp30
 70
     1
102
RTVSPropertyOp31
 70
     1
102
RTVSPropertyOp32
 70
     1
  0
XRECORD
  5
62
102
{ACAD_REACTORS
330
61
102
}
330
61
100
AcDbXrecord
280
     1
102
RTVSPropertyOp0
 70
     1
102
RTVSPropertyOp1
 70
     1
102
RTVSPropertyOp2
 70
     1
102
RTVSPropertyOp3
 70
     1
102
RTVSPropertyOp4
 70
     1
102
RTVSPropertyOp5
 70
     1
102
RTVSPropertyOp6
 70
     1
102
RTVSPropertyOp7
 70
     1
102
RTVSPropertyOp8
 70
     1
102
RTVSPropertyOp9
 70
     1
102
RTVSPropertyOp10
 70
     1
102
RTVSPropertyOp11
 70
     1
102
RTVSPropertyOp12
 70
     1
102
RTVSPropertyOp13
 70
     1
102
RTVSPropertyOp14
 70
     1
102
RTVSPropertyOp15
 70
     1
102
RTVSPropertyOp16
 70
     1
102
RTVSPropertyOp17
 70
     1
102
RTVSPropertyOp18
 70
     1
102
RTVSPropertyOp19
 70
     1
102
RTVSPropertyOp20
 70
     1
102
RTVSPropertyOp21
 70
     1
102
RTVSPropertyOp22
 70
     1
102
RTVSPropertyOp23
 70
     1
102
RTVSPropertyOp24
 70
     1
102
RTVSPropertyOp25
 70
     1
102
RTVSPropertyOp26
 70
     1
102
RTVSPropertyOp27
 70
     1
102
RTVSPropertyOp28
 70
     1
102
RTVSPropertyOp29
 70
     1
102
RTVSPropertyOp30
 70
     1
102
RTVSPropertyOp31
 70
     1
102
RTVSPropertyOp32
 70
     1
  0
XRECORD
  5
56
102
{ACAD_REACTORS
330
55
102
}
330
55
100
AcDbXrecord
280
     1
102
RTVSPropertyOp0
 70
     1
102
RTVSPropertyOp1
 70
     1
102
RTVSPropertyOp2
 70
     1
102
RTVSPropertyOp3
 70
     1
102
RTVSPropertyOp4
 70
     1
102
RTVSPropertyOp5
 70
     1
102
RTVSPropertyOp6
 70
     1
102
RTVSPropertyOp7
 70
     1
102
RTVSPropertyOp8
 70
     1
102
RTVSPropertyOp9
 70
     1
102
RTVSPropertyOp10
 70
     1
102
RTVSPropertyOp11
 70
     1
102
RTVSPropertyOp12
 70
     1
102
RTVSPropertyOp13
 70
     1
102
RTVSPropertyOp14
 70
     1
102
RTVSPropertyOp15
 70
     1
102
RTVSPropertyOp16
 70
     1
102
RTVSPropertyOp17
 70
     1
102
RTVSPropertyOp18
 70
     1
102
RTVSPropertyOp19
 70
     1
102
RTVSPropertyOp20
 70
     1
102
RTVSPropertyOp21
 70
     1
102
RTVSPropertyOp22
 70
     1
102
RTVSPropertyOp23
 70
     1
102
RTVSPropertyOp24
 70
     1
102
RTVSPropertyOp25
 70
     1
102
RTVSPropertyOp26
 70
     1
102
RTVSPropertyOp27
 70
     1
102
RTVSPropertyOp28
 70
     1
102
RTVSPropertyOp29
 70
     1
102
RTVSPropertyOp30
 70
     1
102
RTVSPropertyOp31
 70
     1
102
RTVSPropertyOp32
 70
     1
  0
XRECORD
  5
58
102
{ACAD_REACTORS
330
57
102
}
330
57
100
AcDbXrecord
280
     1
102
RTVSPropertyOp0
 70
     1
102
RTVSPropertyOp1
 70
     1
102
RTVSPropertyOp2
 70
     1
102
RTVSPropertyOp3
 70
     1
102
RTVSPropertyOp4
 70
     1
102
RTVSPropertyOp5
 70
     1
102
RTVSPropertyOp6
 70
     1
102
RTVSPropertyOp7
 70
     1
102
RTVSPropertyOp8
 70
     1
102
RTVSPropertyOp9
 70
     1
102
RTVSPropertyOp10
 70
     1
102
RTVSPropertyOp11
 70
     1
102
RTVSPropertyOp12
 70
     1
102
RTVSPropertyOp13
 70
     1
102
RTVSPropertyOp14
 70
     1
102
RTVSPropertyOp15
 70
     1
102
RTVSPropertyOp16
 70
     1
102
RTVSPropertyOp17
 70
     1
102
RTVSPropertyOp18
 70
     1
102
RTVSPropertyOp19
 70
     1
102
RTVSPropertyOp20
 70
     1
102
RTVSPropertyOp21
 70
     1
102
RTVSPropertyOp22
 70
     1
102
RTVSPropertyOp23
 70
     1
102
RTVSPropertyOp24
 70
     1
102
RTVSPropertyOp25
 70
     1
102
RTVSPropertyOp26
 70
     1
102
RTVSPropertyOp27
 70
     1
102
RTVSPropertyOp28
 70
     1
102
RTVSPropertyOp29
 70
     1
102
RTVSPropertyOp30
 70
     1
102
RTVSPropertyOp31
 70
     1
102
RTVSPropertyOp32
 70
     1
  0
XRECORD
  5
60
102
{ACAD_REACTORS
330
5F
102
}
330
5F
100
AcDbXrecord
280
     1
102
RTVSPropertyOp0
 70
     1
102
RTVSPropertyOp1
 70
     1
102
RTVSPropertyOp2
 70
     1
102
RTVSPropertyOp3
 70
     1
102
RTVSPropertyOp4
 70
     1
102
RTVSPropertyOp5
 70
     1
102
RTVSPropertyOp6
 70
     1
102
RTVSPropertyOp7
 70
     1
102
RTVSPropertyOp8
 70
     1
102
RTVSPropertyOp9
 70
     1
102
RTVSPropertyOp10
 70
     1
102
RTVSPropertyOp11
 70
     1
102
RTVSPropertyOp12
 70
     1
102
RTVSPropertyOp13
 70
     1
102
RTVSPropertyOp14
 70
     1
102
RTVSPropertyOp15
 70
     1
102
RTVSPropertyOp16
 70
     1
102
RTVSPropertyOp17
 70
     1
102
RTVSPropertyOp18
 70
     1
102
RTVSPropertyOp19
 70
     1
102
RTVSPropertyOp20
 70
     1
102
RTVSPropertyOp21
 70
     1
102
RTVSPropertyOp22
 70
     1
102
RTVSPropertyOp23
 70
     1
102
RTVSPropertyOp24
 70
     1
102
RTVSPropertyOp25
 70
     1
102
RTVSPropertyOp26
 70
     1
102
RTVSPropertyOp27
 70
     1
102
RTVSPropertyOp28
 70
     1
102
RTVSPropertyOp29
 70
     1
102
RTVSPropertyOp30
 70
     1
102
RTVSPropertyOp31
 70
     1
102
RTVSPropertyOp32
 70
     1
  0
XRECORD
  5
44
102
{ACAD_REACTORS
330
43
102
}
330
43
100
AcDbXrecord
280
     1
102
RTVSPropertyOp0
 70
     1
102
RTVSPropertyOp1
 70
     1
102
RTVSPropertyOp2
 70
     1
102
RTVSPropertyOp3
 70
     1
102
RTVSPropertyOp4
 70
     1
102
RTVSPropertyOp5
 70
     1
102
RTVSPropertyOp6
 70
     1
102
RTVSPropertyOp7
 70
     1
102
RTVSPropertyOp8
 70
     1
102
RTVSPropertyOp9
 70
     1
102
RTVSPropertyOp10
 70
     1
102
RTVSPropertyOp11
 70
     1
102
RTVSPropertyOp12
 70
     1
102
RTVSPropertyOp13
 70
     1
102
RTVSPropertyOp14
 70
     1
102
RTVSPropertyOp15
 70
     1
102
RTVSPropertyOp16
 70
     1
102
RTVSPropertyOp17
 70
     1
102
RTVSPropertyOp18
 70
     1
102
RTVSPropertyOp19
 70
     1
102
RTVSPropertyOp20
 70
     1
102
RTVSPropertyOp21
 70
     1
102
RTVSPropertyOp22
 70
     1
102
RTVSPropertyOp23
 70
     1
102
RTVSPropertyOp24
 70
     1
102
RTVSPropertyOp25
 70
     1
102
RTVSPropertyOp26
 70
     1
102
RTVSPropertyOp27
 70
     1
102
RTVSPropertyOp28
 70
     1
102
RTVSPropertyOp29
 70
     1
102
RTVSPropertyOp30
 70
     1
102
RTVSPropertyOp31
 70
     1
102
RTVSPropertyOp32
 70
     1
  0
XRECORD
  5
46
102
{ACAD_REACTORS
330
45
102
}
330
45
100
AcDbXrecord
280
     1
102
RTVSPropertyOp0
 70
     1
102
RTVSPropertyOp1
 70
     1
102
RTVSPropertyOp2
 70
     1
102
RTVSPropertyOp3
 70
     1
102
RTVSPropertyOp4
 70
     1
102
RTVSPropertyOp5
 70
     1
102
RTVSPropertyOp6
 70
     1
102
RTVSPropertyOp7
 70
     1
102
RTVSPropertyOp8
 70
     1
102
RTVSPropertyOp9
 70
     1
102
RTVSPropertyOp10
 70
     1
102
RTVSPropertyOp11
 70
     1
102
RTVSPropertyOp12
 70
     1
102
RTVSPropertyOp13
 70
     1
102
RTVSPropertyOp14
 70
     1
102
RTVSPropertyOp15
 70
     1
102
RTVSPropertyOp16
 70
     1
102
RTVSPropertyOp17
 70
     1
102
RTVSPropertyOp18
 70
     1
102
RTVSPropertyOp19
 70
     1
102
RTVSPropertyOp20
 70
     1
102
RTVSPropertyOp21
 70
     1
102
RTVSPropertyOp22
 70
     1
102
RTVSPropertyOp23
 70
     1
102
RTVSPropertyOp24
 70
     1
102
RTVSPropertyOp25
 70
     1
102
RTVSPropertyOp26
 70
     1
102
RTVSPropertyOp27
 70
     1
102
RTVSPropertyOp28
 70
     1
102
RTVSPropertyOp29
 70
     1
102
RTVSPropertyOp30
 70
     1
102
RTVSPropertyOp31
 70
     1
102
RTVSPropertyOp32
 70
     1
  0
XRECORD
  5
48
102
{ACAD_REACTORS
330
47
102
}
330
47
100
AcDbXrecord
280
     1
102
RTVSPropertyOp0
 70
     1
102
RTVSPropertyOp1
 70
     1
102
RTVSPropertyOp2
 70
     1
102
RTVSPropertyOp3
 70
     1
102
RTVSPropertyOp4
 70
     1
102
RTVSPropertyOp5
 70
     1
102
RTVSPropertyOp6
 70
     1
102
RTVSPropertyOp7
 70
     1
102
RTVSPropertyOp8
 70
     1
102
RTVSPropertyOp9
 70
     1
102
RTVSPropertyOp10
 70
     1
102
RTVSPropertyOp11
 70
     1
102
RTVSPropertyOp12
 70
     1
102
RTVSPropertyOp13
 70
     1
102
RTVSPropertyOp14
 70
     1
102
RTVSPropertyOp15
 70
     1
102
RTVSPropertyOp16
 70
     1
102
RTVSPropertyOp17
 70
     1
102
RTVSPropertyOp18
 70
     1
102
RTVSPropertyOp19
 70
     1
102
RTVSPropertyOp20
 70
     1
102
RTVSPropertyOp21
 70
     1
102
RTVSPropertyOp22
 70
     1
102
RTVSPropertyOp23
 70
     1
102
RTVSPropertyOp24
 70
     1
102
RTVSPropertyOp25
 70
     1
102
RTVSPropertyOp26
 70
     1
102
RTVSPropertyOp27
 70
     1
102
RTVSPropertyOp28
 70
     1
102
RTVSPropertyOp29
 70
     1
102
RTVSPropertyOp30
 70
     1
102
RTVSPropertyOp31
 70
     1
102
RTVSPropertyOp32
 70
     1
  0
XRECORD
  5
4A
102
{ACAD_REACTORS
330
49
102
}
330
49
100
AcDbXrecord
280
     1
102
RTVSPropertyOp0
 70
     1
102
RTVSPropertyOp1
 70
     1
102
RTVSPropertyOp2
 70
     1
102
RTVSPropertyOp3
 70
     1
102
RTVSPropertyOp4
 70
     1
102
RTVSPropertyOp5
 70
     1
102
RTVSPropertyOp6
 70
     1
102
RTVSPropertyOp7
 70
     1
102
RTVSPropertyOp8
 70
     1
102
RTVSPropertyOp9
 70
     1
102
RTVSPropertyOp10
 70
     1
102
RTVSPropertyOp11
 70
     1
102
RTVSPropertyOp12
 70
     1
102
RTVSPropertyOp13
 70
     1
102
RTVSPropertyOp14
 70
     1
102
RTVSPropertyOp15
 70
     1
102
RTVSPropertyOp16
 70
     1
102
RTVSPropertyOp17
 70
     1
102
RTVSPropertyOp18
 70
     1
102
RTVSPropertyOp19
 70
     1
102
RTVSPropertyOp20
 70
     1
102
RTVSPropertyOp21
 70
     1
102
RTVSPropertyOp22
 70
     1
102
RTVSPropertyOp23
 70
     1
102
RTVSPropertyOp24
 70
     1
102
RTVSPropertyOp25
 70
     1
102
RTVSPropertyOp26
 70
     1
102
RTVSPropertyOp27
 70
     1
102
RTVSPropertyOp28
 70
     1
102
RTVSPropertyOp29
 70
     1
102
RTVSPropertyOp30
 70
     1
102
RTVSPropertyOp31
 70
     1
102
RTVSPropertyOp32
 70
     1
  0
XRECORD
  5
5E
102
{ACAD_REACTORS
330
5D
102
}
330
5D
100
AcDbXrecord
280
     1
102
RTVSPropertyOp0
 70
     1
102
RTVSPropertyOp1
 70
     1
102
RTVSPropertyOp2
 70
     1
102
RTVSPropertyOp3
 70
     1
102
RTVSPropertyOp4
 70
     1
102
RTVSPropertyOp5
 70
     1
102
RTVSPropertyOp6
 70
     1
102
RTVSPropertyOp7
 70
     1
102
RTVSPropertyOp8
 70
     1
102
RTVSPropertyOp9
 70
     1
102
RTVSPropertyOp10
 70
     1
102
RTVSPropertyOp11
 70
     1
102
RTVSPropertyOp12
 70
     1
102
RTVSPropertyOp13
 70
     1
102
RTVSPropertyOp14
 70
     1
102
RTVSPropertyOp15
 70
     1
102
RTVSPropertyOp16
 70
     1
102
RTVSPropertyOp17
 70
     1
102
RTVSPropertyOp18
 70
     1
102
RTVSPropertyOp19
 70
     1
102
RTVSPropertyOp20
 70
     1
102
RTVSPropertyOp21
 70
     1
102
RTVSPropertyOp22
 70
     1
102
RTVSPropertyOp23
 70
     1
102
RTVSPropertyOp24
 70
     1
102
RTVSPropertyOp25
 70
     1
102
RTVSPropertyOp26
 70
     1
102
RTVSPropertyOp27
 70
     1
102
RTVSPropertyOp28
 70
     1
102
RTVSPropertyOp29
 70
     1
102
RTVSPropertyOp30
 70
     1
102
RTVSPropertyOp31
 70
     1
102
RTVSPropertyOp32
 70
     1
  0
XRECORD
  5
54
102
{ACAD_REACTORS
330
53
102
}
330
53
100
AcDbXrecord
280
     1
102
RTVSPropertyOp0
 70
     1
102
RTVSPropertyOp1
 70
     1
102
RTVSPropertyOp2
 70
     1
102
RTVSPropertyOp3
 70
     1
102
RTVSPropertyOp4
 70
     1
102
RTVSPropertyOp5
 70
     1
102
RTVSPropertyOp6
 70
     1
102
RTVSPropertyOp7
 70
     1
102
RTVSPropertyOp8
 70
     1
102
RTVSPropertyOp9
 70
     1
102
RTVSPropertyOp10
 70
     1
102
RTVSPropertyOp11
 70
     1
102
RTVSPropertyOp12
 70
     1
102
RTVSPropertyOp13
 70
     1
102
RTVSPropertyOp14
 70
     1
102
RTVSPropertyOp15
 70
     1
102
RTVSPropertyOp16
 70
     1
102
RTVSPropertyOp17
 70
     1
102
RTVSPropertyOp18
 70
     1
102
RTVSPropertyOp19
 70
     1
102
RTVSPropertyOp20
 70
     1
102
RTVSPropertyOp21
 70
     1
102
RTVSPropertyOp22
 70
     1
102
RTVSPropertyOp23
 70
     1
102
RTVSPropertyOp24
 70
     1
102
RTVSPropertyOp25
 70
     1
102
RTVSPropertyOp26
 70
     1
102
RTVSPropertyOp27
 70
     1
102
RTVSPropertyOp28
 70
     1
102
RTVSPropertyOp29
 70
     1
102
RTVSPropertyOp30
 70
     1
102
RTVSPropertyOp31
 70
     1
102
RTVSPropertyOp32
 70
     1
  0
XRECORD
  5
5C
102
{ACAD_REACTORS
330
5B
102
}
330
5B
100
AcDbXrecord
280
     1
102
RTVSPropertyOp0
 70
     1
102
RTVSPropertyOp1
 70
     1
102
RTVSPropertyOp2
 70
     1
102
RTVSPropertyOp3
 70
     1
102
RTVSPropertyOp4
 70
     1
102
RTVSPropertyOp5
 70
     1
102
RTVSPropertyOp6
 70
     1
102
RTVSPropertyOp7
 70
     1
102
RTVSPropertyOp8
 70
     1
102
RTVSPropertyOp9
 70
     1
102
RTVSPropertyOp10
 70
     1
102
RTVSPropertyOp11
 70
     1
102
RTVSPropertyOp12
 70
     1
102
RTVSPropertyOp13
 70
     1
102
RTVSPropertyOp14
 70
     1
102
RTVSPropertyOp15
 70
     1
102
RTVSPropertyOp16
 70
     1
102
RTVSPropertyOp17
 70
     1
102
RTVSPropertyOp18
 70
     1
102
RTVSPropertyOp19
 70
     1
102
RTVSPropertyOp20
 70
     1
102
RTVSPropertyOp21
 70
     1
102
RTVSPropertyOp22
 70
     1
102
RTVSPropertyOp23
 70
     1
102
RTVSPropertyOp24
 70
     1
102
RTVSPropertyOp25
 70
     1
102
RTVSPropertyOp26
 70
     1
102
RTVSPropertyOp27
 70
     1
102
RTVSPropertyOp28
 70
     1
102
RTVSPropertyOp29
 70
     1
102
RTVSPropertyOp30
 70
     1
102
RTVSPropertyOp31
 70
     1
102
RTVSPropertyOp32
 70
     1
  0
ENDSEC
  0
EOF
