<?xml version="1.0" encoding="utf-8"?>
<!-- Generator: Adobe Illustrator 16.0.0, SVG Export Plug-In . SVG Version: 6.00 Build 0)  -->
<!DOCTYPE svg PUBLIC "-//W3C//DTD SVG 1.1//EN" "http://www.w3.org/Graphics/SVG/1.1/DTD/svg11.dtd">
<svg version="1.1" id="Layer_1" xmlns="http://www.w3.org/2000/svg" xmlns:xlink="http://www.w3.org/1999/xlink" x="0px" y="0px"
	 width="226.77px" height="226.77px" viewBox="0 0 226.77 226.77" enable-background="new 0 0 226.77 226.77" xml:space="preserve">
<path fill-rule="evenodd" clip-rule="evenodd" d="M45.879,28.224c-0.758-0.406-1.51-0.8-2.161-1.355
	c-0.412-0.352-0.767-0.745-0.881-1.297c-0.028-0.137-0.069-0.306,0.064-0.402c0.136-0.098,0.236,0.053,0.339,0.116
	c1.34,0.809,2.807,1.302,4.377,1.819c-0.164-0.331-0.285-0.568-0.399-0.809c-0.087-0.182-0.166-0.369-0.157-0.577
	c0.005-0.118,0.021-0.244,0.132-0.303c0.133-0.072,0.212,0.051,0.29,0.127c0.608,0.595,1.268,1.128,1.925,1.669
	c0.934,0.77,2.063,1.123,3.163,1.544c0.243,0.094,0.485,0.175,0.695,0.335c1.366,1.042,2.828,1.931,4.341,2.743
	c0.633,0.34,1.256,0.705,1.863,1.09c1.023,0.652,1.818,1.531,2.503,2.53c2.631,3.837,5.25,7.681,8.127,11.343
	c0.996,1.268,2.084,2.463,3.003,3.792c0.83,1.2,1.615,2.432,2.161,3.783c0.811,2.003,2.034,3.739,3.361,5.411
	c2.775,3.494,5.923,6.638,9.162,9.694c1.174,1.106,2.372,2.187,3.561,3.276c0.156,0.141,0.324,0.27,0.488,0.405
	c0.098-0.139,0.047-0.236,0.021-0.329c-0.324-1.163-0.396-2.347-0.366-3.549c0.034-1.386-0.254-2.72-0.801-3.993
	c-0.369-0.858-0.906-1.589-1.602-2.224c-0.641-0.586-1.16-1.287-1.456-2.118c-0.347-0.976-0.006-1.653,0.997-1.905
	c0.414-0.104,0.558-0.255,0.436-0.667c-0.091-0.31,0.007-0.587,0.298-0.736c0.285-0.146,0.346-0.364,0.295-0.643
	c-0.057-0.304,0.023-0.492,0.329-0.646c0.633-0.316,0.941-0.848,0.913-1.58c-0.041-1.059,0.406-1.422,1.442-1.176
	c0.745,0.176,1.488,0.313,2.26,0.301c0.719-0.01,1.317-0.241,1.813-0.764c0.536-0.566,1.114-1.088,1.771-1.511
	c1.455-0.934,3.052-1.243,4.752-1.015c0.348,0.047,0.62-0.012,0.878-0.222c1.226-1.001,2.507-1.062,3.892-0.31
	c1.444,0.785,2.906,1.526,4.104,2.687c1.546,1.497,2.634,3.303,3.548,5.225c0.328,0.688,0.61,1.398,0.907,2.101
	c0.082,0.195,0.188,0.343,0.4,0.418c1.107,0.394,1.713,1.23,1.969,2.333c0.09,0.388,0.235,0.484,0.623,0.396
	c1.797-0.409,3.592-0.829,5.321-1.481c0.174-0.065,0.358-0.128,0.506-0.236c2.955-2.175,6.226-3.775,9.571-5.229
	c3.226-1.401,6.52-2.624,9.955-3.416c1.682-0.388,3.374-0.736,5.075-1.021c1.079-0.18,2.187-0.107,3.277-0.025
	c1.599,0.12,3.194,0.085,4.79-0.002c0.645-0.036,1.242-0.014,1.84,0.3c0.676,0.355,1.433,0.525,2.178,0.687
	c0.873,0.19,1.725,0.451,2.575,0.72c0.426,0.134,0.855,0.253,1.3,0.313c0.119,0.017,0.288-0.02,0.305,0.165
	c0.012,0.143-0.099,0.235-0.214,0.302c-0.413,0.238-0.859,0.305-1.333,0.259c-0.619-0.061-1.219-0.212-1.822-0.346
	c-0.164-0.038-0.328-0.076-0.503-0.043c0.913,1.018,2.075,1.601,3.296,2.091c0.054,0.021,0.107,0.041,0.16,0.063
	c0.641,0.268,0.643,0.274,0.148,0.737c0.333,0.194,0.69,0.305,1.051,0.385c0.333,0.073,0.291,0.203,0.113,0.397
	c-0.268,0.289-0.624,0.344-0.986,0.366c-0.52,0.031-1.036,0.003-1.545-0.123c-0.096-0.024-0.211-0.08-0.286,0.003
	c-0.103,0.113,0.012,0.216,0.069,0.304c0.27,0.421,0.438,0.91,0.875,1.215c0.205,0.142,0.097,0.271-0.082,0.342
	c-0.424,0.169-0.804,0.028-1.131-0.226c-0.696-0.542-1.337-1.145-1.77-1.928c-0.152-0.277-0.363-0.401-0.668-0.474
	c-0.982-0.237-1.977-0.392-2.971-0.552c-0.537-0.087-1.06,0.057-1.558,0.253c-0.263,0.104-0.342,0.289-0.125,0.537
	c0.47,0.539,0.997,0.982,1.677,1.249c0.914,0.36,1.455,1.097,1.823,1.974c0.128,0.304-0.03,0.56-0.197,0.801
	c-0.106,0.153-0.221,0.165-0.342,0.007c-0.524-0.678-1.275-0.986-2.035-1.321c-2.563-1.133-5.148-2.238-7.427-3.916
	c-0.569-0.42-1.198-0.381-1.82-0.235c-1.412,0.33-2.633,1.075-3.834,1.846c-2.283,1.465-4.384,3.178-6.549,4.803
	c-2.698,2.026-5.477,3.931-8.607,5.251c-0.758,0.32-1.547,0.522-2.357,0.681c-0.643,0.127-1.256,0.412-1.875,0.645
	c-2.924,1.107-5.773,2.387-8.594,3.735c-0.625,0.299-1.209,0.667-1.791,1.039c-0.191,0.123-0.316,0.269-0.321,0.521
	c-0.06,2.982-0.664,5.887-1.249,8.794c-0.465,2.314-1.001,4.615-1.587,6.902c-0.154,0.604-0.158,1.198,0.06,1.784
	c0.232,0.625,0.621,0.813,1.249,0.603c1.627-0.545,3.287-0.969,4.972-1.281c0.343-0.063,0.549-0.208,0.701-0.537
	c1.198-2.595,2.666-5.037,4.271-7.399c0.34-0.5,0.695-0.991,0.998-1.513c0.217-0.376,0.559-0.494,0.926-0.551
	c0.531-0.083,0.793-0.387,0.996-0.87c1.445-3.438,2.922-6.861,4.375-10.295c0.15-0.357,0.308-0.429,0.679-0.289
	c2.815,1.071,5.257,2.716,7.458,4.749c0.902,0.832,1.738,1.719,2.558,2.629c0.277,0.307,0.331,0.534,0.062,0.886
	c-0.479,0.627-0.902,1.294-1.299,2.015c0.559-0.271,1.131-0.518,1.673-0.819c0.368-0.204,0.624-0.156,0.907,0.145
	c0.508,0.538,0.926,1.138,1.313,1.763c0.723,1.166,1.35,2.378,1.845,3.659c0.062,0.161,0.113,0.327,0.156,0.494
	c0.156,0.611,0.153,0.611,0.749,0.393c1.649-0.604,3.187-1.402,4.503-2.588c0.34-0.305,0.607-0.627,0.744-1.08
	c0.49-1.612,1.025-3.209,1.513-4.821c0.909-3.003,2.763-5.263,5.363-6.969c1.704-1.118,3.55-1.967,5.35-2.905
	c2.256-1.175,4.411-2.5,6.169-4.379c0.627-0.668,1.15-1.406,1.462-2.275c0.256-0.713,0.278-1.42-0.005-2.148
	c-0.5-1.282-0.869-2.597-0.687-3.999c0.124-0.951,0.507-1.764,1.283-2.363c0.232-0.179,0.485-0.295,0.776-0.354
	c0.763-0.155,1.512-0.366,2.246-0.624c1.784-0.627,3.176-1.743,4.269-3.293c1.569-2.225,3.347-4.293,5.04-6.423
	c0.225-0.284,0.438-0.357,0.773-0.222c0.754,0.306,1.438,0.728,2.109,1.176c0.142,0.095,0.172,0.207,0.119,0.37
	c-0.949,2.905-1.607,5.884-2.261,8.867c-0.728,3.321-2.224,6.313-4.091,9.133c-1.245,1.878-2.749,3.551-4.162,5.297
	c-3.551,4.389-6.947,8.899-10.381,13.38c-1.754,2.287-3.4,4.651-5.129,6.954c-0.214,0.285-0.271,0.631-0.391,0.955
	c-0.652,1.77-1.653,3.276-3.254,4.34c-1.873,1.245-3.455,2.819-4.971,4.462c-0.898,0.975-1.712,2.024-2.588,3.016
	c-0.885,1.003-1.979,1.8-3.004,2.661c-0.639,0.537-1.301,1.047-1.947,1.575c-0.145,0.118-0.295,0.242-0.396,0.395
	c-0.899,1.364-2.184,2.32-3.471,3.271c-1.391,1.027-2.828,1.985-4.281,2.923c-0.754,0.484-1.447,1.045-1.941,1.817
	c-0.353,0.552-0.502,1.134-0.244,1.762c0.11,0.27-0.079,0.364-0.229,0.489c-1.777,1.49-3.621,2.896-5.504,4.25
	c-1.941,1.397-3.928,2.727-6.018,3.894c-0.188,0.104-0.309,0.246-0.395,0.438c-1.287,2.865-2.727,5.654-4.318,8.363
	c-1.131,1.926-2.441,3.737-3.573,5.662c-1.347,2.286-2.54,4.65-3.521,7.118c-0.637,1.604-0.87,3.31-1.256,4.976
	c-0.691,2.992-1.431,5.966-2.673,8.789c-1.542,3.503-3.778,6.51-6.501,9.18c-1.522,1.494-3.22,2.79-4.756,4.271
	c-2.181,2.102-4.131,4.381-5.496,7.105c-0.615,1.228-1,2.533-1.157,3.912c-0.104,0.927,0.277,1.686,0.647,2.461
	c0.431,0.902,0.775,1.831,0.874,2.831c0.073,0.741-0.036,1.442-0.598,1.996c-0.155,0.153-0.329,0.284-0.572,0.246
	c-1.583-0.253-2.991,0.253-4.316,1.046c-1.399,0.834-2.602,1.899-3.576,3.213c-1.811,2.44-3.697,4.822-5.558,7.226
	c-0.225,0.29-0.439,0.36-0.773,0.24c-0.77-0.273-1.438-0.724-2.108-1.174c-0.159-0.106-0.174-0.236-0.114-0.41
	c1.087-3.102,1.911-6.278,2.699-9.466c0.602-2.43,1.707-4.641,2.895-6.821c1.085-1.989,2.463-3.79,3.647-5.716
	c1.721-2.799,3.225-5.72,4.751-8.625c3.015-5.736,5.932-11.523,8.833-17.318c0.645-1.287,1.279-2.58,1.909-3.875
	c0.604-1.236,0.96-2.518,0.773-3.922c-0.084-0.633,0.169-1.25,0.271-1.873c0.19-1.165,0.341-2.336,0.484-3.508
	c0.022-0.184,0.057-0.373,0.129-0.541c0.656-1.542,1.093-3.156,1.534-4.767c0.171-0.626,0.14-1.286,0.167-1.933
	c0.006-0.126-0.012-0.25-0.166-0.25c-1.173,0.005-2.237-0.524-3.376-0.686c-1.311-0.184-2.615-0.057-3.915,0.107
	c-0.312,0.039-0.561-0.031-0.811-0.199c-0.67-0.455-1.327-0.921-1.793-1.601c-0.136-0.199-0.333-0.228-0.536-0.187
	c-2.969,0.608-5.476-0.526-7.976-1.947c-1.999-1.136-2.951-2.914-3.644-4.941c-0.279-0.816-0.502-1.652-0.766-2.475
	c-0.101-0.315-0.025-0.471,0.306-0.555c1.171-0.303,2.334-0.637,3.505-0.938c0.312-0.078,0.395-0.203,0.299-0.509
	c-0.163-0.521-0.289-1.056-0.445-1.579c-0.087-0.293-0.032-0.434,0.306-0.42c2.779,0.104,5.466-0.479,8.147-1.103
	c2.863-0.664,5.671-1.521,8.474-2.397c1.167-0.365,2.32-0.776,3.479-1.168c0.105-0.036,0.26-0.039,0.284-0.162
	c0.03-0.157-0.144-0.197-0.241-0.269c-2.498-1.843-4.814-3.894-6.967-6.128c-1.4-1.453-2.747-2.953-3.962-4.565
	c-0.354-0.469-0.869-0.75-1.298-1.132c-2.033-1.807-3.453-3.999-4.209-6.616c-0.161-0.562-0.156-1.127-0.127-1.71
	c0.09-1.826,0.132-3.654,0.199-5.481c0.011-0.285-0.062-0.533-0.195-0.781c-0.719-1.338-1.617-2.553-2.545-3.749
	c-1.389-1.785-2.639-3.67-3.953-5.51c-2.578-3.608-5.094-7.262-7.825-10.761c-0.655-0.84-1.457-1.552-2.059-2.441
	c-1.331-1.966-2.301-4.119-3.286-6.266c-1.568-3.417-2.836-6.961-4.407-10.376c-0.74-1.611-1.516-3.203-2.503-4.681
	c-0.394-0.589-0.831-1.14-1.357-1.617c-0.458-0.415-0.973-0.602-1.609-0.597c-2.41,0.018-4.742-0.355-6.998-1.285
	c-1.089-0.448-2.231-0.866-3.453-0.868c-0.258,0-0.52,0.008-0.775,0.046c-0.476,0.072-0.528,0.025-0.449-0.446
	c0.055-0.332,0.241-0.548,0.546-0.665c1.232-0.471,2.465-0.676,3.726-0.08c0.85,0.401,1.616,0.028,2.328-0.382
	c0.322-0.186,0.167-0.564-0.022-0.806c-0.319-0.406-0.653-0.808-1.085-1.104c-0.451-0.31-0.918-0.595-1.367-0.909
	c-0.363-0.254-0.764-0.384-1.191-0.478c-1.564-0.342-3.1-0.78-4.568-1.429c-0.634-0.28-1.244-0.604-1.757-1.083
	c-0.28-0.26-0.422-0.577-0.405-0.961c0.01-0.229,0.108-0.332,0.33-0.205C42.682,28.065,44.274,28.174,45.879,28.224z"/>
</svg>
