  0
SECTION
  2
HEADER
  9
$ACADVER
  1
AC1021
  9
$ACADMAINTVER
 70
    25
  9
$DWGCODEPAGE
  3
ANSI_1252
  9
$INSBASE
 10
0.0
 20
0.0
 30
0.0
  9
$EXTMIN
 10
1.000000000000000E+20
 20
1.000000000000000E+20
 30
1.000000000000000E+20
  9
$EXTMAX
 10
-1.000000000000000E+20
 20
-1.000000000000000E+20
 30
-1.000000000000000E+20
  9
$LIMMIN
 10
0.0
 20
0.0
  9
$LIMMAX
 10
12.0
 20
9.0
  9
$ORTHOMODE
 70
     0
  9
$REGENMODE
 70
     1
  9
$FILLMODE
 70
     1
  9
$QTEXTMODE
 70
     0
  9
$MIRRTEXT
 70
     1
  9
$LTSCALE
 40
1.0
  9
$ATTMODE
 70
     1
  9
$TEXTSIZE
 40
0.2
  9
$TRACEWID
 40
0.05
  9
$TEXTSTYLE
  7
Standard
  9
$CLAYER
  8
0
  9
$CELTYPE
  6
ByLayer
  9
$CECOLOR
 62
   256
  9
$CELTSCALE
 40
1.0
  9
$DISPSILH
 70
     0
  9
$DIMSCALE
 40
1.0
  9
$DIMASZ
 40
0.18
  9
$DIMEXO
 40
0.0625
  9
$DIMDLI
 40
0.38
  9
$DIMRND
 40
0.0
  9
$DIMDLE
 40
0.0
  9
$DIMEXE
 40
0.18
  9
$DIMTP
 40
0.0
  9
$DIMTM
 40
0.0
  9
$DIMTXT
 40
0.18
  9
$DIMCEN
 40
0.09
  9
$DIMTSZ
 40
0.0
  9
$DIMTOL
 70
     0
  9
$DIMLIM
 70
     0
  9
$DIMTIH
 70
     1
  9
$DIMTOH
 70
     1
  9
$DIMSE1
 70
     0
  9
$DIMSE2
 70
     0
  9
$DIMTAD
 70
     0
  9
$DIMZIN
 70
     0
  9
$DIMBLK
  1

  9
$DIMASO
 70
     1
  9
$DIMSHO
 70
     1
  9
$DIMPOST
  1

  9
$DIMAPOST
  1

  9
$DIMALT
 70
     0
  9
$DIMALTD
 70
     2
  9
$DIMALTF
 40
25.4
  9
$DIMLFAC
 40
1.0
  9
$DIMTOFL
 70
     0
  9
$DIMTVP
 40
0.0
  9
$DIMTIX
 70
     0
  9
$DIMSOXD
 70
     0
  9
$DIMSAH
 70
     0
  9
$DIMBLK1
  1

  9
$DIMBLK2
  1

  9
$DIMSTYLE
  2
Standard
  9
$DIMCLRD
 70
     0
  9
$DIMCLRE
 70
     0
  9
$DIMCLRT
 70
     0
  9
$DIMTFAC
 40
1.0
  9
$DIMGAP
 40
0.09
  9
$DIMJUST
 70
     0
  9
$DIMSD1
 70
     0
  9
$DIMSD2
 70
     0
  9
$DIMTOLJ
 70
     1
  9
$DIMTZIN
 70
     0
  9
$DIMALTZ
 70
     0
  9
$DIMALTTZ
 70
     0
  9
$DIMUPT
 70
     0
  9
$DIMDEC
 70
     4
  9
$DIMTDEC
 70
     4
  9
$DIMALTU
 70
     2
  9
$DIMALTTD
 70
     2
  9
$DIMTXSTY
  7
Standard
  9
$DIMAUNIT
 70
     0
  9
$DIMADEC
 70
     0
  9
$DIMALTRND
 40
0.0
  9
$DIMAZIN
 70
     0
  9
$DIMDSEP
 70
    46
  9
$DIMATFIT
 70
     3
  9
$DIMFRAC
 70
     0
  9
$DIMLDRBLK
  1

  9
$DIMLUNIT
 70
     2
  9
$DIMLWD
 70
    -2
  9
$DIMLWE
 70
    -2
  9
$DIMTMOVE
 70
     0
  9
$DIMFXL
 40
1.0
  9
$DIMFXLON
 70
     0
  9
$DIMJOGANG
 40
0.7853981633974483
  9
$DIMTFILL
 70
     0
  9
$DIMTFILLCLR
 70
     0
  9
$DIMARCSYM
 70
     0
  9
$DIMLTYPE
  6

  9
$DIMLTEX1
  6

  9
$DIMLTEX2
  6

  9
$LUNITS
 70
     2
  9
$LUPREC
 70
     4
  9
$SKETCHINC
 40
0.1
  9
$FILLETRAD
 40
0.5
  9
$AUNITS
 70
     0
  9
$AUPREC
 70
     0
  9
$MENU
  1
.
  9
$ELEVATION
 40
0.0
  9
$PELEVATION
 40
0.0
  9
$THICKNESS
 40
0.0
  9
$LIMCHECK
 70
     0
  9
$CHAMFERA
 40
0.5
  9
$CHAMFERB
 40
0.5
  9
$CHAMFERC
 40
1.0
  9
$CHAMFERD
 40
0.0
  9
$SKPOLY
 70
     0
  9
$TDCREATE
 40
2458551.626177917
  9
$TDUCREATE
 40
2458551.33451125
  9
$TDUPDATE
 40
2458551.626177917
  9
$TDUUPDATE
 40
2458551.33451125
  9
$TDINDWG
 40
0.0000000116
  9
$TDUSRTIMER
 40
0.0000000116
  9
$USRTIMER
 70
     1
  9
$ANGBASE
 50
0.0
  9
$ANGDIR
 70
     0
  9
$PDMODE
 70
     0
  9
$PDSIZE
 40
0.0
  9
$PLINEWID
 40
0.0
  9
$SPLFRAME
 70
     0
  9
$SPLINETYPE
 70
     6
  9
$SPLINESEGS
 70
     8
  9
$HANDSEED
  5
65
  9
$SURFTAB1
 70
     6
  9
$SURFTAB2
 70
     6
  9
$SURFTYPE
 70
     6
  9
$SURFU
 70
     6
  9
$SURFV
 70
     6
  9
$UCSBASE
  2

  9
$UCSNAME
  2

  9
$UCSORG
 10
0.0
 20
0.0
 30
0.0
  9
$UCSXDIR
 10
1.0
 20
0.0
 30
0.0
  9
$UCSYDIR
 10
0.0
 20
1.0
 30
0.0
  9
$UCSORTHOREF
  2

  9
$UCSORTHOVIEW
 70
     0
  9
$UCSORGTOP
 10
0.0
 20
0.0
 30
0.0
  9
$UCSORGBOTTOM
 10
0.0
 20
0.0
 30
0.0
  9
$UCSORGLEFT
 10
0.0
 20
0.0
 30
0.0
  9
$UCSORGRIGHT
 10
0.0
 20
0.0
 30
0.0
  9
$UCSORGFRONT
 10
0.0
 20
0.0
 30
0.0
  9
$UCSORGBACK
 10
0.0
 20
0.0
 30
0.0
  9
$PUCSBASE
  2

  9
$PUCSNAME
  2

  9
$PUCSORG
 10
0.0
 20
0.0
 30
0.0
  9
$PUCSXDIR
 10
1.0
 20
0.0
 30
0.0
  9
$PUCSYDIR
 10
0.0
 20
1.0
 30
0.0
  9
$PUCSORTHOREF
  2

  9
$PUCSORTHOVIEW
 70
     0
  9
$PUCSORGTOP
 10
0.0
 20
0.0
 30
0.0
  9
$PUCSORGBOTTOM
 10
0.0
 20
0.0
 30
0.0
  9
$PUCSORGLEFT
 10
0.0
 20
0.0
 30
0.0
  9
$PUCSORGRIGHT
 10
0.0
 20
0.0
 30
0.0
  9
$PUCSORGFRONT
 10
0.0
 20
0.0
 30
0.0
  9
$PUCSORGBACK
 10
0.0
 20
0.0
 30
0.0
  9
$USERI1
 70
     0
  9
$USERI2
 70
     0
  9
$USERI3
 70
     0
  9
$USERI4
 70
     0
  9
$USERI5
 70
     0
  9
$USERR1
 40
0.0
  9
$USERR2
 40
0.0
  9
$USERR3
 40
0.0
  9
$USERR4
 40
0.0
  9
$USERR5
 40
0.0
  9
$WORLDVIEW
 70
     1
  9
$SHADEDGE
 70
     3
  9
$SHADEDIF
 70
    70
  9
$TILEMODE
 70
     1
  9
$MAXACTVP
 70
    64
  9
$PINSBASE
 10
0.0
 20
0.0
 30
0.0
  9
$PLIMCHECK
 70
     0
  9
$PEXTMIN
 10
1.000000000000000E+20
 20
1.000000000000000E+20
 30
1.000000000000000E+20
  9
$PEXTMAX
 10
-1.000000000000000E+20
 20
-1.000000000000000E+20
 30
-1.000000000000000E+20
  9
$PLIMMIN
 10
0.0
 20
0.0
  9
$PLIMMAX
 10
12.0
 20
9.0
  9
$UNITMODE
 70
     0
  9
$VISRETAIN
 70
     1
  9
$PLINEGEN
 70
     0
  9
$PSLTSCALE
 70
     1
  9
$TREEDEPTH
 70
  3020
  9
$CMLSTYLE
  2
Standard
  9
$CMLJUST
 70
     0
  9
$CMLSCALE
 40
1.0
  9
$PROXYGRAPHICS
 70
     1
  9
$MEASUREMENT
 70
     0
  9
$CELWEIGHT
370
    -1
  9
$ENDCAPS
280
     0
  9
$JOINSTYLE
280
     0
  9
$LWDISPLAY
290
     1
  9
$INSUNITS
 70
     1
  9
$HYPERLINKBASE
  1

  9
$STYLESHEET
  1

  9
$XEDIT
290
     1
  9
$CEPSNTYPE
380
     0
  9
$PSTYLEMODE
290
     1
  9
$FINGERPRINTGUID
  2
{C95A4B08-4698-4644-B933-AE5B6C7D677A}
  9
$VERSIONGUID
  2
{FAEB1C32-E019-11D5-929B-00C0DF256EC4}
  9
$EXTNAMES
290
     1
  9
$PSVPSCALE
 40
0.0
  9
$OLESTARTUP
290
     0
  9
$SORTENTS
280
   127
  9
$INDEXCTL
280
     0
  9
$HIDETEXT
280
     1
  9
$XCLIPFRAME
290
     0
  9
$HALOGAP
280
     0
  9
$OBSCOLOR
 70
   257
  9
$OBSLTYPE
280
     0
  9
$INTERSECTIONDISPLAY
280
     0
  9
$INTERSECTIONCOLOR
 70
   257
  9
$DIMASSOC
280
     2
  9
$PROJECTNAME
  1

  9
$CAMERADISPLAY
290
     0
  9
$LENSLENGTH
 40
50.0
  9
$CAMERAHEIGHT
 40
0.0
  9
$STEPSPERSEC
 40
2.0
  9
$STEPSIZE
 40
6.0
  9
$3DDWFPREC
 40
2.0
  9
$PSOLWIDTH
 40
0.25
  9
$PSOLHEIGHT
 40
4.0
  9
$LOFTANG1
 40
1.570796326794897
  9
$LOFTANG2
 40
1.570796326794897
  9
$LOFTMAG1
 40
0.0
  9
$LOFTMAG2
 40
0.0
  9
$LOFTPARAM
 70
     7
  9
$LOFTNORMALS
280
     1
  9
$LATITUDE
 40
37.795
  9
$LONGITUDE
 40
-122.394
  9
$NORTHDIRECTION
 40
0.0
  9
$TIMEZONE
 70
 -8000
  9
$LIGHTGLYPHDISPLAY
280
     1
  9
$TILEMODELIGHTSYNCH
280
     1
  9
$CMATERIAL
347
3C
  9
$SOLIDHIST
280
     1
  9
$SHOWHIST
280
     1
  9
$DWFFRAME
280
     2
  9
$DGNFRAME
280
     2
  9
$REALWORLDSCALE
290
     1
  9
$INTERFERECOLOR
 62
   256
  9
$CSHADOW
280
     0
  9
$SHADOWPLANELOCATION
 40
0.0
  0
ENDSEC
  0
SECTION
  2
CLASSES
  0
CLASS
  1
ACDBDICTIONARYWDFLT
  2
AcDbDictionaryWithDefault
  3
ObjectDBX Classes
 90
        0
 91
        4
280
     0
281
     0
  0
CLASS
  1
VISUALSTYLE
  2
AcDbVisualStyle
  3
ObjectDBX Classes
 90
     4095
 91
        4
280
     0
281
     0
  0
CLASS
  1
MATERIAL
  2
AcDbMaterial
  3
ObjectDBX Classes
 90
     1153
 91
        4
280
     0
281
     0
  0
CLASS
  1
SUN
  2
AcDbSun
  3
SCENEOE
 90
     1024
 91
        4
280
     0
281
     0
  0
ENDSEC
  0
SECTION
  2
TABLES
  0
TABLE
  2
VPORT
  5
8
330
0
100
AcDbSymbolTable
 70
     1
  0
VPORT
  5
29
330
8
100
AcDbSymbolTableRecord
100
AcDbViewportTableRecord
  2
*Active
 70
     0
 10
0.0
 20
0.0
 11
1.0
 21
1.0
 12
0.0
 22
0.0
 13
0.0
 23
0.0
 14
0.5
 24
0.5
 15
0.5
 25
0.5
 16
0.0
 26
0.0
 36
1.0
 17
39.99961911841359
 27
-39.99962012888904
 37
0.0
 40
79.99924025777808
 41
0.9999999747378738
 42
50.0
 43
0.0
 44
0.0
 50
0.0
 51
0.0
 71
     0
 72
   100
 73
     1
 74
     3
 75
     0
 76
     0
 77
     0
 78
     0
281
     0
 65
     1
110
0.0
120
0.0
130
0.0
111
1.0
121
0.0
131
0.0
112
0.0
122
1.0
132
0.0
 79
     0
146
0.0
 60
     3
 61
     5
292
     1
282
     1
141
0.0
142
0.0
 63
   250
361
3F
  0
ENDTAB
  0
TABLE
  2
LTYPE
  5
5
330
0
100
AcDbSymbolTable
 70
     1
  0
LTYPE
  5
14
330
5
100
AcDbSymbolTableRecord
100
AcDbLinetypeTableRecord
  2
ByBlock
 70
     0
  3

 72
    65
 73
     0
 40
0.0
  0
LTYPE
  5
15
330
5
100
AcDbSymbolTableRecord
100
AcDbLinetypeTableRecord
  2
ByLayer
 70
     0
  3

 72
    65
 73
     0
 40
0.0
  0
LTYPE
  5
16
330
5
100
AcDbSymbolTableRecord
100
AcDbLinetypeTableRecord
  2
Continuous
 70
     0
  3
Solid line
 72
    65
 73
     0
 40
0.0
  0
ENDTAB
  0
TABLE
  2
LAYER
  5
2
330
0
100
AcDbSymbolTable
 70
     2
  0
LAYER
  5
10
330
2
100
AcDbSymbolTableRecord
100
AcDbLayerTableRecord
  2
0
 70
     0
 62
     7
  6
Continuous
370
    -3
390
F
347
3E
  0
LAYER
  5
40
330
2
100
AcDbSymbolTableRecord
100
AcDbLayerTableRecord
  2
Layer 1
 70
     0
 62
     7
  6
Continuous
370
    -3
390
F
347
3E
  0
ENDTAB
  0
TABLE
  2
STYLE
  5
3
330
0
100
AcDbSymbolTable
 70
     1
  0
STYLE
  5
11
330
3
100
AcDbSymbolTableRecord
100
AcDbTextStyleTableRecord
  2
Standard
 70
     0
 40
0.0
 41
1.0
 50
0.0
 71
     0
 42
0.2
  3
txt
  4

  0
ENDTAB
  0
TABLE
  2
VIEW
  5
6
330
0
100
AcDbSymbolTable
 70
     0
  0
ENDTAB
  0
TABLE
  2
UCS
  5
7
330
0
100
AcDbSymbolTable
 70
     0
  0
ENDTAB
  0
TABLE
  2
APPID
  5
9
330
0
100
AcDbSymbolTable
 70
     1
  0
APPID
  5
12
330
9
100
AcDbSymbolTableRecord
100
AcDbRegAppTableRecord
  2
ACAD
 70
     0
  0
ENDTAB
  0
TABLE
  2
DIMSTYLE
  5
A
330
0
100
AcDbSymbolTable
 70
     1
100
AcDbDimStyleTable
  0
DIMSTYLE
105
27
330
A
100
AcDbSymbolTableRecord
100
AcDbDimStyleTableRecord
  2
Standard
 70
     0
178
     0
340
11
  0
ENDTAB
  0
TABLE
  2
BLOCK_RECORD
  5
1
330
0
100
AcDbSymbolTable
 70
     1
  0
BLOCK_RECORD
  5
1F
330
1
100
AcDbSymbolTableRecord
100
AcDbBlockTableRecord
  2
*Model_Space
340
22
 70
     0
280
     1
281
     0
  0
BLOCK_RECORD
  5
1B
330
1
100
AcDbSymbolTableRecord
100
AcDbBlockTableRecord
  2
*Paper_Space
340
1E
 70
     0
280
     1
281
     0
  0
BLOCK_RECORD
  5
23
330
1
100
AcDbSymbolTableRecord
100
AcDbBlockTableRecord
  2
*Paper_Space0
340
26
 70
     0
280
     1
281
     0
  0
ENDTAB
  0
ENDSEC
  0
SECTION
  2
BLOCKS
  0
BLOCK
  5
20
330
1F
100
AcDbEntity
  8
0
100
AcDbBlockBegin
  2
*Model_Space
 70
     0
 10
0.0
 20
0.0
 30
0.0
  3
*Model_Space
  1

  0
ENDBLK
  5
21
330
1F
100
AcDbEntity
  8
0
100
AcDbBlockEnd
  0
BLOCK
  5
1C
330
1B
100
AcDbEntity
 67
     1
  8
0
100
AcDbBlockBegin
  2
*Paper_Space
 70
     0
 10
0.0
 20
0.0
 30
0.0
  3
*Paper_Space
  1

  0
ENDBLK
  5
1D
330
1B
100
AcDbEntity
 67
     1
  8
0
100
AcDbBlockEnd
  0
BLOCK
  5
24
330
23
100
AcDbEntity
  8
0
100
AcDbBlockBegin
  2
*Paper_Space0
 70
     0
 10
0.0
 20
0.0
 30
0.0
  3
*Paper_Space0
  1

  0
ENDBLK
  5
25
330
23
100
AcDbEntity
  8
0
100
AcDbBlockEnd
  0
ENDSEC
  0
SECTION
  2
ENTITIES
  0
SPLINE
  5
41
330
1F
100
AcDbEntity
  8
Layer 1
370
     0
100
AcDbSpline
210
0.0
220
0.0
230
1.0
 70
    11
 71
     3
 72
   887
 73
   883
 74
     0
 42
0.0000000001
 43
0.0000000001
 12
1.0
 22
0.0
 32
0.0
 13
1.0
 23
0.0
 33
0.0
 40
0.0
 40
0.0
 40
0.0
 40
0.0
 40
1.0
 40
1.0
 40
1.0
 40
2.0
 40
2.0
 40
2.0
 40
3.0
 40
3.0
 40
3.0
 40
4.0
 40
4.0
 40
4.0
 40
5.0
 40
5.0
 40
5.0
 40
6.0
 40
6.0
 40
6.0
 40
7.0
 40
7.0
 40
7.0
 40
8.0
 40
8.0
 40
8.0
 40
9.0
 40
9.0
 40
9.0
 40
10.0
 40
10.0
 40
10.0
 40
11.0
 40
11.0
 40
11.0
 40
12.0
 40
12.0
 40
12.0
 40
13.0
 40
13.0
 40
13.0
 40
14.0
 40
14.0
 40
14.0
 40
15.0
 40
15.0
 40
15.0
 40
16.0
 40
16.0
 40
16.0
 40
17.0
 40
17.0
 40
17.0
 40
18.0
 40
18.0
 40
18.0
 40
19.0
 40
19.0
 40
19.0
 40
20.0
 40
20.0
 40
20.0
 40
21.0
 40
21.0
 40
21.0
 40
22.0
 40
22.0
 40
22.0
 40
23.0
 40
23.0
 40
23.0
 40
24.0
 40
24.0
 40
24.0
 40
25.0
 40
25.0
 40
25.0
 40
26.0
 40
26.0
 40
26.0
 40
27.0
 40
27.0
 40
27.0
 40
28.0
 40
28.0
 40
28.0
 40
29.0
 40
29.0
 40
29.0
 40
30.0
 40
30.0
 40
30.0
 40
31.0
 40
31.0
 40
31.0
 40
32.0
 40
32.0
 40
32.0
 40
33.0
 40
33.0
 40
33.0
 40
34.0
 40
34.0
 40
34.0
 40
35.0
 40
35.0
 40
35.0
 40
36.0
 40
36.0
 40
36.0
 40
37.0
 40
37.0
 40
37.0
 40
38.0
 40
38.0
 40
38.0
 40
39.0
 40
39.0
 40
39.0
 40
40.0
 40
40.0
 40
40.0
 40
41.0
 40
41.0
 40
41.0
 40
42.0
 40
42.0
 40
42.0
 40
43.0
 40
43.0
 40
43.0
 40
44.0
 40
44.0
 40
44.0
 40
45.0
 40
45.0
 40
45.0
 40
46.0
 40
46.0
 40
46.0
 40
47.0
 40
47.0
 40
47.0
 40
48.0
 40
48.0
 40
48.0
 40
49.0
 40
49.0
 40
49.0
 40
50.0
 40
50.0
 40
50.0
 40
51.0
 40
51.0
 40
51.0
 40
52.0
 40
52.0
 40
52.0
 40
53.0
 40
53.0
 40
53.0
 40
54.0
 40
54.0
 40
54.0
 40
55.0
 40
55.0
 40
55.0
 40
56.0
 40
56.0
 40
56.0
 40
57.0
 40
57.0
 40
57.0
 40
58.0
 40
58.0
 40
58.0
 40
59.0
 40
59.0
 40
59.0
 40
60.0
 40
60.0
 40
60.0
 40
61.0
 40
61.0
 40
61.0
 40
62.0
 40
62.0
 40
62.0
 40
63.0
 40
63.0
 40
63.0
 40
64.0
 40
64.0
 40
64.0
 40
65.0
 40
65.0
 40
65.0
 40
66.0
 40
66.0
 40
66.0
 40
67.0
 40
67.0
 40
67.0
 40
68.0
 40
68.0
 40
68.0
 40
69.0
 40
69.0
 40
69.0
 40
70.0
 40
70.0
 40
70.0
 40
71.0
 40
71.0
 40
71.0
 40
72.0
 40
72.0
 40
72.0
 40
73.0
 40
73.0
 40
73.0
 40
74.0
 40
74.0
 40
74.0
 40
75.0
 40
75.0
 40
75.0
 40
76.0
 40
76.0
 40
76.0
 40
77.0
 40
77.0
 40
77.0
 40
78.0
 40
78.0
 40
78.0
 40
79.0
 40
79.0
 40
79.0
 40
80.0
 40
80.0
 40
80.0
 40
81.0
 40
81.0
 40
81.0
 40
82.0
 40
82.0
 40
82.0
 40
83.0
 40
83.0
 40
83.0
 40
84.0
 40
84.0
 40
84.0
 40
85.0
 40
85.0
 40
85.0
 40
86.0
 40
86.0
 40
86.0
 40
87.0
 40
87.0
 40
87.0
 40
88.0
 40
88.0
 40
88.0
 40
89.0
 40
89.0
 40
89.0
 40
90.0
 40
90.0
 40
90.0
 40
91.0
 40
91.0
 40
91.0
 40
92.0
 40
92.0
 40
92.0
 40
93.0
 40
93.0
 40
93.0
 40
94.0
 40
94.0
 40
94.0
 40
95.0
 40
95.0
 40
95.0
 40
96.0
 40
96.0
 40
96.0
 40
97.0
 40
97.0
 40
97.0
 40
98.0
 40
98.0
 40
98.0
 40
99.0
 40
99.0
 40
99.0
 40
100.0
 40
100.0
 40
100.0
 40
101.0
 40
101.0
 40
101.0
 40
102.0
 40
102.0
 40
102.0
 40
103.0
 40
103.0
 40
103.0
 40
104.0
 40
104.0
 40
104.0
 40
105.0
 40
105.0
 40
105.0
 40
106.0
 40
106.0
 40
106.0
 40
107.0
 40
107.0
 40
107.0
 40
108.0
 40
108.0
 40
108.0
 40
109.0
 40
109.0
 40
109.0
 40
110.0
 40
110.0
 40
110.0
 40
111.0
 40
111.0
 40
111.0
 40
112.0
 40
112.0
 40
112.0
 40
113.0
 40
113.0
 40
113.0
 40
114.0
 40
114.0
 40
114.0
 40
115.0
 40
115.0
 40
115.0
 40
116.0
 40
116.0
 40
116.0
 40
117.0
 40
117.0
 40
117.0
 40
118.0
 40
118.0
 40
118.0
 40
119.0
 40
119.0
 40
119.0
 40
120.0
 40
120.0
 40
120.0
 40
121.0
 40
121.0
 40
121.0
 40
122.0
 40
122.0
 40
122.0
 40
123.0
 40
123.0
 40
123.0
 40
124.0
 40
124.0
 40
124.0
 40
125.0
 40
125.0
 40
125.0
 40
126.0
 40
126.0
 40
126.0
 40
127.0
 40
127.0
 40
127.0
 40
128.0
 40
128.0
 40
128.0
 40
129.0
 40
129.0
 40
129.0
 40
130.0
 40
130.0
 40
130.0
 40
131.0
 40
131.0
 40
131.0
 40
132.0
 40
132.0
 40
132.0
 40
133.0
 40
133.0
 40
133.0
 40
134.0
 40
134.0
 40
134.0
 40
135.0
 40
135.0
 40
135.0
 40
136.0
 40
136.0
 40
136.0
 40
137.0
 40
137.0
 40
137.0
 40
138.0
 40
138.0
 40
138.0
 40
139.0
 40
139.0
 40
139.0
 40
140.0
 40
140.0
 40
140.0
 40
141.0
 40
141.0
 40
141.0
 40
142.0
 40
142.0
 40
142.0
 40
143.0
 40
143.0
 40
143.0
 40
144.0
 40
144.0
 40
144.0
 40
145.0
 40
145.0
 40
145.0
 40
146.0
 40
146.0
 40
146.0
 40
147.0
 40
147.0
 40
147.0
 40
148.0
 40
148.0
 40
148.0
 40
149.0
 40
149.0
 40
149.0
 40
150.0
 40
150.0
 40
150.0
 40
151.0
 40
151.0
 40
151.0
 40
152.0
 40
152.0
 40
152.0
 40
153.0
 40
153.0
 40
153.0
 40
154.0
 40
154.0
 40
154.0
 40
155.0
 40
155.0
 40
155.0
 40
156.0
 40
156.0
 40
156.0
 40
157.0
 40
157.0
 40
157.0
 40
158.0
 40
158.0
 40
158.0
 40
159.0
 40
159.0
 40
159.0
 40
160.0
 40
160.0
 40
160.0
 40
161.0
 40
161.0
 40
161.0
 40
162.0
 40
162.0
 40
162.0
 40
163.0
 40
163.0
 40
163.0
 40
164.0
 40
164.0
 40
164.0
 40
165.0
 40
165.0
 40
165.0
 40
166.0
 40
166.0
 40
166.0
 40
167.0
 40
167.0
 40
167.0
 40
168.0
 40
168.0
 40
168.0
 40
169.0
 40
169.0
 40
169.0
 40
170.0
 40
170.0
 40
170.0
 40
171.0
 40
171.0
 40
171.0
 40
172.0
 40
172.0
 40
172.0
 40
173.0
 40
173.0
 40
173.0
 40
174.0
 40
174.0
 40
174.0
 40
175.0
 40
175.0
 40
175.0
 40
176.0
 40
176.0
 40
176.0
 40
177.0
 40
177.0
 40
177.0
 40
178.0
 40
178.0
 40
178.0
 40
179.0
 40
179.0
 40
179.0
 40
180.0
 40
180.0
 40
180.0
 40
181.0
 40
181.0
 40
181.0
 40
182.0
 40
182.0
 40
182.0
 40
183.0
 40
183.0
 40
183.0
 40
184.0
 40
184.0
 40
184.0
 40
185.0
 40
185.0
 40
185.0
 40
186.0
 40
186.0
 40
186.0
 40
187.0
 40
187.0
 40
187.0
 40
188.0
 40
188.0
 40
188.0
 40
189.0
 40
189.0
 40
189.0
 40
190.0
 40
190.0
 40
190.0
 40
191.0
 40
191.0
 40
191.0
 40
192.0
 40
192.0
 40
192.0
 40
193.0
 40
193.0
 40
193.0
 40
194.0
 40
194.0
 40
194.0
 40
195.0
 40
195.0
 40
195.0
 40
196.0
 40
196.0
 40
196.0
 40
197.0
 40
197.0
 40
197.0
 40
198.0
 40
198.0
 40
198.0
 40
199.0
 40
199.0
 40
199.0
 40
200.0
 40
200.0
 40
200.0
 40
201.0
 40
201.0
 40
201.0
 40
202.0
 40
202.0
 40
202.0
 40
203.0
 40
203.0
 40
203.0
 40
204.0
 40
204.0
 40
204.0
 40
205.0
 40
205.0
 40
205.0
 40
206.0
 40
206.0
 40
206.0
 40
207.0
 40
207.0
 40
207.0
 40
208.0
 40
208.0
 40
208.0
 40
209.0
 40
209.0
 40
209.0
 40
210.0
 40
210.0
 40
210.0
 40
211.0
 40
211.0
 40
211.0
 40
212.0
 40
212.0
 40
212.0
 40
213.0
 40
213.0
 40
213.0
 40
214.0
 40
214.0
 40
214.0
 40
215.0
 40
215.0
 40
215.0
 40
216.0
 40
216.0
 40
216.0
 40
217.0
 40
217.0
 40
217.0
 40
218.0
 40
218.0
 40
218.0
 40
219.0
 40
219.0
 40
219.0
 40
220.0
 40
220.0
 40
220.0
 40
221.0
 40
221.0
 40
221.0
 40
222.0
 40
222.0
 40
222.0
 40
223.0
 40
223.0
 40
223.0
 40
224.0
 40
224.0
 40
224.0
 40
225.0
 40
225.0
 40
225.0
 40
226.0
 40
226.0
 40
226.0
 40
227.0
 40
227.0
 40
227.0
 40
228.0
 40
228.0
 40
228.0
 40
229.0
 40
229.0
 40
229.0
 40
230.0
 40
230.0
 40
230.0
 40
231.0
 40
231.0
 40
231.0
 40
232.0
 40
232.0
 40
232.0
 40
233.0
 40
233.0
 40
233.0
 40
234.0
 40
234.0
 40
234.0
 40
235.0
 40
235.0
 40
235.0
 40
236.0
 40
236.0
 40
236.0
 40
237.0
 40
237.0
 40
237.0
 40
238.0
 40
238.0
 40
238.0
 40
239.0
 40
239.0
 40
239.0
 40
240.0
 40
240.0
 40
240.0
 40
241.0
 40
241.0
 40
241.0
 40
242.0
 40
242.0
 40
242.0
 40
243.0
 40
243.0
 40
243.0
 40
244.0
 40
244.0
 40
244.0
 40
245.0
 40
245.0
 40
245.0
 40
246.0
 40
246.0
 40
246.0
 40
247.0
 40
247.0
 40
247.0
 40
248.0
 40
248.0
 40
248.0
 40
249.0
 40
249.0
 40
249.0
 40
250.0
 40
250.0
 40
250.0
 40
251.0
 40
251.0
 40
251.0
 40
252.0
 40
252.0
 40
252.0
 40
253.0
 40
253.0
 40
253.0
 40
254.0
 40
254.0
 40
254.0
 40
255.0
 40
255.0
 40
255.0
 40
256.0
 40
256.0
 40
256.0
 40
257.0
 40
257.0
 40
257.0
 40
258.0
 40
258.0
 40
258.0
 40
259.0
 40
259.0
 40
259.0
 40
260.0
 40
260.0
 40
260.0
 40
261.0
 40
261.0
 40
261.0
 40
262.0
 40
262.0
 40
262.0
 40
263.0
 40
263.0
 40
263.0
 40
264.0
 40
264.0
 40
264.0
 40
265.0
 40
265.0
 40
265.0
 40
266.0
 40
266.0
 40
266.0
 40
267.0
 40
267.0
 40
267.0
 40
268.0
 40
268.0
 40
268.0
 40
269.0
 40
269.0
 40
269.0
 40
270.0
 40
270.0
 40
270.0
 40
271.0
 40
271.0
 40
271.0
 40
272.0
 40
272.0
 40
272.0
 40
273.0
 40
273.0
 40
273.0
 40
274.0
 40
274.0
 40
274.0
 40
275.0
 40
275.0
 40
275.0
 40
276.0
 40
276.0
 40
276.0
 40
277.0
 40
277.0
 40
277.0
 40
278.0
 40
278.0
 40
278.0
 40
279.0
 40
279.0
 40
279.0
 40
280.0
 40
280.0
 40
280.0
 40
281.0
 40
281.0
 40
281.0
 40
282.0
 40
282.0
 40
282.0
 40
283.0
 40
283.0
 40
283.0
 40
284.0
 40
284.0
 40
284.0
 40
285.0
 40
285.0
 40
285.0
 40
286.0
 40
286.0
 40
286.0
 40
287.0
 40
287.0
 40
287.0
 40
288.0
 40
288.0
 40
288.0
 40
289.0
 40
289.0
 40
289.0
 40
290.0
 40
290.0
 40
290.0
 40
291.0
 40
291.0
 40
291.0
 40
292.0
 40
292.0
 40
292.0
 40
293.0
 40
293.0
 40
293.0
 40
294.0
 40
294.0
 40
294.0
 40
294.0
 10
75.76590501149518
 20
-6.641464998339784
 30
0.0
 10
75.62744164775995
 20
-6.630423053897904
 30
0.0
 10
75.61675057085597
 20
-6.574613609467464
 30
0.0
 10
75.67771056930076
 20
-6.457138609496964
 30
0.0
 10
75.79211639971535
 20
-6.240462498440029
 30
0.0
 10
75.75694445616821
 20
-6.184300276231827
 30
0.0
 10
75.51440974013357
 20
-6.187581109564238
 30
0.0
 10
75.02108530827488
 20
-6.195130554006665
 30
0.0
 10
74.5277608764162
 20
-6.184653054009268
 30
0.0
 10
74.03648255561642
 20
-6.149339998462661
 30
0.0
 10
73.8180444259898
 20
-6.134346942911009
 30
0.0
 10
73.62306228838587
 20
-6.043894720711324
 30
0.0
 10
73.3908639609764
 20
-5.928994998517712
 30
0.0
 10
73.62789720381551
 20
-5.882146109640424
 30
0.0
 10
73.82082950556263
 20
-5.846515554093897
 30
0.0
 10
74.01372838953026
 20
-5.806369442992794
 30
0.0
 10
74.44990282284697
 20
-5.715070554126867
 30
0.0
 10
74.89704864477265
 20
-5.673548609692879
 30
0.0
 10
75.31667780073369
 20
-5.508871943067328
 30
0.0
 10
75.42829668677494
 20
-5.464951109745011
 30
0.0
 10
75.52957918419101
 20
-5.408612498647929
 30
0.0
 10
75.5922677937028
 20
-5.300803609785783
 30
0.0
 10
75.64807723672344
 20
-5.204848054254239
 30
0.0
 10
75.68187334697234
 20
-5.091500554282714
 30
0.0
 10
75.62948584830885
 20
-5.000025276527906
 30
0.0
 10
75.58471834945097
 20
-4.921673332103065
 30
0.0
 10
75.4772269633044
 20
-4.983162498754245
 30
0.0
 10
75.39799307643695
 20
-4.979705276532953
 30
0.0
 10
75.38074224354372
 20
-4.978505832088628
 30
0.0
 10
75.36285831449277
 20
-4.98161027653248
 30
0.0
 10
75.34560557777345
 20
-4.98453833208713
 30
0.0
 10
74.46574442582828
 20
-5.141806665381294
 30
0.0
 10
73.58171673388513
 20
-5.232576387580899
 30
0.0
 10
72.6846381456604
 20
-5.207423332031449
 30
0.0
 10
72.12171066002188
 20
-5.192465554257315
 30
0.0
 10
71.56428650757628
 20
-5.255824443130502
 30
0.0
 10
71.01822179928533
 20
-5.434118331974821
 30
0.0
 10
70.51075276014996
 20
-5.600347220822136
 30
0.0
 10
69.97953821467324
 20
-5.694926943020794
 30
0.0
 10
69.44349239501558
 20
-5.712812776349579
 30
0.0
 10
69.01973573915984
 20
-5.727488331901311
 30
0.0
 10
68.63732463780485
 20
-5.838578054095868
 30
0.0
 10
68.2783379802967
 20
-6.060439998484743
 30
0.0
 10
67.6968191062436
 20
-6.419603053950589
 30
0.0
 10
67.17661300840405
 20
-6.861951109395774
 30
0.0
 10
66.62881968904608
 20
-7.266410831516822
 30
0.0
 10
65.38517222077418
 20
-8.183809442398427
 30
0.0
 10
64.10151975352288
 20
-9.044410831072309
 30
0.0
 10
62.83095534149323
 20
-9.923250830852416
 30
0.0
 10
61.92558647570223
 20
-10.54957249736266
 30
0.0
 10
61.0550014979127
 20
-11.21618138608473
 30
0.0
 10
60.3125806835201
 20
-12.0361427747687
 30
0.0
 10
60.16720096500682
 20
-12.1970094413952
 30
0.0
 10
60.00873319127189
 20
-12.34962110802375
 30
0.0
 10
59.8406360961511
 20
-12.48572277465639
 30
0.0
 10
59.05443404895143
 20
-13.12238083005267
 30
0.0
 10
58.18250851564054
 20
-13.63983527436781
 30
0.0
 10
57.36427575873763
 20
-14.23066749644224
 30
0.0
 10
56.80618132853135
 20
-14.63406888523033
 30
0.0
 10
56.19915662179562
 20
-14.83800971851258
 30
0.0
 10
55.52803219447299
 20
-14.92451082960217
 30
0.0
 10
54.5137961092372
 20
-15.05472110734735
 30
0.0
 10
53.50541613496311
 20
-15.21904499619514
 30
0.0
 10
52.54286199285325
 20
-15.58836805165847
 30
0.0
 10
51.95065395240618
 20
-15.81573332937952
 30
0.0
 10
51.3525898009974
 20
-16.02450721821594
 30
0.0
 10
50.7331473168007
 20
-16.17161555151263
 30
0.0
 10
50.0848123333411
 20
-16.32666138480735
 30
0.0
 10
49.45880818264513
 20
-16.24224166260617
 30
0.0
 10
48.85146597591749
 20
-16.01660499599576
 30
0.0
 10
48.27957793495202
 20
-15.80264527382707
 30
0.0
 10
48.00980877516773
 20
-15.31447138506036
 30
0.0
 10
47.82308350215371
 20
-14.76879471853009
 30
0.0
 10
47.6745993392752
 20
-14.33607749641606
 30
0.0
 10
47.5857346193201
 20
-13.88441610763996
 30
0.0
 10
47.3928004575756
 20
-13.46549249663358
 30
0.0
 10
47.32803045922802
 20
-13.32459305222428
 30
0.0
 10
47.34870323647839
 20
-13.17850777448303
 30
0.0
 10
47.45757045592318
 20
-13.05450638562523
 30
0.0
 10
47.92680016617435
 20
-12.52361110798021
 30
0.0
 10
48.49385515170757
 20
-12.14222305251988
 30
0.0
 10
49.16977735668559
 20
-11.92208971924165
 30
0.0
 10
49.3141340196694
 20
-11.87524083036437
 30
0.0
 10
49.4550334605192
 20
-11.81011805260301
 30
0.0
 10
49.58661956827328
 20
-11.73469416373314
 30
0.0
 10
49.83949067293311
 20
-11.59069027487999
 30
0.0
 10
49.96007011430132
 20
-11.35849194160476
 30
0.0
 10
49.87568567200969
 20
-11.09870638611423
 30
0.0
 10
49.76748873032558
 20
-10.76730694175256
 30
0.0
 10
49.74028956435283
 20
-10.43555471961345
 30
0.0
 10
49.76198539713265
 20
-10.0931133308099
 30
0.0
 10
49.77232178575784
 20
-9.933939997516536
 30
0.0
 10
49.72099262040069
 20
-9.802671386438064
 30
0.0
 10
49.54393345825117
 20
-9.758221386449426
 30
0.0
 10
49.45365762722097
 20
-9.735149719788383
 30
0.0
 10
49.45157623838519
 20
-9.685196386467563
 30
0.0
 10
49.5012120704522
 20
-9.615946108707236
 30
0.0
 10
49.53564443206027
 20
-9.569097219829949
 30
0.0
 10
49.57042706868638
 20
-9.519849442064332
 30
0.0
 10
49.59247567923499
 20
-9.466438886522221
 30
0.0
 10
49.67897678813927
 20
-9.258017775463234
 30
0.0
 10
49.62246178958109
 20
-9.146398886602356
 30
0.0
 10
49.40610318398974
 20
-9.090906942171836
 30
0.0
 10
49.31759124180343
 20
-9.067835275510793
 30
0.0
 10
49.26485096537117
 20
-9.004441108860087
 30
0.0
 10
49.23281874396616
 20
-8.928311664434695
 30
0.0
 10
49.19630624489766
 20
-8.842198608900706
 30
0.0
 10
49.28760513145733
 20
-8.823571942238559
 30
0.0
 10
49.32686929712228
 20
-8.77947472002736
 30
0.0
 10
49.37371943210113
 20
-8.72641694226269
 30
0.0
 10
49.42815179453834
 20
-8.68164944227413
 30
0.0
 10
49.47570623776958
 20
-8.629261942287142
 30
0.0
 10
49.70998595401483
 20
-8.373991942350868
 30
0.0
 10
49.66793609869386
 20
-8.134914442410572
 30
0.0
 10
49.35720818523716
 20
-7.979515831338416
 30
0.0
 10
49.11051069153093
 20
-7.855161664702851
 30
0.0
 10
48.86282542007213
 20
-7.735958053621704
 30
0.0
 10
48.6423393145861
 20
-7.56475499810885
 30
0.0
 10
48.55174721008443
 20
-7.494799164793
 30
0.0
 10
48.49110348511111
 20
-7.438319442584878
 30
0.0
 10
48.54691292813173
 20
-7.345962220385667
 30
0.0
 10
48.55104165452891
 20
-7.339788609276125
 30
0.0
 10
48.6223368150964
 20
-7.216457498196004
 30
0.0
 10
48.63267320372159
 20
-7.074852498231176
 30
0.0
 10
48.63546014809493
 20
-7.038339998240565
 30
0.0
 10
48.64131625905664
 20
-7.004896664915325
 30
0.0
 10
48.64300959234677
 20
-6.981154720476921
 30
0.0
 10
48.63546014809493
 20
-7.007683609359256
 30
0.0
 10
48.61648070413469
 20
-7.035588331574475
 30
0.0
 10
48.59411459359418
 20
-7.062787498234172
 30
0.0
 10
48.45938876369799
 20
-7.254345831519819
 30
0.0
 10
48.33503460020387
 20
-7.31050805372802
 30
0.0
 10
48.29714626783715
 20
-7.108613331556337
 30
0.0
 10
48.25061488013537
 20
-6.861598331618013
 30
0.0
 10
48.20066154807645
 20
-6.612854720569041
 30
0.0
 10
48.07147432915007
 20
-6.389264165069201
 30
0.0
 10
47.75799721028287
 20
-5.847538609649341
 30
0.0
 10
47.27705407163965
 20
-5.510776943066856
 30
0.0
 10
46.73236519664692
 20
-5.232576387580899
 30
0.0
 10
46.30070631877057
 20
-5.012795832080111
 30
0.0
 10
45.80392466477786
 20
-4.986090554308896
 30
0.0
 10
45.38567134211506
 20
-4.736817776593603
 30
0.0
 10
45.34778300974834
 20
-4.71356972104368
 30
0.0
 10
45.29543078886173
 20
-4.70788999882294
 30
0.0
 10
45.24925217892874
 20
-4.705984998823412
 30
0.0
 10
44.59054552906708
 20
-4.683618887717892
 30
0.0
 10
43.93631915686889
 20
-4.683936387717814
 30
0.0
 10
43.30276665584083
 20
-4.919768332103539
 30
0.0
 10
42.57861863595117
 20
-5.189678609813705
 30
0.0
 10
42.01085809488038
 20
-5.679051943024738
 30
0.0
 10
41.46655832296658
 20
-6.200316387338924
 30
0.0
 10
41.33183144553713
 20
-6.328656942862424
 30
0.0
 10
41.23502922578454
 20
-6.462994720606585
 30
0.0
 10
41.03729728638466
 20
-6.321566109530639
 30
0.0
 10
41.01179145370203
 20
-6.303503887312973
 30
0.0
 10
40.96667221198063
 20
-6.301951665091209
 30
0.0
 10
40.9339334001328
 20
-6.30798416508971
 30
0.0
 10
40.78647229278373
 20
-6.336559165082613
 30
0.0
 10
40.6562620183279
 20
-6.282478331762818
 30
0.0
 10
40.52397035503628
 20
-6.233724442886004
 30
0.0
 10
40.25353091749131
 20
-6.135899165132773
 30
0.0
 10
39.97981064669672
 20
-6.165532498458639
 30
0.0
 10
39.70852454250669
 20
-6.220989165111318
 30
0.0
 10
39.59672926758105
 20
-6.243884442883481
 30
0.0
 10
39.53351149141609
 20
-6.331232220639313
 30
0.0
 10
39.48835593701256
 20
-6.433043887280477
 30
0.0
 10
39.41808260547204
 20
-6.589783053907999
 30
0.0
 10
39.38432177300002
 20
-6.757211387199638
 30
0.0
 10
39.34763288504714
 20
-6.923263887158074
 30
0.0
 10
39.30268899730487
 20
-7.123782775996871
 30
0.0
 10
39.18366177811928
 20
-7.255368887074942
 30
0.0
 10
39.00021733835489
 20
-7.33841277594324
 30
0.0
 10
38.92027789594988
 20
-7.373866942600887
 30
0.0
 10
38.84033845354486
 20
-7.412460831480225
 30
0.0
 10
38.7669606776391
 20
-7.459662498134954
 30
0.0
 10
38.71185679015603
 20
-7.495151942570762
 30
0.0
 10
38.67051123565529
 20
-7.549938331445757
 30
0.0
 10
38.68670373524218
 20
-7.623316109205381
 30
0.0
 10
38.70254443476868
 20
-7.694259720298514
 30
0.0
 10
38.75422540018623
 20
-7.726997498068232
 30
0.0
 10
38.82157067624588
 20
-7.74629444250774
 30
0.0
 10
39.04791387912687
 20
-7.811064442491652
 30
0.0
 10
39.13557816823489
 20
-7.963005831342516
 30
0.0
 10
39.03172039310675
 20
-8.182116109065621
 30
0.0
 10
38.90630789630628
 20
-8.44669944233281
 30
0.0
 10
38.9097651184403
 20
-8.716433331154095
 30
0.0
 10
38.92475817361336
 20
-8.992376108863084
 30
0.0
 10
38.92733345132543
 20
-9.045433886627432
 30
0.0
 10
38.93114443471158
 20
-9.094011386615367
 30
0.0
 10
38.91184650727609
 20
-9.147774719935239
 30
0.0
 10
38.82019484294765
 20
-9.40166888653863
 30
0.0
 10
38.95283928400806
 20
-9.661419164251319
 30
0.0
 10
39.21604677729307
 20
-9.744780553119217
 30
0.0
 10
38.99986456058612
 20
-9.864336941978445
 30
0.0
 10
39.00744928261484
 20
-10.05487221970865
 30
0.0
 10
39.0547920591848
 20
-10.25362721965896
 30
0.0
 10
39.15575705660897
 20
-10.67667833066431
 30
0.0
 10
39.43582732724156
 20
-10.97643360836707
 30
0.0
 10
39.76172343003837
 20
-11.23618388607976
 30
0.0
 10
40.18343397483519
 20
-11.57174610821824
 30
0.0
 10
40.64867729629918
 20
-11.79015083038582
 30
0.0
 10
41.20955867087879
 20
-11.69747610818669
 30
0.0
 10
41.2963420019981
 20
-11.6840352748568
 30
0.0
 10
41.36802644461372
 20
-11.71126971929434
 30
0.0
 10
41.44140422051947
 20
-11.75674277483874
 30
0.0
 10
41.589888383398
 20
-11.85008777481524
 30
0.0
 10
41.66774643696723
 20
-11.81943138593393
 30
0.0
 10
41.69805004730523
 20
-11.64304249708914
 30
0.0
 10
41.7187228245556
 20
-11.52006416378678
 30
0.0
 10
41.74906171267048
 20
-11.4036122193714
 30
0.0
 10
41.81104476664471
 20
-11.29545055273181
 30
0.0
 10
41.82759004400039
 20
-11.26581721940562
 30
0.0
 10
41.84378254358728
 20
-11.21723971941801
 30
0.0
 10
41.88477532031925
 20
-11.24754333052156
 30
0.0
 10
41.97505115134945
 20
-11.3140419416158
 30
0.0
 10
42.11386920336346
 20
-11.32815305272337
 30
0.0
 10
42.13006170295036
 20
-11.47631971935302
 30
0.0
 10
42.1672797575564
 20
-11.80842471927021
 30
0.0
 10
42.33573114214774
 20
-12.07163221920419
 30
0.0
 10
42.57378558051891
 20
-12.29451721914851
 30
0.0
 10
42.70403113275162
 20
-12.41682527467351
 30
0.0
 10
42.77155279769567
 20
-12.565626941303
 30
0.0
 10
42.79772890813897
 20
-12.74134555237011
 30
0.0
 10
42.86179443372885
 20
-13.16714833004155
 30
0.0
 10
43.05747917928997
 20
-13.36283416332585
 30
0.0
 10
43.48056665579667
 20
-13.415186385535
 30
0.0
 10
43.58354138809123
 20
-13.42760416330977
 30
0.0
 10
43.63970360888063
 20
-13.46584527441134
 30
0.0
 10
43.67314694136076
 20
-13.55989582994336
 30
0.0
 10
43.8615666557014
 20
-14.10835944091724
 30
0.0
 10
43.85606221447198
 20
-14.64511082967221
 30
0.0
 10
43.56632583297488
 20
-15.15773221843284
 30
0.0
 10
43.38341055986366
 20
-15.48189971835168
 30
0.0
 10
43.0747300121832
 20
-15.63419388498031
 30
0.0
 10
42.71951807680097
 20
-15.65349082941982
 30
0.0
 10
42.27544142146363
 20
-15.67691527385862
 30
0.0
 10
41.82896587729862
 20
-15.66520305163938
 30
0.0
 10
41.38386616643184
 20
-15.66001721830712
 30
0.0
 10
40.78407340395605
 20
-15.65486666275302
 30
0.0
 10
40.18703332328663
 20
-15.6696833294158
 30
0.0
 10
39.59757593422612
 20
-15.80229249604931
 30
0.0
 10
38.48276387926821
 20
-16.05378777376437
 30
0.0
 10
37.38858737947101
 20
-16.36144527368731
 30
0.0
 10
36.3745276831196
 20
-16.9064516624399
 30
0.0
 10
36.04326935823737
 20
-17.08456916239566
 30
0.0
 10
35.74354936588387
 20
-17.31472138456033
 30
0.0
 10
35.39507548588529
 20
-17.46249999563437
 30
0.0
 10
34.93067971348949
 20
-17.66023194002925
 30
0.0
 10
34.43305138028051
 20
-17.72330860668035
 30
0.0
 10
33.94642971373557
 20
-17.82938888443153
 30
0.0
 10
32.98264082508764
 20
-18.04126721771181
 30
0.0
 10
32.01542999199625
 20
-18.07848527325826
 30
0.0
 10
31.0459966589051
 20
-17.86660693997766
 30
0.0
 10
30.5884791590197
 20
-17.76602999555834
 30
0.0
 10
30.12563471469068
 20
-17.7422527733421
 30
0.0
 10
29.66261388147311
 20
-17.7977094399951
 30
0.0
 10
29.28348360379039
 20
-17.8438880510947
 30
0.0
 10
28.90315388166303
 20
-17.8710872177544
 30
0.0
 10
28.52419999286887
 20
-17.905200828857
 30
0.0
 10
27.29032443762189
 20
-18.01819555105109
 30
0.0
 10
26.06110554904021
 20
-18.16322249545905
 30
0.0
 10
24.83223943823629
 20
-18.31964416208665
 30
0.0
 10
23.58598138299239
 20
-18.47673610649193
 30
0.0
 10
22.34318054996977
 20
-18.66416693977828
 30
0.0
 10
21.08468110583999
 20
-18.69962110643625
 30
0.0
 10
20.42787943933764
 20
-18.71891805087575
 30
0.0
 10
19.78053221727724
 20
-18.88772221750028
 30
0.0
 10
19.11942666188671
 20
-18.8322655508476
 30
0.0
 10
18.49137638426614
 20
-18.78128916197134
 30
0.0
 10
17.86283221775645
 20
-18.82676221751542
 30
0.0
 10
17.234605551247
 20
-18.79921027307796
 30
0.0
 10
17.00896888463659
 20
-18.78989693974705
 30
0.0
 10
16.8270413846821
 20
-18.86704943972757
 30
0.0
 10
16.68254360694046
 20
-19.05070555079302
 30
0.0
 10
16.58986888474133
 20
-19.16885082854121
 30
0.0
 10
16.48202471810167
 20
-19.27736527295855
 30
0.0
 10
16.31424360703258
 20
-19.30184805073
 30
0.0
 10
15.89634305158133
 20
-19.36418388404774
 30
0.0
 10
15.48034749612992
 20
-19.32283832850264
 30
0.0
 10
15.06833832956612
 20
-19.26875749518284
 30
0.0
 10
14.61512471856858
 20
-19.20949082853111
 30
0.0
 10
14.16656777423601
 20
-19.11339416188821
 30
0.0
 10
13.7159647187932
 20
-19.03655916190761
 30
0.0
 10
13.6265708299268
 20
-19.02107221746684
 30
0.0
 10
13.51442277439928
 20
-18.98314860636518
 30
0.0
 10
13.47462944107594
 20
-19.10580943966794
 30
0.0
 10
13.43776416330724
 20
-19.21845138408426
 30
0.0
 10
13.46792666329975
 20
-19.32767138405681
 30
0.0
 10
13.56765694105251
 20
-19.40623499514838
 30
0.0
 10
13.6618838854734
 20
-19.47890721735248
 30
0.0
 10
13.76814055211346
 20
-19.52681443956273
 30
0.0
 10
13.88028860764099
 20
-19.56470277288654
 30
0.0
 10
14.07322277425952
 20
-19.62739138398205
 30
0.0
 10
14.26509860754476
 20
-19.69424277285437
 30
0.0
 10
14.45700971860785
 20
-19.75901277283796
 30
0.0
 10
14.27649332976409
 20
-19.79344388394048
 30
0.0
 10
14.1019741631413
 20
-19.79069221727439
 30
0.0
 10
13.92749027429604
 20
-19.79517249505113
 30
0.0
 10
13.85100805209288
 20
-19.79757138393946
 30
0.0
 10
13.74679749656339
 20
-19.76416332839238
 30
0.0
 10
13.71889277434817
 20
-19.87475916169813
 30
0.0
 10
13.69254027435472
 20
-19.9777702727833
 30
0.0
 10
13.69613860768705
 20
-20.08663749497841
 30
0.0
 10
13.78468582988721
 20
-20.16862305051343
 30
0.0
 10
13.81449555210195
 20
-20.19617499495088
 30
0.0
 10
13.84998499653744
 20
-20.21787082827872
 30
0.0
 10
13.91560166318791
 20
-20.26613082826674
 30
0.0
 10
13.77985277433271
 20
-20.30126749492478
 30
0.0
 10
13.67253777435968
 20
-20.32433916158551
 30
0.0
 10
13.56765694105251
 20
-20.35707693935522
 30
0.0
 10
13.49374999662656
 20
-20.38014860601594
 30
0.0
 10
13.38901027443043
 20
-20.37118805046279
 30
0.0
 10
13.38093166332136
 20
-20.48418277265688
 30
0.0
 10
13.37299416332333
 20
-20.60028193929449
 30
0.0
 10
13.42880360775377
 20
-20.6857247170508
 30
0.0
 10
13.53714166328224
 20
-20.73500777259394
 30
0.0
 10
13.670668052138
 20
-20.79596777257879
 30
0.0
 10
13.81001527432521
 20
-20.7980491614672
 30
0.0
 10
13.9522905520674
 20
-20.78287971702635
 30
0.0
 10
14.49041777415525
 20
-20.72707027259591
 30
0.0
 10
15.00459138513765
 20
-20.54172082819796
 30
0.0
 10
15.5427186072255
 20
-20.48555860598976
 30
0.0
 10
15.77629277383362
 20
-20.46213416155128
 30
0.0
 10
16.01092527377502
 20
-20.41666110600687
 30
0.0
 10
16.22156888483345
 20
-20.30814666158953
 30
0.0
 10
16.642926662506
 20
-20.09178805053251
 30
0.0
 10
16.99499888464006
 20
-20.23201721716413
 30
0.0
 10
17.31951916233666
 20
-20.50795999487312
 30
0.0
 10
17.50402194006836
 20
-20.6636761059452
 30
0.0
 10
17.48437221785109
 20
-20.82422527257177
 30
0.0
 10
17.26854277346072
 20
-20.9389486058765
 30
0.0
 10
17.08199388461845
 20
-21.0371266614075
 30
0.0
 10
16.88701360688935
 20
-21.12186388360828
 30
0.0
 10
16.69372666249338
 20
-21.20561332803178
 30
0.0
 10
16.44018527366775
 20
-21.31515082800457
 30
0.0
 10
16.16025610707115
 20
-21.35303916132839
 30
0.0
 10
15.91874444046469
 20
-21.49326832796001
 30
0.0
 10
15.70601944051785
 20
-21.61659943904045
 30
0.0
 10
15.5427186072255
 20
-21.77817166122215
 30
0.0
 10
15.51428471834364
 20
-22.03587582782427
 30
0.0
 10
15.49311805168212
 20
-22.22775166110984
 30
0.0
 10
15.58215916277108
 20
-22.30871416108941
 30
0.0
 10
15.77096582939064
 20
-22.28564249442869
 30
0.0
 10
16.0668758293165
 20
-22.25015304999288
 30
0.0
 10
16.34782805146854
 20
-22.16093555001536
 30
0.0
 10
16.60623777362619
 20
-22.0196833278283
 30
0.0
 10
17.10439527350182
 20
-21.74716249456308
 30
0.0
 10
17.64079388447869
 20
-21.61935110570622
 30
0.0
 10
18.19525471767356
 20
-21.52632360572965
 30
0.0
 10
18.75786471753285
 20
-21.43195555019771
 30
0.0
 10
19.28029332851321
 20
-21.2155969391407
 30
0.0
 10
19.71921943951462
 20
-20.84249916145616
 30
0.0
 10
20.06494166165058
 20
-20.54895277264047
 30
0.0
 10
20.45490221710845
 20
-20.38290027268203
 30
0.0
 10
20.90292999477438
 20
-20.37118805046279
 30
0.0
 10
22.13112582780062
 20
-20.34053166158148
 30
0.0
 10
23.35448860527235
 20
-20.4466472171105
 30
0.0
 10
24.57919193829978
 20
-20.51967221709236
 30
0.0
 10
25.56898054916341
 20
-20.57858610596633
 30
0.0
 10
26.55908666002695
 20
-20.63164388373101
 30
0.0
 10
27.54887527089058
 20
-20.6757411059422
 30
0.0
 10
28.26511999293386
 20
-20.70742055037864
 30
0.0
 10
28.97790749275553
 20
-20.76185416147619
 30
0.0
 10
29.69140054813273
 20
-20.81872193923991
 30
0.0
 10
30.14285027024211
 20
-20.85385860589764
 30
0.0
 10
30.59504082568452
 20
-20.8421463836784
 30
0.0
 10
31.02754638113215
 20
-20.66678055038873
 30
0.0
 10
31.20703971442048
 20
-20.59548416151783
 30
0.0
 10
31.39514082548451
 20
-20.5462011059747
 30
0.0
 10
31.58532332543695
 20
-20.50591388376256
 30
0.0
 10
32.45072249188717
 20
-20.3270908282516
 30
0.0
 10
33.33182026944488
 20
-20.28264082826264
 30
0.0
 10
34.20737943589258
 20
-20.20859277272565
 30
0.0
 10
35.6822365896703
 20
-20.08388582831232
 30
0.0
 10
37.15346099658068
 20
-19.93123888390594
 30
0.0
 10
38.62468540349107
 20
-19.7807086061658
 30
0.0
 10
38.89889956316195
 20
-19.75245110617314
 30
0.0
 10
39.16902150071501
 20
-19.78173166172124
 30
0.0
 10
39.40517093913478
 20
-19.93402582834987
 30
0.0
 10
39.73106704193159
 20
-20.14279971718662
 30
0.0
 10
40.02045064565991
 20
-20.42597443933811
 30
0.0
 10
40.20287202989484
 20
-20.74223971703676
 30
0.0
 10
40.43440007954362
 20
-21.14253666138099
 30
0.0
 10
40.66557535142363
 20
-21.58008693904952
 30
0.0
 10
40.61491646382716
 20
-22.08547638336765
 30
0.0
 10
40.59113924221154
 20
-22.32628249441827
 30
0.0
 10
40.67174998983237
 20
-22.53540916103278
 30
0.0
 10
40.82852340282204
 20
-22.71765416098719
 30
0.0
 10
40.96667221198063
 20
-22.87989666094657
 30
0.0
 10
41.05313700820277
 20
-23.0655988831226
 30
0.0
 10
41.03796756414533
 20
-23.28262777195698
 30
0.0
 10
41.00766395380733
 20
-23.72878582740122
 30
0.0
 10
41.21022894863947
 20
-24.14460499396375
 30
0.0
 10
41.20955867087879
 20
-24.58730582718637
 30
0.0
 10
41.20955867087879
 20
-24.63140304939757
 30
0.0
 10
41.22677422599514
 20
-24.68343777160679
 30
0.0
 10
41.25192728090899
 20
-24.71995027159772
 30
0.0
 10
41.42383588763435
 20
-24.96834110486893
 30
0.0
 10
41.44450866488472
 20
-25.25634888257493
 30
0.0
 10
41.48377283054968
 20
-25.54160499361451
 30
0.0
 10
41.50169394120358
 20
-25.67731860469187
 30
0.0
 10
41.45826699786705
 20
-25.76999332689068
 30
0.0
 10
41.34043922309531
 20
-25.83374027131947
 30
0.0
 10
41.21573332302952
 20
-25.90161471574692
 30
0.0
 10
41.10792339569394
 20
-25.98980916016932
 30
0.0
 10
41.0021606206144
 20
-26.08523554903422
 30
0.0
 10
40.65763887872448
 20
-26.39493916006804
 30
0.0
 10
40.33759785979103
 20
-26.73290027109454
 30
0.0
 10
39.95691536950305
 20
-27.00129360436078
 30
0.0
 10
39.83961676138448
 20
-27.08363193767355
 30
0.0
 10
39.72058954219889
 20
-27.15457554876701
 30
0.0
 10
39.57224649042789
 20
-27.16113721543183
 30
0.0
 10
39.16556427858099
 20
-27.17768249320557
 30
0.0
 10
38.76731345540788
 20
-27.24897888207678
 30
0.0
 10
38.37438957654332
 20
-27.3530130487174
 30
0.0
 10
37.77995903615295
 20
-27.51081054867788
 30
0.0
 10
37.18669266239954
 20
-27.67030138197117
 30
0.0
 10
36.56950795592302
 20
-27.73027360417843
 30
0.0
 10
36.27342157458792
 20
-27.75849582639357
 30
0.0
 10
35.97370158223441
 20
-27.82051415971139
 30
0.0
 10
35.69532464489195
 20
-27.92112638190855
 30
0.0
 10
35.48171770589708
 20
-27.9976086041117
 30
0.0
 10
35.27520249118113
 20
-28.06580054853907
 30
0.0
 10
35.05090638012608
 20
-28.07751277075831
 30
0.0
 10
34.82957360240385
 20
-28.08957777075531
 30
0.0
 10
34.61392054690204
 20
-28.14090693740934
 30
0.0
 10
34.43114638028099
 20
-28.26081610404601
 30
0.0
 10
33.95175665817887
 20
-28.57535277063401
 30
0.0
 10
33.41571082497943
 20
-28.70969054837817
 30
0.0
 10
32.85966249178495
 20
-28.78754860391421
 30
0.0
 10
32.69533860293717
 20
-28.8109730483527
 30
0.0
 10
32.53842304742108
 20
-28.85612860389718
 30
0.0
 10
32.40595499189861
 20
-28.96499582609197
 30
0.0
 10
32.31017582525595
 20
-29.04285388162833
 30
0.0
 10
32.20148499194972
 20
-29.05629471495822
 30
0.0
 10
32.07589610309198
 20
-29.04733415940474
 30
0.0
 10
31.83096249204239
 20
-29.03043610385356
 30
0.0
 10
31.57773860321668
 20
-29.02182832607785
 30
0.0
 10
31.36155638104855
 20
-29.16823110381901
 30
0.0
 10
31.20827443664232
 20
-29.27230054823747
 30
0.0
 10
31.04236304779493
 20
-29.29572499267595
 30
0.0
 10
30.86428082561733
 20
-29.3153394371157
 30
0.0
 10
30.52716638125708
 20
-29.35428610377248
 30
0.0
 10
30.17731665912247
 20
-29.33188471488912
 30
0.0
 10
29.85621832586932
 20
-29.44763110374929
 30
0.0
 10
29.58302721482642
 20
-29.54753777039094
 30
0.0
 10
29.31018888156128
 20
-29.61749360370678
 30
0.0
 10
29.02165193718897
 20
-29.64744443703257
 30
0.0
 10
28.673530826165
 20
-29.68191082591294
 30
0.0
 10
28.32918443736225
 20
-29.77560860366719
 30
0.0
 10
27.97591277078386
 20
-29.67192721480434
 30
0.0
 10
27.87769943747503
 20
-29.64264665925591
 30
0.0
 10
27.77091360416833
 20
-29.67605471480331
 30
0.0
 10
27.6903038819662
 20
-29.73532138145505
 30
0.0
 10
27.51719582645415
 20
-29.86380304808959
 30
0.0
 10
27.36059777093766
 20
-29.8290191592093
 30
0.0
 10
27.18248027098223
 20
-29.74047193700947
 30
0.0
 10
26.88501804883428
 20
-29.59301082593502
 30
0.0
 10
26.55686416002751
 20
-29.54926638150158
 30
0.0
 10
26.26628110454462
 20
-29.71877610368131
 30
0.0
 10
25.89558221574842
 20
-29.93407638140536
 30
0.0
 10
25.499377493625
 20
-29.96233388139834
 30
0.0
 10
25.09477666039291
 20
-29.97094165917405
 30
0.0
 10
24.56042416052659
 20
-29.98127804806009
 30
0.0
 10
24.02504860510484
 20
-29.97542193695046
 30
0.0
 10
23.49073138301636
 20
-29.97231749250694
 30
0.0
 10
23.18444971642599
 20
-29.97094165917405
 30
0.0
 10
22.8818016609461
 20
-29.98096054806017
 30
0.0
 10
22.57950638324398
 20
-30.04156777026726
 30
0.0
 10
22.30786749442317
 20
-30.09635415914258
 30
0.0
 10
22.03051360560345
 20
-30.11014777025023
 30
0.0
 10
21.75629943900543
 20
-30.05846582581876
 30
0.0
 10
21.31462166133793
 20
-29.97510443695055
 30
0.0
 10
20.90896249477288
 20
-29.78559221477579
 30
0.0
 10
20.4967769393202
 20
-29.6161177703739
 30
0.0
 10
20.42064749489481
 20
-29.58475582593707
 30
0.0
 10
20.33037166158401
 20
-29.51412971484353
 30
0.0
 10
20.26644832826666
 20
-29.55170054816775
 30
0.0
 10
20.09231721719915
 20
-29.65435888147516
 30
0.0
 10
19.9376241616822
 20
-29.56030832594314
 30
0.0
 10
19.77880360616627
 20
-29.53444971483849
 30
0.0
 10
19.3733208284901
 20
-29.46692804818881
 30
0.0
 10
18.96850832859129
 20
-29.39736027042856
 30
0.0
 10
18.55787499536038
 20
-29.38116777043258
 30
0.0
 10
17.46750944007743
 20
-29.33569471488817
 30
0.0
 10
16.40744749589804
 20
-29.52344304817477
 30
0.0
 10
15.35546416282771
 20
-29.78665054810875
 30
0.0
 10
14.4320330519476
 20
-30.01814332582878
 30
0.0
 10
13.53594221883824
 20
-30.3433691590809
 30
0.0
 10
12.61353416351325
 20
-30.57764888124454
 30
0.0
 10
11.961883052565
 20
-30.74232554787009
 30
0.0
 10
11.30783305272874
 20
-30.81189332563034
 30
0.0
 10
10.65018471955982
 20
-30.6044952701268
 30
0.0
 10
10.53613166403277
 20
-30.56798277013587
 30
0.0
 10
10.41763360850683
 20
-30.56487832569202
 30
0.0
 10
10.30185194186913
 20
-30.59588749235109
 30
0.0
 10
10.09515944192079
 20
-30.65067388122608
 30
0.0
 10
9.908610553078525
 20
-30.62622638123248
 30
0.0
 10
9.74308721978641
 20
-30.48049388126867
 30
0.0
 10
9.681915553135152
 20
-30.42606027017112
 30
0.0
 10
9.604939442043197
 20
-30.39296971462396
 30
0.0
 10
9.52499999761875
 20
-30.36679360351939
 30
0.0
 10
8.920903331102986
 20
-30.17354193690094
 30
0.0
 10
8.317335831253866
 20
-29.98025499250496
 30
0.0
 10
7.714614998071307
 20
-29.78319332588746
 30
0.0
 10
6.873839720503897
 20
-29.50897915928944
 30
0.0
 10
6.029607220714873
 20
-29.46004888152374
 30
0.0
 10
5.166430554264102
 20
-29.68776693702256
 30
0.0
 10
4.721507221041708
 20
-29.8062649925485
 30
0.0
 10
4.4343461100026
 20
-30.08979249247744
 30
0.0
 10
4.206804443392665
 20
-30.46017388127372
 30
0.0
 10
4.180628332288091
 20
-30.50321277015196
 30
0.0
 10
4.155475276738962
 20
-30.56075082569304
 30
0.0
 10
4.160978610070821
 20
-30.60830527012585
 30
0.0
 10
4.181298610065774
 20
-30.80706027007616
 30
0.0
 10
4.084319998978787
 20
-30.95797860337159
 30
0.0
 10
3.982190832337701
 20
-31.10988471444461
 30
0.0
 10
3.943244165680921
 20
-31.16812832554122
 30
0.0
 10
3.910541665689044
 20
-31.23219276996961
 30
0.0
 10
3.884506665695511
 20
-31.29731554773128
 30
0.0
 10
3.797194165717519
 20
-31.51882471434239
 30
0.0
 10
3.83113138793124
 20
-31.65044610319863
 30
0.0
 10
4.014399443440776
 20
-31.80820832538127
 30
0.0
 10
4.05161749898723
 20
-31.84129888092843
 30
0.0
 10
4.078146387869245
 20
-31.87435415869807
 30
0.0
 10
4.08520194342319
 20
-31.92466026979665
 30
0.0
 10
4.123619443413648
 20
-32.18857332528615
 30
0.0
 10
4.303959443368534
 20
-32.32809693636257
 30
0.0
 10
4.528043887756856
 20
-32.42902665855933
 30
0.0
 10
4.736817776593603
 20
-32.52342999186911
 30
0.0
 10
4.946120832096672
 20
-32.61645749184601
 30
0.0
 10
5.154048054267178
 20
-32.71117832515538
 30
0.0
 10
5.240690276467487
 20
-32.75114804736793
 30
0.0
 10
5.329378609778685
 20
-32.77559554736153
 30
0.0
 10
5.423958331977344
 20
-32.78628471402565
 30
0.0
 10
6.055289442930645
 20
-32.85588776956374
 30
0.0
 10
6.677448331664073
 20
-32.96888249175782
 30
0.0
 10
7.291387498177071
 20
-33.13391193616081
 30
0.0
 10
7.89410833135995
 20
-33.29650721389796
 30
0.0
 10
8.508188608983989
 20
-33.40537443609307
 30
0.0
 10
9.135004164383034
 20
-33.37401249165656
 30
0.0
 10
9.59784860871173
 20
-33.35023526944031
 30
0.0
 10
10.05931721970754
 20
-33.30546776945143
 30
0.0
 10
10.52096221959192
 20
-33.26204082501792
 30
0.0
 10
10.84791666395469
 20
-33.23173721391437
 30
0.0
 10
11.17434194165082
 20
-33.19451915836792
 30
0.0
 10
11.48923138601658
 20
-33.08773332506154
 30
0.0
 10
11.6719702748598
 20
-33.02571499174371
 30
0.0
 10
11.82288860815554
 20
-32.88135832511311
 30
0.0
 10
12.02150249699449
 20
-32.86347249178401
 30
0.0
 10
12.33085333025056
 20
-32.83553249179127
 30
0.0
 10
12.63713499684062
 20
-32.7807813806938
 30
0.0
 10
12.95047221898462
 20
-32.77697138069474
 30
0.0
 10
13.90992194096685
 20
-32.76663499180838
 30
0.0
 10
14.8447477740666
 20
-32.92926554732337
 30
0.0
 10
15.76750860716935
 20
-33.17074193615167
 30
0.0
 10
16.59089194029677
 20
-33.3857247138758
 30
0.0
 10
17.39720082898414
 20
-33.66995776936026
 30
0.0
 10
18.24506693988334
 20
-33.78259971377658
 30
0.0
 10
18.65760527311346
 20
-33.8373861026519
 30
0.0
 10
19.0732480507871
 20
-33.86804249153288
 30
0.0
 10
19.49044305068284
 20
-33.8714997137545
 30
0.0
 10
19.57951943954964
 20
-33.87216999153186
 30
0.0
 10
19.66718471730539
 20
-33.86874804708841
 30
0.0
 10
19.67374638397053
 20
-34.00135721372192
 30
0.0
 10
19.68993888396651
 20
-34.31211915808872
 30
0.0
 10
19.71646777284853
 20
-34.62217554689999
 30
0.0
 10
19.73643499506604
 20
-34.93120888015613
 30
0.0
 10
19.79637193949545
 20
-35.8710088799211
 30
0.0
 10
19.9048863839128
 20
-36.8036122130214
 30
0.0
 10
20.16879943940231
 20
-37.71000415723928
 30
0.0
 10
20.30211416159102
 20
-38.16716887934724
 30
0.0
 10
20.45334999488669
 20
-38.62122915701135
 30
0.0
 10
20.74774305036862
 20
-39.00607443469297
 30
0.0
 10
20.86193721700671
 20
-39.15558165687766
 30
0.0
 10
20.93531499476601
 20
-39.31680110128192
 30
0.0
 10
20.97080443920182
 20
-39.49767026790344
 30
0.0
 10
21.06778305028849
 20
-39.98517387889247
 30
0.0
 10
21.26812555023841
 20
-40.42166582322771
 30
0.0
 10
21.58488471682586
 20
-40.80785165646502
 30
0.0
 10
21.8265727723212
 20
-41.10238582305799
 30
0.0
 10
22.10872443891725
 20
-41.36421748965877
 30
0.0
 10
22.30716193886764
 20
-41.6942763784654
 30
0.0
 10
22.44135860550077
 20
-41.91818443396516
 30
0.0
 10
22.59725110546172
 20
-42.12078471169172
 30
0.0
 10
22.8304724942924
 20
-42.25445221165884
 30
0.0
 10
22.99275027202962
 20
-42.34744443385789
 30
0.0
 10
23.05716749423577
 20
-42.49765721159779
 30
0.0
 10
23.0542394386808
 20
-42.68402971155118
 30
0.0
 10
23.05011193868183
 20
-42.91072471149423
 30
0.0
 10
23.12606499421834
 20
-43.1088094336675
 30
0.0
 10
23.28350971640138
 20
-43.27592026695858
 30
0.0
 10
23.47764332746392
 20
-43.48158971135179
 30
0.0
 10
23.64267277186723
 20
-43.70966054462837
 30
0.0
 10
23.80664388293726
 20
-43.94013026679296
 30
0.0
 10
24.29996832725838
 20
-44.63051637773095
 30
0.0
 10
24.88755499377825
 20
-45.23926971091265
 30
0.0
 10
25.5067858269567
 20
-45.81493248854623
 30
0.0
 10
25.84252443798374
 20
-46.12671748846815
 30
0.0
 10
26.24680777121623
 20
-46.35824554396601
 30
0.0
 10
26.57460888224525
 20
-46.67930859944101
 30
0.0
 10
27.02813999324303
 20
-47.12303248821939
 30
0.0
 10
27.50442527090162
 20
-47.54230887700353
 30
0.0
 10
27.96314221523134
 20
-47.9781305435611
 30
0.0
 10
28.81340721501887
 20
-48.78634443224767
 30
0.0
 10
29.87209332586538
 20
-49.14981137660137
 30
0.0
 10
30.9466191589301
 20
-49.48502082096177
 30
0.0
 10
31.26595360329477
 20
-49.58422193204853
 30
0.0
 10
31.5884277698808
 20
-49.65657665425239
 30
0.0
 10
31.87901082536368
 20
-49.83088415420877
 30
0.0
 10
31.97856471422756
 20
-49.89085637641602
 30
0.0
 10
32.09191221419908
 20
-49.93184915418369
 30
0.0
 10
32.20303721417148
 20
-49.96698582084142
 30
0.0
 10
32.44038610300113
 20
-50.04276248748905
 30
0.0
 10
32.66468221405618
 20
-50.14369220968645
 30
0.0
 10
32.87327971400404
 20
-50.27668943187557
 30
0.0
 10
33.11200443616658
 20
-50.42725498739323
 30
0.0
 10
33.36868554721326
 20
-50.51749554292587
 30
0.0
 10
33.6475563804769
 20
-50.54783443180758
 30
0.0
 10
33.79879221377256
 20
-50.56434443180348
 30
0.0
 10
33.92473388040773
 20
-50.62844415400939
 30
0.0
 10
34.03702304704629
 20
-50.73314859842768
 30
0.0
 10
34.28851832476136
 20
-50.96778109836908
 30
0.0
 10
34.48349860249013
 20
-51.24718109829904
 30
0.0
 10
34.67332832466513
 20
-51.52968554267318
 30
0.0
 10
34.92464721349099
 20
-51.90518220924572
 30
0.0
 10
35.17684804676125
 20
-52.27796248693065
 30
0.0
 10
35.47519131717469
 20
-52.62244998684413
 30
0.0
 10
35.94717269402233
 20
-53.16851470893032
 30
0.0
 10
36.54280267882655
 20
-53.59809220882266
 30
0.0
 10
36.94881461291276
 20
-54.20444665311572
 30
0.0
 10
36.98137600097094
 20
-54.25302415310333
 30
0.0
 10
37.02924794419407
 20
-54.29299387531587
 30
0.0
 10
37.0768023874253
 20
-54.23647887532991
 30
0.0
 10
37.26836071587157
 20
-54.01186526427463
 30
0.0
 10
37.53999959783037
 20
-53.87371748653173
 30
0.0
 10
37.72139792653585
 20
-53.64081359770098
 30
0.0
 10
37.96065276828746
 20
-53.334214431111
 30
0.0
 10
37.95461930947477
 20
-53.334214431111
 30
0.0
 10
38.32203735565671
 20
-53.48855470885019
 30
0.0
 10
38.43192763063095
 20
-53.5350508199494
 30
0.0
 10
38.46258401873773
 20
-53.60017359771107
 30
0.0
 10
38.46551207421859
 20
-53.71662554212612
 30
0.0
 10
38.49722776815354
 20
-54.76599831964204
 30
0.0
 10
38.33272652205067
 20
-55.79953137493879
 30
0.0
 10
38.23331374680912
 20
-56.83856776356835
 30
0.0
 10
38.16991958175978
 20
-57.50069637451368
 30
0.0
 10
38.14772986010367
 20
-58.17111526323512
 30
0.0
 10
38.34528541061916
 20
-58.81295915196366
 30
0.0
 10
38.64295929191375
 20
-59.7803463739436
 30
0.0
 10
38.86566789734309
 20
-60.76424359592009
 30
0.0
 10
39.08237928070321
 20
-61.75022220678498
 30
0.0
 10
39.37708982874008
 20
-63.08933137311657
 30
0.0
 10
39.62805593344851
 20
-64.43292081722522
 30
0.0
 10
39.48285260381962
 20
-65.81510415021289
 30
0.0
 10
39.42806621632845
 20
-66.33739165008221
 30
0.0
 10
39.31715288582475
 20
-66.84690859439964
 30
0.0
 10
39.10753332355637
 20
-67.3298966498344
 30
0.0
 10
39.06033067015461
 20
-67.43946942758438
 30
0.0
 10
38.99884150505667
 20
-67.53112109422808
 30
0.0
 10
38.89082095225695
 20
-67.61345942754117
 30
0.0
 10
38.57921234909563
 20
-67.8515138719257
 30
0.0
 10
38.22798680250058
 20
-68.03926220521262
 30
0.0
 10
37.95945236490702
 20
-68.335207482916
 30
0.0
 10
37.62113848464924
 20
-68.70830526060054
 30
0.0
 10
37.53999959783037
 20
-69.16511720493105
 30
0.0
 10
37.79389375801966
 20
-69.60196192704373
 30
0.0
 10
38.12582236066257
 20
-70.1731444269009
 30
0.0
 10
38.6017901262974
 20
-70.62170137123347
 30
0.0
 10
39.12354844631957
 20
-71.01822359335648
 30
0.0
 10
39.33680260754567
 20
-71.18050137109402
 30
0.0
 10
39.51696621406042
 20
-71.3682497043803
 30
0.0
 10
39.66460371029387
 20
-71.59011164876918
 30
0.0
 10
39.92640009250378
 20
-71.98215359311578
 30
0.0
 10
40.12607230963194
 20
-72.40834442634251
 30
0.0
 10
40.35654202597439
 20
-72.81724914846212
 30
0.0
 10
40.61837368596118
 20
-73.28510303723452
 30
0.0
 10
40.70723840591627
 20
-73.78188470377694
 30
0.0
 10
40.71415285018431
 20
-74.3059008147569
 30
0.0
 10
40.71757479454146
 20
-74.54843553691849
 30
0.0
 10
40.69072840633748
 20
-74.78543164797038
 30
0.0
 10
40.65901368492437
 20
-75.02454442568819
 30
0.0
 10
40.61491646382716
 20
-75.36042414782659
 30
0.0
 10
40.74237507168652
 20
-75.5412933144478
 30
0.0
 10
41.07585589651206
 20
-75.56574081444205
 30
0.0
 10
41.32978533447822
 20
-75.582991647771
 30
0.0
 10
41.58851255009976
 20
-75.59368081443512
 30
0.0
 10
41.84480559911674
 20
-75.56369470333117
 30
0.0
 10
42.1149275366698
 20
-75.53197998111722
 30
0.0
 10
42.27096114380016
 20
-75.38144970337707
 30
0.0
 10
42.31816387830947
 20
-75.11788942566501
 30
0.0
 10
42.34437419748279
 20
-74.97353275903441
 30
0.0
 10
42.37534808558147
 20
-74.82815303684869
 30
0.0
 10
42.37951086325305
 20
-74.68347887021785
 30
0.0
 10
42.39122308517646
 20
-74.27626748143071
 30
0.0
 10
42.43599165605741
 20
-73.87766387041928
 30
0.0
 10
42.53039391495926
 20
-73.48043609274075
 30
0.0
 10
42.61583669055721
 20
-73.11834498172057
 30
0.0
 10
42.72537418776268
 20
-72.74972748181244
 30
0.0
 10
42.57964169148062
 20
-72.37387803746215
 30
0.0
 10
42.5676119695653
 20
-72.34424470413596
 30
0.0
 10
42.58345276713218
 20
-72.30462775970182
 30
0.0
 10
42.58549780244233
 20
-72.26878553748857
 30
0.0
 10
42.6123805449022
 20
-71.83610359315206
 30
0.0
 10
42.69404752189521
 20
-71.3961544265952
 30
0.0
 10
42.6523491896257
 20
-70.96999887114663
 30
0.0
 10
42.58070002478695
 20
-70.2392902602177
 30
0.0
 10
42.62169280151892
 20
-69.50618276040139
 30
0.0
 10
42.5293708594298
 20
-68.77649720502822
 30
0.0
 10
42.44840836149532
 20
-68.13056109407854
 30
0.0
 10
42.41256614018751
 20
-67.4797919275747
 30
0.0
 10
42.29371530988632
 20
-66.8375952610684
 30
0.0
 10
42.18932836810501
 20
-66.27089303898765
 30
0.0
 10
42.1369761472184
 20
-65.69660609468696
 30
0.0
 10
42.11559781443047
 20
-65.1219663726085
 30
0.0
 10
42.07806225983253
 20
-64.12942609507877
 30
0.0
 10
42.12491114752621
 20
-63.13688581754906
 30
0.0
 10
42.22517058941282
 20
-62.15055442890705
 30
0.0
 10
42.40222975156233
 20
-60.40941970711962
 30
0.0
 10
42.55036113667207
 20
-58.66722665200017
 30
0.0
 10
42.64063696770228
 20
-56.91988304132568
 30
0.0
 10
42.678525300069
 20
-56.17675665262261
 30
0.0
 10
42.74604696501304
 20
-55.43295998614155
 30
0.0
 10
42.89005085022809
 20
-54.69914693076973
 30
0.0
 10
42.93623054482176
 20
-54.46352665305072
 30
0.0
 10
42.94106251559334
 20
-54.45731776416366
 30
0.0
 10
43.18772473152269
 20
-54.46042220860719
 30
0.0
 10
43.38718528198957
 20
-54.46352665305072
 30
0.0
 10
43.58735138799403
 20
-54.46179804194008
 30
0.0
 10
43.78645916069214
 20
-54.46144526416231
 30
0.0
 10
44.09446943061192
 20
-54.46042220860719
 30
0.0
 10
44.32529192472315
 20
-54.32848331975136
 30
0.0
 10
44.48859275389033
 20
-54.06629887537218
 30
0.0
 10
44.66808608264441
 20
-53.77726804211139
 30
0.0
 10
44.83445607839995
 20
-53.47648970885319
 30
0.0
 10
45.06185662815404
 20
-53.22259554225012
 30
0.0
 10
45.63028744698549
 20
-52.58593748685352
 30
0.0
 10
45.84008438607757
 20
-51.81801082037909
 30
0.0
 10
45.92312827284783
 20
-50.99430998725174
 30
0.0
 10
45.97135299383974
 20
-50.50613609848439
 30
0.0
 10
45.92796132828009
 20
-50.02141943193897
 30
0.0
 10
45.92312827284783
 20
-49.53497415428291
 30
0.0
 10
45.91346216198333
 20
-48.6151060989573
 30
0.0
 10
46.07951465774698
 20
-47.70836137696197
 30
0.0
 10
46.23456048712476
 20
-46.80884859940883
 30
0.0
 10
46.35824437285821
 20
-46.0970841551426
 30
0.0
 10
46.43162214876396
 20
-45.39325721087408
 30
0.0
 10
46.41232520481183
 20
-44.67531915549767
 30
0.0
 10
46.41059659374481
 20
-44.60469304440446
 30
0.0
 10
46.41024381597604
 20
-44.53304387775548
 30
0.0
 10
46.42128576013878
 20
-44.46446387777252
 30
0.0
 10
46.53428047947827
 20
-43.78095693349894
 30
0.0
 10
46.65969297627873
 20
-43.09953137811379
 30
0.0
 10
46.74305554386979
 20
-42.41221443384116
 30
0.0
 10
46.80471991702323
 20
-41.90477887841278
 30
0.0
 10
46.87982630399599
 20
-41.39766082298401
 30
0.0
 10
46.80196943274377
 20
-40.88606248977818
 30
0.0
 10
46.70308464183838
 20
-40.23698665660746
 30
0.0
 10
46.71962991919406
 20
-39.58621749010361
 30
0.0
 10
46.77543936221468
 20
-38.93682415693232
 30
0.0
 10
46.82091241661012
 20
-38.41972249039495
 30
0.0
 10
46.82366408320659
 20
-37.90671304607903
 30
0.0
 10
46.77335797337889
 20
-37.39098721287454
 30
0.0
 10
46.73582241878095
 20
-37.00032110186115
 30
0.0
 10
46.66865353160568
 20
-36.61275943529127
 30
0.0
 10
46.71412776609913
 20
-36.21486137983505
 30
0.0
 10
46.75339075166607
 20
-35.88102776880753
 30
0.0
 10
46.75547214050187
 20
-35.54511276889161
 30
0.0
 10
46.57492047844146
 20
-35.23713776896843
 30
0.0
 10
46.52807159074778
 20
-35.1565280467663
 30
0.0
 10
46.55565881226619
 20
-35.07725888011954
 30
0.0
 10
46.62455631050847
 20
-35.01492304680179
 30
0.0
 10
46.75268519612852
 20
-34.89882388016418
 30
0.0
 10
46.7709590845512
 20
-34.75481999131134
 30
0.0
 10
46.73374102994516
 20
-34.59529388024021
 30
0.0
 10
46.71342221054361
 20
-34.50953360248366
 30
0.0
 10
46.68897353108727
 20
-34.42409082472736
 30
0.0
 10
46.67726130916385
 20
-34.33727221363785
 30
0.0
 10
46.64970936542232
 20
-34.1350247136884
 30
0.0
 10
46.54669825693924
 20
-33.94829943595725
 30
0.0
 10
46.57149853408431
 20
-33.7343749915664
 30
0.0
 10
46.61661881071097
 20
-33.34233304722012
 30
0.0
 10
46.8374576939658
 20
-33.0463877695161
 30
0.0
 10
47.09512776600386
 20
-32.7780297140277
 30
0.0
 10
47.66772017278403
 20
-32.18201165862101
 30
0.0
 10
48.10421210609264
 20
-31.49952776990288
 30
0.0
 10
48.44390181964866
 20
-30.75058054786804
 30
0.0
 10
48.57792209400729
 20
-30.45569360349731
 30
0.0
 10
48.73568431220466
 20
-30.17594082578927
 30
0.0
 10
48.90896875222825
 20
-29.90102110363572
 30
0.0
 10
49.25659720990807
 20
-29.35015860377351
 30
0.0
 10
49.61420678979169
 20
-28.80546971502084
 30
0.0
 10
49.96560872527112
 20
-28.25735888182439
 30
0.0
 10
50.52130554292492
 20
-27.39093665981905
 30
0.0
 10
50.86889620222634
 20
-26.42527804894911
 30
0.0
 10
51.22925869303273
 20
-25.46992054918801
 30
0.0
 10
51.49486507514543
 20
-24.76782221603014
 30
0.0
 10
51.73429534681483
 20
-24.05401166065302
 30
0.0
 10
51.88934117619262
 20
-23.31571832750446
 30
0.0
 10
51.99545672904094
 20
-22.8144563831853
 30
0.0
 10
52.09261172656231
 20
-22.31457027219903
 30
0.0
 10
52.02300867278247
 20
-21.79919721677231
 30
0.0
 10
51.99337534020516
 20
-21.58110999460465
 30
0.0
 10
52.02921756151297
 20
-21.38337805020978
 30
0.0
 10
52.16217950256527
 20
-21.2007802724776
 30
0.0
 10
52.25174977805791
 20
-21.07776666139708
 30
0.0
 10
52.32100005406897
 20
-20.93997166143163
 30
0.0
 10
52.39610644104174
 20
-20.80700971702035
 30
0.0
 10
52.7306455991736
 20
-20.21547193939071
 30
0.0
 10
53.08617503454773
 20
-19.64531249508867
 30
0.0
 10
53.67287974180187
 20
-19.25979693962937
 30
0.0
 10
54.0666502873115
 20
-19.0010697174718
 30
0.0
 10
54.47315611027401
 20
-18.76749555086369
 30
0.0
 10
54.8996644327262
 20
-18.56768221758042
 30
0.0
 10
55.55353802715561
 20
-18.2617533287678
 30
0.0
 10
56.21774801021021
 20
-17.9761797177283
 30
0.0
 10
56.83923660546582
 20
-17.60375221782144
 30
0.0
 10
57.77286297053592
 20
-17.04459944018344
 30
0.0
 10
58.61794211564282
 20
-16.35491888480001
 30
0.0
 10
59.53950348102072
 20
-15.77855055161091
 30
0.0
 10
60.21715429706574
 20
-15.35444110727259
 30
0.0
 10
60.89275900205185
 20
-14.93036694071179
 30
0.0
 10
61.66685926008068
 20
-14.69125416299397
 30
0.0
 10
62.14229785906235
 20
-14.54449860747505
 30
0.0
 10
62.60461312504548
 20
-14.35156444085652
 30
0.0
 10
62.90158145080252
 20
-13.9230099965193
 30
0.0
 10
63.21819949828048
 20
-13.46757388552199
 30
0.0
 10
63.59027421101028
 20
-13.07136916339889
 30
0.0
 10
63.98990086748162
 20
-12.68553610793967
 30
0.0
 10
64.8980213998691
 20
-11.80909499704757
 30
0.0
 10
65.68969165024437
 20
-10.81828333062882
 30
0.0
 10
66.62264607809247
 20
-9.963890830842322
 30
0.0
 10
67.35815244821703
 20
-9.290049997677428
 30
0.0
 10
68.00412382062582
 20
-8.52247610898044
 30
0.0
 10
68.77099213439472
 20
-7.878233331363893
 30
0.0
 10
68.94529962994775
 20
-7.73218333140017
 30
0.0
 10
69.12447545870994
 20
-7.6512208314206
 30
0.0
 10
69.34598461972543
 20
-7.668789164749463
 30
0.0
 10
69.51306017101854
 20
-7.682229998079351
 30
0.0
 10
69.67498516688748
 20
-7.661204442529196
 30
0.0
 10
69.83278266286173
 20
-7.613332498096785
 30
0.0
 10
70.00984182501125
 20
-7.559921942554353
 30
0.0
 10
70.17864598737135
 20
-7.536850275893631
 30
0.0
 10
70.36399720463135
 20
-7.598515831433692
 30
0.0
 10
70.4935354237823
 20
-7.642260275867128
 30
0.0
 10
70.64029097559381
 20
-7.643988886977774
 30
0.0
 10
70.78224874974995
 20
-7.642613053644889
 30
0.0
 10
71.2342276271079
 20
-7.638450275868074
 30
0.0
 10
71.68691387096729
 20
-7.643283331422572
 30
0.0
 10
72.13892621513823
 20
-7.639508609201359
 30
0.0
 10
72.28913898908375
 20
-7.638450275868074
 30
0.0
 10
72.429332874396
 20
-7.662227498084319
 30
0.0
 10
72.56956387074676
 20
-7.712886386960661
 30
0.0
 10
72.8637805373395
 20
-7.819672220267363
 30
0.0
 10
73.16833174443146
 20
-7.837240553596226
 30
0.0
 10
73.47284951444034
 20
-7.778326664721935
 30
0.0
 10
73.69887423089618
 20
-7.735287775844021
 30
0.0
 10
73.75881117381151
 20
-7.544082220336136
 30
0.0
 10
73.6061995110383
 20
-7.372843887045764
 30
0.0
 10
73.49147618063179
 20
-7.243303887077939
 30
0.0
 10
73.3564328507437
 20
-7.144773053769507
 30
0.0
 10
73.17658674422086
 20
-7.118949720442374
 30
0.0
 10
72.9902142489756
 20
-7.090692220449393
 30
0.0
 10
72.80521942624328
 20
-7.055555553791667
 30
0.0
 10
72.62124398061104
 20
-7.018019998245613
 30
0.0
 10
72.4496528738776
 20
-6.984259164920451
 30
0.0
 10
72.27259371172808
 20
-6.96700833159151
 30
0.0
 10
72.07690788338711
 20
-6.86674888717211
 30
0.0
 10
72.26603204522881
 20
-6.868477498282757
 30
0.0
 10
72.41109426375019
 20
-6.853343331620063
 30
0.0
 10
72.55714426002415
 20
-6.835774998291201
 30
0.0
 10
73.2358534093755
 20
-6.753083887200664
 30
0.0
 10
73.90902394775705
 20
-6.730682498317304
 30
0.0
 10
74.56427337548469
 20
-6.997347220472898
 30
0.0
 10
74.83058531313495
 20
-7.105861664890247
 30
0.0
 10
75.12236780569096
 20
-7.130661942661936
 30
0.0
 10
75.41418557602384
 20
-7.112388053777551
 30
0.0
 10
75.60743723776024
 20
-7.100005553780626
 30
0.0
 10
75.76488195596572
 20
-7.038657498240487
 30
0.0
 10
75.8637655645541
 20
-6.855742220508391
 30
0.0
 10
75.93093445172937
 20
-6.730682498317304
 30
0.0
 10
75.92370250746943
 20
-6.654553053891911
 30
0.0
 10
75.76590501149518
 20
-6.641464998339784
 30
0.0
  0
HATCH
  5
42
330
1F
100
AcDbEntity
  8
Layer 1
 62
   250
100
AcDbHatch
 10
0.0
 20
0.0
 30
0.0
210
0.0
220
0.0
230
1.0
  2
SOLID
 70
     1
 71
     0
 91
        1
 92
        1
 93
        1
 72
     4
 94
        3
 73
     0
 74
     1
 95
      887
 96
      883
 40
0.0
 40
0.0
 40
0.0
 40
0.0
 40
1.0
 40
1.0
 40
1.0
 40
2.0
 40
2.0
 40
2.0
 40
3.0
 40
3.0
 40
3.0
 40
4.0
 40
4.0
 40
4.0
 40
5.0
 40
5.0
 40
5.0
 40
6.0
 40
6.0
 40
6.0
 40
7.0
 40
7.0
 40
7.0
 40
8.0
 40
8.0
 40
8.0
 40
9.0
 40
9.0
 40
9.0
 40
10.0
 40
10.0
 40
10.0
 40
11.0
 40
11.0
 40
11.0
 40
12.0
 40
12.0
 40
12.0
 40
13.0
 40
13.0
 40
13.0
 40
14.0
 40
14.0
 40
14.0
 40
15.0
 40
15.0
 40
15.0
 40
16.0
 40
16.0
 40
16.0
 40
17.0
 40
17.0
 40
17.0
 40
18.0
 40
18.0
 40
18.0
 40
19.0
 40
19.0
 40
19.0
 40
20.0
 40
20.0
 40
20.0
 40
21.0
 40
21.0
 40
21.0
 40
22.0
 40
22.0
 40
22.0
 40
23.0
 40
23.0
 40
23.0
 40
24.0
 40
24.0
 40
24.0
 40
25.0
 40
25.0
 40
25.0
 40
26.0
 40
26.0
 40
26.0
 40
27.0
 40
27.0
 40
27.0
 40
28.0
 40
28.0
 40
28.0
 40
29.0
 40
29.0
 40
29.0
 40
30.0
 40
30.0
 40
30.0
 40
31.0
 40
31.0
 40
31.0
 40
32.0
 40
32.0
 40
32.0
 40
33.0
 40
33.0
 40
33.0
 40
34.0
 40
34.0
 40
34.0
 40
35.0
 40
35.0
 40
35.0
 40
36.0
 40
36.0
 40
36.0
 40
37.0
 40
37.0
 40
37.0
 40
38.0
 40
38.0
 40
38.0
 40
39.0
 40
39.0
 40
39.0
 40
40.0
 40
40.0
 40
40.0
 40
41.0
 40
41.0
 40
41.0
 40
42.0
 40
42.0
 40
42.0
 40
43.0
 40
43.0
 40
43.0
 40
44.0
 40
44.0
 40
44.0
 40
45.0
 40
45.0
 40
45.0
 40
46.0
 40
46.0
 40
46.0
 40
47.0
 40
47.0
 40
47.0
 40
48.0
 40
48.0
 40
48.0
 40
49.0
 40
49.0
 40
49.0
 40
50.0
 40
50.0
 40
50.0
 40
51.0
 40
51.0
 40
51.0
 40
52.0
 40
52.0
 40
52.0
 40
53.0
 40
53.0
 40
53.0
 40
54.0
 40
54.0
 40
54.0
 40
55.0
 40
55.0
 40
55.0
 40
56.0
 40
56.0
 40
56.0
 40
57.0
 40
57.0
 40
57.0
 40
58.0
 40
58.0
 40
58.0
 40
59.0
 40
59.0
 40
59.0
 40
60.0
 40
60.0
 40
60.0
 40
61.0
 40
61.0
 40
61.0
 40
62.0
 40
62.0
 40
62.0
 40
63.0
 40
63.0
 40
63.0
 40
64.0
 40
64.0
 40
64.0
 40
65.0
 40
65.0
 40
65.0
 40
66.0
 40
66.0
 40
66.0
 40
67.0
 40
67.0
 40
67.0
 40
68.0
 40
68.0
 40
68.0
 40
69.0
 40
69.0
 40
69.0
 40
70.0
 40
70.0
 40
70.0
 40
71.0
 40
71.0
 40
71.0
 40
72.0
 40
72.0
 40
72.0
 40
73.0
 40
73.0
 40
73.0
 40
74.0
 40
74.0
 40
74.0
 40
75.0
 40
75.0
 40
75.0
 40
76.0
 40
76.0
 40
76.0
 40
77.0
 40
77.0
 40
77.0
 40
78.0
 40
78.0
 40
78.0
 40
79.0
 40
79.0
 40
79.0
 40
80.0
 40
80.0
 40
80.0
 40
81.0
 40
81.0
 40
81.0
 40
82.0
 40
82.0
 40
82.0
 40
83.0
 40
83.0
 40
83.0
 40
84.0
 40
84.0
 40
84.0
 40
85.0
 40
85.0
 40
85.0
 40
86.0
 40
86.0
 40
86.0
 40
87.0
 40
87.0
 40
87.0
 40
88.0
 40
88.0
 40
88.0
 40
89.0
 40
89.0
 40
89.0
 40
90.0
 40
90.0
 40
90.0
 40
91.0
 40
91.0
 40
91.0
 40
92.0
 40
92.0
 40
92.0
 40
93.0
 40
93.0
 40
93.0
 40
94.0
 40
94.0
 40
94.0
 40
95.0
 40
95.0
 40
95.0
 40
96.0
 40
96.0
 40
96.0
 40
97.0
 40
97.0
 40
97.0
 40
98.0
 40
98.0
 40
98.0
 40
99.0
 40
99.0
 40
99.0
 40
100.0
 40
100.0
 40
100.0
 40
101.0
 40
101.0
 40
101.0
 40
102.0
 40
102.0
 40
102.0
 40
103.0
 40
103.0
 40
103.0
 40
104.0
 40
104.0
 40
104.0
 40
105.0
 40
105.0
 40
105.0
 40
106.0
 40
106.0
 40
106.0
 40
107.0
 40
107.0
 40
107.0
 40
108.0
 40
108.0
 40
108.0
 40
109.0
 40
109.0
 40
109.0
 40
110.0
 40
110.0
 40
110.0
 40
111.0
 40
111.0
 40
111.0
 40
112.0
 40
112.0
 40
112.0
 40
113.0
 40
113.0
 40
113.0
 40
114.0
 40
114.0
 40
114.0
 40
115.0
 40
115.0
 40
115.0
 40
116.0
 40
116.0
 40
116.0
 40
117.0
 40
117.0
 40
117.0
 40
118.0
 40
118.0
 40
118.0
 40
119.0
 40
119.0
 40
119.0
 40
120.0
 40
120.0
 40
120.0
 40
121.0
 40
121.0
 40
121.0
 40
122.0
 40
122.0
 40
122.0
 40
123.0
 40
123.0
 40
123.0
 40
124.0
 40
124.0
 40
124.0
 40
125.0
 40
125.0
 40
125.0
 40
126.0
 40
126.0
 40
126.0
 40
127.0
 40
127.0
 40
127.0
 40
128.0
 40
128.0
 40
128.0
 40
129.0
 40
129.0
 40
129.0
 40
130.0
 40
130.0
 40
130.0
 40
131.0
 40
131.0
 40
131.0
 40
132.0
 40
132.0
 40
132.0
 40
133.0
 40
133.0
 40
133.0
 40
134.0
 40
134.0
 40
134.0
 40
135.0
 40
135.0
 40
135.0
 40
136.0
 40
136.0
 40
136.0
 40
137.0
 40
137.0
 40
137.0
 40
138.0
 40
138.0
 40
138.0
 40
139.0
 40
139.0
 40
139.0
 40
140.0
 40
140.0
 40
140.0
 40
141.0
 40
141.0
 40
141.0
 40
142.0
 40
142.0
 40
142.0
 40
143.0
 40
143.0
 40
143.0
 40
144.0
 40
144.0
 40
144.0
 40
145.0
 40
145.0
 40
145.0
 40
146.0
 40
146.0
 40
146.0
 40
147.0
 40
147.0
 40
147.0
 40
148.0
 40
148.0
 40
148.0
 40
149.0
 40
149.0
 40
149.0
 40
150.0
 40
150.0
 40
150.0
 40
151.0
 40
151.0
 40
151.0
 40
152.0
 40
152.0
 40
152.0
 40
153.0
 40
153.0
 40
153.0
 40
154.0
 40
154.0
 40
154.0
 40
155.0
 40
155.0
 40
155.0
 40
156.0
 40
156.0
 40
156.0
 40
157.0
 40
157.0
 40
157.0
 40
158.0
 40
158.0
 40
158.0
 40
159.0
 40
159.0
 40
159.0
 40
160.0
 40
160.0
 40
160.0
 40
161.0
 40
161.0
 40
161.0
 40
162.0
 40
162.0
 40
162.0
 40
163.0
 40
163.0
 40
163.0
 40
164.0
 40
164.0
 40
164.0
 40
165.0
 40
165.0
 40
165.0
 40
166.0
 40
166.0
 40
166.0
 40
167.0
 40
167.0
 40
167.0
 40
168.0
 40
168.0
 40
168.0
 40
169.0
 40
169.0
 40
169.0
 40
170.0
 40
170.0
 40
170.0
 40
171.0
 40
171.0
 40
171.0
 40
172.0
 40
172.0
 40
172.0
 40
173.0
 40
173.0
 40
173.0
 40
174.0
 40
174.0
 40
174.0
 40
175.0
 40
175.0
 40
175.0
 40
176.0
 40
176.0
 40
176.0
 40
177.0
 40
177.0
 40
177.0
 40
178.0
 40
178.0
 40
178.0
 40
179.0
 40
179.0
 40
179.0
 40
180.0
 40
180.0
 40
180.0
 40
181.0
 40
181.0
 40
181.0
 40
182.0
 40
182.0
 40
182.0
 40
183.0
 40
183.0
 40
183.0
 40
184.0
 40
184.0
 40
184.0
 40
185.0
 40
185.0
 40
185.0
 40
186.0
 40
186.0
 40
186.0
 40
187.0
 40
187.0
 40
187.0
 40
188.0
 40
188.0
 40
188.0
 40
189.0
 40
189.0
 40
189.0
 40
190.0
 40
190.0
 40
190.0
 40
191.0
 40
191.0
 40
191.0
 40
192.0
 40
192.0
 40
192.0
 40
193.0
 40
193.0
 40
193.0
 40
194.0
 40
194.0
 40
194.0
 40
195.0
 40
195.0
 40
195.0
 40
196.0
 40
196.0
 40
196.0
 40
197.0
 40
197.0
 40
197.0
 40
198.0
 40
198.0
 40
198.0
 40
199.0
 40
199.0
 40
199.0
 40
200.0
 40
200.0
 40
200.0
 40
201.0
 40
201.0
 40
201.0
 40
202.0
 40
202.0
 40
202.0
 40
203.0
 40
203.0
 40
203.0
 40
204.0
 40
204.0
 40
204.0
 40
205.0
 40
205.0
 40
205.0
 40
206.0
 40
206.0
 40
206.0
 40
207.0
 40
207.0
 40
207.0
 40
208.0
 40
208.0
 40
208.0
 40
209.0
 40
209.0
 40
209.0
 40
210.0
 40
210.0
 40
210.0
 40
211.0
 40
211.0
 40
211.0
 40
212.0
 40
212.0
 40
212.0
 40
213.0
 40
213.0
 40
213.0
 40
214.0
 40
214.0
 40
214.0
 40
215.0
 40
215.0
 40
215.0
 40
216.0
 40
216.0
 40
216.0
 40
217.0
 40
217.0
 40
217.0
 40
218.0
 40
218.0
 40
218.0
 40
219.0
 40
219.0
 40
219.0
 40
220.0
 40
220.0
 40
220.0
 40
221.0
 40
221.0
 40
221.0
 40
222.0
 40
222.0
 40
222.0
 40
223.0
 40
223.0
 40
223.0
 40
224.0
 40
224.0
 40
224.0
 40
225.0
 40
225.0
 40
225.0
 40
226.0
 40
226.0
 40
226.0
 40
227.0
 40
227.0
 40
227.0
 40
228.0
 40
228.0
 40
228.0
 40
229.0
 40
229.0
 40
229.0
 40
230.0
 40
230.0
 40
230.0
 40
231.0
 40
231.0
 40
231.0
 40
232.0
 40
232.0
 40
232.0
 40
233.0
 40
233.0
 40
233.0
 40
234.0
 40
234.0
 40
234.0
 40
235.0
 40
235.0
 40
235.0
 40
236.0
 40
236.0
 40
236.0
 40
237.0
 40
237.0
 40
237.0
 40
238.0
 40
238.0
 40
238.0
 40
239.0
 40
239.0
 40
239.0
 40
240.0
 40
240.0
 40
240.0
 40
241.0
 40
241.0
 40
241.0
 40
242.0
 40
242.0
 40
242.0
 40
243.0
 40
243.0
 40
243.0
 40
244.0
 40
244.0
 40
244.0
 40
245.0
 40
245.0
 40
245.0
 40
246.0
 40
246.0
 40
246.0
 40
247.0
 40
247.0
 40
247.0
 40
248.0
 40
248.0
 40
248.0
 40
249.0
 40
249.0
 40
249.0
 40
250.0
 40
250.0
 40
250.0
 40
251.0
 40
251.0
 40
251.0
 40
252.0
 40
252.0
 40
252.0
 40
253.0
 40
253.0
 40
253.0
 40
254.0
 40
254.0
 40
254.0
 40
255.0
 40
255.0
 40
255.0
 40
256.0
 40
256.0
 40
256.0
 40
257.0
 40
257.0
 40
257.0
 40
258.0
 40
258.0
 40
258.0
 40
259.0
 40
259.0
 40
259.0
 40
260.0
 40
260.0
 40
260.0
 40
261.0
 40
261.0
 40
261.0
 40
262.0
 40
262.0
 40
262.0
 40
263.0
 40
263.0
 40
263.0
 40
264.0
 40
264.0
 40
264.0
 40
265.0
 40
265.0
 40
265.0
 40
266.0
 40
266.0
 40
266.0
 40
267.0
 40
267.0
 40
267.0
 40
268.0
 40
268.0
 40
268.0
 40
269.0
 40
269.0
 40
269.0
 40
270.0
 40
270.0
 40
270.0
 40
271.0
 40
271.0
 40
271.0
 40
272.0
 40
272.0
 40
272.0
 40
273.0
 40
273.0
 40
273.0
 40
274.0
 40
274.0
 40
274.0
 40
275.0
 40
275.0
 40
275.0
 40
276.0
 40
276.0
 40
276.0
 40
277.0
 40
277.0
 40
277.0
 40
278.0
 40
278.0
 40
278.0
 40
279.0
 40
279.0
 40
279.0
 40
280.0
 40
280.0
 40
280.0
 40
281.0
 40
281.0
 40
281.0
 40
282.0
 40
282.0
 40
282.0
 40
283.0
 40
283.0
 40
283.0
 40
284.0
 40
284.0
 40
284.0
 40
285.0
 40
285.0
 40
285.0
 40
286.0
 40
286.0
 40
286.0
 40
287.0
 40
287.0
 40
287.0
 40
288.0
 40
288.0
 40
288.0
 40
289.0
 40
289.0
 40
289.0
 40
290.0
 40
290.0
 40
290.0
 40
291.0
 40
291.0
 40
291.0
 40
292.0
 40
292.0
 40
292.0
 40
293.0
 40
293.0
 40
293.0
 40
294.0
 40
294.0
 40
294.0
 40
294.0
 10
75.76590501149518
 20
-6.641464998339784
 10
75.62744164775995
 20
-6.630423053897904
 10
75.61675057085597
 20
-6.574613609467464
 10
75.67771056930076
 20
-6.457138609496964
 10
75.79211639971535
 20
-6.240462498440029
 10
75.75694445616821
 20
-6.184300276231827
 10
75.51440974013357
 20
-6.187581109564238
 10
75.02108530827488
 20
-6.195130554006665
 10
74.5277608764162
 20
-6.184653054009268
 10
74.03648255561642
 20
-6.149339998462661
 10
73.8180444259898
 20
-6.134346942911009
 10
73.62306228838587
 20
-6.043894720711324
 10
73.3908639609764
 20
-5.928994998517712
 10
73.62789720381551
 20
-5.882146109640424
 10
73.82082950556263
 20
-5.846515554093897
 10
74.01372838953026
 20
-5.806369442992794
 10
74.44990282284697
 20
-5.715070554126867
 10
74.89704864477265
 20
-5.673548609692879
 10
75.31667780073369
 20
-5.508871943067328
 10
75.42829668677494
 20
-5.464951109745011
 10
75.52957918419101
 20
-5.408612498647929
 10
75.5922677937028
 20
-5.300803609785783
 10
75.64807723672344
 20
-5.204848054254239
 10
75.68187334697234
 20
-5.091500554282714
 10
75.62948584830885
 20
-5.000025276527906
 10
75.58471834945097
 20
-4.921673332103065
 10
75.4772269633044
 20
-4.983162498754245
 10
75.39799307643695
 20
-4.979705276532953
 10
75.38074224354372
 20
-4.978505832088628
 10
75.36285831449277
 20
-4.98161027653248
 10
75.34560557777345
 20
-4.98453833208713
 10
74.46574442582828
 20
-5.141806665381294
 10
73.58171673388513
 20
-5.232576387580899
 10
72.6846381456604
 20
-5.207423332031449
 10
72.12171066002188
 20
-5.192465554257315
 10
71.56428650757628
 20
-5.255824443130502
 10
71.01822179928533
 20
-5.434118331974821
 10
70.51075276014996
 20
-5.600347220822136
 10
69.97953821467324
 20
-5.694926943020794
 10
69.44349239501558
 20
-5.712812776349579
 10
69.01973573915984
 20
-5.727488331901311
 10
68.63732463780485
 20
-5.838578054095868
 10
68.2783379802967
 20
-6.060439998484743
 10
67.6968191062436
 20
-6.419603053950589
 10
67.17661300840405
 20
-6.861951109395774
 10
66.62881968904608
 20
-7.266410831516822
 10
65.38517222077418
 20
-8.183809442398427
 10
64.10151975352288
 20
-9.044410831072309
 10
62.83095534149323
 20
-9.923250830852416
 10
61.92558647570223
 20
-10.54957249736266
 10
61.0550014979127
 20
-11.21618138608473
 10
60.3125806835201
 20
-12.0361427747687
 10
60.16720096500682
 20
-12.1970094413952
 10
60.00873319127189
 20
-12.34962110802375
 10
59.8406360961511
 20
-12.48572277465639
 10
59.05443404895143
 20
-13.12238083005267
 10
58.18250851564054
 20
-13.63983527436781
 10
57.36427575873763
 20
-14.23066749644224
 10
56.80618132853135
 20
-14.63406888523033
 10
56.19915662179562
 20
-14.83800971851258
 10
55.52803219447299
 20
-14.92451082960217
 10
54.5137961092372
 20
-15.05472110734735
 10
53.50541613496311
 20
-15.21904499619514
 10
52.54286199285325
 20
-15.58836805165847
 10
51.95065395240618
 20
-15.81573332937952
 10
51.3525898009974
 20
-16.02450721821594
 10
50.7331473168007
 20
-16.17161555151263
 10
50.0848123333411
 20
-16.32666138480735
 10
49.45880818264513
 20
-16.24224166260617
 10
48.85146597591749
 20
-16.01660499599576
 10
48.27957793495202
 20
-15.80264527382707
 10
48.00980877516773
 20
-15.31447138506036
 10
47.82308350215371
 20
-14.76879471853009
 10
47.6745993392752
 20
-14.33607749641606
 10
47.5857346193201
 20
-13.88441610763996
 10
47.3928004575756
 20
-13.46549249663358
 10
47.32803045922802
 20
-13.32459305222428
 10
47.34870323647839
 20
-13.17850777448303
 10
47.45757045592318
 20
-13.05450638562523
 10
47.92680016617435
 20
-12.52361110798021
 10
48.49385515170757
 20
-12.14222305251988
 10
49.16977735668559
 20
-11.92208971924165
 10
49.3141340196694
 20
-11.87524083036437
 10
49.4550334605192
 20
-11.81011805260301
 10
49.58661956827328
 20
-11.73469416373314
 10
49.83949067293311
 20
-11.59069027487999
 10
49.96007011430132
 20
-11.35849194160476
 10
49.87568567200969
 20
-11.09870638611423
 10
49.76748873032558
 20
-10.76730694175256
 10
49.74028956435283
 20
-10.43555471961345
 10
49.76198539713265
 20
-10.0931133308099
 10
49.77232178575784
 20
-9.933939997516536
 10
49.72099262040069
 20
-9.802671386438064
 10
49.54393345825117
 20
-9.758221386449426
 10
49.45365762722097
 20
-9.735149719788383
 10
49.45157623838519
 20
-9.685196386467563
 10
49.5012120704522
 20
-9.615946108707236
 10
49.53564443206027
 20
-9.569097219829949
 10
49.57042706868638
 20
-9.519849442064332
 10
49.59247567923499
 20
-9.466438886522221
 10
49.67897678813927
 20
-9.258017775463234
 10
49.62246178958109
 20
-9.146398886602356
 10
49.40610318398974
 20
-9.090906942171836
 10
49.31759124180343
 20
-9.067835275510793
 10
49.26485096537117
 20
-9.004441108860087
 10
49.23281874396616
 20
-8.928311664434695
 10
49.19630624489766
 20
-8.842198608900706
 10
49.28760513145733
 20
-8.823571942238559
 10
49.32686929712228
 20
-8.77947472002736
 10
49.37371943210113
 20
-8.72641694226269
 10
49.42815179453834
 20
-8.68164944227413
 10
49.47570623776958
 20
-8.629261942287142
 10
49.70998595401483
 20
-8.373991942350868
 10
49.66793609869386
 20
-8.134914442410572
 10
49.35720818523716
 20
-7.979515831338416
 10
49.11051069153093
 20
-7.855161664702851
 10
48.86282542007213
 20
-7.735958053621704
 10
48.6423393145861
 20
-7.56475499810885
 10
48.55174721008443
 20
-7.494799164793
 10
48.49110348511111
 20
-7.438319442584878
 10
48.54691292813173
 20
-7.345962220385667
 10
48.55104165452891
 20
-7.339788609276125
 10
48.6223368150964
 20
-7.216457498196004
 10
48.63267320372159
 20
-7.074852498231176
 10
48.63546014809493
 20
-7.038339998240565
 10
48.64131625905664
 20
-7.004896664915325
 10
48.64300959234677
 20
-6.981154720476921
 10
48.63546014809493
 20
-7.007683609359256
 10
48.61648070413469
 20
-7.035588331574475
 10
48.59411459359418
 20
-7.062787498234172
 10
48.45938876369799
 20
-7.254345831519819
 10
48.33503460020387
 20
-7.31050805372802
 10
48.29714626783715
 20
-7.108613331556337
 10
48.25061488013537
 20
-6.861598331618013
 10
48.20066154807645
 20
-6.612854720569041
 10
48.07147432915007
 20
-6.389264165069201
 10
47.75799721028287
 20
-5.847538609649341
 10
47.27705407163965
 20
-5.510776943066856
 10
46.73236519664692
 20
-5.232576387580899
 10
46.30070631877057
 20
-5.012795832080111
 10
45.80392466477786
 20
-4.986090554308896
 10
45.38567134211506
 20
-4.736817776593603
 10
45.34778300974834
 20
-4.71356972104368
 10
45.29543078886173
 20
-4.70788999882294
 10
45.24925217892874
 20
-4.705984998823412
 10
44.59054552906708
 20
-4.683618887717892
 10
43.93631915686889
 20
-4.683936387717814
 10
43.30276665584083
 20
-4.919768332103539
 10
42.57861863595117
 20
-5.189678609813705
 10
42.01085809488038
 20
-5.679051943024738
 10
41.46655832296658
 20
-6.200316387338924
 10
41.33183144553713
 20
-6.328656942862424
 10
41.23502922578454
 20
-6.462994720606585
 10
41.03729728638466
 20
-6.321566109530639
 10
41.01179145370203
 20
-6.303503887312973
 10
40.96667221198063
 20
-6.301951665091209
 10
40.9339334001328
 20
-6.30798416508971
 10
40.78647229278373
 20
-6.336559165082613
 10
40.6562620183279
 20
-6.282478331762818
 10
40.52397035503628
 20
-6.233724442886004
 10
40.25353091749131
 20
-6.135899165132773
 10
39.97981064669672
 20
-6.165532498458639
 10
39.70852454250669
 20
-6.220989165111318
 10
39.59672926758105
 20
-6.243884442883481
 10
39.53351149141609
 20
-6.331232220639313
 10
39.48835593701256
 20
-6.433043887280477
 10
39.41808260547204
 20
-6.589783053907999
 10
39.38432177300002
 20
-6.757211387199638
 10
39.34763288504714
 20
-6.923263887158074
 10
39.30268899730487
 20
-7.123782775996871
 10
39.18366177811928
 20
-7.255368887074942
 10
39.00021733835489
 20
-7.33841277594324
 10
38.92027789594988
 20
-7.373866942600887
 10
38.84033845354486
 20
-7.412460831480225
 10
38.7669606776391
 20
-7.459662498134954
 10
38.71185679015603
 20
-7.495151942570762
 10
38.67051123565529
 20
-7.549938331445757
 10
38.68670373524218
 20
-7.623316109205381
 10
38.70254443476868
 20
-7.694259720298514
 10
38.75422540018623
 20
-7.726997498068232
 10
38.82157067624588
 20
-7.74629444250774
 10
39.04791387912687
 20
-7.811064442491652
 10
39.13557816823489
 20
-7.963005831342516
 10
39.03172039310675
 20
-8.182116109065621
 10
38.90630789630628
 20
-8.44669944233281
 10
38.9097651184403
 20
-8.716433331154095
 10
38.92475817361336
 20
-8.992376108863084
 10
38.92733345132543
 20
-9.045433886627432
 10
38.93114443471158
 20
-9.094011386615367
 10
38.91184650727609
 20
-9.147774719935239
 10
38.82019484294765
 20
-9.40166888653863
 10
38.95283928400806
 20
-9.661419164251319
 10
39.21604677729307
 20
-9.744780553119217
 10
38.99986456058612
 20
-9.864336941978445
 10
39.00744928261484
 20
-10.05487221970865
 10
39.0547920591848
 20
-10.25362721965896
 10
39.15575705660897
 20
-10.67667833066431
 10
39.43582732724156
 20
-10.97643360836707
 10
39.76172343003837
 20
-11.23618388607976
 10
40.18343397483519
 20
-11.57174610821824
 10
40.64867729629918
 20
-11.79015083038582
 10
41.20955867087879
 20
-11.69747610818669
 10
41.2963420019981
 20
-11.6840352748568
 10
41.36802644461372
 20
-11.71126971929434
 10
41.44140422051947
 20
-11.75674277483874
 10
41.589888383398
 20
-11.85008777481524
 10
41.66774643696723
 20
-11.81943138593393
 10
41.69805004730523
 20
-11.64304249708914
 10
41.7187228245556
 20
-11.52006416378678
 10
41.74906171267048
 20
-11.4036122193714
 10
41.81104476664471
 20
-11.29545055273181
 10
41.82759004400039
 20
-11.26581721940562
 10
41.84378254358728
 20
-11.21723971941801
 10
41.88477532031925
 20
-11.24754333052156
 10
41.97505115134945
 20
-11.3140419416158
 10
42.11386920336346
 20
-11.32815305272337
 10
42.13006170295036
 20
-11.47631971935302
 10
42.1672797575564
 20
-11.80842471927021
 10
42.33573114214774
 20
-12.07163221920419
 10
42.57378558051891
 20
-12.29451721914851
 10
42.70403113275162
 20
-12.41682527467351
 10
42.77155279769567
 20
-12.565626941303
 10
42.79772890813897
 20
-12.74134555237011
 10
42.86179443372885
 20
-13.16714833004155
 10
43.05747917928997
 20
-13.36283416332585
 10
43.48056665579667
 20
-13.415186385535
 10
43.58354138809123
 20
-13.42760416330977
 10
43.63970360888063
 20
-13.46584527441134
 10
43.67314694136076
 20
-13.55989582994336
 10
43.8615666557014
 20
-14.10835944091724
 10
43.85606221447198
 20
-14.64511082967221
 10
43.56632583297488
 20
-15.15773221843284
 10
43.38341055986366
 20
-15.48189971835168
 10
43.0747300121832
 20
-15.63419388498031
 10
42.71951807680097
 20
-15.65349082941982
 10
42.27544142146363
 20
-15.67691527385862
 10
41.82896587729862
 20
-15.66520305163938
 10
41.38386616643184
 20
-15.66001721830712
 10
40.78407340395605
 20
-15.65486666275302
 10
40.18703332328663
 20
-15.6696833294158
 10
39.59757593422612
 20
-15.80229249604931
 10
38.48276387926821
 20
-16.05378777376437
 10
37.38858737947101
 20
-16.36144527368731
 10
36.3745276831196
 20
-16.9064516624399
 10
36.04326935823737
 20
-17.08456916239566
 10
35.74354936588387
 20
-17.31472138456033
 10
35.39507548588529
 20
-17.46249999563437
 10
34.93067971348949
 20
-17.66023194002925
 10
34.43305138028051
 20
-17.72330860668035
 10
33.94642971373557
 20
-17.82938888443153
 10
32.98264082508764
 20
-18.04126721771181
 10
32.01542999199625
 20
-18.07848527325826
 10
31.0459966589051
 20
-17.86660693997766
 10
30.5884791590197
 20
-17.76602999555834
 10
30.12563471469068
 20
-17.7422527733421
 10
29.66261388147311
 20
-17.7977094399951
 10
29.28348360379039
 20
-17.8438880510947
 10
28.90315388166303
 20
-17.8710872177544
 10
28.52419999286887
 20
-17.905200828857
 10
27.29032443762189
 20
-18.01819555105109
 10
26.06110554904021
 20
-18.16322249545905
 10
24.83223943823629
 20
-18.31964416208665
 10
23.58598138299239
 20
-18.47673610649193
 10
22.34318054996977
 20
-18.66416693977828
 10
21.08468110583999
 20
-18.69962110643625
 10
20.42787943933764
 20
-18.71891805087575
 10
19.78053221727724
 20
-18.88772221750028
 10
19.11942666188671
 20
-18.8322655508476
 10
18.49137638426614
 20
-18.78128916197134
 10
17.86283221775645
 20
-18.82676221751542
 10
17.234605551247
 20
-18.79921027307796
 10
17.00896888463659
 20
-18.78989693974705
 10
16.8270413846821
 20
-18.86704943972757
 10
16.68254360694046
 20
-19.05070555079302
 10
16.58986888474133
 20
-19.16885082854121
 10
16.48202471810167
 20
-19.27736527295855
 10
16.31424360703258
 20
-19.30184805073
 10
15.89634305158133
 20
-19.36418388404774
 10
15.48034749612992
 20
-19.32283832850264
 10
15.06833832956612
 20
-19.26875749518284
 10
14.61512471856858
 20
-19.20949082853111
 10
14.16656777423601
 20
-19.11339416188821
 10
13.7159647187932
 20
-19.03655916190761
 10
13.6265708299268
 20
-19.02107221746684
 10
13.51442277439928
 20
-18.98314860636518
 10
13.47462944107594
 20
-19.10580943966794
 10
13.43776416330724
 20
-19.21845138408426
 10
13.46792666329975
 20
-19.32767138405681
 10
13.56765694105251
 20
-19.40623499514838
 10
13.6618838854734
 20
-19.47890721735248
 10
13.76814055211346
 20
-19.52681443956273
 10
13.88028860764099
 20
-19.56470277288654
 10
14.07322277425952
 20
-19.62739138398205
 10
14.26509860754476
 20
-19.69424277285437
 10
14.45700971860785
 20
-19.75901277283796
 10
14.27649332976409
 20
-19.79344388394048
 10
14.1019741631413
 20
-19.79069221727439
 10
13.92749027429604
 20
-19.79517249505113
 10
13.85100805209288
 20
-19.79757138393946
 10
13.74679749656339
 20
-19.76416332839238
 10
13.71889277434817
 20
-19.87475916169813
 10
13.69254027435472
 20
-19.9777702727833
 10
13.69613860768705
 20
-20.08663749497841
 10
13.78468582988721
 20
-20.16862305051343
 10
13.81449555210195
 20
-20.19617499495088
 10
13.84998499653744
 20
-20.21787082827872
 10
13.91560166318791
 20
-20.26613082826674
 10
13.77985277433271
 20
-20.30126749492478
 10
13.67253777435968
 20
-20.32433916158551
 10
13.56765694105251
 20
-20.35707693935522
 10
13.49374999662656
 20
-20.38014860601594
 10
13.38901027443043
 20
-20.37118805046279
 10
13.38093166332136
 20
-20.48418277265688
 10
13.37299416332333
 20
-20.60028193929449
 10
13.42880360775377
 20
-20.6857247170508
 10
13.53714166328224
 20
-20.73500777259394
 10
13.670668052138
 20
-20.79596777257879
 10
13.81001527432521
 20
-20.7980491614672
 10
13.9522905520674
 20
-20.78287971702635
 10
14.49041777415525
 20
-20.72707027259591
 10
15.00459138513765
 20
-20.54172082819796
 10
15.5427186072255
 20
-20.48555860598976
 10
15.77629277383362
 20
-20.46213416155128
 10
16.01092527377502
 20
-20.41666110600687
 10
16.22156888483345
 20
-20.30814666158953
 10
16.642926662506
 20
-20.09178805053251
 10
16.99499888464006
 20
-20.23201721716413
 10
17.31951916233666
 20
-20.50795999487312
 10
17.50402194006836
 20
-20.6636761059452
 10
17.48437221785109
 20
-20.82422527257177
 10
17.26854277346072
 20
-20.9389486058765
 10
17.08199388461845
 20
-21.0371266614075
 10
16.88701360688935
 20
-21.12186388360828
 10
16.69372666249338
 20
-21.20561332803178
 10
16.44018527366775
 20
-21.31515082800457
 10
16.16025610707115
 20
-21.35303916132839
 10
15.91874444046469
 20
-21.49326832796001
 10
15.70601944051785
 20
-21.61659943904045
 10
15.5427186072255
 20
-21.77817166122215
 10
15.51428471834364
 20
-22.03587582782427
 10
15.49311805168212
 20
-22.22775166110984
 10
15.58215916277108
 20
-22.30871416108941
 10
15.77096582939064
 20
-22.28564249442869
 10
16.0668758293165
 20
-22.25015304999288
 10
16.34782805146854
 20
-22.16093555001536
 10
16.60623777362619
 20
-22.0196833278283
 10
17.10439527350182
 20
-21.74716249456308
 10
17.64079388447869
 20
-21.61935110570622
 10
18.19525471767356
 20
-21.52632360572965
 10
18.75786471753285
 20
-21.43195555019771
 10
19.28029332851321
 20
-21.2155969391407
 10
19.71921943951462
 20
-20.84249916145616
 10
20.06494166165058
 20
-20.54895277264047
 10
20.45490221710845
 20
-20.38290027268203
 10
20.90292999477438
 20
-20.37118805046279
 10
22.13112582780062
 20
-20.34053166158148
 10
23.35448860527235
 20
-20.4466472171105
 10
24.57919193829978
 20
-20.51967221709236
 10
25.56898054916341
 20
-20.57858610596633
 10
26.55908666002695
 20
-20.63164388373101
 10
27.54887527089058
 20
-20.6757411059422
 10
28.26511999293386
 20
-20.70742055037864
 10
28.97790749275553
 20
-20.76185416147619
 10
29.69140054813273
 20
-20.81872193923991
 10
30.14285027024211
 20
-20.85385860589764
 10
30.59504082568452
 20
-20.8421463836784
 10
31.02754638113215
 20
-20.66678055038873
 10
31.20703971442048
 20
-20.59548416151783
 10
31.39514082548451
 20
-20.5462011059747
 10
31.58532332543695
 20
-20.50591388376256
 10
32.45072249188717
 20
-20.3270908282516
 10
33.33182026944488
 20
-20.28264082826264
 10
34.20737943589258
 20
-20.20859277272565
 10
35.6822365896703
 20
-20.08388582831232
 10
37.15346099658068
 20
-19.93123888390594
 10
38.62468540349107
 20
-19.7807086061658
 10
38.89889956316195
 20
-19.75245110617314
 10
39.16902150071501
 20
-19.78173166172124
 10
39.40517093913478
 20
-19.93402582834987
 10
39.73106704193159
 20
-20.14279971718662
 10
40.02045064565991
 20
-20.42597443933811
 10
40.20287202989484
 20
-20.74223971703676
 10
40.43440007954362
 20
-21.14253666138099
 10
40.66557535142363
 20
-21.58008693904952
 10
40.61491646382716
 20
-22.08547638336765
 10
40.59113924221154
 20
-22.32628249441827
 10
40.67174998983237
 20
-22.53540916103278
 10
40.82852340282204
 20
-22.71765416098719
 10
40.96667221198063
 20
-22.87989666094657
 10
41.05313700820277
 20
-23.0655988831226
 10
41.03796756414533
 20
-23.28262777195698
 10
41.00766395380733
 20
-23.72878582740122
 10
41.21022894863947
 20
-24.14460499396375
 10
41.20955867087879
 20
-24.58730582718637
 10
41.20955867087879
 20
-24.63140304939757
 10
41.22677422599514
 20
-24.68343777160679
 10
41.25192728090899
 20
-24.71995027159772
 10
41.42383588763435
 20
-24.96834110486893
 10
41.44450866488472
 20
-25.25634888257493
 10
41.48377283054968
 20
-25.54160499361451
 10
41.50169394120358
 20
-25.67731860469187
 10
41.45826699786705
 20
-25.76999332689068
 10
41.34043922309531
 20
-25.83374027131947
 10
41.21573332302952
 20
-25.90161471574692
 10
41.10792339569394
 20
-25.98980916016932
 10
41.0021606206144
 20
-26.08523554903422
 10
40.65763887872448
 20
-26.39493916006804
 10
40.33759785979103
 20
-26.73290027109454
 10
39.95691536950305
 20
-27.00129360436078
 10
39.83961676138448
 20
-27.08363193767355
 10
39.72058954219889
 20
-27.15457554876701
 10
39.57224649042789
 20
-27.16113721543183
 10
39.16556427858099
 20
-27.17768249320557
 10
38.76731345540788
 20
-27.24897888207678
 10
38.37438957654332
 20
-27.3530130487174
 10
37.77995903615295
 20
-27.51081054867788
 10
37.18669266239954
 20
-27.67030138197117
 10
36.56950795592302
 20
-27.73027360417843
 10
36.27342157458792
 20
-27.75849582639357
 10
35.97370158223441
 20
-27.82051415971139
 10
35.69532464489195
 20
-27.92112638190855
 10
35.48171770589708
 20
-27.9976086041117
 10
35.27520249118113
 20
-28.06580054853907
 10
35.05090638012608
 20
-28.07751277075831
 10
34.82957360240385
 20
-28.08957777075531
 10
34.61392054690204
 20
-28.14090693740934
 10
34.43114638028099
 20
-28.26081610404601
 10
33.95175665817887
 20
-28.57535277063401
 10
33.41571082497943
 20
-28.70969054837817
 10
32.85966249178495
 20
-28.78754860391421
 10
32.69533860293717
 20
-28.8109730483527
 10
32.53842304742108
 20
-28.85612860389718
 10
32.40595499189861
 20
-28.96499582609197
 10
32.31017582525595
 20
-29.04285388162833
 10
32.20148499194972
 20
-29.05629471495822
 10
32.07589610309198
 20
-29.04733415940474
 10
31.83096249204239
 20
-29.03043610385356
 10
31.57773860321668
 20
-29.02182832607785
 10
31.36155638104855
 20
-29.16823110381901
 10
31.20827443664232
 20
-29.27230054823747
 10
31.04236304779493
 20
-29.29572499267595
 10
30.86428082561733
 20
-29.3153394371157
 10
30.52716638125708
 20
-29.35428610377248
 10
30.17731665912247
 20
-29.33188471488912
 10
29.85621832586932
 20
-29.44763110374929
 10
29.58302721482642
 20
-29.54753777039094
 10
29.31018888156128
 20
-29.61749360370678
 10
29.02165193718897
 20
-29.64744443703257
 10
28.673530826165
 20
-29.68191082591294
 10
28.32918443736225
 20
-29.77560860366719
 10
27.97591277078386
 20
-29.67192721480434
 10
27.87769943747503
 20
-29.64264665925591
 10
27.77091360416833
 20
-29.67605471480331
 10
27.6903038819662
 20
-29.73532138145505
 10
27.51719582645415
 20
-29.86380304808959
 10
27.36059777093766
 20
-29.8290191592093
 10
27.18248027098223
 20
-29.74047193700947
 10
26.88501804883428
 20
-29.59301082593502
 10
26.55686416002751
 20
-29.54926638150158
 10
26.26628110454462
 20
-29.71877610368131
 10
25.89558221574842
 20
-29.93407638140536
 10
25.499377493625
 20
-29.96233388139834
 10
25.09477666039291
 20
-29.97094165917405
 10
24.56042416052659
 20
-29.98127804806009
 10
24.02504860510484
 20
-29.97542193695046
 10
23.49073138301636
 20
-29.97231749250694
 10
23.18444971642599
 20
-29.97094165917405
 10
22.8818016609461
 20
-29.98096054806017
 10
22.57950638324398
 20
-30.04156777026726
 10
22.30786749442317
 20
-30.09635415914258
 10
22.03051360560345
 20
-30.11014777025023
 10
21.75629943900543
 20
-30.05846582581876
 10
21.31462166133793
 20
-29.97510443695055
 10
20.90896249477288
 20
-29.78559221477579
 10
20.4967769393202
 20
-29.6161177703739
 10
20.42064749489481
 20
-29.58475582593707
 10
20.33037166158401
 20
-29.51412971484353
 10
20.26644832826666
 20
-29.55170054816775
 10
20.09231721719915
 20
-29.65435888147516
 10
19.9376241616822
 20
-29.56030832594314
 10
19.77880360616627
 20
-29.53444971483849
 10
19.3733208284901
 20
-29.46692804818881
 10
18.96850832859129
 20
-29.39736027042856
 10
18.55787499536038
 20
-29.38116777043258
 10
17.46750944007743
 20
-29.33569471488817
 10
16.40744749589804
 20
-29.52344304817477
 10
15.35546416282771
 20
-29.78665054810875
 10
14.4320330519476
 20
-30.01814332582878
 10
13.53594221883824
 20
-30.3433691590809
 10
12.61353416351325
 20
-30.57764888124454
 10
11.961883052565
 20
-30.74232554787009
 10
11.30783305272874
 20
-30.81189332563034
 10
10.65018471955982
 20
-30.6044952701268
 10
10.53613166403277
 20
-30.56798277013587
 10
10.41763360850683
 20
-30.56487832569202
 10
10.30185194186913
 20
-30.59588749235109
 10
10.09515944192079
 20
-30.65067388122608
 10
9.908610553078525
 20
-30.62622638123248
 10
9.74308721978641
 20
-30.48049388126867
 10
9.681915553135152
 20
-30.42606027017112
 10
9.604939442043197
 20
-30.39296971462396
 10
9.52499999761875
 20
-30.36679360351939
 10
8.920903331102986
 20
-30.17354193690094
 10
8.317335831253866
 20
-29.98025499250496
 10
7.714614998071307
 20
-29.78319332588746
 10
6.873839720503897
 20
-29.50897915928944
 10
6.029607220714873
 20
-29.46004888152374
 10
5.166430554264102
 20
-29.68776693702256
 10
4.721507221041708
 20
-29.8062649925485
 10
4.4343461100026
 20
-30.08979249247744
 10
4.206804443392665
 20
-30.46017388127372
 10
4.180628332288091
 20
-30.50321277015196
 10
4.155475276738962
 20
-30.56075082569304
 10
4.160978610070821
 20
-30.60830527012585
 10
4.181298610065774
 20
-30.80706027007616
 10
4.084319998978787
 20
-30.95797860337159
 10
3.982190832337701
 20
-31.10988471444461
 10
3.943244165680921
 20
-31.16812832554122
 10
3.910541665689044
 20
-31.23219276996961
 10
3.884506665695511
 20
-31.29731554773128
 10
3.797194165717519
 20
-31.51882471434239
 10
3.83113138793124
 20
-31.65044610319863
 10
4.014399443440776
 20
-31.80820832538127
 10
4.05161749898723
 20
-31.84129888092843
 10
4.078146387869245
 20
-31.87435415869807
 10
4.08520194342319
 20
-31.92466026979665
 10
4.123619443413648
 20
-32.18857332528615
 10
4.303959443368534
 20
-32.32809693636257
 10
4.528043887756856
 20
-32.42902665855933
 10
4.736817776593603
 20
-32.52342999186911
 10
4.946120832096672
 20
-32.61645749184601
 10
5.154048054267178
 20
-32.71117832515538
 10
5.240690276467487
 20
-32.75114804736793
 10
5.329378609778685
 20
-32.77559554736153
 10
5.423958331977344
 20
-32.78628471402565
 10
6.055289442930645
 20
-32.85588776956374
 10
6.677448331664073
 20
-32.96888249175782
 10
7.291387498177071
 20
-33.13391193616081
 10
7.89410833135995
 20
-33.29650721389796
 10
8.508188608983989
 20
-33.40537443609307
 10
9.135004164383034
 20
-33.37401249165656
 10
9.59784860871173
 20
-33.35023526944031
 10
10.05931721970754
 20
-33.30546776945143
 10
10.52096221959192
 20
-33.26204082501792
 10
10.84791666395469
 20
-33.23173721391437
 10
11.17434194165082
 20
-33.19451915836792
 10
11.48923138601658
 20
-33.08773332506154
 10
11.6719702748598
 20
-33.02571499174371
 10
11.82288860815554
 20
-32.88135832511311
 10
12.02150249699449
 20
-32.86347249178401
 10
12.33085333025056
 20
-32.83553249179127
 10
12.63713499684062
 20
-32.7807813806938
 10
12.95047221898462
 20
-32.77697138069474
 10
13.90992194096685
 20
-32.76663499180838
 10
14.8447477740666
 20
-32.92926554732337
 10
15.76750860716935
 20
-33.17074193615167
 10
16.59089194029677
 20
-33.3857247138758
 10
17.39720082898414
 20
-33.66995776936026
 10
18.24506693988334
 20
-33.78259971377658
 10
18.65760527311346
 20
-33.8373861026519
 10
19.0732480507871
 20
-33.86804249153288
 10
19.49044305068284
 20
-33.8714997137545
 10
19.57951943954964
 20
-33.87216999153186
 10
19.66718471730539
 20
-33.86874804708841
 10
19.67374638397053
 20
-34.00135721372192
 10
19.68993888396651
 20
-34.31211915808872
 10
19.71646777284853
 20
-34.62217554689999
 10
19.73643499506604
 20
-34.93120888015613
 10
19.79637193949545
 20
-35.8710088799211
 10
19.9048863839128
 20
-36.8036122130214
 10
20.16879943940231
 20
-37.71000415723928
 10
20.30211416159102
 20
-38.16716887934724
 10
20.45334999488669
 20
-38.62122915701135
 10
20.74774305036862
 20
-39.00607443469297
 10
20.86193721700671
 20
-39.15558165687766
 10
20.93531499476601
 20
-39.31680110128192
 10
20.97080443920182
 20
-39.49767026790344
 10
21.06778305028849
 20
-39.98517387889247
 10
21.26812555023841
 20
-40.42166582322771
 10
21.58488471682586
 20
-40.80785165646502
 10
21.8265727723212
 20
-41.10238582305799
 10
22.10872443891725
 20
-41.36421748965877
 10
22.30716193886764
 20
-41.6942763784654
 10
22.44135860550077
 20
-41.91818443396516
 10
22.59725110546172
 20
-42.12078471169172
 10
22.8304724942924
 20
-42.25445221165884
 10
22.99275027202962
 20
-42.34744443385789
 10
23.05716749423577
 20
-42.49765721159779
 10
23.0542394386808
 20
-42.68402971155118
 10
23.05011193868183
 20
-42.91072471149423
 10
23.12606499421834
 20
-43.1088094336675
 10
23.28350971640138
 20
-43.27592026695858
 10
23.47764332746392
 20
-43.48158971135179
 10
23.64267277186723
 20
-43.70966054462837
 10
23.80664388293726
 20
-43.94013026679296
 10
24.29996832725838
 20
-44.63051637773095
 10
24.88755499377825
 20
-45.23926971091265
 10
25.5067858269567
 20
-45.81493248854623
 10
25.84252443798374
 20
-46.12671748846815
 10
26.24680777121623
 20
-46.35824554396601
 10
26.57460888224525
 20
-46.67930859944101
 10
27.02813999324303
 20
-47.12303248821939
 10
27.50442527090162
 20
-47.54230887700353
 10
27.96314221523134
 20
-47.9781305435611
 10
28.81340721501887
 20
-48.78634443224767
 10
29.87209332586538
 20
-49.14981137660137
 10
30.9466191589301
 20
-49.48502082096177
 10
31.26595360329477
 20
-49.58422193204853
 10
31.5884277698808
 20
-49.65657665425239
 10
31.87901082536368
 20
-49.83088415420877
 10
31.97856471422756
 20
-49.89085637641602
 10
32.09191221419908
 20
-49.93184915418369
 10
32.20303721417148
 20
-49.96698582084142
 10
32.44038610300113
 20
-50.04276248748905
 10
32.66468221405618
 20
-50.14369220968645
 10
32.87327971400404
 20
-50.27668943187557
 10
33.11200443616658
 20
-50.42725498739323
 10
33.36868554721326
 20
-50.51749554292587
 10
33.6475563804769
 20
-50.54783443180758
 10
33.79879221377256
 20
-50.56434443180348
 10
33.92473388040773
 20
-50.62844415400939
 10
34.03702304704629
 20
-50.73314859842768
 10
34.28851832476136
 20
-50.96778109836908
 10
34.48349860249013
 20
-51.24718109829904
 10
34.67332832466513
 20
-51.52968554267318
 10
34.92464721349099
 20
-51.90518220924572
 10
35.17684804676125
 20
-52.27796248693065
 10
35.47519131717469
 20
-52.62244998684413
 10
35.94717269402233
 20
-53.16851470893032
 10
36.54280267882655
 20
-53.59809220882266
 10
36.94881461291276
 20
-54.20444665311572
 10
36.98137600097094
 20
-54.25302415310333
 10
37.02924794419407
 20
-54.29299387531587
 10
37.0768023874253
 20
-54.23647887532991
 10
37.26836071587157
 20
-54.01186526427463
 10
37.53999959783037
 20
-53.87371748653173
 10
37.72139792653585
 20
-53.64081359770098
 10
37.96065276828746
 20
-53.334214431111
 10
37.95461930947477
 20
-53.334214431111
 10
38.32203735565671
 20
-53.48855470885019
 10
38.43192763063095
 20
-53.5350508199494
 10
38.46258401873773
 20
-53.60017359771107
 10
38.46551207421859
 20
-53.71662554212612
 10
38.49722776815354
 20
-54.76599831964204
 10
38.33272652205067
 20
-55.79953137493879
 10
38.23331374680912
 20
-56.83856776356835
 10
38.16991958175978
 20
-57.50069637451368
 10
38.14772986010367
 20
-58.17111526323512
 10
38.34528541061916
 20
-58.81295915196366
 10
38.64295929191375
 20
-59.7803463739436
 10
38.86566789734309
 20
-60.76424359592009
 10
39.08237928070321
 20
-61.75022220678498
 10
39.37708982874008
 20
-63.08933137311657
 10
39.62805593344851
 20
-64.43292081722522
 10
39.48285260381962
 20
-65.81510415021289
 10
39.42806621632845
 20
-66.33739165008221
 10
39.31715288582475
 20
-66.84690859439964
 10
39.10753332355637
 20
-67.3298966498344
 10
39.06033067015461
 20
-67.43946942758438
 10
38.99884150505667
 20
-67.53112109422808
 10
38.89082095225695
 20
-67.61345942754117
 10
38.57921234909563
 20
-67.8515138719257
 10
38.22798680250058
 20
-68.03926220521262
 10
37.95945236490702
 20
-68.335207482916
 10
37.62113848464924
 20
-68.70830526060054
 10
37.53999959783037
 20
-69.16511720493105
 10
37.79389375801966
 20
-69.60196192704373
 10
38.12582236066257
 20
-70.1731444269009
 10
38.6017901262974
 20
-70.62170137123347
 10
39.12354844631957
 20
-71.01822359335648
 10
39.33680260754567
 20
-71.18050137109402
 10
39.51696621406042
 20
-71.3682497043803
 10
39.66460371029387
 20
-71.59011164876918
 10
39.92640009250378
 20
-71.98215359311578
 10
40.12607230963194
 20
-72.40834442634251
 10
40.35654202597439
 20
-72.81724914846212
 10
40.61837368596118
 20
-73.28510303723452
 10
40.70723840591627
 20
-73.78188470377694
 10
40.71415285018431
 20
-74.3059008147569
 10
40.71757479454146
 20
-74.54843553691849
 10
40.69072840633748
 20
-74.78543164797038
 10
40.65901368492437
 20
-75.02454442568819
 10
40.61491646382716
 20
-75.36042414782659
 10
40.74237507168652
 20
-75.5412933144478
 10
41.07585589651206
 20
-75.56574081444205
 10
41.32978533447822
 20
-75.582991647771
 10
41.58851255009976
 20
-75.59368081443512
 10
41.84480559911674
 20
-75.56369470333117
 10
42.1149275366698
 20
-75.53197998111722
 10
42.27096114380016
 20
-75.38144970337707
 10
42.31816387830947
 20
-75.11788942566501
 10
42.34437419748279
 20
-74.97353275903441
 10
42.37534808558147
 20
-74.82815303684869
 10
42.37951086325305
 20
-74.68347887021785
 10
42.39122308517646
 20
-74.27626748143071
 10
42.43599165605741
 20
-73.87766387041928
 10
42.53039391495926
 20
-73.48043609274075
 10
42.61583669055721
 20
-73.11834498172057
 10
42.72537418776268
 20
-72.74972748181244
 10
42.57964169148062
 20
-72.37387803746215
 10
42.5676119695653
 20
-72.34424470413596
 10
42.58345276713218
 20
-72.30462775970182
 10
42.58549780244233
 20
-72.26878553748857
 10
42.6123805449022
 20
-71.83610359315206
 10
42.69404752189521
 20
-71.3961544265952
 10
42.6523491896257
 20
-70.96999887114663
 10
42.58070002478695
 20
-70.2392902602177
 10
42.62169280151892
 20
-69.50618276040139
 10
42.5293708594298
 20
-68.77649720502822
 10
42.44840836149532
 20
-68.13056109407854
 10
42.41256614018751
 20
-67.4797919275747
 10
42.29371530988632
 20
-66.8375952610684
 10
42.18932836810501
 20
-66.27089303898765
 10
42.1369761472184
 20
-65.69660609468696
 10
42.11559781443047
 20
-65.1219663726085
 10
42.07806225983253
 20
-64.12942609507877
 10
42.12491114752621
 20
-63.13688581754906
 10
42.22517058941282
 20
-62.15055442890705
 10
42.40222975156233
 20
-60.40941970711962
 10
42.55036113667207
 20
-58.66722665200017
 10
42.64063696770228
 20
-56.91988304132568
 10
42.678525300069
 20
-56.17675665262261
 10
42.74604696501304
 20
-55.43295998614155
 10
42.89005085022809
 20
-54.69914693076973
 10
42.93623054482176
 20
-54.46352665305072
 10
42.94106251559334
 20
-54.45731776416366
 10
43.18772473152269
 20
-54.46042220860719
 10
43.38718528198957
 20
-54.46352665305072
 10
43.58735138799403
 20
-54.46179804194008
 10
43.78645916069214
 20
-54.46144526416231
 10
44.09446943061192
 20
-54.46042220860719
 10
44.32529192472315
 20
-54.32848331975136
 10
44.48859275389033
 20
-54.06629887537218
 10
44.66808608264441
 20
-53.77726804211139
 10
44.83445607839995
 20
-53.47648970885319
 10
45.06185662815404
 20
-53.22259554225012
 10
45.63028744698549
 20
-52.58593748685352
 10
45.84008438607757
 20
-51.81801082037909
 10
45.92312827284783
 20
-50.99430998725174
 10
45.97135299383974
 20
-50.50613609848439
 10
45.92796132828009
 20
-50.02141943193897
 10
45.92312827284783
 20
-49.53497415428291
 10
45.91346216198333
 20
-48.6151060989573
 10
46.07951465774698
 20
-47.70836137696197
 10
46.23456048712476
 20
-46.80884859940883
 10
46.35824437285821
 20
-46.0970841551426
 10
46.43162214876396
 20
-45.39325721087408
 10
46.41232520481183
 20
-44.67531915549767
 10
46.41059659374481
 20
-44.60469304440446
 10
46.41024381597604
 20
-44.53304387775548
 10
46.42128576013878
 20
-44.46446387777252
 10
46.53428047947827
 20
-43.78095693349894
 10
46.65969297627873
 20
-43.09953137811379
 10
46.74305554386979
 20
-42.41221443384116
 10
46.80471991702323
 20
-41.90477887841278
 10
46.87982630399599
 20
-41.39766082298401
 10
46.80196943274377
 20
-40.88606248977818
 10
46.70308464183838
 20
-40.23698665660746
 10
46.71962991919406
 20
-39.58621749010361
 10
46.77543936221468
 20
-38.93682415693232
 10
46.82091241661012
 20
-38.41972249039495
 10
46.82366408320659
 20
-37.90671304607903
 10
46.77335797337889
 20
-37.39098721287454
 10
46.73582241878095
 20
-37.00032110186115
 10
46.66865353160568
 20
-36.61275943529127
 10
46.71412776609913
 20
-36.21486137983505
 10
46.75339075166607
 20
-35.88102776880753
 10
46.75547214050187
 20
-35.54511276889161
 10
46.57492047844146
 20
-35.23713776896843
 10
46.52807159074778
 20
-35.1565280467663
 10
46.55565881226619
 20
-35.07725888011954
 10
46.62455631050847
 20
-35.01492304680179
 10
46.75268519612852
 20
-34.89882388016418
 10
46.7709590845512
 20
-34.75481999131134
 10
46.73374102994516
 20
-34.59529388024021
 10
46.71342221054361
 20
-34.50953360248366
 10
46.68897353108727
 20
-34.42409082472736
 10
46.67726130916385
 20
-34.33727221363785
 10
46.64970936542232
 20
-34.1350247136884
 10
46.54669825693924
 20
-33.94829943595725
 10
46.57149853408431
 20
-33.7343749915664
 10
46.61661881071097
 20
-33.34233304722012
 10
46.8374576939658
 20
-33.0463877695161
 10
47.09512776600386
 20
-32.7780297140277
 10
47.66772017278403
 20
-32.18201165862101
 10
48.10421210609264
 20
-31.49952776990288
 10
48.44390181964866
 20
-30.75058054786804
 10
48.57792209400729
 20
-30.45569360349731
 10
48.73568431220466
 20
-30.17594082578927
 10
48.90896875222825
 20
-29.90102110363572
 10
49.25659720990807
 20
-29.35015860377351
 10
49.61420678979169
 20
-28.80546971502084
 10
49.96560872527112
 20
-28.25735888182439
 10
50.52130554292492
 20
-27.39093665981905
 10
50.86889620222634
 20
-26.42527804894911
 10
51.22925869303273
 20
-25.46992054918801
 10
51.49486507514543
 20
-24.76782221603014
 10
51.73429534681483
 20
-24.05401166065302
 10
51.88934117619262
 20
-23.31571832750446
 10
51.99545672904094
 20
-22.8144563831853
 10
52.09261172656231
 20
-22.31457027219903
 10
52.02300867278247
 20
-21.79919721677231
 10
51.99337534020516
 20
-21.58110999460465
 10
52.02921756151297
 20
-21.38337805020978
 10
52.16217950256527
 20
-21.2007802724776
 10
52.25174977805791
 20
-21.07776666139708
 10
52.32100005406897
 20
-20.93997166143163
 10
52.39610644104174
 20
-20.80700971702035
 10
52.7306455991736
 20
-20.21547193939071
 10
53.08617503454773
 20
-19.64531249508867
 10
53.67287974180187
 20
-19.25979693962937
 10
54.0666502873115
 20
-19.0010697174718
 10
54.47315611027401
 20
-18.76749555086369
 10
54.8996644327262
 20
-18.56768221758042
 10
55.55353802715561
 20
-18.2617533287678
 10
56.21774801021021
 20
-17.9761797177283
 10
56.83923660546582
 20
-17.60375221782144
 10
57.77286297053592
 20
-17.04459944018344
 10
58.61794211564282
 20
-16.35491888480001
 10
59.53950348102072
 20
-15.77855055161091
 10
60.21715429706574
 20
-15.35444110727259
 10
60.89275900205185
 20
-14.93036694071179
 10
61.66685926008068
 20
-14.69125416299397
 10
62.14229785906235
 20
-14.54449860747505
 10
62.60461312504548
 20
-14.35156444085652
 10
62.90158145080252
 20
-13.9230099965193
 10
63.21819949828048
 20
-13.46757388552199
 10
63.59027421101028
 20
-13.07136916339889
 10
63.98990086748162
 20
-12.68553610793967
 10
64.8980213998691
 20
-11.80909499704757
 10
65.68969165024437
 20
-10.81828333062882
 10
66.62264607809247
 20
-9.963890830842322
 10
67.35815244821703
 20
-9.290049997677428
 10
68.00412382062582
 20
-8.52247610898044
 10
68.77099213439472
 20
-7.878233331363893
 10
68.94529962994775
 20
-7.73218333140017
 10
69.12447545870994
 20
-7.6512208314206
 10
69.34598461972543
 20
-7.668789164749463
 10
69.51306017101854
 20
-7.682229998079351
 10
69.67498516688748
 20
-7.661204442529196
 10
69.83278266286173
 20
-7.613332498096785
 10
70.00984182501125
 20
-7.559921942554353
 10
70.17864598737135
 20
-7.536850275893631
 10
70.36399720463135
 20
-7.598515831433692
 10
70.4935354237823
 20
-7.642260275867128
 10
70.64029097559381
 20
-7.643988886977774
 10
70.78224874974995
 20
-7.642613053644889
 10
71.2342276271079
 20
-7.638450275868074
 10
71.68691387096729
 20
-7.643283331422572
 10
72.13892621513823
 20
-7.639508609201359
 10
72.28913898908375
 20
-7.638450275868074
 10
72.429332874396
 20
-7.662227498084319
 10
72.56956387074676
 20
-7.712886386960661
 10
72.8637805373395
 20
-7.819672220267363
 10
73.16833174443146
 20
-7.837240553596226
 10
73.47284951444034
 20
-7.778326664721935
 10
73.69887423089618
 20
-7.735287775844021
 10
73.75881117381151
 20
-7.544082220336136
 10
73.6061995110383
 20
-7.372843887045764
 10
73.49147618063179
 20
-7.243303887077939
 10
73.3564328507437
 20
-7.144773053769507
 10
73.17658674422086
 20
-7.118949720442374
 10
72.9902142489756
 20
-7.090692220449393
 10
72.80521942624328
 20
-7.055555553791667
 10
72.62124398061104
 20
-7.018019998245613
 10
72.4496528738776
 20
-6.984259164920451
 10
72.27259371172808
 20
-6.96700833159151
 10
72.07690788338711
 20
-6.86674888717211
 10
72.26603204522881
 20
-6.868477498282757
 10
72.41109426375019
 20
-6.853343331620063
 10
72.55714426002415
 20
-6.835774998291201
 10
73.2358534093755
 20
-6.753083887200664
 10
73.90902394775705
 20
-6.730682498317304
 10
74.56427337548469
 20
-6.997347220472898
 10
74.83058531313495
 20
-7.105861664890247
 10
75.12236780569096
 20
-7.130661942661936
 10
75.41418557602384
 20
-7.112388053777551
 10
75.60743723776024
 20
-7.100005553780626
 10
75.76488195596572
 20
-7.038657498240487
 10
75.8637655645541
 20
-6.855742220508391
 10
75.93093445172937
 20
-6.730682498317304
 10
75.92370250746943
 20
-6.654553053891911
 10
75.76590501149518
 20
-6.641464998339784
 97
        0
 75
     2
 76
     1
 98
        0
  0
ENDSEC
  0
SECTION
  2
OBJECTS
  0
DICTIONARY
  5
C
330
0
100
AcDbDictionary
281
     1
  3
ACAD_GROUP
350
D
  3
ACAD_LAYOUT
350
1A
  3
ACAD_MATERIAL
350
3B
  3
ACAD_MLEADERSTYLE
350
64
  3
ACAD_MLINESTYLE
350
17
  3
ACAD_PLOTSETTINGS
350
19
  3
ACAD_PLOTSTYLENAME
350
E
  3
ACAD_TABLESTYLE
350
63
  3
ACAD_VISUALSTYLE
350
2A
  0
SUN
  5
3F
330
29
100
AcDbSun
 90
        1
290
     0
 63
     7
421
 16777215
 40
1.0
291
     1
 91
  2455826
 92
 54000000
292
     0
 70
     2
 71
   256
280
     1
  0
DICTIONARY
  5
D
102
{ACAD_REACTORS
330
C
102
}
330
C
100
AcDbDictionary
281
     1
  0
DICTIONARY
  5
1A
102
{ACAD_REACTORS
330
C
102
}
330
C
100
AcDbDictionary
281
     1
  3
Layout1
350
1E
  3
Layout2
350
26
  3
Model
350
22
  0
DICTIONARY
  5
3B
102
{ACAD_REACTORS
330
C
102
}
330
C
100
AcDbDictionary
281
     1
  3
ByBlock
350
3D
  3
ByLayer
350
3C
  3
Global
350
3E
  0
DICTIONARY
  5
64
102
{ACAD_REACTORS
330
C
102
}
330
C
100
AcDbDictionary
281
     1
  0
DICTIONARY
  5
17
102
{ACAD_REACTORS
330
C
102
}
330
C
100
AcDbDictionary
281
     1
  3
Standard
350
18
  0
DICTIONARY
  5
19
102
{ACAD_REACTORS
330
C
102
}
330
C
100
AcDbDictionary
281
     1
  0
ACDBDICTIONARYWDFLT
  5
E
102
{ACAD_REACTORS
330
C
102
}
330
C
100
AcDbDictionary
281
     1
  3
Normal
350
F
100
AcDbDictionaryWithDefault
340
F
  0
DICTIONARY
  5
63
102
{ACAD_REACTORS
330
C
102
}
330
C
100
AcDbDictionary
281
     1
  0
DICTIONARY
  5
2A
102
{ACAD_REACTORS
330
C
102
}
330
C
100
AcDbDictionary
281
     1
  3
2dWireframe
350
2F
  3
3D Hidden
350
31
  3
3dWireframe
350
30
  3
Basic
350
32
  3
Brighten
350
36
  3
ColorChange
350
3A
  3
Conceptual
350
34
  3
Dim
350
35
  3
Facepattern
350
39
  3
Flat
350
2B
  3
FlatWithEdges
350
2C
  3
Gouraud
350
2D
  3
GouraudWithEdges
350
2E
  3
Linepattern
350
38
  3
Realistic
350
33
  3
Thicken
350
37
  0
LAYOUT
  5
1E
102
{ACAD_REACTORS
330
1A
102
}
330
1A
100
AcDbPlotSettings
  1

  2
none_device
  4

  6

 40
0.0
 41
0.0
 42
0.0
 43
0.0
 44
0.0
 45
0.0
 46
0.0
 47
0.0
 48
0.0
 49
0.0
140
0.0
141
0.0
142
1.0
143
1.0
 70
   688
 72
     0
 73
     0
 74
     5
  7

 75
    16
 76
     0
 77
     2
 78
   300
147
1.0
148
0.0
149
0.0
100
AcDbLayout
  1
Layout1
 70
     1
 71
     1
 10
0.0
 20
0.0
 11
12.0
 21
9.0
 12
0.0
 22
0.0
 32
0.0
 14
1.000000000000000E+20
 24
1.000000000000000E+20
 34
1.000000000000000E+20
 15
-1.000000000000000E+20
 25
-1.000000000000000E+20
 35
-1.000000000000000E+20
146
0.0
 13
0.0
 23
0.0
 33
0.0
 16
1.0
 26
0.0
 36
0.0
 17
0.0
 27
1.0
 37
0.0
 76
     0
330
1B
  0
LAYOUT
  5
26
102
{ACAD_REACTORS
330
1A
102
}
330
1A
100
AcDbPlotSettings
  1

  2
none_device
  4

  6

 40
0.0
 41
0.0
 42
0.0
 43
0.0
 44
0.0
 45
0.0
 46
0.0
 47
0.0
 48
0.0
 49
0.0
140
0.0
141
0.0
142
1.0
143
1.0
 70
   688
 72
     0
 73
     0
 74
     5
  7

 75
    16
 76
     0
 77
     2
 78
   300
147
1.0
148
0.0
149
0.0
100
AcDbLayout
  1
Layout2
 70
     1
 71
     2
 10
0.0
 20
0.0
 11
0.0
 21
0.0
 12
0.0
 22
0.0
 32
0.0
 14
0.0
 24
0.0
 34
0.0
 15
0.0
 25
0.0
 35
0.0
146
0.0
 13
0.0
 23
0.0
 33
0.0
 16
1.0
 26
0.0
 36
0.0
 17
0.0
 27
1.0
 37
0.0
 76
     0
330
23
  0
LAYOUT
  5
22
102
{ACAD_REACTORS
330
1A
102
}
330
1A
100
AcDbPlotSettings
  1

  2
none_device
  4

  6

 40
0.0
 41
0.0
 42
0.0
 43
0.0
 44
0.0
 45
0.0
 46
0.0
 47
0.0
 48
0.0
 49
0.0
140
0.0
141
0.0
142
1.0
143
1.0
 70
  1712
 72
     0
 73
     0
 74
     0
  7

 75
     0
 76
     0
 77
     2
 78
   300
147
1.0
148
0.0
149
0.0
100
AcDbLayout
  1
Model
 70
     1
 71
     0
 10
0.0
 20
0.0
 11
12.0
 21
9.0
 12
0.0
 22
0.0
 32
0.0
 14
1.000000000000000E+20
 24
1.000000000000000E+20
 34
1.000000000000000E+20
 15
-1.000000000000000E+20
 25
-1.000000000000000E+20
 35
-1.000000000000000E+20
146
0.0
 13
0.0
 23
0.0
 33
0.0
 16
1.0
 26
0.0
 36
0.0
 17
0.0
 27
1.0
 37
0.0
 76
     0
330
1F
331
29
  0
MATERIAL
  5
3D
102
{ACAD_REACTORS
330
3B
102
}
330
3B
100
AcDbMaterial
  1
ByBlock
 72
     1
 94
      127
  0
MATERIAL
  5
3C
102
{ACAD_REACTORS
330
3B
102
}
330
3B
100
AcDbMaterial
  1
ByLayer
 72
     1
 94
      127
  0
MATERIAL
  5
3E
102
{ACAD_REACTORS
330
3B
102
}
330
3B
100
AcDbMaterial
  1
Global
 72
     1
 94
      127
  0
MLINESTYLE
  5
18
102
{ACAD_REACTORS
330
17
102
}
330
17
100
AcDbMlineStyle
  2
Standard
 70
     0
  3

 62
   256
 51
90.0
 52
90.0
 71
     2
 49
0.5
 62
   256
  6
BYLAYER
 49
-0.5
 62
   256
  6
BYLAYER
  0
ACDBPLACEHOLDER
  5
F
102
{ACAD_REACTORS
330
E
102
}
330
E
  0
VISUALSTYLE
  5
2F
102
{ACAD_REACTORS
330
2A
102
}
102
{ACAD_XDICTIONARY
360
4B
102
}
330
2A
100
AcDbVisualStyle
  2
2dWireframe
 70
     4
 71
     0
 72
     2
 73
     0
 90
        0
 40
-0.6
 41
-30.0
 62
     5
 63
     7
421
 16777215
 74
     1
 91
        4
 64
     7
 65
   257
 75
     1
175
     1
 42
1.0
 92
        0
 66
   257
 43
1.0
 76
     1
 77
     6
 78
     2
 67
     7
 79
     5
170
     0
171
     0
290
     0
174
     0
 93
        1
 44
0.0
173
     0
291
     0
 45
0.0
  0
VISUALSTYLE
  5
31
102
{ACAD_REACTORS
330
2A
102
}
102
{ACAD_XDICTIONARY
360
4F
102
}
330
2A
100
AcDbVisualStyle
  2
3D Hidden
 70
     6
 71
     1
 72
     2
 73
     2
 90
        0
 40
-0.6
 41
-30.0
 62
     5
 63
     7
421
 16777215
 74
     2
 91
        2
 64
     7
 65
   257
 75
     2
175
     1
 42
40.0
 92
        0
 66
   257
 43
1.0
 76
     1
 77
     6
 78
     2
 67
     7
 79
     3
170
     0
171
     0
290
     0
174
     0
 93
        1
 44
0.0
173
     0
291
     0
 45
0.0
  0
VISUALSTYLE
  5
30
102
{ACAD_REACTORS
330
2A
102
}
102
{ACAD_XDICTIONARY
360
4D
102
}
330
2A
100
AcDbVisualStyle
  2
3dWireframe
 70
     5
 71
     0
 72
     2
 73
     0
 90
        0
 40
-0.6
 41
-30.0
 62
     5
 63
     7
421
 16777215
 74
     1
 91
        4
 64
     7
 65
   257
 75
     1
175
     1
 42
1.0
 92
        0
 66
   257
 43
1.0
 76
     1
 77
     6
 78
     2
 67
     7
 79
     5
170
     0
171
     0
290
     0
174
     0
 93
        1
 44
0.0
173
     0
291
     0
 45
0.0
  0
VISUALSTYLE
  5
32
102
{ACAD_REACTORS
330
2A
102
}
102
{ACAD_XDICTIONARY
360
51
102
}
330
2A
100
AcDbVisualStyle
  2
Basic
 70
     7
 71
     1
 72
     0
 73
     1
 90
        0
 40
-0.6
 41
-30.0
 62
     5
 63
     7
421
 16777215
 74
     0
 91
        4
 64
     7
 65
   257
 75
     1
175
     1
 42
1.0
 92
        8
 66
     7
 43
1.0
 76
     1
 77
     6
 78
     2
 67
     7
 79
     5
170
     0
171
     0
290
     0
174
     0
 93
        1
 44
0.0
173
     0
291
     1
 45
0.0
  0
VISUALSTYLE
  5
36
102
{ACAD_REACTORS
330
2A
102
}
102
{ACAD_XDICTIONARY
360
59
102
}
330
2A
100
AcDbVisualStyle
  2
Brighten
 70
    12
 71
     2
 72
     2
 73
     0
 90
        0
 40
-0.6
 41
-30.0
 62
     5
 63
     7
421
 16777215
 74
     1
 91
        4
 64
     7
 65
   257
 75
     1
175
     1
 42
1.0
 92
        8
 66
     7
 43
1.0
 76
     1
 77
     6
 78
     2
 67
     7
 79
     5
170
     0
171
     0
290
     0
174
     0
 93
        1
 44
50.0
173
     0
291
     1
 45
0.0
  0
VISUALSTYLE
  5
3A
102
{ACAD_REACTORS
330
2A
102
}
102
{ACAD_XDICTIONARY
360
61
102
}
330
2A
100
AcDbVisualStyle
  2
ColorChange
 70
    16
 71
     2
 72
     2
 73
     3
 90
        0
 40
-0.6
 41
-30.0
 62
     5
 63
     8
421
  8421504
 74
     1
 91
        4
 64
     7
 65
   257
 75
     1
175
     1
 42
1.0
 92
        8
 66
     8
424
  8421504
 43
1.0
 76
     1
 77
     6
 78
     2
 67
     7
 79
     5
170
     0
171
     0
290
     0
174
     0
 93
        1
 44
0.0
173
     0
291
     1
 45
0.0
  0
VISUALSTYLE
  5
34
102
{ACAD_REACTORS
330
2A
102
}
102
{ACAD_XDICTIONARY
360
55
102
}
330
2A
100
AcDbVisualStyle
  2
Conceptual
 70
     9
 71
     3
 72
     2
 73
     0
 90
        0
 40
-0.6
 41
-30.0
 62
     5
 63
     7
421
 16777215
 74
     2
 91
        2
 64
     7
 65
   257
 75
     1
175
     1
 42
40.0
 92
        8
 66
     7
 43
1.0
 76
     1
 77
     6
 78
     2
 67
     7
 79
     3
170
     0
171
     0
290
     0
174
     0
 93
        1
 44
0.0
173
     0
291
     0
 45
0.0
  0
VISUALSTYLE
  5
35
102
{ACAD_REACTORS
330
2A
102
}
102
{ACAD_XDICTIONARY
360
57
102
}
330
2A
100
AcDbVisualStyle
  2
Dim
 70
    11
 71
     2
 72
     2
 73
     0
 90
        0
 40
-0.6
 41
-30.0
 62
     5
 63
     7
421
 16777215
 74
     1
 91
        4
 64
     7
 65
   257
 75
     1
175
     1
 42
1.0
 92
        8
 66
     7
 43
1.0
 76
     1
 77
     6
 78
     2
 67
     7
 79
     5
170
     0
171
     0
290
     0
174
     0
 93
        1
 44
-50.0
173
     0
291
     1
 45
0.0
  0
VISUALSTYLE
  5
39
102
{ACAD_REACTORS
330
2A
102
}
102
{ACAD_XDICTIONARY
360
5F
102
}
330
2A
100
AcDbVisualStyle
  2
Facepattern
 70
    15
 71
     2
 72
     2
 73
     0
 90
        0
 40
-0.6
 41
-30.0
 62
     5
 63
     7
421
 16777215
 74
     1
 91
        4
 64
     7
 65
   257
 75
     1
175
     1
 42
1.0
 92
        8
 66
     7
 43
1.0
 76
     1
 77
     6
 78
     2
 67
     7
 79
     5
170
     0
171
     0
290
     0
174
     0
 93
        1
 44
0.0
173
     0
291
     1
 45
0.0
  0
VISUALSTYLE
  5
2B
102
{ACAD_REACTORS
330
2A
102
}
102
{ACAD_XDICTIONARY
360
43
102
}
330
2A
100
AcDbVisualStyle
  2
Flat
 70
     0
 71
     2
 72
     1
 73
     1
 90
        2
 40
-0.6
 41
30.0
 62
     5
 63
     7
421
 16777215
 74
     0
 91
        4
 64
     7
 65
   257
 75
     1
175
     1
 42
1.0
 92
        8
 66
     7
 43
1.0
 76
     1
 77
     6
 78
     2
 67
     7
 79
     5
170
     0
171
     0
290
     0
174
     0
 93
       13
 44
0.0
173
     0
291
     1
 45
0.0
  0
VISUALSTYLE
  5
2C
102
{ACAD_REACTORS
330
2A
102
}
102
{ACAD_XDICTIONARY
360
45
102
}
330
2A
100
AcDbVisualStyle
  2
FlatWithEdges
 70
     1
 71
     2
 72
     1
 73
     1
 90
        2
 40
-0.6
 41
30.0
 62
     5
 63
     7
421
 16777215
 74
     1
 91
        4
 64
     7
 65
   257
 75
     1
175
     1
 42
1.0
 92
        0
 66
   257
 43
1.0
 76
     1
 77
     6
 78
     2
 67
     7
 79
     5
170
     0
171
     0
290
     0
174
     0
 93
       13
 44
0.0
173
     0
291
     1
 45
0.0
  0
VISUALSTYLE
  5
2D
102
{ACAD_REACTORS
330
2A
102
}
102
{ACAD_XDICTIONARY
360
47
102
}
330
2A
100
AcDbVisualStyle
  2
Gouraud
 70
     2
 71
     2
 72
     2
 73
     1
 90
        2
 40
-0.6
 41
30.0
 62
     5
 63
     7
421
 16777215
 74
     0
 91
        4
 64
     7
 65
   257
 75
     1
175
     1
 42
1.0
 92
        0
 66
     7
 43
1.0
 76
     1
 77
     6
 78
     2
 67
     7
 79
     5
170
     0
171
     0
290
     0
174
     0
 93
       13
 44
0.0
173
     0
291
     1
 45
0.0
  0
VISUALSTYLE
  5
2E
102
{ACAD_REACTORS
330
2A
102
}
102
{ACAD_XDICTIONARY
360
49
102
}
330
2A
100
AcDbVisualStyle
  2
GouraudWithEdges
 70
     3
 71
     2
 72
     2
 73
     1
 90
        2
 40
-0.6
 41
30.0
 62
     5
 63
     7
421
 16777215
 74
     1
 91
        4
 64
     7
 65
   257
 75
     1
175
     1
 42
1.0
 92
        0
 66
   257
 43
1.0
 76
     1
 77
     6
 78
     2
 67
     7
 79
     5
170
     0
171
     0
290
     0
174
     0
 93
       13
 44
0.0
173
     0
291
     1
 45
0.0
  0
VISUALSTYLE
  5
38
102
{ACAD_REACTORS
330
2A
102
}
102
{ACAD_XDICTIONARY
360
5D
102
}
330
2A
100
AcDbVisualStyle
  2
Linepattern
 70
    14
 71
     2
 72
     2
 73
     0
 90
        0
 40
-0.6
 41
-30.0
 62
     5
 63
     7
421
 16777215
 74
     1
 91
        4
 64
     7
 65
   257
 75
     7
175
     7
 42
1.0
 92
        8
 66
     7
 43
1.0
 76
     1
 77
     6
 78
     2
 67
     7
 79
     5
170
     0
171
     0
290
     0
174
     0
 93
        1
 44
0.0
173
     0
291
     1
 45
0.0
  0
VISUALSTYLE
  5
33
102
{ACAD_REACTORS
330
2A
102
}
102
{ACAD_XDICTIONARY
360
53
102
}
330
2A
100
AcDbVisualStyle
  2
Realistic
 70
     8
 71
     2
 72
     2
 73
     0
 90
        0
 40
-0.6
 41
-30.0
 62
     5
 63
     7
421
 16777215
 74
     1
 91
        0
 64
     7
 65
   257
 75
     1
175
     1
 42
1.0
 92
        8
 66
     8
424
  7895160
 43
1.0
 76
     1
 77
     6
 78
     2
 67
     7
 79
     5
170
     0
171
     0
290
     0
174
     0
 93
       13
 44
0.0
173
     0
291
     0
 45
0.0
  0
VISUALSTYLE
  5
37
102
{ACAD_REACTORS
330
2A
102
}
102
{ACAD_XDICTIONARY
360
5B
102
}
330
2A
100
AcDbVisualStyle
  2
Thicken
 70
    13
 71
     2
 72
     2
 73
     0
 90
        0
 40
-0.6
 41
-30.0
 62
     5
 63
     7
421
 16777215
 74
     1
 91
        4
 64
     7
 65
   257
 75
     1
175
     1
 42
1.0
 92
       12
 66
     7
 43
1.0
 76
     1
 77
     6
 78
     2
 67
     7
 79
     5
170
     0
171
     0
290
     0
174
     0
 93
        1
 44
0.0
173
     0
291
     1
 45
0.0
  0
DICTIONARY
  5
4B
330
2F
100
AcDbDictionary
280
     1
281
     1
  3
ACAD_XREC_ROUNDTRIP
360
4C
  0
DICTIONARY
  5
4F
330
31
100
AcDbDictionary
280
     1
281
     1
  3
ACAD_XREC_ROUNDTRIP
360
50
  0
DICTIONARY
  5
4D
330
30
100
AcDbDictionary
280
     1
281
     1
  3
ACAD_XREC_ROUNDTRIP
360
4E
  0
DICTIONARY
  5
51
330
32
100
AcDbDictionary
280
     1
281
     1
  3
ACAD_XREC_ROUNDTRIP
360
52
  0
DICTIONARY
  5
59
330
36
100
AcDbDictionary
280
     1
281
     1
  3
ACAD_XREC_ROUNDTRIP
360
5A
  0
DICTIONARY
  5
61
330
3A
100
AcDbDictionary
280
     1
281
     1
  3
ACAD_XREC_ROUNDTRIP
360
62
  0
DICTIONARY
  5
55
330
34
100
AcDbDictionary
280
     1
281
     1
  3
ACAD_XREC_ROUNDTRIP
360
56
  0
DICTIONARY
  5
57
330
35
100
AcDbDictionary
280
     1
281
     1
  3
ACAD_XREC_ROUNDTRIP
360
58
  0
DICTIONARY
  5
5F
330
39
100
AcDbDictionary
280
     1
281
     1
  3
ACAD_XREC_ROUNDTRIP
360
60
  0
DICTIONARY
  5
43
330
2B
100
AcDbDictionary
280
     1
281
     1
  3
ACAD_XREC_ROUNDTRIP
360
44
  0
DICTIONARY
  5
45
330
2C
100
AcDbDictionary
280
     1
281
     1
  3
ACAD_XREC_ROUNDTRIP
360
46
  0
DICTIONARY
  5
47
330
2D
100
AcDbDictionary
280
     1
281
     1
  3
ACAD_XREC_ROUNDTRIP
360
48
  0
DICTIONARY
  5
49
330
2E
100
AcDbDictionary
280
     1
281
     1
  3
ACAD_XREC_ROUNDTRIP
360
4A
  0
DICTIONARY
  5
5D
330
38
100
AcDbDictionary
280
     1
281
     1
  3
ACAD_XREC_ROUNDTRIP
360
5E
  0
DICTIONARY
  5
53
330
33
100
AcDbDictionary
280
     1
281
     1
  3
ACAD_XREC_ROUNDTRIP
360
54
  0
DICTIONARY
  5
5B
330
37
100
AcDbDictionary
280
     1
281
     1
  3
ACAD_XREC_ROUNDTRIP
360
5C
  0
XRECORD
  5
4C
102
{ACAD_REACTORS
330
4B
102
}
330
4B
100
AcDbXrecord
280
     1
102
RTVSPropertyOp0
 70
     1
102
RTVSPropertyOp1
 70
     1
102
RTVSPropertyOp2
 70
     1
102
RTVSPropertyOp3
 70
     1
102
RTVSPropertyOp4
 70
     1
102
RTVSPropertyOp5
 70
     1
102
RTVSPropertyOp6
 70
     1
102
RTVSPropertyOp7
 70
     1
102
RTVSPropertyOp8
 70
     1
102
RTVSPropertyOp9
 70
     1
102
RTVSPropertyOp10
 70
     1
102
RTVSPropertyOp11
 70
     1
102
RTVSPropertyOp12
 70
     1
102
RTVSPropertyOp13
 70
     1
102
RTVSPropertyOp14
 70
     1
102
RTVSPropertyOp15
 70
     1
102
RTVSPropertyOp16
 70
     1
102
RTVSPropertyOp17
 70
     1
102
RTVSPropertyOp18
 70
     1
102
RTVSPropertyOp19
 70
     1
102
RTVSPropertyOp20
 70
     1
102
RTVSPropertyOp21
 70
     1
102
RTVSPropertyOp22
 70
     1
102
RTVSPropertyOp23
 70
     1
102
RTVSPropertyOp24
 70
     1
102
RTVSPropertyOp25
 70
     1
102
RTVSPropertyOp26
 70
     1
102
RTVSPropertyOp27
 70
     1
102
RTVSPropertyOp28
 70
     1
102
RTVSPropertyOp29
 70
     1
102
RTVSPropertyOp30
 70
     1
102
RTVSPropertyOp31
 70
     1
102
RTVSPropertyOp32
 70
     1
  0
XRECORD
  5
50
102
{ACAD_REACTORS
330
4F
102
}
330
4F
100
AcDbXrecord
280
     1
102
RTVSPropertyOp0
 70
     1
102
RTVSPropertyOp1
 70
     1
102
RTVSPropertyOp2
 70
     1
102
RTVSPropertyOp3
 70
     1
102
RTVSPropertyOp4
 70
     1
102
RTVSPropertyOp5
 70
     1
102
RTVSPropertyOp6
 70
     1
102
RTVSPropertyOp7
 70
     1
102
RTVSPropertyOp8
 70
     1
102
RTVSPropertyOp9
 70
     1
102
RTVSPropertyOp10
 70
     1
102
RTVSPropertyOp11
 70
     1
102
RTVSPropertyOp12
 70
     1
102
RTVSPropertyOp13
 70
     1
102
RTVSPropertyOp14
 70
     1
102
RTVSPropertyOp15
 70
     1
102
RTVSPropertyOp16
 70
     1
102
RTVSPropertyOp17
 70
     1
102
RTVSPropertyOp18
 70
     1
102
RTVSPropertyOp19
 70
     1
102
RTVSPropertyOp20
 70
     1
102
RTVSPropertyOp21
 70
     1
102
RTVSPropertyOp22
 70
     1
102
RTVSPropertyOp23
 70
     1
102
RTVSPropertyOp24
 70
     1
102
RTVSPropertyOp25
 70
     1
102
RTVSPropertyOp26
 70
     1
102
RTVSPropertyOp27
 70
     1
102
RTVSPropertyOp28
 70
     1
102
RTVSPropertyOp29
 70
     1
102
RTVSPropertyOp30
 70
     1
102
RTVSPropertyOp31
 70
     1
102
RTVSPropertyOp32
 70
     1
  0
XRECORD
  5
4E
102
{ACAD_REACTORS
330
4D
102
}
330
4D
100
AcDbXrecord
280
     1
102
RTVSPropertyOp0
 70
     1
102
RTVSPropertyOp1
 70
     1
102
RTVSPropertyOp2
 70
     1
102
RTVSPropertyOp3
 70
     1
102
RTVSPropertyOp4
 70
     1
102
RTVSPropertyOp5
 70
     1
102
RTVSPropertyOp6
 70
     1
102
RTVSPropertyOp7
 70
     1
102
RTVSPropertyOp8
 70
     1
102
RTVSPropertyOp9
 70
     1
102
RTVSPropertyOp10
 70
     1
102
RTVSPropertyOp11
 70
     1
102
RTVSPropertyOp12
 70
     1
102
RTVSPropertyOp13
 70
     1
102
RTVSPropertyOp14
 70
     1
102
RTVSPropertyOp15
 70
     1
102
RTVSPropertyOp16
 70
     1
102
RTVSPropertyOp17
 70
     1
102
RTVSPropertyOp18
 70
     1
102
RTVSPropertyOp19
 70
     1
102
RTVSPropertyOp20
 70
     1
102
RTVSPropertyOp21
 70
     1
102
RTVSPropertyOp22
 70
     1
102
RTVSPropertyOp23
 70
     1
102
RTVSPropertyOp24
 70
     1
102
RTVSPropertyOp25
 70
     1
102
RTVSPropertyOp26
 70
     1
102
RTVSPropertyOp27
 70
     1
102
RTVSPropertyOp28
 70
     1
102
RTVSPropertyOp29
 70
     1
102
RTVSPropertyOp30
 70
     1
102
RTVSPropertyOp31
 70
     1
102
RTVSPropertyOp32
 70
     1
  0
XRECORD
  5
52
102
{ACAD_REACTORS
330
51
102
}
330
51
100
AcDbXrecord
280
     1
102
RTVSPropertyOp0
 70
     1
102
RTVSPropertyOp1
 70
     1
102
RTVSPropertyOp2
 70
     1
102
RTVSPropertyOp3
 70
     1
102
RTVSPropertyOp4
 70
     1
102
RTVSPropertyOp5
 70
     1
102
RTVSPropertyOp6
 70
     1
102
RTVSPropertyOp7
 70
     1
102
RTVSPropertyOp8
 70
     1
102
RTVSPropertyOp9
 70
     1
102
RTVSPropertyOp10
 70
     1
102
RTVSPropertyOp11
 70
     1
102
RTVSPropertyOp12
 70
     1
102
RTVSPropertyOp13
 70
     1
102
RTVSPropertyOp14
 70
     1
102
RTVSPropertyOp15
 70
     1
102
RTVSPropertyOp16
 70
     1
102
RTVSPropertyOp17
 70
     1
102
RTVSPropertyOp18
 70
     1
102
RTVSPropertyOp19
 70
     1
102
RTVSPropertyOp20
 70
     1
102
RTVSPropertyOp21
 70
     1
102
RTVSPropertyOp22
 70
     1
102
RTVSPropertyOp23
 70
     1
102
RTVSPropertyOp24
 70
     1
102
RTVSPropertyOp25
 70
     1
102
RTVSPropertyOp26
 70
     1
102
RTVSPropertyOp27
 70
     1
102
RTVSPropertyOp28
 70
     1
102
RTVSPropertyOp29
 70
     1
102
RTVSPropertyOp30
 70
     1
102
RTVSPropertyOp31
 70
     1
102
RTVSPropertyOp32
 70
     1
  0
XRECORD
  5
5A
102
{ACAD_REACTORS
330
59
102
}
330
59
100
AcDbXrecord
280
     1
102
RTVSPropertyOp0
 70
     1
102
RTVSPropertyOp1
 70
     1
102
RTVSPropertyOp2
 70
     1
102
RTVSPropertyOp3
 70
     1
102
RTVSPropertyOp4
 70
     1
102
RTVSPropertyOp5
 70
     1
102
RTVSPropertyOp6
 70
     1
102
RTVSPropertyOp7
 70
     1
102
RTVSPropertyOp8
 70
     1
102
RTVSPropertyOp9
 70
     1
102
RTVSPropertyOp10
 70
     1
102
RTVSPropertyOp11
 70
     1
102
RTVSPropertyOp12
 70
     1
102
RTVSPropertyOp13
 70
     1
102
RTVSPropertyOp14
 70
     1
102
RTVSPropertyOp15
 70
     1
102
RTVSPropertyOp16
 70
     1
102
RTVSPropertyOp17
 70
     1
102
RTVSPropertyOp18
 70
     1
102
RTVSPropertyOp19
 70
     1
102
RTVSPropertyOp20
 70
     1
102
RTVSPropertyOp21
 70
     1
102
RTVSPropertyOp22
 70
     1
102
RTVSPropertyOp23
 70
     1
102
RTVSPropertyOp24
 70
     1
102
RTVSPropertyOp25
 70
     1
102
RTVSPropertyOp26
 70
     1
102
RTVSPropertyOp27
 70
     1
102
RTVSPropertyOp28
 70
     1
102
RTVSPropertyOp29
 70
     1
102
RTVSPropertyOp30
 70
     1
102
RTVSPropertyOp31
 70
     1
102
RTVSPropertyOp32
 70
     1
  0
XRECORD
  5
62
102
{ACAD_REACTORS
330
61
102
}
330
61
100
AcDbXrecord
280
     1
102
RTVSPropertyOp0
 70
     1
102
RTVSPropertyOp1
 70
     1
102
RTVSPropertyOp2
 70
     1
102
RTVSPropertyOp3
 70
     1
102
RTVSPropertyOp4
 70
     1
102
RTVSPropertyOp5
 70
     1
102
RTVSPropertyOp6
 70
     1
102
RTVSPropertyOp7
 70
     1
102
RTVSPropertyOp8
 70
     1
102
RTVSPropertyOp9
 70
     1
102
RTVSPropertyOp10
 70
     1
102
RTVSPropertyOp11
 70
     1
102
RTVSPropertyOp12
 70
     1
102
RTVSPropertyOp13
 70
     1
102
RTVSPropertyOp14
 70
     1
102
RTVSPropertyOp15
 70
     1
102
RTVSPropertyOp16
 70
     1
102
RTVSPropertyOp17
 70
     1
102
RTVSPropertyOp18
 70
     1
102
RTVSPropertyOp19
 70
     1
102
RTVSPropertyOp20
 70
     1
102
RTVSPropertyOp21
 70
     1
102
RTVSPropertyOp22
 70
     1
102
RTVSPropertyOp23
 70
     1
102
RTVSPropertyOp24
 70
     1
102
RTVSPropertyOp25
 70
     1
102
RTVSPropertyOp26
 70
     1
102
RTVSPropertyOp27
 70
     1
102
RTVSPropertyOp28
 70
     1
102
RTVSPropertyOp29
 70
     1
102
RTVSPropertyOp30
 70
     1
102
RTVSPropertyOp31
 70
     1
102
RTVSPropertyOp32
 70
     1
  0
XRECORD
  5
56
102
{ACAD_REACTORS
330
55
102
}
330
55
100
AcDbXrecord
280
     1
102
RTVSPropertyOp0
 70
     1
102
RTVSPropertyOp1
 70
     1
102
RTVSPropertyOp2
 70
     1
102
RTVSPropertyOp3
 70
     1
102
RTVSPropertyOp4
 70
     1
102
RTVSPropertyOp5
 70
     1
102
RTVSPropertyOp6
 70
     1
102
RTVSPropertyOp7
 70
     1
102
RTVSPropertyOp8
 70
     1
102
RTVSPropertyOp9
 70
     1
102
RTVSPropertyOp10
 70
     1
102
RTVSPropertyOp11
 70
     1
102
RTVSPropertyOp12
 70
     1
102
RTVSPropertyOp13
 70
     1
102
RTVSPropertyOp14
 70
     1
102
RTVSPropertyOp15
 70
     1
102
RTVSPropertyOp16
 70
     1
102
RTVSPropertyOp17
 70
     1
102
RTVSPropertyOp18
 70
     1
102
RTVSPropertyOp19
 70
     1
102
RTVSPropertyOp20
 70
     1
102
RTVSPropertyOp21
 70
     1
102
RTVSPropertyOp22
 70
     1
102
RTVSPropertyOp23
 70
     1
102
RTVSPropertyOp24
 70
     1
102
RTVSPropertyOp25
 70
     1
102
RTVSPropertyOp26
 70
     1
102
RTVSPropertyOp27
 70
     1
102
RTVSPropertyOp28
 70
     1
102
RTVSPropertyOp29
 70
     1
102
RTVSPropertyOp30
 70
     1
102
RTVSPropertyOp31
 70
     1
102
RTVSPropertyOp32
 70
     1
  0
XRECORD
  5
58
102
{ACAD_REACTORS
330
57
102
}
330
57
100
AcDbXrecord
280
     1
102
RTVSPropertyOp0
 70
     1
102
RTVSPropertyOp1
 70
     1
102
RTVSPropertyOp2
 70
     1
102
RTVSPropertyOp3
 70
     1
102
RTVSPropertyOp4
 70
     1
102
RTVSPropertyOp5
 70
     1
102
RTVSPropertyOp6
 70
     1
102
RTVSPropertyOp7
 70
     1
102
RTVSPropertyOp8
 70
     1
102
RTVSPropertyOp9
 70
     1
102
RTVSPropertyOp10
 70
     1
102
RTVSPropertyOp11
 70
     1
102
RTVSPropertyOp12
 70
     1
102
RTVSPropertyOp13
 70
     1
102
RTVSPropertyOp14
 70
     1
102
RTVSPropertyOp15
 70
     1
102
RTVSPropertyOp16
 70
     1
102
RTVSPropertyOp17
 70
     1
102
RTVSPropertyOp18
 70
     1
102
RTVSPropertyOp19
 70
     1
102
RTVSPropertyOp20
 70
     1
102
RTVSPropertyOp21
 70
     1
102
RTVSPropertyOp22
 70
     1
102
RTVSPropertyOp23
 70
     1
102
RTVSPropertyOp24
 70
     1
102
RTVSPropertyOp25
 70
     1
102
RTVSPropertyOp26
 70
     1
102
RTVSPropertyOp27
 70
     1
102
RTVSPropertyOp28
 70
     1
102
RTVSPropertyOp29
 70
     1
102
RTVSPropertyOp30
 70
     1
102
RTVSPropertyOp31
 70
     1
102
RTVSPropertyOp32
 70
     1
  0
XRECORD
  5
60
102
{ACAD_REACTORS
330
5F
102
}
330
5F
100
AcDbXrecord
280
     1
102
RTVSPropertyOp0
 70
     1
102
RTVSPropertyOp1
 70
     1
102
RTVSPropertyOp2
 70
     1
102
RTVSPropertyOp3
 70
     1
102
RTVSPropertyOp4
 70
     1
102
RTVSPropertyOp5
 70
     1
102
RTVSPropertyOp6
 70
     1
102
RTVSPropertyOp7
 70
     1
102
RTVSPropertyOp8
 70
     1
102
RTVSPropertyOp9
 70
     1
102
RTVSPropertyOp10
 70
     1
102
RTVSPropertyOp11
 70
     1
102
RTVSPropertyOp12
 70
     1
102
RTVSPropertyOp13
 70
     1
102
RTVSPropertyOp14
 70
     1
102
RTVSPropertyOp15
 70
     1
102
RTVSPropertyOp16
 70
     1
102
RTVSPropertyOp17
 70
     1
102
RTVSPropertyOp18
 70
     1
102
RTVSPropertyOp19
 70
     1
102
RTVSPropertyOp20
 70
     1
102
RTVSPropertyOp21
 70
     1
102
RTVSPropertyOp22
 70
     1
102
RTVSPropertyOp23
 70
     1
102
RTVSPropertyOp24
 70
     1
102
RTVSPropertyOp25
 70
     1
102
RTVSPropertyOp26
 70
     1
102
RTVSPropertyOp27
 70
     1
102
RTVSPropertyOp28
 70
     1
102
RTVSPropertyOp29
 70
     1
102
RTVSPropertyOp30
 70
     1
102
RTVSPropertyOp31
 70
     1
102
RTVSPropertyOp32
 70
     1
  0
XRECORD
  5
44
102
{ACAD_REACTORS
330
43
102
}
330
43
100
AcDbXrecord
280
     1
102
RTVSPropertyOp0
 70
     1
102
RTVSPropertyOp1
 70
     1
102
RTVSPropertyOp2
 70
     1
102
RTVSPropertyOp3
 70
     1
102
RTVSPropertyOp4
 70
     1
102
RTVSPropertyOp5
 70
     1
102
RTVSPropertyOp6
 70
     1
102
RTVSPropertyOp7
 70
     1
102
RTVSPropertyOp8
 70
     1
102
RTVSPropertyOp9
 70
     1
102
RTVSPropertyOp10
 70
     1
102
RTVSPropertyOp11
 70
     1
102
RTVSPropertyOp12
 70
     1
102
RTVSPropertyOp13
 70
     1
102
RTVSPropertyOp14
 70
     1
102
RTVSPropertyOp15
 70
     1
102
RTVSPropertyOp16
 70
     1
102
RTVSPropertyOp17
 70
     1
102
RTVSPropertyOp18
 70
     1
102
RTVSPropertyOp19
 70
     1
102
RTVSPropertyOp20
 70
     1
102
RTVSPropertyOp21
 70
     1
102
RTVSPropertyOp22
 70
     1
102
RTVSPropertyOp23
 70
     1
102
RTVSPropertyOp24
 70
     1
102
RTVSPropertyOp25
 70
     1
102
RTVSPropertyOp26
 70
     1
102
RTVSPropertyOp27
 70
     1
102
RTVSPropertyOp28
 70
     1
102
RTVSPropertyOp29
 70
     1
102
RTVSPropertyOp30
 70
     1
102
RTVSPropertyOp31
 70
     1
102
RTVSPropertyOp32
 70
     1
  0
XRECORD
  5
46
102
{ACAD_REACTORS
330
45
102
}
330
45
100
AcDbXrecord
280
     1
102
RTVSPropertyOp0
 70
     1
102
RTVSPropertyOp1
 70
     1
102
RTVSPropertyOp2
 70
     1
102
RTVSPropertyOp3
 70
     1
102
RTVSPropertyOp4
 70
     1
102
RTVSPropertyOp5
 70
     1
102
RTVSPropertyOp6
 70
     1
102
RTVSPropertyOp7
 70
     1
102
RTVSPropertyOp8
 70
     1
102
RTVSPropertyOp9
 70
     1
102
RTVSPropertyOp10
 70
     1
102
RTVSPropertyOp11
 70
     1
102
RTVSPropertyOp12
 70
     1
102
RTVSPropertyOp13
 70
     1
102
RTVSPropertyOp14
 70
     1
102
RTVSPropertyOp15
 70
     1
102
RTVSPropertyOp16
 70
     1
102
RTVSPropertyOp17
 70
     1
102
RTVSPropertyOp18
 70
     1
102
RTVSPropertyOp19
 70
     1
102
RTVSPropertyOp20
 70
     1
102
RTVSPropertyOp21
 70
     1
102
RTVSPropertyOp22
 70
     1
102
RTVSPropertyOp23
 70
     1
102
RTVSPropertyOp24
 70
     1
102
RTVSPropertyOp25
 70
     1
102
RTVSPropertyOp26
 70
     1
102
RTVSPropertyOp27
 70
     1
102
RTVSPropertyOp28
 70
     1
102
RTVSPropertyOp29
 70
     1
102
RTVSPropertyOp30
 70
     1
102
RTVSPropertyOp31
 70
     1
102
RTVSPropertyOp32
 70
     1
  0
XRECORD
  5
48
102
{ACAD_REACTORS
330
47
102
}
330
47
100
AcDbXrecord
280
     1
102
RTVSPropertyOp0
 70
     1
102
RTVSPropertyOp1
 70
     1
102
RTVSPropertyOp2
 70
     1
102
RTVSPropertyOp3
 70
     1
102
RTVSPropertyOp4
 70
     1
102
RTVSPropertyOp5
 70
     1
102
RTVSPropertyOp6
 70
     1
102
RTVSPropertyOp7
 70
     1
102
RTVSPropertyOp8
 70
     1
102
RTVSPropertyOp9
 70
     1
102
RTVSPropertyOp10
 70
     1
102
RTVSPropertyOp11
 70
     1
102
RTVSPropertyOp12
 70
     1
102
RTVSPropertyOp13
 70
     1
102
RTVSPropertyOp14
 70
     1
102
RTVSPropertyOp15
 70
     1
102
RTVSPropertyOp16
 70
     1
102
RTVSPropertyOp17
 70
     1
102
RTVSPropertyOp18
 70
     1
102
RTVSPropertyOp19
 70
     1
102
RTVSPropertyOp20
 70
     1
102
RTVSPropertyOp21
 70
     1
102
RTVSPropertyOp22
 70
     1
102
RTVSPropertyOp23
 70
     1
102
RTVSPropertyOp24
 70
     1
102
RTVSPropertyOp25
 70
     1
102
RTVSPropertyOp26
 70
     1
102
RTVSPropertyOp27
 70
     1
102
RTVSPropertyOp28
 70
     1
102
RTVSPropertyOp29
 70
     1
102
RTVSPropertyOp30
 70
     1
102
RTVSPropertyOp31
 70
     1
102
RTVSPropertyOp32
 70
     1
  0
XRECORD
  5
4A
102
{ACAD_REACTORS
330
49
102
}
330
49
100
AcDbXrecord
280
     1
102
RTVSPropertyOp0
 70
     1
102
RTVSPropertyOp1
 70
     1
102
RTVSPropertyOp2
 70
     1
102
RTVSPropertyOp3
 70
     1
102
RTVSPropertyOp4
 70
     1
102
RTVSPropertyOp5
 70
     1
102
RTVSPropertyOp6
 70
     1
102
RTVSPropertyOp7
 70
     1
102
RTVSPropertyOp8
 70
     1
102
RTVSPropertyOp9
 70
     1
102
RTVSPropertyOp10
 70
     1
102
RTVSPropertyOp11
 70
     1
102
RTVSPropertyOp12
 70
     1
102
RTVSPropertyOp13
 70
     1
102
RTVSPropertyOp14
 70
     1
102
RTVSPropertyOp15
 70
     1
102
RTVSPropertyOp16
 70
     1
102
RTVSPropertyOp17
 70
     1
102
RTVSPropertyOp18
 70
     1
102
RTVSPropertyOp19
 70
     1
102
RTVSPropertyOp20
 70
     1
102
RTVSPropertyOp21
 70
     1
102
RTVSPropertyOp22
 70
     1
102
RTVSPropertyOp23
 70
     1
102
RTVSPropertyOp24
 70
     1
102
RTVSPropertyOp25
 70
     1
102
RTVSPropertyOp26
 70
     1
102
RTVSPropertyOp27
 70
     1
102
RTVSPropertyOp28
 70
     1
102
RTVSPropertyOp29
 70
     1
102
RTVSPropertyOp30
 70
     1
102
RTVSPropertyOp31
 70
     1
102
RTVSPropertyOp32
 70
     1
  0
XRECORD
  5
5E
102
{ACAD_REACTORS
330
5D
102
}
330
5D
100
AcDbXrecord
280
     1
102
RTVSPropertyOp0
 70
     1
102
RTVSPropertyOp1
 70
     1
102
RTVSPropertyOp2
 70
     1
102
RTVSPropertyOp3
 70
     1
102
RTVSPropertyOp4
 70
     1
102
RTVSPropertyOp5
 70
     1
102
RTVSPropertyOp6
 70
     1
102
RTVSPropertyOp7
 70
     1
102
RTVSPropertyOp8
 70
     1
102
RTVSPropertyOp9
 70
     1
102
RTVSPropertyOp10
 70
     1
102
RTVSPropertyOp11
 70
     1
102
RTVSPropertyOp12
 70
     1
102
RTVSPropertyOp13
 70
     1
102
RTVSPropertyOp14
 70
     1
102
RTVSPropertyOp15
 70
     1
102
RTVSPropertyOp16
 70
     1
102
RTVSPropertyOp17
 70
     1
102
RTVSPropertyOp18
 70
     1
102
RTVSPropertyOp19
 70
     1
102
RTVSPropertyOp20
 70
     1
102
RTVSPropertyOp21
 70
     1
102
RTVSPropertyOp22
 70
     1
102
RTVSPropertyOp23
 70
     1
102
RTVSPropertyOp24
 70
     1
102
RTVSPropertyOp25
 70
     1
102
RTVSPropertyOp26
 70
     1
102
RTVSPropertyOp27
 70
     1
102
RTVSPropertyOp28
 70
     1
102
RTVSPropertyOp29
 70
     1
102
RTVSPropertyOp30
 70
     1
102
RTVSPropertyOp31
 70
     1
102
RTVSPropertyOp32
 70
     1
  0
XRECORD
  5
54
102
{ACAD_REACTORS
330
53
102
}
330
53
100
AcDbXrecord
280
     1
102
RTVSPropertyOp0
 70
     1
102
RTVSPropertyOp1
 70
     1
102
RTVSPropertyOp2
 70
     1
102
RTVSPropertyOp3
 70
     1
102
RTVSPropertyOp4
 70
     1
102
RTVSPropertyOp5
 70
     1
102
RTVSPropertyOp6
 70
     1
102
RTVSPropertyOp7
 70
     1
102
RTVSPropertyOp8
 70
     1
102
RTVSPropertyOp9
 70
     1
102
RTVSPropertyOp10
 70
     1
102
RTVSPropertyOp11
 70
     1
102
RTVSPropertyOp12
 70
     1
102
RTVSPropertyOp13
 70
     1
102
RTVSPropertyOp14
 70
     1
102
RTVSPropertyOp15
 70
     1
102
RTVSPropertyOp16
 70
     1
102
RTVSPropertyOp17
 70
     1
102
RTVSPropertyOp18
 70
     1
102
RTVSPropertyOp19
 70
     1
102
RTVSPropertyOp20
 70
     1
102
RTVSPropertyOp21
 70
     1
102
RTVSPropertyOp22
 70
     1
102
RTVSPropertyOp23
 70
     1
102
RTVSPropertyOp24
 70
     1
102
RTVSPropertyOp25
 70
     1
102
RTVSPropertyOp26
 70
     1
102
RTVSPropertyOp27
 70
     1
102
RTVSPropertyOp28
 70
     1
102
RTVSPropertyOp29
 70
     1
102
RTVSPropertyOp30
 70
     1
102
RTVSPropertyOp31
 70
     1
102
RTVSPropertyOp32
 70
     1
  0
XRECORD
  5
5C
102
{ACAD_REACTORS
330
5B
102
}
330
5B
100
AcDbXrecord
280
     1
102
RTVSPropertyOp0
 70
     1
102
RTVSPropertyOp1
 70
     1
102
RTVSPropertyOp2
 70
     1
102
RTVSPropertyOp3
 70
     1
102
RTVSPropertyOp4
 70
     1
102
RTVSPropertyOp5
 70
     1
102
RTVSPropertyOp6
 70
     1
102
RTVSPropertyOp7
 70
     1
102
RTVSPropertyOp8
 70
     1
102
RTVSPropertyOp9
 70
     1
102
RTVSPropertyOp10
 70
     1
102
RTVSPropertyOp11
 70
     1
102
RTVSPropertyOp12
 70
     1
102
RTVSPropertyOp13
 70
     1
102
RTVSPropertyOp14
 70
     1
102
RTVSPropertyOp15
 70
     1
102
RTVSPropertyOp16
 70
     1
102
RTVSPropertyOp17
 70
     1
102
RTVSPropertyOp18
 70
     1
102
RTVSPropertyOp19
 70
     1
102
RTVSPropertyOp20
 70
     1
102
RTVSPropertyOp21
 70
     1
102
RTVSPropertyOp22
 70
     1
102
RTVSPropertyOp23
 70
     1
102
RTVSPropertyOp24
 70
     1
102
RTVSPropertyOp25
 70
     1
102
RTVSPropertyOp26
 70
     1
102
RTVSPropertyOp27
 70
     1
102
RTVSPropertyOp28
 70
     1
102
RTVSPropertyOp29
 70
     1
102
RTVSPropertyOp30
 70
     1
102
RTVSPropertyOp31
 70
     1
102
RTVSPropertyOp32
 70
     1
  0
ENDSEC
  0
EOF
