  0
SECTION
  2
HEADER
  9
$ACADVER
  1
AC1021
  9
$ACADMAINTVER
 70
    25
  9
$DWGCODEPAGE
  3
ANSI_1252
  9
$INSBASE
 10
0.0
 20
0.0
 30
0.0
  9
$EXTMIN
 10
1.000000000000000E+20
 20
1.000000000000000E+20
 30
1.000000000000000E+20
  9
$EXTMAX
 10
-1.000000000000000E+20
 20
-1.000000000000000E+20
 30
-1.000000000000000E+20
  9
$LIMMIN
 10
0.0
 20
0.0
  9
$LIMMAX
 10
12.0
 20
9.0
  9
$ORTHOMODE
 70
     0
  9
$REGENMODE
 70
     1
  9
$FILLMODE
 70
     1
  9
$QTEXTMODE
 70
     0
  9
$MIRRTEXT
 70
     1
  9
$LTSCALE
 40
1.0
  9
$ATTMODE
 70
     1
  9
$TEXTSIZE
 40
0.2
  9
$TRACEWID
 40
0.05
  9
$TEXTSTYLE
  7
Standard
  9
$CLAYER
  8
0
  9
$CELTYPE
  6
ByLayer
  9
$CECOLOR
 62
   256
  9
$CELTSCALE
 40
1.0
  9
$DISPSILH
 70
     0
  9
$DIMSCALE
 40
1.0
  9
$DIMASZ
 40
0.18
  9
$DIMEXO
 40
0.0625
  9
$DIMDLI
 40
0.38
  9
$DIMRND
 40
0.0
  9
$DIMDLE
 40
0.0
  9
$DIMEXE
 40
0.18
  9
$DIMTP
 40
0.0
  9
$DIMTM
 40
0.0
  9
$DIMTXT
 40
0.18
  9
$DIMCEN
 40
0.09
  9
$DIMTSZ
 40
0.0
  9
$DIMTOL
 70
     0
  9
$DIMLIM
 70
     0
  9
$DIMTIH
 70
     1
  9
$DIMTOH
 70
     1
  9
$DIMSE1
 70
     0
  9
$DIMSE2
 70
     0
  9
$DIMTAD
 70
     0
  9
$DIMZIN
 70
     0
  9
$DIMBLK
  1

  9
$DIMASO
 70
     1
  9
$DIMSHO
 70
     1
  9
$DIMPOST
  1

  9
$DIMAPOST
  1

  9
$DIMALT
 70
     0
  9
$DIMALTD
 70
     2
  9
$DIMALTF
 40
25.4
  9
$DIMLFAC
 40
1.0
  9
$DIMTOFL
 70
     0
  9
$DIMTVP
 40
0.0
  9
$DIMTIX
 70
     0
  9
$DIMSOXD
 70
     0
  9
$DIMSAH
 70
     0
  9
$DIMBLK1
  1

  9
$DIMBLK2
  1

  9
$DIMSTYLE
  2
Standard
  9
$DIMCLRD
 70
     0
  9
$DIMCLRE
 70
     0
  9
$DIMCLRT
 70
     0
  9
$DIMTFAC
 40
1.0
  9
$DIMGAP
 40
0.09
  9
$DIMJUST
 70
     0
  9
$DIMSD1
 70
     0
  9
$DIMSD2
 70
     0
  9
$DIMTOLJ
 70
     1
  9
$DIMTZIN
 70
     0
  9
$DIMALTZ
 70
     0
  9
$DIMALTTZ
 70
     0
  9
$DIMUPT
 70
     0
  9
$DIMDEC
 70
     4
  9
$DIMTDEC
 70
     4
  9
$DIMALTU
 70
     2
  9
$DIMALTTD
 70
     2
  9
$DIMTXSTY
  7
Standard
  9
$DIMAUNIT
 70
     0
  9
$DIMADEC
 70
     0
  9
$DIMALTRND
 40
0.0
  9
$DIMAZIN
 70
     0
  9
$DIMDSEP
 70
    46
  9
$DIMATFIT
 70
     3
  9
$DIMFRAC
 70
     0
  9
$DIMLDRBLK
  1

  9
$DIMLUNIT
 70
     2
  9
$DIMLWD
 70
    -2
  9
$DIMLWE
 70
    -2
  9
$DIMTMOVE
 70
     0
  9
$DIMFXL
 40
1.0
  9
$DIMFXLON
 70
     0
  9
$DIMJOGANG
 40
0.7853981633974483
  9
$DIMTFILL
 70
     0
  9
$DIMTFILLCLR
 70
     0
  9
$DIMARCSYM
 70
     0
  9
$DIMLTYPE
  6

  9
$DIMLTEX1
  6

  9
$DIMLTEX2
  6

  9
$LUNITS
 70
     2
  9
$LUPREC
 70
     4
  9
$SKETCHINC
 40
0.1
  9
$FILLETRAD
 40
0.5
  9
$AUNITS
 70
     0
  9
$AUPREC
 70
     0
  9
$MENU
  1
.
  9
$ELEVATION
 40
0.0
  9
$PELEVATION
 40
0.0
  9
$THICKNESS
 40
0.0
  9
$LIMCHECK
 70
     0
  9
$CHAMFERA
 40
0.5
  9
$CHAMFERB
 40
0.5
  9
$CHAMFERC
 40
1.0
  9
$CHAMFERD
 40
0.0
  9
$SKPOLY
 70
     0
  9
$TDCREATE
 40
2458551.626565324
  9
$TDUCREATE
 40
2458551.334898658
  9
$TDUPDATE
 40
2458551.626565324
  9
$TDUUPDATE
 40
2458551.334898658
  9
$TDINDWG
 40
0.0000000116
  9
$TDUSRTIMER
 40
0.0000000116
  9
$USRTIMER
 70
     1
  9
$ANGBASE
 50
0.0
  9
$ANGDIR
 70
     0
  9
$PDMODE
 70
     0
  9
$PDSIZE
 40
0.0
  9
$PLINEWID
 40
0.0
  9
$SPLFRAME
 70
     0
  9
$SPLINETYPE
 70
     6
  9
$SPLINESEGS
 70
     8
  9
$HANDSEED
  5
65
  9
$SURFTAB1
 70
     6
  9
$SURFTAB2
 70
     6
  9
$SURFTYPE
 70
     6
  9
$SURFU
 70
     6
  9
$SURFV
 70
     6
  9
$UCSBASE
  2

  9
$UCSNAME
  2

  9
$UCSORG
 10
0.0
 20
0.0
 30
0.0
  9
$UCSXDIR
 10
1.0
 20
0.0
 30
0.0
  9
$UCSYDIR
 10
0.0
 20
1.0
 30
0.0
  9
$UCSORTHOREF
  2

  9
$UCSORTHOVIEW
 70
     0
  9
$UCSORGTOP
 10
0.0
 20
0.0
 30
0.0
  9
$UCSORGBOTTOM
 10
0.0
 20
0.0
 30
0.0
  9
$UCSORGLEFT
 10
0.0
 20
0.0
 30
0.0
  9
$UCSORGRIGHT
 10
0.0
 20
0.0
 30
0.0
  9
$UCSORGFRONT
 10
0.0
 20
0.0
 30
0.0
  9
$UCSORGBACK
 10
0.0
 20
0.0
 30
0.0
  9
$PUCSBASE
  2

  9
$PUCSNAME
  2

  9
$PUCSORG
 10
0.0
 20
0.0
 30
0.0
  9
$PUCSXDIR
 10
1.0
 20
0.0
 30
0.0
  9
$PUCSYDIR
 10
0.0
 20
1.0
 30
0.0
  9
$PUCSORTHOREF
  2

  9
$PUCSORTHOVIEW
 70
     0
  9
$PUCSORGTOP
 10
0.0
 20
0.0
 30
0.0
  9
$PUCSORGBOTTOM
 10
0.0
 20
0.0
 30
0.0
  9
$PUCSORGLEFT
 10
0.0
 20
0.0
 30
0.0
  9
$PUCSORGRIGHT
 10
0.0
 20
0.0
 30
0.0
  9
$PUCSORGFRONT
 10
0.0
 20
0.0
 30
0.0
  9
$PUCSORGBACK
 10
0.0
 20
0.0
 30
0.0
  9
$USERI1
 70
     0
  9
$USERI2
 70
     0
  9
$USERI3
 70
     0
  9
$USERI4
 70
     0
  9
$USERI5
 70
     0
  9
$USERR1
 40
0.0
  9
$USERR2
 40
0.0
  9
$USERR3
 40
0.0
  9
$USERR4
 40
0.0
  9
$USERR5
 40
0.0
  9
$WORLDVIEW
 70
     1
  9
$SHADEDGE
 70
     3
  9
$SHADEDIF
 70
    70
  9
$TILEMODE
 70
     1
  9
$MAXACTVP
 70
    64
  9
$PINSBASE
 10
0.0
 20
0.0
 30
0.0
  9
$PLIMCHECK
 70
     0
  9
$PEXTMIN
 10
1.000000000000000E+20
 20
1.000000000000000E+20
 30
1.000000000000000E+20
  9
$PEXTMAX
 10
-1.000000000000000E+20
 20
-1.000000000000000E+20
 30
-1.000000000000000E+20
  9
$PLIMMIN
 10
0.0
 20
0.0
  9
$PLIMMAX
 10
12.0
 20
9.0
  9
$UNITMODE
 70
     0
  9
$VISRETAIN
 70
     1
  9
$PLINEGEN
 70
     0
  9
$PSLTSCALE
 70
     1
  9
$TREEDEPTH
 70
  3020
  9
$CMLSTYLE
  2
Standard
  9
$CMLJUST
 70
     0
  9
$CMLSCALE
 40
1.0
  9
$PROXYGRAPHICS
 70
     1
  9
$MEASUREMENT
 70
     0
  9
$CELWEIGHT
370
    -1
  9
$ENDCAPS
280
     0
  9
$JOINSTYLE
280
     0
  9
$LWDISPLAY
290
     1
  9
$INSUNITS
 70
     1
  9
$HYPERLINKBASE
  1

  9
$STYLESHEET
  1

  9
$XEDIT
290
     1
  9
$CEPSNTYPE
380
     0
  9
$PSTYLEMODE
290
     1
  9
$FINGERPRINTGUID
  2
{E80FC78C-6E74-4330-89B8-F799D3A09312}
  9
$VERSIONGUID
  2
{FAEB1C32-E019-11D5-929B-00C0DF256EC4}
  9
$EXTNAMES
290
     1
  9
$PSVPSCALE
 40
0.0
  9
$OLESTARTUP
290
     0
  9
$SORTENTS
280
   127
  9
$INDEXCTL
280
     0
  9
$HIDETEXT
280
     1
  9
$XCLIPFRAME
290
     0
  9
$HALOGAP
280
     0
  9
$OBSCOLOR
 70
   257
  9
$OBSLTYPE
280
     0
  9
$INTERSECTIONDISPLAY
280
     0
  9
$INTERSECTIONCOLOR
 70
   257
  9
$DIMASSOC
280
     2
  9
$PROJECTNAME
  1

  9
$CAMERADISPLAY
290
     0
  9
$LENSLENGTH
 40
50.0
  9
$CAMERAHEIGHT
 40
0.0
  9
$STEPSPERSEC
 40
2.0
  9
$STEPSIZE
 40
6.0
  9
$3DDWFPREC
 40
2.0
  9
$PSOLWIDTH
 40
0.25
  9
$PSOLHEIGHT
 40
4.0
  9
$LOFTANG1
 40
1.570796326794897
  9
$LOFTANG2
 40
1.570796326794897
  9
$LOFTMAG1
 40
0.0
  9
$LOFTMAG2
 40
0.0
  9
$LOFTPARAM
 70
     7
  9
$LOFTNORMALS
280
     1
  9
$LATITUDE
 40
37.795
  9
$LONGITUDE
 40
-122.394
  9
$NORTHDIRECTION
 40
0.0
  9
$TIMEZONE
 70
 -8000
  9
$LIGHTGLYPHDISPLAY
280
     1
  9
$TILEMODELIGHTSYNCH
280
     1
  9
$CMATERIAL
347
3C
  9
$SOLIDHIST
280
     1
  9
$SHOWHIST
280
     1
  9
$DWFFRAME
280
     2
  9
$DGNFRAME
280
     2
  9
$REALWORLDSCALE
290
     1
  9
$INTERFERECOLOR
 62
   256
  9
$CSHADOW
280
     0
  9
$SHADOWPLANELOCATION
 40
0.0
  0
ENDSEC
  0
SECTION
  2
CLASSES
  0
CLASS
  1
ACDBDICTIONARYWDFLT
  2
AcDbDictionaryWithDefault
  3
ObjectDBX Classes
 90
        0
 91
        4
280
     0
281
     0
  0
CLASS
  1
VISUALSTYLE
  2
AcDbVisualStyle
  3
ObjectDBX Classes
 90
     4095
 91
        4
280
     0
281
     0
  0
CLASS
  1
MATERIAL
  2
AcDbMaterial
  3
ObjectDBX Classes
 90
     1153
 91
        4
280
     0
281
     0
  0
CLASS
  1
SUN
  2
AcDbSun
  3
SCENEOE
 90
     1024
 91
        4
280
     0
281
     0
  0
ENDSEC
  0
SECTION
  2
TABLES
  0
TABLE
  2
VPORT
  5
8
330
0
100
AcDbSymbolTable
 70
     1
  0
VPORT
  5
29
330
8
100
AcDbSymbolTableRecord
100
AcDbViewportTableRecord
  2
*Active
 70
     0
 10
0.0
 20
0.0
 11
1.0
 21
1.0
 12
0.0
 22
0.0
 13
0.0
 23
0.0
 14
0.5
 24
0.5
 15
0.5
 25
0.5
 16
0.0
 26
0.0
 36
1.0
 17
39.99961911841359
 27
-39.99962012888904
 37
0.0
 40
79.99924025777808
 41
0.9999999747378738
 42
50.0
 43
0.0
 44
0.0
 50
0.0
 51
0.0
 71
     0
 72
   100
 73
     1
 74
     3
 75
     0
 76
     0
 77
     0
 78
     0
281
     0
 65
     1
110
0.0
120
0.0
130
0.0
111
1.0
121
0.0
131
0.0
112
0.0
122
1.0
132
0.0
 79
     0
146
0.0
 60
     3
 61
     5
292
     1
282
     1
141
0.0
142
0.0
 63
   250
361
3F
  0
ENDTAB
  0
TABLE
  2
LTYPE
  5
5
330
0
100
AcDbSymbolTable
 70
     1
  0
LTYPE
  5
14
330
5
100
AcDbSymbolTableRecord
100
AcDbLinetypeTableRecord
  2
ByBlock
 70
     0
  3

 72
    65
 73
     0
 40
0.0
  0
LTYPE
  5
15
330
5
100
AcDbSymbolTableRecord
100
AcDbLinetypeTableRecord
  2
ByLayer
 70
     0
  3

 72
    65
 73
     0
 40
0.0
  0
LTYPE
  5
16
330
5
100
AcDbSymbolTableRecord
100
AcDbLinetypeTableRecord
  2
Continuous
 70
     0
  3
Solid line
 72
    65
 73
     0
 40
0.0
  0
ENDTAB
  0
TABLE
  2
LAYER
  5
2
330
0
100
AcDbSymbolTable
 70
     2
  0
LAYER
  5
10
330
2
100
AcDbSymbolTableRecord
100
AcDbLayerTableRecord
  2
0
 70
     0
 62
     7
  6
Continuous
370
    -3
390
F
347
3E
  0
LAYER
  5
40
330
2
100
AcDbSymbolTableRecord
100
AcDbLayerTableRecord
  2
Layer 1
 70
     0
 62
     7
  6
Continuous
370
    -3
390
F
347
3E
  0
ENDTAB
  0
TABLE
  2
STYLE
  5
3
330
0
100
AcDbSymbolTable
 70
     1
  0
STYLE
  5
11
330
3
100
AcDbSymbolTableRecord
100
AcDbTextStyleTableRecord
  2
Standard
 70
     0
 40
0.0
 41
1.0
 50
0.0
 71
     0
 42
0.2
  3
txt
  4

  0
ENDTAB
  0
TABLE
  2
VIEW
  5
6
330
0
100
AcDbSymbolTable
 70
     0
  0
ENDTAB
  0
TABLE
  2
UCS
  5
7
330
0
100
AcDbSymbolTable
 70
     0
  0
ENDTAB
  0
TABLE
  2
APPID
  5
9
330
0
100
AcDbSymbolTable
 70
     1
  0
APPID
  5
12
330
9
100
AcDbSymbolTableRecord
100
AcDbRegAppTableRecord
  2
ACAD
 70
     0
  0
ENDTAB
  0
TABLE
  2
DIMSTYLE
  5
A
330
0
100
AcDbSymbolTable
 70
     1
100
AcDbDimStyleTable
  0
DIMSTYLE
105
27
330
A
100
AcDbSymbolTableRecord
100
AcDbDimStyleTableRecord
  2
Standard
 70
     0
178
     0
340
11
  0
ENDTAB
  0
TABLE
  2
BLOCK_RECORD
  5
1
330
0
100
AcDbSymbolTable
 70
     1
  0
BLOCK_RECORD
  5
1F
330
1
100
AcDbSymbolTableRecord
100
AcDbBlockTableRecord
  2
*Model_Space
340
22
 70
     0
280
     1
281
     0
  0
BLOCK_RECORD
  5
1B
330
1
100
AcDbSymbolTableRecord
100
AcDbBlockTableRecord
  2
*Paper_Space
340
1E
 70
     0
280
     1
281
     0
  0
BLOCK_RECORD
  5
23
330
1
100
AcDbSymbolTableRecord
100
AcDbBlockTableRecord
  2
*Paper_Space0
340
26
 70
     0
280
     1
281
     0
  0
ENDTAB
  0
ENDSEC
  0
SECTION
  2
BLOCKS
  0
BLOCK
  5
20
330
1F
100
AcDbEntity
  8
0
100
AcDbBlockBegin
  2
*Model_Space
 70
     0
 10
0.0
 20
0.0
 30
0.0
  3
*Model_Space
  1

  0
ENDBLK
  5
21
330
1F
100
AcDbEntity
  8
0
100
AcDbBlockEnd
  0
BLOCK
  5
1C
330
1B
100
AcDbEntity
 67
     1
  8
0
100
AcDbBlockBegin
  2
*Paper_Space
 70
     0
 10
0.0
 20
0.0
 30
0.0
  3
*Paper_Space
  1

  0
ENDBLK
  5
1D
330
1B
100
AcDbEntity
 67
     1
  8
0
100
AcDbBlockEnd
  0
BLOCK
  5
24
330
23
100
AcDbEntity
  8
0
100
AcDbBlockBegin
  2
*Paper_Space0
 70
     0
 10
0.0
 20
0.0
 30
0.0
  3
*Paper_Space0
  1

  0
ENDBLK
  5
25
330
23
100
AcDbEntity
  8
0
100
AcDbBlockEnd
  0
ENDSEC
  0
SECTION
  2
ENTITIES
  0
SPLINE
  5
41
330
1F
100
AcDbEntity
  8
Layer 1
370
     0
100
AcDbSpline
210
0.0
220
0.0
230
1.0
 70
    11
 71
     3
 72
   713
 73
   709
 74
     0
 42
0.0000000001
 43
0.0000000001
 12
1.0
 22
0.0
 32
0.0
 13
1.0
 23
0.0
 33
0.0
 40
0.0
 40
0.0
 40
0.0
 40
0.0
 40
1.0
 40
1.0
 40
1.0
 40
2.0
 40
2.0
 40
2.0
 40
3.0
 40
3.0
 40
3.0
 40
4.0
 40
4.0
 40
4.0
 40
5.0
 40
5.0
 40
5.0
 40
6.0
 40
6.0
 40
6.0
 40
7.0
 40
7.0
 40
7.0
 40
8.0
 40
8.0
 40
8.0
 40
9.0
 40
9.0
 40
9.0
 40
10.0
 40
10.0
 40
10.0
 40
11.0
 40
11.0
 40
11.0
 40
12.0
 40
12.0
 40
12.0
 40
13.0
 40
13.0
 40
13.0
 40
14.0
 40
14.0
 40
14.0
 40
15.0
 40
15.0
 40
15.0
 40
16.0
 40
16.0
 40
16.0
 40
17.0
 40
17.0
 40
17.0
 40
18.0
 40
18.0
 40
18.0
 40
19.0
 40
19.0
 40
19.0
 40
20.0
 40
20.0
 40
20.0
 40
21.0
 40
21.0
 40
21.0
 40
22.0
 40
22.0
 40
22.0
 40
23.0
 40
23.0
 40
23.0
 40
24.0
 40
24.0
 40
24.0
 40
25.0
 40
25.0
 40
25.0
 40
26.0
 40
26.0
 40
26.0
 40
27.0
 40
27.0
 40
27.0
 40
28.0
 40
28.0
 40
28.0
 40
29.0
 40
29.0
 40
29.0
 40
30.0
 40
30.0
 40
30.0
 40
31.0
 40
31.0
 40
31.0
 40
32.0
 40
32.0
 40
32.0
 40
33.0
 40
33.0
 40
33.0
 40
34.0
 40
34.0
 40
34.0
 40
35.0
 40
35.0
 40
35.0
 40
36.0
 40
36.0
 40
36.0
 40
37.0
 40
37.0
 40
37.0
 40
38.0
 40
38.0
 40
38.0
 40
39.0
 40
39.0
 40
39.0
 40
40.0
 40
40.0
 40
40.0
 40
41.0
 40
41.0
 40
41.0
 40
42.0
 40
42.0
 40
42.0
 40
43.0
 40
43.0
 40
43.0
 40
44.0
 40
44.0
 40
44.0
 40
45.0
 40
45.0
 40
45.0
 40
46.0
 40
46.0
 40
46.0
 40
47.0
 40
47.0
 40
47.0
 40
48.0
 40
48.0
 40
48.0
 40
49.0
 40
49.0
 40
49.0
 40
50.0
 40
50.0
 40
50.0
 40
51.0
 40
51.0
 40
51.0
 40
52.0
 40
52.0
 40
52.0
 40
53.0
 40
53.0
 40
53.0
 40
54.0
 40
54.0
 40
54.0
 40
55.0
 40
55.0
 40
55.0
 40
56.0
 40
56.0
 40
56.0
 40
57.0
 40
57.0
 40
57.0
 40
58.0
 40
58.0
 40
58.0
 40
59.0
 40
59.0
 40
59.0
 40
60.0
 40
60.0
 40
60.0
 40
61.0
 40
61.0
 40
61.0
 40
62.0
 40
62.0
 40
62.0
 40
63.0
 40
63.0
 40
63.0
 40
64.0
 40
64.0
 40
64.0
 40
65.0
 40
65.0
 40
65.0
 40
66.0
 40
66.0
 40
66.0
 40
67.0
 40
67.0
 40
67.0
 40
68.0
 40
68.0
 40
68.0
 40
69.0
 40
69.0
 40
69.0
 40
70.0
 40
70.0
 40
70.0
 40
71.0
 40
71.0
 40
71.0
 40
72.0
 40
72.0
 40
72.0
 40
73.0
 40
73.0
 40
73.0
 40
74.0
 40
74.0
 40
74.0
 40
75.0
 40
75.0
 40
75.0
 40
76.0
 40
76.0
 40
76.0
 40
77.0
 40
77.0
 40
77.0
 40
78.0
 40
78.0
 40
78.0
 40
79.0
 40
79.0
 40
79.0
 40
80.0
 40
80.0
 40
80.0
 40
81.0
 40
81.0
 40
81.0
 40
82.0
 40
82.0
 40
82.0
 40
83.0
 40
83.0
 40
83.0
 40
84.0
 40
84.0
 40
84.0
 40
85.0
 40
85.0
 40
85.0
 40
86.0
 40
86.0
 40
86.0
 40
87.0
 40
87.0
 40
87.0
 40
88.0
 40
88.0
 40
88.0
 40
89.0
 40
89.0
 40
89.0
 40
90.0
 40
90.0
 40
90.0
 40
91.0
 40
91.0
 40
91.0
 40
92.0
 40
92.0
 40
92.0
 40
93.0
 40
93.0
 40
93.0
 40
94.0
 40
94.0
 40
94.0
 40
95.0
 40
95.0
 40
95.0
 40
96.0
 40
96.0
 40
96.0
 40
97.0
 40
97.0
 40
97.0
 40
98.0
 40
98.0
 40
98.0
 40
99.0
 40
99.0
 40
99.0
 40
100.0
 40
100.0
 40
100.0
 40
101.0
 40
101.0
 40
101.0
 40
102.0
 40
102.0
 40
102.0
 40
103.0
 40
103.0
 40
103.0
 40
104.0
 40
104.0
 40
104.0
 40
105.0
 40
105.0
 40
105.0
 40
106.0
 40
106.0
 40
106.0
 40
107.0
 40
107.0
 40
107.0
 40
108.0
 40
108.0
 40
108.0
 40
109.0
 40
109.0
 40
109.0
 40
110.0
 40
110.0
 40
110.0
 40
111.0
 40
111.0
 40
111.0
 40
112.0
 40
112.0
 40
112.0
 40
113.0
 40
113.0
 40
113.0
 40
114.0
 40
114.0
 40
114.0
 40
115.0
 40
115.0
 40
115.0
 40
116.0
 40
116.0
 40
116.0
 40
117.0
 40
117.0
 40
117.0
 40
118.0
 40
118.0
 40
118.0
 40
119.0
 40
119.0
 40
119.0
 40
120.0
 40
120.0
 40
120.0
 40
121.0
 40
121.0
 40
121.0
 40
122.0
 40
122.0
 40
122.0
 40
123.0
 40
123.0
 40
123.0
 40
124.0
 40
124.0
 40
124.0
 40
125.0
 40
125.0
 40
125.0
 40
126.0
 40
126.0
 40
126.0
 40
127.0
 40
127.0
 40
127.0
 40
128.0
 40
128.0
 40
128.0
 40
129.0
 40
129.0
 40
129.0
 40
130.0
 40
130.0
 40
130.0
 40
131.0
 40
131.0
 40
131.0
 40
132.0
 40
132.0
 40
132.0
 40
133.0
 40
133.0
 40
133.0
 40
134.0
 40
134.0
 40
134.0
 40
135.0
 40
135.0
 40
135.0
 40
136.0
 40
136.0
 40
136.0
 40
137.0
 40
137.0
 40
137.0
 40
138.0
 40
138.0
 40
138.0
 40
139.0
 40
139.0
 40
139.0
 40
140.0
 40
140.0
 40
140.0
 40
141.0
 40
141.0
 40
141.0
 40
142.0
 40
142.0
 40
142.0
 40
143.0
 40
143.0
 40
143.0
 40
144.0
 40
144.0
 40
144.0
 40
145.0
 40
145.0
 40
145.0
 40
146.0
 40
146.0
 40
146.0
 40
147.0
 40
147.0
 40
147.0
 40
148.0
 40
148.0
 40
148.0
 40
149.0
 40
149.0
 40
149.0
 40
150.0
 40
150.0
 40
150.0
 40
151.0
 40
151.0
 40
151.0
 40
152.0
 40
152.0
 40
152.0
 40
153.0
 40
153.0
 40
153.0
 40
154.0
 40
154.0
 40
154.0
 40
155.0
 40
155.0
 40
155.0
 40
156.0
 40
156.0
 40
156.0
 40
157.0
 40
157.0
 40
157.0
 40
158.0
 40
158.0
 40
158.0
 40
159.0
 40
159.0
 40
159.0
 40
160.0
 40
160.0
 40
160.0
 40
161.0
 40
161.0
 40
161.0
 40
162.0
 40
162.0
 40
162.0
 40
163.0
 40
163.0
 40
163.0
 40
164.0
 40
164.0
 40
164.0
 40
165.0
 40
165.0
 40
165.0
 40
166.0
 40
166.0
 40
166.0
 40
167.0
 40
167.0
 40
167.0
 40
168.0
 40
168.0
 40
168.0
 40
169.0
 40
169.0
 40
169.0
 40
170.0
 40
170.0
 40
170.0
 40
171.0
 40
171.0
 40
171.0
 40
172.0
 40
172.0
 40
172.0
 40
173.0
 40
173.0
 40
173.0
 40
174.0
 40
174.0
 40
174.0
 40
175.0
 40
175.0
 40
175.0
 40
176.0
 40
176.0
 40
176.0
 40
177.0
 40
177.0
 40
177.0
 40
178.0
 40
178.0
 40
178.0
 40
179.0
 40
179.0
 40
179.0
 40
180.0
 40
180.0
 40
180.0
 40
181.0
 40
181.0
 40
181.0
 40
182.0
 40
182.0
 40
182.0
 40
183.0
 40
183.0
 40
183.0
 40
184.0
 40
184.0
 40
184.0
 40
185.0
 40
185.0
 40
185.0
 40
186.0
 40
186.0
 40
186.0
 40
187.0
 40
187.0
 40
187.0
 40
188.0
 40
188.0
 40
188.0
 40
189.0
 40
189.0
 40
189.0
 40
190.0
 40
190.0
 40
190.0
 40
191.0
 40
191.0
 40
191.0
 40
192.0
 40
192.0
 40
192.0
 40
193.0
 40
193.0
 40
193.0
 40
194.0
 40
194.0
 40
194.0
 40
195.0
 40
195.0
 40
195.0
 40
196.0
 40
196.0
 40
196.0
 40
197.0
 40
197.0
 40
197.0
 40
198.0
 40
198.0
 40
198.0
 40
199.0
 40
199.0
 40
199.0
 40
200.0
 40
200.0
 40
200.0
 40
201.0
 40
201.0
 40
201.0
 40
202.0
 40
202.0
 40
202.0
 40
203.0
 40
203.0
 40
203.0
 40
204.0
 40
204.0
 40
204.0
 40
205.0
 40
205.0
 40
205.0
 40
206.0
 40
206.0
 40
206.0
 40
207.0
 40
207.0
 40
207.0
 40
208.0
 40
208.0
 40
208.0
 40
209.0
 40
209.0
 40
209.0
 40
210.0
 40
210.0
 40
210.0
 40
211.0
 40
211.0
 40
211.0
 40
212.0
 40
212.0
 40
212.0
 40
213.0
 40
213.0
 40
213.0
 40
214.0
 40
214.0
 40
214.0
 40
215.0
 40
215.0
 40
215.0
 40
216.0
 40
216.0
 40
216.0
 40
217.0
 40
217.0
 40
217.0
 40
218.0
 40
218.0
 40
218.0
 40
219.0
 40
219.0
 40
219.0
 40
220.0
 40
220.0
 40
220.0
 40
221.0
 40
221.0
 40
221.0
 40
222.0
 40
222.0
 40
222.0
 40
223.0
 40
223.0
 40
223.0
 40
224.0
 40
224.0
 40
224.0
 40
225.0
 40
225.0
 40
225.0
 40
226.0
 40
226.0
 40
226.0
 40
227.0
 40
227.0
 40
227.0
 40
228.0
 40
228.0
 40
228.0
 40
229.0
 40
229.0
 40
229.0
 40
230.0
 40
230.0
 40
230.0
 40
231.0
 40
231.0
 40
231.0
 40
232.0
 40
232.0
 40
232.0
 40
233.0
 40
233.0
 40
233.0
 40
234.0
 40
234.0
 40
234.0
 40
235.0
 40
235.0
 40
235.0
 40
236.0
 40
236.0
 40
236.0
 40
236.0
 10
67.36471411471629
 20
-20.65129360594828
 30
0.0
 10
66.20922581086192
 20
-20.83385610590261
 30
0.0
 10
64.73161612633666
 20
-21.96316832784265
 30
0.0
 10
64.12251003076514
 20
-22.71970027209776
 30
0.0
 10
64.12251003076514
 20
-22.71970027209776
 30
0.0
 10
63.55372643416491
 20
-23.28954221639988
 30
0.0
 10
63.55372643416491
 20
-23.28954221639988
 30
0.0
 10
63.07313887312092
 20
-23.88210304958497
 30
0.0
 10
62.5639731260823
 20
-24.46087027166272
 30
0.0
 10
61.78641564591943
 20
-24.75402860492249
 30
0.0
 10
60.67707220705282
 20
-25.17125888259606
 30
0.0
 10
59.41617237305605
 20
-25.53402027139424
 30
0.0
 10
58.19143379319062
 20
-25.78308138244313
 30
0.0
 10
57.3987421467472
 20
-25.87956610464132
 30
0.0
 10
56.60188772263221
 20
-25.97703860461679
 30
0.0
 10
55.8074321873449
 20
-26.0745463823701
 30
0.0
 10
55.33407497719903
 20
-26.13381304902215
 30
0.0
 10
54.86452776695595
 20
-26.19374999345156
 30
0.0
 10
54.39117055681008
 20
-26.2543924934365
 30
0.0
 10
53.46064998663465
 20
-26.45558166005266
 30
0.0
 10
52.52666949326635
 20
-26.65814666000202
 30
0.0
 10
51.59650035033028
 20
-26.85933582661851
 30
0.0
 10
50.89404925714019
 20
-27.12635332655186
 30
0.0
 10
50.19297399724833
 20
-27.39093665981905
 30
0.0
 10
49.49017012628946
 20
-27.65791888197457
 30
0.0
 10
49.11499096919441
 20
-27.73785832639901
 30
0.0
 10
48.73914153433869
 20
-27.81846804860082
 30
0.0
 10
48.3663965438482
 20
-27.90045360413616
 30
0.0
 10
48.19448793712284
 20
-27.94419804856959
 30
0.0
 10
48.02258054355006
 20
-27.98691943744759
 30
0.0
 10
47.85204655697036
 20
-28.02928804854814
 30
0.0
 10
47.53094823182893
 20
-28.29249554848244
 30
0.0
 10
47.16991665487388
 20
-28.50264527065207
 30
0.0
 10
46.79438352839804
 20
-28.69109915949387
 30
0.0
 10
45.76843522123883
 20
-28.40757165956493
 30
0.0
 10
45.03359912887495
 20
-28.22497388183276
 30
0.0
 10
45.03359912887495
 20
-28.22497388183276
 30
0.0
 10
45.03359912887495
 20
-28.22497388183276
 30
0.0
 10
41.958153096225
 20
-29.2967480482314
 30
0.0
 10
39.11938566864799
 20
-29.79113082588549
 30
0.0
 10
37.11021044212855
 20
-30.13907554802089
 30
0.0
 10
35.26571276896133
 20
-29.87897249253012
 30
0.0
 10
34.50572360248461
 20
-30.16387582579226
 30
0.0
 10
33.17317610281784
 20
-30.66340915900077
 30
0.0
 10
32.47520526965894
 20
-31.03343777001929
 30
0.0
 10
32.18994915861904
 20
-31.19843193664477
 30
0.0
 10
31.94879026979065
 20
-31.19980776997797
 30
0.0
 10
31.70763138096195
 20
-31.20086610331094
 30
0.0
 10
31.46749554768869
 20
-31.20255943664374
 30
0.0
 10
31.4141202699241
 20
-31.19913749220029
 30
0.0
 10
31.36137999215967
 20
-31.19190554775746
 30
0.0
 10
31.30800471439508
 20
-31.18777804775849
 30
0.0
 10
31.10402860333499
 20
-31.02412443668838
 30
0.0
 10
30.90079332560826
 20
-30.8614938811734
 30
0.0
 10
30.69716999232561
 20
-30.69649971454825
 30
0.0
 10
30.68718638121701
 20
-30.15491527023911
 30
0.0
 10
30.59486443679565
 20
-29.23197804824748
 30
0.0
 10
30.70750638121197
 20
-28.73449082614986
 30
0.0
 10
30.85013443673192
 20
-28.22257499294443
 30
0.0
 10
30.9907163811413
 20
-27.71027110418339
 30
0.0
 10
31.13228610332797
 20
-27.19835527097828
 30
0.0
 10
31.25251276996456
 20
-26.72774971554044
 30
0.0
 10
31.36137999215967
 20
-26.3105547156447
 30
0.0
 10
31.51953026989792
 20
-25.90196749352436
 30
0.0
 10
31.56052304766558
 20
-25.77793082688871
 30
0.0
 10
31.5984113809894
 20
-25.65357666025315
 30
0.0
 10
31.63940415875674
 20
-25.52851693806238
 30
0.0
 10
32.03077582532567
 20
-25.16092249370971
 30
0.0
 10
32.42317054744971
 20
-24.79332804935735
 30
0.0
 10
32.81418943624087
 20
-24.428132493893
 30
0.0
 10
32.97886610286642
 20
-24.26588999393362
 30
0.0
 10
33.14491860282486
 20
-24.1036122161964
 30
0.0
 10
33.30994804722817
 20
-23.94376860512503
 30
0.0
 10
34.10990693591711
 20
-23.24096471641195
 30
0.0
 10
34.90707888016212
 20
-22.53780804992111
 30
0.0
 10
35.70633131127782
 20
-21.83673277231868
 30
0.0
 10
36.01296665766337
 20
-21.52667638350709
 30
0.0
 10
36.32027046228159
 20
-21.21591443914062
 30
0.0
 10
36.62686962112626
 20
-20.90585805032903
 30
0.0
 10
37.19978071762119
 20
-20.34465916158046
 30
0.0
 10
37.77099848082599
 20
-19.78346027283189
 30
0.0
 10
38.34493263285038
 20
-19.222931661861
 30
0.0
 10
38.62708429231876
 20
-18.94388443970848
 30
0.0
 10
38.90994150732469
 20
-18.66586027311141
 30
0.0
 10
39.19071733349484
 20
-18.38783610651401
 30
0.0
 10
39.81255870651923
 20
-17.99649971772325
 30
0.0
 10
40.43440007954362
 20
-17.60650388448721
 30
0.0
 10
41.05588867479924
 20
-17.21410916236317
 30
0.0
 10
41.37352977780665
 20
-16.92059805132531
 30
0.0
 10
41.69289949188107
 20
-16.62429999584385
 30
0.0
 10
42.01054165616372
 20
-16.33114166258376
 30
0.0
 10
42.59618696883629
 20
-15.85707888492463
 30
0.0
 10
43.14983639915596
 20
-15.32343194061352
 30
0.0
 10
43.68140194115015
 20
-14.79359499630146
 30
0.0
 10
43.9280641570795
 20
-14.5483086074741
 30
0.0
 10
44.16647137321944
 20
-14.31092444086661
 30
0.0
 10
44.42244692224452
 20
-14.08391194092332
 30
0.0
 10
44.89026665544396
 20
-13.73455610767751
 30
0.0
 10
45.35572050954583
 20
-13.37973221887735
 30
0.0
 10
45.82974799745239
 20
-13.02624888563225
 30
0.0
 10
46.51671214659314
 20
-13.13511610782736
 30
0.0
 10
47.20367629573389
 20
-13.24260749668926
 30
0.0
 10
47.89198100039599
 20
-13.35352082999494
 30
0.0
 10
48.27784932388501
 20
-13.47205416329873
 30
0.0
 10
48.66816387672197
 20
-13.8888963854167
 30
0.0
 10
49.02369208263475
 20
-13.88787332986125
 30
0.0
 10
49.08504013662519
 20
-13.88304027430708
 30
0.0
 10
49.03886152669219
 20
-13.89164805208279
 30
0.0
 10
49.09569402524227
 20
-13.87065777431015
 30
0.0
 10
49.17390485658028
 20
-13.81759999654548
 30
0.0
 10
49.19320180053242
 20
-13.75970916322663
 30
0.0
 10
49.18321943214846
 20
-13.68255666324612
 30
0.0
 10
49.20318541138883
 20
-13.21710166336237
 30
0.0
 10
48.37225265480991
 20
-13.03866666340701
 30
0.0
 10
48.00222405313902
 20
-12.84022916345662
 30
0.0
 10
48.27372182399031
 20
-12.62316499684409
 30
0.0
 10
48.60339264891304
 20
-12.42197583022793
 30
0.0
 10
48.84250542059054
 20
-12.23906055249583
 30
0.0
 10
49.33068054322258
 20
-12.49193166354378
 30
0.0
 10
50.90921870119762
 20
-12.77129638569622
 30
0.0
 10
51.18724286077131
 20
-12.40680638578707
 30
0.0
 10
51.17859980543626
 20
-12.37202249690711
 30
0.0
 10
51.17207341671386
 20
-12.33586277469394
 30
0.0
 10
51.16276008361814
 20
-12.30139638581357
 30
0.0
 10
50.77001387619669
 20
-12.18875444139725
 30
0.0
 10
50.35867498741026
 20
-12.27832471915253
 30
0.0
 10
49.93047205950086
 20
-12.07022110809346
 30
0.0
 10
49.93047205950086
 20
-12.07022110809346
 30
0.0
 10
49.94458317025197
 20
-12.04887805254339
 30
0.0
 10
49.94458317025197
 20
-12.04887805254339
 30
0.0
 10
50.19470260831534
 20
-11.97377166367312
 30
0.0
 10
50.44824399073585
 20
-11.89901805258093
 30
0.0
 10
50.70009203986623
 20
-11.82253583037778
 30
0.0
 10
50.85616092477346
 20
-11.72608638595743
 30
0.0
 10
50.94054536706508
 20
-11.4990386082363
 30
0.0
 10
50.8616642579664
 20
-11.37397888604553
 30
0.0
 10
49.61971012298462
 20
-11.47286249713173
 30
0.0
 10
48.38463515449401
 20
-11.59481777487896
 30
0.0
 10
47.15714490803212
 20
-11.75328555261713
 30
0.0
 10
46.58148332168778
 20
-11.8283919414874
 30
0.0
 10
45.94828132776168
 20
-11.76087027483772
 30
0.0
 10
45.40292217500829
 20
-11.95997805256547
 30
0.0
 10
44.86684107757375
 20
-12.15361777473952
 30
0.0
 10
44.37799692337853
 20
-12.47125888577106
 30
0.0
 10
43.88329665822161
 20
-12.78025694124937
 30
0.0
 10
43.88329665822161
 20
-12.77993944124945
 30
0.0
 10
43.88223832491528
 20
-12.77993944124945
 30
0.0
 10
43.87983943608759
 20
-12.77993944124945
 30
0.0
 10
43.8695030474624
 20
-12.78681860791451
 30
0.0
 10
43.86262498903404
 20
-12.79302749680189
 30
0.0
 10
43.85295777010673
 20
-12.79853083013375
 30
0.0
 10
43.77647554983573
 20
-12.84537971901072
 30
0.0
 10
43.7024274961693
 20
-12.89395721899865
 30
0.0
 10
43.62488694259197
 20
-12.94045333009818
 30
0.0
 10
43.62904972026354
 20
-12.9463094412078
 30
0.0
 10
43.63074305355368
 20
-12.95216555231742
 30
0.0
 10
43.63557610898593
 20
-12.95770416342712
 30
0.0
 10
43.16324195436951
 20
-13.29876971889746
 30
0.0
 10
42.68850891092541
 20
-13.64050555214549
 30
0.0
 10
42.21652753407776
 20
-13.98329971872648
 30
0.0
 10
41.28568811338101
 20
-14.54312277414184
 30
0.0
 10
40.35379035937792
 20
-15.10432166289073
 30
0.0
 10
39.42256387903318
 20
-15.66555582941682
 30
0.0
 10
39.04569039275034
 20
-15.87845721825254
 30
0.0
 10
38.6722398467223
 20
-16.09202888486595
 30
0.0
 10
38.29603763409779
 20
-16.30598860703464
 30
0.0
 10
37.92121125477152
 20
-16.73867055137082
 30
0.0
 10
37.54500904214702
 20
-17.16965916237421
 30
0.0
 10
37.1712057183502
 20
-17.60064777337759
 30
0.0
 10
36.22311546476023
 20
-18.37682943985029
 30
0.0
 10
35.30155409938232
 20
-19.20882055075343
 30
0.0
 10
34.30315860253524
 20
-19.92435971724119
 30
0.0
 10
34.30315860253524
 20
-19.92435971724119
 30
0.0
 10
33.23759332502399
 20
-20.71158332815545
 30
0.0
 10
33.23759332502399
 20
-20.71158332815545
 30
0.0
 10
32.96644832509165
 20
-20.83593749479102
 30
0.0
 10
32.69773749182549
 20
-20.96237305031499
 30
0.0
 10
32.42729804744869
 20
-21.08672721695055
 30
0.0
 10
31.84094610315099
 20
-21.3451369391082
 30
0.0
 10
31.22739499219327
 20
-21.65381749458659
 30
0.0
 10
30.68372915899572
 20
-21.9700474945074
 30
0.0
 10
30.32855249241781
 20
-22.15507943890574
 30
0.0
 10
29.9726702702847
 20
-22.34039360552616
 30
0.0
 10
29.61922221481743
 20
-22.52609582770187
 30
0.0
 10
29.39767777042848
 20
-22.7241805498745
 30
0.0
 10
29.17479277048416
 20
-22.92297082760265
 30
0.0
 10
28.95360110387265
 20
-23.1203852719976
 30
0.0
 10
28.80857415946437
 20
-23.24473943863316
 30
0.0
 10
28.66248888172312
 20
-23.36944638304649
 30
0.0
 10
28.51710915953741
 20
-23.49588193857046
 30
0.0
 10
28.493367215099
 20
-23.47041138302141
 30
0.0
 10
28.46923721510499
 20
-23.44663416080517
 30
0.0
 10
28.44510721511099
 20
-23.42250416081116
 30
0.0
 10
28.21153304850255
 20
-23.31123804972772
 30
0.0
 10
27.96247193745398
 20
-23.00566193869319
 30
0.0
 10
27.82880443748718
 20
-22.78136582763814
 30
0.0
 10
27.90560415969025
 20
-22.65874027211322
 30
0.0
 10
27.98243915967117
 20
-22.53780804992111
 30
0.0
 10
28.05825110409664
 20
-22.41793416106228
 30
0.0
 10
28.20705277072613
 20
-22.3727786055178
 30
0.0
 10
28.35486665957802
 20
-22.3286813833066
 30
0.0
 10
28.50539693731816
 20
-22.28426666109548
 30
0.0
 10
28.7724144372512
 20
-22.15197499446189
 30
0.0
 10
29.03766804829607
 20
-22.01693166116253
 30
0.0
 10
29.30500304822935
 20
-21.8853102723063
 30
0.0
 10
29.55064221483446
 20
-21.73372166123319
 30
0.0
 10
29.77666693700015
 20
-21.50910805017823
 30
0.0
 10
30.06672082581671
 20
-21.40094638353864
 30
0.0
 10
30.26173638132333
 20
-21.32859166133446
 30
0.0
 10
30.86047082561828
 20
-21.4398577724179
 30
0.0
 10
30.98690638114225
 20
-21.32859166133446
 30
0.0
 10
31.34899749216275
 20
-21.01818249474543
 30
0.0
 10
31.81099526982488
 20
-20.14036555052045
 30
0.0
 10
31.95464638090028
 20
-19.60879999509774
 30
0.0
 10
31.9505188809013
 20
-19.41724166181242
 30
0.0
 10
31.94670888090225
 20
-19.222931661861
 30
0.0
 10
31.94258138090327
 20
-19.02932721746479
 30
0.0
 10
31.80168193649397
 20
-18.89530693972055
 30
0.0
 10
31.66007693652946
 20
-18.76266249530919
 30
0.0
 10
31.51953026989792
 20
-18.63005332867568
 30
0.0
 10
31.40099693659413
 20
-18.46329527316204
 30
0.0
 10
31.42099943658916
 20
-18.26348193987844
 30
0.0
 10
31.34966776994043
 20
-18.03816277326828
 30
0.0
 10
31.26045026996259
 20
-17.79047749555227
 30
0.0
 10
31.17260860331795
 20
-17.54554388450235
 30
0.0
 10
31.0840613811178
 20
-17.29852888456435
 30
0.0
 10
31.00309888113823
 20
-17.18549888459242
 30
0.0
 10
30.92213638115834
 20
-17.07320971795386
 30
0.0
 10
30.84152665895621
 20
-16.95950944020457
 30
0.0
 10
30.38676082573658
 20
-16.31632499592099
 30
0.0
 10
29.90102110363572
 20
-15.85365694048117
 30
0.0
 10
29.17133554826287
 20
-15.48327555168489
 30
0.0
 10
29.03766804829607
 20
-15.4150836072572
 30
0.0
 10
28.90502360388471
 20
-15.34618610727464
 30
0.0
 10
28.7724144372512
 20
-15.27760610729167
 30
0.0
 10
28.7210852705975
 20
-15.2734786072927
 30
0.0
 10
28.67042638172115
 20
-15.26762249618308
 30
0.0
 10
28.61909721506745
 20
-15.26176638507346
 30
0.0
 10
27.78054443749917
 20
-14.87766194072488
 30
0.0
 10
26.97338888214556
 20
-14.93138999626723
 30
0.0
 10
26.53756721558767
 20
-15.00995360735847
 30
0.0
 10
26.18549499345361
 20
-15.06368166290082
 30
0.0
 10
25.79585193799534
 20
-15.18355555175965
 30
0.0
 10
25.62669499359337
 20
-15.4519488850259
 30
0.0
 10
25.57430749360639
 20
-15.49671638501478
 30
0.0
 10
25.52505971584109
 20
-15.54497638500279
 30
0.0
 10
25.48992304918304
 20
-15.60078582943323
 30
0.0
 10
25.39622527142879
 20
-15.73614666273251
 30
0.0
 10
25.32729249366806
 20
-15.88258471825152
 30
0.0
 10
25.28873388256656
 20
-16.0276116626598
 30
0.0
 10
25.26425110479511
 20
-16.11718194041508
 30
0.0
 10
25.25116304924267
 20
-16.22365027372186
 30
0.0
 10
25.25324443813108
 20
-16.31632499592099
 30
0.0
 10
25.25426749368652
 20
-16.35731777368834
 30
0.0
 10
25.27529304923667
 20
-16.41139860700813
 30
0.0
 10
25.26806110479417
 20
-16.45136832922035
 30
0.0
 10
25.2583949936855
 20
-16.49546555143155
 30
0.0
 10
25.18812166036972
 20
-16.53818694030987
 30
0.0
 10
25.15231471593399
 20
-16.58126110696594
 30
0.0
 10
25.10236138261318
 20
-16.64394971806112
 30
0.0
 10
25.00658221597051
 20
-16.80104166246641
 30
0.0
 10
24.95077277154007
 20
-16.83857721801246
 30
0.0
 10
24.94558693820813
 20
-16.83755416245734
 30
0.0
 10
24.93973082709851
 20
-16.83653110690189
 30
0.0
 10
24.9345802715441
 20
-16.83480249579125
 30
0.0
 10
24.88977749377769
 20
-16.81240110690789
 30
0.0
 10
24.80091277157761
 20
-16.75316971803399
 30
0.0
 10
24.77505416047296
 20
-16.69665471804803
 30
0.0
 10
24.76267166047604
 20
-16.66599832916672
 30
0.0
 10
24.76507054936437
 20
-16.60468555140442
 30
0.0
 10
24.73130971603953
 20
-16.58814027363069
 30
0.0
 10
24.68894110493898
 20
-16.61981971806712
 30
0.0
 10
24.7013236049359
 20
-16.77828749580528
 30
0.0
 10
24.72474804937438
 20
-16.82481888468265
 30
0.0
 10
24.74817249381287
 20
-16.8699391624493
 30
0.0
 10
24.78641360491444
 20
-16.90715721799543
 30
0.0
 10
24.82398443823834
 20
-16.94229388465347
 30
0.0
 10
24.82398443823834
 20
-16.94642138465213
 30
0.0
 10
24.82327888268314
 20
-16.95125444020663
 30
0.0
 10
24.82327888268314
 20
-16.95573471798336
 30
0.0
 10
24.74923082714615
 20
-16.98293388464306
 30
0.0
 10
24.66170666050112
 20
-16.98120527353241
 30
0.0
 10
24.58522443829828
 20
-16.98984832908596
 30
0.0
 10
24.51734999387052
 20
-16.99775055130615
 30
0.0
 10
24.4574130494411
 20
-17.02117499574463
 30
0.0
 10
24.39197277167983
 20
-17.02498499574369
 30
0.0
 10
24.28860888281658
 20
-17.03221694018652
 30
0.0
 10
24.18422193839853
 20
-17.03701471796285
 30
0.0
 10
24.08121082731304
 20
-17.04735110684921
 30
0.0
 10
24.02437832732716
 20
-17.05183138462595
 30
0.0
 10
23.83938166070697
 20
-17.03701471796285
 30
0.0
 10
23.79701304960642
 20
-17.11455527349929
 30
0.0
 10
23.7642752718367
 20
-17.17209332904038
 30
0.0
 10
23.75118721628458
 20
-17.24547110679968
 30
0.0
 10
23.75739610517164
 20
-17.30540805122909
 30
0.0
 10
23.77150721627921
 20
-17.43805249564045
 30
0.0
 10
23.8865833273617
 20
-17.46147694007893
 30
0.0
 10
23.79253277182968
 20
-17.59962471782247
 30
0.0
 10
23.7294561051789
 20
-17.6926169400212
 30
0.0
 10
23.62648027187125
 20
-17.60650388448721
 30
0.0
 10
23.55754749411052
 20
-17.62890527337057
 30
0.0
 10
23.51898888300903
 20
-17.6433691622559
 30
0.0
 10
23.48074777190745
 20
-17.69434555113185
 30
0.0
 10
23.46765971635532
 20
-17.72193277334715
 30
0.0
 10
23.40320721637133
 20
-17.85076721775945
 30
0.0
 10
23.48487527190642
 20
-17.97409832883989
 30
0.0
 10
23.58270054965997
 20
-18.11397471769375
 30
0.0
 10
23.58270054965997
 20
-18.11397471769375
 30
0.0
 10
23.57582138299491
 20
-18.11983082880337
 30
0.0
 10
23.57582138299491
 20
-18.11983082880337
 30
0.0
 10
23.57271693855138
 20
-18.12085388435881
 30
0.0
 10
23.57169388299593
 20
-18.12085388435881
 30
0.0
 10
23.5685894385524
 20
-18.12085388435881
 30
0.0
 10
23.53242971633923
 20
-18.09640638436489
 30
0.0
 10
23.49175443857149
 20
-18.08261277325724
 30
0.0
 10
23.45524193858056
 20
-18.07502805103665
 30
0.0
 10
23.42077554970052
 20
-18.06677305103902
 30
0.0
 10
23.39428193859602
 20
-18.06229277326229
 30
0.0
 10
23.36327277193695
 20
-18.06229277326229
 30
0.0
 10
23.31123804972772
 20
-18.06021138437388
 30
0.0
 10
23.25750999418569
 20
-18.1342947176887
 30
0.0
 10
23.24473943863316
 20
-18.17426443990092
 30
0.0
 10
23.20649832753158
 20
-18.3072263843122
 30
0.0
 10
23.35635832749436
 20
-18.38991749540242
 30
0.0
 10
23.26403638307299
 20
-18.54665666202994
 30
0.0
 10
23.21683471641794
 20
-18.63107638423112
 30
0.0
 10
23.09487943867071
 20
-18.65485360644736
 30
0.0
 10
23.02598193868782
 20
-18.6934474953267
 30
0.0
 10
22.99394971647363
 20
-18.71376749532166
 30
0.0
 10
22.91954888315888
 20
-18.79952777307788
 30
0.0
 10
22.88437693872331
 20
-18.8543141619532
 30
0.0
 10
22.88370666094563
 20
-18.85949999528514
 30
0.0
 10
22.88197804983498
 20
-18.85949999528514
 30
0.0
 10
22.87957916094665
 20
-18.86189888417347
 30
0.0
 10
22.87266471650407
 20
-18.87533971750335
 30
0.0
 10
22.86578554983901
 20
-18.88807499527804
 30
0.0
 10
22.86268110539547
 20
-18.8935783286099
 30
0.0
 10
22.86268110539547
 20
-18.89428388416543
 30
0.0
 10
22.86338666095068
 20
-18.89463666194287
 30
0.0
 10
22.86338666095068
 20
-18.89703555083119
 30
0.0
 10
22.84613582762174
 20
-18.94077999526495
 30
0.0
 10
22.83858638317931
 20
-19.00727860635919
 30
0.0
 10
22.86338666095068
 20
-19.09063999522741
 30
0.0
 10
22.88748138316716
 20
-19.20296443964381
 30
0.0
 10
22.97257138314571
 20
-19.32837693961234
 30
0.0
 10
23.09696082755911
 20
-19.42690777292109
 30
0.0
 10
23.23648443863521
 20
-19.53782110622677
 30
0.0
 10
23.36842332749137
 20
-19.65564888397503
 30
0.0
 10
23.50727666078978
 20
-19.76381055061462
 30
0.0
 10
23.51038110523363
 20
-19.77210082839041
 30
0.0
 10
23.5131327718994
 20
-19.7807086061658
 30
0.0
 10
23.5224108274528
 20
-19.78794055060862
 30
0.0
 10
23.58270054965997
 20
-19.8313322172643
 30
0.0
 10
23.74222666073111
 20
-19.9657052727863
 30
0.0
 10
23.87176666069861
 20
-20.07457249498141
 30
0.0
 10
23.8817502718072
 20
-20.07559555053653
 30
0.0
 10
23.89071082736067
 20
-20.08215721720168
 30
0.0
 10
23.89896582735863
 20
-20.08388582831232
 30
0.0
 10
24.08085804953528
 20
-20.27061110604347
 30
0.0
 10
24.70238193826886
 20
-20.95411805031704
 30
0.0
 10
24.71409416048811
 20
-21.49841888351443
 30
0.0
 10
24.68823554938345
 20
-21.66828138347192
 30
0.0
 10
24.65966054939055
 20
-21.83743832787388
 30
0.0
 10
24.6338019382859
 20
-22.00521943894329
 30
0.0
 10
24.50496749387392
 20
-22.66872388322182
 30
0.0
 10
24.46774943832746
 20
-23.36877610526881
 30
0.0
 10
24.18492749395373
 20
-23.89448554958189
 30
0.0
 10
24.16527777173646
 20
-23.90104721624703
 30
0.0
 10
24.14531054951927
 20
-23.91000777180018
 30
0.0
 10
24.12601360507976
 20
-23.91928582735358
 30
0.0
 10
23.85659721625807
 20
-23.82904527182061
 30
0.0
 10
23.36394304971463
 20
-23.0101422164696
 30
0.0
 10
23.06249443867875
 20
-22.50475277215147
 30
0.0
 10
23.06249443867875
 20
-22.50475277215147
 30
0.0
 10
23.07007916089902
 20
-22.50439999437403
 30
0.0
 10
23.07007916089902
 20
-22.50439999437403
 30
0.0
 10
22.73451693876085
 20
-22.01449749449636
 30
0.0
 10
21.77093971677964
 20
-20.3222577726971
 30
0.0
 10
21.67138582791545
 20
-20.14830305051848
 30
0.0
 10
21.49362110573777
 20
-19.64601805064419
 30
0.0
 10
21.31342221689393
 20
-19.14369777299176
 30
0.0
 10
21.13530471693849
 20
-18.6424358286726
 30
0.0
 10
21.13530471693849
 20
-18.6424358286726
 30
0.0
 10
20.72361305037461
 20
-16.83963555134575
 30
0.0
 10
20.72361305037461
 20
-16.83963555134575
 30
0.0
 10
20.55138693930664
 20
-16.3469813848023
 30
0.0
 10
20.37669138379465
 20
-15.85365694048117
 30
0.0
 10
20.20340693939371
 20
-15.36237860727062
 30
0.0
 10
20.20340693939371
 20
-15.36237860727062
 30
0.0
 10
19.53817388400421
 20
-14.41943888528396
 30
0.0
 10
19.53817388400421
 20
-14.41943888528396
 30
0.0
 10
19.36866416182448
 20
-14.04771694093263
 30
0.0
 10
19.19777860631155
 20
-13.67634777435874
 30
0.0
 10
19.02932721746479
 20
-13.30494333000701
 30
0.0
 10
19.02932721746479
 20
-13.30494333000701
 30
0.0
 10
17.97547416217277
 20
-11.19931860831139
 30
0.0
 10
17.97547416217277
 20
-11.19931860831139
 30
0.0
 10
17.52864582895117
 20
-10.38489583073711
 30
0.0
 10
16.99051860686333
 20
-9.817135275323396
 30
0.0
 10
16.99051860686333
 20
-9.817135275323396
 30
0.0
 10
16.66839721805505
 20
-9.568744442052187
 30
0.0
 10
16.34627582924678
 20
-9.317954719892649
 30
0.0
 10
16.0276116626598
 20
-9.056828608846754
 30
0.0
 10
15.57767888499435
 20
-8.856662497785717
 30
0.0
 10
15.13018027399538
 20
-8.652686386725627
 30
0.0
 10
14.68091777410761
 20
-8.452202775664668
 30
0.0
 10
14.42152027417237
 20
-8.321639720141722
 30
0.0
 10
14.18794610756425
 20
-8.087712775755843
 30
0.0
 10
13.93955527429304
 20
-7.95817277578834
 30
0.0
 10
13.37627499665606
 20
-8.176930275733683
 30
0.0
 10
12.56700277463588
 20
-7.802456664715941
 30
0.0
 10
12.4268088857821
 20
-7.599891664766576
 30
0.0
 10
12.28657971915048
 20
-7.397326664817211
 30
0.0
 10
12.18014666362154
 20
-7.470704442576834
 30
0.0
 10
12.34376499691412
 20
-7.708758886961686
 30
0.0
 10
12.50741860798423
 20
-7.946813331346538
 30
0.0
 10
12.47330499688163
 20
-7.902716109135341
 30
0.0
 10
12.53567610797721
 20
-7.985724720225798
 30
0.0
 10
12.53567610797721
 20
-7.985724720225798
 30
0.0
 10
12.53567610797721
 20
-8.013276664663257
 30
0.0
 10
12.53567610797721
 20
-8.013276664663257
 30
0.0
 10
12.26248499693431
 20
-7.948189164679744
 30
0.0
 10
11.93792944145987
 20
-7.876187220253327
 30
0.0
 10
11.71264555262755
 20
-7.82140083137801
 30
0.0
 10
11.48732638601706
 20
-7.766614442502693
 30
0.0
 10
11.40809249714813
 20
-7.886841109139284
 30
0.0
 10
11.71264555262755
 20
-8.013276664663257
 30
0.0
 10
12.01719860810696
 20
-8.13971222018723
 30
0.0
 10
12.20219527472714
 20
-8.186596386842357
 30
0.0
 10
12.4808897191019
 20
-8.314407775699216
 30
0.0
 10
12.46296860799527
 20
-8.322309997919403
 30
0.0
 10
12.44402444133352
 20
-8.334022220138646
 30
0.0
 10
12.4268088857821
 20
-8.34333555346988
 30
0.0
 10
12.231828608053
 20
-8.480777775657572
 30
0.0
 10
11.94688999701334
 20
-8.51422110898249
 30
0.0
 10
11.60102666376634
 20
-8.507659442317667
 30
0.0
 10
11.437725830474
 20
-8.488715275655599
 30
0.0
 10
11.45427110824742
 20
-8.659600831168532
 30
0.0
 10
11.65613055264158
 20
-8.725746664485328
 30
0.0
 10
12.15153638585112
 20
-8.992728886640844
 30
0.0
 10
12.98285721897657
 20
-8.356423609022006
 30
0.0
 10
13.38763444109754
 20
-8.589997775630122
 30
0.0
 10
13.59055221882467
 20
-8.70920138671159
 30
0.0
 10
13.71423610768255
 20
-8.769138331141004
 30
0.0
 10
13.99261305205739
 20
-8.948631664429646
 30
0.0
 10
14.27095471865439
 20
-9.128124997717968
 30
0.0
 10
13.99261305205739
 20
-9.08402777550677
 30
0.0
 10
13.99261305205739
 20
-9.08402777550677
 30
0.0
 10
13.52613499661852
 20
-9.069211108843678
 30
0.0
 10
13.02695444118777
 20
-8.966552775536272
 30
0.0
 10
12.81197166346364
 20
-9.249409997687524
 30
0.0
 10
12.72755194126246
 20
-9.398211664317015
 30
0.0
 10
12.83469055234692
 20
-9.392708330985156
 30
0.0
 10
12.89328694122097
 20
-9.44093305319533
 30
0.0
 10
13.20609499669833
 20
-9.514663608732393
 30
0.0
 10
13.56264749660945
 20
-9.409253608758895
 30
0.0
 10
13.93955527429304
 20
-9.496072219848086
 30
0.0
 10
14.17760971867789
 20
-9.579786386494067
 30
0.0
 10
14.41566416306275
 20
-9.66177194202908
 30
0.0
 10
14.65198999633695
 20
-9.744463053119295
 30
0.0
 10
14.84527694073324
 20
-9.726189164235231
 30
0.0
 10
15.03852860735138
 20
-9.707950553128686
 30
0.0
 10
15.23213305174759
 20
-9.690382219799503
 30
0.0
 10
15.55252582944522
 20
-9.755116942005575
 30
0.0
 10
15.82127194048922
 20
-10.05624805304153
 30
0.0
 10
16.0624308293176
 20
-10.37801666407204
 30
0.0
 10
16.0617252737624
 20
-10.38524860851487
 30
0.0
 10
16.0617252737624
 20
-10.39315083073506
 30
0.0
 10
16.06070221820696
 20
-10.40038277517757
 30
0.0
 10
16.06585277376137
 20
-10.40038277517757
 30
0.0
 10
16.07103860709331
 20
-10.40038277517757
 30
0.0
 10
16.07689471820293
 20
-10.40144110851085
 30
0.0
 10
16.26326721815632
 20
-10.79588194174546
 30
0.0
 10
16.44791110699906
 20
-11.19275694164624
 30
0.0
 10
16.63428360695245
 20
-11.58585721932581
 30
0.0
 10
16.83755416245734
 20
-12.40440749689874
 30
0.0
 10
17.04495221796088
 20
-13.22366333002752
 30
0.0
 10
17.24959860679865
 20
-14.04323666315589
 30
0.0
 10
17.6860905511339
 20
-15.45678194058039
 30
0.0
 10
18.20146360656062
 20
-16.75623888469969
 30
0.0
 10
18.71514332865454
 20
-18.073299439926
 30
0.0
 10
19.19777860631155
 20
-19.49305360623789
 30
0.0
 10
19.68355360619025
 20
-20.91379555032706
 30
0.0
 10
20.16759999495798
 20
-22.33284416108342
 30
0.0
 10
20.31573138381011
 20
-22.6194761054562
 30
0.0
 10
20.46559138377257
 20
-22.90540249427379
 30
0.0
 10
20.61580416151279
 20
-23.19238721642402
 30
0.0
 10
20.61580416151279
 20
-23.19238721642402
 30
0.0
 10
21.17181721692942
 20
-24.33065999391721
 30
0.0
 10
21.17181721692942
 20
-24.33065999391721
 30
0.0
 10
21.47742860574179
 20
-24.92939443821216
 30
0.0
 10
21.81020388343634
 20
-25.55536332694464
 30
0.0
 10
22.06720249448326
 20
-26.19374999345156
 30
0.0
 10
22.27841054998586
 20
-26.71914193776473
 30
0.0
 10
21.99936332783334
 20
-27.54146693755919
 30
0.0
 10
21.90908749452286
 20
-27.99690304855618
 30
0.0
 10
21.8987511056365
 20
-28.22257499294443
 30
0.0
 10
21.88633332786174
 20
-28.44683582622163
 30
0.0
 10
21.87395082786481
 20
-28.67455388172013
 30
0.0
 10
21.78402777233177
 20
-29.23508249269134
 30
0.0
 10
21.8432944389835
 20
-29.7607919370041
 30
0.0
 10
21.94595277229123
 20
-30.24723721466048
 30
0.0
 10
21.97075305006292
 20
-30.40986777017546
 30
0.0
 10
21.9941774945014
 20
-30.57073443680164
 30
0.0
 10
22.01862499449533
 20
-30.73230665898366
 30
0.0
 10
22.01862499449533
 20
-30.73230665898366
 30
0.0
 10
22.39450971662348
 20
-31.59082665876881
 30
0.0
 10
22.39450971662348
 20
-31.59082665876881
 30
0.0
 10
22.67630860544209
 20
-31.89675554758143
 30
0.0
 10
22.95948332759358
 20
-32.20370749194917
 30
0.0
 10
23.24234054974483
 20
-32.51069471409443
 30
0.0
 10
23.68916888296675
 20
-33.11563804727675
 30
0.0
 10
24.13634999396579
 20
-33.72128693601428
 30
0.0
 10
24.5845541605206
 20
-34.32658304697405
 30
0.0
 10
25.07272804928731
 20
-34.83059665795897
 30
0.0
 10
25.56090193805434
 20
-35.33461026894422
 30
0.0
 10
26.04939332682097
 20
-35.8389766577069
 30
0.0
 10
26.28988193787199
 20
-36.13696804652117
 30
0.0
 10
26.5796183266883
 20
-36.43051443533686
 30
0.0
 10
26.87760971550289
 20
-36.70060110193591
 30
0.0
 10
26.94513138215257
 20
-36.82876526857053
 30
0.0
 10
27.10737388211195
 20
-37.16499776848637
 30
0.0
 10
27.27000443762694
 20
-37.68453360168991
 30
0.0
 10
27.3550944376058
 20
-38.33011693486183
 30
0.0
 10
27.4825530486849
 20
-38.93371971248879
 30
0.0
 10
27.62655693753774
 20
-39.51904860123136
 30
0.0
 10
27.744384715286
 20
-40.8285244342371
 30
0.0
 10
27.62966138198158
 20
-42.52729054492398
 30
0.0
 10
26.87517554883672
 20
-44.52097887775847
 30
0.0
 10
25.07166971595435
 20
-49.28795915434491
 30
0.0
 10
27.47913110424145
 20
-54.7180910974318
 30
0.0
 10
27.47913110424145
 20
-54.7180910974318
 30
0.0
 10
27.47913110424145
 20
-54.7180910974318
 30
0.0
 10
32.89412888066532
 20
-55.75748026383847
 30
0.0
 10
32.89412888066532
 20
-55.75748026383847
 30
0.0
 10
32.89412888066532
 20
-55.75748026383847
 30
0.0
 10
33.51836915828716
 20
-53.46752915329972
 30
0.0
 10
33.51836915828716
 20
-53.46752915329972
 30
0.0
 10
33.65859832491878
 20
-53.99669581983409
 30
0.0
 10
33.79949776932776
 20
-54.52692081970175
 30
0.0
 10
33.93902138040418
 20
-55.05675776401348
 30
0.0
 10
33.93902138040418
 20
-55.05675776401348
 30
0.0
 10
33.57657749160592
 20
-58.38472220762604
 30
0.0
 10
33.57657749160592
 20
-58.38472220762604
 30
0.0
 10
33.53939471383731
 20
-58.81571081862943
 30
0.0
 10
33.50390526940182
 20
-59.24839276296593
 30
0.0
 10
33.46668721385569
 20
-59.68043970730196
 30
0.0
 10
33.28066749167974
 20
-60.77595581813933
 30
0.0
 10
33.26034749168479
 20
-61.85806637342432
 30
0.0
 10
33.05570110284734
 20
-62.89847859538677
 30
0.0
 10
33.00641804730388
 20
-63.27020053973778
 30
0.0
 10
32.95854610287147
 20
-63.64192248408943
 30
0.0
 10
32.91169721399418
 20
-64.01195109510796
 30
0.0
 10
32.63229721406422
 20
-65.04961165040399
 30
0.0
 10
32.35427304746715
 20
-66.08624915014491
 30
0.0
 10
32.07452026975911
 20
-67.1228513721083
 30
0.0
 10
31.98805443644735
 20
-67.54212776089244
 30
0.0
 10
32.03836054754593
 20
-67.97276359411806
 30
0.0
 10
32.03836054754593
 20
-68.42890526067058
 30
0.0
 10
32.03836054754593
 20
-68.42890526067058
 30
0.0
 10
32.0524716586535
 20
-69.11964414938697
 30
0.0
 10
32.0524716586535
 20
-69.11964414938697
 30
0.0
 10
32.27020610304341
 20
-70.16005637134877
 30
0.0
 10
32.58544832518693
 20
-71.2893685932885
 30
0.0
 10
33.05570110284734
 20
-72.09620664864283
 30
0.0
 10
33.14491860282486
 20
-72.27224275970985
 30
0.0
 10
33.20037526947753
 20
-72.47138581521577
 30
0.0
 10
33.32303610278029
 20
-72.62985359295362
 30
0.0
 10
33.42569443608802
 20
-72.76249803736498
 30
0.0
 10
33.7150780471269
 20
-72.97264775953461
 30
0.0
 10
33.87975471375213
 20
-73.00432720397104
 30
0.0
 10
34.04961721370994
 20
-73.03706498174076
 30
0.0
 10
34.24562054699416
 20
-72.9946963706402
 30
0.0
 10
34.38651999140346
 20
-72.89510720399817
 30
0.0
 10
34.45647582471931
 20
-72.84550664845543
 30
0.0
 10
34.47781888026939
 20
-72.75078581514573
 30
0.0
 10
34.5205402691477
 20
-72.67705525960835
 30
0.0
 10
34.99079304680779
 20
-71.96320942645372
 30
0.0
 10
34.61561388023485
 20
-70.73780053787141
 30
0.0
 10
34.48438054693453
 20
-69.86929692697733
 30
0.0
 10
34.50399499137396
 20
-69.74561303811944
 30
0.0
 10
34.52399749136899
 20
-69.62020053815029
 30
0.0
 10
34.54329443580851
 20
-69.49447053818216
 30
0.0
 10
34.63491082467467
 20
-69.05554442718042
 30
0.0
 10
34.67315193577625
 20
-68.75892887169904
 30
0.0
 10
34.88400721350109
 20
-68.46541776066118
 30
0.0
 10
35.05178832457049
 20
-68.323812760697
 30
0.0
 10
35.2226738800831
 20
-68.18326609406546
 30
0.0
 10
35.39041881933742
 20
-68.04166109410063
 30
0.0
 10
35.5495921486099
 20
-67.91522553857698
 30
0.0
 10
36.09082380146859
 20
-67.08736192767282
 30
0.0
 10
36.00813269246711
 20
-66.75941970553211
 30
0.0
 10
35.96816387989697
 20
-66.70255192776904
 30
0.0
 10
35.92925158336843
 20
-66.64434359444995
 30
0.0
 10
35.88755325109891
 20
-66.5905802611304
 30
0.0
 10
35.59404214747589
 20
-66.12170331680286
 30
0.0
 10
34.74998693575684
 20
-65.77308831689011
 30
0.0
 10
34.94394415793082
 20
-64.85805331711866
 30
0.0
 10
35.11345388011055
 20
-64.3385527616933
 30
0.0
 10
35.28155159989263
 20
-63.81901692848975
 30
0.0
 10
35.45070854002152
 20
-63.29810526195332
 30
0.0
 10
36.09703269019909
 20
-61.46944637352149
 30
0.0
 10
36.86150211514029
 20
-59.734167762844
 30
0.0
 10
37.26730238256524
 20
-57.7205122077923
 30
0.0
 10
37.26560904927511
 20
-57.54031331894846
 30
0.0
 10
37.26179999068448
 20
-57.36085526343766
 30
0.0
 10
37.2597529383134
 20
-57.18030359681605
 30
0.0
 10
37.48814126582006
 20
-56.89402443022102
 30
0.0
 10
37.88639208899317
 20
-56.5288641525342
 30
0.0
 10
38.58884318218326
 20
-56.15160359707349
 30
0.0
 10
38.66465512469358
 20
-56.11061081930582
 30
0.0
 10
38.73457567846531
 20
-56.08718637486734
 30
0.0
 10
38.80795345437107
 20
-56.05240248598673
 30
0.0
 10
38.8313778982179
 20
-56.07649720820322
 30
0.0
 10
38.84965276806537
 20
-56.10648331930653
 30
0.0
 10
38.87378178602498
 20
-56.12990776374501
 30
0.0
 10
38.86654984176504
 20
-56.09889859708658
 30
0.0
 10
38.85758928643808
 20
-56.06478498598398
 30
0.0
 10
38.84965276806537
 20
-56.03310554154754
 30
0.0
 10
40.23871425120265
 20
-55.39817609726159
 30
0.0
 10
41.21470922630294
 20
-55.8022830416052
 30
0.0
 10
41.21470922630294
 20
-55.8022830416052
 30
0.0
 10
41.21470922630294
 20
-55.8022830416052
 30
0.0
 10
39.42393871643375
 20
-51.71535248707104
 30
0.0
 10
39.42393871643375
 20
-51.71535248707104
 30
0.0
 10
39.42393871643375
 20
-51.71535248707104
 30
0.0
 10
42.26133031071253
 20
-55.97073443045164
 30
0.0
 10
42.26133031071253
 20
-55.97073443045164
 30
0.0
 10
42.26133031071253
 20
-55.97073443045164
 30
0.0
 10
41.98916226210056
 20
-55.18146470842714
 30
0.0
 10
44.11270804125773
 20
-52.36061832024335
 30
0.0
 10
46.23664187596055
 20
-49.53666748761604
 30
0.0
 10
46.93976324691132
 20
-50.40689970962075
 30
0.0
 10
46.93976324691132
 20
-50.40689970962075
 30
0.0
 10
46.93976324691132
 20
-50.40689970962075
 30
0.0
 10
43.35444750504701
 20
-46.23318582177525
 30
0.0
 10
43.35444750504701
 20
-46.23318582177525
 30
0.0
 10
43.35444750504701
 20
-46.23318582177525
 30
0.0
 10
47.16885832154124
 20
-49.52255637650815
 30
0.0
 10
47.16885832154124
 20
-49.52255637650815
 30
0.0
 10
47.16885832154124
 20
-49.52255637650815
 30
0.0
 10
45.75188994388316
 20
-48.02187498799454
 30
0.0
 10
46.50362409137148
 20
-45.31197721089427
 30
0.0
 10
47.2560285166205
 20
-42.60204415601584
 30
0.0
 10
48.69539709101026
 20
-42.37295026718478
 30
0.0
 10
48.69539709101026
 20
-42.37295026718478
 30
0.0
 10
48.69539709101026
 20
-42.37295026718478
 30
0.0
 10
44.88271607716874
 20
-39.02466582357727
 30
0.0
 10
44.88271607716874
 20
-39.02466582357727
 30
0.0
 10
44.88271607716874
 20
-39.02466582357727
 30
0.0
 10
48.92209208522679
 20
-41.54783832294639
 30
0.0
 10
48.92209208522679
 20
-41.54783832294639
 30
0.0
 10
48.92209208522679
 20
-41.54783832294639
 30
0.0
 10
48.28885599027087
 20
-40.50227554543017
 30
0.0
 10
48.45215681943805
 20
-38.42039276817263
 30
0.0
 10
48.61478737084456
 20
-36.33921554647062
 30
0.0
 10
49.89702872702075
 20
-35.50687165779004
 30
0.0
 10
49.89702872702075
 20
-35.50687165779004
 30
0.0
 10
49.89702872702075
 20
-35.50687165779004
 30
0.0
 10
45.52727633850242
 20
-34.6976347135477
 30
0.0
 10
45.52727633850242
 20
-34.6976347135477
 30
0.0
 10
45.52727633850242
 20
-34.6976347135477
 30
0.0
 10
50.1795331642579
 20
-34.8044205468544
 30
0.0
 10
50.1795331642579
 20
-34.8044205468544
 30
0.0
 10
50.1795331642579
 20
-34.8044205468544
 30
0.0
 10
50.43826037987944
 20
-33.75952804711554
 30
0.0
 10
51.26612396986999
 20
-32.88619138066729
 30
0.0
 10
51.91484700887524
 20
-32.20060304750532
 30
0.0
 10
53.19814669835777
 20
-31.72001388095887
 30
0.0
 10
53.0847992012495
 20
-31.24150610330084
 30
0.0
 10
53.04860554229334
 20
-31.08889443667229
 30
0.0
 10
52.85637559596596
 20
-30.91592749227095
 30
0.0
 10
52.55940727020892
 20
-30.73646943676047
 30
0.0
 10
52.80229476401234
 20
-30.66859499233271
 30
0.0
 10
53.04380642451753
 20
-30.60139082568295
 30
0.0
 10
53.28874002937987
 20
-30.53870221458744
 30
0.0
 10
53.79758668306478
 20
-30.40986777017546
 30
0.0
 10
54.30057722578798
 20
-30.33959443685969
 30
0.0
 10
54.75358054186728
 20
-30.15216360357302
 30
0.0
 10
55.11394164948176
 20
-29.96476804806451
 30
0.0
 10
55.47222275145236
 20
-29.77973610366617
 30
0.0
 10
55.83120940896052
 20
-29.59509221482342
 30
0.0
 10
56.83062882790765
 20
-29.08486971495112
 30
0.0
 10
57.80147324758379
 20
-28.59016943729679
 30
0.0
 10
58.73647544595212
 20
-28.00932082633095
 30
0.0
 10
59.28045876540727
 20
-27.66652665974996
 30
0.0
 10
59.82581942948769
 20
-27.32306221539161
 30
0.0
 10
60.36944998490771
 20
-26.98129110436575
 30
0.0
 10
61.48874176462484
 20
-26.49759749337545
 30
0.0
 10
62.96910311574656
 20
-26.38460277118169
 30
0.0
 10
64.08568003170475
 20
-25.89057277130504
 30
0.0
 10
64.50287502106123
 20
-25.70628166024006
 30
0.0
 10
64.80499390224242
 20
-25.3927680492075
 30
0.0
 10
65.13882750483673
 20
-25.12920777149543
 30
0.0
 10
65.56498304952015
 20
-24.7781586049165
 30
0.0
 10
65.99389026080004
 20
-24.428132493893
 30
0.0
 10
66.42039858325224
 20
-24.07570749398118
 30
0.0
 10
66.65534857725817
 20
-23.91928582735358
 30
0.0
 10
66.88892273796586
 20
-23.76117082739317
 30
0.0
 10
67.12284967644233
 20
-23.60545471632078
 30
0.0
 10
67.21965189619492
 20
-23.45901666080177
 30
0.0
 10
67.3164893937244
 20
-23.31469527194901
 30
0.0
 10
67.41329161347699
 20
-23.16860999420777
 30
0.0
 10
67.7288513276486
 20
-22.71970027209776
 30
0.0
 10
68.19014353810228
 20
-22.24016943888428
 30
0.0
 10
68.24870464771938
 20
-21.55839110572136
 30
0.0
 10
68.0047940983865
 20
-21.14839277249062
 30
0.0
 10
67.80258188132314
 20
-20.87107416144874
 30
0.0
 10
67.36471411471629
 20
-20.65129360594828
 30
0.0
  0
HATCH
  5
42
330
1F
100
AcDbEntity
  8
Layer 1
 62
   250
100
AcDbHatch
 10
0.0
 20
0.0
 30
0.0
210
0.0
220
0.0
230
1.0
  2
SOLID
 70
     1
 71
     0
 91
        1
 92
        1
 93
        1
 72
     4
 94
        3
 73
     0
 74
     1
 95
      713
 96
      709
 40
0.0
 40
0.0
 40
0.0
 40
0.0
 40
1.0
 40
1.0
 40
1.0
 40
2.0
 40
2.0
 40
2.0
 40
3.0
 40
3.0
 40
3.0
 40
4.0
 40
4.0
 40
4.0
 40
5.0
 40
5.0
 40
5.0
 40
6.0
 40
6.0
 40
6.0
 40
7.0
 40
7.0
 40
7.0
 40
8.0
 40
8.0
 40
8.0
 40
9.0
 40
9.0
 40
9.0
 40
10.0
 40
10.0
 40
10.0
 40
11.0
 40
11.0
 40
11.0
 40
12.0
 40
12.0
 40
12.0
 40
13.0
 40
13.0
 40
13.0
 40
14.0
 40
14.0
 40
14.0
 40
15.0
 40
15.0
 40
15.0
 40
16.0
 40
16.0
 40
16.0
 40
17.0
 40
17.0
 40
17.0
 40
18.0
 40
18.0
 40
18.0
 40
19.0
 40
19.0
 40
19.0
 40
20.0
 40
20.0
 40
20.0
 40
21.0
 40
21.0
 40
21.0
 40
22.0
 40
22.0
 40
22.0
 40
23.0
 40
23.0
 40
23.0
 40
24.0
 40
24.0
 40
24.0
 40
25.0
 40
25.0
 40
25.0
 40
26.0
 40
26.0
 40
26.0
 40
27.0
 40
27.0
 40
27.0
 40
28.0
 40
28.0
 40
28.0
 40
29.0
 40
29.0
 40
29.0
 40
30.0
 40
30.0
 40
30.0
 40
31.0
 40
31.0
 40
31.0
 40
32.0
 40
32.0
 40
32.0
 40
33.0
 40
33.0
 40
33.0
 40
34.0
 40
34.0
 40
34.0
 40
35.0
 40
35.0
 40
35.0
 40
36.0
 40
36.0
 40
36.0
 40
37.0
 40
37.0
 40
37.0
 40
38.0
 40
38.0
 40
38.0
 40
39.0
 40
39.0
 40
39.0
 40
40.0
 40
40.0
 40
40.0
 40
41.0
 40
41.0
 40
41.0
 40
42.0
 40
42.0
 40
42.0
 40
43.0
 40
43.0
 40
43.0
 40
44.0
 40
44.0
 40
44.0
 40
45.0
 40
45.0
 40
45.0
 40
46.0
 40
46.0
 40
46.0
 40
47.0
 40
47.0
 40
47.0
 40
48.0
 40
48.0
 40
48.0
 40
49.0
 40
49.0
 40
49.0
 40
50.0
 40
50.0
 40
50.0
 40
51.0
 40
51.0
 40
51.0
 40
52.0
 40
52.0
 40
52.0
 40
53.0
 40
53.0
 40
53.0
 40
54.0
 40
54.0
 40
54.0
 40
55.0
 40
55.0
 40
55.0
 40
56.0
 40
56.0
 40
56.0
 40
57.0
 40
57.0
 40
57.0
 40
58.0
 40
58.0
 40
58.0
 40
59.0
 40
59.0
 40
59.0
 40
60.0
 40
60.0
 40
60.0
 40
61.0
 40
61.0
 40
61.0
 40
62.0
 40
62.0
 40
62.0
 40
63.0
 40
63.0
 40
63.0
 40
64.0
 40
64.0
 40
64.0
 40
65.0
 40
65.0
 40
65.0
 40
66.0
 40
66.0
 40
66.0
 40
67.0
 40
67.0
 40
67.0
 40
68.0
 40
68.0
 40
68.0
 40
69.0
 40
69.0
 40
69.0
 40
70.0
 40
70.0
 40
70.0
 40
71.0
 40
71.0
 40
71.0
 40
72.0
 40
72.0
 40
72.0
 40
73.0
 40
73.0
 40
73.0
 40
74.0
 40
74.0
 40
74.0
 40
75.0
 40
75.0
 40
75.0
 40
76.0
 40
76.0
 40
76.0
 40
77.0
 40
77.0
 40
77.0
 40
78.0
 40
78.0
 40
78.0
 40
79.0
 40
79.0
 40
79.0
 40
80.0
 40
80.0
 40
80.0
 40
81.0
 40
81.0
 40
81.0
 40
82.0
 40
82.0
 40
82.0
 40
83.0
 40
83.0
 40
83.0
 40
84.0
 40
84.0
 40
84.0
 40
85.0
 40
85.0
 40
85.0
 40
86.0
 40
86.0
 40
86.0
 40
87.0
 40
87.0
 40
87.0
 40
88.0
 40
88.0
 40
88.0
 40
89.0
 40
89.0
 40
89.0
 40
90.0
 40
90.0
 40
90.0
 40
91.0
 40
91.0
 40
91.0
 40
92.0
 40
92.0
 40
92.0
 40
93.0
 40
93.0
 40
93.0
 40
94.0
 40
94.0
 40
94.0
 40
95.0
 40
95.0
 40
95.0
 40
96.0
 40
96.0
 40
96.0
 40
97.0
 40
97.0
 40
97.0
 40
98.0
 40
98.0
 40
98.0
 40
99.0
 40
99.0
 40
99.0
 40
100.0
 40
100.0
 40
100.0
 40
101.0
 40
101.0
 40
101.0
 40
102.0
 40
102.0
 40
102.0
 40
103.0
 40
103.0
 40
103.0
 40
104.0
 40
104.0
 40
104.0
 40
105.0
 40
105.0
 40
105.0
 40
106.0
 40
106.0
 40
106.0
 40
107.0
 40
107.0
 40
107.0
 40
108.0
 40
108.0
 40
108.0
 40
109.0
 40
109.0
 40
109.0
 40
110.0
 40
110.0
 40
110.0
 40
111.0
 40
111.0
 40
111.0
 40
112.0
 40
112.0
 40
112.0
 40
113.0
 40
113.0
 40
113.0
 40
114.0
 40
114.0
 40
114.0
 40
115.0
 40
115.0
 40
115.0
 40
116.0
 40
116.0
 40
116.0
 40
117.0
 40
117.0
 40
117.0
 40
118.0
 40
118.0
 40
118.0
 40
119.0
 40
119.0
 40
119.0
 40
120.0
 40
120.0
 40
120.0
 40
121.0
 40
121.0
 40
121.0
 40
122.0
 40
122.0
 40
122.0
 40
123.0
 40
123.0
 40
123.0
 40
124.0
 40
124.0
 40
124.0
 40
125.0
 40
125.0
 40
125.0
 40
126.0
 40
126.0
 40
126.0
 40
127.0
 40
127.0
 40
127.0
 40
128.0
 40
128.0
 40
128.0
 40
129.0
 40
129.0
 40
129.0
 40
130.0
 40
130.0
 40
130.0
 40
131.0
 40
131.0
 40
131.0
 40
132.0
 40
132.0
 40
132.0
 40
133.0
 40
133.0
 40
133.0
 40
134.0
 40
134.0
 40
134.0
 40
135.0
 40
135.0
 40
135.0
 40
136.0
 40
136.0
 40
136.0
 40
137.0
 40
137.0
 40
137.0
 40
138.0
 40
138.0
 40
138.0
 40
139.0
 40
139.0
 40
139.0
 40
140.0
 40
140.0
 40
140.0
 40
141.0
 40
141.0
 40
141.0
 40
142.0
 40
142.0
 40
142.0
 40
143.0
 40
143.0
 40
143.0
 40
144.0
 40
144.0
 40
144.0
 40
145.0
 40
145.0
 40
145.0
 40
146.0
 40
146.0
 40
146.0
 40
147.0
 40
147.0
 40
147.0
 40
148.0
 40
148.0
 40
148.0
 40
149.0
 40
149.0
 40
149.0
 40
150.0
 40
150.0
 40
150.0
 40
151.0
 40
151.0
 40
151.0
 40
152.0
 40
152.0
 40
152.0
 40
153.0
 40
153.0
 40
153.0
 40
154.0
 40
154.0
 40
154.0
 40
155.0
 40
155.0
 40
155.0
 40
156.0
 40
156.0
 40
156.0
 40
157.0
 40
157.0
 40
157.0
 40
158.0
 40
158.0
 40
158.0
 40
159.0
 40
159.0
 40
159.0
 40
160.0
 40
160.0
 40
160.0
 40
161.0
 40
161.0
 40
161.0
 40
162.0
 40
162.0
 40
162.0
 40
163.0
 40
163.0
 40
163.0
 40
164.0
 40
164.0
 40
164.0
 40
165.0
 40
165.0
 40
165.0
 40
166.0
 40
166.0
 40
166.0
 40
167.0
 40
167.0
 40
167.0
 40
168.0
 40
168.0
 40
168.0
 40
169.0
 40
169.0
 40
169.0
 40
170.0
 40
170.0
 40
170.0
 40
171.0
 40
171.0
 40
171.0
 40
172.0
 40
172.0
 40
172.0
 40
173.0
 40
173.0
 40
173.0
 40
174.0
 40
174.0
 40
174.0
 40
175.0
 40
175.0
 40
175.0
 40
176.0
 40
176.0
 40
176.0
 40
177.0
 40
177.0
 40
177.0
 40
178.0
 40
178.0
 40
178.0
 40
179.0
 40
179.0
 40
179.0
 40
180.0
 40
180.0
 40
180.0
 40
181.0
 40
181.0
 40
181.0
 40
182.0
 40
182.0
 40
182.0
 40
183.0
 40
183.0
 40
183.0
 40
184.0
 40
184.0
 40
184.0
 40
185.0
 40
185.0
 40
185.0
 40
186.0
 40
186.0
 40
186.0
 40
187.0
 40
187.0
 40
187.0
 40
188.0
 40
188.0
 40
188.0
 40
189.0
 40
189.0
 40
189.0
 40
190.0
 40
190.0
 40
190.0
 40
191.0
 40
191.0
 40
191.0
 40
192.0
 40
192.0
 40
192.0
 40
193.0
 40
193.0
 40
193.0
 40
194.0
 40
194.0
 40
194.0
 40
195.0
 40
195.0
 40
195.0
 40
196.0
 40
196.0
 40
196.0
 40
197.0
 40
197.0
 40
197.0
 40
198.0
 40
198.0
 40
198.0
 40
199.0
 40
199.0
 40
199.0
 40
200.0
 40
200.0
 40
200.0
 40
201.0
 40
201.0
 40
201.0
 40
202.0
 40
202.0
 40
202.0
 40
203.0
 40
203.0
 40
203.0
 40
204.0
 40
204.0
 40
204.0
 40
205.0
 40
205.0
 40
205.0
 40
206.0
 40
206.0
 40
206.0
 40
207.0
 40
207.0
 40
207.0
 40
208.0
 40
208.0
 40
208.0
 40
209.0
 40
209.0
 40
209.0
 40
210.0
 40
210.0
 40
210.0
 40
211.0
 40
211.0
 40
211.0
 40
212.0
 40
212.0
 40
212.0
 40
213.0
 40
213.0
 40
213.0
 40
214.0
 40
214.0
 40
214.0
 40
215.0
 40
215.0
 40
215.0
 40
216.0
 40
216.0
 40
216.0
 40
217.0
 40
217.0
 40
217.0
 40
218.0
 40
218.0
 40
218.0
 40
219.0
 40
219.0
 40
219.0
 40
220.0
 40
220.0
 40
220.0
 40
221.0
 40
221.0
 40
221.0
 40
222.0
 40
222.0
 40
222.0
 40
223.0
 40
223.0
 40
223.0
 40
224.0
 40
224.0
 40
224.0
 40
225.0
 40
225.0
 40
225.0
 40
226.0
 40
226.0
 40
226.0
 40
227.0
 40
227.0
 40
227.0
 40
228.0
 40
228.0
 40
228.0
 40
229.0
 40
229.0
 40
229.0
 40
230.0
 40
230.0
 40
230.0
 40
231.0
 40
231.0
 40
231.0
 40
232.0
 40
232.0
 40
232.0
 40
233.0
 40
233.0
 40
233.0
 40
234.0
 40
234.0
 40
234.0
 40
235.0
 40
235.0
 40
235.0
 40
236.0
 40
236.0
 40
236.0
 40
236.0
 10
67.36471411471629
 20
-20.65129360594828
 10
66.20922581086192
 20
-20.83385610590261
 10
64.73161612633666
 20
-21.96316832784265
 10
64.12251003076514
 20
-22.71970027209776
 10
64.12251003076514
 20
-22.71970027209776
 10
63.55372643416491
 20
-23.28954221639988
 10
63.55372643416491
 20
-23.28954221639988
 10
63.07313887312092
 20
-23.88210304958497
 10
62.5639731260823
 20
-24.46087027166272
 10
61.78641564591943
 20
-24.75402860492249
 10
60.67707220705282
 20
-25.17125888259606
 10
59.41617237305605
 20
-25.53402027139424
 10
58.19143379319062
 20
-25.78308138244313
 10
57.3987421467472
 20
-25.87956610464132
 10
56.60188772263221
 20
-25.97703860461679
 10
55.8074321873449
 20
-26.0745463823701
 10
55.33407497719903
 20
-26.13381304902215
 10
54.86452776695595
 20
-26.19374999345156
 10
54.39117055681008
 20
-26.2543924934365
 10
53.46064998663465
 20
-26.45558166005266
 10
52.52666949326635
 20
-26.65814666000202
 10
51.59650035033028
 20
-26.85933582661851
 10
50.89404925714019
 20
-27.12635332655186
 10
50.19297399724833
 20
-27.39093665981905
 10
49.49017012628946
 20
-27.65791888197457
 10
49.11499096919441
 20
-27.73785832639901
 10
48.73914153433869
 20
-27.81846804860082
 10
48.3663965438482
 20
-27.90045360413616
 10
48.19448793712284
 20
-27.94419804856959
 10
48.02258054355006
 20
-27.98691943744759
 10
47.85204655697036
 20
-28.02928804854814
 10
47.53094823182893
 20
-28.29249554848244
 10
47.16991665487388
 20
-28.50264527065207
 10
46.79438352839804
 20
-28.69109915949387
 10
45.76843522123883
 20
-28.40757165956493
 10
45.03359912887495
 20
-28.22497388183276
 10
45.03359912887495
 20
-28.22497388183276
 10
45.03359912887495
 20
-28.22497388183276
 10
41.958153096225
 20
-29.2967480482314
 10
39.11938566864799
 20
-29.79113082588549
 10
37.11021044212855
 20
-30.13907554802089
 10
35.26571276896133
 20
-29.87897249253012
 10
34.50572360248461
 20
-30.16387582579226
 10
33.17317610281784
 20
-30.66340915900077
 10
32.47520526965894
 20
-31.03343777001929
 10
32.18994915861904
 20
-31.19843193664477
 10
31.94879026979065
 20
-31.19980776997797
 10
31.70763138096195
 20
-31.20086610331094
 10
31.46749554768869
 20
-31.20255943664374
 10
31.4141202699241
 20
-31.19913749220029
 10
31.36137999215967
 20
-31.19190554775746
 10
31.30800471439508
 20
-31.18777804775849
 10
31.10402860333499
 20
-31.02412443668838
 10
30.90079332560826
 20
-30.8614938811734
 10
30.69716999232561
 20
-30.69649971454825
 10
30.68718638121701
 20
-30.15491527023911
 10
30.59486443679565
 20
-29.23197804824748
 10
30.70750638121197
 20
-28.73449082614986
 10
30.85013443673192
 20
-28.22257499294443
 10
30.9907163811413
 20
-27.71027110418339
 10
31.13228610332797
 20
-27.19835527097828
 10
31.25251276996456
 20
-26.72774971554044
 10
31.36137999215967
 20
-26.3105547156447
 10
31.51953026989792
 20
-25.90196749352436
 10
31.56052304766558
 20
-25.77793082688871
 10
31.5984113809894
 20
-25.65357666025315
 10
31.63940415875674
 20
-25.52851693806238
 10
32.03077582532567
 20
-25.16092249370971
 10
32.42317054744971
 20
-24.79332804935735
 10
32.81418943624087
 20
-24.428132493893
 10
32.97886610286642
 20
-24.26588999393362
 10
33.14491860282486
 20
-24.1036122161964
 10
33.30994804722817
 20
-23.94376860512503
 10
34.10990693591711
 20
-23.24096471641195
 10
34.90707888016212
 20
-22.53780804992111
 10
35.70633131127782
 20
-21.83673277231868
 10
36.01296665766337
 20
-21.52667638350709
 10
36.32027046228159
 20
-21.21591443914062
 10
36.62686962112626
 20
-20.90585805032903
 10
37.19978071762119
 20
-20.34465916158046
 10
37.77099848082599
 20
-19.78346027283189
 10
38.34493263285038
 20
-19.222931661861
 10
38.62708429231876
 20
-18.94388443970848
 10
38.90994150732469
 20
-18.66586027311141
 10
39.19071733349484
 20
-18.38783610651401
 10
39.81255870651923
 20
-17.99649971772325
 10
40.43440007954362
 20
-17.60650388448721
 10
41.05588867479924
 20
-17.21410916236317
 10
41.37352977780665
 20
-16.92059805132531
 10
41.69289949188107
 20
-16.62429999584385
 10
42.01054165616372
 20
-16.33114166258376
 10
42.59618696883629
 20
-15.85707888492463
 10
43.14983639915596
 20
-15.32343194061352
 10
43.68140194115015
 20
-14.79359499630146
 10
43.9280641570795
 20
-14.5483086074741
 10
44.16647137321944
 20
-14.31092444086661
 10
44.42244692224452
 20
-14.08391194092332
 10
44.89026665544396
 20
-13.73455610767751
 10
45.35572050954583
 20
-13.37973221887735
 10
45.82974799745239
 20
-13.02624888563225
 10
46.51671214659314
 20
-13.13511610782736
 10
47.20367629573389
 20
-13.24260749668926
 10
47.89198100039599
 20
-13.35352082999494
 10
48.27784932388501
 20
-13.47205416329873
 10
48.66816387672197
 20
-13.8888963854167
 10
49.02369208263475
 20
-13.88787332986125
 10
49.08504013662519
 20
-13.88304027430708
 10
49.03886152669219
 20
-13.89164805208279
 10
49.09569402524227
 20
-13.87065777431015
 10
49.17390485658028
 20
-13.81759999654548
 10
49.19320180053242
 20
-13.75970916322663
 10
49.18321943214846
 20
-13.68255666324612
 10
49.20318541138883
 20
-13.21710166336237
 10
48.37225265480991
 20
-13.03866666340701
 10
48.00222405313902
 20
-12.84022916345662
 10
48.27372182399031
 20
-12.62316499684409
 10
48.60339264891304
 20
-12.42197583022793
 10
48.84250542059054
 20
-12.23906055249583
 10
49.33068054322258
 20
-12.49193166354378
 10
50.90921870119762
 20
-12.77129638569622
 10
51.18724286077131
 20
-12.40680638578707
 10
51.17859980543626
 20
-12.37202249690711
 10
51.17207341671386
 20
-12.33586277469394
 10
51.16276008361814
 20
-12.30139638581357
 10
50.77001387619669
 20
-12.18875444139725
 10
50.35867498741026
 20
-12.27832471915253
 10
49.93047205950086
 20
-12.07022110809346
 10
49.93047205950086
 20
-12.07022110809346
 10
49.94458317025197
 20
-12.04887805254339
 10
49.94458317025197
 20
-12.04887805254339
 10
50.19470260831534
 20
-11.97377166367312
 10
50.44824399073585
 20
-11.89901805258093
 10
50.70009203986623
 20
-11.82253583037778
 10
50.85616092477346
 20
-11.72608638595743
 10
50.94054536706508
 20
-11.4990386082363
 10
50.8616642579664
 20
-11.37397888604553
 10
49.61971012298462
 20
-11.47286249713173
 10
48.38463515449401
 20
-11.59481777487896
 10
47.15714490803212
 20
-11.75328555261713
 10
46.58148332168778
 20
-11.8283919414874
 10
45.94828132776168
 20
-11.76087027483772
 10
45.40292217500829
 20
-11.95997805256547
 10
44.86684107757375
 20
-12.15361777473952
 10
44.37799692337853
 20
-12.47125888577106
 10
43.88329665822161
 20
-12.78025694124937
 10
43.88329665822161
 20
-12.77993944124945
 10
43.88223832491528
 20
-12.77993944124945
 10
43.87983943608759
 20
-12.77993944124945
 10
43.8695030474624
 20
-12.78681860791451
 10
43.86262498903404
 20
-12.79302749680189
 10
43.85295777010673
 20
-12.79853083013375
 10
43.77647554983573
 20
-12.84537971901072
 10
43.7024274961693
 20
-12.89395721899865
 10
43.62488694259197
 20
-12.94045333009818
 10
43.62904972026354
 20
-12.9463094412078
 10
43.63074305355368
 20
-12.95216555231742
 10
43.63557610898593
 20
-12.95770416342712
 10
43.16324195436951
 20
-13.29876971889746
 10
42.68850891092541
 20
-13.64050555214549
 10
42.21652753407776
 20
-13.98329971872648
 10
41.28568811338101
 20
-14.54312277414184
 10
40.35379035937792
 20
-15.10432166289073
 10
39.42256387903318
 20
-15.66555582941682
 10
39.04569039275034
 20
-15.87845721825254
 10
38.6722398467223
 20
-16.09202888486595
 10
38.29603763409779
 20
-16.30598860703464
 10
37.92121125477152
 20
-16.73867055137082
 10
37.54500904214702
 20
-17.16965916237421
 10
37.1712057183502
 20
-17.60064777337759
 10
36.22311546476023
 20
-18.37682943985029
 10
35.30155409938232
 20
-19.20882055075343
 10
34.30315860253524
 20
-19.92435971724119
 10
34.30315860253524
 20
-19.92435971724119
 10
33.23759332502399
 20
-20.71158332815545
 10
33.23759332502399
 20
-20.71158332815545
 10
32.96644832509165
 20
-20.83593749479102
 10
32.69773749182549
 20
-20.96237305031499
 10
32.42729804744869
 20
-21.08672721695055
 10
31.84094610315099
 20
-21.3451369391082
 10
31.22739499219327
 20
-21.65381749458659
 10
30.68372915899572
 20
-21.9700474945074
 10
30.32855249241781
 20
-22.15507943890574
 10
29.9726702702847
 20
-22.34039360552616
 10
29.61922221481743
 20
-22.52609582770187
 10
29.39767777042848
 20
-22.7241805498745
 10
29.17479277048416
 20
-22.92297082760265
 10
28.95360110387265
 20
-23.1203852719976
 10
28.80857415946437
 20
-23.24473943863316
 10
28.66248888172312
 20
-23.36944638304649
 10
28.51710915953741
 20
-23.49588193857046
 10
28.493367215099
 20
-23.47041138302141
 10
28.46923721510499
 20
-23.44663416080517
 10
28.44510721511099
 20
-23.42250416081116
 10
28.21153304850255
 20
-23.31123804972772
 10
27.96247193745398
 20
-23.00566193869319
 10
27.82880443748718
 20
-22.78136582763814
 10
27.90560415969025
 20
-22.65874027211322
 10
27.98243915967117
 20
-22.53780804992111
 10
28.05825110409664
 20
-22.41793416106228
 10
28.20705277072613
 20
-22.3727786055178
 10
28.35486665957802
 20
-22.3286813833066
 10
28.50539693731816
 20
-22.28426666109548
 10
28.7724144372512
 20
-22.15197499446189
 10
29.03766804829607
 20
-22.01693166116253
 10
29.30500304822935
 20
-21.8853102723063
 10
29.55064221483446
 20
-21.73372166123319
 10
29.77666693700015
 20
-21.50910805017823
 10
30.06672082581671
 20
-21.40094638353864
 10
30.26173638132333
 20
-21.32859166133446
 10
30.86047082561828
 20
-21.4398577724179
 10
30.98690638114225
 20
-21.32859166133446
 10
31.34899749216275
 20
-21.01818249474543
 10
31.81099526982488
 20
-20.14036555052045
 10
31.95464638090028
 20
-19.60879999509774
 10
31.9505188809013
 20
-19.41724166181242
 10
31.94670888090225
 20
-19.222931661861
 10
31.94258138090327
 20
-19.02932721746479
 10
31.80168193649397
 20
-18.89530693972055
 10
31.66007693652946
 20
-18.76266249530919
 10
31.51953026989792
 20
-18.63005332867568
 10
31.40099693659413
 20
-18.46329527316204
 10
31.42099943658916
 20
-18.26348193987844
 10
31.34966776994043
 20
-18.03816277326828
 10
31.26045026996259
 20
-17.79047749555227
 10
31.17260860331795
 20
-17.54554388450235
 10
31.0840613811178
 20
-17.29852888456435
 10
31.00309888113823
 20
-17.18549888459242
 10
30.92213638115834
 20
-17.07320971795386
 10
30.84152665895621
 20
-16.95950944020457
 10
30.38676082573658
 20
-16.31632499592099
 10
29.90102110363572
 20
-15.85365694048117
 10
29.17133554826287
 20
-15.48327555168489
 10
29.03766804829607
 20
-15.4150836072572
 10
28.90502360388471
 20
-15.34618610727464
 10
28.7724144372512
 20
-15.27760610729167
 10
28.7210852705975
 20
-15.2734786072927
 10
28.67042638172115
 20
-15.26762249618308
 10
28.61909721506745
 20
-15.26176638507346
 10
27.78054443749917
 20
-14.87766194072488
 10
26.97338888214556
 20
-14.93138999626723
 10
26.53756721558767
 20
-15.00995360735847
 10
26.18549499345361
 20
-15.06368166290082
 10
25.79585193799534
 20
-15.18355555175965
 10
25.62669499359337
 20
-15.4519488850259
 10
25.57430749360639
 20
-15.49671638501478
 10
25.52505971584109
 20
-15.54497638500279
 10
25.48992304918304
 20
-15.60078582943323
 10
25.39622527142879
 20
-15.73614666273251
 10
25.32729249366806
 20
-15.88258471825152
 10
25.28873388256656
 20
-16.0276116626598
 10
25.26425110479511
 20
-16.11718194041508
 10
25.25116304924267
 20
-16.22365027372186
 10
25.25324443813108
 20
-16.31632499592099
 10
25.25426749368652
 20
-16.35731777368834
 10
25.27529304923667
 20
-16.41139860700813
 10
25.26806110479417
 20
-16.45136832922035
 10
25.2583949936855
 20
-16.49546555143155
 10
25.18812166036972
 20
-16.53818694030987
 10
25.15231471593399
 20
-16.58126110696594
 10
25.10236138261318
 20
-16.64394971806112
 10
25.00658221597051
 20
-16.80104166246641
 10
24.95077277154007
 20
-16.83857721801246
 10
24.94558693820813
 20
-16.83755416245734
 10
24.93973082709851
 20
-16.83653110690189
 10
24.9345802715441
 20
-16.83480249579125
 10
24.88977749377769
 20
-16.81240110690789
 10
24.80091277157761
 20
-16.75316971803399
 10
24.77505416047296
 20
-16.69665471804803
 10
24.76267166047604
 20
-16.66599832916672
 10
24.76507054936437
 20
-16.60468555140442
 10
24.73130971603953
 20
-16.58814027363069
 10
24.68894110493898
 20
-16.61981971806712
 10
24.7013236049359
 20
-16.77828749580528
 10
24.72474804937438
 20
-16.82481888468265
 10
24.74817249381287
 20
-16.8699391624493
 10
24.78641360491444
 20
-16.90715721799543
 10
24.82398443823834
 20
-16.94229388465347
 10
24.82398443823834
 20
-16.94642138465213
 10
24.82327888268314
 20
-16.95125444020663
 10
24.82327888268314
 20
-16.95573471798336
 10
24.74923082714615
 20
-16.98293388464306
 10
24.66170666050112
 20
-16.98120527353241
 10
24.58522443829828
 20
-16.98984832908596
 10
24.51734999387052
 20
-16.99775055130615
 10
24.4574130494411
 20
-17.02117499574463
 10
24.39197277167983
 20
-17.02498499574369
 10
24.28860888281658
 20
-17.03221694018652
 10
24.18422193839853
 20
-17.03701471796285
 10
24.08121082731304
 20
-17.04735110684921
 10
24.02437832732716
 20
-17.05183138462595
 10
23.83938166070697
 20
-17.03701471796285
 10
23.79701304960642
 20
-17.11455527349929
 10
23.7642752718367
 20
-17.17209332904038
 10
23.75118721628458
 20
-17.24547110679968
 10
23.75739610517164
 20
-17.30540805122909
 10
23.77150721627921
 20
-17.43805249564045
 10
23.8865833273617
 20
-17.46147694007893
 10
23.79253277182968
 20
-17.59962471782247
 10
23.7294561051789
 20
-17.6926169400212
 10
23.62648027187125
 20
-17.60650388448721
 10
23.55754749411052
 20
-17.62890527337057
 10
23.51898888300903
 20
-17.6433691622559
 10
23.48074777190745
 20
-17.69434555113185
 10
23.46765971635532
 20
-17.72193277334715
 10
23.40320721637133
 20
-17.85076721775945
 10
23.48487527190642
 20
-17.97409832883989
 10
23.58270054965997
 20
-18.11397471769375
 10
23.58270054965997
 20
-18.11397471769375
 10
23.57582138299491
 20
-18.11983082880337
 10
23.57582138299491
 20
-18.11983082880337
 10
23.57271693855138
 20
-18.12085388435881
 10
23.57169388299593
 20
-18.12085388435881
 10
23.5685894385524
 20
-18.12085388435881
 10
23.53242971633923
 20
-18.09640638436489
 10
23.49175443857149
 20
-18.08261277325724
 10
23.45524193858056
 20
-18.07502805103665
 10
23.42077554970052
 20
-18.06677305103902
 10
23.39428193859602
 20
-18.06229277326229
 10
23.36327277193695
 20
-18.06229277326229
 10
23.31123804972772
 20
-18.06021138437388
 10
23.25750999418569
 20
-18.1342947176887
 10
23.24473943863316
 20
-18.17426443990092
 10
23.20649832753158
 20
-18.3072263843122
 10
23.35635832749436
 20
-18.38991749540242
 10
23.26403638307299
 20
-18.54665666202994
 10
23.21683471641794
 20
-18.63107638423112
 10
23.09487943867071
 20
-18.65485360644736
 10
23.02598193868782
 20
-18.6934474953267
 10
22.99394971647363
 20
-18.71376749532166
 10
22.91954888315888
 20
-18.79952777307788
 10
22.88437693872331
 20
-18.8543141619532
 10
22.88370666094563
 20
-18.85949999528514
 10
22.88197804983498
 20
-18.85949999528514
 10
22.87957916094665
 20
-18.86189888417347
 10
22.87266471650407
 20
-18.87533971750335
 10
22.86578554983901
 20
-18.88807499527804
 10
22.86268110539547
 20
-18.8935783286099
 10
22.86268110539547
 20
-18.89428388416543
 10
22.86338666095068
 20
-18.89463666194287
 10
22.86338666095068
 20
-18.89703555083119
 10
22.84613582762174
 20
-18.94077999526495
 10
22.83858638317931
 20
-19.00727860635919
 10
22.86338666095068
 20
-19.09063999522741
 10
22.88748138316716
 20
-19.20296443964381
 10
22.97257138314571
 20
-19.32837693961234
 10
23.09696082755911
 20
-19.42690777292109
 10
23.23648443863521
 20
-19.53782110622677
 10
23.36842332749137
 20
-19.65564888397503
 10
23.50727666078978
 20
-19.76381055061462
 10
23.51038110523363
 20
-19.77210082839041
 10
23.5131327718994
 20
-19.7807086061658
 10
23.5224108274528
 20
-19.78794055060862
 10
23.58270054965997
 20
-19.8313322172643
 10
23.74222666073111
 20
-19.9657052727863
 10
23.87176666069861
 20
-20.07457249498141
 10
23.8817502718072
 20
-20.07559555053653
 10
23.89071082736067
 20
-20.08215721720168
 10
23.89896582735863
 20
-20.08388582831232
 10
24.08085804953528
 20
-20.27061110604347
 10
24.70238193826886
 20
-20.95411805031704
 10
24.71409416048811
 20
-21.49841888351443
 10
24.68823554938345
 20
-21.66828138347192
 10
24.65966054939055
 20
-21.83743832787388
 10
24.6338019382859
 20
-22.00521943894329
 10
24.50496749387392
 20
-22.66872388322182
 10
24.46774943832746
 20
-23.36877610526881
 10
24.18492749395373
 20
-23.89448554958189
 10
24.16527777173646
 20
-23.90104721624703
 10
24.14531054951927
 20
-23.91000777180018
 10
24.12601360507976
 20
-23.91928582735358
 10
23.85659721625807
 20
-23.82904527182061
 10
23.36394304971463
 20
-23.0101422164696
 10
23.06249443867875
 20
-22.50475277215147
 10
23.06249443867875
 20
-22.50475277215147
 10
23.07007916089902
 20
-22.50439999437403
 10
23.07007916089902
 20
-22.50439999437403
 10
22.73451693876085
 20
-22.01449749449636
 10
21.77093971677964
 20
-20.3222577726971
 10
21.67138582791545
 20
-20.14830305051848
 10
21.49362110573777
 20
-19.64601805064419
 10
21.31342221689393
 20
-19.14369777299176
 10
21.13530471693849
 20
-18.6424358286726
 10
21.13530471693849
 20
-18.6424358286726
 10
20.72361305037461
 20
-16.83963555134575
 10
20.72361305037461
 20
-16.83963555134575
 10
20.55138693930664
 20
-16.3469813848023
 10
20.37669138379465
 20
-15.85365694048117
 10
20.20340693939371
 20
-15.36237860727062
 10
20.20340693939371
 20
-15.36237860727062
 10
19.53817388400421
 20
-14.41943888528396
 10
19.53817388400421
 20
-14.41943888528396
 10
19.36866416182448
 20
-14.04771694093263
 10
19.19777860631155
 20
-13.67634777435874
 10
19.02932721746479
 20
-13.30494333000701
 10
19.02932721746479
 20
-13.30494333000701
 10
17.97547416217277
 20
-11.19931860831139
 10
17.97547416217277
 20
-11.19931860831139
 10
17.52864582895117
 20
-10.38489583073711
 10
16.99051860686333
 20
-9.817135275323396
 10
16.99051860686333
 20
-9.817135275323396
 10
16.66839721805505
 20
-9.568744442052187
 10
16.34627582924678
 20
-9.317954719892649
 10
16.0276116626598
 20
-9.056828608846754
 10
15.57767888499435
 20
-8.856662497785717
 10
15.13018027399538
 20
-8.652686386725627
 10
14.68091777410761
 20
-8.452202775664668
 10
14.42152027417237
 20
-8.321639720141722
 10
14.18794610756425
 20
-8.087712775755843
 10
13.93955527429304
 20
-7.95817277578834
 10
13.37627499665606
 20
-8.176930275733683
 10
12.56700277463588
 20
-7.802456664715941
 10
12.4268088857821
 20
-7.599891664766576
 10
12.28657971915048
 20
-7.397326664817211
 10
12.18014666362154
 20
-7.470704442576834
 10
12.34376499691412
 20
-7.708758886961686
 10
12.50741860798423
 20
-7.946813331346538
 10
12.47330499688163
 20
-7.902716109135341
 10
12.53567610797721
 20
-7.985724720225798
 10
12.53567610797721
 20
-7.985724720225798
 10
12.53567610797721
 20
-8.013276664663257
 10
12.53567610797721
 20
-8.013276664663257
 10
12.26248499693431
 20
-7.948189164679744
 10
11.93792944145987
 20
-7.876187220253327
 10
11.71264555262755
 20
-7.82140083137801
 10
11.48732638601706
 20
-7.766614442502693
 10
11.40809249714813
 20
-7.886841109139284
 10
11.71264555262755
 20
-8.013276664663257
 10
12.01719860810696
 20
-8.13971222018723
 10
12.20219527472714
 20
-8.186596386842357
 10
12.4808897191019
 20
-8.314407775699216
 10
12.46296860799527
 20
-8.322309997919403
 10
12.44402444133352
 20
-8.334022220138646
 10
12.4268088857821
 20
-8.34333555346988
 10
12.231828608053
 20
-8.480777775657572
 10
11.94688999701334
 20
-8.51422110898249
 10
11.60102666376634
 20
-8.507659442317667
 10
11.437725830474
 20
-8.488715275655599
 10
11.45427110824742
 20
-8.659600831168532
 10
11.65613055264158
 20
-8.725746664485328
 10
12.15153638585112
 20
-8.992728886640844
 10
12.98285721897657
 20
-8.356423609022006
 10
13.38763444109754
 20
-8.589997775630122
 10
13.59055221882467
 20
-8.70920138671159
 10
13.71423610768255
 20
-8.769138331141004
 10
13.99261305205739
 20
-8.948631664429646
 10
14.27095471865439
 20
-9.128124997717968
 10
13.99261305205739
 20
-9.08402777550677
 10
13.99261305205739
 20
-9.08402777550677
 10
13.52613499661852
 20
-9.069211108843678
 10
13.02695444118777
 20
-8.966552775536272
 10
12.81197166346364
 20
-9.249409997687524
 10
12.72755194126246
 20
-9.398211664317015
 10
12.83469055234692
 20
-9.392708330985156
 10
12.89328694122097
 20
-9.44093305319533
 10
13.20609499669833
 20
-9.514663608732393
 10
13.56264749660945
 20
-9.409253608758895
 10
13.93955527429304
 20
-9.496072219848086
 10
14.17760971867789
 20
-9.579786386494067
 10
14.41566416306275
 20
-9.66177194202908
 10
14.65198999633695
 20
-9.744463053119295
 10
14.84527694073324
 20
-9.726189164235231
 10
15.03852860735138
 20
-9.707950553128686
 10
15.23213305174759
 20
-9.690382219799503
 10
15.55252582944522
 20
-9.755116942005575
 10
15.82127194048922
 20
-10.05624805304153
 10
16.0624308293176
 20
-10.37801666407204
 10
16.0617252737624
 20
-10.38524860851487
 10
16.0617252737624
 20
-10.39315083073506
 10
16.06070221820696
 20
-10.40038277517757
 10
16.06585277376137
 20
-10.40038277517757
 10
16.07103860709331
 20
-10.40038277517757
 10
16.07689471820293
 20
-10.40144110851085
 10
16.26326721815632
 20
-10.79588194174546
 10
16.44791110699906
 20
-11.19275694164624
 10
16.63428360695245
 20
-11.58585721932581
 10
16.83755416245734
 20
-12.40440749689874
 10
17.04495221796088
 20
-13.22366333002752
 10
17.24959860679865
 20
-14.04323666315589
 10
17.6860905511339
 20
-15.45678194058039
 10
18.20146360656062
 20
-16.75623888469969
 10
18.71514332865454
 20
-18.073299439926
 10
19.19777860631155
 20
-19.49305360623789
 10
19.68355360619025
 20
-20.91379555032706
 10
20.16759999495798
 20
-22.33284416108342
 10
20.31573138381011
 20
-22.6194761054562
 10
20.46559138377257
 20
-22.90540249427379
 10
20.61580416151279
 20
-23.19238721642402
 10
20.61580416151279
 20
-23.19238721642402
 10
21.17181721692942
 20
-24.33065999391721
 10
21.17181721692942
 20
-24.33065999391721
 10
21.47742860574179
 20
-24.92939443821216
 10
21.81020388343634
 20
-25.55536332694464
 10
22.06720249448326
 20
-26.19374999345156
 10
22.27841054998586
 20
-26.71914193776473
 10
21.99936332783334
 20
-27.54146693755919
 10
21.90908749452286
 20
-27.99690304855618
 10
21.8987511056365
 20
-28.22257499294443
 10
21.88633332786174
 20
-28.44683582622163
 10
21.87395082786481
 20
-28.67455388172013
 10
21.78402777233177
 20
-29.23508249269134
 10
21.8432944389835
 20
-29.7607919370041
 10
21.94595277229123
 20
-30.24723721466048
 10
21.97075305006292
 20
-30.40986777017546
 10
21.9941774945014
 20
-30.57073443680164
 10
22.01862499449533
 20
-30.73230665898366
 10
22.01862499449533
 20
-30.73230665898366
 10
22.39450971662348
 20
-31.59082665876881
 10
22.39450971662348
 20
-31.59082665876881
 10
22.67630860544209
 20
-31.89675554758143
 10
22.95948332759358
 20
-32.20370749194917
 10
23.24234054974483
 20
-32.51069471409443
 10
23.68916888296675
 20
-33.11563804727675
 10
24.13634999396579
 20
-33.72128693601428
 10
24.5845541605206
 20
-34.32658304697405
 10
25.07272804928731
 20
-34.83059665795897
 10
25.56090193805434
 20
-35.33461026894422
 10
26.04939332682097
 20
-35.8389766577069
 10
26.28988193787199
 20
-36.13696804652117
 10
26.5796183266883
 20
-36.43051443533686
 10
26.87760971550289
 20
-36.70060110193591
 10
26.94513138215257
 20
-36.82876526857053
 10
27.10737388211195
 20
-37.16499776848637
 10
27.27000443762694
 20
-37.68453360168991
 10
27.3550944376058
 20
-38.33011693486183
 10
27.4825530486849
 20
-38.93371971248879
 10
27.62655693753774
 20
-39.51904860123136
 10
27.744384715286
 20
-40.8285244342371
 10
27.62966138198158
 20
-42.52729054492398
 10
26.87517554883672
 20
-44.52097887775847
 10
25.07166971595435
 20
-49.28795915434491
 10
27.47913110424145
 20
-54.7180910974318
 10
27.47913110424145
 20
-54.7180910974318
 10
27.47913110424145
 20
-54.7180910974318
 10
32.89412888066532
 20
-55.75748026383847
 10
32.89412888066532
 20
-55.75748026383847
 10
32.89412888066532
 20
-55.75748026383847
 10
33.51836915828716
 20
-53.46752915329972
 10
33.51836915828716
 20
-53.46752915329972
 10
33.65859832491878
 20
-53.99669581983409
 10
33.79949776932776
 20
-54.52692081970175
 10
33.93902138040418
 20
-55.05675776401348
 10
33.93902138040418
 20
-55.05675776401348
 10
33.57657749160592
 20
-58.38472220762604
 10
33.57657749160592
 20
-58.38472220762604
 10
33.53939471383731
 20
-58.81571081862943
 10
33.50390526940182
 20
-59.24839276296593
 10
33.46668721385569
 20
-59.68043970730196
 10
33.28066749167974
 20
-60.77595581813933
 10
33.26034749168479
 20
-61.85806637342432
 10
33.05570110284734
 20
-62.89847859538677
 10
33.00641804730388
 20
-63.27020053973778
 10
32.95854610287147
 20
-63.64192248408943
 10
32.91169721399418
 20
-64.01195109510796
 10
32.63229721406422
 20
-65.04961165040399
 10
32.35427304746715
 20
-66.08624915014491
 10
32.07452026975911
 20
-67.1228513721083
 10
31.98805443644735
 20
-67.54212776089244
 10
32.03836054754593
 20
-67.97276359411806
 10
32.03836054754593
 20
-68.42890526067058
 10
32.03836054754593
 20
-68.42890526067058
 10
32.0524716586535
 20
-69.11964414938697
 10
32.0524716586535
 20
-69.11964414938697
 10
32.27020610304341
 20
-70.16005637134877
 10
32.58544832518693
 20
-71.2893685932885
 10
33.05570110284734
 20
-72.09620664864283
 10
33.14491860282486
 20
-72.27224275970985
 10
33.20037526947753
 20
-72.47138581521577
 10
33.32303610278029
 20
-72.62985359295362
 10
33.42569443608802
 20
-72.76249803736498
 10
33.7150780471269
 20
-72.97264775953461
 10
33.87975471375213
 20
-73.00432720397104
 10
34.04961721370994
 20
-73.03706498174076
 10
34.24562054699416
 20
-72.9946963706402
 10
34.38651999140346
 20
-72.89510720399817
 10
34.45647582471931
 20
-72.84550664845543
 10
34.47781888026939
 20
-72.75078581514573
 10
34.5205402691477
 20
-72.67705525960835
 10
34.99079304680779
 20
-71.96320942645372
 10
34.61561388023485
 20
-70.73780053787141
 10
34.48438054693453
 20
-69.86929692697733
 10
34.50399499137396
 20
-69.74561303811944
 10
34.52399749136899
 20
-69.62020053815029
 10
34.54329443580851
 20
-69.49447053818216
 10
34.63491082467467
 20
-69.05554442718042
 10
34.67315193577625
 20
-68.75892887169904
 10
34.88400721350109
 20
-68.46541776066118
 10
35.05178832457049
 20
-68.323812760697
 10
35.2226738800831
 20
-68.18326609406546
 10
35.39041881933742
 20
-68.04166109410063
 10
35.5495921486099
 20
-67.91522553857698
 10
36.09082380146859
 20
-67.08736192767282
 10
36.00813269246711
 20
-66.75941970553211
 10
35.96816387989697
 20
-66.70255192776904
 10
35.92925158336843
 20
-66.64434359444995
 10
35.88755325109891
 20
-66.5905802611304
 10
35.59404214747589
 20
-66.12170331680286
 10
34.74998693575684
 20
-65.77308831689011
 10
34.94394415793082
 20
-64.85805331711866
 10
35.11345388011055
 20
-64.3385527616933
 10
35.28155159989263
 20
-63.81901692848975
 10
35.45070854002152
 20
-63.29810526195332
 10
36.09703269019909
 20
-61.46944637352149
 10
36.86150211514029
 20
-59.734167762844
 10
37.26730238256524
 20
-57.7205122077923
 10
37.26560904927511
 20
-57.54031331894846
 10
37.26179999068448
 20
-57.36085526343766
 10
37.2597529383134
 20
-57.18030359681605
 10
37.48814126582006
 20
-56.89402443022102
 10
37.88639208899317
 20
-56.5288641525342
 10
38.58884318218326
 20
-56.15160359707349
 10
38.66465512469358
 20
-56.11061081930582
 10
38.73457567846531
 20
-56.08718637486734
 10
38.80795345437107
 20
-56.05240248598673
 10
38.8313778982179
 20
-56.07649720820322
 10
38.84965276806537
 20
-56.10648331930653
 10
38.87378178602498
 20
-56.12990776374501
 10
38.86654984176504
 20
-56.09889859708658
 10
38.85758928643808
 20
-56.06478498598398
 10
38.84965276806537
 20
-56.03310554154754
 10
40.23871425120265
 20
-55.39817609726159
 10
41.21470922630294
 20
-55.8022830416052
 10
41.21470922630294
 20
-55.8022830416052
 10
41.21470922630294
 20
-55.8022830416052
 10
39.42393871643375
 20
-51.71535248707104
 10
39.42393871643375
 20
-51.71535248707104
 10
39.42393871643375
 20
-51.71535248707104
 10
42.26133031071253
 20
-55.97073443045164
 10
42.26133031071253
 20
-55.97073443045164
 10
42.26133031071253
 20
-55.97073443045164
 10
41.98916226210056
 20
-55.18146470842714
 10
44.11270804125773
 20
-52.36061832024335
 10
46.23664187596055
 20
-49.53666748761604
 10
46.93976324691132
 20
-50.40689970962075
 10
46.93976324691132
 20
-50.40689970962075
 10
46.93976324691132
 20
-50.40689970962075
 10
43.35444750504701
 20
-46.23318582177525
 10
43.35444750504701
 20
-46.23318582177525
 10
43.35444750504701
 20
-46.23318582177525
 10
47.16885832154124
 20
-49.52255637650815
 10
47.16885832154124
 20
-49.52255637650815
 10
47.16885832154124
 20
-49.52255637650815
 10
45.75188994388316
 20
-48.02187498799454
 10
46.50362409137148
 20
-45.31197721089427
 10
47.2560285166205
 20
-42.60204415601584
 10
48.69539709101026
 20
-42.37295026718478
 10
48.69539709101026
 20
-42.37295026718478
 10
48.69539709101026
 20
-42.37295026718478
 10
44.88271607716874
 20
-39.02466582357727
 10
44.88271607716874
 20
-39.02466582357727
 10
44.88271607716874
 20
-39.02466582357727
 10
48.92209208522679
 20
-41.54783832294639
 10
48.92209208522679
 20
-41.54783832294639
 10
48.92209208522679
 20
-41.54783832294639
 10
48.28885599027087
 20
-40.50227554543017
 10
48.45215681943805
 20
-38.42039276817263
 10
48.61478737084456
 20
-36.33921554647062
 10
49.89702872702075
 20
-35.50687165779004
 10
49.89702872702075
 20
-35.50687165779004
 10
49.89702872702075
 20
-35.50687165779004
 10
45.52727633850242
 20
-34.6976347135477
 10
45.52727633850242
 20
-34.6976347135477
 10
45.52727633850242
 20
-34.6976347135477
 10
50.1795331642579
 20
-34.8044205468544
 10
50.1795331642579
 20
-34.8044205468544
 10
50.1795331642579
 20
-34.8044205468544
 10
50.43826037987944
 20
-33.75952804711554
 10
51.26612396986999
 20
-32.88619138066729
 10
51.91484700887524
 20
-32.20060304750532
 10
53.19814669835777
 20
-31.72001388095887
 10
53.0847992012495
 20
-31.24150610330084
 10
53.04860554229334
 20
-31.08889443667229
 10
52.85637559596596
 20
-30.91592749227095
 10
52.55940727020892
 20
-30.73646943676047
 10
52.80229476401234
 20
-30.66859499233271
 10
53.04380642451753
 20
-30.60139082568295
 10
53.28874002937987
 20
-30.53870221458744
 10
53.79758668306478
 20
-30.40986777017546
 10
54.30057722578798
 20
-30.33959443685969
 10
54.75358054186728
 20
-30.15216360357302
 10
55.11394164948176
 20
-29.96476804806451
 10
55.47222275145236
 20
-29.77973610366617
 10
55.83120940896052
 20
-29.59509221482342
 10
56.83062882790765
 20
-29.08486971495112
 10
57.80147324758379
 20
-28.59016943729679
 10
58.73647544595212
 20
-28.00932082633095
 10
59.28045876540727
 20
-27.66652665974996
 10
59.82581942948769
 20
-27.32306221539161
 10
60.36944998490771
 20
-26.98129110436575
 10
61.48874176462484
 20
-26.49759749337545
 10
62.96910311574656
 20
-26.38460277118169
 10
64.08568003170475
 20
-25.89057277130504
 10
64.50287502106123
 20
-25.70628166024006
 10
64.80499390224242
 20
-25.3927680492075
 10
65.13882750483673
 20
-25.12920777149543
 10
65.56498304952015
 20
-24.7781586049165
 10
65.99389026080004
 20
-24.428132493893
 10
66.42039858325224
 20
-24.07570749398118
 10
66.65534857725817
 20
-23.91928582735358
 10
66.88892273796586
 20
-23.76117082739317
 10
67.12284967644233
 20
-23.60545471632078
 10
67.21965189619492
 20
-23.45901666080177
 10
67.3164893937244
 20
-23.31469527194901
 10
67.41329161347699
 20
-23.16860999420777
 10
67.7288513276486
 20
-22.71970027209776
 10
68.19014353810228
 20
-22.24016943888428
 10
68.24870464771938
 20
-21.55839110572136
 10
68.0047940983865
 20
-21.14839277249062
 10
67.80258188132314
 20
-20.87107416144874
 10
67.36471411471629
 20
-20.65129360594828
 97
        0
 75
     0
 76
     1
 98
        0
  0
ENDSEC
  0
SECTION
  2
OBJECTS
  0
DICTIONARY
  5
C
330
0
100
AcDbDictionary
281
     1
  3
ACAD_GROUP
350
D
  3
ACAD_LAYOUT
350
1A
  3
ACAD_MATERIAL
350
3B
  3
ACAD_MLEADERSTYLE
350
64
  3
ACAD_MLINESTYLE
350
17
  3
ACAD_PLOTSETTINGS
350
19
  3
ACAD_PLOTSTYLENAME
350
E
  3
ACAD_TABLESTYLE
350
63
  3
ACAD_VISUALSTYLE
350
2A
  0
SUN
  5
3F
330
29
100
AcDbSun
 90
        1
290
     0
 63
     7
421
 16777215
 40
1.0
291
     1
 91
  2455826
 92
 54000000
292
     0
 70
     2
 71
   256
280
     1
  0
DICTIONARY
  5
D
102
{ACAD_REACTORS
330
C
102
}
330
C
100
AcDbDictionary
281
     1
  0
DICTIONARY
  5
1A
102
{ACAD_REACTORS
330
C
102
}
330
C
100
AcDbDictionary
281
     1
  3
Layout1
350
1E
  3
Layout2
350
26
  3
Model
350
22
  0
DICTIONARY
  5
3B
102
{ACAD_REACTORS
330
C
102
}
330
C
100
AcDbDictionary
281
     1
  3
ByBlock
350
3D
  3
ByLayer
350
3C
  3
Global
350
3E
  0
DICTIONARY
  5
64
102
{ACAD_REACTORS
330
C
102
}
330
C
100
AcDbDictionary
281
     1
  0
DICTIONARY
  5
17
102
{ACAD_REACTORS
330
C
102
}
330
C
100
AcDbDictionary
281
     1
  3
Standard
350
18
  0
DICTIONARY
  5
19
102
{ACAD_REACTORS
330
C
102
}
330
C
100
AcDbDictionary
281
     1
  0
ACDBDICTIONARYWDFLT
  5
E
102
{ACAD_REACTORS
330
C
102
}
330
C
100
AcDbDictionary
281
     1
  3
Normal
350
F
100
AcDbDictionaryWithDefault
340
F
  0
DICTIONARY
  5
63
102
{ACAD_REACTORS
330
C
102
}
330
C
100
AcDbDictionary
281
     1
  0
DICTIONARY
  5
2A
102
{ACAD_REACTORS
330
C
102
}
330
C
100
AcDbDictionary
281
     1
  3
2dWireframe
350
2F
  3
3D Hidden
350
31
  3
3dWireframe
350
30
  3
Basic
350
32
  3
Brighten
350
36
  3
ColorChange
350
3A
  3
Conceptual
350
34
  3
Dim
350
35
  3
Facepattern
350
39
  3
Flat
350
2B
  3
FlatWithEdges
350
2C
  3
Gouraud
350
2D
  3
GouraudWithEdges
350
2E
  3
Linepattern
350
38
  3
Realistic
350
33
  3
Thicken
350
37
  0
LAYOUT
  5
1E
102
{ACAD_REACTORS
330
1A
102
}
330
1A
100
AcDbPlotSettings
  1

  2
none_device
  4

  6

 40
0.0
 41
0.0
 42
0.0
 43
0.0
 44
0.0
 45
0.0
 46
0.0
 47
0.0
 48
0.0
 49
0.0
140
0.0
141
0.0
142
1.0
143
1.0
 70
   688
 72
     0
 73
     0
 74
     5
  7

 75
    16
 76
     0
 77
     2
 78
   300
147
1.0
148
0.0
149
0.0
100
AcDbLayout
  1
Layout1
 70
     1
 71
     1
 10
0.0
 20
0.0
 11
12.0
 21
9.0
 12
0.0
 22
0.0
 32
0.0
 14
1.000000000000000E+20
 24
1.000000000000000E+20
 34
1.000000000000000E+20
 15
-1.000000000000000E+20
 25
-1.000000000000000E+20
 35
-1.000000000000000E+20
146
0.0
 13
0.0
 23
0.0
 33
0.0
 16
1.0
 26
0.0
 36
0.0
 17
0.0
 27
1.0
 37
0.0
 76
     0
330
1B
  0
LAYOUT
  5
26
102
{ACAD_REACTORS
330
1A
102
}
330
1A
100
AcDbPlotSettings
  1

  2
none_device
  4

  6

 40
0.0
 41
0.0
 42
0.0
 43
0.0
 44
0.0
 45
0.0
 46
0.0
 47
0.0
 48
0.0
 49
0.0
140
0.0
141
0.0
142
1.0
143
1.0
 70
   688
 72
     0
 73
     0
 74
     5
  7

 75
    16
 76
     0
 77
     2
 78
   300
147
1.0
148
0.0
149
0.0
100
AcDbLayout
  1
Layout2
 70
     1
 71
     2
 10
0.0
 20
0.0
 11
0.0
 21
0.0
 12
0.0
 22
0.0
 32
0.0
 14
0.0
 24
0.0
 34
0.0
 15
0.0
 25
0.0
 35
0.0
146
0.0
 13
0.0
 23
0.0
 33
0.0
 16
1.0
 26
0.0
 36
0.0
 17
0.0
 27
1.0
 37
0.0
 76
     0
330
23
  0
LAYOUT
  5
22
102
{ACAD_REACTORS
330
1A
102
}
330
1A
100
AcDbPlotSettings
  1

  2
none_device
  4

  6

 40
0.0
 41
0.0
 42
0.0
 43
0.0
 44
0.0
 45
0.0
 46
0.0
 47
0.0
 48
0.0
 49
0.0
140
0.0
141
0.0
142
1.0
143
1.0
 70
  1712
 72
     0
 73
     0
 74
     0
  7

 75
     0
 76
     0
 77
     2
 78
   300
147
1.0
148
0.0
149
0.0
100
AcDbLayout
  1
Model
 70
     1
 71
     0
 10
0.0
 20
0.0
 11
12.0
 21
9.0
 12
0.0
 22
0.0
 32
0.0
 14
1.000000000000000E+20
 24
1.000000000000000E+20
 34
1.000000000000000E+20
 15
-1.000000000000000E+20
 25
-1.000000000000000E+20
 35
-1.000000000000000E+20
146
0.0
 13
0.0
 23
0.0
 33
0.0
 16
1.0
 26
0.0
 36
0.0
 17
0.0
 27
1.0
 37
0.0
 76
     0
330
1F
331
29
  0
MATERIAL
  5
3D
102
{ACAD_REACTORS
330
3B
102
}
330
3B
100
AcDbMaterial
  1
ByBlock
 72
     1
 94
      127
  0
MATERIAL
  5
3C
102
{ACAD_REACTORS
330
3B
102
}
330
3B
100
AcDbMaterial
  1
ByLayer
 72
     1
 94
      127
  0
MATERIAL
  5
3E
102
{ACAD_REACTORS
330
3B
102
}
330
3B
100
AcDbMaterial
  1
Global
 72
     1
 94
      127
  0
MLINESTYLE
  5
18
102
{ACAD_REACTORS
330
17
102
}
330
17
100
AcDbMlineStyle
  2
Standard
 70
     0
  3

 62
   256
 51
90.0
 52
90.0
 71
     2
 49
0.5
 62
   256
  6
BYLAYER
 49
-0.5
 62
   256
  6
BYLAYER
  0
ACDBPLACEHOLDER
  5
F
102
{ACAD_REACTORS
330
E
102
}
330
E
  0
VISUALSTYLE
  5
2F
102
{ACAD_REACTORS
330
2A
102
}
102
{ACAD_XDICTIONARY
360
4B
102
}
330
2A
100
AcDbVisualStyle
  2
2dWireframe
 70
     4
 71
     0
 72
     2
 73
     0
 90
        0
 40
-0.6
 41
-30.0
 62
     5
 63
     7
421
 16777215
 74
     1
 91
        4
 64
     7
 65
   257
 75
     1
175
     1
 42
1.0
 92
        0
 66
   257
 43
1.0
 76
     1
 77
     6
 78
     2
 67
     7
 79
     5
170
     0
171
     0
290
     0
174
     0
 93
        1
 44
0.0
173
     0
291
     0
 45
0.0
  0
VISUALSTYLE
  5
31
102
{ACAD_REACTORS
330
2A
102
}
102
{ACAD_XDICTIONARY
360
4F
102
}
330
2A
100
AcDbVisualStyle
  2
3D Hidden
 70
     6
 71
     1
 72
     2
 73
     2
 90
        0
 40
-0.6
 41
-30.0
 62
     5
 63
     7
421
 16777215
 74
     2
 91
        2
 64
     7
 65
   257
 75
     2
175
     1
 42
40.0
 92
        0
 66
   257
 43
1.0
 76
     1
 77
     6
 78
     2
 67
     7
 79
     3
170
     0
171
     0
290
     0
174
     0
 93
        1
 44
0.0
173
     0
291
     0
 45
0.0
  0
VISUALSTYLE
  5
30
102
{ACAD_REACTORS
330
2A
102
}
102
{ACAD_XDICTIONARY
360
4D
102
}
330
2A
100
AcDbVisualStyle
  2
3dWireframe
 70
     5
 71
     0
 72
     2
 73
     0
 90
        0
 40
-0.6
 41
-30.0
 62
     5
 63
     7
421
 16777215
 74
     1
 91
        4
 64
     7
 65
   257
 75
     1
175
     1
 42
1.0
 92
        0
 66
   257
 43
1.0
 76
     1
 77
     6
 78
     2
 67
     7
 79
     5
170
     0
171
     0
290
     0
174
     0
 93
        1
 44
0.0
173
     0
291
     0
 45
0.0
  0
VISUALSTYLE
  5
32
102
{ACAD_REACTORS
330
2A
102
}
102
{ACAD_XDICTIONARY
360
51
102
}
330
2A
100
AcDbVisualStyle
  2
Basic
 70
     7
 71
     1
 72
     0
 73
     1
 90
        0
 40
-0.6
 41
-30.0
 62
     5
 63
     7
421
 16777215
 74
     0
 91
        4
 64
     7
 65
   257
 75
     1
175
     1
 42
1.0
 92
        8
 66
     7
 43
1.0
 76
     1
 77
     6
 78
     2
 67
     7
 79
     5
170
     0
171
     0
290
     0
174
     0
 93
        1
 44
0.0
173
     0
291
     1
 45
0.0
  0
VISUALSTYLE
  5
36
102
{ACAD_REACTORS
330
2A
102
}
102
{ACAD_XDICTIONARY
360
59
102
}
330
2A
100
AcDbVisualStyle
  2
Brighten
 70
    12
 71
     2
 72
     2
 73
     0
 90
        0
 40
-0.6
 41
-30.0
 62
     5
 63
     7
421
 16777215
 74
     1
 91
        4
 64
     7
 65
   257
 75
     1
175
     1
 42
1.0
 92
        8
 66
     7
 43
1.0
 76
     1
 77
     6
 78
     2
 67
     7
 79
     5
170
     0
171
     0
290
     0
174
     0
 93
        1
 44
50.0
173
     0
291
     1
 45
0.0
  0
VISUALSTYLE
  5
3A
102
{ACAD_REACTORS
330
2A
102
}
102
{ACAD_XDICTIONARY
360
61
102
}
330
2A
100
AcDbVisualStyle
  2
ColorChange
 70
    16
 71
     2
 72
     2
 73
     3
 90
        0
 40
-0.6
 41
-30.0
 62
     5
 63
     8
421
  8421504
 74
     1
 91
        4
 64
     7
 65
   257
 75
     1
175
     1
 42
1.0
 92
        8
 66
     8
424
  8421504
 43
1.0
 76
     1
 77
     6
 78
     2
 67
     7
 79
     5
170
     0
171
     0
290
     0
174
     0
 93
        1
 44
0.0
173
     0
291
     1
 45
0.0
  0
VISUALSTYLE
  5
34
102
{ACAD_REACTORS
330
2A
102
}
102
{ACAD_XDICTIONARY
360
55
102
}
330
2A
100
AcDbVisualStyle
  2
Conceptual
 70
     9
 71
     3
 72
     2
 73
     0
 90
        0
 40
-0.6
 41
-30.0
 62
     5
 63
     7
421
 16777215
 74
     2
 91
        2
 64
     7
 65
   257
 75
     1
175
     1
 42
40.0
 92
        8
 66
     7
 43
1.0
 76
     1
 77
     6
 78
     2
 67
     7
 79
     3
170
     0
171
     0
290
     0
174
     0
 93
        1
 44
0.0
173
     0
291
     0
 45
0.0
  0
VISUALSTYLE
  5
35
102
{ACAD_REACTORS
330
2A
102
}
102
{ACAD_XDICTIONARY
360
57
102
}
330
2A
100
AcDbVisualStyle
  2
Dim
 70
    11
 71
     2
 72
     2
 73
     0
 90
        0
 40
-0.6
 41
-30.0
 62
     5
 63
     7
421
 16777215
 74
     1
 91
        4
 64
     7
 65
   257
 75
     1
175
     1
 42
1.0
 92
        8
 66
     7
 43
1.0
 76
     1
 77
     6
 78
     2
 67
     7
 79
     5
170
     0
171
     0
290
     0
174
     0
 93
        1
 44
-50.0
173
     0
291
     1
 45
0.0
  0
VISUALSTYLE
  5
39
102
{ACAD_REACTORS
330
2A
102
}
102
{ACAD_XDICTIONARY
360
5F
102
}
330
2A
100
AcDbVisualStyle
  2
Facepattern
 70
    15
 71
     2
 72
     2
 73
     0
 90
        0
 40
-0.6
 41
-30.0
 62
     5
 63
     7
421
 16777215
 74
     1
 91
        4
 64
     7
 65
   257
 75
     1
175
     1
 42
1.0
 92
        8
 66
     7
 43
1.0
 76
     1
 77
     6
 78
     2
 67
     7
 79
     5
170
     0
171
     0
290
     0
174
     0
 93
        1
 44
0.0
173
     0
291
     1
 45
0.0
  0
VISUALSTYLE
  5
2B
102
{ACAD_REACTORS
330
2A
102
}
102
{ACAD_XDICTIONARY
360
43
102
}
330
2A
100
AcDbVisualStyle
  2
Flat
 70
     0
 71
     2
 72
     1
 73
     1
 90
        2
 40
-0.6
 41
30.0
 62
     5
 63
     7
421
 16777215
 74
     0
 91
        4
 64
     7
 65
   257
 75
     1
175
     1
 42
1.0
 92
        8
 66
     7
 43
1.0
 76
     1
 77
     6
 78
     2
 67
     7
 79
     5
170
     0
171
     0
290
     0
174
     0
 93
       13
 44
0.0
173
     0
291
     1
 45
0.0
  0
VISUALSTYLE
  5
2C
102
{ACAD_REACTORS
330
2A
102
}
102
{ACAD_XDICTIONARY
360
45
102
}
330
2A
100
AcDbVisualStyle
  2
FlatWithEdges
 70
     1
 71
     2
 72
     1
 73
     1
 90
        2
 40
-0.6
 41
30.0
 62
     5
 63
     7
421
 16777215
 74
     1
 91
        4
 64
     7
 65
   257
 75
     1
175
     1
 42
1.0
 92
        0
 66
   257
 43
1.0
 76
     1
 77
     6
 78
     2
 67
     7
 79
     5
170
     0
171
     0
290
     0
174
     0
 93
       13
 44
0.0
173
     0
291
     1
 45
0.0
  0
VISUALSTYLE
  5
2D
102
{ACAD_REACTORS
330
2A
102
}
102
{ACAD_XDICTIONARY
360
47
102
}
330
2A
100
AcDbVisualStyle
  2
Gouraud
 70
     2
 71
     2
 72
     2
 73
     1
 90
        2
 40
-0.6
 41
30.0
 62
     5
 63
     7
421
 16777215
 74
     0
 91
        4
 64
     7
 65
   257
 75
     1
175
     1
 42
1.0
 92
        0
 66
     7
 43
1.0
 76
     1
 77
     6
 78
     2
 67
     7
 79
     5
170
     0
171
     0
290
     0
174
     0
 93
       13
 44
0.0
173
     0
291
     1
 45
0.0
  0
VISUALSTYLE
  5
2E
102
{ACAD_REACTORS
330
2A
102
}
102
{ACAD_XDICTIONARY
360
49
102
}
330
2A
100
AcDbVisualStyle
  2
GouraudWithEdges
 70
     3
 71
     2
 72
     2
 73
     1
 90
        2
 40
-0.6
 41
30.0
 62
     5
 63
     7
421
 16777215
 74
     1
 91
        4
 64
     7
 65
   257
 75
     1
175
     1
 42
1.0
 92
        0
 66
   257
 43
1.0
 76
     1
 77
     6
 78
     2
 67
     7
 79
     5
170
     0
171
     0
290
     0
174
     0
 93
       13
 44
0.0
173
     0
291
     1
 45
0.0
  0
VISUALSTYLE
  5
38
102
{ACAD_REACTORS
330
2A
102
}
102
{ACAD_XDICTIONARY
360
5D
102
}
330
2A
100
AcDbVisualStyle
  2
Linepattern
 70
    14
 71
     2
 72
     2
 73
     0
 90
        0
 40
-0.6
 41
-30.0
 62
     5
 63
     7
421
 16777215
 74
     1
 91
        4
 64
     7
 65
   257
 75
     7
175
     7
 42
1.0
 92
        8
 66
     7
 43
1.0
 76
     1
 77
     6
 78
     2
 67
     7
 79
     5
170
     0
171
     0
290
     0
174
     0
 93
        1
 44
0.0
173
     0
291
     1
 45
0.0
  0
VISUALSTYLE
  5
33
102
{ACAD_REACTORS
330
2A
102
}
102
{ACAD_XDICTIONARY
360
53
102
}
330
2A
100
AcDbVisualStyle
  2
Realistic
 70
     8
 71
     2
 72
     2
 73
     0
 90
        0
 40
-0.6
 41
-30.0
 62
     5
 63
     7
421
 16777215
 74
     1
 91
        0
 64
     7
 65
   257
 75
     1
175
     1
 42
1.0
 92
        8
 66
     8
424
  7895160
 43
1.0
 76
     1
 77
     6
 78
     2
 67
     7
 79
     5
170
     0
171
     0
290
     0
174
     0
 93
       13
 44
0.0
173
     0
291
     0
 45
0.0
  0
VISUALSTYLE
  5
37
102
{ACAD_REACTORS
330
2A
102
}
102
{ACAD_XDICTIONARY
360
5B
102
}
330
2A
100
AcDbVisualStyle
  2
Thicken
 70
    13
 71
     2
 72
     2
 73
     0
 90
        0
 40
-0.6
 41
-30.0
 62
     5
 63
     7
421
 16777215
 74
     1
 91
        4
 64
     7
 65
   257
 75
     1
175
     1
 42
1.0
 92
       12
 66
     7
 43
1.0
 76
     1
 77
     6
 78
     2
 67
     7
 79
     5
170
     0
171
     0
290
     0
174
     0
 93
        1
 44
0.0
173
     0
291
     1
 45
0.0
  0
DICTIONARY
  5
4B
330
2F
100
AcDbDictionary
280
     1
281
     1
  3
ACAD_XREC_ROUNDTRIP
360
4C
  0
DICTIONARY
  5
4F
330
31
100
AcDbDictionary
280
     1
281
     1
  3
ACAD_XREC_ROUNDTRIP
360
50
  0
DICTIONARY
  5
4D
330
30
100
AcDbDictionary
280
     1
281
     1
  3
ACAD_XREC_ROUNDTRIP
360
4E
  0
DICTIONARY
  5
51
330
32
100
AcDbDictionary
280
     1
281
     1
  3
ACAD_XREC_ROUNDTRIP
360
52
  0
DICTIONARY
  5
59
330
36
100
AcDbDictionary
280
     1
281
     1
  3
ACAD_XREC_ROUNDTRIP
360
5A
  0
DICTIONARY
  5
61
330
3A
100
AcDbDictionary
280
     1
281
     1
  3
ACAD_XREC_ROUNDTRIP
360
62
  0
DICTIONARY
  5
55
330
34
100
AcDbDictionary
280
     1
281
     1
  3
ACAD_XREC_ROUNDTRIP
360
56
  0
DICTIONARY
  5
57
330
35
100
AcDbDictionary
280
     1
281
     1
  3
ACAD_XREC_ROUNDTRIP
360
58
  0
DICTIONARY
  5
5F
330
39
100
AcDbDictionary
280
     1
281
     1
  3
ACAD_XREC_ROUNDTRIP
360
60
  0
DICTIONARY
  5
43
330
2B
100
AcDbDictionary
280
     1
281
     1
  3
ACAD_XREC_ROUNDTRIP
360
44
  0
DICTIONARY
  5
45
330
2C
100
AcDbDictionary
280
     1
281
     1
  3
ACAD_XREC_ROUNDTRIP
360
46
  0
DICTIONARY
  5
47
330
2D
100
AcDbDictionary
280
     1
281
     1
  3
ACAD_XREC_ROUNDTRIP
360
48
  0
DICTIONARY
  5
49
330
2E
100
AcDbDictionary
280
     1
281
     1
  3
ACAD_XREC_ROUNDTRIP
360
4A
  0
DICTIONARY
  5
5D
330
38
100
AcDbDictionary
280
     1
281
     1
  3
ACAD_XREC_ROUNDTRIP
360
5E
  0
DICTIONARY
  5
53
330
33
100
AcDbDictionary
280
     1
281
     1
  3
ACAD_XREC_ROUNDTRIP
360
54
  0
DICTIONARY
  5
5B
330
37
100
AcDbDictionary
280
     1
281
     1
  3
ACAD_XREC_ROUNDTRIP
360
5C
  0
XRECORD
  5
4C
102
{ACAD_REACTORS
330
4B
102
}
330
4B
100
AcDbXrecord
280
     1
102
RTVSPropertyOp0
 70
     1
102
RTVSPropertyOp1
 70
     1
102
RTVSPropertyOp2
 70
     1
102
RTVSPropertyOp3
 70
     1
102
RTVSPropertyOp4
 70
     1
102
RTVSPropertyOp5
 70
     1
102
RTVSPropertyOp6
 70
     1
102
RTVSPropertyOp7
 70
     1
102
RTVSPropertyOp8
 70
     1
102
RTVSPropertyOp9
 70
     1
102
RTVSPropertyOp10
 70
     1
102
RTVSPropertyOp11
 70
     1
102
RTVSPropertyOp12
 70
     1
102
RTVSPropertyOp13
 70
     1
102
RTVSPropertyOp14
 70
     1
102
RTVSPropertyOp15
 70
     1
102
RTVSPropertyOp16
 70
     1
102
RTVSPropertyOp17
 70
     1
102
RTVSPropertyOp18
 70
     1
102
RTVSPropertyOp19
 70
     1
102
RTVSPropertyOp20
 70
     1
102
RTVSPropertyOp21
 70
     1
102
RTVSPropertyOp22
 70
     1
102
RTVSPropertyOp23
 70
     1
102
RTVSPropertyOp24
 70
     1
102
RTVSPropertyOp25
 70
     1
102
RTVSPropertyOp26
 70
     1
102
RTVSPropertyOp27
 70
     1
102
RTVSPropertyOp28
 70
     1
102
RTVSPropertyOp29
 70
     1
102
RTVSPropertyOp30
 70
     1
102
RTVSPropertyOp31
 70
     1
102
RTVSPropertyOp32
 70
     1
  0
XRECORD
  5
50
102
{ACAD_REACTORS
330
4F
102
}
330
4F
100
AcDbXrecord
280
     1
102
RTVSPropertyOp0
 70
     1
102
RTVSPropertyOp1
 70
     1
102
RTVSPropertyOp2
 70
     1
102
RTVSPropertyOp3
 70
     1
102
RTVSPropertyOp4
 70
     1
102
RTVSPropertyOp5
 70
     1
102
RTVSPropertyOp6
 70
     1
102
RTVSPropertyOp7
 70
     1
102
RTVSPropertyOp8
 70
     1
102
RTVSPropertyOp9
 70
     1
102
RTVSPropertyOp10
 70
     1
102
RTVSPropertyOp11
 70
     1
102
RTVSPropertyOp12
 70
     1
102
RTVSPropertyOp13
 70
     1
102
RTVSPropertyOp14
 70
     1
102
RTVSPropertyOp15
 70
     1
102
RTVSPropertyOp16
 70
     1
102
RTVSPropertyOp17
 70
     1
102
RTVSPropertyOp18
 70
     1
102
RTVSPropertyOp19
 70
     1
102
RTVSPropertyOp20
 70
     1
102
RTVSPropertyOp21
 70
     1
102
RTVSPropertyOp22
 70
     1
102
RTVSPropertyOp23
 70
     1
102
RTVSPropertyOp24
 70
     1
102
RTVSPropertyOp25
 70
     1
102
RTVSPropertyOp26
 70
     1
102
RTVSPropertyOp27
 70
     1
102
RTVSPropertyOp28
 70
     1
102
RTVSPropertyOp29
 70
     1
102
RTVSPropertyOp30
 70
     1
102
RTVSPropertyOp31
 70
     1
102
RTVSPropertyOp32
 70
     1
  0
XRECORD
  5
4E
102
{ACAD_REACTORS
330
4D
102
}
330
4D
100
AcDbXrecord
280
     1
102
RTVSPropertyOp0
 70
     1
102
RTVSPropertyOp1
 70
     1
102
RTVSPropertyOp2
 70
     1
102
RTVSPropertyOp3
 70
     1
102
RTVSPropertyOp4
 70
     1
102
RTVSPropertyOp5
 70
     1
102
RTVSPropertyOp6
 70
     1
102
RTVSPropertyOp7
 70
     1
102
RTVSPropertyOp8
 70
     1
102
RTVSPropertyOp9
 70
     1
102
RTVSPropertyOp10
 70
     1
102
RTVSPropertyOp11
 70
     1
102
RTVSPropertyOp12
 70
     1
102
RTVSPropertyOp13
 70
     1
102
RTVSPropertyOp14
 70
     1
102
RTVSPropertyOp15
 70
     1
102
RTVSPropertyOp16
 70
     1
102
RTVSPropertyOp17
 70
     1
102
RTVSPropertyOp18
 70
     1
102
RTVSPropertyOp19
 70
     1
102
RTVSPropertyOp20
 70
     1
102
RTVSPropertyOp21
 70
     1
102
RTVSPropertyOp22
 70
     1
102
RTVSPropertyOp23
 70
     1
102
RTVSPropertyOp24
 70
     1
102
RTVSPropertyOp25
 70
     1
102
RTVSPropertyOp26
 70
     1
102
RTVSPropertyOp27
 70
     1
102
RTVSPropertyOp28
 70
     1
102
RTVSPropertyOp29
 70
     1
102
RTVSPropertyOp30
 70
     1
102
RTVSPropertyOp31
 70
     1
102
RTVSPropertyOp32
 70
     1
  0
XRECORD
  5
52
102
{ACAD_REACTORS
330
51
102
}
330
51
100
AcDbXrecord
280
     1
102
RTVSPropertyOp0
 70
     1
102
RTVSPropertyOp1
 70
     1
102
RTVSPropertyOp2
 70
     1
102
RTVSPropertyOp3
 70
     1
102
RTVSPropertyOp4
 70
     1
102
RTVSPropertyOp5
 70
     1
102
RTVSPropertyOp6
 70
     1
102
RTVSPropertyOp7
 70
     1
102
RTVSPropertyOp8
 70
     1
102
RTVSPropertyOp9
 70
     1
102
RTVSPropertyOp10
 70
     1
102
RTVSPropertyOp11
 70
     1
102
RTVSPropertyOp12
 70
     1
102
RTVSPropertyOp13
 70
     1
102
RTVSPropertyOp14
 70
     1
102
RTVSPropertyOp15
 70
     1
102
RTVSPropertyOp16
 70
     1
102
RTVSPropertyOp17
 70
     1
102
RTVSPropertyOp18
 70
     1
102
RTVSPropertyOp19
 70
     1
102
RTVSPropertyOp20
 70
     1
102
RTVSPropertyOp21
 70
     1
102
RTVSPropertyOp22
 70
     1
102
RTVSPropertyOp23
 70
     1
102
RTVSPropertyOp24
 70
     1
102
RTVSPropertyOp25
 70
     1
102
RTVSPropertyOp26
 70
     1
102
RTVSPropertyOp27
 70
     1
102
RTVSPropertyOp28
 70
     1
102
RTVSPropertyOp29
 70
     1
102
RTVSPropertyOp30
 70
     1
102
RTVSPropertyOp31
 70
     1
102
RTVSPropertyOp32
 70
     1
  0
XRECORD
  5
5A
102
{ACAD_REACTORS
330
59
102
}
330
59
100
AcDbXrecord
280
     1
102
RTVSPropertyOp0
 70
     1
102
RTVSPropertyOp1
 70
     1
102
RTVSPropertyOp2
 70
     1
102
RTVSPropertyOp3
 70
     1
102
RTVSPropertyOp4
 70
     1
102
RTVSPropertyOp5
 70
     1
102
RTVSPropertyOp6
 70
     1
102
RTVSPropertyOp7
 70
     1
102
RTVSPropertyOp8
 70
     1
102
RTVSPropertyOp9
 70
     1
102
RTVSPropertyOp10
 70
     1
102
RTVSPropertyOp11
 70
     1
102
RTVSPropertyOp12
 70
     1
102
RTVSPropertyOp13
 70
     1
102
RTVSPropertyOp14
 70
     1
102
RTVSPropertyOp15
 70
     1
102
RTVSPropertyOp16
 70
     1
102
RTVSPropertyOp17
 70
     1
102
RTVSPropertyOp18
 70
     1
102
RTVSPropertyOp19
 70
     1
102
RTVSPropertyOp20
 70
     1
102
RTVSPropertyOp21
 70
     1
102
RTVSPropertyOp22
 70
     1
102
RTVSPropertyOp23
 70
     1
102
RTVSPropertyOp24
 70
     1
102
RTVSPropertyOp25
 70
     1
102
RTVSPropertyOp26
 70
     1
102
RTVSPropertyOp27
 70
     1
102
RTVSPropertyOp28
 70
     1
102
RTVSPropertyOp29
 70
     1
102
RTVSPropertyOp30
 70
     1
102
RTVSPropertyOp31
 70
     1
102
RTVSPropertyOp32
 70
     1
  0
XRECORD
  5
62
102
{ACAD_REACTORS
330
61
102
}
330
61
100
AcDbXrecord
280
     1
102
RTVSPropertyOp0
 70
     1
102
RTVSPropertyOp1
 70
     1
102
RTVSPropertyOp2
 70
     1
102
RTVSPropertyOp3
 70
     1
102
RTVSPropertyOp4
 70
     1
102
RTVSPropertyOp5
 70
     1
102
RTVSPropertyOp6
 70
     1
102
RTVSPropertyOp7
 70
     1
102
RTVSPropertyOp8
 70
     1
102
RTVSPropertyOp9
 70
     1
102
RTVSPropertyOp10
 70
     1
102
RTVSPropertyOp11
 70
     1
102
RTVSPropertyOp12
 70
     1
102
RTVSPropertyOp13
 70
     1
102
RTVSPropertyOp14
 70
     1
102
RTVSPropertyOp15
 70
     1
102
RTVSPropertyOp16
 70
     1
102
RTVSPropertyOp17
 70
     1
102
RTVSPropertyOp18
 70
     1
102
RTVSPropertyOp19
 70
     1
102
RTVSPropertyOp20
 70
     1
102
RTVSPropertyOp21
 70
     1
102
RTVSPropertyOp22
 70
     1
102
RTVSPropertyOp23
 70
     1
102
RTVSPropertyOp24
 70
     1
102
RTVSPropertyOp25
 70
     1
102
RTVSPropertyOp26
 70
     1
102
RTVSPropertyOp27
 70
     1
102
RTVSPropertyOp28
 70
     1
102
RTVSPropertyOp29
 70
     1
102
RTVSPropertyOp30
 70
     1
102
RTVSPropertyOp31
 70
     1
102
RTVSPropertyOp32
 70
     1
  0
XRECORD
  5
56
102
{ACAD_REACTORS
330
55
102
}
330
55
100
AcDbXrecord
280
     1
102
RTVSPropertyOp0
 70
     1
102
RTVSPropertyOp1
 70
     1
102
RTVSPropertyOp2
 70
     1
102
RTVSPropertyOp3
 70
     1
102
RTVSPropertyOp4
 70
     1
102
RTVSPropertyOp5
 70
     1
102
RTVSPropertyOp6
 70
     1
102
RTVSPropertyOp7
 70
     1
102
RTVSPropertyOp8
 70
     1
102
RTVSPropertyOp9
 70
     1
102
RTVSPropertyOp10
 70
     1
102
RTVSPropertyOp11
 70
     1
102
RTVSPropertyOp12
 70
     1
102
RTVSPropertyOp13
 70
     1
102
RTVSPropertyOp14
 70
     1
102
RTVSPropertyOp15
 70
     1
102
RTVSPropertyOp16
 70
     1
102
RTVSPropertyOp17
 70
     1
102
RTVSPropertyOp18
 70
     1
102
RTVSPropertyOp19
 70
     1
102
RTVSPropertyOp20
 70
     1
102
RTVSPropertyOp21
 70
     1
102
RTVSPropertyOp22
 70
     1
102
RTVSPropertyOp23
 70
     1
102
RTVSPropertyOp24
 70
     1
102
RTVSPropertyOp25
 70
     1
102
RTVSPropertyOp26
 70
     1
102
RTVSPropertyOp27
 70
     1
102
RTVSPropertyOp28
 70
     1
102
RTVSPropertyOp29
 70
     1
102
RTVSPropertyOp30
 70
     1
102
RTVSPropertyOp31
 70
     1
102
RTVSPropertyOp32
 70
     1
  0
XRECORD
  5
58
102
{ACAD_REACTORS
330
57
102
}
330
57
100
AcDbXrecord
280
     1
102
RTVSPropertyOp0
 70
     1
102
RTVSPropertyOp1
 70
     1
102
RTVSPropertyOp2
 70
     1
102
RTVSPropertyOp3
 70
     1
102
RTVSPropertyOp4
 70
     1
102
RTVSPropertyOp5
 70
     1
102
RTVSPropertyOp6
 70
     1
102
RTVSPropertyOp7
 70
     1
102
RTVSPropertyOp8
 70
     1
102
RTVSPropertyOp9
 70
     1
102
RTVSPropertyOp10
 70
     1
102
RTVSPropertyOp11
 70
     1
102
RTVSPropertyOp12
 70
     1
102
RTVSPropertyOp13
 70
     1
102
RTVSPropertyOp14
 70
     1
102
RTVSPropertyOp15
 70
     1
102
RTVSPropertyOp16
 70
     1
102
RTVSPropertyOp17
 70
     1
102
RTVSPropertyOp18
 70
     1
102
RTVSPropertyOp19
 70
     1
102
RTVSPropertyOp20
 70
     1
102
RTVSPropertyOp21
 70
     1
102
RTVSPropertyOp22
 70
     1
102
RTVSPropertyOp23
 70
     1
102
RTVSPropertyOp24
 70
     1
102
RTVSPropertyOp25
 70
     1
102
RTVSPropertyOp26
 70
     1
102
RTVSPropertyOp27
 70
     1
102
RTVSPropertyOp28
 70
     1
102
RTVSPropertyOp29
 70
     1
102
RTVSPropertyOp30
 70
     1
102
RTVSPropertyOp31
 70
     1
102
RTVSPropertyOp32
 70
     1
  0
XRECORD
  5
60
102
{ACAD_REACTORS
330
5F
102
}
330
5F
100
AcDbXrecord
280
     1
102
RTVSPropertyOp0
 70
     1
102
RTVSPropertyOp1
 70
     1
102
RTVSPropertyOp2
 70
     1
102
RTVSPropertyOp3
 70
     1
102
RTVSPropertyOp4
 70
     1
102
RTVSPropertyOp5
 70
     1
102
RTVSPropertyOp6
 70
     1
102
RTVSPropertyOp7
 70
     1
102
RTVSPropertyOp8
 70
     1
102
RTVSPropertyOp9
 70
     1
102
RTVSPropertyOp10
 70
     1
102
RTVSPropertyOp11
 70
     1
102
RTVSPropertyOp12
 70
     1
102
RTVSPropertyOp13
 70
     1
102
RTVSPropertyOp14
 70
     1
102
RTVSPropertyOp15
 70
     1
102
RTVSPropertyOp16
 70
     1
102
RTVSPropertyOp17
 70
     1
102
RTVSPropertyOp18
 70
     1
102
RTVSPropertyOp19
 70
     1
102
RTVSPropertyOp20
 70
     1
102
RTVSPropertyOp21
 70
     1
102
RTVSPropertyOp22
 70
     1
102
RTVSPropertyOp23
 70
     1
102
RTVSPropertyOp24
 70
     1
102
RTVSPropertyOp25
 70
     1
102
RTVSPropertyOp26
 70
     1
102
RTVSPropertyOp27
 70
     1
102
RTVSPropertyOp28
 70
     1
102
RTVSPropertyOp29
 70
     1
102
RTVSPropertyOp30
 70
     1
102
RTVSPropertyOp31
 70
     1
102
RTVSPropertyOp32
 70
     1
  0
XRECORD
  5
44
102
{ACAD_REACTORS
330
43
102
}
330
43
100
AcDbXrecord
280
     1
102
RTVSPropertyOp0
 70
     1
102
RTVSPropertyOp1
 70
     1
102
RTVSPropertyOp2
 70
     1
102
RTVSPropertyOp3
 70
     1
102
RTVSPropertyOp4
 70
     1
102
RTVSPropertyOp5
 70
     1
102
RTVSPropertyOp6
 70
     1
102
RTVSPropertyOp7
 70
     1
102
RTVSPropertyOp8
 70
     1
102
RTVSPropertyOp9
 70
     1
102
RTVSPropertyOp10
 70
     1
102
RTVSPropertyOp11
 70
     1
102
RTVSPropertyOp12
 70
     1
102
RTVSPropertyOp13
 70
     1
102
RTVSPropertyOp14
 70
     1
102
RTVSPropertyOp15
 70
     1
102
RTVSPropertyOp16
 70
     1
102
RTVSPropertyOp17
 70
     1
102
RTVSPropertyOp18
 70
     1
102
RTVSPropertyOp19
 70
     1
102
RTVSPropertyOp20
 70
     1
102
RTVSPropertyOp21
 70
     1
102
RTVSPropertyOp22
 70
     1
102
RTVSPropertyOp23
 70
     1
102
RTVSPropertyOp24
 70
     1
102
RTVSPropertyOp25
 70
     1
102
RTVSPropertyOp26
 70
     1
102
RTVSPropertyOp27
 70
     1
102
RTVSPropertyOp28
 70
     1
102
RTVSPropertyOp29
 70
     1
102
RTVSPropertyOp30
 70
     1
102
RTVSPropertyOp31
 70
     1
102
RTVSPropertyOp32
 70
     1
  0
XRECORD
  5
46
102
{ACAD_REACTORS
330
45
102
}
330
45
100
AcDbXrecord
280
     1
102
RTVSPropertyOp0
 70
     1
102
RTVSPropertyOp1
 70
     1
102
RTVSPropertyOp2
 70
     1
102
RTVSPropertyOp3
 70
     1
102
RTVSPropertyOp4
 70
     1
102
RTVSPropertyOp5
 70
     1
102
RTVSPropertyOp6
 70
     1
102
RTVSPropertyOp7
 70
     1
102
RTVSPropertyOp8
 70
     1
102
RTVSPropertyOp9
 70
     1
102
RTVSPropertyOp10
 70
     1
102
RTVSPropertyOp11
 70
     1
102
RTVSPropertyOp12
 70
     1
102
RTVSPropertyOp13
 70
     1
102
RTVSPropertyOp14
 70
     1
102
RTVSPropertyOp15
 70
     1
102
RTVSPropertyOp16
 70
     1
102
RTVSPropertyOp17
 70
     1
102
RTVSPropertyOp18
 70
     1
102
RTVSPropertyOp19
 70
     1
102
RTVSPropertyOp20
 70
     1
102
RTVSPropertyOp21
 70
     1
102
RTVSPropertyOp22
 70
     1
102
RTVSPropertyOp23
 70
     1
102
RTVSPropertyOp24
 70
     1
102
RTVSPropertyOp25
 70
     1
102
RTVSPropertyOp26
 70
     1
102
RTVSPropertyOp27
 70
     1
102
RTVSPropertyOp28
 70
     1
102
RTVSPropertyOp29
 70
     1
102
RTVSPropertyOp30
 70
     1
102
RTVSPropertyOp31
 70
     1
102
RTVSPropertyOp32
 70
     1
  0
XRECORD
  5
48
102
{ACAD_REACTORS
330
47
102
}
330
47
100
AcDbXrecord
280
     1
102
RTVSPropertyOp0
 70
     1
102
RTVSPropertyOp1
 70
     1
102
RTVSPropertyOp2
 70
     1
102
RTVSPropertyOp3
 70
     1
102
RTVSPropertyOp4
 70
     1
102
RTVSPropertyOp5
 70
     1
102
RTVSPropertyOp6
 70
     1
102
RTVSPropertyOp7
 70
     1
102
RTVSPropertyOp8
 70
     1
102
RTVSPropertyOp9
 70
     1
102
RTVSPropertyOp10
 70
     1
102
RTVSPropertyOp11
 70
     1
102
RTVSPropertyOp12
 70
     1
102
RTVSPropertyOp13
 70
     1
102
RTVSPropertyOp14
 70
     1
102
RTVSPropertyOp15
 70
     1
102
RTVSPropertyOp16
 70
     1
102
RTVSPropertyOp17
 70
     1
102
RTVSPropertyOp18
 70
     1
102
RTVSPropertyOp19
 70
     1
102
RTVSPropertyOp20
 70
     1
102
RTVSPropertyOp21
 70
     1
102
RTVSPropertyOp22
 70
     1
102
RTVSPropertyOp23
 70
     1
102
RTVSPropertyOp24
 70
     1
102
RTVSPropertyOp25
 70
     1
102
RTVSPropertyOp26
 70
     1
102
RTVSPropertyOp27
 70
     1
102
RTVSPropertyOp28
 70
     1
102
RTVSPropertyOp29
 70
     1
102
RTVSPropertyOp30
 70
     1
102
RTVSPropertyOp31
 70
     1
102
RTVSPropertyOp32
 70
     1
  0
XRECORD
  5
4A
102
{ACAD_REACTORS
330
49
102
}
330
49
100
AcDbXrecord
280
     1
102
RTVSPropertyOp0
 70
     1
102
RTVSPropertyOp1
 70
     1
102
RTVSPropertyOp2
 70
     1
102
RTVSPropertyOp3
 70
     1
102
RTVSPropertyOp4
 70
     1
102
RTVSPropertyOp5
 70
     1
102
RTVSPropertyOp6
 70
     1
102
RTVSPropertyOp7
 70
     1
102
RTVSPropertyOp8
 70
     1
102
RTVSPropertyOp9
 70
     1
102
RTVSPropertyOp10
 70
     1
102
RTVSPropertyOp11
 70
     1
102
RTVSPropertyOp12
 70
     1
102
RTVSPropertyOp13
 70
     1
102
RTVSPropertyOp14
 70
     1
102
RTVSPropertyOp15
 70
     1
102
RTVSPropertyOp16
 70
     1
102
RTVSPropertyOp17
 70
     1
102
RTVSPropertyOp18
 70
     1
102
RTVSPropertyOp19
 70
     1
102
RTVSPropertyOp20
 70
     1
102
RTVSPropertyOp21
 70
     1
102
RTVSPropertyOp22
 70
     1
102
RTVSPropertyOp23
 70
     1
102
RTVSPropertyOp24
 70
     1
102
RTVSPropertyOp25
 70
     1
102
RTVSPropertyOp26
 70
     1
102
RTVSPropertyOp27
 70
     1
102
RTVSPropertyOp28
 70
     1
102
RTVSPropertyOp29
 70
     1
102
RTVSPropertyOp30
 70
     1
102
RTVSPropertyOp31
 70
     1
102
RTVSPropertyOp32
 70
     1
  0
XRECORD
  5
5E
102
{ACAD_REACTORS
330
5D
102
}
330
5D
100
AcDbXrecord
280
     1
102
RTVSPropertyOp0
 70
     1
102
RTVSPropertyOp1
 70
     1
102
RTVSPropertyOp2
 70
     1
102
RTVSPropertyOp3
 70
     1
102
RTVSPropertyOp4
 70
     1
102
RTVSPropertyOp5
 70
     1
102
RTVSPropertyOp6
 70
     1
102
RTVSPropertyOp7
 70
     1
102
RTVSPropertyOp8
 70
     1
102
RTVSPropertyOp9
 70
     1
102
RTVSPropertyOp10
 70
     1
102
RTVSPropertyOp11
 70
     1
102
RTVSPropertyOp12
 70
     1
102
RTVSPropertyOp13
 70
     1
102
RTVSPropertyOp14
 70
     1
102
RTVSPropertyOp15
 70
     1
102
RTVSPropertyOp16
 70
     1
102
RTVSPropertyOp17
 70
     1
102
RTVSPropertyOp18
 70
     1
102
RTVSPropertyOp19
 70
     1
102
RTVSPropertyOp20
 70
     1
102
RTVSPropertyOp21
 70
     1
102
RTVSPropertyOp22
 70
     1
102
RTVSPropertyOp23
 70
     1
102
RTVSPropertyOp24
 70
     1
102
RTVSPropertyOp25
 70
     1
102
RTVSPropertyOp26
 70
     1
102
RTVSPropertyOp27
 70
     1
102
RTVSPropertyOp28
 70
     1
102
RTVSPropertyOp29
 70
     1
102
RTVSPropertyOp30
 70
     1
102
RTVSPropertyOp31
 70
     1
102
RTVSPropertyOp32
 70
     1
  0
XRECORD
  5
54
102
{ACAD_REACTORS
330
53
102
}
330
53
100
AcDbXrecord
280
     1
102
RTVSPropertyOp0
 70
     1
102
RTVSPropertyOp1
 70
     1
102
RTVSPropertyOp2
 70
     1
102
RTVSPropertyOp3
 70
     1
102
RTVSPropertyOp4
 70
     1
102
RTVSPropertyOp5
 70
     1
102
RTVSPropertyOp6
 70
     1
102
RTVSPropertyOp7
 70
     1
102
RTVSPropertyOp8
 70
     1
102
RTVSPropertyOp9
 70
     1
102
RTVSPropertyOp10
 70
     1
102
RTVSPropertyOp11
 70
     1
102
RTVSPropertyOp12
 70
     1
102
RTVSPropertyOp13
 70
     1
102
RTVSPropertyOp14
 70
     1
102
RTVSPropertyOp15
 70
     1
102
RTVSPropertyOp16
 70
     1
102
RTVSPropertyOp17
 70
     1
102
RTVSPropertyOp18
 70
     1
102
RTVSPropertyOp19
 70
     1
102
RTVSPropertyOp20
 70
     1
102
RTVSPropertyOp21
 70
     1
102
RTVSPropertyOp22
 70
     1
102
RTVSPropertyOp23
 70
     1
102
RTVSPropertyOp24
 70
     1
102
RTVSPropertyOp25
 70
     1
102
RTVSPropertyOp26
 70
     1
102
RTVSPropertyOp27
 70
     1
102
RTVSPropertyOp28
 70
     1
102
RTVSPropertyOp29
 70
     1
102
RTVSPropertyOp30
 70
     1
102
RTVSPropertyOp31
 70
     1
102
RTVSPropertyOp32
 70
     1
  0
XRECORD
  5
5C
102
{ACAD_REACTORS
330
5B
102
}
330
5B
100
AcDbXrecord
280
     1
102
RTVSPropertyOp0
 70
     1
102
RTVSPropertyOp1
 70
     1
102
RTVSPropertyOp2
 70
     1
102
RTVSPropertyOp3
 70
     1
102
RTVSPropertyOp4
 70
     1
102
RTVSPropertyOp5
 70
     1
102
RTVSPropertyOp6
 70
     1
102
RTVSPropertyOp7
 70
     1
102
RTVSPropertyOp8
 70
     1
102
RTVSPropertyOp9
 70
     1
102
RTVSPropertyOp10
 70
     1
102
RTVSPropertyOp11
 70
     1
102
RTVSPropertyOp12
 70
     1
102
RTVSPropertyOp13
 70
     1
102
RTVSPropertyOp14
 70
     1
102
RTVSPropertyOp15
 70
     1
102
RTVSPropertyOp16
 70
     1
102
RTVSPropertyOp17
 70
     1
102
RTVSPropertyOp18
 70
     1
102
RTVSPropertyOp19
 70
     1
102
RTVSPropertyOp20
 70
     1
102
RTVSPropertyOp21
 70
     1
102
RTVSPropertyOp22
 70
     1
102
RTVSPropertyOp23
 70
     1
102
RTVSPropertyOp24
 70
     1
102
RTVSPropertyOp25
 70
     1
102
RTVSPropertyOp26
 70
     1
102
RTVSPropertyOp27
 70
     1
102
RTVSPropertyOp28
 70
     1
102
RTVSPropertyOp29
 70
     1
102
RTVSPropertyOp30
 70
     1
102
RTVSPropertyOp31
 70
     1
102
RTVSPropertyOp32
 70
     1
  0
ENDSEC
  0
EOF
