  0
SECTION
  2
HEADER
  9
$ACADVER
  1
AC1021
  9
$ACADMAINTVER
 70
    25
  9
$DWGCODEPAGE
  3
ANSI_1252
  9
$INSBASE
 10
0.0
 20
0.0
 30
0.0
  9
$EXTMIN
 10
1.000000000000000E+20
 20
1.000000000000000E+20
 30
1.000000000000000E+20
  9
$EXTMAX
 10
-1.000000000000000E+20
 20
-1.000000000000000E+20
 30
-1.000000000000000E+20
  9
$LIMMIN
 10
0.0
 20
0.0
  9
$LIMMAX
 10
12.0
 20
9.0
  9
$ORTHOMODE
 70
     0
  9
$REGENMODE
 70
     1
  9
$FILLMODE
 70
     1
  9
$QTEXTMODE
 70
     0
  9
$MIRRTEXT
 70
     1
  9
$LTSCALE
 40
1.0
  9
$ATTMODE
 70
     1
  9
$TEXTSIZE
 40
0.2
  9
$TRACEWID
 40
0.05
  9
$TEXTSTYLE
  7
Standard
  9
$CLAYER
  8
0
  9
$CELTYPE
  6
ByLayer
  9
$CECOLOR
 62
   256
  9
$CELTSCALE
 40
1.0
  9
$DISPSILH
 70
     0
  9
$DIMSCALE
 40
1.0
  9
$DIMASZ
 40
0.18
  9
$DIMEXO
 40
0.0625
  9
$DIMDLI
 40
0.38
  9
$DIMRND
 40
0.0
  9
$DIMDLE
 40
0.0
  9
$DIMEXE
 40
0.18
  9
$DIMTP
 40
0.0
  9
$DIMTM
 40
0.0
  9
$DIMTXT
 40
0.18
  9
$DIMCEN
 40
0.09
  9
$DIMTSZ
 40
0.0
  9
$DIMTOL
 70
     0
  9
$DIMLIM
 70
     0
  9
$DIMTIH
 70
     1
  9
$DIMTOH
 70
     1
  9
$DIMSE1
 70
     0
  9
$DIMSE2
 70
     0
  9
$DIMTAD
 70
     0
  9
$DIMZIN
 70
     0
  9
$DIMBLK
  1

  9
$DIMASO
 70
     1
  9
$DIMSHO
 70
     1
  9
$DIMPOST
  1

  9
$DIMAPOST
  1

  9
$DIMALT
 70
     0
  9
$DIMALTD
 70
     2
  9
$DIMALTF
 40
25.4
  9
$DIMLFAC
 40
1.0
  9
$DIMTOFL
 70
     0
  9
$DIMTVP
 40
0.0
  9
$DIMTIX
 70
     0
  9
$DIMSOXD
 70
     0
  9
$DIMSAH
 70
     0
  9
$DIMBLK1
  1

  9
$DIMBLK2
  1

  9
$DIMSTYLE
  2
Standard
  9
$DIMCLRD
 70
     0
  9
$DIMCLRE
 70
     0
  9
$DIMCLRT
 70
     0
  9
$DIMTFAC
 40
1.0
  9
$DIMGAP
 40
0.09
  9
$DIMJUST
 70
     0
  9
$DIMSD1
 70
     0
  9
$DIMSD2
 70
     0
  9
$DIMTOLJ
 70
     1
  9
$DIMTZIN
 70
     0
  9
$DIMALTZ
 70
     0
  9
$DIMALTTZ
 70
     0
  9
$DIMUPT
 70
     0
  9
$DIMDEC
 70
     4
  9
$DIMTDEC
 70
     4
  9
$DIMALTU
 70
     2
  9
$DIMALTTD
 70
     2
  9
$DIMTXSTY
  7
Standard
  9
$DIMAUNIT
 70
     0
  9
$DIMADEC
 70
     0
  9
$DIMALTRND
 40
0.0
  9
$DIMAZIN
 70
     0
  9
$DIMDSEP
 70
    46
  9
$DIMATFIT
 70
     3
  9
$DIMFRAC
 70
     0
  9
$DIMLDRBLK
  1

  9
$DIMLUNIT
 70
     2
  9
$DIMLWD
 70
    -2
  9
$DIMLWE
 70
    -2
  9
$DIMTMOVE
 70
     0
  9
$DIMFXL
 40
1.0
  9
$DIMFXLON
 70
     0
  9
$DIMJOGANG
 40
0.7853981633974483
  9
$DIMTFILL
 70
     0
  9
$DIMTFILLCLR
 70
     0
  9
$DIMARCSYM
 70
     0
  9
$DIMLTYPE
  6

  9
$DIMLTEX1
  6

  9
$DIMLTEX2
  6

  9
$LUNITS
 70
     2
  9
$LUPREC
 70
     4
  9
$SKETCHINC
 40
0.1
  9
$FILLETRAD
 40
0.5
  9
$AUNITS
 70
     0
  9
$AUPREC
 70
     0
  9
$MENU
  1
.
  9
$ELEVATION
 40
0.0
  9
$PELEVATION
 40
0.0
  9
$THICKNESS
 40
0.0
  9
$LIMCHECK
 70
     0
  9
$CHAMFERA
 40
0.5
  9
$CHAMFERB
 40
0.5
  9
$CHAMFERC
 40
1.0
  9
$CHAMFERD
 40
0.0
  9
$SKPOLY
 70
     0
  9
$TDCREATE
 40
2458551.626272315
  9
$TDUCREATE
 40
2458551.334605648
  9
$TDUPDATE
 40
2458551.626272315
  9
$TDUUPDATE
 40
2458551.334605648
  9
$TDINDWG
 40
0.0000000116
  9
$TDUSRTIMER
 40
0.0000000116
  9
$USRTIMER
 70
     1
  9
$ANGBASE
 50
0.0
  9
$ANGDIR
 70
     0
  9
$PDMODE
 70
     0
  9
$PDSIZE
 40
0.0
  9
$PLINEWID
 40
0.0
  9
$SPLFRAME
 70
     0
  9
$SPLINETYPE
 70
     6
  9
$SPLINESEGS
 70
     8
  9
$HANDSEED
  5
66
  9
$SURFTAB1
 70
     6
  9
$SURFTAB2
 70
     6
  9
$SURFTYPE
 70
     6
  9
$SURFU
 70
     6
  9
$SURFV
 70
     6
  9
$UCSBASE
  2

  9
$UCSNAME
  2

  9
$UCSORG
 10
0.0
 20
0.0
 30
0.0
  9
$UCSXDIR
 10
1.0
 20
0.0
 30
0.0
  9
$UCSYDIR
 10
0.0
 20
1.0
 30
0.0
  9
$UCSORTHOREF
  2

  9
$UCSORTHOVIEW
 70
     0
  9
$UCSORGTOP
 10
0.0
 20
0.0
 30
0.0
  9
$UCSORGBOTTOM
 10
0.0
 20
0.0
 30
0.0
  9
$UCSORGLEFT
 10
0.0
 20
0.0
 30
0.0
  9
$UCSORGRIGHT
 10
0.0
 20
0.0
 30
0.0
  9
$UCSORGFRONT
 10
0.0
 20
0.0
 30
0.0
  9
$UCSORGBACK
 10
0.0
 20
0.0
 30
0.0
  9
$PUCSBASE
  2

  9
$PUCSNAME
  2

  9
$PUCSORG
 10
0.0
 20
0.0
 30
0.0
  9
$PUCSXDIR
 10
1.0
 20
0.0
 30
0.0
  9
$PUCSYDIR
 10
0.0
 20
1.0
 30
0.0
  9
$PUCSORTHOREF
  2

  9
$PUCSORTHOVIEW
 70
     0
  9
$PUCSORGTOP
 10
0.0
 20
0.0
 30
0.0
  9
$PUCSORGBOTTOM
 10
0.0
 20
0.0
 30
0.0
  9
$PUCSORGLEFT
 10
0.0
 20
0.0
 30
0.0
  9
$PUCSORGRIGHT
 10
0.0
 20
0.0
 30
0.0
  9
$PUCSORGFRONT
 10
0.0
 20
0.0
 30
0.0
  9
$PUCSORGBACK
 10
0.0
 20
0.0
 30
0.0
  9
$USERI1
 70
     0
  9
$USERI2
 70
     0
  9
$USERI3
 70
     0
  9
$USERI4
 70
     0
  9
$USERI5
 70
     0
  9
$USERR1
 40
0.0
  9
$USERR2
 40
0.0
  9
$USERR3
 40
0.0
  9
$USERR4
 40
0.0
  9
$USERR5
 40
0.0
  9
$WORLDVIEW
 70
     1
  9
$SHADEDGE
 70
     3
  9
$SHADEDIF
 70
    70
  9
$TILEMODE
 70
     1
  9
$MAXACTVP
 70
    64
  9
$PINSBASE
 10
0.0
 20
0.0
 30
0.0
  9
$PLIMCHECK
 70
     0
  9
$PEXTMIN
 10
1.000000000000000E+20
 20
1.000000000000000E+20
 30
1.000000000000000E+20
  9
$PEXTMAX
 10
-1.000000000000000E+20
 20
-1.000000000000000E+20
 30
-1.000000000000000E+20
  9
$PLIMMIN
 10
0.0
 20
0.0
  9
$PLIMMAX
 10
12.0
 20
9.0
  9
$UNITMODE
 70
     0
  9
$VISRETAIN
 70
     1
  9
$PLINEGEN
 70
     0
  9
$PSLTSCALE
 70
     1
  9
$TREEDEPTH
 70
  3020
  9
$CMLSTYLE
  2
Standard
  9
$CMLJUST
 70
     0
  9
$CMLSCALE
 40
1.0
  9
$PROXYGRAPHICS
 70
     1
  9
$MEASUREMENT
 70
     0
  9
$CELWEIGHT
370
    -1
  9
$ENDCAPS
280
     0
  9
$JOINSTYLE
280
     0
  9
$LWDISPLAY
290
     1
  9
$INSUNITS
 70
     1
  9
$HYPERLINKBASE
  1

  9
$STYLESHEET
  1

  9
$XEDIT
290
     1
  9
$CEPSNTYPE
380
     0
  9
$PSTYLEMODE
290
     1
  9
$FINGERPRINTGUID
  2
{C3DC7E2E-AFE2-401B-B563-A006417EF55D}
  9
$VERSIONGUID
  2
{FAEB1C32-E019-11D5-929B-00C0DF256EC4}
  9
$EXTNAMES
290
     1
  9
$PSVPSCALE
 40
0.0
  9
$OLESTARTUP
290
     0
  9
$SORTENTS
280
   127
  9
$INDEXCTL
280
     0
  9
$HIDETEXT
280
     1
  9
$XCLIPFRAME
290
     0
  9
$HALOGAP
280
     0
  9
$OBSCOLOR
 70
   257
  9
$OBSLTYPE
280
     0
  9
$INTERSECTIONDISPLAY
280
     0
  9
$INTERSECTIONCOLOR
 70
   257
  9
$DIMASSOC
280
     2
  9
$PROJECTNAME
  1

  9
$CAMERADISPLAY
290
     0
  9
$LENSLENGTH
 40
50.0
  9
$CAMERAHEIGHT
 40
0.0
  9
$STEPSPERSEC
 40
2.0
  9
$STEPSIZE
 40
6.0
  9
$3DDWFPREC
 40
2.0
  9
$PSOLWIDTH
 40
0.25
  9
$PSOLHEIGHT
 40
4.0
  9
$LOFTANG1
 40
1.570796326794897
  9
$LOFTANG2
 40
1.570796326794897
  9
$LOFTMAG1
 40
0.0
  9
$LOFTMAG2
 40
0.0
  9
$LOFTPARAM
 70
     7
  9
$LOFTNORMALS
280
     1
  9
$LATITUDE
 40
37.795
  9
$LONGITUDE
 40
-122.394
  9
$NORTHDIRECTION
 40
0.0
  9
$TIMEZONE
 70
 -8000
  9
$LIGHTGLYPHDISPLAY
280
     1
  9
$TILEMODELIGHTSYNCH
280
     1
  9
$CMATERIAL
347
3C
  9
$SOLIDHIST
280
     1
  9
$SHOWHIST
280
     1
  9
$DWFFRAME
280
     2
  9
$DGNFRAME
280
     2
  9
$REALWORLDSCALE
290
     1
  9
$INTERFERECOLOR
 62
   256
  9
$CSHADOW
280
     0
  9
$SHADOWPLANELOCATION
 40
0.0
  0
ENDSEC
  0
SECTION
  2
CLASSES
  0
CLASS
  1
ACDBDICTIONARYWDFLT
  2
AcDbDictionaryWithDefault
  3
ObjectDBX Classes
 90
        0
 91
        4
280
     0
281
     0
  0
CLASS
  1
VISUALSTYLE
  2
AcDbVisualStyle
  3
ObjectDBX Classes
 90
     4095
 91
        4
280
     0
281
     0
  0
CLASS
  1
MATERIAL
  2
AcDbMaterial
  3
ObjectDBX Classes
 90
     1153
 91
        4
280
     0
281
     0
  0
CLASS
  1
SUN
  2
AcDbSun
  3
SCENEOE
 90
     1024
 91
        4
280
     0
281
     0
  0
ENDSEC
  0
SECTION
  2
TABLES
  0
TABLE
  2
VPORT
  5
8
330
0
100
AcDbSymbolTable
 70
     1
  0
VPORT
  5
29
330
8
100
AcDbSymbolTableRecord
100
AcDbViewportTableRecord
  2
*Active
 70
     0
 10
0.0
 20
0.0
 11
1.0
 21
1.0
 12
0.0
 22
0.0
 13
0.0
 23
0.0
 14
0.5
 24
0.5
 15
0.5
 25
0.5
 16
0.0
 26
0.0
 36
1.0
 17
39.99961911841359
 27
-39.99962012888904
 37
0.0
 40
79.99924025777808
 41
0.9999999747378738
 42
50.0
 43
0.0
 44
0.0
 50
0.0
 51
0.0
 71
     0
 72
   100
 73
     1
 74
     3
 75
     0
 76
     0
 77
     0
 78
     0
281
     0
 65
     1
110
0.0
120
0.0
130
0.0
111
1.0
121
0.0
131
0.0
112
0.0
122
1.0
132
0.0
 79
     0
146
0.0
 60
     3
 61
     5
292
     1
282
     1
141
0.0
142
0.0
 63
   250
361
3F
  0
ENDTAB
  0
TABLE
  2
LTYPE
  5
5
330
0
100
AcDbSymbolTable
 70
     1
  0
LTYPE
  5
14
330
5
100
AcDbSymbolTableRecord
100
AcDbLinetypeTableRecord
  2
ByBlock
 70
     0
  3

 72
    65
 73
     0
 40
0.0
  0
LTYPE
  5
15
330
5
100
AcDbSymbolTableRecord
100
AcDbLinetypeTableRecord
  2
ByLayer
 70
     0
  3

 72
    65
 73
     0
 40
0.0
  0
LTYPE
  5
16
330
5
100
AcDbSymbolTableRecord
100
AcDbLinetypeTableRecord
  2
Continuous
 70
     0
  3
Solid line
 72
    65
 73
     0
 40
0.0
  0
ENDTAB
  0
TABLE
  2
LAYER
  5
2
330
0
100
AcDbSymbolTable
 70
     2
  0
LAYER
  5
10
330
2
100
AcDbSymbolTableRecord
100
AcDbLayerTableRecord
  2
0
 70
     0
 62
     7
  6
Continuous
370
    -3
390
F
347
3E
  0
LAYER
  5
40
330
2
100
AcDbSymbolTableRecord
100
AcDbLayerTableRecord
  2
Layer 1
 70
     0
 62
     7
  6
Continuous
370
    -3
390
F
347
3E
  0
ENDTAB
  0
TABLE
  2
STYLE
  5
3
330
0
100
AcDbSymbolTable
 70
     1
  0
STYLE
  5
11
330
3
100
AcDbSymbolTableRecord
100
AcDbTextStyleTableRecord
  2
Standard
 70
     0
 40
0.0
 41
1.0
 50
0.0
 71
     0
 42
0.2
  3
txt
  4

  0
ENDTAB
  0
TABLE
  2
VIEW
  5
6
330
0
100
AcDbSymbolTable
 70
     0
  0
ENDTAB
  0
TABLE
  2
UCS
  5
7
330
0
100
AcDbSymbolTable
 70
     0
  0
ENDTAB
  0
TABLE
  2
APPID
  5
9
330
0
100
AcDbSymbolTable
 70
     1
  0
APPID
  5
12
330
9
100
AcDbSymbolTableRecord
100
AcDbRegAppTableRecord
  2
ACAD
 70
     0
  0
ENDTAB
  0
TABLE
  2
DIMSTYLE
  5
A
330
0
100
AcDbSymbolTable
 70
     1
100
AcDbDimStyleTable
  0
DIMSTYLE
105
27
330
A
100
AcDbSymbolTableRecord
100
AcDbDimStyleTableRecord
  2
Standard
 70
     0
178
     0
340
11
  0
ENDTAB
  0
TABLE
  2
BLOCK_RECORD
  5
1
330
0
100
AcDbSymbolTable
 70
     1
  0
BLOCK_RECORD
  5
1F
330
1
100
AcDbSymbolTableRecord
100
AcDbBlockTableRecord
  2
*Model_Space
340
22
 70
     0
280
     1
281
     0
  0
BLOCK_RECORD
  5
1B
330
1
100
AcDbSymbolTableRecord
100
AcDbBlockTableRecord
  2
*Paper_Space
340
1E
 70
     0
280
     1
281
     0
  0
BLOCK_RECORD
  5
23
330
1
100
AcDbSymbolTableRecord
100
AcDbBlockTableRecord
  2
*Paper_Space0
340
26
 70
     0
280
     1
281
     0
  0
ENDTAB
  0
ENDSEC
  0
SECTION
  2
BLOCKS
  0
BLOCK
  5
20
330
1F
100
AcDbEntity
  8
0
100
AcDbBlockBegin
  2
*Model_Space
 70
     0
 10
0.0
 20
0.0
 30
0.0
  3
*Model_Space
  1

  0
ENDBLK
  5
21
330
1F
100
AcDbEntity
  8
0
100
AcDbBlockEnd
  0
BLOCK
  5
1C
330
1B
100
AcDbEntity
 67
     1
  8
0
100
AcDbBlockBegin
  2
*Paper_Space
 70
     0
 10
0.0
 20
0.0
 30
0.0
  3
*Paper_Space
  1

  0
ENDBLK
  5
1D
330
1B
100
AcDbEntity
 67
     1
  8
0
100
AcDbBlockEnd
  0
BLOCK
  5
24
330
23
100
AcDbEntity
  8
0
100
AcDbBlockBegin
  2
*Paper_Space0
 70
     0
 10
0.0
 20
0.0
 30
0.0
  3
*Paper_Space0
  1

  0
ENDBLK
  5
25
330
23
100
AcDbEntity
  8
0
100
AcDbBlockEnd
  0
ENDSEC
  0
SECTION
  2
ENTITIES
  0
SPLINE
  5
41
330
1F
100
AcDbEntity
  8
Layer 1
370
     0
100
AcDbSpline
210
0.0
220
0.0
230
1.0
 70
    11
 71
     3
 72
   428
 73
   424
 74
     0
 42
0.0000000001
 43
0.0000000001
 12
1.0
 22
0.0
 32
0.0
 13
1.0
 23
0.0
 33
0.0
 40
0.0
 40
0.0
 40
0.0
 40
0.0
 40
1.0
 40
1.0
 40
1.0
 40
2.0
 40
2.0
 40
2.0
 40
3.0
 40
3.0
 40
3.0
 40
4.0
 40
4.0
 40
4.0
 40
5.0
 40
5.0
 40
5.0
 40
6.0
 40
6.0
 40
6.0
 40
7.0
 40
7.0
 40
7.0
 40
8.0
 40
8.0
 40
8.0
 40
9.0
 40
9.0
 40
9.0
 40
10.0
 40
10.0
 40
10.0
 40
11.0
 40
11.0
 40
11.0
 40
12.0
 40
12.0
 40
12.0
 40
13.0
 40
13.0
 40
13.0
 40
14.0
 40
14.0
 40
14.0
 40
15.0
 40
15.0
 40
15.0
 40
16.0
 40
16.0
 40
16.0
 40
17.0
 40
17.0
 40
17.0
 40
18.0
 40
18.0
 40
18.0
 40
19.0
 40
19.0
 40
19.0
 40
20.0
 40
20.0
 40
20.0
 40
21.0
 40
21.0
 40
21.0
 40
22.0
 40
22.0
 40
22.0
 40
23.0
 40
23.0
 40
23.0
 40
24.0
 40
24.0
 40
24.0
 40
25.0
 40
25.0
 40
25.0
 40
26.0
 40
26.0
 40
26.0
 40
27.0
 40
27.0
 40
27.0
 40
28.0
 40
28.0
 40
28.0
 40
29.0
 40
29.0
 40
29.0
 40
30.0
 40
30.0
 40
30.0
 40
31.0
 40
31.0
 40
31.0
 40
32.0
 40
32.0
 40
32.0
 40
33.0
 40
33.0
 40
33.0
 40
34.0
 40
34.0
 40
34.0
 40
35.0
 40
35.0
 40
35.0
 40
36.0
 40
36.0
 40
36.0
 40
37.0
 40
37.0
 40
37.0
 40
38.0
 40
38.0
 40
38.0
 40
39.0
 40
39.0
 40
39.0
 40
40.0
 40
40.0
 40
40.0
 40
41.0
 40
41.0
 40
41.0
 40
42.0
 40
42.0
 40
42.0
 40
43.0
 40
43.0
 40
43.0
 40
44.0
 40
44.0
 40
44.0
 40
45.0
 40
45.0
 40
45.0
 40
46.0
 40
46.0
 40
46.0
 40
47.0
 40
47.0
 40
47.0
 40
48.0
 40
48.0
 40
48.0
 40
49.0
 40
49.0
 40
49.0
 40
50.0
 40
50.0
 40
50.0
 40
51.0
 40
51.0
 40
51.0
 40
52.0
 40
52.0
 40
52.0
 40
53.0
 40
53.0
 40
53.0
 40
54.0
 40
54.0
 40
54.0
 40
55.0
 40
55.0
 40
55.0
 40
56.0
 40
56.0
 40
56.0
 40
57.0
 40
57.0
 40
57.0
 40
58.0
 40
58.0
 40
58.0
 40
59.0
 40
59.0
 40
59.0
 40
60.0
 40
60.0
 40
60.0
 40
61.0
 40
61.0
 40
61.0
 40
62.0
 40
62.0
 40
62.0
 40
63.0
 40
63.0
 40
63.0
 40
64.0
 40
64.0
 40
64.0
 40
65.0
 40
65.0
 40
65.0
 40
66.0
 40
66.0
 40
66.0
 40
67.0
 40
67.0
 40
67.0
 40
68.0
 40
68.0
 40
68.0
 40
69.0
 40
69.0
 40
69.0
 40
70.0
 40
70.0
 40
70.0
 40
71.0
 40
71.0
 40
71.0
 40
72.0
 40
72.0
 40
72.0
 40
73.0
 40
73.0
 40
73.0
 40
74.0
 40
74.0
 40
74.0
 40
75.0
 40
75.0
 40
75.0
 40
76.0
 40
76.0
 40
76.0
 40
77.0
 40
77.0
 40
77.0
 40
78.0
 40
78.0
 40
78.0
 40
79.0
 40
79.0
 40
79.0
 40
80.0
 40
80.0
 40
80.0
 40
81.0
 40
81.0
 40
81.0
 40
82.0
 40
82.0
 40
82.0
 40
83.0
 40
83.0
 40
83.0
 40
84.0
 40
84.0
 40
84.0
 40
85.0
 40
85.0
 40
85.0
 40
86.0
 40
86.0
 40
86.0
 40
87.0
 40
87.0
 40
87.0
 40
88.0
 40
88.0
 40
88.0
 40
89.0
 40
89.0
 40
89.0
 40
90.0
 40
90.0
 40
90.0
 40
91.0
 40
91.0
 40
91.0
 40
92.0
 40
92.0
 40
92.0
 40
93.0
 40
93.0
 40
93.0
 40
94.0
 40
94.0
 40
94.0
 40
95.0
 40
95.0
 40
95.0
 40
96.0
 40
96.0
 40
96.0
 40
97.0
 40
97.0
 40
97.0
 40
98.0
 40
98.0
 40
98.0
 40
99.0
 40
99.0
 40
99.0
 40
100.0
 40
100.0
 40
100.0
 40
101.0
 40
101.0
 40
101.0
 40
102.0
 40
102.0
 40
102.0
 40
103.0
 40
103.0
 40
103.0
 40
104.0
 40
104.0
 40
104.0
 40
105.0
 40
105.0
 40
105.0
 40
106.0
 40
106.0
 40
106.0
 40
107.0
 40
107.0
 40
107.0
 40
108.0
 40
108.0
 40
108.0
 40
109.0
 40
109.0
 40
109.0
 40
110.0
 40
110.0
 40
110.0
 40
111.0
 40
111.0
 40
111.0
 40
112.0
 40
112.0
 40
112.0
 40
113.0
 40
113.0
 40
113.0
 40
114.0
 40
114.0
 40
114.0
 40
115.0
 40
115.0
 40
115.0
 40
116.0
 40
116.0
 40
116.0
 40
117.0
 40
117.0
 40
117.0
 40
118.0
 40
118.0
 40
118.0
 40
119.0
 40
119.0
 40
119.0
 40
120.0
 40
120.0
 40
120.0
 40
121.0
 40
121.0
 40
121.0
 40
122.0
 40
122.0
 40
122.0
 40
123.0
 40
123.0
 40
123.0
 40
124.0
 40
124.0
 40
124.0
 40
125.0
 40
125.0
 40
125.0
 40
126.0
 40
126.0
 40
126.0
 40
127.0
 40
127.0
 40
127.0
 40
128.0
 40
128.0
 40
128.0
 40
129.0
 40
129.0
 40
129.0
 40
130.0
 40
130.0
 40
130.0
 40
131.0
 40
131.0
 40
131.0
 40
132.0
 40
132.0
 40
132.0
 40
133.0
 40
133.0
 40
133.0
 40
134.0
 40
134.0
 40
134.0
 40
135.0
 40
135.0
 40
135.0
 40
136.0
 40
136.0
 40
136.0
 40
137.0
 40
137.0
 40
137.0
 40
138.0
 40
138.0
 40
138.0
 40
139.0
 40
139.0
 40
139.0
 40
140.0
 40
140.0
 40
140.0
 40
141.0
 40
141.0
 40
141.0
 40
141.0
 10
60.32602151651053
 20
-33.59933165826672
 30
0.0
 10
60.00531124691475
 20
-33.37228388054591
 30
0.0
 10
59.03309099394038
 20
-33.50217665829118
 30
0.0
 10
58.64104905949775
 20
-33.59933165826672
 30
0.0
 10
57.91238657808749
 20
-33.78175304711002
 30
0.0
 10
57.00564187899825
 20
-34.12952138035654
 30
0.0
 10
56.26219800907619
 20
-34.35932082474345
 30
0.0
 10
55.7991771875555
 20
-34.44716249138808
 30
0.0
 10
55.3382377548706
 20
-34.53500415803303
 30
0.0
 10
54.87521693334992
 20
-34.62288110245551
 30
0.0
 10
54.65575388339333
 20
-34.715026657988
 30
0.0
 10
54.50793999827549
 20
-35.01509943569067
 30
0.0
 10
54.31331387531083
 20
-35.08657221345045
 30
0.0
 10
53.83099473776802
 20
-35.26020943562947
 30
0.0
 10
53.08444642348072
 20
-35.09846082455857
 30
0.0
 10
52.59489671374795
 20
-35.01940332457853
 30
0.0
 10
51.60786109820945
 20
-34.86160582461805
 30
0.0
 10
50.52059998737004
 20
-34.92087249126978
 30
0.0
 10
49.4247298501812
 20
-34.92087249126978
 30
0.0
 10
49.4247298501812
 20
-34.92087249126978
 30
0.0
 10
47.97121488726346
 20
-34.92087249126978
 30
0.0
 10
47.97121488726346
 20
-34.92087249126978
 30
0.0
 10
47.26223740535098
 20
-35.03852388012915
 30
0.0
 10
46.58321075600773
 20
-35.23763165785723
 30
0.0
 10
46.12191854555405
 20
-35.61418665776306
 30
0.0
 10
45.8573352189708
 20
-35.83001610215376
 30
0.0
 10
45.60446411431097
 20
-36.10923971319483
 30
0.0
 10
45.22928609980406
 20
-36.20882887983655
 30
0.0
 10
44.85512885565033
 20
-36.21983554650059
 30
0.0
 10
44.48065525409283
 20
-36.23119499094207
 30
0.0
 10
44.10618165253534
 20
-36.2417077687173
 30
0.0
 10
43.70930666266047
 20
-36.2858049909285
 30
0.0
 10
43.30138972862284
 20
-36.30958221314475
 30
0.0
 10
42.89110918353442
 20
-36.32284665758608
 30
0.0
 10
42.81081696336062
 20
-36.16540193540303
 30
0.0
 10
42.72918418766547
 20
-36.00813360210919
 30
0.0
 10
42.64857446749978
 20
-35.85206471325935
 30
0.0
 10
43.00720834723915
 20
-35.73254360217796
 30
0.0
 10
43.17290806523402
 20
-35.44280721336165
 30
0.0
 10
43.46987639099106
 20
-35.33961971338728
 30
0.0
 10
43.41921750339458
 20
-35.14788499121307
 30
0.0
 10
43.31864165583689
 20
-34.9768583245891
 30
0.0
 10
43.1009061226265
 20
-34.78445332463721
 30
0.0
 10
43.1009061226265
 20
-34.78445332463721
 30
0.0
 10
43.22353167505361
 20
-34.3756897136283
 30
0.0
 10
43.22353167505361
 20
-34.3756897136283
 30
0.0
 10
43.11261943366655
 20
-34.08027360259093
 30
0.0
 10
42.87523418393943
 20
-34.02651026927106
 30
0.0
 10
42.65785252281863
 20
-33.97451082483967
 30
0.0
 10
42.57346808052701
 20
-33.72386221379117
 30
0.0
 10
42.64098974547105
 20
-33.5192158249534
 30
0.0
 10
42.60789919075971
 20
-33.27481138057012
 30
0.0
 10
42.22965086707629
 20
-33.27756304723621
 30
0.0
 10
41.85239032114546
 20
-33.28098499167967
 30
0.0
 10
41.47445949745394
 20
-33.28359554723471
 30
0.0
 10
41.47445949745394
 20
-33.28359554723471
 30
0.0
 10
40.09541592152517
 20
-33.22020138058369
 30
0.0
 10
40.09541592152517
 20
-33.22020138058369
 30
0.0
 10
39.37366788438293
 20
-33.45014193608195
 30
0.0
 10
38.65174443478162
 20
-33.67958860269109
 30
0.0
 10
37.9310194349616
 20
-33.91023471374456
 30
0.0
 10
37.09317221294884
 20
-34.08493026925655
 30
0.0
 10
36.25927518605994
 20
-34.26043721365726
 30
0.0
 10
35.42315659627999
 20
-34.43527388027996
 30
0.0
 10
35.13652554677127
 20
-34.52071665803658
 30
0.0
 10
34.89829471349753
 20
-34.7542908246447
 30
0.0
 10
34.60012693579439
 20
-34.8671091579499
 30
0.0
 10
34.35879165807712
 20
-34.92775165793484
 30
0.0
 10
34.11745638035954
 20
-34.99044026903002
 30
0.0
 10
33.87717943597524
 20
-35.05178832457049
 30
0.0
 10
33.87717943597524
 20
-35.05178832457049
 30
0.0
 10
33.32543499166862
 20
-35.25488249118617
 30
0.0
 10
33.32543499166862
 20
-35.25488249118617
 30
0.0
 10
32.67501860294222
 20
-34.93138526904502
 30
0.0
 10
31.76894415872457
 20
-34.92619943571275
 30
0.0
 10
30.89267943672135
 20
-34.8879583246115
 30
0.0
 10
30.88407165894564
 20
-34.47284471360418
 30
0.0
 10
30.67995443677451
 20
-34.54467026914171
 30
0.0
 10
30.59606388123997
 20
-34.32573638030748
 30
0.0
 10
30.52335638125803
 20
-34.13573026924392
 30
0.0
 10
30.52060471459194
 20
-33.39641388053992
 30
0.0
 10
30.49668638126465
 20
-33.2689552694605
 30
0.0
 10
30.44705054794376
 20
-32.99368276952951
 30
0.0
 10
30.59899193679462
 20
-32.5433972140863
 30
0.0
 10
30.66273888122309
 20
-32.31155165858883
 30
0.0
 10
30.70630693676796
 20
-31.71623915873766
 30
0.0
 10
30.7500513812014
 20
-31.12177332555273
 30
0.0
 10
30.79432499230148
 20
-30.52751915903484
 30
0.0
 10
30.9958669366954
 20
-29.58045193704921
 30
0.0
 10
31.18982415886905
 20
-28.42566915956012
 30
0.0
 10
31.48852110323885
 20
-27.45517749313632
 30
0.0
 10
31.79356804760706
 20
-26.4653888822727
 30
0.0
 10
32.1113855475278
 20
-25.45097638252626
 30
0.0
 10
32.3143033252546
 20
-24.31753666058724
 30
0.0
 10
32.3692661030188
 20
-23.48039499413001
 30
0.0
 10
32.42317054744971
 20
-22.64374721656125
 30
0.0
 10
32.47915638076903
 20
-21.80692305010393
 30
0.0
 10
32.54890054741848
 20
-21.40263971687144
 30
0.0
 10
32.54890054741848
 20
-20.74361555036965
 30
0.0
 10
32.41301054745224
 20
-20.38720416156989
 30
0.0
 10
32.20148499194972
 20
-19.83256693948647
 30
0.0
 10
31.00997804780297
 20
-19.50095582845807
 30
0.0
 10
30.46497165905038
 20
-19.26360693962842
 30
0.0
 10
28.98393999275403
 20
-18.61883499534524
 30
0.0
 10
27.32186277094728
 20
-18.23540082877434
 30
0.0
 10
25.74021888245378
 20
-17.64439221781103
 30
0.0
 10
25.01155638263605
 20
-17.37222416232357
 30
0.0
 10
24.43451777166926
 20
-16.85582805134172
 30
0.0
 10
23.42906582747598
 20
-16.88510860688983
 30
0.0
 10
23.47263388302086
 20
-16.11425388486043
 30
0.0
 10
23.51637832745429
 20
-15.34237610727558
 30
0.0
 10
23.55998166077669
 20
-14.57240332969027
 30
0.0
 10
23.61476804965201
 20
-14.14331971868641
 30
0.0
 10
23.67107138297125
 20
-13.71338944101599
 30
0.0
 10
23.72483471629112
 20
-13.28412944112357
 30
0.0
 10
23.56513221633079
 20
-12.17944110806634
 30
0.0
 10
22.90766027205076
 20
-11.48044721935199
 30
0.0
 10
22.70110888321345
 20
-10.5099555529282
 30
0.0
 10
22.55519999436109
 20
-9.82041610865613
 30
0.0
 10
23.03409582757473
 20
-8.560188053415375
 30
0.0
 10
23.06457582756716
 20
-7.93319610912777
 30
0.0
 10
23.06768027201101
 20
-7.870331109143384
 30
0.0
 10
23.03010943868679
 20
-7.604371942543312
 30
0.0
 10
22.83322416095849
 20
-7.833113053597251
 30
0.0
 10
22.63651527211875
 20
-8.06185416465119
 30
0.0
 10
22.31301804997727
 20
-9.08385138661789
 30
0.0
 10
22.23964027221797
 20
-9.715676386459993
 30
0.0
 10
22.21776805000125
 20
-9.727741386456996
 30
0.0
 10
22.19487277222908
 20
-9.738077775343355
 30
0.0
 10
22.17314166112341
 20
-9.749613608673714
 30
0.0
 10
22.16213499445936
 20
-9.50778444206765
 30
0.0
 10
22.15352721668398
 20
-9.137085553271442
 30
0.0
 10
22.14008638335376
 20
-9.02218583107783
 30
0.0
 10
22.12682193891276
 20
-8.907109719995338
 30
0.0
 10
22.04395443893334
 20
-8.930393053323101
 30
0.0
 10
21.97452777228413
 20
-9.02218583107783
 30
0.0
 10
21.90513638341277
 20
-9.113837497721518
 30
0.0
 10
21.82741943898745
 20
-9.337251664332479
 30
0.0
 10
21.84241249453942
 20
-9.617674719817883
 30
0.0
 10
21.84241249453942
 20
-9.617674719817883
 30
0.0
 10
21.80953360565866
 20
-9.617674719817883
 30
0.0
 10
21.80953360565866
 20
-9.617674719817883
 30
0.0
 10
21.50688555017878
 20
-9.373764164323088
 30
0.0
 10
21.42641693908769
 20
-8.715586664487851
 30
0.0
 10
21.3797444390996
 20
-8.22914138683147
 30
0.0
 10
21.37473499465623
 20
-8.125424720190779
 30
0.0
 10
21.3110233280056
 20
-8.112689442416412
 30
0.0
 10
21.21386832802973
 20
-8.196756386839834
 30
0.0
 10
21.10690610583447
 20
-8.286326664595114
 30
0.0
 10
21.09191305028249
 20
-8.293734997926501
 30
0.0
 10
21.0819294391739
 20
-8.49421860898746
 30
0.0
 10
21.0819294391739
 20
-8.49421860898746
 30
0.0
 10
21.01733582807887
 20
-8.49421860898746
 30
0.0
 10
21.01733582807887
 20
-8.49421860898746
 30
0.0
 10
20.9501316614291
 20
-8.350567497912385
 30
0.0
 10
20.88451499477895
 20
-8.208292220170195
 30
0.0
 10
20.81801638368439
 20
-8.064958609094722
 30
0.0
 10
20.35827638379923
 20
-8.11508833130442
 30
0.0
 10
20.53981582819844
 20
-8.587951664519554
 30
0.0
 10
20.6857247170508
 20
-8.857685553341161
 30
0.0
 10
21.14444166138052
 20
-9.697261386464568
 30
0.0
 10
21.71029721679471
 20
-10.11272777524966
 30
0.0
 10
21.71029721679471
 20
-11.33436194161075
 30
0.0
 10
21.71029721679471
 20
-11.33436194161075
 30
0.0
 10
21.64379860570015
 20
-11.36727610826935
 30
0.0
 10
21.64379860570015
 20
-11.36727610826935
 30
0.0
 10
21.36595082799196
 20
-11.24221638607826
 30
0.0
 10
21.22039471691703
 20
-11.09577833055926
 30
0.0
 10
20.85075416145411
 20
-11.03739360835161
 30
0.0
 10
20.74858971703518
 20
-11.02137749724451
 30
0.0
 10
20.00257055055499
 20
-10.79348305285713
 30
0.0
 10
20.65316332816996
 20
-11.40068416381643
 30
0.0
 10
21.22695638358218
 20
-12.01564638588487
 30
0.0
 10
22.3715791610738
 20
-12.39304805245726
 30
0.0
 10
22.46993360549367
 20
-13.44912360774872
 30
0.0
 10
22.33887666108192
 20
-13.94435305206938
 30
0.0
 10
22.20587943889312
 20
-14.43926499639011
 30
0.0
 10
22.07274110559296
 20
-14.93484721848852
 30
0.0
 10
21.90305499452436
 20
-15.57736138499442
 30
0.0
 10
21.99124943894675
 20
-16.85289999578675
 30
0.0
 10
21.74303499456411
 20
-17.31486249567137
 30
0.0
 10
21.68154582791292
 20
-17.4290919400873
 30
0.0
 10
21.5287577723955
 20
-17.33934527344281
 30
0.0
 10
21.51185971684432
 20
-17.54568499561372
 30
0.0
 10
21.49894805018075
 20
-17.70796277335094
 30
0.0
 10
21.54544416128028
 20
-17.70503471779596
 30
0.0
 10
21.6122955501526
 20
-17.77668388444462
 30
0.0
 10
21.522725272397
 20
-17.82148666221134
 30
0.0
 10
21.43555388353004
 20
-17.86558388442254
 30
0.0
 10
21.34806499466285
 20
-17.90968110663374
 30
0.0
 10
21.20903527247555
 20
-17.99011443994699
 30
0.0
 10
21.18356471692618
 20
-18.0495574954876
 30
0.0
 10
21.31430416133801
 20
-18.17338249545652
 30
0.0
 10
21.40161666131632
 20
-18.25004110654855
 30
0.0
 10
21.48981110573872
 20
-18.3278991620846
 30
0.0
 10
21.57835832793888
 20
-18.40491055095439
 30
0.0
 10
21.57835832793888
 20
-18.40491055095439
 30
0.0
 10
21.57835832793888
 20
-18.43814221761259
 30
0.0
 10
21.57835832793888
 20
-18.43814221761259
 30
0.0
 10
21.51185971684432
 20
-18.48188666204635
 30
0.0
 10
21.44624305019384
 20
-18.52513721759098
 30
0.0
 10
21.3797444390996
 20
-18.56958721757994
 30
0.0
 10
21.23383555024724
 20
-18.90222138416345
 30
0.0
 10
21.43640055019661
 20
-20.31125110603338
 30
0.0
 10
21.2488286057989
 20
-21.01440777252422
 30
0.0
 10
21.00163721697169
 20
-21.93526360562743
 30
0.0
 10
20.86747582811641
 20
-23.10006527200265
 30
0.0
 10
20.6857247170508
 20
-24.21815916061225
 30
0.0
 10
20.6857247170508
 20
-24.21815916061225
 30
0.0
 10
20.6857247170508
 20
-29.00838749274796
 30
0.0
 10
20.6857247170508
 20
-29.00838749274796
 30
0.0
 10
20.81801638368439
 20
-29.39287999265182
 30
0.0
 10
20.9501316614291
 20
-29.77871304811072
 30
0.0
 10
21.0819294391739
 20
-30.16422860357002
 30
0.0
 10
21.35099305021782
 20
-31.36621304771385
 30
0.0
 10
21.28654055023383
 20
-32.43851638077913
 30
0.0
 10
21.6122955501526
 20
-33.53318582494992
 30
0.0
 10
21.84068388342877
 20
-34.30386415809077
 30
0.0
 10
22.29717832775905
 20
-35.01008999124762
 30
0.0
 10
22.66837110544406
 20
-35.64759471331046
 30
0.0
 10
22.75589527208877
 20
-35.88981193547212
 30
0.0
 10
22.84426610540005
 20
-36.13181749096707
 30
0.0
 10
22.93263693871133
 20
-36.37435221312866
 30
0.0
 10
23.62852638298182
 20
-37.73173526834496
 30
0.0
 10
24.79399832713471
 20
-38.84051582362333
 30
0.0
 10
25.95068610462333
 20
-39.80723276782592
 30
0.0
 10
25.90986971574487
 20
-39.86268943447892
 30
0.0
 10
25.87127582686553
 20
-39.92040387890888
 30
0.0
 10
25.82753138243209
 20
-39.97430832333979
 30
0.0
 10
25.81564277132397
 20
-40.14226582329776
 30
0.0
 10
25.75020249356238
 20
-40.31449193436573
 30
0.0
 10
25.60016610471104
 20
-40.4736652676591
 30
0.0
 10
25.60016610471104
 20
-40.4736652676591
 30
0.0
 10
23.590638049658
 20
-42.61619054490125
 30
0.0
 10
23.590638049658
 20
-42.61619054490125
 30
0.0
 10
23.55306721633411
 20
-42.72435221154084
 30
0.0
 10
23.49348304968213
 20
-42.84528443373296
 30
0.0
 10
23.38426304970958
 20
-42.99962471147214
 30
0.0
 10
23.38426304970958
 20
-42.99962471147214
 30
0.0
 10
21.95956999451
 20
-44.04416443343325
 30
0.0
 10
21.95956999451
 20
-44.04416443343325
 30
0.0
 10
21.19594721692311
 20
-44.63810109995153
 30
0.0
 10
20.440614717112
 20
-45.44631498863811
 30
0.0
 10
20.0046519394434
 20
-46.21113721066965
 30
0.0
 10
19.95124138390097
 20
-46.37062804396262
 30
0.0
 10
19.8974780505811
 20
-46.53082443281176
 30
0.0
 10
19.84477305059451
 20
-46.68897471055
 30
0.0
 10
19.5750391617729
 20
-47.14786804376828
 30
0.0
 10
18.9950372174733
 20
-47.60122276587751
 30
0.0
 10
19.03691193968537
 20
-48.05150832132072
 30
0.0
 10
19.17368388409538
 20
-48.15864693240454
 30
0.0
 10
19.22053277297267
 20
-48.16690193240249
 30
0.0
 10
19.35557610627236
 20
-48.29817054348096
 30
0.0
 10
19.35557610627236
 20
-48.29817054348096
 30
0.0
 10
19.17368388409538
 20
-48.51936221009247
 30
0.0
 10
19.17368388409538
 20
-48.51936221009247
 30
0.0
 10
19.17368388409538
 20
-48.51936221009247
 30
0.0
 10
19.20451666186558
 20
-48.62579526562141
 30
0.0
 10
19.20451666186558
 20
-48.62579526562141
 30
0.0
 10
19.24808471741013
 20
-48.74877359892378
 30
0.0
 10
19.37522582848963
 20
-48.69677415449239
 30
0.0
 10
19.4787308284636
 20
-48.75223082114507
 30
0.0
 10
19.66340999508418
 20
-48.93620443221045
 30
0.0
 10
19.84978249503757
 20
-49.1188022099423
 30
0.0
 10
20.03562582832431
 20
-49.3013999876748
 30
0.0
 10
20.32952499491776
 20
-49.29967137656415
 30
0.0
 10
20.66212388372344
 20
-48.96481470998087
 30
0.0
 10
20.83664305034654
 20
-48.6151060989573
 30
0.0
 10
21.03042388363131
 20
-48.6809344322745
 30
0.0
 10
21.25761277246349
 20
-48.85869915445217
 30
0.0
 10
21.41332888353556
 20
-48.92138776554768
 30
0.0
 10
21.56562305016419
 20
-48.87626748778072
 30
0.0
 10
21.73615582789936
 20
-48.68506193227315
 30
0.0
 10
21.88996693897191
 20
-48.63546137672977
 30
0.0
 10
21.96747221673051
 20
-48.61203693229129
 30
0.0
 10
22.015026661163
 20
-48.62822943228758
 30
0.0
 10
22.0937313833656
 20
-48.66989248783261
 30
0.0
 10
22.21776805000125
 20
-49.1570433210442
 30
0.0
 10
22.91658554982639
 20
-49.33791248766541
 30
0.0
 10
23.32365582750248
 20
-49.53497415428291
 30
0.0
 10
23.61561471631825
 20
-49.49017137651619
 30
0.0
 10
23.71396916073812
 20
-49.55942165427652
 30
0.0
 10
23.86608693847787
 20
-49.20837248769822
 30
0.0
 10
24.24486443838314
 20
-49.22939804324806
 30
0.0
 10
25.2864761047896
 20
-48.98478193219806
 30
0.0
 10
25.62598943803785
 20
-48.52899304342331
 30
0.0
 10
25.71954610468138
 20
-48.34674804346857
 30
0.0
 10
25.812714715769
 20
-48.16379748795896
 30
0.0
 10
25.90503666019037
 20
-47.98123498800463
 30
0.0
 10
26.40855638228681
 20
-47.92059248802001
 30
0.0
 10
26.95546777103893
 20
-48.39567832123459
 30
0.0
 10
27.45965777091274
 20
-48.47180776565998
 30
0.0
 10
27.86478777081147
 20
-48.53312054342197
 30
0.0
 10
28.32763221514017
 20
-48.35606137679981
 30
0.0
 10
28.73156277059489
 20
-48.51209498787213
 30
0.0
 10
28.90244832610782
 20
-48.37878026568277
 30
0.0
 10
28.87161554833763
 20
-48.22341693238845
 30
0.0
 10
28.96171499275956
 20
-48.15381387685036
 30
0.0
 10
28.96171499275956
 20
-48.15381387685036
 30
0.0
 10
29.26968999268242
 20
-48.07666137686985
 30
0.0
 10
29.26968999268242
 20
-48.07666137686985
 30
0.0
 10
29.29452554823195
 20
-47.83723109915179
 30
0.0
 10
29.31706804822635
 20
-47.5988238769895
 30
0.0
 10
29.34169193710916
 20
-47.35801776593856
 30
0.0
 10
29.36804443710229
 20
-47.34387137705315
 30
0.0
 10
29.40095860376089
 20
-47.3321591548339
 30
0.0
 10
29.43369638153061
 20
-47.31977665483666
 30
0.0
 10
29.48382610374031
 20
-48.25305026571464
 30
0.0
 10
29.5379069370601
 20
-49.20318665436564
 30
0.0
 10
29.70360665924077
 20
-50.11511720969355
 30
0.0
 10
29.84588193698296
 20
-50.89196915394393
 30
0.0
 10
30.16041860357097
 20
-51.53448332044983
 30
0.0
 10
30.29824888131426
 20
-52.1632391536256
 30
0.0
 10
30.43431527016907
 20
-52.7764374868062
 30
0.0
 10
30.38764277018098
 20
-53.95672609762219
 30
0.0
 10
30.29824888131426
 20
-54.47523887526997
 30
0.0
 10
30.33112777019502
 20
-54.85073554184315
 30
0.0
 10
30.36559415907539
 20
-55.22489165286033
 30
0.0
 10
30.3974499924007
 20
-55.59865970832287
 30
0.0
 10
30.24346249243927
 20
-56.31388137481039
 30
0.0
 10
30.16990832579076
 20
-57.24955387457638
 30
0.0
 10
30.03451221471364
 20
-58.1098024854725
 30
0.0
 10
30.01211082583028
 20
-59.20948137408668
 30
0.0
 10
29.99006221472468
 20
-60.3112063738111
 30
0.0
 10
29.96751971473028
 20
-61.41226109575817
 30
0.0
 10
29.91290971474384
 20
-62.17193276223465
 30
0.0
 10
29.8575941592022
 20
-62.93188665093385
 30
0.0
 10
29.80301943699361
 20
-63.69155831741033
 30
0.0
 10
29.80301943699361
 20
-63.69155831741033
 30
0.0
 10
29.80301943699361
 20
-64.9455774837637
 30
0.0
 10
29.80301943699361
 20
-64.9455774837637
 30
0.0
 10
29.67795971480284
 20
-65.38792553920857
 30
0.0
 10
29.74029554812059
 20
-65.91328220574388
 30
0.0
 10
29.60542860370978
 20
-66.4662260944945
 30
0.0
 10
29.47313693707619
 20
-66.84105248328969
 30
0.0
 10
29.34013971488707
 20
-67.21587887208487
 30
0.0
 10
29.2092591593642
 20
-67.58932942754717
 30
0.0
 10
29.2092591593642
 20
-67.58932942754717
 30
0.0
 10
29.2092591593642
 20
-68.74446498281402
 30
0.0
 10
29.2092591593642
 20
-68.74446498281402
 30
0.0
 10
28.98771471497525
 20
-70.00469303805446
 30
0.0
 10
28.55295138175065
 20
-72.39557387078997
 30
0.0
 10
30.43138721461442
 20
-72.24708970416073
 30
0.0
 10
31.09524443667072
 20
-71.63731331542391
 30
0.0
 10
30.71096360343326
 20
-70.11768776024822
 30
0.0
 10
30.95833138114935
 20
-69.07519414939802
 30
0.0
 10
31.19585665886756
 20
-68.08371220520158
 30
0.0
 10
33.23981582502343
 20
-67.69717359418651
 30
0.0
 10
32.74338693625846
 20
-66.4662260944945
 30
0.0
 10
32.4707249918822
 20
-66.0121658168304
 30
0.0
 10
31.99616832533426
 20
-65.87676970575328
 30
0.0
 10
31.85198804759255
 20
-65.24423915035533
 30
0.0
 10
31.71899082540343
 20
-64.66307303938957
 30
0.0
 10
32.09434638086525
 20
-63.87553192847571
 30
0.0
 10
32.21386749194664
 20
-63.39353165081855
 30
0.0
 10
32.44574832522196
 20
-62.33763248441532
 30
0.0
 10
32.67826415849711
 20
-61.27965192912433
 30
0.0
 10
32.90788721399512
 20
-60.22371748494423
 30
0.0
 10
33.04949221395996
 20
-59.76309554061466
 30
0.0
 10
33.41345304720214
 20
-59.47854498513028
 30
0.0
 10
33.53696054717146
 20
-58.96761692970245
 30
0.0
 10
33.86218638042327
 20
-57.60578887448725
 30
0.0
 10
33.13250082505009
 20
-56.11854831930353
 30
0.0
 10
33.36988499165759
 20
-54.93755415293202
 30
0.0
 10
33.55643388049985
 20
-54.01909720871745
 30
0.0
 10
33.48806554718361
 20
-52.853978042342
 30
0.0
 10
33.66893471380514
 20
-51.76668165372507
 30
0.0
 10
33.8325530470974
 20
-50.5994810984612
 30
0.0
 10
33.99842915816696
 20
-49.43263332097511
 30
0.0
 10
34.1631058247925
 20
-48.26578554348901
 30
0.0
 10
34.1631058247925
 20
-48.26578554348901
 30
0.0
 10
34.22978082477594
 20
-44.92921332210074
 30
0.0
 10
34.22978082477594
 20
-44.92921332210074
 30
0.0
 10
34.3062630469791
 20
-44.53304387775548
 30
0.0
 10
34.38394471362626
 20
-44.13719193341046
 30
0.0
 10
34.46025054694053
 20
-43.74098721128704
 30
0.0
 10
34.71209860243303
 20
-43.22183943363878
 30
0.0
 10
35.10724499122316
 20
-43.04887248923777
 30
0.0
 10
34.9901227690301
 20
-42.28648443387304
 30
0.0
 10
35.03009249124233
 20
-42.18760082278652
 30
0.0
 10
35.07863471345242
 20
-42.11182415613889
 30
0.0
 10
35.12721221344036
 20
-42.03153193393668
 30
0.0
 10
35.33168132083593
 20
-41.84413637842817
 30
0.0
 10
35.53392881567617
 20
-41.65603526736349
 30
0.0
 10
35.73596464385514
 20
-41.46722860074458
 30
0.0
 10
36.23380554649712
 20
-41.23986332302353
 30
0.0
 10
36.88647878116975
 20
-41.2546799896863
 30
0.0
 10
37.66470653909328
 20
-41.06485026751162
 30
0.0
 10
39.16228344533135
 20
-40.69072943427196
 30
0.0
 10
40.65971924046192
 20
-40.31590304547678
 30
0.0
 10
42.15729721168297
 20
-39.94121776779232
 30
0.0
 10
42.15729721168297
 20
-39.94121776779232
 30
0.0
 10
43.64351360878343
 20
-39.84166387892844
 30
0.0
 10
43.64351360878343
 20
-39.84166387892844
 30
0.0
 10
44.5475066412762
 20
-39.5788091567719
 30
0.0
 10
45.4487480071725
 20
-39.31352026794951
 30
0.0
 10
46.35305853965718
 20
-39.04964249023752
 30
0.0
 10
46.8374576939658
 20
-38.78572943474802
 30
0.0
 10
47.32115129273685
 20
-38.52100499036979
 30
0.0
 10
47.80653822479805
 20
-38.25656276821364
 30
0.0
 10
48.34466665458081
 20
-38.19041693489685
 30
0.0
 10
48.88452125285196
 20
-38.12480026824669
 30
0.0
 10
49.4247298501812
 20
-38.05900721270734
 30
0.0
 10
50.51371954462098
 20
-37.71758887945956
 30
0.0
 10
51.60510812788845
 20
-37.37617054621145
 30
0.0
 10
52.69445060009701
 20
-37.03545776851887
 30
0.0
 10
53.07238142378853
 20
-36.9159366574378
 30
0.0
 10
54.10799720869537
 20
-36.71919249082022
 30
0.0
 10
54.51174999817829
 20
-36.80414137968772
 30
0.0
 10
54.71364471524974
 20
-36.84562804634419
 30
0.0
 10
55.04229248464302
 20
-36.96451415742541
 30
0.0
 10
55.37026997627562
 20
-36.90267221299647
 30
0.0
 10
56.25013300938399
 20
-36.73676082414908
 30
0.0
 10
57.1334532646264
 20
-36.4515047131095
 30
0.0
 10
57.88070713445125
 20
-36.2417077687173
 30
0.0
 10
58.31031990126869
 20
-36.15368971318379
 30
0.0
 10
58.73989739030926
 20
-36.06514249098363
 30
0.0
 10
59.16915737935793
 20
-35.97818276878309
 30
0.0
 10
59.77861625269822
 20
-35.71790332440375
 30
0.0
 10
60.21648401930506
 20
-35.24814443563247
 30
0.0
 10
60.72152220704177
 20
-34.92087249126978
 30
0.0
 10
60.74769678353047
 20
-34.44716249138808
 30
0.0
 10
60.69294720704887
 20
-33.77931888044417
 30
0.0
 10
60.32602151651053
 20
-33.59933165826672
 30
0.0
  0
SPLINE
  5
42
330
1F
100
AcDbEntity
  8
Layer 1
370
     0
100
AcDbSpline
210
0.0
220
0.0
230
1.0
 70
    11
 71
     3
 72
    95
 73
    91
 74
     0
 42
0.0000000001
 43
0.0000000001
 12
1.0
 22
0.0
 32
0.0
 13
1.0
 23
0.0
 33
0.0
 40
0.0
 40
0.0
 40
0.0
 40
0.0
 40
1.0
 40
1.0
 40
1.0
 40
2.0
 40
2.0
 40
2.0
 40
3.0
 40
3.0
 40
3.0
 40
4.0
 40
4.0
 40
4.0
 40
5.0
 40
5.0
 40
5.0
 40
6.0
 40
6.0
 40
6.0
 40
7.0
 40
7.0
 40
7.0
 40
8.0
 40
8.0
 40
8.0
 40
9.0
 40
9.0
 40
9.0
 40
10.0
 40
10.0
 40
10.0
 40
11.0
 40
11.0
 40
11.0
 40
12.0
 40
12.0
 40
12.0
 40
13.0
 40
13.0
 40
13.0
 40
14.0
 40
14.0
 40
14.0
 40
15.0
 40
15.0
 40
15.0
 40
16.0
 40
16.0
 40
16.0
 40
17.0
 40
17.0
 40
17.0
 40
18.0
 40
18.0
 40
18.0
 40
19.0
 40
19.0
 40
19.0
 40
20.0
 40
20.0
 40
20.0
 40
21.0
 40
21.0
 40
21.0
 40
22.0
 40
22.0
 40
22.0
 40
23.0
 40
23.0
 40
23.0
 40
24.0
 40
24.0
 40
24.0
 40
25.0
 40
25.0
 40
25.0
 40
26.0
 40
26.0
 40
26.0
 40
27.0
 40
27.0
 40
27.0
 40
28.0
 40
28.0
 40
28.0
 40
29.0
 40
29.0
 40
29.0
 40
30.0
 40
30.0
 40
30.0
 40
30.0
 10
24.71666943826531
 20
-22.07150638337112
 30
0.0
 10
24.64036360495104
 20
-22.23604193888531
 30
0.0
 10
24.56268193830388
 20
-22.4017416610663
 30
0.0
 10
24.48531777165633
 20
-22.56691221658033
 30
0.0
 10
24.32840221614024
 20
-22.67235749433199
 30
0.0
 10
24.20729360505925
 20
-22.63030638323136
 30
0.0
 10
24.08794888286706
 20
-22.76467943875337
 30
0.0
 10
23.91723971624301
 20
-22.93521221648853
 30
0.0
 10
24.15649360507187
 20
-23.18427332753711
 30
0.0
 10
24.08794888286706
 20
-23.35928638304901
 30
0.0
 10
23.97802332733867
 20
-23.49140166079373
 30
0.0
 10
23.86778027181067
 20
-23.62457527187172
 30
0.0
 10
23.75739610517164
 20
-23.75566749406099
 30
0.0
 10
23.56978888299641
 20
-24.10583471619585
 30
0.0
 10
23.41700082747898
 20
-24.63330804939709
 30
0.0
 10
23.26318971640643
 20
-25.01137999374717
 30
0.0
 10
23.30485277195146
 20
-25.6852561046899
 30
0.0
 10
23.9799283273382
 20
-25.74416999356387
 30
0.0
 10
24.1883494383975
 20
-26.26592832676686
 30
0.0
 10
24.38713971612533
 20
-26.76803693775258
 30
0.0
 10
23.91155999402227
 20
-27.58073110421589
 30
0.0
 10
23.79147443849672
 20
-27.98416777078182
 30
0.0
 10
23.74755360517408
 20
-27.99503332633449
 30
0.0
 10
23.70310360518544
 20
-28.0068866596651
 30
0.0
 10
23.66006471630721
 20
-28.01672915966233
 30
0.0
 10
23.63646388297985
 20
-27.66737332641652
 30
0.0
 10
23.48452249412898
 20
-27.55713027088852
 30
0.0
 10
23.3961516608177
 20
-27.29050082651077
 30
0.0
 10
23.16483527198656
 20
-26.61076860445842
 30
0.0
 10
22.95433277203916
 20
-25.77913027133304
 30
0.0
 10
22.80048638318877
 20
-25.17640943815048
 30
0.0
 10
22.85509638317521
 20
-24.70269943826878
 30
0.0
 10
22.91072943871677
 20
-24.22902471616493
 30
0.0
 10
22.96639777203617
 20
-23.75566749406099
 30
0.0
 10
23.09935971644744
 20
-22.91799666093711
 30
0.0
 10
22.81032888318633
 20
-21.89307138341576
 30
0.0
 10
22.96639777203617
 20
-21.11293860583297
 30
0.0
 10
23.05459221645856
 20
-20.66713332816649
 30
0.0
 10
23.25733360529681
 20
-20.26302638382321
 30
0.0
 10
23.29589221639831
 20
-19.7259222172908
 30
0.0
 10
23.47538554968663
 20
-19.64566527286643
 30
0.0
 10
23.63353582742488
 20
-19.75072249506217
 30
0.0
 10
23.85694999403584
 20
-19.69318443952108
 30
0.0
 10
24.24211277171737
 20
-19.53835027289309
 30
0.0
 10
24.62829860495404
 20
-19.38520943959822
 30
0.0
 10
25.01346138263558
 20
-19.23033999519239
 30
0.0
 10
26.80250332663262
 20
-19.24049999518986
 30
0.0
 10
28.16881165962456
 20
-20.08646110608953
 30
0.0
 10
29.30743721489551
 20
-20.81561749479607
 30
0.0
 10
29.70360665924077
 20
-21.06986443917689
 30
0.0
 10
30.32096777019754
 20
-21.35596721688336
 30
0.0
 10
30.43138721461442
 20
-21.87359805008705
 30
0.0
 10
30.53732638125456
 20
-22.37418971662852
 30
0.0
 10
30.16613360356955
 20
-22.97345332759011
 30
0.0
 10
30.06689721470559
 20
-23.39287082748497
 30
0.0
 10
29.923739992519
 20
-24.17388554951217
 30
0.0
 10
29.78061804811025
 20
-24.95627610487193
 30
0.0
 10
29.63883665925686
 20
-25.73743193801017
 30
0.0
 10
29.14293693715885
 20
-26.57478527113413
 30
0.0
 10
28.64735471506043
 20
-27.41108027092512
 30
0.0
 10
28.15261915962858
 20
-28.248751104049
 30
0.0
 10
27.94610304856912
 20
-28.14919721518481
 30
0.0
 10
27.87667638191959
 20
-28.04840860409909
 30
0.0
 10
27.52527443756321
 20
-28.04996082632085
 30
0.0
 10
27.52527443756321
 20
-28.04996082632085
 30
0.0
 10
27.49049054868293
 20
-27.98416777078182
 30
0.0
 10
27.49049054868293
 20
-27.98416777078182
 30
0.0
 10
27.54629999311337
 20
-27.7993474930502
 30
0.0
 10
27.79123360416328
 20
-27.57438110421747
 30
0.0
 10
27.95315860412274
 20
-27.48840915979452
 30
0.0
 10
27.92853471523994
 20
-27.2314105487476
 30
0.0
 10
27.84016388192898
 20
-27.15595138209989
 30
0.0
 10
27.75542665972788
 20
-26.96044193770447
 30
0.0
 10
27.75542665972788
 20
-26.96044193770447
 30
0.0
 10
27.78745888194207
 20
-26.89380221549887
 30
0.0
 10
27.78745888194207
 20
-26.89380221549887
 30
0.0
 10
29.25970638157382
 20
-26.66315610444541
 30
0.0
 10
30.03814582582381
 20
-24.31753666058724
 30
0.0
 10
29.275404992681
 20
-22.66544304988909
 30
0.0
 10
29.08659832606176
 20
-22.26048943887924
 30
0.0
 10
28.64735471506043
 20
-21.95043305006797
 30
0.0
 10
28.28371138181785
 20
-21.7077219390175
 30
0.0
 10
27.71182332640548
 20
-21.32375860578028
 30
0.0
 10
27.00005888213893
 20
-20.7760005503616
 30
0.0
 10
26.10365054902964
 20
-21.17908443914977
 30
0.0
 10
25.90503666019037
 20
-21.35596721688336
 30
0.0
 10
25.70748110468438
 20
-21.53200332795039
 30
0.0
 10
25.51006666028912
 20
-21.7077219390175
 30
0.0
 10
25.24601249368857
 20
-21.82932443898697
 30
0.0
 10
24.98089999375474
 20
-21.95008027229021
 30
0.0
 10
24.71666943826531
 20
-22.07150638337112
 30
0.0
  0
HATCH
  5
43
330
1F
100
AcDbEntity
  8
Layer 1
 62
     7
100
AcDbHatch
 10
0.0
 20
0.0
 30
0.0
210
0.0
220
0.0
230
1.0
  2
SOLID
 70
     1
 71
     0
 91
        2
 92
        1
 93
        1
 72
     4
 94
        3
 73
     0
 74
     1
 95
      428
 96
      424
 40
0.0
 40
0.0
 40
0.0
 40
0.0
 40
1.0
 40
1.0
 40
1.0
 40
2.0
 40
2.0
 40
2.0
 40
3.0
 40
3.0
 40
3.0
 40
4.0
 40
4.0
 40
4.0
 40
5.0
 40
5.0
 40
5.0
 40
6.0
 40
6.0
 40
6.0
 40
7.0
 40
7.0
 40
7.0
 40
8.0
 40
8.0
 40
8.0
 40
9.0
 40
9.0
 40
9.0
 40
10.0
 40
10.0
 40
10.0
 40
11.0
 40
11.0
 40
11.0
 40
12.0
 40
12.0
 40
12.0
 40
13.0
 40
13.0
 40
13.0
 40
14.0
 40
14.0
 40
14.0
 40
15.0
 40
15.0
 40
15.0
 40
16.0
 40
16.0
 40
16.0
 40
17.0
 40
17.0
 40
17.0
 40
18.0
 40
18.0
 40
18.0
 40
19.0
 40
19.0
 40
19.0
 40
20.0
 40
20.0
 40
20.0
 40
21.0
 40
21.0
 40
21.0
 40
22.0
 40
22.0
 40
22.0
 40
23.0
 40
23.0
 40
23.0
 40
24.0
 40
24.0
 40
24.0
 40
25.0
 40
25.0
 40
25.0
 40
26.0
 40
26.0
 40
26.0
 40
27.0
 40
27.0
 40
27.0
 40
28.0
 40
28.0
 40
28.0
 40
29.0
 40
29.0
 40
29.0
 40
30.0
 40
30.0
 40
30.0
 40
31.0
 40
31.0
 40
31.0
 40
32.0
 40
32.0
 40
32.0
 40
33.0
 40
33.0
 40
33.0
 40
34.0
 40
34.0
 40
34.0
 40
35.0
 40
35.0
 40
35.0
 40
36.0
 40
36.0
 40
36.0
 40
37.0
 40
37.0
 40
37.0
 40
38.0
 40
38.0
 40
38.0
 40
39.0
 40
39.0
 40
39.0
 40
40.0
 40
40.0
 40
40.0
 40
41.0
 40
41.0
 40
41.0
 40
42.0
 40
42.0
 40
42.0
 40
43.0
 40
43.0
 40
43.0
 40
44.0
 40
44.0
 40
44.0
 40
45.0
 40
45.0
 40
45.0
 40
46.0
 40
46.0
 40
46.0
 40
47.0
 40
47.0
 40
47.0
 40
48.0
 40
48.0
 40
48.0
 40
49.0
 40
49.0
 40
49.0
 40
50.0
 40
50.0
 40
50.0
 40
51.0
 40
51.0
 40
51.0
 40
52.0
 40
52.0
 40
52.0
 40
53.0
 40
53.0
 40
53.0
 40
54.0
 40
54.0
 40
54.0
 40
55.0
 40
55.0
 40
55.0
 40
56.0
 40
56.0
 40
56.0
 40
57.0
 40
57.0
 40
57.0
 40
58.0
 40
58.0
 40
58.0
 40
59.0
 40
59.0
 40
59.0
 40
60.0
 40
60.0
 40
60.0
 40
61.0
 40
61.0
 40
61.0
 40
62.0
 40
62.0
 40
62.0
 40
63.0
 40
63.0
 40
63.0
 40
64.0
 40
64.0
 40
64.0
 40
65.0
 40
65.0
 40
65.0
 40
66.0
 40
66.0
 40
66.0
 40
67.0
 40
67.0
 40
67.0
 40
68.0
 40
68.0
 40
68.0
 40
69.0
 40
69.0
 40
69.0
 40
70.0
 40
70.0
 40
70.0
 40
71.0
 40
71.0
 40
71.0
 40
72.0
 40
72.0
 40
72.0
 40
73.0
 40
73.0
 40
73.0
 40
74.0
 40
74.0
 40
74.0
 40
75.0
 40
75.0
 40
75.0
 40
76.0
 40
76.0
 40
76.0
 40
77.0
 40
77.0
 40
77.0
 40
78.0
 40
78.0
 40
78.0
 40
79.0
 40
79.0
 40
79.0
 40
80.0
 40
80.0
 40
80.0
 40
81.0
 40
81.0
 40
81.0
 40
82.0
 40
82.0
 40
82.0
 40
83.0
 40
83.0
 40
83.0
 40
84.0
 40
84.0
 40
84.0
 40
85.0
 40
85.0
 40
85.0
 40
86.0
 40
86.0
 40
86.0
 40
87.0
 40
87.0
 40
87.0
 40
88.0
 40
88.0
 40
88.0
 40
89.0
 40
89.0
 40
89.0
 40
90.0
 40
90.0
 40
90.0
 40
91.0
 40
91.0
 40
91.0
 40
92.0
 40
92.0
 40
92.0
 40
93.0
 40
93.0
 40
93.0
 40
94.0
 40
94.0
 40
94.0
 40
95.0
 40
95.0
 40
95.0
 40
96.0
 40
96.0
 40
96.0
 40
97.0
 40
97.0
 40
97.0
 40
98.0
 40
98.0
 40
98.0
 40
99.0
 40
99.0
 40
99.0
 40
100.0
 40
100.0
 40
100.0
 40
101.0
 40
101.0
 40
101.0
 40
102.0
 40
102.0
 40
102.0
 40
103.0
 40
103.0
 40
103.0
 40
104.0
 40
104.0
 40
104.0
 40
105.0
 40
105.0
 40
105.0
 40
106.0
 40
106.0
 40
106.0
 40
107.0
 40
107.0
 40
107.0
 40
108.0
 40
108.0
 40
108.0
 40
109.0
 40
109.0
 40
109.0
 40
110.0
 40
110.0
 40
110.0
 40
111.0
 40
111.0
 40
111.0
 40
112.0
 40
112.0
 40
112.0
 40
113.0
 40
113.0
 40
113.0
 40
114.0
 40
114.0
 40
114.0
 40
115.0
 40
115.0
 40
115.0
 40
116.0
 40
116.0
 40
116.0
 40
117.0
 40
117.0
 40
117.0
 40
118.0
 40
118.0
 40
118.0
 40
119.0
 40
119.0
 40
119.0
 40
120.0
 40
120.0
 40
120.0
 40
121.0
 40
121.0
 40
121.0
 40
122.0
 40
122.0
 40
122.0
 40
123.0
 40
123.0
 40
123.0
 40
124.0
 40
124.0
 40
124.0
 40
125.0
 40
125.0
 40
125.0
 40
126.0
 40
126.0
 40
126.0
 40
127.0
 40
127.0
 40
127.0
 40
128.0
 40
128.0
 40
128.0
 40
129.0
 40
129.0
 40
129.0
 40
130.0
 40
130.0
 40
130.0
 40
131.0
 40
131.0
 40
131.0
 40
132.0
 40
132.0
 40
132.0
 40
133.0
 40
133.0
 40
133.0
 40
134.0
 40
134.0
 40
134.0
 40
135.0
 40
135.0
 40
135.0
 40
136.0
 40
136.0
 40
136.0
 40
137.0
 40
137.0
 40
137.0
 40
138.0
 40
138.0
 40
138.0
 40
139.0
 40
139.0
 40
139.0
 40
140.0
 40
140.0
 40
140.0
 40
141.0
 40
141.0
 40
141.0
 40
141.0
 10
60.32602151651053
 20
-33.59933165826672
 10
60.00531124691475
 20
-33.37228388054591
 10
59.03309099394038
 20
-33.50217665829118
 10
58.64104905949775
 20
-33.59933165826672
 10
57.91238657808749
 20
-33.78175304711002
 10
57.00564187899825
 20
-34.12952138035654
 10
56.26219800907619
 20
-34.35932082474345
 10
55.7991771875555
 20
-34.44716249138808
 10
55.3382377548706
 20
-34.53500415803303
 10
54.87521693334992
 20
-34.62288110245551
 10
54.65575388339333
 20
-34.715026657988
 10
54.50793999827549
 20
-35.01509943569067
 10
54.31331387531083
 20
-35.08657221345045
 10
53.83099473776802
 20
-35.26020943562947
 10
53.08444642348072
 20
-35.09846082455857
 10
52.59489671374795
 20
-35.01940332457853
 10
51.60786109820945
 20
-34.86160582461805
 10
50.52059998737004
 20
-34.92087249126978
 10
49.4247298501812
 20
-34.92087249126978
 10
49.4247298501812
 20
-34.92087249126978
 10
47.97121488726346
 20
-34.92087249126978
 10
47.97121488726346
 20
-34.92087249126978
 10
47.26223740535098
 20
-35.03852388012915
 10
46.58321075600773
 20
-35.23763165785723
 10
46.12191854555405
 20
-35.61418665776306
 10
45.8573352189708
 20
-35.83001610215376
 10
45.60446411431097
 20
-36.10923971319483
 10
45.22928609980406
 20
-36.20882887983655
 10
44.85512885565033
 20
-36.21983554650059
 10
44.48065525409283
 20
-36.23119499094207
 10
44.10618165253534
 20
-36.2417077687173
 10
43.70930666266047
 20
-36.2858049909285
 10
43.30138972862284
 20
-36.30958221314475
 10
42.89110918353442
 20
-36.32284665758608
 10
42.81081696336062
 20
-36.16540193540303
 10
42.72918418766547
 20
-36.00813360210919
 10
42.64857446749978
 20
-35.85206471325935
 10
43.00720834723915
 20
-35.73254360217796
 10
43.17290806523402
 20
-35.44280721336165
 10
43.46987639099106
 20
-35.33961971338728
 10
43.41921750339458
 20
-35.14788499121307
 10
43.31864165583689
 20
-34.9768583245891
 10
43.1009061226265
 20
-34.78445332463721
 10
43.1009061226265
 20
-34.78445332463721
 10
43.22353167505361
 20
-34.3756897136283
 10
43.22353167505361
 20
-34.3756897136283
 10
43.11261943366655
 20
-34.08027360259093
 10
42.87523418393943
 20
-34.02651026927106
 10
42.65785252281863
 20
-33.97451082483967
 10
42.57346808052701
 20
-33.72386221379117
 10
42.64098974547105
 20
-33.5192158249534
 10
42.60789919075971
 20
-33.27481138057012
 10
42.22965086707629
 20
-33.27756304723621
 10
41.85239032114546
 20
-33.28098499167967
 10
41.47445949745394
 20
-33.28359554723471
 10
41.47445949745394
 20
-33.28359554723471
 10
40.09541592152517
 20
-33.22020138058369
 10
40.09541592152517
 20
-33.22020138058369
 10
39.37366788438293
 20
-33.45014193608195
 10
38.65174443478162
 20
-33.67958860269109
 10
37.9310194349616
 20
-33.91023471374456
 10
37.09317221294884
 20
-34.08493026925655
 10
36.25927518605994
 20
-34.26043721365726
 10
35.42315659627999
 20
-34.43527388027996
 10
35.13652554677127
 20
-34.52071665803658
 10
34.89829471349753
 20
-34.7542908246447
 10
34.60012693579439
 20
-34.8671091579499
 10
34.35879165807712
 20
-34.92775165793484
 10
34.11745638035954
 20
-34.99044026903002
 10
33.87717943597524
 20
-35.05178832457049
 10
33.87717943597524
 20
-35.05178832457049
 10
33.32543499166862
 20
-35.25488249118617
 10
33.32543499166862
 20
-35.25488249118617
 10
32.67501860294222
 20
-34.93138526904502
 10
31.76894415872457
 20
-34.92619943571275
 10
30.89267943672135
 20
-34.8879583246115
 10
30.88407165894564
 20
-34.47284471360418
 10
30.67995443677451
 20
-34.54467026914171
 10
30.59606388123997
 20
-34.32573638030748
 10
30.52335638125803
 20
-34.13573026924392
 10
30.52060471459194
 20
-33.39641388053992
 10
30.49668638126465
 20
-33.2689552694605
 10
30.44705054794376
 20
-32.99368276952951
 10
30.59899193679462
 20
-32.5433972140863
 10
30.66273888122309
 20
-32.31155165858883
 10
30.70630693676796
 20
-31.71623915873766
 10
30.7500513812014
 20
-31.12177332555273
 10
30.79432499230148
 20
-30.52751915903484
 10
30.9958669366954
 20
-29.58045193704921
 10
31.18982415886905
 20
-28.42566915956012
 10
31.48852110323885
 20
-27.45517749313632
 10
31.79356804760706
 20
-26.4653888822727
 10
32.1113855475278
 20
-25.45097638252626
 10
32.3143033252546
 20
-24.31753666058724
 10
32.3692661030188
 20
-23.48039499413001
 10
32.42317054744971
 20
-22.64374721656125
 10
32.47915638076903
 20
-21.80692305010393
 10
32.54890054741848
 20
-21.40263971687144
 10
32.54890054741848
 20
-20.74361555036965
 10
32.41301054745224
 20
-20.38720416156989
 10
32.20148499194972
 20
-19.83256693948647
 10
31.00997804780297
 20
-19.50095582845807
 10
30.46497165905038
 20
-19.26360693962842
 10
28.98393999275403
 20
-18.61883499534524
 10
27.32186277094728
 20
-18.23540082877434
 10
25.74021888245378
 20
-17.64439221781103
 10
25.01155638263605
 20
-17.37222416232357
 10
24.43451777166926
 20
-16.85582805134172
 10
23.42906582747598
 20
-16.88510860688983
 10
23.47263388302086
 20
-16.11425388486043
 10
23.51637832745429
 20
-15.34237610727558
 10
23.55998166077669
 20
-14.57240332969027
 10
23.61476804965201
 20
-14.14331971868641
 10
23.67107138297125
 20
-13.71338944101599
 10
23.72483471629112
 20
-13.28412944112357
 10
23.56513221633079
 20
-12.17944110806634
 10
22.90766027205076
 20
-11.48044721935199
 10
22.70110888321345
 20
-10.5099555529282
 10
22.55519999436109
 20
-9.82041610865613
 10
23.03409582757473
 20
-8.560188053415375
 10
23.06457582756716
 20
-7.93319610912777
 10
23.06768027201101
 20
-7.870331109143384
 10
23.03010943868679
 20
-7.604371942543312
 10
22.83322416095849
 20
-7.833113053597251
 10
22.63651527211875
 20
-8.06185416465119
 10
22.31301804997727
 20
-9.08385138661789
 10
22.23964027221797
 20
-9.715676386459993
 10
22.21776805000125
 20
-9.727741386456996
 10
22.19487277222908
 20
-9.738077775343355
 10
22.17314166112341
 20
-9.749613608673714
 10
22.16213499445936
 20
-9.50778444206765
 10
22.15352721668398
 20
-9.137085553271442
 10
22.14008638335376
 20
-9.02218583107783
 10
22.12682193891276
 20
-8.907109719995338
 10
22.04395443893334
 20
-8.930393053323101
 10
21.97452777228413
 20
-9.02218583107783
 10
21.90513638341277
 20
-9.113837497721518
 10
21.82741943898745
 20
-9.337251664332479
 10
21.84241249453942
 20
-9.617674719817883
 10
21.84241249453942
 20
-9.617674719817883
 10
21.80953360565866
 20
-9.617674719817883
 10
21.80953360565866
 20
-9.617674719817883
 10
21.50688555017878
 20
-9.373764164323088
 10
21.42641693908769
 20
-8.715586664487851
 10
21.3797444390996
 20
-8.22914138683147
 10
21.37473499465623
 20
-8.125424720190779
 10
21.3110233280056
 20
-8.112689442416412
 10
21.21386832802973
 20
-8.196756386839834
 10
21.10690610583447
 20
-8.286326664595114
 10
21.09191305028249
 20
-8.293734997926501
 10
21.0819294391739
 20
-8.49421860898746
 10
21.0819294391739
 20
-8.49421860898746
 10
21.01733582807887
 20
-8.49421860898746
 10
21.01733582807887
 20
-8.49421860898746
 10
20.9501316614291
 20
-8.350567497912385
 10
20.88451499477895
 20
-8.208292220170195
 10
20.81801638368439
 20
-8.064958609094722
 10
20.35827638379923
 20
-8.11508833130442
 10
20.53981582819844
 20
-8.587951664519554
 10
20.6857247170508
 20
-8.857685553341161
 10
21.14444166138052
 20
-9.697261386464568
 10
21.71029721679471
 20
-10.11272777524966
 10
21.71029721679471
 20
-11.33436194161075
 10
21.71029721679471
 20
-11.33436194161075
 10
21.64379860570015
 20
-11.36727610826935
 10
21.64379860570015
 20
-11.36727610826935
 10
21.36595082799196
 20
-11.24221638607826
 10
21.22039471691703
 20
-11.09577833055926
 10
20.85075416145411
 20
-11.03739360835161
 10
20.74858971703518
 20
-11.02137749724451
 10
20.00257055055499
 20
-10.79348305285713
 10
20.65316332816996
 20
-11.40068416381643
 10
21.22695638358218
 20
-12.01564638588487
 10
22.3715791610738
 20
-12.39304805245726
 10
22.46993360549367
 20
-13.44912360774872
 10
22.33887666108192
 20
-13.94435305206938
 10
22.20587943889312
 20
-14.43926499639011
 10
22.07274110559296
 20
-14.93484721848852
 10
21.90305499452436
 20
-15.57736138499442
 10
21.99124943894675
 20
-16.85289999578675
 10
21.74303499456411
 20
-17.31486249567137
 10
21.68154582791292
 20
-17.4290919400873
 10
21.5287577723955
 20
-17.33934527344281
 10
21.51185971684432
 20
-17.54568499561372
 10
21.49894805018075
 20
-17.70796277335094
 10
21.54544416128028
 20
-17.70503471779596
 10
21.6122955501526
 20
-17.77668388444462
 10
21.522725272397
 20
-17.82148666221134
 10
21.43555388353004
 20
-17.86558388442254
 10
21.34806499466285
 20
-17.90968110663374
 10
21.20903527247555
 20
-17.99011443994699
 10
21.18356471692618
 20
-18.0495574954876
 10
21.31430416133801
 20
-18.17338249545652
 10
21.40161666131632
 20
-18.25004110654855
 10
21.48981110573872
 20
-18.3278991620846
 10
21.57835832793888
 20
-18.40491055095439
 10
21.57835832793888
 20
-18.40491055095439
 10
21.57835832793888
 20
-18.43814221761259
 10
21.57835832793888
 20
-18.43814221761259
 10
21.51185971684432
 20
-18.48188666204635
 10
21.44624305019384
 20
-18.52513721759098
 10
21.3797444390996
 20
-18.56958721757994
 10
21.23383555024724
 20
-18.90222138416345
 10
21.43640055019661
 20
-20.31125110603338
 10
21.2488286057989
 20
-21.01440777252422
 10
21.00163721697169
 20
-21.93526360562743
 10
20.86747582811641
 20
-23.10006527200265
 10
20.6857247170508
 20
-24.21815916061225
 10
20.6857247170508
 20
-24.21815916061225
 10
20.6857247170508
 20
-29.00838749274796
 10
20.6857247170508
 20
-29.00838749274796
 10
20.81801638368439
 20
-29.39287999265182
 10
20.9501316614291
 20
-29.77871304811072
 10
21.0819294391739
 20
-30.16422860357002
 10
21.35099305021782
 20
-31.36621304771385
 10
21.28654055023383
 20
-32.43851638077913
 10
21.6122955501526
 20
-33.53318582494992
 10
21.84068388342877
 20
-34.30386415809077
 10
22.29717832775905
 20
-35.01008999124762
 10
22.66837110544406
 20
-35.64759471331046
 10
22.75589527208877
 20
-35.88981193547212
 10
22.84426610540005
 20
-36.13181749096707
 10
22.93263693871133
 20
-36.37435221312866
 10
23.62852638298182
 20
-37.73173526834496
 10
24.79399832713471
 20
-38.84051582362333
 10
25.95068610462333
 20
-39.80723276782592
 10
25.90986971574487
 20
-39.86268943447892
 10
25.87127582686553
 20
-39.92040387890888
 10
25.82753138243209
 20
-39.97430832333979
 10
25.81564277132397
 20
-40.14226582329776
 10
25.75020249356238
 20
-40.31449193436573
 10
25.60016610471104
 20
-40.4736652676591
 10
25.60016610471104
 20
-40.4736652676591
 10
23.590638049658
 20
-42.61619054490125
 10
23.590638049658
 20
-42.61619054490125
 10
23.55306721633411
 20
-42.72435221154084
 10
23.49348304968213
 20
-42.84528443373296
 10
23.38426304970958
 20
-42.99962471147214
 10
23.38426304970958
 20
-42.99962471147214
 10
21.95956999451
 20
-44.04416443343325
 10
21.95956999451
 20
-44.04416443343325
 10
21.19594721692311
 20
-44.63810109995153
 10
20.440614717112
 20
-45.44631498863811
 10
20.0046519394434
 20
-46.21113721066965
 10
19.95124138390097
 20
-46.37062804396262
 10
19.8974780505811
 20
-46.53082443281176
 10
19.84477305059451
 20
-46.68897471055
 10
19.5750391617729
 20
-47.14786804376828
 10
18.9950372174733
 20
-47.60122276587751
 10
19.03691193968537
 20
-48.05150832132072
 10
19.17368388409538
 20
-48.15864693240454
 10
19.22053277297267
 20
-48.16690193240249
 10
19.35557610627236
 20
-48.29817054348096
 10
19.35557610627236
 20
-48.29817054348096
 10
19.17368388409538
 20
-48.51936221009247
 10
19.17368388409538
 20
-48.51936221009247
 10
19.17368388409538
 20
-48.51936221009247
 10
19.20451666186558
 20
-48.62579526562141
 10
19.20451666186558
 20
-48.62579526562141
 10
19.24808471741013
 20
-48.74877359892378
 10
19.37522582848963
 20
-48.69677415449239
 10
19.4787308284636
 20
-48.75223082114507
 10
19.66340999508418
 20
-48.93620443221045
 10
19.84978249503757
 20
-49.1188022099423
 10
20.03562582832431
 20
-49.3013999876748
 10
20.32952499491776
 20
-49.29967137656415
 10
20.66212388372344
 20
-48.96481470998087
 10
20.83664305034654
 20
-48.6151060989573
 10
21.03042388363131
 20
-48.6809344322745
 10
21.25761277246349
 20
-48.85869915445217
 10
21.41332888353556
 20
-48.92138776554768
 10
21.56562305016419
 20
-48.87626748778072
 10
21.73615582789936
 20
-48.68506193227315
 10
21.88996693897191
 20
-48.63546137672977
 10
21.96747221673051
 20
-48.61203693229129
 10
22.015026661163
 20
-48.62822943228758
 10
22.0937313833656
 20
-48.66989248783261
 10
22.21776805000125
 20
-49.1570433210442
 10
22.91658554982639
 20
-49.33791248766541
 10
23.32365582750248
 20
-49.53497415428291
 10
23.61561471631825
 20
-49.49017137651619
 10
23.71396916073812
 20
-49.55942165427652
 10
23.86608693847787
 20
-49.20837248769822
 10
24.24486443838314
 20
-49.22939804324806
 10
25.2864761047896
 20
-48.98478193219806
 10
25.62598943803785
 20
-48.52899304342331
 10
25.71954610468138
 20
-48.34674804346857
 10
25.812714715769
 20
-48.16379748795896
 10
25.90503666019037
 20
-47.98123498800463
 10
26.40855638228681
 20
-47.92059248802001
 10
26.95546777103893
 20
-48.39567832123459
 10
27.45965777091274
 20
-48.47180776565998
 10
27.86478777081147
 20
-48.53312054342197
 10
28.32763221514017
 20
-48.35606137679981
 10
28.73156277059489
 20
-48.51209498787213
 10
28.90244832610782
 20
-48.37878026568277
 10
28.87161554833763
 20
-48.22341693238845
 10
28.96171499275956
 20
-48.15381387685036
 10
28.96171499275956
 20
-48.15381387685036
 10
29.26968999268242
 20
-48.07666137686985
 10
29.26968999268242
 20
-48.07666137686985
 10
29.29452554823195
 20
-47.83723109915179
 10
29.31706804822635
 20
-47.5988238769895
 10
29.34169193710916
 20
-47.35801776593856
 10
29.36804443710229
 20
-47.34387137705315
 10
29.40095860376089
 20
-47.3321591548339
 10
29.43369638153061
 20
-47.31977665483666
 10
29.48382610374031
 20
-48.25305026571464
 10
29.5379069370601
 20
-49.20318665436564
 10
29.70360665924077
 20
-50.11511720969355
 10
29.84588193698296
 20
-50.89196915394393
 10
30.16041860357097
 20
-51.53448332044983
 10
30.29824888131426
 20
-52.1632391536256
 10
30.43431527016907
 20
-52.7764374868062
 10
30.38764277018098
 20
-53.95672609762219
 10
30.29824888131426
 20
-54.47523887526997
 10
30.33112777019502
 20
-54.85073554184315
 10
30.36559415907539
 20
-55.22489165286033
 10
30.3974499924007
 20
-55.59865970832287
 10
30.24346249243927
 20
-56.31388137481039
 10
30.16990832579076
 20
-57.24955387457638
 10
30.03451221471364
 20
-58.1098024854725
 10
30.01211082583028
 20
-59.20948137408668
 10
29.99006221472468
 20
-60.3112063738111
 10
29.96751971473028
 20
-61.41226109575817
 10
29.91290971474384
 20
-62.17193276223465
 10
29.8575941592022
 20
-62.93188665093385
 10
29.80301943699361
 20
-63.69155831741033
 10
29.80301943699361
 20
-63.69155831741033
 10
29.80301943699361
 20
-64.9455774837637
 10
29.80301943699361
 20
-64.9455774837637
 10
29.67795971480284
 20
-65.38792553920857
 10
29.74029554812059
 20
-65.91328220574388
 10
29.60542860370978
 20
-66.4662260944945
 10
29.47313693707619
 20
-66.84105248328969
 10
29.34013971488707
 20
-67.21587887208487
 10
29.2092591593642
 20
-67.58932942754717
 10
29.2092591593642
 20
-67.58932942754717
 10
29.2092591593642
 20
-68.74446498281402
 10
29.2092591593642
 20
-68.74446498281402
 10
28.98771471497525
 20
-70.00469303805446
 10
28.55295138175065
 20
-72.39557387078997
 10
30.43138721461442
 20
-72.24708970416073
 10
31.09524443667072
 20
-71.63731331542391
 10
30.71096360343326
 20
-70.11768776024822
 10
30.95833138114935
 20
-69.07519414939802
 10
31.19585665886756
 20
-68.08371220520158
 10
33.23981582502343
 20
-67.69717359418651
 10
32.74338693625846
 20
-66.4662260944945
 10
32.4707249918822
 20
-66.0121658168304
 10
31.99616832533426
 20
-65.87676970575328
 10
31.85198804759255
 20
-65.24423915035533
 10
31.71899082540343
 20
-64.66307303938957
 10
32.09434638086525
 20
-63.87553192847571
 10
32.21386749194664
 20
-63.39353165081855
 10
32.44574832522196
 20
-62.33763248441532
 10
32.67826415849711
 20
-61.27965192912433
 10
32.90788721399512
 20
-60.22371748494423
 10
33.04949221395996
 20
-59.76309554061466
 10
33.41345304720214
 20
-59.47854498513028
 10
33.53696054717146
 20
-58.96761692970245
 10
33.86218638042327
 20
-57.60578887448725
 10
33.13250082505009
 20
-56.11854831930353
 10
33.36988499165759
 20
-54.93755415293202
 10
33.55643388049985
 20
-54.01909720871745
 10
33.48806554718361
 20
-52.853978042342
 10
33.66893471380514
 20
-51.76668165372507
 10
33.8325530470974
 20
-50.5994810984612
 10
33.99842915816696
 20
-49.43263332097511
 10
34.1631058247925
 20
-48.26578554348901
 10
34.1631058247925
 20
-48.26578554348901
 10
34.22978082477594
 20
-44.92921332210074
 10
34.22978082477594
 20
-44.92921332210074
 10
34.3062630469791
 20
-44.53304387775548
 10
34.38394471362626
 20
-44.13719193341046
 10
34.46025054694053
 20
-43.74098721128704
 10
34.71209860243303
 20
-43.22183943363878
 10
35.10724499122316
 20
-43.04887248923777
 10
34.9901227690301
 20
-42.28648443387304
 10
35.03009249124233
 20
-42.18760082278652
 10
35.07863471345242
 20
-42.11182415613889
 10
35.12721221344036
 20
-42.03153193393668
 10
35.33168132083593
 20
-41.84413637842817
 10
35.53392881567617
 20
-41.65603526736349
 10
35.73596464385514
 20
-41.46722860074458
 10
36.23380554649712
 20
-41.23986332302353
 10
36.88647878116975
 20
-41.2546799896863
 10
37.66470653909328
 20
-41.06485026751162
 10
39.16228344533135
 20
-40.69072943427196
 10
40.65971924046192
 20
-40.31590304547678
 10
42.15729721168297
 20
-39.94121776779232
 10
42.15729721168297
 20
-39.94121776779232
 10
43.64351360878343
 20
-39.84166387892844
 10
43.64351360878343
 20
-39.84166387892844
 10
44.5475066412762
 20
-39.5788091567719
 10
45.4487480071725
 20
-39.31352026794951
 10
46.35305853965718
 20
-39.04964249023752
 10
46.8374576939658
 20
-38.78572943474802
 10
47.32115129273685
 20
-38.52100499036979
 10
47.80653822479805
 20
-38.25656276821364
 10
48.34466665458081
 20
-38.19041693489685
 10
48.88452125285196
 20
-38.12480026824669
 10
49.4247298501812
 20
-38.05900721270734
 10
50.51371954462098
 20
-37.71758887945956
 10
51.60510812788845
 20
-37.37617054621145
 10
52.69445060009701
 20
-37.03545776851887
 10
53.07238142378853
 20
-36.9159366574378
 10
54.10799720869537
 20
-36.71919249082022
 10
54.51174999817829
 20
-36.80414137968772
 10
54.71364471524974
 20
-36.84562804634419
 10
55.04229248464302
 20
-36.96451415742541
 10
55.37026997627562
 20
-36.90267221299647
 10
56.25013300938399
 20
-36.73676082414908
 10
57.1334532646264
 20
-36.4515047131095
 10
57.88070713445125
 20
-36.2417077687173
 10
58.31031990126869
 20
-36.15368971318379
 10
58.73989739030926
 20
-36.06514249098363
 10
59.16915737935793
 20
-35.97818276878309
 10
59.77861625269822
 20
-35.71790332440375
 10
60.21648401930506
 20
-35.24814443563247
 10
60.72152220704177
 20
-34.92087249126978
 10
60.74769678353047
 20
-34.44716249138808
 10
60.69294720704887
 20
-33.77931888044417
 10
60.32602151651053
 20
-33.59933165826672
 97
        0
 92
        1
 93
        1
 72
     4
 94
        3
 73
     0
 74
     1
 95
       95
 96
       91
 40
0.0
 40
0.0
 40
0.0
 40
0.0
 40
1.0
 40
1.0
 40
1.0
 40
2.0
 40
2.0
 40
2.0
 40
3.0
 40
3.0
 40
3.0
 40
4.0
 40
4.0
 40
4.0
 40
5.0
 40
5.0
 40
5.0
 40
6.0
 40
6.0
 40
6.0
 40
7.0
 40
7.0
 40
7.0
 40
8.0
 40
8.0
 40
8.0
 40
9.0
 40
9.0
 40
9.0
 40
10.0
 40
10.0
 40
10.0
 40
11.0
 40
11.0
 40
11.0
 40
12.0
 40
12.0
 40
12.0
 40
13.0
 40
13.0
 40
13.0
 40
14.0
 40
14.0
 40
14.0
 40
15.0
 40
15.0
 40
15.0
 40
16.0
 40
16.0
 40
16.0
 40
17.0
 40
17.0
 40
17.0
 40
18.0
 40
18.0
 40
18.0
 40
19.0
 40
19.0
 40
19.0
 40
20.0
 40
20.0
 40
20.0
 40
21.0
 40
21.0
 40
21.0
 40
22.0
 40
22.0
 40
22.0
 40
23.0
 40
23.0
 40
23.0
 40
24.0
 40
24.0
 40
24.0
 40
25.0
 40
25.0
 40
25.0
 40
26.0
 40
26.0
 40
26.0
 40
27.0
 40
27.0
 40
27.0
 40
28.0
 40
28.0
 40
28.0
 40
29.0
 40
29.0
 40
29.0
 40
30.0
 40
30.0
 40
30.0
 40
30.0
 10
24.71666943826531
 20
-22.07150638337112
 10
24.64036360495104
 20
-22.23604193888531
 10
24.56268193830388
 20
-22.4017416610663
 10
24.48531777165633
 20
-22.56691221658033
 10
24.32840221614024
 20
-22.67235749433199
 10
24.20729360505925
 20
-22.63030638323136
 10
24.08794888286706
 20
-22.76467943875337
 10
23.91723971624301
 20
-22.93521221648853
 10
24.15649360507187
 20
-23.18427332753711
 10
24.08794888286706
 20
-23.35928638304901
 10
23.97802332733867
 20
-23.49140166079373
 10
23.86778027181067
 20
-23.62457527187172
 10
23.75739610517164
 20
-23.75566749406099
 10
23.56978888299641
 20
-24.10583471619585
 10
23.41700082747898
 20
-24.63330804939709
 10
23.26318971640643
 20
-25.01137999374717
 10
23.30485277195146
 20
-25.6852561046899
 10
23.9799283273382
 20
-25.74416999356387
 10
24.1883494383975
 20
-26.26592832676686
 10
24.38713971612533
 20
-26.76803693775258
 10
23.91155999402227
 20
-27.58073110421589
 10
23.79147443849672
 20
-27.98416777078182
 10
23.74755360517408
 20
-27.99503332633449
 10
23.70310360518544
 20
-28.0068866596651
 10
23.66006471630721
 20
-28.01672915966233
 10
23.63646388297985
 20
-27.66737332641652
 10
23.48452249412898
 20
-27.55713027088852
 10
23.3961516608177
 20
-27.29050082651077
 10
23.16483527198656
 20
-26.61076860445842
 10
22.95433277203916
 20
-25.77913027133304
 10
22.80048638318877
 20
-25.17640943815048
 10
22.85509638317521
 20
-24.70269943826878
 10
22.91072943871677
 20
-24.22902471616493
 10
22.96639777203617
 20
-23.75566749406099
 10
23.09935971644744
 20
-22.91799666093711
 10
22.81032888318633
 20
-21.89307138341576
 10
22.96639777203617
 20
-21.11293860583297
 10
23.05459221645856
 20
-20.66713332816649
 10
23.25733360529681
 20
-20.26302638382321
 10
23.29589221639831
 20
-19.7259222172908
 10
23.47538554968663
 20
-19.64566527286643
 10
23.63353582742488
 20
-19.75072249506217
 10
23.85694999403584
 20
-19.69318443952108
 10
24.24211277171737
 20
-19.53835027289309
 10
24.62829860495404
 20
-19.38520943959822
 10
25.01346138263558
 20
-19.23033999519239
 10
26.80250332663262
 20
-19.24049999518986
 10
28.16881165962456
 20
-20.08646110608953
 10
29.30743721489551
 20
-20.81561749479607
 10
29.70360665924077
 20
-21.06986443917689
 10
30.32096777019754
 20
-21.35596721688336
 10
30.43138721461442
 20
-21.87359805008705
 10
30.53732638125456
 20
-22.37418971662852
 10
30.16613360356955
 20
-22.97345332759011
 10
30.06689721470559
 20
-23.39287082748497
 10
29.923739992519
 20
-24.17388554951217
 10
29.78061804811025
 20
-24.95627610487193
 10
29.63883665925686
 20
-25.73743193801017
 10
29.14293693715885
 20
-26.57478527113413
 10
28.64735471506043
 20
-27.41108027092512
 10
28.15261915962858
 20
-28.248751104049
 10
27.94610304856912
 20
-28.14919721518481
 10
27.87667638191959
 20
-28.04840860409909
 10
27.52527443756321
 20
-28.04996082632085
 10
27.52527443756321
 20
-28.04996082632085
 10
27.49049054868293
 20
-27.98416777078182
 10
27.49049054868293
 20
-27.98416777078182
 10
27.54629999311337
 20
-27.7993474930502
 10
27.79123360416328
 20
-27.57438110421747
 10
27.95315860412274
 20
-27.48840915979452
 10
27.92853471523994
 20
-27.2314105487476
 10
27.84016388192898
 20
-27.15595138209989
 10
27.75542665972788
 20
-26.96044193770447
 10
27.75542665972788
 20
-26.96044193770447
 10
27.78745888194207
 20
-26.89380221549887
 10
27.78745888194207
 20
-26.89380221549887
 10
29.25970638157382
 20
-26.66315610444541
 10
30.03814582582381
 20
-24.31753666058724
 10
29.275404992681
 20
-22.66544304988909
 10
29.08659832606176
 20
-22.26048943887924
 10
28.64735471506043
 20
-21.95043305006797
 10
28.28371138181785
 20
-21.7077219390175
 10
27.71182332640548
 20
-21.32375860578028
 10
27.00005888213893
 20
-20.7760005503616
 10
26.10365054902964
 20
-21.17908443914977
 10
25.90503666019037
 20
-21.35596721688336
 10
25.70748110468438
 20
-21.53200332795039
 10
25.51006666028912
 20
-21.7077219390175
 10
25.24601249368857
 20
-21.82932443898697
 10
24.98089999375474
 20
-21.95008027229021
 10
24.71666943826531
 20
-22.07150638337112
 97
        0
 75
     0
 76
     1
 98
        0
  0
ENDSEC
  0
SECTION
  2
OBJECTS
  0
DICTIONARY
  5
C
330
0
100
AcDbDictionary
281
     1
  3
ACAD_GROUP
350
D
  3
ACAD_LAYOUT
350
1A
  3
ACAD_MATERIAL
350
3B
  3
ACAD_MLEADERSTYLE
350
65
  3
ACAD_MLINESTYLE
350
17
  3
ACAD_PLOTSETTINGS
350
19
  3
ACAD_PLOTSTYLENAME
350
E
  3
ACAD_TABLESTYLE
350
64
  3
ACAD_VISUALSTYLE
350
2A
  0
SUN
  5
3F
330
29
100
AcDbSun
 90
        1
290
     0
 63
     7
421
 16777215
 40
1.0
291
     1
 91
  2455826
 92
 54000000
292
     0
 70
     2
 71
   256
280
     1
  0
DICTIONARY
  5
D
102
{ACAD_REACTORS
330
C
102
}
330
C
100
AcDbDictionary
281
     1
  0
DICTIONARY
  5
1A
102
{ACAD_REACTORS
330
C
102
}
330
C
100
AcDbDictionary
281
     1
  3
Layout1
350
1E
  3
Layout2
350
26
  3
Model
350
22
  0
DICTIONARY
  5
3B
102
{ACAD_REACTORS
330
C
102
}
330
C
100
AcDbDictionary
281
     1
  3
ByBlock
350
3D
  3
ByLayer
350
3C
  3
Global
350
3E
  0
DICTIONARY
  5
65
102
{ACAD_REACTORS
330
C
102
}
330
C
100
AcDbDictionary
281
     1
  0
DICTIONARY
  5
17
102
{ACAD_REACTORS
330
C
102
}
330
C
100
AcDbDictionary
281
     1
  3
Standard
350
18
  0
DICTIONARY
  5
19
102
{ACAD_REACTORS
330
C
102
}
330
C
100
AcDbDictionary
281
     1
  0
ACDBDICTIONARYWDFLT
  5
E
102
{ACAD_REACTORS
330
C
102
}
330
C
100
AcDbDictionary
281
     1
  3
Normal
350
F
100
AcDbDictionaryWithDefault
340
F
  0
DICTIONARY
  5
64
102
{ACAD_REACTORS
330
C
102
}
330
C
100
AcDbDictionary
281
     1
  0
DICTIONARY
  5
2A
102
{ACAD_REACTORS
330
C
102
}
330
C
100
AcDbDictionary
281
     1
  3
2dWireframe
350
2F
  3
3D Hidden
350
31
  3
3dWireframe
350
30
  3
Basic
350
32
  3
Brighten
350
36
  3
ColorChange
350
3A
  3
Conceptual
350
34
  3
Dim
350
35
  3
Facepattern
350
39
  3
Flat
350
2B
  3
FlatWithEdges
350
2C
  3
Gouraud
350
2D
  3
GouraudWithEdges
350
2E
  3
Linepattern
350
38
  3
Realistic
350
33
  3
Thicken
350
37
  0
LAYOUT
  5
1E
102
{ACAD_REACTORS
330
1A
102
}
330
1A
100
AcDbPlotSettings
  1

  2
none_device
  4

  6

 40
0.0
 41
0.0
 42
0.0
 43
0.0
 44
0.0
 45
0.0
 46
0.0
 47
0.0
 48
0.0
 49
0.0
140
0.0
141
0.0
142
1.0
143
1.0
 70
   688
 72
     0
 73
     0
 74
     5
  7

 75
    16
 76
     0
 77
     2
 78
   300
147
1.0
148
0.0
149
0.0
100
AcDbLayout
  1
Layout1
 70
     1
 71
     1
 10
0.0
 20
0.0
 11
12.0
 21
9.0
 12
0.0
 22
0.0
 32
0.0
 14
1.000000000000000E+20
 24
1.000000000000000E+20
 34
1.000000000000000E+20
 15
-1.000000000000000E+20
 25
-1.000000000000000E+20
 35
-1.000000000000000E+20
146
0.0
 13
0.0
 23
0.0
 33
0.0
 16
1.0
 26
0.0
 36
0.0
 17
0.0
 27
1.0
 37
0.0
 76
     0
330
1B
  0
LAYOUT
  5
26
102
{ACAD_REACTORS
330
1A
102
}
330
1A
100
AcDbPlotSettings
  1

  2
none_device
  4

  6

 40
0.0
 41
0.0
 42
0.0
 43
0.0
 44
0.0
 45
0.0
 46
0.0
 47
0.0
 48
0.0
 49
0.0
140
0.0
141
0.0
142
1.0
143
1.0
 70
   688
 72
     0
 73
     0
 74
     5
  7

 75
    16
 76
     0
 77
     2
 78
   300
147
1.0
148
0.0
149
0.0
100
AcDbLayout
  1
Layout2
 70
     1
 71
     2
 10
0.0
 20
0.0
 11
0.0
 21
0.0
 12
0.0
 22
0.0
 32
0.0
 14
0.0
 24
0.0
 34
0.0
 15
0.0
 25
0.0
 35
0.0
146
0.0
 13
0.0
 23
0.0
 33
0.0
 16
1.0
 26
0.0
 36
0.0
 17
0.0
 27
1.0
 37
0.0
 76
     0
330
23
  0
LAYOUT
  5
22
102
{ACAD_REACTORS
330
1A
102
}
330
1A
100
AcDbPlotSettings
  1

  2
none_device
  4

  6

 40
0.0
 41
0.0
 42
0.0
 43
0.0
 44
0.0
 45
0.0
 46
0.0
 47
0.0
 48
0.0
 49
0.0
140
0.0
141
0.0
142
1.0
143
1.0
 70
  1712
 72
     0
 73
     0
 74
     0
  7

 75
     0
 76
     0
 77
     2
 78
   300
147
1.0
148
0.0
149
0.0
100
AcDbLayout
  1
Model
 70
     1
 71
     0
 10
0.0
 20
0.0
 11
12.0
 21
9.0
 12
0.0
 22
0.0
 32
0.0
 14
1.000000000000000E+20
 24
1.000000000000000E+20
 34
1.000000000000000E+20
 15
-1.000000000000000E+20
 25
-1.000000000000000E+20
 35
-1.000000000000000E+20
146
0.0
 13
0.0
 23
0.0
 33
0.0
 16
1.0
 26
0.0
 36
0.0
 17
0.0
 27
1.0
 37
0.0
 76
     0
330
1F
331
29
  0
MATERIAL
  5
3D
102
{ACAD_REACTORS
330
3B
102
}
330
3B
100
AcDbMaterial
  1
ByBlock
 72
     1
 94
      127
  0
MATERIAL
  5
3C
102
{ACAD_REACTORS
330
3B
102
}
330
3B
100
AcDbMaterial
  1
ByLayer
 72
     1
 94
      127
  0
MATERIAL
  5
3E
102
{ACAD_REACTORS
330
3B
102
}
330
3B
100
AcDbMaterial
  1
Global
 72
     1
 94
      127
  0
MLINESTYLE
  5
18
102
{ACAD_REACTORS
330
17
102
}
330
17
100
AcDbMlineStyle
  2
Standard
 70
     0
  3

 62
   256
 51
90.0
 52
90.0
 71
     2
 49
0.5
 62
   256
  6
BYLAYER
 49
-0.5
 62
   256
  6
BYLAYER
  0
ACDBPLACEHOLDER
  5
F
102
{ACAD_REACTORS
330
E
102
}
330
E
  0
VISUALSTYLE
  5
2F
102
{ACAD_REACTORS
330
2A
102
}
102
{ACAD_XDICTIONARY
360
4C
102
}
330
2A
100
AcDbVisualStyle
  2
2dWireframe
 70
     4
 71
     0
 72
     2
 73
     0
 90
        0
 40
-0.6
 41
-30.0
 62
     5
 63
     7
421
 16777215
 74
     1
 91
        4
 64
     7
 65
   257
 75
     1
175
     1
 42
1.0
 92
        0
 66
   257
 43
1.0
 76
     1
 77
     6
 78
     2
 67
     7
 79
     5
170
     0
171
     0
290
     0
174
     0
 93
        1
 44
0.0
173
     0
291
     0
 45
0.0
  0
VISUALSTYLE
  5
31
102
{ACAD_REACTORS
330
2A
102
}
102
{ACAD_XDICTIONARY
360
50
102
}
330
2A
100
AcDbVisualStyle
  2
3D Hidden
 70
     6
 71
     1
 72
     2
 73
     2
 90
        0
 40
-0.6
 41
-30.0
 62
     5
 63
     7
421
 16777215
 74
     2
 91
        2
 64
     7
 65
   257
 75
     2
175
     1
 42
40.0
 92
        0
 66
   257
 43
1.0
 76
     1
 77
     6
 78
     2
 67
     7
 79
     3
170
     0
171
     0
290
     0
174
     0
 93
        1
 44
0.0
173
     0
291
     0
 45
0.0
  0
VISUALSTYLE
  5
30
102
{ACAD_REACTORS
330
2A
102
}
102
{ACAD_XDICTIONARY
360
4E
102
}
330
2A
100
AcDbVisualStyle
  2
3dWireframe
 70
     5
 71
     0
 72
     2
 73
     0
 90
        0
 40
-0.6
 41
-30.0
 62
     5
 63
     7
421
 16777215
 74
     1
 91
        4
 64
     7
 65
   257
 75
     1
175
     1
 42
1.0
 92
        0
 66
   257
 43
1.0
 76
     1
 77
     6
 78
     2
 67
     7
 79
     5
170
     0
171
     0
290
     0
174
     0
 93
        1
 44
0.0
173
     0
291
     0
 45
0.0
  0
VISUALSTYLE
  5
32
102
{ACAD_REACTORS
330
2A
102
}
102
{ACAD_XDICTIONARY
360
52
102
}
330
2A
100
AcDbVisualStyle
  2
Basic
 70
     7
 71
     1
 72
     0
 73
     1
 90
        0
 40
-0.6
 41
-30.0
 62
     5
 63
     7
421
 16777215
 74
     0
 91
        4
 64
     7
 65
   257
 75
     1
175
     1
 42
1.0
 92
        8
 66
     7
 43
1.0
 76
     1
 77
     6
 78
     2
 67
     7
 79
     5
170
     0
171
     0
290
     0
174
     0
 93
        1
 44
0.0
173
     0
291
     1
 45
0.0
  0
VISUALSTYLE
  5
36
102
{ACAD_REACTORS
330
2A
102
}
102
{ACAD_XDICTIONARY
360
5A
102
}
330
2A
100
AcDbVisualStyle
  2
Brighten
 70
    12
 71
     2
 72
     2
 73
     0
 90
        0
 40
-0.6
 41
-30.0
 62
     5
 63
     7
421
 16777215
 74
     1
 91
        4
 64
     7
 65
   257
 75
     1
175
     1
 42
1.0
 92
        8
 66
     7
 43
1.0
 76
     1
 77
     6
 78
     2
 67
     7
 79
     5
170
     0
171
     0
290
     0
174
     0
 93
        1
 44
50.0
173
     0
291
     1
 45
0.0
  0
VISUALSTYLE
  5
3A
102
{ACAD_REACTORS
330
2A
102
}
102
{ACAD_XDICTIONARY
360
62
102
}
330
2A
100
AcDbVisualStyle
  2
ColorChange
 70
    16
 71
     2
 72
     2
 73
     3
 90
        0
 40
-0.6
 41
-30.0
 62
     5
 63
     8
421
  8421504
 74
     1
 91
        4
 64
     7
 65
   257
 75
     1
175
     1
 42
1.0
 92
        8
 66
     8
424
  8421504
 43
1.0
 76
     1
 77
     6
 78
     2
 67
     7
 79
     5
170
     0
171
     0
290
     0
174
     0
 93
        1
 44
0.0
173
     0
291
     1
 45
0.0
  0
VISUALSTYLE
  5
34
102
{ACAD_REACTORS
330
2A
102
}
102
{ACAD_XDICTIONARY
360
56
102
}
330
2A
100
AcDbVisualStyle
  2
Conceptual
 70
     9
 71
     3
 72
     2
 73
     0
 90
        0
 40
-0.6
 41
-30.0
 62
     5
 63
     7
421
 16777215
 74
     2
 91
        2
 64
     7
 65
   257
 75
     1
175
     1
 42
40.0
 92
        8
 66
     7
 43
1.0
 76
     1
 77
     6
 78
     2
 67
     7
 79
     3
170
     0
171
     0
290
     0
174
     0
 93
        1
 44
0.0
173
     0
291
     0
 45
0.0
  0
VISUALSTYLE
  5
35
102
{ACAD_REACTORS
330
2A
102
}
102
{ACAD_XDICTIONARY
360
58
102
}
330
2A
100
AcDbVisualStyle
  2
Dim
 70
    11
 71
     2
 72
     2
 73
     0
 90
        0
 40
-0.6
 41
-30.0
 62
     5
 63
     7
421
 16777215
 74
     1
 91
        4
 64
     7
 65
   257
 75
     1
175
     1
 42
1.0
 92
        8
 66
     7
 43
1.0
 76
     1
 77
     6
 78
     2
 67
     7
 79
     5
170
     0
171
     0
290
     0
174
     0
 93
        1
 44
-50.0
173
     0
291
     1
 45
0.0
  0
VISUALSTYLE
  5
39
102
{ACAD_REACTORS
330
2A
102
}
102
{ACAD_XDICTIONARY
360
60
102
}
330
2A
100
AcDbVisualStyle
  2
Facepattern
 70
    15
 71
     2
 72
     2
 73
     0
 90
        0
 40
-0.6
 41
-30.0
 62
     5
 63
     7
421
 16777215
 74
     1
 91
        4
 64
     7
 65
   257
 75
     1
175
     1
 42
1.0
 92
        8
 66
     7
 43
1.0
 76
     1
 77
     6
 78
     2
 67
     7
 79
     5
170
     0
171
     0
290
     0
174
     0
 93
        1
 44
0.0
173
     0
291
     1
 45
0.0
  0
VISUALSTYLE
  5
2B
102
{ACAD_REACTORS
330
2A
102
}
102
{ACAD_XDICTIONARY
360
44
102
}
330
2A
100
AcDbVisualStyle
  2
Flat
 70
     0
 71
     2
 72
     1
 73
     1
 90
        2
 40
-0.6
 41
30.0
 62
     5
 63
     7
421
 16777215
 74
     0
 91
        4
 64
     7
 65
   257
 75
     1
175
     1
 42
1.0
 92
        8
 66
     7
 43
1.0
 76
     1
 77
     6
 78
     2
 67
     7
 79
     5
170
     0
171
     0
290
     0
174
     0
 93
       13
 44
0.0
173
     0
291
     1
 45
0.0
  0
VISUALSTYLE
  5
2C
102
{ACAD_REACTORS
330
2A
102
}
102
{ACAD_XDICTIONARY
360
46
102
}
330
2A
100
AcDbVisualStyle
  2
FlatWithEdges
 70
     1
 71
     2
 72
     1
 73
     1
 90
        2
 40
-0.6
 41
30.0
 62
     5
 63
     7
421
 16777215
 74
     1
 91
        4
 64
     7
 65
   257
 75
     1
175
     1
 42
1.0
 92
        0
 66
   257
 43
1.0
 76
     1
 77
     6
 78
     2
 67
     7
 79
     5
170
     0
171
     0
290
     0
174
     0
 93
       13
 44
0.0
173
     0
291
     1
 45
0.0
  0
VISUALSTYLE
  5
2D
102
{ACAD_REACTORS
330
2A
102
}
102
{ACAD_XDICTIONARY
360
48
102
}
330
2A
100
AcDbVisualStyle
  2
Gouraud
 70
     2
 71
     2
 72
     2
 73
     1
 90
        2
 40
-0.6
 41
30.0
 62
     5
 63
     7
421
 16777215
 74
     0
 91
        4
 64
     7
 65
   257
 75
     1
175
     1
 42
1.0
 92
        0
 66
     7
 43
1.0
 76
     1
 77
     6
 78
     2
 67
     7
 79
     5
170
     0
171
     0
290
     0
174
     0
 93
       13
 44
0.0
173
     0
291
     1
 45
0.0
  0
VISUALSTYLE
  5
2E
102
{ACAD_REACTORS
330
2A
102
}
102
{ACAD_XDICTIONARY
360
4A
102
}
330
2A
100
AcDbVisualStyle
  2
GouraudWithEdges
 70
     3
 71
     2
 72
     2
 73
     1
 90
        2
 40
-0.6
 41
30.0
 62
     5
 63
     7
421
 16777215
 74
     1
 91
        4
 64
     7
 65
   257
 75
     1
175
     1
 42
1.0
 92
        0
 66
   257
 43
1.0
 76
     1
 77
     6
 78
     2
 67
     7
 79
     5
170
     0
171
     0
290
     0
174
     0
 93
       13
 44
0.0
173
     0
291
     1
 45
0.0
  0
VISUALSTYLE
  5
38
102
{ACAD_REACTORS
330
2A
102
}
102
{ACAD_XDICTIONARY
360
5E
102
}
330
2A
100
AcDbVisualStyle
  2
Linepattern
 70
    14
 71
     2
 72
     2
 73
     0
 90
        0
 40
-0.6
 41
-30.0
 62
     5
 63
     7
421
 16777215
 74
     1
 91
        4
 64
     7
 65
   257
 75
     7
175
     7
 42
1.0
 92
        8
 66
     7
 43
1.0
 76
     1
 77
     6
 78
     2
 67
     7
 79
     5
170
     0
171
     0
290
     0
174
     0
 93
        1
 44
0.0
173
     0
291
     1
 45
0.0
  0
VISUALSTYLE
  5
33
102
{ACAD_REACTORS
330
2A
102
}
102
{ACAD_XDICTIONARY
360
54
102
}
330
2A
100
AcDbVisualStyle
  2
Realistic
 70
     8
 71
     2
 72
     2
 73
     0
 90
        0
 40
-0.6
 41
-30.0
 62
     5
 63
     7
421
 16777215
 74
     1
 91
        0
 64
     7
 65
   257
 75
     1
175
     1
 42
1.0
 92
        8
 66
     8
424
  7895160
 43
1.0
 76
     1
 77
     6
 78
     2
 67
     7
 79
     5
170
     0
171
     0
290
     0
174
     0
 93
       13
 44
0.0
173
     0
291
     0
 45
0.0
  0
VISUALSTYLE
  5
37
102
{ACAD_REACTORS
330
2A
102
}
102
{ACAD_XDICTIONARY
360
5C
102
}
330
2A
100
AcDbVisualStyle
  2
Thicken
 70
    13
 71
     2
 72
     2
 73
     0
 90
        0
 40
-0.6
 41
-30.0
 62
     5
 63
     7
421
 16777215
 74
     1
 91
        4
 64
     7
 65
   257
 75
     1
175
     1
 42
1.0
 92
       12
 66
     7
 43
1.0
 76
     1
 77
     6
 78
     2
 67
     7
 79
     5
170
     0
171
     0
290
     0
174
     0
 93
        1
 44
0.0
173
     0
291
     1
 45
0.0
  0
DICTIONARY
  5
4C
330
2F
100
AcDbDictionary
280
     1
281
     1
  3
ACAD_XREC_ROUNDTRIP
360
4D
  0
DICTIONARY
  5
50
330
31
100
AcDbDictionary
280
     1
281
     1
  3
ACAD_XREC_ROUNDTRIP
360
51
  0
DICTIONARY
  5
4E
330
30
100
AcDbDictionary
280
     1
281
     1
  3
ACAD_XREC_ROUNDTRIP
360
4F
  0
DICTIONARY
  5
52
330
32
100
AcDbDictionary
280
     1
281
     1
  3
ACAD_XREC_ROUNDTRIP
360
53
  0
DICTIONARY
  5
5A
330
36
100
AcDbDictionary
280
     1
281
     1
  3
ACAD_XREC_ROUNDTRIP
360
5B
  0
DICTIONARY
  5
62
330
3A
100
AcDbDictionary
280
     1
281
     1
  3
ACAD_XREC_ROUNDTRIP
360
63
  0
DICTIONARY
  5
56
330
34
100
AcDbDictionary
280
     1
281
     1
  3
ACAD_XREC_ROUNDTRIP
360
57
  0
DICTIONARY
  5
58
330
35
100
AcDbDictionary
280
     1
281
     1
  3
ACAD_XREC_ROUNDTRIP
360
59
  0
DICTIONARY
  5
60
330
39
100
AcDbDictionary
280
     1
281
     1
  3
ACAD_XREC_ROUNDTRIP
360
61
  0
DICTIONARY
  5
44
330
2B
100
AcDbDictionary
280
     1
281
     1
  3
ACAD_XREC_ROUNDTRIP
360
45
  0
DICTIONARY
  5
46
330
2C
100
AcDbDictionary
280
     1
281
     1
  3
ACAD_XREC_ROUNDTRIP
360
47
  0
DICTIONARY
  5
48
330
2D
100
AcDbDictionary
280
     1
281
     1
  3
ACAD_XREC_ROUNDTRIP
360
49
  0
DICTIONARY
  5
4A
330
2E
100
AcDbDictionary
280
     1
281
     1
  3
ACAD_XREC_ROUNDTRIP
360
4B
  0
DICTIONARY
  5
5E
330
38
100
AcDbDictionary
280
     1
281
     1
  3
ACAD_XREC_ROUNDTRIP
360
5F
  0
DICTIONARY
  5
54
330
33
100
AcDbDictionary
280
     1
281
     1
  3
ACAD_XREC_ROUNDTRIP
360
55
  0
DICTIONARY
  5
5C
330
37
100
AcDbDictionary
280
     1
281
     1
  3
ACAD_XREC_ROUNDTRIP
360
5D
  0
XRECORD
  5
4D
102
{ACAD_REACTORS
330
4C
102
}
330
4C
100
AcDbXrecord
280
     1
102
RTVSPropertyOp0
 70
     1
102
RTVSPropertyOp1
 70
     1
102
RTVSPropertyOp2
 70
     1
102
RTVSPropertyOp3
 70
     1
102
RTVSPropertyOp4
 70
     1
102
RTVSPropertyOp5
 70
     1
102
RTVSPropertyOp6
 70
     1
102
RTVSPropertyOp7
 70
     1
102
RTVSPropertyOp8
 70
     1
102
RTVSPropertyOp9
 70
     1
102
RTVSPropertyOp10
 70
     1
102
RTVSPropertyOp11
 70
     1
102
RTVSPropertyOp12
 70
     1
102
RTVSPropertyOp13
 70
     1
102
RTVSPropertyOp14
 70
     1
102
RTVSPropertyOp15
 70
     1
102
RTVSPropertyOp16
 70
     1
102
RTVSPropertyOp17
 70
     1
102
RTVSPropertyOp18
 70
     1
102
RTVSPropertyOp19
 70
     1
102
RTVSPropertyOp20
 70
     1
102
RTVSPropertyOp21
 70
     1
102
RTVSPropertyOp22
 70
     1
102
RTVSPropertyOp23
 70
     1
102
RTVSPropertyOp24
 70
     1
102
RTVSPropertyOp25
 70
     1
102
RTVSPropertyOp26
 70
     1
102
RTVSPropertyOp27
 70
     1
102
RTVSPropertyOp28
 70
     1
102
RTVSPropertyOp29
 70
     1
102
RTVSPropertyOp30
 70
     1
102
RTVSPropertyOp31
 70
     1
102
RTVSPropertyOp32
 70
     1
  0
XRECORD
  5
51
102
{ACAD_REACTORS
330
50
102
}
330
50
100
AcDbXrecord
280
     1
102
RTVSPropertyOp0
 70
     1
102
RTVSPropertyOp1
 70
     1
102
RTVSPropertyOp2
 70
     1
102
RTVSPropertyOp3
 70
     1
102
RTVSPropertyOp4
 70
     1
102
RTVSPropertyOp5
 70
     1
102
RTVSPropertyOp6
 70
     1
102
RTVSPropertyOp7
 70
     1
102
RTVSPropertyOp8
 70
     1
102
RTVSPropertyOp9
 70
     1
102
RTVSPropertyOp10
 70
     1
102
RTVSPropertyOp11
 70
     1
102
RTVSPropertyOp12
 70
     1
102
RTVSPropertyOp13
 70
     1
102
RTVSPropertyOp14
 70
     1
102
RTVSPropertyOp15
 70
     1
102
RTVSPropertyOp16
 70
     1
102
RTVSPropertyOp17
 70
     1
102
RTVSPropertyOp18
 70
     1
102
RTVSPropertyOp19
 70
     1
102
RTVSPropertyOp20
 70
     1
102
RTVSPropertyOp21
 70
     1
102
RTVSPropertyOp22
 70
     1
102
RTVSPropertyOp23
 70
     1
102
RTVSPropertyOp24
 70
     1
102
RTVSPropertyOp25
 70
     1
102
RTVSPropertyOp26
 70
     1
102
RTVSPropertyOp27
 70
     1
102
RTVSPropertyOp28
 70
     1
102
RTVSPropertyOp29
 70
     1
102
RTVSPropertyOp30
 70
     1
102
RTVSPropertyOp31
 70
     1
102
RTVSPropertyOp32
 70
     1
  0
XRECORD
  5
4F
102
{ACAD_REACTORS
330
4E
102
}
330
4E
100
AcDbXrecord
280
     1
102
RTVSPropertyOp0
 70
     1
102
RTVSPropertyOp1
 70
     1
102
RTVSPropertyOp2
 70
     1
102
RTVSPropertyOp3
 70
     1
102
RTVSPropertyOp4
 70
     1
102
RTVSPropertyOp5
 70
     1
102
RTVSPropertyOp6
 70
     1
102
RTVSPropertyOp7
 70
     1
102
RTVSPropertyOp8
 70
     1
102
RTVSPropertyOp9
 70
     1
102
RTVSPropertyOp10
 70
     1
102
RTVSPropertyOp11
 70
     1
102
RTVSPropertyOp12
 70
     1
102
RTVSPropertyOp13
 70
     1
102
RTVSPropertyOp14
 70
     1
102
RTVSPropertyOp15
 70
     1
102
RTVSPropertyOp16
 70
     1
102
RTVSPropertyOp17
 70
     1
102
RTVSPropertyOp18
 70
     1
102
RTVSPropertyOp19
 70
     1
102
RTVSPropertyOp20
 70
     1
102
RTVSPropertyOp21
 70
     1
102
RTVSPropertyOp22
 70
     1
102
RTVSPropertyOp23
 70
     1
102
RTVSPropertyOp24
 70
     1
102
RTVSPropertyOp25
 70
     1
102
RTVSPropertyOp26
 70
     1
102
RTVSPropertyOp27
 70
     1
102
RTVSPropertyOp28
 70
     1
102
RTVSPropertyOp29
 70
     1
102
RTVSPropertyOp30
 70
     1
102
RTVSPropertyOp31
 70
     1
102
RTVSPropertyOp32
 70
     1
  0
XRECORD
  5
53
102
{ACAD_REACTORS
330
52
102
}
330
52
100
AcDbXrecord
280
     1
102
RTVSPropertyOp0
 70
     1
102
RTVSPropertyOp1
 70
     1
102
RTVSPropertyOp2
 70
     1
102
RTVSPropertyOp3
 70
     1
102
RTVSPropertyOp4
 70
     1
102
RTVSPropertyOp5
 70
     1
102
RTVSPropertyOp6
 70
     1
102
RTVSPropertyOp7
 70
     1
102
RTVSPropertyOp8
 70
     1
102
RTVSPropertyOp9
 70
     1
102
RTVSPropertyOp10
 70
     1
102
RTVSPropertyOp11
 70
     1
102
RTVSPropertyOp12
 70
     1
102
RTVSPropertyOp13
 70
     1
102
RTVSPropertyOp14
 70
     1
102
RTVSPropertyOp15
 70
     1
102
RTVSPropertyOp16
 70
     1
102
RTVSPropertyOp17
 70
     1
102
RTVSPropertyOp18
 70
     1
102
RTVSPropertyOp19
 70
     1
102
RTVSPropertyOp20
 70
     1
102
RTVSPropertyOp21
 70
     1
102
RTVSPropertyOp22
 70
     1
102
RTVSPropertyOp23
 70
     1
102
RTVSPropertyOp24
 70
     1
102
RTVSPropertyOp25
 70
     1
102
RTVSPropertyOp26
 70
     1
102
RTVSPropertyOp27
 70
     1
102
RTVSPropertyOp28
 70
     1
102
RTVSPropertyOp29
 70
     1
102
RTVSPropertyOp30
 70
     1
102
RTVSPropertyOp31
 70
     1
102
RTVSPropertyOp32
 70
     1
  0
XRECORD
  5
5B
102
{ACAD_REACTORS
330
5A
102
}
330
5A
100
AcDbXrecord
280
     1
102
RTVSPropertyOp0
 70
     1
102
RTVSPropertyOp1
 70
     1
102
RTVSPropertyOp2
 70
     1
102
RTVSPropertyOp3
 70
     1
102
RTVSPropertyOp4
 70
     1
102
RTVSPropertyOp5
 70
     1
102
RTVSPropertyOp6
 70
     1
102
RTVSPropertyOp7
 70
     1
102
RTVSPropertyOp8
 70
     1
102
RTVSPropertyOp9
 70
     1
102
RTVSPropertyOp10
 70
     1
102
RTVSPropertyOp11
 70
     1
102
RTVSPropertyOp12
 70
     1
102
RTVSPropertyOp13
 70
     1
102
RTVSPropertyOp14
 70
     1
102
RTVSPropertyOp15
 70
     1
102
RTVSPropertyOp16
 70
     1
102
RTVSPropertyOp17
 70
     1
102
RTVSPropertyOp18
 70
     1
102
RTVSPropertyOp19
 70
     1
102
RTVSPropertyOp20
 70
     1
102
RTVSPropertyOp21
 70
     1
102
RTVSPropertyOp22
 70
     1
102
RTVSPropertyOp23
 70
     1
102
RTVSPropertyOp24
 70
     1
102
RTVSPropertyOp25
 70
     1
102
RTVSPropertyOp26
 70
     1
102
RTVSPropertyOp27
 70
     1
102
RTVSPropertyOp28
 70
     1
102
RTVSPropertyOp29
 70
     1
102
RTVSPropertyOp30
 70
     1
102
RTVSPropertyOp31
 70
     1
102
RTVSPropertyOp32
 70
     1
  0
XRECORD
  5
63
102
{ACAD_REACTORS
330
62
102
}
330
62
100
AcDbXrecord
280
     1
102
RTVSPropertyOp0
 70
     1
102
RTVSPropertyOp1
 70
     1
102
RTVSPropertyOp2
 70
     1
102
RTVSPropertyOp3
 70
     1
102
RTVSPropertyOp4
 70
     1
102
RTVSPropertyOp5
 70
     1
102
RTVSPropertyOp6
 70
     1
102
RTVSPropertyOp7
 70
     1
102
RTVSPropertyOp8
 70
     1
102
RTVSPropertyOp9
 70
     1
102
RTVSPropertyOp10
 70
     1
102
RTVSPropertyOp11
 70
     1
102
RTVSPropertyOp12
 70
     1
102
RTVSPropertyOp13
 70
     1
102
RTVSPropertyOp14
 70
     1
102
RTVSPropertyOp15
 70
     1
102
RTVSPropertyOp16
 70
     1
102
RTVSPropertyOp17
 70
     1
102
RTVSPropertyOp18
 70
     1
102
RTVSPropertyOp19
 70
     1
102
RTVSPropertyOp20
 70
     1
102
RTVSPropertyOp21
 70
     1
102
RTVSPropertyOp22
 70
     1
102
RTVSPropertyOp23
 70
     1
102
RTVSPropertyOp24
 70
     1
102
RTVSPropertyOp25
 70
     1
102
RTVSPropertyOp26
 70
     1
102
RTVSPropertyOp27
 70
     1
102
RTVSPropertyOp28
 70
     1
102
RTVSPropertyOp29
 70
     1
102
RTVSPropertyOp30
 70
     1
102
RTVSPropertyOp31
 70
     1
102
RTVSPropertyOp32
 70
     1
  0
XRECORD
  5
57
102
{ACAD_REACTORS
330
56
102
}
330
56
100
AcDbXrecord
280
     1
102
RTVSPropertyOp0
 70
     1
102
RTVSPropertyOp1
 70
     1
102
RTVSPropertyOp2
 70
     1
102
RTVSPropertyOp3
 70
     1
102
RTVSPropertyOp4
 70
     1
102
RTVSPropertyOp5
 70
     1
102
RTVSPropertyOp6
 70
     1
102
RTVSPropertyOp7
 70
     1
102
RTVSPropertyOp8
 70
     1
102
RTVSPropertyOp9
 70
     1
102
RTVSPropertyOp10
 70
     1
102
RTVSPropertyOp11
 70
     1
102
RTVSPropertyOp12
 70
     1
102
RTVSPropertyOp13
 70
     1
102
RTVSPropertyOp14
 70
     1
102
RTVSPropertyOp15
 70
     1
102
RTVSPropertyOp16
 70
     1
102
RTVSPropertyOp17
 70
     1
102
RTVSPropertyOp18
 70
     1
102
RTVSPropertyOp19
 70
     1
102
RTVSPropertyOp20
 70
     1
102
RTVSPropertyOp21
 70
     1
102
RTVSPropertyOp22
 70
     1
102
RTVSPropertyOp23
 70
     1
102
RTVSPropertyOp24
 70
     1
102
RTVSPropertyOp25
 70
     1
102
RTVSPropertyOp26
 70
     1
102
RTVSPropertyOp27
 70
     1
102
RTVSPropertyOp28
 70
     1
102
RTVSPropertyOp29
 70
     1
102
RTVSPropertyOp30
 70
     1
102
RTVSPropertyOp31
 70
     1
102
RTVSPropertyOp32
 70
     1
  0
XRECORD
  5
59
102
{ACAD_REACTORS
330
58
102
}
330
58
100
AcDbXrecord
280
     1
102
RTVSPropertyOp0
 70
     1
102
RTVSPropertyOp1
 70
     1
102
RTVSPropertyOp2
 70
     1
102
RTVSPropertyOp3
 70
     1
102
RTVSPropertyOp4
 70
     1
102
RTVSPropertyOp5
 70
     1
102
RTVSPropertyOp6
 70
     1
102
RTVSPropertyOp7
 70
     1
102
RTVSPropertyOp8
 70
     1
102
RTVSPropertyOp9
 70
     1
102
RTVSPropertyOp10
 70
     1
102
RTVSPropertyOp11
 70
     1
102
RTVSPropertyOp12
 70
     1
102
RTVSPropertyOp13
 70
     1
102
RTVSPropertyOp14
 70
     1
102
RTVSPropertyOp15
 70
     1
102
RTVSPropertyOp16
 70
     1
102
RTVSPropertyOp17
 70
     1
102
RTVSPropertyOp18
 70
     1
102
RTVSPropertyOp19
 70
     1
102
RTVSPropertyOp20
 70
     1
102
RTVSPropertyOp21
 70
     1
102
RTVSPropertyOp22
 70
     1
102
RTVSPropertyOp23
 70
     1
102
RTVSPropertyOp24
 70
     1
102
RTVSPropertyOp25
 70
     1
102
RTVSPropertyOp26
 70
     1
102
RTVSPropertyOp27
 70
     1
102
RTVSPropertyOp28
 70
     1
102
RTVSPropertyOp29
 70
     1
102
RTVSPropertyOp30
 70
     1
102
RTVSPropertyOp31
 70
     1
102
RTVSPropertyOp32
 70
     1
  0
XRECORD
  5
61
102
{ACAD_REACTORS
330
60
102
}
330
60
100
AcDbXrecord
280
     1
102
RTVSPropertyOp0
 70
     1
102
RTVSPropertyOp1
 70
     1
102
RTVSPropertyOp2
 70
     1
102
RTVSPropertyOp3
 70
     1
102
RTVSPropertyOp4
 70
     1
102
RTVSPropertyOp5
 70
     1
102
RTVSPropertyOp6
 70
     1
102
RTVSPropertyOp7
 70
     1
102
RTVSPropertyOp8
 70
     1
102
RTVSPropertyOp9
 70
     1
102
RTVSPropertyOp10
 70
     1
102
RTVSPropertyOp11
 70
     1
102
RTVSPropertyOp12
 70
     1
102
RTVSPropertyOp13
 70
     1
102
RTVSPropertyOp14
 70
     1
102
RTVSPropertyOp15
 70
     1
102
RTVSPropertyOp16
 70
     1
102
RTVSPropertyOp17
 70
     1
102
RTVSPropertyOp18
 70
     1
102
RTVSPropertyOp19
 70
     1
102
RTVSPropertyOp20
 70
     1
102
RTVSPropertyOp21
 70
     1
102
RTVSPropertyOp22
 70
     1
102
RTVSPropertyOp23
 70
     1
102
RTVSPropertyOp24
 70
     1
102
RTVSPropertyOp25
 70
     1
102
RTVSPropertyOp26
 70
     1
102
RTVSPropertyOp27
 70
     1
102
RTVSPropertyOp28
 70
     1
102
RTVSPropertyOp29
 70
     1
102
RTVSPropertyOp30
 70
     1
102
RTVSPropertyOp31
 70
     1
102
RTVSPropertyOp32
 70
     1
  0
XRECORD
  5
45
102
{ACAD_REACTORS
330
44
102
}
330
44
100
AcDbXrecord
280
     1
102
RTVSPropertyOp0
 70
     1
102
RTVSPropertyOp1
 70
     1
102
RTVSPropertyOp2
 70
     1
102
RTVSPropertyOp3
 70
     1
102
RTVSPropertyOp4
 70
     1
102
RTVSPropertyOp5
 70
     1
102
RTVSPropertyOp6
 70
     1
102
RTVSPropertyOp7
 70
     1
102
RTVSPropertyOp8
 70
     1
102
RTVSPropertyOp9
 70
     1
102
RTVSPropertyOp10
 70
     1
102
RTVSPropertyOp11
 70
     1
102
RTVSPropertyOp12
 70
     1
102
RTVSPropertyOp13
 70
     1
102
RTVSPropertyOp14
 70
     1
102
RTVSPropertyOp15
 70
     1
102
RTVSPropertyOp16
 70
     1
102
RTVSPropertyOp17
 70
     1
102
RTVSPropertyOp18
 70
     1
102
RTVSPropertyOp19
 70
     1
102
RTVSPropertyOp20
 70
     1
102
RTVSPropertyOp21
 70
     1
102
RTVSPropertyOp22
 70
     1
102
RTVSPropertyOp23
 70
     1
102
RTVSPropertyOp24
 70
     1
102
RTVSPropertyOp25
 70
     1
102
RTVSPropertyOp26
 70
     1
102
RTVSPropertyOp27
 70
     1
102
RTVSPropertyOp28
 70
     1
102
RTVSPropertyOp29
 70
     1
102
RTVSPropertyOp30
 70
     1
102
RTVSPropertyOp31
 70
     1
102
RTVSPropertyOp32
 70
     1
  0
XRECORD
  5
47
102
{ACAD_REACTORS
330
46
102
}
330
46
100
AcDbXrecord
280
     1
102
RTVSPropertyOp0
 70
     1
102
RTVSPropertyOp1
 70
     1
102
RTVSPropertyOp2
 70
     1
102
RTVSPropertyOp3
 70
     1
102
RTVSPropertyOp4
 70
     1
102
RTVSPropertyOp5
 70
     1
102
RTVSPropertyOp6
 70
     1
102
RTVSPropertyOp7
 70
     1
102
RTVSPropertyOp8
 70
     1
102
RTVSPropertyOp9
 70
     1
102
RTVSPropertyOp10
 70
     1
102
RTVSPropertyOp11
 70
     1
102
RTVSPropertyOp12
 70
     1
102
RTVSPropertyOp13
 70
     1
102
RTVSPropertyOp14
 70
     1
102
RTVSPropertyOp15
 70
     1
102
RTVSPropertyOp16
 70
     1
102
RTVSPropertyOp17
 70
     1
102
RTVSPropertyOp18
 70
     1
102
RTVSPropertyOp19
 70
     1
102
RTVSPropertyOp20
 70
     1
102
RTVSPropertyOp21
 70
     1
102
RTVSPropertyOp22
 70
     1
102
RTVSPropertyOp23
 70
     1
102
RTVSPropertyOp24
 70
     1
102
RTVSPropertyOp25
 70
     1
102
RTVSPropertyOp26
 70
     1
102
RTVSPropertyOp27
 70
     1
102
RTVSPropertyOp28
 70
     1
102
RTVSPropertyOp29
 70
     1
102
RTVSPropertyOp30
 70
     1
102
RTVSPropertyOp31
 70
     1
102
RTVSPropertyOp32
 70
     1
  0
XRECORD
  5
49
102
{ACAD_REACTORS
330
48
102
}
330
48
100
AcDbXrecord
280
     1
102
RTVSPropertyOp0
 70
     1
102
RTVSPropertyOp1
 70
     1
102
RTVSPropertyOp2
 70
     1
102
RTVSPropertyOp3
 70
     1
102
RTVSPropertyOp4
 70
     1
102
RTVSPropertyOp5
 70
     1
102
RTVSPropertyOp6
 70
     1
102
RTVSPropertyOp7
 70
     1
102
RTVSPropertyOp8
 70
     1
102
RTVSPropertyOp9
 70
     1
102
RTVSPropertyOp10
 70
     1
102
RTVSPropertyOp11
 70
     1
102
RTVSPropertyOp12
 70
     1
102
RTVSPropertyOp13
 70
     1
102
RTVSPropertyOp14
 70
     1
102
RTVSPropertyOp15
 70
     1
102
RTVSPropertyOp16
 70
     1
102
RTVSPropertyOp17
 70
     1
102
RTVSPropertyOp18
 70
     1
102
RTVSPropertyOp19
 70
     1
102
RTVSPropertyOp20
 70
     1
102
RTVSPropertyOp21
 70
     1
102
RTVSPropertyOp22
 70
     1
102
RTVSPropertyOp23
 70
     1
102
RTVSPropertyOp24
 70
     1
102
RTVSPropertyOp25
 70
     1
102
RTVSPropertyOp26
 70
     1
102
RTVSPropertyOp27
 70
     1
102
RTVSPropertyOp28
 70
     1
102
RTVSPropertyOp29
 70
     1
102
RTVSPropertyOp30
 70
     1
102
RTVSPropertyOp31
 70
     1
102
RTVSPropertyOp32
 70
     1
  0
XRECORD
  5
4B
102
{ACAD_REACTORS
330
4A
102
}
330
4A
100
AcDbXrecord
280
     1
102
RTVSPropertyOp0
 70
     1
102
RTVSPropertyOp1
 70
     1
102
RTVSPropertyOp2
 70
     1
102
RTVSPropertyOp3
 70
     1
102
RTVSPropertyOp4
 70
     1
102
RTVSPropertyOp5
 70
     1
102
RTVSPropertyOp6
 70
     1
102
RTVSPropertyOp7
 70
     1
102
RTVSPropertyOp8
 70
     1
102
RTVSPropertyOp9
 70
     1
102
RTVSPropertyOp10
 70
     1
102
RTVSPropertyOp11
 70
     1
102
RTVSPropertyOp12
 70
     1
102
RTVSPropertyOp13
 70
     1
102
RTVSPropertyOp14
 70
     1
102
RTVSPropertyOp15
 70
     1
102
RTVSPropertyOp16
 70
     1
102
RTVSPropertyOp17
 70
     1
102
RTVSPropertyOp18
 70
     1
102
RTVSPropertyOp19
 70
     1
102
RTVSPropertyOp20
 70
     1
102
RTVSPropertyOp21
 70
     1
102
RTVSPropertyOp22
 70
     1
102
RTVSPropertyOp23
 70
     1
102
RTVSPropertyOp24
 70
     1
102
RTVSPropertyOp25
 70
     1
102
RTVSPropertyOp26
 70
     1
102
RTVSPropertyOp27
 70
     1
102
RTVSPropertyOp28
 70
     1
102
RTVSPropertyOp29
 70
     1
102
RTVSPropertyOp30
 70
     1
102
RTVSPropertyOp31
 70
     1
102
RTVSPropertyOp32
 70
     1
  0
XRECORD
  5
5F
102
{ACAD_REACTORS
330
5E
102
}
330
5E
100
AcDbXrecord
280
     1
102
RTVSPropertyOp0
 70
     1
102
RTVSPropertyOp1
 70
     1
102
RTVSPropertyOp2
 70
     1
102
RTVSPropertyOp3
 70
     1
102
RTVSPropertyOp4
 70
     1
102
RTVSPropertyOp5
 70
     1
102
RTVSPropertyOp6
 70
     1
102
RTVSPropertyOp7
 70
     1
102
RTVSPropertyOp8
 70
     1
102
RTVSPropertyOp9
 70
     1
102
RTVSPropertyOp10
 70
     1
102
RTVSPropertyOp11
 70
     1
102
RTVSPropertyOp12
 70
     1
102
RTVSPropertyOp13
 70
     1
102
RTVSPropertyOp14
 70
     1
102
RTVSPropertyOp15
 70
     1
102
RTVSPropertyOp16
 70
     1
102
RTVSPropertyOp17
 70
     1
102
RTVSPropertyOp18
 70
     1
102
RTVSPropertyOp19
 70
     1
102
RTVSPropertyOp20
 70
     1
102
RTVSPropertyOp21
 70
     1
102
RTVSPropertyOp22
 70
     1
102
RTVSPropertyOp23
 70
     1
102
RTVSPropertyOp24
 70
     1
102
RTVSPropertyOp25
 70
     1
102
RTVSPropertyOp26
 70
     1
102
RTVSPropertyOp27
 70
     1
102
RTVSPropertyOp28
 70
     1
102
RTVSPropertyOp29
 70
     1
102
RTVSPropertyOp30
 70
     1
102
RTVSPropertyOp31
 70
     1
102
RTVSPropertyOp32
 70
     1
  0
XRECORD
  5
55
102
{ACAD_REACTORS
330
54
102
}
330
54
100
AcDbXrecord
280
     1
102
RTVSPropertyOp0
 70
     1
102
RTVSPropertyOp1
 70
     1
102
RTVSPropertyOp2
 70
     1
102
RTVSPropertyOp3
 70
     1
102
RTVSPropertyOp4
 70
     1
102
RTVSPropertyOp5
 70
     1
102
RTVSPropertyOp6
 70
     1
102
RTVSPropertyOp7
 70
     1
102
RTVSPropertyOp8
 70
     1
102
RTVSPropertyOp9
 70
     1
102
RTVSPropertyOp10
 70
     1
102
RTVSPropertyOp11
 70
     1
102
RTVSPropertyOp12
 70
     1
102
RTVSPropertyOp13
 70
     1
102
RTVSPropertyOp14
 70
     1
102
RTVSPropertyOp15
 70
     1
102
RTVSPropertyOp16
 70
     1
102
RTVSPropertyOp17
 70
     1
102
RTVSPropertyOp18
 70
     1
102
RTVSPropertyOp19
 70
     1
102
RTVSPropertyOp20
 70
     1
102
RTVSPropertyOp21
 70
     1
102
RTVSPropertyOp22
 70
     1
102
RTVSPropertyOp23
 70
     1
102
RTVSPropertyOp24
 70
     1
102
RTVSPropertyOp25
 70
     1
102
RTVSPropertyOp26
 70
     1
102
RTVSPropertyOp27
 70
     1
102
RTVSPropertyOp28
 70
     1
102
RTVSPropertyOp29
 70
     1
102
RTVSPropertyOp30
 70
     1
102
RTVSPropertyOp31
 70
     1
102
RTVSPropertyOp32
 70
     1
  0
XRECORD
  5
5D
102
{ACAD_REACTORS
330
5C
102
}
330
5C
100
AcDbXrecord
280
     1
102
RTVSPropertyOp0
 70
     1
102
RTVSPropertyOp1
 70
     1
102
RTVSPropertyOp2
 70
     1
102
RTVSPropertyOp3
 70
     1
102
RTVSPropertyOp4
 70
     1
102
RTVSPropertyOp5
 70
     1
102
RTVSPropertyOp6
 70
     1
102
RTVSPropertyOp7
 70
     1
102
RTVSPropertyOp8
 70
     1
102
RTVSPropertyOp9
 70
     1
102
RTVSPropertyOp10
 70
     1
102
RTVSPropertyOp11
 70
     1
102
RTVSPropertyOp12
 70
     1
102
RTVSPropertyOp13
 70
     1
102
RTVSPropertyOp14
 70
     1
102
RTVSPropertyOp15
 70
     1
102
RTVSPropertyOp16
 70
     1
102
RTVSPropertyOp17
 70
     1
102
RTVSPropertyOp18
 70
     1
102
RTVSPropertyOp19
 70
     1
102
RTVSPropertyOp20
 70
     1
102
RTVSPropertyOp21
 70
     1
102
RTVSPropertyOp22
 70
     1
102
RTVSPropertyOp23
 70
     1
102
RTVSPropertyOp24
 70
     1
102
RTVSPropertyOp25
 70
     1
102
RTVSPropertyOp26
 70
     1
102
RTVSPropertyOp27
 70
     1
102
RTVSPropertyOp28
 70
     1
102
RTVSPropertyOp29
 70
     1
102
RTVSPropertyOp30
 70
     1
102
RTVSPropertyOp31
 70
     1
102
RTVSPropertyOp32
 70
     1
  0
ENDSEC
  0
EOF
