  0
SECTION
  2
HEADER
  9
$ACADVER
  1
AC1021
  9
$ACADMAINTVER
 70
    25
  9
$DWGCODEPAGE
  3
ANSI_1252
  9
$INSBASE
 10
0.0
 20
0.0
 30
0.0
  9
$EXTMIN
 10
1.000000000000000E+20
 20
1.000000000000000E+20
 30
1.000000000000000E+20
  9
$EXTMAX
 10
-1.000000000000000E+20
 20
-1.000000000000000E+20
 30
-1.000000000000000E+20
  9
$LIMMIN
 10
0.0
 20
0.0
  9
$LIMMAX
 10
12.0
 20
9.0
  9
$ORTHOMODE
 70
     0
  9
$REGENMODE
 70
     1
  9
$FILLMODE
 70
     1
  9
$QTEXTMODE
 70
     0
  9
$MIRRTEXT
 70
     1
  9
$LTSCALE
 40
1.0
  9
$ATTMODE
 70
     1
  9
$TEXTSIZE
 40
0.2
  9
$TRACEWID
 40
0.05
  9
$TEXTSTYLE
  7
Standard
  9
$CLAYER
  8
0
  9
$CELTYPE
  6
ByLayer
  9
$CECOLOR
 62
   256
  9
$CELTSCALE
 40
1.0
  9
$DISPSILH
 70
     0
  9
$DIMSCALE
 40
1.0
  9
$DIMASZ
 40
0.18
  9
$DIMEXO
 40
0.0625
  9
$DIMDLI
 40
0.38
  9
$DIMRND
 40
0.0
  9
$DIMDLE
 40
0.0
  9
$DIMEXE
 40
0.18
  9
$DIMTP
 40
0.0
  9
$DIMTM
 40
0.0
  9
$DIMTXT
 40
0.18
  9
$DIMCEN
 40
0.09
  9
$DIMTSZ
 40
0.0
  9
$DIMTOL
 70
     0
  9
$DIMLIM
 70
     0
  9
$DIMTIH
 70
     1
  9
$DIMTOH
 70
     1
  9
$DIMSE1
 70
     0
  9
$DIMSE2
 70
     0
  9
$DIMTAD
 70
     0
  9
$DIMZIN
 70
     0
  9
$DIMBLK
  1

  9
$DIMASO
 70
     1
  9
$DIMSHO
 70
     1
  9
$DIMPOST
  1

  9
$DIMAPOST
  1

  9
$DIMALT
 70
     0
  9
$DIMALTD
 70
     2
  9
$DIMALTF
 40
25.4
  9
$DIMLFAC
 40
1.0
  9
$DIMTOFL
 70
     0
  9
$DIMTVP
 40
0.0
  9
$DIMTIX
 70
     0
  9
$DIMSOXD
 70
     0
  9
$DIMSAH
 70
     0
  9
$DIMBLK1
  1

  9
$DIMBLK2
  1

  9
$DIMSTYLE
  2
Standard
  9
$DIMCLRD
 70
     0
  9
$DIMCLRE
 70
     0
  9
$DIMCLRT
 70
     0
  9
$DIMTFAC
 40
1.0
  9
$DIMGAP
 40
0.09
  9
$DIMJUST
 70
     0
  9
$DIMSD1
 70
     0
  9
$DIMSD2
 70
     0
  9
$DIMTOLJ
 70
     1
  9
$DIMTZIN
 70
     0
  9
$DIMALTZ
 70
     0
  9
$DIMALTTZ
 70
     0
  9
$DIMUPT
 70
     0
  9
$DIMDEC
 70
     4
  9
$DIMTDEC
 70
     4
  9
$DIMALTU
 70
     2
  9
$DIMALTTD
 70
     2
  9
$DIMTXSTY
  7
Standard
  9
$DIMAUNIT
 70
     0
  9
$DIMADEC
 70
     0
  9
$DIMALTRND
 40
0.0
  9
$DIMAZIN
 70
     0
  9
$DIMDSEP
 70
    46
  9
$DIMATFIT
 70
     3
  9
$DIMFRAC
 70
     0
  9
$DIMLDRBLK
  1

  9
$DIMLUNIT
 70
     2
  9
$DIMLWD
 70
    -2
  9
$DIMLWE
 70
    -2
  9
$DIMTMOVE
 70
     0
  9
$DIMFXL
 40
1.0
  9
$DIMFXLON
 70
     0
  9
$DIMJOGANG
 40
0.7853981633974483
  9
$DIMTFILL
 70
     0
  9
$DIMTFILLCLR
 70
     0
  9
$DIMARCSYM
 70
     0
  9
$DIMLTYPE
  6

  9
$DIMLTEX1
  6

  9
$DIMLTEX2
  6

  9
$LUNITS
 70
     2
  9
$LUPREC
 70
     4
  9
$SKETCHINC
 40
0.1
  9
$FILLETRAD
 40
0.5
  9
$AUNITS
 70
     0
  9
$AUPREC
 70
     0
  9
$MENU
  1
.
  9
$ELEVATION
 40
0.0
  9
$PELEVATION
 40
0.0
  9
$THICKNESS
 40
0.0
  9
$LIMCHECK
 70
     0
  9
$CHAMFERA
 40
0.5
  9
$CHAMFERB
 40
0.5
  9
$CHAMFERC
 40
1.0
  9
$CHAMFERD
 40
0.0
  9
$SKPOLY
 70
     0
  9
$TDCREATE
 40
2458551.626125509
  9
$TDUCREATE
 40
2458551.334458842
  9
$TDUPDATE
 40
2458551.626125509
  9
$TDUUPDATE
 40
2458551.334458842
  9
$TDINDWG
 40
0.0000000116
  9
$TDUSRTIMER
 40
0.0000000116
  9
$USRTIMER
 70
     1
  9
$ANGBASE
 50
0.0
  9
$ANGDIR
 70
     0
  9
$PDMODE
 70
     0
  9
$PDSIZE
 40
0.0
  9
$PLINEWID
 40
0.0
  9
$SPLFRAME
 70
     0
  9
$SPLINETYPE
 70
     6
  9
$SPLINESEGS
 70
     8
  9
$HANDSEED
  5
65
  9
$SURFTAB1
 70
     6
  9
$SURFTAB2
 70
     6
  9
$SURFTYPE
 70
     6
  9
$SURFU
 70
     6
  9
$SURFV
 70
     6
  9
$UCSBASE
  2

  9
$UCSNAME
  2

  9
$UCSORG
 10
0.0
 20
0.0
 30
0.0
  9
$UCSXDIR
 10
1.0
 20
0.0
 30
0.0
  9
$UCSYDIR
 10
0.0
 20
1.0
 30
0.0
  9
$UCSORTHOREF
  2

  9
$UCSORTHOVIEW
 70
     0
  9
$UCSORGTOP
 10
0.0
 20
0.0
 30
0.0
  9
$UCSORGBOTTOM
 10
0.0
 20
0.0
 30
0.0
  9
$UCSORGLEFT
 10
0.0
 20
0.0
 30
0.0
  9
$UCSORGRIGHT
 10
0.0
 20
0.0
 30
0.0
  9
$UCSORGFRONT
 10
0.0
 20
0.0
 30
0.0
  9
$UCSORGBACK
 10
0.0
 20
0.0
 30
0.0
  9
$PUCSBASE
  2

  9
$PUCSNAME
  2

  9
$PUCSORG
 10
0.0
 20
0.0
 30
0.0
  9
$PUCSXDIR
 10
1.0
 20
0.0
 30
0.0
  9
$PUCSYDIR
 10
0.0
 20
1.0
 30
0.0
  9
$PUCSORTHOREF
  2

  9
$PUCSORTHOVIEW
 70
     0
  9
$PUCSORGTOP
 10
0.0
 20
0.0
 30
0.0
  9
$PUCSORGBOTTOM
 10
0.0
 20
0.0
 30
0.0
  9
$PUCSORGLEFT
 10
0.0
 20
0.0
 30
0.0
  9
$PUCSORGRIGHT
 10
0.0
 20
0.0
 30
0.0
  9
$PUCSORGFRONT
 10
0.0
 20
0.0
 30
0.0
  9
$PUCSORGBACK
 10
0.0
 20
0.0
 30
0.0
  9
$USERI1
 70
     0
  9
$USERI2
 70
     0
  9
$USERI3
 70
     0
  9
$USERI4
 70
     0
  9
$USERI5
 70
     0
  9
$USERR1
 40
0.0
  9
$USERR2
 40
0.0
  9
$USERR3
 40
0.0
  9
$USERR4
 40
0.0
  9
$USERR5
 40
0.0
  9
$WORLDVIEW
 70
     1
  9
$SHADEDGE
 70
     3
  9
$SHADEDIF
 70
    70
  9
$TILEMODE
 70
     1
  9
$MAXACTVP
 70
    64
  9
$PINSBASE
 10
0.0
 20
0.0
 30
0.0
  9
$PLIMCHECK
 70
     0
  9
$PEXTMIN
 10
1.000000000000000E+20
 20
1.000000000000000E+20
 30
1.000000000000000E+20
  9
$PEXTMAX
 10
-1.000000000000000E+20
 20
-1.000000000000000E+20
 30
-1.000000000000000E+20
  9
$PLIMMIN
 10
0.0
 20
0.0
  9
$PLIMMAX
 10
12.0
 20
9.0
  9
$UNITMODE
 70
     0
  9
$VISRETAIN
 70
     1
  9
$PLINEGEN
 70
     0
  9
$PSLTSCALE
 70
     1
  9
$TREEDEPTH
 70
  3020
  9
$CMLSTYLE
  2
Standard
  9
$CMLJUST
 70
     0
  9
$CMLSCALE
 40
1.0
  9
$PROXYGRAPHICS
 70
     1
  9
$MEASUREMENT
 70
     0
  9
$CELWEIGHT
370
    -1
  9
$ENDCAPS
280
     0
  9
$JOINSTYLE
280
     0
  9
$LWDISPLAY
290
     1
  9
$INSUNITS
 70
     1
  9
$HYPERLINKBASE
  1

  9
$STYLESHEET
  1

  9
$XEDIT
290
     1
  9
$CEPSNTYPE
380
     0
  9
$PSTYLEMODE
290
     1
  9
$FINGERPRINTGUID
  2
{3F69C082-7648-4AA1-9C46-911CE64AD6D2}
  9
$VERSIONGUID
  2
{FAEB1C32-E019-11D5-929B-00C0DF256EC4}
  9
$EXTNAMES
290
     1
  9
$PSVPSCALE
 40
0.0
  9
$OLESTARTUP
290
     0
  9
$SORTENTS
280
   127
  9
$INDEXCTL
280
     0
  9
$HIDETEXT
280
     1
  9
$XCLIPFRAME
290
     0
  9
$HALOGAP
280
     0
  9
$OBSCOLOR
 70
   257
  9
$OBSLTYPE
280
     0
  9
$INTERSECTIONDISPLAY
280
     0
  9
$INTERSECTIONCOLOR
 70
   257
  9
$DIMASSOC
280
     2
  9
$PROJECTNAME
  1

  9
$CAMERADISPLAY
290
     0
  9
$LENSLENGTH
 40
50.0
  9
$CAMERAHEIGHT
 40
0.0
  9
$STEPSPERSEC
 40
2.0
  9
$STEPSIZE
 40
6.0
  9
$3DDWFPREC
 40
2.0
  9
$PSOLWIDTH
 40
0.25
  9
$PSOLHEIGHT
 40
4.0
  9
$LOFTANG1
 40
1.570796326794897
  9
$LOFTANG2
 40
1.570796326794897
  9
$LOFTMAG1
 40
0.0
  9
$LOFTMAG2
 40
0.0
  9
$LOFTPARAM
 70
     7
  9
$LOFTNORMALS
280
     1
  9
$LATITUDE
 40
37.795
  9
$LONGITUDE
 40
-122.394
  9
$NORTHDIRECTION
 40
0.0
  9
$TIMEZONE
 70
 -8000
  9
$LIGHTGLYPHDISPLAY
280
     1
  9
$TILEMODELIGHTSYNCH
280
     1
  9
$CMATERIAL
347
3C
  9
$SOLIDHIST
280
     1
  9
$SHOWHIST
280
     1
  9
$DWFFRAME
280
     2
  9
$DGNFRAME
280
     2
  9
$REALWORLDSCALE
290
     1
  9
$INTERFERECOLOR
 62
   256
  9
$CSHADOW
280
     0
  9
$SHADOWPLANELOCATION
 40
0.0
  0
ENDSEC
  0
SECTION
  2
CLASSES
  0
CLASS
  1
ACDBDICTIONARYWDFLT
  2
AcDbDictionaryWithDefault
  3
ObjectDBX Classes
 90
        0
 91
        4
280
     0
281
     0
  0
CLASS
  1
VISUALSTYLE
  2
AcDbVisualStyle
  3
ObjectDBX Classes
 90
     4095
 91
        4
280
     0
281
     0
  0
CLASS
  1
MATERIAL
  2
AcDbMaterial
  3
ObjectDBX Classes
 90
     1153
 91
        4
280
     0
281
     0
  0
CLASS
  1
SUN
  2
AcDbSun
  3
SCENEOE
 90
     1024
 91
        4
280
     0
281
     0
  0
ENDSEC
  0
SECTION
  2
TABLES
  0
TABLE
  2
VPORT
  5
8
330
0
100
AcDbSymbolTable
 70
     1
  0
VPORT
  5
29
330
8
100
AcDbSymbolTableRecord
100
AcDbViewportTableRecord
  2
*Active
 70
     0
 10
0.0
 20
0.0
 11
1.0
 21
1.0
 12
0.0
 22
0.0
 13
0.0
 23
0.0
 14
0.5
 24
0.5
 15
0.5
 25
0.5
 16
0.0
 26
0.0
 36
1.0
 17
39.99961911841359
 27
-39.99962012888904
 37
0.0
 40
79.99924025777808
 41
0.9999999747378738
 42
50.0
 43
0.0
 44
0.0
 50
0.0
 51
0.0
 71
     0
 72
   100
 73
     1
 74
     3
 75
     0
 76
     0
 77
     0
 78
     0
281
     0
 65
     1
110
0.0
120
0.0
130
0.0
111
1.0
121
0.0
131
0.0
112
0.0
122
1.0
132
0.0
 79
     0
146
0.0
 60
     3
 61
     5
292
     1
282
     1
141
0.0
142
0.0
 63
   250
361
3F
  0
ENDTAB
  0
TABLE
  2
LTYPE
  5
5
330
0
100
AcDbSymbolTable
 70
     1
  0
LTYPE
  5
14
330
5
100
AcDbSymbolTableRecord
100
AcDbLinetypeTableRecord
  2
ByBlock
 70
     0
  3

 72
    65
 73
     0
 40
0.0
  0
LTYPE
  5
15
330
5
100
AcDbSymbolTableRecord
100
AcDbLinetypeTableRecord
  2
ByLayer
 70
     0
  3

 72
    65
 73
     0
 40
0.0
  0
LTYPE
  5
16
330
5
100
AcDbSymbolTableRecord
100
AcDbLinetypeTableRecord
  2
Continuous
 70
     0
  3
Solid line
 72
    65
 73
     0
 40
0.0
  0
ENDTAB
  0
TABLE
  2
LAYER
  5
2
330
0
100
AcDbSymbolTable
 70
     2
  0
LAYER
  5
10
330
2
100
AcDbSymbolTableRecord
100
AcDbLayerTableRecord
  2
0
 70
     0
 62
     7
  6
Continuous
370
    -3
390
F
347
3E
  0
LAYER
  5
40
330
2
100
AcDbSymbolTableRecord
100
AcDbLayerTableRecord
  2
Layer 1
 70
     0
 62
     7
  6
Continuous
370
    -3
390
F
347
3E
  0
ENDTAB
  0
TABLE
  2
STYLE
  5
3
330
0
100
AcDbSymbolTable
 70
     1
  0
STYLE
  5
11
330
3
100
AcDbSymbolTableRecord
100
AcDbTextStyleTableRecord
  2
Standard
 70
     0
 40
0.0
 41
1.0
 50
0.0
 71
     0
 42
0.2
  3
txt
  4

  0
ENDTAB
  0
TABLE
  2
VIEW
  5
6
330
0
100
AcDbSymbolTable
 70
     0
  0
ENDTAB
  0
TABLE
  2
UCS
  5
7
330
0
100
AcDbSymbolTable
 70
     0
  0
ENDTAB
  0
TABLE
  2
APPID
  5
9
330
0
100
AcDbSymbolTable
 70
     1
  0
APPID
  5
12
330
9
100
AcDbSymbolTableRecord
100
AcDbRegAppTableRecord
  2
ACAD
 70
     0
  0
ENDTAB
  0
TABLE
  2
DIMSTYLE
  5
A
330
0
100
AcDbSymbolTable
 70
     1
100
AcDbDimStyleTable
  0
DIMSTYLE
105
27
330
A
100
AcDbSymbolTableRecord
100
AcDbDimStyleTableRecord
  2
Standard
 70
     0
178
     0
340
11
  0
ENDTAB
  0
TABLE
  2
BLOCK_RECORD
  5
1
330
0
100
AcDbSymbolTable
 70
     1
  0
BLOCK_RECORD
  5
1F
330
1
100
AcDbSymbolTableRecord
100
AcDbBlockTableRecord
  2
*Model_Space
340
22
 70
     0
280
     1
281
     0
  0
BLOCK_RECORD
  5
1B
330
1
100
AcDbSymbolTableRecord
100
AcDbBlockTableRecord
  2
*Paper_Space
340
1E
 70
     0
280
     1
281
     0
  0
BLOCK_RECORD
  5
23
330
1
100
AcDbSymbolTableRecord
100
AcDbBlockTableRecord
  2
*Paper_Space0
340
26
 70
     0
280
     1
281
     0
  0
ENDTAB
  0
ENDSEC
  0
SECTION
  2
BLOCKS
  0
BLOCK
  5
20
330
1F
100
AcDbEntity
  8
0
100
AcDbBlockBegin
  2
*Model_Space
 70
     0
 10
0.0
 20
0.0
 30
0.0
  3
*Model_Space
  1

  0
ENDBLK
  5
21
330
1F
100
AcDbEntity
  8
0
100
AcDbBlockEnd
  0
BLOCK
  5
1C
330
1B
100
AcDbEntity
 67
     1
  8
0
100
AcDbBlockBegin
  2
*Paper_Space
 70
     0
 10
0.0
 20
0.0
 30
0.0
  3
*Paper_Space
  1

  0
ENDBLK
  5
1D
330
1B
100
AcDbEntity
 67
     1
  8
0
100
AcDbBlockEnd
  0
BLOCK
  5
24
330
23
100
AcDbEntity
  8
0
100
AcDbBlockBegin
  2
*Paper_Space0
 70
     0
 10
0.0
 20
0.0
 30
0.0
  3
*Paper_Space0
  1

  0
ENDBLK
  5
25
330
23
100
AcDbEntity
  8
0
100
AcDbBlockEnd
  0
ENDSEC
  0
SECTION
  2
ENTITIES
  0
SPLINE
  5
41
330
1F
100
AcDbEntity
  8
Layer 1
370
     0
100
AcDbSpline
210
0.0
220
0.0
230
1.0
 70
    11
 71
     3
 72
   812
 73
   808
 74
     0
 42
0.0000000001
 43
0.0000000001
 12
1.0
 22
0.0
 32
0.0
 13
1.0
 23
0.0
 33
0.0
 40
0.0
 40
0.0
 40
0.0
 40
0.0
 40
1.0
 40
1.0
 40
1.0
 40
2.0
 40
2.0
 40
2.0
 40
3.0
 40
3.0
 40
3.0
 40
4.0
 40
4.0
 40
4.0
 40
5.0
 40
5.0
 40
5.0
 40
6.0
 40
6.0
 40
6.0
 40
7.0
 40
7.0
 40
7.0
 40
8.0
 40
8.0
 40
8.0
 40
9.0
 40
9.0
 40
9.0
 40
10.0
 40
10.0
 40
10.0
 40
11.0
 40
11.0
 40
11.0
 40
12.0
 40
12.0
 40
12.0
 40
13.0
 40
13.0
 40
13.0
 40
14.0
 40
14.0
 40
14.0
 40
15.0
 40
15.0
 40
15.0
 40
16.0
 40
16.0
 40
16.0
 40
17.0
 40
17.0
 40
17.0
 40
18.0
 40
18.0
 40
18.0
 40
19.0
 40
19.0
 40
19.0
 40
20.0
 40
20.0
 40
20.0
 40
21.0
 40
21.0
 40
21.0
 40
22.0
 40
22.0
 40
22.0
 40
23.0
 40
23.0
 40
23.0
 40
24.0
 40
24.0
 40
24.0
 40
25.0
 40
25.0
 40
25.0
 40
26.0
 40
26.0
 40
26.0
 40
27.0
 40
27.0
 40
27.0
 40
28.0
 40
28.0
 40
28.0
 40
29.0
 40
29.0
 40
29.0
 40
30.0
 40
30.0
 40
30.0
 40
31.0
 40
31.0
 40
31.0
 40
32.0
 40
32.0
 40
32.0
 40
33.0
 40
33.0
 40
33.0
 40
34.0
 40
34.0
 40
34.0
 40
35.0
 40
35.0
 40
35.0
 40
36.0
 40
36.0
 40
36.0
 40
37.0
 40
37.0
 40
37.0
 40
38.0
 40
38.0
 40
38.0
 40
39.0
 40
39.0
 40
39.0
 40
40.0
 40
40.0
 40
40.0
 40
41.0
 40
41.0
 40
41.0
 40
42.0
 40
42.0
 40
42.0
 40
43.0
 40
43.0
 40
43.0
 40
44.0
 40
44.0
 40
44.0
 40
45.0
 40
45.0
 40
45.0
 40
46.0
 40
46.0
 40
46.0
 40
47.0
 40
47.0
 40
47.0
 40
48.0
 40
48.0
 40
48.0
 40
49.0
 40
49.0
 40
49.0
 40
50.0
 40
50.0
 40
50.0
 40
51.0
 40
51.0
 40
51.0
 40
52.0
 40
52.0
 40
52.0
 40
53.0
 40
53.0
 40
53.0
 40
54.0
 40
54.0
 40
54.0
 40
55.0
 40
55.0
 40
55.0
 40
56.0
 40
56.0
 40
56.0
 40
57.0
 40
57.0
 40
57.0
 40
58.0
 40
58.0
 40
58.0
 40
59.0
 40
59.0
 40
59.0
 40
60.0
 40
60.0
 40
60.0
 40
61.0
 40
61.0
 40
61.0
 40
62.0
 40
62.0
 40
62.0
 40
63.0
 40
63.0
 40
63.0
 40
64.0
 40
64.0
 40
64.0
 40
65.0
 40
65.0
 40
65.0
 40
66.0
 40
66.0
 40
66.0
 40
67.0
 40
67.0
 40
67.0
 40
68.0
 40
68.0
 40
68.0
 40
69.0
 40
69.0
 40
69.0
 40
70.0
 40
70.0
 40
70.0
 40
71.0
 40
71.0
 40
71.0
 40
72.0
 40
72.0
 40
72.0
 40
73.0
 40
73.0
 40
73.0
 40
74.0
 40
74.0
 40
74.0
 40
75.0
 40
75.0
 40
75.0
 40
76.0
 40
76.0
 40
76.0
 40
77.0
 40
77.0
 40
77.0
 40
78.0
 40
78.0
 40
78.0
 40
79.0
 40
79.0
 40
79.0
 40
80.0
 40
80.0
 40
80.0
 40
81.0
 40
81.0
 40
81.0
 40
82.0
 40
82.0
 40
82.0
 40
83.0
 40
83.0
 40
83.0
 40
84.0
 40
84.0
 40
84.0
 40
85.0
 40
85.0
 40
85.0
 40
86.0
 40
86.0
 40
86.0
 40
87.0
 40
87.0
 40
87.0
 40
88.0
 40
88.0
 40
88.0
 40
89.0
 40
89.0
 40
89.0
 40
90.0
 40
90.0
 40
90.0
 40
91.0
 40
91.0
 40
91.0
 40
92.0
 40
92.0
 40
92.0
 40
93.0
 40
93.0
 40
93.0
 40
94.0
 40
94.0
 40
94.0
 40
95.0
 40
95.0
 40
95.0
 40
96.0
 40
96.0
 40
96.0
 40
97.0
 40
97.0
 40
97.0
 40
98.0
 40
98.0
 40
98.0
 40
99.0
 40
99.0
 40
99.0
 40
100.0
 40
100.0
 40
100.0
 40
101.0
 40
101.0
 40
101.0
 40
102.0
 40
102.0
 40
102.0
 40
103.0
 40
103.0
 40
103.0
 40
104.0
 40
104.0
 40
104.0
 40
105.0
 40
105.0
 40
105.0
 40
106.0
 40
106.0
 40
106.0
 40
107.0
 40
107.0
 40
107.0
 40
108.0
 40
108.0
 40
108.0
 40
109.0
 40
109.0
 40
109.0
 40
110.0
 40
110.0
 40
110.0
 40
111.0
 40
111.0
 40
111.0
 40
112.0
 40
112.0
 40
112.0
 40
113.0
 40
113.0
 40
113.0
 40
114.0
 40
114.0
 40
114.0
 40
115.0
 40
115.0
 40
115.0
 40
116.0
 40
116.0
 40
116.0
 40
117.0
 40
117.0
 40
117.0
 40
118.0
 40
118.0
 40
118.0
 40
119.0
 40
119.0
 40
119.0
 40
120.0
 40
120.0
 40
120.0
 40
121.0
 40
121.0
 40
121.0
 40
122.0
 40
122.0
 40
122.0
 40
123.0
 40
123.0
 40
123.0
 40
124.0
 40
124.0
 40
124.0
 40
125.0
 40
125.0
 40
125.0
 40
126.0
 40
126.0
 40
126.0
 40
127.0
 40
127.0
 40
127.0
 40
128.0
 40
128.0
 40
128.0
 40
129.0
 40
129.0
 40
129.0
 40
130.0
 40
130.0
 40
130.0
 40
131.0
 40
131.0
 40
131.0
 40
132.0
 40
132.0
 40
132.0
 40
133.0
 40
133.0
 40
133.0
 40
134.0
 40
134.0
 40
134.0
 40
135.0
 40
135.0
 40
135.0
 40
136.0
 40
136.0
 40
136.0
 40
137.0
 40
137.0
 40
137.0
 40
138.0
 40
138.0
 40
138.0
 40
139.0
 40
139.0
 40
139.0
 40
140.0
 40
140.0
 40
140.0
 40
141.0
 40
141.0
 40
141.0
 40
142.0
 40
142.0
 40
142.0
 40
143.0
 40
143.0
 40
143.0
 40
144.0
 40
144.0
 40
144.0
 40
145.0
 40
145.0
 40
145.0
 40
146.0
 40
146.0
 40
146.0
 40
147.0
 40
147.0
 40
147.0
 40
148.0
 40
148.0
 40
148.0
 40
149.0
 40
149.0
 40
149.0
 40
150.0
 40
150.0
 40
150.0
 40
151.0
 40
151.0
 40
151.0
 40
152.0
 40
152.0
 40
152.0
 40
153.0
 40
153.0
 40
153.0
 40
154.0
 40
154.0
 40
154.0
 40
155.0
 40
155.0
 40
155.0
 40
156.0
 40
156.0
 40
156.0
 40
157.0
 40
157.0
 40
157.0
 40
158.0
 40
158.0
 40
158.0
 40
159.0
 40
159.0
 40
159.0
 40
160.0
 40
160.0
 40
160.0
 40
161.0
 40
161.0
 40
161.0
 40
162.0
 40
162.0
 40
162.0
 40
163.0
 40
163.0
 40
163.0
 40
164.0
 40
164.0
 40
164.0
 40
165.0
 40
165.0
 40
165.0
 40
166.0
 40
166.0
 40
166.0
 40
167.0
 40
167.0
 40
167.0
 40
168.0
 40
168.0
 40
168.0
 40
169.0
 40
169.0
 40
169.0
 40
170.0
 40
170.0
 40
170.0
 40
171.0
 40
171.0
 40
171.0
 40
172.0
 40
172.0
 40
172.0
 40
173.0
 40
173.0
 40
173.0
 40
174.0
 40
174.0
 40
174.0
 40
175.0
 40
175.0
 40
175.0
 40
176.0
 40
176.0
 40
176.0
 40
177.0
 40
177.0
 40
177.0
 40
178.0
 40
178.0
 40
178.0
 40
179.0
 40
179.0
 40
179.0
 40
180.0
 40
180.0
 40
180.0
 40
181.0
 40
181.0
 40
181.0
 40
182.0
 40
182.0
 40
182.0
 40
183.0
 40
183.0
 40
183.0
 40
184.0
 40
184.0
 40
184.0
 40
185.0
 40
185.0
 40
185.0
 40
186.0
 40
186.0
 40
186.0
 40
187.0
 40
187.0
 40
187.0
 40
188.0
 40
188.0
 40
188.0
 40
189.0
 40
189.0
 40
189.0
 40
190.0
 40
190.0
 40
190.0
 40
191.0
 40
191.0
 40
191.0
 40
192.0
 40
192.0
 40
192.0
 40
193.0
 40
193.0
 40
193.0
 40
194.0
 40
194.0
 40
194.0
 40
195.0
 40
195.0
 40
195.0
 40
196.0
 40
196.0
 40
196.0
 40
197.0
 40
197.0
 40
197.0
 40
198.0
 40
198.0
 40
198.0
 40
199.0
 40
199.0
 40
199.0
 40
200.0
 40
200.0
 40
200.0
 40
201.0
 40
201.0
 40
201.0
 40
202.0
 40
202.0
 40
202.0
 40
203.0
 40
203.0
 40
203.0
 40
204.0
 40
204.0
 40
204.0
 40
205.0
 40
205.0
 40
205.0
 40
206.0
 40
206.0
 40
206.0
 40
207.0
 40
207.0
 40
207.0
 40
208.0
 40
208.0
 40
208.0
 40
209.0
 40
209.0
 40
209.0
 40
210.0
 40
210.0
 40
210.0
 40
211.0
 40
211.0
 40
211.0
 40
212.0
 40
212.0
 40
212.0
 40
213.0
 40
213.0
 40
213.0
 40
214.0
 40
214.0
 40
214.0
 40
215.0
 40
215.0
 40
215.0
 40
216.0
 40
216.0
 40
216.0
 40
217.0
 40
217.0
 40
217.0
 40
218.0
 40
218.0
 40
218.0
 40
219.0
 40
219.0
 40
219.0
 40
220.0
 40
220.0
 40
220.0
 40
221.0
 40
221.0
 40
221.0
 40
222.0
 40
222.0
 40
222.0
 40
223.0
 40
223.0
 40
223.0
 40
224.0
 40
224.0
 40
224.0
 40
225.0
 40
225.0
 40
225.0
 40
226.0
 40
226.0
 40
226.0
 40
227.0
 40
227.0
 40
227.0
 40
228.0
 40
228.0
 40
228.0
 40
229.0
 40
229.0
 40
229.0
 40
230.0
 40
230.0
 40
230.0
 40
231.0
 40
231.0
 40
231.0
 40
232.0
 40
232.0
 40
232.0
 40
233.0
 40
233.0
 40
233.0
 40
234.0
 40
234.0
 40
234.0
 40
235.0
 40
235.0
 40
235.0
 40
236.0
 40
236.0
 40
236.0
 40
237.0
 40
237.0
 40
237.0
 40
238.0
 40
238.0
 40
238.0
 40
239.0
 40
239.0
 40
239.0
 40
240.0
 40
240.0
 40
240.0
 40
241.0
 40
241.0
 40
241.0
 40
242.0
 40
242.0
 40
242.0
 40
243.0
 40
243.0
 40
243.0
 40
244.0
 40
244.0
 40
244.0
 40
245.0
 40
245.0
 40
245.0
 40
246.0
 40
246.0
 40
246.0
 40
247.0
 40
247.0
 40
247.0
 40
248.0
 40
248.0
 40
248.0
 40
249.0
 40
249.0
 40
249.0
 40
250.0
 40
250.0
 40
250.0
 40
251.0
 40
251.0
 40
251.0
 40
252.0
 40
252.0
 40
252.0
 40
253.0
 40
253.0
 40
253.0
 40
254.0
 40
254.0
 40
254.0
 40
255.0
 40
255.0
 40
255.0
 40
256.0
 40
256.0
 40
256.0
 40
257.0
 40
257.0
 40
257.0
 40
258.0
 40
258.0
 40
258.0
 40
259.0
 40
259.0
 40
259.0
 40
260.0
 40
260.0
 40
260.0
 40
261.0
 40
261.0
 40
261.0
 40
262.0
 40
262.0
 40
262.0
 40
263.0
 40
263.0
 40
263.0
 40
264.0
 40
264.0
 40
264.0
 40
265.0
 40
265.0
 40
265.0
 40
266.0
 40
266.0
 40
266.0
 40
267.0
 40
267.0
 40
267.0
 40
268.0
 40
268.0
 40
268.0
 40
269.0
 40
269.0
 40
269.0
 40
269.0
 10
6.611126109458396
 20
-2.534210916032987
 30
0.0
 10
6.410642498397438
 20
-2.508031277150725
 30
0.0
 10
6.460243053940495
 20
-2.568663193802279
 30
0.0
 10
6.548437498362891
 20
-2.696647443770329
 30
0.0
 10
6.592181942796327
 20
-2.730238943761986
 30
0.0
 10
6.633527498341756
 20
-2.762620415975933
 30
0.0
 10
6.67660166499751
 20
-2.793629582635005
 30
0.0
 10
7.261930553740086
 20
-3.108166249223011
 30
0.0
 10
8.244451942383364
 20
-2.354893971633545
 30
0.0
 10
8.722994997819239
 20
-2.632396027119675
 30
0.0
 10
8.963095553314657
 20
-2.772783943751097
 30
0.0
 10
9.199774164366625
 20
-2.913517582604906
 30
0.0
 10
9.437158330974116
 20
-3.055454193680726
 30
0.0
 10
9.437158330974116
 20
-3.055454193680726
 30
0.0
 10
9.437158330974116
 20
-3.215996304751605
 30
0.0
 10
9.437158330974116
 20
-3.215996304751605
 30
0.0
 10
8.886966108889265
 20
-3.198597304755927
 30
0.0
 10
8.549357775640537
 20
-3.141927082547852
 30
0.0
 10
8.009149164664281
 20
-3.389975721374684
 30
0.0
 10
7.872059720254351
 20
-3.478512360241457
 30
0.0
 10
7.812087498047097
 20
-3.606164999098514
 30
0.0
 10
8.139394720187308
 20
-3.638549999090471
 30
0.0
 10
8.46666666455
 20
-3.670934999082426
 30
0.0
 10
8.929334719989818
 20
-3.600308887988894
 30
0.0
 10
9.374434442100771
 20
-3.703143610185181
 30
0.0
 10
9.655563053141698
 20
-3.802168332382736
 30
0.0
 10
9.936338886404863
 20
-3.900028887913806
 30
0.0
 10
10.21746749744579
 20
-3.997007499000794
 30
0.0
 10
10.44589110849949
 20
-3.974782499006314
 30
0.0
 10
10.67325638622054
 20
-3.954462499011361
 30
0.0
 10
10.90199749727448
 20
-3.932413887905763
 30
0.0
 10
11.28063388606872
 20
-4.010095554552921
 30
0.0
 10
11.5985924971005
 20
-4.36442555446459
 30
0.0
 10
11.88384860814008
 20
-4.746307498813398
 30
0.0
 10
11.88349583036232
 20
-4.753892221033664
 30
0.0
 10
11.88349583036232
 20
-4.763029165476017
 30
0.0
 10
11.88109694147431
 20
-4.771813332140288
 30
0.0
 10
11.88765860813913
 20
-4.771813332140288
 30
0.0
 10
11.89383221924867
 20
-4.771813332140288
 30
0.0
 10
11.9017697192467
 20
-4.773541943250934
 30
0.0
 10
12.12052721919205
 20
-5.239138054245722
 30
0.0
 10
12.34034305247035
 20
-5.707133054128838
 30
0.0
 10
12.55977083019338
 20
-6.173434720678828
 30
0.0
 10
12.80128249679952
 20
-7.14011638710389
 30
0.0
 10
13.04452277451663
 20
-8.109584997972561
 30
0.0
 10
13.28808055223367
 20
-9.077466108841627
 30
0.0
 10
13.80172499654943
 20
-10.74903305286817
 30
0.0
 10
14.41255971861921
 20
-12.28329888581807
 30
0.0
 10
15.01923166291187
 20
-13.84049527431764
 30
0.0
 10
15.59009666276911
 20
-15.51844749612045
 30
0.0
 10
16.16371332929245
 20
-17.19671721792318
 30
0.0
 10
16.73560138470513
 20
-18.87463416194815
 30
0.0
 10
16.91163749577216
 20
-19.21277166186352
 30
0.0
 10
17.08837916239472
 20
-19.5517911062233
 30
0.0
 10
17.26441527346175
 20
-19.88975221724979
 30
0.0
 10
17.26441527346175
 20
-19.88975221724979
 30
0.0
 10
17.92276916218587
 20
-21.23471749469132
 30
0.0
 10
17.92276916218587
 20
-21.23471749469132
 30
0.0
 10
18.28313166209604
 20
-21.94214277229218
 30
0.0
 10
18.67827805088585
 20
-22.68354054988459
 30
0.0
 10
18.98039693969941
 20
-23.43682693858513
 30
0.0
 10
19.23016360630351
 20
-24.05796277176344
 30
0.0
 10
18.90049277305281
 20
-25.02947749374268
 30
0.0
 10
18.79335416196834
 20
-25.56813388249684
 30
0.0
 10
18.78128916197134
 20
-25.8342694379858
 30
0.0
 10
18.76611971753081
 20
-26.10142804903019
 30
0.0
 10
18.75200860642324
 20
-26.36876304896347
 30
0.0
 10
18.64554027311645
 20
-27.03075054879776
 30
0.0
 10
18.7154961064323
 20
-27.65290943753119
 30
0.0
 10
18.83745138417954
 20
-28.22754915960965
 30
0.0
 10
18.86704943972757
 20
-28.41928388178417
 30
0.0
 10
18.89530693972055
 20
-28.60996027062542
 30
0.0
 10
18.92285888415833
 20
-28.8009894372441
 30
0.0
 10
18.92285888415833
 20
-28.8009894372441
 30
0.0
 10
19.36764110626936
 20
-29.81610749254606
 30
0.0
 10
19.36764110626936
 20
-29.81610749254606
 30
0.0
 10
19.69974610618623
 20
-30.17784582578879
 30
0.0
 10
20.03530832832439
 20
-30.54043082569809
 30
0.0
 10
20.36878916157447
 20
-30.90336860338515
 30
0.0
 10
20.89795582810884
 20
-31.61890776987291
 30
0.0
 10
21.42676971686545
 20
-32.33377665858331
 30
0.0
 10
21.95593638339983
 20
-33.04811638062675
 30
0.0
 10
22.53297499436662
 20
-33.64395804714457
 30
0.0
 10
23.1096961053338
 20
-34.24078749143966
 30
0.0
 10
23.68779304963355
 20
-34.83662915795747
 30
0.0
 10
24.10223638286319
 20
-35.35115554671764
 30
0.0
 10
24.64346804939457
 20
-35.8644824910338
 30
0.0
 10
25.15954666037682
 20
-36.28203026870729
 30
0.0
 10
25.51955638250891
 20
-36.63392610195247
 30
0.0
 10
25.8809419379742
 20
-36.9872330463087
 30
0.0
 10
26.24095166010629
 20
-37.3407163795538
 30
0.0
 10
26.24095166010629
 20
-37.3407163795538
 30
0.0
 10
25.86439666020046
 20
-37.86194554609015
 30
0.0
 10
25.86439666020046
 20
-37.86194554609015
 30
0.0
 10
25.70247166024101
 20
-38.14631971268565
 30
0.0
 10
25.53917082694866
 20
-38.4293533237261
 30
0.0
 10
25.37555249365607
 20
-38.71425665698824
 30
0.0
 10
25.12747916038478
 20
-39.05221776801474
 30
0.0
 10
24.74679666047998
 20
-39.27252749018184
 30
0.0
 10
24.53837554942099
 20
-39.606890267876
 30
0.0
 10
24.01989804955074
 20
-40.60666248984822
 30
0.0
 10
23.50209082745785
 20
-41.60572915626523
 30
0.0
 10
22.98498916092047
 20
-42.6058541560149
 30
0.0
 10
22.43825416105723
 20
-43.44091443358437
 30
0.0
 10
21.89116638341624
 20
-44.27498693337559
 30
0.0
 10
21.34443138355268
 20
-45.10905943316746
 30
0.0
 10
21.34443138355268
 20
-45.10905943316746
 30
0.0
 10
20.9375727725433
 20
-46.88257915494621
 30
0.0
 10
20.9375727725433
 20
-46.88257915494621
 30
0.0
 10
20.80147110591065
 20
-47.36143971038169
 30
0.0
 10
20.66505193927808
 20
-47.8396299880398
 30
0.0
 10
20.52827999486808
 20
-48.31813776569815
 30
0.0
 10
20.8252483281269
 20
-48.44563165455509
 30
0.0
 10
21.1105044391668
 20
-48.43423693233609
 30
0.0
 10
21.39957055020576
 20
-48.62752387673206
 30
0.0
 10
21.38679999465323
 20
-48.92311637665832
 30
0.0
 10
21.37131305021277
 20
-49.24178054324531
 30
0.0
 10
21.70687527235093
 20
-49.48812526540595
 30
0.0
 10
21.70687527235093
 20
-49.48812526540595
 30
0.0
 10
22.26944999443271
 20
-49.47778887651959
 30
0.0
 10
22.26944999443271
 20
-49.47778887651959
 30
0.0
 10
22.43754860550171
 20
-49.8216060986557
 30
0.0
 10
22.61841777212324
 20
-50.00900165416421
 30
0.0
 10
22.84338416095597
 20
-50.14199887635333
 30
0.0
 10
23.0811211053409
 20
-49.80160359866099
 30
0.0
 10
23.50865249412299
 20
-49.69308915424364
 30
0.0
 10
23.7842424940539
 20
-49.28002165434656
 30
0.0
 10
23.96719304956383
 20
-49.44917859874852
 30
0.0
 10
24.14979082729601
 20
-49.61900582092849
 30
0.0
 10
24.3334116605833
 20
-49.78713970977533
 30
0.0
 10
24.49808832720885
 20
-49.7213466542363
 30
0.0
 10
24.66068360494599
 20
-49.65555359869727
 30
0.0
 10
24.82465471601602
 20
-49.58732637649206
 30
0.0
 10
25.08235888261814
 20
-49.90736637641193
 30
0.0
 10
25.37555249365607
 20
-49.85536693198054
 30
0.0
 10
25.64253471581159
 20
-50.06689248748306
 30
0.0
 10
26.51103832670566
 20
-49.26763915434996
 30
0.0
 10
26.2750652712089
 20
-47.84721471026039
 30
0.0
 10
26.99335610436275
 20
-47.06207248823453
 30
0.0
 10
27.4164072153681
 20
-46.59834609946144
 30
0.0
 10
28.53365443731114
 20
-46.84779526606561
 30
0.0
 10
28.81238415946342
 20
-46.36477193285332
 30
0.0
 10
28.79513332613448
 20
-46.10226998847454
 30
0.0
 10
28.74380415948077
 20
-45.06975998873228
 30
0.0
 10
28.86371332611744
 20
-44.8895963776666
 30
0.0
 10
28.86371332611744
 20
-44.8895963776666
 30
0.0
 10
29.23197804824748
 20
-44.66911026661061
 30
0.0
 10
29.23197804824748
 20
-44.66911026661061
 30
0.0
 10
29.30606138156231
 20
-44.56370026663679
 30
0.0
 10
29.38391943709835
 20
-44.45723193333033
 30
0.0
 10
29.46107193707919
 20
-44.35044610002362
 30
0.0
 10
29.46107193707919
 20
-44.35044610002362
 30
0.0
 10
29.86380304808959
 20
-44.25293832227
 30
0.0
 10
29.86380304808959
 20
-44.25293832227
 30
0.0
 10
29.86380304808959
 20
-44.25293832227
 30
0.0
 10
30.2530933257701
 20
-43.9639074890092
 30
0.0
 10
30.2530933257701
 20
-43.9639074890092
 30
0.0
 10
30.34714388130212
 20
-43.89119998902694
 30
0.0
 10
30.45569360349731
 20
-43.83091026682008
 30
0.0
 10
30.56558388124754
 20
-43.772701933501
 30
0.0
 10
30.60968110345874
 20
-45.12352332205248
 30
0.0
 10
30.65307277011441
 20
-46.47296887727043
 30
0.0
 10
30.69406554788208
 20
-47.82273193248862
 30
0.0
 10
31.02754638113215
 20
-49.01476804330201
 30
0.0
 10
31.36208554771519
 20
-50.20676887633724
 30
0.0
 10
31.69729499207559
 20
-51.39943998714983
 30
0.0
 10
31.72382388095793
 20
-51.39323109826277
 30
0.0
 10
31.75275165872859
 20
-51.38910359826411
 30
0.0
 10
31.78238499205446
 20
-51.38430582048746
 30
0.0
 10
31.85301110314799
 20
-51.8224910981555
 30
0.0
 10
31.92638888090729
 20
-52.2614172091566
 30
0.0
 10
31.9963094364453
 20
-52.70030804238016
 30
0.0
 10
32.12517915863545
 20
-53.5250672088408
 30
0.0
 10
32.25263776971454
 20
-54.34982637530143
 30
0.0
 10
32.38217776968236
 20
-55.17458554176207
 30
0.0
 10
32.59197471407424
 20
-55.9652310971201
 30
0.0
 10
32.80247721402163
 20
-56.75587665247749
 30
0.0
 10
33.01125110285838
 20
-57.54860359672393
 30
0.0
 10
33.01125110285838
 20
-57.54860359672393
 30
0.0
 10
32.58336693629852
 20
-61.48151137351849
 30
0.0
 10
32.58336693629852
 20
-61.48151137351849
 30
0.0
 10
32.53926971408733
 20
-61.99208665116856
 30
0.0
 10
32.49690110298678
 20
-62.50160359548599
 30
0.0
 10
32.45315665855334
 20
-63.01147331758053
 30
0.0
 10
32.23334082527504
 20
-64.30648526170093
 30
0.0
 10
32.2088933252811
 20
-65.58601026138119
 30
0.0
 10
31.9670288808972
 20
-66.81692248329568
 30
0.0
 10
31.90882054757843
 20
-67.25651887207478
 30
0.0
 10
31.85301110314799
 20
-67.69406914974299
 30
0.0
 10
31.79649610316203
 20
-68.1312313718559
 30
0.0
 10
31.46682526991101
 20
-69.35667553821638
 30
0.0
 10
31.13814221443759
 20
-70.58310748235445
 30
0.0
 10
30.80811860340913
 20
-71.80886914871452
 30
0.0
 10
30.70475471454588
 20
-72.30360470414605
 30
0.0
 10
30.76504443675305
 20
-72.81276887068572
 30
0.0
 10
30.76504443675305
 20
-73.35160164832908
 30
0.0
 10
30.76504443675305
 20
-73.35160164832908
 30
0.0
 10
30.78123693674903
 20
-74.16877609256913
 30
0.0
 10
30.78123693674903
 20
-74.16877609256913
 30
0.0
 10
31.03929388112892
 20
-75.39937081448338
 30
0.0
 10
31.41101582548057
 20
-76.73262386970568
 30
0.0
 10
31.9670288808972
 20
-77.68688775835597
 30
0.0
 10
32.07247415864854
 20
-77.89428581385984
 30
0.0
 10
32.17686110306691
 20
-78.10651692491787
 30
0.0
 10
32.28262388081817
 20
-78.31596109153197
 30
0.0
 10
32.28262388081817
 20
-78.31596109153197
 30
0.0
 10
32.67741749183054
 20
-78.73008692476171
 30
0.0
 10
32.94133054732037
 20
-78.75834442475501
 30
0.0
 10
33.20520832503203
 20
-78.78727220252567
 30
0.0
 10
33.44876610274907
 20
-78.68736553588403
 30
0.0
 10
33.54006499161499
 20
-78.63085053589806
 30
0.0
 10
33.63136388048092
 20
-78.5736652581341
 30
0.0
 10
33.64688610269953
 20
-78.45929470260745
 30
0.0
 10
33.69821526935324
 20
-78.37318164707347
 30
0.0
 10
34.25493388032507
 20
-77.52979581395101
 30
0.0
 10
33.81085721376956
 20
-76.08150192542406
 30
0.0
 10
33.65549388047493
 20
-75.05417775901438
 30
0.0
 10
33.67927110269117
 20
-74.90809248127314
 30
0.0
 10
33.70269554712998
 20
-74.75996109242101
 30
0.0
 10
33.72541443601293
 20
-74.61249998134687
 30
0.0
 10
33.83361138043036
 20
-74.09296414814334
 30
0.0
 10
33.87837888041924
 20
-73.74297331489768
 30
0.0
 10
34.12814554702366
 20
-73.39569887054029
 30
0.0
 10
34.32658304697405
 20
-73.22929359280408
 30
0.0
 10
34.52812499136797
 20
-73.06151248173437
 30
0.0
 10
34.7262097135406
 20
-72.89545998177593
 30
0.0
 10
34.91364054682727
 20
-72.74387137070315
 30
0.0
 10
35.55407242627338
 20
-71.76547748205884
 30
0.0
 10
35.45624715099133
 20
-71.37960914882179
 30
0.0
 10
35.40936388003641
 20
-71.3120874821721
 30
0.0
 10
35.36286687559588
 20
-71.24456581552242
 30
0.0
 10
35.31464215460397
 20
-71.1791255377605
 30
0.0
 10
34.96701582459154
 20
-70.62582887123212
 30
0.0
 10
33.96967776928549
 20
-70.21381970466896
 30
0.0
 10
34.19841888033943
 20
-69.13308498271685
 30
0.0
 10
34.39929054695567
 20
-68.5181227606481
 30
0.0
 10
34.59839832468374
 20
-67.90316053857997
 30
0.0
 10
34.79856443574478
 20
-67.2878808165116
 30
0.0
 10
35.56130437053332
 20
-65.12746970594067
 30
0.0
 10
36.46462712526542
 20
-63.07730165089709
 30
0.0
 10
36.94553377966313
 20
-60.69636915149264
 30
0.0
 10
36.93692600210495
 20
-60.04595276276655
 30
0.0
 10
36.92591933571909
 20
-59.39895831848359
 30
0.0
 10
36.91487739155635
 20
-58.75023526308999
 30
0.0
 10
36.91487739155635
 20
-58.75023526308999
 30
0.0
 10
36.91487739155635
 20
-57.56204443005382
 30
0.0
 10
36.91487739155635
 20
-57.56204443005382
 30
0.0
 10
36.86940433716091
 20
-56.86682526356101
 30
0.0
 10
36.82188610190578
 20
-56.1716060970682
 30
0.0
 10
36.77433072847533
 20
-55.47359998613146
 30
0.0
 10
36.65339850933834
 20
-54.93963554182043
 30
0.0
 10
36.5335246235077
 20
-54.4063413752874
 30
0.0
 10
36.4149912931984
 20
-53.87336470875397
 30
0.0
 10
36.57451740023966
 20
-51.63784720931276
 30
0.0
 10
36.7309037851388
 20
-49.40162415431603
 30
0.0
 10
36.88767822558359
 20
-47.16473082154194
 30
0.0
 10
36.9059168362294
 20
-45.71573137746012
 30
0.0
 10
36.92591933571909
 20
-44.26673193337764
 30
0.0
 10
36.94553377966313
 20
-42.81702693374029
 30
0.0
 10
37.08678599828171
 20
-42.01502193394078
 30
0.0
 10
37.18566960687009
 20
-41.2205663785837
 30
0.0
 10
37.31658543686348
 20
-40.38511804545958
 30
0.0
 10
37.31658543686348
 20
-40.38511804545958
 30
0.0
 10
37.32865043655568
 20
-40.02337971221653
 30
0.0
 10
37.32865043655568
 20
-40.02337971221653
 30
0.0
 10
38.66532540245426
 20
-39.22363249019399
 30
0.0
 10
40.02994036764003
 20
-38.47810721260259
 30
0.0
 10
41.49273338587663
 20
-37.89517721274835
 30
0.0
 10
41.47858699734864
 20
-37.81354443499109
 30
0.0
 10
41.46172422000107
 20
-37.73155887945608
 30
0.0
 10
41.44793060924187
 20
-37.64886776836555
 30
0.0
 10
41.70528199156517
 20
-37.43836526841815
 30
0.0
 10
41.96400920718671
 20
-37.22648693513787
 30
0.0
 10
42.2217133672788
 20
-37.01668999074568
 30
0.0
 10
42.2217133672788
 20
-37.01668999074568
 30
0.0
 10
42.57036363616177
 20
-36.97587360186721
 30
0.0
 10
42.57036363616177
 20
-36.97587360186721
 30
0.0
 10
42.80908835229361
 20
-36.89438193522101
 30
0.0
 10
42.94413168218171
 20
-36.60291693529372
 30
0.0
 10
43.08986417846376
 20
-36.44808276866573
 30
0.0
 10
43.40062611498001
 20
-36.50301026865208
 30
0.0
 10
43.71413971809272
 20
-36.5573027686386
 30
0.0
 10
44.02624221013032
 20
-36.61187749084687
 30
0.0
 10
44.02624221013032
 20
-36.61187749084687
 30
0.0
 10
44.23261720486526
 20
-36.24809304649357
 30
0.0
 10
44.23261720486526
 20
-36.24809304649357
 30
0.0
 10
44.35354942400224
 20
-36.15781721318277
 30
0.0
 10
44.53921636370993
 20
-36.25102110204822
 30
0.0
 10
44.77003885782116
 20
-36.08186415764625
 30
0.0
 10
44.71423054437692
 20
-35.51325693556598
 30
0.0
 10
45.10147357158777
 20
-34.98924082458602
 30
0.0
 10
45.16589079216657
 20
-34.45354776916435
 30
0.0
 10
45.21273967986025
 20
-34.07113665814889
 30
0.0
 10
45.10045051605832
 20
-33.62603693603794
 30
0.0
 10
45.04153662867245
 20
-33.19779999170065
 30
0.0
 10
45.42151356342287
 20
-33.01333249174679
 30
0.0
 10
45.80321910924031
 20
-32.83020554734797
 30
0.0
 10
46.18425554400923
 20
-32.64711388072699
 30
0.0
 10
46.62349797720213
 20
-32.39992249190011
 30
0.0
 10
47.06104824381708
 20
-32.15117888085114
 30
0.0
 10
47.4995862881846
 20
-31.90363471424617
 30
0.0
 10
48.80666319928273
 20
-31.42703193658766
 30
0.0
 10
50.11303455484331
 20
-30.95159332559532
 30
0.0
 10
51.41975868817266
 20
-30.47308554793729
 30
0.0
 10
52.09709200422579
 20
-30.08739360358911
 30
0.0
 10
52.77368448696448
 20
-29.70120777035244
 30
0.0
 10
53.44960669194248
 20
-29.31449277044914
 30
0.0
 10
54.19925945059503
 20
-29.01614860385711
 30
0.0
 10
55.038835262509
 20
-28.78532610391477
 30
0.0
 10
55.87943412995242
 20
-28.57189554841272
 30
0.0
 10
56.48095550349522
 20
-28.41928388178417
 30
0.0
 10
57.07453937724053
 20
-28.33641638180476
 30
0.0
 10
57.61093797466697
 20
-28.11490721519364
 30
0.0
 10
58.03677601935849
 20
-27.89406832635989
 30
0.0
 10
58.45947434190789
 20
-27.67495804863679
 30
0.0
 10
58.88425554083423
 20
-27.45567138202512
 30
0.0
 10
60.06556568982197
 20
-26.85330332662
 30
0.0
 10
61.21209343834939
 20
-26.26987943787696
 30
0.0
 10
62.31762841014485
 20
-25.58295054915994
 30
0.0
 10
62.96120089372594
 20
-25.17796166037225
 30
0.0
 10
63.60540837729084
 20
-24.77177332714023
 30
0.0
 10
64.24827530533439
 20
-24.36734888279702
 30
0.0
 10
65.56946332718363
 20
-23.79683666071754
 30
0.0
 10
67.31991133808154
 20
-23.66246360519554
 30
0.0
 10
68.63905324887186
 20
-23.07988638311905
 30
0.0
 10
69.13273045849932
 20
-22.86148166095115
 30
0.0
 10
69.48998850494047
 20
-22.4899361054887
 30
0.0
 10
69.88478210597957
 20
-22.17917416112191
 30
0.0
 10
70.38847820424031
 20
-21.7638841612257
 30
0.0
 10
70.89386942672124
 20
-21.34961721688494
 30
0.0
 10
71.39960984511086
 20
-20.93326888365544
 30
0.0
 10
71.67692844914698
 20
-20.74876610592407
 30
0.0
 10
71.95220275979
 20
-20.56172332819299
 30
0.0
 10
72.22849649063087
 20
-20.37584471712841
 30
0.0
 10
72.3445956543356
 20
-20.20428888383779
 30
0.0
 10
72.4572375959063
 20
-20.03287416165854
 30
0.0
 10
72.57231370408158
 20
-19.86149471725681
 30
0.0
 10
72.94576425010962
 20
-19.33130499516731
 30
0.0
 10
73.48974756956478
 20
-18.76372082864248
 30
0.0
 10
73.5600209011053
 20
-17.95892888439903
 30
0.0
 10
73.27099007514576
 20
-17.47474138452026
 30
0.0
 10
73.03325313676649
 20
-17.1450352734914
 30
0.0
 10
72.51442287222517
 20
-16.88666082911159
 30
0.0
 10
71.15016068480817
 20
-17.10266666239085
 30
0.0
 10
69.40316989604429
 20
-18.43747193983523
 30
0.0
 10
68.68315046996908
 20
-19.33268082850019
 30
0.0
 10
68.68315046996908
 20
-19.33268082850019
 30
0.0
 10
68.0106502093482
 20
-20.003769994999
 30
0.0
 10
68.0106502093482
 20
-20.003769994999
 30
0.0
 10
67.44394800158376
 20
-20.70484527260143
 30
0.0
 10
66.84207385027219
 20
-21.38852860576387
 30
0.0
 10
65.92121804043184
 20
-21.73407443901095
 30
0.0
 10
64.61068390719969
 20
-22.22828082777616
 30
0.0
 10
63.1210445007591
 20
-22.65771721655778
 30
0.0
 10
61.67342092657995
 20
-22.95175749426195
 30
0.0
 10
60.73566706161515
 20
-23.06524610534484
 30
0.0
 10
59.79512776282886
 20
-23.18014582753845
 30
0.0
 10
58.85568054084133
 20
-23.29486916084286
 30
0.0
 10
58.29688054098141
 20
-23.36567166082527
 30
0.0
 10
57.74118352689968
 20
-23.43682693858513
 30
0.0
 10
57.18308909669341
 20
-23.50847610523411
 30
0.0
 10
56.08270468032212
 20
-23.7461777718412
 30
0.0
 10
54.97960387513123
 20
-23.98511416067046
 30
0.0
 10
53.87886668099115
 20
-24.22334499394419
 30
0.0
 10
53.04931109784886
 20
-24.53788166053219
 30
0.0
 10
52.22042311219046
 20
-24.85308860489788
 30
0.0
 10
51.39016063337222
 20
-25.16797804926365
 30
0.0
 10
50.94640276504149
 20
-25.26167582701791
 30
0.0
 10
50.50236010046634
 20
-25.35763138254945
 30
0.0
 10
50.06170538948616
 20
-25.45390443808092
 30
0.0
 10
49.41679235038371
 20
-25.6177344380399
 30
0.0
 10
48.7749837556465
 20
-25.77412082688966
 30
0.0
 10
48.14693349389162
 20
-25.94398332684747
 30
0.0
 10
48.4814373742466
 20
-25.79705138243966
 30
0.0
 10
48.767046255849
 20
-25.57776471582768
 30
0.0
 10
48.84077680952353
 20
-25.32111888255852
 30
0.0
 10
48.67437153599111
 20
-25.02034054930032
 30
0.0
 10
48.50764998787324
 20
-24.71995027159772
 30
0.0
 10
48.34124348893435
 20
-24.41970110500617
 30
0.0
 10
48.306424323156
 20
-24.26846527171051
 30
0.0
 10
48.41666737589902
 20
-24.12601360507976
 30
0.0
 10
48.27784932388501
 20
-24.0266008273266
 30
0.0
 10
48.27784932388501
 20
-24.0266008273266
 30
0.0
 10
48.15243682708455
 20
-23.95135332734561
 30
0.0
 10
48.15243682708455
 20
-23.95135332734561
 30
0.0
 10
48.15243682708455
 20
-23.95135332734561
 30
0.0
 10
47.80586794703737
 20
-24.1036122161964
 30
0.0
 10
47.80586794703737
 20
-24.1036122161964
 30
0.0
 10
47.68736989450495
 20
-23.88503110513994
 30
0.0
 10
47.69389628322734
 20
-23.82368304959948
 30
0.0
 10
47.60534906326414
 20
-23.61215749409696
 30
0.0
 10
47.05000629965433
 20
-23.39858582748355
 30
0.0
 10
46.2700499306638
 20
-23.97632999400586
 30
0.0
 10
45.59137605908932
 20
-24.15564693840562
 30
0.0
 10
45.37088995360327
 20
-24.16802943840255
 30
0.0
 10
45.15005107034845
 20
-24.17956527173291
 30
0.0
 10
44.92818913156418
 20
-24.19060721617447
 30
0.0
 10
43.80265276682742
 20
-24.4734291605482
 30
0.0
 10
42.51282558207413
 20
-25.1481519381575
 30
0.0
 10
41.48687727491492
 20
-25.90796471574534
 30
0.0
 10
41.48687727491492
 20
-25.90796471574534
 30
0.0
 10
39.65786665675226
 20
-27.34803888205186
 30
0.0
 10
39.65786665675226
 20
-27.34803888205186
 30
0.0
 10
39.42256387903318
 20
-27.43122388203119
 30
0.0
 10
39.24723332352167
 20
-27.46600777091116
 30
0.0
 10
39.09804261363694
 20
-27.47376888202031
 30
0.0
 10
39.09804261363694
 20
-27.47376888202031
 30
0.0
 10
35.66879575667988
 20
-29.26849054823841
 30
0.0
 10
35.66879575667988
 20
-29.26849054823841
 30
0.0
 10
35.41521909648249
 20
-29.40251082598266
 30
0.0
 10
35.17236776898483
 20
-29.42526499264378
 30
0.0
 10
34.9553036023723
 20
-29.38201443709882
 30
0.0
 10
34.93741776904351
 20
-29.38906999265277
 30
0.0
 10
34.91949665793689
 20
-29.39443221487359
 30
0.0
 10
34.90192832460771
 20
-29.40198165931601
 30
0.0
 10
34.67315193577625
 20
-29.39150415931893
 30
0.0
 10
34.4430349913891
 20
-29.38201443709882
 30
0.0
 10
34.2132355470022
 20
-29.37238360376799
 30
0.0
 10
33.80362526932674
 20
-29.307931103784
 30
0.0
 10
33.09288388061563
 20
-29.28090832601318
 30
0.0
 10
32.69738471404774
 20
-29.34377332599724
 30
0.0
 10
31.7720486031681
 20
-29.34842999266286
 30
0.0
 10
30.84773554784359
 20
-29.35358054821728
 30
0.0
 10
29.9220466591862
 20
-29.35756693710522
 30
0.0
 10
29.67397332591491
 20
-29.15757721493274
 30
0.0
 10
29.42731110375435
 20
-28.95825777053826
 30
0.0
 10
29.1792730482609
 20
-28.7568922150329
 30
0.0
 10
29.16823110381901
 20
-28.11868193741486
 30
0.0
 10
29.05869360384654
 20
-27.02764610435423
 30
0.0
 10
29.19271388159078
 20
-26.43921277116812
 30
0.0
 10
29.35978943710434
 20
-25.8342694379858
 30
0.0
 10
29.52686499261822
 20
-25.22981999369259
 30
0.0
 10
29.69362304813218
 20
-24.62328916051098
 30
0.0
 10
29.83589832587437
 20
-24.06657054953883
 30
0.0
 10
29.96508554806443
 20
-23.57479832743979
 30
0.0
 10
30.1511405480179
 20
-23.09283332756014
 30
0.0
 10
30.20003554800543
 20
-22.94519582759713
 30
0.0
 10
30.24448554799439
 20
-22.79844027207821
 30
0.0
 10
30.29341582576009
 20
-22.65115554989264
 30
0.0
 10
30.75643665897766
 20
-22.21656860555692
 30
0.0
 10
31.21945749219524
 20
-21.78180527233232
 30
0.0
 10
31.68110249207961
 20
-21.34961721688494
 30
0.0
 10
31.87572999203095
 20
-21.15823527248817
 30
0.0
 10
32.07247415864854
 20
-20.96805277253573
 30
0.0
 10
32.26710165859987
 20
-20.77737638369449
 30
0.0
 10
33.21244026947454
 20
-19.94640832834679
 30
0.0
 10
34.1553799914612
 20
-19.11716888410974
 30
0.0
 10
35.0996602690029
 20
-18.28725916209501
 30
0.0
 10
35.46210326195304
 20
-17.92139332885298
 30
0.0
 10
35.8255349193478
 20
-17.55415166227806
 30
0.0
 10
36.18762602122119
 20
-17.18775666236971
 30
0.0
 10
36.86457221300594
 20
-16.52421694031333
 30
0.0
 10
37.53982320894599
 20
-15.86173555159024
 30
0.0
 10
38.21849708052046
 20
-15.19854860731163
 30
0.0
 10
38.55130762758532
 20
-14.86972444072717
 30
0.0
 10
38.8858115079403
 20
-14.54121777414231
 30
0.0
 10
39.21826927723637
 20
-14.2122172186693
 30
0.0
 10
39.95243610112308
 20
-13.74901999656284
 30
0.0
 10
40.68727221205067
 20
-13.28705749667822
 30
0.0
 10
41.42246110075538
 20
-12.82435416346057
 30
0.0
 10
41.79866226696062
 20
-12.47658583021404
 30
0.0
 10
42.17451170181634
 20
-12.12775916363487
 30
0.0
 10
42.55071391444085
 20
-11.78083749705491
 30
0.0
 10
43.24318139677453
 20
-11.22221388608323
 30
0.0
 10
43.89705499120394
 20
-10.59038888624145
 30
0.0
 10
44.5254580307276
 20
-9.96339694195352
 30
0.0
 10
44.81551191221659
 20
-9.673836942026083
 30
0.0
 10
45.09801634945375
 20
-9.39355499765172
 30
0.0
 10
45.4008407861725
 20
-9.124350275496756
 30
0.0
 10
45.95307910541706
 20
-8.711282775599997
 30
0.0
 10
46.50362409137148
 20
-8.292500275704656
 30
0.0
 10
47.06447018817422
 20
-7.875481664697803
 30
0.0
 10
47.8757885008091
 20
-8.003645831332422
 30
0.0
 10
48.68745959121276
 20
-8.1312808313004
 30
0.0
 10
49.5015295704441
 20
-8.26237305348999
 30
0.0
 10
49.95731844770485
 20
-8.402602220121612
 30
0.0
 10
50.41861065815853
 20
-8.89402166444321
 30
0.0
 10
50.83894536965712
 20
-8.892822219998886
 30
0.0
 10
50.91126481225654
 20
-8.886436942222945
 30
0.0
 10
50.85616092477346
 20
-8.898149164442186
 30
0.0
 10
50.92368258971751
 20
-8.873031386670576
 30
0.0
 10
51.01600453180663
 20
-8.81048388668611
 30
0.0
 10
51.03978175342224
 20
-8.742115553370187
 30
0.0
 10
51.02771675373005
 20
-8.650640275615059
 30
0.0
 10
51.05114119757688
 20
-8.099601386863966
 30
0.0
 10
50.0689373337461
 20
-7.889628053583214
 30
0.0
 10
49.63177512267681
 20
-7.655524720308456
 30
0.0
 10
49.95181511451192
 20
-7.397996942594893
 30
0.0
 10
50.34248121565631
 20
-7.161847498209568
 30
0.0
 10
50.62431665401073
 20
-6.944465831597109
 30
0.0
 10
51.20135397152242
 20
-7.243303887077939
 30
0.0
 10
52.99385309245861
 20
-7.582323331437713
 30
0.0
 10
53.35901336092038
 20
-7.182696664870842
 30
0.0
 10
53.43034502576722
 20
-7.104662220445922
 30
0.0
 10
53.4733839135581
 20
-7.072100831565407
 30
0.0
 10
53.36695086071788
 20
-7.018337498245534
 30
0.0
 10
52.90287170589086
 20
-6.884493609389854
 30
0.0
 10
52.41575616276265
 20
-6.991314720474397
 30
0.0
 10
51.91068423120367
 20
-6.744299720536072
 30
0.0
 10
51.91068423120367
 20
-6.744299720536072
 30
0.0
 10
52.52254199337165
 20
-6.54240499836439
 30
0.0
 10
52.81986309689747
 20
-6.452834720609109
 30
0.0
 10
53.52301974562512
 20
-6.212204998447047
 30
0.0
 10
53.30803697333201
 20
-5.875972498530882
 30
0.0
 10
53.01036309203741
 20
-5.921445554075286
 30
0.0
 10
51.54277229614544
 20
-6.038567776268025
 30
0.0
 10
50.08343650004286
 20
-6.183241942898543
 30
0.0
 10
48.63302598149036
 20
-6.369967220629691
 30
0.0
 10
47.9522707210801
 20
-6.459219998385051
 30
0.0
 10
47.20399379572579
 20
-6.379280553960605
 30
0.0
 10
46.56010381215279
 20
-6.614406942790807
 30
0.0
 10
45.92552716167553
 20
-6.84420638717771
 30
0.0
 10
45.34884134305467
 20
-7.219703053750575
 30
0.0
 10
44.76382996909066
 20
-7.584545831437161
 30
0.0
 10
44.76315969132999
 20
-7.583875553659479
 30
0.0
 10
44.76213663580053
 20
-7.583875553659479
 30
0.0
 10
44.76005524696475
 20
-7.583875553659479
 30
0.0
 10
44.74799024727255
 20
-7.591424998102227
 30
0.0
 10
44.7387121919537
 20
-7.599362498100255
 30
0.0
 10
44.72869443326258
 20
-7.606241664764998
 30
0.0
 10
44.63742969453763
 20
-7.6624038869732
 30
0.0
 10
44.54990553010389
 20
-7.719236386959084
 30
0.0
 10
44.45793636578355
 20
-7.774904720278483
 30
0.0
 10
44.46206386567825
 20
-7.780937220276985
 30
0.0
 10
44.46583858780417
 20
-7.788310275830852
 30
0.0
 10
44.47031886546765
 20
-7.794025275829432
 30
0.0
 10
43.9118716574926
 20
-8.197073886839755
 30
0.0
 10
43.35204861621932
 20
-8.601357220071923
 30
0.0
 10
42.7949772415425
 20
-9.005993331081852
 30
0.0
 10
41.69356976964175
 20
-9.668157219805343
 30
0.0
 10
40.59219757551787
 20
-10.33116777519508
 30
0.0
 10
39.49181315914657
 20
-10.99431944169585
 30
0.0
 10
39.04706622604857
 20
-11.24634388607723
 30
0.0
 10
38.60436540400948
 20
-11.4990386082363
 30
0.0
 10
38.1613118042016
 20
-11.75120416372872
 30
0.0
 10
37.7165648711036
 20
-12.26177944137911
 30
0.0
 10
37.27284099353505
 20
-12.77129638569622
 30
0.0
 10
36.83081044925663
 20
-13.28151888556852
 30
0.0
 10
35.7108115889413
 20
-14.19930555200573
 30
0.0
 10
34.62182276912223
 20
-15.18306166287085
 30
0.0
 10
33.44086388052855
 20
-16.028317218215
 30
0.0
 10
33.44086388052855
 20
-16.028317218215
 30
0.0
 10
32.18201165862101
 20
-16.95795721798281
 30
0.0
 10
32.18201165862101
 20
-16.95795721798281
 30
0.0
 10
31.86161888092338
 20
-17.10488916239029
 30
0.0
 10
31.54433054766961
 20
-17.25337332901987
 30
0.0
 10
31.22393776997166
 20
-17.40030527342767
 30
0.0
 10
30.53111749236718
 20
-17.70641055112885
 30
0.0
 10
29.8069705481037
 20
-18.07125332881543
 30
0.0
 10
29.16410360382004
 20
-18.44537416205542
 30
0.0
 10
28.7448272150359
 20
-18.66466082866708
 30
0.0
 10
28.32385749291895
 20
-18.88377110639018
 30
0.0
 10
27.90595693746802
 20
-19.10305777300217
 30
0.0
 10
27.64380777086668
 20
-19.33645555072141
 30
0.0
 10
27.38162332648782
 20
-19.57055888399616
 30
0.0
 10
27.11979165988672
 20
-19.8041330506046
 30
0.0
 10
26.9475302710409
 20
-19.95177055056761
 30
0.0
 10
26.77495138219517
 20
-20.09870249497542
 30
0.0
 10
26.60441860445999
 20
-20.24820971716011
 30
0.0
 10
26.57478527113413
 20
-20.21857638383425
 30
0.0
 10
26.54652777114115
 20
-20.19014249495238
 30
0.0
 10
26.51897582670369
 20
-20.16050916162652
 30
0.0
 10
26.24095166010629
 20
-20.02927582832589
 30
0.0
 10
25.94638221573548
 20
-19.66908971730492
 30
0.0
 10
25.78964304910828
 20
-19.40432999514885
 30
0.0
 10
25.87956610464132
 20
-19.26032610629601
 30
0.0
 10
25.97118249350717
 20
-19.11716888410974
 30
0.0
 10
26.06075277126245
 20
-18.97524638414499
 30
0.0
 10
26.237494437885
 20
-18.9211655508252
 30
0.0
 10
26.41215471561915
 20
-18.87015388417142
 30
0.0
 10
26.5896019377969
 20
-18.81660221751795
 30
0.0
 10
26.90516165994035
 20
-18.66070971755699
 30
0.0
 10
27.21867527097324
 20
-18.50153638426362
 30
0.0
 10
27.53423499311636
 20
-18.3452911065249
 30
0.0
 10
27.82361860415524
 20
-18.16632693990289
 30
0.0
 10
28.09130638186596
 20
-17.90019138441394
 30
0.0
 10
28.43477082622463
 20
-17.77255638444565
 30
0.0
 10
28.66457027061153
 20
-17.68661971780054
 30
0.0
 10
29.37185443710134
 20
-17.81838221776749
 30
0.0
 10
29.52206721484156
 20
-17.68661971780054
 30
0.0
 10
29.95026888140134
 20
-17.32040110678107
 30
0.0
 10
30.49668638126465
 20
-16.28221138481839
 30
0.0
 10
30.66478499233365
 20
-15.65553694053071
 30
0.0
 10
30.66101027011244
 20
-15.42852444058741
 30
0.0
 10
30.65688277011347
 20
-15.19854860731163
 30
0.0
 10
30.65169693678153
 20
-14.97030138514617
 30
0.0
 10
30.48529165904533
 20
-14.81253916296353
 30
0.0
 10
30.31821610353146
 20
-14.65594110744705
 30
0.0
 10
30.1511405480179
 20
-14.49782610748664
 30
0.0
 10
30.01228721471916
 20
-14.30111721864689
 30
0.0
 10
30.03468860360252
 20
-14.06510888537261
 30
0.0
 10
29.9513272147343
 20
-13.79727999655053
 30
0.0
 10
29.84521165920528
 20
-13.50630888551237
 30
0.0
 10
29.74149499256459
 20
-13.2150555522518
 30
0.0
 10
29.63679054814629
 20
-12.92496638565773
 30
0.0
 10
29.54136415928139
 20
-12.79147527457981
 30
0.0
 10
29.44593777041617
 20
-12.65798416350221
 30
0.0
 10
29.35047610377343
 20
-12.52361110798021
 30
0.0
 10
28.8130544372411
 20
-11.76277527483724
 30
0.0
 10
28.23943777071777
 20
-11.21773360830681
 30
0.0
 10
27.37541443760043
 20
-10.78004221952724
 30
0.0
 10
27.21867527097324
 20
-10.69872694176991
 30
0.0
 10
27.06190082656787
 20
-10.61762333067898
 30
0.0
 10
26.90516165994035
 20
-10.53613166403277
 30
0.0
 10
26.84420165995549
 20
-10.53098110847835
 30
0.0
 10
26.78493499330376
 20
-10.52389027514689
 30
0.0
 10
26.72429249331882
 20
-10.51803416403727
 30
0.0
 10
25.73348082690008
 20
-10.06295083081772
 30
0.0
 10
24.7795344382497
 20
-10.12616860857954
 30
0.0
 10
24.26451416060041
 20
-10.21954888633388
 30
0.0
 10
23.8476366607046
 20
-10.28326055298483
 30
0.0
 10
23.38807304970864
 20
-10.42521833072709
 30
0.0
 10
23.1879069386476
 20
-10.74250666398119
 30
0.0
 10
23.12521832755209
 20
-10.79538805285666
 30
0.0
 10
23.06799777201093
 20
-10.85239694173142
 30
0.0
 10
23.02598193868782
 20
-10.91646138615981
 30
0.0
 10
22.9147158276047
 20
-11.0790919416748
 30
0.0
 10
22.83304777206961
 20
-11.25064777496509
 30
0.0
 10
22.78863304985849
 20
-11.42202721936683
 30
0.0
 10
22.75899971653262
 20
-11.52778999711808
 30
0.0
 10
22.74347749431401
 20
-11.65422555264206
 30
0.0
 10
22.74591166098018
 20
-11.76277527483724
 30
0.0
 10
22.74760499431298
 20
-11.81167027482478
 30
0.0
 10
22.7731108276402
 20
-11.87559360814213
 30
0.0
 10
22.76347999430904
 20
-11.92399471924118
 30
0.0
 10
22.75279082764524
 20
-11.97532388589521
 30
0.0
 10
22.66872388322182
 20
-12.02598277477123
 30
0.0
 10
22.62600249434351
 20
-12.07660638586973
 30
0.0
 10
22.56708860546922
 20
-12.15171277474
 30
0.0
 10
22.45374110549769
 20
-12.33533360802729
 30
0.0
 10
22.38865360551386
 20
-12.38045388579362
 30
0.0
 10
22.38244471662647
 20
-12.37876055246081
 30
0.0
 10
22.37623582773941
 20
-12.37787860801673
 30
0.0
 10
22.36865110551883
 20
-12.3759736080172
 30
0.0
 10
22.31696916108736
 20
-12.34944471913487
 30
0.0
 10
22.2112063833361
 20
-12.27970055248574
 30
0.0
 10
22.18090277223255
 20
-12.21284916361342
 30
0.0
 10
22.16643888334722
 20
-12.17739499695577
 30
0.0
 10
22.16883777223555
 20
-12.10313527475206
 30
0.0
 10
22.12784499446788
 20
-12.08521416364544
 30
0.0
 10
22.07859721670259
 20
-12.12278499696933
 30
0.0
 10
22.09235555003239
 20
-12.30813444136728
 30
0.0
 10
22.12061305002538
 20
-12.36394388579804
 30
0.0
 10
22.14887055001836
 20
-12.41731916356231
 30
0.0
 10
22.1946963833402
 20
-12.46194555244015
 30
0.0
 10
22.23911110555132
 20
-12.50173888576349
 30
0.0
 10
22.23911110555132
 20
-12.50706583020647
 30
0.0
 10
22.23808804999588
 20
-12.51362749687161
 30
0.0
 10
22.23808804999588
 20
-12.51860166353715
 30
0.0
 10
22.14954082779604
 20
-12.55066916352887
 30
0.0
 10
22.04652971671055
 20
-12.54823499686302
 30
0.0
 10
21.95628916117759
 20
-12.55994721908226
 30
0.0
 10
21.8767024945309
 20
-12.56806110796917
 30
0.0
 10
21.80537082788185
 20
-12.59596583018439
 30
0.0
 10
21.72892388345653
 20
-12.60129277462737
 30
0.0
 10
21.60661582793153
 20
-12.61007694129196
 30
0.0
 10
21.48190888351853
 20
-12.61543916351278
 30
0.0
 10
21.3616469391041
 20
-12.62746888573194
 30
0.0
 10
21.29345499467674
 20
-12.6326547190642
 30
0.0
 10
21.07501499473131
 20
-12.61473360795758
 30
0.0
 10
21.02474416141057
 20
-12.70567971904574
 30
0.0
 10
20.986503050309
 20
-12.77408333013983
 30
0.0
 10
20.97031055031302
 20
-12.86104305234038
 30
0.0
 10
20.97785999475544
 20
-12.93272749676687
 30
0.0
 10
20.99475805030695
 20
-13.08861999672783
 30
0.0
 10
21.13050693916183
 20
-13.11634833005417
 30
0.0
 10
21.01991110585607
 20
-13.27964916334684
 30
0.0
 10
20.94515749476357
 20
-13.38918666331931
 30
0.0
 10
20.82320221701633
 20
-13.28910360778879
 30
0.0
 10
20.741886939259
 20
-13.31580888556001
 30
0.0
 10
20.69676666149236
 20
-13.3318249966671
 30
0.0
 10
20.65129360594828
 20
-13.39299666331836
 30
0.0
 10
20.63612416150774
 20
-13.42432332997736
 30
0.0
 10
20.55999471708235
 20
-13.57608832993934
 30
0.0
 10
20.65542110594725
 20
-13.7224911076805
 30
0.0
 10
20.77116749480711
 20
-13.88716777430605
 30
0.0
 10
20.77116749480711
 20
-13.88716777430605
 30
0.0
 10
20.76291249480915
 20
-13.89425860763752
 30
0.0
 10
20.76291249480915
 20
-13.89425860763752
 30
0.0
 10
20.76083110592075
 20
-13.89595194097032
 30
0.0
 10
20.75772666147722
 20
-13.89595194097032
 30
0.0
 10
20.75635082814433
 20
-13.89595194097032
 30
0.0
 10
20.7126063837109
 20
-13.8675533298663
 30
0.0
 10
20.66438166150072
 20
-13.85016138542632
 30
0.0
 10
20.62201305040017
 20
-13.84169471876165
 30
0.0
 10
20.58066749485474
 20
-13.83171110765305
 30
0.0
 10
20.54859999486271
 20
-13.82638416321007
 30
0.0
 10
20.51176999487218
 20
-13.82638416321007
 30
0.0
 10
20.45077471710948
 20
-13.82377360765502
 30
0.0
 10
20.38635749490333
 20
-13.91147416318894
 30
0.0
 10
20.37221110601791
 20
-13.95797027428815
 30
0.0
 10
20.3270908282516
 20
-14.11661444091519
 30
0.0
 10
20.50347971709639
 20
-14.21514527422395
 30
0.0
 10
20.39496527267904
 20
-14.399118885289
 30
0.0
 10
20.3391558282486
 20
-14.49973110748617
 30
0.0
 10
20.19444638384024
 20
-14.52812971859019
 30
0.0
 10
20.11316638386075
 20
-14.57328527413435
 30
0.0
 10
20.07527805053661
 20
-14.59702721857307
 30
0.0
 10
19.98810666166966
 20
-14.69986194076936
 30
0.0
 10
19.94676110612455
 20
-14.76396166297559
 30
0.0
 10
19.94538527279135
 20
-14.76844194075233
 30
0.0
 10
19.94400943945846
 20
-14.76946499630777
 30
0.0
 10
19.94090499501493
 20
-14.77309860741794
 30
0.0
 10
19.93229721723922
 20
-14.7873861074144
 30
0.0
 10
19.92400693946343
 20
-14.80287305185485
 30
0.0
 10
19.92125527279734
 20
-14.80908194074223
 30
0.0
 10
19.92125527279734
 20
-14.80978749629744
 30
0.0
 10
19.92196082835286
 20
-14.81045777407512
 30
0.0
 10
19.92196082835286
 20
-14.81320944074121
 30
0.0
 10
19.90093527280239
 20
-14.86471499628379
 30
0.0
 10
19.892327495027
 20
-14.94430166293048
 30
0.0
 10
19.92196082835286
 20
-15.04247971846147
 30
0.0
 10
19.94986555056808
 20
-15.17565332953947
 30
0.0
 10
20.05079527276516
 20
-15.32258527394727
 30
0.0
 10
20.19755082828409
 20
-15.44143610725066
 30
0.0
 10
20.36155721713196
 20
-15.57164638499584
 30
0.0
 10
20.51900193931468
 20
-15.71102888496122
 30
0.0
 10
20.68159721705182
 20
-15.83813471826256
 30
0.0
 10
20.68505443927312
 20
-15.84829471826004
 30
0.0
 10
20.68953471704985
 20
-15.85796082936871
 30
0.0
 10
20.70018860593613
 20
-15.86536916270042
 30
0.0
 10
20.77116749480711
 20
-15.91789777379844
 30
0.0
 10
20.9596213836489
 20
-16.07583638486997
 30
0.0
 10
21.11325610583289
 20
-16.20435332928235
 30
0.0
 10
21.12532110582989
 20
-16.20590555150412
 30
0.0
 10
21.13498721693857
 20
-16.21366666261326
 30
0.0
 10
21.14599388360229
 20
-16.21659471816823
 30
0.0
 10
21.3602711057709
 20
-16.43570499589102
 30
0.0
 10
22.09478971669856
 20
-17.2457886067996
 30
0.0
 10
22.10890082780613
 20
-17.88780888441702
 30
0.0
 10
22.0772213833697
 20
-18.08917443992206
 30
0.0
 10
22.04377805004446
 20
-18.28810582876125
 30
0.0
 10
22.01347443894123
 20
-18.48791916204453
 30
0.0
 10
21.86153305009005
 20
-19.27066249518237
 30
0.0
 10
21.81814138343437
 20
-20.09870249497542
 30
0.0
 10
21.48328471685141
 20
-20.71913277259788
 30
0.0
 10
21.45986027241293
 20
-20.72809332815135
 30
0.0
 10
21.43675332797405
 20
-20.73913527259291
 30
0.0
 10
21.41368166131333
 20
-20.74876610592407
 30
0.0
 10
21.09604055028147
 20
-20.64317971706136
 30
0.0
 10
20.51244027264954
 20
-19.67392277285942
 30
0.0
 10
20.15620527273866
 20
-19.07825749523048
 30
0.0
 10
20.15655805051642
 20
-19.07772832856384
 30
0.0
 10
20.16551860606958
 20
-19.07652888411983
 30
0.0
 10
20.16551860606958
 20
-19.07652888411983
 30
0.0
 10
19.770019439502
 20
-18.498079162042
 30
0.0
 10
18.63005332867568
 20
-16.49719416254252
 30
0.0
 10
18.51257832870517
 20
-16.29134832926042
 30
0.0
 10
18.30242860653554
 20
-15.69931666274198
 30
0.0
 10
18.08949193992198
 20
-15.10552110733473
 30
0.0
 10
17.87867193997467
 20
-14.51211360748309
 30
0.0
 10
17.87867193997467
 20
-14.51211360748309
 30
0.0
 10
17.39289694009629
 20
-12.38168860801578
 30
0.0
 10
17.39289694009629
 20
-12.38168860801578
 30
0.0
 10
17.18860332903628
 20
-11.79893499705041
 30
0.0
 10
16.98293388464306
 20
-11.21773360830681
 30
0.0
 10
16.77726444025016
 20
-10.63550916400777
 30
0.0
 10
16.77726444025016
 20
-10.63550916400777
 30
0.0
 10
15.99074638489111
 20
-9.521225275397537
 30
0.0
 10
15.99074638489111
 20
-9.521225275397537
 30
0.0
 10
15.79128582938559
 20
-9.081946386618364
 30
0.0
 10
15.59009666276911
 20
-8.64252638672815
 30
0.0
 10
15.39095360726352
 20
-8.205011386837784
 30
0.0
 10
15.39095360726352
 20
-8.205011386837784
 30
0.0
 10
14.14487194090817
 20
-5.715740831904549
 30
0.0
 10
14.14487194090817
 20
-5.715740831904549
 30
0.0
 10
14.0077472187204
 20
-5.44530138752742
 30
0.0
 10
13.89133055208287
 20
-5.135950554271673
 30
0.0
 10
13.76383666322561
 20
-4.831573887681143
 30
0.0
 10
13.63602527436875
 20
-4.573375832189898
 30
0.0
 10
12.98077583008817
 20
-4.082767776757021
 30
0.0
 10
12.98077583008817
 20
-4.082767776757021
 30
0.0
 10
12.60009333018336
 20
-3.787704443497404
 30
0.0
 10
12.21976360805632
 20
-3.492637582460099
 30
0.0
 10
11.84356138592793
 20
-3.184475610314972
 30
0.0
 10
11.31058471939451
 20
-2.946936221485369
 30
0.0
 10
10.78212360841565
 20
-2.706468777101116
 30
0.0
 10
10.25158110854807
 20
-2.468583666049448
 30
0.0
 10
9.944276386402892
 20
-2.315104166087891
 30
0.0
 10
9.668333608693903
 20
-2.039150805045839
 30
0.0
 10
9.374434442100771
 20
-1.885671305084281
 30
0.0
 10
8.70955416448935
 20
-2.14405633279747
 30
0.0
 10
7.926140553574145
 20
-1.797134666217508
 30
0.0
 10
7.586803609214449
 20
-1.461237305190345
 30
0.0
 10
7.386284720375651
 20
-1.251260444131585
 30
0.0
 10
7.33562583149931
 20
-1.43247180519749
 30
0.0
 10
7.488590275905618
 20
-1.626256166259952
 30
0.0
 10
7.641554720311926
 20
-1.820044055100422
 30
0.0
 10
7.641554720311926
 20
-1.820044055100422
 30
0.0
 10
7.715638053626751
 20
-1.917714110631539
 30
0.0
 10
7.715638053626751
 20
-1.917714110631539
 30
0.0
 10
7.715638053626751
 20
-1.951129221734315
 30
0.0
 10
7.715638053626751
 20
-1.951129221734315
 30
0.0
 10
7.392493609263034
 20
-1.873959082864719
 30
0.0
 10
7.052803887125576
 20
-1.787316860664409
 30
0.0
 10
6.742747498314307
 20
-1.723238305124627
 30
0.0
 10
6.432691109503037
 20
-1.659159749585166
 30
0.0
 10
6.385489442847987
 20
-1.803163638438001
 30
0.0
 10
6.742747498314307
 20
-1.951129221734315
 30
0.0
 10
7.100005553780626
 20
-2.099098332808637
 30
0.0
 10
7.321514720391739
 20
-2.156629332794027
 30
0.0
 10
7.6512208314206
 20
-2.307180777200934
 30
0.0
 10
7.630195275870125
 20
-2.315792082754333
 30
0.0
 10
7.607476386987164
 20
-2.329402249417726
 30
0.0
 10
7.586803609214449
 20
-2.340768749414903
 30
0.0
 10
7.355981109272103
 20
-2.502863082707547
 30
0.0
 10
7.020418887133942
 20
-2.543167943808772
 30
0.0
 10
6.611126109458396
 20
-2.534210916032987
 30
0.0
  0
HATCH
  5
42
330
1F
100
AcDbEntity
  8
Layer 1
 62
     7
100
AcDbHatch
 10
0.0
 20
0.0
 30
0.0
210
0.0
220
0.0
230
1.0
  2
SOLID
 70
     1
 71
     0
 91
        1
 92
        1
 93
        1
 72
     4
 94
        3
 73
     0
 74
     1
 95
      812
 96
      808
 40
0.0
 40
0.0
 40
0.0
 40
0.0
 40
1.0
 40
1.0
 40
1.0
 40
2.0
 40
2.0
 40
2.0
 40
3.0
 40
3.0
 40
3.0
 40
4.0
 40
4.0
 40
4.0
 40
5.0
 40
5.0
 40
5.0
 40
6.0
 40
6.0
 40
6.0
 40
7.0
 40
7.0
 40
7.0
 40
8.0
 40
8.0
 40
8.0
 40
9.0
 40
9.0
 40
9.0
 40
10.0
 40
10.0
 40
10.0
 40
11.0
 40
11.0
 40
11.0
 40
12.0
 40
12.0
 40
12.0
 40
13.0
 40
13.0
 40
13.0
 40
14.0
 40
14.0
 40
14.0
 40
15.0
 40
15.0
 40
15.0
 40
16.0
 40
16.0
 40
16.0
 40
17.0
 40
17.0
 40
17.0
 40
18.0
 40
18.0
 40
18.0
 40
19.0
 40
19.0
 40
19.0
 40
20.0
 40
20.0
 40
20.0
 40
21.0
 40
21.0
 40
21.0
 40
22.0
 40
22.0
 40
22.0
 40
23.0
 40
23.0
 40
23.0
 40
24.0
 40
24.0
 40
24.0
 40
25.0
 40
25.0
 40
25.0
 40
26.0
 40
26.0
 40
26.0
 40
27.0
 40
27.0
 40
27.0
 40
28.0
 40
28.0
 40
28.0
 40
29.0
 40
29.0
 40
29.0
 40
30.0
 40
30.0
 40
30.0
 40
31.0
 40
31.0
 40
31.0
 40
32.0
 40
32.0
 40
32.0
 40
33.0
 40
33.0
 40
33.0
 40
34.0
 40
34.0
 40
34.0
 40
35.0
 40
35.0
 40
35.0
 40
36.0
 40
36.0
 40
36.0
 40
37.0
 40
37.0
 40
37.0
 40
38.0
 40
38.0
 40
38.0
 40
39.0
 40
39.0
 40
39.0
 40
40.0
 40
40.0
 40
40.0
 40
41.0
 40
41.0
 40
41.0
 40
42.0
 40
42.0
 40
42.0
 40
43.0
 40
43.0
 40
43.0
 40
44.0
 40
44.0
 40
44.0
 40
45.0
 40
45.0
 40
45.0
 40
46.0
 40
46.0
 40
46.0
 40
47.0
 40
47.0
 40
47.0
 40
48.0
 40
48.0
 40
48.0
 40
49.0
 40
49.0
 40
49.0
 40
50.0
 40
50.0
 40
50.0
 40
51.0
 40
51.0
 40
51.0
 40
52.0
 40
52.0
 40
52.0
 40
53.0
 40
53.0
 40
53.0
 40
54.0
 40
54.0
 40
54.0
 40
55.0
 40
55.0
 40
55.0
 40
56.0
 40
56.0
 40
56.0
 40
57.0
 40
57.0
 40
57.0
 40
58.0
 40
58.0
 40
58.0
 40
59.0
 40
59.0
 40
59.0
 40
60.0
 40
60.0
 40
60.0
 40
61.0
 40
61.0
 40
61.0
 40
62.0
 40
62.0
 40
62.0
 40
63.0
 40
63.0
 40
63.0
 40
64.0
 40
64.0
 40
64.0
 40
65.0
 40
65.0
 40
65.0
 40
66.0
 40
66.0
 40
66.0
 40
67.0
 40
67.0
 40
67.0
 40
68.0
 40
68.0
 40
68.0
 40
69.0
 40
69.0
 40
69.0
 40
70.0
 40
70.0
 40
70.0
 40
71.0
 40
71.0
 40
71.0
 40
72.0
 40
72.0
 40
72.0
 40
73.0
 40
73.0
 40
73.0
 40
74.0
 40
74.0
 40
74.0
 40
75.0
 40
75.0
 40
75.0
 40
76.0
 40
76.0
 40
76.0
 40
77.0
 40
77.0
 40
77.0
 40
78.0
 40
78.0
 40
78.0
 40
79.0
 40
79.0
 40
79.0
 40
80.0
 40
80.0
 40
80.0
 40
81.0
 40
81.0
 40
81.0
 40
82.0
 40
82.0
 40
82.0
 40
83.0
 40
83.0
 40
83.0
 40
84.0
 40
84.0
 40
84.0
 40
85.0
 40
85.0
 40
85.0
 40
86.0
 40
86.0
 40
86.0
 40
87.0
 40
87.0
 40
87.0
 40
88.0
 40
88.0
 40
88.0
 40
89.0
 40
89.0
 40
89.0
 40
90.0
 40
90.0
 40
90.0
 40
91.0
 40
91.0
 40
91.0
 40
92.0
 40
92.0
 40
92.0
 40
93.0
 40
93.0
 40
93.0
 40
94.0
 40
94.0
 40
94.0
 40
95.0
 40
95.0
 40
95.0
 40
96.0
 40
96.0
 40
96.0
 40
97.0
 40
97.0
 40
97.0
 40
98.0
 40
98.0
 40
98.0
 40
99.0
 40
99.0
 40
99.0
 40
100.0
 40
100.0
 40
100.0
 40
101.0
 40
101.0
 40
101.0
 40
102.0
 40
102.0
 40
102.0
 40
103.0
 40
103.0
 40
103.0
 40
104.0
 40
104.0
 40
104.0
 40
105.0
 40
105.0
 40
105.0
 40
106.0
 40
106.0
 40
106.0
 40
107.0
 40
107.0
 40
107.0
 40
108.0
 40
108.0
 40
108.0
 40
109.0
 40
109.0
 40
109.0
 40
110.0
 40
110.0
 40
110.0
 40
111.0
 40
111.0
 40
111.0
 40
112.0
 40
112.0
 40
112.0
 40
113.0
 40
113.0
 40
113.0
 40
114.0
 40
114.0
 40
114.0
 40
115.0
 40
115.0
 40
115.0
 40
116.0
 40
116.0
 40
116.0
 40
117.0
 40
117.0
 40
117.0
 40
118.0
 40
118.0
 40
118.0
 40
119.0
 40
119.0
 40
119.0
 40
120.0
 40
120.0
 40
120.0
 40
121.0
 40
121.0
 40
121.0
 40
122.0
 40
122.0
 40
122.0
 40
123.0
 40
123.0
 40
123.0
 40
124.0
 40
124.0
 40
124.0
 40
125.0
 40
125.0
 40
125.0
 40
126.0
 40
126.0
 40
126.0
 40
127.0
 40
127.0
 40
127.0
 40
128.0
 40
128.0
 40
128.0
 40
129.0
 40
129.0
 40
129.0
 40
130.0
 40
130.0
 40
130.0
 40
131.0
 40
131.0
 40
131.0
 40
132.0
 40
132.0
 40
132.0
 40
133.0
 40
133.0
 40
133.0
 40
134.0
 40
134.0
 40
134.0
 40
135.0
 40
135.0
 40
135.0
 40
136.0
 40
136.0
 40
136.0
 40
137.0
 40
137.0
 40
137.0
 40
138.0
 40
138.0
 40
138.0
 40
139.0
 40
139.0
 40
139.0
 40
140.0
 40
140.0
 40
140.0
 40
141.0
 40
141.0
 40
141.0
 40
142.0
 40
142.0
 40
142.0
 40
143.0
 40
143.0
 40
143.0
 40
144.0
 40
144.0
 40
144.0
 40
145.0
 40
145.0
 40
145.0
 40
146.0
 40
146.0
 40
146.0
 40
147.0
 40
147.0
 40
147.0
 40
148.0
 40
148.0
 40
148.0
 40
149.0
 40
149.0
 40
149.0
 40
150.0
 40
150.0
 40
150.0
 40
151.0
 40
151.0
 40
151.0
 40
152.0
 40
152.0
 40
152.0
 40
153.0
 40
153.0
 40
153.0
 40
154.0
 40
154.0
 40
154.0
 40
155.0
 40
155.0
 40
155.0
 40
156.0
 40
156.0
 40
156.0
 40
157.0
 40
157.0
 40
157.0
 40
158.0
 40
158.0
 40
158.0
 40
159.0
 40
159.0
 40
159.0
 40
160.0
 40
160.0
 40
160.0
 40
161.0
 40
161.0
 40
161.0
 40
162.0
 40
162.0
 40
162.0
 40
163.0
 40
163.0
 40
163.0
 40
164.0
 40
164.0
 40
164.0
 40
165.0
 40
165.0
 40
165.0
 40
166.0
 40
166.0
 40
166.0
 40
167.0
 40
167.0
 40
167.0
 40
168.0
 40
168.0
 40
168.0
 40
169.0
 40
169.0
 40
169.0
 40
170.0
 40
170.0
 40
170.0
 40
171.0
 40
171.0
 40
171.0
 40
172.0
 40
172.0
 40
172.0
 40
173.0
 40
173.0
 40
173.0
 40
174.0
 40
174.0
 40
174.0
 40
175.0
 40
175.0
 40
175.0
 40
176.0
 40
176.0
 40
176.0
 40
177.0
 40
177.0
 40
177.0
 40
178.0
 40
178.0
 40
178.0
 40
179.0
 40
179.0
 40
179.0
 40
180.0
 40
180.0
 40
180.0
 40
181.0
 40
181.0
 40
181.0
 40
182.0
 40
182.0
 40
182.0
 40
183.0
 40
183.0
 40
183.0
 40
184.0
 40
184.0
 40
184.0
 40
185.0
 40
185.0
 40
185.0
 40
186.0
 40
186.0
 40
186.0
 40
187.0
 40
187.0
 40
187.0
 40
188.0
 40
188.0
 40
188.0
 40
189.0
 40
189.0
 40
189.0
 40
190.0
 40
190.0
 40
190.0
 40
191.0
 40
191.0
 40
191.0
 40
192.0
 40
192.0
 40
192.0
 40
193.0
 40
193.0
 40
193.0
 40
194.0
 40
194.0
 40
194.0
 40
195.0
 40
195.0
 40
195.0
 40
196.0
 40
196.0
 40
196.0
 40
197.0
 40
197.0
 40
197.0
 40
198.0
 40
198.0
 40
198.0
 40
199.0
 40
199.0
 40
199.0
 40
200.0
 40
200.0
 40
200.0
 40
201.0
 40
201.0
 40
201.0
 40
202.0
 40
202.0
 40
202.0
 40
203.0
 40
203.0
 40
203.0
 40
204.0
 40
204.0
 40
204.0
 40
205.0
 40
205.0
 40
205.0
 40
206.0
 40
206.0
 40
206.0
 40
207.0
 40
207.0
 40
207.0
 40
208.0
 40
208.0
 40
208.0
 40
209.0
 40
209.0
 40
209.0
 40
210.0
 40
210.0
 40
210.0
 40
211.0
 40
211.0
 40
211.0
 40
212.0
 40
212.0
 40
212.0
 40
213.0
 40
213.0
 40
213.0
 40
214.0
 40
214.0
 40
214.0
 40
215.0
 40
215.0
 40
215.0
 40
216.0
 40
216.0
 40
216.0
 40
217.0
 40
217.0
 40
217.0
 40
218.0
 40
218.0
 40
218.0
 40
219.0
 40
219.0
 40
219.0
 40
220.0
 40
220.0
 40
220.0
 40
221.0
 40
221.0
 40
221.0
 40
222.0
 40
222.0
 40
222.0
 40
223.0
 40
223.0
 40
223.0
 40
224.0
 40
224.0
 40
224.0
 40
225.0
 40
225.0
 40
225.0
 40
226.0
 40
226.0
 40
226.0
 40
227.0
 40
227.0
 40
227.0
 40
228.0
 40
228.0
 40
228.0
 40
229.0
 40
229.0
 40
229.0
 40
230.0
 40
230.0
 40
230.0
 40
231.0
 40
231.0
 40
231.0
 40
232.0
 40
232.0
 40
232.0
 40
233.0
 40
233.0
 40
233.0
 40
234.0
 40
234.0
 40
234.0
 40
235.0
 40
235.0
 40
235.0
 40
236.0
 40
236.0
 40
236.0
 40
237.0
 40
237.0
 40
237.0
 40
238.0
 40
238.0
 40
238.0
 40
239.0
 40
239.0
 40
239.0
 40
240.0
 40
240.0
 40
240.0
 40
241.0
 40
241.0
 40
241.0
 40
242.0
 40
242.0
 40
242.0
 40
243.0
 40
243.0
 40
243.0
 40
244.0
 40
244.0
 40
244.0
 40
245.0
 40
245.0
 40
245.0
 40
246.0
 40
246.0
 40
246.0
 40
247.0
 40
247.0
 40
247.0
 40
248.0
 40
248.0
 40
248.0
 40
249.0
 40
249.0
 40
249.0
 40
250.0
 40
250.0
 40
250.0
 40
251.0
 40
251.0
 40
251.0
 40
252.0
 40
252.0
 40
252.0
 40
253.0
 40
253.0
 40
253.0
 40
254.0
 40
254.0
 40
254.0
 40
255.0
 40
255.0
 40
255.0
 40
256.0
 40
256.0
 40
256.0
 40
257.0
 40
257.0
 40
257.0
 40
258.0
 40
258.0
 40
258.0
 40
259.0
 40
259.0
 40
259.0
 40
260.0
 40
260.0
 40
260.0
 40
261.0
 40
261.0
 40
261.0
 40
262.0
 40
262.0
 40
262.0
 40
263.0
 40
263.0
 40
263.0
 40
264.0
 40
264.0
 40
264.0
 40
265.0
 40
265.0
 40
265.0
 40
266.0
 40
266.0
 40
266.0
 40
267.0
 40
267.0
 40
267.0
 40
268.0
 40
268.0
 40
268.0
 40
269.0
 40
269.0
 40
269.0
 40
269.0
 10
6.611126109458396
 20
-2.534210916032987
 10
6.410642498397438
 20
-2.508031277150725
 10
6.460243053940495
 20
-2.568663193802279
 10
6.548437498362891
 20
-2.696647443770329
 10
6.592181942796327
 20
-2.730238943761986
 10
6.633527498341756
 20
-2.762620415975933
 10
6.67660166499751
 20
-2.793629582635005
 10
7.261930553740086
 20
-3.108166249223011
 10
8.244451942383364
 20
-2.354893971633545
 10
8.722994997819239
 20
-2.632396027119675
 10
8.963095553314657
 20
-2.772783943751097
 10
9.199774164366625
 20
-2.913517582604906
 10
9.437158330974116
 20
-3.055454193680726
 10
9.437158330974116
 20
-3.055454193680726
 10
9.437158330974116
 20
-3.215996304751605
 10
9.437158330974116
 20
-3.215996304751605
 10
8.886966108889265
 20
-3.198597304755927
 10
8.549357775640537
 20
-3.141927082547852
 10
8.009149164664281
 20
-3.389975721374684
 10
7.872059720254351
 20
-3.478512360241457
 10
7.812087498047097
 20
-3.606164999098514
 10
8.139394720187308
 20
-3.638549999090471
 10
8.46666666455
 20
-3.670934999082426
 10
8.929334719989818
 20
-3.600308887988894
 10
9.374434442100771
 20
-3.703143610185181
 10
9.655563053141698
 20
-3.802168332382736
 10
9.936338886404863
 20
-3.900028887913806
 10
10.21746749744579
 20
-3.997007499000794
 10
10.44589110849949
 20
-3.974782499006314
 10
10.67325638622054
 20
-3.954462499011361
 10
10.90199749727448
 20
-3.932413887905763
 10
11.28063388606872
 20
-4.010095554552921
 10
11.5985924971005
 20
-4.36442555446459
 10
11.88384860814008
 20
-4.746307498813398
 10
11.88349583036232
 20
-4.753892221033664
 10
11.88349583036232
 20
-4.763029165476017
 10
11.88109694147431
 20
-4.771813332140288
 10
11.88765860813913
 20
-4.771813332140288
 10
11.89383221924867
 20
-4.771813332140288
 10
11.9017697192467
 20
-4.773541943250934
 10
12.12052721919205
 20
-5.239138054245722
 10
12.34034305247035
 20
-5.707133054128838
 10
12.55977083019338
 20
-6.173434720678828
 10
12.80128249679952
 20
-7.14011638710389
 10
13.04452277451663
 20
-8.109584997972561
 10
13.28808055223367
 20
-9.077466108841627
 10
13.80172499654943
 20
-10.74903305286817
 10
14.41255971861921
 20
-12.28329888581807
 10
15.01923166291187
 20
-13.84049527431764
 10
15.59009666276911
 20
-15.51844749612045
 10
16.16371332929245
 20
-17.19671721792318
 10
16.73560138470513
 20
-18.87463416194815
 10
16.91163749577216
 20
-19.21277166186352
 10
17.08837916239472
 20
-19.5517911062233
 10
17.26441527346175
 20
-19.88975221724979
 10
17.26441527346175
 20
-19.88975221724979
 10
17.92276916218587
 20
-21.23471749469132
 10
17.92276916218587
 20
-21.23471749469132
 10
18.28313166209604
 20
-21.94214277229218
 10
18.67827805088585
 20
-22.68354054988459
 10
18.98039693969941
 20
-23.43682693858513
 10
19.23016360630351
 20
-24.05796277176344
 10
18.90049277305281
 20
-25.02947749374268
 10
18.79335416196834
 20
-25.56813388249684
 10
18.78128916197134
 20
-25.8342694379858
 10
18.76611971753081
 20
-26.10142804903019
 10
18.75200860642324
 20
-26.36876304896347
 10
18.64554027311645
 20
-27.03075054879776
 10
18.7154961064323
 20
-27.65290943753119
 10
18.83745138417954
 20
-28.22754915960965
 10
18.86704943972757
 20
-28.41928388178417
 10
18.89530693972055
 20
-28.60996027062542
 10
18.92285888415833
 20
-28.8009894372441
 10
18.92285888415833
 20
-28.8009894372441
 10
19.36764110626936
 20
-29.81610749254606
 10
19.36764110626936
 20
-29.81610749254606
 10
19.69974610618623
 20
-30.17784582578879
 10
20.03530832832439
 20
-30.54043082569809
 10
20.36878916157447
 20
-30.90336860338515
 10
20.89795582810884
 20
-31.61890776987291
 10
21.42676971686545
 20
-32.33377665858331
 10
21.95593638339983
 20
-33.04811638062675
 10
22.53297499436662
 20
-33.64395804714457
 10
23.1096961053338
 20
-34.24078749143966
 10
23.68779304963355
 20
-34.83662915795747
 10
24.10223638286319
 20
-35.35115554671764
 10
24.64346804939457
 20
-35.8644824910338
 10
25.15954666037682
 20
-36.28203026870729
 10
25.51955638250891
 20
-36.63392610195247
 10
25.8809419379742
 20
-36.9872330463087
 10
26.24095166010629
 20
-37.3407163795538
 10
26.24095166010629
 20
-37.3407163795538
 10
25.86439666020046
 20
-37.86194554609015
 10
25.86439666020046
 20
-37.86194554609015
 10
25.70247166024101
 20
-38.14631971268565
 10
25.53917082694866
 20
-38.4293533237261
 10
25.37555249365607
 20
-38.71425665698824
 10
25.12747916038478
 20
-39.05221776801474
 10
24.74679666047998
 20
-39.27252749018184
 10
24.53837554942099
 20
-39.606890267876
 10
24.01989804955074
 20
-40.60666248984822
 10
23.50209082745785
 20
-41.60572915626523
 10
22.98498916092047
 20
-42.6058541560149
 10
22.43825416105723
 20
-43.44091443358437
 10
21.89116638341624
 20
-44.27498693337559
 10
21.34443138355268
 20
-45.10905943316746
 10
21.34443138355268
 20
-45.10905943316746
 10
20.9375727725433
 20
-46.88257915494621
 10
20.9375727725433
 20
-46.88257915494621
 10
20.80147110591065
 20
-47.36143971038169
 10
20.66505193927808
 20
-47.8396299880398
 10
20.52827999486808
 20
-48.31813776569815
 10
20.8252483281269
 20
-48.44563165455509
 10
21.1105044391668
 20
-48.43423693233609
 10
21.39957055020576
 20
-48.62752387673206
 10
21.38679999465323
 20
-48.92311637665832
 10
21.37131305021277
 20
-49.24178054324531
 10
21.70687527235093
 20
-49.48812526540595
 10
21.70687527235093
 20
-49.48812526540595
 10
22.26944999443271
 20
-49.47778887651959
 10
22.26944999443271
 20
-49.47778887651959
 10
22.43754860550171
 20
-49.8216060986557
 10
22.61841777212324
 20
-50.00900165416421
 10
22.84338416095597
 20
-50.14199887635333
 10
23.0811211053409
 20
-49.80160359866099
 10
23.50865249412299
 20
-49.69308915424364
 10
23.7842424940539
 20
-49.28002165434656
 10
23.96719304956383
 20
-49.44917859874852
 10
24.14979082729601
 20
-49.61900582092849
 10
24.3334116605833
 20
-49.78713970977533
 10
24.49808832720885
 20
-49.7213466542363
 10
24.66068360494599
 20
-49.65555359869727
 10
24.82465471601602
 20
-49.58732637649206
 10
25.08235888261814
 20
-49.90736637641193
 10
25.37555249365607
 20
-49.85536693198054
 10
25.64253471581159
 20
-50.06689248748306
 10
26.51103832670566
 20
-49.26763915434996
 10
26.2750652712089
 20
-47.84721471026039
 10
26.99335610436275
 20
-47.06207248823453
 10
27.4164072153681
 20
-46.59834609946144
 10
28.53365443731114
 20
-46.84779526606561
 10
28.81238415946342
 20
-46.36477193285332
 10
28.79513332613448
 20
-46.10226998847454
 10
28.74380415948077
 20
-45.06975998873228
 10
28.86371332611744
 20
-44.8895963776666
 10
28.86371332611744
 20
-44.8895963776666
 10
29.23197804824748
 20
-44.66911026661061
 10
29.23197804824748
 20
-44.66911026661061
 10
29.30606138156231
 20
-44.56370026663679
 10
29.38391943709835
 20
-44.45723193333033
 10
29.46107193707919
 20
-44.35044610002362
 10
29.46107193707919
 20
-44.35044610002362
 10
29.86380304808959
 20
-44.25293832227
 10
29.86380304808959
 20
-44.25293832227
 10
29.86380304808959
 20
-44.25293832227
 10
30.2530933257701
 20
-43.9639074890092
 10
30.2530933257701
 20
-43.9639074890092
 10
30.34714388130212
 20
-43.89119998902694
 10
30.45569360349731
 20
-43.83091026682008
 10
30.56558388124754
 20
-43.772701933501
 10
30.60968110345874
 20
-45.12352332205248
 10
30.65307277011441
 20
-46.47296887727043
 10
30.69406554788208
 20
-47.82273193248862
 10
31.02754638113215
 20
-49.01476804330201
 10
31.36208554771519
 20
-50.20676887633724
 10
31.69729499207559
 20
-51.39943998714983
 10
31.72382388095793
 20
-51.39323109826277
 10
31.75275165872859
 20
-51.38910359826411
 10
31.78238499205446
 20
-51.38430582048746
 10
31.85301110314799
 20
-51.8224910981555
 10
31.92638888090729
 20
-52.2614172091566
 10
31.9963094364453
 20
-52.70030804238016
 10
32.12517915863545
 20
-53.5250672088408
 10
32.25263776971454
 20
-54.34982637530143
 10
32.38217776968236
 20
-55.17458554176207
 10
32.59197471407424
 20
-55.9652310971201
 10
32.80247721402163
 20
-56.75587665247749
 10
33.01125110285838
 20
-57.54860359672393
 10
33.01125110285838
 20
-57.54860359672393
 10
32.58336693629852
 20
-61.48151137351849
 10
32.58336693629852
 20
-61.48151137351849
 10
32.53926971408733
 20
-61.99208665116856
 10
32.49690110298678
 20
-62.50160359548599
 10
32.45315665855334
 20
-63.01147331758053
 10
32.23334082527504
 20
-64.30648526170093
 10
32.2088933252811
 20
-65.58601026138119
 10
31.9670288808972
 20
-66.81692248329568
 10
31.90882054757843
 20
-67.25651887207478
 10
31.85301110314799
 20
-67.69406914974299
 10
31.79649610316203
 20
-68.1312313718559
 10
31.46682526991101
 20
-69.35667553821638
 10
31.13814221443759
 20
-70.58310748235445
 10
30.80811860340913
 20
-71.80886914871452
 10
30.70475471454588
 20
-72.30360470414605
 10
30.76504443675305
 20
-72.81276887068572
 10
30.76504443675305
 20
-73.35160164832908
 10
30.76504443675305
 20
-73.35160164832908
 10
30.78123693674903
 20
-74.16877609256913
 10
30.78123693674903
 20
-74.16877609256913
 10
31.03929388112892
 20
-75.39937081448338
 10
31.41101582548057
 20
-76.73262386970568
 10
31.9670288808972
 20
-77.68688775835597
 10
32.07247415864854
 20
-77.89428581385984
 10
32.17686110306691
 20
-78.10651692491787
 10
32.28262388081817
 20
-78.31596109153197
 10
32.28262388081817
 20
-78.31596109153197
 10
32.67741749183054
 20
-78.73008692476171
 10
32.94133054732037
 20
-78.75834442475501
 10
33.20520832503203
 20
-78.78727220252567
 10
33.44876610274907
 20
-78.68736553588403
 10
33.54006499161499
 20
-78.63085053589806
 10
33.63136388048092
 20
-78.5736652581341
 10
33.64688610269953
 20
-78.45929470260745
 10
33.69821526935324
 20
-78.37318164707347
 10
34.25493388032507
 20
-77.52979581395101
 10
33.81085721376956
 20
-76.08150192542406
 10
33.65549388047493
 20
-75.05417775901438
 10
33.67927110269117
 20
-74.90809248127314
 10
33.70269554712998
 20
-74.75996109242101
 10
33.72541443601293
 20
-74.61249998134687
 10
33.83361138043036
 20
-74.09296414814334
 10
33.87837888041924
 20
-73.74297331489768
 10
34.12814554702366
 20
-73.39569887054029
 10
34.32658304697405
 20
-73.22929359280408
 10
34.52812499136797
 20
-73.06151248173437
 10
34.7262097135406
 20
-72.89545998177593
 10
34.91364054682727
 20
-72.74387137070315
 10
35.55407242627338
 20
-71.76547748205884
 10
35.45624715099133
 20
-71.37960914882179
 10
35.40936388003641
 20
-71.3120874821721
 10
35.36286687559588
 20
-71.24456581552242
 10
35.31464215460397
 20
-71.1791255377605
 10
34.96701582459154
 20
-70.62582887123212
 10
33.96967776928549
 20
-70.21381970466896
 10
34.19841888033943
 20
-69.13308498271685
 10
34.39929054695567
 20
-68.5181227606481
 10
34.59839832468374
 20
-67.90316053857997
 10
34.79856443574478
 20
-67.2878808165116
 10
35.56130437053332
 20
-65.12746970594067
 10
36.46462712526542
 20
-63.07730165089709
 10
36.94553377966313
 20
-60.69636915149264
 10
36.93692600210495
 20
-60.04595276276655
 10
36.92591933571909
 20
-59.39895831848359
 10
36.91487739155635
 20
-58.75023526308999
 10
36.91487739155635
 20
-58.75023526308999
 10
36.91487739155635
 20
-57.56204443005382
 10
36.91487739155635
 20
-57.56204443005382
 10
36.86940433716091
 20
-56.86682526356101
 10
36.82188610190578
 20
-56.1716060970682
 10
36.77433072847533
 20
-55.47359998613146
 10
36.65339850933834
 20
-54.93963554182043
 10
36.5335246235077
 20
-54.4063413752874
 10
36.4149912931984
 20
-53.87336470875397
 10
36.57451740023966
 20
-51.63784720931276
 10
36.7309037851388
 20
-49.40162415431603
 10
36.88767822558359
 20
-47.16473082154194
 10
36.9059168362294
 20
-45.71573137746012
 10
36.92591933571909
 20
-44.26673193337764
 10
36.94553377966313
 20
-42.81702693374029
 10
37.08678599828171
 20
-42.01502193394078
 10
37.18566960687009
 20
-41.2205663785837
 10
37.31658543686348
 20
-40.38511804545958
 10
37.31658543686348
 20
-40.38511804545958
 10
37.32865043655568
 20
-40.02337971221653
 10
37.32865043655568
 20
-40.02337971221653
 10
38.66532540245426
 20
-39.22363249019399
 10
40.02994036764003
 20
-38.47810721260259
 10
41.49273338587663
 20
-37.89517721274835
 10
41.47858699734864
 20
-37.81354443499109
 10
41.46172422000107
 20
-37.73155887945608
 10
41.44793060924187
 20
-37.64886776836555
 10
41.70528199156517
 20
-37.43836526841815
 10
41.96400920718671
 20
-37.22648693513787
 10
42.2217133672788
 20
-37.01668999074568
 10
42.2217133672788
 20
-37.01668999074568
 10
42.57036363616177
 20
-36.97587360186721
 10
42.57036363616177
 20
-36.97587360186721
 10
42.80908835229361
 20
-36.89438193522101
 10
42.94413168218171
 20
-36.60291693529372
 10
43.08986417846376
 20
-36.44808276866573
 10
43.40062611498001
 20
-36.50301026865208
 10
43.71413971809272
 20
-36.5573027686386
 10
44.02624221013032
 20
-36.61187749084687
 10
44.02624221013032
 20
-36.61187749084687
 10
44.23261720486526
 20
-36.24809304649357
 10
44.23261720486526
 20
-36.24809304649357
 10
44.35354942400224
 20
-36.15781721318277
 10
44.53921636370993
 20
-36.25102110204822
 10
44.77003885782116
 20
-36.08186415764625
 10
44.71423054437692
 20
-35.51325693556598
 10
45.10147357158777
 20
-34.98924082458602
 10
45.16589079216657
 20
-34.45354776916435
 10
45.21273967986025
 20
-34.07113665814889
 10
45.10045051605832
 20
-33.62603693603794
 10
45.04153662867245
 20
-33.19779999170065
 10
45.42151356342287
 20
-33.01333249174679
 10
45.80321910924031
 20
-32.83020554734797
 10
46.18425554400923
 20
-32.64711388072699
 10
46.62349797720213
 20
-32.39992249190011
 10
47.06104824381708
 20
-32.15117888085114
 10
47.4995862881846
 20
-31.90363471424617
 10
48.80666319928273
 20
-31.42703193658766
 10
50.11303455484331
 20
-30.95159332559532
 10
51.41975868817266
 20
-30.47308554793729
 10
52.09709200422579
 20
-30.08739360358911
 10
52.77368448696448
 20
-29.70120777035244
 10
53.44960669194248
 20
-29.31449277044914
 10
54.19925945059503
 20
-29.01614860385711
 10
55.038835262509
 20
-28.78532610391477
 10
55.87943412995242
 20
-28.57189554841272
 10
56.48095550349522
 20
-28.41928388178417
 10
57.07453937724053
 20
-28.33641638180476
 10
57.61093797466697
 20
-28.11490721519364
 10
58.03677601935849
 20
-27.89406832635989
 10
58.45947434190789
 20
-27.67495804863679
 10
58.88425554083423
 20
-27.45567138202512
 10
60.06556568982197
 20
-26.85330332662
 10
61.21209343834939
 20
-26.26987943787696
 10
62.31762841014485
 20
-25.58295054915994
 10
62.96120089372594
 20
-25.17796166037225
 10
63.60540837729084
 20
-24.77177332714023
 10
64.24827530533439
 20
-24.36734888279702
 10
65.56946332718363
 20
-23.79683666071754
 10
67.31991133808154
 20
-23.66246360519554
 10
68.63905324887186
 20
-23.07988638311905
 10
69.13273045849932
 20
-22.86148166095115
 10
69.48998850494047
 20
-22.4899361054887
 10
69.88478210597957
 20
-22.17917416112191
 10
70.38847820424031
 20
-21.7638841612257
 10
70.89386942672124
 20
-21.34961721688494
 10
71.39960984511086
 20
-20.93326888365544
 10
71.67692844914698
 20
-20.74876610592407
 10
71.95220275979
 20
-20.56172332819299
 10
72.22849649063087
 20
-20.37584471712841
 10
72.3445956543356
 20
-20.20428888383779
 10
72.4572375959063
 20
-20.03287416165854
 10
72.57231370408158
 20
-19.86149471725681
 10
72.94576425010962
 20
-19.33130499516731
 10
73.48974756956478
 20
-18.76372082864248
 10
73.5600209011053
 20
-17.95892888439903
 10
73.27099007514576
 20
-17.47474138452026
 10
73.03325313676649
 20
-17.1450352734914
 10
72.51442287222517
 20
-16.88666082911159
 10
71.15016068480817
 20
-17.10266666239085
 10
69.40316989604429
 20
-18.43747193983523
 10
68.68315046996908
 20
-19.33268082850019
 10
68.68315046996908
 20
-19.33268082850019
 10
68.0106502093482
 20
-20.003769994999
 10
68.0106502093482
 20
-20.003769994999
 10
67.44394800158376
 20
-20.70484527260143
 10
66.84207385027219
 20
-21.38852860576387
 10
65.92121804043184
 20
-21.73407443901095
 10
64.61068390719969
 20
-22.22828082777616
 10
63.1210445007591
 20
-22.65771721655778
 10
61.67342092657995
 20
-22.95175749426195
 10
60.73566706161515
 20
-23.06524610534484
 10
59.79512776282886
 20
-23.18014582753845
 10
58.85568054084133
 20
-23.29486916084286
 10
58.29688054098141
 20
-23.36567166082527
 10
57.74118352689968
 20
-23.43682693858513
 10
57.18308909669341
 20
-23.50847610523411
 10
56.08270468032212
 20
-23.7461777718412
 10
54.97960387513123
 20
-23.98511416067046
 10
53.87886668099115
 20
-24.22334499394419
 10
53.04931109784886
 20
-24.53788166053219
 10
52.22042311219046
 20
-24.85308860489788
 10
51.39016063337222
 20
-25.16797804926365
 10
50.94640276504149
 20
-25.26167582701791
 10
50.50236010046634
 20
-25.35763138254945
 10
50.06170538948616
 20
-25.45390443808092
 10
49.41679235038371
 20
-25.6177344380399
 10
48.7749837556465
 20
-25.77412082688966
 10
48.14693349389162
 20
-25.94398332684747
 10
48.4814373742466
 20
-25.79705138243966
 10
48.767046255849
 20
-25.57776471582768
 10
48.84077680952353
 20
-25.32111888255852
 10
48.67437153599111
 20
-25.02034054930032
 10
48.50764998787324
 20
-24.71995027159772
 10
48.34124348893435
 20
-24.41970110500617
 10
48.306424323156
 20
-24.26846527171051
 10
48.41666737589902
 20
-24.12601360507976
 10
48.27784932388501
 20
-24.0266008273266
 10
48.27784932388501
 20
-24.0266008273266
 10
48.15243682708455
 20
-23.95135332734561
 10
48.15243682708455
 20
-23.95135332734561
 10
48.15243682708455
 20
-23.95135332734561
 10
47.80586794703737
 20
-24.1036122161964
 10
47.80586794703737
 20
-24.1036122161964
 10
47.68736989450495
 20
-23.88503110513994
 10
47.69389628322734
 20
-23.82368304959948
 10
47.60534906326414
 20
-23.61215749409696
 10
47.05000629965433
 20
-23.39858582748355
 10
46.2700499306638
 20
-23.97632999400586
 10
45.59137605908932
 20
-24.15564693840562
 10
45.37088995360327
 20
-24.16802943840255
 10
45.15005107034845
 20
-24.17956527173291
 10
44.92818913156418
 20
-24.19060721617447
 10
43.80265276682742
 20
-24.4734291605482
 10
42.51282558207413
 20
-25.1481519381575
 10
41.48687727491492
 20
-25.90796471574534
 10
41.48687727491492
 20
-25.90796471574534
 10
39.65786665675226
 20
-27.34803888205186
 10
39.65786665675226
 20
-27.34803888205186
 10
39.42256387903318
 20
-27.43122388203119
 10
39.24723332352167
 20
-27.46600777091116
 10
39.09804261363694
 20
-27.47376888202031
 10
39.09804261363694
 20
-27.47376888202031
 10
35.66879575667988
 20
-29.26849054823841
 10
35.66879575667988
 20
-29.26849054823841
 10
35.41521909648249
 20
-29.40251082598266
 10
35.17236776898483
 20
-29.42526499264378
 10
34.9553036023723
 20
-29.38201443709882
 10
34.93741776904351
 20
-29.38906999265277
 10
34.91949665793689
 20
-29.39443221487359
 10
34.90192832460771
 20
-29.40198165931601
 10
34.67315193577625
 20
-29.39150415931893
 10
34.4430349913891
 20
-29.38201443709882
 10
34.2132355470022
 20
-29.37238360376799
 10
33.80362526932674
 20
-29.307931103784
 10
33.09288388061563
 20
-29.28090832601318
 10
32.69738471404774
 20
-29.34377332599724
 10
31.7720486031681
 20
-29.34842999266286
 10
30.84773554784359
 20
-29.35358054821728
 10
29.9220466591862
 20
-29.35756693710522
 10
29.67397332591491
 20
-29.15757721493274
 10
29.42731110375435
 20
-28.95825777053826
 10
29.1792730482609
 20
-28.7568922150329
 10
29.16823110381901
 20
-28.11868193741486
 10
29.05869360384654
 20
-27.02764610435423
 10
29.19271388159078
 20
-26.43921277116812
 10
29.35978943710434
 20
-25.8342694379858
 10
29.52686499261822
 20
-25.22981999369259
 10
29.69362304813218
 20
-24.62328916051098
 10
29.83589832587437
 20
-24.06657054953883
 10
29.96508554806443
 20
-23.57479832743979
 10
30.1511405480179
 20
-23.09283332756014
 10
30.20003554800543
 20
-22.94519582759713
 10
30.24448554799439
 20
-22.79844027207821
 10
30.29341582576009
 20
-22.65115554989264
 10
30.75643665897766
 20
-22.21656860555692
 10
31.21945749219524
 20
-21.78180527233232
 10
31.68110249207961
 20
-21.34961721688494
 10
31.87572999203095
 20
-21.15823527248817
 10
32.07247415864854
 20
-20.96805277253573
 10
32.26710165859987
 20
-20.77737638369449
 10
33.21244026947454
 20
-19.94640832834679
 10
34.1553799914612
 20
-19.11716888410974
 10
35.0996602690029
 20
-18.28725916209501
 10
35.46210326195304
 20
-17.92139332885298
 10
35.8255349193478
 20
-17.55415166227806
 10
36.18762602122119
 20
-17.18775666236971
 10
36.86457221300594
 20
-16.52421694031333
 10
37.53982320894599
 20
-15.86173555159024
 10
38.21849708052046
 20
-15.19854860731163
 10
38.55130762758532
 20
-14.86972444072717
 10
38.8858115079403
 20
-14.54121777414231
 10
39.21826927723637
 20
-14.2122172186693
 10
39.95243610112308
 20
-13.74901999656284
 10
40.68727221205067
 20
-13.28705749667822
 10
41.42246110075538
 20
-12.82435416346057
 10
41.79866226696062
 20
-12.47658583021404
 10
42.17451170181634
 20
-12.12775916363487
 10
42.55071391444085
 20
-11.78083749705491
 10
43.24318139677453
 20
-11.22221388608323
 10
43.89705499120394
 20
-10.59038888624145
 10
44.5254580307276
 20
-9.96339694195352
 10
44.81551191221659
 20
-9.673836942026083
 10
45.09801634945375
 20
-9.39355499765172
 10
45.4008407861725
 20
-9.124350275496756
 10
45.95307910541706
 20
-8.711282775599997
 10
46.50362409137148
 20
-8.292500275704656
 10
47.06447018817422
 20
-7.875481664697803
 10
47.8757885008091
 20
-8.003645831332422
 10
48.68745959121276
 20
-8.1312808313004
 10
49.5015295704441
 20
-8.26237305348999
 10
49.95731844770485
 20
-8.402602220121612
 10
50.41861065815853
 20
-8.89402166444321
 10
50.83894536965712
 20
-8.892822219998886
 10
50.91126481225654
 20
-8.886436942222945
 10
50.85616092477346
 20
-8.898149164442186
 10
50.92368258971751
 20
-8.873031386670576
 10
51.01600453180663
 20
-8.81048388668611
 10
51.03978175342224
 20
-8.742115553370187
 10
51.02771675373005
 20
-8.650640275615059
 10
51.05114119757688
 20
-8.099601386863966
 10
50.0689373337461
 20
-7.889628053583214
 10
49.63177512267681
 20
-7.655524720308456
 10
49.95181511451192
 20
-7.397996942594893
 10
50.34248121565631
 20
-7.161847498209568
 10
50.62431665401073
 20
-6.944465831597109
 10
51.20135397152242
 20
-7.243303887077939
 10
52.99385309245861
 20
-7.582323331437713
 10
53.35901336092038
 20
-7.182696664870842
 10
53.43034502576722
 20
-7.104662220445922
 10
53.4733839135581
 20
-7.072100831565407
 10
53.36695086071788
 20
-7.018337498245534
 10
52.90287170589086
 20
-6.884493609389854
 10
52.41575616276265
 20
-6.991314720474397
 10
51.91068423120367
 20
-6.744299720536072
 10
51.91068423120367
 20
-6.744299720536072
 10
52.52254199337165
 20
-6.54240499836439
 10
52.81986309689747
 20
-6.452834720609109
 10
53.52301974562512
 20
-6.212204998447047
 10
53.30803697333201
 20
-5.875972498530882
 10
53.01036309203741
 20
-5.921445554075286
 10
51.54277229614544
 20
-6.038567776268025
 10
50.08343650004286
 20
-6.183241942898543
 10
48.63302598149036
 20
-6.369967220629691
 10
47.9522707210801
 20
-6.459219998385051
 10
47.20399379572579
 20
-6.379280553960605
 10
46.56010381215279
 20
-6.614406942790807
 10
45.92552716167553
 20
-6.84420638717771
 10
45.34884134305467
 20
-7.219703053750575
 10
44.76382996909066
 20
-7.584545831437161
 10
44.76315969132999
 20
-7.583875553659479
 10
44.76213663580053
 20
-7.583875553659479
 10
44.76005524696475
 20
-7.583875553659479
 10
44.74799024727255
 20
-7.591424998102227
 10
44.7387121919537
 20
-7.599362498100255
 10
44.72869443326258
 20
-7.606241664764998
 10
44.63742969453763
 20
-7.6624038869732
 10
44.54990553010389
 20
-7.719236386959084
 10
44.45793636578355
 20
-7.774904720278483
 10
44.46206386567825
 20
-7.780937220276985
 10
44.46583858780417
 20
-7.788310275830852
 10
44.47031886546765
 20
-7.794025275829432
 10
43.9118716574926
 20
-8.197073886839755
 10
43.35204861621932
 20
-8.601357220071923
 10
42.7949772415425
 20
-9.005993331081852
 10
41.69356976964175
 20
-9.668157219805343
 10
40.59219757551787
 20
-10.33116777519508
 10
39.49181315914657
 20
-10.99431944169585
 10
39.04706622604857
 20
-11.24634388607723
 10
38.60436540400948
 20
-11.4990386082363
 10
38.1613118042016
 20
-11.75120416372872
 10
37.7165648711036
 20
-12.26177944137911
 10
37.27284099353505
 20
-12.77129638569622
 10
36.83081044925663
 20
-13.28151888556852
 10
35.7108115889413
 20
-14.19930555200573
 10
34.62182276912223
 20
-15.18306166287085
 10
33.44086388052855
 20
-16.028317218215
 10
33.44086388052855
 20
-16.028317218215
 10
32.18201165862101
 20
-16.95795721798281
 10
32.18201165862101
 20
-16.95795721798281
 10
31.86161888092338
 20
-17.10488916239029
 10
31.54433054766961
 20
-17.25337332901987
 10
31.22393776997166
 20
-17.40030527342767
 10
30.53111749236718
 20
-17.70641055112885
 10
29.8069705481037
 20
-18.07125332881543
 10
29.16410360382004
 20
-18.44537416205542
 10
28.7448272150359
 20
-18.66466082866708
 10
28.32385749291895
 20
-18.88377110639018
 10
27.90595693746802
 20
-19.10305777300217
 10
27.64380777086668
 20
-19.33645555072141
 10
27.38162332648782
 20
-19.57055888399616
 10
27.11979165988672
 20
-19.8041330506046
 10
26.9475302710409
 20
-19.95177055056761
 10
26.77495138219517
 20
-20.09870249497542
 10
26.60441860445999
 20
-20.24820971716011
 10
26.57478527113413
 20
-20.21857638383425
 10
26.54652777114115
 20
-20.19014249495238
 10
26.51897582670369
 20
-20.16050916162652
 10
26.24095166010629
 20
-20.02927582832589
 10
25.94638221573548
 20
-19.66908971730492
 10
25.78964304910828
 20
-19.40432999514885
 10
25.87956610464132
 20
-19.26032610629601
 10
25.97118249350717
 20
-19.11716888410974
 10
26.06075277126245
 20
-18.97524638414499
 10
26.237494437885
 20
-18.9211655508252
 10
26.41215471561915
 20
-18.87015388417142
 10
26.5896019377969
 20
-18.81660221751795
 10
26.90516165994035
 20
-18.66070971755699
 10
27.21867527097324
 20
-18.50153638426362
 10
27.53423499311636
 20
-18.3452911065249
 10
27.82361860415524
 20
-18.16632693990289
 10
28.09130638186596
 20
-17.90019138441394
 10
28.43477082622463
 20
-17.77255638444565
 10
28.66457027061153
 20
-17.68661971780054
 10
29.37185443710134
 20
-17.81838221776749
 10
29.52206721484156
 20
-17.68661971780054
 10
29.95026888140134
 20
-17.32040110678107
 10
30.49668638126465
 20
-16.28221138481839
 10
30.66478499233365
 20
-15.65553694053071
 10
30.66101027011244
 20
-15.42852444058741
 10
30.65688277011347
 20
-15.19854860731163
 10
30.65169693678153
 20
-14.97030138514617
 10
30.48529165904533
 20
-14.81253916296353
 10
30.31821610353146
 20
-14.65594110744705
 10
30.1511405480179
 20
-14.49782610748664
 10
30.01228721471916
 20
-14.30111721864689
 10
30.03468860360252
 20
-14.06510888537261
 10
29.9513272147343
 20
-13.79727999655053
 10
29.84521165920528
 20
-13.50630888551237
 10
29.74149499256459
 20
-13.2150555522518
 10
29.63679054814629
 20
-12.92496638565773
 10
29.54136415928139
 20
-12.79147527457981
 10
29.44593777041617
 20
-12.65798416350221
 10
29.35047610377343
 20
-12.52361110798021
 10
28.8130544372411
 20
-11.76277527483724
 10
28.23943777071777
 20
-11.21773360830681
 10
27.37541443760043
 20
-10.78004221952724
 10
27.21867527097324
 20
-10.69872694176991
 10
27.06190082656787
 20
-10.61762333067898
 10
26.90516165994035
 20
-10.53613166403277
 10
26.84420165995549
 20
-10.53098110847835
 10
26.78493499330376
 20
-10.52389027514689
 10
26.72429249331882
 20
-10.51803416403727
 10
25.73348082690008
 20
-10.06295083081772
 10
24.7795344382497
 20
-10.12616860857954
 10
24.26451416060041
 20
-10.21954888633388
 10
23.8476366607046
 20
-10.28326055298483
 10
23.38807304970864
 20
-10.42521833072709
 10
23.1879069386476
 20
-10.74250666398119
 10
23.12521832755209
 20
-10.79538805285666
 10
23.06799777201093
 20
-10.85239694173142
 10
23.02598193868782
 20
-10.91646138615981
 10
22.9147158276047
 20
-11.0790919416748
 10
22.83304777206961
 20
-11.25064777496509
 10
22.78863304985849
 20
-11.42202721936683
 10
22.75899971653262
 20
-11.52778999711808
 10
22.74347749431401
 20
-11.65422555264206
 10
22.74591166098018
 20
-11.76277527483724
 10
22.74760499431298
 20
-11.81167027482478
 10
22.7731108276402
 20
-11.87559360814213
 10
22.76347999430904
 20
-11.92399471924118
 10
22.75279082764524
 20
-11.97532388589521
 10
22.66872388322182
 20
-12.02598277477123
 10
22.62600249434351
 20
-12.07660638586973
 10
22.56708860546922
 20
-12.15171277474
 10
22.45374110549769
 20
-12.33533360802729
 10
22.38865360551386
 20
-12.38045388579362
 10
22.38244471662647
 20
-12.37876055246081
 10
22.37623582773941
 20
-12.37787860801673
 10
22.36865110551883
 20
-12.3759736080172
 10
22.31696916108736
 20
-12.34944471913487
 10
22.2112063833361
 20
-12.27970055248574
 10
22.18090277223255
 20
-12.21284916361342
 10
22.16643888334722
 20
-12.17739499695577
 10
22.16883777223555
 20
-12.10313527475206
 10
22.12784499446788
 20
-12.08521416364544
 10
22.07859721670259
 20
-12.12278499696933
 10
22.09235555003239
 20
-12.30813444136728
 10
22.12061305002538
 20
-12.36394388579804
 10
22.14887055001836
 20
-12.41731916356231
 10
22.1946963833402
 20
-12.46194555244015
 10
22.23911110555132
 20
-12.50173888576349
 10
22.23911110555132
 20
-12.50706583020647
 10
22.23808804999588
 20
-12.51362749687161
 10
22.23808804999588
 20
-12.51860166353715
 10
22.14954082779604
 20
-12.55066916352887
 10
22.04652971671055
 20
-12.54823499686302
 10
21.95628916117759
 20
-12.55994721908226
 10
21.8767024945309
 20
-12.56806110796917
 10
21.80537082788185
 20
-12.59596583018439
 10
21.72892388345653
 20
-12.60129277462737
 10
21.60661582793153
 20
-12.61007694129196
 10
21.48190888351853
 20
-12.61543916351278
 10
21.3616469391041
 20
-12.62746888573194
 10
21.29345499467674
 20
-12.6326547190642
 10
21.07501499473131
 20
-12.61473360795758
 10
21.02474416141057
 20
-12.70567971904574
 10
20.986503050309
 20
-12.77408333013983
 10
20.97031055031302
 20
-12.86104305234038
 10
20.97785999475544
 20
-12.93272749676687
 10
20.99475805030695
 20
-13.08861999672783
 10
21.13050693916183
 20
-13.11634833005417
 10
21.01991110585607
 20
-13.27964916334684
 10
20.94515749476357
 20
-13.38918666331931
 10
20.82320221701633
 20
-13.28910360778879
 10
20.741886939259
 20
-13.31580888556001
 10
20.69676666149236
 20
-13.3318249966671
 10
20.65129360594828
 20
-13.39299666331836
 10
20.63612416150774
 20
-13.42432332997736
 10
20.55999471708235
 20
-13.57608832993934
 10
20.65542110594725
 20
-13.7224911076805
 10
20.77116749480711
 20
-13.88716777430605
 10
20.77116749480711
 20
-13.88716777430605
 10
20.76291249480915
 20
-13.89425860763752
 10
20.76291249480915
 20
-13.89425860763752
 10
20.76083110592075
 20
-13.89595194097032
 10
20.75772666147722
 20
-13.89595194097032
 10
20.75635082814433
 20
-13.89595194097032
 10
20.7126063837109
 20
-13.8675533298663
 10
20.66438166150072
 20
-13.85016138542632
 10
20.62201305040017
 20
-13.84169471876165
 10
20.58066749485474
 20
-13.83171110765305
 10
20.54859999486271
 20
-13.82638416321007
 10
20.51176999487218
 20
-13.82638416321007
 10
20.45077471710948
 20
-13.82377360765502
 10
20.38635749490333
 20
-13.91147416318894
 10
20.37221110601791
 20
-13.95797027428815
 10
20.3270908282516
 20
-14.11661444091519
 10
20.50347971709639
 20
-14.21514527422395
 10
20.39496527267904
 20
-14.399118885289
 10
20.3391558282486
 20
-14.49973110748617
 10
20.19444638384024
 20
-14.52812971859019
 10
20.11316638386075
 20
-14.57328527413435
 10
20.07527805053661
 20
-14.59702721857307
 10
19.98810666166966
 20
-14.69986194076936
 10
19.94676110612455
 20
-14.76396166297559
 10
19.94538527279135
 20
-14.76844194075233
 10
19.94400943945846
 20
-14.76946499630777
 10
19.94090499501493
 20
-14.77309860741794
 10
19.93229721723922
 20
-14.7873861074144
 10
19.92400693946343
 20
-14.80287305185485
 10
19.92125527279734
 20
-14.80908194074223
 10
19.92125527279734
 20
-14.80978749629744
 10
19.92196082835286
 20
-14.81045777407512
 10
19.92196082835286
 20
-14.81320944074121
 10
19.90093527280239
 20
-14.86471499628379
 10
19.892327495027
 20
-14.94430166293048
 10
19.92196082835286
 20
-15.04247971846147
 10
19.94986555056808
 20
-15.17565332953947
 10
20.05079527276516
 20
-15.32258527394727
 10
20.19755082828409
 20
-15.44143610725066
 10
20.36155721713196
 20
-15.57164638499584
 10
20.51900193931468
 20
-15.71102888496122
 10
20.68159721705182
 20
-15.83813471826256
 10
20.68505443927312
 20
-15.84829471826004
 10
20.68953471704985
 20
-15.85796082936871
 10
20.70018860593613
 20
-15.86536916270042
 10
20.77116749480711
 20
-15.91789777379844
 10
20.9596213836489
 20
-16.07583638486997
 10
21.11325610583289
 20
-16.20435332928235
 10
21.12532110582989
 20
-16.20590555150412
 10
21.13498721693857
 20
-16.21366666261326
 10
21.14599388360229
 20
-16.21659471816823
 10
21.3602711057709
 20
-16.43570499589102
 10
22.09478971669856
 20
-17.2457886067996
 10
22.10890082780613
 20
-17.88780888441702
 10
22.0772213833697
 20
-18.08917443992206
 10
22.04377805004446
 20
-18.28810582876125
 10
22.01347443894123
 20
-18.48791916204453
 10
21.86153305009005
 20
-19.27066249518237
 10
21.81814138343437
 20
-20.09870249497542
 10
21.48328471685141
 20
-20.71913277259788
 10
21.45986027241293
 20
-20.72809332815135
 10
21.43675332797405
 20
-20.73913527259291
 10
21.41368166131333
 20
-20.74876610592407
 10
21.09604055028147
 20
-20.64317971706136
 10
20.51244027264954
 20
-19.67392277285942
 10
20.15620527273866
 20
-19.07825749523048
 10
20.15655805051642
 20
-19.07772832856384
 10
20.16551860606958
 20
-19.07652888411983
 10
20.16551860606958
 20
-19.07652888411983
 10
19.770019439502
 20
-18.498079162042
 10
18.63005332867568
 20
-16.49719416254252
 10
18.51257832870517
 20
-16.29134832926042
 10
18.30242860653554
 20
-15.69931666274198
 10
18.08949193992198
 20
-15.10552110733473
 10
17.87867193997467
 20
-14.51211360748309
 10
17.87867193997467
 20
-14.51211360748309
 10
17.39289694009629
 20
-12.38168860801578
 10
17.39289694009629
 20
-12.38168860801578
 10
17.18860332903628
 20
-11.79893499705041
 10
16.98293388464306
 20
-11.21773360830681
 10
16.77726444025016
 20
-10.63550916400777
 10
16.77726444025016
 20
-10.63550916400777
 10
15.99074638489111
 20
-9.521225275397537
 10
15.99074638489111
 20
-9.521225275397537
 10
15.79128582938559
 20
-9.081946386618364
 10
15.59009666276911
 20
-8.64252638672815
 10
15.39095360726352
 20
-8.205011386837784
 10
15.39095360726352
 20
-8.205011386837784
 10
14.14487194090817
 20
-5.715740831904549
 10
14.14487194090817
 20
-5.715740831904549
 10
14.0077472187204
 20
-5.44530138752742
 10
13.89133055208287
 20
-5.135950554271673
 10
13.76383666322561
 20
-4.831573887681143
 10
13.63602527436875
 20
-4.573375832189898
 10
12.98077583008817
 20
-4.082767776757021
 10
12.98077583008817
 20
-4.082767776757021
 10
12.60009333018336
 20
-3.787704443497404
 10
12.21976360805632
 20
-3.492637582460099
 10
11.84356138592793
 20
-3.184475610314972
 10
11.31058471939451
 20
-2.946936221485369
 10
10.78212360841565
 20
-2.706468777101116
 10
10.25158110854807
 20
-2.468583666049448
 10
9.944276386402892
 20
-2.315104166087891
 10
9.668333608693903
 20
-2.039150805045839
 10
9.374434442100771
 20
-1.885671305084281
 10
8.70955416448935
 20
-2.14405633279747
 10
7.926140553574145
 20
-1.797134666217508
 10
7.586803609214449
 20
-1.461237305190345
 10
7.386284720375651
 20
-1.251260444131585
 10
7.33562583149931
 20
-1.43247180519749
 10
7.488590275905618
 20
-1.626256166259952
 10
7.641554720311926
 20
-1.820044055100422
 10
7.641554720311926
 20
-1.820044055100422
 10
7.715638053626751
 20
-1.917714110631539
 10
7.715638053626751
 20
-1.917714110631539
 10
7.715638053626751
 20
-1.951129221734315
 10
7.715638053626751
 20
-1.951129221734315
 10
7.392493609263034
 20
-1.873959082864719
 10
7.052803887125576
 20
-1.787316860664409
 10
6.742747498314307
 20
-1.723238305124627
 10
6.432691109503037
 20
-1.659159749585166
 10
6.385489442847987
 20
-1.803163638438001
 10
6.742747498314307
 20
-1.951129221734315
 10
7.100005553780626
 20
-2.099098332808637
 10
7.321514720391739
 20
-2.156629332794027
 10
7.6512208314206
 20
-2.307180777200934
 10
7.630195275870125
 20
-2.315792082754333
 10
7.607476386987164
 20
-2.329402249417726
 10
7.586803609214449
 20
-2.340768749414903
 10
7.355981109272103
 20
-2.502863082707547
 10
7.020418887133942
 20
-2.543167943808772
 10
6.611126109458396
 20
-2.534210916032987
 97
        0
 75
     2
 76
     1
 98
        0
  0
ENDSEC
  0
SECTION
  2
OBJECTS
  0
DICTIONARY
  5
C
330
0
100
AcDbDictionary
281
     1
  3
ACAD_GROUP
350
D
  3
ACAD_LAYOUT
350
1A
  3
ACAD_MATERIAL
350
3B
  3
ACAD_MLEADERSTYLE
350
64
  3
ACAD_MLINESTYLE
350
17
  3
ACAD_PLOTSETTINGS
350
19
  3
ACAD_PLOTSTYLENAME
350
E
  3
ACAD_TABLESTYLE
350
63
  3
ACAD_VISUALSTYLE
350
2A
  0
SUN
  5
3F
330
29
100
AcDbSun
 90
        1
290
     0
 63
     7
421
 16777215
 40
1.0
291
     1
 91
  2455826
 92
 54000000
292
     0
 70
     2
 71
   256
280
     1
  0
DICTIONARY
  5
D
102
{ACAD_REACTORS
330
C
102
}
330
C
100
AcDbDictionary
281
     1
  0
DICTIONARY
  5
1A
102
{ACAD_REACTORS
330
C
102
}
330
C
100
AcDbDictionary
281
     1
  3
Layout1
350
1E
  3
Layout2
350
26
  3
Model
350
22
  0
DICTIONARY
  5
3B
102
{ACAD_REACTORS
330
C
102
}
330
C
100
AcDbDictionary
281
     1
  3
ByBlock
350
3D
  3
ByLayer
350
3C
  3
Global
350
3E
  0
DICTIONARY
  5
64
102
{ACAD_REACTORS
330
C
102
}
330
C
100
AcDbDictionary
281
     1
  0
DICTIONARY
  5
17
102
{ACAD_REACTORS
330
C
102
}
330
C
100
AcDbDictionary
281
     1
  3
Standard
350
18
  0
DICTIONARY
  5
19
102
{ACAD_REACTORS
330
C
102
}
330
C
100
AcDbDictionary
281
     1
  0
ACDBDICTIONARYWDFLT
  5
E
102
{ACAD_REACTORS
330
C
102
}
330
C
100
AcDbDictionary
281
     1
  3
Normal
350
F
100
AcDbDictionaryWithDefault
340
F
  0
DICTIONARY
  5
63
102
{ACAD_REACTORS
330
C
102
}
330
C
100
AcDbDictionary
281
     1
  0
DICTIONARY
  5
2A
102
{ACAD_REACTORS
330
C
102
}
330
C
100
AcDbDictionary
281
     1
  3
2dWireframe
350
2F
  3
3D Hidden
350
31
  3
3dWireframe
350
30
  3
Basic
350
32
  3
Brighten
350
36
  3
ColorChange
350
3A
  3
Conceptual
350
34
  3
Dim
350
35
  3
Facepattern
350
39
  3
Flat
350
2B
  3
FlatWithEdges
350
2C
  3
Gouraud
350
2D
  3
GouraudWithEdges
350
2E
  3
Linepattern
350
38
  3
Realistic
350
33
  3
Thicken
350
37
  0
LAYOUT
  5
1E
102
{ACAD_REACTORS
330
1A
102
}
330
1A
100
AcDbPlotSettings
  1

  2
none_device
  4

  6

 40
0.0
 41
0.0
 42
0.0
 43
0.0
 44
0.0
 45
0.0
 46
0.0
 47
0.0
 48
0.0
 49
0.0
140
0.0
141
0.0
142
1.0
143
1.0
 70
   688
 72
     0
 73
     0
 74
     5
  7

 75
    16
 76
     0
 77
     2
 78
   300
147
1.0
148
0.0
149
0.0
100
AcDbLayout
  1
Layout1
 70
     1
 71
     1
 10
0.0
 20
0.0
 11
12.0
 21
9.0
 12
0.0
 22
0.0
 32
0.0
 14
1.000000000000000E+20
 24
1.000000000000000E+20
 34
1.000000000000000E+20
 15
-1.000000000000000E+20
 25
-1.000000000000000E+20
 35
-1.000000000000000E+20
146
0.0
 13
0.0
 23
0.0
 33
0.0
 16
1.0
 26
0.0
 36
0.0
 17
0.0
 27
1.0
 37
0.0
 76
     0
330
1B
  0
LAYOUT
  5
26
102
{ACAD_REACTORS
330
1A
102
}
330
1A
100
AcDbPlotSettings
  1

  2
none_device
  4

  6

 40
0.0
 41
0.0
 42
0.0
 43
0.0
 44
0.0
 45
0.0
 46
0.0
 47
0.0
 48
0.0
 49
0.0
140
0.0
141
0.0
142
1.0
143
1.0
 70
   688
 72
     0
 73
     0
 74
     5
  7

 75
    16
 76
     0
 77
     2
 78
   300
147
1.0
148
0.0
149
0.0
100
AcDbLayout
  1
Layout2
 70
     1
 71
     2
 10
0.0
 20
0.0
 11
0.0
 21
0.0
 12
0.0
 22
0.0
 32
0.0
 14
0.0
 24
0.0
 34
0.0
 15
0.0
 25
0.0
 35
0.0
146
0.0
 13
0.0
 23
0.0
 33
0.0
 16
1.0
 26
0.0
 36
0.0
 17
0.0
 27
1.0
 37
0.0
 76
     0
330
23
  0
LAYOUT
  5
22
102
{ACAD_REACTORS
330
1A
102
}
330
1A
100
AcDbPlotSettings
  1

  2
none_device
  4

  6

 40
0.0
 41
0.0
 42
0.0
 43
0.0
 44
0.0
 45
0.0
 46
0.0
 47
0.0
 48
0.0
 49
0.0
140
0.0
141
0.0
142
1.0
143
1.0
 70
  1712
 72
     0
 73
     0
 74
     0
  7

 75
     0
 76
     0
 77
     2
 78
   300
147
1.0
148
0.0
149
0.0
100
AcDbLayout
  1
Model
 70
     1
 71
     0
 10
0.0
 20
0.0
 11
12.0
 21
9.0
 12
0.0
 22
0.0
 32
0.0
 14
1.000000000000000E+20
 24
1.000000000000000E+20
 34
1.000000000000000E+20
 15
-1.000000000000000E+20
 25
-1.000000000000000E+20
 35
-1.000000000000000E+20
146
0.0
 13
0.0
 23
0.0
 33
0.0
 16
1.0
 26
0.0
 36
0.0
 17
0.0
 27
1.0
 37
0.0
 76
     0
330
1F
331
29
  0
MATERIAL
  5
3D
102
{ACAD_REACTORS
330
3B
102
}
330
3B
100
AcDbMaterial
  1
ByBlock
 72
     1
 94
      127
  0
MATERIAL
  5
3C
102
{ACAD_REACTORS
330
3B
102
}
330
3B
100
AcDbMaterial
  1
ByLayer
 72
     1
 94
      127
  0
MATERIAL
  5
3E
102
{ACAD_REACTORS
330
3B
102
}
330
3B
100
AcDbMaterial
  1
Global
 72
     1
 94
      127
  0
MLINESTYLE
  5
18
102
{ACAD_REACTORS
330
17
102
}
330
17
100
AcDbMlineStyle
  2
Standard
 70
     0
  3

 62
   256
 51
90.0
 52
90.0
 71
     2
 49
0.5
 62
   256
  6
BYLAYER
 49
-0.5
 62
   256
  6
BYLAYER
  0
ACDBPLACEHOLDER
  5
F
102
{ACAD_REACTORS
330
E
102
}
330
E
  0
VISUALSTYLE
  5
2F
102
{ACAD_REACTORS
330
2A
102
}
102
{ACAD_XDICTIONARY
360
4B
102
}
330
2A
100
AcDbVisualStyle
  2
2dWireframe
 70
     4
 71
     0
 72
     2
 73
     0
 90
        0
 40
-0.6
 41
-30.0
 62
     5
 63
     7
421
 16777215
 74
     1
 91
        4
 64
     7
 65
   257
 75
     1
175
     1
 42
1.0
 92
        0
 66
   257
 43
1.0
 76
     1
 77
     6
 78
     2
 67
     7
 79
     5
170
     0
171
     0
290
     0
174
     0
 93
        1
 44
0.0
173
     0
291
     0
 45
0.0
  0
VISUALSTYLE
  5
31
102
{ACAD_REACTORS
330
2A
102
}
102
{ACAD_XDICTIONARY
360
4F
102
}
330
2A
100
AcDbVisualStyle
  2
3D Hidden
 70
     6
 71
     1
 72
     2
 73
     2
 90
        0
 40
-0.6
 41
-30.0
 62
     5
 63
     7
421
 16777215
 74
     2
 91
        2
 64
     7
 65
   257
 75
     2
175
     1
 42
40.0
 92
        0
 66
   257
 43
1.0
 76
     1
 77
     6
 78
     2
 67
     7
 79
     3
170
     0
171
     0
290
     0
174
     0
 93
        1
 44
0.0
173
     0
291
     0
 45
0.0
  0
VISUALSTYLE
  5
30
102
{ACAD_REACTORS
330
2A
102
}
102
{ACAD_XDICTIONARY
360
4D
102
}
330
2A
100
AcDbVisualStyle
  2
3dWireframe
 70
     5
 71
     0
 72
     2
 73
     0
 90
        0
 40
-0.6
 41
-30.0
 62
     5
 63
     7
421
 16777215
 74
     1
 91
        4
 64
     7
 65
   257
 75
     1
175
     1
 42
1.0
 92
        0
 66
   257
 43
1.0
 76
     1
 77
     6
 78
     2
 67
     7
 79
     5
170
     0
171
     0
290
     0
174
     0
 93
        1
 44
0.0
173
     0
291
     0
 45
0.0
  0
VISUALSTYLE
  5
32
102
{ACAD_REACTORS
330
2A
102
}
102
{ACAD_XDICTIONARY
360
51
102
}
330
2A
100
AcDbVisualStyle
  2
Basic
 70
     7
 71
     1
 72
     0
 73
     1
 90
        0
 40
-0.6
 41
-30.0
 62
     5
 63
     7
421
 16777215
 74
     0
 91
        4
 64
     7
 65
   257
 75
     1
175
     1
 42
1.0
 92
        8
 66
     7
 43
1.0
 76
     1
 77
     6
 78
     2
 67
     7
 79
     5
170
     0
171
     0
290
     0
174
     0
 93
        1
 44
0.0
173
     0
291
     1
 45
0.0
  0
VISUALSTYLE
  5
36
102
{ACAD_REACTORS
330
2A
102
}
102
{ACAD_XDICTIONARY
360
59
102
}
330
2A
100
AcDbVisualStyle
  2
Brighten
 70
    12
 71
     2
 72
     2
 73
     0
 90
        0
 40
-0.6
 41
-30.0
 62
     5
 63
     7
421
 16777215
 74
     1
 91
        4
 64
     7
 65
   257
 75
     1
175
     1
 42
1.0
 92
        8
 66
     7
 43
1.0
 76
     1
 77
     6
 78
     2
 67
     7
 79
     5
170
     0
171
     0
290
     0
174
     0
 93
        1
 44
50.0
173
     0
291
     1
 45
0.0
  0
VISUALSTYLE
  5
3A
102
{ACAD_REACTORS
330
2A
102
}
102
{ACAD_XDICTIONARY
360
61
102
}
330
2A
100
AcDbVisualStyle
  2
ColorChange
 70
    16
 71
     2
 72
     2
 73
     3
 90
        0
 40
-0.6
 41
-30.0
 62
     5
 63
     8
421
  8421504
 74
     1
 91
        4
 64
     7
 65
   257
 75
     1
175
     1
 42
1.0
 92
        8
 66
     8
424
  8421504
 43
1.0
 76
     1
 77
     6
 78
     2
 67
     7
 79
     5
170
     0
171
     0
290
     0
174
     0
 93
        1
 44
0.0
173
     0
291
     1
 45
0.0
  0
VISUALSTYLE
  5
34
102
{ACAD_REACTORS
330
2A
102
}
102
{ACAD_XDICTIONARY
360
55
102
}
330
2A
100
AcDbVisualStyle
  2
Conceptual
 70
     9
 71
     3
 72
     2
 73
     0
 90
        0
 40
-0.6
 41
-30.0
 62
     5
 63
     7
421
 16777215
 74
     2
 91
        2
 64
     7
 65
   257
 75
     1
175
     1
 42
40.0
 92
        8
 66
     7
 43
1.0
 76
     1
 77
     6
 78
     2
 67
     7
 79
     3
170
     0
171
     0
290
     0
174
     0
 93
        1
 44
0.0
173
     0
291
     0
 45
0.0
  0
VISUALSTYLE
  5
35
102
{ACAD_REACTORS
330
2A
102
}
102
{ACAD_XDICTIONARY
360
57
102
}
330
2A
100
AcDbVisualStyle
  2
Dim
 70
    11
 71
     2
 72
     2
 73
     0
 90
        0
 40
-0.6
 41
-30.0
 62
     5
 63
     7
421
 16777215
 74
     1
 91
        4
 64
     7
 65
   257
 75
     1
175
     1
 42
1.0
 92
        8
 66
     7
 43
1.0
 76
     1
 77
     6
 78
     2
 67
     7
 79
     5
170
     0
171
     0
290
     0
174
     0
 93
        1
 44
-50.0
173
     0
291
     1
 45
0.0
  0
VISUALSTYLE
  5
39
102
{ACAD_REACTORS
330
2A
102
}
102
{ACAD_XDICTIONARY
360
5F
102
}
330
2A
100
AcDbVisualStyle
  2
Facepattern
 70
    15
 71
     2
 72
     2
 73
     0
 90
        0
 40
-0.6
 41
-30.0
 62
     5
 63
     7
421
 16777215
 74
     1
 91
        4
 64
     7
 65
   257
 75
     1
175
     1
 42
1.0
 92
        8
 66
     7
 43
1.0
 76
     1
 77
     6
 78
     2
 67
     7
 79
     5
170
     0
171
     0
290
     0
174
     0
 93
        1
 44
0.0
173
     0
291
     1
 45
0.0
  0
VISUALSTYLE
  5
2B
102
{ACAD_REACTORS
330
2A
102
}
102
{ACAD_XDICTIONARY
360
43
102
}
330
2A
100
AcDbVisualStyle
  2
Flat
 70
     0
 71
     2
 72
     1
 73
     1
 90
        2
 40
-0.6
 41
30.0
 62
     5
 63
     7
421
 16777215
 74
     0
 91
        4
 64
     7
 65
   257
 75
     1
175
     1
 42
1.0
 92
        8
 66
     7
 43
1.0
 76
     1
 77
     6
 78
     2
 67
     7
 79
     5
170
     0
171
     0
290
     0
174
     0
 93
       13
 44
0.0
173
     0
291
     1
 45
0.0
  0
VISUALSTYLE
  5
2C
102
{ACAD_REACTORS
330
2A
102
}
102
{ACAD_XDICTIONARY
360
45
102
}
330
2A
100
AcDbVisualStyle
  2
FlatWithEdges
 70
     1
 71
     2
 72
     1
 73
     1
 90
        2
 40
-0.6
 41
30.0
 62
     5
 63
     7
421
 16777215
 74
     1
 91
        4
 64
     7
 65
   257
 75
     1
175
     1
 42
1.0
 92
        0
 66
   257
 43
1.0
 76
     1
 77
     6
 78
     2
 67
     7
 79
     5
170
     0
171
     0
290
     0
174
     0
 93
       13
 44
0.0
173
     0
291
     1
 45
0.0
  0
VISUALSTYLE
  5
2D
102
{ACAD_REACTORS
330
2A
102
}
102
{ACAD_XDICTIONARY
360
47
102
}
330
2A
100
AcDbVisualStyle
  2
Gouraud
 70
     2
 71
     2
 72
     2
 73
     1
 90
        2
 40
-0.6
 41
30.0
 62
     5
 63
     7
421
 16777215
 74
     0
 91
        4
 64
     7
 65
   257
 75
     1
175
     1
 42
1.0
 92
        0
 66
     7
 43
1.0
 76
     1
 77
     6
 78
     2
 67
     7
 79
     5
170
     0
171
     0
290
     0
174
     0
 93
       13
 44
0.0
173
     0
291
     1
 45
0.0
  0
VISUALSTYLE
  5
2E
102
{ACAD_REACTORS
330
2A
102
}
102
{ACAD_XDICTIONARY
360
49
102
}
330
2A
100
AcDbVisualStyle
  2
GouraudWithEdges
 70
     3
 71
     2
 72
     2
 73
     1
 90
        2
 40
-0.6
 41
30.0
 62
     5
 63
     7
421
 16777215
 74
     1
 91
        4
 64
     7
 65
   257
 75
     1
175
     1
 42
1.0
 92
        0
 66
   257
 43
1.0
 76
     1
 77
     6
 78
     2
 67
     7
 79
     5
170
     0
171
     0
290
     0
174
     0
 93
       13
 44
0.0
173
     0
291
     1
 45
0.0
  0
VISUALSTYLE
  5
38
102
{ACAD_REACTORS
330
2A
102
}
102
{ACAD_XDICTIONARY
360
5D
102
}
330
2A
100
AcDbVisualStyle
  2
Linepattern
 70
    14
 71
     2
 72
     2
 73
     0
 90
        0
 40
-0.6
 41
-30.0
 62
     5
 63
     7
421
 16777215
 74
     1
 91
        4
 64
     7
 65
   257
 75
     7
175
     7
 42
1.0
 92
        8
 66
     7
 43
1.0
 76
     1
 77
     6
 78
     2
 67
     7
 79
     5
170
     0
171
     0
290
     0
174
     0
 93
        1
 44
0.0
173
     0
291
     1
 45
0.0
  0
VISUALSTYLE
  5
33
102
{ACAD_REACTORS
330
2A
102
}
102
{ACAD_XDICTIONARY
360
53
102
}
330
2A
100
AcDbVisualStyle
  2
Realistic
 70
     8
 71
     2
 72
     2
 73
     0
 90
        0
 40
-0.6
 41
-30.0
 62
     5
 63
     7
421
 16777215
 74
     1
 91
        0
 64
     7
 65
   257
 75
     1
175
     1
 42
1.0
 92
        8
 66
     8
424
  7895160
 43
1.0
 76
     1
 77
     6
 78
     2
 67
     7
 79
     5
170
     0
171
     0
290
     0
174
     0
 93
       13
 44
0.0
173
     0
291
     0
 45
0.0
  0
VISUALSTYLE
  5
37
102
{ACAD_REACTORS
330
2A
102
}
102
{ACAD_XDICTIONARY
360
5B
102
}
330
2A
100
AcDbVisualStyle
  2
Thicken
 70
    13
 71
     2
 72
     2
 73
     0
 90
        0
 40
-0.6
 41
-30.0
 62
     5
 63
     7
421
 16777215
 74
     1
 91
        4
 64
     7
 65
   257
 75
     1
175
     1
 42
1.0
 92
       12
 66
     7
 43
1.0
 76
     1
 77
     6
 78
     2
 67
     7
 79
     5
170
     0
171
     0
290
     0
174
     0
 93
        1
 44
0.0
173
     0
291
     1
 45
0.0
  0
DICTIONARY
  5
4B
330
2F
100
AcDbDictionary
280
     1
281
     1
  3
ACAD_XREC_ROUNDTRIP
360
4C
  0
DICTIONARY
  5
4F
330
31
100
AcDbDictionary
280
     1
281
     1
  3
ACAD_XREC_ROUNDTRIP
360
50
  0
DICTIONARY
  5
4D
330
30
100
AcDbDictionary
280
     1
281
     1
  3
ACAD_XREC_ROUNDTRIP
360
4E
  0
DICTIONARY
  5
51
330
32
100
AcDbDictionary
280
     1
281
     1
  3
ACAD_XREC_ROUNDTRIP
360
52
  0
DICTIONARY
  5
59
330
36
100
AcDbDictionary
280
     1
281
     1
  3
ACAD_XREC_ROUNDTRIP
360
5A
  0
DICTIONARY
  5
61
330
3A
100
AcDbDictionary
280
     1
281
     1
  3
ACAD_XREC_ROUNDTRIP
360
62
  0
DICTIONARY
  5
55
330
34
100
AcDbDictionary
280
     1
281
     1
  3
ACAD_XREC_ROUNDTRIP
360
56
  0
DICTIONARY
  5
57
330
35
100
AcDbDictionary
280
     1
281
     1
  3
ACAD_XREC_ROUNDTRIP
360
58
  0
DICTIONARY
  5
5F
330
39
100
AcDbDictionary
280
     1
281
     1
  3
ACAD_XREC_ROUNDTRIP
360
60
  0
DICTIONARY
  5
43
330
2B
100
AcDbDictionary
280
     1
281
     1
  3
ACAD_XREC_ROUNDTRIP
360
44
  0
DICTIONARY
  5
45
330
2C
100
AcDbDictionary
280
     1
281
     1
  3
ACAD_XREC_ROUNDTRIP
360
46
  0
DICTIONARY
  5
47
330
2D
100
AcDbDictionary
280
     1
281
     1
  3
ACAD_XREC_ROUNDTRIP
360
48
  0
DICTIONARY
  5
49
330
2E
100
AcDbDictionary
280
     1
281
     1
  3
ACAD_XREC_ROUNDTRIP
360
4A
  0
DICTIONARY
  5
5D
330
38
100
AcDbDictionary
280
     1
281
     1
  3
ACAD_XREC_ROUNDTRIP
360
5E
  0
DICTIONARY
  5
53
330
33
100
AcDbDictionary
280
     1
281
     1
  3
ACAD_XREC_ROUNDTRIP
360
54
  0
DICTIONARY
  5
5B
330
37
100
AcDbDictionary
280
     1
281
     1
  3
ACAD_XREC_ROUNDTRIP
360
5C
  0
XRECORD
  5
4C
102
{ACAD_REACTORS
330
4B
102
}
330
4B
100
AcDbXrecord
280
     1
102
RTVSPropertyOp0
 70
     1
102
RTVSPropertyOp1
 70
     1
102
RTVSPropertyOp2
 70
     1
102
RTVSPropertyOp3
 70
     1
102
RTVSPropertyOp4
 70
     1
102
RTVSPropertyOp5
 70
     1
102
RTVSPropertyOp6
 70
     1
102
RTVSPropertyOp7
 70
     1
102
RTVSPropertyOp8
 70
     1
102
RTVSPropertyOp9
 70
     1
102
RTVSPropertyOp10
 70
     1
102
RTVSPropertyOp11
 70
     1
102
RTVSPropertyOp12
 70
     1
102
RTVSPropertyOp13
 70
     1
102
RTVSPropertyOp14
 70
     1
102
RTVSPropertyOp15
 70
     1
102
RTVSPropertyOp16
 70
     1
102
RTVSPropertyOp17
 70
     1
102
RTVSPropertyOp18
 70
     1
102
RTVSPropertyOp19
 70
     1
102
RTVSPropertyOp20
 70
     1
102
RTVSPropertyOp21
 70
     1
102
RTVSPropertyOp22
 70
     1
102
RTVSPropertyOp23
 70
     1
102
RTVSPropertyOp24
 70
     1
102
RTVSPropertyOp25
 70
     1
102
RTVSPropertyOp26
 70
     1
102
RTVSPropertyOp27
 70
     1
102
RTVSPropertyOp28
 70
     1
102
RTVSPropertyOp29
 70
     1
102
RTVSPropertyOp30
 70
     1
102
RTVSPropertyOp31
 70
     1
102
RTVSPropertyOp32
 70
     1
  0
XRECORD
  5
50
102
{ACAD_REACTORS
330
4F
102
}
330
4F
100
AcDbXrecord
280
     1
102
RTVSPropertyOp0
 70
     1
102
RTVSPropertyOp1
 70
     1
102
RTVSPropertyOp2
 70
     1
102
RTVSPropertyOp3
 70
     1
102
RTVSPropertyOp4
 70
     1
102
RTVSPropertyOp5
 70
     1
102
RTVSPropertyOp6
 70
     1
102
RTVSPropertyOp7
 70
     1
102
RTVSPropertyOp8
 70
     1
102
RTVSPropertyOp9
 70
     1
102
RTVSPropertyOp10
 70
     1
102
RTVSPropertyOp11
 70
     1
102
RTVSPropertyOp12
 70
     1
102
RTVSPropertyOp13
 70
     1
102
RTVSPropertyOp14
 70
     1
102
RTVSPropertyOp15
 70
     1
102
RTVSPropertyOp16
 70
     1
102
RTVSPropertyOp17
 70
     1
102
RTVSPropertyOp18
 70
     1
102
RTVSPropertyOp19
 70
     1
102
RTVSPropertyOp20
 70
     1
102
RTVSPropertyOp21
 70
     1
102
RTVSPropertyOp22
 70
     1
102
RTVSPropertyOp23
 70
     1
102
RTVSPropertyOp24
 70
     1
102
RTVSPropertyOp25
 70
     1
102
RTVSPropertyOp26
 70
     1
102
RTVSPropertyOp27
 70
     1
102
RTVSPropertyOp28
 70
     1
102
RTVSPropertyOp29
 70
     1
102
RTVSPropertyOp30
 70
     1
102
RTVSPropertyOp31
 70
     1
102
RTVSPropertyOp32
 70
     1
  0
XRECORD
  5
4E
102
{ACAD_REACTORS
330
4D
102
}
330
4D
100
AcDbXrecord
280
     1
102
RTVSPropertyOp0
 70
     1
102
RTVSPropertyOp1
 70
     1
102
RTVSPropertyOp2
 70
     1
102
RTVSPropertyOp3
 70
     1
102
RTVSPropertyOp4
 70
     1
102
RTVSPropertyOp5
 70
     1
102
RTVSPropertyOp6
 70
     1
102
RTVSPropertyOp7
 70
     1
102
RTVSPropertyOp8
 70
     1
102
RTVSPropertyOp9
 70
     1
102
RTVSPropertyOp10
 70
     1
102
RTVSPropertyOp11
 70
     1
102
RTVSPropertyOp12
 70
     1
102
RTVSPropertyOp13
 70
     1
102
RTVSPropertyOp14
 70
     1
102
RTVSPropertyOp15
 70
     1
102
RTVSPropertyOp16
 70
     1
102
RTVSPropertyOp17
 70
     1
102
RTVSPropertyOp18
 70
     1
102
RTVSPropertyOp19
 70
     1
102
RTVSPropertyOp20
 70
     1
102
RTVSPropertyOp21
 70
     1
102
RTVSPropertyOp22
 70
     1
102
RTVSPropertyOp23
 70
     1
102
RTVSPropertyOp24
 70
     1
102
RTVSPropertyOp25
 70
     1
102
RTVSPropertyOp26
 70
     1
102
RTVSPropertyOp27
 70
     1
102
RTVSPropertyOp28
 70
     1
102
RTVSPropertyOp29
 70
     1
102
RTVSPropertyOp30
 70
     1
102
RTVSPropertyOp31
 70
     1
102
RTVSPropertyOp32
 70
     1
  0
XRECORD
  5
52
102
{ACAD_REACTORS
330
51
102
}
330
51
100
AcDbXrecord
280
     1
102
RTVSPropertyOp0
 70
     1
102
RTVSPropertyOp1
 70
     1
102
RTVSPropertyOp2
 70
     1
102
RTVSPropertyOp3
 70
     1
102
RTVSPropertyOp4
 70
     1
102
RTVSPropertyOp5
 70
     1
102
RTVSPropertyOp6
 70
     1
102
RTVSPropertyOp7
 70
     1
102
RTVSPropertyOp8
 70
     1
102
RTVSPropertyOp9
 70
     1
102
RTVSPropertyOp10
 70
     1
102
RTVSPropertyOp11
 70
     1
102
RTVSPropertyOp12
 70
     1
102
RTVSPropertyOp13
 70
     1
102
RTVSPropertyOp14
 70
     1
102
RTVSPropertyOp15
 70
     1
102
RTVSPropertyOp16
 70
     1
102
RTVSPropertyOp17
 70
     1
102
RTVSPropertyOp18
 70
     1
102
RTVSPropertyOp19
 70
     1
102
RTVSPropertyOp20
 70
     1
102
RTVSPropertyOp21
 70
     1
102
RTVSPropertyOp22
 70
     1
102
RTVSPropertyOp23
 70
     1
102
RTVSPropertyOp24
 70
     1
102
RTVSPropertyOp25
 70
     1
102
RTVSPropertyOp26
 70
     1
102
RTVSPropertyOp27
 70
     1
102
RTVSPropertyOp28
 70
     1
102
RTVSPropertyOp29
 70
     1
102
RTVSPropertyOp30
 70
     1
102
RTVSPropertyOp31
 70
     1
102
RTVSPropertyOp32
 70
     1
  0
XRECORD
  5
5A
102
{ACAD_REACTORS
330
59
102
}
330
59
100
AcDbXrecord
280
     1
102
RTVSPropertyOp0
 70
     1
102
RTVSPropertyOp1
 70
     1
102
RTVSPropertyOp2
 70
     1
102
RTVSPropertyOp3
 70
     1
102
RTVSPropertyOp4
 70
     1
102
RTVSPropertyOp5
 70
     1
102
RTVSPropertyOp6
 70
     1
102
RTVSPropertyOp7
 70
     1
102
RTVSPropertyOp8
 70
     1
102
RTVSPropertyOp9
 70
     1
102
RTVSPropertyOp10
 70
     1
102
RTVSPropertyOp11
 70
     1
102
RTVSPropertyOp12
 70
     1
102
RTVSPropertyOp13
 70
     1
102
RTVSPropertyOp14
 70
     1
102
RTVSPropertyOp15
 70
     1
102
RTVSPropertyOp16
 70
     1
102
RTVSPropertyOp17
 70
     1
102
RTVSPropertyOp18
 70
     1
102
RTVSPropertyOp19
 70
     1
102
RTVSPropertyOp20
 70
     1
102
RTVSPropertyOp21
 70
     1
102
RTVSPropertyOp22
 70
     1
102
RTVSPropertyOp23
 70
     1
102
RTVSPropertyOp24
 70
     1
102
RTVSPropertyOp25
 70
     1
102
RTVSPropertyOp26
 70
     1
102
RTVSPropertyOp27
 70
     1
102
RTVSPropertyOp28
 70
     1
102
RTVSPropertyOp29
 70
     1
102
RTVSPropertyOp30
 70
     1
102
RTVSPropertyOp31
 70
     1
102
RTVSPropertyOp32
 70
     1
  0
XRECORD
  5
62
102
{ACAD_REACTORS
330
61
102
}
330
61
100
AcDbXrecord
280
     1
102
RTVSPropertyOp0
 70
     1
102
RTVSPropertyOp1
 70
     1
102
RTVSPropertyOp2
 70
     1
102
RTVSPropertyOp3
 70
     1
102
RTVSPropertyOp4
 70
     1
102
RTVSPropertyOp5
 70
     1
102
RTVSPropertyOp6
 70
     1
102
RTVSPropertyOp7
 70
     1
102
RTVSPropertyOp8
 70
     1
102
RTVSPropertyOp9
 70
     1
102
RTVSPropertyOp10
 70
     1
102
RTVSPropertyOp11
 70
     1
102
RTVSPropertyOp12
 70
     1
102
RTVSPropertyOp13
 70
     1
102
RTVSPropertyOp14
 70
     1
102
RTVSPropertyOp15
 70
     1
102
RTVSPropertyOp16
 70
     1
102
RTVSPropertyOp17
 70
     1
102
RTVSPropertyOp18
 70
     1
102
RTVSPropertyOp19
 70
     1
102
RTVSPropertyOp20
 70
     1
102
RTVSPropertyOp21
 70
     1
102
RTVSPropertyOp22
 70
     1
102
RTVSPropertyOp23
 70
     1
102
RTVSPropertyOp24
 70
     1
102
RTVSPropertyOp25
 70
     1
102
RTVSPropertyOp26
 70
     1
102
RTVSPropertyOp27
 70
     1
102
RTVSPropertyOp28
 70
     1
102
RTVSPropertyOp29
 70
     1
102
RTVSPropertyOp30
 70
     1
102
RTVSPropertyOp31
 70
     1
102
RTVSPropertyOp32
 70
     1
  0
XRECORD
  5
56
102
{ACAD_REACTORS
330
55
102
}
330
55
100
AcDbXrecord
280
     1
102
RTVSPropertyOp0
 70
     1
102
RTVSPropertyOp1
 70
     1
102
RTVSPropertyOp2
 70
     1
102
RTVSPropertyOp3
 70
     1
102
RTVSPropertyOp4
 70
     1
102
RTVSPropertyOp5
 70
     1
102
RTVSPropertyOp6
 70
     1
102
RTVSPropertyOp7
 70
     1
102
RTVSPropertyOp8
 70
     1
102
RTVSPropertyOp9
 70
     1
102
RTVSPropertyOp10
 70
     1
102
RTVSPropertyOp11
 70
     1
102
RTVSPropertyOp12
 70
     1
102
RTVSPropertyOp13
 70
     1
102
RTVSPropertyOp14
 70
     1
102
RTVSPropertyOp15
 70
     1
102
RTVSPropertyOp16
 70
     1
102
RTVSPropertyOp17
 70
     1
102
RTVSPropertyOp18
 70
     1
102
RTVSPropertyOp19
 70
     1
102
RTVSPropertyOp20
 70
     1
102
RTVSPropertyOp21
 70
     1
102
RTVSPropertyOp22
 70
     1
102
RTVSPropertyOp23
 70
     1
102
RTVSPropertyOp24
 70
     1
102
RTVSPropertyOp25
 70
     1
102
RTVSPropertyOp26
 70
     1
102
RTVSPropertyOp27
 70
     1
102
RTVSPropertyOp28
 70
     1
102
RTVSPropertyOp29
 70
     1
102
RTVSPropertyOp30
 70
     1
102
RTVSPropertyOp31
 70
     1
102
RTVSPropertyOp32
 70
     1
  0
XRECORD
  5
58
102
{ACAD_REACTORS
330
57
102
}
330
57
100
AcDbXrecord
280
     1
102
RTVSPropertyOp0
 70
     1
102
RTVSPropertyOp1
 70
     1
102
RTVSPropertyOp2
 70
     1
102
RTVSPropertyOp3
 70
     1
102
RTVSPropertyOp4
 70
     1
102
RTVSPropertyOp5
 70
     1
102
RTVSPropertyOp6
 70
     1
102
RTVSPropertyOp7
 70
     1
102
RTVSPropertyOp8
 70
     1
102
RTVSPropertyOp9
 70
     1
102
RTVSPropertyOp10
 70
     1
102
RTVSPropertyOp11
 70
     1
102
RTVSPropertyOp12
 70
     1
102
RTVSPropertyOp13
 70
     1
102
RTVSPropertyOp14
 70
     1
102
RTVSPropertyOp15
 70
     1
102
RTVSPropertyOp16
 70
     1
102
RTVSPropertyOp17
 70
     1
102
RTVSPropertyOp18
 70
     1
102
RTVSPropertyOp19
 70
     1
102
RTVSPropertyOp20
 70
     1
102
RTVSPropertyOp21
 70
     1
102
RTVSPropertyOp22
 70
     1
102
RTVSPropertyOp23
 70
     1
102
RTVSPropertyOp24
 70
     1
102
RTVSPropertyOp25
 70
     1
102
RTVSPropertyOp26
 70
     1
102
RTVSPropertyOp27
 70
     1
102
RTVSPropertyOp28
 70
     1
102
RTVSPropertyOp29
 70
     1
102
RTVSPropertyOp30
 70
     1
102
RTVSPropertyOp31
 70
     1
102
RTVSPropertyOp32
 70
     1
  0
XRECORD
  5
60
102
{ACAD_REACTORS
330
5F
102
}
330
5F
100
AcDbXrecord
280
     1
102
RTVSPropertyOp0
 70
     1
102
RTVSPropertyOp1
 70
     1
102
RTVSPropertyOp2
 70
     1
102
RTVSPropertyOp3
 70
     1
102
RTVSPropertyOp4
 70
     1
102
RTVSPropertyOp5
 70
     1
102
RTVSPropertyOp6
 70
     1
102
RTVSPropertyOp7
 70
     1
102
RTVSPropertyOp8
 70
     1
102
RTVSPropertyOp9
 70
     1
102
RTVSPropertyOp10
 70
     1
102
RTVSPropertyOp11
 70
     1
102
RTVSPropertyOp12
 70
     1
102
RTVSPropertyOp13
 70
     1
102
RTVSPropertyOp14
 70
     1
102
RTVSPropertyOp15
 70
     1
102
RTVSPropertyOp16
 70
     1
102
RTVSPropertyOp17
 70
     1
102
RTVSPropertyOp18
 70
     1
102
RTVSPropertyOp19
 70
     1
102
RTVSPropertyOp20
 70
     1
102
RTVSPropertyOp21
 70
     1
102
RTVSPropertyOp22
 70
     1
102
RTVSPropertyOp23
 70
     1
102
RTVSPropertyOp24
 70
     1
102
RTVSPropertyOp25
 70
     1
102
RTVSPropertyOp26
 70
     1
102
RTVSPropertyOp27
 70
     1
102
RTVSPropertyOp28
 70
     1
102
RTVSPropertyOp29
 70
     1
102
RTVSPropertyOp30
 70
     1
102
RTVSPropertyOp31
 70
     1
102
RTVSPropertyOp32
 70
     1
  0
XRECORD
  5
44
102
{ACAD_REACTORS
330
43
102
}
330
43
100
AcDbXrecord
280
     1
102
RTVSPropertyOp0
 70
     1
102
RTVSPropertyOp1
 70
     1
102
RTVSPropertyOp2
 70
     1
102
RTVSPropertyOp3
 70
     1
102
RTVSPropertyOp4
 70
     1
102
RTVSPropertyOp5
 70
     1
102
RTVSPropertyOp6
 70
     1
102
RTVSPropertyOp7
 70
     1
102
RTVSPropertyOp8
 70
     1
102
RTVSPropertyOp9
 70
     1
102
RTVSPropertyOp10
 70
     1
102
RTVSPropertyOp11
 70
     1
102
RTVSPropertyOp12
 70
     1
102
RTVSPropertyOp13
 70
     1
102
RTVSPropertyOp14
 70
     1
102
RTVSPropertyOp15
 70
     1
102
RTVSPropertyOp16
 70
     1
102
RTVSPropertyOp17
 70
     1
102
RTVSPropertyOp18
 70
     1
102
RTVSPropertyOp19
 70
     1
102
RTVSPropertyOp20
 70
     1
102
RTVSPropertyOp21
 70
     1
102
RTVSPropertyOp22
 70
     1
102
RTVSPropertyOp23
 70
     1
102
RTVSPropertyOp24
 70
     1
102
RTVSPropertyOp25
 70
     1
102
RTVSPropertyOp26
 70
     1
102
RTVSPropertyOp27
 70
     1
102
RTVSPropertyOp28
 70
     1
102
RTVSPropertyOp29
 70
     1
102
RTVSPropertyOp30
 70
     1
102
RTVSPropertyOp31
 70
     1
102
RTVSPropertyOp32
 70
     1
  0
XRECORD
  5
46
102
{ACAD_REACTORS
330
45
102
}
330
45
100
AcDbXrecord
280
     1
102
RTVSPropertyOp0
 70
     1
102
RTVSPropertyOp1
 70
     1
102
RTVSPropertyOp2
 70
     1
102
RTVSPropertyOp3
 70
     1
102
RTVSPropertyOp4
 70
     1
102
RTVSPropertyOp5
 70
     1
102
RTVSPropertyOp6
 70
     1
102
RTVSPropertyOp7
 70
     1
102
RTVSPropertyOp8
 70
     1
102
RTVSPropertyOp9
 70
     1
102
RTVSPropertyOp10
 70
     1
102
RTVSPropertyOp11
 70
     1
102
RTVSPropertyOp12
 70
     1
102
RTVSPropertyOp13
 70
     1
102
RTVSPropertyOp14
 70
     1
102
RTVSPropertyOp15
 70
     1
102
RTVSPropertyOp16
 70
     1
102
RTVSPropertyOp17
 70
     1
102
RTVSPropertyOp18
 70
     1
102
RTVSPropertyOp19
 70
     1
102
RTVSPropertyOp20
 70
     1
102
RTVSPropertyOp21
 70
     1
102
RTVSPropertyOp22
 70
     1
102
RTVSPropertyOp23
 70
     1
102
RTVSPropertyOp24
 70
     1
102
RTVSPropertyOp25
 70
     1
102
RTVSPropertyOp26
 70
     1
102
RTVSPropertyOp27
 70
     1
102
RTVSPropertyOp28
 70
     1
102
RTVSPropertyOp29
 70
     1
102
RTVSPropertyOp30
 70
     1
102
RTVSPropertyOp31
 70
     1
102
RTVSPropertyOp32
 70
     1
  0
XRECORD
  5
48
102
{ACAD_REACTORS
330
47
102
}
330
47
100
AcDbXrecord
280
     1
102
RTVSPropertyOp0
 70
     1
102
RTVSPropertyOp1
 70
     1
102
RTVSPropertyOp2
 70
     1
102
RTVSPropertyOp3
 70
     1
102
RTVSPropertyOp4
 70
     1
102
RTVSPropertyOp5
 70
     1
102
RTVSPropertyOp6
 70
     1
102
RTVSPropertyOp7
 70
     1
102
RTVSPropertyOp8
 70
     1
102
RTVSPropertyOp9
 70
     1
102
RTVSPropertyOp10
 70
     1
102
RTVSPropertyOp11
 70
     1
102
RTVSPropertyOp12
 70
     1
102
RTVSPropertyOp13
 70
     1
102
RTVSPropertyOp14
 70
     1
102
RTVSPropertyOp15
 70
     1
102
RTVSPropertyOp16
 70
     1
102
RTVSPropertyOp17
 70
     1
102
RTVSPropertyOp18
 70
     1
102
RTVSPropertyOp19
 70
     1
102
RTVSPropertyOp20
 70
     1
102
RTVSPropertyOp21
 70
     1
102
RTVSPropertyOp22
 70
     1
102
RTVSPropertyOp23
 70
     1
102
RTVSPropertyOp24
 70
     1
102
RTVSPropertyOp25
 70
     1
102
RTVSPropertyOp26
 70
     1
102
RTVSPropertyOp27
 70
     1
102
RTVSPropertyOp28
 70
     1
102
RTVSPropertyOp29
 70
     1
102
RTVSPropertyOp30
 70
     1
102
RTVSPropertyOp31
 70
     1
102
RTVSPropertyOp32
 70
     1
  0
XRECORD
  5
4A
102
{ACAD_REACTORS
330
49
102
}
330
49
100
AcDbXrecord
280
     1
102
RTVSPropertyOp0
 70
     1
102
RTVSPropertyOp1
 70
     1
102
RTVSPropertyOp2
 70
     1
102
RTVSPropertyOp3
 70
     1
102
RTVSPropertyOp4
 70
     1
102
RTVSPropertyOp5
 70
     1
102
RTVSPropertyOp6
 70
     1
102
RTVSPropertyOp7
 70
     1
102
RTVSPropertyOp8
 70
     1
102
RTVSPropertyOp9
 70
     1
102
RTVSPropertyOp10
 70
     1
102
RTVSPropertyOp11
 70
     1
102
RTVSPropertyOp12
 70
     1
102
RTVSPropertyOp13
 70
     1
102
RTVSPropertyOp14
 70
     1
102
RTVSPropertyOp15
 70
     1
102
RTVSPropertyOp16
 70
     1
102
RTVSPropertyOp17
 70
     1
102
RTVSPropertyOp18
 70
     1
102
RTVSPropertyOp19
 70
     1
102
RTVSPropertyOp20
 70
     1
102
RTVSPropertyOp21
 70
     1
102
RTVSPropertyOp22
 70
     1
102
RTVSPropertyOp23
 70
     1
102
RTVSPropertyOp24
 70
     1
102
RTVSPropertyOp25
 70
     1
102
RTVSPropertyOp26
 70
     1
102
RTVSPropertyOp27
 70
     1
102
RTVSPropertyOp28
 70
     1
102
RTVSPropertyOp29
 70
     1
102
RTVSPropertyOp30
 70
     1
102
RTVSPropertyOp31
 70
     1
102
RTVSPropertyOp32
 70
     1
  0
XRECORD
  5
5E
102
{ACAD_REACTORS
330
5D
102
}
330
5D
100
AcDbXrecord
280
     1
102
RTVSPropertyOp0
 70
     1
102
RTVSPropertyOp1
 70
     1
102
RTVSPropertyOp2
 70
     1
102
RTVSPropertyOp3
 70
     1
102
RTVSPropertyOp4
 70
     1
102
RTVSPropertyOp5
 70
     1
102
RTVSPropertyOp6
 70
     1
102
RTVSPropertyOp7
 70
     1
102
RTVSPropertyOp8
 70
     1
102
RTVSPropertyOp9
 70
     1
102
RTVSPropertyOp10
 70
     1
102
RTVSPropertyOp11
 70
     1
102
RTVSPropertyOp12
 70
     1
102
RTVSPropertyOp13
 70
     1
102
RTVSPropertyOp14
 70
     1
102
RTVSPropertyOp15
 70
     1
102
RTVSPropertyOp16
 70
     1
102
RTVSPropertyOp17
 70
     1
102
RTVSPropertyOp18
 70
     1
102
RTVSPropertyOp19
 70
     1
102
RTVSPropertyOp20
 70
     1
102
RTVSPropertyOp21
 70
     1
102
RTVSPropertyOp22
 70
     1
102
RTVSPropertyOp23
 70
     1
102
RTVSPropertyOp24
 70
     1
102
RTVSPropertyOp25
 70
     1
102
RTVSPropertyOp26
 70
     1
102
RTVSPropertyOp27
 70
     1
102
RTVSPropertyOp28
 70
     1
102
RTVSPropertyOp29
 70
     1
102
RTVSPropertyOp30
 70
     1
102
RTVSPropertyOp31
 70
     1
102
RTVSPropertyOp32
 70
     1
  0
XRECORD
  5
54
102
{ACAD_REACTORS
330
53
102
}
330
53
100
AcDbXrecord
280
     1
102
RTVSPropertyOp0
 70
     1
102
RTVSPropertyOp1
 70
     1
102
RTVSPropertyOp2
 70
     1
102
RTVSPropertyOp3
 70
     1
102
RTVSPropertyOp4
 70
     1
102
RTVSPropertyOp5
 70
     1
102
RTVSPropertyOp6
 70
     1
102
RTVSPropertyOp7
 70
     1
102
RTVSPropertyOp8
 70
     1
102
RTVSPropertyOp9
 70
     1
102
RTVSPropertyOp10
 70
     1
102
RTVSPropertyOp11
 70
     1
102
RTVSPropertyOp12
 70
     1
102
RTVSPropertyOp13
 70
     1
102
RTVSPropertyOp14
 70
     1
102
RTVSPropertyOp15
 70
     1
102
RTVSPropertyOp16
 70
     1
102
RTVSPropertyOp17
 70
     1
102
RTVSPropertyOp18
 70
     1
102
RTVSPropertyOp19
 70
     1
102
RTVSPropertyOp20
 70
     1
102
RTVSPropertyOp21
 70
     1
102
RTVSPropertyOp22
 70
     1
102
RTVSPropertyOp23
 70
     1
102
RTVSPropertyOp24
 70
     1
102
RTVSPropertyOp25
 70
     1
102
RTVSPropertyOp26
 70
     1
102
RTVSPropertyOp27
 70
     1
102
RTVSPropertyOp28
 70
     1
102
RTVSPropertyOp29
 70
     1
102
RTVSPropertyOp30
 70
     1
102
RTVSPropertyOp31
 70
     1
102
RTVSPropertyOp32
 70
     1
  0
XRECORD
  5
5C
102
{ACAD_REACTORS
330
5B
102
}
330
5B
100
AcDbXrecord
280
     1
102
RTVSPropertyOp0
 70
     1
102
RTVSPropertyOp1
 70
     1
102
RTVSPropertyOp2
 70
     1
102
RTVSPropertyOp3
 70
     1
102
RTVSPropertyOp4
 70
     1
102
RTVSPropertyOp5
 70
     1
102
RTVSPropertyOp6
 70
     1
102
RTVSPropertyOp7
 70
     1
102
RTVSPropertyOp8
 70
     1
102
RTVSPropertyOp9
 70
     1
102
RTVSPropertyOp10
 70
     1
102
RTVSPropertyOp11
 70
     1
102
RTVSPropertyOp12
 70
     1
102
RTVSPropertyOp13
 70
     1
102
RTVSPropertyOp14
 70
     1
102
RTVSPropertyOp15
 70
     1
102
RTVSPropertyOp16
 70
     1
102
RTVSPropertyOp17
 70
     1
102
RTVSPropertyOp18
 70
     1
102
RTVSPropertyOp19
 70
     1
102
RTVSPropertyOp20
 70
     1
102
RTVSPropertyOp21
 70
     1
102
RTVSPropertyOp22
 70
     1
102
RTVSPropertyOp23
 70
     1
102
RTVSPropertyOp24
 70
     1
102
RTVSPropertyOp25
 70
     1
102
RTVSPropertyOp26
 70
     1
102
RTVSPropertyOp27
 70
     1
102
RTVSPropertyOp28
 70
     1
102
RTVSPropertyOp29
 70
     1
102
RTVSPropertyOp30
 70
     1
102
RTVSPropertyOp31
 70
     1
102
RTVSPropertyOp32
 70
     1
  0
ENDSEC
  0
EOF
