<?xml version="1.0" encoding="utf-8"?>
<!-- Generator: Adobe Illustrator 16.0.0, SVG Export Plug-In . SVG Version: 6.00 Build 0)  -->
<!DOCTYPE svg PUBLIC "-//W3C//DTD SVG 1.1//EN" "http://www.w3.org/Graphics/SVG/1.1/DTD/svg11.dtd">
<svg version="1.1" id="Layer_1" xmlns="http://www.w3.org/2000/svg" xmlns:xlink="http://www.w3.org/1999/xlink" x="0px" y="0px"
	 width="226.77px" height="226.77px" viewBox="0 0 226.77 226.77" enable-background="new 0 0 226.77 226.77" xml:space="preserve">
<path fill-rule="evenodd" clip-rule="evenodd" d="M162.529,113.343c-8.121-3.843-16.248-7.688-24.367-11.528
	c-1.607-0.488-3.21-0.971-4.815-1.463c-1.897-1.07-3.797-2.139-5.692-3.206c-4.286-1.938-8.609-2.688-11.818-5.543
	c-2.512-2.238-6.28-4.132-9.775-5.257c-1.074-0.148-2.145-0.293-3.212-0.436c-0.438-0.633-0.877-1.266-1.315-1.898
	c-3.767-4.837-0.666-7.58,3.941-9.777c0.338,0.195,0.679,0.388,1.018,0.587c4.295-3.039,8.525-15.518,2.192-19.553
	c-6.586-4.203-16.029,4.702-16.78,9.625c0.439,0.633,0.875,1.268,1.311,1.897c-0.137,1.937-1.264,3.334-2.041,4.673
	c-2.02,3.483-4.048,8.768-9.339,5.836c-0.975-2.628-1.944-5.251-2.916-7.88c-1.463-1.897-2.918-3.792-4.379-5.691
	c-0.631-2.576-1.266-5.156-1.901-7.732c-0.704-2.339-1.986-4.561-2.623-6.71c-0.997-3.359-1.014-6.169-2.191-9.051
	c-1.605-3.213-3.208-6.421-4.815-9.628c-1.264-3.214-2.524-6.427-3.794-9.631c-1.59-2.806-4.578-5.755-5.543-9.049
	c-0.771-2.619,0.208-5.277-0.727-7.443c0,0-0.337-0.906-0.591-0.289c-0.523,1.275-0.334,3.153-0.29,5.104
	c0.027,0.231-0.129,0.419-0.291,0.146c-1.32-1.079-2.046-5.382-3.793-4.524c-0.874,0.438,3.095,5.079,2.923,5.548
	c-0.327,0.567-2.065-3.192-2.923-3.213c-0.049,0.055-0.1,0.102-0.149,0.146c0.542,2.551,3.009,5.342,3.647,7.301
	c0.081,0.328,0.081,0.328-0.144,0.287c-2.049-0.167-2.962-2.012-4.669-2.774c-0.887-0.45-1.59-0.278-0.875,1.025
	c1.063,1.565,1.976,1.808,3.5,2.918c0.584,0.922,1.169,1.85,1.751,2.775c1.278,1.537,2.959,2.612,4.085,4.374
	c1.266,5.545,2.531,11.092,3.793,16.634c1.135,3.439,3.209,7.202,4.379,10.802c1.756,5.372,1.539,11.031,3.211,16.632
	c1.38,4.64,4.036,8.479,5.105,13.281c1.464,6.547-1.601,9.212-2.48,14.154v5.835c-1.416,8.179,1.288,14.742,3.5,19.987
	c0.598,1.406,2.356,7.287,1.901,9.193c-0.976,4.112-2.424,9.526-0.731,14.449c0.64,1.857,2.172,1.789,3.211,3.065
	c0.049,0.486,0.097,0.972,0.148,1.456c0.747,0.801,2.41,1.335,3.644,1.606c0.327,1.2,0.794,3.16,0,4.234
	c0.048,0.101,0.1,0.192,0.146,0.29c1.455,0.53,2.654-1.476,3.943-1.753c1.229-0.265,2.536,0.627,3.206,0.878
	c0.921-0.146,1.848-0.293,2.776-0.438c0.207,5.165-0.877,10.597-1.908,15.548l-0.072,0.03c0,0-0.845,7.59-2.708,10.078l0.023,0.003
	c-2.653,3.525-5.464,8.538-6.425,13.152c-0.098,1.846-0.198,3.7-0.292,5.549c-1.751,7.74-5.498,14.989-3.359,23.052
	c2.414,1.226,15.033,2.518,18.533,1.606c1.362-0.353,3.028-1.312,3.789-2.332c0.237-0.884,0.416-1.576-0.141-2.19
	c-0.908-1.43-4.431-0.963-6.275-1.46c-2.313-0.618-5.418-1.592-7.001-3.064c-0.705-0.652-0.817-1.731-1.606-2.334
	c0.355-2.116,1.7-3.002,2.481-4.67c1.313-2.819,2.624-5.643,3.936-8.464c1.559-2.625,3.116-5.254,4.671-7.878
	c1.246-2.964,1.284-6.731,2.337-10.212c1.547-5.143,4.056-10.494,5.544-15.326c0.098-0.046,0.195-0.097,0.292-0.144
	c1.781,1.156,3.11,2.863,4.671,4.229c1.016,0.585,2.042,1.168,3.064,1.753c1.847,2.503,2.816,5.536,4.521,8.318
	c2.239,3.663,5.145,7.185,6.856,11.381c1.494,3.647,2.387,7.675,4.379,10.794c1.645,2.585,7.264,9.256,11.531,7.007
	c2.732-2.042-3.572-4.977-3.215-8.025c0.241-2.062,3.799-3.422,2.627-5.691c-0.297-0.577-2.042-1.605-2.042-1.605
	c-2.19-0.835-4.496-0.302-5.547-2.189c-0.339-1.505-0.68-3.01-1.021-4.521c-1.863-4.946-2.945-11.55-5.541-15.908
	c-2.826-4.736-7.506-8.003-10.509-12.399c-1.071-2.236-2.141-4.477-3.212-6.719c-0.713-1.199-1.919-2.359-2.188-3.937
	c1.411-0.433,3.076-1.33,3.651-2.626c0.092-0.099,0.194-0.191,0.289-0.287c-0.389-0.342-0.374-0.137-0.582-0.734
	c0.825-0.289,1.652-0.581,2.475-0.873c-2.28-5.736-4.08-13.373-7.585-18.095c-3.95-5.325-15.808-9.423-9.776-18.533
	c0.647-0.801,2.83-0.396,3.649-1.023c1.686-1.282,2.122-4.333,3.648-5.838c6.005-0.791,9.791,3.392,14.591,4.82
	c4.672,1.167,9.34,2.331,14.01,3.501c4.424,1.547,8.236,4.505,12.982,5.983c2.92,0.729,5.837,1.457,8.762,2.188
	c1.747,0.243,3.498,0.486,5.249,0.729c3.132,1.315,8.583,8.102,11.384,8.464c0.346,0.09,1.049-0.145,0.438-0.875
	c-1.01-1.473-3.066-2.744-3.502-4.527h3.647c1.669,0.914,5.131,5.703,7.297,5.258c0.263,0.016,0.419-0.094,0.144-0.44l-1.02-1.019
	c0.29-0.045,0.585-0.098,0.876-0.146c0.81-0.161,0.872-0.552,0.29-0.878c-1.41-0.682-2.822-1.363-4.23-2.041
	c-0.148-0.194-0.295-0.39-0.439-0.587c0.778-0.046,1.556-0.096,2.335-0.147c0.839-0.086,0.323-0.674,0.146-0.728
	c-1.112-0.337-2.429-0.388-3.648-0.583c1.977-0.805,5.029,0.363,6.568,0.875c0.945,0.178,1.898-0.51,1.021-0.875
	C174.662,115.955,167.861,115.286,162.529,113.343z"/>
</svg>
