<?xml version="1.0" encoding="utf-8"?>
<!-- Generator: Adobe Illustrator 16.0.0, SVG Export Plug-In . SVG Version: 6.00 Build 0)  -->
<!DOCTYPE svg PUBLIC "-//W3C//DTD SVG 1.1//EN" "http://www.w3.org/Graphics/SVG/1.1/DTD/svg11.dtd">
<svg version="1.1" id="Layer_1" xmlns="http://www.w3.org/2000/svg" xmlns:xlink="http://www.w3.org/1999/xlink" x="0px" y="0px"
	 width="226.77px" height="226.77px" viewBox="0 0 226.77 226.77" enable-background="new 0 0 226.77 226.77" xml:space="preserve">
<path fill-rule="evenodd" clip-rule="evenodd" d="M174.244,53.194c-0.922-0.744-2.099-0.525-2.66,0.514
	c-0.257,0.474-0.589,0.883-0.951,1.273c-1.217,1.312-2.271,2.747-3.228,4.256c-0.444,0.701-0.958,1.354-1.546,1.943
	c-0.724,0.726-1.623,1.152-2.581,1.48c-0.948,0.324-1.905,0.649-2.632,1.388c-0.734,0.747-1.452,1.518-2.027,2.395
	c-0.754,1.153-0.561,2.197,0.497,3.066c0.458,0.376,0.933,0.738,1.358,1.149c0.592,0.566,0.59,0.964,0.133,1.644
	c-1.69,2.517-3.314,5.081-5.068,7.553c-1.578,2.223-2.094,4.701-2.164,7.344c-0.041,1.566,0.13,3.125,0.119,4.689
	c-0.004,0.627-0.042,1.248-0.189,1.861c-0.234,0.974-0.814,1.582-1.795,1.835c-1.188,0.306-2.41,0.372-3.613,0.552
	c-1.021,0.153-2.047,0.27-3.071,0.394c-0.13,0.016-0.308,0.071-0.39-0.069c-0.082-0.141,0.061-0.262,0.13-0.376
	c1.474-2.407,2.577-4.971,3.174-7.733c0.261-1.207,0.393-2.433,0.268-3.68c-0.093-0.928-0.419-1.703-1.123-2.343
	c-0.729-0.662-0.731-0.842-0.171-1.665c0.404-0.594,0.852-1.158,1.266-1.746c0.854-1.214,1.426-2.533,1.412-4.049
	c-0.009-0.84-0.219-1.592-0.902-2.176c-0.484-0.415-0.877-0.931-1.4-1.313c-0.744-0.543-1.574-0.755-2.48-0.646
	c-0.682,0.082-1.358,0.21-2.04,0.302c-0.974,0.131-1.862,0.487-2.739,0.922c-1.917,0.952-3.795,1.985-5.785,2.792
	c-2.512,1.02-4.637,2.668-6.65,4.427c-1.672,1.461-3.465,2.782-5.063,4.324c-2.126,2.053-4.339,4.019-6.277,6.259
	c-0.077,0.089-0.133,0.253-0.28,0.195c-0.14-0.055-0.089-0.218-0.092-0.336c-0.06-2.197,0.548-4.232,1.513-6.179
	c0.248-0.501,0.67-0.831,1.156-1.06c2.174-1.025,3.279-2.86,3.9-5.071c0.105-0.376,0.209-0.755,0.286-1.138
	c0.224-1.111,0.858-1.972,1.551-2.844c1.817-2.291,4.087-4.185,5.73-6.626c0.718-1.066,1.403-2.147,1.949-3.312
	c0.74-1.58,1.679-3.04,2.698-4.446c1.361-1.876,2.336-3.952,3.264-6.06c1.209-2.748,2.369-5.522,4.098-8.005
	c0.307-0.438,0.544-0.92,0.673-1.439c0.229-0.926,0.613-1.808,0.79-2.747c0.229-1.215-0.123-2.394-0.229-3.587
	c-0.209-2.317-1.142-4.394-2.028-6.506c-0.777-1.854-1.846-3.548-2.709-5.351c-0.132-0.275-0.335-0.505-0.62-0.618
	c-0.96-0.381-1.581-1.213-2.401-1.779c-0.242-0.167-0.074-0.288,0.056-0.4c0.624-0.545,1.257-1.081,1.876-1.63
	c0.316-0.28,0.617-0.578,0.914-0.875c0.179-0.178,0.318-0.39,0.403-0.628c0.06-0.167,0.11-0.338,0.105-0.501l0,0
	c0.105-0.5-0.501-1.079-0.501-1.079c-0.828-0.751-5.867-0.234-5.867-0.234c-1.39,0.3-2.776,0.604-4.145,1.004
	c-2.647,0.774-4.697,2.37-6.352,4.515c-0.474,0.614-1.029,1.105-1.727,1.406c-2.751,1.184-5.297,2.756-7.95,4.129
	c-2.477,1.282-4.842,2.742-7.107,4.371c-1.358,0.977-2.676,2.003-3.98,3.049c-0.44,0.353-0.789,0.794-0.916,1.333
	c-0.367,1.56-1.197,2.917-1.839,4.356c-1.738,3.896-3.208,7.878-3.975,12.093c-0.26,1.434-0.366,2.885-0.479,4.333
	c-0.145,1.853-0.704,3.58-1.409,5.278c-0.654,1.573-1.356,3.128-1.762,4.795c-0.364,1.493-0.413,3.007-0.293,4.522
	c0.09,1.137,0.075,2.261-0.228,3.352c-0.496,1.787-0.288,3.581-0.08,5.358c0.257,2.203,0.664,4.388,1.008,6.58
	c0.335,2.132,0.651,4.269,1.202,6.357c0.382,1.449,0.43,2.934,0.566,4.412c0.196,2.148,0.503,4.284,0.81,6.418
	c0.072,0.499,0.073,0.998,0.069,1.498c-0.006,0.772-0.422,1.402-1.053,1.656c-1.5,0.606-2.955,1.384-4.601,1.569
	c-1.642,0.184-3.268,0.132-4.896-0.2c-2.573-0.525-5.201-0.757-7.749-1.415c-3.166-0.817-6.313-1.699-9.423-2.705
	c-1.565-0.506-2.53,0.134-2.617,1.793c-0.036,0.68,0.282,1.202,0.672,1.703c0.587,0.755,0.938,1.613,1.148,2.54
	c0.113,0.494,0.014,0.964-0.118,1.433c-0.05,0.18-0.121,0.355-0.178,0.534c-0.411,1.297-0.107,1.993,1.125,2.577
	c0.155,0.074,0.305,0.163,0.465,0.223c1.772,0.664,1.765,2.385,0.992,3.582c-0.913,1.412-0.321,3.896,1.851,4.334
	c0.629,0.126,1.258,0.248,1.904,0.234c0.141-0.003,0.282,0,0.423,0.004c1.461,0.041,2.138,0.906,1.798,2.336
	c-0.167,0.697-0.261,1.387,0.055,2.064c0.575,1.232,1.564,1.888,2.902,1.994c1.286,0.102,2.525-0.088,3.686-0.693
	c0.853-0.444,1.739-0.557,2.679-0.258c0.767,0.242,1.342,0.637,1.712,1.398c0.387,0.799,0.921,1.524,1.381,2.287
	c0.798,1.325,2.003,1.867,3.508,1.855c0.804-0.004,0.809,0.006,0.573,0.759c-0.474,1.512-0.785,3.063-1.012,4.625
	c-0.359,2.476-1.077,4.845-1.892,7.2c-0.561,1.62-1.135,3.234-1.531,4.919c-0.439,1.867-0.918,3.733-1.425,5.587
	c-0.55,2.018-1.64,3.78-2.76,5.518c-2.011,3.121-3.693,6.426-5.467,9.68c-1.938,3.557-3.785,7.166-6.024,10.551
	c-0.458,0.691-0.965,1.345-1.517,1.966c-0.925,1.04-1.66,2.233-2.612,3.255c-0.661,0.707-1.356,1.382-2.027,2.078
	c-1.101,1.142-2.126,2.326-2.978,3.668c-1.35,2.127-2.994,4.054-4.28,6.221c-0.792,1.336-1.633,2.629-2.667,3.791
	c-0.376,0.424-0.667,0.904-0.879,1.433c-0.136,0.275-0.117,0.405,0,0.845c0.219,0.495,0.416,1.002,0.785,1.416
	c0.283,0.318,0.611,0.57,1,0.743c0.385,0.234,0.636,0.104,0.938,0c0.949-0.526,1.703-1.315,2.61-1.905
	c1.403-0.911,2.784-1.857,4.056-2.953c0.722-0.623,1.475-1.213,2.282-1.725c1.14-0.725,2.311-1.439,3.684-1.55
	c1.216-0.099,2.377-0.341,3.504-0.791c1.243-0.495,2.44-1.065,3.364-2.075c0.436-0.475,0.842-1.052,0.666-1.68
	c-0.191-0.682-0.389-1.412-0.703-2.016c-0.376-0.722-0.452-1.373-0.305-2.103c0.336-1.663,1.279-3.015,2.309-4.3
	c1.594-1.988,3.27-3.91,4.83-5.928c1.31-1.697,2.686-3.338,4.313-4.752c1.208-1.049,2.31-2.192,3.173-3.558
	c1.508-2.384,2.525-4.99,3.521-7.608c0.657-1.725,1.282-3.461,1.811-5.23c0.583-1.946,1.582-3.692,2.523-5.477
	c1.578-2.988,3.179-5.959,5.047-8.781c2.38-3.594,4.387-7.396,6.205-11.301c1.525-3.274,3.056-6.547,4.583-9.822
	c0.108-0.23,0.221-0.438,0.491-0.528c2.016-0.688,3.911-1.672,5.893-2.442c3.727-1.451,6.926-3.653,9.6-6.615
	c0.666-0.738,1.428-1.238,2.408-1.428c0.412-0.078,0.809-0.24,1.204-0.39c5.017-1.91,10.089-3.646,15.253-5.112
	c5.135-1.458,10.006-3.488,14.393-6.589c0.797-0.563,1.391-1.248,1.744-2.146c0.545-1.38,0.506-2.823,0.4-4.26
	c-0.128-1.707-0.155-3.402,0.223-5.085c0.816-3.635,1.343-7.317,1.832-11.007c0.243-1.842,0.535-3.667,1.246-5.421
	c1.073-2.646,2.598-5.059,3.807-7.634c0.43-0.914,0.834-1.813,1.021-2.804c0.146-0.773,0.374-1.516,0.755-2.211
	c0.232-0.427,0.395-0.885,0.464-1.371c0.274-1.927,0.872-3.774,1.394-5.641c0-0.281,0-0.563,0-0.844
	C174.996,54.104,174.728,53.584,174.244,53.194z M114.205,37.599c-1.165,0.173-2.168,0.662-3.042,1.452
	c-0.716,0.647-1.535,1.189-2.027,2.061c-0.073,0.127-0.227,0.21-0.348,0.307c-0.11,0.087-0.271,0.141-0.334,0.252
	c-0.485,0.852-1.416,1.241-2.02,1.97c-0.221,0.266-0.379,0.531-0.37,0.881c0.002,0.078,0.029,0.187-0.011,0.23
	c-0.63,0.683-0.063,1.548-0.35,2.283c-0.038,0.094-0.039,0.24,0.01,0.322c0.352,0.587,0.397,1.301,0.784,1.87
	c0.081,0.12,0.157,0.234,0.16,0.382c0.008,0.332,0.149,0.6,0.384,0.828c0.338,0.327,0.47,0.74,0.425,1.197
	c-0.209,2.111-0.597,4.181-1.529,6.111c-0.331,0.685-0.739,1.308-1.425,1.699c-0.218,0.124-0.391,0.186-0.365-0.177
	c0.091-1.283-0.142-2.527-0.481-3.751c-0.538-1.944-0.294-3.839,0.266-5.73c0.487-1.649,1.234-3.233,1.469-4.941
	c0.232-1.692,1.115-2.775,2.591-3.521c1.226-0.619,2.144-1.661,3.207-2.504c2.821-2.239,5.2-4.974,8.087-7.133
	c0.638-0.478,1.255-0.989,1.942-1.394c1.326-0.78,2.527-1.729,3.715-2.7c0.43-0.353,0.938-0.507,1.484-0.482
	c0.773,0.035,1.521-0.153,2.285-0.212c0.348-0.027,0.543,0.012,0.543,0.457c-0.001,0.607,0.379,0.863,0.98,0.726
	c0.271-0.063,0.527-0.188,0.793-0.282c0.154-0.054,0.293-0.194,0.506-0.082c-0.124,0.257-0.352,0.391-0.572,0.531
	c-0.463,0.292-0.93,0.578-1.385,0.882c-0.31,0.208-0.487,0.495-0.358,0.883c0.132,0.396,0.444,0.542,0.837,0.556
	c0.446,0.016,0.816-0.173,1.168-0.425c0.278-0.2,0.558-0.403,0.856-0.57c0.201-0.112,0.466-0.148,0.517,0.167
	c0.078,0.484,0.428,0.714,0.792,0.925c0.69,0.399,1.384,0.795,2.099,1.147c0.607,0.299,0.891,0.727,0.829,1.416
	c-0.038,0.419-0.035,0.842-0.098,1.261c-0.202,1.353-0.281,2.712-0.007,4.06c0.406,2.002-0.284,3.656-1.439,5.246
	c-1.619,2.227-3.299,4.408-4.893,6.651c-1.133,1.593-2.188,3.241-3.31,4.842c-0.538,0.768-1.12,1.504-1.618,2.301
	c-0.402,0.643-0.96,1.11-1.611,1.47c-1.693,0.931-3.222,2.102-4.773,3.237c-0.303,0.221-0.619,0.422-0.933,0.629
	c-0.334,0.22-0.638,0.162-0.945-0.078c-0.972-0.758-1.095-1.467-0.411-2.508c0.695-1.058,1.396-2.111,2.098-3.167
	c0.277-0.42,0.689-0.643,1.176-0.688c0.929-0.084,1.639-0.541,2.262-1.203c1.24-1.317,2.065-2.855,2.52-4.598
	c0.048-0.18,0.098-0.373,0.08-0.554c-0.089-0.907,0.225-1.687,0.695-2.432c0.463-0.734,0.703-1.531,0.607-2.41
	c-0.08-0.724,0.203-1.425,0.143-2.145c-0.137-1.622-0.881-2.966-1.908-4.196c-1.152-1.379-2.715-1.793-4.394-2.029
	c-1.384-0.195-2.706,0.006-4.021,0.413C115.105,37.464,114.652,37.532,114.205,37.599z"/>
</svg>
