<?xml version="1.0" encoding="utf-8"?>
<!-- Generator: Adobe Illustrator 16.0.0, SVG Export Plug-In . SVG Version: 6.00 Build 0)  -->
<!DOCTYPE svg PUBLIC "-//W3C//DTD SVG 1.1//EN" "http://www.w3.org/Graphics/SVG/1.1/DTD/svg11.dtd">
<svg version="1.1" id="Layer_1" xmlns="http://www.w3.org/2000/svg" xmlns:xlink="http://www.w3.org/1999/xlink" x="0px" y="0px"
	 width="226.77px" height="226.77px" viewBox="0 0 226.77 226.77" enable-background="new 0 0 226.77 226.77" xml:space="preserve">
<path fill-rule="evenodd" clip-rule="evenodd" d="M142.195,20.446c-0.099-1.804,0.394-3.241-0.301-5.416
	c-0.622-1.152-2.113-4.744-2.361-3.645c-0.441,1.615,1.824,5.437,0.885,5.119c-0.826-0.296-1.099-1.087-1.769-1.474
	c-1.445-0.46-2.891-0.92-4.335-1.378c-1.002-0.219-1.193,0.116-0.881,1.082c0.956,1.929,4.023,1.831,4.523,4.039
	c0.017,0.071,0,0.294,0,0.294c-0.423,0.217-0.783-0.937-1.476-1.28c-0.608-0.332-0.835-0.248-0.688,0.493
	c0.518,1.81,1.344,2.545,1.872,4.039c0.16,0.689,0.327,1.378,0.491,2.067c0.492,0.623,0.985,1.244,1.475,1.87
	c0.68,2.251-3.399,9.531-3.642,9.947c-0.124,0.33-0.59,1.479-0.59,1.479c-0.402,0.868-0.791,2.36-0.791,2.36
	c-0.04,1.326-1.832,5.02-2.463,5.908c-0.89,1.264-2.058,2.753-2.854,4.043c-1.629,2.643-3.413,5.201-4.923,7.974
	c-0.754,1.543-1.511,3.085-2.264,4.628c-1.397,1.999-4.592,2.998-6.504,4.53h-0.387c-1.587-3.011,0.782-6.723,2.654-8.173
	c2.416,1.451,1.975-2.549,2.363-4.039c0.265-1.006,0.976-2.117,0.688-3.642c-0.566-3.002-1.768-6.148-4.332-7.094
	c-4.327-1.592-8.529,3.192-9.648,6.01c-0.101,0.557-0.202,1.117-0.297,1.673c-0.558,1.48-2.653,3.184,0.297,4.236
	c0.524,2.666-1.362,8.513-3.056,9.748c-2.615,1.909-6.59,1.4-9.845,2.068h-2.268c-2.952,0.701-4.451,3.051-6.796,4.235
	c-2.297,0.855-4.593,1.707-6.896,2.562c-3.55,1.025-6.936,1.601-5.707,6.697c0.372,1.55,0.858,2.693,1.374,4.232
	c0.855,1.051,1.705,2.1,2.563,3.154c1.669,2.141,2.914,3.642,5.514,5.023c0.243,0.104,0.505-0.007,0.297-0.195
	c-1.296-1.567-2.397-2.498-2.467-2.562c-0.216-0.428,0.059-0.296,0.294-0.1c0.858,0.723,1.714,1.444,2.564,2.165
	c0,0,1.805,1.293-0.063-1.751c0.227,0.096,0.624,0.473,0.854,0.573c0.878,0.502,0.723-0.024,0.391-0.589
	c-1.111-2.304-4.368-2.374-4.04-5.913c0.083-0.357,0.238-0.429,1.087-0.195c1.083,0.342,2.073,2.3,3.742,1.182
	c0.199-0.137,0.16-0.107,0.291-0.297c-1.092-1.231-2.629-1.559-3.441-3.152c-1.284-0.195-3.758-0.26-3.842-0.59
	c-0.171-0.712,0.149-1.298,0.294-1.966c3.523-1.259,8.151-1.474,11.425-2.758c0.813-0.324,2.479-0.94,3.544-0.494
	c0.098,0.066,0.195,0.132,0.292,0.197c-0.931,2.103-0.802,5.076-0.388,7.68v5.219c0.531,3.259,0.849,6.495,1.476,9.358
	c0.162,1.378,0.327,2.758,0.494,4.136c-0.108,0.37-0.653,1.093-0.589,1.67c0.293,0.76,0.589,1.516,0.884,2.268
	c-0.165,1.412-0.327,2.824-0.492,4.234v4.728c-0.238,0.813-0.979,1.968-1.086,2.953c-0.083,0.806,0.626,1.137,0.791,1.673
	c0.24,0.793-0.188,1.527-0.293,2.069c0.857,0.832,1.438,1.442,2.951,1.675c0.278,0.732,0.631,1.072,0.204,1.772
	c0.386,0.505,1.083,0.885,1.765,1.08c0.008,0.282-0.039,0.294-0.193,0.597c0.804-0.095,1.26-0.282,1.869,0.096
	c0.858,0.584,1.48,3.159,2.072,4.332c0.848,1.248,1.704,2.496,2.556,3.743c-0.326,2.955-0.655,5.91-0.983,8.865
	c0.065,2.196,0.131,4.399,0.196,6.599c-0.884,3.181-1.769,6.367-2.659,9.551c0.033,1.083,0.064,2.17,0.098,3.251
	c-0.774,4.274-0.034,8.477-0.887,12.505c-0.457,2.103-0.918,4.203-1.378,6.305c-0.426,0.853-0.854,1.707-1.278,2.562
	c-0.495,1.756,0.567,4.11,0.888,5.415c1.079,4.46,1.346,8.146,3.05,11.717c0.914,1.561,2.698,1.002,3.447-0.195
	c1.947-3.058,2.149-10.055,0.49-13.193c-0.709-1.347-1.465-2.935-1.082-5.124c0.711-4.022,2.047-6.947,3.055-10.438
	c0.622-2.46,1.245-4.925,1.871-7.386c1.482-4.241,3.051-8.247,2.956-14.377c1.137,0.492,1.993,7.84,2.562,9.451
	c1.373,3.93,2.492,8.55,3.341,13.001v2.953c0.496,2.464,0.99,4.926,1.481,7.385c0.999,3.096,2.962,5.674,3.942,8.767
	c0.77,0.165,1.656,0.2,2.36-0.195c0.969-0.646,0.437-3.834,0.195-5.021c-0.236-1.169-0.901-3.438-0.491-4.63
	c0.605-1.752,4.293-3.461,2.955-6.107c-0.425-0.852-1.032-0.729-1.873-1.178c-1.03-0.56-2.108-2.313-2.46-3.547
	c-0.394-3.874-0.789-7.75-1.182-11.623c-0.449-2.85,0.183-5.172-0.497-7.386c-1.874-6.161-5.619-10.263-6.691-17.234
	c0.985-3.676,1.968-7.352,2.952-11.028c0.554-1.104,1.646-0.985,1.574-2.656c1.207-0.773,4.573-0.757,5.222-2.072
	c-1.336-1.351-0.98-3.747-1.573-5.908c-0.742-2.695-1.514-5.27-2.561-7.78c-2.963-7.079-10.593-9.891-9.456-19.598
	c0.544-4.631,4.544-6.03,6.893-9.061c0.859-1.105,1.121-2.357,1.871-3.643c0.523-0.9,2.831-1.842,3.644-2.951
	c1.322-1.81,1.897-3.743,2.956-5.912c0.952-1.64,1.906-3.284,2.854-4.923c1.117-2.825,2.233-5.648,3.351-8.469
	c0.979-2.309,2.52-4.268,3.448-6.402c2.498-5.758,4.103-13.053,5.414-19.794C143.504,24.965,142.513,22.438,142.195,20.446z"/>
</svg>
