  0
SECTION
  2
HEADER
  9
$ACADVER
  1
AC1021
  9
$ACADMAINTVER
 70
    25
  9
$DWGCODEPAGE
  3
ANSI_1252
  9
$INSBASE
 10
0.0
 20
0.0
 30
0.0
  9
$EXTMIN
 10
1.000000000000000E+20
 20
1.000000000000000E+20
 30
1.000000000000000E+20
  9
$EXTMAX
 10
-1.000000000000000E+20
 20
-1.000000000000000E+20
 30
-1.000000000000000E+20
  9
$LIMMIN
 10
0.0
 20
0.0
  9
$LIMMAX
 10
12.0
 20
9.0
  9
$ORTHOMODE
 70
     0
  9
$REGENMODE
 70
     1
  9
$FILLMODE
 70
     1
  9
$QTEXTMODE
 70
     0
  9
$MIRRTEXT
 70
     1
  9
$LTSCALE
 40
1.0
  9
$ATTMODE
 70
     1
  9
$TEXTSIZE
 40
0.2
  9
$TRACEWID
 40
0.05
  9
$TEXTSTYLE
  7
Standard
  9
$CLAYER
  8
0
  9
$CELTYPE
  6
ByLayer
  9
$CECOLOR
 62
   256
  9
$CELTSCALE
 40
1.0
  9
$DISPSILH
 70
     0
  9
$DIMSCALE
 40
1.0
  9
$DIMASZ
 40
0.18
  9
$DIMEXO
 40
0.0625
  9
$DIMDLI
 40
0.38
  9
$DIMRND
 40
0.0
  9
$DIMDLE
 40
0.0
  9
$DIMEXE
 40
0.18
  9
$DIMTP
 40
0.0
  9
$DIMTM
 40
0.0
  9
$DIMTXT
 40
0.18
  9
$DIMCEN
 40
0.09
  9
$DIMTSZ
 40
0.0
  9
$DIMTOL
 70
     0
  9
$DIMLIM
 70
     0
  9
$DIMTIH
 70
     1
  9
$DIMTOH
 70
     1
  9
$DIMSE1
 70
     0
  9
$DIMSE2
 70
     0
  9
$DIMTAD
 70
     0
  9
$DIMZIN
 70
     0
  9
$DIMBLK
  1

  9
$DIMASO
 70
     1
  9
$DIMSHO
 70
     1
  9
$DIMPOST
  1

  9
$DIMAPOST
  1

  9
$DIMALT
 70
     0
  9
$DIMALTD
 70
     2
  9
$DIMALTF
 40
25.4
  9
$DIMLFAC
 40
1.0
  9
$DIMTOFL
 70
     0
  9
$DIMTVP
 40
0.0
  9
$DIMTIX
 70
     0
  9
$DIMSOXD
 70
     0
  9
$DIMSAH
 70
     0
  9
$DIMBLK1
  1

  9
$DIMBLK2
  1

  9
$DIMSTYLE
  2
Standard
  9
$DIMCLRD
 70
     0
  9
$DIMCLRE
 70
     0
  9
$DIMCLRT
 70
     0
  9
$DIMTFAC
 40
1.0
  9
$DIMGAP
 40
0.09
  9
$DIMJUST
 70
     0
  9
$DIMSD1
 70
     0
  9
$DIMSD2
 70
     0
  9
$DIMTOLJ
 70
     1
  9
$DIMTZIN
 70
     0
  9
$DIMALTZ
 70
     0
  9
$DIMALTTZ
 70
     0
  9
$DIMUPT
 70
     0
  9
$DIMDEC
 70
     4
  9
$DIMTDEC
 70
     4
  9
$DIMALTU
 70
     2
  9
$DIMALTTD
 70
     2
  9
$DIMTXSTY
  7
Standard
  9
$DIMAUNIT
 70
     0
  9
$DIMADEC
 70
     0
  9
$DIMALTRND
 40
0.0
  9
$DIMAZIN
 70
     0
  9
$DIMDSEP
 70
    46
  9
$DIMATFIT
 70
     3
  9
$DIMFRAC
 70
     0
  9
$DIMLDRBLK
  1

  9
$DIMLUNIT
 70
     2
  9
$DIMLWD
 70
    -2
  9
$DIMLWE
 70
    -2
  9
$DIMTMOVE
 70
     0
  9
$DIMFXL
 40
1.0
  9
$DIMFXLON
 70
     0
  9
$DIMJOGANG
 40
0.7853981633974483
  9
$DIMTFILL
 70
     0
  9
$DIMTFILLCLR
 70
     0
  9
$DIMARCSYM
 70
     0
  9
$DIMLTYPE
  6

  9
$DIMLTEX1
  6

  9
$DIMLTEX2
  6

  9
$LUNITS
 70
     2
  9
$LUPREC
 70
     4
  9
$SKETCHINC
 40
0.1
  9
$FILLETRAD
 40
0.5
  9
$AUNITS
 70
     0
  9
$AUPREC
 70
     0
  9
$MENU
  1
.
  9
$ELEVATION
 40
0.0
  9
$PELEVATION
 40
0.0
  9
$THICKNESS
 40
0.0
  9
$LIMCHECK
 70
     0
  9
$CHAMFERA
 40
0.5
  9
$CHAMFERB
 40
0.5
  9
$CHAMFERC
 40
1.0
  9
$CHAMFERD
 40
0.0
  9
$SKPOLY
 70
     0
  9
$TDCREATE
 40
2458551.626031412
  9
$TDUCREATE
 40
2458551.334364745
  9
$TDUPDATE
 40
2458551.626031412
  9
$TDUUPDATE
 40
2458551.334364745
  9
$TDINDWG
 40
0.0000000116
  9
$TDUSRTIMER
 40
0.0000000116
  9
$USRTIMER
 70
     1
  9
$ANGBASE
 50
0.0
  9
$ANGDIR
 70
     0
  9
$PDMODE
 70
     0
  9
$PDSIZE
 40
0.0
  9
$PLINEWID
 40
0.0
  9
$SPLFRAME
 70
     0
  9
$SPLINETYPE
 70
     6
  9
$SPLINESEGS
 70
     8
  9
$HANDSEED
  5
65
  9
$SURFTAB1
 70
     6
  9
$SURFTAB2
 70
     6
  9
$SURFTYPE
 70
     6
  9
$SURFU
 70
     6
  9
$SURFV
 70
     6
  9
$UCSBASE
  2

  9
$UCSNAME
  2

  9
$UCSORG
 10
0.0
 20
0.0
 30
0.0
  9
$UCSXDIR
 10
1.0
 20
0.0
 30
0.0
  9
$UCSYDIR
 10
0.0
 20
1.0
 30
0.0
  9
$UCSORTHOREF
  2

  9
$UCSORTHOVIEW
 70
     0
  9
$UCSORGTOP
 10
0.0
 20
0.0
 30
0.0
  9
$UCSORGBOTTOM
 10
0.0
 20
0.0
 30
0.0
  9
$UCSORGLEFT
 10
0.0
 20
0.0
 30
0.0
  9
$UCSORGRIGHT
 10
0.0
 20
0.0
 30
0.0
  9
$UCSORGFRONT
 10
0.0
 20
0.0
 30
0.0
  9
$UCSORGBACK
 10
0.0
 20
0.0
 30
0.0
  9
$PUCSBASE
  2

  9
$PUCSNAME
  2

  9
$PUCSORG
 10
0.0
 20
0.0
 30
0.0
  9
$PUCSXDIR
 10
1.0
 20
0.0
 30
0.0
  9
$PUCSYDIR
 10
0.0
 20
1.0
 30
0.0
  9
$PUCSORTHOREF
  2

  9
$PUCSORTHOVIEW
 70
     0
  9
$PUCSORGTOP
 10
0.0
 20
0.0
 30
0.0
  9
$PUCSORGBOTTOM
 10
0.0
 20
0.0
 30
0.0
  9
$PUCSORGLEFT
 10
0.0
 20
0.0
 30
0.0
  9
$PUCSORGRIGHT
 10
0.0
 20
0.0
 30
0.0
  9
$PUCSORGFRONT
 10
0.0
 20
0.0
 30
0.0
  9
$PUCSORGBACK
 10
0.0
 20
0.0
 30
0.0
  9
$USERI1
 70
     0
  9
$USERI2
 70
     0
  9
$USERI3
 70
     0
  9
$USERI4
 70
     0
  9
$USERI5
 70
     0
  9
$USERR1
 40
0.0
  9
$USERR2
 40
0.0
  9
$USERR3
 40
0.0
  9
$USERR4
 40
0.0
  9
$USERR5
 40
0.0
  9
$WORLDVIEW
 70
     1
  9
$SHADEDGE
 70
     3
  9
$SHADEDIF
 70
    70
  9
$TILEMODE
 70
     1
  9
$MAXACTVP
 70
    64
  9
$PINSBASE
 10
0.0
 20
0.0
 30
0.0
  9
$PLIMCHECK
 70
     0
  9
$PEXTMIN
 10
1.000000000000000E+20
 20
1.000000000000000E+20
 30
1.000000000000000E+20
  9
$PEXTMAX
 10
-1.000000000000000E+20
 20
-1.000000000000000E+20
 30
-1.000000000000000E+20
  9
$PLIMMIN
 10
0.0
 20
0.0
  9
$PLIMMAX
 10
12.0
 20
9.0
  9
$UNITMODE
 70
     0
  9
$VISRETAIN
 70
     1
  9
$PLINEGEN
 70
     0
  9
$PSLTSCALE
 70
     1
  9
$TREEDEPTH
 70
  3020
  9
$CMLSTYLE
  2
Standard
  9
$CMLJUST
 70
     0
  9
$CMLSCALE
 40
1.0
  9
$PROXYGRAPHICS
 70
     1
  9
$MEASUREMENT
 70
     0
  9
$CELWEIGHT
370
    -1
  9
$ENDCAPS
280
     0
  9
$JOINSTYLE
280
     0
  9
$LWDISPLAY
290
     1
  9
$INSUNITS
 70
     1
  9
$HYPERLINKBASE
  1

  9
$STYLESHEET
  1

  9
$XEDIT
290
     1
  9
$CEPSNTYPE
380
     0
  9
$PSTYLEMODE
290
     1
  9
$FINGERPRINTGUID
  2
{73AC05DC-2189-4B22-95F7-906B73A77C81}
  9
$VERSIONGUID
  2
{FAEB1C32-E019-11D5-929B-00C0DF256EC4}
  9
$EXTNAMES
290
     1
  9
$PSVPSCALE
 40
0.0
  9
$OLESTARTUP
290
     0
  9
$SORTENTS
280
   127
  9
$INDEXCTL
280
     0
  9
$HIDETEXT
280
     1
  9
$XCLIPFRAME
290
     0
  9
$HALOGAP
280
     0
  9
$OBSCOLOR
 70
   257
  9
$OBSLTYPE
280
     0
  9
$INTERSECTIONDISPLAY
280
     0
  9
$INTERSECTIONCOLOR
 70
   257
  9
$DIMASSOC
280
     2
  9
$PROJECTNAME
  1

  9
$CAMERADISPLAY
290
     0
  9
$LENSLENGTH
 40
50.0
  9
$CAMERAHEIGHT
 40
0.0
  9
$STEPSPERSEC
 40
2.0
  9
$STEPSIZE
 40
6.0
  9
$3DDWFPREC
 40
2.0
  9
$PSOLWIDTH
 40
0.25
  9
$PSOLHEIGHT
 40
4.0
  9
$LOFTANG1
 40
1.570796326794897
  9
$LOFTANG2
 40
1.570796326794897
  9
$LOFTMAG1
 40
0.0
  9
$LOFTMAG2
 40
0.0
  9
$LOFTPARAM
 70
     7
  9
$LOFTNORMALS
280
     1
  9
$LATITUDE
 40
37.795
  9
$LONGITUDE
 40
-122.394
  9
$NORTHDIRECTION
 40
0.0
  9
$TIMEZONE
 70
 -8000
  9
$LIGHTGLYPHDISPLAY
280
     1
  9
$TILEMODELIGHTSYNCH
280
     1
  9
$CMATERIAL
347
3C
  9
$SOLIDHIST
280
     1
  9
$SHOWHIST
280
     1
  9
$DWFFRAME
280
     2
  9
$DGNFRAME
280
     2
  9
$REALWORLDSCALE
290
     1
  9
$INTERFERECOLOR
 62
   256
  9
$CSHADOW
280
     0
  9
$SHADOWPLANELOCATION
 40
0.0
  0
ENDSEC
  0
SECTION
  2
CLASSES
  0
CLASS
  1
ACDBDICTIONARYWDFLT
  2
AcDbDictionaryWithDefault
  3
ObjectDBX Classes
 90
        0
 91
        4
280
     0
281
     0
  0
CLASS
  1
VISUALSTYLE
  2
AcDbVisualStyle
  3
ObjectDBX Classes
 90
     4095
 91
        4
280
     0
281
     0
  0
CLASS
  1
MATERIAL
  2
AcDbMaterial
  3
ObjectDBX Classes
 90
     1153
 91
        4
280
     0
281
     0
  0
CLASS
  1
SUN
  2
AcDbSun
  3
SCENEOE
 90
     1024
 91
        4
280
     0
281
     0
  0
ENDSEC
  0
SECTION
  2
TABLES
  0
TABLE
  2
VPORT
  5
8
330
0
100
AcDbSymbolTable
 70
     1
  0
VPORT
  5
29
330
8
100
AcDbSymbolTableRecord
100
AcDbViewportTableRecord
  2
*Active
 70
     0
 10
0.0
 20
0.0
 11
1.0
 21
1.0
 12
0.0
 22
0.0
 13
0.0
 23
0.0
 14
0.5
 24
0.5
 15
0.5
 25
0.5
 16
0.0
 26
0.0
 36
1.0
 17
39.99961911841359
 27
-39.99962012888904
 37
0.0
 40
79.99924025777808
 41
0.9999999747378738
 42
50.0
 43
0.0
 44
0.0
 50
0.0
 51
0.0
 71
     0
 72
   100
 73
     1
 74
     3
 75
     0
 76
     0
 77
     0
 78
     0
281
     0
 65
     1
110
0.0
120
0.0
130
0.0
111
1.0
121
0.0
131
0.0
112
0.0
122
1.0
132
0.0
 79
     0
146
0.0
 60
     3
 61
     5
292
     1
282
     1
141
0.0
142
0.0
 63
   250
361
3F
  0
ENDTAB
  0
TABLE
  2
LTYPE
  5
5
330
0
100
AcDbSymbolTable
 70
     1
  0
LTYPE
  5
14
330
5
100
AcDbSymbolTableRecord
100
AcDbLinetypeTableRecord
  2
ByBlock
 70
     0
  3

 72
    65
 73
     0
 40
0.0
  0
LTYPE
  5
15
330
5
100
AcDbSymbolTableRecord
100
AcDbLinetypeTableRecord
  2
ByLayer
 70
     0
  3

 72
    65
 73
     0
 40
0.0
  0
LTYPE
  5
16
330
5
100
AcDbSymbolTableRecord
100
AcDbLinetypeTableRecord
  2
Continuous
 70
     0
  3
Solid line
 72
    65
 73
     0
 40
0.0
  0
ENDTAB
  0
TABLE
  2
LAYER
  5
2
330
0
100
AcDbSymbolTable
 70
     2
  0
LAYER
  5
10
330
2
100
AcDbSymbolTableRecord
100
AcDbLayerTableRecord
  2
0
 70
     0
 62
     7
  6
Continuous
370
    -3
390
F
347
3E
  0
LAYER
  5
40
330
2
100
AcDbSymbolTableRecord
100
AcDbLayerTableRecord
  2
Layer 1
 70
     0
 62
     7
  6
Continuous
370
    -3
390
F
347
3E
  0
ENDTAB
  0
TABLE
  2
STYLE
  5
3
330
0
100
AcDbSymbolTable
 70
     1
  0
STYLE
  5
11
330
3
100
AcDbSymbolTableRecord
100
AcDbTextStyleTableRecord
  2
Standard
 70
     0
 40
0.0
 41
1.0
 50
0.0
 71
     0
 42
0.2
  3
txt
  4

  0
ENDTAB
  0
TABLE
  2
VIEW
  5
6
330
0
100
AcDbSymbolTable
 70
     0
  0
ENDTAB
  0
TABLE
  2
UCS
  5
7
330
0
100
AcDbSymbolTable
 70
     0
  0
ENDTAB
  0
TABLE
  2
APPID
  5
9
330
0
100
AcDbSymbolTable
 70
     1
  0
APPID
  5
12
330
9
100
AcDbSymbolTableRecord
100
AcDbRegAppTableRecord
  2
ACAD
 70
     0
  0
ENDTAB
  0
TABLE
  2
DIMSTYLE
  5
A
330
0
100
AcDbSymbolTable
 70
     1
100
AcDbDimStyleTable
  0
DIMSTYLE
105
27
330
A
100
AcDbSymbolTableRecord
100
AcDbDimStyleTableRecord
  2
Standard
 70
     0
178
     0
340
11
  0
ENDTAB
  0
TABLE
  2
BLOCK_RECORD
  5
1
330
0
100
AcDbSymbolTable
 70
     1
  0
BLOCK_RECORD
  5
1F
330
1
100
AcDbSymbolTableRecord
100
AcDbBlockTableRecord
  2
*Model_Space
340
22
 70
     0
280
     1
281
     0
  0
BLOCK_RECORD
  5
1B
330
1
100
AcDbSymbolTableRecord
100
AcDbBlockTableRecord
  2
*Paper_Space
340
1E
 70
     0
280
     1
281
     0
  0
BLOCK_RECORD
  5
23
330
1
100
AcDbSymbolTableRecord
100
AcDbBlockTableRecord
  2
*Paper_Space0
340
26
 70
     0
280
     1
281
     0
  0
ENDTAB
  0
ENDSEC
  0
SECTION
  2
BLOCKS
  0
BLOCK
  5
20
330
1F
100
AcDbEntity
  8
0
100
AcDbBlockBegin
  2
*Model_Space
 70
     0
 10
0.0
 20
0.0
 30
0.0
  3
*Model_Space
  1

  0
ENDBLK
  5
21
330
1F
100
AcDbEntity
  8
0
100
AcDbBlockEnd
  0
BLOCK
  5
1C
330
1B
100
AcDbEntity
 67
     1
  8
0
100
AcDbBlockBegin
  2
*Paper_Space
 70
     0
 10
0.0
 20
0.0
 30
0.0
  3
*Paper_Space
  1

  0
ENDBLK
  5
1D
330
1B
100
AcDbEntity
 67
     1
  8
0
100
AcDbBlockEnd
  0
BLOCK
  5
24
330
23
100
AcDbEntity
  8
0
100
AcDbBlockBegin
  2
*Paper_Space0
 70
     0
 10
0.0
 20
0.0
 30
0.0
  3
*Paper_Space0
  1

  0
ENDBLK
  5
25
330
23
100
AcDbEntity
  8
0
100
AcDbBlockEnd
  0
ENDSEC
  0
SECTION
  2
ENTITIES
  0
SPLINE
  5
41
330
1F
100
AcDbEntity
  8
Layer 1
370
     0
100
AcDbSpline
210
0.0
220
0.0
230
1.0
 70
    11
 71
     3
 72
   806
 73
   802
 74
     0
 42
0.0000000001
 43
0.0000000001
 12
1.0
 22
0.0
 32
0.0
 13
1.0
 23
0.0
 33
0.0
 40
0.0
 40
0.0
 40
0.0
 40
0.0
 40
1.0
 40
1.0
 40
1.0
 40
2.0
 40
2.0
 40
2.0
 40
3.0
 40
3.0
 40
3.0
 40
4.0
 40
4.0
 40
4.0
 40
5.0
 40
5.0
 40
5.0
 40
6.0
 40
6.0
 40
6.0
 40
7.0
 40
7.0
 40
7.0
 40
8.0
 40
8.0
 40
8.0
 40
9.0
 40
9.0
 40
9.0
 40
10.0
 40
10.0
 40
10.0
 40
11.0
 40
11.0
 40
11.0
 40
12.0
 40
12.0
 40
12.0
 40
13.0
 40
13.0
 40
13.0
 40
14.0
 40
14.0
 40
14.0
 40
15.0
 40
15.0
 40
15.0
 40
16.0
 40
16.0
 40
16.0
 40
17.0
 40
17.0
 40
17.0
 40
18.0
 40
18.0
 40
18.0
 40
19.0
 40
19.0
 40
19.0
 40
20.0
 40
20.0
 40
20.0
 40
21.0
 40
21.0
 40
21.0
 40
22.0
 40
22.0
 40
22.0
 40
23.0
 40
23.0
 40
23.0
 40
24.0
 40
24.0
 40
24.0
 40
25.0
 40
25.0
 40
25.0
 40
26.0
 40
26.0
 40
26.0
 40
27.0
 40
27.0
 40
27.0
 40
28.0
 40
28.0
 40
28.0
 40
29.0
 40
29.0
 40
29.0
 40
30.0
 40
30.0
 40
30.0
 40
31.0
 40
31.0
 40
31.0
 40
32.0
 40
32.0
 40
32.0
 40
33.0
 40
33.0
 40
33.0
 40
34.0
 40
34.0
 40
34.0
 40
35.0
 40
35.0
 40
35.0
 40
36.0
 40
36.0
 40
36.0
 40
37.0
 40
37.0
 40
37.0
 40
38.0
 40
38.0
 40
38.0
 40
39.0
 40
39.0
 40
39.0
 40
40.0
 40
40.0
 40
40.0
 40
41.0
 40
41.0
 40
41.0
 40
42.0
 40
42.0
 40
42.0
 40
43.0
 40
43.0
 40
43.0
 40
44.0
 40
44.0
 40
44.0
 40
45.0
 40
45.0
 40
45.0
 40
46.0
 40
46.0
 40
46.0
 40
47.0
 40
47.0
 40
47.0
 40
48.0
 40
48.0
 40
48.0
 40
49.0
 40
49.0
 40
49.0
 40
50.0
 40
50.0
 40
50.0
 40
51.0
 40
51.0
 40
51.0
 40
52.0
 40
52.0
 40
52.0
 40
53.0
 40
53.0
 40
53.0
 40
54.0
 40
54.0
 40
54.0
 40
55.0
 40
55.0
 40
55.0
 40
56.0
 40
56.0
 40
56.0
 40
57.0
 40
57.0
 40
57.0
 40
58.0
 40
58.0
 40
58.0
 40
59.0
 40
59.0
 40
59.0
 40
60.0
 40
60.0
 40
60.0
 40
61.0
 40
61.0
 40
61.0
 40
62.0
 40
62.0
 40
62.0
 40
63.0
 40
63.0
 40
63.0
 40
64.0
 40
64.0
 40
64.0
 40
65.0
 40
65.0
 40
65.0
 40
66.0
 40
66.0
 40
66.0
 40
67.0
 40
67.0
 40
67.0
 40
68.0
 40
68.0
 40
68.0
 40
69.0
 40
69.0
 40
69.0
 40
70.0
 40
70.0
 40
70.0
 40
71.0
 40
71.0
 40
71.0
 40
72.0
 40
72.0
 40
72.0
 40
73.0
 40
73.0
 40
73.0
 40
74.0
 40
74.0
 40
74.0
 40
75.0
 40
75.0
 40
75.0
 40
76.0
 40
76.0
 40
76.0
 40
77.0
 40
77.0
 40
77.0
 40
78.0
 40
78.0
 40
78.0
 40
79.0
 40
79.0
 40
79.0
 40
80.0
 40
80.0
 40
80.0
 40
81.0
 40
81.0
 40
81.0
 40
82.0
 40
82.0
 40
82.0
 40
83.0
 40
83.0
 40
83.0
 40
84.0
 40
84.0
 40
84.0
 40
85.0
 40
85.0
 40
85.0
 40
86.0
 40
86.0
 40
86.0
 40
87.0
 40
87.0
 40
87.0
 40
88.0
 40
88.0
 40
88.0
 40
89.0
 40
89.0
 40
89.0
 40
90.0
 40
90.0
 40
90.0
 40
91.0
 40
91.0
 40
91.0
 40
92.0
 40
92.0
 40
92.0
 40
93.0
 40
93.0
 40
93.0
 40
94.0
 40
94.0
 40
94.0
 40
95.0
 40
95.0
 40
95.0
 40
96.0
 40
96.0
 40
96.0
 40
97.0
 40
97.0
 40
97.0
 40
98.0
 40
98.0
 40
98.0
 40
99.0
 40
99.0
 40
99.0
 40
100.0
 40
100.0
 40
100.0
 40
101.0
 40
101.0
 40
101.0
 40
102.0
 40
102.0
 40
102.0
 40
103.0
 40
103.0
 40
103.0
 40
104.0
 40
104.0
 40
104.0
 40
105.0
 40
105.0
 40
105.0
 40
106.0
 40
106.0
 40
106.0
 40
107.0
 40
107.0
 40
107.0
 40
108.0
 40
108.0
 40
108.0
 40
109.0
 40
109.0
 40
109.0
 40
110.0
 40
110.0
 40
110.0
 40
111.0
 40
111.0
 40
111.0
 40
112.0
 40
112.0
 40
112.0
 40
113.0
 40
113.0
 40
113.0
 40
114.0
 40
114.0
 40
114.0
 40
115.0
 40
115.0
 40
115.0
 40
116.0
 40
116.0
 40
116.0
 40
117.0
 40
117.0
 40
117.0
 40
118.0
 40
118.0
 40
118.0
 40
119.0
 40
119.0
 40
119.0
 40
120.0
 40
120.0
 40
120.0
 40
121.0
 40
121.0
 40
121.0
 40
122.0
 40
122.0
 40
122.0
 40
123.0
 40
123.0
 40
123.0
 40
124.0
 40
124.0
 40
124.0
 40
125.0
 40
125.0
 40
125.0
 40
126.0
 40
126.0
 40
126.0
 40
127.0
 40
127.0
 40
127.0
 40
128.0
 40
128.0
 40
128.0
 40
129.0
 40
129.0
 40
129.0
 40
130.0
 40
130.0
 40
130.0
 40
131.0
 40
131.0
 40
131.0
 40
132.0
 40
132.0
 40
132.0
 40
133.0
 40
133.0
 40
133.0
 40
134.0
 40
134.0
 40
134.0
 40
135.0
 40
135.0
 40
135.0
 40
136.0
 40
136.0
 40
136.0
 40
137.0
 40
137.0
 40
137.0
 40
138.0
 40
138.0
 40
138.0
 40
139.0
 40
139.0
 40
139.0
 40
140.0
 40
140.0
 40
140.0
 40
141.0
 40
141.0
 40
141.0
 40
142.0
 40
142.0
 40
142.0
 40
143.0
 40
143.0
 40
143.0
 40
144.0
 40
144.0
 40
144.0
 40
145.0
 40
145.0
 40
145.0
 40
146.0
 40
146.0
 40
146.0
 40
147.0
 40
147.0
 40
147.0
 40
148.0
 40
148.0
 40
148.0
 40
149.0
 40
149.0
 40
149.0
 40
150.0
 40
150.0
 40
150.0
 40
151.0
 40
151.0
 40
151.0
 40
152.0
 40
152.0
 40
152.0
 40
153.0
 40
153.0
 40
153.0
 40
154.0
 40
154.0
 40
154.0
 40
155.0
 40
155.0
 40
155.0
 40
156.0
 40
156.0
 40
156.0
 40
157.0
 40
157.0
 40
157.0
 40
158.0
 40
158.0
 40
158.0
 40
159.0
 40
159.0
 40
159.0
 40
160.0
 40
160.0
 40
160.0
 40
161.0
 40
161.0
 40
161.0
 40
162.0
 40
162.0
 40
162.0
 40
163.0
 40
163.0
 40
163.0
 40
164.0
 40
164.0
 40
164.0
 40
165.0
 40
165.0
 40
165.0
 40
166.0
 40
166.0
 40
166.0
 40
167.0
 40
167.0
 40
167.0
 40
168.0
 40
168.0
 40
168.0
 40
169.0
 40
169.0
 40
169.0
 40
170.0
 40
170.0
 40
170.0
 40
171.0
 40
171.0
 40
171.0
 40
172.0
 40
172.0
 40
172.0
 40
173.0
 40
173.0
 40
173.0
 40
174.0
 40
174.0
 40
174.0
 40
175.0
 40
175.0
 40
175.0
 40
176.0
 40
176.0
 40
176.0
 40
177.0
 40
177.0
 40
177.0
 40
178.0
 40
178.0
 40
178.0
 40
179.0
 40
179.0
 40
179.0
 40
180.0
 40
180.0
 40
180.0
 40
181.0
 40
181.0
 40
181.0
 40
182.0
 40
182.0
 40
182.0
 40
183.0
 40
183.0
 40
183.0
 40
184.0
 40
184.0
 40
184.0
 40
185.0
 40
185.0
 40
185.0
 40
186.0
 40
186.0
 40
186.0
 40
187.0
 40
187.0
 40
187.0
 40
188.0
 40
188.0
 40
188.0
 40
189.0
 40
189.0
 40
189.0
 40
190.0
 40
190.0
 40
190.0
 40
191.0
 40
191.0
 40
191.0
 40
192.0
 40
192.0
 40
192.0
 40
193.0
 40
193.0
 40
193.0
 40
194.0
 40
194.0
 40
194.0
 40
195.0
 40
195.0
 40
195.0
 40
196.0
 40
196.0
 40
196.0
 40
197.0
 40
197.0
 40
197.0
 40
198.0
 40
198.0
 40
198.0
 40
199.0
 40
199.0
 40
199.0
 40
200.0
 40
200.0
 40
200.0
 40
201.0
 40
201.0
 40
201.0
 40
202.0
 40
202.0
 40
202.0
 40
203.0
 40
203.0
 40
203.0
 40
204.0
 40
204.0
 40
204.0
 40
205.0
 40
205.0
 40
205.0
 40
206.0
 40
206.0
 40
206.0
 40
207.0
 40
207.0
 40
207.0
 40
208.0
 40
208.0
 40
208.0
 40
209.0
 40
209.0
 40
209.0
 40
210.0
 40
210.0
 40
210.0
 40
211.0
 40
211.0
 40
211.0
 40
212.0
 40
212.0
 40
212.0
 40
213.0
 40
213.0
 40
213.0
 40
214.0
 40
214.0
 40
214.0
 40
215.0
 40
215.0
 40
215.0
 40
216.0
 40
216.0
 40
216.0
 40
217.0
 40
217.0
 40
217.0
 40
218.0
 40
218.0
 40
218.0
 40
219.0
 40
219.0
 40
219.0
 40
220.0
 40
220.0
 40
220.0
 40
221.0
 40
221.0
 40
221.0
 40
222.0
 40
222.0
 40
222.0
 40
223.0
 40
223.0
 40
223.0
 40
224.0
 40
224.0
 40
224.0
 40
225.0
 40
225.0
 40
225.0
 40
226.0
 40
226.0
 40
226.0
 40
227.0
 40
227.0
 40
227.0
 40
228.0
 40
228.0
 40
228.0
 40
229.0
 40
229.0
 40
229.0
 40
230.0
 40
230.0
 40
230.0
 40
231.0
 40
231.0
 40
231.0
 40
232.0
 40
232.0
 40
232.0
 40
233.0
 40
233.0
 40
233.0
 40
234.0
 40
234.0
 40
234.0
 40
235.0
 40
235.0
 40
235.0
 40
236.0
 40
236.0
 40
236.0
 40
237.0
 40
237.0
 40
237.0
 40
238.0
 40
238.0
 40
238.0
 40
239.0
 40
239.0
 40
239.0
 40
240.0
 40
240.0
 40
240.0
 40
241.0
 40
241.0
 40
241.0
 40
242.0
 40
242.0
 40
242.0
 40
243.0
 40
243.0
 40
243.0
 40
244.0
 40
244.0
 40
244.0
 40
245.0
 40
245.0
 40
245.0
 40
246.0
 40
246.0
 40
246.0
 40
247.0
 40
247.0
 40
247.0
 40
248.0
 40
248.0
 40
248.0
 40
249.0
 40
249.0
 40
249.0
 40
250.0
 40
250.0
 40
250.0
 40
251.0
 40
251.0
 40
251.0
 40
252.0
 40
252.0
 40
252.0
 40
253.0
 40
253.0
 40
253.0
 40
254.0
 40
254.0
 40
254.0
 40
255.0
 40
255.0
 40
255.0
 40
256.0
 40
256.0
 40
256.0
 40
257.0
 40
257.0
 40
257.0
 40
258.0
 40
258.0
 40
258.0
 40
259.0
 40
259.0
 40
259.0
 40
260.0
 40
260.0
 40
260.0
 40
261.0
 40
261.0
 40
261.0
 40
262.0
 40
262.0
 40
262.0
 40
263.0
 40
263.0
 40
263.0
 40
264.0
 40
264.0
 40
264.0
 40
265.0
 40
265.0
 40
265.0
 40
266.0
 40
266.0
 40
266.0
 40
267.0
 40
267.0
 40
267.0
 40
267.0
 10
15.94372110712526
 20
-31.12678276999611
 30
0.0
 10
16.14543944040806
 20
-31.03601304779651
 30
0.0
 10
16.32062888480885
 20
-30.90802527005077
 30
0.0
 10
16.46480916255056
 20
-30.74077332564801
 30
0.0
 10
16.79603221802335
 20
-30.35543415907791
 30
0.0
 10
17.21082832903075
 20
-30.05828943692988
 30
0.0
 10
17.56085444005425
 20
-29.69291749257665
 30
0.0
 10
17.68901860668887
 20
-29.55875610372138
 30
0.0
 10
17.82561416221032
 20
-29.43126221486444
 30
0.0
 10
17.91948832885345
 20
-29.26813777046065
 30
0.0
 10
17.97032360661867
 20
-29.17962582603834
 30
0.0
 10
18.05230916215369
 20
-29.13672804827146
 30
0.0
 10
18.14360805101962
 20
-29.09778138161436
 30
0.0
 10
18.84655305084405
 20
-28.79894332613353
 30
0.0
 10
19.52543860622984
 20
-28.45477332621966
 30
0.0
 10
20.14329360607542
 20
-28.00053665966668
 30
0.0
 10
20.50623138376248
 20
-27.73404832639996
 30
0.0
 10
20.91809943921491
 20
-27.58556415977039
 30
0.0
 10
21.35064027244006
 20
-27.47465082646471
 30
0.0
 10
22.87682749428089
 20
-27.08345554878467
 30
0.0
 10
24.39281943834639
 20
-26.65486582666961
 30
0.0
 10
25.89522943797066
 20
-26.18119110456576
 30
0.0
 10
27.15750360432165
 20
-25.78308138244313
 30
0.0
 10
28.44133249288977
 20
-25.55141221583422
 30
0.0
 10
29.76855304811357
 20
-25.58637249360339
 30
0.0
 10
30.07377638137034
 20
-25.59430999360142
 30
0.0
 10
30.36076110352089
 20
-25.48508999362886
 30
0.0
 10
30.64876888122656
 20
-25.40052916031664
 30
0.0
 10
31.65062249208751
 20
-25.10578332705695
 30
0.0
 10
32.63416693628591
 20
-24.75730943825522
 30
0.0
 10
33.6194752693728
 20
-24.41264554945255
 30
0.0
 10
33.89009110263849
 20
-24.31788943836501
 30
0.0
 10
34.12624054702413
 20
-24.18679721617542
 30
0.0
 10
34.3636247136313
 20
-24.03125749399222
 30
0.0
 10
35.01181860235826
 20
-23.60700693854254
 30
0.0
 10
35.75286269897959
 20
-23.44836277191581
 30
0.0
 10
36.50734851306439
 20
-23.35395943860603
 30
0.0
 10
37.12950832405089
 20
-23.27627777195855
 30
0.0
 10
37.75360653682525
 20
-23.20805054975367
 30
0.0
 10
38.38197429857203
 20
-23.19753777197844
 30
0.0
 10
38.44829651910224
 20
-23.19633832753411
 30
0.0
 10
38.50996207308457
 20
-23.18670749420328
 30
0.0
 10
38.55285984976793
 20
-23.12864027199555
 30
0.0
 10
38.87826206368846
 20
-22.69010221654974
 30
0.0
 10
39.03740011518406
 20
-22.12837416113452
 30
0.0
 10
38.73200040075324
 20
-21.58266221682641
 30
0.0
 10
38.52495512825762
 20
-21.21284527247461
 30
0.0
 10
38.23264443488636
 20
-21.12327499471933
 30
0.0
 10
37.86212097850127
 20
-21.32478166133541
 30
0.0
 10
37.772727091893
 20
-21.37353555021222
 30
0.0
 10
37.68985959400713
 20
-21.43573027241893
 30
0.0
 10
37.60889709607265
 20
-21.49792499462563
 30
0.0
 10
37.2435604387265
 20
-21.77714860566671
 30
0.0
 10
36.8351496158126
 20
-21.88876749452791
 30
0.0
 10
36.3803837940813
 20
-21.81556610565717
 30
0.0
 10
36.29285962964757
 20
-21.80141971677175
 30
0.0
 10
36.21863610205659
 20
-21.80487693899337
 30
0.0
 10
36.14472824453782
 20
-21.85758193897995
 30
0.0
 10
35.86638658497225
 20
-22.05531388337514
 30
0.0
 10
35.55234381520637
 20
-22.12438777224659
 30
0.0
 10
35.21575943564051
 20
-22.10096332780811
 30
0.0
 10
34.77979665797159
 20
-22.07083610559344
 30
0.0
 10
34.3427755469697
 20
-22.01675527227365
 30
0.0
 10
33.93693999151577
 20
-21.85638249453595
 30
0.0
 10
33.15888860282138
 20
-21.54872499461269
 30
0.0
 10
32.80247721402163
 20
-20.8969327725534
 30
0.0
 10
32.62245471406666
 20
-20.12674832830168
 30
0.0
 10
32.55323971408386
 20
-19.83048555059806
 30
0.0
 10
32.55510943630554
 20
-19.52836666178449
 30
0.0
 10
32.62746415850972
 20
-19.23104555074791
 30
0.0
 10
32.70913221404481
 20
-18.89685916194231
 30
0.0
 10
32.89790360288653
 20
-18.63400443978609
 30
0.0
 10
33.20157471392186
 20
-18.47260860649295
 30
0.0
 10
33.3290686027788
 20
-18.40508693984327
 30
0.0
 10
33.385230824987
 20
-18.31706888430976
 30
0.0
 10
33.42258999164449
 20
-18.18562388434241
 30
0.0
 10
33.67080443602682
 20
-17.31246360678304
 30
0.0
 10
34.00068693594424
 20
-16.47426360699252
 30
0.0
 10
34.50745221359526
 20
-15.71462721829356
 30
0.0
 10
34.82061304685038
 20
-15.2453974961886
 30
0.0
 10
35.21833471341773
 20
-14.85783582961873
 30
0.0
 10
35.67705075646927
 20
-14.53313916303325
 30
0.0
 10
35.90737936170421
 20
-14.3705438852961
 30
0.0
 10
36.14472824453782
 20
-14.21789694089004
 30
0.0
 10
36.3803837940813
 20
-14.06270999648428
 30
0.0
 10
36.82033294952394
 20
-13.77314999655684
 30
0.0
 10
37.27333488241134
 20
-13.76764666322466
 30
0.0
 10
37.72016320434513
 20
-14.03547555204674
 30
0.0
 10
37.88572181123249
 20
-14.1347119409107
 30
0.0
 10
38.03695764070748
 20
-14.16572110756977
 30
0.0
 10
38.22625819143357
 20
-14.12282332980257
 30
0.0
 10
39.07874566968481
 20
-13.93108860762837
 30
0.0
 10
39.85958398309729
 20
-14.12677444091267
 30
0.0
 10
40.50604924438237
 20
-14.69195971854917
 30
0.0
 10
40.99662200964459
 20
-15.12121971844191
 30
0.0
 10
41.49686088577133
 20
-15.16962082954096
 30
0.0
 10
42.07047753780381
 20
-14.96257555181486
 30
0.0
 10
42.19691309013373
 20
-14.91727888515966
 30
0.0
 10
42.32370142023242
 20
-14.86852499628285
 30
0.0
 10
42.45461725022582
 20
-14.84181971851163
 30
0.0
 10
42.69884529955059
 20
-14.79168999630193
 30
0.0
 10
42.88662890587094
 20
-14.92242944071376
 30
0.0
 10
42.89280251682455
 20
-15.17064388509609
 30
0.0
 10
42.90211584992029
 20
-15.51707166278725
 30
0.0
 10
43.03476029098069
 20
-15.76147610717084
 30
0.0
 10
43.36824111580621
 20
-15.88240832936264
 30
0.0
 10
43.4047536148747
 20
-15.89602555158141
 30
0.0
 10
43.45093332247048
 20
-15.92029666268645
 30
0.0
 10
43.44818055821123
 20
-15.95769110712179
 30
0.0
 10
43.43092972531801
 20
-16.17591944040049
 30
0.0
 10
43.55598944434969
 20
-16.30253138481334
 30
0.0
 10
43.71308138478638
 20
-16.42293444033881
 30
0.0
 10
43.77545249430628
 20
-16.47084166254907
 30
0.0
 10
43.74719499502719
 20
-16.56884332919117
 30
0.0
 10
43.74373887795281
 20
-16.64412610695
 30
0.0
 10
43.73788166193145
 20
-16.7536636069228
 30
0.0
 10
43.78028554973853
 20
-16.79966582913352
 30
0.0
 10
43.89257471354046
 20
-16.82136166246136
 30
0.0
 10
44.35524275729237
 20
-16.90955610688376
 30
0.0
 10
44.50718414230492
 20
-17.16690749570812
 30
0.0
 10
44.35834720165762
 20
-17.61320666226339
 30
0.0
 10
44.25364275988441
 20
-17.92636749551852
 30
0.0
 10
44.08480331974742
 20
-18.20389777322679
 30
0.0
 10
43.85020610351027
 20
-18.44142305094532
 30
0.0
 10
43.30897445065157
 20
-18.98935749525256
 30
0.0
 10
42.99718945860587
 20
-19.63737499509065
 30
0.0
 10
43.02167223575903
 20
-20.42131777267249
 30
0.0
 10
43.03405473544313
 20
-20.80856193924244
 30
0.0
 10
43.18564443364777
 20
-21.18028388359377
 30
0.0
 10
43.12708332255156
 20
-21.61420055015212
 30
0.0
 10
43.50878887801181
 20
-21.27761527245852
 30
0.0
 10
43.72377055118035
 20
-20.88589082811184
 30
0.0
 10
43.95046665567931
 20
-20.50245666154094
 30
0.0
 10
44.70495135948168
 20
-19.22723555074885
 30
0.0
 10
45.38154384222036
 20
-17.91345582885495
 30
0.0
 10
45.96447498850876
 20
-16.55042832919575
 30
0.0
 10
46.15289243365273
 20
-16.10977360708369
 30
0.0
 10
46.39923714959018
 20
-15.69395444052084
 30
0.0
 10
46.61249131081627
 20
-15.2634949961841
 30
0.0
 10
46.70583630843485
 20
-15.07437082956462
 30
0.0
 10
46.78785832163651
 20
-14.87868499628032
 30
0.0
 10
46.86709102654311
 20
-14.6831755518849
 30
0.0
 10
46.95182824660351
 20
-14.47457805193704
 30
0.0
 10
46.98767046791132
 20
-14.26372277421188
 30
0.0
 10
46.97871109936631
 20
-14.03050138538121
 30
0.0
 10
46.95733157979645
 20
-13.48581249662853
 30
0.0
 10
47.05931963275007
 20
-12.9463094412078
 30
0.0
 10
47.09823102064625
 20
-12.4035608302325
 30
0.0
 10
47.15128879707041
 20
-11.6566597193079
 30
0.0
 10
47.21570601764921
 20
-10.91060527505019
 30
0.0
 10
47.26738796077514
 20
-10.16388055301448
 30
0.0
 10
47.31010934857411
 20
-9.543944164280818
 30
0.0
 10
47.33078332150038
 20
-8.922631942213632
 30
0.0
 10
47.30323018208295
 20
-8.301460831257808
 30
0.0
 10
47.28495629366027
 20
-7.892203331360424
 30
0.0
 10
47.24466907246585
 20
-7.484286387017762
 30
0.0
 10
47.1151290757707
 20
-7.090868609338274
 30
0.0
 10
47.0606954660483
 20
-6.924992498268719
 30
0.0
 10
46.96283609937026
 20
-6.834046387180233
 30
0.0
 10
46.78475269531041
 20
-6.784939720525978
 30
0.0
 10
46.32550659591564
 20
-6.657481109446882
 30
0.0
 10
45.89278938473296
 20
-6.465746387272355
 30
0.0
 10
45.53246217170345
 20
-6.139003609576305
 30
0.0
 10
45.41805634128885
 20
-6.035463331824494
 30
0.0
 10
45.32506412143906
 20
-5.920739998519763
 30
0.0
 10
45.25616662319678
 20
-5.776912498555808
 30
0.0
 10
45.07494468337569
 20
-5.397605831983889
 30
0.0
 10
44.78898302400452
 20
-5.121663054275222
 30
0.0
 10
44.4248458110722
 20
-4.899095554330825
 30
0.0
 10
44.0365785987555
 20
-4.662064165501095
 30
0.0
 10
43.62626387798263
 20
-4.531501109978148
 30
0.0
 10
43.18497306492622
 20
-4.467260276660878
 30
0.0
 10
43.12500084423402
 20
-4.458476109996607
 30
0.0
 10
43.03959443368469
 20
-4.464684998883989
 30
0.0
 10
43.02167223575903
 20
-4.390778054457724
 30
0.0
 10
43.00272806957567
 20
-4.313096387810566
 30
0.0
 10
43.0726486233474
 20
-4.263319443378627
 30
0.0
 10
43.12948112189749
 20
-4.223349721166405
 30
0.0
 10
43.41163278136587
 20
-4.024559443438252
 30
0.0
 10
43.73343666204486
 20
-4.028686943437227
 30
0.0
 10
44.05449970940941
 20
-4.065199443428158
 30
0.0
 10
44.2922013700118
 20
-4.092081110087934
 30
0.0
 10
44.5216480308248
 20
-4.167540276735965
 30
0.0
 10
44.71941524800156
 20
-4.302054443369006
 30
0.0
 10
44.93094079816065
 20
-4.445740832221921
 30
0.0
 10
45.16659634770413
 20
-4.518942221092343
 30
0.0
 10
45.40532221087108
 20
-4.592990276629648
 30
0.0
 10
45.51866856094424
 20
-4.627985832176334
 30
0.0
 10
45.62407855825501
 20
-4.62675110995449
 30
0.0
 10
45.71435554412723
 20
-4.553055832194945
 30
0.0
 10
45.81355549786549
 20
-4.471740554437614
 30
0.0
 10
45.74123605526607
 20
-4.373562498906622
 30
0.0
 10
45.71502466704589
 20
-4.287061387817032
 30
0.0
 10
45.59927828110994
 20
-3.905884999023427
 30
0.0
 10
45.42084443308938
 20
-3.567923887996937
 30
0.0
 10
45.06390273921295
 20
-3.351216026939849
 30
0.0
 10
44.99433609986241
 20
-3.309013221395114
 30
0.0
 10
44.92610774272839
 20
-3.248554165854433
 30
0.0
 10
44.88409191046697
 20
-3.180341054760622
 30
0.0
 10
44.70011943326968
 20
-2.886300777056128
 30
0.0
 10
44.40106858945659
 20
-2.752287554867585
 30
0.0
 10
44.11203887786069
 20
-2.602251166016247
 30
0.0
 10
43.87327776958832
 20
-2.478401471602548
 30
0.0
 10
43.63282444238946
 20
-2.356100471633246
 30
0.0
 10
43.42267472552861
 20
-2.185052638342505
 30
0.0
 10
43.25662222976496
 20
-2.049660055043068
 30
0.0
 10
43.1422527669921
 20
-1.884468332862269
 30
0.0
 10
43.15809139894536
 20
-1.657780388474593
 30
0.0
 10
43.16634639873475
 20
-1.540647582948149
 30
0.0
 10
43.21114917536952
 20
-1.481564360740674
 30
0.0
 10
43.32622528354479
 20
-1.576475694050326
 30
0.0
 10
43.39441722624952
 20
-1.633145916258401
 30
0.0
 10
43.46437305779813
 20
-1.68620369402275
 30
0.0
 10
43.58975027682171
 20
-1.69825811068669
 30
0.0
 10
43.43230555861624
 20
-1.548743832946299
 30
0.0
 10
43.30759861735334
 20
-1.404909277426647
 30
0.0
 10
43.24695611890046
 20
-1.220942721916964
 30
0.0
 10
43.2256130638894
 20
-1.155139083044545
 30
0.0
 10
43.20906778653373
 20
-1.082622083062557
 30
0.0
 10
43.21319528642843
 20
-1.014924027523994
 30
0.0
 10
43.21940417515891
 20
-0.9065753886621423
 30
0.0
 10
43.26212556295789
 20
-0.8609294720068668
 30
0.0
 10
43.370322504642
 20
-0.9467109164298619
 30
0.0
 10
43.6383277755824
 20
-1.158758583043646
 30
0.0
 10
43.94358637890571
 20
-1.30793066633966
 30
0.0
 10
44.28878054448325
 20
-1.474156027409287
 30
0.0
 10
44.2436249889394
 20
-1.384582221875998
 30
0.0
 10
44.2136730386819
 20
-1.327396944112674
 30
0.0
 10
44.18541665562032
 20
-1.269689555238083
 30
0.0
 10
44.12858304085272
 20
-1.154451166378102
 30
0.0
 10
44.07446693112222
 20
-1.038006277518422
 30
0.0
 10
44.07725387549557
 20
-0.9050266942180647
 30
0.0
 10
44.07827693102502
 20
-0.846116333121782
 30
0.0
 10
44.08448581975551
 20
-0.7816920553602557
 30
0.0
 10
44.14029526277614
 20
-0.7527536942562076
 30
0.0
 10
44.21434443339098
 20
-0.7145125831546306
 30
0.0
 10
44.23709748252873
 20
-0.7922013053574849
 30
0.0
 10
44.27223414829898
 20
-0.8311303331255043
 30
0.0
 10
44.764888302397
 20
-1.373388582990014
 30
0.0
 10
45.32400578813272
 20
-1.834857193985827
 30
0.0
 10
45.95964077191633
 20
-2.208649943892181
 30
0.0
 10
45.9038313288957
 20
-2.125108638357715
 30
0.0
 10
45.84802188587507
 20
-2.041909527267304
 30
0.0
 10
45.79288272061512
 20
-1.958191832843636
 30
0.0
 10
45.71502466704589
 20
-1.839510332873435
 30
0.0
 10
45.65060744646708
 20
-1.71341697179384
 30
0.0
 10
45.622349947188
 20
-1.573720499606548
 30
0.0
 10
45.60411133654219
 20
-1.483113055184751
 30
0.0
 10
45.56068439320566
 20
-1.359436221882244
 30
0.0
 10
45.66888133488977
 20
-1.316541971893059
 30
0.0
 10
45.75707577708419
 20
-1.281920360790583
 30
0.0
 10
45.79288272061512
 20
-1.40628863853722
 30
0.0
 10
45.84251855268214
 20
-1.466059777411138
 30
0.0
 10
46.00338521524476
 20
-1.658295444029843
 30
0.0
 10
46.17014443290198
 20
-1.843472027316914
 30
0.0
 10
46.37478965021388
 20
-1.98988891616915
 30
0.0
 10
46.46019714803496
 20
-2.051035888376274
 30
0.0
 10
46.52394409085308
 20
-2.127518110579107
 30
0.0
 10
46.57425020068077
 20
-2.219332055000603
 30
0.0
 10
46.71687825259759
 20
-2.479607971602248
 30
0.0
 10
46.88257797059246
 20
-2.725243610429679
 30
0.0
 10
47.1151290757707
 20
-2.912483943716398
 30
0.0
 10
47.30185554373035
 20
-3.062516804790048
 30
0.0
 10
47.40691156832671
 20
-3.254752471408431
 30
0.0
 10
47.50339628808739
 20
-3.468867415799551
 30
0.0
 10
47.82893961311542
 20
-4.193010832285015
 30
0.0
 10
48.13176404983417
 20
-4.932186109877983
 30
0.0
 10
48.5196784843821
 20
-5.622219443038854
 30
0.0
 10
48.79082347746461
 20
-6.105560276251385
 30
0.0
 10
48.86247264230336
 20
-6.619733887234107
 30
0.0
 10
48.97342125058393
 20
-7.135494998216113
 30
0.0
 10
49.33272540808399
 20
-8.807555831131461
 30
0.0
 10
49.66140845525414
 20
-10.48550805293427
 30
0.0
 10
49.88358789403031
 20
-12.18236916362099
 30
0.0
 10
49.99693539113858
 20
-13.04621610784944
 30
0.0
 10
50.08548261110177
 20
-13.9130263854107
 30
0.0
 10
50.05172177862975
 20
-14.78653944074783
 30
0.0
 10
50.03553054304687
 20
-15.18665999620318
 30
0.0
 10
49.93664567045447
 20
-15.56409694055342
 30
0.0
 10
49.795075951844
 20
-15.94132221823693
 30
0.0
 10
49.53910040281892
 20
-16.62500555139938
 30
0.0
 10
49.3265165193535
 20
-17.32470499566892
 30
0.0
 10
49.09329513641458
 20
-18.01664332882932
 30
0.0
 10
48.39154959876205
 20
-20.09870249497542
 30
0.0
 10
47.68941600556386
 20
-22.18072638334367
 30
0.0
 10
46.98283741247907
 20
-24.261233327268
 30
0.0
 10
46.9380346358443
 20
-24.39281943834639
 30
0.0
 10
46.9539096354393
 20
-24.4894452716553
 30
0.0
 10
47.03727221046316
 20
-24.5966191605176
 30
0.0
 10
47.27292776595969
 20
-24.89958471599741
 30
0.0
 10
47.51405017670448
 20
-25.19810527147832
 30
0.0
 10
47.76452239253663
 20
-25.48992304918304
 30
0.0
 10
48.39461876535042
 20
-26.22285416011111
 30
0.0
 10
48.57792209400729
 20
-27.08225610434067
 30
0.0
 10
48.42358182016707
 20
-28.02343193743852
 30
0.0
 10
48.37535832123964
 20
-28.31472054847692
 30
0.0
 10
48.2940418234719
 20
-28.59704860396185
 30
0.0
 10
48.199638492547
 20
-28.87747165944726
 30
0.0
 10
48.0887251620433
 20
-29.20700138158724
 30
0.0
 10
48.08456238437172
 20
-29.55769777038841
 30
0.0
 10
48.03291571902268
 20
-29.89862221474771
 30
0.0
 10
47.84202766833707
 20
-31.17243221442907
 30
0.0
 10
47.61088887698586
 20
-32.43833999189057
 30
0.0
 10
47.31356657070813
 20
-33.69165360268809
 30
0.0
 10
47.27980573823611
 20
-33.83530471376349
 30
0.0
 10
47.29324657122654
 20
-33.88508165819542
 30
0.0
 10
47.45238462272214
 20
-33.82704971376554
 30
0.0
 10
48.92209208522679
 20
-33.28874610278881
 30
0.0
 10
50.37144427047295
 20
-32.7058513807124
 30
0.0
 10
51.70572034754385
 20
-31.87435415869807
 30
0.0
 10
52.13117033668971
 20
-31.60927693654208
 30
0.0
 10
52.53598282636208
 20
-31.31470749217126
 30
0.0
 10
52.86635920682237
 20
-30.9336722144887
 30
0.0
 10
52.9642197598813
 20
-30.82187693673894
 30
0.0
 10
53.05551864644095
 20
-30.80483777007672
 30
0.0
 10
53.15884725491593
 20
-30.89666582560929
 30
0.0
 10
53.33904613920756
 20
-31.05650943668034
 30
0.0
 10
53.49818419070317
 20
-31.01964415891165
 30
0.0
 10
53.68907224138876
 20
-30.90008777005274
 30
0.0
 10
54.05218639879162
 20
-30.67219332566536
 30
0.0
 10
54.43114165305877
 20
-30.46980471460488
 30
0.0
 10
54.80250943520484
 20
-30.25482193688075
 30
0.0
 10
54.88795221080279
 20
-30.20486860355993
 30
0.0
 10
54.96030831959314
 20
-30.1743886035675
 30
0.0
 10
55.02818137389191
 20
-30.28272665909597
 30
0.0
 10
55.39094275352598
 20
-30.85651971450818
 30
0.0
 10
55.76576913285226
 20
-31.42237526992205
 30
0.0
 10
56.04135912582137
 20
-32.04749749198829
 30
0.0
 10
56.21224467701727
 20
-32.4359058252244
 30
0.0
 10
56.21362051031551
 20
-32.82159776957226
 30
0.0
 10
56.13713829004451
 20
-33.22933832502604
 30
0.0
 10
55.99934329355995
 20
-33.9548611026224
 30
0.0
 10
55.89393329624919
 20
-34.69537693577073
 30
0.0
 10
55.46329747390229
 20
-35.31499582450446
 30
0.0
 10
55.27897108971595
 20
-35.5813077688823
 30
0.0
 10
55.18904803645453
 20
-35.80884943549223
 30
0.0
 10
55.26380164565852
 20
-36.13199387985595
 30
0.0
 10
55.3165066443139
 20
-36.35815971313269
 30
0.0
 10
55.24175303510991
 20
-36.60189387973828
 30
0.0
 10
55.19765581401271
 20
-36.83497415745791
 30
0.0
 10
55.17906442559812
 20
-36.93227026854482
 30
0.0
 10
55.09845470543242
 20
-36.98000110186619
 30
0.0
 10
55.02955720719014
 20
-37.03665721296319
 30
0.0
 10
54.47350888804279
 20
-37.49382193507083
 30
0.0
 10
53.94053223497349
 20
-37.96495665717532
 30
0.0
 10
53.63876613156107
 20
-38.64828721256001
 30
0.0
 10
53.44823085864425
 20
-39.07892304578595
 30
0.0
 10
53.10339058966408
 20
-39.37761999015574
 30
0.0
 10
52.67137893401895
 20
-39.56984860121874
 30
0.0
 10
52.53700588189154
 20
-39.6303147123148
 30
0.0
 10
52.40439671860801
 20
-39.69473193452063
 30
0.0
 10
52.26967220915454
 20
-39.75382221228381
 30
0.0
 10
51.89967756481781
 20
-39.91729943446503
 30
0.0
 10
51.54206674060789
 20
-40.10229610108554
 30
0.0
 10
51.20033091599296
 20
-40.32003054547543
 30
0.0
 10
51.07251953036481
 20
-40.40131054545525
 30
0.0
 10
51.03805314235523
 20
-40.4777927676584
 30
0.0
 10
51.13037508444435
 20
-40.61389443429105
 30
0.0
 10
51.19722776497854
 20
-40.71277804537756
 30
0.0
 10
51.24269952602315
 20
-40.83057054534798
 30
0.0
 10
51.27956480286042
 20
-40.94529387865239
 30
0.0
 10
51.34363054271939
 20
-41.14097971193701
 30
0.0
 10
51.30782230213951
 20
-41.17992637859379
 30
0.0
 10
51.10832776500062
 20
-41.14958748971272
 30
0.0
 10
50.5815939873338
 20
-41.06897776751028
 30
0.0
 10
50.05242733416731
 20
-41.03317082307519
 30
0.0
 10
49.51909790332923
 20
-41.05105665640397
 30
0.0
 10
49.24248609880019
 20
-41.06036998973521
 30
0.0
 10
48.96996402844992
 20
-41.09413082306004
 30
0.0
 10
48.70467514632911
 20
-41.17301193415121
 30
0.0
 10
48.60476848221127
 20
-41.20229248969963
 30
0.0
 10
48.50281570703453
 20
-41.21989610080634
 30
0.0
 10
48.4008276540809
 20
-41.20885415636445
 30
0.0
 10
47.84925961259702
 20
-41.14958748971272
 30
0.0
 10
47.4872037885005
 20
-41.51340721184419
 30
0.0
 10
47.0868715764916
 20
-41.79245443399638
 30
0.0
 10
47.01176518951884
 20
-41.84448915620529
 30
0.0
 10
47.05071185519189
 20
-41.8971941561922
 30
0.0
 10
47.0868715764916
 20
-41.95575526728905
 30
0.0
 10
47.63981665475652
 20
-42.85664387817444
 30
0.0
 10
48.18792627062358
 20
-43.75961387794887
 30
0.0
 10
48.74259998781423
 20
-44.65877387772425
 30
0.0
 10
49.71238609868283
 20
-46.23110443288684
 30
0.0
 10
50.59605787585369
 20
-47.8496135991484
 30
0.0
 10
51.37636702261301
 20
-49.52393220984104
 30
0.0
 10
51.84453839955786
 20
-50.52853748736775
 30
0.0
 10
52.33754533142464
 20
-51.51966665378706
 30
0.0
 10
52.90149720899697
 20
-52.47569443132552
 30
0.0
 10
53.13164808894317
 20
-52.86636054233924
 30
0.0
 10
53.3362944726111
 20
-53.27702915334768
 30
0.0
 10
53.50647446826945
 20
-53.69732859768694
 30
0.0
 10
53.74625751770763
 20
-54.28713776420593
 30
0.0
 10
54.11692111936232
 20
-54.79009304185789
 30
0.0
 10
54.48176388783218
 20
-55.29862220839771
 30
0.0
 10
55.23935554174598
 20
-56.35487415257806
 30
0.0
 10
56.00138940461886
 20
-57.4069985967591
 30
0.0
 10
56.7589796630689
 20
-58.46258026316208
 30
0.0
 10
56.9036891038215
 20
-58.66274637422312
 30
0.0
 10
56.96983493546731
 20
-58.9008008186083
 30
0.0
 10
57.05457215552771
 20
-59.12816609632934
 30
0.0
 10
57.59026665226896
 20
-60.56340720708169
 30
0.0
 10
58.15287518306322
 20
-61.98725359561438
 30
0.0
 10
58.89046294202357
 20
-63.33359470638881
 30
0.0
 10
59.37588515186164
 20
-64.21797331727893
 30
0.0
 10
59.92604208227041
 20
-65.05786665040195
 30
0.0
 10
60.61092484257537
 20
-65.80374470577141
 30
0.0
 10
60.76184317205846
 20
-65.96873887239656
 30
0.0
 10
60.91272776254934
 20
-66.13412109457764
 30
0.0
 10
61.10633066326985
 20
-66.2557235945471
 30
0.0
 10
61.23555315997311
 20
-66.33739165008221
 30
0.0
 10
61.31789149120581
 20
-66.46245137227297
 30
0.0
 10
61.36749204549596
 20
-66.60335081668228
 30
0.0
 10
61.62516092781117
 20
-67.33645831649922
 30
0.0
 10
62.07029591645482
 20
-67.96690748300811
 30
0.0
 10
62.4592334065322
 20
-68.62907137173161
 30
0.0
 10
62.83028506373255
 20
-69.25881498268498
 30
0.0
 10
63.25333616405073
 20
-69.85412748253616
 30
0.0
 10
63.64125059859865
 20
-70.4725116490487
 30
0.0
 10
63.90445809188367
 20
-70.89249359338771
 30
0.0
 10
64.02158031111786
 20
-71.36309914882588
 30
0.0
 10
64.1214869752357
 20
-71.84231248203912
 30
0.0
 10
64.31957169240435
 20
-72.78796859291434
 30
0.0
 10
64.27480419354647
 20
-73.74053914823152
 30
0.0
 10
64.2338114168145
 20
-74.69448553688221
 30
0.0
 10
64.22897836138225
 20
-74.80370553685444
 30
0.0
 10
64.18523391805381
 20
-74.87225025905988
 30
0.0
 10
64.08222280957074
 20
-74.91359581460468
 30
0.0
 10
63.77837531732253
 20
-75.03692692568544
 30
0.0
 10
63.47107220635434
 20
-75.14512387010255
 30
0.0
 10
63.14309311130771
 20
-75.18026053676027
 30
0.0
 10
63.02043228110372
 20
-75.19334859231304
 30
0.0
 10
62.9198553392252
 20
-75.17267581454033
 30
0.0
 10
62.829579508195
 20
-75.07897803678574
 30
0.0
 10
62.185689524622
 20
-74.40580748139854
 30
0.0
 10
61.59072981757846
 20
-73.69679470379808
 30
0.0
 10
61.09807566348045
 20
-72.90202164844139
 30
0.0
 10
60.73979456150985
 20
-72.32357192636324
 30
0.0
 10
60.61371178694871
 20
-71.68966553763305
 30
0.0
 10
60.52414151145607
 20
-71.0289127600206
 30
0.0
 10
60.41181706987726
 20
-70.19656887134002
 30
0.0
 10
60.23267651889196
 20
-69.37526692710068
 30
0.0
 10
59.84955986199941
 20
-68.61527776062397
 30
0.0
 10
59.71797375424534
 20
-68.3551747051332
 30
0.0
 10
59.55813014721218
 20
-68.12089498296955
 30
0.0
 10
59.31901737553468
 20
-67.94313026079188
 30
0.0
 10
59.17088599042494
 20
-67.83323998304164
 30
0.0
 10
59.0747893262099
 20
-67.6706447053045
 30
0.0
 10
59.0365482160744
 20
-67.49527887201484
 30
0.0
 10
58.97865738421798
 20
-67.22413387208282
 30
0.0
 10
58.82085988824373
 20
-67.02019303880024
 30
0.0
 10
58.64965831867099
 20
-66.82037970551697
 30
0.0
 10
57.32261270424498
 20
-65.26801637257158
 30
0.0
 10
55.88049246325875
 20
-63.83760831737406
 30
0.0
 10
54.27817583747059
 20
-62.56707915102478
 30
0.0
 10
52.83467976318613
 20
-61.42227998464428
 30
0.0
 10
51.72604165373516
 20
-60.00287859611048
 30
0.0
 10
50.94573120026612
 20
-58.32961831875113
 30
0.0
 10
50.69321287337506
 20
-57.78870415221935
 30
0.0
 10
50.46239165405095
 20
-57.23957026346778
 30
0.0
 10
50.30113566115556
 20
-56.66630637472221
 30
0.0
 10
50.20468621917175
 20
-56.32386498591898
 30
0.0
 10
50.03313039021517
 20
-56.03310554154754
 30
0.0
 10
49.82160484005608
 20
-55.75853859717176
 30
0.0
 10
49.26795540973641
 20
-55.03710804179654
 30
0.0
 10
48.70192347973264
 20
-54.32569637530743
 30
0.0
 10
48.15864571581503
 20
-53.59671637548978
 30
0.0
 10
47.36524851383406
 20
-52.5311510979782
 30
0.0
 10
46.37718853904157
 20
-51.6530166537533
 30
0.0
 10
45.43943467407678
 20
-50.72559915398526
 30
0.0
 10
44.49617747591905
 20
-49.79299582088527
 30
0.0
 10
43.57355777723482
 20
-48.84113082112299
 30
0.0
 10
42.678525300069
 20
-47.8616785991454
 30
0.0
 10
42.62617307918239
 20
-47.80347026582695
 30
0.0
 10
42.58101752477885
 20
-47.69425026585408
 30
0.0
 10
42.49592752694968
 20
-47.72007359918121
 30
0.0
 10
42.42978169530387
 20
-47.7393705436204
 30
0.0
 10
42.43256863967721
 20
-47.8516949880368
 30
0.0
 10
42.41119030688928
 20
-47.92404971024131
 30
0.0
 10
42.09563059271766
 20
-49.02164720996707
 30
0.0
 10
41.70115554513046
 20
-50.09031693192218
 30
0.0
 10
41.27570554523678
 20
-51.14932054276829
 30
0.0
 10
41.01387284253782
 20
-51.80114804260543
 30
0.0
 10
40.92910034470054
 20
-52.48532526465636
 30
0.0
 10
40.94254117769098
 20
-53.18262582003757
 30
0.0
 10
40.94529284428744
 20
-53.334214431111
 30
0.0
 10
40.91738812277713
 20
-53.47200943107613
 30
0.0
 10
40.86711729072631
 20
-53.61326165326319
 30
0.0
 10
40.63456618554807
 20
-54.26371331976745
 30
0.0
 10
40.37513341438898
 20
-54.90725054182847
 30
0.0
 10
40.2800598057034
 20
-55.59901248609999
 30
0.0
 10
40.26146943437922
 20
-55.73405581939999
 30
0.0
 10
40.19133619685581
 20
-55.85258915270346
 30
0.0
 10
40.12088647643091
 20
-55.96762998600811
 30
0.0
 10
39.89094592674163
 20
-56.34418498591393
 30
0.0
 10
39.78775842937416
 20
-56.75725248581038
 30
0.0
 10
39.7911803737313
 20
-57.19480276347922
 30
0.0
 10
39.80289259565473
 20
-58.6234822075661
 30
0.0
 10
39.81428731758624
 20
-60.05216165165361
 30
0.0
 10
39.83563037259729
 20
-61.48048831796337
 30
0.0
 10
39.85199926106857
 20
-62.54982831769584
 30
0.0
 10
39.87612926045296
 20
-63.61955637298423
 30
0.0
 10
39.91056037068567
 20
-64.68854359493893
 30
0.0
 10
39.95430481401409
 20
-66.0521355390423
 30
0.0
 10
40.00891481262088
 20
-67.41502192759079
 30
0.0
 10
40.06472425564151
 20
-68.77787303836111
 30
0.0
 10
40.09781481035285
 20
-69.57162303816267
 30
0.0
 10
40.20393036320117
 20
-70.35641248241076
 30
0.0
 10
40.3144909159361
 20
-71.14363609332501
 30
0.0
 10
40.54326729898841
 20
-72.78175970402664
 30
0.0
 10
40.58048535359445
 20
-74.41681414806226
 30
0.0
 10
40.17704869722031
 20
-76.04703553654369
 30
0.0
 10
39.93846509219598
 20
-77.0095897029701
 30
0.0
 10
39.78084398510612
 20
-77.99281664716858
 30
0.0
 10
39.66545037693894
 20
-78.978830535811
 30
0.0
 10
39.6426972123114
 20
-79.17105914687369
 30
0.0
 10
39.56452065729165
 20
-79.24891720240971
 30
0.0
 10
39.38139371751917
 20
-79.2578777579632
 30
0.0
 10
39.12026761306993
 20
-79.27026025796044
 30
0.0
 10
38.86101123079523
 20
-79.3184849801703
 30
0.0
 10
38.59660429309637
 20
-79.2785505357359
 30
0.0
 10
38.46879290746822
 20
-79.25925359129607
 30
0.0
 10
38.40938610150891
 20
-79.20686609130941
 30
0.0
 10
38.38352652075466
 20
-79.07873720245263
 30
0.0
 10
38.15358597106538
 20
-77.95492831384445
 30
0.0
 10
37.90604181071409
 20
-76.8366580363466
 30
0.0
 10
37.6903887606603
 20
-75.71009748107265
 30
0.0
 10
37.51191943506633
 20
-74.77752942575019
 30
0.0
 10
37.13744488587818
 20
-73.93932942595967
 30
0.0
 10
36.43584045933316
 20
-73.2737435927924
 30
0.0
 10
36.24809213078968
 20
-73.09597887061473
 30
0.0
 10
36.02880546971748
 20
-72.96643887064755
 30
0.0
 10
35.78404825373954
 20
-72.87962025955804
 30
0.0
 10
35.555624648456
 20
-72.7976347040227
 30
0.0
 10
35.47106381727999
 20
-72.68118275960764
 30
0.0
 10
35.46915881732859
 20
-72.43589637077964
 30
0.0
 10
35.46672465072403
 20
-72.06311609309535
 30
0.0
 10
35.67242936769829
 20
-71.78339859316515
 30
0.0
 10
35.89824241749287
 20
-71.51708664878731
 30
0.0
 10
36.1147774119686
 20
-71.26111109329584
 30
0.0
 10
36.37745573860045
 20
-71.05508887112485
 30
0.0
 10
36.64461434289578
 20
-70.8559810933971
 30
0.0
 10
36.79242822801362
 20
-70.74573803786912
 30
0.0
 10
36.89974322527579
 20
-70.6092835934587
 30
0.0
 10
36.97862433437447
 20
-70.44323109350027
 30
0.0
 10
37.29817043733328
 20
-69.76663859366928
 30
0.0
 10
37.34449015837379
 20
-69.05004109384888
 30
0.0
 10
37.2941840485461
 20
-68.3196852606977
 30
0.0
 10
37.18877499070294
 20
-66.79180470552407
 30
0.0
 10
36.65720850924114
 20
-65.38859581698593
 30
0.0
 10
36.0487726914303
 20
-64.00471915066578
 30
0.0
 10
35.52013610223104
 20
-62.8013235954109
 30
0.0
 10
35.15356471343381
 20
-61.55040887350106
 30
0.0
 10
35.01957971346741
 20
-60.23853415160701
 30
0.0
 10
34.91896749127025
 20
-59.25082692963147
 30
0.0
 10
34.98063304681031
 20
-58.26897581876587
 30
0.0
 10
35.13705471343791
 20
-57.29054665234405
 30
0.0
 10
35.30931521029543
 20
-56.21499776372387
 30
0.0
 10
35.58472881438016
 20
-55.16047443065418
 30
0.0
 10
35.83262575250022
 20
-54.10108276425279
 30
0.0
 10
35.95440554656684
 20
-53.57950081993835
 30
0.0
 10
35.96128380477344
 20
-53.04793526451597
 30
0.0
 10
35.97645324883088
 20
-52.51566415353807
 30
0.0
 10
36.01381241454443
 20
-51.18586832053707
 30
0.0
 10
35.87912186242512
 20
-49.86912526531067
 30
0.0
 10
35.71359853331464
 20
-48.55174721008443
 30
0.0
 10
35.55477798181094
 20
-47.29218943262136
 30
0.0
 10
35.51791270497367
 20
-46.0244119329385
 30
0.0
 10
35.5418310376968
 20
-44.75490582214435
 30
0.0
 10
35.55043881525497
 20
-44.28740471115036
 30
0.0
 10
35.53322326013862
 20
-43.81990360015637
 30
0.0
 10
35.57612103682198
 20
-43.35271998916198
 30
0.0
 10
35.59404214747589
 20
-43.15534082254423
 30
0.0
 10
35.57922548118722
 20
-42.95690332259383
 30
0.0
 10
35.53322326013862
 20
-42.75190415597862
 30
0.0
 10
35.4491563178389
 20
-42.75811304486633
 30
0.0
 10
35.41955826303845
 20
-42.82771610040442
 30
0.0
 10
35.378706597414
 20
-42.87766943372491
 30
0.0
 10
35.14308721343641
 20
-43.16532443365282
 30
0.0
 10
34.92447082460211
 20
-43.4660674891335
 30
0.0
 10
34.72363443576339
 20
-43.7789108223887
 30
0.0
 10
34.65145610244809
 20
-43.89052971124958
 30
0.0
 10
34.59356526912924
 20
-43.92704221124019
 30
0.0
 10
34.46663582471679
 20
-43.84470387792773
 30
0.0
 10
33.96590304706395
 20
-43.51983082245369
 30
0.0
 10
33.42019110275616
 20
-43.31691304472624
 30
0.0
 10
32.82625443623787
 20
-43.22561415586032
 30
0.0
 10
32.3063658252569
 20
-43.14602748921363
 30
0.0
 10
31.80065888093884
 20
-42.99891915591662
 30
0.0
 10
31.3259258255017
 20
-42.76188776708722
 30
0.0
 10
31.21617665886251
 20
-42.70745415598966
 30
0.0
 10
31.1121424922219
 20
-42.6440952671168
 30
0.0
 10
31.02221943668885
 20
-42.56140415602658
 30
0.0
 10
30.81654999229596
 20
-42.37122165607414
 30
0.0
 10
30.81810221451773
 20
-42.17624137834504
 30
0.0
 10
31.02652332557671
 20
-41.98711721172524
 30
0.0
 10
31.13934165888191
 20
-41.88548193397295
 30
0.0
 10
31.25992110329627
 20
-41.7910786006635
 30
0.0
 10
31.35139638105107
 20
-41.67116943402651
 30
0.0
 10
31.33502749216622
 20
-41.65395387847509
 30
0.0
 10
31.3259258255017
 20
-41.63673832292431
 30
0.0
 10
31.31883499217024
 20
-41.63740860070167
 30
0.0
 10
30.99741915891716
 20
-41.68358721180127
 30
0.0
 10
30.76349221453129
 20
-41.53958332294844
 30
0.0
 10
30.54353527014194
 20
-41.31909721189245
 30
0.0
 10
30.34545054796931
 20
-41.12065971194206
 30
0.0
 10
30.11427527024921
 20
-40.95460721198363
 30
0.0
 10
29.89463582585978
 20
-40.77821832313883
 30
0.0
 10
29.76371999255907
 20
-40.67280832316501
 30
0.0
 10
29.61731721481791
 20
-40.59495026762897
 30
0.0
 10
29.44935971485994
 20
-40.56256526763702
 30
0.0
 10
29.33463638155521
 20
-40.54051665653142
 30
0.0
 10
29.32518193711326
 20
-40.49056332321092
 30
0.0
 10
29.41249443709125
 20
-40.41270526767489
 30
0.0
 10
29.56062582594306
 20
-40.28073110104089
 30
0.0
 10
29.70604082590694
 20
-40.14519387885272
 30
0.0
 10
29.85142054809266
 20
-40.0096213788864
 30
0.0
 10
29.88602804808407
 20
-39.97723637889445
 30
0.0
 10
29.95235027028975
 20
-39.95536415667772
 30
0.0
 10
29.93114832585039
 20
-39.8933458233599
 30
0.0
 10
29.91481471474337
 20
-39.84649693448294
 30
0.0
 10
29.85452499253651
 20
-39.85510471225832
 30
0.0
 10
29.81265027032476
 20
-39.84614415670517
 30
0.0
 10
29.35513277043905
 20
-39.74951832339595
 30
0.0
 10
28.89884999277517
 20
-39.64717749008814
 30
0.0
 10
28.43875721511256
 20
-39.56314582344256
 30
0.0
 10
28.236686104052
 20
-39.52628054567387
 30
0.0
 10
28.12160999296951
 20
-39.42566832347703
 30
0.0
 10
28.06149665965121
 20
-39.23410999019139
 30
0.0
 10
27.79881832638355
 20
-38.39714471262302
 30
0.0
 10
27.65428527086407
 20
-37.54275221283653
 30
0.0
 10
27.65982388197409
 20
-36.6639122130561
 30
0.0
 10
27.66067054864034
 20
-36.52505887975768
 30
0.0
 10
27.7223361041804
 20
-36.45771360199656
 30
0.0
 10
27.85240527081454
 20
-36.42053082422827
 30
0.0
 10
28.09010693742195
 20
-36.35247999091195
 30
0.0
 10
28.32403388180783
 20
-36.27169387982094
 30
0.0
 10
28.55587943730562
 20
-36.16420249095903
 30
0.0
 10
28.12972388185642
 20
-36.12888943541211
 30
0.0
 10
27.70374471529641
 20
-36.08807304653364
 30
0.0
 10
27.27670721540312
 20
-36.06119137987354
 30
0.0
 10
27.13390277099429
 20
-36.05205443543151
 30
0.0
 10
27.05417499323656
 20
-36.00608749099862
 30
0.0
 10
27.02316582657749
 20
-35.8598258243685
 30
0.0
 10
26.65797027111315
 20
-34.1272988803571
 30
0.0
 10
26.82987888218152
 20
-32.47294749188165
 30
0.0
 10
27.7223361041804
 20
-30.91747971449272
 30
0.0
 10
27.82121971526691
 20
-30.74627665898019
 30
0.0
 10
27.90786193746754
 20
-30.71734888120952
 30
0.0
 10
28.08509749297858
 20
-30.80984721451977
 30
0.0
 10
29.498960270403
 20
-31.54863443655714
 30
0.0
 10
30.91956110338113
 20
-32.27401610304246
 30
0.0
 10
32.33151888080602
 20
-33.01608415841255
 30
0.0
 10
32.53789388075445
 20
-33.12424582505214
 30
0.0
 10
32.70652165849009
 20
-33.15454943615569
 30
0.0
 10
32.88844915844458
 20
-32.99953888063914
 30
0.0
 10
33.02864304729836
 20
-32.88086443622431
 30
0.0
 10
33.15525499171122
 20
-32.91649499177084
 30
0.0
 10
33.30613804722911
 20
-33.00299610286043
 30
0.0
 10
34.47764249138051
 20
-33.67630776935868
 30
0.0
 10
35.6541554792756
 20
-34.34242276919227
 30
0.0
 10
36.83049294926473
 20
-35.00818499124809
 30
0.0
 10
37.127108497253
 20
-35.17596610231717
 30
0.0
 10
37.13656387960483
 20
-35.16771110231922
 30
0.0
 10
37.40220554620498
 20
-34.94775415792987
 30
0.0
 10
38.1048320834203
 20
-34.36584721363075
 30
0.0
 10
38.84654734227534
 20
-33.84098443598423
 30
0.0
 10
39.66305148811126
 20
-33.42964554719811
 30
0.0
 10
39.8252939839721
 20
-33.34801276944086
 30
0.0
 10
39.91694564830054
 20
-33.23914554724576
 30
0.0
 10
39.96171314715843
 20
-33.06173360284584
 30
0.0
 10
40.06387758899644
 20
-32.65589804739159
 30
0.0
 10
40.1408889759206
 20
-32.24988610304877
 30
0.0
 10
40.11813480983444
 20
-31.82838721426518
 30
0.0
 10
40.10917425450749
 20
-31.6666386031946
 30
0.0
 10
40.05802147803473
 20
-31.53794526989334
 30
0.0
 10
39.94276898097507
 20
-31.41856526992299
 30
0.0
 10
39.02759289321205
 20
-30.47548443682562
 30
0.0
 10
38.13633610157705
 20
-29.51120165928888
 30
0.0
 10
37.39133904606746
 20
-28.42274110400547
 30
0.0
 10
37.29058571530457
 20
-28.2747508262647
 30
0.0
 10
37.1794607181396
 20
-28.13025304852306
 30
0.0
 10
37.10160266457037
 20
-27.97037415967417
 30
0.0
 10
37.01203332408038
 20
-27.78710610416431
 30
0.0
 10
36.87130933711231
 20
-27.72043110418087
 30
0.0
 10
36.68356100856884
 20
-27.68169610419081
 30
0.0
 10
35.88032221325201
 20
-27.51564360423206
 30
0.0
 10
35.08985304678318
 20
-27.60277971532149
 30
0.0
 10
34.30315860253524
 20
-27.78315499305421
 30
0.0
 10
33.30426832500743
 20
-28.0124252707748
 30
0.0
 10
32.30449610303489
 20
-28.23428721516367
 30
0.0
 10
31.2818286032905
 20
-28.33849777069316
 30
0.0
 10
31.11990360333105
 20
-28.35486665957802
 30
0.0
 10
30.96556332559185
 20
-28.43875721511256
 30
0.0
 10
30.80483777007672
 20
-28.48010277065767
 30
0.0
 10
29.98025499250496
 20
-28.69247499282675
 30
0.0
 10
29.13708082604922
 20
-28.73865360392636
 30
0.0
 10
28.29009665959411
 20
-28.75809165947723
 30
0.0
 10
27.06451138212292
 20
-28.78617277058133
 30
0.0
 10
25.8461227713164
 20
-28.66439388172265
 30
0.0
 10
24.62452388273282
 20
-28.60876082618109
 30
0.0
 10
23.96564082734206
 20
-28.57912749285522
 30
0.0
 10
23.30502916084034
 20
-28.55965415952684
 30
0.0
 10
22.64960332767087
 20
-28.67197860394324
 30
0.0
 10
22.49095916104382
 20
-28.69921304838078
 30
0.0
 10
22.33524304997174
 20
-28.73692499281571
 30
0.0
 10
22.18933416111938
 20
-28.80444665946571
 30
0.0
 10
22.0711888833712
 20
-28.85923304834071
 30
0.0
 10
21.96161610562057
 20
-28.93088221498937
 30
0.0
 10
21.93783888340432
 20
-29.07386304828708
 30
0.0
 10
21.85550055009155
 20
-29.56373027038691
 30
0.0
 10
21.61571749459605
 20
-29.99041499250244
 30
0.0
 10
21.38799943909756
 20
-30.4194986035063
 30
0.0
 10
21.15100332804566
 20
-30.86650332561678
 30
0.0
 10
20.87657749478092
 20
-31.28817860328893
 30
0.0
 10
20.55121055041776
 20
-31.6817727698573
 30
0.0
 10
20.29213055048243
 20
-31.9946161031125
 30
0.0
 10
20.08766055053354
 20
-32.35339110302274
 30
0.0
 10
19.86579860614466
 20
-32.69600888071485
 30
0.0
 10
19.77813332838891
 20
-32.8314049917923
 30
0.0
 10
19.73297777284442
 20
-32.98645082508669
 30
0.0
 10
19.71336332840499
 20
-33.14802304726871
 30
0.0
 10
19.70644888396241
 20
-33.2028094361437
 30
0.0
 10
19.71420999507156
 20
-33.2742822139038
 30
0.0
 10
19.64753499508812
 20
-33.29495499167619
 30
0.0
 10
19.58604582843694
 20
-33.31425193611602
 30
0.0
 10
19.53990249511518
 20
-33.26309915835088
 30
0.0
 10
19.49598166179254
 20
-33.22725693613763
 30
0.0
 10
19.33903082849861
 20
-33.09926915839189
 30
0.0
 10
19.31733499517078
 20
-32.91910554732589
 30
0.0
 10
19.33095221738955
 20
-32.73753082514884
 30
0.0
 10
19.35903332849365
 20
-32.36203415857629
 30
0.0
 10
19.43498638403016
 20
-32.01200804755248
 30
0.0
 10
19.74109166173134
 20
-31.73638276984373
 30
0.0
 10
19.88664777280626
 20
-31.60497304765422
 30
0.0
 10
19.97674721722818
 20
-31.40445415881542
 30
0.0
 10
19.99928971722226
 20
-31.19052971442458
 30
0.0
 10
20.02271416166106
 20
-30.96623360336953
 30
0.0
 10
19.95483971723362
 20
-30.86082360339604
 30
0.0
 10
19.72867388395657
 20
-30.83619971451323
 30
0.0
 10
19.50113221734696
 20
-30.81171693674146
 30
0.0
 10
19.28152805073505
 20
-30.85408554784201
 30
0.0
 10
19.09116916189373
 20
-30.99191582558531
 30
0.0
 10
18.75387832864492
 20
-31.23600276996866
 30
0.0
 10
18.42487777317158
 20
-31.49042610323837
 30
0.0
 10
18.11016471769469
 20
-31.76396999205903
 30
0.0
 10
18.03213027326978
 20
-31.83180915870863
 30
0.0
 10
17.98461110661481
 20
-31.90314082535769
 30
0.0
 10
17.98013082883839
 20
-32.00735138088719
 30
0.0
 10
17.96411471773129
 20
-32.37699193635011
 30
0.0
 10
17.8438880510947
 20
-32.72236138070831
 30
0.0
 10
17.7255311066798
 20
-33.06741332506658
 30
0.0
 10
17.66058471780701
 20
-33.25653749168573
 30
0.0
 10
17.58272666227097
 20
-33.44153415830624
 30
0.0
 10
17.39085082898572
 20
-33.54108804717043
 30
0.0
 10
17.32262360678051
 20
-33.57675388049481
 30
0.0
 10
17.24166110680062
 20
-33.61206693604141
 30
0.0
 10
17.17364555126214
 20
-33.55558721383328
 30
0.0
 10
17.1009380512802
 20
-33.49547388051499
 30
0.0
 10
17.16468499570899
 20
-33.42622360275467
 30
0.0
 10
17.18842694014739
 20
-33.36420526943684
 30
0.0
 10
17.29560082900938
 20
-33.08360582506256
 30
0.0
 10
17.26095805124045
 20
-32.78490888069277
 30
0.0
 10
17.32505777344636
 20
-32.4474769363326
 30
0.0
 10
17.16948277348533
 20
-32.55786110297164
 30
0.0
 10
17.05271332907003
 20
-32.64108138072849
 30
0.0
 10
16.93573221798833
 20
-32.72391360293007
 30
0.0
 10
16.73852944025978
 20
-32.86378999178393
 30
0.0
 10
16.52372305142453
 20
-32.95939276953803
 30
0.0
 10
16.2787541625971
 20
-32.96750665842494
 30
0.0
 10
16.21624194039047
 20
-32.96955276953551
 30
0.0
 10
16.13252777374449
 20
-32.96870610286894
 30
0.0
 10
16.10497582930703
 20
-32.90894554732841
 30
0.0
 10
16.06860444042714
 20
-32.83002915845909
 30
0.0
 10
16.16473638484757
 20
-32.81108499179734
 30
0.0
 10
16.20675221817068
 20
-32.77009221402967
 30
0.0
 10
16.27515582926444
 20
-32.70309971404632
 30
0.0
 10
16.3516380514676
 20
-32.64418582517234
 30
0.0
 10
16.41915971811728
 20
-32.5763113807449
 30
0.0
 10
16.50305027365214
 20
-32.4920680474326
 30
0.0
 10
16.58157860696586
 20
-32.41523304745169
 30
0.0
 10
16.37763777368329
 20
-32.37148860301825
 30
0.0
 10
16.24104221816184
 20
-32.34203165858126
 30
0.0
 10
16.30736444036752
 20
-32.25316693638118
 30
0.0
 10
16.36246832924276
 20
-32.1847633252871
 30
0.0
 10
16.53095499586736
 20
-31.97496638089523
 30
0.0
 10
16.70251082915765
 20
-31.76739193650248
 30
0.0
 10
16.86665832911656
 20
-31.5543141587782
 30
0.0
 10
17.06717721795536
 20
-31.29403471439887
 30
0.0
 10
17.21188666236372
 20
-31.00482749224887
 30
0.0
 10
17.31316916233824
 20
-30.66411471455629
 30
0.0
 10
17.11713055127618
 20
-30.74419527009178
 30
0.0
 10
16.99482249575118
 20
-30.88735249227805
 30
0.0
 10
16.84376305134472
 20
-30.98672999225337
 30
0.0
 10
16.64013971806207
 20
-31.12057388110873
 30
0.0
 10
16.44360721811121
 20
-31.26732943662765
 30
0.0
 10
16.18177555151011
 20
-31.26284915885092
 30
0.0
 10
16.09668555153124
 20
-31.26129693662915
 30
0.0
 10
16.01487638488511
 20
-31.2569930477413
 30
0.0
 10
15.94372110712526
 20
-31.20361776997703
 30
0.0
 10
15.94372110712526
 20
-31.17811193664981
 30
0.0
 10
15.94372110712526
 20
-31.15260610332292
 30
0.0
 10
15.94372110712526
 20
-31.12678276999611
 30
0.0
  0
HATCH
  5
42
330
1F
100
AcDbEntity
  8
Layer 1
 62
     7
100
AcDbHatch
 10
0.0
 20
0.0
 30
0.0
210
0.0
220
0.0
230
1.0
  2
SOLID
 70
     1
 71
     0
 91
        1
 92
        1
 93
        1
 72
     4
 94
        3
 73
     0
 74
     1
 95
      806
 96
      802
 40
0.0
 40
0.0
 40
0.0
 40
0.0
 40
1.0
 40
1.0
 40
1.0
 40
2.0
 40
2.0
 40
2.0
 40
3.0
 40
3.0
 40
3.0
 40
4.0
 40
4.0
 40
4.0
 40
5.0
 40
5.0
 40
5.0
 40
6.0
 40
6.0
 40
6.0
 40
7.0
 40
7.0
 40
7.0
 40
8.0
 40
8.0
 40
8.0
 40
9.0
 40
9.0
 40
9.0
 40
10.0
 40
10.0
 40
10.0
 40
11.0
 40
11.0
 40
11.0
 40
12.0
 40
12.0
 40
12.0
 40
13.0
 40
13.0
 40
13.0
 40
14.0
 40
14.0
 40
14.0
 40
15.0
 40
15.0
 40
15.0
 40
16.0
 40
16.0
 40
16.0
 40
17.0
 40
17.0
 40
17.0
 40
18.0
 40
18.0
 40
18.0
 40
19.0
 40
19.0
 40
19.0
 40
20.0
 40
20.0
 40
20.0
 40
21.0
 40
21.0
 40
21.0
 40
22.0
 40
22.0
 40
22.0
 40
23.0
 40
23.0
 40
23.0
 40
24.0
 40
24.0
 40
24.0
 40
25.0
 40
25.0
 40
25.0
 40
26.0
 40
26.0
 40
26.0
 40
27.0
 40
27.0
 40
27.0
 40
28.0
 40
28.0
 40
28.0
 40
29.0
 40
29.0
 40
29.0
 40
30.0
 40
30.0
 40
30.0
 40
31.0
 40
31.0
 40
31.0
 40
32.0
 40
32.0
 40
32.0
 40
33.0
 40
33.0
 40
33.0
 40
34.0
 40
34.0
 40
34.0
 40
35.0
 40
35.0
 40
35.0
 40
36.0
 40
36.0
 40
36.0
 40
37.0
 40
37.0
 40
37.0
 40
38.0
 40
38.0
 40
38.0
 40
39.0
 40
39.0
 40
39.0
 40
40.0
 40
40.0
 40
40.0
 40
41.0
 40
41.0
 40
41.0
 40
42.0
 40
42.0
 40
42.0
 40
43.0
 40
43.0
 40
43.0
 40
44.0
 40
44.0
 40
44.0
 40
45.0
 40
45.0
 40
45.0
 40
46.0
 40
46.0
 40
46.0
 40
47.0
 40
47.0
 40
47.0
 40
48.0
 40
48.0
 40
48.0
 40
49.0
 40
49.0
 40
49.0
 40
50.0
 40
50.0
 40
50.0
 40
51.0
 40
51.0
 40
51.0
 40
52.0
 40
52.0
 40
52.0
 40
53.0
 40
53.0
 40
53.0
 40
54.0
 40
54.0
 40
54.0
 40
55.0
 40
55.0
 40
55.0
 40
56.0
 40
56.0
 40
56.0
 40
57.0
 40
57.0
 40
57.0
 40
58.0
 40
58.0
 40
58.0
 40
59.0
 40
59.0
 40
59.0
 40
60.0
 40
60.0
 40
60.0
 40
61.0
 40
61.0
 40
61.0
 40
62.0
 40
62.0
 40
62.0
 40
63.0
 40
63.0
 40
63.0
 40
64.0
 40
64.0
 40
64.0
 40
65.0
 40
65.0
 40
65.0
 40
66.0
 40
66.0
 40
66.0
 40
67.0
 40
67.0
 40
67.0
 40
68.0
 40
68.0
 40
68.0
 40
69.0
 40
69.0
 40
69.0
 40
70.0
 40
70.0
 40
70.0
 40
71.0
 40
71.0
 40
71.0
 40
72.0
 40
72.0
 40
72.0
 40
73.0
 40
73.0
 40
73.0
 40
74.0
 40
74.0
 40
74.0
 40
75.0
 40
75.0
 40
75.0
 40
76.0
 40
76.0
 40
76.0
 40
77.0
 40
77.0
 40
77.0
 40
78.0
 40
78.0
 40
78.0
 40
79.0
 40
79.0
 40
79.0
 40
80.0
 40
80.0
 40
80.0
 40
81.0
 40
81.0
 40
81.0
 40
82.0
 40
82.0
 40
82.0
 40
83.0
 40
83.0
 40
83.0
 40
84.0
 40
84.0
 40
84.0
 40
85.0
 40
85.0
 40
85.0
 40
86.0
 40
86.0
 40
86.0
 40
87.0
 40
87.0
 40
87.0
 40
88.0
 40
88.0
 40
88.0
 40
89.0
 40
89.0
 40
89.0
 40
90.0
 40
90.0
 40
90.0
 40
91.0
 40
91.0
 40
91.0
 40
92.0
 40
92.0
 40
92.0
 40
93.0
 40
93.0
 40
93.0
 40
94.0
 40
94.0
 40
94.0
 40
95.0
 40
95.0
 40
95.0
 40
96.0
 40
96.0
 40
96.0
 40
97.0
 40
97.0
 40
97.0
 40
98.0
 40
98.0
 40
98.0
 40
99.0
 40
99.0
 40
99.0
 40
100.0
 40
100.0
 40
100.0
 40
101.0
 40
101.0
 40
101.0
 40
102.0
 40
102.0
 40
102.0
 40
103.0
 40
103.0
 40
103.0
 40
104.0
 40
104.0
 40
104.0
 40
105.0
 40
105.0
 40
105.0
 40
106.0
 40
106.0
 40
106.0
 40
107.0
 40
107.0
 40
107.0
 40
108.0
 40
108.0
 40
108.0
 40
109.0
 40
109.0
 40
109.0
 40
110.0
 40
110.0
 40
110.0
 40
111.0
 40
111.0
 40
111.0
 40
112.0
 40
112.0
 40
112.0
 40
113.0
 40
113.0
 40
113.0
 40
114.0
 40
114.0
 40
114.0
 40
115.0
 40
115.0
 40
115.0
 40
116.0
 40
116.0
 40
116.0
 40
117.0
 40
117.0
 40
117.0
 40
118.0
 40
118.0
 40
118.0
 40
119.0
 40
119.0
 40
119.0
 40
120.0
 40
120.0
 40
120.0
 40
121.0
 40
121.0
 40
121.0
 40
122.0
 40
122.0
 40
122.0
 40
123.0
 40
123.0
 40
123.0
 40
124.0
 40
124.0
 40
124.0
 40
125.0
 40
125.0
 40
125.0
 40
126.0
 40
126.0
 40
126.0
 40
127.0
 40
127.0
 40
127.0
 40
128.0
 40
128.0
 40
128.0
 40
129.0
 40
129.0
 40
129.0
 40
130.0
 40
130.0
 40
130.0
 40
131.0
 40
131.0
 40
131.0
 40
132.0
 40
132.0
 40
132.0
 40
133.0
 40
133.0
 40
133.0
 40
134.0
 40
134.0
 40
134.0
 40
135.0
 40
135.0
 40
135.0
 40
136.0
 40
136.0
 40
136.0
 40
137.0
 40
137.0
 40
137.0
 40
138.0
 40
138.0
 40
138.0
 40
139.0
 40
139.0
 40
139.0
 40
140.0
 40
140.0
 40
140.0
 40
141.0
 40
141.0
 40
141.0
 40
142.0
 40
142.0
 40
142.0
 40
143.0
 40
143.0
 40
143.0
 40
144.0
 40
144.0
 40
144.0
 40
145.0
 40
145.0
 40
145.0
 40
146.0
 40
146.0
 40
146.0
 40
147.0
 40
147.0
 40
147.0
 40
148.0
 40
148.0
 40
148.0
 40
149.0
 40
149.0
 40
149.0
 40
150.0
 40
150.0
 40
150.0
 40
151.0
 40
151.0
 40
151.0
 40
152.0
 40
152.0
 40
152.0
 40
153.0
 40
153.0
 40
153.0
 40
154.0
 40
154.0
 40
154.0
 40
155.0
 40
155.0
 40
155.0
 40
156.0
 40
156.0
 40
156.0
 40
157.0
 40
157.0
 40
157.0
 40
158.0
 40
158.0
 40
158.0
 40
159.0
 40
159.0
 40
159.0
 40
160.0
 40
160.0
 40
160.0
 40
161.0
 40
161.0
 40
161.0
 40
162.0
 40
162.0
 40
162.0
 40
163.0
 40
163.0
 40
163.0
 40
164.0
 40
164.0
 40
164.0
 40
165.0
 40
165.0
 40
165.0
 40
166.0
 40
166.0
 40
166.0
 40
167.0
 40
167.0
 40
167.0
 40
168.0
 40
168.0
 40
168.0
 40
169.0
 40
169.0
 40
169.0
 40
170.0
 40
170.0
 40
170.0
 40
171.0
 40
171.0
 40
171.0
 40
172.0
 40
172.0
 40
172.0
 40
173.0
 40
173.0
 40
173.0
 40
174.0
 40
174.0
 40
174.0
 40
175.0
 40
175.0
 40
175.0
 40
176.0
 40
176.0
 40
176.0
 40
177.0
 40
177.0
 40
177.0
 40
178.0
 40
178.0
 40
178.0
 40
179.0
 40
179.0
 40
179.0
 40
180.0
 40
180.0
 40
180.0
 40
181.0
 40
181.0
 40
181.0
 40
182.0
 40
182.0
 40
182.0
 40
183.0
 40
183.0
 40
183.0
 40
184.0
 40
184.0
 40
184.0
 40
185.0
 40
185.0
 40
185.0
 40
186.0
 40
186.0
 40
186.0
 40
187.0
 40
187.0
 40
187.0
 40
188.0
 40
188.0
 40
188.0
 40
189.0
 40
189.0
 40
189.0
 40
190.0
 40
190.0
 40
190.0
 40
191.0
 40
191.0
 40
191.0
 40
192.0
 40
192.0
 40
192.0
 40
193.0
 40
193.0
 40
193.0
 40
194.0
 40
194.0
 40
194.0
 40
195.0
 40
195.0
 40
195.0
 40
196.0
 40
196.0
 40
196.0
 40
197.0
 40
197.0
 40
197.0
 40
198.0
 40
198.0
 40
198.0
 40
199.0
 40
199.0
 40
199.0
 40
200.0
 40
200.0
 40
200.0
 40
201.0
 40
201.0
 40
201.0
 40
202.0
 40
202.0
 40
202.0
 40
203.0
 40
203.0
 40
203.0
 40
204.0
 40
204.0
 40
204.0
 40
205.0
 40
205.0
 40
205.0
 40
206.0
 40
206.0
 40
206.0
 40
207.0
 40
207.0
 40
207.0
 40
208.0
 40
208.0
 40
208.0
 40
209.0
 40
209.0
 40
209.0
 40
210.0
 40
210.0
 40
210.0
 40
211.0
 40
211.0
 40
211.0
 40
212.0
 40
212.0
 40
212.0
 40
213.0
 40
213.0
 40
213.0
 40
214.0
 40
214.0
 40
214.0
 40
215.0
 40
215.0
 40
215.0
 40
216.0
 40
216.0
 40
216.0
 40
217.0
 40
217.0
 40
217.0
 40
218.0
 40
218.0
 40
218.0
 40
219.0
 40
219.0
 40
219.0
 40
220.0
 40
220.0
 40
220.0
 40
221.0
 40
221.0
 40
221.0
 40
222.0
 40
222.0
 40
222.0
 40
223.0
 40
223.0
 40
223.0
 40
224.0
 40
224.0
 40
224.0
 40
225.0
 40
225.0
 40
225.0
 40
226.0
 40
226.0
 40
226.0
 40
227.0
 40
227.0
 40
227.0
 40
228.0
 40
228.0
 40
228.0
 40
229.0
 40
229.0
 40
229.0
 40
230.0
 40
230.0
 40
230.0
 40
231.0
 40
231.0
 40
231.0
 40
232.0
 40
232.0
 40
232.0
 40
233.0
 40
233.0
 40
233.0
 40
234.0
 40
234.0
 40
234.0
 40
235.0
 40
235.0
 40
235.0
 40
236.0
 40
236.0
 40
236.0
 40
237.0
 40
237.0
 40
237.0
 40
238.0
 40
238.0
 40
238.0
 40
239.0
 40
239.0
 40
239.0
 40
240.0
 40
240.0
 40
240.0
 40
241.0
 40
241.0
 40
241.0
 40
242.0
 40
242.0
 40
242.0
 40
243.0
 40
243.0
 40
243.0
 40
244.0
 40
244.0
 40
244.0
 40
245.0
 40
245.0
 40
245.0
 40
246.0
 40
246.0
 40
246.0
 40
247.0
 40
247.0
 40
247.0
 40
248.0
 40
248.0
 40
248.0
 40
249.0
 40
249.0
 40
249.0
 40
250.0
 40
250.0
 40
250.0
 40
251.0
 40
251.0
 40
251.0
 40
252.0
 40
252.0
 40
252.0
 40
253.0
 40
253.0
 40
253.0
 40
254.0
 40
254.0
 40
254.0
 40
255.0
 40
255.0
 40
255.0
 40
256.0
 40
256.0
 40
256.0
 40
257.0
 40
257.0
 40
257.0
 40
258.0
 40
258.0
 40
258.0
 40
259.0
 40
259.0
 40
259.0
 40
260.0
 40
260.0
 40
260.0
 40
261.0
 40
261.0
 40
261.0
 40
262.0
 40
262.0
 40
262.0
 40
263.0
 40
263.0
 40
263.0
 40
264.0
 40
264.0
 40
264.0
 40
265.0
 40
265.0
 40
265.0
 40
266.0
 40
266.0
 40
266.0
 40
267.0
 40
267.0
 40
267.0
 40
267.0
 10
15.94372110712526
 20
-31.12678276999611
 10
16.14543944040806
 20
-31.03601304779651
 10
16.32062888480885
 20
-30.90802527005077
 10
16.46480916255056
 20
-30.74077332564801
 10
16.79603221802335
 20
-30.35543415907791
 10
17.21082832903075
 20
-30.05828943692988
 10
17.56085444005425
 20
-29.69291749257665
 10
17.68901860668887
 20
-29.55875610372138
 10
17.82561416221032
 20
-29.43126221486444
 10
17.91948832885345
 20
-29.26813777046065
 10
17.97032360661867
 20
-29.17962582603834
 10
18.05230916215369
 20
-29.13672804827146
 10
18.14360805101962
 20
-29.09778138161436
 10
18.84655305084405
 20
-28.79894332613353
 10
19.52543860622984
 20
-28.45477332621966
 10
20.14329360607542
 20
-28.00053665966668
 10
20.50623138376248
 20
-27.73404832639996
 10
20.91809943921491
 20
-27.58556415977039
 10
21.35064027244006
 20
-27.47465082646471
 10
22.87682749428089
 20
-27.08345554878467
 10
24.39281943834639
 20
-26.65486582666961
 10
25.89522943797066
 20
-26.18119110456576
 10
27.15750360432165
 20
-25.78308138244313
 10
28.44133249288977
 20
-25.55141221583422
 10
29.76855304811357
 20
-25.58637249360339
 10
30.07377638137034
 20
-25.59430999360142
 10
30.36076110352089
 20
-25.48508999362886
 10
30.64876888122656
 20
-25.40052916031664
 10
31.65062249208751
 20
-25.10578332705695
 10
32.63416693628591
 20
-24.75730943825522
 10
33.6194752693728
 20
-24.41264554945255
 10
33.89009110263849
 20
-24.31788943836501
 10
34.12624054702413
 20
-24.18679721617542
 10
34.3636247136313
 20
-24.03125749399222
 10
35.01181860235826
 20
-23.60700693854254
 10
35.75286269897959
 20
-23.44836277191581
 10
36.50734851306439
 20
-23.35395943860603
 10
37.12950832405089
 20
-23.27627777195855
 10
37.75360653682525
 20
-23.20805054975367
 10
38.38197429857203
 20
-23.19753777197844
 10
38.44829651910224
 20
-23.19633832753411
 10
38.50996207308457
 20
-23.18670749420328
 10
38.55285984976793
 20
-23.12864027199555
 10
38.87826206368846
 20
-22.69010221654974
 10
39.03740011518406
 20
-22.12837416113452
 10
38.73200040075324
 20
-21.58266221682641
 10
38.52495512825762
 20
-21.21284527247461
 10
38.23264443488636
 20
-21.12327499471933
 10
37.86212097850127
 20
-21.32478166133541
 10
37.772727091893
 20
-21.37353555021222
 10
37.68985959400713
 20
-21.43573027241893
 10
37.60889709607265
 20
-21.49792499462563
 10
37.2435604387265
 20
-21.77714860566671
 10
36.8351496158126
 20
-21.88876749452791
 10
36.3803837940813
 20
-21.81556610565717
 10
36.29285962964757
 20
-21.80141971677175
 10
36.21863610205659
 20
-21.80487693899337
 10
36.14472824453782
 20
-21.85758193897995
 10
35.86638658497225
 20
-22.05531388337514
 10
35.55234381520637
 20
-22.12438777224659
 10
35.21575943564051
 20
-22.10096332780811
 10
34.77979665797159
 20
-22.07083610559344
 10
34.3427755469697
 20
-22.01675527227365
 10
33.93693999151577
 20
-21.85638249453595
 10
33.15888860282138
 20
-21.54872499461269
 10
32.80247721402163
 20
-20.8969327725534
 10
32.62245471406666
 20
-20.12674832830168
 10
32.55323971408386
 20
-19.83048555059806
 10
32.55510943630554
 20
-19.52836666178449
 10
32.62746415850972
 20
-19.23104555074791
 10
32.70913221404481
 20
-18.89685916194231
 10
32.89790360288653
 20
-18.63400443978609
 10
33.20157471392186
 20
-18.47260860649295
 10
33.3290686027788
 20
-18.40508693984327
 10
33.385230824987
 20
-18.31706888430976
 10
33.42258999164449
 20
-18.18562388434241
 10
33.67080443602682
 20
-17.31246360678304
 10
34.00068693594424
 20
-16.47426360699252
 10
34.50745221359526
 20
-15.71462721829356
 10
34.82061304685038
 20
-15.2453974961886
 10
35.21833471341773
 20
-14.85783582961873
 10
35.67705075646927
 20
-14.53313916303325
 10
35.90737936170421
 20
-14.3705438852961
 10
36.14472824453782
 20
-14.21789694089004
 10
36.3803837940813
 20
-14.06270999648428
 10
36.82033294952394
 20
-13.77314999655684
 10
37.27333488241134
 20
-13.76764666322466
 10
37.72016320434513
 20
-14.03547555204674
 10
37.88572181123249
 20
-14.1347119409107
 10
38.03695764070748
 20
-14.16572110756977
 10
38.22625819143357
 20
-14.12282332980257
 10
39.07874566968481
 20
-13.93108860762837
 10
39.85958398309729
 20
-14.12677444091267
 10
40.50604924438237
 20
-14.69195971854917
 10
40.99662200964459
 20
-15.12121971844191
 10
41.49686088577133
 20
-15.16962082954096
 10
42.07047753780381
 20
-14.96257555181486
 10
42.19691309013373
 20
-14.91727888515966
 10
42.32370142023242
 20
-14.86852499628285
 10
42.45461725022582
 20
-14.84181971851163
 10
42.69884529955059
 20
-14.79168999630193
 10
42.88662890587094
 20
-14.92242944071376
 10
42.89280251682455
 20
-15.17064388509609
 10
42.90211584992029
 20
-15.51707166278725
 10
43.03476029098069
 20
-15.76147610717084
 10
43.36824111580621
 20
-15.88240832936264
 10
43.4047536148747
 20
-15.89602555158141
 10
43.45093332247048
 20
-15.92029666268645
 10
43.44818055821123
 20
-15.95769110712179
 10
43.43092972531801
 20
-16.17591944040049
 10
43.55598944434969
 20
-16.30253138481334
 10
43.71308138478638
 20
-16.42293444033881
 10
43.77545249430628
 20
-16.47084166254907
 10
43.74719499502719
 20
-16.56884332919117
 10
43.74373887795281
 20
-16.64412610695
 10
43.73788166193145
 20
-16.7536636069228
 10
43.78028554973853
 20
-16.79966582913352
 10
43.89257471354046
 20
-16.82136166246136
 10
44.35524275729237
 20
-16.90955610688376
 10
44.50718414230492
 20
-17.16690749570812
 10
44.35834720165762
 20
-17.61320666226339
 10
44.25364275988441
 20
-17.92636749551852
 10
44.08480331974742
 20
-18.20389777322679
 10
43.85020610351027
 20
-18.44142305094532
 10
43.30897445065157
 20
-18.98935749525256
 10
42.99718945860587
 20
-19.63737499509065
 10
43.02167223575903
 20
-20.42131777267249
 10
43.03405473544313
 20
-20.80856193924244
 10
43.18564443364777
 20
-21.18028388359377
 10
43.12708332255156
 20
-21.61420055015212
 10
43.50878887801181
 20
-21.27761527245852
 10
43.72377055118035
 20
-20.88589082811184
 10
43.95046665567931
 20
-20.50245666154094
 10
44.70495135948168
 20
-19.22723555074885
 10
45.38154384222036
 20
-17.91345582885495
 10
45.96447498850876
 20
-16.55042832919575
 10
46.15289243365273
 20
-16.10977360708369
 10
46.39923714959018
 20
-15.69395444052084
 10
46.61249131081627
 20
-15.2634949961841
 10
46.70583630843485
 20
-15.07437082956462
 10
46.78785832163651
 20
-14.87868499628032
 10
46.86709102654311
 20
-14.6831755518849
 10
46.95182824660351
 20
-14.47457805193704
 10
46.98767046791132
 20
-14.26372277421188
 10
46.97871109936631
 20
-14.03050138538121
 10
46.95733157979645
 20
-13.48581249662853
 10
47.05931963275007
 20
-12.9463094412078
 10
47.09823102064625
 20
-12.4035608302325
 10
47.15128879707041
 20
-11.6566597193079
 10
47.21570601764921
 20
-10.91060527505019
 10
47.26738796077514
 20
-10.16388055301448
 10
47.31010934857411
 20
-9.543944164280818
 10
47.33078332150038
 20
-8.922631942213632
 10
47.30323018208295
 20
-8.301460831257808
 10
47.28495629366027
 20
-7.892203331360424
 10
47.24466907246585
 20
-7.484286387017762
 10
47.1151290757707
 20
-7.090868609338274
 10
47.0606954660483
 20
-6.924992498268719
 10
46.96283609937026
 20
-6.834046387180233
 10
46.78475269531041
 20
-6.784939720525978
 10
46.32550659591564
 20
-6.657481109446882
 10
45.89278938473296
 20
-6.465746387272355
 10
45.53246217170345
 20
-6.139003609576305
 10
45.41805634128885
 20
-6.035463331824494
 10
45.32506412143906
 20
-5.920739998519763
 10
45.25616662319678
 20
-5.776912498555808
 10
45.07494468337569
 20
-5.397605831983889
 10
44.78898302400452
 20
-5.121663054275222
 10
44.4248458110722
 20
-4.899095554330825
 10
44.0365785987555
 20
-4.662064165501095
 10
43.62626387798263
 20
-4.531501109978148
 10
43.18497306492622
 20
-4.467260276660878
 10
43.12500084423402
 20
-4.458476109996607
 10
43.03959443368469
 20
-4.464684998883989
 10
43.02167223575903
 20
-4.390778054457724
 10
43.00272806957567
 20
-4.313096387810566
 10
43.0726486233474
 20
-4.263319443378627
 10
43.12948112189749
 20
-4.223349721166405
 10
43.41163278136587
 20
-4.024559443438252
 10
43.73343666204486
 20
-4.028686943437227
 10
44.05449970940941
 20
-4.065199443428158
 10
44.2922013700118
 20
-4.092081110087934
 10
44.5216480308248
 20
-4.167540276735965
 10
44.71941524800156
 20
-4.302054443369006
 10
44.93094079816065
 20
-4.445740832221921
 10
45.16659634770413
 20
-4.518942221092343
 10
45.40532221087108
 20
-4.592990276629648
 10
45.51866856094424
 20
-4.627985832176334
 10
45.62407855825501
 20
-4.62675110995449
 10
45.71435554412723
 20
-4.553055832194945
 10
45.81355549786549
 20
-4.471740554437614
 10
45.74123605526607
 20
-4.373562498906622
 10
45.71502466704589
 20
-4.287061387817032
 10
45.59927828110994
 20
-3.905884999023427
 10
45.42084443308938
 20
-3.567923887996937
 10
45.06390273921295
 20
-3.351216026939849
 10
44.99433609986241
 20
-3.309013221395114
 10
44.92610774272839
 20
-3.248554165854433
 10
44.88409191046697
 20
-3.180341054760622
 10
44.70011943326968
 20
-2.886300777056128
 10
44.40106858945659
 20
-2.752287554867585
 10
44.11203887786069
 20
-2.602251166016247
 10
43.87327776958832
 20
-2.478401471602548
 10
43.63282444238946
 20
-2.356100471633246
 10
43.42267472552861
 20
-2.185052638342505
 10
43.25662222976496
 20
-2.049660055043068
 10
43.1422527669921
 20
-1.884468332862269
 10
43.15809139894536
 20
-1.657780388474593
 10
43.16634639873475
 20
-1.540647582948149
 10
43.21114917536952
 20
-1.481564360740674
 10
43.32622528354479
 20
-1.576475694050326
 10
43.39441722624952
 20
-1.633145916258401
 10
43.46437305779813
 20
-1.68620369402275
 10
43.58975027682171
 20
-1.69825811068669
 10
43.43230555861624
 20
-1.548743832946299
 10
43.30759861735334
 20
-1.404909277426647
 10
43.24695611890046
 20
-1.220942721916964
 10
43.2256130638894
 20
-1.155139083044545
 10
43.20906778653373
 20
-1.082622083062557
 10
43.21319528642843
 20
-1.014924027523994
 10
43.21940417515891
 20
-0.9065753886621423
 10
43.26212556295789
 20
-0.8609294720068668
 10
43.370322504642
 20
-0.9467109164298619
 10
43.6383277755824
 20
-1.158758583043646
 10
43.94358637890571
 20
-1.30793066633966
 10
44.28878054448325
 20
-1.474156027409287
 10
44.2436249889394
 20
-1.384582221875998
 10
44.2136730386819
 20
-1.327396944112674
 10
44.18541665562032
 20
-1.269689555238083
 10
44.12858304085272
 20
-1.154451166378102
 10
44.07446693112222
 20
-1.038006277518422
 10
44.07725387549557
 20
-0.9050266942180647
 10
44.07827693102502
 20
-0.846116333121782
 10
44.08448581975551
 20
-0.7816920553602557
 10
44.14029526277614
 20
-0.7527536942562076
 10
44.21434443339098
 20
-0.7145125831546306
 10
44.23709748252873
 20
-0.7922013053574849
 10
44.27223414829898
 20
-0.8311303331255043
 10
44.764888302397
 20
-1.373388582990014
 10
45.32400578813272
 20
-1.834857193985827
 10
45.95964077191633
 20
-2.208649943892181
 10
45.9038313288957
 20
-2.125108638357715
 10
45.84802188587507
 20
-2.041909527267304
 10
45.79288272061512
 20
-1.958191832843636
 10
45.71502466704589
 20
-1.839510332873435
 10
45.65060744646708
 20
-1.71341697179384
 10
45.622349947188
 20
-1.573720499606548
 10
45.60411133654219
 20
-1.483113055184751
 10
45.56068439320566
 20
-1.359436221882244
 10
45.66888133488977
 20
-1.316541971893059
 10
45.75707577708419
 20
-1.281920360790583
 10
45.79288272061512
 20
-1.40628863853722
 10
45.84251855268214
 20
-1.466059777411138
 10
46.00338521524476
 20
-1.658295444029843
 10
46.17014443290198
 20
-1.843472027316914
 10
46.37478965021388
 20
-1.98988891616915
 10
46.46019714803496
 20
-2.051035888376274
 10
46.52394409085308
 20
-2.127518110579107
 10
46.57425020068077
 20
-2.219332055000603
 10
46.71687825259759
 20
-2.479607971602248
 10
46.88257797059246
 20
-2.725243610429679
 10
47.1151290757707
 20
-2.912483943716398
 10
47.30185554373035
 20
-3.062516804790048
 10
47.40691156832671
 20
-3.254752471408431
 10
47.50339628808739
 20
-3.468867415799551
 10
47.82893961311542
 20
-4.193010832285015
 10
48.13176404983417
 20
-4.932186109877983
 10
48.5196784843821
 20
-5.622219443038854
 10
48.79082347746461
 20
-6.105560276251385
 10
48.86247264230336
 20
-6.619733887234107
 10
48.97342125058393
 20
-7.135494998216113
 10
49.33272540808399
 20
-8.807555831131461
 10
49.66140845525414
 20
-10.48550805293427
 10
49.88358789403031
 20
-12.18236916362099
 10
49.99693539113858
 20
-13.04621610784944
 10
50.08548261110177
 20
-13.9130263854107
 10
50.05172177862975
 20
-14.78653944074783
 10
50.03553054304687
 20
-15.18665999620318
 10
49.93664567045447
 20
-15.56409694055342
 10
49.795075951844
 20
-15.94132221823693
 10
49.53910040281892
 20
-16.62500555139938
 10
49.3265165193535
 20
-17.32470499566892
 10
49.09329513641458
 20
-18.01664332882932
 10
48.39154959876205
 20
-20.09870249497542
 10
47.68941600556386
 20
-22.18072638334367
 10
46.98283741247907
 20
-24.261233327268
 10
46.9380346358443
 20
-24.39281943834639
 10
46.9539096354393
 20
-24.4894452716553
 10
47.03727221046316
 20
-24.5966191605176
 10
47.27292776595969
 20
-24.89958471599741
 10
47.51405017670448
 20
-25.19810527147832
 10
47.76452239253663
 20
-25.48992304918304
 10
48.39461876535042
 20
-26.22285416011111
 10
48.57792209400729
 20
-27.08225610434067
 10
48.42358182016707
 20
-28.02343193743852
 10
48.37535832123964
 20
-28.31472054847692
 10
48.2940418234719
 20
-28.59704860396185
 10
48.199638492547
 20
-28.87747165944726
 10
48.0887251620433
 20
-29.20700138158724
 10
48.08456238437172
 20
-29.55769777038841
 10
48.03291571902268
 20
-29.89862221474771
 10
47.84202766833707
 20
-31.17243221442907
 10
47.61088887698586
 20
-32.43833999189057
 10
47.31356657070813
 20
-33.69165360268809
 10
47.27980573823611
 20
-33.83530471376349
 10
47.29324657122654
 20
-33.88508165819542
 10
47.45238462272214
 20
-33.82704971376554
 10
48.92209208522679
 20
-33.28874610278881
 10
50.37144427047295
 20
-32.7058513807124
 10
51.70572034754385
 20
-31.87435415869807
 10
52.13117033668971
 20
-31.60927693654208
 10
52.53598282636208
 20
-31.31470749217126
 10
52.86635920682237
 20
-30.9336722144887
 10
52.9642197598813
 20
-30.82187693673894
 10
53.05551864644095
 20
-30.80483777007672
 10
53.15884725491593
 20
-30.89666582560929
 10
53.33904613920756
 20
-31.05650943668034
 10
53.49818419070317
 20
-31.01964415891165
 10
53.68907224138876
 20
-30.90008777005274
 10
54.05218639879162
 20
-30.67219332566536
 10
54.43114165305877
 20
-30.46980471460488
 10
54.80250943520484
 20
-30.25482193688075
 10
54.88795221080279
 20
-30.20486860355993
 10
54.96030831959314
 20
-30.1743886035675
 10
55.02818137389191
 20
-30.28272665909597
 10
55.39094275352598
 20
-30.85651971450818
 10
55.76576913285226
 20
-31.42237526992205
 10
56.04135912582137
 20
-32.04749749198829
 10
56.21224467701727
 20
-32.4359058252244
 10
56.21362051031551
 20
-32.82159776957226
 10
56.13713829004451
 20
-33.22933832502604
 10
55.99934329355995
 20
-33.9548611026224
 10
55.89393329624919
 20
-34.69537693577073
 10
55.46329747390229
 20
-35.31499582450446
 10
55.27897108971595
 20
-35.5813077688823
 10
55.18904803645453
 20
-35.80884943549223
 10
55.26380164565852
 20
-36.13199387985595
 10
55.3165066443139
 20
-36.35815971313269
 10
55.24175303510991
 20
-36.60189387973828
 10
55.19765581401271
 20
-36.83497415745791
 10
55.17906442559812
 20
-36.93227026854482
 10
55.09845470543242
 20
-36.98000110186619
 10
55.02955720719014
 20
-37.03665721296319
 10
54.47350888804279
 20
-37.49382193507083
 10
53.94053223497349
 20
-37.96495665717532
 10
53.63876613156107
 20
-38.64828721256001
 10
53.44823085864425
 20
-39.07892304578595
 10
53.10339058966408
 20
-39.37761999015574
 10
52.67137893401895
 20
-39.56984860121874
 10
52.53700588189154
 20
-39.6303147123148
 10
52.40439671860801
 20
-39.69473193452063
 10
52.26967220915454
 20
-39.75382221228381
 10
51.89967756481781
 20
-39.91729943446503
 10
51.54206674060789
 20
-40.10229610108554
 10
51.20033091599296
 20
-40.32003054547543
 10
51.07251953036481
 20
-40.40131054545525
 10
51.03805314235523
 20
-40.4777927676584
 10
51.13037508444435
 20
-40.61389443429105
 10
51.19722776497854
 20
-40.71277804537756
 10
51.24269952602315
 20
-40.83057054534798
 10
51.27956480286042
 20
-40.94529387865239
 10
51.34363054271939
 20
-41.14097971193701
 10
51.30782230213951
 20
-41.17992637859379
 10
51.10832776500062
 20
-41.14958748971272
 10
50.5815939873338
 20
-41.06897776751028
 10
50.05242733416731
 20
-41.03317082307519
 10
49.51909790332923
 20
-41.05105665640397
 10
49.24248609880019
 20
-41.06036998973521
 10
48.96996402844992
 20
-41.09413082306004
 10
48.70467514632911
 20
-41.17301193415121
 10
48.60476848221127
 20
-41.20229248969963
 10
48.50281570703453
 20
-41.21989610080634
 10
48.4008276540809
 20
-41.20885415636445
 10
47.84925961259702
 20
-41.14958748971272
 10
47.4872037885005
 20
-41.51340721184419
 10
47.0868715764916
 20
-41.79245443399638
 10
47.01176518951884
 20
-41.84448915620529
 10
47.05071185519189
 20
-41.8971941561922
 10
47.0868715764916
 20
-41.95575526728905
 10
47.63981665475652
 20
-42.85664387817444
 10
48.18792627062358
 20
-43.75961387794887
 10
48.74259998781423
 20
-44.65877387772425
 10
49.71238609868283
 20
-46.23110443288684
 10
50.59605787585369
 20
-47.8496135991484
 10
51.37636702261301
 20
-49.52393220984104
 10
51.84453839955786
 20
-50.52853748736775
 10
52.33754533142464
 20
-51.51966665378706
 10
52.90149720899697
 20
-52.47569443132552
 10
53.13164808894317
 20
-52.86636054233924
 10
53.3362944726111
 20
-53.27702915334768
 10
53.50647446826945
 20
-53.69732859768694
 10
53.74625751770763
 20
-54.28713776420593
 10
54.11692111936232
 20
-54.79009304185789
 10
54.48176388783218
 20
-55.29862220839771
 10
55.23935554174598
 20
-56.35487415257806
 10
56.00138940461886
 20
-57.4069985967591
 10
56.7589796630689
 20
-58.46258026316208
 10
56.9036891038215
 20
-58.66274637422312
 10
56.96983493546731
 20
-58.9008008186083
 10
57.05457215552771
 20
-59.12816609632934
 10
57.59026665226896
 20
-60.56340720708169
 10
58.15287518306322
 20
-61.98725359561438
 10
58.89046294202357
 20
-63.33359470638881
 10
59.37588515186164
 20
-64.21797331727893
 10
59.92604208227041
 20
-65.05786665040195
 10
60.61092484257537
 20
-65.80374470577141
 10
60.76184317205846
 20
-65.96873887239656
 10
60.91272776254934
 20
-66.13412109457764
 10
61.10633066326985
 20
-66.2557235945471
 10
61.23555315997311
 20
-66.33739165008221
 10
61.31789149120581
 20
-66.46245137227297
 10
61.36749204549596
 20
-66.60335081668228
 10
61.62516092781117
 20
-67.33645831649922
 10
62.07029591645482
 20
-67.96690748300811
 10
62.4592334065322
 20
-68.62907137173161
 10
62.83028506373255
 20
-69.25881498268498
 10
63.25333616405073
 20
-69.85412748253616
 10
63.64125059859865
 20
-70.4725116490487
 10
63.90445809188367
 20
-70.89249359338771
 10
64.02158031111786
 20
-71.36309914882588
 10
64.1214869752357
 20
-71.84231248203912
 10
64.31957169240435
 20
-72.78796859291434
 10
64.27480419354647
 20
-73.74053914823152
 10
64.2338114168145
 20
-74.69448553688221
 10
64.22897836138225
 20
-74.80370553685444
 10
64.18523391805381
 20
-74.87225025905988
 10
64.08222280957074
 20
-74.91359581460468
 10
63.77837531732253
 20
-75.03692692568544
 10
63.47107220635434
 20
-75.14512387010255
 10
63.14309311130771
 20
-75.18026053676027
 10
63.02043228110372
 20
-75.19334859231304
 10
62.9198553392252
 20
-75.17267581454033
 10
62.829579508195
 20
-75.07897803678574
 10
62.185689524622
 20
-74.40580748139854
 10
61.59072981757846
 20
-73.69679470379808
 10
61.09807566348045
 20
-72.90202164844139
 10
60.73979456150985
 20
-72.32357192636324
 10
60.61371178694871
 20
-71.68966553763305
 10
60.52414151145607
 20
-71.0289127600206
 10
60.41181706987726
 20
-70.19656887134002
 10
60.23267651889196
 20
-69.37526692710068
 10
59.84955986199941
 20
-68.61527776062397
 10
59.71797375424534
 20
-68.3551747051332
 10
59.55813014721218
 20
-68.12089498296955
 10
59.31901737553468
 20
-67.94313026079188
 10
59.17088599042494
 20
-67.83323998304164
 10
59.0747893262099
 20
-67.6706447053045
 10
59.0365482160744
 20
-67.49527887201484
 10
58.97865738421798
 20
-67.22413387208282
 10
58.82085988824373
 20
-67.02019303880024
 10
58.64965831867099
 20
-66.82037970551697
 10
57.32261270424498
 20
-65.26801637257158
 10
55.88049246325875
 20
-63.83760831737406
 10
54.27817583747059
 20
-62.56707915102478
 10
52.83467976318613
 20
-61.42227998464428
 10
51.72604165373516
 20
-60.00287859611048
 10
50.94573120026612
 20
-58.32961831875113
 10
50.69321287337506
 20
-57.78870415221935
 10
50.46239165405095
 20
-57.23957026346778
 10
50.30113566115556
 20
-56.66630637472221
 10
50.20468621917175
 20
-56.32386498591898
 10
50.03313039021517
 20
-56.03310554154754
 10
49.82160484005608
 20
-55.75853859717176
 10
49.26795540973641
 20
-55.03710804179654
 10
48.70192347973264
 20
-54.32569637530743
 10
48.15864571581503
 20
-53.59671637548978
 10
47.36524851383406
 20
-52.5311510979782
 10
46.37718853904157
 20
-51.6530166537533
 10
45.43943467407678
 20
-50.72559915398526
 10
44.49617747591905
 20
-49.79299582088527
 10
43.57355777723482
 20
-48.84113082112299
 10
42.678525300069
 20
-47.8616785991454
 10
42.62617307918239
 20
-47.80347026582695
 10
42.58101752477885
 20
-47.69425026585408
 10
42.49592752694968
 20
-47.72007359918121
 10
42.42978169530387
 20
-47.7393705436204
 10
42.43256863967721
 20
-47.8516949880368
 10
42.41119030688928
 20
-47.92404971024131
 10
42.09563059271766
 20
-49.02164720996707
 10
41.70115554513046
 20
-50.09031693192218
 10
41.27570554523678
 20
-51.14932054276829
 10
41.01387284253782
 20
-51.80114804260543
 10
40.92910034470054
 20
-52.48532526465636
 10
40.94254117769098
 20
-53.18262582003757
 10
40.94529284428744
 20
-53.334214431111
 10
40.91738812277713
 20
-53.47200943107613
 10
40.86711729072631
 20
-53.61326165326319
 10
40.63456618554807
 20
-54.26371331976745
 10
40.37513341438898
 20
-54.90725054182847
 10
40.2800598057034
 20
-55.59901248609999
 10
40.26146943437922
 20
-55.73405581939999
 10
40.19133619685581
 20
-55.85258915270346
 10
40.12088647643091
 20
-55.96762998600811
 10
39.89094592674163
 20
-56.34418498591393
 10
39.78775842937416
 20
-56.75725248581038
 10
39.7911803737313
 20
-57.19480276347922
 10
39.80289259565473
 20
-58.6234822075661
 10
39.81428731758624
 20
-60.05216165165361
 10
39.83563037259729
 20
-61.48048831796337
 10
39.85199926106857
 20
-62.54982831769584
 10
39.87612926045296
 20
-63.61955637298423
 10
39.91056037068567
 20
-64.68854359493893
 10
39.95430481401409
 20
-66.0521355390423
 10
40.00891481262088
 20
-67.41502192759079
 10
40.06472425564151
 20
-68.77787303836111
 10
40.09781481035285
 20
-69.57162303816267
 10
40.20393036320117
 20
-70.35641248241076
 10
40.3144909159361
 20
-71.14363609332501
 10
40.54326729898841
 20
-72.78175970402664
 10
40.58048535359445
 20
-74.41681414806226
 10
40.17704869722031
 20
-76.04703553654369
 10
39.93846509219598
 20
-77.0095897029701
 10
39.78084398510612
 20
-77.99281664716858
 10
39.66545037693894
 20
-78.978830535811
 10
39.6426972123114
 20
-79.17105914687369
 10
39.56452065729165
 20
-79.24891720240971
 10
39.38139371751917
 20
-79.2578777579632
 10
39.12026761306993
 20
-79.27026025796044
 10
38.86101123079523
 20
-79.3184849801703
 10
38.59660429309637
 20
-79.2785505357359
 10
38.46879290746822
 20
-79.25925359129607
 10
38.40938610150891
 20
-79.20686609130941
 10
38.38352652075466
 20
-79.07873720245263
 10
38.15358597106538
 20
-77.95492831384445
 10
37.90604181071409
 20
-76.8366580363466
 10
37.6903887606603
 20
-75.71009748107265
 10
37.51191943506633
 20
-74.77752942575019
 10
37.13744488587818
 20
-73.93932942595967
 10
36.43584045933316
 20
-73.2737435927924
 10
36.24809213078968
 20
-73.09597887061473
 10
36.02880546971748
 20
-72.96643887064755
 10
35.78404825373954
 20
-72.87962025955804
 10
35.555624648456
 20
-72.7976347040227
 10
35.47106381727999
 20
-72.68118275960764
 10
35.46915881732859
 20
-72.43589637077964
 10
35.46672465072403
 20
-72.06311609309535
 10
35.67242936769829
 20
-71.78339859316515
 10
35.89824241749287
 20
-71.51708664878731
 10
36.1147774119686
 20
-71.26111109329584
 10
36.37745573860045
 20
-71.05508887112485
 10
36.64461434289578
 20
-70.8559810933971
 10
36.79242822801362
 20
-70.74573803786912
 10
36.89974322527579
 20
-70.6092835934587
 10
36.97862433437447
 20
-70.44323109350027
 10
37.29817043733328
 20
-69.76663859366928
 10
37.34449015837379
 20
-69.05004109384888
 10
37.2941840485461
 20
-68.3196852606977
 10
37.18877499070294
 20
-66.79180470552407
 10
36.65720850924114
 20
-65.38859581698593
 10
36.0487726914303
 20
-64.00471915066578
 10
35.52013610223104
 20
-62.8013235954109
 10
35.15356471343381
 20
-61.55040887350106
 10
35.01957971346741
 20
-60.23853415160701
 10
34.91896749127025
 20
-59.25082692963147
 10
34.98063304681031
 20
-58.26897581876587
 10
35.13705471343791
 20
-57.29054665234405
 10
35.30931521029543
 20
-56.21499776372387
 10
35.58472881438016
 20
-55.16047443065418
 10
35.83262575250022
 20
-54.10108276425279
 10
35.95440554656684
 20
-53.57950081993835
 10
35.96128380477344
 20
-53.04793526451597
 10
35.97645324883088
 20
-52.51566415353807
 10
36.01381241454443
 20
-51.18586832053707
 10
35.87912186242512
 20
-49.86912526531067
 10
35.71359853331464
 20
-48.55174721008443
 10
35.55477798181094
 20
-47.29218943262136
 10
35.51791270497367
 20
-46.0244119329385
 10
35.5418310376968
 20
-44.75490582214435
 10
35.55043881525497
 20
-44.28740471115036
 10
35.53322326013862
 20
-43.81990360015637
 10
35.57612103682198
 20
-43.35271998916198
 10
35.59404214747589
 20
-43.15534082254423
 10
35.57922548118722
 20
-42.95690332259383
 10
35.53322326013862
 20
-42.75190415597862
 10
35.4491563178389
 20
-42.75811304486633
 10
35.41955826303845
 20
-42.82771610040442
 10
35.378706597414
 20
-42.87766943372491
 10
35.14308721343641
 20
-43.16532443365282
 10
34.92447082460211
 20
-43.4660674891335
 10
34.72363443576339
 20
-43.7789108223887
 10
34.65145610244809
 20
-43.89052971124958
 10
34.59356526912924
 20
-43.92704221124019
 10
34.46663582471679
 20
-43.84470387792773
 10
33.96590304706395
 20
-43.51983082245369
 10
33.42019110275616
 20
-43.31691304472624
 10
32.82625443623787
 20
-43.22561415586032
 10
32.3063658252569
 20
-43.14602748921363
 10
31.80065888093884
 20
-42.99891915591662
 10
31.3259258255017
 20
-42.76188776708722
 10
31.21617665886251
 20
-42.70745415598966
 10
31.1121424922219
 20
-42.6440952671168
 10
31.02221943668885
 20
-42.56140415602658
 10
30.81654999229596
 20
-42.37122165607414
 10
30.81810221451773
 20
-42.17624137834504
 10
31.02652332557671
 20
-41.98711721172524
 10
31.13934165888191
 20
-41.88548193397295
 10
31.25992110329627
 20
-41.7910786006635
 10
31.35139638105107
 20
-41.67116943402651
 10
31.33502749216622
 20
-41.65395387847509
 10
31.3259258255017
 20
-41.63673832292431
 10
31.31883499217024
 20
-41.63740860070167
 10
30.99741915891716
 20
-41.68358721180127
 10
30.76349221453129
 20
-41.53958332294844
 10
30.54353527014194
 20
-41.31909721189245
 10
30.34545054796931
 20
-41.12065971194206
 10
30.11427527024921
 20
-40.95460721198363
 10
29.89463582585978
 20
-40.77821832313883
 10
29.76371999255907
 20
-40.67280832316501
 10
29.61731721481791
 20
-40.59495026762897
 10
29.44935971485994
 20
-40.56256526763702
 10
29.33463638155521
 20
-40.54051665653142
 10
29.32518193711326
 20
-40.49056332321092
 10
29.41249443709125
 20
-40.41270526767489
 10
29.56062582594306
 20
-40.28073110104089
 10
29.70604082590694
 20
-40.14519387885272
 10
29.85142054809266
 20
-40.0096213788864
 10
29.88602804808407
 20
-39.97723637889445
 10
29.95235027028975
 20
-39.95536415667772
 10
29.93114832585039
 20
-39.8933458233599
 10
29.91481471474337
 20
-39.84649693448294
 10
29.85452499253651
 20
-39.85510471225832
 10
29.81265027032476
 20
-39.84614415670517
 10
29.35513277043905
 20
-39.74951832339595
 10
28.89884999277517
 20
-39.64717749008814
 10
28.43875721511256
 20
-39.56314582344256
 10
28.236686104052
 20
-39.52628054567387
 10
28.12160999296951
 20
-39.42566832347703
 10
28.06149665965121
 20
-39.23410999019139
 10
27.79881832638355
 20
-38.39714471262302
 10
27.65428527086407
 20
-37.54275221283653
 10
27.65982388197409
 20
-36.6639122130561
 10
27.66067054864034
 20
-36.52505887975768
 10
27.7223361041804
 20
-36.45771360199656
 10
27.85240527081454
 20
-36.42053082422827
 10
28.09010693742195
 20
-36.35247999091195
 10
28.32403388180783
 20
-36.27169387982094
 10
28.55587943730562
 20
-36.16420249095903
 10
28.12972388185642
 20
-36.12888943541211
 10
27.70374471529641
 20
-36.08807304653364
 10
27.27670721540312
 20
-36.06119137987354
 10
27.13390277099429
 20
-36.05205443543151
 10
27.05417499323656
 20
-36.00608749099862
 10
27.02316582657749
 20
-35.8598258243685
 10
26.65797027111315
 20
-34.1272988803571
 10
26.82987888218152
 20
-32.47294749188165
 10
27.7223361041804
 20
-30.91747971449272
 10
27.82121971526691
 20
-30.74627665898019
 10
27.90786193746754
 20
-30.71734888120952
 10
28.08509749297858
 20
-30.80984721451977
 10
29.498960270403
 20
-31.54863443655714
 10
30.91956110338113
 20
-32.27401610304246
 10
32.33151888080602
 20
-33.01608415841255
 10
32.53789388075445
 20
-33.12424582505214
 10
32.70652165849009
 20
-33.15454943615569
 10
32.88844915844458
 20
-32.99953888063914
 10
33.02864304729836
 20
-32.88086443622431
 10
33.15525499171122
 20
-32.91649499177084
 10
33.30613804722911
 20
-33.00299610286043
 10
34.47764249138051
 20
-33.67630776935868
 10
35.6541554792756
 20
-34.34242276919227
 10
36.83049294926473
 20
-35.00818499124809
 10
37.127108497253
 20
-35.17596610231717
 10
37.13656387960483
 20
-35.16771110231922
 10
37.40220554620498
 20
-34.94775415792987
 10
38.1048320834203
 20
-34.36584721363075
 10
38.84654734227534
 20
-33.84098443598423
 10
39.66305148811126
 20
-33.42964554719811
 10
39.8252939839721
 20
-33.34801276944086
 10
39.91694564830054
 20
-33.23914554724576
 10
39.96171314715843
 20
-33.06173360284584
 10
40.06387758899644
 20
-32.65589804739159
 10
40.1408889759206
 20
-32.24988610304877
 10
40.11813480983444
 20
-31.82838721426518
 10
40.10917425450749
 20
-31.6666386031946
 10
40.05802147803473
 20
-31.53794526989334
 10
39.94276898097507
 20
-31.41856526992299
 10
39.02759289321205
 20
-30.47548443682562
 10
38.13633610157705
 20
-29.51120165928888
 10
37.39133904606746
 20
-28.42274110400547
 10
37.29058571530457
 20
-28.2747508262647
 10
37.1794607181396
 20
-28.13025304852306
 10
37.10160266457037
 20
-27.97037415967417
 10
37.01203332408038
 20
-27.78710610416431
 10
36.87130933711231
 20
-27.72043110418087
 10
36.68356100856884
 20
-27.68169610419081
 10
35.88032221325201
 20
-27.51564360423206
 10
35.08985304678318
 20
-27.60277971532149
 10
34.30315860253524
 20
-27.78315499305421
 10
33.30426832500743
 20
-28.0124252707748
 10
32.30449610303489
 20
-28.23428721516367
 10
31.2818286032905
 20
-28.33849777069316
 10
31.11990360333105
 20
-28.35486665957802
 10
30.96556332559185
 20
-28.43875721511256
 10
30.80483777007672
 20
-28.48010277065767
 10
29.98025499250496
 20
-28.69247499282675
 10
29.13708082604922
 20
-28.73865360392636
 10
28.29009665959411
 20
-28.75809165947723
 10
27.06451138212292
 20
-28.78617277058133
 10
25.8461227713164
 20
-28.66439388172265
 10
24.62452388273282
 20
-28.60876082618109
 10
23.96564082734206
 20
-28.57912749285522
 10
23.30502916084034
 20
-28.55965415952684
 10
22.64960332767087
 20
-28.67197860394324
 10
22.49095916104382
 20
-28.69921304838078
 10
22.33524304997174
 20
-28.73692499281571
 10
22.18933416111938
 20
-28.80444665946571
 10
22.0711888833712
 20
-28.85923304834071
 10
21.96161610562057
 20
-28.93088221498937
 10
21.93783888340432
 20
-29.07386304828708
 10
21.85550055009155
 20
-29.56373027038691
 10
21.61571749459605
 20
-29.99041499250244
 10
21.38799943909756
 20
-30.4194986035063
 10
21.15100332804566
 20
-30.86650332561678
 10
20.87657749478092
 20
-31.28817860328893
 10
20.55121055041776
 20
-31.6817727698573
 10
20.29213055048243
 20
-31.9946161031125
 10
20.08766055053354
 20
-32.35339110302274
 10
19.86579860614466
 20
-32.69600888071485
 10
19.77813332838891
 20
-32.8314049917923
 10
19.73297777284442
 20
-32.98645082508669
 10
19.71336332840499
 20
-33.14802304726871
 10
19.70644888396241
 20
-33.2028094361437
 10
19.71420999507156
 20
-33.2742822139038
 10
19.64753499508812
 20
-33.29495499167619
 10
19.58604582843694
 20
-33.31425193611602
 10
19.53990249511518
 20
-33.26309915835088
 10
19.49598166179254
 20
-33.22725693613763
 10
19.33903082849861
 20
-33.09926915839189
 10
19.31733499517078
 20
-32.91910554732589
 10
19.33095221738955
 20
-32.73753082514884
 10
19.35903332849365
 20
-32.36203415857629
 10
19.43498638403016
 20
-32.01200804755248
 10
19.74109166173134
 20
-31.73638276984373
 10
19.88664777280626
 20
-31.60497304765422
 10
19.97674721722818
 20
-31.40445415881542
 10
19.99928971722226
 20
-31.19052971442458
 10
20.02271416166106
 20
-30.96623360336953
 10
19.95483971723362
 20
-30.86082360339604
 10
19.72867388395657
 20
-30.83619971451323
 10
19.50113221734696
 20
-30.81171693674146
 10
19.28152805073505
 20
-30.85408554784201
 10
19.09116916189373
 20
-30.99191582558531
 10
18.75387832864492
 20
-31.23600276996866
 10
18.42487777317158
 20
-31.49042610323837
 10
18.11016471769469
 20
-31.76396999205903
 10
18.03213027326978
 20
-31.83180915870863
 10
17.98461110661481
 20
-31.90314082535769
 10
17.98013082883839
 20
-32.00735138088719
 10
17.96411471773129
 20
-32.37699193635011
 10
17.8438880510947
 20
-32.72236138070831
 10
17.7255311066798
 20
-33.06741332506658
 10
17.66058471780701
 20
-33.25653749168573
 10
17.58272666227097
 20
-33.44153415830624
 10
17.39085082898572
 20
-33.54108804717043
 10
17.32262360678051
 20
-33.57675388049481
 10
17.24166110680062
 20
-33.61206693604141
 10
17.17364555126214
 20
-33.55558721383328
 10
17.1009380512802
 20
-33.49547388051499
 10
17.16468499570899
 20
-33.42622360275467
 10
17.18842694014739
 20
-33.36420526943684
 10
17.29560082900938
 20
-33.08360582506256
 10
17.26095805124045
 20
-32.78490888069277
 10
17.32505777344636
 20
-32.4474769363326
 10
17.16948277348533
 20
-32.55786110297164
 10
17.05271332907003
 20
-32.64108138072849
 10
16.93573221798833
 20
-32.72391360293007
 10
16.73852944025978
 20
-32.86378999178393
 10
16.52372305142453
 20
-32.95939276953803
 10
16.2787541625971
 20
-32.96750665842494
 10
16.21624194039047
 20
-32.96955276953551
 10
16.13252777374449
 20
-32.96870610286894
 10
16.10497582930703
 20
-32.90894554732841
 10
16.06860444042714
 20
-32.83002915845909
 10
16.16473638484757
 20
-32.81108499179734
 10
16.20675221817068
 20
-32.77009221402967
 10
16.27515582926444
 20
-32.70309971404632
 10
16.3516380514676
 20
-32.64418582517234
 10
16.41915971811728
 20
-32.5763113807449
 10
16.50305027365214
 20
-32.4920680474326
 10
16.58157860696586
 20
-32.41523304745169
 10
16.37763777368329
 20
-32.37148860301825
 10
16.24104221816184
 20
-32.34203165858126
 10
16.30736444036752
 20
-32.25316693638118
 10
16.36246832924276
 20
-32.1847633252871
 10
16.53095499586736
 20
-31.97496638089523
 10
16.70251082915765
 20
-31.76739193650248
 10
16.86665832911656
 20
-31.5543141587782
 10
17.06717721795536
 20
-31.29403471439887
 10
17.21188666236372
 20
-31.00482749224887
 10
17.31316916233824
 20
-30.66411471455629
 10
17.11713055127618
 20
-30.74419527009178
 10
16.99482249575118
 20
-30.88735249227805
 10
16.84376305134472
 20
-30.98672999225337
 10
16.64013971806207
 20
-31.12057388110873
 10
16.44360721811121
 20
-31.26732943662765
 10
16.18177555151011
 20
-31.26284915885092
 10
16.09668555153124
 20
-31.26129693662915
 10
16.01487638488511
 20
-31.2569930477413
 10
15.94372110712526
 20
-31.20361776997703
 10
15.94372110712526
 20
-31.17811193664981
 10
15.94372110712526
 20
-31.15260610332292
 10
15.94372110712526
 20
-31.12678276999611
 97
        0
 75
     0
 76
     1
 98
        0
  0
ENDSEC
  0
SECTION
  2
OBJECTS
  0
DICTIONARY
  5
C
330
0
100
AcDbDictionary
281
     1
  3
ACAD_GROUP
350
D
  3
ACAD_LAYOUT
350
1A
  3
ACAD_MATERIAL
350
3B
  3
ACAD_MLEADERSTYLE
350
64
  3
ACAD_MLINESTYLE
350
17
  3
ACAD_PLOTSETTINGS
350
19
  3
ACAD_PLOTSTYLENAME
350
E
  3
ACAD_TABLESTYLE
350
63
  3
ACAD_VISUALSTYLE
350
2A
  0
SUN
  5
3F
330
29
100
AcDbSun
 90
        1
290
     0
 63
     7
421
 16777215
 40
1.0
291
     1
 91
  2455826
 92
 54000000
292
     0
 70
     2
 71
   256
280
     1
  0
DICTIONARY
  5
D
102
{ACAD_REACTORS
330
C
102
}
330
C
100
AcDbDictionary
281
     1
  0
DICTIONARY
  5
1A
102
{ACAD_REACTORS
330
C
102
}
330
C
100
AcDbDictionary
281
     1
  3
Layout1
350
1E
  3
Layout2
350
26
  3
Model
350
22
  0
DICTIONARY
  5
3B
102
{ACAD_REACTORS
330
C
102
}
330
C
100
AcDbDictionary
281
     1
  3
ByBlock
350
3D
  3
ByLayer
350
3C
  3
Global
350
3E
  0
DICTIONARY
  5
64
102
{ACAD_REACTORS
330
C
102
}
330
C
100
AcDbDictionary
281
     1
  0
DICTIONARY
  5
17
102
{ACAD_REACTORS
330
C
102
}
330
C
100
AcDbDictionary
281
     1
  3
Standard
350
18
  0
DICTIONARY
  5
19
102
{ACAD_REACTORS
330
C
102
}
330
C
100
AcDbDictionary
281
     1
  0
ACDBDICTIONARYWDFLT
  5
E
102
{ACAD_REACTORS
330
C
102
}
330
C
100
AcDbDictionary
281
     1
  3
Normal
350
F
100
AcDbDictionaryWithDefault
340
F
  0
DICTIONARY
  5
63
102
{ACAD_REACTORS
330
C
102
}
330
C
100
AcDbDictionary
281
     1
  0
DICTIONARY
  5
2A
102
{ACAD_REACTORS
330
C
102
}
330
C
100
AcDbDictionary
281
     1
  3
2dWireframe
350
2F
  3
3D Hidden
350
31
  3
3dWireframe
350
30
  3
Basic
350
32
  3
Brighten
350
36
  3
ColorChange
350
3A
  3
Conceptual
350
34
  3
Dim
350
35
  3
Facepattern
350
39
  3
Flat
350
2B
  3
FlatWithEdges
350
2C
  3
Gouraud
350
2D
  3
GouraudWithEdges
350
2E
  3
Linepattern
350
38
  3
Realistic
350
33
  3
Thicken
350
37
  0
LAYOUT
  5
1E
102
{ACAD_REACTORS
330
1A
102
}
330
1A
100
AcDbPlotSettings
  1

  2
none_device
  4

  6

 40
0.0
 41
0.0
 42
0.0
 43
0.0
 44
0.0
 45
0.0
 46
0.0
 47
0.0
 48
0.0
 49
0.0
140
0.0
141
0.0
142
1.0
143
1.0
 70
   688
 72
     0
 73
     0
 74
     5
  7

 75
    16
 76
     0
 77
     2
 78
   300
147
1.0
148
0.0
149
0.0
100
AcDbLayout
  1
Layout1
 70
     1
 71
     1
 10
0.0
 20
0.0
 11
12.0
 21
9.0
 12
0.0
 22
0.0
 32
0.0
 14
1.000000000000000E+20
 24
1.000000000000000E+20
 34
1.000000000000000E+20
 15
-1.000000000000000E+20
 25
-1.000000000000000E+20
 35
-1.000000000000000E+20
146
0.0
 13
0.0
 23
0.0
 33
0.0
 16
1.0
 26
0.0
 36
0.0
 17
0.0
 27
1.0
 37
0.0
 76
     0
330
1B
  0
LAYOUT
  5
26
102
{ACAD_REACTORS
330
1A
102
}
330
1A
100
AcDbPlotSettings
  1

  2
none_device
  4

  6

 40
0.0
 41
0.0
 42
0.0
 43
0.0
 44
0.0
 45
0.0
 46
0.0
 47
0.0
 48
0.0
 49
0.0
140
0.0
141
0.0
142
1.0
143
1.0
 70
   688
 72
     0
 73
     0
 74
     5
  7

 75
    16
 76
     0
 77
     2
 78
   300
147
1.0
148
0.0
149
0.0
100
AcDbLayout
  1
Layout2
 70
     1
 71
     2
 10
0.0
 20
0.0
 11
0.0
 21
0.0
 12
0.0
 22
0.0
 32
0.0
 14
0.0
 24
0.0
 34
0.0
 15
0.0
 25
0.0
 35
0.0
146
0.0
 13
0.0
 23
0.0
 33
0.0
 16
1.0
 26
0.0
 36
0.0
 17
0.0
 27
1.0
 37
0.0
 76
     0
330
23
  0
LAYOUT
  5
22
102
{ACAD_REACTORS
330
1A
102
}
330
1A
100
AcDbPlotSettings
  1

  2
none_device
  4

  6

 40
0.0
 41
0.0
 42
0.0
 43
0.0
 44
0.0
 45
0.0
 46
0.0
 47
0.0
 48
0.0
 49
0.0
140
0.0
141
0.0
142
1.0
143
1.0
 70
  1712
 72
     0
 73
     0
 74
     0
  7

 75
     0
 76
     0
 77
     2
 78
   300
147
1.0
148
0.0
149
0.0
100
AcDbLayout
  1
Model
 70
     1
 71
     0
 10
0.0
 20
0.0
 11
12.0
 21
9.0
 12
0.0
 22
0.0
 32
0.0
 14
1.000000000000000E+20
 24
1.000000000000000E+20
 34
1.000000000000000E+20
 15
-1.000000000000000E+20
 25
-1.000000000000000E+20
 35
-1.000000000000000E+20
146
0.0
 13
0.0
 23
0.0
 33
0.0
 16
1.0
 26
0.0
 36
0.0
 17
0.0
 27
1.0
 37
0.0
 76
     0
330
1F
331
29
  0
MATERIAL
  5
3D
102
{ACAD_REACTORS
330
3B
102
}
330
3B
100
AcDbMaterial
  1
ByBlock
 72
     1
 94
      127
  0
MATERIAL
  5
3C
102
{ACAD_REACTORS
330
3B
102
}
330
3B
100
AcDbMaterial
  1
ByLayer
 72
     1
 94
      127
  0
MATERIAL
  5
3E
102
{ACAD_REACTORS
330
3B
102
}
330
3B
100
AcDbMaterial
  1
Global
 72
     1
 94
      127
  0
MLINESTYLE
  5
18
102
{ACAD_REACTORS
330
17
102
}
330
17
100
AcDbMlineStyle
  2
Standard
 70
     0
  3

 62
   256
 51
90.0
 52
90.0
 71
     2
 49
0.5
 62
   256
  6
BYLAYER
 49
-0.5
 62
   256
  6
BYLAYER
  0
ACDBPLACEHOLDER
  5
F
102
{ACAD_REACTORS
330
E
102
}
330
E
  0
VISUALSTYLE
  5
2F
102
{ACAD_REACTORS
330
2A
102
}
102
{ACAD_XDICTIONARY
360
4B
102
}
330
2A
100
AcDbVisualStyle
  2
2dWireframe
 70
     4
 71
     0
 72
     2
 73
     0
 90
        0
 40
-0.6
 41
-30.0
 62
     5
 63
     7
421
 16777215
 74
     1
 91
        4
 64
     7
 65
   257
 75
     1
175
     1
 42
1.0
 92
        0
 66
   257
 43
1.0
 76
     1
 77
     6
 78
     2
 67
     7
 79
     5
170
     0
171
     0
290
     0
174
     0
 93
        1
 44
0.0
173
     0
291
     0
 45
0.0
  0
VISUALSTYLE
  5
31
102
{ACAD_REACTORS
330
2A
102
}
102
{ACAD_XDICTIONARY
360
4F
102
}
330
2A
100
AcDbVisualStyle
  2
3D Hidden
 70
     6
 71
     1
 72
     2
 73
     2
 90
        0
 40
-0.6
 41
-30.0
 62
     5
 63
     7
421
 16777215
 74
     2
 91
        2
 64
     7
 65
   257
 75
     2
175
     1
 42
40.0
 92
        0
 66
   257
 43
1.0
 76
     1
 77
     6
 78
     2
 67
     7
 79
     3
170
     0
171
     0
290
     0
174
     0
 93
        1
 44
0.0
173
     0
291
     0
 45
0.0
  0
VISUALSTYLE
  5
30
102
{ACAD_REACTORS
330
2A
102
}
102
{ACAD_XDICTIONARY
360
4D
102
}
330
2A
100
AcDbVisualStyle
  2
3dWireframe
 70
     5
 71
     0
 72
     2
 73
     0
 90
        0
 40
-0.6
 41
-30.0
 62
     5
 63
     7
421
 16777215
 74
     1
 91
        4
 64
     7
 65
   257
 75
     1
175
     1
 42
1.0
 92
        0
 66
   257
 43
1.0
 76
     1
 77
     6
 78
     2
 67
     7
 79
     5
170
     0
171
     0
290
     0
174
     0
 93
        1
 44
0.0
173
     0
291
     0
 45
0.0
  0
VISUALSTYLE
  5
32
102
{ACAD_REACTORS
330
2A
102
}
102
{ACAD_XDICTIONARY
360
51
102
}
330
2A
100
AcDbVisualStyle
  2
Basic
 70
     7
 71
     1
 72
     0
 73
     1
 90
        0
 40
-0.6
 41
-30.0
 62
     5
 63
     7
421
 16777215
 74
     0
 91
        4
 64
     7
 65
   257
 75
     1
175
     1
 42
1.0
 92
        8
 66
     7
 43
1.0
 76
     1
 77
     6
 78
     2
 67
     7
 79
     5
170
     0
171
     0
290
     0
174
     0
 93
        1
 44
0.0
173
     0
291
     1
 45
0.0
  0
VISUALSTYLE
  5
36
102
{ACAD_REACTORS
330
2A
102
}
102
{ACAD_XDICTIONARY
360
59
102
}
330
2A
100
AcDbVisualStyle
  2
Brighten
 70
    12
 71
     2
 72
     2
 73
     0
 90
        0
 40
-0.6
 41
-30.0
 62
     5
 63
     7
421
 16777215
 74
     1
 91
        4
 64
     7
 65
   257
 75
     1
175
     1
 42
1.0
 92
        8
 66
     7
 43
1.0
 76
     1
 77
     6
 78
     2
 67
     7
 79
     5
170
     0
171
     0
290
     0
174
     0
 93
        1
 44
50.0
173
     0
291
     1
 45
0.0
  0
VISUALSTYLE
  5
3A
102
{ACAD_REACTORS
330
2A
102
}
102
{ACAD_XDICTIONARY
360
61
102
}
330
2A
100
AcDbVisualStyle
  2
ColorChange
 70
    16
 71
     2
 72
     2
 73
     3
 90
        0
 40
-0.6
 41
-30.0
 62
     5
 63
     8
421
  8421504
 74
     1
 91
        4
 64
     7
 65
   257
 75
     1
175
     1
 42
1.0
 92
        8
 66
     8
424
  8421504
 43
1.0
 76
     1
 77
     6
 78
     2
 67
     7
 79
     5
170
     0
171
     0
290
     0
174
     0
 93
        1
 44
0.0
173
     0
291
     1
 45
0.0
  0
VISUALSTYLE
  5
34
102
{ACAD_REACTORS
330
2A
102
}
102
{ACAD_XDICTIONARY
360
55
102
}
330
2A
100
AcDbVisualStyle
  2
Conceptual
 70
     9
 71
     3
 72
     2
 73
     0
 90
        0
 40
-0.6
 41
-30.0
 62
     5
 63
     7
421
 16777215
 74
     2
 91
        2
 64
     7
 65
   257
 75
     1
175
     1
 42
40.0
 92
        8
 66
     7
 43
1.0
 76
     1
 77
     6
 78
     2
 67
     7
 79
     3
170
     0
171
     0
290
     0
174
     0
 93
        1
 44
0.0
173
     0
291
     0
 45
0.0
  0
VISUALSTYLE
  5
35
102
{ACAD_REACTORS
330
2A
102
}
102
{ACAD_XDICTIONARY
360
57
102
}
330
2A
100
AcDbVisualStyle
  2
Dim
 70
    11
 71
     2
 72
     2
 73
     0
 90
        0
 40
-0.6
 41
-30.0
 62
     5
 63
     7
421
 16777215
 74
     1
 91
        4
 64
     7
 65
   257
 75
     1
175
     1
 42
1.0
 92
        8
 66
     7
 43
1.0
 76
     1
 77
     6
 78
     2
 67
     7
 79
     5
170
     0
171
     0
290
     0
174
     0
 93
        1
 44
-50.0
173
     0
291
     1
 45
0.0
  0
VISUALSTYLE
  5
39
102
{ACAD_REACTORS
330
2A
102
}
102
{ACAD_XDICTIONARY
360
5F
102
}
330
2A
100
AcDbVisualStyle
  2
Facepattern
 70
    15
 71
     2
 72
     2
 73
     0
 90
        0
 40
-0.6
 41
-30.0
 62
     5
 63
     7
421
 16777215
 74
     1
 91
        4
 64
     7
 65
   257
 75
     1
175
     1
 42
1.0
 92
        8
 66
     7
 43
1.0
 76
     1
 77
     6
 78
     2
 67
     7
 79
     5
170
     0
171
     0
290
     0
174
     0
 93
        1
 44
0.0
173
     0
291
     1
 45
0.0
  0
VISUALSTYLE
  5
2B
102
{ACAD_REACTORS
330
2A
102
}
102
{ACAD_XDICTIONARY
360
43
102
}
330
2A
100
AcDbVisualStyle
  2
Flat
 70
     0
 71
     2
 72
     1
 73
     1
 90
        2
 40
-0.6
 41
30.0
 62
     5
 63
     7
421
 16777215
 74
     0
 91
        4
 64
     7
 65
   257
 75
     1
175
     1
 42
1.0
 92
        8
 66
     7
 43
1.0
 76
     1
 77
     6
 78
     2
 67
     7
 79
     5
170
     0
171
     0
290
     0
174
     0
 93
       13
 44
0.0
173
     0
291
     1
 45
0.0
  0
VISUALSTYLE
  5
2C
102
{ACAD_REACTORS
330
2A
102
}
102
{ACAD_XDICTIONARY
360
45
102
}
330
2A
100
AcDbVisualStyle
  2
FlatWithEdges
 70
     1
 71
     2
 72
     1
 73
     1
 90
        2
 40
-0.6
 41
30.0
 62
     5
 63
     7
421
 16777215
 74
     1
 91
        4
 64
     7
 65
   257
 75
     1
175
     1
 42
1.0
 92
        0
 66
   257
 43
1.0
 76
     1
 77
     6
 78
     2
 67
     7
 79
     5
170
     0
171
     0
290
     0
174
     0
 93
       13
 44
0.0
173
     0
291
     1
 45
0.0
  0
VISUALSTYLE
  5
2D
102
{ACAD_REACTORS
330
2A
102
}
102
{ACAD_XDICTIONARY
360
47
102
}
330
2A
100
AcDbVisualStyle
  2
Gouraud
 70
     2
 71
     2
 72
     2
 73
     1
 90
        2
 40
-0.6
 41
30.0
 62
     5
 63
     7
421
 16777215
 74
     0
 91
        4
 64
     7
 65
   257
 75
     1
175
     1
 42
1.0
 92
        0
 66
     7
 43
1.0
 76
     1
 77
     6
 78
     2
 67
     7
 79
     5
170
     0
171
     0
290
     0
174
     0
 93
       13
 44
0.0
173
     0
291
     1
 45
0.0
  0
VISUALSTYLE
  5
2E
102
{ACAD_REACTORS
330
2A
102
}
102
{ACAD_XDICTIONARY
360
49
102
}
330
2A
100
AcDbVisualStyle
  2
GouraudWithEdges
 70
     3
 71
     2
 72
     2
 73
     1
 90
        2
 40
-0.6
 41
30.0
 62
     5
 63
     7
421
 16777215
 74
     1
 91
        4
 64
     7
 65
   257
 75
     1
175
     1
 42
1.0
 92
        0
 66
   257
 43
1.0
 76
     1
 77
     6
 78
     2
 67
     7
 79
     5
170
     0
171
     0
290
     0
174
     0
 93
       13
 44
0.0
173
     0
291
     1
 45
0.0
  0
VISUALSTYLE
  5
38
102
{ACAD_REACTORS
330
2A
102
}
102
{ACAD_XDICTIONARY
360
5D
102
}
330
2A
100
AcDbVisualStyle
  2
Linepattern
 70
    14
 71
     2
 72
     2
 73
     0
 90
        0
 40
-0.6
 41
-30.0
 62
     5
 63
     7
421
 16777215
 74
     1
 91
        4
 64
     7
 65
   257
 75
     7
175
     7
 42
1.0
 92
        8
 66
     7
 43
1.0
 76
     1
 77
     6
 78
     2
 67
     7
 79
     5
170
     0
171
     0
290
     0
174
     0
 93
        1
 44
0.0
173
     0
291
     1
 45
0.0
  0
VISUALSTYLE
  5
33
102
{ACAD_REACTORS
330
2A
102
}
102
{ACAD_XDICTIONARY
360
53
102
}
330
2A
100
AcDbVisualStyle
  2
Realistic
 70
     8
 71
     2
 72
     2
 73
     0
 90
        0
 40
-0.6
 41
-30.0
 62
     5
 63
     7
421
 16777215
 74
     1
 91
        0
 64
     7
 65
   257
 75
     1
175
     1
 42
1.0
 92
        8
 66
     8
424
  7895160
 43
1.0
 76
     1
 77
     6
 78
     2
 67
     7
 79
     5
170
     0
171
     0
290
     0
174
     0
 93
       13
 44
0.0
173
     0
291
     0
 45
0.0
  0
VISUALSTYLE
  5
37
102
{ACAD_REACTORS
330
2A
102
}
102
{ACAD_XDICTIONARY
360
5B
102
}
330
2A
100
AcDbVisualStyle
  2
Thicken
 70
    13
 71
     2
 72
     2
 73
     0
 90
        0
 40
-0.6
 41
-30.0
 62
     5
 63
     7
421
 16777215
 74
     1
 91
        4
 64
     7
 65
   257
 75
     1
175
     1
 42
1.0
 92
       12
 66
     7
 43
1.0
 76
     1
 77
     6
 78
     2
 67
     7
 79
     5
170
     0
171
     0
290
     0
174
     0
 93
        1
 44
0.0
173
     0
291
     1
 45
0.0
  0
DICTIONARY
  5
4B
330
2F
100
AcDbDictionary
280
     1
281
     1
  3
ACAD_XREC_ROUNDTRIP
360
4C
  0
DICTIONARY
  5
4F
330
31
100
AcDbDictionary
280
     1
281
     1
  3
ACAD_XREC_ROUNDTRIP
360
50
  0
DICTIONARY
  5
4D
330
30
100
AcDbDictionary
280
     1
281
     1
  3
ACAD_XREC_ROUNDTRIP
360
4E
  0
DICTIONARY
  5
51
330
32
100
AcDbDictionary
280
     1
281
     1
  3
ACAD_XREC_ROUNDTRIP
360
52
  0
DICTIONARY
  5
59
330
36
100
AcDbDictionary
280
     1
281
     1
  3
ACAD_XREC_ROUNDTRIP
360
5A
  0
DICTIONARY
  5
61
330
3A
100
AcDbDictionary
280
     1
281
     1
  3
ACAD_XREC_ROUNDTRIP
360
62
  0
DICTIONARY
  5
55
330
34
100
AcDbDictionary
280
     1
281
     1
  3
ACAD_XREC_ROUNDTRIP
360
56
  0
DICTIONARY
  5
57
330
35
100
AcDbDictionary
280
     1
281
     1
  3
ACAD_XREC_ROUNDTRIP
360
58
  0
DICTIONARY
  5
5F
330
39
100
AcDbDictionary
280
     1
281
     1
  3
ACAD_XREC_ROUNDTRIP
360
60
  0
DICTIONARY
  5
43
330
2B
100
AcDbDictionary
280
     1
281
     1
  3
ACAD_XREC_ROUNDTRIP
360
44
  0
DICTIONARY
  5
45
330
2C
100
AcDbDictionary
280
     1
281
     1
  3
ACAD_XREC_ROUNDTRIP
360
46
  0
DICTIONARY
  5
47
330
2D
100
AcDbDictionary
280
     1
281
     1
  3
ACAD_XREC_ROUNDTRIP
360
48
  0
DICTIONARY
  5
49
330
2E
100
AcDbDictionary
280
     1
281
     1
  3
ACAD_XREC_ROUNDTRIP
360
4A
  0
DICTIONARY
  5
5D
330
38
100
AcDbDictionary
280
     1
281
     1
  3
ACAD_XREC_ROUNDTRIP
360
5E
  0
DICTIONARY
  5
53
330
33
100
AcDbDictionary
280
     1
281
     1
  3
ACAD_XREC_ROUNDTRIP
360
54
  0
DICTIONARY
  5
5B
330
37
100
AcDbDictionary
280
     1
281
     1
  3
ACAD_XREC_ROUNDTRIP
360
5C
  0
XRECORD
  5
4C
102
{ACAD_REACTORS
330
4B
102
}
330
4B
100
AcDbXrecord
280
     1
102
RTVSPropertyOp0
 70
     1
102
RTVSPropertyOp1
 70
     1
102
RTVSPropertyOp2
 70
     1
102
RTVSPropertyOp3
 70
     1
102
RTVSPropertyOp4
 70
     1
102
RTVSPropertyOp5
 70
     1
102
RTVSPropertyOp6
 70
     1
102
RTVSPropertyOp7
 70
     1
102
RTVSPropertyOp8
 70
     1
102
RTVSPropertyOp9
 70
     1
102
RTVSPropertyOp10
 70
     1
102
RTVSPropertyOp11
 70
     1
102
RTVSPropertyOp12
 70
     1
102
RTVSPropertyOp13
 70
     1
102
RTVSPropertyOp14
 70
     1
102
RTVSPropertyOp15
 70
     1
102
RTVSPropertyOp16
 70
     1
102
RTVSPropertyOp17
 70
     1
102
RTVSPropertyOp18
 70
     1
102
RTVSPropertyOp19
 70
     1
102
RTVSPropertyOp20
 70
     1
102
RTVSPropertyOp21
 70
     1
102
RTVSPropertyOp22
 70
     1
102
RTVSPropertyOp23
 70
     1
102
RTVSPropertyOp24
 70
     1
102
RTVSPropertyOp25
 70
     1
102
RTVSPropertyOp26
 70
     1
102
RTVSPropertyOp27
 70
     1
102
RTVSPropertyOp28
 70
     1
102
RTVSPropertyOp29
 70
     1
102
RTVSPropertyOp30
 70
     1
102
RTVSPropertyOp31
 70
     1
102
RTVSPropertyOp32
 70
     1
  0
XRECORD
  5
50
102
{ACAD_REACTORS
330
4F
102
}
330
4F
100
AcDbXrecord
280
     1
102
RTVSPropertyOp0
 70
     1
102
RTVSPropertyOp1
 70
     1
102
RTVSPropertyOp2
 70
     1
102
RTVSPropertyOp3
 70
     1
102
RTVSPropertyOp4
 70
     1
102
RTVSPropertyOp5
 70
     1
102
RTVSPropertyOp6
 70
     1
102
RTVSPropertyOp7
 70
     1
102
RTVSPropertyOp8
 70
     1
102
RTVSPropertyOp9
 70
     1
102
RTVSPropertyOp10
 70
     1
102
RTVSPropertyOp11
 70
     1
102
RTVSPropertyOp12
 70
     1
102
RTVSPropertyOp13
 70
     1
102
RTVSPropertyOp14
 70
     1
102
RTVSPropertyOp15
 70
     1
102
RTVSPropertyOp16
 70
     1
102
RTVSPropertyOp17
 70
     1
102
RTVSPropertyOp18
 70
     1
102
RTVSPropertyOp19
 70
     1
102
RTVSPropertyOp20
 70
     1
102
RTVSPropertyOp21
 70
     1
102
RTVSPropertyOp22
 70
     1
102
RTVSPropertyOp23
 70
     1
102
RTVSPropertyOp24
 70
     1
102
RTVSPropertyOp25
 70
     1
102
RTVSPropertyOp26
 70
     1
102
RTVSPropertyOp27
 70
     1
102
RTVSPropertyOp28
 70
     1
102
RTVSPropertyOp29
 70
     1
102
RTVSPropertyOp30
 70
     1
102
RTVSPropertyOp31
 70
     1
102
RTVSPropertyOp32
 70
     1
  0
XRECORD
  5
4E
102
{ACAD_REACTORS
330
4D
102
}
330
4D
100
AcDbXrecord
280
     1
102
RTVSPropertyOp0
 70
     1
102
RTVSPropertyOp1
 70
     1
102
RTVSPropertyOp2
 70
     1
102
RTVSPropertyOp3
 70
     1
102
RTVSPropertyOp4
 70
     1
102
RTVSPropertyOp5
 70
     1
102
RTVSPropertyOp6
 70
     1
102
RTVSPropertyOp7
 70
     1
102
RTVSPropertyOp8
 70
     1
102
RTVSPropertyOp9
 70
     1
102
RTVSPropertyOp10
 70
     1
102
RTVSPropertyOp11
 70
     1
102
RTVSPropertyOp12
 70
     1
102
RTVSPropertyOp13
 70
     1
102
RTVSPropertyOp14
 70
     1
102
RTVSPropertyOp15
 70
     1
102
RTVSPropertyOp16
 70
     1
102
RTVSPropertyOp17
 70
     1
102
RTVSPropertyOp18
 70
     1
102
RTVSPropertyOp19
 70
     1
102
RTVSPropertyOp20
 70
     1
102
RTVSPropertyOp21
 70
     1
102
RTVSPropertyOp22
 70
     1
102
RTVSPropertyOp23
 70
     1
102
RTVSPropertyOp24
 70
     1
102
RTVSPropertyOp25
 70
     1
102
RTVSPropertyOp26
 70
     1
102
RTVSPropertyOp27
 70
     1
102
RTVSPropertyOp28
 70
     1
102
RTVSPropertyOp29
 70
     1
102
RTVSPropertyOp30
 70
     1
102
RTVSPropertyOp31
 70
     1
102
RTVSPropertyOp32
 70
     1
  0
XRECORD
  5
52
102
{ACAD_REACTORS
330
51
102
}
330
51
100
AcDbXrecord
280
     1
102
RTVSPropertyOp0
 70
     1
102
RTVSPropertyOp1
 70
     1
102
RTVSPropertyOp2
 70
     1
102
RTVSPropertyOp3
 70
     1
102
RTVSPropertyOp4
 70
     1
102
RTVSPropertyOp5
 70
     1
102
RTVSPropertyOp6
 70
     1
102
RTVSPropertyOp7
 70
     1
102
RTVSPropertyOp8
 70
     1
102
RTVSPropertyOp9
 70
     1
102
RTVSPropertyOp10
 70
     1
102
RTVSPropertyOp11
 70
     1
102
RTVSPropertyOp12
 70
     1
102
RTVSPropertyOp13
 70
     1
102
RTVSPropertyOp14
 70
     1
102
RTVSPropertyOp15
 70
     1
102
RTVSPropertyOp16
 70
     1
102
RTVSPropertyOp17
 70
     1
102
RTVSPropertyOp18
 70
     1
102
RTVSPropertyOp19
 70
     1
102
RTVSPropertyOp20
 70
     1
102
RTVSPropertyOp21
 70
     1
102
RTVSPropertyOp22
 70
     1
102
RTVSPropertyOp23
 70
     1
102
RTVSPropertyOp24
 70
     1
102
RTVSPropertyOp25
 70
     1
102
RTVSPropertyOp26
 70
     1
102
RTVSPropertyOp27
 70
     1
102
RTVSPropertyOp28
 70
     1
102
RTVSPropertyOp29
 70
     1
102
RTVSPropertyOp30
 70
     1
102
RTVSPropertyOp31
 70
     1
102
RTVSPropertyOp32
 70
     1
  0
XRECORD
  5
5A
102
{ACAD_REACTORS
330
59
102
}
330
59
100
AcDbXrecord
280
     1
102
RTVSPropertyOp0
 70
     1
102
RTVSPropertyOp1
 70
     1
102
RTVSPropertyOp2
 70
     1
102
RTVSPropertyOp3
 70
     1
102
RTVSPropertyOp4
 70
     1
102
RTVSPropertyOp5
 70
     1
102
RTVSPropertyOp6
 70
     1
102
RTVSPropertyOp7
 70
     1
102
RTVSPropertyOp8
 70
     1
102
RTVSPropertyOp9
 70
     1
102
RTVSPropertyOp10
 70
     1
102
RTVSPropertyOp11
 70
     1
102
RTVSPropertyOp12
 70
     1
102
RTVSPropertyOp13
 70
     1
102
RTVSPropertyOp14
 70
     1
102
RTVSPropertyOp15
 70
     1
102
RTVSPropertyOp16
 70
     1
102
RTVSPropertyOp17
 70
     1
102
RTVSPropertyOp18
 70
     1
102
RTVSPropertyOp19
 70
     1
102
RTVSPropertyOp20
 70
     1
102
RTVSPropertyOp21
 70
     1
102
RTVSPropertyOp22
 70
     1
102
RTVSPropertyOp23
 70
     1
102
RTVSPropertyOp24
 70
     1
102
RTVSPropertyOp25
 70
     1
102
RTVSPropertyOp26
 70
     1
102
RTVSPropertyOp27
 70
     1
102
RTVSPropertyOp28
 70
     1
102
RTVSPropertyOp29
 70
     1
102
RTVSPropertyOp30
 70
     1
102
RTVSPropertyOp31
 70
     1
102
RTVSPropertyOp32
 70
     1
  0
XRECORD
  5
62
102
{ACAD_REACTORS
330
61
102
}
330
61
100
AcDbXrecord
280
     1
102
RTVSPropertyOp0
 70
     1
102
RTVSPropertyOp1
 70
     1
102
RTVSPropertyOp2
 70
     1
102
RTVSPropertyOp3
 70
     1
102
RTVSPropertyOp4
 70
     1
102
RTVSPropertyOp5
 70
     1
102
RTVSPropertyOp6
 70
     1
102
RTVSPropertyOp7
 70
     1
102
RTVSPropertyOp8
 70
     1
102
RTVSPropertyOp9
 70
     1
102
RTVSPropertyOp10
 70
     1
102
RTVSPropertyOp11
 70
     1
102
RTVSPropertyOp12
 70
     1
102
RTVSPropertyOp13
 70
     1
102
RTVSPropertyOp14
 70
     1
102
RTVSPropertyOp15
 70
     1
102
RTVSPropertyOp16
 70
     1
102
RTVSPropertyOp17
 70
     1
102
RTVSPropertyOp18
 70
     1
102
RTVSPropertyOp19
 70
     1
102
RTVSPropertyOp20
 70
     1
102
RTVSPropertyOp21
 70
     1
102
RTVSPropertyOp22
 70
     1
102
RTVSPropertyOp23
 70
     1
102
RTVSPropertyOp24
 70
     1
102
RTVSPropertyOp25
 70
     1
102
RTVSPropertyOp26
 70
     1
102
RTVSPropertyOp27
 70
     1
102
RTVSPropertyOp28
 70
     1
102
RTVSPropertyOp29
 70
     1
102
RTVSPropertyOp30
 70
     1
102
RTVSPropertyOp31
 70
     1
102
RTVSPropertyOp32
 70
     1
  0
XRECORD
  5
56
102
{ACAD_REACTORS
330
55
102
}
330
55
100
AcDbXrecord
280
     1
102
RTVSPropertyOp0
 70
     1
102
RTVSPropertyOp1
 70
     1
102
RTVSPropertyOp2
 70
     1
102
RTVSPropertyOp3
 70
     1
102
RTVSPropertyOp4
 70
     1
102
RTVSPropertyOp5
 70
     1
102
RTVSPropertyOp6
 70
     1
102
RTVSPropertyOp7
 70
     1
102
RTVSPropertyOp8
 70
     1
102
RTVSPropertyOp9
 70
     1
102
RTVSPropertyOp10
 70
     1
102
RTVSPropertyOp11
 70
     1
102
RTVSPropertyOp12
 70
     1
102
RTVSPropertyOp13
 70
     1
102
RTVSPropertyOp14
 70
     1
102
RTVSPropertyOp15
 70
     1
102
RTVSPropertyOp16
 70
     1
102
RTVSPropertyOp17
 70
     1
102
RTVSPropertyOp18
 70
     1
102
RTVSPropertyOp19
 70
     1
102
RTVSPropertyOp20
 70
     1
102
RTVSPropertyOp21
 70
     1
102
RTVSPropertyOp22
 70
     1
102
RTVSPropertyOp23
 70
     1
102
RTVSPropertyOp24
 70
     1
102
RTVSPropertyOp25
 70
     1
102
RTVSPropertyOp26
 70
     1
102
RTVSPropertyOp27
 70
     1
102
RTVSPropertyOp28
 70
     1
102
RTVSPropertyOp29
 70
     1
102
RTVSPropertyOp30
 70
     1
102
RTVSPropertyOp31
 70
     1
102
RTVSPropertyOp32
 70
     1
  0
XRECORD
  5
58
102
{ACAD_REACTORS
330
57
102
}
330
57
100
AcDbXrecord
280
     1
102
RTVSPropertyOp0
 70
     1
102
RTVSPropertyOp1
 70
     1
102
RTVSPropertyOp2
 70
     1
102
RTVSPropertyOp3
 70
     1
102
RTVSPropertyOp4
 70
     1
102
RTVSPropertyOp5
 70
     1
102
RTVSPropertyOp6
 70
     1
102
RTVSPropertyOp7
 70
     1
102
RTVSPropertyOp8
 70
     1
102
RTVSPropertyOp9
 70
     1
102
RTVSPropertyOp10
 70
     1
102
RTVSPropertyOp11
 70
     1
102
RTVSPropertyOp12
 70
     1
102
RTVSPropertyOp13
 70
     1
102
RTVSPropertyOp14
 70
     1
102
RTVSPropertyOp15
 70
     1
102
RTVSPropertyOp16
 70
     1
102
RTVSPropertyOp17
 70
     1
102
RTVSPropertyOp18
 70
     1
102
RTVSPropertyOp19
 70
     1
102
RTVSPropertyOp20
 70
     1
102
RTVSPropertyOp21
 70
     1
102
RTVSPropertyOp22
 70
     1
102
RTVSPropertyOp23
 70
     1
102
RTVSPropertyOp24
 70
     1
102
RTVSPropertyOp25
 70
     1
102
RTVSPropertyOp26
 70
     1
102
RTVSPropertyOp27
 70
     1
102
RTVSPropertyOp28
 70
     1
102
RTVSPropertyOp29
 70
     1
102
RTVSPropertyOp30
 70
     1
102
RTVSPropertyOp31
 70
     1
102
RTVSPropertyOp32
 70
     1
  0
XRECORD
  5
60
102
{ACAD_REACTORS
330
5F
102
}
330
5F
100
AcDbXrecord
280
     1
102
RTVSPropertyOp0
 70
     1
102
RTVSPropertyOp1
 70
     1
102
RTVSPropertyOp2
 70
     1
102
RTVSPropertyOp3
 70
     1
102
RTVSPropertyOp4
 70
     1
102
RTVSPropertyOp5
 70
     1
102
RTVSPropertyOp6
 70
     1
102
RTVSPropertyOp7
 70
     1
102
RTVSPropertyOp8
 70
     1
102
RTVSPropertyOp9
 70
     1
102
RTVSPropertyOp10
 70
     1
102
RTVSPropertyOp11
 70
     1
102
RTVSPropertyOp12
 70
     1
102
RTVSPropertyOp13
 70
     1
102
RTVSPropertyOp14
 70
     1
102
RTVSPropertyOp15
 70
     1
102
RTVSPropertyOp16
 70
     1
102
RTVSPropertyOp17
 70
     1
102
RTVSPropertyOp18
 70
     1
102
RTVSPropertyOp19
 70
     1
102
RTVSPropertyOp20
 70
     1
102
RTVSPropertyOp21
 70
     1
102
RTVSPropertyOp22
 70
     1
102
RTVSPropertyOp23
 70
     1
102
RTVSPropertyOp24
 70
     1
102
RTVSPropertyOp25
 70
     1
102
RTVSPropertyOp26
 70
     1
102
RTVSPropertyOp27
 70
     1
102
RTVSPropertyOp28
 70
     1
102
RTVSPropertyOp29
 70
     1
102
RTVSPropertyOp30
 70
     1
102
RTVSPropertyOp31
 70
     1
102
RTVSPropertyOp32
 70
     1
  0
XRECORD
  5
44
102
{ACAD_REACTORS
330
43
102
}
330
43
100
AcDbXrecord
280
     1
102
RTVSPropertyOp0
 70
     1
102
RTVSPropertyOp1
 70
     1
102
RTVSPropertyOp2
 70
     1
102
RTVSPropertyOp3
 70
     1
102
RTVSPropertyOp4
 70
     1
102
RTVSPropertyOp5
 70
     1
102
RTVSPropertyOp6
 70
     1
102
RTVSPropertyOp7
 70
     1
102
RTVSPropertyOp8
 70
     1
102
RTVSPropertyOp9
 70
     1
102
RTVSPropertyOp10
 70
     1
102
RTVSPropertyOp11
 70
     1
102
RTVSPropertyOp12
 70
     1
102
RTVSPropertyOp13
 70
     1
102
RTVSPropertyOp14
 70
     1
102
RTVSPropertyOp15
 70
     1
102
RTVSPropertyOp16
 70
     1
102
RTVSPropertyOp17
 70
     1
102
RTVSPropertyOp18
 70
     1
102
RTVSPropertyOp19
 70
     1
102
RTVSPropertyOp20
 70
     1
102
RTVSPropertyOp21
 70
     1
102
RTVSPropertyOp22
 70
     1
102
RTVSPropertyOp23
 70
     1
102
RTVSPropertyOp24
 70
     1
102
RTVSPropertyOp25
 70
     1
102
RTVSPropertyOp26
 70
     1
102
RTVSPropertyOp27
 70
     1
102
RTVSPropertyOp28
 70
     1
102
RTVSPropertyOp29
 70
     1
102
RTVSPropertyOp30
 70
     1
102
RTVSPropertyOp31
 70
     1
102
RTVSPropertyOp32
 70
     1
  0
XRECORD
  5
46
102
{ACAD_REACTORS
330
45
102
}
330
45
100
AcDbXrecord
280
     1
102
RTVSPropertyOp0
 70
     1
102
RTVSPropertyOp1
 70
     1
102
RTVSPropertyOp2
 70
     1
102
RTVSPropertyOp3
 70
     1
102
RTVSPropertyOp4
 70
     1
102
RTVSPropertyOp5
 70
     1
102
RTVSPropertyOp6
 70
     1
102
RTVSPropertyOp7
 70
     1
102
RTVSPropertyOp8
 70
     1
102
RTVSPropertyOp9
 70
     1
102
RTVSPropertyOp10
 70
     1
102
RTVSPropertyOp11
 70
     1
102
RTVSPropertyOp12
 70
     1
102
RTVSPropertyOp13
 70
     1
102
RTVSPropertyOp14
 70
     1
102
RTVSPropertyOp15
 70
     1
102
RTVSPropertyOp16
 70
     1
102
RTVSPropertyOp17
 70
     1
102
RTVSPropertyOp18
 70
     1
102
RTVSPropertyOp19
 70
     1
102
RTVSPropertyOp20
 70
     1
102
RTVSPropertyOp21
 70
     1
102
RTVSPropertyOp22
 70
     1
102
RTVSPropertyOp23
 70
     1
102
RTVSPropertyOp24
 70
     1
102
RTVSPropertyOp25
 70
     1
102
RTVSPropertyOp26
 70
     1
102
RTVSPropertyOp27
 70
     1
102
RTVSPropertyOp28
 70
     1
102
RTVSPropertyOp29
 70
     1
102
RTVSPropertyOp30
 70
     1
102
RTVSPropertyOp31
 70
     1
102
RTVSPropertyOp32
 70
     1
  0
XRECORD
  5
48
102
{ACAD_REACTORS
330
47
102
}
330
47
100
AcDbXrecord
280
     1
102
RTVSPropertyOp0
 70
     1
102
RTVSPropertyOp1
 70
     1
102
RTVSPropertyOp2
 70
     1
102
RTVSPropertyOp3
 70
     1
102
RTVSPropertyOp4
 70
     1
102
RTVSPropertyOp5
 70
     1
102
RTVSPropertyOp6
 70
     1
102
RTVSPropertyOp7
 70
     1
102
RTVSPropertyOp8
 70
     1
102
RTVSPropertyOp9
 70
     1
102
RTVSPropertyOp10
 70
     1
102
RTVSPropertyOp11
 70
     1
102
RTVSPropertyOp12
 70
     1
102
RTVSPropertyOp13
 70
     1
102
RTVSPropertyOp14
 70
     1
102
RTVSPropertyOp15
 70
     1
102
RTVSPropertyOp16
 70
     1
102
RTVSPropertyOp17
 70
     1
102
RTVSPropertyOp18
 70
     1
102
RTVSPropertyOp19
 70
     1
102
RTVSPropertyOp20
 70
     1
102
RTVSPropertyOp21
 70
     1
102
RTVSPropertyOp22
 70
     1
102
RTVSPropertyOp23
 70
     1
102
RTVSPropertyOp24
 70
     1
102
RTVSPropertyOp25
 70
     1
102
RTVSPropertyOp26
 70
     1
102
RTVSPropertyOp27
 70
     1
102
RTVSPropertyOp28
 70
     1
102
RTVSPropertyOp29
 70
     1
102
RTVSPropertyOp30
 70
     1
102
RTVSPropertyOp31
 70
     1
102
RTVSPropertyOp32
 70
     1
  0
XRECORD
  5
4A
102
{ACAD_REACTORS
330
49
102
}
330
49
100
AcDbXrecord
280
     1
102
RTVSPropertyOp0
 70
     1
102
RTVSPropertyOp1
 70
     1
102
RTVSPropertyOp2
 70
     1
102
RTVSPropertyOp3
 70
     1
102
RTVSPropertyOp4
 70
     1
102
RTVSPropertyOp5
 70
     1
102
RTVSPropertyOp6
 70
     1
102
RTVSPropertyOp7
 70
     1
102
RTVSPropertyOp8
 70
     1
102
RTVSPropertyOp9
 70
     1
102
RTVSPropertyOp10
 70
     1
102
RTVSPropertyOp11
 70
     1
102
RTVSPropertyOp12
 70
     1
102
RTVSPropertyOp13
 70
     1
102
RTVSPropertyOp14
 70
     1
102
RTVSPropertyOp15
 70
     1
102
RTVSPropertyOp16
 70
     1
102
RTVSPropertyOp17
 70
     1
102
RTVSPropertyOp18
 70
     1
102
RTVSPropertyOp19
 70
     1
102
RTVSPropertyOp20
 70
     1
102
RTVSPropertyOp21
 70
     1
102
RTVSPropertyOp22
 70
     1
102
RTVSPropertyOp23
 70
     1
102
RTVSPropertyOp24
 70
     1
102
RTVSPropertyOp25
 70
     1
102
RTVSPropertyOp26
 70
     1
102
RTVSPropertyOp27
 70
     1
102
RTVSPropertyOp28
 70
     1
102
RTVSPropertyOp29
 70
     1
102
RTVSPropertyOp30
 70
     1
102
RTVSPropertyOp31
 70
     1
102
RTVSPropertyOp32
 70
     1
  0
XRECORD
  5
5E
102
{ACAD_REACTORS
330
5D
102
}
330
5D
100
AcDbXrecord
280
     1
102
RTVSPropertyOp0
 70
     1
102
RTVSPropertyOp1
 70
     1
102
RTVSPropertyOp2
 70
     1
102
RTVSPropertyOp3
 70
     1
102
RTVSPropertyOp4
 70
     1
102
RTVSPropertyOp5
 70
     1
102
RTVSPropertyOp6
 70
     1
102
RTVSPropertyOp7
 70
     1
102
RTVSPropertyOp8
 70
     1
102
RTVSPropertyOp9
 70
     1
102
RTVSPropertyOp10
 70
     1
102
RTVSPropertyOp11
 70
     1
102
RTVSPropertyOp12
 70
     1
102
RTVSPropertyOp13
 70
     1
102
RTVSPropertyOp14
 70
     1
102
RTVSPropertyOp15
 70
     1
102
RTVSPropertyOp16
 70
     1
102
RTVSPropertyOp17
 70
     1
102
RTVSPropertyOp18
 70
     1
102
RTVSPropertyOp19
 70
     1
102
RTVSPropertyOp20
 70
     1
102
RTVSPropertyOp21
 70
     1
102
RTVSPropertyOp22
 70
     1
102
RTVSPropertyOp23
 70
     1
102
RTVSPropertyOp24
 70
     1
102
RTVSPropertyOp25
 70
     1
102
RTVSPropertyOp26
 70
     1
102
RTVSPropertyOp27
 70
     1
102
RTVSPropertyOp28
 70
     1
102
RTVSPropertyOp29
 70
     1
102
RTVSPropertyOp30
 70
     1
102
RTVSPropertyOp31
 70
     1
102
RTVSPropertyOp32
 70
     1
  0
XRECORD
  5
54
102
{ACAD_REACTORS
330
53
102
}
330
53
100
AcDbXrecord
280
     1
102
RTVSPropertyOp0
 70
     1
102
RTVSPropertyOp1
 70
     1
102
RTVSPropertyOp2
 70
     1
102
RTVSPropertyOp3
 70
     1
102
RTVSPropertyOp4
 70
     1
102
RTVSPropertyOp5
 70
     1
102
RTVSPropertyOp6
 70
     1
102
RTVSPropertyOp7
 70
     1
102
RTVSPropertyOp8
 70
     1
102
RTVSPropertyOp9
 70
     1
102
RTVSPropertyOp10
 70
     1
102
RTVSPropertyOp11
 70
     1
102
RTVSPropertyOp12
 70
     1
102
RTVSPropertyOp13
 70
     1
102
RTVSPropertyOp14
 70
     1
102
RTVSPropertyOp15
 70
     1
102
RTVSPropertyOp16
 70
     1
102
RTVSPropertyOp17
 70
     1
102
RTVSPropertyOp18
 70
     1
102
RTVSPropertyOp19
 70
     1
102
RTVSPropertyOp20
 70
     1
102
RTVSPropertyOp21
 70
     1
102
RTVSPropertyOp22
 70
     1
102
RTVSPropertyOp23
 70
     1
102
RTVSPropertyOp24
 70
     1
102
RTVSPropertyOp25
 70
     1
102
RTVSPropertyOp26
 70
     1
102
RTVSPropertyOp27
 70
     1
102
RTVSPropertyOp28
 70
     1
102
RTVSPropertyOp29
 70
     1
102
RTVSPropertyOp30
 70
     1
102
RTVSPropertyOp31
 70
     1
102
RTVSPropertyOp32
 70
     1
  0
XRECORD
  5
5C
102
{ACAD_REACTORS
330
5B
102
}
330
5B
100
AcDbXrecord
280
     1
102
RTVSPropertyOp0
 70
     1
102
RTVSPropertyOp1
 70
     1
102
RTVSPropertyOp2
 70
     1
102
RTVSPropertyOp3
 70
     1
102
RTVSPropertyOp4
 70
     1
102
RTVSPropertyOp5
 70
     1
102
RTVSPropertyOp6
 70
     1
102
RTVSPropertyOp7
 70
     1
102
RTVSPropertyOp8
 70
     1
102
RTVSPropertyOp9
 70
     1
102
RTVSPropertyOp10
 70
     1
102
RTVSPropertyOp11
 70
     1
102
RTVSPropertyOp12
 70
     1
102
RTVSPropertyOp13
 70
     1
102
RTVSPropertyOp14
 70
     1
102
RTVSPropertyOp15
 70
     1
102
RTVSPropertyOp16
 70
     1
102
RTVSPropertyOp17
 70
     1
102
RTVSPropertyOp18
 70
     1
102
RTVSPropertyOp19
 70
     1
102
RTVSPropertyOp20
 70
     1
102
RTVSPropertyOp21
 70
     1
102
RTVSPropertyOp22
 70
     1
102
RTVSPropertyOp23
 70
     1
102
RTVSPropertyOp24
 70
     1
102
RTVSPropertyOp25
 70
     1
102
RTVSPropertyOp26
 70
     1
102
RTVSPropertyOp27
 70
     1
102
RTVSPropertyOp28
 70
     1
102
RTVSPropertyOp29
 70
     1
102
RTVSPropertyOp30
 70
     1
102
RTVSPropertyOp31
 70
     1
102
RTVSPropertyOp32
 70
     1
  0
ENDSEC
  0
EOF
